{"metadata": {"schema_version": "0.1", "title": "Wo de gege dangle hongjun", "source_format": "abc"}, "resolution": 24, "tempos": [{"time": 0, "qpm": 120.0}], "key_signatures": [{"time": 0, "root": 5, "mode": "major", "fifths": -1}], "time_signatures": [{"time": 0, "numerator": 2, "denominator": 4}], "beats": [{"time": 0, "is_downbeat": true}, {"time": 24, "is_downbeat": false}, {"time": 48, "is_downbeat": true}, {"time": 72, "is_downbeat": false}, {"time": 96, "is_downbeat": true}, {"time": 120, "is_downbeat": false}, {"time": 144, "is_downbeat": true}, {"time": 168, "is_downbeat": false}, {"time": 192, "is_downbeat": true}, {"time": 216, "is_downbeat": false}, {"time": 240, "is_downbeat": true}, {"time": 264, "is_downbeat": false}, {"time": 288, "is_downbeat": true}, {"time": 312, "is_downbeat": false}, {"time": 336, "is_downbeat": true}, {"time": 360, "is_downbeat": false}, {"time": 384, "is_downbeat": true}, {"time": 408, "is_downbeat": false}, {"time": 432, "is_downbeat": true}, {"time": 456, "is_downbeat": false}, {"time": 480, "is_downbeat": true}, {"time": 504, "is_downbeat": false}, {"time": 528, "is_downbeat": true}, {"time": 552, "is_downbeat": false}, {"time": 576, "is_downbeat": true}, {"time": 600, "is_downbeat": false}, {"time": 624, "is_downbeat": true}, {"time": 648, "is_downbeat": false}, {"time": 672, "is_downbeat": true}, {"time": 696, "is_downbeat": false}, {"time": 720, "is_downbeat": true}, {"time": 744, "is_downbeat": false}, {"time": 768, "is_downbeat": true}, {"time": 792, "is_downbeat": false}, {"time": 816, "is_downbeat": true}, {"time": 840, "is_downbeat": false}, {"time": 864, "is_downbeat": true}, {"time": 888, "is_downbeat": false}, {"time": 912, "is_downbeat": true}, {"time": 936, "is_downbeat": false}, {"time": 960, "is_downbeat": true}, {"time": 984, "is_downbeat": false}, {"time": 1008, "is_downbeat": true}, {"time": 1032, "is_downbeat": false}, {"time": 1056, "is_downbeat": true}, {"time": 1080, "is_downbeat": false}, {"time": 1104, "is_downbeat": true}, {"time": 1128, "is_downbeat": false}, {"time": 1152, "is_downbeat": true}, {"time": 1176, "is_downbeat": false}, {"time": 1200, "is_downbeat": true}, {"time": 1224, "is_downbeat": false}], "tracks": [{"program": 0, "is_drum": false, "notes": [{"time": 0, "pitch": 67, "duration": 12, "velocity": 64}, {"time": 12, "pitch": 65, "duration": 6, "velocity": 64}, {"time": 18, "pitch": 64, "duration": 6, "velocity": 64}, {"time": 24, "pitch": 62, "duration": 12, "velocity": 64}, {"time": 36, "pitch": 62, "duration": 6, "velocity": 64}, {"time": 42, "pitch": 62, "duration": 6, "velocity": 64}, {"time": 48, "pitch": 67, "duration": 12, "velocity": 64}, {"time": 60, "pitch": 69, "duration": 6, "velocity": 64}, {"time": 66, "pitch": 76, "duration": 6, "velocity": 64}, {"time": 72, "pitch": 74, "duration": 72, "velocity": 64}, {"time": 144, "pitch": 72, "duration": 18, "velocity": 64}, {"time": 162, "pitch": 69, "duration": 6, "velocity": 64}, {"time": 168, "pitch": 72, "duration": 12, "velocity": 64}, {"time": 180, "pitch": 69, "duration": 6, "velocity": 64}, {"time": 186, "pitch": 67, "duration": 6, "velocity": 64}, {"time": 192, "pitch": 65, "duration": 12, "velocity": 64}, {"time": 204, "pitch": 62, "duration": 36, "velocity": 64}, {"time": 240, "pitch": 67, "duration": 6, "velocity": 64}, {"time": 246, "pitch": 69, "duration": 6, "velocity": 64}, {"time": 252, "pitch": 65, "duration": 24, "velocity": 64}, {"time": 276, "pitch": 67, "duration": 12, "velocity": 64}, {"time": 288, "pitch": 69, "duration": 24, "velocity": 64}, {"time": 312, "pitch": 74, "duration": 12, "velocity": 64}, {"time": 324, "pitch": 72, "duration": 12, "velocity": 64}, {"time": 336, "pitch": 69, "duration": 12, "velocity": 64}, {"time": 348, "pitch": 65, "duration": 12, "velocity": 64}, {"time": 360, "pitch": 67, "duration": 6, "velocity": 64}, {"time": 366, "pitch": 69, "duration": 6, "velocity": 64}, {"time": 372, "pitch": 65, "duration": 12, "velocity": 64}, {"time": 384, "pitch": 62, "duration": 48, "velocity": 64}, {"time": 432, "pitch": 74, "duration": 12, "velocity": 64}, {"time": 444, "pitch": 74, "duration": 12, "velocity": 64}, {"time": 456, "pitch": 79, "duration": 12, "velocity": 64}, {"time": 468, "pitch": 74, "duration": 6, "velocity": 64}, {"time": 474, "pitch": 72, "duration": 6, "velocity": 64}, {"time": 480, "pitch": 69, "duration": 6, "velocity": 64}, {"time": 486, "pitch": 72, "duration": 6, "velocity": 64}, {"time": 492, "pitch": 69, "duration": 6, "velocity": 64}, {"time": 498, "pitch": 67, "duration": 6, "velocity": 64}, {"time": 504, "pitch": 65, "duration": 12, "velocity": 64}, {"time": 516, "pitch": 62, "duration": 12, "velocity": 64}, {"time": 528, "pitch": 74, "duration": 12, "velocity": 64}, {"time": 540, "pitch": 74, "duration": 12, "velocity": 64}, {"time": 552, "pitch": 79, "duration": 12, "velocity": 64}, {"time": 564, "pitch": 74, "duration": 6, "velocity": 64}, {"time": 570, "pitch": 72, "duration": 6, "velocity": 64}, {"time": 576, "pitch": 69, "duration": 48, "velocity": 64}, {"time": 624, "pitch": 74, "duration": 12, "velocity": 64}, {"time": 636, "pitch": 74, "duration": 12, "velocity": 64}, {"time": 648, "pitch": 79, "duration": 12, "velocity": 64}, {"time": 660, "pitch": 74, "duration": 6, "velocity": 64}, {"time": 666, "pitch": 72, "duration": 6, "velocity": 64}, {"time": 672, "pitch": 69, "duration": 6, "velocity": 64}, {"time": 678, "pitch": 72, "duration": 6, "velocity": 64}, {"time": 684, "pitch": 69, "duration": 6, "velocity": 64}, {"time": 690, "pitch": 67, "duration": 6, "velocity": 64}, {"time": 696, "pitch": 65, "duration": 12, "velocity": 64}, {"time": 708, "pitch": 62, "duration": 12, "velocity": 64}, {"time": 720, "pitch": 67, "duration": 12, "velocity": 64}, {"time": 732, "pitch": 67, "duration": 12, "velocity": 64}, {"time": 744, "pitch": 72, "duration": 12, "velocity": 64}, {"time": 756, "pitch": 69, "duration": 6, "velocity": 64}, {"time": 762, "pitch": 67, "duration": 6, "velocity": 64}, {"time": 768, "pitch": 65, "duration": 6, "velocity": 64}, {"time": 774, "pitch": 62, "duration": 42, "velocity": 64}, {"time": 816, "pitch": 67, "duration": 12, "velocity": 64}, {"time": 828, "pitch": 65, "duration": 6, "velocity": 64}, {"time": 834, "pitch": 64, "duration": 6, "velocity": 64}, {"time": 840, "pitch": 62, "duration": 12, "velocity": 64}, {"time": 852, "pitch": 62, "duration": 6, "velocity": 64}, {"time": 858, "pitch": 62, "duration": 6, "velocity": 64}, {"time": 864, "pitch": 67, "duration": 12, "velocity": 64}, {"time": 876, "pitch": 69, "duration": 6, "velocity": 64}, {"time": 882, "pitch": 76, "duration": 6, "velocity": 64}, {"time": 888, "pitch": 74, "duration": 72, "velocity": 64}, {"time": 960, "pitch": 72, "duration": 18, "velocity": 64}, {"time": 978, "pitch": 69, "duration": 6, "velocity": 64}, {"time": 984, "pitch": 72, "duration": 12, "velocity": 64}, {"time": 996, "pitch": 69, "duration": 6, "velocity": 64}, {"time": 1002, "pitch": 67, "duration": 6, "velocity": 64}, {"time": 1008, "pitch": 65, "duration": 12, "velocity": 64}, {"time": 1020, "pitch": 62, "duration": 36, "velocity": 64}, {"time": 1056, "pitch": 67, "duration": 6, "velocity": 64}, {"time": 1062, "pitch": 69, "duration": 6, "velocity": 64}, {"time": 1068, "pitch": 65, "duration": 24, "velocity": 64}, {"time": 1092, "pitch": 67, "duration": 12, "velocity": 64}, {"time": 1104, "pitch": 69, "duration": 24, "velocity": 64}, {"time": 1128, "pitch": 74, "duration": 12, "velocity": 64}, {"time": 1140, "pitch": 72, "duration": 12, "velocity": 64}, {"time": 1152, "pitch": 69, "duration": 12, "velocity": 64}, {"time": 1164, "pitch": 65, "duration": 12, "velocity": 64}, {"time": 1176, "pitch": 67, "duration": 6, "velocity": 64}, {"time": 1182, "pitch": 69, "duration": 6, "velocity": 64}, {"time": 1188, "pitch": 65, "duration": 12, "velocity": 64}, {"time": 1200, "pitch": 62, "duration": 48, "velocity": 64}]}]}