{"metadata": {"schema_version": "0.1", "title": "Xiu jin bian, Goldinschriften sticken)", "source_format": "abc"}, "resolution": 24, "tempos": [{"time": 0, "qpm": 120.0}], "key_signatures": [{"time": 0, "root": 10, "mode": "major", "fifths": -2}], "time_signatures": [{"time": 0, "numerator": 2, "denominator": 4}], "beats": [{"time": 0, "is_downbeat": true}, {"time": 24, "is_downbeat": false}, {"time": 48, "is_downbeat": true}, {"time": 72, "is_downbeat": false}, {"time": 96, "is_downbeat": true}, {"time": 120, "is_downbeat": false}, {"time": 144, "is_downbeat": true}, {"time": 168, "is_downbeat": false}, {"time": 192, "is_downbeat": true}, {"time": 216, "is_downbeat": false}, {"time": 240, "is_downbeat": true}, {"time": 264, "is_downbeat": false}, {"time": 288, "is_downbeat": true}, {"time": 312, "is_downbeat": false}, {"time": 336, "is_downbeat": true}, {"time": 360, "is_downbeat": false}], "tracks": [{"program": 0, "is_drum": false, "notes": [{"time": 0, "pitch": 72, "duration": 12, "velocity": 64}, {"time": 12, "pitch": 82, "duration": 6, "velocity": 64}, {"time": 18, "pitch": 79, "duration": 6, "velocity": 64}, {"time": 24, "pitch": 72, "duration": 12, "velocity": 64}, {"time": 36, "pitch": 77, "duration": 6, "velocity": 64}, {"time": 42, "pitch": 74, "duration": 6, "velocity": 64}, {"time": 48, "pitch": 72, "duration": 12, "velocity": 64}, {"time": 60, "pitch": 74, "duration": 6, "velocity": 64}, {"time": 66, "pitch": 72, "duration": 6, "velocity": 64}, {"time": 72, "pitch": 82, "duration": 12, "velocity": 64}, {"time": 84, "pitch": 79, "duration": 12, "velocity": 64}, {"time": 96, "pitch": 72, "duration": 12, "velocity": 64}, {"time": 108, "pitch": 74, "duration": 6, "velocity": 64}, {"time": 114, "pitch": 77, "duration": 6, "velocity": 64}, {"time": 120, "pitch": 72, "duration": 6, "velocity": 64}, {"time": 126, "pitch": 82, "duration": 6, "velocity": 64}, {"time": 132, "pitch": 79, "duration": 12, "velocity": 64}, {"time": 144, "pitch": 79, "duration": 6, "velocity": 64}, {"time": 150, "pitch": 77, "duration": 6, "velocity": 64}, {"time": 156, "pitch": 75, "duration": 6, "velocity": 64}, {"time": 162, "pitch": 72, "duration": 6, "velocity": 64}, {"time": 168, "pitch": 77, "duration": 24, "velocity": 64}, {"time": 192, "pitch": 79, "duration": 6, "velocity": 64}, {"time": 198, "pitch": 72, "duration": 6, "velocity": 64}, {"time": 204, "pitch": 77, "duration": 6, "velocity": 64}, {"time": 210, "pitch": 79, "duration": 6, "velocity": 64}, {"time": 216, "pitch": 72, "duration": 18, "velocity": 64}, {"time": 234, "pitch": 82, "duration": 6, "velocity": 64}, {"time": 240, "pitch": 79, "duration": 6, "velocity": 64}, {"time": 246, "pitch": 82, "duration": 6, "velocity": 64}, {"time": 252, "pitch": 79, "duration": 6, "velocity": 64}, {"time": 258, "pitch": 77, "duration": 6, "velocity": 64}, {"time": 264, "pitch": 75, "duration": 18, "velocity": 64}, {"time": 282, "pitch": 77, "duration": 6, "velocity": 64}, {"time": 288, "pitch": 79, "duration": 12, "velocity": 64}, {"time": 300, "pitch": 79, "duration": 6, "velocity": 64}, {"time": 306, "pitch": 82, "duration": 6, "velocity": 64}, {"time": 312, "pitch": 79, "duration": 6, "velocity": 64}, {"time": 318, "pitch": 77, "duration": 6, "velocity": 64}, {"time": 324, "pitch": 75, "duration": 6, "velocity": 64}, {"time": 330, "pitch": 74, "duration": 6, "velocity": 64}, {"time": 336, "pitch": 72, "duration": 18, "velocity": 64}, {"time": 354, "pitch": 77, "duration": 6, "velocity": 64}, {"time": 360, "pitch": 72, "duration": 24, "velocity": 64}]}]}