{"metadata": {"schema_version": "0.1", "title": "Fun ziyou ge", "source_format": "abc"}, "resolution": 24, "tempos": [{"time": 0, "qpm": 120.0}], "key_signatures": [{"time": 0, "root": 7, "mode": "major", "fifths": 1}], "time_signatures": [{"time": 0, "numerator": 4, "denominator": 4}], "beats": [{"time": 0, "is_downbeat": true}, {"time": 24, "is_downbeat": false}, {"time": 48, "is_downbeat": false}, {"time": 72, "is_downbeat": false}, {"time": 96, "is_downbeat": true}, {"time": 120, "is_downbeat": false}, {"time": 144, "is_downbeat": false}, {"time": 168, "is_downbeat": false}, {"time": 192, "is_downbeat": true}, {"time": 216, "is_downbeat": false}, {"time": 240, "is_downbeat": false}, {"time": 264, "is_downbeat": false}, {"time": 288, "is_downbeat": true}, {"time": 312, "is_downbeat": false}, {"time": 336, "is_downbeat": false}, {"time": 360, "is_downbeat": false}, {"time": 384, "is_downbeat": true}, {"time": 408, "is_downbeat": false}, {"time": 432, "is_downbeat": false}, {"time": 456, "is_downbeat": false}, {"time": 480, "is_downbeat": true}, {"time": 504, "is_downbeat": false}, {"time": 528, "is_downbeat": false}, {"time": 552, "is_downbeat": false}, {"time": 576, "is_downbeat": true}, {"time": 600, "is_downbeat": false}, {"time": 624, "is_downbeat": false}, {"time": 648, "is_downbeat": false}, {"time": 672, "is_downbeat": true}, {"time": 696, "is_downbeat": false}, {"time": 720, "is_downbeat": false}, {"time": 744, "is_downbeat": false}, {"time": 768, "is_downbeat": true}, {"time": 792, "is_downbeat": false}, {"time": 816, "is_downbeat": false}, {"time": 840, "is_downbeat": false}, {"time": 864, "is_downbeat": true}, {"time": 888, "is_downbeat": false}, {"time": 912, "is_downbeat": false}, {"time": 936, "is_downbeat": false}, {"time": 960, "is_downbeat": true}, {"time": 984, "is_downbeat": false}, {"time": 1008, "is_downbeat": false}, {"time": 1032, "is_downbeat": false}, {"time": 1056, "is_downbeat": true}, {"time": 1080, "is_downbeat": false}, {"time": 1104, "is_downbeat": false}, {"time": 1128, "is_downbeat": false}, {"time": 1152, "is_downbeat": true}, {"time": 1176, "is_downbeat": false}, {"time": 1200, "is_downbeat": false}, {"time": 1224, "is_downbeat": false}, {"time": 1248, "is_downbeat": true}, {"time": 1272, "is_downbeat": false}, {"time": 1296, "is_downbeat": false}, {"time": 1320, "is_downbeat": false}, {"time": 1344, "is_downbeat": true}, {"time": 1368, "is_downbeat": false}, {"time": 1392, "is_downbeat": true}, {"time": 1416, "is_downbeat": false}, {"time": 1440, "is_downbeat": true}, {"time": 1464, "is_downbeat": false}, {"time": 1488, "is_downbeat": true}, {"time": 1512, "is_downbeat": false}, {"time": 1536, "is_downbeat": false}, {"time": 1560, "is_downbeat": false}, {"time": 1584, "is_downbeat": true}, {"time": 1608, "is_downbeat": false}, {"time": 1632, "is_downbeat": true}, {"time": 1656, "is_downbeat": false}, {"time": 1680, "is_downbeat": true}, {"time": 1704, "is_downbeat": false}, {"time": 1728, "is_downbeat": false}, {"time": 1752, "is_downbeat": false}, {"time": 1776, "is_downbeat": true}, {"time": 1800, "is_downbeat": false}, {"time": 1824, "is_downbeat": true}, {"time": 1848, "is_downbeat": false}, {"time": 1872, "is_downbeat": true}, {"time": 1896, "is_downbeat": false}, {"time": 1920, "is_downbeat": false}, {"time": 1944, "is_downbeat": false}, {"time": 1968, "is_downbeat": true}, {"time": 1992, "is_downbeat": false}, {"time": 2016, "is_downbeat": true}, {"time": 2040, "is_downbeat": false}, {"time": 2064, "is_downbeat": true}, {"time": 2088, "is_downbeat": false}, {"time": 2112, "is_downbeat": false}, {"time": 2136, "is_downbeat": false}, {"time": 2160, "is_downbeat": true}, {"time": 2184, "is_downbeat": false}, {"time": 2208, "is_downbeat": true}, {"time": 2232, "is_downbeat": false}, {"time": 2256, "is_downbeat": true}, {"time": 2280, "is_downbeat": false}, {"time": 2304, "is_downbeat": false}, {"time": 2328, "is_downbeat": false}, {"time": 2352, "is_downbeat": true}, {"time": 2376, "is_downbeat": false}, {"time": 2400, "is_downbeat": true}, {"time": 2424, "is_downbeat": false}, {"time": 2448, "is_downbeat": true}, {"time": 2472, "is_downbeat": false}, {"time": 2496, "is_downbeat": true}, {"time": 2520, "is_downbeat": false}, {"time": 2544, "is_downbeat": false}, {"time": 2568, "is_downbeat": false}, {"time": 2592, "is_downbeat": true}, {"time": 2616, "is_downbeat": false}, {"time": 2640, "is_downbeat": true}, {"time": 2664, "is_downbeat": false}, {"time": 2688, "is_downbeat": true}, {"time": 2712, "is_downbeat": false}, {"time": 2736, "is_downbeat": true}, {"time": 2760, "is_downbeat": false}, {"time": 2784, "is_downbeat": false}, {"time": 2808, "is_downbeat": false}, {"time": 2832, "is_downbeat": true}, {"time": 2856, "is_downbeat": false}, {"time": 2880, "is_downbeat": true}, {"time": 2904, "is_downbeat": false}, {"time": 2928, "is_downbeat": true}, {"time": 2952, "is_downbeat": false}, {"time": 2976, "is_downbeat": false}, {"time": 3000, "is_downbeat": false}, {"time": 3024, "is_downbeat": true}, {"time": 3048, "is_downbeat": false}, {"time": 3072, "is_downbeat": true}, {"time": 3096, "is_downbeat": false}, {"time": 3120, "is_downbeat": true}, {"time": 3144, "is_downbeat": false}, {"time": 3168, "is_downbeat": false}, {"time": 3192, "is_downbeat": false}, {"time": 3216, "is_downbeat": true}, {"time": 3240, "is_downbeat": false}, {"time": 3264, "is_downbeat": false}, {"time": 3288, "is_downbeat": false}, {"time": 3312, "is_downbeat": true}, {"time": 3336, "is_downbeat": false}, {"time": 3360, "is_downbeat": false}, {"time": 3384, "is_downbeat": false}, {"time": 3408, "is_downbeat": true}, {"time": 3432, "is_downbeat": false}, {"time": 3456, "is_downbeat": false}, {"time": 3480, "is_downbeat": false}, {"time": 3504, "is_downbeat": true}, {"time": 3528, "is_downbeat": false}, {"time": 3552, "is_downbeat": false}, {"time": 3576, "is_downbeat": false}, {"time": 3600, "is_downbeat": true}, {"time": 3624, "is_downbeat": false}, {"time": 3648, "is_downbeat": false}, {"time": 3672, "is_downbeat": false}, {"time": 3696, "is_downbeat": true}, {"time": 3720, "is_downbeat": false}, {"time": 3744, "is_downbeat": true}, {"time": 3768, "is_downbeat": false}, {"time": 3792, "is_downbeat": false}, {"time": 3816, "is_downbeat": false}, {"time": 3840, "is_downbeat": true}, {"time": 3864, "is_downbeat": false}, {"time": 3888, "is_downbeat": false}, {"time": 3912, "is_downbeat": false}, {"time": 3936, "is_downbeat": true}, {"time": 3960, "is_downbeat": false}, {"time": 3984, "is_downbeat": true}, {"time": 4008, "is_downbeat": false}, {"time": 4032, "is_downbeat": false}, {"time": 4056, "is_downbeat": false}], "tracks": [{"program": 0, "is_drum": false, "notes": [{"time": 0, "pitch": 71, "duration": 18, "velocity": 64}, {"time": 18, "pitch": 76, "duration": 6, "velocity": 64}, {"time": 24, "pitch": 74, "duration": 12, "velocity": 64}, {"time": 36, "pitch": 71, "duration": 12, "velocity": 64}, {"time": 48, "pitch": 69, "duration": 36, "velocity": 64}, {"time": 84, "pitch": 71, "duration": 12, "velocity": 64}, {"time": 96, "pitch": 74, "duration": 18, "velocity": 64}, {"time": 114, "pitch": 76, "duration": 6, "velocity": 64}, {"time": 120, "pitch": 74, "duration": 12, "velocity": 64}, {"time": 132, "pitch": 69, "duration": 12, "velocity": 64}, {"time": 144, "pitch": 67, "duration": 24, "velocity": 64}, {"time": 168, "pitch": 66, "duration": 12, "velocity": 64}, {"time": 180, "pitch": 64, "duration": 12, "velocity": 64}, {"time": 192, "pitch": 71, "duration": 18, "velocity": 64}, {"time": 210, "pitch": 76, "duration": 6, "velocity": 64}, {"time": 216, "pitch": 74, "duration": 12, "velocity": 64}, {"time": 228, "pitch": 74, "duration": 6, "velocity": 64}, {"time": 234, "pitch": 66, "duration": 6, "velocity": 64}, {"time": 240, "pitch": 69, "duration": 12, "velocity": 64}, {"time": 252, "pitch": 67, "duration": 12, "velocity": 64}, {"time": 264, "pitch": 66, "duration": 12, "velocity": 64}, {"time": 276, "pitch": 64, "duration": 12, "velocity": 64}, {"time": 288, "pitch": 69, "duration": 18, "velocity": 64}, {"time": 306, "pitch": 71, "duration": 6, "velocity": 64}, {"time": 312, "pitch": 69, "duration": 12, "velocity": 64}, {"time": 324, "pitch": 64, "duration": 12, "velocity": 64}, {"time": 336, "pitch": 62, "duration": 48, "velocity": 64}, {"time": 384, "pitch": 66, "duration": 12, "velocity": 64}, {"time": 396, "pitch": 69, "duration": 6, "velocity": 64}, {"time": 402, "pitch": 71, "duration": 6, "velocity": 64}, {"time": 408, "pitch": 69, "duration": 24, "velocity": 64}, {"time": 432, "pitch": 71, "duration": 18, "velocity": 64}, {"time": 450, "pitch": 76, "duration": 6, "velocity": 64}, {"time": 456, "pitch": 74, "duration": 12, "velocity": 64}, {"time": 468, "pitch": 71, "duration": 12, "velocity": 64}, {"time": 480, "pitch": 74, "duration": 12, "velocity": 64}, {"time": 492, "pitch": 69, "duration": 6, "velocity": 64}, {"time": 498, "pitch": 71, "duration": 6, "velocity": 64}, {"time": 504, "pitch": 69, "duration": 12, "velocity": 64}, {"time": 516, "pitch": 62, "duration": 12, "velocity": 64}, {"time": 528, "pitch": 66, "duration": 18, "velocity": 64}, {"time": 546, "pitch": 71, "duration": 6, "velocity": 64}, {"time": 552, "pitch": 69, "duration": 12, "velocity": 64}, {"time": 564, "pitch": 67, "duration": 12, "velocity": 64}, {"time": 576, "pitch": 66, "duration": 12, "velocity": 64}, {"time": 588, "pitch": 64, "duration": 6, "velocity": 64}, {"time": 594, "pitch": 64, "duration": 6, "velocity": 64}, {"time": 600, "pitch": 62, "duration": 12, "velocity": 64}, {"time": 612, "pitch": 64, "duration": 6, "velocity": 64}, {"time": 618, "pitch": 67, "duration": 6, "velocity": 64}, {"time": 624, "pitch": 62, "duration": 48, "velocity": 64}, {"time": 672, "pitch": 71, "duration": 18, "velocity": 64}, {"time": 690, "pitch": 76, "duration": 6, "velocity": 64}, {"time": 696, "pitch": 74, "duration": 12, "velocity": 64}, {"time": 708, "pitch": 71, "duration": 12, "velocity": 64}, {"time": 720, "pitch": 74, "duration": 12, "velocity": 64}, {"time": 732, "pitch": 69, "duration": 24, "velocity": 64}, {"time": 756, "pitch": 71, "duration": 12, "velocity": 64}, {"time": 768, "pitch": 74, "duration": 18, "velocity": 64}, {"time": 786, "pitch": 76, "duration": 6, "velocity": 64}, {"time": 792, "pitch": 74, "duration": 12, "velocity": 64}, {"time": 804, "pitch": 69, "duration": 12, "velocity": 64}, {"time": 816, "pitch": 67, "duration": 24, "velocity": 64}, {"time": 840, "pitch": 66, "duration": 12, "velocity": 64}, {"time": 852, "pitch": 64, "duration": 12, "velocity": 64}, {"time": 864, "pitch": 71, "duration": 18, "velocity": 64}, {"time": 882, "pitch": 76, "duration": 6, "velocity": 64}, {"time": 888, "pitch": 74, "duration": 12, "velocity": 64}, {"time": 900, "pitch": 66, "duration": 12, "velocity": 64}, {"time": 912, "pitch": 69, "duration": 12, "velocity": 64}, {"time": 924, "pitch": 67, "duration": 12, "velocity": 64}, {"time": 936, "pitch": 66, "duration": 12, "velocity": 64}, {"time": 948, "pitch": 64, "duration": 12, "velocity": 64}, {"time": 960, "pitch": 69, "duration": 18, "velocity": 64}, {"time": 978, "pitch": 71, "duration": 6, "velocity": 64}, {"time": 984, "pitch": 69, "duration": 12, "velocity": 64}, {"time": 996, "pitch": 64, "duration": 12, "velocity": 64}, {"time": 1008, "pitch": 62, "duration": 48, "velocity": 64}, {"time": 1056, "pitch": 69, "duration": 18, "velocity": 64}, {"time": 1074, "pitch": 71, "duration": 6, "velocity": 64}, {"time": 1080, "pitch": 69, "duration": 18, "velocity": 64}, {"time": 1098, "pitch": 69, "duration": 6, "velocity": 64}, {"time": 1104, "pitch": 71, "duration": 18, "velocity": 64}, {"time": 1122, "pitch": 76, "duration": 6, "velocity": 64}, {"time": 1128, "pitch": 74, "duration": 12, "velocity": 64}, {"time": 1140, "pitch": 71, "duration": 12, "velocity": 64}, {"time": 1152, "pitch": 74, "duration": 12, "velocity": 64}, {"time": 1164, "pitch": 69, "duration": 6, "velocity": 64}, {"time": 1170, "pitch": 71, "duration": 6, "velocity": 64}, {"time": 1176, "pitch": 69, "duration": 12, "velocity": 64}, {"time": 1188, "pitch": 62, "duration": 12, "velocity": 64}, {"time": 1200, "pitch": 66, "duration": 18, "velocity": 64}, {"time": 1218, "pitch": 71, "duration": 6, "velocity": 64}, {"time": 1224, "pitch": 69, "duration": 12, "velocity": 64}, {"time": 1236, "pitch": 67, "duration": 12, "velocity": 64}, {"time": 1248, "pitch": 66, "duration": 12, "velocity": 64}, {"time": 1260, "pitch": 64, "duration": 12, "velocity": 64}, {"time": 1272, "pitch": 62, "duration": 12, "velocity": 64}, {"time": 1284, "pitch": 64, "duration": 6, "velocity": 64}, {"time": 1290, "pitch": 67, "duration": 6, "velocity": 64}, {"time": 1296, "pitch": 62, "duration": 48, "velocity": 64}, {"time": 1344, "pitch": 74, "duration": 24, "velocity": 64}, {"time": 1368, "pitch": 72, "duration": 12, "velocity": 64}, {"time": 1380, "pitch": 71, "duration": 12, "velocity": 64}, {"time": 1392, "pitch": 76, "duration": 12, "velocity": 64}, {"time": 1404, "pitch": 71, "duration": 12, "velocity": 64}, {"time": 1416, "pitch": 69, "duration": 24, "velocity": 64}, {"time": 1440, "pitch": 74, "duration": 12, "velocity": 64}, {"time": 1452, "pitch": 69, "duration": 12, "velocity": 64}, {"time": 1464, "pitch": 71, "duration": 12, "velocity": 64}, {"time": 1476, "pitch": 74, "duration": 12, "velocity": 64}, {"time": 1488, "pitch": 67, "duration": 24, "velocity": 64}, {"time": 1512, "pitch": 66, "duration": 12, "velocity": 64}, {"time": 1524, "pitch": 64, "duration": 12, "velocity": 64}, {"time": 1536, "pitch": 74, "duration": 12, "velocity": 64}, {"time": 1548, "pitch": 66, "duration": 12, "velocity": 64}, {"time": 1560, "pitch": 69, "duration": 12, "velocity": 64}, {"time": 1572, "pitch": 71, "duration": 12, "velocity": 64}, {"time": 1584, "pitch": 69, "duration": 12, "velocity": 64}, {"time": 1596, "pitch": 67, "duration": 12, "velocity": 64}, {"time": 1608, "pitch": 66, "duration": 12, "velocity": 64}, {"time": 1620, "pitch": 64, "duration": 12, "velocity": 64}, {"time": 1632, "pitch": 62, "duration": 12, "velocity": 64}, {"time": 1644, "pitch": 64, "duration": 12, "velocity": 64}, {"time": 1656, "pitch": 69, "duration": 12, "velocity": 64}, {"time": 1668, "pitch": 67, "duration": 12, "velocity": 64}, {"time": 1680, "pitch": 62, "duration": 48, "velocity": 64}, {"time": 1728, "pitch": 71, "duration": 12, "velocity": 64}, {"time": 1740, "pitch": 74, "duration": 12, "velocity": 64}, {"time": 1752, "pitch": 69, "duration": 24, "velocity": 64}, {"time": 1776, "pitch": 71, "duration": 12, "velocity": 64}, {"time": 1788, "pitch": 74, "duration": 12, "velocity": 64}, {"time": 1800, "pitch": 69, "duration": 24, "velocity": 64}, {"time": 1824, "pitch": 74, "duration": 24, "velocity": 64}, {"time": 1848, "pitch": 69, "duration": 12, "velocity": 64}, {"time": 1860, "pitch": 67, "duration": 12, "velocity": 64}, {"time": 1872, "pitch": 66, "duration": 12, "velocity": 64}, {"time": 1884, "pitch": 64, "duration": 12, "velocity": 64}, {"time": 1896, "pitch": 62, "duration": 24, "velocity": 64}, {"time": 1920, "pitch": 71, "duration": 18, "velocity": 64}, {"time": 1938, "pitch": 74, "duration": 6, "velocity": 64}, {"time": 1944, "pitch": 69, "duration": 12, "velocity": 64}, {"time": 1956, "pitch": 71, "duration": 12, "velocity": 64}, {"time": 1968, "pitch": 74, "duration": 18, "velocity": 64}, {"time": 1986, "pitch": 76, "duration": 6, "velocity": 64}, {"time": 1992, "pitch": 74, "duration": 12, "velocity": 64}, {"time": 2004, "pitch": 72, "duration": 12, "velocity": 64}, {"time": 2016, "pitch": 71, "duration": 12, "velocity": 64}, {"time": 2028, "pitch": 69, "duration": 6, "velocity": 64}, {"time": 2034, "pitch": 71, "duration": 6, "velocity": 64}, {"time": 2040, "pitch": 69, "duration": 12, "velocity": 64}, {"time": 2052, "pitch": 64, "duration": 12, "velocity": 64}, {"time": 2064, "pitch": 62, "duration": 48, "velocity": 64}, {"time": 2112, "pitch": 67, "duration": 12, "velocity": 64}, {"time": 2124, "pitch": 64, "duration": 12, "velocity": 64}, {"time": 2136, "pitch": 62, "duration": 24, "velocity": 64}, {"time": 2160, "pitch": 69, "duration": 12, "velocity": 64}, {"time": 2172, "pitch": 69, "duration": 24, "velocity": 64}, {"time": 2196, "pitch": 71, "duration": 12, "velocity": 64}, {"time": 2208, "pitch": 74, "duration": 24, "velocity": 64}, {"time": 2232, "pitch": 69, "duration": 12, "velocity": 64}, {"time": 2244, "pitch": 67, "duration": 12, "velocity": 64}, {"time": 2256, "pitch": 66, "duration": 12, "velocity": 64}, {"time": 2268, "pitch": 64, "duration": 12, "velocity": 64}, {"time": 2280, "pitch": 62, "duration": 24, "velocity": 64}, {"time": 2304, "pitch": 71, "duration": 18, "velocity": 64}, {"time": 2322, "pitch": 74, "duration": 6, "velocity": 64}, {"time": 2328, "pitch": 69, "duration": 12, "velocity": 64}, {"time": 2340, "pitch": 71, "duration": 12, "velocity": 64}, {"time": 2352, "pitch": 74, "duration": 18, "velocity": 64}, {"time": 2370, "pitch": 76, "duration": 6, "velocity": 64}, {"time": 2376, "pitch": 74, "duration": 12, "velocity": 64}, {"time": 2388, "pitch": 72, "duration": 12, "velocity": 64}, {"time": 2400, "pitch": 71, "duration": 12, "velocity": 64}, {"time": 2412, "pitch": 69, "duration": 6, "velocity": 64}, {"time": 2418, "pitch": 71, "duration": 6, "velocity": 64}, {"time": 2424, "pitch": 69, "duration": 12, "velocity": 64}, {"time": 2436, "pitch": 62, "duration": 12, "velocity": 64}, {"time": 2448, "pitch": 67, "duration": 18, "velocity": 64}, {"time": 2466, "pitch": 69, "duration": 6, "velocity": 64}, {"time": 2472, "pitch": 66, "duration": 12, "velocity": 64}, {"time": 2484, "pitch": 64, "duration": 12, "velocity": 64}, {"time": 2496, "pitch": 62, "duration": 48, "velocity": 64}, {"time": 2544, "pitch": 71, "duration": 18, "velocity": 64}, {"time": 2562, "pitch": 74, "duration": 6, "velocity": 64}, {"time": 2568, "pitch": 69, "duration": 12, "velocity": 64}, {"time": 2580, "pitch": 71, "duration": 12, "velocity": 64}, {"time": 2592, "pitch": 74, "duration": 18, "velocity": 64}, {"time": 2610, "pitch": 76, "duration": 6, "velocity": 64}, {"time": 2616, "pitch": 74, "duration": 12, "velocity": 64}, {"time": 2628, "pitch": 72, "duration": 12, "velocity": 64}, {"time": 2640, "pitch": 71, "duration": 12, "velocity": 64}, {"time": 2652, "pitch": 69, "duration": 6, "velocity": 64}, {"time": 2658, "pitch": 71, "duration": 6, "velocity": 64}, {"time": 2664, "pitch": 69, "duration": 12, "velocity": 64}, {"time": 2676, "pitch": 62, "duration": 12, "velocity": 64}, {"time": 2688, "pitch": 67, "duration": 18, "velocity": 64}, {"time": 2706, "pitch": 69, "duration": 6, "velocity": 64}, {"time": 2712, "pitch": 66, "duration": 12, "velocity": 64}, {"time": 2724, "pitch": 64, "duration": 12, "velocity": 64}, {"time": 2736, "pitch": 62, "duration": 48, "velocity": 64}, {"time": 2784, "pitch": 71, "duration": 12, "velocity": 64}, {"time": 2796, "pitch": 74, "duration": 12, "velocity": 64}, {"time": 2808, "pitch": 69, "duration": 24, "velocity": 64}, {"time": 2832, "pitch": 71, "duration": 12, "velocity": 64}, {"time": 2844, "pitch": 74, "duration": 12, "velocity": 64}, {"time": 2856, "pitch": 69, "duration": 24, "velocity": 64}, {"time": 2880, "pitch": 74, "duration": 18, "velocity": 64}, {"time": 2898, "pitch": 76, "duration": 6, "velocity": 64}, {"time": 2904, "pitch": 75, "duration": 12, "velocity": 64}, {"time": 2916, "pitch": 72, "duration": 12, "velocity": 64}, {"time": 2928, "pitch": 77, "duration": 18, "velocity": 64}, {"time": 2946, "pitch": 72, "duration": 6, "velocity": 64}, {"time": 2952, "pitch": 71, "duration": 12, "velocity": 64}, {"time": 2964, "pitch": 69, "duration": 12, "velocity": 64}, {"time": 2988, "pitch": 75, "duration": 12, "velocity": 64}, {"time": 3000, "pitch": 72, "duration": 12, "velocity": 64}, {"time": 3012, "pitch": 71, "duration": 12, "velocity": 64}, {"time": 3024, "pitch": 76, "duration": 12, "velocity": 64}, {"time": 3036, "pitch": 66, "duration": 12, "velocity": 64}, {"time": 3048, "pitch": 69, "duration": 12, "velocity": 64}, {"time": 3060, "pitch": 71, "duration": 12, "velocity": 64}, {"time": 3072, "pitch": 69, "duration": 12, "velocity": 64}, {"time": 3084, "pitch": 66, "duration": 12, "velocity": 64}, {"time": 3096, "pitch": 64, "duration": 12, "velocity": 64}, {"time": 3108, "pitch": 62, "duration": 12, "velocity": 64}, {"time": 3120, "pitch": 57, "duration": 48, "velocity": 64}, {"time": 3168, "pitch": 76, "duration": 18, "velocity": 64}, {"time": 3186, "pitch": 77, "duration": 6, "velocity": 64}, {"time": 3192, "pitch": 72, "duration": 12, "velocity": 64}, {"time": 3204, "pitch": 71, "duration": 12, "velocity": 64}, {"time": 3216, "pitch": 69, "duration": 12, "velocity": 64}, {"time": 3228, "pitch": 64, "duration": 12, "velocity": 64}, {"time": 3240, "pitch": 69, "duration": 24, "velocity": 64}, {"time": 3264, "pitch": 69, "duration": 12, "velocity": 64}, {"time": 3276, "pitch": 64, "duration": 12, "velocity": 64}, {"time": 3288, "pitch": 70, "duration": 12, "velocity": 64}, {"time": 3300, "pitch": 67, "duration": 12, "velocity": 64}, {"time": 3312, "pitch": 69, "duration": 12, "velocity": 64}, {"time": 3324, "pitch": 71, "duration": 12, "velocity": 64}, {"time": 3336, "pitch": 69, "duration": 24, "velocity": 64}, {"time": 3360, "pitch": 69, "duration": 12, "velocity": 64}, {"time": 3372, "pitch": 64, "duration": 12, "velocity": 64}, {"time": 3384, "pitch": 70, "duration": 12, "velocity": 64}, {"time": 3396, "pitch": 67, "duration": 12, "velocity": 64}, {"time": 3408, "pitch": 69, "duration": 12, "velocity": 64}, {"time": 3420, "pitch": 71, "duration": 12, "velocity": 64}, {"time": 3432, "pitch": 69, "duration": 24, "velocity": 64}, {"time": 3456, "pitch": 76, "duration": 18, "velocity": 64}, {"time": 3474, "pitch": 66, "duration": 6, "velocity": 64}, {"time": 3480, "pitch": 69, "duration": 12, "velocity": 64}, {"time": 3492, "pitch": 66, "duration": 12, "velocity": 64}, {"time": 3504, "pitch": 69, "duration": 12, "velocity": 64}, {"time": 3516, "pitch": 71, "duration": 12, "velocity": 64}, {"time": 3528, "pitch": 69, "duration": 24, "velocity": 64}, {"time": 3552, "pitch": 76, "duration": 18, "velocity": 64}, {"time": 3570, "pitch": 77, "duration": 6, "velocity": 64}, {"time": 3576, "pitch": 72, "duration": 12, "velocity": 64}, {"time": 3588, "pitch": 71, "duration": 12, "velocity": 64}, {"time": 3600, "pitch": 69, "duration": 12, "velocity": 64}, {"time": 3612, "pitch": 64, "duration": 12, "velocity": 64}, {"time": 3624, "pitch": 69, "duration": 12, "velocity": 64}, {"time": 3636, "pitch": 69, "duration": 12, "velocity": 64}, {"time": 3648, "pitch": 69, "duration": 12, "velocity": 64}, {"time": 3660, "pitch": 75, "duration": 12, "velocity": 64}, {"time": 3672, "pitch": 72, "duration": 12, "velocity": 64}, {"time": 3684, "pitch": 74, "duration": 12, "velocity": 64}, {"time": 3696, "pitch": 69, "duration": 24, "velocity": 64}, {"time": 3720, "pitch": 74, "duration": 12, "velocity": 64}, {"time": 3732, "pitch": 66, "duration": 12, "velocity": 64}, {"time": 3744, "pitch": 64, "duration": 12, "velocity": 64}, {"time": 3756, "pitch": 62, "duration": 12, "velocity": 64}, {"time": 3768, "pitch": 57, "duration": 24, "velocity": 64}, {"time": 3792, "pitch": 76, "duration": 18, "velocity": 64}, {"time": 3810, "pitch": 77, "duration": 6, "velocity": 64}, {"time": 3816, "pitch": 72, "duration": 12, "velocity": 64}, {"time": 3828, "pitch": 71, "duration": 12, "velocity": 64}, {"time": 3840, "pitch": 69, "duration": 12, "velocity": 64}, {"time": 3852, "pitch": 64, "duration": 12, "velocity": 64}, {"time": 3864, "pitch": 69, "duration": 12, "velocity": 64}, {"time": 3876, "pitch": 69, "duration": 12, "velocity": 64}, {"time": 3888, "pitch": 69, "duration": 12, "velocity": 64}, {"time": 3900, "pitch": 75, "duration": 12, "velocity": 64}, {"time": 3912, "pitch": 72, "duration": 12, "velocity": 64}, {"time": 3924, "pitch": 74, "duration": 12, "velocity": 64}, {"time": 3936, "pitch": 76, "duration": 12, "velocity": 64}, {"time": 3948, "pitch": 75, "duration": 12, "velocity": 64}, {"time": 3960, "pitch": 72, "duration": 12, "velocity": 64}, {"time": 3972, "pitch": 71, "duration": 12, "velocity": 64}, {"time": 3984, "pitch": 74, "duration": 48, "velocity": 64}]}]}