{"metadata": {"schema_version": "0.1", "title": "Yi xin xiangzhe Mao Zedong", "source_format": "abc"}, "resolution": 24, "tempos": [{"time": 0, "qpm": 120.0}], "key_signatures": [{"time": 0, "root": 0, "mode": "major", "fifths": 0}], "time_signatures": [{"time": 0, "numerator": 2, "denominator": 4}], "beats": [{"time": 0, "is_downbeat": true}, {"time": 24, "is_downbeat": false}, {"time": 48, "is_downbeat": true}, {"time": 72, "is_downbeat": false}, {"time": 96, "is_downbeat": true}, {"time": 120, "is_downbeat": false}, {"time": 144, "is_downbeat": true}, {"time": 168, "is_downbeat": false}, {"time": 192, "is_downbeat": true}, {"time": 216, "is_downbeat": false}, {"time": 240, "is_downbeat": true}, {"time": 264, "is_downbeat": false}, {"time": 288, "is_downbeat": true}, {"time": 312, "is_downbeat": false}, {"time": 336, "is_downbeat": true}, {"time": 360, "is_downbeat": false}], "tracks": [{"program": 0, "is_drum": false, "notes": [{"time": 0, "pitch": 76, "duration": 12, "velocity": 64}, {"time": 12, "pitch": 74, "duration": 6, "velocity": 64}, {"time": 18, "pitch": 76, "duration": 6, "velocity": 64}, {"time": 24, "pitch": 67, "duration": 18, "velocity": 64}, {"time": 42, "pitch": 69, "duration": 6, "velocity": 64}, {"time": 48, "pitch": 72, "duration": 12, "velocity": 64}, {"time": 60, "pitch": 72, "duration": 6, "velocity": 64}, {"time": 66, "pitch": 74, "duration": 6, "velocity": 64}, {"time": 72, "pitch": 72, "duration": 6, "velocity": 64}, {"time": 78, "pitch": 69, "duration": 12, "velocity": 64}, {"time": 90, "pitch": 79, "duration": 6, "velocity": 64}, {"time": 96, "pitch": 76, "duration": 12, "velocity": 64}, {"time": 108, "pitch": 67, "duration": 12, "velocity": 64}, {"time": 120, "pitch": 69, "duration": 6, "velocity": 64}, {"time": 126, "pitch": 67, "duration": 6, "velocity": 64}, {"time": 132, "pitch": 64, "duration": 12, "velocity": 64}, {"time": 144, "pitch": 74, "duration": 48, "velocity": 64}, {"time": 192, "pitch": 76, "duration": 12, "velocity": 64}, {"time": 204, "pitch": 74, "duration": 6, "velocity": 64}, {"time": 210, "pitch": 76, "duration": 6, "velocity": 64}, {"time": 216, "pitch": 67, "duration": 18, "velocity": 64}, {"time": 234, "pitch": 69, "duration": 6, "velocity": 64}, {"time": 240, "pitch": 72, "duration": 12, "velocity": 64}, {"time": 252, "pitch": 72, "duration": 6, "velocity": 64}, {"time": 258, "pitch": 74, "duration": 6, "velocity": 64}, {"time": 264, "pitch": 72, "duration": 6, "velocity": 64}, {"time": 270, "pitch": 69, "duration": 12, "velocity": 64}, {"time": 282, "pitch": 79, "duration": 6, "velocity": 64}, {"time": 288, "pitch": 76, "duration": 12, "velocity": 64}, {"time": 300, "pitch": 67, "duration": 12, "velocity": 64}, {"time": 312, "pitch": 69, "duration": 6, "velocity": 64}, {"time": 318, "pitch": 67, "duration": 6, "velocity": 64}, {"time": 324, "pitch": 64, "duration": 12, "velocity": 64}, {"time": 336, "pitch": 67, "duration": 48, "velocity": 64}]}]}