{"metadata": {"schema_version": "0.1", "title": "Song qing lang", "source_format": "abc"}, "resolution": 24, "tempos": [{"time": 0, "qpm": 120.0}], "key_signatures": [{"time": 0, "root": 10, "mode": "major", "fifths": -2}], "time_signatures": [{"time": 0, "numerator": 4, "denominator": 4}], "beats": [{"time": 0, "is_downbeat": true}, {"time": 24, "is_downbeat": false}, {"time": 48, "is_downbeat": false}, {"time": 72, "is_downbeat": false}, {"time": 96, "is_downbeat": true}, {"time": 120, "is_downbeat": false}, {"time": 144, "is_downbeat": false}, {"time": 168, "is_downbeat": false}, {"time": 192, "is_downbeat": true}, {"time": 216, "is_downbeat": false}, {"time": 240, "is_downbeat": false}, {"time": 264, "is_downbeat": false}, {"time": 288, "is_downbeat": true}, {"time": 312, "is_downbeat": false}, {"time": 336, "is_downbeat": false}, {"time": 360, "is_downbeat": false}, {"time": 384, "is_downbeat": true}, {"time": 408, "is_downbeat": false}, {"time": 432, "is_downbeat": false}, {"time": 456, "is_downbeat": false}, {"time": 480, "is_downbeat": true}, {"time": 504, "is_downbeat": false}, {"time": 528, "is_downbeat": false}, {"time": 552, "is_downbeat": false}, {"time": 576, "is_downbeat": true}, {"time": 600, "is_downbeat": false}, {"time": 624, "is_downbeat": false}, {"time": 648, "is_downbeat": false}, {"time": 672, "is_downbeat": true}, {"time": 696, "is_downbeat": false}, {"time": 720, "is_downbeat": false}, {"time": 744, "is_downbeat": false}, {"time": 768, "is_downbeat": true}, {"time": 792, "is_downbeat": false}, {"time": 816, "is_downbeat": false}, {"time": 840, "is_downbeat": false}, {"time": 864, "is_downbeat": true}, {"time": 888, "is_downbeat": false}, {"time": 912, "is_downbeat": false}, {"time": 936, "is_downbeat": false}, {"time": 960, "is_downbeat": true}, {"time": 984, "is_downbeat": false}, {"time": 1008, "is_downbeat": false}, {"time": 1032, "is_downbeat": false}, {"time": 1056, "is_downbeat": true}, {"time": 1080, "is_downbeat": false}, {"time": 1104, "is_downbeat": false}, {"time": 1128, "is_downbeat": false}, {"time": 1152, "is_downbeat": true}, {"time": 1176, "is_downbeat": false}, {"time": 1200, "is_downbeat": false}, {"time": 1224, "is_downbeat": false}, {"time": 1248, "is_downbeat": true}, {"time": 1272, "is_downbeat": false}, {"time": 1296, "is_downbeat": false}, {"time": 1320, "is_downbeat": false}], "tracks": [{"program": 0, "is_drum": false, "notes": [{"time": 0, "pitch": 72, "duration": 18, "velocity": 64}, {"time": 18, "pitch": 82, "duration": 6, "velocity": 64}, {"time": 24, "pitch": 72, "duration": 12, "velocity": 64}, {"time": 36, "pitch": 74, "duration": 12, "velocity": 64}, {"time": 48, "pitch": 82, "duration": 12, "velocity": 64}, {"time": 60, "pitch": 79, "duration": 24, "velocity": 64}, {"time": 84, "pitch": 72, "duration": 12, "velocity": 64}, {"time": 96, "pitch": 77, "duration": 18, "velocity": 64}, {"time": 114, "pitch": 74, "duration": 6, "velocity": 64}, {"time": 120, "pitch": 72, "duration": 12, "velocity": 64}, {"time": 132, "pitch": 74, "duration": 6, "velocity": 64}, {"time": 138, "pitch": 72, "duration": 6, "velocity": 64}, {"time": 144, "pitch": 82, "duration": 12, "velocity": 64}, {"time": 156, "pitch": 79, "duration": 24, "velocity": 64}, {"time": 180, "pitch": 72, "duration": 12, "velocity": 64}, {"time": 192, "pitch": 72, "duration": 18, "velocity": 64}, {"time": 210, "pitch": 77, "duration": 6, "velocity": 64}, {"time": 216, "pitch": 74, "duration": 12, "velocity": 64}, {"time": 228, "pitch": 82, "duration": 12, "velocity": 64}, {"time": 240, "pitch": 79, "duration": 24, "velocity": 64}, {"time": 264, "pitch": 82, "duration": 6, "velocity": 64}, {"time": 270, "pitch": 79, "duration": 6, "velocity": 64}, {"time": 276, "pitch": 77, "duration": 6, "velocity": 64}, {"time": 282, "pitch": 74, "duration": 6, "velocity": 64}, {"time": 288, "pitch": 72, "duration": 72, "velocity": 64}, {"time": 360, "pitch": 77, "duration": 12, "velocity": 64}, {"time": 372, "pitch": 74, "duration": 12, "velocity": 64}, {"time": 384, "pitch": 82, "duration": 36, "velocity": 64}, {"time": 420, "pitch": 72, "duration": 12, "velocity": 64}, {"time": 432, "pitch": 77, "duration": 18, "velocity": 64}, {"time": 450, "pitch": 79, "duration": 6, "velocity": 64}, {"time": 456, "pitch": 75, "duration": 12, "velocity": 64}, {"time": 468, "pitch": 74, "duration": 12, "velocity": 64}, {"time": 480, "pitch": 72, "duration": 72, "velocity": 64}, {"time": 552, "pitch": 74, "duration": 12, "velocity": 64}, {"time": 564, "pitch": 81, "duration": 12, "velocity": 64}, {"time": 576, "pitch": 79, "duration": 24, "velocity": 64}, {"time": 600, "pitch": 79, "duration": 12, "velocity": 64}, {"time": 612, "pitch": 82, "duration": 12, "velocity": 64}, {"time": 624, "pitch": 72, "duration": 18, "velocity": 64}, {"time": 642, "pitch": 77, "duration": 6, "velocity": 64}, {"time": 648, "pitch": 74, "duration": 12, "velocity": 64}, {"time": 660, "pitch": 72, "duration": 6, "velocity": 64}, {"time": 666, "pitch": 82, "duration": 6, "velocity": 64}, {"time": 672, "pitch": 79, "duration": 24, "velocity": 64}, {"time": 696, "pitch": 72, "duration": 18, "velocity": 64}, {"time": 714, "pitch": 77, "duration": 6, "velocity": 64}, {"time": 720, "pitch": 72, "duration": 12, "velocity": 64}, {"time": 732, "pitch": 81, "duration": 12, "velocity": 64}, {"time": 744, "pitch": 79, "duration": 12, "velocity": 64}, {"time": 756, "pitch": 77, "duration": 12, "velocity": 64}, {"time": 768, "pitch": 79, "duration": 18, "velocity": 64}, {"time": 786, "pitch": 82, "duration": 6, "velocity": 64}, {"time": 792, "pitch": 75, "duration": 12, "velocity": 64}, {"time": 804, "pitch": 72, "duration": 12, "velocity": 64}, {"time": 816, "pitch": 75, "duration": 12, "velocity": 64}, {"time": 828, "pitch": 72, "duration": 12, "velocity": 64}, {"time": 840, "pitch": 75, "duration": 6, "velocity": 64}, {"time": 846, "pitch": 72, "duration": 6, "velocity": 64}, {"time": 852, "pitch": 75, "duration": 6, "velocity": 64}, {"time": 858, "pitch": 77, "duration": 6, "velocity": 64}, {"time": 864, "pitch": 79, "duration": 24, "velocity": 64}, {"time": 960, "pitch": 77, "duration": 18, "velocity": 64}, {"time": 978, "pitch": 74, "duration": 6, "velocity": 64}, {"time": 984, "pitch": 72, "duration": 12, "velocity": 64}, {"time": 996, "pitch": 74, "duration": 6, "velocity": 64}, {"time": 1002, "pitch": 72, "duration": 6, "velocity": 64}, {"time": 1008, "pitch": 77, "duration": 12, "velocity": 64}, {"time": 1020, "pitch": 74, "duration": 12, "velocity": 64}, {"time": 1032, "pitch": 77, "duration": 6, "velocity": 64}, {"time": 1038, "pitch": 74, "duration": 6, "velocity": 64}, {"time": 1044, "pitch": 77, "duration": 6, "velocity": 64}, {"time": 1050, "pitch": 79, "duration": 6, "velocity": 64}, {"time": 1056, "pitch": 82, "duration": 36, "velocity": 64}, {"time": 1092, "pitch": 72, "duration": 12, "velocity": 64}, {"time": 1104, "pitch": 74, "duration": 12, "velocity": 64}, {"time": 1116, "pitch": 81, "duration": 12, "velocity": 64}, {"time": 1128, "pitch": 79, "duration": 12, "velocity": 64}, {"time": 1140, "pitch": 77, "duration": 12, "velocity": 64}, {"time": 1152, "pitch": 74, "duration": 12, "velocity": 64}, {"time": 1164, "pitch": 74, "duration": 6, "velocity": 64}, {"time": 1170, "pitch": 77, "duration": 6, "velocity": 64}, {"time": 1176, "pitch": 79, "duration": 12, "velocity": 64}, {"time": 1188, "pitch": 82, "duration": 12, "velocity": 64}, {"time": 1200, "pitch": 79, "duration": 12, "velocity": 64}, {"time": 1212, "pitch": 77, "duration": 12, "velocity": 64}, {"time": 1224, "pitch": 75, "duration": 12, "velocity": 64}, {"time": 1236, "pitch": 74, "duration": 12, "velocity": 64}, {"time": 1248, "pitch": 77, "duration": 12, "velocity": 64}, {"time": 1260, "pitch": 72, "duration": 24, "velocity": 64}]}]}