{"metadata": {"schema_version": "0.1", "title": "Cheshui qingge", "source_format": "abc"}, "resolution": 24, "tempos": [{"time": 0, "qpm": 120.0}], "key_signatures": [{"time": 0, "root": 2, "mode": "major", "fifths": 2}], "time_signatures": [{"time": 0, "numerator": 2, "denominator": 4}], "beats": [{"time": 0, "is_downbeat": true}, {"time": 24, "is_downbeat": false}, {"time": 48, "is_downbeat": true}, {"time": 72, "is_downbeat": false}, {"time": 96, "is_downbeat": true}, {"time": 120, "is_downbeat": false}, {"time": 144, "is_downbeat": true}, {"time": 168, "is_downbeat": false}, {"time": 192, "is_downbeat": true}, {"time": 216, "is_downbeat": false}, {"time": 240, "is_downbeat": true}, {"time": 264, "is_downbeat": false}, {"time": 288, "is_downbeat": true}, {"time": 312, "is_downbeat": false}, {"time": 336, "is_downbeat": true}, {"time": 360, "is_downbeat": false}, {"time": 384, "is_downbeat": true}, {"time": 408, "is_downbeat": false}, {"time": 432, "is_downbeat": true}, {"time": 456, "is_downbeat": false}, {"time": 480, "is_downbeat": true}, {"time": 504, "is_downbeat": false}, {"time": 528, "is_downbeat": true}, {"time": 552, "is_downbeat": false}, {"time": 576, "is_downbeat": true}, {"time": 600, "is_downbeat": false}, {"time": 624, "is_downbeat": true}, {"time": 648, "is_downbeat": false}, {"time": 672, "is_downbeat": true}, {"time": 696, "is_downbeat": false}, {"time": 720, "is_downbeat": true}, {"time": 744, "is_downbeat": false}, {"time": 768, "is_downbeat": true}, {"time": 792, "is_downbeat": false}, {"time": 816, "is_downbeat": true}, {"time": 840, "is_downbeat": false}, {"time": 864, "is_downbeat": true}, {"time": 888, "is_downbeat": false}, {"time": 912, "is_downbeat": true}, {"time": 936, "is_downbeat": false}, {"time": 960, "is_downbeat": true}, {"time": 984, "is_downbeat": false}, {"time": 1008, "is_downbeat": true}, {"time": 1032, "is_downbeat": false}, {"time": 1056, "is_downbeat": true}, {"time": 1080, "is_downbeat": false}, {"time": 1104, "is_downbeat": true}, {"time": 1128, "is_downbeat": false}, {"time": 1152, "is_downbeat": true}, {"time": 1176, "is_downbeat": false}], "tracks": [{"program": 0, "is_drum": false, "notes": [{"time": 0, "pitch": 74, "duration": 12, "velocity": 64}, {"time": 12, "pitch": 74, "duration": 6, "velocity": 64}, {"time": 18, "pitch": 76, "duration": 6, "velocity": 64}, {"time": 24, "pitch": 69, "duration": 24, "velocity": 64}, {"time": 48, "pitch": 74, "duration": 12, "velocity": 64}, {"time": 60, "pitch": 74, "duration": 6, "velocity": 64}, {"time": 66, "pitch": 76, "duration": 6, "velocity": 64}, {"time": 72, "pitch": 69, "duration": 24, "velocity": 64}, {"time": 96, "pitch": 74, "duration": 18, "velocity": 64}, {"time": 114, "pitch": 69, "duration": 6, "velocity": 64}, {"time": 120, "pitch": 74, "duration": 12, "velocity": 64}, {"time": 132, "pitch": 69, "duration": 12, "velocity": 64}, {"time": 144, "pitch": 74, "duration": 18, "velocity": 64}, {"time": 162, "pitch": 76, "duration": 6, "velocity": 64}, {"time": 168, "pitch": 69, "duration": 24, "velocity": 64}, {"time": 192, "pitch": 74, "duration": 6, "velocity": 64}, {"time": 198, "pitch": 74, "duration": 6, "velocity": 64}, {"time": 204, "pitch": 74, "duration": 6, "velocity": 64}, {"time": 210, "pitch": 74, "duration": 6, "velocity": 64}, {"time": 216, "pitch": 77, "duration": 24, "velocity": 64}, {"time": 240, "pitch": 74, "duration": 6, "velocity": 64}, {"time": 246, "pitch": 74, "duration": 6, "velocity": 64}, {"time": 252, "pitch": 74, "duration": 6, "velocity": 64}, {"time": 258, "pitch": 72, "duration": 6, "velocity": 64}, {"time": 264, "pitch": 69, "duration": 24, "velocity": 64}, {"time": 288, "pitch": 66, "duration": 18, "velocity": 64}, {"time": 306, "pitch": 69, "duration": 6, "velocity": 64}, {"time": 312, "pitch": 66, "duration": 6, "velocity": 64}, {"time": 318, "pitch": 69, "duration": 6, "velocity": 64}, {"time": 324, "pitch": 69, "duration": 6, "velocity": 64}, {"time": 330, "pitch": 66, "duration": 6, "velocity": 64}, {"time": 336, "pitch": 69, "duration": 6, "velocity": 64}, {"time": 342, "pitch": 71, "duration": 6, "velocity": 64}, {"time": 348, "pitch": 69, "duration": 6, "velocity": 64}, {"time": 354, "pitch": 66, "duration": 6, "velocity": 64}, {"time": 360, "pitch": 69, "duration": 24, "velocity": 64}, {"time": 384, "pitch": 69, "duration": 12, "velocity": 64}, {"time": 396, "pitch": 69, "duration": 24, "velocity": 64}, {"time": 420, "pitch": 66, "duration": 12, "velocity": 64}, {"time": 432, "pitch": 69, "duration": 24, "velocity": 64}, {"time": 456, "pitch": 69, "duration": 12, "velocity": 64}, {"time": 468, "pitch": 66, "duration": 12, "velocity": 64}, {"time": 480, "pitch": 69, "duration": 6, "velocity": 64}, {"time": 486, "pitch": 71, "duration": 6, "velocity": 64}, {"time": 492, "pitch": 69, "duration": 6, "velocity": 64}, {"time": 498, "pitch": 66, "duration": 6, "velocity": 64}, {"time": 504, "pitch": 69, "duration": 24, "velocity": 64}, {"time": 528, "pitch": 74, "duration": 12, "velocity": 64}, {"time": 540, "pitch": 74, "duration": 6, "velocity": 64}, {"time": 546, "pitch": 76, "duration": 6, "velocity": 64}, {"time": 552, "pitch": 69, "duration": 24, "velocity": 64}, {"time": 576, "pitch": 74, "duration": 24, "velocity": 64}, {"time": 600, "pitch": 74, "duration": 24, "velocity": 64}, {"time": 624, "pitch": 69, "duration": 12, "velocity": 64}, {"time": 636, "pitch": 69, "duration": 12, "velocity": 64}, {"time": 648, "pitch": 66, "duration": 24, "velocity": 64}, {"time": 672, "pitch": 69, "duration": 24, "velocity": 64}, {"time": 696, "pitch": 74, "duration": 24, "velocity": 64}, {"time": 720, "pitch": 66, "duration": 18, "velocity": 64}, {"time": 738, "pitch": 69, "duration": 6, "velocity": 64}, {"time": 744, "pitch": 69, "duration": 12, "velocity": 64}, {"time": 756, "pitch": 69, "duration": 12, "velocity": 64}, {"time": 768, "pitch": 69, "duration": 12, "velocity": 64}, {"time": 780, "pitch": 69, "duration": 24, "velocity": 64}, {"time": 804, "pitch": 66, "duration": 12, "velocity": 64}, {"time": 816, "pitch": 69, "duration": 24, "velocity": 64}, {"time": 840, "pitch": 69, "duration": 24, "velocity": 64}, {"time": 864, "pitch": 69, "duration": 9, "velocity": 64}, {"time": 873, "pitch": 71, "duration": 3, "velocity": 64}, {"time": 876, "pitch": 69, "duration": 6, "velocity": 64}, {"time": 882, "pitch": 66, "duration": 6, "velocity": 64}, {"time": 888, "pitch": 69, "duration": 6, "velocity": 64}, {"time": 894, "pitch": 69, "duration": 6, "velocity": 64}, {"time": 900, "pitch": 69, "duration": 6, "velocity": 64}, {"time": 906, "pitch": 66, "duration": 6, "velocity": 64}, {"time": 912, "pitch": 69, "duration": 9, "velocity": 64}, {"time": 921, "pitch": 71, "duration": 3, "velocity": 64}, {"time": 924, "pitch": 69, "duration": 6, "velocity": 64}, {"time": 930, "pitch": 66, "duration": 6, "velocity": 64}, {"time": 936, "pitch": 69, "duration": 6, "velocity": 64}, {"time": 942, "pitch": 69, "duration": 6, "velocity": 64}, {"time": 948, "pitch": 69, "duration": 6, "velocity": 64}, {"time": 954, "pitch": 66, "duration": 6, "velocity": 64}, {"time": 960, "pitch": 69, "duration": 9, "velocity": 64}, {"time": 969, "pitch": 71, "duration": 3, "velocity": 64}, {"time": 972, "pitch": 69, "duration": 6, "velocity": 64}, {"time": 978, "pitch": 66, "duration": 6, "velocity": 64}, {"time": 984, "pitch": 69, "duration": 9, "velocity": 64}, {"time": 993, "pitch": 71, "duration": 3, "velocity": 64}, {"time": 996, "pitch": 69, "duration": 6, "velocity": 64}, {"time": 1002, "pitch": 66, "duration": 6, "velocity": 64}, {"time": 1008, "pitch": 69, "duration": 12, "velocity": 64}, {"time": 1020, "pitch": 69, "duration": 24, "velocity": 64}, {"time": 1044, "pitch": 66, "duration": 12, "velocity": 64}, {"time": 1056, "pitch": 69, "duration": 24, "velocity": 64}, {"time": 1080, "pitch": 69, "duration": 24, "velocity": 64}, {"time": 1104, "pitch": 66, "duration": 12, "velocity": 64}, {"time": 1116, "pitch": 66, "duration": 6, "velocity": 64}, {"time": 1122, "pitch": 64, "duration": 6, "velocity": 64}, {"time": 1128, "pitch": 62, "duration": 12, "velocity": 64}, {"time": 1140, "pitch": 66, "duration": 12, "velocity": 64}, {"time": 1152, "pitch": 64, "duration": 6, "velocity": 64}, {"time": 1158, "pitch": 66, "duration": 6, "velocity": 64}, {"time": 1164, "pitch": 62, "duration": 12, "velocity": 64}, {"time": 1176, "pitch": 64, "duration": 24, "velocity": 64}]}]}