{"metadata": {"schema_version": "0.1", "title": "Xiao nxu", "source_format": "abc"}, "resolution": 24, "tempos": [{"time": 0, "qpm": 120.0}], "key_signatures": [{"time": 0, "root": 2, "mode": "major", "fifths": 2}], "time_signatures": [{"time": 0, "numerator": 4, "denominator": 4}, {"time": 1440, "numerator": 6, "denominator": 8}, {"time": 1560, "numerator": 1, "denominator": 4}, {"time": 1584, "numerator": 2, "denominator": 4}], "beats": [{"time": 0, "is_downbeat": true}, {"time": 12, "is_downbeat": false}, {"time": 24, "is_downbeat": false}, {"time": 36, "is_downbeat": false}, {"time": 48, "is_downbeat": true}, {"time": 60, "is_downbeat": false}, {"time": 72, "is_downbeat": false}, {"time": 84, "is_downbeat": false}, {"time": 96, "is_downbeat": true}, {"time": 108, "is_downbeat": false}, {"time": 120, "is_downbeat": false}, {"time": 132, "is_downbeat": false}, {"time": 144, "is_downbeat": true}, {"time": 156, "is_downbeat": false}, {"time": 168, "is_downbeat": false}, {"time": 180, "is_downbeat": false}, {"time": 192, "is_downbeat": true}, {"time": 204, "is_downbeat": false}, {"time": 216, "is_downbeat": false}, {"time": 228, "is_downbeat": false}, {"time": 240, "is_downbeat": true}, {"time": 252, "is_downbeat": false}, {"time": 264, "is_downbeat": false}, {"time": 276, "is_downbeat": false}, {"time": 288, "is_downbeat": true}, {"time": 300, "is_downbeat": false}, {"time": 312, "is_downbeat": false}, {"time": 324, "is_downbeat": false}, {"time": 336, "is_downbeat": true}, {"time": 348, "is_downbeat": false}, {"time": 360, "is_downbeat": false}, {"time": 372, "is_downbeat": false}, {"time": 384, "is_downbeat": true}, {"time": 396, "is_downbeat": false}, {"time": 408, "is_downbeat": false}, {"time": 420, "is_downbeat": false}, {"time": 432, "is_downbeat": true}, {"time": 444, "is_downbeat": false}, {"time": 456, "is_downbeat": false}, {"time": 468, "is_downbeat": false}, {"time": 480, "is_downbeat": true}, {"time": 492, "is_downbeat": false}, {"time": 504, "is_downbeat": false}, {"time": 516, "is_downbeat": false}, {"time": 528, "is_downbeat": true}, {"time": 540, "is_downbeat": false}, {"time": 552, "is_downbeat": false}, {"time": 564, "is_downbeat": false}, {"time": 576, "is_downbeat": true}, {"time": 588, "is_downbeat": false}, {"time": 600, "is_downbeat": false}, {"time": 612, "is_downbeat": false}, {"time": 624, "is_downbeat": true}, {"time": 636, "is_downbeat": false}, {"time": 648, "is_downbeat": false}, {"time": 660, "is_downbeat": false}, {"time": 672, "is_downbeat": true}, {"time": 684, "is_downbeat": false}, {"time": 696, "is_downbeat": false}, {"time": 708, "is_downbeat": false}, {"time": 720, "is_downbeat": true}, {"time": 732, "is_downbeat": false}, {"time": 744, "is_downbeat": false}, {"time": 756, "is_downbeat": false}, {"time": 768, "is_downbeat": true}, {"time": 780, "is_downbeat": false}, {"time": 792, "is_downbeat": false}, {"time": 804, "is_downbeat": false}, {"time": 816, "is_downbeat": true}, {"time": 828, "is_downbeat": false}, {"time": 840, "is_downbeat": false}, {"time": 852, "is_downbeat": false}, {"time": 864, "is_downbeat": true}, {"time": 876, "is_downbeat": false}, {"time": 888, "is_downbeat": false}, {"time": 900, "is_downbeat": false}, {"time": 912, "is_downbeat": true}, {"time": 924, "is_downbeat": false}, {"time": 936, "is_downbeat": false}, {"time": 948, "is_downbeat": false}, {"time": 960, "is_downbeat": true}, {"time": 972, "is_downbeat": false}, {"time": 984, "is_downbeat": false}, {"time": 996, "is_downbeat": false}, {"time": 1008, "is_downbeat": true}, {"time": 1020, "is_downbeat": false}, {"time": 1032, "is_downbeat": false}, {"time": 1044, "is_downbeat": false}, {"time": 1056, "is_downbeat": true}, {"time": 1068, "is_downbeat": false}, {"time": 1080, "is_downbeat": false}, {"time": 1092, "is_downbeat": false}, {"time": 1104, "is_downbeat": true}, {"time": 1116, "is_downbeat": false}, {"time": 1128, "is_downbeat": false}, {"time": 1140, "is_downbeat": false}, {"time": 1152, "is_downbeat": true}, {"time": 1164, "is_downbeat": false}, {"time": 1176, "is_downbeat": false}, {"time": 1188, "is_downbeat": false}, {"time": 1200, "is_downbeat": true}, {"time": 1212, "is_downbeat": false}, {"time": 1224, "is_downbeat": false}, {"time": 1236, "is_downbeat": false}, {"time": 1248, "is_downbeat": true}, {"time": 1260, "is_downbeat": false}, {"time": 1272, "is_downbeat": false}, {"time": 1284, "is_downbeat": false}, {"time": 1296, "is_downbeat": true}, {"time": 1308, "is_downbeat": false}, {"time": 1320, "is_downbeat": false}, {"time": 1332, "is_downbeat": false}, {"time": 1344, "is_downbeat": true}, {"time": 1356, "is_downbeat": false}, {"time": 1368, "is_downbeat": false}, {"time": 1380, "is_downbeat": false}, {"time": 1392, "is_downbeat": true}, {"time": 1404, "is_downbeat": false}, {"time": 1416, "is_downbeat": false}, {"time": 1428, "is_downbeat": false}, {"time": 1440, "is_downbeat": true}, {"time": 1464, "is_downbeat": true}, {"time": 1488, "is_downbeat": true}, {"time": 1512, "is_downbeat": true}, {"time": 1536, "is_downbeat": true}, {"time": 1560, "is_downbeat": true}, {"time": 1584, "is_downbeat": true}, {"time": 1608, "is_downbeat": false}, {"time": 1632, "is_downbeat": true}, {"time": 1656, "is_downbeat": false}, {"time": 1680, "is_downbeat": true}, {"time": 1704, "is_downbeat": false}, {"time": 1728, "is_downbeat": true}, {"time": 1752, "is_downbeat": false}, {"time": 1776, "is_downbeat": true}, {"time": 1800, "is_downbeat": false}, {"time": 1824, "is_downbeat": true}, {"time": 1848, "is_downbeat": false}, {"time": 1872, "is_downbeat": true}, {"time": 1896, "is_downbeat": false}, {"time": 1920, "is_downbeat": true}, {"time": 1944, "is_downbeat": false}, {"time": 1968, "is_downbeat": true}, {"time": 1992, "is_downbeat": false}, {"time": 2016, "is_downbeat": true}, {"time": 2040, "is_downbeat": false}, {"time": 2064, "is_downbeat": true}, {"time": 2088, "is_downbeat": false}, {"time": 2112, "is_downbeat": true}, {"time": 2136, "is_downbeat": false}, {"time": 2160, "is_downbeat": true}, {"time": 2184, "is_downbeat": false}], "tracks": [{"program": 0, "is_drum": false, "notes": [{"time": 0, "pitch": 74, "duration": 6, "velocity": 64}, {"time": 6, "pitch": 76, "duration": 6, "velocity": 64}, {"time": 12, "pitch": 69, "duration": 6, "velocity": 64}, {"time": 18, "pitch": 69, "duration": 6, "velocity": 64}, {"time": 24, "pitch": 74, "duration": 6, "velocity": 64}, {"time": 30, "pitch": 76, "duration": 6, "velocity": 64}, {"time": 36, "pitch": 69, "duration": 12, "velocity": 64}, {"time": 48, "pitch": 74, "duration": 6, "velocity": 64}, {"time": 54, "pitch": 76, "duration": 6, "velocity": 64}, {"time": 60, "pitch": 74, "duration": 12, "velocity": 64}, {"time": 72, "pitch": 69, "duration": 24, "velocity": 64}, {"time": 96, "pitch": 69, "duration": 12, "velocity": 64}, {"time": 108, "pitch": 74, "duration": 12, "velocity": 64}, {"time": 120, "pitch": 74, "duration": 6, "velocity": 64}, {"time": 126, "pitch": 76, "duration": 6, "velocity": 64}, {"time": 132, "pitch": 69, "duration": 12, "velocity": 64}, {"time": 144, "pitch": 74, "duration": 6, "velocity": 64}, {"time": 150, "pitch": 76, "duration": 6, "velocity": 64}, {"time": 156, "pitch": 74, "duration": 12, "velocity": 64}, {"time": 168, "pitch": 69, "duration": 24, "velocity": 64}, {"time": 192, "pitch": 66, "duration": 6, "velocity": 64}, {"time": 198, "pitch": 69, "duration": 6, "velocity": 64}, {"time": 204, "pitch": 69, "duration": 6, "velocity": 64}, {"time": 210, "pitch": 69, "duration": 6, "velocity": 64}, {"time": 216, "pitch": 67, "duration": 6, "velocity": 64}, {"time": 222, "pitch": 69, "duration": 6, "velocity": 64}, {"time": 228, "pitch": 69, "duration": 12, "velocity": 64}, {"time": 240, "pitch": 69, "duration": 6, "velocity": 64}, {"time": 246, "pitch": 74, "duration": 6, "velocity": 64}, {"time": 252, "pitch": 67, "duration": 6, "velocity": 64}, {"time": 258, "pitch": 69, "duration": 6, "velocity": 64}, {"time": 264, "pitch": 69, "duration": 12, "velocity": 64}, {"time": 276, "pitch": 66, "duration": 6, "velocity": 64}, {"time": 282, "pitch": 69, "duration": 6, "velocity": 64}, {"time": 288, "pitch": 69, "duration": 6, "velocity": 64}, {"time": 294, "pitch": 71, "duration": 6, "velocity": 64}, {"time": 300, "pitch": 69, "duration": 6, "velocity": 64}, {"time": 306, "pitch": 66, "duration": 6, "velocity": 64}, {"time": 312, "pitch": 62, "duration": 24, "velocity": 64}, {"time": 336, "pitch": 66, "duration": 6, "velocity": 64}, {"time": 342, "pitch": 69, "duration": 6, "velocity": 64}, {"time": 348, "pitch": 66, "duration": 6, "velocity": 64}, {"time": 354, "pitch": 69, "duration": 6, "velocity": 64}, {"time": 360, "pitch": 66, "duration": 6, "velocity": 64}, {"time": 366, "pitch": 69, "duration": 6, "velocity": 64}, {"time": 372, "pitch": 69, "duration": 6, "velocity": 64}, {"time": 378, "pitch": 71, "duration": 6, "velocity": 64}, {"time": 384, "pitch": 69, "duration": 6, "velocity": 64}, {"time": 390, "pitch": 74, "duration": 6, "velocity": 64}, {"time": 396, "pitch": 69, "duration": 6, "velocity": 64}, {"time": 402, "pitch": 66, "duration": 6, "velocity": 64}, {"time": 408, "pitch": 62, "duration": 24, "velocity": 64}, {"time": 432, "pitch": 74, "duration": 6, "velocity": 64}, {"time": 438, "pitch": 76, "duration": 6, "velocity": 64}, {"time": 444, "pitch": 69, "duration": 6, "velocity": 64}, {"time": 450, "pitch": 69, "duration": 6, "velocity": 64}, {"time": 456, "pitch": 74, "duration": 12, "velocity": 64}, {"time": 468, "pitch": 76, "duration": 6, "velocity": 64}, {"time": 474, "pitch": 74, "duration": 6, "velocity": 64}, {"time": 480, "pitch": 74, "duration": 6, "velocity": 64}, {"time": 486, "pitch": 76, "duration": 6, "velocity": 64}, {"time": 492, "pitch": 74, "duration": 12, "velocity": 64}, {"time": 504, "pitch": 69, "duration": 18, "velocity": 64}, {"time": 522, "pitch": 74, "duration": 6, "velocity": 64}, {"time": 528, "pitch": 74, "duration": 6, "velocity": 64}, {"time": 534, "pitch": 76, "duration": 6, "velocity": 64}, {"time": 540, "pitch": 74, "duration": 12, "velocity": 64}, {"time": 552, "pitch": 74, "duration": 6, "velocity": 64}, {"time": 558, "pitch": 76, "duration": 6, "velocity": 64}, {"time": 564, "pitch": 69, "duration": 12, "velocity": 64}, {"time": 576, "pitch": 74, "duration": 6, "velocity": 64}, {"time": 582, "pitch": 76, "duration": 6, "velocity": 64}, {"time": 588, "pitch": 74, "duration": 12, "velocity": 64}, {"time": 600, "pitch": 69, "duration": 24, "velocity": 64}, {"time": 624, "pitch": 66, "duration": 6, "velocity": 64}, {"time": 630, "pitch": 69, "duration": 6, "velocity": 64}, {"time": 636, "pitch": 69, "duration": 6, "velocity": 64}, {"time": 642, "pitch": 69, "duration": 6, "velocity": 64}, {"time": 648, "pitch": 66, "duration": 6, "velocity": 64}, {"time": 654, "pitch": 69, "duration": 6, "velocity": 64}, {"time": 660, "pitch": 69, "duration": 6, "velocity": 64}, {"time": 666, "pitch": 66, "duration": 6, "velocity": 64}, {"time": 672, "pitch": 66, "duration": 6, "velocity": 64}, {"time": 678, "pitch": 69, "duration": 6, "velocity": 64}, {"time": 684, "pitch": 66, "duration": 6, "velocity": 64}, {"time": 690, "pitch": 69, "duration": 6, "velocity": 64}, {"time": 696, "pitch": 69, "duration": 6, "velocity": 64}, {"time": 702, "pitch": 69, "duration": 6, "velocity": 64}, {"time": 708, "pitch": 66, "duration": 6, "velocity": 64}, {"time": 714, "pitch": 69, "duration": 6, "velocity": 64}, {"time": 720, "pitch": 69, "duration": 6, "velocity": 64}, {"time": 726, "pitch": 71, "duration": 6, "velocity": 64}, {"time": 732, "pitch": 69, "duration": 6, "velocity": 64}, {"time": 738, "pitch": 66, "duration": 6, "velocity": 64}, {"time": 744, "pitch": 62, "duration": 18, "velocity": 64}, {"time": 762, "pitch": 74, "duration": 6, "velocity": 64}, {"time": 768, "pitch": 66, "duration": 6, "velocity": 64}, {"time": 774, "pitch": 69, "duration": 12, "velocity": 64}, {"time": 786, "pitch": 69, "duration": 6, "velocity": 64}, {"time": 792, "pitch": 66, "duration": 12, "velocity": 64}, {"time": 804, "pitch": 66, "duration": 12, "velocity": 64}, {"time": 816, "pitch": 69, "duration": 6, "velocity": 64}, {"time": 822, "pitch": 71, "duration": 6, "velocity": 64}, {"time": 828, "pitch": 69, "duration": 6, "velocity": 64}, {"time": 834, "pitch": 66, "duration": 6, "velocity": 64}, {"time": 840, "pitch": 62, "duration": 24, "velocity": 64}, {"time": 864, "pitch": 71, "duration": 6, "velocity": 64}, {"time": 870, "pitch": 74, "duration": 6, "velocity": 64}, {"time": 876, "pitch": 76, "duration": 6, "velocity": 64}, {"time": 882, "pitch": 74, "duration": 6, "velocity": 64}, {"time": 888, "pitch": 74, "duration": 12, "velocity": 64}, {"time": 900, "pitch": 76, "duration": 6, "velocity": 64}, {"time": 906, "pitch": 74, "duration": 6, "velocity": 64}, {"time": 912, "pitch": 74, "duration": 6, "velocity": 64}, {"time": 918, "pitch": 76, "duration": 6, "velocity": 64}, {"time": 924, "pitch": 74, "duration": 12, "velocity": 64}, {"time": 936, "pitch": 69, "duration": 24, "velocity": 64}, {"time": 960, "pitch": 69, "duration": 12, "velocity": 64}, {"time": 972, "pitch": 72, "duration": 6, "velocity": 64}, {"time": 978, "pitch": 74, "duration": 6, "velocity": 64}, {"time": 984, "pitch": 74, "duration": 6, "velocity": 64}, {"time": 990, "pitch": 73, "duration": 6, "velocity": 64}, {"time": 996, "pitch": 69, "duration": 6, "velocity": 64}, {"time": 1002, "pitch": 73, "duration": 6, "velocity": 64}, {"time": 1008, "pitch": 74, "duration": 6, "velocity": 64}, {"time": 1014, "pitch": 76, "duration": 6, "velocity": 64}, {"time": 1020, "pitch": 74, "duration": 12, "velocity": 64}, {"time": 1032, "pitch": 69, "duration": 18, "velocity": 64}, {"time": 1050, "pitch": 74, "duration": 6, "velocity": 64}, {"time": 1056, "pitch": 66, "duration": 6, "velocity": 64}, {"time": 1062, "pitch": 69, "duration": 12, "velocity": 64}, {"time": 1074, "pitch": 69, "duration": 6, "velocity": 64}, {"time": 1080, "pitch": 66, "duration": 12, "velocity": 64}, {"time": 1092, "pitch": 69, "duration": 12, "velocity": 64}, {"time": 1104, "pitch": 66, "duration": 6, "velocity": 64}, {"time": 1110, "pitch": 62, "duration": 12, "velocity": 64}, {"time": 1122, "pitch": 69, "duration": 6, "velocity": 64}, {"time": 1128, "pitch": 69, "duration": 6, "velocity": 64}, {"time": 1134, "pitch": 67, "duration": 6, "velocity": 64}, {"time": 1140, "pitch": 66, "duration": 6, "velocity": 64}, {"time": 1146, "pitch": 69, "duration": 6, "velocity": 64}, {"time": 1152, "pitch": 69, "duration": 6, "velocity": 64}, {"time": 1158, "pitch": 71, "duration": 6, "velocity": 64}, {"time": 1164, "pitch": 69, "duration": 6, "velocity": 64}, {"time": 1170, "pitch": 66, "duration": 6, "velocity": 64}, {"time": 1176, "pitch": 62, "duration": 24, "velocity": 64}, {"time": 1200, "pitch": 66, "duration": 12, "velocity": 64}, {"time": 1212, "pitch": 69, "duration": 6, "velocity": 64}, {"time": 1218, "pitch": 74, "duration": 6, "velocity": 64}, {"time": 1224, "pitch": 66, "duration": 6, "velocity": 64}, {"time": 1230, "pitch": 69, "duration": 6, "velocity": 64}, {"time": 1236, "pitch": 66, "duration": 6, "velocity": 64}, {"time": 1242, "pitch": 69, "duration": 6, "velocity": 64}, {"time": 1248, "pitch": 69, "duration": 6, "velocity": 64}, {"time": 1254, "pitch": 71, "duration": 6, "velocity": 64}, {"time": 1260, "pitch": 69, "duration": 6, "velocity": 64}, {"time": 1266, "pitch": 66, "duration": 6, "velocity": 64}, {"time": 1272, "pitch": 62, "duration": 24, "velocity": 64}, {"time": 1296, "pitch": 74, "duration": 12, "velocity": 64}, {"time": 1308, "pitch": 74, "duration": 6, "velocity": 64}, {"time": 1314, "pitch": 76, "duration": 6, "velocity": 64}, {"time": 1320, "pitch": 74, "duration": 12, "velocity": 64}, {"time": 1332, "pitch": 69, "duration": 12, "velocity": 64}, {"time": 1344, "pitch": 76, "duration": 6, "velocity": 64}, {"time": 1350, "pitch": 74, "duration": 6, "velocity": 64}, {"time": 1356, "pitch": 74, "duration": 12, "velocity": 64}, {"time": 1368, "pitch": 69, "duration": 24, "velocity": 64}, {"time": 1392, "pitch": 76, "duration": 24, "velocity": 64}, {"time": 1416, "pitch": 74, "duration": 8, "velocity": 64}, {"time": 1424, "pitch": 76, "duration": 8, "velocity": 64}, {"time": 1432, "pitch": 74, "duration": 8, "velocity": 64}, {"time": 1440, "pitch": 71, "duration": 72, "velocity": 64}, {"time": 1512, "pitch": 71, "duration": 24, "velocity": 64}, {"time": 1536, "pitch": 66, "duration": 6, "velocity": 64}, {"time": 1542, "pitch": 69, "duration": 6, "velocity": 64}, {"time": 1548, "pitch": 69, "duration": 12, "velocity": 64}, {"time": 1560, "pitch": 69, "duration": 6, "velocity": 64}, {"time": 1566, "pitch": 71, "duration": 6, "velocity": 64}, {"time": 1572, "pitch": 69, "duration": 6, "velocity": 64}, {"time": 1578, "pitch": 67, "duration": 6, "velocity": 64}, {"time": 1584, "pitch": 66, "duration": 6, "velocity": 64}, {"time": 1590, "pitch": 69, "duration": 6, "velocity": 64}, {"time": 1596, "pitch": 66, "duration": 6, "velocity": 64}, {"time": 1602, "pitch": 69, "duration": 6, "velocity": 64}, {"time": 1608, "pitch": 69, "duration": 6, "velocity": 64}, {"time": 1614, "pitch": 69, "duration": 6, "velocity": 64}, {"time": 1620, "pitch": 66, "duration": 6, "velocity": 64}, {"time": 1626, "pitch": 69, "duration": 6, "velocity": 64}, {"time": 1632, "pitch": 69, "duration": 6, "velocity": 64}, {"time": 1638, "pitch": 71, "duration": 6, "velocity": 64}, {"time": 1644, "pitch": 69, "duration": 6, "velocity": 64}, {"time": 1650, "pitch": 66, "duration": 6, "velocity": 64}, {"time": 1656, "pitch": 62, "duration": 18, "velocity": 64}, {"time": 1674, "pitch": 74, "duration": 6, "velocity": 64}, {"time": 1680, "pitch": 69, "duration": 18, "velocity": 64}, {"time": 1698, "pitch": 69, "duration": 6, "velocity": 64}, {"time": 1704, "pitch": 69, "duration": 6, "velocity": 64}, {"time": 1710, "pitch": 74, "duration": 6, "velocity": 64}, {"time": 1716, "pitch": 67, "duration": 12, "velocity": 64}, {"time": 1728, "pitch": 69, "duration": 6, "velocity": 64}, {"time": 1734, "pitch": 71, "duration": 6, "velocity": 64}, {"time": 1740, "pitch": 69, "duration": 6, "velocity": 64}, {"time": 1746, "pitch": 66, "duration": 6, "velocity": 64}, {"time": 1752, "pitch": 62, "duration": 24, "velocity": 64}, {"time": 1776, "pitch": 71, "duration": 6, "velocity": 64}, {"time": 1782, "pitch": 74, "duration": 6, "velocity": 64}, {"time": 1788, "pitch": 74, "duration": 6, "velocity": 64}, {"time": 1794, "pitch": 74, "duration": 6, "velocity": 64}, {"time": 1800, "pitch": 74, "duration": 12, "velocity": 64}, {"time": 1812, "pitch": 76, "duration": 6, "velocity": 64}, {"time": 1818, "pitch": 74, "duration": 6, "velocity": 64}, {"time": 1824, "pitch": 74, "duration": 6, "velocity": 64}, {"time": 1830, "pitch": 76, "duration": 6, "velocity": 64}, {"time": 1836, "pitch": 74, "duration": 12, "velocity": 64}, {"time": 1848, "pitch": 69, "duration": 18, "velocity": 64}, {"time": 1866, "pitch": 74, "duration": 6, "velocity": 64}, {"time": 1872, "pitch": 69, "duration": 12, "velocity": 64}, {"time": 1884, "pitch": 74, "duration": 6, "velocity": 64}, {"time": 1890, "pitch": 74, "duration": 6, "velocity": 64}, {"time": 1896, "pitch": 72, "duration": 6, "velocity": 64}, {"time": 1902, "pitch": 74, "duration": 6, "velocity": 64}, {"time": 1908, "pitch": 74, "duration": 6, "velocity": 64}, {"time": 1914, "pitch": 76, "duration": 6, "velocity": 64}, {"time": 1920, "pitch": 74, "duration": 12, "velocity": 64}, {"time": 1932, "pitch": 72, "duration": 6, "velocity": 64}, {"time": 1938, "pitch": 74, "duration": 6, "velocity": 64}, {"time": 1944, "pitch": 69, "duration": 24, "velocity": 64}, {"time": 1968, "pitch": 66, "duration": 12, "velocity": 64}, {"time": 1980, "pitch": 69, "duration": 6, "velocity": 64}, {"time": 1986, "pitch": 69, "duration": 6, "velocity": 64}, {"time": 1992, "pitch": 69, "duration": 6, "velocity": 64}, {"time": 1998, "pitch": 74, "duration": 6, "velocity": 64}, {"time": 2004, "pitch": 69, "duration": 6, "velocity": 64}, {"time": 2010, "pitch": 67, "duration": 6, "velocity": 64}, {"time": 2016, "pitch": 69, "duration": 6, "velocity": 64}, {"time": 2022, "pitch": 74, "duration": 6, "velocity": 64}, {"time": 2028, "pitch": 66, "duration": 6, "velocity": 64}, {"time": 2034, "pitch": 69, "duration": 6, "velocity": 64}, {"time": 2040, "pitch": 66, "duration": 6, "velocity": 64}, {"time": 2046, "pitch": 66, "duration": 6, "velocity": 64}, {"time": 2052, "pitch": 66, "duration": 6, "velocity": 64}, {"time": 2058, "pitch": 69, "duration": 6, "velocity": 64}, {"time": 2064, "pitch": 69, "duration": 6, "velocity": 64}, {"time": 2070, "pitch": 71, "duration": 6, "velocity": 64}, {"time": 2076, "pitch": 69, "duration": 6, "velocity": 64}, {"time": 2082, "pitch": 66, "duration": 6, "velocity": 64}, {"time": 2088, "pitch": 62, "duration": 24, "velocity": 64}, {"time": 2112, "pitch": 66, "duration": 6, "velocity": 64}, {"time": 2118, "pitch": 69, "duration": 6, "velocity": 64}, {"time": 2124, "pitch": 69, "duration": 6, "velocity": 64}, {"time": 2130, "pitch": 69, "duration": 6, "velocity": 64}, {"time": 2136, "pitch": 69, "duration": 6, "velocity": 64}, {"time": 2142, "pitch": 74, "duration": 6, "velocity": 64}, {"time": 2148, "pitch": 66, "duration": 12, "velocity": 64}, {"time": 2160, "pitch": 66, "duration": 12, "velocity": 64}, {"time": 2172, "pitch": 69, "duration": 6, "velocity": 64}, {"time": 2178, "pitch": 66, "duration": 6, "velocity": 64}, {"time": 2184, "pitch": 62, "duration": 24, "velocity": 64}]}]}