{"metadata": {"schema_version": "0.1", "title": "Siji hua kai", "source_format": "abc"}, "resolution": 24, "tempos": [{"time": 0, "qpm": 120.0}], "key_signatures": [{"time": 0, "root": 2, "mode": "major", "fifths": 2}], "time_signatures": [{"time": 0, "numerator": 2, "denominator": 4}], "beats": [{"time": 0, "is_downbeat": true}, {"time": 24, "is_downbeat": false}, {"time": 48, "is_downbeat": true}, {"time": 72, "is_downbeat": false}, {"time": 96, "is_downbeat": true}, {"time": 120, "is_downbeat": false}, {"time": 144, "is_downbeat": true}, {"time": 168, "is_downbeat": false}, {"time": 192, "is_downbeat": true}, {"time": 216, "is_downbeat": false}, {"time": 240, "is_downbeat": true}, {"time": 264, "is_downbeat": false}, {"time": 288, "is_downbeat": true}, {"time": 312, "is_downbeat": false}, {"time": 336, "is_downbeat": true}, {"time": 360, "is_downbeat": false}, {"time": 384, "is_downbeat": true}, {"time": 408, "is_downbeat": false}, {"time": 432, "is_downbeat": true}, {"time": 456, "is_downbeat": false}, {"time": 480, "is_downbeat": true}, {"time": 504, "is_downbeat": false}, {"time": 528, "is_downbeat": true}, {"time": 552, "is_downbeat": false}, {"time": 576, "is_downbeat": true}, {"time": 600, "is_downbeat": false}, {"time": 624, "is_downbeat": true}, {"time": 648, "is_downbeat": false}, {"time": 672, "is_downbeat": true}, {"time": 696, "is_downbeat": false}, {"time": 720, "is_downbeat": true}, {"time": 744, "is_downbeat": false}, {"time": 768, "is_downbeat": true}, {"time": 792, "is_downbeat": false}, {"time": 816, "is_downbeat": true}, {"time": 840, "is_downbeat": false}, {"time": 864, "is_downbeat": true}, {"time": 888, "is_downbeat": false}], "tracks": [{"program": 0, "is_drum": false, "notes": [{"time": 0, "pitch": 76, "duration": 18, "velocity": 64}, {"time": 18, "pitch": 74, "duration": 6, "velocity": 64}, {"time": 24, "pitch": 74, "duration": 6, "velocity": 64}, {"time": 30, "pitch": 76, "duration": 6, "velocity": 64}, {"time": 36, "pitch": 74, "duration": 6, "velocity": 64}, {"time": 42, "pitch": 74, "duration": 6, "velocity": 64}, {"time": 48, "pitch": 69, "duration": 12, "velocity": 64}, {"time": 60, "pitch": 69, "duration": 24, "velocity": 64}, {"time": 84, "pitch": 69, "duration": 12, "velocity": 64}, {"time": 96, "pitch": 74, "duration": 6, "velocity": 64}, {"time": 102, "pitch": 78, "duration": 6, "velocity": 64}, {"time": 108, "pitch": 74, "duration": 24, "velocity": 64}, {"time": 132, "pitch": 78, "duration": 12, "velocity": 64}, {"time": 144, "pitch": 76, "duration": 18, "velocity": 64}, {"time": 162, "pitch": 74, "duration": 6, "velocity": 64}, {"time": 168, "pitch": 71, "duration": 12, "velocity": 64}, {"time": 180, "pitch": 69, "duration": 12, "velocity": 64}, {"time": 192, "pitch": 69, "duration": 12, "velocity": 64}, {"time": 204, "pitch": 74, "duration": 24, "velocity": 64}, {"time": 228, "pitch": 69, "duration": 6, "velocity": 64}, {"time": 234, "pitch": 66, "duration": 6, "velocity": 64}, {"time": 240, "pitch": 69, "duration": 6, "velocity": 64}, {"time": 246, "pitch": 71, "duration": 6, "velocity": 64}, {"time": 252, "pitch": 69, "duration": 6, "velocity": 64}, {"time": 258, "pitch": 66, "duration": 6, "velocity": 64}, {"time": 264, "pitch": 69, "duration": 24, "velocity": 64}, {"time": 288, "pitch": 74, "duration": 12, "velocity": 64}, {"time": 300, "pitch": 74, "duration": 24, "velocity": 64}, {"time": 324, "pitch": 78, "duration": 6, "velocity": 64}, {"time": 330, "pitch": 81, "duration": 6, "velocity": 64}, {"time": 336, "pitch": 76, "duration": 18, "velocity": 64}, {"time": 354, "pitch": 74, "duration": 6, "velocity": 64}, {"time": 360, "pitch": 74, "duration": 12, "velocity": 64}, {"time": 372, "pitch": 69, "duration": 12, "velocity": 64}, {"time": 384, "pitch": 74, "duration": 12, "velocity": 64}, {"time": 396, "pitch": 69, "duration": 12, "velocity": 64}, {"time": 408, "pitch": 74, "duration": 12, "velocity": 64}, {"time": 420, "pitch": 69, "duration": 12, "velocity": 64}, {"time": 432, "pitch": 74, "duration": 36, "velocity": 64}, {"time": 468, "pitch": 69, "duration": 6, "velocity": 64}, {"time": 474, "pitch": 66, "duration": 6, "velocity": 64}, {"time": 480, "pitch": 69, "duration": 12, "velocity": 64}, {"time": 492, "pitch": 66, "duration": 12, "velocity": 64}, {"time": 504, "pitch": 69, "duration": 6, "velocity": 64}, {"time": 510, "pitch": 71, "duration": 6, "velocity": 64}, {"time": 516, "pitch": 69, "duration": 6, "velocity": 64}, {"time": 522, "pitch": 66, "duration": 6, "velocity": 64}, {"time": 528, "pitch": 64, "duration": 18, "velocity": 64}, {"time": 546, "pitch": 66, "duration": 6, "velocity": 64}, {"time": 552, "pitch": 69, "duration": 24, "velocity": 64}, {"time": 576, "pitch": 69, "duration": 12, "velocity": 64}, {"time": 588, "pitch": 74, "duration": 24, "velocity": 64}, {"time": 612, "pitch": 66, "duration": 12, "velocity": 64}, {"time": 624, "pitch": 64, "duration": 18, "velocity": 64}, {"time": 642, "pitch": 66, "duration": 6, "velocity": 64}, {"time": 648, "pitch": 69, "duration": 24, "velocity": 64}, {"time": 672, "pitch": 74, "duration": 12, "velocity": 64}, {"time": 684, "pitch": 69, "duration": 12, "velocity": 64}, {"time": 696, "pitch": 74, "duration": 12, "velocity": 64}, {"time": 708, "pitch": 69, "duration": 12, "velocity": 64}, {"time": 720, "pitch": 69, "duration": 12, "velocity": 64}, {"time": 732, "pitch": 74, "duration": 24, "velocity": 64}, {"time": 756, "pitch": 66, "duration": 12, "velocity": 64}, {"time": 768, "pitch": 69, "duration": 18, "velocity": 64}, {"time": 786, "pitch": 66, "duration": 6, "velocity": 64}, {"time": 792, "pitch": 62, "duration": 24, "velocity": 64}, {"time": 816, "pitch": 66, "duration": 6, "velocity": 64}, {"time": 822, "pitch": 69, "duration": 6, "velocity": 64}, {"time": 828, "pitch": 66, "duration": 6, "velocity": 64}, {"time": 834, "pitch": 64, "duration": 6, "velocity": 64}, {"time": 840, "pitch": 62, "duration": 12, "velocity": 64}, {"time": 852, "pitch": 66, "duration": 12, "velocity": 64}, {"time": 864, "pitch": 64, "duration": 6, "velocity": 64}, {"time": 870, "pitch": 66, "duration": 6, "velocity": 64}, {"time": 876, "pitch": 64, "duration": 6, "velocity": 64}, {"time": 882, "pitch": 62, "duration": 6, "velocity": 64}, {"time": 888, "pitch": 64, "duration": 24, "velocity": 64}]}]}