{"metadata": {"schema_version": "0.1", "title": "San kan lang", "source_format": "abc"}, "resolution": 24, "tempos": [{"time": 0, "qpm": 120.0}], "key_signatures": [{"time": 0, "root": 9, "mode": "major", "fifths": 3}], "time_signatures": [{"time": 0, "numerator": 2, "denominator": 4}], "beats": [{"time": 0, "is_downbeat": true}, {"time": 24, "is_downbeat": false}, {"time": 48, "is_downbeat": true}, {"time": 72, "is_downbeat": false}, {"time": 96, "is_downbeat": true}, {"time": 120, "is_downbeat": false}, {"time": 144, "is_downbeat": true}, {"time": 168, "is_downbeat": false}, {"time": 192, "is_downbeat": true}, {"time": 216, "is_downbeat": false}, {"time": 240, "is_downbeat": true}, {"time": 264, "is_downbeat": false}, {"time": 288, "is_downbeat": true}, {"time": 312, "is_downbeat": false}, {"time": 336, "is_downbeat": true}, {"time": 360, "is_downbeat": false}, {"time": 384, "is_downbeat": true}, {"time": 408, "is_downbeat": false}, {"time": 432, "is_downbeat": true}, {"time": 456, "is_downbeat": false}, {"time": 480, "is_downbeat": true}, {"time": 504, "is_downbeat": false}, {"time": 528, "is_downbeat": true}, {"time": 552, "is_downbeat": false}, {"time": 576, "is_downbeat": true}, {"time": 600, "is_downbeat": false}, {"time": 624, "is_downbeat": true}, {"time": 648, "is_downbeat": false}, {"time": 672, "is_downbeat": true}, {"time": 696, "is_downbeat": false}, {"time": 720, "is_downbeat": true}, {"time": 744, "is_downbeat": false}, {"time": 768, "is_downbeat": true}, {"time": 792, "is_downbeat": false}, {"time": 816, "is_downbeat": true}, {"time": 840, "is_downbeat": false}, {"time": 864, "is_downbeat": true}, {"time": 888, "is_downbeat": false}, {"time": 912, "is_downbeat": true}, {"time": 936, "is_downbeat": false}, {"time": 960, "is_downbeat": true}, {"time": 984, "is_downbeat": false}, {"time": 1008, "is_downbeat": true}, {"time": 1032, "is_downbeat": false}, {"time": 1056, "is_downbeat": true}, {"time": 1080, "is_downbeat": false}, {"time": 1104, "is_downbeat": true}, {"time": 1128, "is_downbeat": false}, {"time": 1152, "is_downbeat": true}, {"time": 1176, "is_downbeat": false}, {"time": 1200, "is_downbeat": true}, {"time": 1224, "is_downbeat": false}, {"time": 1248, "is_downbeat": true}, {"time": 1272, "is_downbeat": false}, {"time": 1296, "is_downbeat": true}, {"time": 1320, "is_downbeat": false}, {"time": 1344, "is_downbeat": true}, {"time": 1368, "is_downbeat": false}, {"time": 1392, "is_downbeat": true}, {"time": 1416, "is_downbeat": false}, {"time": 1440, "is_downbeat": true}, {"time": 1464, "is_downbeat": false}, {"time": 1488, "is_downbeat": true}, {"time": 1512, "is_downbeat": false}, {"time": 1536, "is_downbeat": true}, {"time": 1560, "is_downbeat": false}], "tracks": [{"program": 0, "is_drum": false, "notes": [{"time": 0, "pitch": 73, "duration": 12, "velocity": 64}, {"time": 12, "pitch": 69, "duration": 12, "velocity": 64}, {"time": 24, "pitch": 71, "duration": 24, "velocity": 64}, {"time": 48, "pitch": 71, "duration": 12, "velocity": 64}, {"time": 60, "pitch": 69, "duration": 6, "velocity": 64}, {"time": 66, "pitch": 66, "duration": 6, "velocity": 64}, {"time": 72, "pitch": 66, "duration": 24, "velocity": 64}, {"time": 96, "pitch": 71, "duration": 12, "velocity": 64}, {"time": 108, "pitch": 69, "duration": 6, "velocity": 64}, {"time": 114, "pitch": 71, "duration": 6, "velocity": 64}, {"time": 120, "pitch": 69, "duration": 12, "velocity": 64}, {"time": 132, "pitch": 69, "duration": 12, "velocity": 64}, {"time": 144, "pitch": 69, "duration": 12, "velocity": 64}, {"time": 156, "pitch": 66, "duration": 6, "velocity": 64}, {"time": 162, "pitch": 64, "duration": 6, "velocity": 64}, {"time": 168, "pitch": 64, "duration": 24, "velocity": 64}, {"time": 192, "pitch": 69, "duration": 6, "velocity": 64}, {"time": 198, "pitch": 66, "duration": 12, "velocity": 64}, {"time": 210, "pitch": 66, "duration": 6, "velocity": 64}, {"time": 216, "pitch": 71, "duration": 12, "velocity": 64}, {"time": 228, "pitch": 71, "duration": 12, "velocity": 64}, {"time": 240, "pitch": 69, "duration": 6, "velocity": 64}, {"time": 246, "pitch": 66, "duration": 12, "velocity": 64}, {"time": 258, "pitch": 69, "duration": 6, "velocity": 64}, {"time": 264, "pitch": 73, "duration": 6, "velocity": 64}, {"time": 270, "pitch": 71, "duration": 18, "velocity": 64}, {"time": 288, "pitch": 71, "duration": 6, "velocity": 64}, {"time": 294, "pitch": 69, "duration": 18, "velocity": 64}, {"time": 312, "pitch": 66, "duration": 24, "velocity": 64}, {"time": 336, "pitch": 71, "duration": 6, "velocity": 64}, {"time": 342, "pitch": 69, "duration": 12, "velocity": 64}, {"time": 354, "pitch": 71, "duration": 6, "velocity": 64}, {"time": 360, "pitch": 71, "duration": 6, "velocity": 64}, {"time": 366, "pitch": 69, "duration": 12, "velocity": 64}, {"time": 378, "pitch": 66, "duration": 6, "velocity": 64}, {"time": 384, "pitch": 73, "duration": 6, "velocity": 64}, {"time": 390, "pitch": 64, "duration": 12, "velocity": 64}, {"time": 402, "pitch": 66, "duration": 6, "velocity": 64}, {"time": 408, "pitch": 64, "duration": 6, "velocity": 64}, {"time": 414, "pitch": 66, "duration": 6, "velocity": 64}, {"time": 420, "pitch": 69, "duration": 12, "velocity": 64}, {"time": 432, "pitch": 73, "duration": 12, "velocity": 64}, {"time": 444, "pitch": 64, "duration": 6, "velocity": 64}, {"time": 450, "pitch": 66, "duration": 6, "velocity": 64}, {"time": 456, "pitch": 69, "duration": 18, "velocity": 64}, {"time": 474, "pitch": 73, "duration": 6, "velocity": 64}, {"time": 480, "pitch": 69, "duration": 12, "velocity": 64}, {"time": 492, "pitch": 66, "duration": 12, "velocity": 64}, {"time": 504, "pitch": 64, "duration": 24, "velocity": 64}, {"time": 528, "pitch": 73, "duration": 12, "velocity": 64}, {"time": 540, "pitch": 69, "duration": 12, "velocity": 64}, {"time": 552, "pitch": 71, "duration": 24, "velocity": 64}, {"time": 576, "pitch": 71, "duration": 12, "velocity": 64}, {"time": 588, "pitch": 69, "duration": 6, "velocity": 64}, {"time": 594, "pitch": 66, "duration": 6, "velocity": 64}, {"time": 600, "pitch": 66, "duration": 24, "velocity": 64}, {"time": 624, "pitch": 71, "duration": 6, "velocity": 64}, {"time": 630, "pitch": 69, "duration": 12, "velocity": 64}, {"time": 642, "pitch": 71, "duration": 6, "velocity": 64}, {"time": 648, "pitch": 71, "duration": 12, "velocity": 64}, {"time": 660, "pitch": 69, "duration": 12, "velocity": 64}, {"time": 672, "pitch": 69, "duration": 12, "velocity": 64}, {"time": 684, "pitch": 66, "duration": 6, "velocity": 64}, {"time": 690, "pitch": 64, "duration": 6, "velocity": 64}, {"time": 696, "pitch": 64, "duration": 24, "velocity": 64}, {"time": 720, "pitch": 71, "duration": 18, "velocity": 64}, {"time": 738, "pitch": 71, "duration": 6, "velocity": 64}, {"time": 744, "pitch": 73, "duration": 6, "velocity": 64}, {"time": 750, "pitch": 71, "duration": 18, "velocity": 64}, {"time": 768, "pitch": 69, "duration": 6, "velocity": 64}, {"time": 774, "pitch": 69, "duration": 12, "velocity": 64}, {"time": 786, "pitch": 69, "duration": 6, "velocity": 64}, {"time": 792, "pitch": 73, "duration": 6, "velocity": 64}, {"time": 798, "pitch": 71, "duration": 18, "velocity": 64}, {"time": 816, "pitch": 71, "duration": 6, "velocity": 64}, {"time": 822, "pitch": 69, "duration": 6, "velocity": 64}, {"time": 828, "pitch": 69, "duration": 6, "velocity": 64}, {"time": 834, "pitch": 66, "duration": 6, "velocity": 64}, {"time": 840, "pitch": 66, "duration": 24, "velocity": 64}, {"time": 864, "pitch": 64, "duration": 18, "velocity": 64}, {"time": 882, "pitch": 66, "duration": 6, "velocity": 64}, {"time": 888, "pitch": 71, "duration": 6, "velocity": 64}, {"time": 894, "pitch": 69, "duration": 6, "velocity": 64}, {"time": 900, "pitch": 66, "duration": 12, "velocity": 64}, {"time": 912, "pitch": 71, "duration": 6, "velocity": 64}, {"time": 918, "pitch": 73, "duration": 6, "velocity": 64}, {"time": 924, "pitch": 69, "duration": 6, "velocity": 64}, {"time": 930, "pitch": 71, "duration": 6, "velocity": 64}, {"time": 936, "pitch": 73, "duration": 6, "velocity": 64}, {"time": 942, "pitch": 71, "duration": 18, "velocity": 64}, {"time": 960, "pitch": 73, "duration": 12, "velocity": 64}, {"time": 972, "pitch": 64, "duration": 6, "velocity": 64}, {"time": 978, "pitch": 66, "duration": 6, "velocity": 64}, {"time": 984, "pitch": 69, "duration": 18, "velocity": 64}, {"time": 1002, "pitch": 73, "duration": 6, "velocity": 64}, {"time": 1008, "pitch": 69, "duration": 12, "velocity": 64}, {"time": 1020, "pitch": 66, "duration": 12, "velocity": 64}, {"time": 1032, "pitch": 64, "duration": 24, "velocity": 64}, {"time": 1056, "pitch": 73, "duration": 12, "velocity": 64}, {"time": 1068, "pitch": 76, "duration": 6, "velocity": 64}, {"time": 1074, "pitch": 73, "duration": 6, "velocity": 64}, {"time": 1080, "pitch": 71, "duration": 24, "velocity": 64}, {"time": 1104, "pitch": 71, "duration": 12, "velocity": 64}, {"time": 1116, "pitch": 69, "duration": 6, "velocity": 64}, {"time": 1122, "pitch": 66, "duration": 6, "velocity": 64}, {"time": 1128, "pitch": 66, "duration": 24, "velocity": 64}, {"time": 1152, "pitch": 71, "duration": 12, "velocity": 64}, {"time": 1164, "pitch": 69, "duration": 6, "velocity": 64}, {"time": 1170, "pitch": 71, "duration": 6, "velocity": 64}, {"time": 1176, "pitch": 71, "duration": 12, "velocity": 64}, {"time": 1188, "pitch": 69, "duration": 12, "velocity": 64}, {"time": 1200, "pitch": 69, "duration": 12, "velocity": 64}, {"time": 1212, "pitch": 66, "duration": 6, "velocity": 64}, {"time": 1218, "pitch": 64, "duration": 6, "velocity": 64}, {"time": 1224, "pitch": 64, "duration": 24, "velocity": 64}, {"time": 1248, "pitch": 71, "duration": 18, "velocity": 64}, {"time": 1266, "pitch": 69, "duration": 6, "velocity": 64}, {"time": 1272, "pitch": 73, "duration": 12, "velocity": 64}, {"time": 1284, "pitch": 71, "duration": 12, "velocity": 64}, {"time": 1296, "pitch": 71, "duration": 6, "velocity": 64}, {"time": 1302, "pitch": 71, "duration": 6, "velocity": 64}, {"time": 1308, "pitch": 71, "duration": 6, "velocity": 64}, {"time": 1314, "pitch": 69, "duration": 6, "velocity": 64}, {"time": 1320, "pitch": 73, "duration": 6, "velocity": 64}, {"time": 1326, "pitch": 71, "duration": 18, "velocity": 64}, {"time": 1344, "pitch": 71, "duration": 6, "velocity": 64}, {"time": 1350, "pitch": 69, "duration": 6, "velocity": 64}, {"time": 1356, "pitch": 69, "duration": 6, "velocity": 64}, {"time": 1362, "pitch": 66, "duration": 6, "velocity": 64}, {"time": 1368, "pitch": 66, "duration": 24, "velocity": 64}, {"time": 1392, "pitch": 64, "duration": 18, "velocity": 64}, {"time": 1410, "pitch": 66, "duration": 6, "velocity": 64}, {"time": 1416, "pitch": 71, "duration": 6, "velocity": 64}, {"time": 1422, "pitch": 69, "duration": 6, "velocity": 64}, {"time": 1428, "pitch": 66, "duration": 12, "velocity": 64}, {"time": 1440, "pitch": 71, "duration": 6, "velocity": 64}, {"time": 1446, "pitch": 71, "duration": 6, "velocity": 64}, {"time": 1452, "pitch": 69, "duration": 6, "velocity": 64}, {"time": 1458, "pitch": 66, "duration": 6, "velocity": 64}, {"time": 1464, "pitch": 64, "duration": 6, "velocity": 64}, {"time": 1470, "pitch": 66, "duration": 6, "velocity": 64}, {"time": 1476, "pitch": 69, "duration": 12, "velocity": 64}, {"time": 1488, "pitch": 73, "duration": 12, "velocity": 64}, {"time": 1500, "pitch": 64, "duration": 6, "velocity": 64}, {"time": 1506, "pitch": 66, "duration": 6, "velocity": 64}, {"time": 1512, "pitch": 69, "duration": 18, "velocity": 64}, {"time": 1530, "pitch": 73, "duration": 6, "velocity": 64}, {"time": 1536, "pitch": 69, "duration": 12, "velocity": 64}, {"time": 1548, "pitch": 66, "duration": 12, "velocity": 64}, {"time": 1560, "pitch": 64, "duration": 24, "velocity": 64}]}]}