{"metadata": {"schema_version": "0.1", "title": "Chatian shange", "source_format": "abc"}, "resolution": 24, "tempos": [{"time": 0, "qpm": 120.0}], "key_signatures": [{"time": 0, "root": 0, "mode": "major", "fifths": 0}], "time_signatures": [{"time": 0, "numerator": 4, "denominator": 4}, {"time": 96, "numerator": 1, "denominator": 4}, {"time": 288, "numerator": 1, "denominator": 4}, {"time": 384, "numerator": 1, "denominator": 4}, {"time": 480, "numerator": 4, "denominator": 4}, {"time": 720, "numerator": 4, "denominator": 4}, {"time": 888, "numerator": 1, "denominator": 4}, {"time": 1128, "numerator": 1, "denominator": 4}, {"time": 1224, "numerator": 5, "denominator": 4}, {"time": 1560, "numerator": 3, "denominator": 2}, {"time": 1776, "numerator": 1, "denominator": 4}, {"time": 1800, "numerator": 3, "denominator": 4}], "beats": [{"time": 0, "is_downbeat": true}, {"time": 24, "is_downbeat": true}, {"time": 48, "is_downbeat": true}, {"time": 72, "is_downbeat": true}, {"time": 96, "is_downbeat": true}, {"time": 120, "is_downbeat": true}, {"time": 144, "is_downbeat": true}, {"time": 168, "is_downbeat": true}, {"time": 192, "is_downbeat": true}, {"time": 216, "is_downbeat": true}, {"time": 240, "is_downbeat": true}, {"time": 264, "is_downbeat": true}, {"time": 288, "is_downbeat": true}, {"time": 312, "is_downbeat": true}, {"time": 336, "is_downbeat": true}, {"time": 360, "is_downbeat": true}, {"time": 384, "is_downbeat": true}, {"time": 408, "is_downbeat": true}, {"time": 432, "is_downbeat": false}, {"time": 456, "is_downbeat": false}, {"time": 480, "is_downbeat": true}, {"time": 504, "is_downbeat": false}, {"time": 528, "is_downbeat": false}, {"time": 552, "is_downbeat": false}, {"time": 576, "is_downbeat": true}, {"time": 600, "is_downbeat": false}, {"time": 624, "is_downbeat": false}, {"time": 648, "is_downbeat": true}, {"time": 672, "is_downbeat": false}, {"time": 696, "is_downbeat": false}, {"time": 720, "is_downbeat": true}, {"time": 744, "is_downbeat": true}, {"time": 768, "is_downbeat": true}, {"time": 792, "is_downbeat": true}, {"time": 816, "is_downbeat": true}, {"time": 840, "is_downbeat": true}, {"time": 864, "is_downbeat": true}, {"time": 888, "is_downbeat": true}, {"time": 912, "is_downbeat": true}, {"time": 936, "is_downbeat": true}, {"time": 960, "is_downbeat": true}, {"time": 984, "is_downbeat": true}, {"time": 1008, "is_downbeat": true}, {"time": 1032, "is_downbeat": true}, {"time": 1056, "is_downbeat": true}, {"time": 1080, "is_downbeat": true}, {"time": 1104, "is_downbeat": true}, {"time": 1128, "is_downbeat": true}, {"time": 1152, "is_downbeat": true}, {"time": 1176, "is_downbeat": false}, {"time": 1200, "is_downbeat": false}, {"time": 1224, "is_downbeat": true}, {"time": 1272, "is_downbeat": false}, {"time": 1320, "is_downbeat": false}, {"time": 1344, "is_downbeat": true}, {"time": 1392, "is_downbeat": false}, {"time": 1416, "is_downbeat": true}, {"time": 1464, "is_downbeat": false}, {"time": 1488, "is_downbeat": true}, {"time": 1536, "is_downbeat": false}, {"time": 1560, "is_downbeat": true}, {"time": 1584, "is_downbeat": true}, {"time": 1608, "is_downbeat": true}, {"time": 1632, "is_downbeat": true}, {"time": 1656, "is_downbeat": true}, {"time": 1680, "is_downbeat": true}, {"time": 1704, "is_downbeat": true}, {"time": 1728, "is_downbeat": true}, {"time": 1752, "is_downbeat": true}, {"time": 1776, "is_downbeat": true}, {"time": 1800, "is_downbeat": true}, {"time": 1824, "is_downbeat": false}, {"time": 1848, "is_downbeat": false}], "tracks": [{"program": 0, "is_drum": false, "notes": [{"time": 12, "pitch": 74, "duration": 6, "velocity": 64}, {"time": 18, "pitch": 74, "duration": 6, "velocity": 64}, {"time": 24, "pitch": 76, "duration": 48, "velocity": 64}, {"time": 72, "pitch": 74, "duration": 6, "velocity": 64}, {"time": 78, "pitch": 76, "duration": 6, "velocity": 64}, {"time": 84, "pitch": 74, "duration": 6, "velocity": 64}, {"time": 90, "pitch": 76, "duration": 6, "velocity": 64}, {"time": 96, "pitch": 72, "duration": 6, "velocity": 64}, {"time": 102, "pitch": 74, "duration": 6, "velocity": 64}, {"time": 108, "pitch": 72, "duration": 6, "velocity": 64}, {"time": 114, "pitch": 74, "duration": 6, "velocity": 64}, {"time": 120, "pitch": 69, "duration": 72, "velocity": 64}, {"time": 192, "pitch": 72, "duration": 12, "velocity": 64}, {"time": 204, "pitch": 69, "duration": 12, "velocity": 64}, {"time": 216, "pitch": 74, "duration": 36, "velocity": 64}, {"time": 252, "pitch": 72, "duration": 6, "velocity": 64}, {"time": 258, "pitch": 74, "duration": 6, "velocity": 64}, {"time": 264, "pitch": 69, "duration": 36, "velocity": 64}, {"time": 300, "pitch": 74, "duration": 6, "velocity": 64}, {"time": 306, "pitch": 74, "duration": 6, "velocity": 64}, {"time": 312, "pitch": 76, "duration": 48, "velocity": 64}, {"time": 360, "pitch": 74, "duration": 6, "velocity": 64}, {"time": 366, "pitch": 76, "duration": 6, "velocity": 64}, {"time": 372, "pitch": 74, "duration": 6, "velocity": 64}, {"time": 378, "pitch": 76, "duration": 6, "velocity": 64}, {"time": 384, "pitch": 72, "duration": 6, "velocity": 64}, {"time": 390, "pitch": 74, "duration": 6, "velocity": 64}, {"time": 396, "pitch": 72, "duration": 6, "velocity": 64}, {"time": 402, "pitch": 74, "duration": 6, "velocity": 64}, {"time": 408, "pitch": 69, "duration": 96, "velocity": 64}, {"time": 504, "pitch": 74, "duration": 6, "velocity": 64}, {"time": 510, "pitch": 76, "duration": 6, "velocity": 64}, {"time": 516, "pitch": 72, "duration": 6, "velocity": 64}, {"time": 522, "pitch": 69, "duration": 42, "velocity": 64}, {"time": 564, "pitch": 74, "duration": 6, "velocity": 64}, {"time": 570, "pitch": 74, "duration": 6, "velocity": 64}, {"time": 576, "pitch": 76, "duration": 48, "velocity": 64}, {"time": 624, "pitch": 72, "duration": 6, "velocity": 64}, {"time": 630, "pitch": 74, "duration": 6, "velocity": 64}, {"time": 636, "pitch": 72, "duration": 6, "velocity": 64}, {"time": 642, "pitch": 74, "duration": 6, "velocity": 64}, {"time": 648, "pitch": 69, "duration": 96, "velocity": 64}, {"time": 744, "pitch": 74, "duration": 6, "velocity": 64}, {"time": 750, "pitch": 76, "duration": 6, "velocity": 64}, {"time": 756, "pitch": 72, "duration": 6, "velocity": 64}, {"time": 762, "pitch": 69, "duration": 42, "velocity": 64}, {"time": 804, "pitch": 74, "duration": 6, "velocity": 64}, {"time": 810, "pitch": 74, "duration": 6, "velocity": 64}, {"time": 816, "pitch": 76, "duration": 48, "velocity": 64}, {"time": 864, "pitch": 74, "duration": 6, "velocity": 64}, {"time": 870, "pitch": 76, "duration": 6, "velocity": 64}, {"time": 876, "pitch": 74, "duration": 6, "velocity": 64}, {"time": 882, "pitch": 76, "duration": 6, "velocity": 64}, {"time": 888, "pitch": 74, "duration": 6, "velocity": 64}, {"time": 894, "pitch": 74, "duration": 6, "velocity": 64}, {"time": 900, "pitch": 72, "duration": 6, "velocity": 64}, {"time": 906, "pitch": 71, "duration": 6, "velocity": 64}, {"time": 912, "pitch": 69, "duration": 72, "velocity": 64}, {"time": 984, "pitch": 69, "duration": 6, "velocity": 64}, {"time": 990, "pitch": 71, "duration": 6, "velocity": 64}, {"time": 996, "pitch": 69, "duration": 36, "velocity": 64}, {"time": 1044, "pitch": 74, "duration": 6, "velocity": 64}, {"time": 1050, "pitch": 74, "duration": 6, "velocity": 64}, {"time": 1056, "pitch": 76, "duration": 48, "velocity": 64}, {"time": 1104, "pitch": 74, "duration": 6, "velocity": 64}, {"time": 1110, "pitch": 76, "duration": 6, "velocity": 64}, {"time": 1116, "pitch": 74, "duration": 6, "velocity": 64}, {"time": 1122, "pitch": 76, "duration": 6, "velocity": 64}, {"time": 1128, "pitch": 72, "duration": 6, "velocity": 64}, {"time": 1134, "pitch": 74, "duration": 6, "velocity": 64}, {"time": 1140, "pitch": 72, "duration": 6, "velocity": 64}, {"time": 1146, "pitch": 74, "duration": 6, "velocity": 64}, {"time": 1152, "pitch": 69, "duration": 96, "velocity": 64}, {"time": 1248, "pitch": 74, "duration": 6, "velocity": 64}, {"time": 1254, "pitch": 76, "duration": 6, "velocity": 64}, {"time": 1260, "pitch": 74, "duration": 6, "velocity": 64}, {"time": 1266, "pitch": 76, "duration": 6, "velocity": 64}, {"time": 1272, "pitch": 74, "duration": 9, "velocity": 64}, {"time": 1281, "pitch": 74, "duration": 3, "velocity": 64}, {"time": 1284, "pitch": 72, "duration": 6, "velocity": 64}, {"time": 1290, "pitch": 71, "duration": 6, "velocity": 64}, {"time": 1296, "pitch": 69, "duration": 12, "velocity": 64}, {"time": 1320, "pitch": 74, "duration": 9, "velocity": 64}, {"time": 1329, "pitch": 76, "duration": 3, "velocity": 64}, {"time": 1332, "pitch": 74, "duration": 6, "velocity": 64}, {"time": 1338, "pitch": 76, "duration": 6, "velocity": 64}, {"time": 1344, "pitch": 76, "duration": 48, "velocity": 64}, {"time": 1392, "pitch": 74, "duration": 6, "velocity": 64}, {"time": 1398, "pitch": 74, "duration": 6, "velocity": 64}, {"time": 1404, "pitch": 72, "duration": 6, "velocity": 64}, {"time": 1410, "pitch": 71, "duration": 6, "velocity": 64}, {"time": 1416, "pitch": 69, "duration": 72, "velocity": 64}, {"time": 1488, "pitch": 74, "duration": 9, "velocity": 64}, {"time": 1497, "pitch": 76, "duration": 3, "velocity": 64}, {"time": 1500, "pitch": 64, "duration": 6, "velocity": 64}, {"time": 1506, "pitch": 67, "duration": 6, "velocity": 64}, {"time": 1512, "pitch": 69, "duration": 24, "velocity": 64}, {"time": 1536, "pitch": 72, "duration": 6, "velocity": 64}, {"time": 1542, "pitch": 71, "duration": 6, "velocity": 64}, {"time": 1548, "pitch": 69, "duration": 36, "velocity": 64}, {"time": 1584, "pitch": 74, "duration": 9, "velocity": 64}, {"time": 1593, "pitch": 76, "duration": 3, "velocity": 64}, {"time": 1596, "pitch": 74, "duration": 6, "velocity": 64}, {"time": 1602, "pitch": 76, "duration": 6, "velocity": 64}, {"time": 1608, "pitch": 74, "duration": 6, "velocity": 64}, {"time": 1614, "pitch": 76, "duration": 6, "velocity": 64}, {"time": 1632, "pitch": 74, "duration": 9, "velocity": 64}, {"time": 1641, "pitch": 74, "duration": 3, "velocity": 64}, {"time": 1644, "pitch": 72, "duration": 6, "velocity": 64}, {"time": 1650, "pitch": 71, "duration": 6, "velocity": 64}, {"time": 1656, "pitch": 69, "duration": 12, "velocity": 64}, {"time": 1680, "pitch": 69, "duration": 12, "velocity": 64}, {"time": 1692, "pitch": 76, "duration": 6, "velocity": 64}, {"time": 1698, "pitch": 74, "duration": 6, "velocity": 64}, {"time": 1704, "pitch": 76, "duration": 48, "velocity": 64}, {"time": 1752, "pitch": 74, "duration": 6, "velocity": 64}, {"time": 1758, "pitch": 76, "duration": 6, "velocity": 64}, {"time": 1764, "pitch": 74, "duration": 6, "velocity": 64}, {"time": 1770, "pitch": 76, "duration": 6, "velocity": 64}, {"time": 1776, "pitch": 72, "duration": 6, "velocity": 64}, {"time": 1782, "pitch": 74, "duration": 6, "velocity": 64}, {"time": 1788, "pitch": 72, "duration": 6, "velocity": 64}, {"time": 1794, "pitch": 74, "duration": 6, "velocity": 64}, {"time": 1800, "pitch": 69, "duration": 72, "velocity": 64}]}]}