{"metadata": {"schema_version": "0.1", "title": "Ku qiqi", "source_format": "abc"}, "resolution": 24, "tempos": [{"time": 0, "qpm": 120.0}], "key_signatures": [{"time": 0, "root": 7, "mode": "major", "fifths": 1}], "time_signatures": [{"time": 0, "numerator": 2, "denominator": 4}], "beats": [{"time": 0, "is_downbeat": true}, {"time": 24, "is_downbeat": false}, {"time": 48, "is_downbeat": true}, {"time": 72, "is_downbeat": false}, {"time": 96, "is_downbeat": true}, {"time": 120, "is_downbeat": false}, {"time": 144, "is_downbeat": true}, {"time": 168, "is_downbeat": false}, {"time": 192, "is_downbeat": true}, {"time": 216, "is_downbeat": false}, {"time": 240, "is_downbeat": true}, {"time": 264, "is_downbeat": false}, {"time": 288, "is_downbeat": true}, {"time": 312, "is_downbeat": false}, {"time": 336, "is_downbeat": true}, {"time": 360, "is_downbeat": false}, {"time": 384, "is_downbeat": true}, {"time": 408, "is_downbeat": false}, {"time": 432, "is_downbeat": true}, {"time": 456, "is_downbeat": false}, {"time": 480, "is_downbeat": true}, {"time": 504, "is_downbeat": false}, {"time": 528, "is_downbeat": true}, {"time": 552, "is_downbeat": false}, {"time": 576, "is_downbeat": true}, {"time": 600, "is_downbeat": false}, {"time": 624, "is_downbeat": true}, {"time": 648, "is_downbeat": false}], "tracks": [{"program": 0, "is_drum": false, "notes": [{"time": 0, "pitch": 71, "duration": 12, "velocity": 64}, {"time": 12, "pitch": 71, "duration": 6, "velocity": 64}, {"time": 18, "pitch": 69, "duration": 6, "velocity": 64}, {"time": 24, "pitch": 71, "duration": 6, "velocity": 64}, {"time": 30, "pitch": 69, "duration": 6, "velocity": 64}, {"time": 36, "pitch": 71, "duration": 6, "velocity": 64}, {"time": 42, "pitch": 74, "duration": 6, "velocity": 64}, {"time": 48, "pitch": 67, "duration": 12, "velocity": 64}, {"time": 60, "pitch": 67, "duration": 6, "velocity": 64}, {"time": 66, "pitch": 64, "duration": 6, "velocity": 64}, {"time": 72, "pitch": 74, "duration": 6, "velocity": 64}, {"time": 78, "pitch": 76, "duration": 6, "velocity": 64}, {"time": 84, "pitch": 71, "duration": 12, "velocity": 64}, {"time": 96, "pitch": 71, "duration": 12, "velocity": 64}, {"time": 108, "pitch": 69, "duration": 36, "velocity": 64}, {"time": 144, "pitch": 67, "duration": 12, "velocity": 64}, {"time": 156, "pitch": 67, "duration": 6, "velocity": 64}, {"time": 162, "pitch": 64, "duration": 6, "velocity": 64}, {"time": 168, "pitch": 64, "duration": 9, "velocity": 64}, {"time": 177, "pitch": 67, "duration": 3, "velocity": 64}, {"time": 180, "pitch": 69, "duration": 6, "velocity": 64}, {"time": 186, "pitch": 71, "duration": 6, "velocity": 64}, {"time": 192, "pitch": 69, "duration": 9, "velocity": 64}, {"time": 201, "pitch": 67, "duration": 3, "velocity": 64}, {"time": 204, "pitch": 64, "duration": 6, "velocity": 64}, {"time": 210, "pitch": 62, "duration": 6, "velocity": 64}, {"time": 216, "pitch": 60, "duration": 6, "velocity": 64}, {"time": 222, "pitch": 59, "duration": 6, "velocity": 64}, {"time": 228, "pitch": 57, "duration": 6, "velocity": 64}, {"time": 234, "pitch": 59, "duration": 6, "velocity": 64}, {"time": 240, "pitch": 62, "duration": 48, "velocity": 64}, {"time": 288, "pitch": 64, "duration": 24, "velocity": 64}, {"time": 312, "pitch": 67, "duration": 6, "velocity": 64}, {"time": 318, "pitch": 69, "duration": 6, "velocity": 64}, {"time": 324, "pitch": 64, "duration": 6, "velocity": 64}, {"time": 330, "pitch": 62, "duration": 6, "velocity": 64}, {"time": 336, "pitch": 64, "duration": 18, "velocity": 64}, {"time": 354, "pitch": 67, "duration": 6, "velocity": 64}, {"time": 360, "pitch": 69, "duration": 12, "velocity": 64}, {"time": 372, "pitch": 71, "duration": 12, "velocity": 64}, {"time": 384, "pitch": 74, "duration": 6, "velocity": 64}, {"time": 390, "pitch": 71, "duration": 6, "velocity": 64}, {"time": 396, "pitch": 69, "duration": 12, "velocity": 64}, {"time": 408, "pitch": 69, "duration": 6, "velocity": 64}, {"time": 414, "pitch": 67, "duration": 6, "velocity": 64}, {"time": 420, "pitch": 64, "duration": 6, "velocity": 64}, {"time": 426, "pitch": 62, "duration": 6, "velocity": 64}, {"time": 432, "pitch": 64, "duration": 48, "velocity": 64}, {"time": 480, "pitch": 67, "duration": 18, "velocity": 64}, {"time": 498, "pitch": 69, "duration": 6, "velocity": 64}, {"time": 504, "pitch": 71, "duration": 6, "velocity": 64}, {"time": 510, "pitch": 69, "duration": 6, "velocity": 64}, {"time": 516, "pitch": 74, "duration": 6, "velocity": 64}, {"time": 522, "pitch": 71, "duration": 6, "velocity": 64}, {"time": 528, "pitch": 69, "duration": 18, "velocity": 64}, {"time": 546, "pitch": 67, "duration": 6, "velocity": 64}, {"time": 552, "pitch": 67, "duration": 6, "velocity": 64}, {"time": 558, "pitch": 64, "duration": 6, "velocity": 64}, {"time": 564, "pitch": 62, "duration": 12, "velocity": 64}, {"time": 576, "pitch": 62, "duration": 6, "velocity": 64}, {"time": 582, "pitch": 59, "duration": 6, "velocity": 64}, {"time": 588, "pitch": 62, "duration": 12, "velocity": 64}, {"time": 600, "pitch": 69, "duration": 6, "velocity": 64}, {"time": 606, "pitch": 66, "duration": 6, "velocity": 64}, {"time": 612, "pitch": 64, "duration": 12, "velocity": 64}, {"time": 624, "pitch": 59, "duration": 12, "velocity": 64}, {"time": 636, "pitch": 62, "duration": 36, "velocity": 64}]}]}