{"metadata": {"schema_version": "0.1", "title": "Hudie feilai you feiqu", "source_format": "abc"}, "resolution": 24, "tempos": [{"time": 0, "qpm": 120.0}], "key_signatures": [{"time": 0, "root": 5, "mode": "major", "fifths": -1}], "time_signatures": [{"time": 0, "numerator": 2, "denominator": 4}], "beats": [{"time": 0, "is_downbeat": true}, {"time": 24, "is_downbeat": false}, {"time": 48, "is_downbeat": true}, {"time": 72, "is_downbeat": false}, {"time": 96, "is_downbeat": true}, {"time": 120, "is_downbeat": false}, {"time": 144, "is_downbeat": true}, {"time": 168, "is_downbeat": false}, {"time": 192, "is_downbeat": true}, {"time": 216, "is_downbeat": false}, {"time": 240, "is_downbeat": true}, {"time": 264, "is_downbeat": false}, {"time": 288, "is_downbeat": true}, {"time": 312, "is_downbeat": false}, {"time": 336, "is_downbeat": true}, {"time": 360, "is_downbeat": false}, {"time": 384, "is_downbeat": true}, {"time": 408, "is_downbeat": false}, {"time": 432, "is_downbeat": true}, {"time": 456, "is_downbeat": false}, {"time": 480, "is_downbeat": true}, {"time": 504, "is_downbeat": false}, {"time": 528, "is_downbeat": true}, {"time": 552, "is_downbeat": false}, {"time": 576, "is_downbeat": true}, {"time": 600, "is_downbeat": false}, {"time": 624, "is_downbeat": true}, {"time": 648, "is_downbeat": false}, {"time": 672, "is_downbeat": true}, {"time": 696, "is_downbeat": false}, {"time": 720, "is_downbeat": true}, {"time": 744, "is_downbeat": false}, {"time": 768, "is_downbeat": true}, {"time": 792, "is_downbeat": false}, {"time": 816, "is_downbeat": true}, {"time": 840, "is_downbeat": false}, {"time": 864, "is_downbeat": true}, {"time": 888, "is_downbeat": false}, {"time": 912, "is_downbeat": true}, {"time": 936, "is_downbeat": false}, {"time": 960, "is_downbeat": true}, {"time": 984, "is_downbeat": false}, {"time": 1008, "is_downbeat": true}, {"time": 1032, "is_downbeat": false}, {"time": 1056, "is_downbeat": true}, {"time": 1080, "is_downbeat": false}, {"time": 1104, "is_downbeat": true}, {"time": 1128, "is_downbeat": false}, {"time": 1152, "is_downbeat": true}, {"time": 1176, "is_downbeat": false}, {"time": 1200, "is_downbeat": true}, {"time": 1224, "is_downbeat": false}], "tracks": [{"program": 0, "is_drum": false, "notes": [{"time": 0, "pitch": 65, "duration": 18, "velocity": 64}, {"time": 18, "pitch": 62, "duration": 6, "velocity": 64}, {"time": 24, "pitch": 72, "duration": 9, "velocity": 64}, {"time": 33, "pitch": 74, "duration": 3, "velocity": 64}, {"time": 36, "pitch": 72, "duration": 6, "velocity": 64}, {"time": 42, "pitch": 69, "duration": 6, "velocity": 64}, {"time": 48, "pitch": 67, "duration": 48, "velocity": 64}, {"time": 96, "pitch": 69, "duration": 18, "velocity": 64}, {"time": 114, "pitch": 72, "duration": 6, "velocity": 64}, {"time": 120, "pitch": 62, "duration": 12, "velocity": 64}, {"time": 132, "pitch": 65, "duration": 12, "velocity": 64}, {"time": 144, "pitch": 67, "duration": 18, "velocity": 64}, {"time": 162, "pitch": 69, "duration": 6, "velocity": 64}, {"time": 168, "pitch": 65, "duration": 6, "velocity": 64}, {"time": 174, "pitch": 67, "duration": 6, "velocity": 64}, {"time": 180, "pitch": 65, "duration": 6, "velocity": 64}, {"time": 186, "pitch": 62, "duration": 6, "velocity": 64}, {"time": 192, "pitch": 60, "duration": 18, "velocity": 64}, {"time": 210, "pitch": 57, "duration": 6, "velocity": 64}, {"time": 216, "pitch": 60, "duration": 24, "velocity": 64}, {"time": 240, "pitch": 62, "duration": 12, "velocity": 64}, {"time": 252, "pitch": 65, "duration": 12, "velocity": 64}, {"time": 264, "pitch": 65, "duration": 6, "velocity": 64}, {"time": 270, "pitch": 62, "duration": 6, "velocity": 64}, {"time": 276, "pitch": 60, "duration": 12, "velocity": 64}, {"time": 288, "pitch": 65, "duration": 12, "velocity": 64}, {"time": 300, "pitch": 62, "duration": 24, "velocity": 64}, {"time": 324, "pitch": 60, "duration": 12, "velocity": 64}, {"time": 336, "pitch": 62, "duration": 48, "velocity": 64}, {"time": 384, "pitch": 62, "duration": 12, "velocity": 64}, {"time": 396, "pitch": 62, "duration": 6, "velocity": 64}, {"time": 402, "pitch": 60, "duration": 6, "velocity": 64}, {"time": 408, "pitch": 62, "duration": 12, "velocity": 64}, {"time": 420, "pitch": 65, "duration": 12, "velocity": 64}, {"time": 432, "pitch": 67, "duration": 18, "velocity": 64}, {"time": 450, "pitch": 69, "duration": 6, "velocity": 64}, {"time": 456, "pitch": 65, "duration": 6, "velocity": 64}, {"time": 462, "pitch": 67, "duration": 6, "velocity": 64}, {"time": 468, "pitch": 65, "duration": 6, "velocity": 64}, {"time": 474, "pitch": 62, "duration": 6, "velocity": 64}, {"time": 480, "pitch": 60, "duration": 18, "velocity": 64}, {"time": 498, "pitch": 57, "duration": 6, "velocity": 64}, {"time": 504, "pitch": 60, "duration": 24, "velocity": 64}, {"time": 528, "pitch": 62, "duration": 12, "velocity": 64}, {"time": 540, "pitch": 62, "duration": 6, "velocity": 64}, {"time": 546, "pitch": 65, "duration": 6, "velocity": 64}, {"time": 552, "pitch": 65, "duration": 6, "velocity": 64}, {"time": 558, "pitch": 62, "duration": 6, "velocity": 64}, {"time": 564, "pitch": 60, "duration": 12, "velocity": 64}, {"time": 576, "pitch": 72, "duration": 36, "velocity": 64}, {"time": 624, "pitch": 72, "duration": 12, "velocity": 64}, {"time": 636, "pitch": 74, "duration": 12, "velocity": 64}, {"time": 648, "pitch": 72, "duration": 12, "velocity": 64}, {"time": 660, "pitch": 72, "duration": 6, "velocity": 64}, {"time": 666, "pitch": 69, "duration": 6, "velocity": 64}, {"time": 672, "pitch": 67, "duration": 18, "velocity": 64}, {"time": 690, "pitch": 69, "duration": 6, "velocity": 64}, {"time": 696, "pitch": 72, "duration": 6, "velocity": 64}, {"time": 702, "pitch": 69, "duration": 6, "velocity": 64}, {"time": 708, "pitch": 72, "duration": 12, "velocity": 64}, {"time": 720, "pitch": 69, "duration": 12, "velocity": 64}, {"time": 732, "pitch": 69, "duration": 6, "velocity": 64}, {"time": 738, "pitch": 77, "duration": 6, "velocity": 64}, {"time": 744, "pitch": 74, "duration": 6, "velocity": 64}, {"time": 750, "pitch": 72, "duration": 6, "velocity": 64}, {"time": 756, "pitch": 69, "duration": 6, "velocity": 64}, {"time": 762, "pitch": 67, "duration": 6, "velocity": 64}, {"time": 768, "pitch": 65, "duration": 12, "velocity": 64}, {"time": 780, "pitch": 65, "duration": 24, "velocity": 64}, {"time": 804, "pitch": 67, "duration": 12, "velocity": 64}, {"time": 816, "pitch": 65, "duration": 12, "velocity": 64}, {"time": 828, "pitch": 65, "duration": 24, "velocity": 64}, {"time": 864, "pitch": 74, "duration": 96, "velocity": 64}, {"time": 960, "pitch": 72, "duration": 18, "velocity": 64}, {"time": 978, "pitch": 74, "duration": 6, "velocity": 64}, {"time": 984, "pitch": 72, "duration": 12, "velocity": 64}, {"time": 996, "pitch": 69, "duration": 12, "velocity": 64}, {"time": 1008, "pitch": 72, "duration": 12, "velocity": 64}, {"time": 1020, "pitch": 74, "duration": 6, "velocity": 64}, {"time": 1026, "pitch": 77, "duration": 6, "velocity": 64}, {"time": 1032, "pitch": 72, "duration": 12, "velocity": 64}, {"time": 1044, "pitch": 69, "duration": 12, "velocity": 64}, {"time": 1056, "pitch": 67, "duration": 6, "velocity": 64}, {"time": 1062, "pitch": 65, "duration": 6, "velocity": 64}, {"time": 1068, "pitch": 67, "duration": 6, "velocity": 64}, {"time": 1074, "pitch": 69, "duration": 6, "velocity": 64}, {"time": 1080, "pitch": 72, "duration": 24, "velocity": 64}, {"time": 1104, "pitch": 69, "duration": 12, "velocity": 64}, {"time": 1116, "pitch": 69, "duration": 6, "velocity": 64}, {"time": 1122, "pitch": 77, "duration": 6, "velocity": 64}, {"time": 1128, "pitch": 74, "duration": 6, "velocity": 64}, {"time": 1134, "pitch": 72, "duration": 6, "velocity": 64}, {"time": 1140, "pitch": 69, "duration": 6, "velocity": 64}, {"time": 1146, "pitch": 67, "duration": 6, "velocity": 64}, {"time": 1152, "pitch": 65, "duration": 12, "velocity": 64}, {"time": 1164, "pitch": 65, "duration": 24, "velocity": 64}, {"time": 1188, "pitch": 67, "duration": 12, "velocity": 64}, {"time": 1200, "pitch": 65, "duration": 12, "velocity": 64}, {"time": 1212, "pitch": 65, "duration": 24, "velocity": 64}]}]}