{"metadata": {"schema_version": "0.1", "title": "Gusu fengguang(Da jiulianhuan)", "source_format": "abc"}, "resolution": 24, "tempos": [{"time": 0, "qpm": 120.0}], "key_signatures": [{"time": 0, "root": 2, "mode": "major", "fifths": 2}], "time_signatures": [{"time": 0, "numerator": 4, "denominator": 4}, {"time": 1392, "numerator": 3, "denominator": 4}, {"time": 1464, "numerator": 2, "denominator": 4}], "beats": [{"time": 0, "is_downbeat": true}, {"time": 24, "is_downbeat": false}, {"time": 48, "is_downbeat": true}, {"time": 72, "is_downbeat": false}, {"time": 96, "is_downbeat": true}, {"time": 120, "is_downbeat": false}, {"time": 144, "is_downbeat": true}, {"time": 168, "is_downbeat": false}, {"time": 192, "is_downbeat": true}, {"time": 216, "is_downbeat": false}, {"time": 240, "is_downbeat": true}, {"time": 264, "is_downbeat": false}, {"time": 288, "is_downbeat": true}, {"time": 312, "is_downbeat": false}, {"time": 336, "is_downbeat": true}, {"time": 360, "is_downbeat": false}, {"time": 384, "is_downbeat": true}, {"time": 408, "is_downbeat": false}, {"time": 432, "is_downbeat": true}, {"time": 456, "is_downbeat": false}, {"time": 480, "is_downbeat": true}, {"time": 504, "is_downbeat": false}, {"time": 528, "is_downbeat": true}, {"time": 552, "is_downbeat": false}, {"time": 576, "is_downbeat": true}, {"time": 600, "is_downbeat": false}, {"time": 624, "is_downbeat": true}, {"time": 648, "is_downbeat": false}, {"time": 672, "is_downbeat": true}, {"time": 696, "is_downbeat": false}, {"time": 720, "is_downbeat": true}, {"time": 744, "is_downbeat": false}, {"time": 768, "is_downbeat": true}, {"time": 792, "is_downbeat": false}, {"time": 816, "is_downbeat": true}, {"time": 840, "is_downbeat": false}, {"time": 864, "is_downbeat": true}, {"time": 888, "is_downbeat": false}, {"time": 912, "is_downbeat": true}, {"time": 936, "is_downbeat": false}, {"time": 960, "is_downbeat": true}, {"time": 984, "is_downbeat": false}, {"time": 1008, "is_downbeat": true}, {"time": 1032, "is_downbeat": false}, {"time": 1056, "is_downbeat": true}, {"time": 1080, "is_downbeat": false}, {"time": 1104, "is_downbeat": true}, {"time": 1128, "is_downbeat": false}, {"time": 1152, "is_downbeat": true}, {"time": 1176, "is_downbeat": false}, {"time": 1200, "is_downbeat": true}, {"time": 1224, "is_downbeat": false}, {"time": 1248, "is_downbeat": true}, {"time": 1272, "is_downbeat": false}, {"time": 1296, "is_downbeat": true}, {"time": 1320, "is_downbeat": false}, {"time": 1344, "is_downbeat": true}, {"time": 1368, "is_downbeat": false}, {"time": 1392, "is_downbeat": true}, {"time": 1416, "is_downbeat": false}, {"time": 1440, "is_downbeat": true}, {"time": 1464, "is_downbeat": true}, {"time": 1488, "is_downbeat": false}, {"time": 1512, "is_downbeat": true}, {"time": 1536, "is_downbeat": false}, {"time": 1560, "is_downbeat": true}, {"time": 1584, "is_downbeat": false}, {"time": 1608, "is_downbeat": true}, {"time": 1632, "is_downbeat": false}, {"time": 1656, "is_downbeat": true}, {"time": 1680, "is_downbeat": false}, {"time": 1704, "is_downbeat": true}, {"time": 1728, "is_downbeat": false}, {"time": 1752, "is_downbeat": true}, {"time": 1776, "is_downbeat": false}, {"time": 1800, "is_downbeat": true}, {"time": 1824, "is_downbeat": false}, {"time": 1848, "is_downbeat": true}, {"time": 1872, "is_downbeat": false}, {"time": 1896, "is_downbeat": true}, {"time": 1920, "is_downbeat": false}, {"time": 1944, "is_downbeat": true}, {"time": 1968, "is_downbeat": false}, {"time": 1992, "is_downbeat": true}, {"time": 2016, "is_downbeat": false}], "tracks": [{"program": 0, "is_drum": false, "notes": [{"time": 0, "pitch": 76, "duration": 12, "velocity": 64}, {"time": 12, "pitch": 78, "duration": 6, "velocity": 64}, {"time": 18, "pitch": 76, "duration": 6, "velocity": 64}, {"time": 24, "pitch": 74, "duration": 24, "velocity": 64}, {"time": 48, "pitch": 78, "duration": 6, "velocity": 64}, {"time": 54, "pitch": 76, "duration": 12, "velocity": 64}, {"time": 66, "pitch": 78, "duration": 6, "velocity": 64}, {"time": 72, "pitch": 74, "duration": 6, "velocity": 64}, {"time": 78, "pitch": 76, "duration": 6, "velocity": 64}, {"time": 84, "pitch": 69, "duration": 6, "velocity": 64}, {"time": 90, "pitch": 71, "duration": 6, "velocity": 64}, {"time": 96, "pitch": 69, "duration": 6, "velocity": 64}, {"time": 102, "pitch": 66, "duration": 6, "velocity": 64}, {"time": 108, "pitch": 64, "duration": 12, "velocity": 64}, {"time": 120, "pitch": 66, "duration": 12, "velocity": 64}, {"time": 132, "pitch": 69, "duration": 12, "velocity": 64}, {"time": 144, "pitch": 71, "duration": 6, "velocity": 64}, {"time": 150, "pitch": 69, "duration": 3, "velocity": 64}, {"time": 153, "pitch": 71, "duration": 3, "velocity": 64}, {"time": 156, "pitch": 74, "duration": 6, "velocity": 64}, {"time": 162, "pitch": 71, "duration": 30, "velocity": 64}, {"time": 192, "pitch": 74, "duration": 12, "velocity": 64}, {"time": 204, "pitch": 78, "duration": 6, "velocity": 64}, {"time": 210, "pitch": 76, "duration": 6, "velocity": 64}, {"time": 216, "pitch": 76, "duration": 6, "velocity": 64}, {"time": 222, "pitch": 74, "duration": 6, "velocity": 64}, {"time": 228, "pitch": 71, "duration": 6, "velocity": 64}, {"time": 234, "pitch": 74, "duration": 6, "velocity": 64}, {"time": 240, "pitch": 69, "duration": 36, "velocity": 64}, {"time": 276, "pitch": 74, "duration": 6, "velocity": 64}, {"time": 282, "pitch": 71, "duration": 6, "velocity": 64}, {"time": 288, "pitch": 74, "duration": 12, "velocity": 64}, {"time": 300, "pitch": 69, "duration": 24, "velocity": 64}, {"time": 324, "pitch": 71, "duration": 6, "velocity": 64}, {"time": 330, "pitch": 69, "duration": 6, "velocity": 64}, {"time": 336, "pitch": 66, "duration": 18, "velocity": 64}, {"time": 354, "pitch": 64, "duration": 6, "velocity": 64}, {"time": 360, "pitch": 62, "duration": 6, "velocity": 64}, {"time": 366, "pitch": 64, "duration": 6, "velocity": 64}, {"time": 372, "pitch": 59, "duration": 6, "velocity": 64}, {"time": 378, "pitch": 62, "duration": 6, "velocity": 64}, {"time": 384, "pitch": 64, "duration": 36, "velocity": 64}, {"time": 420, "pitch": 66, "duration": 12, "velocity": 64}, {"time": 432, "pitch": 69, "duration": 18, "velocity": 64}, {"time": 450, "pitch": 66, "duration": 6, "velocity": 64}, {"time": 456, "pitch": 74, "duration": 12, "velocity": 64}, {"time": 468, "pitch": 76, "duration": 6, "velocity": 64}, {"time": 474, "pitch": 74, "duration": 6, "velocity": 64}, {"time": 480, "pitch": 71, "duration": 18, "velocity": 64}, {"time": 498, "pitch": 69, "duration": 6, "velocity": 64}, {"time": 504, "pitch": 66, "duration": 24, "velocity": 64}, {"time": 528, "pitch": 69, "duration": 6, "velocity": 64}, {"time": 534, "pitch": 66, "duration": 6, "velocity": 64}, {"time": 540, "pitch": 71, "duration": 6, "velocity": 64}, {"time": 546, "pitch": 74, "duration": 6, "velocity": 64}, {"time": 552, "pitch": 71, "duration": 6, "velocity": 64}, {"time": 558, "pitch": 69, "duration": 6, "velocity": 64}, {"time": 564, "pitch": 66, "duration": 6, "velocity": 64}, {"time": 570, "pitch": 69, "duration": 6, "velocity": 64}, {"time": 576, "pitch": 62, "duration": 12, "velocity": 64}, {"time": 588, "pitch": 59, "duration": 12, "velocity": 64}, {"time": 600, "pitch": 64, "duration": 24, "velocity": 64}, {"time": 624, "pitch": 66, "duration": 18, "velocity": 64}, {"time": 642, "pitch": 74, "duration": 6, "velocity": 64}, {"time": 648, "pitch": 66, "duration": 12, "velocity": 64}, {"time": 660, "pitch": 69, "duration": 12, "velocity": 64}, {"time": 672, "pitch": 74, "duration": 6, "velocity": 64}, {"time": 678, "pitch": 74, "duration": 18, "velocity": 64}, {"time": 696, "pitch": 71, "duration": 6, "velocity": 64}, {"time": 702, "pitch": 69, "duration": 6, "velocity": 64}, {"time": 708, "pitch": 69, "duration": 6, "velocity": 64}, {"time": 714, "pitch": 66, "duration": 6, "velocity": 64}, {"time": 720, "pitch": 69, "duration": 36, "velocity": 64}, {"time": 756, "pitch": 71, "duration": 6, "velocity": 64}, {"time": 762, "pitch": 69, "duration": 6, "velocity": 64}, {"time": 768, "pitch": 66, "duration": 18, "velocity": 64}, {"time": 786, "pitch": 64, "duration": 6, "velocity": 64}, {"time": 792, "pitch": 62, "duration": 12, "velocity": 64}, {"time": 804, "pitch": 59, "duration": 6, "velocity": 64}, {"time": 810, "pitch": 62, "duration": 6, "velocity": 64}, {"time": 816, "pitch": 64, "duration": 24, "velocity": 64}, {"time": 864, "pitch": 69, "duration": 18, "velocity": 64}, {"time": 882, "pitch": 66, "duration": 6, "velocity": 64}, {"time": 888, "pitch": 74, "duration": 12, "velocity": 64}, {"time": 900, "pitch": 76, "duration": 6, "velocity": 64}, {"time": 906, "pitch": 74, "duration": 6, "velocity": 64}, {"time": 912, "pitch": 71, "duration": 6, "velocity": 64}, {"time": 918, "pitch": 74, "duration": 6, "velocity": 64}, {"time": 924, "pitch": 71, "duration": 6, "velocity": 64}, {"time": 930, "pitch": 69, "duration": 6, "velocity": 64}, {"time": 936, "pitch": 69, "duration": 18, "velocity": 64}, {"time": 954, "pitch": 66, "duration": 6, "velocity": 64}, {"time": 960, "pitch": 64, "duration": 12, "velocity": 64}, {"time": 972, "pitch": 66, "duration": 6, "velocity": 64}, {"time": 978, "pitch": 69, "duration": 6, "velocity": 64}, {"time": 984, "pitch": 64, "duration": 6, "velocity": 64}, {"time": 990, "pitch": 66, "duration": 6, "velocity": 64}, {"time": 996, "pitch": 62, "duration": 12, "velocity": 64}, {"time": 1008, "pitch": 62, "duration": 12, "velocity": 64}, {"time": 1020, "pitch": 59, "duration": 36, "velocity": 64}, {"time": 1056, "pitch": 76, "duration": 24, "velocity": 64}, {"time": 1080, "pitch": 74, "duration": 12, "velocity": 64}, {"time": 1092, "pitch": 76, "duration": 6, "velocity": 64}, {"time": 1098, "pitch": 74, "duration": 6, "velocity": 64}, {"time": 1104, "pitch": 71, "duration": 9, "velocity": 64}, {"time": 1113, "pitch": 74, "duration": 3, "velocity": 64}, {"time": 1116, "pitch": 71, "duration": 6, "velocity": 64}, {"time": 1122, "pitch": 69, "duration": 6, "velocity": 64}, {"time": 1128, "pitch": 66, "duration": 6, "velocity": 64}, {"time": 1134, "pitch": 69, "duration": 6, "velocity": 64}, {"time": 1140, "pitch": 66, "duration": 12, "velocity": 64}, {"time": 1152, "pitch": 71, "duration": 12, "velocity": 64}, {"time": 1164, "pitch": 74, "duration": 12, "velocity": 64}, {"time": 1176, "pitch": 71, "duration": 12, "velocity": 64}, {"time": 1188, "pitch": 74, "duration": 12, "velocity": 64}, {"time": 1200, "pitch": 78, "duration": 6, "velocity": 64}, {"time": 1206, "pitch": 76, "duration": 12, "velocity": 64}, {"time": 1218, "pitch": 78, "duration": 6, "velocity": 64}, {"time": 1224, "pitch": 76, "duration": 6, "velocity": 64}, {"time": 1230, "pitch": 74, "duration": 6, "velocity": 64}, {"time": 1236, "pitch": 71, "duration": 6, "velocity": 64}, {"time": 1242, "pitch": 74, "duration": 6, "velocity": 64}, {"time": 1248, "pitch": 69, "duration": 48, "velocity": 64}, {"time": 1296, "pitch": 66, "duration": 12, "velocity": 64}, {"time": 1308, "pitch": 66, "duration": 6, "velocity": 64}, {"time": 1314, "pitch": 69, "duration": 6, "velocity": 64}, {"time": 1320, "pitch": 71, "duration": 12, "velocity": 64}, {"time": 1332, "pitch": 76, "duration": 12, "velocity": 64}, {"time": 1344, "pitch": 74, "duration": 6, "velocity": 64}, {"time": 1350, "pitch": 71, "duration": 6, "velocity": 64}, {"time": 1356, "pitch": 69, "duration": 12, "velocity": 64}, {"time": 1380, "pitch": 74, "duration": 6, "velocity": 64}, {"time": 1386, "pitch": 71, "duration": 6, "velocity": 64}, {"time": 1392, "pitch": 69, "duration": 6, "velocity": 64}, {"time": 1398, "pitch": 66, "duration": 6, "velocity": 64}, {"time": 1404, "pitch": 69, "duration": 12, "velocity": 64}, {"time": 1416, "pitch": 69, "duration": 6, "velocity": 64}, {"time": 1422, "pitch": 71, "duration": 6, "velocity": 64}, {"time": 1428, "pitch": 74, "duration": 6, "velocity": 64}, {"time": 1434, "pitch": 76, "duration": 6, "velocity": 64}, {"time": 1440, "pitch": 71, "duration": 6, "velocity": 64}, {"time": 1446, "pitch": 69, "duration": 6, "velocity": 64}, {"time": 1452, "pitch": 69, "duration": 6, "velocity": 64}, {"time": 1458, "pitch": 66, "duration": 6, "velocity": 64}, {"time": 1464, "pitch": 66, "duration": 6, "velocity": 64}, {"time": 1470, "pitch": 64, "duration": 6, "velocity": 64}, {"time": 1476, "pitch": 62, "duration": 12, "velocity": 64}, {"time": 1488, "pitch": 64, "duration": 24, "velocity": 64}, {"time": 1512, "pitch": 71, "duration": 12, "velocity": 64}, {"time": 1524, "pitch": 71, "duration": 6, "velocity": 64}, {"time": 1530, "pitch": 69, "duration": 6, "velocity": 64}, {"time": 1536, "pitch": 71, "duration": 12, "velocity": 64}, {"time": 1548, "pitch": 74, "duration": 12, "velocity": 64}, {"time": 1560, "pitch": 66, "duration": 6, "velocity": 64}, {"time": 1566, "pitch": 69, "duration": 6, "velocity": 64}, {"time": 1572, "pitch": 71, "duration": 6, "velocity": 64}, {"time": 1578, "pitch": 74, "duration": 6, "velocity": 64}, {"time": 1584, "pitch": 69, "duration": 24, "velocity": 64}, {"time": 1608, "pitch": 69, "duration": 6, "velocity": 64}, {"time": 1614, "pitch": 71, "duration": 6, "velocity": 64}, {"time": 1620, "pitch": 74, "duration": 6, "velocity": 64}, {"time": 1626, "pitch": 76, "duration": 6, "velocity": 64}, {"time": 1632, "pitch": 71, "duration": 6, "velocity": 64}, {"time": 1638, "pitch": 69, "duration": 6, "velocity": 64}, {"time": 1644, "pitch": 69, "duration": 6, "velocity": 64}, {"time": 1650, "pitch": 66, "duration": 6, "velocity": 64}, {"time": 1656, "pitch": 66, "duration": 6, "velocity": 64}, {"time": 1662, "pitch": 64, "duration": 6, "velocity": 64}, {"time": 1668, "pitch": 62, "duration": 12, "velocity": 64}, {"time": 1680, "pitch": 64, "duration": 24, "velocity": 64}, {"time": 1704, "pitch": 69, "duration": 6, "velocity": 64}, {"time": 1710, "pitch": 66, "duration": 6, "velocity": 64}, {"time": 1716, "pitch": 69, "duration": 12, "velocity": 64}, {"time": 1740, "pitch": 66, "duration": 6, "velocity": 64}, {"time": 1746, "pitch": 69, "duration": 6, "velocity": 64}, {"time": 1752, "pitch": 71, "duration": 6, "velocity": 64}, {"time": 1758, "pitch": 69, "duration": 6, "velocity": 64}, {"time": 1764, "pitch": 74, "duration": 6, "velocity": 64}, {"time": 1770, "pitch": 71, "duration": 6, "velocity": 64}, {"time": 1776, "pitch": 71, "duration": 6, "velocity": 64}, {"time": 1782, "pitch": 69, "duration": 6, "velocity": 64}, {"time": 1788, "pitch": 69, "duration": 6, "velocity": 64}, {"time": 1794, "pitch": 66, "duration": 6, "velocity": 64}, {"time": 1800, "pitch": 69, "duration": 12, "velocity": 64}, {"time": 1812, "pitch": 69, "duration": 6, "velocity": 64}, {"time": 1818, "pitch": 64, "duration": 6, "velocity": 64}, {"time": 1824, "pitch": 66, "duration": 6, "velocity": 64}, {"time": 1830, "pitch": 64, "duration": 6, "velocity": 64}, {"time": 1836, "pitch": 69, "duration": 12, "velocity": 64}, {"time": 1848, "pitch": 62, "duration": 18, "velocity": 64}, {"time": 1866, "pitch": 64, "duration": 6, "velocity": 64}, {"time": 1872, "pitch": 62, "duration": 24, "velocity": 64}, {"time": 1896, "pitch": 78, "duration": 6, "velocity": 64}, {"time": 1902, "pitch": 76, "duration": 12, "velocity": 64}, {"time": 1914, "pitch": 78, "duration": 6, "velocity": 64}, {"time": 1920, "pitch": 74, "duration": 6, "velocity": 64}, {"time": 1926, "pitch": 76, "duration": 6, "velocity": 64}, {"time": 1932, "pitch": 74, "duration": 6, "velocity": 64}, {"time": 1938, "pitch": 71, "duration": 6, "velocity": 64}, {"time": 1944, "pitch": 69, "duration": 6, "velocity": 64}, {"time": 1950, "pitch": 71, "duration": 6, "velocity": 64}, {"time": 1956, "pitch": 74, "duration": 6, "velocity": 64}, {"time": 1962, "pitch": 78, "duration": 6, "velocity": 64}, {"time": 1968, "pitch": 76, "duration": 6, "velocity": 64}, {"time": 1974, "pitch": 74, "duration": 6, "velocity": 64}, {"time": 1980, "pitch": 71, "duration": 6, "velocity": 64}, {"time": 1986, "pitch": 74, "duration": 6, "velocity": 64}, {"time": 1992, "pitch": 69, "duration": 48, "velocity": 64}]}]}