{"metadata": {"schema_version": "0.1", "title": "Shua shan diao", "source_format": "abc"}, "resolution": 24, "tempos": [{"time": 0, "qpm": 120.0}], "key_signatures": [{"time": 0, "root": 7, "mode": "major", "fifths": 1}], "time_signatures": [{"time": 0, "numerator": 4, "denominator": 4}, {"time": 468, "numerator": 1, "denominator": 4}, {"time": 660, "numerator": 1, "denominator": 4}, {"time": 756, "numerator": 1, "denominator": 4}, {"time": 1044, "numerator": 1, "denominator": 8}, {"time": 1440, "numerator": 3, "denominator": 8}, {"time": 1548, "numerator": 3, "denominator": 8}, {"time": 2136, "numerator": 1, "denominator": 8}, {"time": 2340, "numerator": 1, "denominator": 4}, {"time": 2640, "numerator": 1, "denominator": 4}, {"time": 2952, "numerator": 3, "denominator": 8}, {"time": 2988, "numerator": 3, "denominator": 4}], "beats": [{"time": 0, "is_downbeat": true}, {"time": 24, "is_downbeat": true}, {"time": 48, "is_downbeat": true}, {"time": 72, "is_downbeat": true}, {"time": 96, "is_downbeat": true}, {"time": 120, "is_downbeat": true}, {"time": 144, "is_downbeat": true}, {"time": 168, "is_downbeat": true}, {"time": 192, "is_downbeat": true}, {"time": 216, "is_downbeat": true}, {"time": 228, "is_downbeat": true}, {"time": 252, "is_downbeat": true}, {"time": 276, "is_downbeat": true}, {"time": 300, "is_downbeat": true}, {"time": 324, "is_downbeat": true}, {"time": 348, "is_downbeat": true}, {"time": 372, "is_downbeat": true}, {"time": 396, "is_downbeat": true}, {"time": 420, "is_downbeat": true}, {"time": 444, "is_downbeat": true}, {"time": 468, "is_downbeat": true}, {"time": 492, "is_downbeat": true}, {"time": 516, "is_downbeat": true}, {"time": 540, "is_downbeat": true}, {"time": 564, "is_downbeat": true}, {"time": 588, "is_downbeat": true}, {"time": 612, "is_downbeat": true}, {"time": 636, "is_downbeat": true}, {"time": 660, "is_downbeat": true}, {"time": 684, "is_downbeat": true}, {"time": 708, "is_downbeat": true}, {"time": 732, "is_downbeat": true}, {"time": 756, "is_downbeat": true}, {"time": 768, "is_downbeat": true}, {"time": 780, "is_downbeat": true}, {"time": 792, "is_downbeat": true}, {"time": 804, "is_downbeat": true}, {"time": 816, "is_downbeat": true}, {"time": 828, "is_downbeat": true}, {"time": 840, "is_downbeat": true}, {"time": 852, "is_downbeat": true}, {"time": 864, "is_downbeat": true}, {"time": 876, "is_downbeat": true}, {"time": 888, "is_downbeat": true}, {"time": 900, "is_downbeat": true}, {"time": 912, "is_downbeat": true}, {"time": 924, "is_downbeat": true}, {"time": 936, "is_downbeat": true}, {"time": 948, "is_downbeat": true}, {"time": 960, "is_downbeat": true}, {"time": 972, "is_downbeat": true}, {"time": 984, "is_downbeat": true}, {"time": 996, "is_downbeat": true}, {"time": 1008, "is_downbeat": true}, {"time": 1020, "is_downbeat": true}, {"time": 1032, "is_downbeat": true}, {"time": 1044, "is_downbeat": true}, {"time": 1056, "is_downbeat": true}, {"time": 1068, "is_downbeat": false}, {"time": 1080, "is_downbeat": false}, {"time": 1092, "is_downbeat": true}, {"time": 1104, "is_downbeat": true}, {"time": 1116, "is_downbeat": false}, {"time": 1128, "is_downbeat": false}, {"time": 1140, "is_downbeat": true}, {"time": 1152, "is_downbeat": false}, {"time": 1164, "is_downbeat": false}, {"time": 1176, "is_downbeat": true}, {"time": 1188, "is_downbeat": false}, {"time": 1200, "is_downbeat": false}, {"time": 1212, "is_downbeat": true}, {"time": 1224, "is_downbeat": false}, {"time": 1236, "is_downbeat": false}, {"time": 1248, "is_downbeat": true}, {"time": 1260, "is_downbeat": false}, {"time": 1272, "is_downbeat": false}, {"time": 1284, "is_downbeat": true}, {"time": 1296, "is_downbeat": false}, {"time": 1308, "is_downbeat": false}, {"time": 1320, "is_downbeat": true}, {"time": 1332, "is_downbeat": false}, {"time": 1344, "is_downbeat": false}, {"time": 1356, "is_downbeat": true}, {"time": 1368, "is_downbeat": true}, {"time": 1380, "is_downbeat": false}, {"time": 1392, "is_downbeat": false}, {"time": 1404, "is_downbeat": true}, {"time": 1416, "is_downbeat": false}, {"time": 1428, "is_downbeat": false}, {"time": 1440, "is_downbeat": true}, {"time": 1452, "is_downbeat": false}, {"time": 1464, "is_downbeat": false}, {"time": 1476, "is_downbeat": true}, {"time": 1488, "is_downbeat": false}, {"time": 1500, "is_downbeat": false}, {"time": 1512, "is_downbeat": true}, {"time": 1524, "is_downbeat": false}, {"time": 1536, "is_downbeat": false}, {"time": 1548, "is_downbeat": true}, {"time": 1560, "is_downbeat": true}, {"time": 1572, "is_downbeat": true}, {"time": 1584, "is_downbeat": true}, {"time": 1596, "is_downbeat": true}, {"time": 1608, "is_downbeat": true}, {"time": 1620, "is_downbeat": true}, {"time": 1632, "is_downbeat": true}, {"time": 1644, "is_downbeat": true}, {"time": 1656, "is_downbeat": true}, {"time": 1668, "is_downbeat": true}, {"time": 1680, "is_downbeat": true}, {"time": 1692, "is_downbeat": true}, {"time": 1704, "is_downbeat": true}, {"time": 1716, "is_downbeat": true}, {"time": 1728, "is_downbeat": true}, {"time": 1740, "is_downbeat": true}, {"time": 1752, "is_downbeat": true}, {"time": 1764, "is_downbeat": true}, {"time": 1776, "is_downbeat": true}, {"time": 1788, "is_downbeat": true}, {"time": 1800, "is_downbeat": true}, {"time": 1812, "is_downbeat": true}, {"time": 1824, "is_downbeat": true}, {"time": 1836, "is_downbeat": true}, {"time": 1848, "is_downbeat": true}, {"time": 1860, "is_downbeat": true}, {"time": 1872, "is_downbeat": true}, {"time": 1884, "is_downbeat": true}, {"time": 1896, "is_downbeat": true}, {"time": 1908, "is_downbeat": true}, {"time": 1920, "is_downbeat": true}, {"time": 1932, "is_downbeat": true}, {"time": 1944, "is_downbeat": true}, {"time": 1956, "is_downbeat": true}, {"time": 1968, "is_downbeat": true}, {"time": 1980, "is_downbeat": true}, {"time": 1992, "is_downbeat": true}, {"time": 2004, "is_downbeat": true}, {"time": 2016, "is_downbeat": true}, {"time": 2028, "is_downbeat": true}, {"time": 2040, "is_downbeat": true}, {"time": 2052, "is_downbeat": true}, {"time": 2064, "is_downbeat": true}, {"time": 2076, "is_downbeat": true}, {"time": 2088, "is_downbeat": true}, {"time": 2100, "is_downbeat": true}, {"time": 2112, "is_downbeat": true}, {"time": 2124, "is_downbeat": true}, {"time": 2136, "is_downbeat": true}, {"time": 2148, "is_downbeat": true}, {"time": 2172, "is_downbeat": true}, {"time": 2196, "is_downbeat": true}, {"time": 2220, "is_downbeat": true}, {"time": 2244, "is_downbeat": true}, {"time": 2268, "is_downbeat": true}, {"time": 2292, "is_downbeat": true}, {"time": 2316, "is_downbeat": true}, {"time": 2340, "is_downbeat": true}, {"time": 2364, "is_downbeat": true}, {"time": 2388, "is_downbeat": true}, {"time": 2412, "is_downbeat": true}, {"time": 2436, "is_downbeat": true}, {"time": 2460, "is_downbeat": true}, {"time": 2484, "is_downbeat": true}, {"time": 2508, "is_downbeat": true}, {"time": 2532, "is_downbeat": true}, {"time": 2556, "is_downbeat": true}, {"time": 2568, "is_downbeat": true}, {"time": 2592, "is_downbeat": true}, {"time": 2616, "is_downbeat": true}, {"time": 2640, "is_downbeat": true}, {"time": 2652, "is_downbeat": false}, {"time": 2664, "is_downbeat": true}, {"time": 2676, "is_downbeat": false}, {"time": 2688, "is_downbeat": false}, {"time": 2700, "is_downbeat": true}, {"time": 2712, "is_downbeat": false}, {"time": 2724, "is_downbeat": false}, {"time": 2736, "is_downbeat": true}, {"time": 2748, "is_downbeat": false}, {"time": 2760, "is_downbeat": false}, {"time": 2772, "is_downbeat": true}, {"time": 2784, "is_downbeat": false}, {"time": 2796, "is_downbeat": false}, {"time": 2808, "is_downbeat": true}, {"time": 2820, "is_downbeat": false}, {"time": 2832, "is_downbeat": false}, {"time": 2844, "is_downbeat": true}, {"time": 2856, "is_downbeat": false}, {"time": 2868, "is_downbeat": false}, {"time": 2880, "is_downbeat": true}, {"time": 2892, "is_downbeat": false}, {"time": 2904, "is_downbeat": false}, {"time": 2916, "is_downbeat": true}, {"time": 2928, "is_downbeat": false}, {"time": 2940, "is_downbeat": false}, {"time": 2952, "is_downbeat": true}, {"time": 2976, "is_downbeat": false}, {"time": 2988, "is_downbeat": true}, {"time": 3012, "is_downbeat": false}, {"time": 3036, "is_downbeat": false}, {"time": 3060, "is_downbeat": true}, {"time": 3084, "is_downbeat": false}, {"time": 3108, "is_downbeat": true}, {"time": 3132, "is_downbeat": false}, {"time": 3144, "is_downbeat": true}, {"time": 3168, "is_downbeat": false}, {"time": 3192, "is_downbeat": false}, {"time": 3216, "is_downbeat": true}, {"time": 3240, "is_downbeat": false}, {"time": 3264, "is_downbeat": true}, {"time": 3288, "is_downbeat": false}, {"time": 3312, "is_downbeat": false}], "tracks": [{"program": 0, "is_drum": false, "notes": [{"time": 0, "pitch": 74, "duration": 12, "velocity": 64}, {"time": 12, "pitch": 74, "duration": 12, "velocity": 64}, {"time": 24, "pitch": 79, "duration": 24, "velocity": 64}, {"time": 48, "pitch": 76, "duration": 12, "velocity": 64}, {"time": 60, "pitch": 76, "duration": 6, "velocity": 64}, {"time": 66, "pitch": 74, "duration": 6, "velocity": 64}, {"time": 72, "pitch": 74, "duration": 6, "velocity": 64}, {"time": 78, "pitch": 76, "duration": 6, "velocity": 64}, {"time": 84, "pitch": 74, "duration": 6, "velocity": 64}, {"time": 90, "pitch": 74, "duration": 6, "velocity": 64}, {"time": 96, "pitch": 74, "duration": 12, "velocity": 64}, {"time": 108, "pitch": 76, "duration": 12, "velocity": 64}, {"time": 120, "pitch": 73, "duration": 12, "velocity": 64}, {"time": 132, "pitch": 74, "duration": 12, "velocity": 64}, {"time": 144, "pitch": 79, "duration": 24, "velocity": 64}, {"time": 168, "pitch": 76, "duration": 12, "velocity": 64}, {"time": 180, "pitch": 76, "duration": 6, "velocity": 64}, {"time": 186, "pitch": 74, "duration": 6, "velocity": 64}, {"time": 192, "pitch": 74, "duration": 12, "velocity": 64}, {"time": 204, "pitch": 76, "duration": 12, "velocity": 64}, {"time": 216, "pitch": 76, "duration": 6, "velocity": 64}, {"time": 222, "pitch": 74, "duration": 6, "velocity": 64}, {"time": 228, "pitch": 74, "duration": 12, "velocity": 64}, {"time": 240, "pitch": 76, "duration": 12, "velocity": 64}, {"time": 252, "pitch": 74, "duration": 24, "velocity": 64}, {"time": 276, "pitch": 69, "duration": 6, "velocity": 64}, {"time": 282, "pitch": 71, "duration": 6, "velocity": 64}, {"time": 288, "pitch": 69, "duration": 12, "velocity": 64}, {"time": 300, "pitch": 69, "duration": 12, "velocity": 64}, {"time": 312, "pitch": 62, "duration": 12, "velocity": 64}, {"time": 324, "pitch": 67, "duration": 12, "velocity": 64}, {"time": 336, "pitch": 69, "duration": 12, "velocity": 64}, {"time": 348, "pitch": 74, "duration": 12, "velocity": 64}, {"time": 360, "pitch": 76, "duration": 12, "velocity": 64}, {"time": 372, "pitch": 69, "duration": 6, "velocity": 64}, {"time": 378, "pitch": 71, "duration": 6, "velocity": 64}, {"time": 384, "pitch": 69, "duration": 6, "velocity": 64}, {"time": 390, "pitch": 69, "duration": 6, "velocity": 64}, {"time": 396, "pitch": 67, "duration": 18, "velocity": 64}, {"time": 414, "pitch": 64, "duration": 6, "velocity": 64}, {"time": 420, "pitch": 62, "duration": 24, "velocity": 64}, {"time": 456, "pitch": 79, "duration": 24, "velocity": 64}, {"time": 480, "pitch": 74, "duration": 12, "velocity": 64}, {"time": 492, "pitch": 79, "duration": 12, "velocity": 64}, {"time": 504, "pitch": 76, "duration": 12, "velocity": 64}, {"time": 516, "pitch": 76, "duration": 6, "velocity": 64}, {"time": 522, "pitch": 74, "duration": 6, "velocity": 64}, {"time": 528, "pitch": 76, "duration": 6, "velocity": 64}, {"time": 534, "pitch": 74, "duration": 6, "velocity": 64}, {"time": 540, "pitch": 76, "duration": 12, "velocity": 64}, {"time": 552, "pitch": 74, "duration": 12, "velocity": 64}, {"time": 564, "pitch": 76, "duration": 12, "velocity": 64}, {"time": 576, "pitch": 74, "duration": 12, "velocity": 64}, {"time": 588, "pitch": 79, "duration": 12, "velocity": 64}, {"time": 600, "pitch": 71, "duration": 12, "velocity": 64}, {"time": 612, "pitch": 76, "duration": 12, "velocity": 64}, {"time": 624, "pitch": 74, "duration": 12, "velocity": 64}, {"time": 636, "pitch": 79, "duration": 18, "velocity": 64}, {"time": 654, "pitch": 79, "duration": 6, "velocity": 64}, {"time": 660, "pitch": 73, "duration": 12, "velocity": 64}, {"time": 672, "pitch": 74, "duration": 12, "velocity": 64}, {"time": 684, "pitch": 73, "duration": 18, "velocity": 64}, {"time": 702, "pitch": 74, "duration": 6, "velocity": 64}, {"time": 708, "pitch": 76, "duration": 12, "velocity": 64}, {"time": 720, "pitch": 76, "duration": 6, "velocity": 64}, {"time": 726, "pitch": 76, "duration": 6, "velocity": 64}, {"time": 732, "pitch": 79, "duration": 12, "velocity": 64}, {"time": 744, "pitch": 79, "duration": 12, "velocity": 64}, {"time": 756, "pitch": 76, "duration": 12, "velocity": 64}, {"time": 768, "pitch": 74, "duration": 12, "velocity": 64}, {"time": 780, "pitch": 73, "duration": 6, "velocity": 64}, {"time": 786, "pitch": 72, "duration": 6, "velocity": 64}, {"time": 792, "pitch": 72, "duration": 12, "velocity": 64}, {"time": 804, "pitch": 76, "duration": 12, "velocity": 64}, {"time": 816, "pitch": 76, "duration": 12, "velocity": 64}, {"time": 828, "pitch": 72, "duration": 12, "velocity": 64}, {"time": 840, "pitch": 76, "duration": 6, "velocity": 64}, {"time": 846, "pitch": 79, "duration": 6, "velocity": 64}, {"time": 852, "pitch": 72, "duration": 12, "velocity": 64}, {"time": 864, "pitch": 74, "duration": 24, "velocity": 64}, {"time": 888, "pitch": 79, "duration": 18, "velocity": 64}, {"time": 906, "pitch": 74, "duration": 6, "velocity": 64}, {"time": 912, "pitch": 76, "duration": 12, "velocity": 64}, {"time": 924, "pitch": 73, "duration": 12, "velocity": 64}, {"time": 936, "pitch": 76, "duration": 6, "velocity": 64}, {"time": 942, "pitch": 76, "duration": 6, "velocity": 64}, {"time": 948, "pitch": 73, "duration": 12, "velocity": 64}, {"time": 960, "pitch": 76, "duration": 12, "velocity": 64}, {"time": 972, "pitch": 74, "duration": 12, "velocity": 64}, {"time": 984, "pitch": 74, "duration": 12, "velocity": 64}, {"time": 1020, "pitch": 74, "duration": 12, "velocity": 64}, {"time": 1032, "pitch": 76, "duration": 12, "velocity": 64}, {"time": 1044, "pitch": 76, "duration": 6, "velocity": 64}, {"time": 1050, "pitch": 74, "duration": 6, "velocity": 64}, {"time": 1056, "pitch": 74, "duration": 12, "velocity": 64}, {"time": 1068, "pitch": 79, "duration": 12, "velocity": 64}, {"time": 1080, "pitch": 74, "duration": 12, "velocity": 64}, {"time": 1092, "pitch": 76, "duration": 12, "velocity": 64}, {"time": 1104, "pitch": 79, "duration": 6, "velocity": 64}, {"time": 1110, "pitch": 74, "duration": 6, "velocity": 64}, {"time": 1116, "pitch": 74, "duration": 6, "velocity": 64}, {"time": 1122, "pitch": 76, "duration": 6, "velocity": 64}, {"time": 1128, "pitch": 74, "duration": 12, "velocity": 64}, {"time": 1140, "pitch": 74, "duration": 12, "velocity": 64}, {"time": 1152, "pitch": 74, "duration": 12, "velocity": 64}, {"time": 1164, "pitch": 76, "duration": 12, "velocity": 64}, {"time": 1176, "pitch": 74, "duration": 12, "velocity": 64}, {"time": 1188, "pitch": 76, "duration": 6, "velocity": 64}, {"time": 1194, "pitch": 76, "duration": 6, "velocity": 64}, {"time": 1200, "pitch": 79, "duration": 12, "velocity": 64}, {"time": 1212, "pitch": 74, "duration": 12, "velocity": 64}, {"time": 1224, "pitch": 76, "duration": 12, "velocity": 64}, {"time": 1236, "pitch": 74, "duration": 12, "velocity": 64}, {"time": 1248, "pitch": 74, "duration": 12, "velocity": 64}, {"time": 1260, "pitch": 76, "duration": 6, "velocity": 64}, {"time": 1266, "pitch": 74, "duration": 6, "velocity": 64}, {"time": 1272, "pitch": 74, "duration": 24, "velocity": 64}, {"time": 1296, "pitch": 69, "duration": 6, "velocity": 64}, {"time": 1302, "pitch": 71, "duration": 6, "velocity": 64}, {"time": 1308, "pitch": 69, "duration": 12, "velocity": 64}, {"time": 1320, "pitch": 69, "duration": 12, "velocity": 64}, {"time": 1332, "pitch": 69, "duration": 6, "velocity": 64}, {"time": 1338, "pitch": 69, "duration": 6, "velocity": 64}, {"time": 1344, "pitch": 66, "duration": 12, "velocity": 64}, {"time": 1356, "pitch": 66, "duration": 12, "velocity": 64}, {"time": 1368, "pitch": 66, "duration": 6, "velocity": 64}, {"time": 1374, "pitch": 66, "duration": 6, "velocity": 64}, {"time": 1380, "pitch": 69, "duration": 12, "velocity": 64}, {"time": 1392, "pitch": 69, "duration": 12, "velocity": 64}, {"time": 1404, "pitch": 67, "duration": 18, "velocity": 64}, {"time": 1422, "pitch": 69, "duration": 6, "velocity": 64}, {"time": 1428, "pitch": 67, "duration": 12, "velocity": 64}, {"time": 1440, "pitch": 69, "duration": 12, "velocity": 64}, {"time": 1452, "pitch": 67, "duration": 12, "velocity": 64}, {"time": 1464, "pitch": 74, "duration": 6, "velocity": 64}, {"time": 1470, "pitch": 66, "duration": 6, "velocity": 64}, {"time": 1476, "pitch": 74, "duration": 12, "velocity": 64}, {"time": 1488, "pitch": 66, "duration": 12, "velocity": 64}, {"time": 1500, "pitch": 67, "duration": 12, "velocity": 64}, {"time": 1512, "pitch": 67, "duration": 12, "velocity": 64}, {"time": 1524, "pitch": 76, "duration": 12, "velocity": 64}, {"time": 1536, "pitch": 74, "duration": 36, "velocity": 64}, {"time": 1572, "pitch": 76, "duration": 6, "velocity": 64}, {"time": 1578, "pitch": 74, "duration": 6, "velocity": 64}, {"time": 1584, "pitch": 74, "duration": 12, "velocity": 64}, {"time": 1596, "pitch": 74, "duration": 12, "velocity": 64}, {"time": 1608, "pitch": 74, "duration": 12, "velocity": 64}, {"time": 1620, "pitch": 76, "duration": 12, "velocity": 64}, {"time": 1632, "pitch": 69, "duration": 6, "velocity": 64}, {"time": 1638, "pitch": 71, "duration": 6, "velocity": 64}, {"time": 1644, "pitch": 69, "duration": 12, "velocity": 64}, {"time": 1656, "pitch": 69, "duration": 12, "velocity": 64}, {"time": 1668, "pitch": 74, "duration": 6, "velocity": 64}, {"time": 1674, "pitch": 76, "duration": 6, "velocity": 64}, {"time": 1680, "pitch": 64, "duration": 12, "velocity": 64}, {"time": 1692, "pitch": 62, "duration": 12, "velocity": 64}, {"time": 1704, "pitch": 69, "duration": 12, "velocity": 64}, {"time": 1716, "pitch": 71, "duration": 12, "velocity": 64}, {"time": 1728, "pitch": 69, "duration": 6, "velocity": 64}, {"time": 1734, "pitch": 71, "duration": 6, "velocity": 64}, {"time": 1740, "pitch": 69, "duration": 12, "velocity": 64}, {"time": 1752, "pitch": 64, "duration": 24, "velocity": 64}, {"time": 1776, "pitch": 62, "duration": 36, "velocity": 64}, {"time": 1872, "pitch": 74, "duration": 12, "velocity": 64}, {"time": 1884, "pitch": 74, "duration": 6, "velocity": 64}, {"time": 1890, "pitch": 74, "duration": 6, "velocity": 64}, {"time": 1896, "pitch": 79, "duration": 24, "velocity": 64}, {"time": 1920, "pitch": 76, "duration": 12, "velocity": 64}, {"time": 1932, "pitch": 76, "duration": 12, "velocity": 64}, {"time": 1944, "pitch": 74, "duration": 6, "velocity": 64}, {"time": 1950, "pitch": 76, "duration": 6, "velocity": 64}, {"time": 1956, "pitch": 74, "duration": 6, "velocity": 64}, {"time": 1962, "pitch": 74, "duration": 6, "velocity": 64}, {"time": 1968, "pitch": 74, "duration": 12, "velocity": 64}, {"time": 1980, "pitch": 69, "duration": 6, "velocity": 64}, {"time": 1986, "pitch": 69, "duration": 6, "velocity": 64}, {"time": 1992, "pitch": 74, "duration": 12, "velocity": 64}, {"time": 2004, "pitch": 74, "duration": 12, "velocity": 64}, {"time": 2016, "pitch": 79, "duration": 24, "velocity": 64}, {"time": 2040, "pitch": 76, "duration": 12, "velocity": 64}, {"time": 2052, "pitch": 76, "duration": 6, "velocity": 64}, {"time": 2058, "pitch": 74, "duration": 6, "velocity": 64}, {"time": 2064, "pitch": 74, "duration": 12, "velocity": 64}, {"time": 2076, "pitch": 76, "duration": 12, "velocity": 64}, {"time": 2088, "pitch": 76, "duration": 6, "velocity": 64}, {"time": 2094, "pitch": 74, "duration": 6, "velocity": 64}, {"time": 2124, "pitch": 74, "duration": 12, "velocity": 64}, {"time": 2136, "pitch": 76, "duration": 6, "velocity": 64}, {"time": 2142, "pitch": 74, "duration": 6, "velocity": 64}, {"time": 2148, "pitch": 74, "duration": 24, "velocity": 64}, {"time": 2172, "pitch": 69, "duration": 6, "velocity": 64}, {"time": 2178, "pitch": 71, "duration": 6, "velocity": 64}, {"time": 2184, "pitch": 69, "duration": 12, "velocity": 64}, {"time": 2196, "pitch": 69, "duration": 6, "velocity": 64}, {"time": 2202, "pitch": 67, "duration": 6, "velocity": 64}, {"time": 2208, "pitch": 62, "duration": 12, "velocity": 64}, {"time": 2220, "pitch": 74, "duration": 18, "velocity": 64}, {"time": 2238, "pitch": 65, "duration": 6, "velocity": 64}, {"time": 2244, "pitch": 67, "duration": 12, "velocity": 64}, {"time": 2256, "pitch": 66, "duration": 12, "velocity": 64}, {"time": 2268, "pitch": 74, "duration": 18, "velocity": 64}, {"time": 2286, "pitch": 65, "duration": 6, "velocity": 64}, {"time": 2292, "pitch": 67, "duration": 12, "velocity": 64}, {"time": 2304, "pitch": 66, "duration": 12, "velocity": 64}, {"time": 2316, "pitch": 69, "duration": 6, "velocity": 64}, {"time": 2322, "pitch": 69, "duration": 6, "velocity": 64}, {"time": 2328, "pitch": 69, "duration": 6, "velocity": 64}, {"time": 2334, "pitch": 69, "duration": 6, "velocity": 64}, {"time": 2340, "pitch": 67, "duration": 12, "velocity": 64}, {"time": 2352, "pitch": 64, "duration": 6, "velocity": 64}, {"time": 2358, "pitch": 62, "duration": 6, "velocity": 64}, {"time": 2364, "pitch": 67, "duration": 12, "velocity": 64}, {"time": 2376, "pitch": 69, "duration": 12, "velocity": 64}, {"time": 2388, "pitch": 74, "duration": 12, "velocity": 64}, {"time": 2400, "pitch": 69, "duration": 6, "velocity": 64}, {"time": 2406, "pitch": 69, "duration": 6, "velocity": 64}, {"time": 2412, "pitch": 64, "duration": 24, "velocity": 64}, {"time": 2436, "pitch": 62, "duration": 48, "velocity": 64}, {"time": 2484, "pitch": 74, "duration": 12, "velocity": 64}, {"time": 2496, "pitch": 76, "duration": 6, "velocity": 64}, {"time": 2502, "pitch": 74, "duration": 6, "velocity": 64}, {"time": 2508, "pitch": 73, "duration": 12, "velocity": 64}, {"time": 2520, "pitch": 74, "duration": 12, "velocity": 64}, {"time": 2532, "pitch": 79, "duration": 12, "velocity": 64}, {"time": 2544, "pitch": 76, "duration": 12, "velocity": 64}, {"time": 2556, "pitch": 76, "duration": 6, "velocity": 64}, {"time": 2562, "pitch": 74, "duration": 6, "velocity": 64}, {"time": 2568, "pitch": 73, "duration": 18, "velocity": 64}, {"time": 2586, "pitch": 72, "duration": 6, "velocity": 64}, {"time": 2592, "pitch": 74, "duration": 12, "velocity": 64}, {"time": 2604, "pitch": 76, "duration": 12, "velocity": 64}, {"time": 2616, "pitch": 76, "duration": 12, "velocity": 64}, {"time": 2628, "pitch": 76, "duration": 12, "velocity": 64}, {"time": 2640, "pitch": 72, "duration": 12, "velocity": 64}, {"time": 2652, "pitch": 74, "duration": 12, "velocity": 64}, {"time": 2664, "pitch": 73, "duration": 6, "velocity": 64}, {"time": 2670, "pitch": 72, "duration": 6, "velocity": 64}, {"time": 2676, "pitch": 76, "duration": 12, "velocity": 64}, {"time": 2688, "pitch": 76, "duration": 12, "velocity": 64}, {"time": 2700, "pitch": 79, "duration": 12, "velocity": 64}, {"time": 2712, "pitch": 73, "duration": 12, "velocity": 64}, {"time": 2724, "pitch": 76, "duration": 12, "velocity": 64}, {"time": 2736, "pitch": 72, "duration": 12, "velocity": 64}, {"time": 2748, "pitch": 74, "duration": 12, "velocity": 64}, {"time": 2760, "pitch": 76, "duration": 6, "velocity": 64}, {"time": 2766, "pitch": 74, "duration": 6, "velocity": 64}, {"time": 2772, "pitch": 72, "duration": 18, "velocity": 64}, {"time": 2790, "pitch": 76, "duration": 6, "velocity": 64}, {"time": 2796, "pitch": 72, "duration": 12, "velocity": 64}, {"time": 2808, "pitch": 72, "duration": 12, "velocity": 64}, {"time": 2820, "pitch": 74, "duration": 12, "velocity": 64}, {"time": 2832, "pitch": 76, "duration": 6, "velocity": 64}, {"time": 2838, "pitch": 76, "duration": 6, "velocity": 64}, {"time": 2844, "pitch": 73, "duration": 12, "velocity": 64}, {"time": 2856, "pitch": 72, "duration": 12, "velocity": 64}, {"time": 2868, "pitch": 74, "duration": 12, "velocity": 64}, {"time": 2880, "pitch": 76, "duration": 12, "velocity": 64}, {"time": 2892, "pitch": 76, "duration": 12, "velocity": 64}, {"time": 2904, "pitch": 73, "duration": 12, "velocity": 64}, {"time": 2916, "pitch": 79, "duration": 12, "velocity": 64}, {"time": 2928, "pitch": 76, "duration": 12, "velocity": 64}, {"time": 2940, "pitch": 74, "duration": 36, "velocity": 64}, {"time": 2976, "pitch": 79, "duration": 3, "velocity": 64}, {"time": 2979, "pitch": 74, "duration": 3, "velocity": 64}, {"time": 2982, "pitch": 79, "duration": 3, "velocity": 64}, {"time": 2985, "pitch": 74, "duration": 3, "velocity": 64}, {"time": 2988, "pitch": 74, "duration": 12, "velocity": 64}, {"time": 3000, "pitch": 76, "duration": 6, "velocity": 64}, {"time": 3006, "pitch": 74, "duration": 6, "velocity": 64}, {"time": 3012, "pitch": 74, "duration": 24, "velocity": 64}, {"time": 3036, "pitch": 69, "duration": 6, "velocity": 64}, {"time": 3042, "pitch": 71, "duration": 6, "velocity": 64}, {"time": 3048, "pitch": 69, "duration": 12, "velocity": 64}, {"time": 3060, "pitch": 69, "duration": 12, "velocity": 64}, {"time": 3072, "pitch": 69, "duration": 6, "velocity": 64}, {"time": 3078, "pitch": 69, "duration": 6, "velocity": 64}, {"time": 3084, "pitch": 71, "duration": 12, "velocity": 64}, {"time": 3096, "pitch": 69, "duration": 12, "velocity": 64}, {"time": 3108, "pitch": 69, "duration": 6, "velocity": 64}, {"time": 3114, "pitch": 69, "duration": 6, "velocity": 64}, {"time": 3120, "pitch": 71, "duration": 12, "velocity": 64}, {"time": 3132, "pitch": 69, "duration": 12, "velocity": 64}, {"time": 3144, "pitch": 67, "duration": 12, "velocity": 64}, {"time": 3156, "pitch": 62, "duration": 12, "velocity": 64}, {"time": 3168, "pitch": 74, "duration": 12, "velocity": 64}, {"time": 3180, "pitch": 76, "duration": 12, "velocity": 64}, {"time": 3192, "pitch": 69, "duration": 6, "velocity": 64}, {"time": 3198, "pitch": 71, "duration": 6, "velocity": 64}, {"time": 3204, "pitch": 69, "duration": 6, "velocity": 64}, {"time": 3210, "pitch": 69, "duration": 6, "velocity": 64}, {"time": 3216, "pitch": 67, "duration": 36, "velocity": 64}, {"time": 3252, "pitch": 64, "duration": 12, "velocity": 64}, {"time": 3264, "pitch": 62, "duration": 48, "velocity": 64}]}]}