{"metadata": {"schema_version": "0.1", "title": "Dao ban jiang", "source_format": "abc"}, "resolution": 24, "tempos": [{"time": 0, "qpm": 120.0}], "key_signatures": [{"time": 0, "root": 4, "mode": "major", "fifths": 4}], "time_signatures": [{"time": 0, "numerator": 2, "denominator": 4}], "beats": [{"time": 0, "is_downbeat": true}, {"time": 24, "is_downbeat": false}, {"time": 48, "is_downbeat": true}, {"time": 72, "is_downbeat": false}, {"time": 96, "is_downbeat": true}, {"time": 120, "is_downbeat": false}, {"time": 144, "is_downbeat": true}, {"time": 168, "is_downbeat": false}, {"time": 192, "is_downbeat": true}, {"time": 216, "is_downbeat": false}, {"time": 240, "is_downbeat": true}, {"time": 264, "is_downbeat": false}, {"time": 288, "is_downbeat": true}, {"time": 312, "is_downbeat": false}, {"time": 336, "is_downbeat": true}, {"time": 360, "is_downbeat": false}, {"time": 384, "is_downbeat": true}, {"time": 408, "is_downbeat": false}, {"time": 432, "is_downbeat": true}, {"time": 456, "is_downbeat": false}, {"time": 480, "is_downbeat": true}, {"time": 504, "is_downbeat": false}, {"time": 528, "is_downbeat": true}, {"time": 552, "is_downbeat": false}, {"time": 576, "is_downbeat": true}, {"time": 600, "is_downbeat": false}, {"time": 624, "is_downbeat": true}, {"time": 648, "is_downbeat": false}, {"time": 672, "is_downbeat": true}, {"time": 696, "is_downbeat": false}, {"time": 720, "is_downbeat": true}, {"time": 744, "is_downbeat": false}, {"time": 768, "is_downbeat": true}, {"time": 792, "is_downbeat": false}, {"time": 816, "is_downbeat": true}, {"time": 840, "is_downbeat": false}, {"time": 864, "is_downbeat": true}, {"time": 888, "is_downbeat": false}, {"time": 912, "is_downbeat": true}, {"time": 936, "is_downbeat": false}, {"time": 960, "is_downbeat": true}, {"time": 984, "is_downbeat": false}, {"time": 1008, "is_downbeat": true}, {"time": 1032, "is_downbeat": false}, {"time": 1056, "is_downbeat": true}, {"time": 1080, "is_downbeat": false}, {"time": 1104, "is_downbeat": true}, {"time": 1128, "is_downbeat": false}, {"time": 1152, "is_downbeat": true}, {"time": 1176, "is_downbeat": false}, {"time": 1200, "is_downbeat": true}, {"time": 1224, "is_downbeat": false}, {"time": 1248, "is_downbeat": true}, {"time": 1272, "is_downbeat": false}, {"time": 1296, "is_downbeat": true}, {"time": 1320, "is_downbeat": false}, {"time": 1344, "is_downbeat": true}, {"time": 1368, "is_downbeat": false}, {"time": 1392, "is_downbeat": true}, {"time": 1416, "is_downbeat": false}, {"time": 1440, "is_downbeat": true}, {"time": 1464, "is_downbeat": false}, {"time": 1488, "is_downbeat": true}, {"time": 1512, "is_downbeat": false}, {"time": 1536, "is_downbeat": true}, {"time": 1560, "is_downbeat": false}, {"time": 1584, "is_downbeat": true}, {"time": 1608, "is_downbeat": false}, {"time": 1632, "is_downbeat": true}, {"time": 1656, "is_downbeat": false}, {"time": 1680, "is_downbeat": true}, {"time": 1704, "is_downbeat": false}, {"time": 1728, "is_downbeat": true}, {"time": 1752, "is_downbeat": false}, {"time": 1776, "is_downbeat": true}, {"time": 1800, "is_downbeat": false}, {"time": 1824, "is_downbeat": true}, {"time": 1848, "is_downbeat": false}, {"time": 1872, "is_downbeat": true}, {"time": 1896, "is_downbeat": false}, {"time": 1920, "is_downbeat": true}, {"time": 1944, "is_downbeat": false}, {"time": 1968, "is_downbeat": true}, {"time": 1992, "is_downbeat": false}, {"time": 2016, "is_downbeat": true}, {"time": 2040, "is_downbeat": false}, {"time": 2064, "is_downbeat": true}, {"time": 2088, "is_downbeat": false}, {"time": 2112, "is_downbeat": true}, {"time": 2136, "is_downbeat": false}, {"time": 2160, "is_downbeat": true}, {"time": 2184, "is_downbeat": false}, {"time": 2208, "is_downbeat": true}, {"time": 2232, "is_downbeat": false}, {"time": 2256, "is_downbeat": true}, {"time": 2280, "is_downbeat": false}, {"time": 2304, "is_downbeat": true}, {"time": 2328, "is_downbeat": false}, {"time": 2352, "is_downbeat": true}, {"time": 2376, "is_downbeat": false}, {"time": 2400, "is_downbeat": true}, {"time": 2424, "is_downbeat": false}, {"time": 2448, "is_downbeat": true}, {"time": 2472, "is_downbeat": false}, {"time": 2496, "is_downbeat": true}, {"time": 2520, "is_downbeat": false}, {"time": 2544, "is_downbeat": true}, {"time": 2568, "is_downbeat": false}], "tracks": [{"program": 0, "is_drum": false, "notes": [{"time": 0, "pitch": 71, "duration": 18, "velocity": 64}, {"time": 18, "pitch": 73, "duration": 6, "velocity": 64}, {"time": 24, "pitch": 61, "duration": 12, "velocity": 64}, {"time": 36, "pitch": 64, "duration": 12, "velocity": 64}, {"time": 48, "pitch": 66, "duration": 48, "velocity": 64}, {"time": 96, "pitch": 71, "duration": 12, "velocity": 64}, {"time": 108, "pitch": 71, "duration": 6, "velocity": 64}, {"time": 114, "pitch": 76, "duration": 6, "velocity": 64}, {"time": 120, "pitch": 73, "duration": 12, "velocity": 64}, {"time": 132, "pitch": 68, "duration": 12, "velocity": 64}, {"time": 144, "pitch": 71, "duration": 48, "velocity": 64}, {"time": 192, "pitch": 71, "duration": 12, "velocity": 64}, {"time": 204, "pitch": 66, "duration": 12, "velocity": 64}, {"time": 216, "pitch": 71, "duration": 12, "velocity": 64}, {"time": 228, "pitch": 73, "duration": 12, "velocity": 64}, {"time": 240, "pitch": 66, "duration": 18, "velocity": 64}, {"time": 258, "pitch": 64, "duration": 6, "velocity": 64}, {"time": 264, "pitch": 61, "duration": 12, "velocity": 64}, {"time": 276, "pitch": 59, "duration": 12, "velocity": 64}, {"time": 288, "pitch": 64, "duration": 24, "velocity": 64}, {"time": 312, "pitch": 64, "duration": 24, "velocity": 64}, {"time": 336, "pitch": 71, "duration": 18, "velocity": 64}, {"time": 354, "pitch": 66, "duration": 6, "velocity": 64}, {"time": 360, "pitch": 71, "duration": 12, "velocity": 64}, {"time": 372, "pitch": 73, "duration": 12, "velocity": 64}, {"time": 384, "pitch": 66, "duration": 12, "velocity": 64}, {"time": 396, "pitch": 66, "duration": 24, "velocity": 64}, {"time": 420, "pitch": 64, "duration": 12, "velocity": 64}, {"time": 432, "pitch": 66, "duration": 24, "velocity": 64}, {"time": 480, "pitch": 66, "duration": 24, "velocity": 64}, {"time": 504, "pitch": 71, "duration": 12, "velocity": 64}, {"time": 516, "pitch": 73, "duration": 12, "velocity": 64}, {"time": 528, "pitch": 71, "duration": 12, "velocity": 64}, {"time": 540, "pitch": 73, "duration": 12, "velocity": 64}, {"time": 552, "pitch": 68, "duration": 12, "velocity": 64}, {"time": 564, "pitch": 66, "duration": 12, "velocity": 64}, {"time": 576, "pitch": 68, "duration": 12, "velocity": 64}, {"time": 588, "pitch": 68, "duration": 6, "velocity": 64}, {"time": 594, "pitch": 71, "duration": 6, "velocity": 64}, {"time": 600, "pitch": 68, "duration": 12, "velocity": 64}, {"time": 612, "pitch": 66, "duration": 12, "velocity": 64}, {"time": 624, "pitch": 64, "duration": 48, "velocity": 64}, {"time": 672, "pitch": 71, "duration": 12, "velocity": 64}, {"time": 684, "pitch": 66, "duration": 12, "velocity": 64}, {"time": 696, "pitch": 71, "duration": 12, "velocity": 64}, {"time": 708, "pitch": 73, "duration": 12, "velocity": 64}, {"time": 720, "pitch": 66, "duration": 18, "velocity": 64}, {"time": 738, "pitch": 68, "duration": 6, "velocity": 64}, {"time": 744, "pitch": 66, "duration": 12, "velocity": 64}, {"time": 756, "pitch": 64, "duration": 12, "velocity": 64}, {"time": 768, "pitch": 61, "duration": 36, "velocity": 64}, {"time": 804, "pitch": 68, "duration": 12, "velocity": 64}, {"time": 816, "pitch": 66, "duration": 18, "velocity": 64}, {"time": 834, "pitch": 68, "duration": 6, "velocity": 64}, {"time": 840, "pitch": 64, "duration": 12, "velocity": 64}, {"time": 852, "pitch": 61, "duration": 12, "velocity": 64}, {"time": 864, "pitch": 59, "duration": 36, "velocity": 64}, {"time": 900, "pitch": 61, "duration": 12, "velocity": 64}, {"time": 912, "pitch": 59, "duration": 48, "velocity": 64}, {"time": 960, "pitch": 71, "duration": 12, "velocity": 64}, {"time": 972, "pitch": 61, "duration": 24, "velocity": 64}, {"time": 996, "pitch": 64, "duration": 12, "velocity": 64}, {"time": 1008, "pitch": 66, "duration": 48, "velocity": 64}, {"time": 1056, "pitch": 71, "duration": 12, "velocity": 64}, {"time": 1068, "pitch": 71, "duration": 6, "velocity": 64}, {"time": 1074, "pitch": 76, "duration": 6, "velocity": 64}, {"time": 1080, "pitch": 73, "duration": 12, "velocity": 64}, {"time": 1092, "pitch": 71, "duration": 6, "velocity": 64}, {"time": 1098, "pitch": 68, "duration": 6, "velocity": 64}, {"time": 1104, "pitch": 71, "duration": 48, "velocity": 64}, {"time": 1152, "pitch": 71, "duration": 12, "velocity": 64}, {"time": 1164, "pitch": 66, "duration": 12, "velocity": 64}, {"time": 1176, "pitch": 71, "duration": 12, "velocity": 64}, {"time": 1188, "pitch": 73, "duration": 12, "velocity": 64}, {"time": 1200, "pitch": 66, "duration": 18, "velocity": 64}, {"time": 1218, "pitch": 64, "duration": 6, "velocity": 64}, {"time": 1224, "pitch": 61, "duration": 12, "velocity": 64}, {"time": 1236, "pitch": 59, "duration": 12, "velocity": 64}, {"time": 1248, "pitch": 68, "duration": 24, "velocity": 64}, {"time": 1272, "pitch": 61, "duration": 12, "velocity": 64}, {"time": 1284, "pitch": 64, "duration": 12, "velocity": 64}, {"time": 1296, "pitch": 59, "duration": 24, "velocity": 64}, {"time": 1320, "pitch": 59, "duration": 12, "velocity": 64}, {"time": 1332, "pitch": 61, "duration": 12, "velocity": 64}, {"time": 1344, "pitch": 71, "duration": 12, "velocity": 64}, {"time": 1356, "pitch": 76, "duration": 12, "velocity": 64}, {"time": 1368, "pitch": 73, "duration": 12, "velocity": 64}, {"time": 1380, "pitch": 68, "duration": 12, "velocity": 64}, {"time": 1392, "pitch": 71, "duration": 48, "velocity": 64}, {"time": 1440, "pitch": 71, "duration": 12, "velocity": 64}, {"time": 1452, "pitch": 66, "duration": 12, "velocity": 64}, {"time": 1464, "pitch": 71, "duration": 12, "velocity": 64}, {"time": 1476, "pitch": 73, "duration": 12, "velocity": 64}, {"time": 1488, "pitch": 66, "duration": 18, "velocity": 64}, {"time": 1506, "pitch": 68, "duration": 6, "velocity": 64}, {"time": 1512, "pitch": 61, "duration": 12, "velocity": 64}, {"time": 1524, "pitch": 59, "duration": 12, "velocity": 64}, {"time": 1536, "pitch": 64, "duration": 48, "velocity": 64}, {"time": 1584, "pitch": 71, "duration": 18, "velocity": 64}, {"time": 1602, "pitch": 66, "duration": 6, "velocity": 64}, {"time": 1608, "pitch": 68, "duration": 12, "velocity": 64}, {"time": 1620, "pitch": 71, "duration": 12, "velocity": 64}, {"time": 1632, "pitch": 66, "duration": 12, "velocity": 64}, {"time": 1644, "pitch": 66, "duration": 24, "velocity": 64}, {"time": 1668, "pitch": 64, "duration": 12, "velocity": 64}, {"time": 1680, "pitch": 66, "duration": 48, "velocity": 64}, {"time": 1728, "pitch": 71, "duration": 12, "velocity": 64}, {"time": 1740, "pitch": 61, "duration": 12, "velocity": 64}, {"time": 1752, "pitch": 61, "duration": 12, "velocity": 64}, {"time": 1764, "pitch": 66, "duration": 12, "velocity": 64}, {"time": 1776, "pitch": 61, "duration": 12, "velocity": 64}, {"time": 1788, "pitch": 64, "duration": 12, "velocity": 64}, {"time": 1800, "pitch": 59, "duration": 12, "velocity": 64}, {"time": 1812, "pitch": 61, "duration": 12, "velocity": 64}, {"time": 1824, "pitch": 64, "duration": 36, "velocity": 64}, {"time": 1860, "pitch": 66, "duration": 12, "velocity": 64}, {"time": 1872, "pitch": 64, "duration": 48, "velocity": 64}, {"time": 1920, "pitch": 61, "duration": 12, "velocity": 64}, {"time": 1932, "pitch": 61, "duration": 24, "velocity": 64}, {"time": 1956, "pitch": 64, "duration": 12, "velocity": 64}, {"time": 1968, "pitch": 61, "duration": 12, "velocity": 64}, {"time": 1980, "pitch": 64, "duration": 12, "velocity": 64}, {"time": 1992, "pitch": 59, "duration": 12, "velocity": 64}, {"time": 2004, "pitch": 61, "duration": 12, "velocity": 64}, {"time": 2016, "pitch": 64, "duration": 36, "velocity": 64}, {"time": 2052, "pitch": 66, "duration": 12, "velocity": 64}, {"time": 2064, "pitch": 64, "duration": 48, "velocity": 64}, {"time": 2112, "pitch": 68, "duration": 24, "velocity": 64}, {"time": 2136, "pitch": 71, "duration": 12, "velocity": 64}, {"time": 2148, "pitch": 75, "duration": 12, "velocity": 64}, {"time": 2160, "pitch": 73, "duration": 24, "velocity": 64}, {"time": 2184, "pitch": 71, "duration": 12, "velocity": 64}, {"time": 2196, "pitch": 66, "duration": 12, "velocity": 64}, {"time": 2208, "pitch": 68, "duration": 12, "velocity": 64}, {"time": 2220, "pitch": 69, "duration": 12, "velocity": 64}, {"time": 2232, "pitch": 68, "duration": 12, "velocity": 64}, {"time": 2244, "pitch": 66, "duration": 12, "velocity": 64}, {"time": 2256, "pitch": 64, "duration": 24, "velocity": 64}, {"time": 2304, "pitch": 64, "duration": 18, "velocity": 64}, {"time": 2322, "pitch": 61, "duration": 6, "velocity": 64}, {"time": 2328, "pitch": 68, "duration": 12, "velocity": 64}, {"time": 2340, "pitch": 71, "duration": 12, "velocity": 64}, {"time": 2352, "pitch": 66, "duration": 18, "velocity": 64}, {"time": 2370, "pitch": 68, "duration": 6, "velocity": 64}, {"time": 2376, "pitch": 66, "duration": 12, "velocity": 64}, {"time": 2388, "pitch": 64, "duration": 12, "velocity": 64}, {"time": 2400, "pitch": 61, "duration": 36, "velocity": 64}, {"time": 2436, "pitch": 68, "duration": 12, "velocity": 64}, {"time": 2448, "pitch": 66, "duration": 18, "velocity": 64}, {"time": 2466, "pitch": 68, "duration": 6, "velocity": 64}, {"time": 2472, "pitch": 64, "duration": 12, "velocity": 64}, {"time": 2484, "pitch": 61, "duration": 12, "velocity": 64}, {"time": 2496, "pitch": 59, "duration": 36, "velocity": 64}, {"time": 2532, "pitch": 61, "duration": 12, "velocity": 64}, {"time": 2544, "pitch": 59, "duration": 48, "velocity": 64}]}]}