{"metadata": {"schema_version": "0.1", "title": "Da shuang mawozi songgei ni", "source_format": "abc"}, "resolution": 24, "tempos": [{"time": 0, "qpm": 120.0}], "key_signatures": [{"time": 0, "root": 2, "mode": "major", "fifths": 2}], "time_signatures": [{"time": 0, "numerator": 4, "denominator": 4}, {"time": 432, "numerator": 1, "denominator": 4}, {"time": 456, "numerator": 2, "denominator": 4}], "beats": [{"time": 0, "is_downbeat": true}, {"time": 24, "is_downbeat": true}, {"time": 48, "is_downbeat": true}, {"time": 72, "is_downbeat": true}, {"time": 96, "is_downbeat": true}, {"time": 120, "is_downbeat": true}, {"time": 144, "is_downbeat": true}, {"time": 168, "is_downbeat": true}, {"time": 192, "is_downbeat": true}, {"time": 216, "is_downbeat": true}, {"time": 240, "is_downbeat": true}, {"time": 264, "is_downbeat": true}, {"time": 288, "is_downbeat": true}, {"time": 312, "is_downbeat": true}, {"time": 336, "is_downbeat": true}, {"time": 360, "is_downbeat": true}, {"time": 384, "is_downbeat": true}, {"time": 408, "is_downbeat": true}, {"time": 432, "is_downbeat": true}, {"time": 456, "is_downbeat": true}, {"time": 480, "is_downbeat": false}, {"time": 504, "is_downbeat": true}, {"time": 528, "is_downbeat": false}, {"time": 552, "is_downbeat": true}, {"time": 576, "is_downbeat": false}, {"time": 600, "is_downbeat": true}, {"time": 624, "is_downbeat": false}, {"time": 648, "is_downbeat": true}, {"time": 672, "is_downbeat": false}, {"time": 696, "is_downbeat": true}, {"time": 720, "is_downbeat": false}, {"time": 744, "is_downbeat": true}, {"time": 768, "is_downbeat": false}, {"time": 792, "is_downbeat": true}, {"time": 816, "is_downbeat": false}, {"time": 840, "is_downbeat": true}, {"time": 864, "is_downbeat": false}, {"time": 888, "is_downbeat": true}, {"time": 912, "is_downbeat": false}, {"time": 936, "is_downbeat": true}, {"time": 960, "is_downbeat": false}, {"time": 984, "is_downbeat": true}, {"time": 1008, "is_downbeat": false}, {"time": 1032, "is_downbeat": true}, {"time": 1056, "is_downbeat": false}, {"time": 1080, "is_downbeat": true}, {"time": 1104, "is_downbeat": false}, {"time": 1128, "is_downbeat": true}, {"time": 1152, "is_downbeat": false}, {"time": 1176, "is_downbeat": true}, {"time": 1200, "is_downbeat": false}, {"time": 1224, "is_downbeat": true}, {"time": 1248, "is_downbeat": false}, {"time": 1272, "is_downbeat": true}, {"time": 1296, "is_downbeat": false}, {"time": 1320, "is_downbeat": true}, {"time": 1344, "is_downbeat": false}, {"time": 1368, "is_downbeat": true}, {"time": 1392, "is_downbeat": false}, {"time": 1416, "is_downbeat": true}, {"time": 1440, "is_downbeat": false}, {"time": 1464, "is_downbeat": true}, {"time": 1488, "is_downbeat": false}, {"time": 1512, "is_downbeat": true}, {"time": 1536, "is_downbeat": false}], "tracks": [{"program": 0, "is_drum": false, "notes": [{"time": 0, "pitch": 66, "duration": 12, "velocity": 64}, {"time": 12, "pitch": 74, "duration": 12, "velocity": 64}, {"time": 24, "pitch": 66, "duration": 12, "velocity": 64}, {"time": 36, "pitch": 74, "duration": 9, "velocity": 64}, {"time": 45, "pitch": 71, "duration": 3, "velocity": 64}, {"time": 48, "pitch": 71, "duration": 12, "velocity": 64}, {"time": 60, "pitch": 71, "duration": 6, "velocity": 64}, {"time": 66, "pitch": 71, "duration": 6, "velocity": 64}, {"time": 72, "pitch": 74, "duration": 24, "velocity": 64}, {"time": 96, "pitch": 71, "duration": 12, "velocity": 64}, {"time": 108, "pitch": 76, "duration": 12, "velocity": 64}, {"time": 120, "pitch": 71, "duration": 12, "velocity": 64}, {"time": 132, "pitch": 74, "duration": 12, "velocity": 64}, {"time": 144, "pitch": 71, "duration": 12, "velocity": 64}, {"time": 156, "pitch": 71, "duration": 6, "velocity": 64}, {"time": 162, "pitch": 74, "duration": 6, "velocity": 64}, {"time": 168, "pitch": 71, "duration": 18, "velocity": 64}, {"time": 186, "pitch": 71, "duration": 6, "velocity": 64}, {"time": 192, "pitch": 74, "duration": 18, "velocity": 64}, {"time": 210, "pitch": 74, "duration": 6, "velocity": 64}, {"time": 216, "pitch": 66, "duration": 12, "velocity": 64}, {"time": 228, "pitch": 74, "duration": 6, "velocity": 64}, {"time": 234, "pitch": 71, "duration": 6, "velocity": 64}, {"time": 240, "pitch": 69, "duration": 12, "velocity": 64}, {"time": 252, "pitch": 71, "duration": 6, "velocity": 64}, {"time": 258, "pitch": 71, "duration": 6, "velocity": 64}, {"time": 264, "pitch": 69, "duration": 12, "velocity": 64}, {"time": 276, "pitch": 71, "duration": 6, "velocity": 64}, {"time": 282, "pitch": 71, "duration": 6, "velocity": 64}, {"time": 288, "pitch": 66, "duration": 12, "velocity": 64}, {"time": 300, "pitch": 74, "duration": 12, "velocity": 64}, {"time": 312, "pitch": 66, "duration": 12, "velocity": 64}, {"time": 324, "pitch": 69, "duration": 12, "velocity": 64}, {"time": 336, "pitch": 69, "duration": 12, "velocity": 64}, {"time": 348, "pitch": 74, "duration": 12, "velocity": 64}, {"time": 360, "pitch": 71, "duration": 24, "velocity": 64}, {"time": 384, "pitch": 71, "duration": 12, "velocity": 64}, {"time": 396, "pitch": 76, "duration": 12, "velocity": 64}, {"time": 408, "pitch": 76, "duration": 12, "velocity": 64}, {"time": 420, "pitch": 74, "duration": 24, "velocity": 64}, {"time": 444, "pitch": 71, "duration": 6, "velocity": 64}, {"time": 450, "pitch": 71, "duration": 6, "velocity": 64}, {"time": 456, "pitch": 76, "duration": 6, "velocity": 64}, {"time": 462, "pitch": 74, "duration": 6, "velocity": 64}, {"time": 468, "pitch": 71, "duration": 12, "velocity": 64}, {"time": 480, "pitch": 71, "duration": 12, "velocity": 64}, {"time": 504, "pitch": 66, "duration": 18, "velocity": 64}, {"time": 522, "pitch": 74, "duration": 6, "velocity": 64}, {"time": 528, "pitch": 66, "duration": 12, "velocity": 64}, {"time": 540, "pitch": 74, "duration": 6, "velocity": 64}, {"time": 546, "pitch": 71, "duration": 6, "velocity": 64}, {"time": 552, "pitch": 71, "duration": 12, "velocity": 64}, {"time": 564, "pitch": 71, "duration": 6, "velocity": 64}, {"time": 570, "pitch": 71, "duration": 6, "velocity": 64}, {"time": 576, "pitch": 74, "duration": 12, "velocity": 64}, {"time": 588, "pitch": 74, "duration": 12, "velocity": 64}, {"time": 600, "pitch": 76, "duration": 12, "velocity": 64}, {"time": 612, "pitch": 74, "duration": 6, "velocity": 64}, {"time": 618, "pitch": 76, "duration": 6, "velocity": 64}, {"time": 624, "pitch": 74, "duration": 12, "velocity": 64}, {"time": 636, "pitch": 74, "duration": 6, "velocity": 64}, {"time": 642, "pitch": 71, "duration": 6, "velocity": 64}, {"time": 648, "pitch": 69, "duration": 18, "velocity": 64}, {"time": 666, "pitch": 69, "duration": 6, "velocity": 64}, {"time": 672, "pitch": 71, "duration": 18, "velocity": 64}, {"time": 690, "pitch": 71, "duration": 6, "velocity": 64}, {"time": 696, "pitch": 74, "duration": 18, "velocity": 64}, {"time": 714, "pitch": 71, "duration": 6, "velocity": 64}, {"time": 720, "pitch": 66, "duration": 12, "velocity": 64}, {"time": 732, "pitch": 74, "duration": 6, "velocity": 64}, {"time": 738, "pitch": 71, "duration": 6, "velocity": 64}, {"time": 744, "pitch": 69, "duration": 12, "velocity": 64}, {"time": 756, "pitch": 71, "duration": 6, "velocity": 64}, {"time": 762, "pitch": 71, "duration": 6, "velocity": 64}, {"time": 768, "pitch": 69, "duration": 12, "velocity": 64}, {"time": 780, "pitch": 71, "duration": 6, "velocity": 64}, {"time": 786, "pitch": 71, "duration": 6, "velocity": 64}, {"time": 792, "pitch": 66, "duration": 12, "velocity": 64}, {"time": 804, "pitch": 74, "duration": 12, "velocity": 64}, {"time": 816, "pitch": 66, "duration": 12, "velocity": 64}, {"time": 828, "pitch": 69, "duration": 12, "velocity": 64}, {"time": 840, "pitch": 74, "duration": 18, "velocity": 64}, {"time": 858, "pitch": 71, "duration": 6, "velocity": 64}, {"time": 864, "pitch": 74, "duration": 24, "velocity": 64}, {"time": 888, "pitch": 76, "duration": 12, "velocity": 64}, {"time": 900, "pitch": 74, "duration": 6, "velocity": 64}, {"time": 906, "pitch": 76, "duration": 6, "velocity": 64}, {"time": 912, "pitch": 71, "duration": 6, "velocity": 64}, {"time": 918, "pitch": 74, "duration": 6, "velocity": 64}, {"time": 924, "pitch": 71, "duration": 6, "velocity": 64}, {"time": 930, "pitch": 71, "duration": 6, "velocity": 64}, {"time": 936, "pitch": 76, "duration": 12, "velocity": 64}, {"time": 948, "pitch": 74, "duration": 6, "velocity": 64}, {"time": 954, "pitch": 71, "duration": 6, "velocity": 64}, {"time": 960, "pitch": 71, "duration": 12, "velocity": 64}, {"time": 984, "pitch": 74, "duration": 18, "velocity": 64}, {"time": 1002, "pitch": 71, "duration": 6, "velocity": 64}, {"time": 1008, "pitch": 66, "duration": 12, "velocity": 64}, {"time": 1020, "pitch": 74, "duration": 6, "velocity": 64}, {"time": 1026, "pitch": 71, "duration": 6, "velocity": 64}, {"time": 1032, "pitch": 71, "duration": 12, "velocity": 64}, {"time": 1044, "pitch": 71, "duration": 6, "velocity": 64}, {"time": 1050, "pitch": 71, "duration": 6, "velocity": 64}, {"time": 1056, "pitch": 74, "duration": 12, "velocity": 64}, {"time": 1068, "pitch": 74, "duration": 12, "velocity": 64}, {"time": 1080, "pitch": 76, "duration": 18, "velocity": 64}, {"time": 1098, "pitch": 76, "duration": 6, "velocity": 64}, {"time": 1104, "pitch": 74, "duration": 12, "velocity": 64}, {"time": 1116, "pitch": 74, "duration": 12, "velocity": 64}, {"time": 1128, "pitch": 71, "duration": 12, "velocity": 64}, {"time": 1140, "pitch": 71, "duration": 6, "velocity": 64}, {"time": 1146, "pitch": 74, "duration": 6, "velocity": 64}, {"time": 1152, "pitch": 71, "duration": 18, "velocity": 64}, {"time": 1170, "pitch": 71, "duration": 6, "velocity": 64}, {"time": 1176, "pitch": 74, "duration": 18, "velocity": 64}, {"time": 1194, "pitch": 71, "duration": 6, "velocity": 64}, {"time": 1200, "pitch": 74, "duration": 18, "velocity": 64}, {"time": 1218, "pitch": 71, "duration": 6, "velocity": 64}, {"time": 1224, "pitch": 69, "duration": 12, "velocity": 64}, {"time": 1236, "pitch": 71, "duration": 6, "velocity": 64}, {"time": 1242, "pitch": 71, "duration": 6, "velocity": 64}, {"time": 1248, "pitch": 69, "duration": 12, "velocity": 64}, {"time": 1260, "pitch": 71, "duration": 6, "velocity": 64}, {"time": 1266, "pitch": 71, "duration": 6, "velocity": 64}, {"time": 1272, "pitch": 66, "duration": 18, "velocity": 64}, {"time": 1290, "pitch": 74, "duration": 6, "velocity": 64}, {"time": 1296, "pitch": 66, "duration": 12, "velocity": 64}, {"time": 1308, "pitch": 69, "duration": 12, "velocity": 64}, {"time": 1320, "pitch": 74, "duration": 12, "velocity": 64}, {"time": 1332, "pitch": 71, "duration": 6, "velocity": 64}, {"time": 1338, "pitch": 71, "duration": 6, "velocity": 64}, {"time": 1344, "pitch": 74, "duration": 12, "velocity": 64}, {"time": 1356, "pitch": 74, "duration": 6, "velocity": 64}, {"time": 1362, "pitch": 74, "duration": 6, "velocity": 64}, {"time": 1368, "pitch": 71, "duration": 12, "velocity": 64}, {"time": 1380, "pitch": 74, "duration": 12, "velocity": 64}, {"time": 1392, "pitch": 71, "duration": 12, "velocity": 64}, {"time": 1404, "pitch": 71, "duration": 12, "velocity": 64}, {"time": 1416, "pitch": 71, "duration": 12, "velocity": 64}, {"time": 1428, "pitch": 74, "duration": 72, "velocity": 64}, {"time": 1500, "pitch": 71, "duration": 6, "velocity": 64}, {"time": 1506, "pitch": 71, "duration": 6, "velocity": 64}, {"time": 1512, "pitch": 76, "duration": 18, "velocity": 64}, {"time": 1530, "pitch": 74, "duration": 6, "velocity": 64}, {"time": 1536, "pitch": 71, "duration": 12, "velocity": 64}]}]}