{"metadata": {"schema_version": "0.1", "title": "Shichai shaohuao yanzi duo", "source_format": "abc"}, "resolution": 24, "tempos": [{"time": 0, "qpm": 120.0}], "key_signatures": [{"time": 0, "root": 9, "mode": "major", "fifths": 3}], "time_signatures": [{"time": 0, "numerator": 4, "denominator": 4}], "beats": [{"time": 0, "is_downbeat": true}, {"time": 24, "is_downbeat": false}, {"time": 48, "is_downbeat": false}, {"time": 72, "is_downbeat": true}, {"time": 96, "is_downbeat": false}, {"time": 120, "is_downbeat": false}, {"time": 144, "is_downbeat": false}, {"time": 168, "is_downbeat": true}, {"time": 192, "is_downbeat": false}, {"time": 216, "is_downbeat": false}, {"time": 240, "is_downbeat": false}, {"time": 264, "is_downbeat": true}, {"time": 288, "is_downbeat": false}, {"time": 312, "is_downbeat": false}, {"time": 336, "is_downbeat": true}, {"time": 360, "is_downbeat": false}, {"time": 384, "is_downbeat": true}, {"time": 408, "is_downbeat": false}, {"time": 432, "is_downbeat": false}, {"time": 456, "is_downbeat": false}, {"time": 480, "is_downbeat": true}, {"time": 504, "is_downbeat": false}, {"time": 528, "is_downbeat": true}, {"time": 552, "is_downbeat": false}, {"time": 576, "is_downbeat": false}, {"time": 600, "is_downbeat": false}, {"time": 624, "is_downbeat": true}, {"time": 648, "is_downbeat": true}, {"time": 672, "is_downbeat": false}, {"time": 696, "is_downbeat": false}, {"time": 720, "is_downbeat": false}, {"time": 744, "is_downbeat": true}, {"time": 768, "is_downbeat": false}, {"time": 792, "is_downbeat": false}, {"time": 816, "is_downbeat": false}, {"time": 840, "is_downbeat": true}, {"time": 864, "is_downbeat": true}, {"time": 888, "is_downbeat": false}, {"time": 912, "is_downbeat": false}, {"time": 936, "is_downbeat": false}, {"time": 960, "is_downbeat": true}, {"time": 984, "is_downbeat": false}, {"time": 1008, "is_downbeat": false}, {"time": 1032, "is_downbeat": false}, {"time": 1056, "is_downbeat": true}, {"time": 1080, "is_downbeat": true}, {"time": 1104, "is_downbeat": false}, {"time": 1128, "is_downbeat": false}, {"time": 1152, "is_downbeat": false}], "tracks": [{"program": 0, "is_drum": false, "notes": [{"time": 0, "pitch": 83, "duration": 12, "velocity": 64}, {"time": 12, "pitch": 76, "duration": 12, "velocity": 64}, {"time": 24, "pitch": 73, "duration": 48, "velocity": 64}, {"time": 72, "pitch": 83, "duration": 12, "velocity": 64}, {"time": 84, "pitch": 73, "duration": 6, "velocity": 64}, {"time": 90, "pitch": 76, "duration": 6, "velocity": 64}, {"time": 96, "pitch": 83, "duration": 36, "velocity": 64}, {"time": 132, "pitch": 78, "duration": 4, "velocity": 64}, {"time": 136, "pitch": 76, "duration": 4, "velocity": 64}, {"time": 140, "pitch": 75, "duration": 4, "velocity": 64}, {"time": 144, "pitch": 76, "duration": 36, "velocity": 64}, {"time": 192, "pitch": 73, "duration": 12, "velocity": 64}, {"time": 204, "pitch": 73, "duration": 6, "velocity": 64}, {"time": 210, "pitch": 83, "duration": 6, "velocity": 64}, {"time": 216, "pitch": 81, "duration": 12, "velocity": 64}, {"time": 228, "pitch": 83, "duration": 12, "velocity": 64}, {"time": 240, "pitch": 73, "duration": 12, "velocity": 64}, {"time": 252, "pitch": 81, "duration": 12, "velocity": 64}, {"time": 264, "pitch": 78, "duration": 24, "velocity": 64}, {"time": 288, "pitch": 83, "duration": 48, "velocity": 64}, {"time": 336, "pitch": 73, "duration": 12, "velocity": 64}, {"time": 348, "pitch": 81, "duration": 12, "velocity": 64}, {"time": 360, "pitch": 78, "duration": 6, "velocity": 64}, {"time": 366, "pitch": 73, "duration": 6, "velocity": 64}, {"time": 372, "pitch": 76, "duration": 12, "velocity": 64}, {"time": 384, "pitch": 78, "duration": 12, "velocity": 64}, {"time": 396, "pitch": 73, "duration": 12, "velocity": 64}, {"time": 408, "pitch": 71, "duration": 24, "velocity": 64}, {"time": 432, "pitch": 83, "duration": 48, "velocity": 64}, {"time": 480, "pitch": 76, "duration": 12, "velocity": 64}, {"time": 492, "pitch": 83, "duration": 12, "velocity": 64}, {"time": 504, "pitch": 73, "duration": 6, "velocity": 64}, {"time": 510, "pitch": 76, "duration": 6, "velocity": 64}, {"time": 516, "pitch": 73, "duration": 12, "velocity": 64}, {"time": 528, "pitch": 83, "duration": 48, "velocity": 64}, {"time": 576, "pitch": 83, "duration": 12, "velocity": 64}, {"time": 588, "pitch": 76, "duration": 12, "velocity": 64}, {"time": 600, "pitch": 73, "duration": 48, "velocity": 64}, {"time": 648, "pitch": 83, "duration": 12, "velocity": 64}, {"time": 660, "pitch": 73, "duration": 6, "velocity": 64}, {"time": 666, "pitch": 76, "duration": 6, "velocity": 64}, {"time": 672, "pitch": 83, "duration": 36, "velocity": 64}, {"time": 708, "pitch": 78, "duration": 4, "velocity": 64}, {"time": 712, "pitch": 76, "duration": 4, "velocity": 64}, {"time": 716, "pitch": 75, "duration": 4, "velocity": 64}, {"time": 720, "pitch": 76, "duration": 48, "velocity": 64}, {"time": 768, "pitch": 73, "duration": 12, "velocity": 64}, {"time": 780, "pitch": 73, "duration": 6, "velocity": 64}, {"time": 786, "pitch": 83, "duration": 6, "velocity": 64}, {"time": 792, "pitch": 81, "duration": 12, "velocity": 64}, {"time": 804, "pitch": 83, "duration": 12, "velocity": 64}, {"time": 816, "pitch": 73, "duration": 12, "velocity": 64}, {"time": 828, "pitch": 81, "duration": 12, "velocity": 64}, {"time": 840, "pitch": 78, "duration": 24, "velocity": 64}, {"time": 864, "pitch": 83, "duration": 12, "velocity": 64}, {"time": 876, "pitch": 83, "duration": 24, "velocity": 64}, {"time": 912, "pitch": 83, "duration": 12, "velocity": 64}, {"time": 924, "pitch": 83, "duration": 24, "velocity": 64}, {"time": 960, "pitch": 83, "duration": 24, "velocity": 64}, {"time": 984, "pitch": 76, "duration": 24, "velocity": 64}, {"time": 1008, "pitch": 83, "duration": 12, "velocity": 64}, {"time": 1020, "pitch": 73, "duration": 6, "velocity": 64}, {"time": 1026, "pitch": 76, "duration": 6, "velocity": 64}, {"time": 1032, "pitch": 83, "duration": 48, "velocity": 64}, {"time": 1080, "pitch": 78, "duration": 48, "velocity": 64}]}]}