{"metadata": {"schema_version": "0.1", "title": "Songren libie shui dongxi", "source_format": "abc"}, "resolution": 24, "tempos": [{"time": 0, "qpm": 120.0}], "key_signatures": [{"time": 0, "root": 5, "mode": "major", "fifths": -1}], "time_signatures": [{"time": 0, "numerator": 2, "denominator": 4}], "beats": [{"time": 0, "is_downbeat": true}, {"time": 24, "is_downbeat": false}, {"time": 48, "is_downbeat": true}, {"time": 72, "is_downbeat": false}, {"time": 96, "is_downbeat": true}, {"time": 120, "is_downbeat": false}, {"time": 144, "is_downbeat": true}, {"time": 168, "is_downbeat": false}, {"time": 192, "is_downbeat": true}, {"time": 216, "is_downbeat": false}, {"time": 240, "is_downbeat": true}, {"time": 264, "is_downbeat": false}, {"time": 288, "is_downbeat": true}, {"time": 312, "is_downbeat": false}, {"time": 336, "is_downbeat": true}, {"time": 360, "is_downbeat": false}, {"time": 384, "is_downbeat": true}, {"time": 408, "is_downbeat": false}, {"time": 432, "is_downbeat": true}, {"time": 456, "is_downbeat": false}, {"time": 480, "is_downbeat": true}, {"time": 504, "is_downbeat": false}, {"time": 528, "is_downbeat": true}, {"time": 552, "is_downbeat": false}, {"time": 576, "is_downbeat": true}, {"time": 600, "is_downbeat": false}, {"time": 624, "is_downbeat": true}, {"time": 648, "is_downbeat": false}, {"time": 672, "is_downbeat": true}, {"time": 696, "is_downbeat": false}, {"time": 720, "is_downbeat": true}, {"time": 744, "is_downbeat": false}, {"time": 768, "is_downbeat": true}, {"time": 792, "is_downbeat": false}, {"time": 816, "is_downbeat": true}, {"time": 840, "is_downbeat": false}, {"time": 864, "is_downbeat": true}, {"time": 888, "is_downbeat": false}, {"time": 912, "is_downbeat": true}, {"time": 936, "is_downbeat": false}, {"time": 960, "is_downbeat": true}, {"time": 984, "is_downbeat": false}, {"time": 1008, "is_downbeat": true}, {"time": 1032, "is_downbeat": false}, {"time": 1056, "is_downbeat": true}, {"time": 1080, "is_downbeat": false}, {"time": 1104, "is_downbeat": true}, {"time": 1128, "is_downbeat": false}, {"time": 1152, "is_downbeat": true}, {"time": 1176, "is_downbeat": false}, {"time": 1200, "is_downbeat": true}, {"time": 1224, "is_downbeat": false}, {"time": 1248, "is_downbeat": true}, {"time": 1272, "is_downbeat": false}, {"time": 1296, "is_downbeat": true}, {"time": 1320, "is_downbeat": false}, {"time": 1344, "is_downbeat": true}, {"time": 1368, "is_downbeat": false}, {"time": 1392, "is_downbeat": true}, {"time": 1416, "is_downbeat": false}, {"time": 1440, "is_downbeat": true}, {"time": 1464, "is_downbeat": false}, {"time": 1488, "is_downbeat": true}, {"time": 1512, "is_downbeat": false}, {"time": 1536, "is_downbeat": true}, {"time": 1560, "is_downbeat": false}, {"time": 1584, "is_downbeat": true}, {"time": 1608, "is_downbeat": false}, {"time": 1632, "is_downbeat": true}, {"time": 1656, "is_downbeat": false}, {"time": 1680, "is_downbeat": true}, {"time": 1704, "is_downbeat": false}, {"time": 1728, "is_downbeat": true}, {"time": 1752, "is_downbeat": false}, {"time": 1776, "is_downbeat": true}, {"time": 1800, "is_downbeat": false}, {"time": 1824, "is_downbeat": true}, {"time": 1848, "is_downbeat": false}, {"time": 1872, "is_downbeat": true}, {"time": 1896, "is_downbeat": false}, {"time": 1920, "is_downbeat": true}, {"time": 1944, "is_downbeat": false}, {"time": 1968, "is_downbeat": true}, {"time": 1992, "is_downbeat": false}, {"time": 2016, "is_downbeat": true}, {"time": 2040, "is_downbeat": false}, {"time": 2064, "is_downbeat": true}, {"time": 2088, "is_downbeat": false}, {"time": 2112, "is_downbeat": true}, {"time": 2136, "is_downbeat": false}, {"time": 2160, "is_downbeat": true}, {"time": 2184, "is_downbeat": false}, {"time": 2208, "is_downbeat": true}, {"time": 2232, "is_downbeat": false}, {"time": 2256, "is_downbeat": true}, {"time": 2280, "is_downbeat": false}, {"time": 2304, "is_downbeat": true}, {"time": 2328, "is_downbeat": false}, {"time": 2352, "is_downbeat": true}, {"time": 2376, "is_downbeat": false}, {"time": 2400, "is_downbeat": true}, {"time": 2424, "is_downbeat": false}, {"time": 2448, "is_downbeat": true}, {"time": 2472, "is_downbeat": false}, {"time": 2496, "is_downbeat": true}, {"time": 2520, "is_downbeat": false}, {"time": 2544, "is_downbeat": true}, {"time": 2568, "is_downbeat": false}, {"time": 2592, "is_downbeat": true}, {"time": 2616, "is_downbeat": false}, {"time": 2640, "is_downbeat": true}, {"time": 2664, "is_downbeat": false}, {"time": 2688, "is_downbeat": true}, {"time": 2712, "is_downbeat": false}, {"time": 2736, "is_downbeat": true}, {"time": 2760, "is_downbeat": false}, {"time": 2784, "is_downbeat": true}, {"time": 2808, "is_downbeat": false}, {"time": 2832, "is_downbeat": true}, {"time": 2856, "is_downbeat": false}, {"time": 2880, "is_downbeat": true}, {"time": 2904, "is_downbeat": false}, {"time": 2928, "is_downbeat": true}, {"time": 2952, "is_downbeat": false}, {"time": 2976, "is_downbeat": true}, {"time": 3000, "is_downbeat": false}, {"time": 3024, "is_downbeat": true}, {"time": 3048, "is_downbeat": false}, {"time": 3072, "is_downbeat": true}, {"time": 3096, "is_downbeat": false}, {"time": 3120, "is_downbeat": true}, {"time": 3144, "is_downbeat": false}, {"time": 3168, "is_downbeat": true}, {"time": 3192, "is_downbeat": false}, {"time": 3216, "is_downbeat": true}, {"time": 3240, "is_downbeat": false}, {"time": 3264, "is_downbeat": true}, {"time": 3288, "is_downbeat": false}, {"time": 3312, "is_downbeat": true}, {"time": 3336, "is_downbeat": false}, {"time": 3360, "is_downbeat": true}, {"time": 3384, "is_downbeat": false}, {"time": 3408, "is_downbeat": true}, {"time": 3432, "is_downbeat": false}, {"time": 3456, "is_downbeat": true}, {"time": 3480, "is_downbeat": false}, {"time": 3504, "is_downbeat": true}, {"time": 3528, "is_downbeat": false}, {"time": 3552, "is_downbeat": true}, {"time": 3576, "is_downbeat": false}, {"time": 3600, "is_downbeat": true}, {"time": 3624, "is_downbeat": false}, {"time": 3648, "is_downbeat": true}, {"time": 3672, "is_downbeat": false}, {"time": 3696, "is_downbeat": true}, {"time": 3720, "is_downbeat": false}, {"time": 3744, "is_downbeat": true}, {"time": 3768, "is_downbeat": false}, {"time": 3792, "is_downbeat": true}, {"time": 3816, "is_downbeat": false}, {"time": 3840, "is_downbeat": true}, {"time": 3864, "is_downbeat": false}, {"time": 3888, "is_downbeat": true}, {"time": 3912, "is_downbeat": false}, {"time": 3936, "is_downbeat": true}, {"time": 3960, "is_downbeat": false}, {"time": 3984, "is_downbeat": true}, {"time": 4008, "is_downbeat": false}, {"time": 4032, "is_downbeat": true}, {"time": 4056, "is_downbeat": false}, {"time": 4080, "is_downbeat": true}, {"time": 4104, "is_downbeat": false}, {"time": 4128, "is_downbeat": true}, {"time": 4152, "is_downbeat": false}, {"time": 4176, "is_downbeat": true}, {"time": 4200, "is_downbeat": false}, {"time": 4224, "is_downbeat": true}, {"time": 4248, "is_downbeat": false}, {"time": 4272, "is_downbeat": true}, {"time": 4296, "is_downbeat": false}], "tracks": [{"program": 0, "is_drum": false, "notes": [{"time": 0, "pitch": 69, "duration": 12, "velocity": 64}, {"time": 12, "pitch": 69, "duration": 36, "velocity": 64}, {"time": 48, "pitch": 67, "duration": 6, "velocity": 64}, {"time": 54, "pitch": 69, "duration": 6, "velocity": 64}, {"time": 60, "pitch": 67, "duration": 24, "velocity": 64}, {"time": 84, "pitch": 69, "duration": 12, "velocity": 64}, {"time": 96, "pitch": 67, "duration": 6, "velocity": 64}, {"time": 102, "pitch": 69, "duration": 6, "velocity": 64}, {"time": 108, "pitch": 67, "duration": 6, "velocity": 64}, {"time": 114, "pitch": 65, "duration": 6, "velocity": 64}, {"time": 120, "pitch": 62, "duration": 24, "velocity": 64}, {"time": 144, "pitch": 62, "duration": 6, "velocity": 64}, {"time": 150, "pitch": 65, "duration": 6, "velocity": 64}, {"time": 156, "pitch": 67, "duration": 24, "velocity": 64}, {"time": 180, "pitch": 69, "duration": 6, "velocity": 64}, {"time": 186, "pitch": 69, "duration": 6, "velocity": 64}, {"time": 192, "pitch": 67, "duration": 6, "velocity": 64}, {"time": 198, "pitch": 65, "duration": 6, "velocity": 64}, {"time": 204, "pitch": 74, "duration": 3, "velocity": 64}, {"time": 207, "pitch": 65, "duration": 3, "velocity": 64}, {"time": 210, "pitch": 69, "duration": 30, "velocity": 64}, {"time": 240, "pitch": 67, "duration": 6, "velocity": 64}, {"time": 246, "pitch": 69, "duration": 6, "velocity": 64}, {"time": 252, "pitch": 67, "duration": 6, "velocity": 64}, {"time": 258, "pitch": 65, "duration": 6, "velocity": 64}, {"time": 264, "pitch": 62, "duration": 24, "velocity": 64}, {"time": 288, "pitch": 67, "duration": 36, "velocity": 64}, {"time": 324, "pitch": 67, "duration": 6, "velocity": 64}, {"time": 330, "pitch": 65, "duration": 6, "velocity": 64}, {"time": 336, "pitch": 62, "duration": 12, "velocity": 64}, {"time": 348, "pitch": 65, "duration": 36, "velocity": 64}, {"time": 384, "pitch": 62, "duration": 24, "velocity": 64}, {"time": 432, "pitch": 62, "duration": 12, "velocity": 64}, {"time": 444, "pitch": 62, "duration": 36, "velocity": 64}, {"time": 480, "pitch": 65, "duration": 12, "velocity": 64}, {"time": 492, "pitch": 67, "duration": 24, "velocity": 64}, {"time": 516, "pitch": 69, "duration": 6, "velocity": 64}, {"time": 522, "pitch": 69, "duration": 6, "velocity": 64}, {"time": 528, "pitch": 69, "duration": 12, "velocity": 64}, {"time": 540, "pitch": 69, "duration": 12, "velocity": 64}, {"time": 552, "pitch": 67, "duration": 24, "velocity": 64}, {"time": 576, "pitch": 62, "duration": 12, "velocity": 64}, {"time": 588, "pitch": 65, "duration": 36, "velocity": 64}, {"time": 624, "pitch": 67, "duration": 12, "velocity": 64}, {"time": 636, "pitch": 62, "duration": 36, "velocity": 64}, {"time": 672, "pitch": 62, "duration": 12, "velocity": 64}, {"time": 684, "pitch": 62, "duration": 12, "velocity": 64}, {"time": 696, "pitch": 67, "duration": 12, "velocity": 64}, {"time": 708, "pitch": 69, "duration": 6, "velocity": 64}, {"time": 714, "pitch": 69, "duration": 6, "velocity": 64}, {"time": 720, "pitch": 67, "duration": 36, "velocity": 64}, {"time": 756, "pitch": 67, "duration": 6, "velocity": 64}, {"time": 762, "pitch": 65, "duration": 6, "velocity": 64}, {"time": 768, "pitch": 62, "duration": 12, "velocity": 64}, {"time": 780, "pitch": 62, "duration": 36, "velocity": 64}, {"time": 816, "pitch": 62, "duration": 24, "velocity": 64}, {"time": 864, "pitch": 69, "duration": 12, "velocity": 64}, {"time": 876, "pitch": 69, "duration": 36, "velocity": 64}, {"time": 912, "pitch": 67, "duration": 6, "velocity": 64}, {"time": 918, "pitch": 69, "duration": 6, "velocity": 64}, {"time": 924, "pitch": 67, "duration": 24, "velocity": 64}, {"time": 948, "pitch": 69, "duration": 6, "velocity": 64}, {"time": 954, "pitch": 69, "duration": 6, "velocity": 64}, {"time": 960, "pitch": 67, "duration": 6, "velocity": 64}, {"time": 966, "pitch": 69, "duration": 6, "velocity": 64}, {"time": 972, "pitch": 67, "duration": 6, "velocity": 64}, {"time": 978, "pitch": 65, "duration": 6, "velocity": 64}, {"time": 984, "pitch": 62, "duration": 24, "velocity": 64}, {"time": 1008, "pitch": 62, "duration": 6, "velocity": 64}, {"time": 1014, "pitch": 65, "duration": 6, "velocity": 64}, {"time": 1020, "pitch": 67, "duration": 24, "velocity": 64}, {"time": 1044, "pitch": 69, "duration": 6, "velocity": 64}, {"time": 1050, "pitch": 69, "duration": 6, "velocity": 64}, {"time": 1056, "pitch": 69, "duration": 12, "velocity": 64}, {"time": 1068, "pitch": 69, "duration": 24, "velocity": 64}, {"time": 1092, "pitch": 67, "duration": 6, "velocity": 64}, {"time": 1098, "pitch": 65, "duration": 6, "velocity": 64}, {"time": 1104, "pitch": 62, "duration": 12, "velocity": 64}, {"time": 1116, "pitch": 62, "duration": 12, "velocity": 64}, {"time": 1128, "pitch": 62, "duration": 24, "velocity": 64}, {"time": 1152, "pitch": 67, "duration": 36, "velocity": 64}, {"time": 1188, "pitch": 67, "duration": 6, "velocity": 64}, {"time": 1194, "pitch": 65, "duration": 6, "velocity": 64}, {"time": 1200, "pitch": 62, "duration": 12, "velocity": 64}, {"time": 1212, "pitch": 65, "duration": 36, "velocity": 64}, {"time": 1248, "pitch": 62, "duration": 24, "velocity": 64}, {"time": 1296, "pitch": 62, "duration": 12, "velocity": 64}, {"time": 1308, "pitch": 62, "duration": 36, "velocity": 64}, {"time": 1344, "pitch": 65, "duration": 12, "velocity": 64}, {"time": 1356, "pitch": 67, "duration": 24, "velocity": 64}, {"time": 1380, "pitch": 69, "duration": 6, "velocity": 64}, {"time": 1386, "pitch": 69, "duration": 6, "velocity": 64}, {"time": 1392, "pitch": 62, "duration": 12, "velocity": 64}, {"time": 1404, "pitch": 62, "duration": 12, "velocity": 64}, {"time": 1416, "pitch": 62, "duration": 24, "velocity": 64}, {"time": 1440, "pitch": 62, "duration": 12, "velocity": 64}, {"time": 1452, "pitch": 65, "duration": 36, "velocity": 64}, {"time": 1488, "pitch": 67, "duration": 12, "velocity": 64}, {"time": 1500, "pitch": 62, "duration": 36, "velocity": 64}, {"time": 1536, "pitch": 65, "duration": 12, "velocity": 64}, {"time": 1548, "pitch": 62, "duration": 12, "velocity": 64}, {"time": 1560, "pitch": 67, "duration": 12, "velocity": 64}, {"time": 1572, "pitch": 69, "duration": 6, "velocity": 64}, {"time": 1578, "pitch": 69, "duration": 6, "velocity": 64}, {"time": 1584, "pitch": 67, "duration": 36, "velocity": 64}, {"time": 1620, "pitch": 67, "duration": 6, "velocity": 64}, {"time": 1626, "pitch": 65, "duration": 6, "velocity": 64}, {"time": 1632, "pitch": 62, "duration": 12, "velocity": 64}, {"time": 1644, "pitch": 62, "duration": 60, "velocity": 64}, {"time": 1728, "pitch": 62, "duration": 6, "velocity": 64}, {"time": 1734, "pitch": 65, "duration": 6, "velocity": 64}, {"time": 1740, "pitch": 62, "duration": 36, "velocity": 64}, {"time": 1776, "pitch": 65, "duration": 12, "velocity": 64}, {"time": 1788, "pitch": 67, "duration": 24, "velocity": 64}, {"time": 1812, "pitch": 69, "duration": 6, "velocity": 64}, {"time": 1818, "pitch": 69, "duration": 6, "velocity": 64}, {"time": 1824, "pitch": 65, "duration": 12, "velocity": 64}, {"time": 1836, "pitch": 67, "duration": 6, "velocity": 64}, {"time": 1842, "pitch": 65, "duration": 6, "velocity": 64}, {"time": 1848, "pitch": 62, "duration": 24, "velocity": 64}, {"time": 1872, "pitch": 62, "duration": 6, "velocity": 64}, {"time": 1878, "pitch": 65, "duration": 6, "velocity": 64}, {"time": 1884, "pitch": 67, "duration": 24, "velocity": 64}, {"time": 1908, "pitch": 69, "duration": 6, "velocity": 64}, {"time": 1914, "pitch": 69, "duration": 6, "velocity": 64}, {"time": 1920, "pitch": 65, "duration": 12, "velocity": 64}, {"time": 1932, "pitch": 69, "duration": 36, "velocity": 64}, {"time": 1968, "pitch": 67, "duration": 6, "velocity": 64}, {"time": 1974, "pitch": 69, "duration": 6, "velocity": 64}, {"time": 1980, "pitch": 67, "duration": 6, "velocity": 64}, {"time": 1986, "pitch": 65, "duration": 6, "velocity": 64}, {"time": 1992, "pitch": 62, "duration": 24, "velocity": 64}, {"time": 2016, "pitch": 67, "duration": 36, "velocity": 64}, {"time": 2052, "pitch": 67, "duration": 6, "velocity": 64}, {"time": 2058, "pitch": 65, "duration": 6, "velocity": 64}, {"time": 2064, "pitch": 62, "duration": 12, "velocity": 64}, {"time": 2076, "pitch": 65, "duration": 36, "velocity": 64}, {"time": 2112, "pitch": 62, "duration": 24, "velocity": 64}, {"time": 2160, "pitch": 62, "duration": 12, "velocity": 64}, {"time": 2172, "pitch": 62, "duration": 36, "velocity": 64}, {"time": 2208, "pitch": 62, "duration": 12, "velocity": 64}, {"time": 2220, "pitch": 62, "duration": 12, "velocity": 64}, {"time": 2232, "pitch": 67, "duration": 12, "velocity": 64}, {"time": 2244, "pitch": 69, "duration": 6, "velocity": 64}, {"time": 2250, "pitch": 69, "duration": 6, "velocity": 64}, {"time": 2256, "pitch": 69, "duration": 12, "velocity": 64}, {"time": 2268, "pitch": 69, "duration": 12, "velocity": 64}, {"time": 2280, "pitch": 67, "duration": 24, "velocity": 64}, {"time": 2304, "pitch": 62, "duration": 12, "velocity": 64}, {"time": 2316, "pitch": 65, "duration": 36, "velocity": 64}, {"time": 2352, "pitch": 67, "duration": 12, "velocity": 64}, {"time": 2364, "pitch": 62, "duration": 36, "velocity": 64}, {"time": 2400, "pitch": 65, "duration": 12, "velocity": 64}, {"time": 2412, "pitch": 62, "duration": 12, "velocity": 64}, {"time": 2424, "pitch": 67, "duration": 12, "velocity": 64}, {"time": 2436, "pitch": 69, "duration": 6, "velocity": 64}, {"time": 2442, "pitch": 69, "duration": 6, "velocity": 64}, {"time": 2448, "pitch": 67, "duration": 36, "velocity": 64}, {"time": 2484, "pitch": 67, "duration": 6, "velocity": 64}, {"time": 2490, "pitch": 65, "duration": 6, "velocity": 64}, {"time": 2496, "pitch": 62, "duration": 12, "velocity": 64}, {"time": 2508, "pitch": 62, "duration": 60, "velocity": 64}, {"time": 2592, "pitch": 62, "duration": 6, "velocity": 64}, {"time": 2598, "pitch": 65, "duration": 6, "velocity": 64}, {"time": 2604, "pitch": 62, "duration": 36, "velocity": 64}, {"time": 2640, "pitch": 62, "duration": 6, "velocity": 64}, {"time": 2646, "pitch": 65, "duration": 6, "velocity": 64}, {"time": 2652, "pitch": 67, "duration": 24, "velocity": 64}, {"time": 2676, "pitch": 69, "duration": 6, "velocity": 64}, {"time": 2682, "pitch": 69, "duration": 6, "velocity": 64}, {"time": 2688, "pitch": 67, "duration": 12, "velocity": 64}, {"time": 2700, "pitch": 67, "duration": 6, "velocity": 64}, {"time": 2706, "pitch": 65, "duration": 6, "velocity": 64}, {"time": 2712, "pitch": 62, "duration": 24, "velocity": 64}, {"time": 2736, "pitch": 62, "duration": 6, "velocity": 64}, {"time": 2742, "pitch": 65, "duration": 6, "velocity": 64}, {"time": 2748, "pitch": 67, "duration": 24, "velocity": 64}, {"time": 2772, "pitch": 69, "duration": 6, "velocity": 64}, {"time": 2778, "pitch": 69, "duration": 6, "velocity": 64}, {"time": 2784, "pitch": 67, "duration": 6, "velocity": 64}, {"time": 2790, "pitch": 65, "duration": 6, "velocity": 64}, {"time": 2796, "pitch": 62, "duration": 36, "velocity": 64}, {"time": 2832, "pitch": 62, "duration": 12, "velocity": 64}, {"time": 2844, "pitch": 62, "duration": 12, "velocity": 64}, {"time": 2856, "pitch": 62, "duration": 24, "velocity": 64}, {"time": 2880, "pitch": 67, "duration": 36, "velocity": 64}, {"time": 2916, "pitch": 67, "duration": 6, "velocity": 64}, {"time": 2922, "pitch": 65, "duration": 6, "velocity": 64}, {"time": 2928, "pitch": 62, "duration": 12, "velocity": 64}, {"time": 2940, "pitch": 65, "duration": 36, "velocity": 64}, {"time": 2976, "pitch": 62, "duration": 24, "velocity": 64}, {"time": 3024, "pitch": 62, "duration": 12, "velocity": 64}, {"time": 3036, "pitch": 62, "duration": 36, "velocity": 64}, {"time": 3072, "pitch": 65, "duration": 12, "velocity": 64}, {"time": 3084, "pitch": 67, "duration": 24, "velocity": 64}, {"time": 3108, "pitch": 69, "duration": 6, "velocity": 64}, {"time": 3114, "pitch": 69, "duration": 6, "velocity": 64}, {"time": 3120, "pitch": 67, "duration": 36, "velocity": 64}, {"time": 3156, "pitch": 62, "duration": 12, "velocity": 64}, {"time": 3168, "pitch": 62, "duration": 12, "velocity": 64}, {"time": 3180, "pitch": 65, "duration": 36, "velocity": 64}, {"time": 3216, "pitch": 67, "duration": 12, "velocity": 64}, {"time": 3228, "pitch": 62, "duration": 36, "velocity": 64}, {"time": 3264, "pitch": 65, "duration": 12, "velocity": 64}, {"time": 3276, "pitch": 62, "duration": 12, "velocity": 64}, {"time": 3288, "pitch": 67, "duration": 12, "velocity": 64}, {"time": 3300, "pitch": 69, "duration": 6, "velocity": 64}, {"time": 3306, "pitch": 69, "duration": 6, "velocity": 64}, {"time": 3312, "pitch": 67, "duration": 36, "velocity": 64}, {"time": 3348, "pitch": 67, "duration": 6, "velocity": 64}, {"time": 3354, "pitch": 65, "duration": 6, "velocity": 64}, {"time": 3360, "pitch": 62, "duration": 12, "velocity": 64}, {"time": 3372, "pitch": 62, "duration": 60, "velocity": 64}, {"time": 3456, "pitch": 62, "duration": 6, "velocity": 64}, {"time": 3462, "pitch": 65, "duration": 6, "velocity": 64}, {"time": 3468, "pitch": 62, "duration": 36, "velocity": 64}, {"time": 3504, "pitch": 62, "duration": 6, "velocity": 64}, {"time": 3510, "pitch": 65, "duration": 6, "velocity": 64}, {"time": 3516, "pitch": 67, "duration": 24, "velocity": 64}, {"time": 3540, "pitch": 69, "duration": 6, "velocity": 64}, {"time": 3546, "pitch": 69, "duration": 6, "velocity": 64}, {"time": 3552, "pitch": 67, "duration": 12, "velocity": 64}, {"time": 3564, "pitch": 67, "duration": 6, "velocity": 64}, {"time": 3570, "pitch": 65, "duration": 6, "velocity": 64}, {"time": 3576, "pitch": 62, "duration": 24, "velocity": 64}, {"time": 3600, "pitch": 62, "duration": 6, "velocity": 64}, {"time": 3606, "pitch": 65, "duration": 6, "velocity": 64}, {"time": 3612, "pitch": 67, "duration": 24, "velocity": 64}, {"time": 3636, "pitch": 69, "duration": 6, "velocity": 64}, {"time": 3642, "pitch": 69, "duration": 6, "velocity": 64}, {"time": 3648, "pitch": 67, "duration": 12, "velocity": 64}, {"time": 3660, "pitch": 62, "duration": 36, "velocity": 64}, {"time": 3696, "pitch": 65, "duration": 12, "velocity": 64}, {"time": 3708, "pitch": 62, "duration": 12, "velocity": 64}, {"time": 3720, "pitch": 62, "duration": 24, "velocity": 64}, {"time": 3744, "pitch": 67, "duration": 36, "velocity": 64}, {"time": 3780, "pitch": 65, "duration": 6, "velocity": 64}, {"time": 3786, "pitch": 67, "duration": 6, "velocity": 64}, {"time": 3792, "pitch": 62, "duration": 12, "velocity": 64}, {"time": 3804, "pitch": 65, "duration": 36, "velocity": 64}, {"time": 3840, "pitch": 62, "duration": 24, "velocity": 64}, {"time": 3888, "pitch": 62, "duration": 12, "velocity": 64}, {"time": 3900, "pitch": 62, "duration": 36, "velocity": 64}, {"time": 3936, "pitch": 65, "duration": 12, "velocity": 64}, {"time": 3948, "pitch": 62, "duration": 12, "velocity": 64}, {"time": 3960, "pitch": 67, "duration": 12, "velocity": 64}, {"time": 3972, "pitch": 69, "duration": 6, "velocity": 64}, {"time": 3978, "pitch": 69, "duration": 6, "velocity": 64}, {"time": 3984, "pitch": 67, "duration": 36, "velocity": 64}, {"time": 4020, "pitch": 62, "duration": 12, "velocity": 64}, {"time": 4032, "pitch": 62, "duration": 12, "velocity": 64}, {"time": 4044, "pitch": 65, "duration": 36, "velocity": 64}, {"time": 4080, "pitch": 67, "duration": 6, "velocity": 64}, {"time": 4086, "pitch": 65, "duration": 6, "velocity": 64}, {"time": 4092, "pitch": 62, "duration": 36, "velocity": 64}, {"time": 4128, "pitch": 65, "duration": 12, "velocity": 64}, {"time": 4140, "pitch": 62, "duration": 12, "velocity": 64}, {"time": 4152, "pitch": 67, "duration": 12, "velocity": 64}, {"time": 4164, "pitch": 69, "duration": 6, "velocity": 64}, {"time": 4170, "pitch": 69, "duration": 6, "velocity": 64}, {"time": 4176, "pitch": 67, "duration": 36, "velocity": 64}, {"time": 4212, "pitch": 67, "duration": 6, "velocity": 64}, {"time": 4218, "pitch": 65, "duration": 6, "velocity": 64}, {"time": 4224, "pitch": 62, "duration": 12, "velocity": 64}, {"time": 4236, "pitch": 62, "duration": 60, "velocity": 64}]}]}