{"metadata": {"schema_version": "0.1", "title": "Gonglao zuigao gongchan dang", "source_format": "abc"}, "resolution": 24, "tempos": [{"time": 0, "qpm": 120.0}], "key_signatures": [{"time": 0, "root": 9, "mode": "major", "fifths": 3}], "time_signatures": [{"time": 0, "numerator": 4, "denominator": 4}, {"time": 960, "numerator": 3, "denominator": 4}, {"time": 1128, "numerator": 3, "denominator": 4}, {"time": 1584, "numerator": 3, "denominator": 4}, {"time": 1848, "numerator": 1, "denominator": 4}, {"time": 2016, "numerator": 3, "denominator": 4}, {"time": 2088, "numerator": 2, "denominator": 4}, {"time": 2184, "numerator": 1, "denominator": 4}], "beats": [{"time": 0, "is_downbeat": true}, {"time": 24, "is_downbeat": false}, {"time": 48, "is_downbeat": true}, {"time": 72, "is_downbeat": false}, {"time": 96, "is_downbeat": true}, {"time": 120, "is_downbeat": false}, {"time": 144, "is_downbeat": true}, {"time": 168, "is_downbeat": false}, {"time": 192, "is_downbeat": true}, {"time": 216, "is_downbeat": false}, {"time": 240, "is_downbeat": true}, {"time": 264, "is_downbeat": false}, {"time": 288, "is_downbeat": true}, {"time": 312, "is_downbeat": false}, {"time": 336, "is_downbeat": true}, {"time": 360, "is_downbeat": false}, {"time": 384, "is_downbeat": true}, {"time": 408, "is_downbeat": false}, {"time": 432, "is_downbeat": true}, {"time": 456, "is_downbeat": false}, {"time": 480, "is_downbeat": true}, {"time": 504, "is_downbeat": false}, {"time": 528, "is_downbeat": true}, {"time": 552, "is_downbeat": false}, {"time": 576, "is_downbeat": true}, {"time": 600, "is_downbeat": false}, {"time": 624, "is_downbeat": true}, {"time": 648, "is_downbeat": false}, {"time": 672, "is_downbeat": true}, {"time": 696, "is_downbeat": false}, {"time": 720, "is_downbeat": true}, {"time": 744, "is_downbeat": false}, {"time": 768, "is_downbeat": true}, {"time": 792, "is_downbeat": false}, {"time": 816, "is_downbeat": true}, {"time": 840, "is_downbeat": false}, {"time": 864, "is_downbeat": true}, {"time": 888, "is_downbeat": false}, {"time": 912, "is_downbeat": true}, {"time": 936, "is_downbeat": false}, {"time": 960, "is_downbeat": true}, {"time": 984, "is_downbeat": false}, {"time": 1008, "is_downbeat": false}, {"time": 1032, "is_downbeat": true}, {"time": 1056, "is_downbeat": false}, {"time": 1080, "is_downbeat": true}, {"time": 1104, "is_downbeat": false}, {"time": 1128, "is_downbeat": true}, {"time": 1152, "is_downbeat": false}, {"time": 1176, "is_downbeat": false}, {"time": 1200, "is_downbeat": true}, {"time": 1224, "is_downbeat": false}, {"time": 1248, "is_downbeat": true}, {"time": 1272, "is_downbeat": false}, {"time": 1296, "is_downbeat": true}, {"time": 1320, "is_downbeat": false}, {"time": 1344, "is_downbeat": true}, {"time": 1368, "is_downbeat": false}, {"time": 1392, "is_downbeat": true}, {"time": 1416, "is_downbeat": false}, {"time": 1440, "is_downbeat": true}, {"time": 1464, "is_downbeat": false}, {"time": 1488, "is_downbeat": true}, {"time": 1512, "is_downbeat": false}, {"time": 1536, "is_downbeat": true}, {"time": 1560, "is_downbeat": false}, {"time": 1584, "is_downbeat": true}, {"time": 1608, "is_downbeat": true}, {"time": 1632, "is_downbeat": true}, {"time": 1656, "is_downbeat": true}, {"time": 1680, "is_downbeat": true}, {"time": 1704, "is_downbeat": true}, {"time": 1728, "is_downbeat": true}, {"time": 1752, "is_downbeat": true}, {"time": 1776, "is_downbeat": true}, {"time": 1800, "is_downbeat": true}, {"time": 1824, "is_downbeat": true}, {"time": 1848, "is_downbeat": true}, {"time": 1872, "is_downbeat": true}, {"time": 1896, "is_downbeat": false}, {"time": 1920, "is_downbeat": true}, {"time": 1944, "is_downbeat": false}, {"time": 1968, "is_downbeat": true}, {"time": 1992, "is_downbeat": false}, {"time": 2016, "is_downbeat": true}, {"time": 2040, "is_downbeat": false}, {"time": 2064, "is_downbeat": true}, {"time": 2088, "is_downbeat": true}, {"time": 2112, "is_downbeat": true}, {"time": 2136, "is_downbeat": true}, {"time": 2160, "is_downbeat": true}, {"time": 2184, "is_downbeat": true}], "tracks": [{"program": 0, "is_drum": false, "notes": [{"time": 0, "pitch": 68, "duration": 12, "velocity": 64}, {"time": 12, "pitch": 73, "duration": 12, "velocity": 64}, {"time": 24, "pitch": 73, "duration": 12, "velocity": 64}, {"time": 36, "pitch": 73, "duration": 12, "velocity": 64}, {"time": 48, "pitch": 76, "duration": 12, "velocity": 64}, {"time": 60, "pitch": 73, "duration": 12, "velocity": 64}, {"time": 72, "pitch": 73, "duration": 12, "velocity": 64}, {"time": 84, "pitch": 71, "duration": 48, "velocity": 64}, {"time": 132, "pitch": 73, "duration": 12, "velocity": 64}, {"time": 144, "pitch": 69, "duration": 12, "velocity": 64}, {"time": 156, "pitch": 73, "duration": 12, "velocity": 64}, {"time": 168, "pitch": 71, "duration": 12, "velocity": 64}, {"time": 180, "pitch": 69, "duration": 12, "velocity": 64}, {"time": 192, "pitch": 71, "duration": 6, "velocity": 64}, {"time": 198, "pitch": 69, "duration": 6, "velocity": 64}, {"time": 204, "pitch": 66, "duration": 12, "velocity": 64}, {"time": 216, "pitch": 64, "duration": 24, "velocity": 64}, {"time": 240, "pitch": 64, "duration": 48, "velocity": 64}, {"time": 288, "pitch": 71, "duration": 6, "velocity": 64}, {"time": 294, "pitch": 73, "duration": 6, "velocity": 64}, {"time": 300, "pitch": 69, "duration": 12, "velocity": 64}, {"time": 312, "pitch": 71, "duration": 12, "velocity": 64}, {"time": 324, "pitch": 71, "duration": 6, "velocity": 64}, {"time": 330, "pitch": 73, "duration": 6, "velocity": 64}, {"time": 336, "pitch": 71, "duration": 12, "velocity": 64}, {"time": 348, "pitch": 64, "duration": 12, "velocity": 64}, {"time": 360, "pitch": 71, "duration": 6, "velocity": 64}, {"time": 366, "pitch": 73, "duration": 6, "velocity": 64}, {"time": 372, "pitch": 69, "duration": 48, "velocity": 64}, {"time": 420, "pitch": 71, "duration": 6, "velocity": 64}, {"time": 426, "pitch": 73, "duration": 6, "velocity": 64}, {"time": 432, "pitch": 71, "duration": 12, "velocity": 64}, {"time": 444, "pitch": 71, "duration": 12, "velocity": 64}, {"time": 456, "pitch": 71, "duration": 12, "velocity": 64}, {"time": 468, "pitch": 71, "duration": 6, "velocity": 64}, {"time": 474, "pitch": 73, "duration": 6, "velocity": 64}, {"time": 480, "pitch": 71, "duration": 6, "velocity": 64}, {"time": 486, "pitch": 69, "duration": 6, "velocity": 64}, {"time": 492, "pitch": 66, "duration": 12, "velocity": 64}, {"time": 504, "pitch": 64, "duration": 24, "velocity": 64}, {"time": 528, "pitch": 64, "duration": 48, "velocity": 64}, {"time": 576, "pitch": 76, "duration": 12, "velocity": 64}, {"time": 588, "pitch": 68, "duration": 12, "velocity": 64}, {"time": 600, "pitch": 71, "duration": 12, "velocity": 64}, {"time": 612, "pitch": 71, "duration": 12, "velocity": 64}, {"time": 624, "pitch": 68, "duration": 12, "velocity": 64}, {"time": 636, "pitch": 68, "duration": 12, "velocity": 64}, {"time": 648, "pitch": 76, "duration": 12, "velocity": 64}, {"time": 660, "pitch": 71, "duration": 48, "velocity": 64}, {"time": 708, "pitch": 73, "duration": 12, "velocity": 64}, {"time": 720, "pitch": 69, "duration": 12, "velocity": 64}, {"time": 732, "pitch": 69, "duration": 6, "velocity": 64}, {"time": 738, "pitch": 71, "duration": 6, "velocity": 64}, {"time": 744, "pitch": 64, "duration": 12, "velocity": 64}, {"time": 756, "pitch": 64, "duration": 12, "velocity": 64}, {"time": 768, "pitch": 71, "duration": 6, "velocity": 64}, {"time": 774, "pitch": 69, "duration": 6, "velocity": 64}, {"time": 780, "pitch": 66, "duration": 12, "velocity": 64}, {"time": 792, "pitch": 64, "duration": 24, "velocity": 64}, {"time": 816, "pitch": 64, "duration": 48, "velocity": 64}, {"time": 864, "pitch": 73, "duration": 6, "velocity": 64}, {"time": 870, "pitch": 71, "duration": 6, "velocity": 64}, {"time": 876, "pitch": 69, "duration": 12, "velocity": 64}, {"time": 888, "pitch": 69, "duration": 12, "velocity": 64}, {"time": 900, "pitch": 69, "duration": 12, "velocity": 64}, {"time": 912, "pitch": 71, "duration": 12, "velocity": 64}, {"time": 924, "pitch": 71, "duration": 12, "velocity": 64}, {"time": 936, "pitch": 64, "duration": 12, "velocity": 64}, {"time": 948, "pitch": 69, "duration": 24, "velocity": 64}, {"time": 972, "pitch": 71, "duration": 6, "velocity": 64}, {"time": 978, "pitch": 73, "duration": 6, "velocity": 64}, {"time": 984, "pitch": 69, "duration": 12, "velocity": 64}, {"time": 996, "pitch": 64, "duration": 12, "velocity": 64}, {"time": 1008, "pitch": 71, "duration": 12, "velocity": 64}, {"time": 1020, "pitch": 71, "duration": 6, "velocity": 64}, {"time": 1026, "pitch": 73, "duration": 6, "velocity": 64}, {"time": 1032, "pitch": 64, "duration": 24, "velocity": 64}, {"time": 1056, "pitch": 71, "duration": 24, "velocity": 64}, {"time": 1080, "pitch": 71, "duration": 6, "velocity": 64}, {"time": 1086, "pitch": 69, "duration": 6, "velocity": 64}, {"time": 1092, "pitch": 66, "duration": 12, "velocity": 64}, {"time": 1104, "pitch": 64, "duration": 48, "velocity": 64}, {"time": 1152, "pitch": 76, "duration": 12, "velocity": 64}, {"time": 1164, "pitch": 76, "duration": 12, "velocity": 64}, {"time": 1176, "pitch": 76, "duration": 12, "velocity": 64}, {"time": 1188, "pitch": 68, "duration": 12, "velocity": 64}, {"time": 1200, "pitch": 76, "duration": 12, "velocity": 64}, {"time": 1212, "pitch": 76, "duration": 12, "velocity": 64}, {"time": 1224, "pitch": 73, "duration": 12, "velocity": 64}, {"time": 1236, "pitch": 71, "duration": 48, "velocity": 64}, {"time": 1284, "pitch": 73, "duration": 12, "velocity": 64}, {"time": 1296, "pitch": 71, "duration": 12, "velocity": 64}, {"time": 1308, "pitch": 71, "duration": 6, "velocity": 64}, {"time": 1314, "pitch": 69, "duration": 6, "velocity": 64}, {"time": 1320, "pitch": 64, "duration": 12, "velocity": 64}, {"time": 1332, "pitch": 71, "duration": 12, "velocity": 64}, {"time": 1344, "pitch": 71, "duration": 6, "velocity": 64}, {"time": 1350, "pitch": 69, "duration": 6, "velocity": 64}, {"time": 1356, "pitch": 66, "duration": 12, "velocity": 64}, {"time": 1368, "pitch": 64, "duration": 24, "velocity": 64}, {"time": 1392, "pitch": 64, "duration": 48, "velocity": 64}, {"time": 1440, "pitch": 71, "duration": 12, "velocity": 64}, {"time": 1452, "pitch": 71, "duration": 12, "velocity": 64}, {"time": 1464, "pitch": 64, "duration": 12, "velocity": 64}, {"time": 1476, "pitch": 64, "duration": 12, "velocity": 64}, {"time": 1488, "pitch": 69, "duration": 6, "velocity": 64}, {"time": 1494, "pitch": 71, "duration": 6, "velocity": 64}, {"time": 1500, "pitch": 73, "duration": 12, "velocity": 64}, {"time": 1512, "pitch": 71, "duration": 24, "velocity": 64}, {"time": 1536, "pitch": 71, "duration": 6, "velocity": 64}, {"time": 1542, "pitch": 69, "duration": 6, "velocity": 64}, {"time": 1548, "pitch": 66, "duration": 12, "velocity": 64}, {"time": 1560, "pitch": 64, "duration": 48, "velocity": 64}, {"time": 1608, "pitch": 73, "duration": 12, "velocity": 64}, {"time": 1620, "pitch": 68, "duration": 12, "velocity": 64}, {"time": 1632, "pitch": 71, "duration": 12, "velocity": 64}, {"time": 1644, "pitch": 71, "duration": 6, "velocity": 64}, {"time": 1650, "pitch": 73, "duration": 6, "velocity": 64}, {"time": 1656, "pitch": 68, "duration": 12, "velocity": 64}, {"time": 1668, "pitch": 68, "duration": 12, "velocity": 64}, {"time": 1680, "pitch": 76, "duration": 12, "velocity": 64}, {"time": 1692, "pitch": 71, "duration": 48, "velocity": 64}, {"time": 1740, "pitch": 73, "duration": 12, "velocity": 64}, {"time": 1752, "pitch": 64, "duration": 12, "velocity": 64}, {"time": 1764, "pitch": 64, "duration": 12, "velocity": 64}, {"time": 1776, "pitch": 69, "duration": 12, "velocity": 64}, {"time": 1788, "pitch": 71, "duration": 12, "velocity": 64}, {"time": 1800, "pitch": 64, "duration": 24, "velocity": 64}, {"time": 1824, "pitch": 71, "duration": 24, "velocity": 64}, {"time": 1848, "pitch": 71, "duration": 6, "velocity": 64}, {"time": 1854, "pitch": 69, "duration": 6, "velocity": 64}, {"time": 1860, "pitch": 66, "duration": 12, "velocity": 64}, {"time": 1872, "pitch": 64, "duration": 48, "velocity": 64}, {"time": 1920, "pitch": 71, "duration": 12, "velocity": 64}, {"time": 1932, "pitch": 71, "duration": 12, "velocity": 64}, {"time": 1944, "pitch": 69, "duration": 12, "velocity": 64}, {"time": 1956, "pitch": 71, "duration": 6, "velocity": 64}, {"time": 1962, "pitch": 73, "duration": 6, "velocity": 64}, {"time": 1968, "pitch": 71, "duration": 12, "velocity": 64}, {"time": 1980, "pitch": 71, "duration": 12, "velocity": 64}, {"time": 1992, "pitch": 76, "duration": 12, "velocity": 64}, {"time": 2004, "pitch": 69, "duration": 24, "velocity": 64}, {"time": 2028, "pitch": 71, "duration": 6, "velocity": 64}, {"time": 2034, "pitch": 73, "duration": 6, "velocity": 64}, {"time": 2040, "pitch": 71, "duration": 12, "velocity": 64}, {"time": 2052, "pitch": 71, "duration": 6, "velocity": 64}, {"time": 2058, "pitch": 73, "duration": 6, "velocity": 64}, {"time": 2064, "pitch": 69, "duration": 6, "velocity": 64}, {"time": 2070, "pitch": 71, "duration": 6, "velocity": 64}, {"time": 2076, "pitch": 71, "duration": 6, "velocity": 64}, {"time": 2082, "pitch": 69, "duration": 6, "velocity": 64}, {"time": 2088, "pitch": 64, "duration": 12, "velocity": 64}, {"time": 2100, "pitch": 71, "duration": 36, "velocity": 64}, {"time": 2136, "pitch": 71, "duration": 6, "velocity": 64}, {"time": 2142, "pitch": 69, "duration": 6, "velocity": 64}, {"time": 2148, "pitch": 66, "duration": 12, "velocity": 64}, {"time": 2160, "pitch": 64, "duration": 48, "velocity": 64}]}]}