{"metadata": {"schema_version": "0.1", "title": "Yangtao shenglai nian dui nian", "source_format": "abc"}, "resolution": 24, "tempos": [{"time": 0, "qpm": 120.0}], "key_signatures": [{"time": 0, "root": 9, "mode": "major", "fifths": 3}], "time_signatures": [{"time": 0, "numerator": 4, "denominator": 4}, {"time": 936, "numerator": 1, "denominator": 8}, {"time": 948, "numerator": 2, "denominator": 4}], "beats": [{"time": 0, "is_downbeat": true}, {"time": 12, "is_downbeat": true}, {"time": 24, "is_downbeat": true}, {"time": 36, "is_downbeat": true}, {"time": 48, "is_downbeat": true}, {"time": 60, "is_downbeat": true}, {"time": 72, "is_downbeat": true}, {"time": 84, "is_downbeat": true}, {"time": 96, "is_downbeat": true}, {"time": 108, "is_downbeat": true}, {"time": 120, "is_downbeat": true}, {"time": 132, "is_downbeat": true}, {"time": 144, "is_downbeat": true}, {"time": 156, "is_downbeat": true}, {"time": 168, "is_downbeat": true}, {"time": 180, "is_downbeat": true}, {"time": 192, "is_downbeat": true}, {"time": 204, "is_downbeat": true}, {"time": 216, "is_downbeat": true}, {"time": 228, "is_downbeat": true}, {"time": 240, "is_downbeat": true}, {"time": 252, "is_downbeat": true}, {"time": 264, "is_downbeat": true}, {"time": 276, "is_downbeat": true}, {"time": 288, "is_downbeat": true}, {"time": 300, "is_downbeat": true}, {"time": 312, "is_downbeat": true}, {"time": 324, "is_downbeat": true}, {"time": 336, "is_downbeat": true}, {"time": 348, "is_downbeat": true}, {"time": 360, "is_downbeat": true}, {"time": 372, "is_downbeat": true}, {"time": 384, "is_downbeat": true}, {"time": 396, "is_downbeat": true}, {"time": 408, "is_downbeat": true}, {"time": 420, "is_downbeat": true}, {"time": 432, "is_downbeat": true}, {"time": 444, "is_downbeat": true}, {"time": 456, "is_downbeat": true}, {"time": 468, "is_downbeat": true}, {"time": 480, "is_downbeat": true}, {"time": 492, "is_downbeat": true}, {"time": 504, "is_downbeat": true}, {"time": 516, "is_downbeat": true}, {"time": 528, "is_downbeat": true}, {"time": 540, "is_downbeat": true}, {"time": 552, "is_downbeat": true}, {"time": 564, "is_downbeat": true}, {"time": 576, "is_downbeat": true}, {"time": 588, "is_downbeat": true}, {"time": 600, "is_downbeat": true}, {"time": 612, "is_downbeat": true}, {"time": 624, "is_downbeat": true}, {"time": 636, "is_downbeat": true}, {"time": 648, "is_downbeat": true}, {"time": 660, "is_downbeat": true}, {"time": 672, "is_downbeat": true}, {"time": 684, "is_downbeat": true}, {"time": 696, "is_downbeat": true}, {"time": 708, "is_downbeat": true}, {"time": 720, "is_downbeat": true}, {"time": 732, "is_downbeat": true}, {"time": 744, "is_downbeat": true}, {"time": 756, "is_downbeat": true}, {"time": 768, "is_downbeat": true}, {"time": 780, "is_downbeat": true}, {"time": 792, "is_downbeat": true}, {"time": 804, "is_downbeat": true}, {"time": 816, "is_downbeat": true}, {"time": 828, "is_downbeat": true}, {"time": 840, "is_downbeat": true}, {"time": 852, "is_downbeat": true}, {"time": 864, "is_downbeat": true}, {"time": 876, "is_downbeat": true}, {"time": 888, "is_downbeat": true}, {"time": 900, "is_downbeat": true}, {"time": 912, "is_downbeat": true}, {"time": 924, "is_downbeat": true}, {"time": 936, "is_downbeat": true}, {"time": 948, "is_downbeat": true}, {"time": 972, "is_downbeat": false}, {"time": 996, "is_downbeat": true}, {"time": 1020, "is_downbeat": false}, {"time": 1044, "is_downbeat": true}, {"time": 1068, "is_downbeat": false}, {"time": 1092, "is_downbeat": true}, {"time": 1116, "is_downbeat": false}, {"time": 1140, "is_downbeat": true}, {"time": 1164, "is_downbeat": false}, {"time": 1188, "is_downbeat": true}, {"time": 1212, "is_downbeat": false}, {"time": 1236, "is_downbeat": true}, {"time": 1260, "is_downbeat": false}, {"time": 1284, "is_downbeat": true}, {"time": 1308, "is_downbeat": false}, {"time": 1332, "is_downbeat": true}, {"time": 1356, "is_downbeat": false}, {"time": 1380, "is_downbeat": true}, {"time": 1404, "is_downbeat": false}], "tracks": [{"program": 0, "is_drum": false, "notes": [{"time": 0, "pitch": 81, "duration": 48, "velocity": 64}, {"time": 48, "pitch": 78, "duration": 12, "velocity": 64}, {"time": 60, "pitch": 78, "duration": 12, "velocity": 64}, {"time": 72, "pitch": 73, "duration": 6, "velocity": 64}, {"time": 78, "pitch": 76, "duration": 6, "velocity": 64}, {"time": 84, "pitch": 73, "duration": 6, "velocity": 64}, {"time": 90, "pitch": 76, "duration": 6, "velocity": 64}, {"time": 96, "pitch": 78, "duration": 6, "velocity": 64}, {"time": 102, "pitch": 76, "duration": 6, "velocity": 64}, {"time": 108, "pitch": 73, "duration": 12, "velocity": 64}, {"time": 132, "pitch": 78, "duration": 6, "velocity": 64}, {"time": 138, "pitch": 81, "duration": 6, "velocity": 64}, {"time": 144, "pitch": 76, "duration": 6, "velocity": 64}, {"time": 150, "pitch": 78, "duration": 6, "velocity": 64}, {"time": 156, "pitch": 78, "duration": 6, "velocity": 64}, {"time": 162, "pitch": 76, "duration": 6, "velocity": 64}, {"time": 168, "pitch": 78, "duration": 6, "velocity": 64}, {"time": 174, "pitch": 76, "duration": 6, "velocity": 64}, {"time": 180, "pitch": 73, "duration": 6, "velocity": 64}, {"time": 186, "pitch": 78, "duration": 6, "velocity": 64}, {"time": 192, "pitch": 76, "duration": 6, "velocity": 64}, {"time": 198, "pitch": 76, "duration": 6, "velocity": 64}, {"time": 204, "pitch": 76, "duration": 6, "velocity": 64}, {"time": 210, "pitch": 78, "duration": 6, "velocity": 64}, {"time": 216, "pitch": 73, "duration": 12, "velocity": 64}, {"time": 228, "pitch": 71, "duration": 12, "velocity": 64}, {"time": 240, "pitch": 73, "duration": 12, "velocity": 64}, {"time": 252, "pitch": 76, "duration": 6, "velocity": 64}, {"time": 258, "pitch": 73, "duration": 6, "velocity": 64}, {"time": 264, "pitch": 71, "duration": 12, "velocity": 64}, {"time": 276, "pitch": 69, "duration": 12, "velocity": 64}, {"time": 288, "pitch": 71, "duration": 48, "velocity": 64}, {"time": 336, "pitch": 76, "duration": 6, "velocity": 64}, {"time": 342, "pitch": 78, "duration": 6, "velocity": 64}, {"time": 348, "pitch": 76, "duration": 6, "velocity": 64}, {"time": 354, "pitch": 73, "duration": 6, "velocity": 64}, {"time": 360, "pitch": 71, "duration": 12, "velocity": 64}, {"time": 384, "pitch": 78, "duration": 12, "velocity": 64}, {"time": 396, "pitch": 78, "duration": 6, "velocity": 64}, {"time": 402, "pitch": 81, "duration": 6, "velocity": 64}, {"time": 408, "pitch": 73, "duration": 6, "velocity": 64}, {"time": 414, "pitch": 76, "duration": 6, "velocity": 64}, {"time": 420, "pitch": 73, "duration": 12, "velocity": 64}, {"time": 432, "pitch": 76, "duration": 12, "velocity": 64}, {"time": 444, "pitch": 69, "duration": 12, "velocity": 64}, {"time": 456, "pitch": 78, "duration": 12, "velocity": 64}, {"time": 468, "pitch": 76, "duration": 12, "velocity": 64}, {"time": 480, "pitch": 73, "duration": 6, "velocity": 64}, {"time": 486, "pitch": 76, "duration": 6, "velocity": 64}, {"time": 492, "pitch": 71, "duration": 9, "velocity": 64}, {"time": 501, "pitch": 73, "duration": 3, "velocity": 64}, {"time": 504, "pitch": 71, "duration": 6, "velocity": 64}, {"time": 510, "pitch": 69, "duration": 6, "velocity": 64}, {"time": 516, "pitch": 71, "duration": 48, "velocity": 64}, {"time": 564, "pitch": 73, "duration": 12, "velocity": 64}, {"time": 576, "pitch": 76, "duration": 6, "velocity": 64}, {"time": 582, "pitch": 73, "duration": 6, "velocity": 64}, {"time": 588, "pitch": 69, "duration": 12, "velocity": 64}, {"time": 600, "pitch": 71, "duration": 12, "velocity": 64}, {"time": 612, "pitch": 73, "duration": 6, "velocity": 64}, {"time": 618, "pitch": 71, "duration": 6, "velocity": 64}, {"time": 624, "pitch": 69, "duration": 12, "velocity": 64}, {"time": 636, "pitch": 71, "duration": 24, "velocity": 64}, {"time": 660, "pitch": 81, "duration": 48, "velocity": 64}, {"time": 708, "pitch": 78, "duration": 6, "velocity": 64}, {"time": 714, "pitch": 76, "duration": 6, "velocity": 64}, {"time": 720, "pitch": 76, "duration": 12, "velocity": 64}, {"time": 732, "pitch": 78, "duration": 12, "velocity": 64}, {"time": 744, "pitch": 76, "duration": 12, "velocity": 64}, {"time": 756, "pitch": 78, "duration": 6, "velocity": 64}, {"time": 762, "pitch": 76, "duration": 6, "velocity": 64}, {"time": 768, "pitch": 74, "duration": 12, "velocity": 64}, {"time": 792, "pitch": 74, "duration": 6, "velocity": 64}, {"time": 798, "pitch": 76, "duration": 6, "velocity": 64}, {"time": 804, "pitch": 78, "duration": 6, "velocity": 64}, {"time": 810, "pitch": 76, "duration": 6, "velocity": 64}, {"time": 816, "pitch": 78, "duration": 9, "velocity": 64}, {"time": 825, "pitch": 81, "duration": 3, "velocity": 64}, {"time": 828, "pitch": 78, "duration": 6, "velocity": 64}, {"time": 834, "pitch": 76, "duration": 54, "velocity": 64}, {"time": 888, "pitch": 78, "duration": 12, "velocity": 64}, {"time": 900, "pitch": 76, "duration": 12, "velocity": 64}, {"time": 912, "pitch": 78, "duration": 12, "velocity": 64}, {"time": 924, "pitch": 73, "duration": 12, "velocity": 64}, {"time": 936, "pitch": 76, "duration": 12, "velocity": 64}, {"time": 948, "pitch": 71, "duration": 6, "velocity": 64}, {"time": 954, "pitch": 73, "duration": 6, "velocity": 64}, {"time": 960, "pitch": 69, "duration": 12, "velocity": 64}, {"time": 972, "pitch": 73, "duration": 12, "velocity": 64}, {"time": 984, "pitch": 71, "duration": 12, "velocity": 64}, {"time": 996, "pitch": 73, "duration": 12, "velocity": 64}, {"time": 1008, "pitch": 76, "duration": 12, "velocity": 64}, {"time": 1020, "pitch": 73, "duration": 6, "velocity": 64}, {"time": 1026, "pitch": 76, "duration": 6, "velocity": 64}, {"time": 1032, "pitch": 69, "duration": 12, "velocity": 64}, {"time": 1044, "pitch": 71, "duration": 48, "velocity": 64}, {"time": 1092, "pitch": 76, "duration": 6, "velocity": 64}, {"time": 1098, "pitch": 78, "duration": 6, "velocity": 64}, {"time": 1104, "pitch": 76, "duration": 6, "velocity": 64}, {"time": 1110, "pitch": 73, "duration": 6, "velocity": 64}, {"time": 1116, "pitch": 71, "duration": 12, "velocity": 64}, {"time": 1140, "pitch": 76, "duration": 6, "velocity": 64}, {"time": 1146, "pitch": 78, "duration": 6, "velocity": 64}, {"time": 1152, "pitch": 76, "duration": 12, "velocity": 64}, {"time": 1164, "pitch": 78, "duration": 12, "velocity": 64}, {"time": 1176, "pitch": 76, "duration": 12, "velocity": 64}, {"time": 1188, "pitch": 78, "duration": 6, "velocity": 64}, {"time": 1194, "pitch": 76, "duration": 6, "velocity": 64}, {"time": 1200, "pitch": 74, "duration": 12, "velocity": 64}, {"time": 1212, "pitch": 78, "duration": 12, "velocity": 64}, {"time": 1224, "pitch": 76, "duration": 12, "velocity": 64}, {"time": 1236, "pitch": 71, "duration": 6, "velocity": 64}, {"time": 1242, "pitch": 73, "duration": 6, "velocity": 64}, {"time": 1248, "pitch": 69, "duration": 12, "velocity": 64}, {"time": 1260, "pitch": 73, "duration": 12, "velocity": 64}, {"time": 1272, "pitch": 76, "duration": 6, "velocity": 64}, {"time": 1278, "pitch": 69, "duration": 6, "velocity": 64}, {"time": 1284, "pitch": 71, "duration": 48, "velocity": 64}, {"time": 1332, "pitch": 73, "duration": 12, "velocity": 64}, {"time": 1344, "pitch": 76, "duration": 12, "velocity": 64}, {"time": 1356, "pitch": 73, "duration": 24, "velocity": 64}, {"time": 1380, "pitch": 69, "duration": 24, "velocity": 64}, {"time": 1404, "pitch": 71, "duration": 24, "velocity": 64}]}]}