{"metadata": {"schema_version": "0.1", "title": "Yi zhan mingdeng zhao Beijing", "source_format": "abc"}, "resolution": 24, "tempos": [{"time": 0, "qpm": 120.0}], "key_signatures": [{"time": 0, "root": 4, "mode": "major", "fifths": 4}], "time_signatures": [{"time": 0, "numerator": 4, "denominator": 4}, {"time": 120, "numerator": 3, "denominator": 8}, {"time": 216, "numerator": 3, "denominator": 8}, {"time": 312, "numerator": 1, "denominator": 8}, {"time": 384, "numerator": 3, "denominator": 8}, {"time": 480, "numerator": 1, "denominator": 8}, {"time": 492, "numerator": 5, "denominator": 8}], "beats": [{"time": 0, "is_downbeat": true}, {"time": 12, "is_downbeat": false}, {"time": 24, "is_downbeat": false}, {"time": 36, "is_downbeat": true}, {"time": 48, "is_downbeat": false}, {"time": 60, "is_downbeat": true}, {"time": 72, "is_downbeat": false}, {"time": 84, "is_downbeat": false}, {"time": 96, "is_downbeat": true}, {"time": 108, "is_downbeat": false}, {"time": 120, "is_downbeat": true}, {"time": 132, "is_downbeat": false}, {"time": 144, "is_downbeat": false}, {"time": 156, "is_downbeat": true}, {"time": 168, "is_downbeat": false}, {"time": 180, "is_downbeat": false}, {"time": 192, "is_downbeat": true}, {"time": 204, "is_downbeat": false}, {"time": 216, "is_downbeat": true}, {"time": 228, "is_downbeat": true}, {"time": 240, "is_downbeat": true}, {"time": 252, "is_downbeat": true}, {"time": 264, "is_downbeat": true}, {"time": 276, "is_downbeat": true}, {"time": 288, "is_downbeat": true}, {"time": 300, "is_downbeat": true}, {"time": 312, "is_downbeat": true}, {"time": 324, "is_downbeat": true}, {"time": 336, "is_downbeat": false}, {"time": 348, "is_downbeat": false}, {"time": 360, "is_downbeat": true}, {"time": 372, "is_downbeat": false}, {"time": 384, "is_downbeat": true}, {"time": 396, "is_downbeat": true}, {"time": 408, "is_downbeat": true}, {"time": 420, "is_downbeat": true}, {"time": 432, "is_downbeat": true}, {"time": 444, "is_downbeat": true}, {"time": 456, "is_downbeat": true}, {"time": 468, "is_downbeat": true}, {"time": 480, "is_downbeat": true}, {"time": 492, "is_downbeat": true}, {"time": 504, "is_downbeat": false}, {"time": 516, "is_downbeat": false}, {"time": 528, "is_downbeat": false}, {"time": 540, "is_downbeat": false}], "tracks": [{"program": 0, "is_drum": false, "notes": [{"time": 0, "pitch": 64, "duration": 12, "velocity": 64}, {"time": 12, "pitch": 64, "duration": 12, "velocity": 64}, {"time": 24, "pitch": 71, "duration": 12, "velocity": 64}, {"time": 36, "pitch": 68, "duration": 12, "velocity": 64}, {"time": 48, "pitch": 68, "duration": 12, "velocity": 64}, {"time": 60, "pitch": 64, "duration": 6, "velocity": 64}, {"time": 66, "pitch": 66, "duration": 6, "velocity": 64}, {"time": 72, "pitch": 68, "duration": 6, "velocity": 64}, {"time": 78, "pitch": 61, "duration": 6, "velocity": 64}, {"time": 84, "pitch": 64, "duration": 12, "velocity": 64}, {"time": 96, "pitch": 64, "duration": 12, "velocity": 64}, {"time": 108, "pitch": 73, "duration": 6, "velocity": 64}, {"time": 114, "pitch": 71, "duration": 6, "velocity": 64}, {"time": 120, "pitch": 68, "duration": 12, "velocity": 64}, {"time": 132, "pitch": 68, "duration": 12, "velocity": 64}, {"time": 144, "pitch": 73, "duration": 12, "velocity": 64}, {"time": 156, "pitch": 68, "duration": 12, "velocity": 64}, {"time": 168, "pitch": 71, "duration": 6, "velocity": 64}, {"time": 174, "pitch": 68, "duration": 6, "velocity": 64}, {"time": 180, "pitch": 71, "duration": 12, "velocity": 64}, {"time": 192, "pitch": 71, "duration": 6, "velocity": 64}, {"time": 198, "pitch": 73, "duration": 6, "velocity": 64}, {"time": 204, "pitch": 64, "duration": 6, "velocity": 64}, {"time": 210, "pitch": 66, "duration": 6, "velocity": 64}, {"time": 216, "pitch": 68, "duration": 12, "velocity": 64}, {"time": 228, "pitch": 64, "duration": 18, "velocity": 64}, {"time": 246, "pitch": 66, "duration": 6, "velocity": 64}, {"time": 252, "pitch": 68, "duration": 24, "velocity": 64}, {"time": 276, "pitch": 68, "duration": 12, "velocity": 64}, {"time": 288, "pitch": 66, "duration": 12, "velocity": 64}, {"time": 300, "pitch": 66, "duration": 12, "velocity": 64}, {"time": 312, "pitch": 66, "duration": 6, "velocity": 64}, {"time": 318, "pitch": 68, "duration": 6, "velocity": 64}, {"time": 324, "pitch": 71, "duration": 48, "velocity": 64}, {"time": 372, "pitch": 64, "duration": 36, "velocity": 64}, {"time": 408, "pitch": 61, "duration": 12, "velocity": 64}, {"time": 420, "pitch": 59, "duration": 18, "velocity": 64}, {"time": 438, "pitch": 61, "duration": 6, "velocity": 64}, {"time": 444, "pitch": 64, "duration": 12, "velocity": 64}, {"time": 456, "pitch": 71, "duration": 6, "velocity": 64}, {"time": 462, "pitch": 68, "duration": 6, "velocity": 64}, {"time": 468, "pitch": 68, "duration": 6, "velocity": 64}, {"time": 474, "pitch": 66, "duration": 6, "velocity": 64}, {"time": 480, "pitch": 68, "duration": 6, "velocity": 64}, {"time": 486, "pitch": 71, "duration": 6, "velocity": 64}, {"time": 492, "pitch": 64, "duration": 48, "velocity": 64}]}]}