{"metadata": {"schema_version": "0.1", "title": "Dui Hua", "source_format": "abc"}, "resolution": 24, "tempos": [{"time": 0, "qpm": 120.0}], "key_signatures": [{"time": 0, "root": 10, "mode": "major", "fifths": -2}], "time_signatures": [{"time": 0, "numerator": 4, "denominator": 4}, {"time": 48, "numerator": 1, "denominator": 4}, {"time": 216, "numerator": 1, "denominator": 4}, {"time": 336, "numerator": 4, "denominator": 4}, {"time": 480, "numerator": 3, "denominator": 4}, {"time": 600, "numerator": 1, "denominator": 4}, {"time": 768, "numerator": 1, "denominator": 4}, {"time": 936, "numerator": 1, "denominator": 4}, {"time": 1056, "numerator": 1, "denominator": 4}, {"time": 1176, "numerator": 1, "denominator": 4}, {"time": 1248, "numerator": 3, "denominator": 4}, {"time": 1368, "numerator": 1, "denominator": 4}, {"time": 1392, "numerator": 2, "denominator": 4}], "beats": [{"time": 0, "is_downbeat": true}, {"time": 24, "is_downbeat": true}, {"time": 48, "is_downbeat": true}, {"time": 72, "is_downbeat": true}, {"time": 96, "is_downbeat": true}, {"time": 120, "is_downbeat": true}, {"time": 144, "is_downbeat": true}, {"time": 168, "is_downbeat": true}, {"time": 192, "is_downbeat": true}, {"time": 216, "is_downbeat": true}, {"time": 240, "is_downbeat": true}, {"time": 264, "is_downbeat": false}, {"time": 288, "is_downbeat": true}, {"time": 312, "is_downbeat": false}, {"time": 336, "is_downbeat": true}, {"time": 360, "is_downbeat": false}, {"time": 384, "is_downbeat": false}, {"time": 408, "is_downbeat": true}, {"time": 432, "is_downbeat": true}, {"time": 456, "is_downbeat": false}, {"time": 480, "is_downbeat": true}, {"time": 504, "is_downbeat": true}, {"time": 528, "is_downbeat": true}, {"time": 552, "is_downbeat": true}, {"time": 576, "is_downbeat": true}, {"time": 600, "is_downbeat": true}, {"time": 624, "is_downbeat": true}, {"time": 648, "is_downbeat": true}, {"time": 672, "is_downbeat": true}, {"time": 696, "is_downbeat": true}, {"time": 720, "is_downbeat": true}, {"time": 744, "is_downbeat": true}, {"time": 768, "is_downbeat": true}, {"time": 792, "is_downbeat": true}, {"time": 816, "is_downbeat": true}, {"time": 840, "is_downbeat": true}, {"time": 864, "is_downbeat": true}, {"time": 888, "is_downbeat": true}, {"time": 912, "is_downbeat": true}, {"time": 936, "is_downbeat": true}, {"time": 960, "is_downbeat": true}, {"time": 984, "is_downbeat": true}, {"time": 1008, "is_downbeat": true}, {"time": 1032, "is_downbeat": true}, {"time": 1056, "is_downbeat": true}, {"time": 1080, "is_downbeat": true}, {"time": 1104, "is_downbeat": true}, {"time": 1128, "is_downbeat": true}, {"time": 1152, "is_downbeat": true}, {"time": 1176, "is_downbeat": true}, {"time": 1200, "is_downbeat": true}, {"time": 1224, "is_downbeat": false}, {"time": 1248, "is_downbeat": true}, {"time": 1272, "is_downbeat": true}, {"time": 1296, "is_downbeat": true}, {"time": 1320, "is_downbeat": true}, {"time": 1344, "is_downbeat": true}, {"time": 1368, "is_downbeat": true}, {"time": 1392, "is_downbeat": true}, {"time": 1416, "is_downbeat": false}, {"time": 1440, "is_downbeat": true}, {"time": 1464, "is_downbeat": false}], "tracks": [{"program": 0, "is_drum": false, "notes": [{"time": 0, "pitch": 77, "duration": 24, "velocity": 64}, {"time": 24, "pitch": 72, "duration": 12, "velocity": 64}, {"time": 36, "pitch": 74, "duration": 6, "velocity": 64}, {"time": 42, "pitch": 77, "duration": 6, "velocity": 64}, {"time": 48, "pitch": 74, "duration": 6, "velocity": 64}, {"time": 54, "pitch": 72, "duration": 6, "velocity": 64}, {"time": 60, "pitch": 74, "duration": 12, "velocity": 64}, {"time": 72, "pitch": 72, "duration": 12, "velocity": 64}, {"time": 84, "pitch": 82, "duration": 12, "velocity": 64}, {"time": 96, "pitch": 72, "duration": 24, "velocity": 64}, {"time": 120, "pitch": 72, "duration": 12, "velocity": 64}, {"time": 132, "pitch": 74, "duration": 6, "velocity": 64}, {"time": 138, "pitch": 77, "duration": 6, "velocity": 64}, {"time": 144, "pitch": 74, "duration": 6, "velocity": 64}, {"time": 150, "pitch": 72, "duration": 6, "velocity": 64}, {"time": 156, "pitch": 81, "duration": 6, "velocity": 64}, {"time": 162, "pitch": 79, "duration": 6, "velocity": 64}, {"time": 168, "pitch": 77, "duration": 12, "velocity": 64}, {"time": 180, "pitch": 72, "duration": 12, "velocity": 64}, {"time": 192, "pitch": 77, "duration": 12, "velocity": 64}, {"time": 204, "pitch": 74, "duration": 6, "velocity": 64}, {"time": 210, "pitch": 77, "duration": 6, "velocity": 64}, {"time": 216, "pitch": 74, "duration": 6, "velocity": 64}, {"time": 222, "pitch": 72, "duration": 6, "velocity": 64}, {"time": 228, "pitch": 74, "duration": 12, "velocity": 64}, {"time": 240, "pitch": 82, "duration": 12, "velocity": 64}, {"time": 252, "pitch": 72, "duration": 12, "velocity": 64}, {"time": 264, "pitch": 77, "duration": 12, "velocity": 64}, {"time": 276, "pitch": 77, "duration": 12, "velocity": 64}, {"time": 288, "pitch": 82, "duration": 36, "velocity": 64}, {"time": 324, "pitch": 79, "duration": 6, "velocity": 64}, {"time": 330, "pitch": 77, "duration": 6, "velocity": 64}, {"time": 336, "pitch": 74, "duration": 12, "velocity": 64}, {"time": 360, "pitch": 77, "duration": 24, "velocity": 64}, {"time": 384, "pitch": 72, "duration": 12, "velocity": 64}, {"time": 396, "pitch": 74, "duration": 6, "velocity": 64}, {"time": 402, "pitch": 77, "duration": 6, "velocity": 64}, {"time": 408, "pitch": 74, "duration": 6, "velocity": 64}, {"time": 414, "pitch": 72, "duration": 6, "velocity": 64}, {"time": 420, "pitch": 74, "duration": 12, "velocity": 64}, {"time": 432, "pitch": 72, "duration": 24, "velocity": 64}, {"time": 456, "pitch": 72, "duration": 12, "velocity": 64}, {"time": 468, "pitch": 74, "duration": 6, "velocity": 64}, {"time": 474, "pitch": 77, "duration": 6, "velocity": 64}, {"time": 480, "pitch": 74, "duration": 6, "velocity": 64}, {"time": 486, "pitch": 72, "duration": 6, "velocity": 64}, {"time": 492, "pitch": 81, "duration": 6, "velocity": 64}, {"time": 498, "pitch": 79, "duration": 6, "velocity": 64}, {"time": 504, "pitch": 77, "duration": 24, "velocity": 64}, {"time": 528, "pitch": 82, "duration": 6, "velocity": 64}, {"time": 534, "pitch": 72, "duration": 6, "velocity": 64}, {"time": 540, "pitch": 74, "duration": 12, "velocity": 64}, {"time": 552, "pitch": 82, "duration": 24, "velocity": 64}, {"time": 576, "pitch": 72, "duration": 12, "velocity": 64}, {"time": 588, "pitch": 82, "duration": 12, "velocity": 64}, {"time": 600, "pitch": 81, "duration": 12, "velocity": 64}, {"time": 612, "pitch": 79, "duration": 12, "velocity": 64}, {"time": 624, "pitch": 77, "duration": 12, "velocity": 64}, {"time": 636, "pitch": 77, "duration": 6, "velocity": 64}, {"time": 642, "pitch": 74, "duration": 6, "velocity": 64}, {"time": 648, "pitch": 77, "duration": 24, "velocity": 64}, {"time": 672, "pitch": 74, "duration": 12, "velocity": 64}, {"time": 720, "pitch": 77, "duration": 24, "velocity": 64}, {"time": 744, "pitch": 72, "duration": 12, "velocity": 64}, {"time": 756, "pitch": 74, "duration": 6, "velocity": 64}, {"time": 762, "pitch": 77, "duration": 6, "velocity": 64}, {"time": 768, "pitch": 74, "duration": 6, "velocity": 64}, {"time": 774, "pitch": 72, "duration": 6, "velocity": 64}, {"time": 780, "pitch": 74, "duration": 12, "velocity": 64}, {"time": 792, "pitch": 77, "duration": 12, "velocity": 64}, {"time": 804, "pitch": 82, "duration": 12, "velocity": 64}, {"time": 816, "pitch": 72, "duration": 24, "velocity": 64}, {"time": 840, "pitch": 72, "duration": 12, "velocity": 64}, {"time": 852, "pitch": 74, "duration": 6, "velocity": 64}, {"time": 858, "pitch": 77, "duration": 6, "velocity": 64}, {"time": 864, "pitch": 74, "duration": 6, "velocity": 64}, {"time": 870, "pitch": 72, "duration": 6, "velocity": 64}, {"time": 876, "pitch": 81, "duration": 6, "velocity": 64}, {"time": 882, "pitch": 79, "duration": 6, "velocity": 64}, {"time": 888, "pitch": 77, "duration": 12, "velocity": 64}, {"time": 900, "pitch": 72, "duration": 12, "velocity": 64}, {"time": 912, "pitch": 77, "duration": 12, "velocity": 64}, {"time": 924, "pitch": 74, "duration": 6, "velocity": 64}, {"time": 930, "pitch": 77, "duration": 6, "velocity": 64}, {"time": 936, "pitch": 74, "duration": 6, "velocity": 64}, {"time": 942, "pitch": 72, "duration": 6, "velocity": 64}, {"time": 948, "pitch": 74, "duration": 12, "velocity": 64}, {"time": 960, "pitch": 82, "duration": 12, "velocity": 64}, {"time": 972, "pitch": 72, "duration": 12, "velocity": 64}, {"time": 984, "pitch": 77, "duration": 12, "velocity": 64}, {"time": 996, "pitch": 77, "duration": 12, "velocity": 64}, {"time": 1008, "pitch": 82, "duration": 36, "velocity": 64}, {"time": 1044, "pitch": 79, "duration": 6, "velocity": 64}, {"time": 1050, "pitch": 77, "duration": 6, "velocity": 64}, {"time": 1056, "pitch": 74, "duration": 12, "velocity": 64}, {"time": 1128, "pitch": 77, "duration": 24, "velocity": 64}, {"time": 1152, "pitch": 72, "duration": 12, "velocity": 64}, {"time": 1164, "pitch": 74, "duration": 6, "velocity": 64}, {"time": 1170, "pitch": 77, "duration": 6, "velocity": 64}, {"time": 1176, "pitch": 74, "duration": 6, "velocity": 64}, {"time": 1182, "pitch": 72, "duration": 6, "velocity": 64}, {"time": 1188, "pitch": 74, "duration": 12, "velocity": 64}, {"time": 1200, "pitch": 72, "duration": 24, "velocity": 64}, {"time": 1224, "pitch": 72, "duration": 12, "velocity": 64}, {"time": 1236, "pitch": 74, "duration": 6, "velocity": 64}, {"time": 1242, "pitch": 77, "duration": 6, "velocity": 64}, {"time": 1248, "pitch": 74, "duration": 6, "velocity": 64}, {"time": 1254, "pitch": 72, "duration": 6, "velocity": 64}, {"time": 1260, "pitch": 81, "duration": 6, "velocity": 64}, {"time": 1266, "pitch": 79, "duration": 6, "velocity": 64}, {"time": 1272, "pitch": 77, "duration": 24, "velocity": 64}, {"time": 1296, "pitch": 82, "duration": 6, "velocity": 64}, {"time": 1302, "pitch": 72, "duration": 6, "velocity": 64}, {"time": 1308, "pitch": 74, "duration": 12, "velocity": 64}, {"time": 1320, "pitch": 82, "duration": 24, "velocity": 64}, {"time": 1344, "pitch": 72, "duration": 12, "velocity": 64}, {"time": 1356, "pitch": 82, "duration": 12, "velocity": 64}, {"time": 1368, "pitch": 81, "duration": 12, "velocity": 64}, {"time": 1380, "pitch": 79, "duration": 12, "velocity": 64}, {"time": 1392, "pitch": 77, "duration": 12, "velocity": 64}, {"time": 1404, "pitch": 77, "duration": 6, "velocity": 64}, {"time": 1410, "pitch": 74, "duration": 6, "velocity": 64}, {"time": 1416, "pitch": 77, "duration": 24, "velocity": 64}, {"time": 1440, "pitch": 74, "duration": 12, "velocity": 64}]}]}