{"metadata": {"schema_version": "0.1", "title": "Yu e lang", "source_format": "abc"}, "resolution": 24, "tempos": [{"time": 0, "qpm": 120.0}], "key_signatures": [{"time": 0, "root": 7, "mode": "major", "fifths": 1}], "time_signatures": [{"time": 0, "numerator": 4, "denominator": 4}], "beats": [{"time": 0, "is_downbeat": true}, {"time": 24, "is_downbeat": false}, {"time": 48, "is_downbeat": false}, {"time": 72, "is_downbeat": false}, {"time": 96, "is_downbeat": true}, {"time": 120, "is_downbeat": false}, {"time": 144, "is_downbeat": false}, {"time": 168, "is_downbeat": false}, {"time": 192, "is_downbeat": true}, {"time": 216, "is_downbeat": false}, {"time": 240, "is_downbeat": false}, {"time": 264, "is_downbeat": false}, {"time": 288, "is_downbeat": true}, {"time": 312, "is_downbeat": false}, {"time": 336, "is_downbeat": false}, {"time": 360, "is_downbeat": false}, {"time": 384, "is_downbeat": true}, {"time": 408, "is_downbeat": false}, {"time": 432, "is_downbeat": false}, {"time": 456, "is_downbeat": false}, {"time": 480, "is_downbeat": true}, {"time": 504, "is_downbeat": false}, {"time": 528, "is_downbeat": false}, {"time": 552, "is_downbeat": false}, {"time": 576, "is_downbeat": true}, {"time": 600, "is_downbeat": false}, {"time": 624, "is_downbeat": false}, {"time": 648, "is_downbeat": false}, {"time": 672, "is_downbeat": true}, {"time": 696, "is_downbeat": false}, {"time": 720, "is_downbeat": false}, {"time": 744, "is_downbeat": false}, {"time": 768, "is_downbeat": true}, {"time": 792, "is_downbeat": false}, {"time": 816, "is_downbeat": false}, {"time": 840, "is_downbeat": false}, {"time": 864, "is_downbeat": true}, {"time": 888, "is_downbeat": false}, {"time": 912, "is_downbeat": false}, {"time": 936, "is_downbeat": false}, {"time": 960, "is_downbeat": true}, {"time": 984, "is_downbeat": false}, {"time": 1008, "is_downbeat": false}, {"time": 1032, "is_downbeat": false}, {"time": 1056, "is_downbeat": true}, {"time": 1080, "is_downbeat": false}, {"time": 1104, "is_downbeat": false}, {"time": 1128, "is_downbeat": false}, {"time": 1152, "is_downbeat": true}, {"time": 1176, "is_downbeat": false}, {"time": 1200, "is_downbeat": false}, {"time": 1224, "is_downbeat": false}, {"time": 1248, "is_downbeat": true}, {"time": 1272, "is_downbeat": false}, {"time": 1296, "is_downbeat": false}, {"time": 1320, "is_downbeat": false}, {"time": 1344, "is_downbeat": true}, {"time": 1368, "is_downbeat": false}, {"time": 1392, "is_downbeat": false}, {"time": 1416, "is_downbeat": false}, {"time": 1440, "is_downbeat": true}, {"time": 1464, "is_downbeat": false}, {"time": 1488, "is_downbeat": false}, {"time": 1512, "is_downbeat": false}, {"time": 1536, "is_downbeat": true}, {"time": 1560, "is_downbeat": false}, {"time": 1584, "is_downbeat": false}, {"time": 1608, "is_downbeat": false}, {"time": 1632, "is_downbeat": true}, {"time": 1656, "is_downbeat": false}, {"time": 1680, "is_downbeat": false}, {"time": 1704, "is_downbeat": false}, {"time": 1728, "is_downbeat": true}, {"time": 1752, "is_downbeat": false}, {"time": 1776, "is_downbeat": false}, {"time": 1800, "is_downbeat": false}, {"time": 1824, "is_downbeat": true}, {"time": 1848, "is_downbeat": false}, {"time": 1872, "is_downbeat": false}, {"time": 1896, "is_downbeat": false}, {"time": 1920, "is_downbeat": true}, {"time": 1944, "is_downbeat": false}, {"time": 1968, "is_downbeat": false}, {"time": 1992, "is_downbeat": false}, {"time": 2016, "is_downbeat": true}, {"time": 2040, "is_downbeat": false}, {"time": 2064, "is_downbeat": false}, {"time": 2088, "is_downbeat": false}, {"time": 2112, "is_downbeat": true}, {"time": 2136, "is_downbeat": false}, {"time": 2160, "is_downbeat": false}, {"time": 2184, "is_downbeat": false}, {"time": 2208, "is_downbeat": true}, {"time": 2232, "is_downbeat": false}, {"time": 2256, "is_downbeat": false}, {"time": 2280, "is_downbeat": false}, {"time": 2304, "is_downbeat": true}, {"time": 2328, "is_downbeat": false}, {"time": 2352, "is_downbeat": false}, {"time": 2376, "is_downbeat": false}, {"time": 2400, "is_downbeat": true}, {"time": 2424, "is_downbeat": false}, {"time": 2448, "is_downbeat": false}, {"time": 2472, "is_downbeat": false}, {"time": 2496, "is_downbeat": true}, {"time": 2520, "is_downbeat": false}, {"time": 2544, "is_downbeat": false}, {"time": 2568, "is_downbeat": false}, {"time": 2592, "is_downbeat": true}, {"time": 2616, "is_downbeat": false}, {"time": 2640, "is_downbeat": false}, {"time": 2664, "is_downbeat": false}, {"time": 2688, "is_downbeat": true}, {"time": 2712, "is_downbeat": false}, {"time": 2736, "is_downbeat": false}, {"time": 2760, "is_downbeat": false}, {"time": 2784, "is_downbeat": true}, {"time": 2808, "is_downbeat": false}, {"time": 2832, "is_downbeat": false}, {"time": 2856, "is_downbeat": false}, {"time": 2880, "is_downbeat": true}, {"time": 2904, "is_downbeat": false}, {"time": 2928, "is_downbeat": false}, {"time": 2952, "is_downbeat": false}, {"time": 2976, "is_downbeat": true}, {"time": 3000, "is_downbeat": false}, {"time": 3024, "is_downbeat": false}, {"time": 3048, "is_downbeat": false}, {"time": 3072, "is_downbeat": true}, {"time": 3096, "is_downbeat": false}, {"time": 3120, "is_downbeat": false}, {"time": 3144, "is_downbeat": false}, {"time": 3168, "is_downbeat": true}, {"time": 3192, "is_downbeat": false}, {"time": 3216, "is_downbeat": false}, {"time": 3240, "is_downbeat": false}, {"time": 3264, "is_downbeat": true}, {"time": 3288, "is_downbeat": false}, {"time": 3312, "is_downbeat": false}, {"time": 3336, "is_downbeat": false}, {"time": 3360, "is_downbeat": true}, {"time": 3384, "is_downbeat": false}, {"time": 3408, "is_downbeat": false}, {"time": 3432, "is_downbeat": false}, {"time": 3456, "is_downbeat": true}, {"time": 3480, "is_downbeat": false}, {"time": 3504, "is_downbeat": false}, {"time": 3528, "is_downbeat": false}, {"time": 3552, "is_downbeat": true}, {"time": 3576, "is_downbeat": false}, {"time": 3600, "is_downbeat": false}, {"time": 3624, "is_downbeat": false}, {"time": 3648, "is_downbeat": true}, {"time": 3672, "is_downbeat": false}, {"time": 3696, "is_downbeat": false}, {"time": 3720, "is_downbeat": false}, {"time": 3744, "is_downbeat": true}, {"time": 3768, "is_downbeat": false}, {"time": 3792, "is_downbeat": false}, {"time": 3816, "is_downbeat": false}, {"time": 3840, "is_downbeat": true}, {"time": 3864, "is_downbeat": false}, {"time": 3888, "is_downbeat": false}, {"time": 3912, "is_downbeat": false}, {"time": 3936, "is_downbeat": true}, {"time": 3960, "is_downbeat": false}, {"time": 3984, "is_downbeat": false}, {"time": 4008, "is_downbeat": false}, {"time": 4032, "is_downbeat": true}, {"time": 4056, "is_downbeat": false}, {"time": 4080, "is_downbeat": false}, {"time": 4104, "is_downbeat": false}, {"time": 4128, "is_downbeat": true}, {"time": 4152, "is_downbeat": false}, {"time": 4176, "is_downbeat": false}, {"time": 4200, "is_downbeat": false}, {"time": 4224, "is_downbeat": true}, {"time": 4248, "is_downbeat": false}, {"time": 4272, "is_downbeat": false}, {"time": 4296, "is_downbeat": false}, {"time": 4320, "is_downbeat": true}, {"time": 4344, "is_downbeat": false}, {"time": 4368, "is_downbeat": false}, {"time": 4392, "is_downbeat": false}, {"time": 4416, "is_downbeat": true}, {"time": 4440, "is_downbeat": false}, {"time": 4464, "is_downbeat": false}, {"time": 4488, "is_downbeat": false}, {"time": 4512, "is_downbeat": true}, {"time": 4536, "is_downbeat": false}, {"time": 4560, "is_downbeat": false}, {"time": 4584, "is_downbeat": false}, {"time": 4608, "is_downbeat": true}, {"time": 4632, "is_downbeat": false}, {"time": 4656, "is_downbeat": false}, {"time": 4680, "is_downbeat": false}], "tracks": [{"program": 0, "is_drum": false, "notes": [{"time": 0, "pitch": 71, "duration": 96, "velocity": 64}, {"time": 96, "pitch": 74, "duration": 96, "velocity": 64}, {"time": 192, "pitch": 64, "duration": 96, "velocity": 64}, {"time": 288, "pitch": 71, "duration": 12, "velocity": 64}, {"time": 300, "pitch": 76, "duration": 12, "velocity": 64}, {"time": 312, "pitch": 74, "duration": 12, "velocity": 64}, {"time": 324, "pitch": 71, "duration": 12, "velocity": 64}, {"time": 336, "pitch": 67, "duration": 36, "velocity": 64}, {"time": 372, "pitch": 69, "duration": 6, "velocity": 64}, {"time": 378, "pitch": 71, "duration": 6, "velocity": 64}, {"time": 384, "pitch": 67, "duration": 48, "velocity": 64}, {"time": 432, "pitch": 66, "duration": 12, "velocity": 64}, {"time": 444, "pitch": 64, "duration": 12, "velocity": 64}, {"time": 456, "pitch": 62, "duration": 12, "velocity": 64}, {"time": 468, "pitch": 64, "duration": 12, "velocity": 64}, {"time": 480, "pitch": 67, "duration": 36, "velocity": 64}, {"time": 516, "pitch": 69, "duration": 6, "velocity": 64}, {"time": 522, "pitch": 71, "duration": 6, "velocity": 64}, {"time": 528, "pitch": 67, "duration": 48, "velocity": 64}, {"time": 576, "pitch": 74, "duration": 18, "velocity": 64}, {"time": 594, "pitch": 76, "duration": 6, "velocity": 64}, {"time": 600, "pitch": 74, "duration": 12, "velocity": 64}, {"time": 612, "pitch": 76, "duration": 12, "velocity": 64}, {"time": 624, "pitch": 79, "duration": 12, "velocity": 64}, {"time": 636, "pitch": 81, "duration": 12, "velocity": 64}, {"time": 648, "pitch": 79, "duration": 12, "velocity": 64}, {"time": 660, "pitch": 76, "duration": 12, "velocity": 64}, {"time": 672, "pitch": 74, "duration": 12, "velocity": 64}, {"time": 684, "pitch": 79, "duration": 12, "velocity": 64}, {"time": 696, "pitch": 76, "duration": 12, "velocity": 64}, {"time": 708, "pitch": 74, "duration": 12, "velocity": 64}, {"time": 720, "pitch": 71, "duration": 18, "velocity": 64}, {"time": 738, "pitch": 74, "duration": 6, "velocity": 64}, {"time": 744, "pitch": 71, "duration": 24, "velocity": 64}, {"time": 768, "pitch": 69, "duration": 48, "velocity": 64}, {"time": 816, "pitch": 71, "duration": 12, "velocity": 64}, {"time": 828, "pitch": 74, "duration": 12, "velocity": 64}, {"time": 840, "pitch": 71, "duration": 12, "velocity": 64}, {"time": 852, "pitch": 69, "duration": 12, "velocity": 64}, {"time": 864, "pitch": 67, "duration": 36, "velocity": 64}, {"time": 900, "pitch": 69, "duration": 6, "velocity": 64}, {"time": 906, "pitch": 71, "duration": 6, "velocity": 64}, {"time": 912, "pitch": 67, "duration": 48, "velocity": 64}, {"time": 960, "pitch": 69, "duration": 12, "velocity": 64}, {"time": 984, "pitch": 71, "duration": 12, "velocity": 64}, {"time": 1008, "pitch": 66, "duration": 12, "velocity": 64}, {"time": 1020, "pitch": 64, "duration": 12, "velocity": 64}, {"time": 1032, "pitch": 62, "duration": 12, "velocity": 64}, {"time": 1044, "pitch": 64, "duration": 12, "velocity": 64}, {"time": 1056, "pitch": 67, "duration": 36, "velocity": 64}, {"time": 1092, "pitch": 69, "duration": 6, "velocity": 64}, {"time": 1098, "pitch": 71, "duration": 6, "velocity": 64}, {"time": 1104, "pitch": 67, "duration": 48, "velocity": 64}, {"time": 1152, "pitch": 69, "duration": 12, "velocity": 64}, {"time": 1176, "pitch": 71, "duration": 12, "velocity": 64}, {"time": 1200, "pitch": 66, "duration": 12, "velocity": 64}, {"time": 1212, "pitch": 64, "duration": 12, "velocity": 64}, {"time": 1224, "pitch": 62, "duration": 12, "velocity": 64}, {"time": 1236, "pitch": 64, "duration": 12, "velocity": 64}, {"time": 1248, "pitch": 67, "duration": 36, "velocity": 64}, {"time": 1284, "pitch": 69, "duration": 6, "velocity": 64}, {"time": 1290, "pitch": 71, "duration": 6, "velocity": 64}, {"time": 1296, "pitch": 67, "duration": 48, "velocity": 64}, {"time": 1344, "pitch": 71, "duration": 12, "velocity": 64}, {"time": 1356, "pitch": 69, "duration": 12, "velocity": 64}, {"time": 1368, "pitch": 74, "duration": 12, "velocity": 64}, {"time": 1380, "pitch": 69, "duration": 12, "velocity": 64}, {"time": 1392, "pitch": 71, "duration": 36, "velocity": 64}, {"time": 1440, "pitch": 74, "duration": 24, "velocity": 64}, {"time": 1464, "pitch": 76, "duration": 12, "velocity": 64}, {"time": 1476, "pitch": 79, "duration": 12, "velocity": 64}, {"time": 1488, "pitch": 74, "duration": 24, "velocity": 64}, {"time": 1512, "pitch": 66, "duration": 24, "velocity": 64}, {"time": 1536, "pitch": 64, "duration": 24, "velocity": 64}, {"time": 1560, "pitch": 64, "duration": 24, "velocity": 64}, {"time": 1584, "pitch": 76, "duration": 12, "velocity": 64}, {"time": 1596, "pitch": 71, "duration": 12, "velocity": 64}, {"time": 1608, "pitch": 69, "duration": 12, "velocity": 64}, {"time": 1620, "pitch": 64, "duration": 12, "velocity": 64}, {"time": 1632, "pitch": 62, "duration": 36, "velocity": 64}, {"time": 1668, "pitch": 64, "duration": 6, "velocity": 64}, {"time": 1674, "pitch": 67, "duration": 6, "velocity": 64}, {"time": 1680, "pitch": 62, "duration": 48, "velocity": 64}, {"time": 1728, "pitch": 64, "duration": 24, "velocity": 64}, {"time": 1752, "pitch": 67, "duration": 12, "velocity": 64}, {"time": 1764, "pitch": 62, "duration": 12, "velocity": 64}, {"time": 1776, "pitch": 64, "duration": 24, "velocity": 64}, {"time": 1800, "pitch": 67, "duration": 24, "velocity": 64}, {"time": 1824, "pitch": 74, "duration": 24, "velocity": 64}, {"time": 1848, "pitch": 76, "duration": 24, "velocity": 64}, {"time": 1872, "pitch": 74, "duration": 24, "velocity": 64}, {"time": 1896, "pitch": 66, "duration": 24, "velocity": 64}, {"time": 1920, "pitch": 64, "duration": 24, "velocity": 64}, {"time": 1944, "pitch": 64, "duration": 24, "velocity": 64}, {"time": 1968, "pitch": 64, "duration": 12, "velocity": 64}, {"time": 1980, "pitch": 71, "duration": 12, "velocity": 64}, {"time": 1992, "pitch": 69, "duration": 12, "velocity": 64}, {"time": 2004, "pitch": 64, "duration": 12, "velocity": 64}, {"time": 2016, "pitch": 67, "duration": 12, "velocity": 64}, {"time": 2028, "pitch": 62, "duration": 24, "velocity": 64}, {"time": 2052, "pitch": 64, "duration": 12, "velocity": 64}, {"time": 2064, "pitch": 62, "duration": 48, "velocity": 64}, {"time": 2112, "pitch": 74, "duration": 18, "velocity": 64}, {"time": 2130, "pitch": 76, "duration": 6, "velocity": 64}, {"time": 2136, "pitch": 74, "duration": 12, "velocity": 64}, {"time": 2148, "pitch": 76, "duration": 12, "velocity": 64}, {"time": 2160, "pitch": 79, "duration": 18, "velocity": 64}, {"time": 2178, "pitch": 81, "duration": 6, "velocity": 64}, {"time": 2184, "pitch": 79, "duration": 12, "velocity": 64}, {"time": 2196, "pitch": 76, "duration": 12, "velocity": 64}, {"time": 2208, "pitch": 74, "duration": 18, "velocity": 64}, {"time": 2226, "pitch": 79, "duration": 6, "velocity": 64}, {"time": 2232, "pitch": 76, "duration": 12, "velocity": 64}, {"time": 2244, "pitch": 74, "duration": 12, "velocity": 64}, {"time": 2256, "pitch": 71, "duration": 6, "velocity": 64}, {"time": 2262, "pitch": 74, "duration": 6, "velocity": 64}, {"time": 2268, "pitch": 71, "duration": 6, "velocity": 64}, {"time": 2274, "pitch": 74, "duration": 6, "velocity": 64}, {"time": 2280, "pitch": 71, "duration": 24, "velocity": 64}, {"time": 2304, "pitch": 69, "duration": 48, "velocity": 64}, {"time": 2352, "pitch": 71, "duration": 12, "velocity": 64}, {"time": 2364, "pitch": 74, "duration": 12, "velocity": 64}, {"time": 2376, "pitch": 71, "duration": 12, "velocity": 64}, {"time": 2388, "pitch": 69, "duration": 12, "velocity": 64}, {"time": 2400, "pitch": 67, "duration": 36, "velocity": 64}, {"time": 2436, "pitch": 69, "duration": 6, "velocity": 64}, {"time": 2442, "pitch": 71, "duration": 6, "velocity": 64}, {"time": 2448, "pitch": 67, "duration": 48, "velocity": 64}, {"time": 2496, "pitch": 66, "duration": 12, "velocity": 64}, {"time": 2508, "pitch": 64, "duration": 12, "velocity": 64}, {"time": 2520, "pitch": 62, "duration": 12, "velocity": 64}, {"time": 2532, "pitch": 64, "duration": 12, "velocity": 64}, {"time": 2544, "pitch": 67, "duration": 36, "velocity": 64}, {"time": 2580, "pitch": 69, "duration": 6, "velocity": 64}, {"time": 2586, "pitch": 71, "duration": 6, "velocity": 64}, {"time": 2592, "pitch": 67, "duration": 48, "velocity": 64}, {"time": 2640, "pitch": 69, "duration": 24, "velocity": 64}, {"time": 2664, "pitch": 71, "duration": 12, "velocity": 64}, {"time": 2676, "pitch": 74, "duration": 12, "velocity": 64}, {"time": 2688, "pitch": 66, "duration": 12, "velocity": 64}, {"time": 2700, "pitch": 64, "duration": 12, "velocity": 64}, {"time": 2712, "pitch": 62, "duration": 12, "velocity": 64}, {"time": 2724, "pitch": 64, "duration": 12, "velocity": 64}, {"time": 2736, "pitch": 67, "duration": 36, "velocity": 64}, {"time": 2772, "pitch": 69, "duration": 6, "velocity": 64}, {"time": 2778, "pitch": 71, "duration": 6, "velocity": 64}, {"time": 2784, "pitch": 67, "duration": 48, "velocity": 64}, {"time": 2832, "pitch": 69, "duration": 12, "velocity": 64}, {"time": 2856, "pitch": 71, "duration": 24, "velocity": 64}, {"time": 2880, "pitch": 66, "duration": 12, "velocity": 64}, {"time": 2892, "pitch": 64, "duration": 12, "velocity": 64}, {"time": 2904, "pitch": 62, "duration": 12, "velocity": 64}, {"time": 2916, "pitch": 64, "duration": 12, "velocity": 64}, {"time": 2928, "pitch": 67, "duration": 36, "velocity": 64}, {"time": 2964, "pitch": 69, "duration": 6, "velocity": 64}, {"time": 2970, "pitch": 71, "duration": 6, "velocity": 64}, {"time": 2976, "pitch": 67, "duration": 48, "velocity": 64}, {"time": 3024, "pitch": 71, "duration": 24, "velocity": 64}, {"time": 3048, "pitch": 74, "duration": 12, "velocity": 64}, {"time": 3060, "pitch": 69, "duration": 12, "velocity": 64}, {"time": 3072, "pitch": 71, "duration": 24, "velocity": 64}, {"time": 3096, "pitch": 71, "duration": 24, "velocity": 64}, {"time": 3120, "pitch": 74, "duration": 18, "velocity": 64}, {"time": 3138, "pitch": 76, "duration": 6, "velocity": 64}, {"time": 3144, "pitch": 74, "duration": 12, "velocity": 64}, {"time": 3156, "pitch": 76, "duration": 12, "velocity": 64}, {"time": 3168, "pitch": 79, "duration": 12, "velocity": 64}, {"time": 3180, "pitch": 81, "duration": 12, "velocity": 64}, {"time": 3192, "pitch": 79, "duration": 12, "velocity": 64}, {"time": 3204, "pitch": 76, "duration": 12, "velocity": 64}, {"time": 3216, "pitch": 74, "duration": 12, "velocity": 64}, {"time": 3228, "pitch": 79, "duration": 12, "velocity": 64}, {"time": 3240, "pitch": 76, "duration": 12, "velocity": 64}, {"time": 3252, "pitch": 74, "duration": 12, "velocity": 64}, {"time": 3264, "pitch": 71, "duration": 48, "velocity": 64}, {"time": 3312, "pitch": 69, "duration": 48, "velocity": 64}, {"time": 3360, "pitch": 71, "duration": 18, "velocity": 64}, {"time": 3378, "pitch": 74, "duration": 6, "velocity": 64}, {"time": 3384, "pitch": 71, "duration": 12, "velocity": 64}, {"time": 3396, "pitch": 69, "duration": 12, "velocity": 64}, {"time": 3408, "pitch": 67, "duration": 36, "velocity": 64}, {"time": 3444, "pitch": 69, "duration": 6, "velocity": 64}, {"time": 3450, "pitch": 71, "duration": 6, "velocity": 64}, {"time": 3456, "pitch": 67, "duration": 48, "velocity": 64}, {"time": 3504, "pitch": 66, "duration": 12, "velocity": 64}, {"time": 3528, "pitch": 66, "duration": 12, "velocity": 64}, {"time": 3552, "pitch": 66, "duration": 12, "velocity": 64}, {"time": 3564, "pitch": 64, "duration": 12, "velocity": 64}, {"time": 3576, "pitch": 62, "duration": 12, "velocity": 64}, {"time": 3588, "pitch": 64, "duration": 12, "velocity": 64}, {"time": 3600, "pitch": 67, "duration": 36, "velocity": 64}, {"time": 3636, "pitch": 69, "duration": 6, "velocity": 64}, {"time": 3642, "pitch": 71, "duration": 6, "velocity": 64}, {"time": 3648, "pitch": 67, "duration": 48, "velocity": 64}, {"time": 3696, "pitch": 69, "duration": 12, "velocity": 64}, {"time": 3720, "pitch": 71, "duration": 24, "velocity": 64}, {"time": 3744, "pitch": 66, "duration": 12, "velocity": 64}, {"time": 3756, "pitch": 64, "duration": 12, "velocity": 64}, {"time": 3768, "pitch": 62, "duration": 12, "velocity": 64}, {"time": 3780, "pitch": 64, "duration": 12, "velocity": 64}, {"time": 3792, "pitch": 67, "duration": 36, "velocity": 64}, {"time": 3828, "pitch": 69, "duration": 6, "velocity": 64}, {"time": 3834, "pitch": 71, "duration": 6, "velocity": 64}, {"time": 3840, "pitch": 67, "duration": 48, "velocity": 64}, {"time": 3888, "pitch": 71, "duration": 24, "velocity": 64}, {"time": 3912, "pitch": 74, "duration": 12, "velocity": 64}, {"time": 3924, "pitch": 69, "duration": 12, "velocity": 64}, {"time": 3936, "pitch": 71, "duration": 24, "velocity": 64}, {"time": 3960, "pitch": 71, "duration": 24, "velocity": 64}, {"time": 3984, "pitch": 74, "duration": 24, "velocity": 64}, {"time": 4008, "pitch": 76, "duration": 24, "velocity": 64}, {"time": 4032, "pitch": 74, "duration": 24, "velocity": 64}, {"time": 4056, "pitch": 66, "duration": 12, "velocity": 64}, {"time": 4080, "pitch": 64, "duration": 24, "velocity": 64}, {"time": 4104, "pitch": 64, "duration": 12, "velocity": 64}, {"time": 4128, "pitch": 64, "duration": 12, "velocity": 64}, {"time": 4140, "pitch": 71, "duration": 12, "velocity": 64}, {"time": 4152, "pitch": 69, "duration": 12, "velocity": 64}, {"time": 4164, "pitch": 64, "duration": 12, "velocity": 64}, {"time": 4176, "pitch": 62, "duration": 36, "velocity": 64}, {"time": 4212, "pitch": 64, "duration": 6, "velocity": 64}, {"time": 4218, "pitch": 67, "duration": 6, "velocity": 64}, {"time": 4224, "pitch": 62, "duration": 48, "velocity": 64}, {"time": 4272, "pitch": 74, "duration": 24, "velocity": 64}, {"time": 4296, "pitch": 74, "duration": 12, "velocity": 64}, {"time": 4308, "pitch": 69, "duration": 12, "velocity": 64}, {"time": 4320, "pitch": 71, "duration": 24, "velocity": 64}, {"time": 4344, "pitch": 71, "duration": 24, "velocity": 64}, {"time": 4368, "pitch": 74, "duration": 24, "velocity": 64}, {"time": 4392, "pitch": 76, "duration": 24, "velocity": 64}, {"time": 4416, "pitch": 74, "duration": 24, "velocity": 64}, {"time": 4440, "pitch": 66, "duration": 12, "velocity": 64}, {"time": 4464, "pitch": 64, "duration": 24, "velocity": 64}, {"time": 4488, "pitch": 64, "duration": 12, "velocity": 64}, {"time": 4512, "pitch": 64, "duration": 12, "velocity": 64}, {"time": 4524, "pitch": 71, "duration": 12, "velocity": 64}, {"time": 4536, "pitch": 69, "duration": 12, "velocity": 64}, {"time": 4548, "pitch": 64, "duration": 12, "velocity": 64}, {"time": 4560, "pitch": 62, "duration": 36, "velocity": 64}, {"time": 4596, "pitch": 64, "duration": 6, "velocity": 64}, {"time": 4602, "pitch": 67, "duration": 6, "velocity": 64}, {"time": 4608, "pitch": 62, "duration": 96, "velocity": 64}]}]}