{"metadata": {"schema_version": "0.1", "title": "Renmin gongshe zhenzheng hao", "source_format": "abc"}, "resolution": 24, "tempos": [{"time": 0, "qpm": 120.0}], "key_signatures": [{"time": 0, "root": 7, "mode": "major", "fifths": 1}], "time_signatures": [{"time": 0, "numerator": 2, "denominator": 4}], "beats": [{"time": 0, "is_downbeat": true}, {"time": 24, "is_downbeat": false}, {"time": 48, "is_downbeat": true}, {"time": 72, "is_downbeat": false}, {"time": 96, "is_downbeat": true}, {"time": 120, "is_downbeat": false}, {"time": 144, "is_downbeat": true}, {"time": 168, "is_downbeat": false}, {"time": 192, "is_downbeat": true}, {"time": 216, "is_downbeat": false}, {"time": 240, "is_downbeat": true}, {"time": 264, "is_downbeat": false}, {"time": 288, "is_downbeat": true}, {"time": 312, "is_downbeat": false}, {"time": 336, "is_downbeat": true}, {"time": 360, "is_downbeat": false}, {"time": 384, "is_downbeat": true}, {"time": 408, "is_downbeat": false}, {"time": 432, "is_downbeat": true}, {"time": 456, "is_downbeat": false}, {"time": 480, "is_downbeat": true}, {"time": 504, "is_downbeat": false}, {"time": 528, "is_downbeat": true}, {"time": 552, "is_downbeat": false}, {"time": 576, "is_downbeat": true}, {"time": 600, "is_downbeat": false}, {"time": 624, "is_downbeat": true}, {"time": 648, "is_downbeat": false}, {"time": 672, "is_downbeat": true}, {"time": 696, "is_downbeat": false}, {"time": 720, "is_downbeat": true}, {"time": 744, "is_downbeat": false}, {"time": 768, "is_downbeat": true}, {"time": 792, "is_downbeat": false}, {"time": 816, "is_downbeat": true}, {"time": 840, "is_downbeat": false}, {"time": 864, "is_downbeat": true}, {"time": 888, "is_downbeat": false}, {"time": 912, "is_downbeat": true}, {"time": 936, "is_downbeat": false}, {"time": 960, "is_downbeat": true}, {"time": 984, "is_downbeat": false}, {"time": 1008, "is_downbeat": true}, {"time": 1032, "is_downbeat": false}, {"time": 1056, "is_downbeat": true}, {"time": 1080, "is_downbeat": false}, {"time": 1104, "is_downbeat": true}, {"time": 1128, "is_downbeat": false}, {"time": 1152, "is_downbeat": true}, {"time": 1176, "is_downbeat": false}, {"time": 1200, "is_downbeat": true}, {"time": 1224, "is_downbeat": false}, {"time": 1248, "is_downbeat": true}, {"time": 1272, "is_downbeat": false}, {"time": 1296, "is_downbeat": true}, {"time": 1320, "is_downbeat": false}, {"time": 1344, "is_downbeat": true}, {"time": 1368, "is_downbeat": false}, {"time": 1392, "is_downbeat": true}, {"time": 1416, "is_downbeat": false}, {"time": 1440, "is_downbeat": true}, {"time": 1464, "is_downbeat": false}, {"time": 1488, "is_downbeat": true}, {"time": 1512, "is_downbeat": false}, {"time": 1536, "is_downbeat": true}, {"time": 1560, "is_downbeat": false}, {"time": 1584, "is_downbeat": true}, {"time": 1608, "is_downbeat": false}, {"time": 1632, "is_downbeat": true}, {"time": 1656, "is_downbeat": false}, {"time": 1680, "is_downbeat": true}, {"time": 1704, "is_downbeat": false}, {"time": 1728, "is_downbeat": true}, {"time": 1752, "is_downbeat": false}, {"time": 1776, "is_downbeat": true}, {"time": 1800, "is_downbeat": false}, {"time": 1824, "is_downbeat": true}, {"time": 1848, "is_downbeat": false}, {"time": 1872, "is_downbeat": true}, {"time": 1896, "is_downbeat": false}, {"time": 1920, "is_downbeat": true}, {"time": 1944, "is_downbeat": false}, {"time": 1968, "is_downbeat": true}, {"time": 1992, "is_downbeat": false}, {"time": 2016, "is_downbeat": true}, {"time": 2040, "is_downbeat": false}, {"time": 2064, "is_downbeat": true}, {"time": 2088, "is_downbeat": false}], "tracks": [{"program": 0, "is_drum": false, "notes": [{"time": 0, "pitch": 71, "duration": 12, "velocity": 64}, {"time": 12, "pitch": 71, "duration": 6, "velocity": 64}, {"time": 18, "pitch": 69, "duration": 6, "velocity": 64}, {"time": 24, "pitch": 67, "duration": 12, "velocity": 64}, {"time": 36, "pitch": 69, "duration": 12, "velocity": 64}, {"time": 48, "pitch": 71, "duration": 12, "velocity": 64}, {"time": 60, "pitch": 74, "duration": 12, "velocity": 64}, {"time": 72, "pitch": 71, "duration": 12, "velocity": 64}, {"time": 84, "pitch": 71, "duration": 12, "velocity": 64}, {"time": 96, "pitch": 71, "duration": 18, "velocity": 64}, {"time": 114, "pitch": 69, "duration": 6, "velocity": 64}, {"time": 120, "pitch": 69, "duration": 18, "velocity": 64}, {"time": 138, "pitch": 67, "duration": 6, "velocity": 64}, {"time": 144, "pitch": 67, "duration": 36, "velocity": 64}, {"time": 180, "pitch": 67, "duration": 6, "velocity": 64}, {"time": 186, "pitch": 69, "duration": 6, "velocity": 64}, {"time": 192, "pitch": 71, "duration": 12, "velocity": 64}, {"time": 204, "pitch": 71, "duration": 6, "velocity": 64}, {"time": 210, "pitch": 69, "duration": 6, "velocity": 64}, {"time": 216, "pitch": 67, "duration": 12, "velocity": 64}, {"time": 228, "pitch": 69, "duration": 12, "velocity": 64}, {"time": 240, "pitch": 67, "duration": 12, "velocity": 64}, {"time": 252, "pitch": 69, "duration": 12, "velocity": 64}, {"time": 264, "pitch": 67, "duration": 12, "velocity": 64}, {"time": 276, "pitch": 69, "duration": 12, "velocity": 64}, {"time": 288, "pitch": 69, "duration": 6, "velocity": 64}, {"time": 294, "pitch": 67, "duration": 6, "velocity": 64}, {"time": 300, "pitch": 64, "duration": 12, "velocity": 64}, {"time": 312, "pitch": 62, "duration": 12, "velocity": 64}, {"time": 324, "pitch": 62, "duration": 12, "velocity": 64}, {"time": 336, "pitch": 67, "duration": 36, "velocity": 64}, {"time": 372, "pitch": 67, "duration": 6, "velocity": 64}, {"time": 378, "pitch": 69, "duration": 6, "velocity": 64}, {"time": 384, "pitch": 67, "duration": 12, "velocity": 64}, {"time": 396, "pitch": 69, "duration": 12, "velocity": 64}, {"time": 408, "pitch": 67, "duration": 12, "velocity": 64}, {"time": 420, "pitch": 69, "duration": 12, "velocity": 64}, {"time": 432, "pitch": 71, "duration": 18, "velocity": 64}, {"time": 450, "pitch": 69, "duration": 6, "velocity": 64}, {"time": 456, "pitch": 69, "duration": 18, "velocity": 64}, {"time": 474, "pitch": 67, "duration": 6, "velocity": 64}, {"time": 480, "pitch": 67, "duration": 48, "velocity": 64}, {"time": 528, "pitch": 74, "duration": 12, "velocity": 64}, {"time": 540, "pitch": 74, "duration": 12, "velocity": 64}, {"time": 552, "pitch": 76, "duration": 12, "velocity": 64}, {"time": 564, "pitch": 76, "duration": 12, "velocity": 64}, {"time": 576, "pitch": 74, "duration": 12, "velocity": 64}, {"time": 588, "pitch": 76, "duration": 12, "velocity": 64}, {"time": 600, "pitch": 74, "duration": 12, "velocity": 64}, {"time": 612, "pitch": 76, "duration": 12, "velocity": 64}, {"time": 624, "pitch": 76, "duration": 18, "velocity": 64}, {"time": 642, "pitch": 74, "duration": 6, "velocity": 64}, {"time": 648, "pitch": 71, "duration": 18, "velocity": 64}, {"time": 666, "pitch": 69, "duration": 6, "velocity": 64}, {"time": 672, "pitch": 74, "duration": 36, "velocity": 64}, {"time": 708, "pitch": 74, "duration": 6, "velocity": 64}, {"time": 714, "pitch": 76, "duration": 6, "velocity": 64}, {"time": 720, "pitch": 74, "duration": 12, "velocity": 64}, {"time": 732, "pitch": 76, "duration": 12, "velocity": 64}, {"time": 744, "pitch": 74, "duration": 12, "velocity": 64}, {"time": 756, "pitch": 76, "duration": 12, "velocity": 64}, {"time": 768, "pitch": 74, "duration": 12, "velocity": 64}, {"time": 780, "pitch": 76, "duration": 12, "velocity": 64}, {"time": 792, "pitch": 74, "duration": 12, "velocity": 64}, {"time": 804, "pitch": 76, "duration": 12, "velocity": 64}, {"time": 816, "pitch": 76, "duration": 18, "velocity": 64}, {"time": 834, "pitch": 74, "duration": 6, "velocity": 64}, {"time": 840, "pitch": 71, "duration": 12, "velocity": 64}, {"time": 852, "pitch": 69, "duration": 12, "velocity": 64}, {"time": 864, "pitch": 74, "duration": 36, "velocity": 64}, {"time": 900, "pitch": 79, "duration": 6, "velocity": 64}, {"time": 906, "pitch": 76, "duration": 6, "velocity": 64}, {"time": 912, "pitch": 74, "duration": 12, "velocity": 64}, {"time": 924, "pitch": 76, "duration": 6, "velocity": 64}, {"time": 930, "pitch": 79, "duration": 6, "velocity": 64}, {"time": 936, "pitch": 71, "duration": 12, "velocity": 64}, {"time": 948, "pitch": 71, "duration": 6, "velocity": 64}, {"time": 954, "pitch": 69, "duration": 6, "velocity": 64}, {"time": 960, "pitch": 67, "duration": 12, "velocity": 64}, {"time": 972, "pitch": 69, "duration": 12, "velocity": 64}, {"time": 984, "pitch": 67, "duration": 12, "velocity": 64}, {"time": 996, "pitch": 69, "duration": 12, "velocity": 64}, {"time": 1008, "pitch": 69, "duration": 6, "velocity": 64}, {"time": 1014, "pitch": 67, "duration": 6, "velocity": 64}, {"time": 1020, "pitch": 64, "duration": 12, "velocity": 64}, {"time": 1032, "pitch": 62, "duration": 12, "velocity": 64}, {"time": 1044, "pitch": 62, "duration": 12, "velocity": 64}, {"time": 1056, "pitch": 67, "duration": 48, "velocity": 64}, {"time": 1104, "pitch": 71, "duration": 12, "velocity": 64}, {"time": 1116, "pitch": 71, "duration": 6, "velocity": 64}, {"time": 1122, "pitch": 69, "duration": 6, "velocity": 64}, {"time": 1128, "pitch": 67, "duration": 12, "velocity": 64}, {"time": 1140, "pitch": 69, "duration": 12, "velocity": 64}, {"time": 1152, "pitch": 71, "duration": 12, "velocity": 64}, {"time": 1164, "pitch": 71, "duration": 6, "velocity": 64}, {"time": 1170, "pitch": 74, "duration": 6, "velocity": 64}, {"time": 1176, "pitch": 71, "duration": 12, "velocity": 64}, {"time": 1188, "pitch": 71, "duration": 12, "velocity": 64}, {"time": 1200, "pitch": 71, "duration": 18, "velocity": 64}, {"time": 1218, "pitch": 69, "duration": 6, "velocity": 64}, {"time": 1224, "pitch": 69, "duration": 12, "velocity": 64}, {"time": 1236, "pitch": 67, "duration": 12, "velocity": 64}, {"time": 1248, "pitch": 67, "duration": 36, "velocity": 64}, {"time": 1284, "pitch": 67, "duration": 6, "velocity": 64}, {"time": 1290, "pitch": 69, "duration": 6, "velocity": 64}, {"time": 1296, "pitch": 71, "duration": 12, "velocity": 64}, {"time": 1308, "pitch": 71, "duration": 6, "velocity": 64}, {"time": 1314, "pitch": 69, "duration": 6, "velocity": 64}, {"time": 1320, "pitch": 67, "duration": 12, "velocity": 64}, {"time": 1332, "pitch": 69, "duration": 12, "velocity": 64}, {"time": 1344, "pitch": 67, "duration": 12, "velocity": 64}, {"time": 1356, "pitch": 69, "duration": 12, "velocity": 64}, {"time": 1368, "pitch": 67, "duration": 12, "velocity": 64}, {"time": 1380, "pitch": 69, "duration": 12, "velocity": 64}, {"time": 1392, "pitch": 69, "duration": 6, "velocity": 64}, {"time": 1398, "pitch": 67, "duration": 6, "velocity": 64}, {"time": 1404, "pitch": 64, "duration": 12, "velocity": 64}, {"time": 1416, "pitch": 62, "duration": 12, "velocity": 64}, {"time": 1428, "pitch": 62, "duration": 12, "velocity": 64}, {"time": 1440, "pitch": 67, "duration": 36, "velocity": 64}, {"time": 1476, "pitch": 67, "duration": 6, "velocity": 64}, {"time": 1482, "pitch": 69, "duration": 6, "velocity": 64}, {"time": 1488, "pitch": 67, "duration": 12, "velocity": 64}, {"time": 1500, "pitch": 69, "duration": 12, "velocity": 64}, {"time": 1512, "pitch": 67, "duration": 12, "velocity": 64}, {"time": 1524, "pitch": 69, "duration": 6, "velocity": 64}, {"time": 1530, "pitch": 69, "duration": 6, "velocity": 64}, {"time": 1536, "pitch": 67, "duration": 12, "velocity": 64}, {"time": 1548, "pitch": 69, "duration": 12, "velocity": 64}, {"time": 1560, "pitch": 67, "duration": 12, "velocity": 64}, {"time": 1572, "pitch": 69, "duration": 12, "velocity": 64}, {"time": 1584, "pitch": 69, "duration": 6, "velocity": 64}, {"time": 1590, "pitch": 67, "duration": 6, "velocity": 64}, {"time": 1596, "pitch": 64, "duration": 12, "velocity": 64}, {"time": 1608, "pitch": 62, "duration": 12, "velocity": 64}, {"time": 1620, "pitch": 62, "duration": 12, "velocity": 64}, {"time": 1632, "pitch": 67, "duration": 36, "velocity": 64}, {"time": 1668, "pitch": 67, "duration": 6, "velocity": 64}, {"time": 1674, "pitch": 69, "duration": 6, "velocity": 64}, {"time": 1680, "pitch": 67, "duration": 12, "velocity": 64}, {"time": 1692, "pitch": 69, "duration": 12, "velocity": 64}, {"time": 1704, "pitch": 67, "duration": 12, "velocity": 64}, {"time": 1716, "pitch": 69, "duration": 6, "velocity": 64}, {"time": 1722, "pitch": 69, "duration": 6, "velocity": 64}, {"time": 1728, "pitch": 67, "duration": 12, "velocity": 64}, {"time": 1740, "pitch": 69, "duration": 12, "velocity": 64}, {"time": 1752, "pitch": 67, "duration": 12, "velocity": 64}, {"time": 1764, "pitch": 69, "duration": 12, "velocity": 64}, {"time": 1776, "pitch": 69, "duration": 6, "velocity": 64}, {"time": 1782, "pitch": 67, "duration": 6, "velocity": 64}, {"time": 1788, "pitch": 64, "duration": 12, "velocity": 64}, {"time": 1800, "pitch": 62, "duration": 12, "velocity": 64}, {"time": 1812, "pitch": 62, "duration": 12, "velocity": 64}, {"time": 1824, "pitch": 67, "duration": 36, "velocity": 64}, {"time": 1860, "pitch": 67, "duration": 6, "velocity": 64}, {"time": 1866, "pitch": 69, "duration": 6, "velocity": 64}, {"time": 1872, "pitch": 67, "duration": 12, "velocity": 64}, {"time": 1884, "pitch": 69, "duration": 12, "velocity": 64}, {"time": 1896, "pitch": 67, "duration": 12, "velocity": 64}, {"time": 1908, "pitch": 69, "duration": 12, "velocity": 64}, {"time": 1920, "pitch": 67, "duration": 12, "velocity": 64}, {"time": 1932, "pitch": 69, "duration": 12, "velocity": 64}, {"time": 1944, "pitch": 67, "duration": 12, "velocity": 64}, {"time": 1956, "pitch": 69, "duration": 12, "velocity": 64}, {"time": 1968, "pitch": 69, "duration": 6, "velocity": 64}, {"time": 1974, "pitch": 67, "duration": 6, "velocity": 64}, {"time": 1980, "pitch": 64, "duration": 12, "velocity": 64}, {"time": 1992, "pitch": 62, "duration": 12, "velocity": 64}, {"time": 2004, "pitch": 62, "duration": 12, "velocity": 64}, {"time": 2016, "pitch": 67, "duration": 96, "velocity": 64}]}]}