{"metadata": {"schema_version": "0.1", "title": "Yuanyang jia laodiao", "source_format": "abc"}, "resolution": 24, "tempos": [{"time": 0, "qpm": 120.0}], "key_signatures": [{"time": 0, "root": 7, "mode": "major", "fifths": 1}], "time_signatures": [{"time": 0, "numerator": 2, "denominator": 4}], "beats": [{"time": 0, "is_downbeat": true}, {"time": 24, "is_downbeat": false}, {"time": 48, "is_downbeat": true}, {"time": 72, "is_downbeat": false}, {"time": 96, "is_downbeat": true}, {"time": 120, "is_downbeat": false}, {"time": 144, "is_downbeat": true}, {"time": 168, "is_downbeat": false}, {"time": 192, "is_downbeat": true}, {"time": 216, "is_downbeat": false}, {"time": 240, "is_downbeat": true}, {"time": 264, "is_downbeat": false}, {"time": 288, "is_downbeat": true}, {"time": 312, "is_downbeat": false}, {"time": 336, "is_downbeat": true}, {"time": 360, "is_downbeat": false}, {"time": 384, "is_downbeat": true}, {"time": 408, "is_downbeat": false}, {"time": 432, "is_downbeat": true}, {"time": 456, "is_downbeat": false}, {"time": 480, "is_downbeat": true}, {"time": 504, "is_downbeat": false}, {"time": 528, "is_downbeat": true}, {"time": 552, "is_downbeat": false}, {"time": 576, "is_downbeat": true}, {"time": 600, "is_downbeat": false}, {"time": 624, "is_downbeat": true}, {"time": 648, "is_downbeat": false}, {"time": 672, "is_downbeat": true}, {"time": 696, "is_downbeat": false}, {"time": 720, "is_downbeat": true}, {"time": 744, "is_downbeat": false}, {"time": 768, "is_downbeat": true}, {"time": 792, "is_downbeat": false}, {"time": 816, "is_downbeat": true}, {"time": 840, "is_downbeat": false}, {"time": 864, "is_downbeat": true}, {"time": 888, "is_downbeat": false}, {"time": 912, "is_downbeat": true}, {"time": 936, "is_downbeat": false}, {"time": 960, "is_downbeat": true}, {"time": 984, "is_downbeat": false}, {"time": 1008, "is_downbeat": true}, {"time": 1032, "is_downbeat": false}, {"time": 1056, "is_downbeat": true}, {"time": 1080, "is_downbeat": false}, {"time": 1104, "is_downbeat": true}, {"time": 1128, "is_downbeat": false}, {"time": 1152, "is_downbeat": true}, {"time": 1176, "is_downbeat": false}, {"time": 1200, "is_downbeat": true}, {"time": 1224, "is_downbeat": false}, {"time": 1248, "is_downbeat": true}, {"time": 1272, "is_downbeat": false}, {"time": 1296, "is_downbeat": true}, {"time": 1320, "is_downbeat": false}, {"time": 1344, "is_downbeat": true}, {"time": 1368, "is_downbeat": false}, {"time": 1392, "is_downbeat": true}, {"time": 1416, "is_downbeat": false}, {"time": 1440, "is_downbeat": true}, {"time": 1464, "is_downbeat": false}, {"time": 1488, "is_downbeat": true}, {"time": 1512, "is_downbeat": false}, {"time": 1536, "is_downbeat": true}, {"time": 1560, "is_downbeat": false}, {"time": 1584, "is_downbeat": true}, {"time": 1608, "is_downbeat": false}, {"time": 1632, "is_downbeat": true}, {"time": 1656, "is_downbeat": false}, {"time": 1680, "is_downbeat": true}, {"time": 1704, "is_downbeat": false}, {"time": 1728, "is_downbeat": true}, {"time": 1752, "is_downbeat": false}, {"time": 1776, "is_downbeat": true}, {"time": 1800, "is_downbeat": false}, {"time": 1824, "is_downbeat": true}, {"time": 1848, "is_downbeat": false}, {"time": 1872, "is_downbeat": true}, {"time": 1896, "is_downbeat": false}, {"time": 1920, "is_downbeat": true}, {"time": 1944, "is_downbeat": false}, {"time": 1968, "is_downbeat": true}, {"time": 1992, "is_downbeat": false}, {"time": 2016, "is_downbeat": true}, {"time": 2040, "is_downbeat": false}, {"time": 2064, "is_downbeat": true}, {"time": 2088, "is_downbeat": false}, {"time": 2112, "is_downbeat": true}, {"time": 2136, "is_downbeat": false}, {"time": 2160, "is_downbeat": true}, {"time": 2184, "is_downbeat": false}, {"time": 2208, "is_downbeat": true}, {"time": 2232, "is_downbeat": false}, {"time": 2256, "is_downbeat": true}, {"time": 2280, "is_downbeat": false}, {"time": 2304, "is_downbeat": true}, {"time": 2328, "is_downbeat": false}, {"time": 2352, "is_downbeat": true}, {"time": 2376, "is_downbeat": false}, {"time": 2400, "is_downbeat": true}, {"time": 2424, "is_downbeat": false}, {"time": 2448, "is_downbeat": true}, {"time": 2472, "is_downbeat": false}, {"time": 2496, "is_downbeat": true}, {"time": 2520, "is_downbeat": false}, {"time": 2544, "is_downbeat": true}, {"time": 2568, "is_downbeat": false}, {"time": 2592, "is_downbeat": true}, {"time": 2616, "is_downbeat": false}, {"time": 2640, "is_downbeat": true}, {"time": 2664, "is_downbeat": false}, {"time": 2688, "is_downbeat": true}, {"time": 2712, "is_downbeat": false}, {"time": 2736, "is_downbeat": true}, {"time": 2760, "is_downbeat": false}, {"time": 2784, "is_downbeat": true}, {"time": 2808, "is_downbeat": false}, {"time": 2832, "is_downbeat": true}, {"time": 2856, "is_downbeat": false}, {"time": 2880, "is_downbeat": true}, {"time": 2904, "is_downbeat": false}, {"time": 2928, "is_downbeat": true}, {"time": 2952, "is_downbeat": false}, {"time": 2976, "is_downbeat": true}, {"time": 3000, "is_downbeat": false}, {"time": 3024, "is_downbeat": true}, {"time": 3048, "is_downbeat": false}, {"time": 3072, "is_downbeat": true}, {"time": 3096, "is_downbeat": false}, {"time": 3120, "is_downbeat": true}, {"time": 3144, "is_downbeat": false}, {"time": 3168, "is_downbeat": true}, {"time": 3192, "is_downbeat": false}, {"time": 3216, "is_downbeat": true}, {"time": 3240, "is_downbeat": false}, {"time": 3264, "is_downbeat": true}, {"time": 3288, "is_downbeat": false}, {"time": 3312, "is_downbeat": true}, {"time": 3336, "is_downbeat": false}, {"time": 3360, "is_downbeat": true}, {"time": 3384, "is_downbeat": false}, {"time": 3408, "is_downbeat": true}, {"time": 3432, "is_downbeat": false}, {"time": 3456, "is_downbeat": true}, {"time": 3480, "is_downbeat": false}, {"time": 3504, "is_downbeat": true}, {"time": 3528, "is_downbeat": false}, {"time": 3552, "is_downbeat": true}, {"time": 3576, "is_downbeat": false}, {"time": 3600, "is_downbeat": true}, {"time": 3624, "is_downbeat": false}, {"time": 3648, "is_downbeat": true}, {"time": 3672, "is_downbeat": false}, {"time": 3696, "is_downbeat": true}, {"time": 3720, "is_downbeat": false}, {"time": 3744, "is_downbeat": true}, {"time": 3768, "is_downbeat": false}, {"time": 3792, "is_downbeat": true}, {"time": 3816, "is_downbeat": false}, {"time": 3840, "is_downbeat": true}, {"time": 3864, "is_downbeat": false}, {"time": 3888, "is_downbeat": true}, {"time": 3912, "is_downbeat": false}, {"time": 3936, "is_downbeat": true}, {"time": 3960, "is_downbeat": false}, {"time": 3984, "is_downbeat": true}, {"time": 4008, "is_downbeat": false}, {"time": 4032, "is_downbeat": true}, {"time": 4056, "is_downbeat": false}, {"time": 4080, "is_downbeat": true}, {"time": 4104, "is_downbeat": false}], "tracks": [{"program": 0, "is_drum": false, "notes": [{"time": 0, "pitch": 79, "duration": 24, "velocity": 64}, {"time": 24, "pitch": 74, "duration": 18, "velocity": 64}, {"time": 42, "pitch": 79, "duration": 6, "velocity": 64}, {"time": 48, "pitch": 71, "duration": 12, "velocity": 64}, {"time": 60, "pitch": 71, "duration": 6, "velocity": 64}, {"time": 66, "pitch": 69, "duration": 6, "velocity": 64}, {"time": 72, "pitch": 71, "duration": 24, "velocity": 64}, {"time": 96, "pitch": 74, "duration": 12, "velocity": 64}, {"time": 108, "pitch": 74, "duration": 12, "velocity": 64}, {"time": 120, "pitch": 71, "duration": 12, "velocity": 64}, {"time": 132, "pitch": 74, "duration": 12, "velocity": 64}, {"time": 144, "pitch": 74, "duration": 12, "velocity": 64}, {"time": 156, "pitch": 83, "duration": 12, "velocity": 64}, {"time": 168, "pitch": 81, "duration": 24, "velocity": 64}, {"time": 192, "pitch": 81, "duration": 24, "velocity": 64}, {"time": 216, "pitch": 81, "duration": 24, "velocity": 64}, {"time": 240, "pitch": 81, "duration": 24, "velocity": 64}, {"time": 264, "pitch": 81, "duration": 48, "velocity": 64}, {"time": 312, "pitch": 83, "duration": 12, "velocity": 64}, {"time": 324, "pitch": 83, "duration": 6, "velocity": 64}, {"time": 330, "pitch": 74, "duration": 6, "velocity": 64}, {"time": 336, "pitch": 83, "duration": 18, "velocity": 64}, {"time": 354, "pitch": 81, "duration": 6, "velocity": 64}, {"time": 360, "pitch": 79, "duration": 24, "velocity": 64}, {"time": 384, "pitch": 81, "duration": 18, "velocity": 64}, {"time": 402, "pitch": 83, "duration": 6, "velocity": 64}, {"time": 408, "pitch": 74, "duration": 18, "velocity": 64}, {"time": 426, "pitch": 76, "duration": 6, "velocity": 64}, {"time": 432, "pitch": 79, "duration": 24, "velocity": 64}, {"time": 456, "pitch": 79, "duration": 24, "velocity": 64}, {"time": 480, "pitch": 79, "duration": 24, "velocity": 64}, {"time": 504, "pitch": 79, "duration": 48, "velocity": 64}, {"time": 552, "pitch": 79, "duration": 12, "velocity": 64}, {"time": 564, "pitch": 78, "duration": 6, "velocity": 64}, {"time": 570, "pitch": 79, "duration": 6, "velocity": 64}, {"time": 576, "pitch": 83, "duration": 12, "velocity": 64}, {"time": 588, "pitch": 76, "duration": 12, "velocity": 64}, {"time": 600, "pitch": 76, "duration": 12, "velocity": 64}, {"time": 612, "pitch": 74, "duration": 12, "velocity": 64}, {"time": 624, "pitch": 74, "duration": 12, "velocity": 64}, {"time": 636, "pitch": 76, "duration": 6, "velocity": 64}, {"time": 642, "pitch": 76, "duration": 6, "velocity": 64}, {"time": 648, "pitch": 74, "duration": 12, "velocity": 64}, {"time": 660, "pitch": 71, "duration": 12, "velocity": 64}, {"time": 672, "pitch": 79, "duration": 12, "velocity": 64}, {"time": 684, "pitch": 79, "duration": 12, "velocity": 64}, {"time": 696, "pitch": 74, "duration": 12, "velocity": 64}, {"time": 708, "pitch": 79, "duration": 12, "velocity": 64}, {"time": 720, "pitch": 71, "duration": 12, "velocity": 64}, {"time": 732, "pitch": 74, "duration": 12, "velocity": 64}, {"time": 744, "pitch": 74, "duration": 24, "velocity": 64}, {"time": 780, "pitch": 79, "duration": 24, "velocity": 64}, {"time": 804, "pitch": 74, "duration": 12, "velocity": 64}, {"time": 816, "pitch": 79, "duration": 24, "velocity": 64}, {"time": 840, "pitch": 79, "duration": 12, "velocity": 64}, {"time": 852, "pitch": 76, "duration": 12, "velocity": 64}, {"time": 864, "pitch": 79, "duration": 12, "velocity": 64}, {"time": 876, "pitch": 79, "duration": 12, "velocity": 64}, {"time": 888, "pitch": 74, "duration": 12, "velocity": 64}, {"time": 900, "pitch": 79, "duration": 12, "velocity": 64}, {"time": 912, "pitch": 71, "duration": 24, "velocity": 64}, {"time": 936, "pitch": 69, "duration": 18, "velocity": 64}, {"time": 954, "pitch": 71, "duration": 6, "velocity": 64}, {"time": 960, "pitch": 74, "duration": 12, "velocity": 64}, {"time": 972, "pitch": 74, "duration": 48, "velocity": 64}, {"time": 1020, "pitch": 76, "duration": 12, "velocity": 64}, {"time": 1032, "pitch": 74, "duration": 12, "velocity": 64}, {"time": 1044, "pitch": 76, "duration": 12, "velocity": 64}, {"time": 1056, "pitch": 79, "duration": 12, "velocity": 64}, {"time": 1068, "pitch": 76, "duration": 12, "velocity": 64}, {"time": 1080, "pitch": 79, "duration": 24, "velocity": 64}, {"time": 1104, "pitch": 71, "duration": 18, "velocity": 64}, {"time": 1122, "pitch": 79, "duration": 6, "velocity": 64}, {"time": 1128, "pitch": 71, "duration": 12, "velocity": 64}, {"time": 1140, "pitch": 71, "duration": 12, "velocity": 64}, {"time": 1164, "pitch": 74, "duration": 24, "velocity": 64}, {"time": 1188, "pitch": 69, "duration": 12, "velocity": 64}, {"time": 1200, "pitch": 71, "duration": 18, "velocity": 64}, {"time": 1218, "pitch": 69, "duration": 6, "velocity": 64}, {"time": 1224, "pitch": 67, "duration": 12, "velocity": 64}, {"time": 1236, "pitch": 69, "duration": 12, "velocity": 64}, {"time": 1248, "pitch": 67, "duration": 12, "velocity": 64}, {"time": 1308, "pitch": 71, "duration": 24, "velocity": 64}, {"time": 1332, "pitch": 69, "duration": 12, "velocity": 64}, {"time": 1344, "pitch": 67, "duration": 18, "velocity": 64}, {"time": 1362, "pitch": 69, "duration": 6, "velocity": 64}, {"time": 1368, "pitch": 71, "duration": 12, "velocity": 64}, {"time": 1404, "pitch": 74, "duration": 24, "velocity": 64}, {"time": 1428, "pitch": 71, "duration": 12, "velocity": 64}, {"time": 1440, "pitch": 76, "duration": 18, "velocity": 64}, {"time": 1458, "pitch": 71, "duration": 6, "velocity": 64}, {"time": 1464, "pitch": 74, "duration": 6, "velocity": 64}, {"time": 1488, "pitch": 79, "duration": 12, "velocity": 64}, {"time": 1500, "pitch": 74, "duration": 12, "velocity": 64}, {"time": 1512, "pitch": 79, "duration": 24, "velocity": 64}, {"time": 1536, "pitch": 74, "duration": 12, "velocity": 64}, {"time": 1548, "pitch": 76, "duration": 12, "velocity": 64}, {"time": 1560, "pitch": 74, "duration": 24, "velocity": 64}, {"time": 1584, "pitch": 79, "duration": 12, "velocity": 64}, {"time": 1596, "pitch": 79, "duration": 12, "velocity": 64}, {"time": 1608, "pitch": 74, "duration": 12, "velocity": 64}, {"time": 1620, "pitch": 79, "duration": 12, "velocity": 64}, {"time": 1632, "pitch": 76, "duration": 18, "velocity": 64}, {"time": 1650, "pitch": 71, "duration": 6, "velocity": 64}, {"time": 1656, "pitch": 74, "duration": 6, "velocity": 64}, {"time": 1692, "pitch": 79, "duration": 24, "velocity": 64}, {"time": 1716, "pitch": 79, "duration": 12, "velocity": 64}, {"time": 1728, "pitch": 74, "duration": 24, "velocity": 64}, {"time": 1752, "pitch": 79, "duration": 24, "velocity": 64}, {"time": 1776, "pitch": 71, "duration": 12, "velocity": 64}, {"time": 1800, "pitch": 83, "duration": 24, "velocity": 64}, {"time": 1824, "pitch": 81, "duration": 108, "velocity": 64}, {"time": 1932, "pitch": 81, "duration": 12, "velocity": 64}, {"time": 1944, "pitch": 79, "duration": 12, "velocity": 64}, {"time": 1956, "pitch": 76, "duration": 12, "velocity": 64}, {"time": 1968, "pitch": 74, "duration": 12, "velocity": 64}, {"time": 1980, "pitch": 71, "duration": 12, "velocity": 64}, {"time": 1992, "pitch": 79, "duration": 24, "velocity": 64}, {"time": 2028, "pitch": 74, "duration": 12, "velocity": 64}, {"time": 2052, "pitch": 71, "duration": 12, "velocity": 64}, {"time": 2064, "pitch": 71, "duration": 24, "velocity": 64}, {"time": 2100, "pitch": 74, "duration": 12, "velocity": 64}, {"time": 2124, "pitch": 69, "duration": 12, "velocity": 64}, {"time": 2136, "pitch": 71, "duration": 6, "velocity": 64}, {"time": 2142, "pitch": 74, "duration": 6, "velocity": 64}, {"time": 2148, "pitch": 71, "duration": 6, "velocity": 64}, {"time": 2154, "pitch": 69, "duration": 6, "velocity": 64}, {"time": 2160, "pitch": 67, "duration": 12, "velocity": 64}, {"time": 2208, "pitch": 83, "duration": 12, "velocity": 64}, {"time": 2220, "pitch": 83, "duration": 6, "velocity": 64}, {"time": 2226, "pitch": 74, "duration": 6, "velocity": 64}, {"time": 2232, "pitch": 83, "duration": 12, "velocity": 64}, {"time": 2244, "pitch": 81, "duration": 12, "velocity": 64}, {"time": 2256, "pitch": 83, "duration": 24, "velocity": 64}, {"time": 2280, "pitch": 81, "duration": 24, "velocity": 64}, {"time": 2304, "pitch": 81, "duration": 12, "velocity": 64}, {"time": 2328, "pitch": 81, "duration": 12, "velocity": 64}, {"time": 2352, "pitch": 81, "duration": 48, "velocity": 64}, {"time": 2400, "pitch": 83, "duration": 6, "velocity": 64}, {"time": 2406, "pitch": 83, "duration": 12, "velocity": 64}, {"time": 2418, "pitch": 74, "duration": 6, "velocity": 64}, {"time": 2424, "pitch": 83, "duration": 6, "velocity": 64}, {"time": 2430, "pitch": 81, "duration": 6, "velocity": 64}, {"time": 2436, "pitch": 79, "duration": 12, "velocity": 64}, {"time": 2448, "pitch": 81, "duration": 18, "velocity": 64}, {"time": 2466, "pitch": 83, "duration": 6, "velocity": 64}, {"time": 2472, "pitch": 74, "duration": 18, "velocity": 64}, {"time": 2490, "pitch": 76, "duration": 6, "velocity": 64}, {"time": 2496, "pitch": 79, "duration": 24, "velocity": 64}, {"time": 2520, "pitch": 79, "duration": 24, "velocity": 64}, {"time": 2544, "pitch": 79, "duration": 24, "velocity": 64}, {"time": 2568, "pitch": 79, "duration": 48, "velocity": 64}, {"time": 2616, "pitch": 79, "duration": 12, "velocity": 64}, {"time": 2628, "pitch": 78, "duration": 6, "velocity": 64}, {"time": 2634, "pitch": 79, "duration": 6, "velocity": 64}, {"time": 2640, "pitch": 81, "duration": 12, "velocity": 64}, {"time": 2652, "pitch": 76, "duration": 12, "velocity": 64}, {"time": 2664, "pitch": 74, "duration": 18, "velocity": 64}, {"time": 2682, "pitch": 71, "duration": 6, "velocity": 64}, {"time": 2688, "pitch": 74, "duration": 12, "velocity": 64}, {"time": 2700, "pitch": 74, "duration": 12, "velocity": 64}, {"time": 2712, "pitch": 76, "duration": 24, "velocity": 64}, {"time": 2736, "pitch": 74, "duration": 12, "velocity": 64}, {"time": 2748, "pitch": 79, "duration": 6, "velocity": 64}, {"time": 2754, "pitch": 79, "duration": 6, "velocity": 64}, {"time": 2760, "pitch": 79, "duration": 12, "velocity": 64}, {"time": 2772, "pitch": 79, "duration": 12, "velocity": 64}, {"time": 2784, "pitch": 76, "duration": 18, "velocity": 64}, {"time": 2802, "pitch": 71, "duration": 6, "velocity": 64}, {"time": 2808, "pitch": 74, "duration": 24, "velocity": 64}, {"time": 2832, "pitch": 81, "duration": 18, "velocity": 64}, {"time": 2850, "pitch": 81, "duration": 6, "velocity": 64}, {"time": 2856, "pitch": 79, "duration": 12, "velocity": 64}, {"time": 2868, "pitch": 81, "duration": 12, "velocity": 64}, {"time": 2880, "pitch": 79, "duration": 12, "velocity": 64}, {"time": 2892, "pitch": 81, "duration": 12, "velocity": 64}, {"time": 2904, "pitch": 79, "duration": 12, "velocity": 64}, {"time": 2916, "pitch": 76, "duration": 12, "velocity": 64}, {"time": 2928, "pitch": 81, "duration": 18, "velocity": 64}, {"time": 2946, "pitch": 81, "duration": 6, "velocity": 64}, {"time": 2952, "pitch": 79, "duration": 12, "velocity": 64}, {"time": 2964, "pitch": 76, "duration": 12, "velocity": 64}, {"time": 2976, "pitch": 74, "duration": 12, "velocity": 64}, {"time": 2988, "pitch": 76, "duration": 12, "velocity": 64}, {"time": 3000, "pitch": 74, "duration": 24, "velocity": 64}, {"time": 3024, "pitch": 71, "duration": 18, "velocity": 64}, {"time": 3042, "pitch": 69, "duration": 6, "velocity": 64}, {"time": 3048, "pitch": 71, "duration": 12, "velocity": 64}, {"time": 3060, "pitch": 71, "duration": 12, "velocity": 64}, {"time": 3072, "pitch": 71, "duration": 18, "velocity": 64}, {"time": 3090, "pitch": 69, "duration": 6, "velocity": 64}, {"time": 3096, "pitch": 71, "duration": 12, "velocity": 64}, {"time": 3108, "pitch": 71, "duration": 12, "velocity": 64}, {"time": 3132, "pitch": 76, "duration": 12, "velocity": 64}, {"time": 3144, "pitch": 71, "duration": 12, "velocity": 64}, {"time": 3156, "pitch": 74, "duration": 12, "velocity": 64}, {"time": 3168, "pitch": 83, "duration": 12, "velocity": 64}, {"time": 3180, "pitch": 79, "duration": 12, "velocity": 64}, {"time": 3192, "pitch": 81, "duration": 84, "velocity": 64}, {"time": 3276, "pitch": 74, "duration": 12, "velocity": 64}, {"time": 3288, "pitch": 83, "duration": 12, "velocity": 64}, {"time": 3300, "pitch": 81, "duration": 12, "velocity": 64}, {"time": 3312, "pitch": 83, "duration": 18, "velocity": 64}, {"time": 3330, "pitch": 81, "duration": 6, "velocity": 64}, {"time": 3336, "pitch": 79, "duration": 12, "velocity": 64}, {"time": 3348, "pitch": 81, "duration": 12, "velocity": 64}, {"time": 3360, "pitch": 79, "duration": 18, "velocity": 64}, {"time": 3378, "pitch": 81, "duration": 6, "velocity": 64}, {"time": 3384, "pitch": 79, "duration": 12, "velocity": 64}, {"time": 3396, "pitch": 81, "duration": 12, "velocity": 64}, {"time": 3408, "pitch": 81, "duration": 24, "velocity": 64}, {"time": 3432, "pitch": 81, "duration": 24, "velocity": 64}, {"time": 3456, "pitch": 81, "duration": 12, "velocity": 64}, {"time": 3468, "pitch": 74, "duration": 12, "velocity": 64}, {"time": 3480, "pitch": 78, "duration": 24, "velocity": 64}, {"time": 3504, "pitch": 78, "duration": 24, "velocity": 64}, {"time": 3528, "pitch": 78, "duration": 24, "velocity": 64}, {"time": 3552, "pitch": 78, "duration": 24, "velocity": 64}, {"time": 3576, "pitch": 78, "duration": 72, "velocity": 64}, {"time": 3660, "pitch": 81, "duration": 24, "velocity": 64}, {"time": 3684, "pitch": 76, "duration": 12, "velocity": 64}, {"time": 3696, "pitch": 78, "duration": 24, "velocity": 64}, {"time": 3732, "pitch": 76, "duration": 12, "velocity": 64}, {"time": 3744, "pitch": 74, "duration": 24, "velocity": 64}, {"time": 3768, "pitch": 71, "duration": 12, "velocity": 64}, {"time": 3792, "pitch": 74, "duration": 12, "velocity": 64}, {"time": 3804, "pitch": 74, "duration": 6, "velocity": 64}, {"time": 3810, "pitch": 76, "duration": 6, "velocity": 64}, {"time": 3816, "pitch": 79, "duration": 12, "velocity": 64}, {"time": 3828, "pitch": 76, "duration": 12, "velocity": 64}, {"time": 3840, "pitch": 74, "duration": 12, "velocity": 64}, {"time": 3852, "pitch": 74, "duration": 6, "velocity": 64}, {"time": 3858, "pitch": 76, "duration": 6, "velocity": 64}, {"time": 3864, "pitch": 79, "duration": 24, "velocity": 64}, {"time": 3900, "pitch": 79, "duration": 12, "velocity": 64}, {"time": 3912, "pitch": 76, "duration": 12, "velocity": 64}, {"time": 3924, "pitch": 74, "duration": 12, "velocity": 64}, {"time": 3936, "pitch": 71, "duration": 18, "velocity": 64}, {"time": 3954, "pitch": 74, "duration": 6, "velocity": 64}, {"time": 3960, "pitch": 71, "duration": 12, "velocity": 64}, {"time": 3972, "pitch": 69, "duration": 12, "velocity": 64}, {"time": 3996, "pitch": 74, "duration": 24, "velocity": 64}, {"time": 4020, "pitch": 69, "duration": 12, "velocity": 64}, {"time": 4032, "pitch": 71, "duration": 18, "velocity": 64}, {"time": 4050, "pitch": 69, "duration": 6, "velocity": 64}, {"time": 4056, "pitch": 67, "duration": 12, "velocity": 64}, {"time": 4068, "pitch": 69, "duration": 12, "velocity": 64}, {"time": 4080, "pitch": 67, "duration": 24, "velocity": 64}, {"time": 4104, "pitch": 67, "duration": 12, "velocity": 64}]}]}