{"metadata": {"schema_version": "0.1", "title": "Han yang ge", "source_format": "abc"}, "resolution": 24, "tempos": [{"time": 0, "qpm": 120.0}], "key_signatures": [{"time": 0, "root": 0, "mode": "major", "fifths": 0}], "time_signatures": [{"time": 0, "numerator": 4, "denominator": 4}, {"time": 264, "numerator": 1, "denominator": 4}, {"time": 576, "numerator": 2, "denominator": 4}, {"time": 1008, "numerator": 6, "denominator": 8}, {"time": 1176, "numerator": 3, "denominator": 4}, {"time": 1248, "numerator": 4, "denominator": 4}], "beats": [{"time": 0, "is_downbeat": true}, {"time": 24, "is_downbeat": true}, {"time": 48, "is_downbeat": true}, {"time": 72, "is_downbeat": true}, {"time": 96, "is_downbeat": true}, {"time": 120, "is_downbeat": true}, {"time": 144, "is_downbeat": true}, {"time": 168, "is_downbeat": true}, {"time": 192, "is_downbeat": true}, {"time": 216, "is_downbeat": true}, {"time": 240, "is_downbeat": true}, {"time": 264, "is_downbeat": true}, {"time": 288, "is_downbeat": true}, {"time": 312, "is_downbeat": false}, {"time": 336, "is_downbeat": true}, {"time": 360, "is_downbeat": false}, {"time": 384, "is_downbeat": true}, {"time": 408, "is_downbeat": false}, {"time": 432, "is_downbeat": true}, {"time": 456, "is_downbeat": false}, {"time": 480, "is_downbeat": true}, {"time": 504, "is_downbeat": false}, {"time": 528, "is_downbeat": true}, {"time": 552, "is_downbeat": false}, {"time": 576, "is_downbeat": true}, {"time": 588, "is_downbeat": false}, {"time": 600, "is_downbeat": false}, {"time": 612, "is_downbeat": false}, {"time": 624, "is_downbeat": true}, {"time": 636, "is_downbeat": false}, {"time": 648, "is_downbeat": false}, {"time": 660, "is_downbeat": false}, {"time": 672, "is_downbeat": false}, {"time": 684, "is_downbeat": false}, {"time": 696, "is_downbeat": true}, {"time": 708, "is_downbeat": false}, {"time": 720, "is_downbeat": true}, {"time": 732, "is_downbeat": false}, {"time": 744, "is_downbeat": false}, {"time": 756, "is_downbeat": false}, {"time": 768, "is_downbeat": false}, {"time": 780, "is_downbeat": false}, {"time": 792, "is_downbeat": true}, {"time": 804, "is_downbeat": false}, {"time": 816, "is_downbeat": true}, {"time": 828, "is_downbeat": false}, {"time": 840, "is_downbeat": false}, {"time": 852, "is_downbeat": false}, {"time": 864, "is_downbeat": false}, {"time": 876, "is_downbeat": false}, {"time": 888, "is_downbeat": true}, {"time": 900, "is_downbeat": false}, {"time": 912, "is_downbeat": true}, {"time": 924, "is_downbeat": false}, {"time": 936, "is_downbeat": false}, {"time": 948, "is_downbeat": false}, {"time": 960, "is_downbeat": false}, {"time": 972, "is_downbeat": false}, {"time": 984, "is_downbeat": true}, {"time": 996, "is_downbeat": false}, {"time": 1008, "is_downbeat": true}, {"time": 1032, "is_downbeat": false}, {"time": 1056, "is_downbeat": false}, {"time": 1080, "is_downbeat": true}, {"time": 1104, "is_downbeat": false}, {"time": 1128, "is_downbeat": false}, {"time": 1152, "is_downbeat": true}, {"time": 1176, "is_downbeat": true}, {"time": 1200, "is_downbeat": false}, {"time": 1224, "is_downbeat": false}, {"time": 1248, "is_downbeat": true}, {"time": 1272, "is_downbeat": false}, {"time": 1296, "is_downbeat": false}, {"time": 1320, "is_downbeat": false}, {"time": 1344, "is_downbeat": true}, {"time": 1368, "is_downbeat": false}, {"time": 1392, "is_downbeat": false}, {"time": 1416, "is_downbeat": false}, {"time": 1440, "is_downbeat": true}, {"time": 1464, "is_downbeat": false}, {"time": 1488, "is_downbeat": true}, {"time": 1512, "is_downbeat": false}, {"time": 1536, "is_downbeat": false}, {"time": 1560, "is_downbeat": false}, {"time": 1584, "is_downbeat": true}, {"time": 1608, "is_downbeat": false}, {"time": 1632, "is_downbeat": false}, {"time": 1656, "is_downbeat": false}, {"time": 1680, "is_downbeat": true}, {"time": 1704, "is_downbeat": false}, {"time": 1728, "is_downbeat": false}, {"time": 1752, "is_downbeat": false}, {"time": 1776, "is_downbeat": true}, {"time": 1800, "is_downbeat": false}, {"time": 1824, "is_downbeat": false}, {"time": 1848, "is_downbeat": false}, {"time": 1872, "is_downbeat": true}, {"time": 1896, "is_downbeat": false}, {"time": 1920, "is_downbeat": false}, {"time": 1944, "is_downbeat": false}, {"time": 1968, "is_downbeat": true}, {"time": 1992, "is_downbeat": false}, {"time": 2016, "is_downbeat": true}, {"time": 2040, "is_downbeat": false}, {"time": 2064, "is_downbeat": true}, {"time": 2088, "is_downbeat": false}, {"time": 2112, "is_downbeat": false}, {"time": 2136, "is_downbeat": false}, {"time": 2160, "is_downbeat": true}, {"time": 2184, "is_downbeat": false}, {"time": 2208, "is_downbeat": false}, {"time": 2232, "is_downbeat": false}, {"time": 2256, "is_downbeat": true}, {"time": 2280, "is_downbeat": false}, {"time": 2304, "is_downbeat": false}, {"time": 2328, "is_downbeat": false}], "tracks": [{"program": 0, "is_drum": false, "notes": [{"time": 0, "pitch": 72, "duration": 18, "velocity": 64}, {"time": 18, "pitch": 69, "duration": 6, "velocity": 64}, {"time": 24, "pitch": 67, "duration": 72, "velocity": 64}, {"time": 96, "pitch": 64, "duration": 12, "velocity": 64}, {"time": 108, "pitch": 67, "duration": 12, "velocity": 64}, {"time": 120, "pitch": 72, "duration": 18, "velocity": 64}, {"time": 138, "pitch": 69, "duration": 6, "velocity": 64}, {"time": 144, "pitch": 72, "duration": 12, "velocity": 64}, {"time": 156, "pitch": 74, "duration": 12, "velocity": 64}, {"time": 168, "pitch": 79, "duration": 6, "velocity": 64}, {"time": 174, "pitch": 76, "duration": 66, "velocity": 64}, {"time": 240, "pitch": 79, "duration": 6, "velocity": 64}, {"time": 246, "pitch": 76, "duration": 18, "velocity": 64}, {"time": 264, "pitch": 74, "duration": 24, "velocity": 64}, {"time": 288, "pitch": 72, "duration": 96, "velocity": 64}, {"time": 384, "pitch": 72, "duration": 18, "velocity": 64}, {"time": 402, "pitch": 74, "duration": 6, "velocity": 64}, {"time": 408, "pitch": 76, "duration": 12, "velocity": 64}, {"time": 420, "pitch": 79, "duration": 6, "velocity": 64}, {"time": 426, "pitch": 76, "duration": 6, "velocity": 64}, {"time": 432, "pitch": 74, "duration": 48, "velocity": 64}, {"time": 480, "pitch": 72, "duration": 6, "velocity": 64}, {"time": 486, "pitch": 69, "duration": 42, "velocity": 64}, {"time": 528, "pitch": 72, "duration": 24, "velocity": 64}, {"time": 552, "pitch": 74, "duration": 18, "velocity": 64}, {"time": 570, "pitch": 76, "duration": 6, "velocity": 64}, {"time": 576, "pitch": 79, "duration": 6, "velocity": 64}, {"time": 582, "pitch": 76, "duration": 6, "velocity": 64}, {"time": 588, "pitch": 74, "duration": 3, "velocity": 64}, {"time": 591, "pitch": 72, "duration": 3, "velocity": 64}, {"time": 594, "pitch": 69, "duration": 6, "velocity": 64}, {"time": 600, "pitch": 69, "duration": 18, "velocity": 64}, {"time": 618, "pitch": 72, "duration": 6, "velocity": 64}, {"time": 624, "pitch": 74, "duration": 72, "velocity": 64}, {"time": 696, "pitch": 76, "duration": 6, "velocity": 64}, {"time": 702, "pitch": 74, "duration": 18, "velocity": 64}, {"time": 720, "pitch": 76, "duration": 24, "velocity": 64}, {"time": 744, "pitch": 74, "duration": 12, "velocity": 64}, {"time": 756, "pitch": 72, "duration": 12, "velocity": 64}, {"time": 768, "pitch": 72, "duration": 6, "velocity": 64}, {"time": 774, "pitch": 69, "duration": 42, "velocity": 64}, {"time": 816, "pitch": 67, "duration": 18, "velocity": 64}, {"time": 834, "pitch": 69, "duration": 6, "velocity": 64}, {"time": 840, "pitch": 72, "duration": 36, "velocity": 64}, {"time": 876, "pitch": 79, "duration": 6, "velocity": 64}, {"time": 882, "pitch": 76, "duration": 6, "velocity": 64}, {"time": 888, "pitch": 74, "duration": 6, "velocity": 64}, {"time": 894, "pitch": 74, "duration": 6, "velocity": 64}, {"time": 900, "pitch": 72, "duration": 6, "velocity": 64}, {"time": 906, "pitch": 69, "duration": 6, "velocity": 64}, {"time": 912, "pitch": 69, "duration": 24, "velocity": 64}, {"time": 936, "pitch": 69, "duration": 48, "velocity": 64}, {"time": 984, "pitch": 79, "duration": 6, "velocity": 64}, {"time": 990, "pitch": 76, "duration": 90, "velocity": 64}, {"time": 1080, "pitch": 76, "duration": 6, "velocity": 64}, {"time": 1086, "pitch": 74, "duration": 66, "velocity": 64}, {"time": 1152, "pitch": 79, "duration": 12, "velocity": 64}, {"time": 1164, "pitch": 76, "duration": 24, "velocity": 64}, {"time": 1188, "pitch": 74, "duration": 12, "velocity": 64}, {"time": 1200, "pitch": 72, "duration": 24, "velocity": 64}, {"time": 1224, "pitch": 74, "duration": 24, "velocity": 64}, {"time": 1248, "pitch": 79, "duration": 12, "velocity": 64}, {"time": 1260, "pitch": 76, "duration": 24, "velocity": 64}, {"time": 1284, "pitch": 74, "duration": 12, "velocity": 64}, {"time": 1296, "pitch": 76, "duration": 48, "velocity": 64}, {"time": 1344, "pitch": 74, "duration": 24, "velocity": 64}, {"time": 1368, "pitch": 76, "duration": 12, "velocity": 64}, {"time": 1380, "pitch": 79, "duration": 12, "velocity": 64}, {"time": 1392, "pitch": 74, "duration": 12, "velocity": 64}, {"time": 1404, "pitch": 72, "duration": 12, "velocity": 64}, {"time": 1416, "pitch": 69, "duration": 24, "velocity": 64}, {"time": 1440, "pitch": 72, "duration": 12, "velocity": 64}, {"time": 1452, "pitch": 69, "duration": 6, "velocity": 64}, {"time": 1458, "pitch": 72, "duration": 6, "velocity": 64}, {"time": 1464, "pitch": 74, "duration": 6, "velocity": 64}, {"time": 1470, "pitch": 72, "duration": 3, "velocity": 64}, {"time": 1473, "pitch": 74, "duration": 3, "velocity": 64}, {"time": 1476, "pitch": 76, "duration": 6, "velocity": 64}, {"time": 1482, "pitch": 74, "duration": 6, "velocity": 64}, {"time": 1488, "pitch": 72, "duration": 36, "velocity": 64}, {"time": 1524, "pitch": 69, "duration": 12, "velocity": 64}, {"time": 1536, "pitch": 72, "duration": 24, "velocity": 64}, {"time": 1560, "pitch": 74, "duration": 24, "velocity": 64}, {"time": 1584, "pitch": 79, "duration": 6, "velocity": 64}, {"time": 1590, "pitch": 76, "duration": 30, "velocity": 64}, {"time": 1620, "pitch": 74, "duration": 12, "velocity": 64}, {"time": 1632, "pitch": 76, "duration": 24, "velocity": 64}, {"time": 1680, "pitch": 79, "duration": 6, "velocity": 64}, {"time": 1686, "pitch": 76, "duration": 30, "velocity": 64}, {"time": 1716, "pitch": 74, "duration": 12, "velocity": 64}, {"time": 1728, "pitch": 72, "duration": 24, "velocity": 64}, {"time": 1752, "pitch": 79, "duration": 6, "velocity": 64}, {"time": 1758, "pitch": 76, "duration": 18, "velocity": 64}, {"time": 1776, "pitch": 74, "duration": 36, "velocity": 64}, {"time": 1812, "pitch": 76, "duration": 12, "velocity": 64}, {"time": 1824, "pitch": 69, "duration": 6, "velocity": 64}, {"time": 1830, "pitch": 72, "duration": 30, "velocity": 64}, {"time": 1860, "pitch": 69, "duration": 12, "velocity": 64}, {"time": 1872, "pitch": 74, "duration": 6, "velocity": 64}, {"time": 1878, "pitch": 72, "duration": 18, "velocity": 64}, {"time": 1896, "pitch": 69, "duration": 12, "velocity": 64}, {"time": 1908, "pitch": 67, "duration": 12, "velocity": 64}, {"time": 1920, "pitch": 72, "duration": 6, "velocity": 64}, {"time": 1926, "pitch": 69, "duration": 42, "velocity": 64}, {"time": 1968, "pitch": 72, "duration": 36, "velocity": 64}, {"time": 2004, "pitch": 74, "duration": 6, "velocity": 64}, {"time": 2010, "pitch": 76, "duration": 6, "velocity": 64}, {"time": 2016, "pitch": 76, "duration": 12, "velocity": 64}, {"time": 2028, "pitch": 74, "duration": 24, "velocity": 64}, {"time": 2052, "pitch": 69, "duration": 12, "velocity": 64}, {"time": 2064, "pitch": 72, "duration": 48, "velocity": 64}, {"time": 2112, "pitch": 74, "duration": 6, "velocity": 64}, {"time": 2118, "pitch": 74, "duration": 42, "velocity": 64}, {"time": 2160, "pitch": 76, "duration": 6, "velocity": 64}, {"time": 2166, "pitch": 74, "duration": 18, "velocity": 64}, {"time": 2184, "pitch": 72, "duration": 6, "velocity": 64}, {"time": 2190, "pitch": 69, "duration": 66, "velocity": 64}, {"time": 2256, "pitch": 72, "duration": 6, "velocity": 64}, {"time": 2262, "pitch": 69, "duration": 18, "velocity": 64}, {"time": 2280, "pitch": 67, "duration": 12, "velocity": 64}, {"time": 2292, "pitch": 69, "duration": 12, "velocity": 64}, {"time": 2304, "pitch": 67, "duration": 24, "velocity": 64}]}]}