{"metadata": {"schema_version": "0.1", "title": "Niu ge", "source_format": "abc"}, "resolution": 24, "tempos": [{"time": 0, "qpm": 120.0}], "key_signatures": [{"time": 0, "root": 10, "mode": "major", "fifths": -2}], "time_signatures": [{"time": 0, "numerator": 4, "denominator": 4}, {"time": 1680, "numerator": 3, "denominator": 2}, {"time": 1872, "numerator": 3, "denominator": 2}, {"time": 2064, "numerator": 3, "denominator": 2}, {"time": 2256, "numerator": 3, "denominator": 2}, {"time": 2448, "numerator": 3, "denominator": 2}, {"time": 2928, "numerator": 4, "denominator": 4}, {"time": 3024, "numerator": 2, "denominator": 4}], "beats": [{"time": 0, "is_downbeat": true}, {"time": 48, "is_downbeat": true}, {"time": 96, "is_downbeat": true}, {"time": 144, "is_downbeat": true}, {"time": 192, "is_downbeat": true}, {"time": 240, "is_downbeat": true}, {"time": 288, "is_downbeat": true}, {"time": 336, "is_downbeat": true}, {"time": 384, "is_downbeat": true}, {"time": 432, "is_downbeat": true}, {"time": 480, "is_downbeat": true}, {"time": 528, "is_downbeat": true}, {"time": 576, "is_downbeat": true}, {"time": 624, "is_downbeat": true}, {"time": 672, "is_downbeat": true}, {"time": 720, "is_downbeat": true}, {"time": 768, "is_downbeat": true}, {"time": 816, "is_downbeat": true}, {"time": 864, "is_downbeat": true}, {"time": 912, "is_downbeat": true}, {"time": 960, "is_downbeat": true}, {"time": 1008, "is_downbeat": true}, {"time": 1056, "is_downbeat": true}, {"time": 1104, "is_downbeat": true}, {"time": 1152, "is_downbeat": true}, {"time": 1200, "is_downbeat": true}, {"time": 1248, "is_downbeat": true}, {"time": 1296, "is_downbeat": true}, {"time": 1344, "is_downbeat": true}, {"time": 1392, "is_downbeat": true}, {"time": 1440, "is_downbeat": true}, {"time": 1488, "is_downbeat": true}, {"time": 1536, "is_downbeat": true}, {"time": 1584, "is_downbeat": true}, {"time": 1632, "is_downbeat": true}, {"time": 1680, "is_downbeat": true}, {"time": 1728, "is_downbeat": false}, {"time": 1776, "is_downbeat": false}, {"time": 1824, "is_downbeat": true}, {"time": 1872, "is_downbeat": true}, {"time": 1920, "is_downbeat": false}, {"time": 1968, "is_downbeat": false}, {"time": 2016, "is_downbeat": true}, {"time": 2064, "is_downbeat": true}, {"time": 2112, "is_downbeat": false}, {"time": 2160, "is_downbeat": false}, {"time": 2208, "is_downbeat": true}, {"time": 2256, "is_downbeat": true}, {"time": 2304, "is_downbeat": false}, {"time": 2352, "is_downbeat": false}, {"time": 2400, "is_downbeat": true}, {"time": 2448, "is_downbeat": true}, {"time": 2472, "is_downbeat": false}, {"time": 2496, "is_downbeat": false}, {"time": 2520, "is_downbeat": false}, {"time": 2544, "is_downbeat": true}, {"time": 2568, "is_downbeat": false}, {"time": 2592, "is_downbeat": true}, {"time": 2616, "is_downbeat": false}, {"time": 2640, "is_downbeat": true}, {"time": 2664, "is_downbeat": false}, {"time": 2688, "is_downbeat": true}, {"time": 2712, "is_downbeat": false}, {"time": 2736, "is_downbeat": true}, {"time": 2760, "is_downbeat": false}, {"time": 2784, "is_downbeat": true}, {"time": 2808, "is_downbeat": false}, {"time": 2832, "is_downbeat": true}, {"time": 2856, "is_downbeat": false}, {"time": 2880, "is_downbeat": true}, {"time": 2904, "is_downbeat": false}, {"time": 2928, "is_downbeat": true}, {"time": 2952, "is_downbeat": false}, {"time": 2976, "is_downbeat": true}, {"time": 3000, "is_downbeat": false}, {"time": 3024, "is_downbeat": true}, {"time": 3048, "is_downbeat": false}, {"time": 3072, "is_downbeat": true}, {"time": 3096, "is_downbeat": false}, {"time": 3120, "is_downbeat": true}, {"time": 3144, "is_downbeat": false}, {"time": 3168, "is_downbeat": true}, {"time": 3192, "is_downbeat": false}, {"time": 3216, "is_downbeat": true}, {"time": 3240, "is_downbeat": false}, {"time": 3264, "is_downbeat": true}, {"time": 3288, "is_downbeat": false}, {"time": 3312, "is_downbeat": true}, {"time": 3336, "is_downbeat": false}, {"time": 3360, "is_downbeat": true}, {"time": 3384, "is_downbeat": false}, {"time": 3408, "is_downbeat": true}, {"time": 3432, "is_downbeat": false}, {"time": 3456, "is_downbeat": true}, {"time": 3480, "is_downbeat": false}, {"time": 3504, "is_downbeat": true}, {"time": 3528, "is_downbeat": false}], "tracks": [{"program": 0, "is_drum": false, "notes": [{"time": 0, "pitch": 70, "duration": 12, "velocity": 64}, {"time": 12, "pitch": 67, "duration": 12, "velocity": 64}, {"time": 24, "pitch": 74, "duration": 12, "velocity": 64}, {"time": 36, "pitch": 72, "duration": 6, "velocity": 64}, {"time": 42, "pitch": 70, "duration": 6, "velocity": 64}, {"time": 48, "pitch": 67, "duration": 48, "velocity": 64}, {"time": 96, "pitch": 70, "duration": 12, "velocity": 64}, {"time": 108, "pitch": 67, "duration": 12, "velocity": 64}, {"time": 120, "pitch": 74, "duration": 12, "velocity": 64}, {"time": 132, "pitch": 72, "duration": 6, "velocity": 64}, {"time": 138, "pitch": 70, "duration": 6, "velocity": 64}, {"time": 144, "pitch": 67, "duration": 48, "velocity": 64}, {"time": 192, "pitch": 70, "duration": 12, "velocity": 64}, {"time": 204, "pitch": 70, "duration": 6, "velocity": 64}, {"time": 210, "pitch": 67, "duration": 6, "velocity": 64}, {"time": 216, "pitch": 70, "duration": 12, "velocity": 64}, {"time": 228, "pitch": 72, "duration": 12, "velocity": 64}, {"time": 240, "pitch": 74, "duration": 24, "velocity": 64}, {"time": 264, "pitch": 72, "duration": 12, "velocity": 64}, {"time": 276, "pitch": 67, "duration": 12, "velocity": 64}, {"time": 288, "pitch": 70, "duration": 12, "velocity": 64}, {"time": 300, "pitch": 70, "duration": 12, "velocity": 64}, {"time": 312, "pitch": 72, "duration": 12, "velocity": 64}, {"time": 324, "pitch": 70, "duration": 6, "velocity": 64}, {"time": 330, "pitch": 72, "duration": 6, "velocity": 64}, {"time": 336, "pitch": 67, "duration": 48, "velocity": 64}, {"time": 384, "pitch": 72, "duration": 12, "velocity": 64}, {"time": 396, "pitch": 74, "duration": 12, "velocity": 64}, {"time": 408, "pitch": 72, "duration": 12, "velocity": 64}, {"time": 420, "pitch": 70, "duration": 6, "velocity": 64}, {"time": 426, "pitch": 67, "duration": 6, "velocity": 64}, {"time": 432, "pitch": 65, "duration": 12, "velocity": 64}, {"time": 444, "pitch": 65, "duration": 24, "velocity": 64}, {"time": 468, "pitch": 67, "duration": 12, "velocity": 64}, {"time": 480, "pitch": 70, "duration": 12, "velocity": 64}, {"time": 492, "pitch": 67, "duration": 12, "velocity": 64}, {"time": 504, "pitch": 72, "duration": 12, "velocity": 64}, {"time": 516, "pitch": 72, "duration": 6, "velocity": 64}, {"time": 522, "pitch": 70, "duration": 6, "velocity": 64}, {"time": 528, "pitch": 67, "duration": 48, "velocity": 64}, {"time": 576, "pitch": 70, "duration": 12, "velocity": 64}, {"time": 588, "pitch": 67, "duration": 12, "velocity": 64}, {"time": 600, "pitch": 74, "duration": 12, "velocity": 64}, {"time": 612, "pitch": 72, "duration": 6, "velocity": 64}, {"time": 618, "pitch": 70, "duration": 6, "velocity": 64}, {"time": 624, "pitch": 67, "duration": 48, "velocity": 64}, {"time": 672, "pitch": 70, "duration": 12, "velocity": 64}, {"time": 684, "pitch": 67, "duration": 12, "velocity": 64}, {"time": 696, "pitch": 74, "duration": 12, "velocity": 64}, {"time": 708, "pitch": 72, "duration": 6, "velocity": 64}, {"time": 714, "pitch": 70, "duration": 6, "velocity": 64}, {"time": 720, "pitch": 67, "duration": 48, "velocity": 64}, {"time": 768, "pitch": 70, "duration": 12, "velocity": 64}, {"time": 780, "pitch": 70, "duration": 6, "velocity": 64}, {"time": 786, "pitch": 67, "duration": 6, "velocity": 64}, {"time": 792, "pitch": 70, "duration": 12, "velocity": 64}, {"time": 804, "pitch": 72, "duration": 12, "velocity": 64}, {"time": 816, "pitch": 74, "duration": 24, "velocity": 64}, {"time": 840, "pitch": 72, "duration": 12, "velocity": 64}, {"time": 852, "pitch": 67, "duration": 12, "velocity": 64}, {"time": 864, "pitch": 70, "duration": 12, "velocity": 64}, {"time": 876, "pitch": 70, "duration": 12, "velocity": 64}, {"time": 888, "pitch": 72, "duration": 12, "velocity": 64}, {"time": 900, "pitch": 70, "duration": 6, "velocity": 64}, {"time": 906, "pitch": 72, "duration": 6, "velocity": 64}, {"time": 912, "pitch": 67, "duration": 48, "velocity": 64}, {"time": 960, "pitch": 72, "duration": 12, "velocity": 64}, {"time": 972, "pitch": 74, "duration": 12, "velocity": 64}, {"time": 984, "pitch": 72, "duration": 12, "velocity": 64}, {"time": 996, "pitch": 70, "duration": 6, "velocity": 64}, {"time": 1002, "pitch": 67, "duration": 6, "velocity": 64}, {"time": 1008, "pitch": 65, "duration": 12, "velocity": 64}, {"time": 1020, "pitch": 65, "duration": 24, "velocity": 64}, {"time": 1044, "pitch": 67, "duration": 12, "velocity": 64}, {"time": 1056, "pitch": 70, "duration": 12, "velocity": 64}, {"time": 1068, "pitch": 67, "duration": 12, "velocity": 64}, {"time": 1080, "pitch": 72, "duration": 12, "velocity": 64}, {"time": 1092, "pitch": 72, "duration": 6, "velocity": 64}, {"time": 1098, "pitch": 70, "duration": 6, "velocity": 64}, {"time": 1104, "pitch": 67, "duration": 48, "velocity": 64}, {"time": 1152, "pitch": 70, "duration": 12, "velocity": 64}, {"time": 1164, "pitch": 67, "duration": 12, "velocity": 64}, {"time": 1176, "pitch": 70, "duration": 12, "velocity": 64}, {"time": 1188, "pitch": 72, "duration": 12, "velocity": 64}, {"time": 1200, "pitch": 74, "duration": 24, "velocity": 64}, {"time": 1224, "pitch": 72, "duration": 12, "velocity": 64}, {"time": 1236, "pitch": 67, "duration": 12, "velocity": 64}, {"time": 1248, "pitch": 70, "duration": 12, "velocity": 64}, {"time": 1260, "pitch": 70, "duration": 12, "velocity": 64}, {"time": 1272, "pitch": 72, "duration": 12, "velocity": 64}, {"time": 1284, "pitch": 70, "duration": 6, "velocity": 64}, {"time": 1290, "pitch": 72, "duration": 6, "velocity": 64}, {"time": 1296, "pitch": 67, "duration": 48, "velocity": 64}, {"time": 1344, "pitch": 72, "duration": 12, "velocity": 64}, {"time": 1356, "pitch": 74, "duration": 12, "velocity": 64}, {"time": 1368, "pitch": 72, "duration": 12, "velocity": 64}, {"time": 1380, "pitch": 70, "duration": 6, "velocity": 64}, {"time": 1386, "pitch": 67, "duration": 6, "velocity": 64}, {"time": 1392, "pitch": 65, "duration": 12, "velocity": 64}, {"time": 1404, "pitch": 65, "duration": 24, "velocity": 64}, {"time": 1428, "pitch": 67, "duration": 12, "velocity": 64}, {"time": 1440, "pitch": 70, "duration": 12, "velocity": 64}, {"time": 1452, "pitch": 67, "duration": 12, "velocity": 64}, {"time": 1464, "pitch": 72, "duration": 12, "velocity": 64}, {"time": 1476, "pitch": 72, "duration": 6, "velocity": 64}, {"time": 1482, "pitch": 70, "duration": 6, "velocity": 64}, {"time": 1488, "pitch": 67, "duration": 48, "velocity": 64}, {"time": 1536, "pitch": 69, "duration": 18, "velocity": 64}, {"time": 1554, "pitch": 69, "duration": 6, "velocity": 64}, {"time": 1560, "pitch": 69, "duration": 12, "velocity": 64}, {"time": 1572, "pitch": 72, "duration": 12, "velocity": 64}, {"time": 1584, "pitch": 74, "duration": 18, "velocity": 64}, {"time": 1602, "pitch": 72, "duration": 6, "velocity": 64}, {"time": 1608, "pitch": 69, "duration": 24, "velocity": 64}, {"time": 1632, "pitch": 74, "duration": 12, "velocity": 64}, {"time": 1644, "pitch": 72, "duration": 12, "velocity": 64}, {"time": 1656, "pitch": 74, "duration": 12, "velocity": 64}, {"time": 1668, "pitch": 77, "duration": 24, "velocity": 64}, {"time": 1692, "pitch": 74, "duration": 6, "velocity": 64}, {"time": 1698, "pitch": 77, "duration": 6, "velocity": 64}, {"time": 1704, "pitch": 72, "duration": 24, "velocity": 64}, {"time": 1728, "pitch": 77, "duration": 12, "velocity": 64}, {"time": 1740, "pitch": 77, "duration": 12, "velocity": 64}, {"time": 1752, "pitch": 72, "duration": 12, "velocity": 64}, {"time": 1764, "pitch": 77, "duration": 12, "velocity": 64}, {"time": 1776, "pitch": 74, "duration": 18, "velocity": 64}, {"time": 1794, "pitch": 72, "duration": 6, "velocity": 64}, {"time": 1800, "pitch": 69, "duration": 24, "velocity": 64}, {"time": 1824, "pitch": 72, "duration": 18, "velocity": 64}, {"time": 1842, "pitch": 74, "duration": 6, "velocity": 64}, {"time": 1848, "pitch": 69, "duration": 12, "velocity": 64}, {"time": 1860, "pitch": 67, "duration": 6, "velocity": 64}, {"time": 1866, "pitch": 69, "duration": 6, "velocity": 64}, {"time": 1872, "pitch": 72, "duration": 48, "velocity": 64}, {"time": 1920, "pitch": 69, "duration": 18, "velocity": 64}, {"time": 1938, "pitch": 69, "duration": 6, "velocity": 64}, {"time": 1944, "pitch": 69, "duration": 12, "velocity": 64}, {"time": 1956, "pitch": 72, "duration": 12, "velocity": 64}, {"time": 1968, "pitch": 74, "duration": 18, "velocity": 64}, {"time": 1986, "pitch": 72, "duration": 6, "velocity": 64}, {"time": 1992, "pitch": 69, "duration": 24, "velocity": 64}, {"time": 2016, "pitch": 74, "duration": 12, "velocity": 64}, {"time": 2028, "pitch": 72, "duration": 12, "velocity": 64}, {"time": 2040, "pitch": 74, "duration": 12, "velocity": 64}, {"time": 2052, "pitch": 77, "duration": 24, "velocity": 64}, {"time": 2076, "pitch": 74, "duration": 6, "velocity": 64}, {"time": 2082, "pitch": 77, "duration": 6, "velocity": 64}, {"time": 2088, "pitch": 72, "duration": 24, "velocity": 64}, {"time": 2112, "pitch": 77, "duration": 12, "velocity": 64}, {"time": 2124, "pitch": 77, "duration": 12, "velocity": 64}, {"time": 2136, "pitch": 72, "duration": 12, "velocity": 64}, {"time": 2148, "pitch": 77, "duration": 12, "velocity": 64}, {"time": 2160, "pitch": 74, "duration": 18, "velocity": 64}, {"time": 2178, "pitch": 72, "duration": 6, "velocity": 64}, {"time": 2184, "pitch": 69, "duration": 24, "velocity": 64}, {"time": 2208, "pitch": 72, "duration": 18, "velocity": 64}, {"time": 2226, "pitch": 74, "duration": 6, "velocity": 64}, {"time": 2232, "pitch": 69, "duration": 12, "velocity": 64}, {"time": 2244, "pitch": 67, "duration": 6, "velocity": 64}, {"time": 2250, "pitch": 69, "duration": 6, "velocity": 64}, {"time": 2256, "pitch": 72, "duration": 48, "velocity": 64}, {"time": 2304, "pitch": 69, "duration": 18, "velocity": 64}, {"time": 2322, "pitch": 69, "duration": 6, "velocity": 64}, {"time": 2328, "pitch": 69, "duration": 12, "velocity": 64}, {"time": 2340, "pitch": 72, "duration": 12, "velocity": 64}, {"time": 2352, "pitch": 74, "duration": 18, "velocity": 64}, {"time": 2370, "pitch": 72, "duration": 6, "velocity": 64}, {"time": 2376, "pitch": 69, "duration": 24, "velocity": 64}, {"time": 2400, "pitch": 74, "duration": 12, "velocity": 64}, {"time": 2412, "pitch": 72, "duration": 12, "velocity": 64}, {"time": 2424, "pitch": 74, "duration": 12, "velocity": 64}, {"time": 2436, "pitch": 77, "duration": 24, "velocity": 64}, {"time": 2460, "pitch": 74, "duration": 6, "velocity": 64}, {"time": 2466, "pitch": 77, "duration": 6, "velocity": 64}, {"time": 2472, "pitch": 72, "duration": 24, "velocity": 64}, {"time": 2496, "pitch": 77, "duration": 18, "velocity": 64}, {"time": 2514, "pitch": 77, "duration": 6, "velocity": 64}, {"time": 2520, "pitch": 72, "duration": 12, "velocity": 64}, {"time": 2532, "pitch": 77, "duration": 12, "velocity": 64}, {"time": 2544, "pitch": 74, "duration": 18, "velocity": 64}, {"time": 2562, "pitch": 72, "duration": 6, "velocity": 64}, {"time": 2568, "pitch": 69, "duration": 24, "velocity": 64}, {"time": 2592, "pitch": 72, "duration": 18, "velocity": 64}, {"time": 2610, "pitch": 74, "duration": 6, "velocity": 64}, {"time": 2616, "pitch": 72, "duration": 12, "velocity": 64}, {"time": 2628, "pitch": 69, "duration": 12, "velocity": 64}, {"time": 2640, "pitch": 67, "duration": 24, "velocity": 64}, {"time": 2664, "pitch": 67, "duration": 12, "velocity": 64}, {"time": 2676, "pitch": 67, "duration": 6, "velocity": 64}, {"time": 2682, "pitch": 69, "duration": 6, "velocity": 64}, {"time": 2688, "pitch": 72, "duration": 24, "velocity": 64}, {"time": 2712, "pitch": 74, "duration": 12, "velocity": 64}, {"time": 2724, "pitch": 74, "duration": 6, "velocity": 64}, {"time": 2730, "pitch": 72, "duration": 6, "velocity": 64}, {"time": 2736, "pitch": 69, "duration": 24, "velocity": 64}, {"time": 2760, "pitch": 67, "duration": 12, "velocity": 64}, {"time": 2772, "pitch": 67, "duration": 6, "velocity": 64}, {"time": 2778, "pitch": 69, "duration": 6, "velocity": 64}, {"time": 2784, "pitch": 72, "duration": 24, "velocity": 64}, {"time": 2808, "pitch": 74, "duration": 12, "velocity": 64}, {"time": 2820, "pitch": 74, "duration": 6, "velocity": 64}, {"time": 2826, "pitch": 72, "duration": 6, "velocity": 64}, {"time": 2832, "pitch": 69, "duration": 12, "velocity": 64}, {"time": 2844, "pitch": 72, "duration": 12, "velocity": 64}, {"time": 2856, "pitch": 67, "duration": 12, "velocity": 64}, {"time": 2868, "pitch": 65, "duration": 12, "velocity": 64}, {"time": 2880, "pitch": 69, "duration": 96, "velocity": 64}, {"time": 2976, "pitch": 70, "duration": 12, "velocity": 64}, {"time": 2988, "pitch": 67, "duration": 12, "velocity": 64}, {"time": 3000, "pitch": 74, "duration": 12, "velocity": 64}, {"time": 3012, "pitch": 72, "duration": 6, "velocity": 64}, {"time": 3018, "pitch": 70, "duration": 6, "velocity": 64}, {"time": 3024, "pitch": 67, "duration": 48, "velocity": 64}, {"time": 3072, "pitch": 70, "duration": 12, "velocity": 64}, {"time": 3084, "pitch": 67, "duration": 12, "velocity": 64}, {"time": 3096, "pitch": 74, "duration": 12, "velocity": 64}, {"time": 3108, "pitch": 72, "duration": 6, "velocity": 64}, {"time": 3114, "pitch": 70, "duration": 6, "velocity": 64}, {"time": 3120, "pitch": 67, "duration": 48, "velocity": 64}, {"time": 3168, "pitch": 70, "duration": 12, "velocity": 64}, {"time": 3180, "pitch": 70, "duration": 6, "velocity": 64}, {"time": 3186, "pitch": 67, "duration": 6, "velocity": 64}, {"time": 3192, "pitch": 70, "duration": 12, "velocity": 64}, {"time": 3204, "pitch": 72, "duration": 12, "velocity": 64}, {"time": 3216, "pitch": 74, "duration": 24, "velocity": 64}, {"time": 3240, "pitch": 72, "duration": 12, "velocity": 64}, {"time": 3252, "pitch": 67, "duration": 12, "velocity": 64}, {"time": 3264, "pitch": 70, "duration": 12, "velocity": 64}, {"time": 3276, "pitch": 70, "duration": 12, "velocity": 64}, {"time": 3288, "pitch": 72, "duration": 12, "velocity": 64}, {"time": 3300, "pitch": 70, "duration": 6, "velocity": 64}, {"time": 3306, "pitch": 72, "duration": 6, "velocity": 64}, {"time": 3312, "pitch": 67, "duration": 48, "velocity": 64}, {"time": 3360, "pitch": 72, "duration": 12, "velocity": 64}, {"time": 3372, "pitch": 74, "duration": 12, "velocity": 64}, {"time": 3384, "pitch": 72, "duration": 12, "velocity": 64}, {"time": 3396, "pitch": 70, "duration": 6, "velocity": 64}, {"time": 3402, "pitch": 67, "duration": 6, "velocity": 64}, {"time": 3408, "pitch": 65, "duration": 12, "velocity": 64}, {"time": 3420, "pitch": 65, "duration": 24, "velocity": 64}, {"time": 3444, "pitch": 67, "duration": 12, "velocity": 64}, {"time": 3456, "pitch": 70, "duration": 12, "velocity": 64}, {"time": 3468, "pitch": 70, "duration": 12, "velocity": 64}, {"time": 3480, "pitch": 72, "duration": 12, "velocity": 64}, {"time": 3492, "pitch": 70, "duration": 6, "velocity": 64}, {"time": 3498, "pitch": 72, "duration": 6, "velocity": 64}, {"time": 3504, "pitch": 67, "duration": 48, "velocity": 64}]}]}