{"metadata": {"schema_version": "0.1", "title": "Dui hua", "source_format": "abc"}, "resolution": 24, "tempos": [{"time": 0, "qpm": 120.0}], "key_signatures": [{"time": 0, "root": 9, "mode": "major", "fifths": 3}], "time_signatures": [{"time": 0, "numerator": 4, "denominator": 4}, {"time": 288, "numerator": 1, "denominator": 4}, {"time": 384, "numerator": 2, "denominator": 4}, {"time": 504, "numerator": 1, "denominator": 4}, {"time": 600, "numerator": 1, "denominator": 4}, {"time": 744, "numerator": 2, "denominator": 4}, {"time": 912, "numerator": 1, "denominator": 4}, {"time": 1104, "numerator": 1, "denominator": 4}, {"time": 1344, "numerator": 1, "denominator": 4}, {"time": 1440, "numerator": 1, "denominator": 4}, {"time": 1536, "numerator": 1, "denominator": 4}, {"time": 1632, "numerator": 1, "denominator": 4}, {"time": 1728, "numerator": 2, "denominator": 4}, {"time": 1944, "numerator": 1, "denominator": 4}, {"time": 2088, "numerator": 1, "denominator": 4}, {"time": 2280, "numerator": 1, "denominator": 4}, {"time": 2376, "numerator": 1, "denominator": 4}, {"time": 2400, "numerator": 3, "denominator": 4}], "beats": [{"time": 0, "is_downbeat": true}, {"time": 24, "is_downbeat": true}, {"time": 48, "is_downbeat": true}, {"time": 72, "is_downbeat": true}, {"time": 96, "is_downbeat": true}, {"time": 120, "is_downbeat": true}, {"time": 144, "is_downbeat": true}, {"time": 168, "is_downbeat": true}, {"time": 192, "is_downbeat": true}, {"time": 216, "is_downbeat": true}, {"time": 240, "is_downbeat": true}, {"time": 264, "is_downbeat": true}, {"time": 288, "is_downbeat": true}, {"time": 312, "is_downbeat": true}, {"time": 336, "is_downbeat": false}, {"time": 360, "is_downbeat": true}, {"time": 384, "is_downbeat": true}, {"time": 408, "is_downbeat": true}, {"time": 432, "is_downbeat": true}, {"time": 456, "is_downbeat": true}, {"time": 480, "is_downbeat": true}, {"time": 504, "is_downbeat": true}, {"time": 528, "is_downbeat": true}, {"time": 552, "is_downbeat": true}, {"time": 576, "is_downbeat": true}, {"time": 600, "is_downbeat": true}, {"time": 624, "is_downbeat": true}, {"time": 648, "is_downbeat": false}, {"time": 672, "is_downbeat": true}, {"time": 696, "is_downbeat": false}, {"time": 720, "is_downbeat": true}, {"time": 744, "is_downbeat": true}, {"time": 768, "is_downbeat": true}, {"time": 792, "is_downbeat": true}, {"time": 816, "is_downbeat": true}, {"time": 840, "is_downbeat": true}, {"time": 864, "is_downbeat": true}, {"time": 888, "is_downbeat": true}, {"time": 912, "is_downbeat": true}, {"time": 936, "is_downbeat": true}, {"time": 960, "is_downbeat": true}, {"time": 984, "is_downbeat": true}, {"time": 1008, "is_downbeat": true}, {"time": 1032, "is_downbeat": true}, {"time": 1056, "is_downbeat": true}, {"time": 1080, "is_downbeat": true}, {"time": 1104, "is_downbeat": true}, {"time": 1128, "is_downbeat": true}, {"time": 1152, "is_downbeat": true}, {"time": 1176, "is_downbeat": true}, {"time": 1200, "is_downbeat": true}, {"time": 1224, "is_downbeat": true}, {"time": 1248, "is_downbeat": true}, {"time": 1272, "is_downbeat": true}, {"time": 1296, "is_downbeat": true}, {"time": 1320, "is_downbeat": true}, {"time": 1344, "is_downbeat": true}, {"time": 1368, "is_downbeat": true}, {"time": 1392, "is_downbeat": true}, {"time": 1416, "is_downbeat": true}, {"time": 1440, "is_downbeat": true}, {"time": 1464, "is_downbeat": true}, {"time": 1488, "is_downbeat": true}, {"time": 1512, "is_downbeat": true}, {"time": 1536, "is_downbeat": true}, {"time": 1560, "is_downbeat": true}, {"time": 1584, "is_downbeat": true}, {"time": 1608, "is_downbeat": true}, {"time": 1632, "is_downbeat": true}, {"time": 1656, "is_downbeat": true}, {"time": 1680, "is_downbeat": false}, {"time": 1704, "is_downbeat": true}, {"time": 1728, "is_downbeat": true}, {"time": 1752, "is_downbeat": true}, {"time": 1776, "is_downbeat": true}, {"time": 1800, "is_downbeat": true}, {"time": 1824, "is_downbeat": true}, {"time": 1848, "is_downbeat": true}, {"time": 1872, "is_downbeat": true}, {"time": 1896, "is_downbeat": true}, {"time": 1920, "is_downbeat": true}, {"time": 1944, "is_downbeat": true}, {"time": 1968, "is_downbeat": true}, {"time": 1992, "is_downbeat": true}, {"time": 2016, "is_downbeat": true}, {"time": 2040, "is_downbeat": true}, {"time": 2064, "is_downbeat": true}, {"time": 2088, "is_downbeat": true}, {"time": 2112, "is_downbeat": true}, {"time": 2136, "is_downbeat": true}, {"time": 2160, "is_downbeat": true}, {"time": 2184, "is_downbeat": true}, {"time": 2208, "is_downbeat": true}, {"time": 2232, "is_downbeat": true}, {"time": 2256, "is_downbeat": true}, {"time": 2280, "is_downbeat": true}, {"time": 2304, "is_downbeat": true}, {"time": 2328, "is_downbeat": true}, {"time": 2352, "is_downbeat": true}, {"time": 2376, "is_downbeat": true}, {"time": 2400, "is_downbeat": true}, {"time": 2424, "is_downbeat": false}, {"time": 2448, "is_downbeat": true}, {"time": 2472, "is_downbeat": false}, {"time": 2496, "is_downbeat": true}, {"time": 2520, "is_downbeat": false}, {"time": 2544, "is_downbeat": true}, {"time": 2568, "is_downbeat": false}, {"time": 2592, "is_downbeat": true}, {"time": 2616, "is_downbeat": false}, {"time": 2640, "is_downbeat": false}], "tracks": [{"program": 0, "is_drum": false, "notes": [{"time": 0, "pitch": 76, "duration": 12, "velocity": 64}, {"time": 12, "pitch": 73, "duration": 6, "velocity": 64}, {"time": 18, "pitch": 71, "duration": 6, "velocity": 64}, {"time": 24, "pitch": 69, "duration": 12, "velocity": 64}, {"time": 36, "pitch": 71, "duration": 24, "velocity": 64}, {"time": 60, "pitch": 71, "duration": 12, "velocity": 64}, {"time": 72, "pitch": 73, "duration": 12, "velocity": 64}, {"time": 84, "pitch": 73, "duration": 6, "velocity": 64}, {"time": 90, "pitch": 71, "duration": 6, "velocity": 64}, {"time": 96, "pitch": 69, "duration": 6, "velocity": 64}, {"time": 102, "pitch": 71, "duration": 6, "velocity": 64}, {"time": 108, "pitch": 66, "duration": 24, "velocity": 64}, {"time": 144, "pitch": 73, "duration": 12, "velocity": 64}, {"time": 156, "pitch": 73, "duration": 6, "velocity": 64}, {"time": 162, "pitch": 71, "duration": 6, "velocity": 64}, {"time": 168, "pitch": 69, "duration": 12, "velocity": 64}, {"time": 180, "pitch": 71, "duration": 24, "velocity": 64}, {"time": 204, "pitch": 71, "duration": 12, "velocity": 64}, {"time": 216, "pitch": 73, "duration": 12, "velocity": 64}, {"time": 228, "pitch": 73, "duration": 6, "velocity": 64}, {"time": 234, "pitch": 71, "duration": 6, "velocity": 64}, {"time": 240, "pitch": 69, "duration": 6, "velocity": 64}, {"time": 246, "pitch": 71, "duration": 6, "velocity": 64}, {"time": 252, "pitch": 66, "duration": 12, "velocity": 64}, {"time": 264, "pitch": 73, "duration": 6, "velocity": 64}, {"time": 270, "pitch": 76, "duration": 6, "velocity": 64}, {"time": 276, "pitch": 73, "duration": 6, "velocity": 64}, {"time": 282, "pitch": 71, "duration": 6, "velocity": 64}, {"time": 288, "pitch": 69, "duration": 12, "velocity": 64}, {"time": 300, "pitch": 71, "duration": 12, "velocity": 64}, {"time": 312, "pitch": 73, "duration": 12, "velocity": 64}, {"time": 324, "pitch": 73, "duration": 6, "velocity": 64}, {"time": 330, "pitch": 71, "duration": 6, "velocity": 64}, {"time": 336, "pitch": 69, "duration": 6, "velocity": 64}, {"time": 342, "pitch": 71, "duration": 6, "velocity": 64}, {"time": 348, "pitch": 66, "duration": 12, "velocity": 64}, {"time": 372, "pitch": 73, "duration": 24, "velocity": 64}, {"time": 396, "pitch": 71, "duration": 12, "velocity": 64}, {"time": 408, "pitch": 69, "duration": 12, "velocity": 64}, {"time": 420, "pitch": 71, "duration": 12, "velocity": 64}, {"time": 432, "pitch": 73, "duration": 12, "velocity": 64}, {"time": 444, "pitch": 73, "duration": 6, "velocity": 64}, {"time": 450, "pitch": 71, "duration": 6, "velocity": 64}, {"time": 456, "pitch": 69, "duration": 6, "velocity": 64}, {"time": 462, "pitch": 73, "duration": 6, "velocity": 64}, {"time": 468, "pitch": 71, "duration": 12, "velocity": 64}, {"time": 480, "pitch": 69, "duration": 12, "velocity": 64}, {"time": 492, "pitch": 71, "duration": 12, "velocity": 64}, {"time": 504, "pitch": 69, "duration": 12, "velocity": 64}, {"time": 516, "pitch": 66, "duration": 12, "velocity": 64}, {"time": 528, "pitch": 71, "duration": 18, "velocity": 64}, {"time": 546, "pitch": 71, "duration": 6, "velocity": 64}, {"time": 552, "pitch": 71, "duration": 12, "velocity": 64}, {"time": 564, "pitch": 71, "duration": 12, "velocity": 64}, {"time": 576, "pitch": 66, "duration": 6, "velocity": 64}, {"time": 582, "pitch": 69, "duration": 6, "velocity": 64}, {"time": 588, "pitch": 66, "duration": 6, "velocity": 64}, {"time": 594, "pitch": 69, "duration": 6, "velocity": 64}, {"time": 600, "pitch": 71, "duration": 12, "velocity": 64}, {"time": 612, "pitch": 69, "duration": 24, "velocity": 64}, {"time": 636, "pitch": 69, "duration": 24, "velocity": 64}, {"time": 660, "pitch": 66, "duration": 6, "velocity": 64}, {"time": 666, "pitch": 64, "duration": 6, "velocity": 64}, {"time": 672, "pitch": 66, "duration": 6, "velocity": 64}, {"time": 678, "pitch": 69, "duration": 6, "velocity": 64}, {"time": 684, "pitch": 64, "duration": 36, "velocity": 64}, {"time": 732, "pitch": 73, "duration": 24, "velocity": 64}, {"time": 756, "pitch": 71, "duration": 12, "velocity": 64}, {"time": 768, "pitch": 69, "duration": 12, "velocity": 64}, {"time": 780, "pitch": 71, "duration": 12, "velocity": 64}, {"time": 792, "pitch": 73, "duration": 12, "velocity": 64}, {"time": 804, "pitch": 73, "duration": 6, "velocity": 64}, {"time": 810, "pitch": 71, "duration": 6, "velocity": 64}, {"time": 816, "pitch": 69, "duration": 6, "velocity": 64}, {"time": 822, "pitch": 73, "duration": 6, "velocity": 64}, {"time": 828, "pitch": 71, "duration": 12, "velocity": 64}, {"time": 840, "pitch": 73, "duration": 12, "velocity": 64}, {"time": 852, "pitch": 73, "duration": 6, "velocity": 64}, {"time": 858, "pitch": 71, "duration": 6, "velocity": 64}, {"time": 864, "pitch": 69, "duration": 6, "velocity": 64}, {"time": 870, "pitch": 71, "duration": 6, "velocity": 64}, {"time": 876, "pitch": 66, "duration": 12, "velocity": 64}, {"time": 888, "pitch": 66, "duration": 6, "velocity": 64}, {"time": 894, "pitch": 69, "duration": 6, "velocity": 64}, {"time": 900, "pitch": 66, "duration": 6, "velocity": 64}, {"time": 906, "pitch": 69, "duration": 6, "velocity": 64}, {"time": 912, "pitch": 71, "duration": 12, "velocity": 64}, {"time": 924, "pitch": 69, "duration": 12, "velocity": 64}, {"time": 936, "pitch": 66, "duration": 6, "velocity": 64}, {"time": 942, "pitch": 69, "duration": 6, "velocity": 64}, {"time": 948, "pitch": 66, "duration": 6, "velocity": 64}, {"time": 954, "pitch": 69, "duration": 6, "velocity": 64}, {"time": 960, "pitch": 71, "duration": 12, "velocity": 64}, {"time": 972, "pitch": 69, "duration": 12, "velocity": 64}, {"time": 984, "pitch": 71, "duration": 12, "velocity": 64}, {"time": 996, "pitch": 71, "duration": 12, "velocity": 64}, {"time": 1008, "pitch": 71, "duration": 12, "velocity": 64}, {"time": 1020, "pitch": 71, "duration": 12, "velocity": 64}, {"time": 1032, "pitch": 71, "duration": 12, "velocity": 64}, {"time": 1044, "pitch": 71, "duration": 12, "velocity": 64}, {"time": 1056, "pitch": 71, "duration": 24, "velocity": 64}, {"time": 1080, "pitch": 71, "duration": 6, "velocity": 64}, {"time": 1092, "pitch": 71, "duration": 6, "velocity": 64}, {"time": 1104, "pitch": 69, "duration": 6, "velocity": 64}, {"time": 1116, "pitch": 71, "duration": 6, "velocity": 64}, {"time": 1128, "pitch": 71, "duration": 6, "velocity": 64}, {"time": 1134, "pitch": 69, "duration": 6, "velocity": 64}, {"time": 1140, "pitch": 71, "duration": 6, "velocity": 64}, {"time": 1146, "pitch": 71, "duration": 6, "velocity": 64}, {"time": 1152, "pitch": 66, "duration": 12, "velocity": 64}, {"time": 1164, "pitch": 69, "duration": 24, "velocity": 64}, {"time": 1188, "pitch": 71, "duration": 24, "velocity": 64}, {"time": 1212, "pitch": 69, "duration": 12, "velocity": 64}, {"time": 1224, "pitch": 66, "duration": 12, "velocity": 64}, {"time": 1236, "pitch": 69, "duration": 12, "velocity": 64}, {"time": 1248, "pitch": 64, "duration": 12, "velocity": 64}, {"time": 1260, "pitch": 66, "duration": 12, "velocity": 64}, {"time": 1272, "pitch": 64, "duration": 48, "velocity": 64}, {"time": 1320, "pitch": 76, "duration": 12, "velocity": 64}, {"time": 1332, "pitch": 73, "duration": 6, "velocity": 64}, {"time": 1338, "pitch": 71, "duration": 6, "velocity": 64}, {"time": 1344, "pitch": 69, "duration": 12, "velocity": 64}, {"time": 1356, "pitch": 71, "duration": 12, "velocity": 64}, {"time": 1368, "pitch": 73, "duration": 12, "velocity": 64}, {"time": 1380, "pitch": 73, "duration": 6, "velocity": 64}, {"time": 1386, "pitch": 71, "duration": 6, "velocity": 64}, {"time": 1392, "pitch": 69, "duration": 12, "velocity": 64}, {"time": 1404, "pitch": 71, "duration": 12, "velocity": 64}, {"time": 1416, "pitch": 76, "duration": 12, "velocity": 64}, {"time": 1428, "pitch": 73, "duration": 6, "velocity": 64}, {"time": 1434, "pitch": 71, "duration": 6, "velocity": 64}, {"time": 1440, "pitch": 69, "duration": 12, "velocity": 64}, {"time": 1452, "pitch": 71, "duration": 12, "velocity": 64}, {"time": 1464, "pitch": 73, "duration": 12, "velocity": 64}, {"time": 1476, "pitch": 73, "duration": 6, "velocity": 64}, {"time": 1482, "pitch": 71, "duration": 6, "velocity": 64}, {"time": 1488, "pitch": 69, "duration": 12, "velocity": 64}, {"time": 1500, "pitch": 71, "duration": 12, "velocity": 64}, {"time": 1512, "pitch": 69, "duration": 6, "velocity": 64}, {"time": 1518, "pitch": 69, "duration": 12, "velocity": 64}, {"time": 1530, "pitch": 66, "duration": 6, "velocity": 64}, {"time": 1536, "pitch": 64, "duration": 6, "velocity": 64}, {"time": 1542, "pitch": 66, "duration": 6, "velocity": 64}, {"time": 1548, "pitch": 69, "duration": 12, "velocity": 64}, {"time": 1560, "pitch": 69, "duration": 6, "velocity": 64}, {"time": 1566, "pitch": 69, "duration": 12, "velocity": 64}, {"time": 1578, "pitch": 66, "duration": 6, "velocity": 64}, {"time": 1584, "pitch": 64, "duration": 6, "velocity": 64}, {"time": 1590, "pitch": 66, "duration": 6, "velocity": 64}, {"time": 1596, "pitch": 64, "duration": 12, "velocity": 64}, {"time": 1608, "pitch": 73, "duration": 12, "velocity": 64}, {"time": 1620, "pitch": 73, "duration": 6, "velocity": 64}, {"time": 1626, "pitch": 71, "duration": 6, "velocity": 64}, {"time": 1632, "pitch": 69, "duration": 6, "velocity": 64}, {"time": 1638, "pitch": 73, "duration": 6, "velocity": 64}, {"time": 1644, "pitch": 71, "duration": 12, "velocity": 64}, {"time": 1656, "pitch": 73, "duration": 12, "velocity": 64}, {"time": 1668, "pitch": 73, "duration": 6, "velocity": 64}, {"time": 1674, "pitch": 71, "duration": 6, "velocity": 64}, {"time": 1680, "pitch": 69, "duration": 6, "velocity": 64}, {"time": 1686, "pitch": 73, "duration": 6, "velocity": 64}, {"time": 1692, "pitch": 71, "duration": 12, "velocity": 64}, {"time": 1716, "pitch": 71, "duration": 24, "velocity": 64}, {"time": 1740, "pitch": 71, "duration": 6, "velocity": 64}, {"time": 1746, "pitch": 69, "duration": 6, "velocity": 64}, {"time": 1752, "pitch": 71, "duration": 6, "velocity": 64}, {"time": 1758, "pitch": 69, "duration": 6, "velocity": 64}, {"time": 1764, "pitch": 71, "duration": 12, "velocity": 64}, {"time": 1776, "pitch": 66, "duration": 6, "velocity": 64}, {"time": 1782, "pitch": 69, "duration": 6, "velocity": 64}, {"time": 1788, "pitch": 66, "duration": 6, "velocity": 64}, {"time": 1794, "pitch": 69, "duration": 6, "velocity": 64}, {"time": 1800, "pitch": 71, "duration": 6, "velocity": 64}, {"time": 1806, "pitch": 69, "duration": 6, "velocity": 64}, {"time": 1812, "pitch": 71, "duration": 12, "velocity": 64}, {"time": 1824, "pitch": 69, "duration": 48, "velocity": 64}, {"time": 1872, "pitch": 71, "duration": 48, "velocity": 64}, {"time": 1920, "pitch": 66, "duration": 6, "velocity": 64}, {"time": 1932, "pitch": 69, "duration": 6, "velocity": 64}, {"time": 1944, "pitch": 71, "duration": 6, "velocity": 64}, {"time": 1956, "pitch": 69, "duration": 6, "velocity": 64}, {"time": 1968, "pitch": 66, "duration": 6, "velocity": 64}, {"time": 1980, "pitch": 69, "duration": 6, "velocity": 64}, {"time": 1992, "pitch": 76, "duration": 6, "velocity": 64}, {"time": 2004, "pitch": 69, "duration": 6, "velocity": 64}, {"time": 2016, "pitch": 76, "duration": 6, "velocity": 64}, {"time": 2028, "pitch": 76, "duration": 6, "velocity": 64}, {"time": 2040, "pitch": 69, "duration": 6, "velocity": 64}, {"time": 2052, "pitch": 69, "duration": 6, "velocity": 64}, {"time": 2064, "pitch": 73, "duration": 12, "velocity": 64}, {"time": 2076, "pitch": 66, "duration": 12, "velocity": 64}, {"time": 2088, "pitch": 69, "duration": 12, "velocity": 64}, {"time": 2100, "pitch": 66, "duration": 12, "velocity": 64}, {"time": 2112, "pitch": 69, "duration": 12, "velocity": 64}, {"time": 2124, "pitch": 71, "duration": 12, "velocity": 64}, {"time": 2136, "pitch": 69, "duration": 12, "velocity": 64}, {"time": 2148, "pitch": 66, "duration": 12, "velocity": 64}, {"time": 2160, "pitch": 71, "duration": 6, "velocity": 64}, {"time": 2172, "pitch": 71, "duration": 6, "velocity": 64}, {"time": 2184, "pitch": 71, "duration": 6, "velocity": 64}, {"time": 2196, "pitch": 71, "duration": 6, "velocity": 64}, {"time": 2208, "pitch": 71, "duration": 6, "velocity": 64}, {"time": 2220, "pitch": 71, "duration": 6, "velocity": 64}, {"time": 2232, "pitch": 71, "duration": 12, "velocity": 64}, {"time": 2256, "pitch": 71, "duration": 12, "velocity": 64}, {"time": 2268, "pitch": 71, "duration": 12, "velocity": 64}, {"time": 2280, "pitch": 69, "duration": 6, "velocity": 64}, {"time": 2292, "pitch": 71, "duration": 6, "velocity": 64}, {"time": 2304, "pitch": 71, "duration": 6, "velocity": 64}, {"time": 2310, "pitch": 69, "duration": 6, "velocity": 64}, {"time": 2316, "pitch": 71, "duration": 6, "velocity": 64}, {"time": 2322, "pitch": 71, "duration": 6, "velocity": 64}, {"time": 2328, "pitch": 66, "duration": 12, "velocity": 64}, {"time": 2340, "pitch": 69, "duration": 12, "velocity": 64}, {"time": 2364, "pitch": 69, "duration": 12, "velocity": 64}, {"time": 2376, "pitch": 61, "duration": 12, "velocity": 64}, {"time": 2388, "pitch": 64, "duration": 12, "velocity": 64}, {"time": 2400, "pitch": 66, "duration": 24, "velocity": 64}, {"time": 2424, "pitch": 64, "duration": 24, "velocity": 64}, {"time": 2448, "pitch": 69, "duration": 60, "velocity": 64}, {"time": 2508, "pitch": 66, "duration": 6, "velocity": 64}, {"time": 2514, "pitch": 64, "duration": 6, "velocity": 64}, {"time": 2520, "pitch": 69, "duration": 12, "velocity": 64}, {"time": 2532, "pitch": 64, "duration": 96, "velocity": 64}]}]}