{"metadata": {"schema_version": "0.1", "title": "Zhaobao shan wai yuge", "source_format": "abc"}, "resolution": 24, "tempos": [{"time": 0, "qpm": 120.0}], "key_signatures": [{"time": 0, "root": 10, "mode": "major", "fifths": -2}], "time_signatures": [{"time": 0, "numerator": 4, "denominator": 4}, {"time": 2976, "numerator": 1, "denominator": 4}, {"time": 3000, "numerator": 2, "denominator": 4}], "beats": [{"time": 0, "is_downbeat": true}, {"time": 24, "is_downbeat": true}, {"time": 48, "is_downbeat": true}, {"time": 72, "is_downbeat": true}, {"time": 96, "is_downbeat": true}, {"time": 120, "is_downbeat": true}, {"time": 144, "is_downbeat": true}, {"time": 168, "is_downbeat": true}, {"time": 192, "is_downbeat": true}, {"time": 216, "is_downbeat": true}, {"time": 240, "is_downbeat": true}, {"time": 264, "is_downbeat": true}, {"time": 288, "is_downbeat": true}, {"time": 312, "is_downbeat": true}, {"time": 336, "is_downbeat": true}, {"time": 360, "is_downbeat": true}, {"time": 384, "is_downbeat": true}, {"time": 408, "is_downbeat": true}, {"time": 432, "is_downbeat": true}, {"time": 456, "is_downbeat": true}, {"time": 480, "is_downbeat": true}, {"time": 504, "is_downbeat": true}, {"time": 528, "is_downbeat": true}, {"time": 552, "is_downbeat": true}, {"time": 576, "is_downbeat": true}, {"time": 600, "is_downbeat": true}, {"time": 624, "is_downbeat": true}, {"time": 648, "is_downbeat": true}, {"time": 672, "is_downbeat": true}, {"time": 696, "is_downbeat": true}, {"time": 720, "is_downbeat": true}, {"time": 744, "is_downbeat": true}, {"time": 768, "is_downbeat": true}, {"time": 792, "is_downbeat": true}, {"time": 816, "is_downbeat": true}, {"time": 840, "is_downbeat": true}, {"time": 864, "is_downbeat": true}, {"time": 888, "is_downbeat": true}, {"time": 912, "is_downbeat": true}, {"time": 936, "is_downbeat": true}, {"time": 960, "is_downbeat": true}, {"time": 984, "is_downbeat": true}, {"time": 1008, "is_downbeat": true}, {"time": 1032, "is_downbeat": true}, {"time": 1056, "is_downbeat": true}, {"time": 1080, "is_downbeat": true}, {"time": 1104, "is_downbeat": true}, {"time": 1128, "is_downbeat": true}, {"time": 1152, "is_downbeat": true}, {"time": 1176, "is_downbeat": true}, {"time": 1200, "is_downbeat": true}, {"time": 1224, "is_downbeat": true}, {"time": 1248, "is_downbeat": true}, {"time": 1272, "is_downbeat": true}, {"time": 1296, "is_downbeat": true}, {"time": 1320, "is_downbeat": true}, {"time": 1344, "is_downbeat": true}, {"time": 1368, "is_downbeat": true}, {"time": 1392, "is_downbeat": true}, {"time": 1416, "is_downbeat": true}, {"time": 1440, "is_downbeat": true}, {"time": 1464, "is_downbeat": true}, {"time": 1488, "is_downbeat": true}, {"time": 1512, "is_downbeat": true}, {"time": 1536, "is_downbeat": true}, {"time": 1560, "is_downbeat": true}, {"time": 1584, "is_downbeat": true}, {"time": 1608, "is_downbeat": true}, {"time": 1632, "is_downbeat": true}, {"time": 1656, "is_downbeat": true}, {"time": 1680, "is_downbeat": true}, {"time": 1704, "is_downbeat": true}, {"time": 1728, "is_downbeat": true}, {"time": 1752, "is_downbeat": true}, {"time": 1776, "is_downbeat": true}, {"time": 1800, "is_downbeat": true}, {"time": 1824, "is_downbeat": true}, {"time": 1848, "is_downbeat": true}, {"time": 1872, "is_downbeat": true}, {"time": 1896, "is_downbeat": true}, {"time": 1920, "is_downbeat": true}, {"time": 1944, "is_downbeat": true}, {"time": 1968, "is_downbeat": true}, {"time": 1992, "is_downbeat": true}, {"time": 2016, "is_downbeat": true}, {"time": 2040, "is_downbeat": true}, {"time": 2064, "is_downbeat": true}, {"time": 2088, "is_downbeat": true}, {"time": 2112, "is_downbeat": true}, {"time": 2136, "is_downbeat": true}, {"time": 2160, "is_downbeat": true}, {"time": 2184, "is_downbeat": true}, {"time": 2208, "is_downbeat": true}, {"time": 2232, "is_downbeat": true}, {"time": 2256, "is_downbeat": true}, {"time": 2280, "is_downbeat": true}, {"time": 2304, "is_downbeat": true}, {"time": 2328, "is_downbeat": true}, {"time": 2352, "is_downbeat": true}, {"time": 2376, "is_downbeat": true}, {"time": 2400, "is_downbeat": true}, {"time": 2424, "is_downbeat": true}, {"time": 2448, "is_downbeat": true}, {"time": 2472, "is_downbeat": true}, {"time": 2496, "is_downbeat": true}, {"time": 2520, "is_downbeat": true}, {"time": 2544, "is_downbeat": true}, {"time": 2568, "is_downbeat": true}, {"time": 2592, "is_downbeat": true}, {"time": 2616, "is_downbeat": true}, {"time": 2640, "is_downbeat": true}, {"time": 2664, "is_downbeat": true}, {"time": 2688, "is_downbeat": true}, {"time": 2712, "is_downbeat": true}, {"time": 2736, "is_downbeat": true}, {"time": 2760, "is_downbeat": true}, {"time": 2784, "is_downbeat": true}, {"time": 2808, "is_downbeat": true}, {"time": 2832, "is_downbeat": true}, {"time": 2856, "is_downbeat": true}, {"time": 2880, "is_downbeat": true}, {"time": 2904, "is_downbeat": true}, {"time": 2928, "is_downbeat": true}, {"time": 2952, "is_downbeat": true}, {"time": 2976, "is_downbeat": true}, {"time": 3000, "is_downbeat": true}, {"time": 3024, "is_downbeat": false}, {"time": 3048, "is_downbeat": true}, {"time": 3072, "is_downbeat": false}, {"time": 3096, "is_downbeat": true}, {"time": 3120, "is_downbeat": false}, {"time": 3144, "is_downbeat": true}, {"time": 3168, "is_downbeat": false}, {"time": 3192, "is_downbeat": true}, {"time": 3216, "is_downbeat": false}, {"time": 3240, "is_downbeat": true}, {"time": 3264, "is_downbeat": false}, {"time": 3288, "is_downbeat": true}, {"time": 3312, "is_downbeat": false}, {"time": 3336, "is_downbeat": true}, {"time": 3360, "is_downbeat": false}, {"time": 3384, "is_downbeat": true}, {"time": 3408, "is_downbeat": false}, {"time": 3432, "is_downbeat": true}, {"time": 3456, "is_downbeat": false}], "tracks": [{"program": 0, "is_drum": false, "notes": [{"time": 0, "pitch": 74, "duration": 12, "velocity": 64}, {"time": 12, "pitch": 74, "duration": 6, "velocity": 64}, {"time": 18, "pitch": 79, "duration": 6, "velocity": 64}, {"time": 24, "pitch": 77, "duration": 12, "velocity": 64}, {"time": 48, "pitch": 82, "duration": 12, "velocity": 64}, {"time": 60, "pitch": 82, "duration": 6, "velocity": 64}, {"time": 66, "pitch": 74, "duration": 6, "velocity": 64}, {"time": 72, "pitch": 77, "duration": 12, "velocity": 64}, {"time": 96, "pitch": 74, "duration": 12, "velocity": 64}, {"time": 108, "pitch": 72, "duration": 12, "velocity": 64}, {"time": 120, "pitch": 82, "duration": 12, "velocity": 64}, {"time": 132, "pitch": 72, "duration": 6, "velocity": 64}, {"time": 138, "pitch": 72, "duration": 6, "velocity": 64}, {"time": 144, "pitch": 82, "duration": 12, "velocity": 64}, {"time": 156, "pitch": 82, "duration": 6, "velocity": 64}, {"time": 162, "pitch": 74, "duration": 6, "velocity": 64}, {"time": 168, "pitch": 77, "duration": 12, "velocity": 64}, {"time": 192, "pitch": 74, "duration": 12, "velocity": 64}, {"time": 204, "pitch": 74, "duration": 6, "velocity": 64}, {"time": 210, "pitch": 79, "duration": 6, "velocity": 64}, {"time": 216, "pitch": 77, "duration": 12, "velocity": 64}, {"time": 240, "pitch": 82, "duration": 6, "velocity": 64}, {"time": 246, "pitch": 72, "duration": 6, "velocity": 64}, {"time": 252, "pitch": 82, "duration": 6, "velocity": 64}, {"time": 258, "pitch": 74, "duration": 6, "velocity": 64}, {"time": 264, "pitch": 77, "duration": 12, "velocity": 64}, {"time": 288, "pitch": 74, "duration": 12, "velocity": 64}, {"time": 300, "pitch": 74, "duration": 6, "velocity": 64}, {"time": 306, "pitch": 72, "duration": 6, "velocity": 64}, {"time": 312, "pitch": 82, "duration": 12, "velocity": 64}, {"time": 324, "pitch": 74, "duration": 12, "velocity": 64}, {"time": 336, "pitch": 72, "duration": 6, "velocity": 64}, {"time": 342, "pitch": 72, "duration": 6, "velocity": 64}, {"time": 348, "pitch": 72, "duration": 6, "velocity": 64}, {"time": 354, "pitch": 77, "duration": 6, "velocity": 64}, {"time": 360, "pitch": 82, "duration": 12, "velocity": 64}, {"time": 384, "pitch": 74, "duration": 12, "velocity": 64}, {"time": 396, "pitch": 74, "duration": 6, "velocity": 64}, {"time": 402, "pitch": 79, "duration": 6, "velocity": 64}, {"time": 408, "pitch": 77, "duration": 12, "velocity": 64}, {"time": 432, "pitch": 82, "duration": 12, "velocity": 64}, {"time": 444, "pitch": 82, "duration": 6, "velocity": 64}, {"time": 450, "pitch": 74, "duration": 6, "velocity": 64}, {"time": 456, "pitch": 77, "duration": 12, "velocity": 64}, {"time": 480, "pitch": 74, "duration": 12, "velocity": 64}, {"time": 492, "pitch": 74, "duration": 6, "velocity": 64}, {"time": 498, "pitch": 72, "duration": 6, "velocity": 64}, {"time": 504, "pitch": 82, "duration": 12, "velocity": 64}, {"time": 516, "pitch": 72, "duration": 12, "velocity": 64}, {"time": 528, "pitch": 82, "duration": 6, "velocity": 64}, {"time": 534, "pitch": 72, "duration": 6, "velocity": 64}, {"time": 540, "pitch": 82, "duration": 6, "velocity": 64}, {"time": 546, "pitch": 74, "duration": 6, "velocity": 64}, {"time": 552, "pitch": 77, "duration": 12, "velocity": 64}, {"time": 576, "pitch": 74, "duration": 12, "velocity": 64}, {"time": 588, "pitch": 74, "duration": 6, "velocity": 64}, {"time": 594, "pitch": 79, "duration": 6, "velocity": 64}, {"time": 600, "pitch": 77, "duration": 12, "velocity": 64}, {"time": 624, "pitch": 82, "duration": 12, "velocity": 64}, {"time": 636, "pitch": 82, "duration": 6, "velocity": 64}, {"time": 642, "pitch": 74, "duration": 6, "velocity": 64}, {"time": 648, "pitch": 77, "duration": 12, "velocity": 64}, {"time": 672, "pitch": 74, "duration": 12, "velocity": 64}, {"time": 684, "pitch": 74, "duration": 6, "velocity": 64}, {"time": 690, "pitch": 72, "duration": 6, "velocity": 64}, {"time": 696, "pitch": 82, "duration": 12, "velocity": 64}, {"time": 708, "pitch": 74, "duration": 12, "velocity": 64}, {"time": 720, "pitch": 72, "duration": 6, "velocity": 64}, {"time": 726, "pitch": 72, "duration": 12, "velocity": 64}, {"time": 738, "pitch": 74, "duration": 6, "velocity": 64}, {"time": 744, "pitch": 77, "duration": 12, "velocity": 64}, {"time": 756, "pitch": 79, "duration": 12, "velocity": 64}, {"time": 768, "pitch": 82, "duration": 48, "velocity": 64}, {"time": 816, "pitch": 81, "duration": 6, "velocity": 64}, {"time": 822, "pitch": 81, "duration": 6, "velocity": 64}, {"time": 828, "pitch": 81, "duration": 6, "velocity": 64}, {"time": 834, "pitch": 81, "duration": 6, "velocity": 64}, {"time": 840, "pitch": 81, "duration": 12, "velocity": 64}, {"time": 852, "pitch": 81, "duration": 6, "velocity": 64}, {"time": 858, "pitch": 81, "duration": 6, "velocity": 64}, {"time": 864, "pitch": 81, "duration": 12, "velocity": 64}, {"time": 876, "pitch": 81, "duration": 12, "velocity": 64}, {"time": 888, "pitch": 74, "duration": 12, "velocity": 64}, {"time": 900, "pitch": 81, "duration": 12, "velocity": 64}, {"time": 912, "pitch": 79, "duration": 12, "velocity": 64}, {"time": 924, "pitch": 72, "duration": 12, "velocity": 64}, {"time": 936, "pitch": 77, "duration": 24, "velocity": 64}, {"time": 960, "pitch": 79, "duration": 12, "velocity": 64}, {"time": 972, "pitch": 77, "duration": 12, "velocity": 64}, {"time": 984, "pitch": 82, "duration": 12, "velocity": 64}, {"time": 996, "pitch": 72, "duration": 12, "velocity": 64}, {"time": 1008, "pitch": 74, "duration": 18, "velocity": 64}, {"time": 1026, "pitch": 77, "duration": 6, "velocity": 64}, {"time": 1032, "pitch": 82, "duration": 18, "velocity": 64}, {"time": 1050, "pitch": 79, "duration": 6, "velocity": 64}, {"time": 1056, "pitch": 72, "duration": 84, "velocity": 64}, {"time": 1140, "pitch": 77, "duration": 12, "velocity": 64}, {"time": 1152, "pitch": 72, "duration": 12, "velocity": 64}, {"time": 1164, "pitch": 72, "duration": 12, "velocity": 64}, {"time": 1176, "pitch": 72, "duration": 18, "velocity": 64}, {"time": 1194, "pitch": 72, "duration": 6, "velocity": 64}, {"time": 1200, "pitch": 72, "duration": 6, "velocity": 64}, {"time": 1206, "pitch": 72, "duration": 6, "velocity": 64}, {"time": 1212, "pitch": 72, "duration": 6, "velocity": 64}, {"time": 1218, "pitch": 72, "duration": 6, "velocity": 64}, {"time": 1224, "pitch": 72, "duration": 12, "velocity": 64}, {"time": 1236, "pitch": 72, "duration": 12, "velocity": 64}, {"time": 1248, "pitch": 81, "duration": 12, "velocity": 64}, {"time": 1260, "pitch": 74, "duration": 12, "velocity": 64}, {"time": 1272, "pitch": 72, "duration": 12, "velocity": 64}, {"time": 1296, "pitch": 77, "duration": 18, "velocity": 64}, {"time": 1314, "pitch": 74, "duration": 6, "velocity": 64}, {"time": 1320, "pitch": 72, "duration": 18, "velocity": 64}, {"time": 1338, "pitch": 72, "duration": 6, "velocity": 64}, {"time": 1344, "pitch": 72, "duration": 6, "velocity": 64}, {"time": 1350, "pitch": 72, "duration": 6, "velocity": 64}, {"time": 1356, "pitch": 72, "duration": 6, "velocity": 64}, {"time": 1362, "pitch": 72, "duration": 6, "velocity": 64}, {"time": 1368, "pitch": 72, "duration": 12, "velocity": 64}, {"time": 1380, "pitch": 72, "duration": 12, "velocity": 64}, {"time": 1392, "pitch": 81, "duration": 12, "velocity": 64}, {"time": 1404, "pitch": 74, "duration": 12, "velocity": 64}, {"time": 1416, "pitch": 72, "duration": 12, "velocity": 64}, {"time": 1440, "pitch": 72, "duration": 12, "velocity": 64}, {"time": 1452, "pitch": 72, "duration": 6, "velocity": 64}, {"time": 1458, "pitch": 74, "duration": 6, "velocity": 64}, {"time": 1464, "pitch": 72, "duration": 12, "velocity": 64}, {"time": 1476, "pitch": 82, "duration": 12, "velocity": 64}, {"time": 1488, "pitch": 81, "duration": 18, "velocity": 64}, {"time": 1506, "pitch": 74, "duration": 6, "velocity": 64}, {"time": 1512, "pitch": 79, "duration": 18, "velocity": 64}, {"time": 1530, "pitch": 72, "duration": 6, "velocity": 64}, {"time": 1536, "pitch": 77, "duration": 48, "velocity": 64}, {"time": 1584, "pitch": 77, "duration": 12, "velocity": 64}, {"time": 1596, "pitch": 77, "duration": 12, "velocity": 64}, {"time": 1608, "pitch": 77, "duration": 12, "velocity": 64}, {"time": 1632, "pitch": 77, "duration": 12, "velocity": 64}, {"time": 1644, "pitch": 77, "duration": 6, "velocity": 64}, {"time": 1650, "pitch": 77, "duration": 6, "velocity": 64}, {"time": 1656, "pitch": 77, "duration": 12, "velocity": 64}, {"time": 1668, "pitch": 77, "duration": 12, "velocity": 64}, {"time": 1680, "pitch": 74, "duration": 12, "velocity": 64}, {"time": 1692, "pitch": 79, "duration": 12, "velocity": 64}, {"time": 1704, "pitch": 77, "duration": 12, "velocity": 64}, {"time": 1728, "pitch": 77, "duration": 12, "velocity": 64}, {"time": 1740, "pitch": 77, "duration": 12, "velocity": 64}, {"time": 1752, "pitch": 77, "duration": 12, "velocity": 64}, {"time": 1776, "pitch": 77, "duration": 12, "velocity": 64}, {"time": 1788, "pitch": 77, "duration": 6, "velocity": 64}, {"time": 1794, "pitch": 77, "duration": 6, "velocity": 64}, {"time": 1800, "pitch": 77, "duration": 12, "velocity": 64}, {"time": 1812, "pitch": 77, "duration": 12, "velocity": 64}, {"time": 1824, "pitch": 74, "duration": 12, "velocity": 64}, {"time": 1836, "pitch": 74, "duration": 6, "velocity": 64}, {"time": 1842, "pitch": 79, "duration": 6, "velocity": 64}, {"time": 1848, "pitch": 77, "duration": 24, "velocity": 64}, {"time": 1872, "pitch": 77, "duration": 36, "velocity": 64}, {"time": 1908, "pitch": 74, "duration": 12, "velocity": 64}, {"time": 1920, "pitch": 72, "duration": 12, "velocity": 64}, {"time": 1932, "pitch": 72, "duration": 12, "velocity": 64}, {"time": 1968, "pitch": 72, "duration": 12, "velocity": 64}, {"time": 1980, "pitch": 72, "duration": 12, "velocity": 64}, {"time": 1992, "pitch": 72, "duration": 18, "velocity": 64}, {"time": 2010, "pitch": 72, "duration": 6, "velocity": 64}, {"time": 2016, "pitch": 72, "duration": 12, "velocity": 64}, {"time": 2028, "pitch": 72, "duration": 6, "velocity": 64}, {"time": 2034, "pitch": 72, "duration": 6, "velocity": 64}, {"time": 2040, "pitch": 72, "duration": 12, "velocity": 64}, {"time": 2052, "pitch": 72, "duration": 12, "velocity": 64}, {"time": 2064, "pitch": 81, "duration": 12, "velocity": 64}, {"time": 2076, "pitch": 74, "duration": 6, "velocity": 64}, {"time": 2082, "pitch": 74, "duration": 6, "velocity": 64}, {"time": 2088, "pitch": 72, "duration": 12, "velocity": 64}, {"time": 2112, "pitch": 77, "duration": 12, "velocity": 64}, {"time": 2124, "pitch": 74, "duration": 12, "velocity": 64}, {"time": 2136, "pitch": 72, "duration": 18, "velocity": 64}, {"time": 2154, "pitch": 72, "duration": 6, "velocity": 64}, {"time": 2160, "pitch": 72, "duration": 12, "velocity": 64}, {"time": 2172, "pitch": 72, "duration": 6, "velocity": 64}, {"time": 2178, "pitch": 72, "duration": 6, "velocity": 64}, {"time": 2184, "pitch": 72, "duration": 12, "velocity": 64}, {"time": 2196, "pitch": 72, "duration": 12, "velocity": 64}, {"time": 2208, "pitch": 81, "duration": 12, "velocity": 64}, {"time": 2220, "pitch": 74, "duration": 6, "velocity": 64}, {"time": 2226, "pitch": 74, "duration": 6, "velocity": 64}, {"time": 2232, "pitch": 72, "duration": 12, "velocity": 64}, {"time": 2256, "pitch": 72, "duration": 18, "velocity": 64}, {"time": 2274, "pitch": 74, "duration": 6, "velocity": 64}, {"time": 2280, "pitch": 72, "duration": 12, "velocity": 64}, {"time": 2292, "pitch": 82, "duration": 12, "velocity": 64}, {"time": 2304, "pitch": 81, "duration": 18, "velocity": 64}, {"time": 2322, "pitch": 74, "duration": 6, "velocity": 64}, {"time": 2328, "pitch": 79, "duration": 18, "velocity": 64}, {"time": 2346, "pitch": 72, "duration": 6, "velocity": 64}, {"time": 2352, "pitch": 77, "duration": 48, "velocity": 64}, {"time": 2400, "pitch": 77, "duration": 12, "velocity": 64}, {"time": 2412, "pitch": 77, "duration": 12, "velocity": 64}, {"time": 2424, "pitch": 77, "duration": 12, "velocity": 64}, {"time": 2448, "pitch": 74, "duration": 12, "velocity": 64}, {"time": 2460, "pitch": 77, "duration": 6, "velocity": 64}, {"time": 2466, "pitch": 77, "duration": 6, "velocity": 64}, {"time": 2472, "pitch": 77, "duration": 12, "velocity": 64}, {"time": 2484, "pitch": 77, "duration": 12, "velocity": 64}, {"time": 2496, "pitch": 74, "duration": 18, "velocity": 64}, {"time": 2514, "pitch": 79, "duration": 6, "velocity": 64}, {"time": 2520, "pitch": 77, "duration": 12, "velocity": 64}, {"time": 2544, "pitch": 77, "duration": 12, "velocity": 64}, {"time": 2556, "pitch": 77, "duration": 12, "velocity": 64}, {"time": 2568, "pitch": 77, "duration": 12, "velocity": 64}, {"time": 2592, "pitch": 77, "duration": 12, "velocity": 64}, {"time": 2604, "pitch": 77, "duration": 6, "velocity": 64}, {"time": 2610, "pitch": 77, "duration": 6, "velocity": 64}, {"time": 2616, "pitch": 74, "duration": 12, "velocity": 64}, {"time": 2628, "pitch": 77, "duration": 12, "velocity": 64}, {"time": 2640, "pitch": 74, "duration": 18, "velocity": 64}, {"time": 2658, "pitch": 79, "duration": 6, "velocity": 64}, {"time": 2664, "pitch": 77, "duration": 12, "velocity": 64}, {"time": 2688, "pitch": 77, "duration": 84, "velocity": 64}, {"time": 2772, "pitch": 74, "duration": 12, "velocity": 64}, {"time": 2784, "pitch": 72, "duration": 12, "velocity": 64}, {"time": 2796, "pitch": 72, "duration": 12, "velocity": 64}, {"time": 2808, "pitch": 72, "duration": 12, "velocity": 64}, {"time": 2820, "pitch": 72, "duration": 12, "velocity": 64}, {"time": 2832, "pitch": 72, "duration": 12, "velocity": 64}, {"time": 2844, "pitch": 72, "duration": 12, "velocity": 64}, {"time": 2856, "pitch": 72, "duration": 12, "velocity": 64}, {"time": 2880, "pitch": 72, "duration": 12, "velocity": 64}, {"time": 2892, "pitch": 72, "duration": 12, "velocity": 64}, {"time": 2904, "pitch": 72, "duration": 12, "velocity": 64}, {"time": 2916, "pitch": 72, "duration": 12, "velocity": 64}, {"time": 2928, "pitch": 83, "duration": 12, "velocity": 64}, {"time": 2940, "pitch": 74, "duration": 12, "velocity": 64}, {"time": 2952, "pitch": 72, "duration": 12, "velocity": 64}, {"time": 2964, "pitch": 72, "duration": 6, "velocity": 64}, {"time": 2970, "pitch": 72, "duration": 6, "velocity": 64}, {"time": 2976, "pitch": 72, "duration": 12, "velocity": 64}, {"time": 2988, "pitch": 72, "duration": 12, "velocity": 64}, {"time": 3000, "pitch": 72, "duration": 24, "velocity": 64}, {"time": 3024, "pitch": 82, "duration": 24, "velocity": 64}, {"time": 3048, "pitch": 81, "duration": 48, "velocity": 64}, {"time": 3096, "pitch": 79, "duration": 36, "velocity": 64}, {"time": 3132, "pitch": 79, "duration": 12, "velocity": 64}, {"time": 3144, "pitch": 77, "duration": 24, "velocity": 64}, {"time": 3168, "pitch": 77, "duration": 24, "velocity": 64}, {"time": 3192, "pitch": 82, "duration": 36, "velocity": 64}, {"time": 3228, "pitch": 72, "duration": 12, "velocity": 64}, {"time": 3240, "pitch": 74, "duration": 48, "velocity": 64}, {"time": 3288, "pitch": 72, "duration": 24, "velocity": 64}, {"time": 3312, "pitch": 72, "duration": 24, "velocity": 64}, {"time": 3336, "pitch": 74, "duration": 24, "velocity": 64}, {"time": 3360, "pitch": 81, "duration": 24, "velocity": 64}, {"time": 3384, "pitch": 79, "duration": 24, "velocity": 64}, {"time": 3408, "pitch": 72, "duration": 24, "velocity": 64}, {"time": 3432, "pitch": 77, "duration": 48, "velocity": 64}]}]}