{"metadata": {"schema_version": "0.1", "title": "Cheshui haozi", "source_format": "abc"}, "resolution": 24, "tempos": [{"time": 0, "qpm": 120.0}], "key_signatures": [{"time": 0, "root": 9, "mode": "major", "fifths": 3}], "time_signatures": [{"time": 0, "numerator": 4, "denominator": 4}, {"time": 288, "numerator": 6, "denominator": 8}, {"time": 552, "numerator": 6, "denominator": 8}, {"time": 816, "numerator": 3, "denominator": 4}, {"time": 984, "numerator": 4, "denominator": 4}, {"time": 1176, "numerator": 4, "denominator": 4}, {"time": 1368, "numerator": 3, "denominator": 4}, {"time": 1584, "numerator": 3, "denominator": 4}, {"time": 2136, "numerator": 1, "denominator": 4}, {"time": 2496, "numerator": 3, "denominator": 4}, {"time": 2616, "numerator": 1, "denominator": 4}, {"time": 2736, "numerator": 3, "denominator": 4}, {"time": 3432, "numerator": 1, "denominator": 4}, {"time": 3504, "numerator": 1, "denominator": 4}, {"time": 3576, "numerator": 1, "denominator": 4}, {"time": 3696, "numerator": 1, "denominator": 4}, {"time": 3768, "numerator": 1, "denominator": 4}, {"time": 3840, "numerator": 1, "denominator": 4}, {"time": 3864, "numerator": 2, "denominator": 4}], "beats": [{"time": 0, "is_downbeat": true}, {"time": 12, "is_downbeat": false}, {"time": 24, "is_downbeat": false}, {"time": 36, "is_downbeat": false}, {"time": 48, "is_downbeat": true}, {"time": 60, "is_downbeat": false}, {"time": 72, "is_downbeat": false}, {"time": 84, "is_downbeat": false}, {"time": 96, "is_downbeat": true}, {"time": 108, "is_downbeat": false}, {"time": 120, "is_downbeat": false}, {"time": 132, "is_downbeat": false}, {"time": 144, "is_downbeat": true}, {"time": 156, "is_downbeat": false}, {"time": 168, "is_downbeat": false}, {"time": 180, "is_downbeat": false}, {"time": 192, "is_downbeat": true}, {"time": 204, "is_downbeat": false}, {"time": 216, "is_downbeat": false}, {"time": 228, "is_downbeat": false}, {"time": 240, "is_downbeat": true}, {"time": 252, "is_downbeat": false}, {"time": 264, "is_downbeat": false}, {"time": 276, "is_downbeat": false}, {"time": 288, "is_downbeat": true}, {"time": 300, "is_downbeat": false}, {"time": 312, "is_downbeat": false}, {"time": 324, "is_downbeat": false}, {"time": 336, "is_downbeat": false}, {"time": 348, "is_downbeat": false}, {"time": 360, "is_downbeat": true}, {"time": 372, "is_downbeat": false}, {"time": 384, "is_downbeat": false}, {"time": 396, "is_downbeat": false}, {"time": 408, "is_downbeat": true}, {"time": 420, "is_downbeat": false}, {"time": 432, "is_downbeat": false}, {"time": 444, "is_downbeat": false}, {"time": 456, "is_downbeat": true}, {"time": 468, "is_downbeat": false}, {"time": 480, "is_downbeat": false}, {"time": 492, "is_downbeat": false}, {"time": 504, "is_downbeat": true}, {"time": 516, "is_downbeat": false}, {"time": 528, "is_downbeat": false}, {"time": 540, "is_downbeat": false}, {"time": 552, "is_downbeat": true}, {"time": 576, "is_downbeat": false}, {"time": 600, "is_downbeat": false}, {"time": 624, "is_downbeat": true}, {"time": 648, "is_downbeat": false}, {"time": 672, "is_downbeat": true}, {"time": 696, "is_downbeat": false}, {"time": 720, "is_downbeat": true}, {"time": 744, "is_downbeat": false}, {"time": 768, "is_downbeat": true}, {"time": 792, "is_downbeat": false}, {"time": 816, "is_downbeat": true}, {"time": 840, "is_downbeat": false}, {"time": 864, "is_downbeat": false}, {"time": 888, "is_downbeat": true}, {"time": 912, "is_downbeat": false}, {"time": 936, "is_downbeat": true}, {"time": 960, "is_downbeat": false}, {"time": 984, "is_downbeat": true}, {"time": 1008, "is_downbeat": false}, {"time": 1032, "is_downbeat": false}, {"time": 1056, "is_downbeat": false}, {"time": 1080, "is_downbeat": true}, {"time": 1104, "is_downbeat": false}, {"time": 1128, "is_downbeat": true}, {"time": 1152, "is_downbeat": false}, {"time": 1176, "is_downbeat": true}, {"time": 1200, "is_downbeat": false}, {"time": 1224, "is_downbeat": false}, {"time": 1248, "is_downbeat": true}, {"time": 1272, "is_downbeat": true}, {"time": 1296, "is_downbeat": false}, {"time": 1320, "is_downbeat": true}, {"time": 1344, "is_downbeat": false}, {"time": 1368, "is_downbeat": true}, {"time": 1392, "is_downbeat": false}, {"time": 1416, "is_downbeat": false}, {"time": 1440, "is_downbeat": true}, {"time": 1464, "is_downbeat": false}, {"time": 1488, "is_downbeat": true}, {"time": 1512, "is_downbeat": false}, {"time": 1536, "is_downbeat": true}, {"time": 1560, "is_downbeat": false}, {"time": 1584, "is_downbeat": true}, {"time": 1608, "is_downbeat": true}, {"time": 1632, "is_downbeat": true}, {"time": 1656, "is_downbeat": true}, {"time": 1680, "is_downbeat": true}, {"time": 1704, "is_downbeat": true}, {"time": 1728, "is_downbeat": true}, {"time": 1752, "is_downbeat": true}, {"time": 1776, "is_downbeat": true}, {"time": 1800, "is_downbeat": true}, {"time": 1824, "is_downbeat": true}, {"time": 1848, "is_downbeat": true}, {"time": 1872, "is_downbeat": true}, {"time": 1896, "is_downbeat": true}, {"time": 1920, "is_downbeat": true}, {"time": 1944, "is_downbeat": true}, {"time": 1968, "is_downbeat": true}, {"time": 1992, "is_downbeat": true}, {"time": 2016, "is_downbeat": true}, {"time": 2040, "is_downbeat": true}, {"time": 2064, "is_downbeat": true}, {"time": 2088, "is_downbeat": true}, {"time": 2112, "is_downbeat": true}, {"time": 2136, "is_downbeat": true}, {"time": 2160, "is_downbeat": true}, {"time": 2184, "is_downbeat": false}, {"time": 2208, "is_downbeat": true}, {"time": 2232, "is_downbeat": false}, {"time": 2256, "is_downbeat": true}, {"time": 2280, "is_downbeat": false}, {"time": 2304, "is_downbeat": true}, {"time": 2328, "is_downbeat": false}, {"time": 2352, "is_downbeat": true}, {"time": 2376, "is_downbeat": false}, {"time": 2400, "is_downbeat": true}, {"time": 2424, "is_downbeat": false}, {"time": 2448, "is_downbeat": true}, {"time": 2472, "is_downbeat": false}, {"time": 2496, "is_downbeat": true}, {"time": 2520, "is_downbeat": true}, {"time": 2544, "is_downbeat": true}, {"time": 2568, "is_downbeat": true}, {"time": 2592, "is_downbeat": true}, {"time": 2616, "is_downbeat": true}, {"time": 2640, "is_downbeat": true}, {"time": 2664, "is_downbeat": false}, {"time": 2688, "is_downbeat": true}, {"time": 2712, "is_downbeat": false}, {"time": 2736, "is_downbeat": true}, {"time": 2760, "is_downbeat": true}, {"time": 2784, "is_downbeat": true}, {"time": 2808, "is_downbeat": true}, {"time": 2832, "is_downbeat": true}, {"time": 2856, "is_downbeat": true}, {"time": 2880, "is_downbeat": true}, {"time": 2904, "is_downbeat": true}, {"time": 2928, "is_downbeat": true}, {"time": 2952, "is_downbeat": true}, {"time": 2976, "is_downbeat": true}, {"time": 3000, "is_downbeat": true}, {"time": 3024, "is_downbeat": true}, {"time": 3048, "is_downbeat": true}, {"time": 3072, "is_downbeat": true}, {"time": 3096, "is_downbeat": true}, {"time": 3120, "is_downbeat": true}, {"time": 3144, "is_downbeat": true}, {"time": 3168, "is_downbeat": true}, {"time": 3192, "is_downbeat": true}, {"time": 3216, "is_downbeat": true}, {"time": 3240, "is_downbeat": true}, {"time": 3264, "is_downbeat": true}, {"time": 3288, "is_downbeat": true}, {"time": 3312, "is_downbeat": true}, {"time": 3336, "is_downbeat": true}, {"time": 3360, "is_downbeat": true}, {"time": 3384, "is_downbeat": true}, {"time": 3408, "is_downbeat": true}, {"time": 3432, "is_downbeat": true}, {"time": 3456, "is_downbeat": true}, {"time": 3480, "is_downbeat": true}, {"time": 3504, "is_downbeat": true}, {"time": 3528, "is_downbeat": true}, {"time": 3552, "is_downbeat": true}, {"time": 3576, "is_downbeat": true}, {"time": 3600, "is_downbeat": true}, {"time": 3624, "is_downbeat": true}, {"time": 3648, "is_downbeat": true}, {"time": 3672, "is_downbeat": true}, {"time": 3696, "is_downbeat": true}, {"time": 3720, "is_downbeat": true}, {"time": 3744, "is_downbeat": true}, {"time": 3768, "is_downbeat": true}, {"time": 3792, "is_downbeat": true}, {"time": 3816, "is_downbeat": true}, {"time": 3840, "is_downbeat": true}, {"time": 3864, "is_downbeat": true}, {"time": 3888, "is_downbeat": false}], "tracks": [{"program": 0, "is_drum": false, "notes": [{"time": 0, "pitch": 76, "duration": 12, "velocity": 64}, {"time": 12, "pitch": 76, "duration": 36, "velocity": 64}, {"time": 48, "pitch": 76, "duration": 6, "velocity": 64}, {"time": 54, "pitch": 73, "duration": 6, "velocity": 64}, {"time": 60, "pitch": 71, "duration": 12, "velocity": 64}, {"time": 72, "pitch": 69, "duration": 72, "velocity": 64}, {"time": 144, "pitch": 76, "duration": 12, "velocity": 64}, {"time": 156, "pitch": 73, "duration": 12, "velocity": 64}, {"time": 168, "pitch": 73, "duration": 12, "velocity": 64}, {"time": 180, "pitch": 69, "duration": 12, "velocity": 64}, {"time": 192, "pitch": 76, "duration": 12, "velocity": 64}, {"time": 204, "pitch": 73, "duration": 12, "velocity": 64}, {"time": 216, "pitch": 73, "duration": 12, "velocity": 64}, {"time": 228, "pitch": 71, "duration": 12, "velocity": 64}, {"time": 240, "pitch": 71, "duration": 12, "velocity": 64}, {"time": 252, "pitch": 69, "duration": 12, "velocity": 64}, {"time": 264, "pitch": 69, "duration": 48, "velocity": 64}, {"time": 312, "pitch": 76, "duration": 12, "velocity": 64}, {"time": 324, "pitch": 76, "duration": 36, "velocity": 64}, {"time": 360, "pitch": 76, "duration": 6, "velocity": 64}, {"time": 366, "pitch": 73, "duration": 6, "velocity": 64}, {"time": 372, "pitch": 71, "duration": 12, "velocity": 64}, {"time": 384, "pitch": 69, "duration": 24, "velocity": 64}, {"time": 408, "pitch": 73, "duration": 12, "velocity": 64}, {"time": 420, "pitch": 69, "duration": 12, "velocity": 64}, {"time": 432, "pitch": 71, "duration": 24, "velocity": 64}, {"time": 456, "pitch": 76, "duration": 12, "velocity": 64}, {"time": 468, "pitch": 73, "duration": 12, "velocity": 64}, {"time": 480, "pitch": 71, "duration": 24, "velocity": 64}, {"time": 504, "pitch": 71, "duration": 24, "velocity": 64}, {"time": 528, "pitch": 69, "duration": 48, "velocity": 64}, {"time": 576, "pitch": 76, "duration": 12, "velocity": 64}, {"time": 588, "pitch": 76, "duration": 36, "velocity": 64}, {"time": 624, "pitch": 76, "duration": 6, "velocity": 64}, {"time": 630, "pitch": 73, "duration": 6, "velocity": 64}, {"time": 636, "pitch": 71, "duration": 12, "velocity": 64}, {"time": 648, "pitch": 69, "duration": 24, "velocity": 64}, {"time": 672, "pitch": 73, "duration": 12, "velocity": 64}, {"time": 684, "pitch": 76, "duration": 12, "velocity": 64}, {"time": 696, "pitch": 73, "duration": 12, "velocity": 64}, {"time": 708, "pitch": 76, "duration": 12, "velocity": 64}, {"time": 720, "pitch": 66, "duration": 24, "velocity": 64}, {"time": 744, "pitch": 71, "duration": 12, "velocity": 64}, {"time": 756, "pitch": 73, "duration": 12, "velocity": 64}, {"time": 768, "pitch": 73, "duration": 12, "velocity": 64}, {"time": 780, "pitch": 69, "duration": 36, "velocity": 64}, {"time": 840, "pitch": 69, "duration": 36, "velocity": 64}, {"time": 876, "pitch": 71, "duration": 12, "velocity": 64}, {"time": 888, "pitch": 76, "duration": 12, "velocity": 64}, {"time": 900, "pitch": 76, "duration": 12, "velocity": 64}, {"time": 912, "pitch": 73, "duration": 12, "velocity": 64}, {"time": 924, "pitch": 81, "duration": 12, "velocity": 64}, {"time": 936, "pitch": 78, "duration": 12, "velocity": 64}, {"time": 948, "pitch": 76, "duration": 12, "velocity": 64}, {"time": 960, "pitch": 73, "duration": 12, "velocity": 64}, {"time": 972, "pitch": 71, "duration": 12, "velocity": 64}, {"time": 984, "pitch": 69, "duration": 12, "velocity": 64}, {"time": 996, "pitch": 66, "duration": 12, "velocity": 64}, {"time": 1008, "pitch": 69, "duration": 36, "velocity": 64}, {"time": 1044, "pitch": 71, "duration": 12, "velocity": 64}, {"time": 1056, "pitch": 73, "duration": 12, "velocity": 64}, {"time": 1068, "pitch": 76, "duration": 12, "velocity": 64}, {"time": 1080, "pitch": 69, "duration": 24, "velocity": 64}, {"time": 1104, "pitch": 71, "duration": 12, "velocity": 64}, {"time": 1116, "pitch": 73, "duration": 12, "velocity": 64}, {"time": 1128, "pitch": 69, "duration": 48, "velocity": 64}, {"time": 1200, "pitch": 69, "duration": 36, "velocity": 64}, {"time": 1236, "pitch": 71, "duration": 12, "velocity": 64}, {"time": 1248, "pitch": 73, "duration": 12, "velocity": 64}, {"time": 1260, "pitch": 76, "duration": 12, "velocity": 64}, {"time": 1272, "pitch": 73, "duration": 12, "velocity": 64}, {"time": 1284, "pitch": 81, "duration": 12, "velocity": 64}, {"time": 1296, "pitch": 81, "duration": 12, "velocity": 64}, {"time": 1308, "pitch": 78, "duration": 12, "velocity": 64}, {"time": 1320, "pitch": 76, "duration": 12, "velocity": 64}, {"time": 1332, "pitch": 73, "duration": 12, "velocity": 64}, {"time": 1344, "pitch": 71, "duration": 12, "velocity": 64}, {"time": 1356, "pitch": 69, "duration": 12, "velocity": 64}, {"time": 1368, "pitch": 69, "duration": 12, "velocity": 64}, {"time": 1380, "pitch": 66, "duration": 12, "velocity": 64}, {"time": 1392, "pitch": 69, "duration": 36, "velocity": 64}, {"time": 1428, "pitch": 71, "duration": 12, "velocity": 64}, {"time": 1440, "pitch": 73, "duration": 18, "velocity": 64}, {"time": 1458, "pitch": 76, "duration": 6, "velocity": 64}, {"time": 1464, "pitch": 73, "duration": 12, "velocity": 64}, {"time": 1476, "pitch": 76, "duration": 12, "velocity": 64}, {"time": 1488, "pitch": 76, "duration": 12, "velocity": 64}, {"time": 1500, "pitch": 73, "duration": 12, "velocity": 64}, {"time": 1512, "pitch": 73, "duration": 12, "velocity": 64}, {"time": 1524, "pitch": 69, "duration": 12, "velocity": 64}, {"time": 1536, "pitch": 71, "duration": 12, "velocity": 64}, {"time": 1548, "pitch": 73, "duration": 12, "velocity": 64}, {"time": 1560, "pitch": 69, "duration": 48, "velocity": 64}, {"time": 1608, "pitch": 69, "duration": 36, "velocity": 64}, {"time": 1644, "pitch": 71, "duration": 12, "velocity": 64}, {"time": 1656, "pitch": 73, "duration": 12, "velocity": 64}, {"time": 1668, "pitch": 73, "duration": 12, "velocity": 64}, {"time": 1680, "pitch": 76, "duration": 12, "velocity": 64}, {"time": 1692, "pitch": 76, "duration": 12, "velocity": 64}, {"time": 1704, "pitch": 73, "duration": 24, "velocity": 64}, {"time": 1728, "pitch": 81, "duration": 24, "velocity": 64}, {"time": 1752, "pitch": 78, "duration": 24, "velocity": 64}, {"time": 1776, "pitch": 76, "duration": 12, "velocity": 64}, {"time": 1788, "pitch": 73, "duration": 12, "velocity": 64}, {"time": 1800, "pitch": 73, "duration": 12, "velocity": 64}, {"time": 1812, "pitch": 71, "duration": 12, "velocity": 64}, {"time": 1824, "pitch": 69, "duration": 12, "velocity": 64}, {"time": 1836, "pitch": 66, "duration": 12, "velocity": 64}, {"time": 1848, "pitch": 69, "duration": 36, "velocity": 64}, {"time": 1884, "pitch": 71, "duration": 12, "velocity": 64}, {"time": 1896, "pitch": 73, "duration": 24, "velocity": 64}, {"time": 1920, "pitch": 76, "duration": 24, "velocity": 64}, {"time": 1944, "pitch": 69, "duration": 24, "velocity": 64}, {"time": 1968, "pitch": 71, "duration": 12, "velocity": 64}, {"time": 1980, "pitch": 73, "duration": 12, "velocity": 64}, {"time": 1992, "pitch": 69, "duration": 48, "velocity": 64}, {"time": 2040, "pitch": 69, "duration": 36, "velocity": 64}, {"time": 2076, "pitch": 71, "duration": 12, "velocity": 64}, {"time": 2088, "pitch": 73, "duration": 12, "velocity": 64}, {"time": 2100, "pitch": 76, "duration": 12, "velocity": 64}, {"time": 2112, "pitch": 73, "duration": 12, "velocity": 64}, {"time": 2124, "pitch": 76, "duration": 12, "velocity": 64}, {"time": 2136, "pitch": 76, "duration": 12, "velocity": 64}, {"time": 2148, "pitch": 73, "duration": 12, "velocity": 64}, {"time": 2160, "pitch": 78, "duration": 12, "velocity": 64}, {"time": 2172, "pitch": 81, "duration": 12, "velocity": 64}, {"time": 2184, "pitch": 81, "duration": 12, "velocity": 64}, {"time": 2196, "pitch": 78, "duration": 24, "velocity": 64}, {"time": 2220, "pitch": 76, "duration": 24, "velocity": 64}, {"time": 2244, "pitch": 73, "duration": 24, "velocity": 64}, {"time": 2268, "pitch": 71, "duration": 12, "velocity": 64}, {"time": 2280, "pitch": 69, "duration": 12, "velocity": 64}, {"time": 2292, "pitch": 66, "duration": 12, "velocity": 64}, {"time": 2304, "pitch": 69, "duration": 36, "velocity": 64}, {"time": 2340, "pitch": 71, "duration": 12, "velocity": 64}, {"time": 2352, "pitch": 73, "duration": 12, "velocity": 64}, {"time": 2364, "pitch": 76, "duration": 12, "velocity": 64}, {"time": 2376, "pitch": 73, "duration": 12, "velocity": 64}, {"time": 2388, "pitch": 76, "duration": 12, "velocity": 64}, {"time": 2400, "pitch": 76, "duration": 18, "velocity": 64}, {"time": 2418, "pitch": 73, "duration": 6, "velocity": 64}, {"time": 2424, "pitch": 73, "duration": 12, "velocity": 64}, {"time": 2436, "pitch": 69, "duration": 12, "velocity": 64}, {"time": 2448, "pitch": 71, "duration": 12, "velocity": 64}, {"time": 2460, "pitch": 73, "duration": 12, "velocity": 64}, {"time": 2472, "pitch": 69, "duration": 12, "velocity": 64}, {"time": 2484, "pitch": 69, "duration": 36, "velocity": 64}, {"time": 2520, "pitch": 69, "duration": 36, "velocity": 64}, {"time": 2556, "pitch": 71, "duration": 12, "velocity": 64}, {"time": 2568, "pitch": 73, "duration": 12, "velocity": 64}, {"time": 2580, "pitch": 76, "duration": 12, "velocity": 64}, {"time": 2592, "pitch": 73, "duration": 12, "velocity": 64}, {"time": 2604, "pitch": 76, "duration": 12, "velocity": 64}, {"time": 2616, "pitch": 73, "duration": 12, "velocity": 64}, {"time": 2628, "pitch": 76, "duration": 12, "velocity": 64}, {"time": 2640, "pitch": 73, "duration": 12, "velocity": 64}, {"time": 2652, "pitch": 76, "duration": 6, "velocity": 64}, {"time": 2658, "pitch": 76, "duration": 6, "velocity": 64}, {"time": 2664, "pitch": 81, "duration": 12, "velocity": 64}, {"time": 2676, "pitch": 78, "duration": 12, "velocity": 64}, {"time": 2688, "pitch": 76, "duration": 12, "velocity": 64}, {"time": 2700, "pitch": 73, "duration": 12, "velocity": 64}, {"time": 2712, "pitch": 71, "duration": 12, "velocity": 64}, {"time": 2724, "pitch": 69, "duration": 12, "velocity": 64}, {"time": 2736, "pitch": 66, "duration": 24, "velocity": 64}, {"time": 2760, "pitch": 69, "duration": 24, "velocity": 64}, {"time": 2796, "pitch": 69, "duration": 12, "velocity": 64}, {"time": 2808, "pitch": 73, "duration": 12, "velocity": 64}, {"time": 2820, "pitch": 76, "duration": 12, "velocity": 64}, {"time": 2832, "pitch": 73, "duration": 12, "velocity": 64}, {"time": 2844, "pitch": 76, "duration": 12, "velocity": 64}, {"time": 2856, "pitch": 69, "duration": 24, "velocity": 64}, {"time": 2880, "pitch": 71, "duration": 12, "velocity": 64}, {"time": 2892, "pitch": 73, "duration": 12, "velocity": 64}, {"time": 2904, "pitch": 69, "duration": 48, "velocity": 64}, {"time": 2952, "pitch": 69, "duration": 36, "velocity": 64}, {"time": 2988, "pitch": 71, "duration": 12, "velocity": 64}, {"time": 3000, "pitch": 73, "duration": 12, "velocity": 64}, {"time": 3012, "pitch": 76, "duration": 12, "velocity": 64}, {"time": 3024, "pitch": 76, "duration": 12, "velocity": 64}, {"time": 3036, "pitch": 76, "duration": 12, "velocity": 64}, {"time": 3048, "pitch": 73, "duration": 6, "velocity": 64}, {"time": 3054, "pitch": 76, "duration": 6, "velocity": 64}, {"time": 3060, "pitch": 76, "duration": 6, "velocity": 64}, {"time": 3066, "pitch": 76, "duration": 6, "velocity": 64}, {"time": 3072, "pitch": 76, "duration": 6, "velocity": 64}, {"time": 3078, "pitch": 76, "duration": 6, "velocity": 64}, {"time": 3084, "pitch": 73, "duration": 6, "velocity": 64}, {"time": 3090, "pitch": 81, "duration": 6, "velocity": 64}, {"time": 3096, "pitch": 81, "duration": 12, "velocity": 64}, {"time": 3108, "pitch": 78, "duration": 12, "velocity": 64}, {"time": 3120, "pitch": 76, "duration": 12, "velocity": 64}, {"time": 3132, "pitch": 73, "duration": 12, "velocity": 64}, {"time": 3144, "pitch": 71, "duration": 12, "velocity": 64}, {"time": 3156, "pitch": 69, "duration": 12, "velocity": 64}, {"time": 3168, "pitch": 66, "duration": 24, "velocity": 64}, {"time": 3192, "pitch": 69, "duration": 36, "velocity": 64}, {"time": 3228, "pitch": 71, "duration": 12, "velocity": 64}, {"time": 3240, "pitch": 73, "duration": 12, "velocity": 64}, {"time": 3252, "pitch": 76, "duration": 12, "velocity": 64}, {"time": 3264, "pitch": 73, "duration": 12, "velocity": 64}, {"time": 3276, "pitch": 76, "duration": 12, "velocity": 64}, {"time": 3288, "pitch": 69, "duration": 24, "velocity": 64}, {"time": 3312, "pitch": 71, "duration": 12, "velocity": 64}, {"time": 3324, "pitch": 73, "duration": 12, "velocity": 64}, {"time": 3336, "pitch": 69, "duration": 48, "velocity": 64}, {"time": 3384, "pitch": 73, "duration": 12, "velocity": 64}, {"time": 3396, "pitch": 71, "duration": 12, "velocity": 64}, {"time": 3408, "pitch": 73, "duration": 12, "velocity": 64}, {"time": 3420, "pitch": 76, "duration": 12, "velocity": 64}, {"time": 3432, "pitch": 69, "duration": 12, "velocity": 64}, {"time": 3444, "pitch": 66, "duration": 12, "velocity": 64}, {"time": 3456, "pitch": 69, "duration": 12, "velocity": 64}, {"time": 3468, "pitch": 71, "duration": 12, "velocity": 64}, {"time": 3480, "pitch": 73, "duration": 12, "velocity": 64}, {"time": 3492, "pitch": 76, "duration": 12, "velocity": 64}, {"time": 3504, "pitch": 69, "duration": 12, "velocity": 64}, {"time": 3516, "pitch": 66, "duration": 12, "velocity": 64}, {"time": 3528, "pitch": 73, "duration": 12, "velocity": 64}, {"time": 3540, "pitch": 71, "duration": 12, "velocity": 64}, {"time": 3552, "pitch": 73, "duration": 24, "velocity": 64}, {"time": 3576, "pitch": 71, "duration": 12, "velocity": 64}, {"time": 3588, "pitch": 69, "duration": 12, "velocity": 64}, {"time": 3600, "pitch": 69, "duration": 48, "velocity": 64}, {"time": 3648, "pitch": 73, "duration": 12, "velocity": 64}, {"time": 3660, "pitch": 71, "duration": 12, "velocity": 64}, {"time": 3672, "pitch": 73, "duration": 12, "velocity": 64}, {"time": 3684, "pitch": 76, "duration": 12, "velocity": 64}, {"time": 3696, "pitch": 69, "duration": 12, "velocity": 64}, {"time": 3708, "pitch": 66, "duration": 12, "velocity": 64}, {"time": 3720, "pitch": 69, "duration": 12, "velocity": 64}, {"time": 3732, "pitch": 71, "duration": 12, "velocity": 64}, {"time": 3744, "pitch": 73, "duration": 12, "velocity": 64}, {"time": 3756, "pitch": 76, "duration": 12, "velocity": 64}, {"time": 3768, "pitch": 69, "duration": 12, "velocity": 64}, {"time": 3780, "pitch": 66, "duration": 12, "velocity": 64}, {"time": 3792, "pitch": 73, "duration": 12, "velocity": 64}, {"time": 3804, "pitch": 71, "duration": 12, "velocity": 64}, {"time": 3816, "pitch": 73, "duration": 24, "velocity": 64}, {"time": 3840, "pitch": 71, "duration": 12, "velocity": 64}, {"time": 3852, "pitch": 69, "duration": 12, "velocity": 64}, {"time": 3864, "pitch": 69, "duration": 48, "velocity": 64}]}]}