{"metadata": {"schema_version": "0.1", "title": "San hua", "source_format": "abc"}, "resolution": 24, "tempos": [{"time": 0, "qpm": 120.0}], "key_signatures": [{"time": 0, "root": 5, "mode": "major", "fifths": -1}], "time_signatures": [{"time": 0, "numerator": 2, "denominator": 4}], "beats": [{"time": 0, "is_downbeat": true}, {"time": 24, "is_downbeat": false}, {"time": 48, "is_downbeat": true}, {"time": 72, "is_downbeat": false}, {"time": 96, "is_downbeat": true}, {"time": 120, "is_downbeat": false}, {"time": 144, "is_downbeat": true}, {"time": 168, "is_downbeat": false}, {"time": 192, "is_downbeat": true}, {"time": 216, "is_downbeat": false}, {"time": 240, "is_downbeat": true}, {"time": 264, "is_downbeat": false}, {"time": 288, "is_downbeat": true}, {"time": 312, "is_downbeat": false}, {"time": 336, "is_downbeat": true}, {"time": 360, "is_downbeat": false}, {"time": 384, "is_downbeat": true}, {"time": 408, "is_downbeat": false}, {"time": 432, "is_downbeat": true}, {"time": 456, "is_downbeat": false}, {"time": 480, "is_downbeat": true}, {"time": 504, "is_downbeat": false}, {"time": 528, "is_downbeat": true}, {"time": 552, "is_downbeat": false}, {"time": 576, "is_downbeat": true}, {"time": 600, "is_downbeat": false}, {"time": 624, "is_downbeat": true}, {"time": 648, "is_downbeat": false}, {"time": 672, "is_downbeat": true}, {"time": 696, "is_downbeat": false}, {"time": 720, "is_downbeat": true}, {"time": 744, "is_downbeat": false}, {"time": 768, "is_downbeat": true}, {"time": 792, "is_downbeat": false}, {"time": 816, "is_downbeat": true}, {"time": 840, "is_downbeat": false}, {"time": 864, "is_downbeat": true}, {"time": 888, "is_downbeat": false}, {"time": 912, "is_downbeat": true}, {"time": 936, "is_downbeat": false}, {"time": 960, "is_downbeat": true}, {"time": 984, "is_downbeat": false}, {"time": 1008, "is_downbeat": true}, {"time": 1032, "is_downbeat": false}, {"time": 1056, "is_downbeat": true}, {"time": 1080, "is_downbeat": false}, {"time": 1104, "is_downbeat": true}, {"time": 1128, "is_downbeat": false}, {"time": 1152, "is_downbeat": true}, {"time": 1176, "is_downbeat": false}, {"time": 1200, "is_downbeat": true}, {"time": 1224, "is_downbeat": false}, {"time": 1248, "is_downbeat": true}, {"time": 1272, "is_downbeat": false}, {"time": 1296, "is_downbeat": true}, {"time": 1320, "is_downbeat": false}, {"time": 1344, "is_downbeat": true}, {"time": 1368, "is_downbeat": false}, {"time": 1392, "is_downbeat": true}, {"time": 1416, "is_downbeat": false}, {"time": 1440, "is_downbeat": true}, {"time": 1464, "is_downbeat": false}, {"time": 1488, "is_downbeat": true}, {"time": 1512, "is_downbeat": false}, {"time": 1536, "is_downbeat": true}, {"time": 1560, "is_downbeat": false}], "tracks": [{"program": 0, "is_drum": false, "notes": [{"time": 0, "pitch": 72, "duration": 18, "velocity": 64}, {"time": 18, "pitch": 74, "duration": 6, "velocity": 64}, {"time": 24, "pitch": 77, "duration": 24, "velocity": 64}, {"time": 48, "pitch": 76, "duration": 12, "velocity": 64}, {"time": 60, "pitch": 74, "duration": 12, "velocity": 64}, {"time": 72, "pitch": 72, "duration": 24, "velocity": 64}, {"time": 96, "pitch": 77, "duration": 12, "velocity": 64}, {"time": 108, "pitch": 76, "duration": 6, "velocity": 64}, {"time": 114, "pitch": 74, "duration": 6, "velocity": 64}, {"time": 120, "pitch": 72, "duration": 6, "velocity": 64}, {"time": 126, "pitch": 74, "duration": 6, "velocity": 64}, {"time": 132, "pitch": 72, "duration": 6, "velocity": 64}, {"time": 138, "pitch": 69, "duration": 6, "velocity": 64}, {"time": 144, "pitch": 67, "duration": 12, "velocity": 64}, {"time": 156, "pitch": 69, "duration": 6, "velocity": 64}, {"time": 162, "pitch": 72, "duration": 6, "velocity": 64}, {"time": 168, "pitch": 67, "duration": 24, "velocity": 64}, {"time": 192, "pitch": 72, "duration": 18, "velocity": 64}, {"time": 210, "pitch": 74, "duration": 6, "velocity": 64}, {"time": 216, "pitch": 77, "duration": 24, "velocity": 64}, {"time": 240, "pitch": 76, "duration": 6, "velocity": 64}, {"time": 246, "pitch": 79, "duration": 6, "velocity": 64}, {"time": 252, "pitch": 76, "duration": 6, "velocity": 64}, {"time": 258, "pitch": 74, "duration": 6, "velocity": 64}, {"time": 264, "pitch": 72, "duration": 24, "velocity": 64}, {"time": 288, "pitch": 77, "duration": 12, "velocity": 64}, {"time": 300, "pitch": 76, "duration": 6, "velocity": 64}, {"time": 306, "pitch": 74, "duration": 6, "velocity": 64}, {"time": 312, "pitch": 72, "duration": 6, "velocity": 64}, {"time": 318, "pitch": 74, "duration": 6, "velocity": 64}, {"time": 324, "pitch": 72, "duration": 6, "velocity": 64}, {"time": 330, "pitch": 69, "duration": 6, "velocity": 64}, {"time": 336, "pitch": 67, "duration": 12, "velocity": 64}, {"time": 348, "pitch": 69, "duration": 6, "velocity": 64}, {"time": 354, "pitch": 72, "duration": 6, "velocity": 64}, {"time": 360, "pitch": 67, "duration": 24, "velocity": 64}, {"time": 384, "pitch": 72, "duration": 6, "velocity": 64}, {"time": 390, "pitch": 72, "duration": 12, "velocity": 64}, {"time": 402, "pitch": 69, "duration": 6, "velocity": 64}, {"time": 408, "pitch": 72, "duration": 24, "velocity": 64}, {"time": 432, "pitch": 65, "duration": 6, "velocity": 64}, {"time": 438, "pitch": 67, "duration": 6, "velocity": 64}, {"time": 444, "pitch": 69, "duration": 6, "velocity": 64}, {"time": 450, "pitch": 72, "duration": 6, "velocity": 64}, {"time": 456, "pitch": 67, "duration": 24, "velocity": 64}, {"time": 480, "pitch": 72, "duration": 6, "velocity": 64}, {"time": 486, "pitch": 72, "duration": 12, "velocity": 64}, {"time": 498, "pitch": 69, "duration": 6, "velocity": 64}, {"time": 504, "pitch": 72, "duration": 24, "velocity": 64}, {"time": 528, "pitch": 65, "duration": 6, "velocity": 64}, {"time": 534, "pitch": 67, "duration": 6, "velocity": 64}, {"time": 540, "pitch": 69, "duration": 6, "velocity": 64}, {"time": 546, "pitch": 72, "duration": 6, "velocity": 64}, {"time": 552, "pitch": 67, "duration": 6, "velocity": 64}, {"time": 558, "pitch": 67, "duration": 6, "velocity": 64}, {"time": 564, "pitch": 67, "duration": 6, "velocity": 64}, {"time": 570, "pitch": 67, "duration": 6, "velocity": 64}, {"time": 576, "pitch": 65, "duration": 48, "velocity": 64}, {"time": 624, "pitch": 72, "duration": 18, "velocity": 64}, {"time": 642, "pitch": 77, "duration": 6, "velocity": 64}, {"time": 648, "pitch": 74, "duration": 12, "velocity": 64}, {"time": 660, "pitch": 72, "duration": 12, "velocity": 64}, {"time": 672, "pitch": 69, "duration": 12, "velocity": 64}, {"time": 684, "pitch": 69, "duration": 12, "velocity": 64}, {"time": 696, "pitch": 69, "duration": 12, "velocity": 64}, {"time": 708, "pitch": 69, "duration": 12, "velocity": 64}, {"time": 720, "pitch": 67, "duration": 18, "velocity": 64}, {"time": 738, "pitch": 69, "duration": 6, "velocity": 64}, {"time": 744, "pitch": 72, "duration": 24, "velocity": 64}, {"time": 768, "pitch": 69, "duration": 6, "velocity": 64}, {"time": 774, "pitch": 72, "duration": 6, "velocity": 64}, {"time": 780, "pitch": 69, "duration": 6, "velocity": 64}, {"time": 786, "pitch": 67, "duration": 6, "velocity": 64}, {"time": 792, "pitch": 65, "duration": 24, "velocity": 64}, {"time": 816, "pitch": 72, "duration": 12, "velocity": 64}, {"time": 828, "pitch": 72, "duration": 6, "velocity": 64}, {"time": 834, "pitch": 69, "duration": 6, "velocity": 64}, {"time": 840, "pitch": 67, "duration": 6, "velocity": 64}, {"time": 846, "pitch": 69, "duration": 6, "velocity": 64}, {"time": 852, "pitch": 67, "duration": 6, "velocity": 64}, {"time": 858, "pitch": 62, "duration": 6, "velocity": 64}, {"time": 864, "pitch": 60, "duration": 48, "velocity": 64}, {"time": 912, "pitch": 65, "duration": 12, "velocity": 64}, {"time": 924, "pitch": 65, "duration": 12, "velocity": 64}, {"time": 936, "pitch": 62, "duration": 12, "velocity": 64}, {"time": 948, "pitch": 60, "duration": 12, "velocity": 64}, {"time": 960, "pitch": 65, "duration": 12, "velocity": 64}, {"time": 972, "pitch": 65, "duration": 12, "velocity": 64}, {"time": 984, "pitch": 62, "duration": 12, "velocity": 64}, {"time": 996, "pitch": 60, "duration": 12, "velocity": 64}, {"time": 1008, "pitch": 67, "duration": 18, "velocity": 64}, {"time": 1026, "pitch": 69, "duration": 6, "velocity": 64}, {"time": 1032, "pitch": 72, "duration": 24, "velocity": 64}, {"time": 1056, "pitch": 69, "duration": 6, "velocity": 64}, {"time": 1062, "pitch": 72, "duration": 6, "velocity": 64}, {"time": 1068, "pitch": 69, "duration": 6, "velocity": 64}, {"time": 1074, "pitch": 67, "duration": 6, "velocity": 64}, {"time": 1080, "pitch": 65, "duration": 24, "velocity": 64}, {"time": 1104, "pitch": 72, "duration": 12, "velocity": 64}, {"time": 1116, "pitch": 72, "duration": 6, "velocity": 64}, {"time": 1122, "pitch": 69, "duration": 6, "velocity": 64}, {"time": 1128, "pitch": 67, "duration": 6, "velocity": 64}, {"time": 1134, "pitch": 69, "duration": 6, "velocity": 64}, {"time": 1140, "pitch": 67, "duration": 6, "velocity": 64}, {"time": 1146, "pitch": 62, "duration": 6, "velocity": 64}, {"time": 1152, "pitch": 60, "duration": 48, "velocity": 64}, {"time": 1200, "pitch": 62, "duration": 18, "velocity": 64}, {"time": 1218, "pitch": 65, "duration": 6, "velocity": 64}, {"time": 1224, "pitch": 62, "duration": 18, "velocity": 64}, {"time": 1242, "pitch": 65, "duration": 6, "velocity": 64}, {"time": 1248, "pitch": 67, "duration": 12, "velocity": 64}, {"time": 1260, "pitch": 62, "duration": 12, "velocity": 64}, {"time": 1272, "pitch": 60, "duration": 24, "velocity": 64}, {"time": 1296, "pitch": 62, "duration": 18, "velocity": 64}, {"time": 1314, "pitch": 65, "duration": 6, "velocity": 64}, {"time": 1320, "pitch": 62, "duration": 18, "velocity": 64}, {"time": 1338, "pitch": 65, "duration": 6, "velocity": 64}, {"time": 1344, "pitch": 67, "duration": 12, "velocity": 64}, {"time": 1356, "pitch": 62, "duration": 12, "velocity": 64}, {"time": 1368, "pitch": 72, "duration": 24, "velocity": 64}, {"time": 1392, "pitch": 67, "duration": 12, "velocity": 64}, {"time": 1404, "pitch": 72, "duration": 12, "velocity": 64}, {"time": 1416, "pitch": 69, "duration": 6, "velocity": 64}, {"time": 1422, "pitch": 72, "duration": 6, "velocity": 64}, {"time": 1428, "pitch": 69, "duration": 6, "velocity": 64}, {"time": 1434, "pitch": 67, "duration": 6, "velocity": 64}, {"time": 1440, "pitch": 65, "duration": 24, "velocity": 64}, {"time": 1464, "pitch": 65, "duration": 12, "velocity": 64}, {"time": 1476, "pitch": 62, "duration": 12, "velocity": 64}, {"time": 1488, "pitch": 72, "duration": 12, "velocity": 64}, {"time": 1500, "pitch": 72, "duration": 6, "velocity": 64}, {"time": 1506, "pitch": 69, "duration": 6, "velocity": 64}, {"time": 1512, "pitch": 67, "duration": 6, "velocity": 64}, {"time": 1518, "pitch": 69, "duration": 6, "velocity": 64}, {"time": 1524, "pitch": 67, "duration": 6, "velocity": 64}, {"time": 1530, "pitch": 62, "duration": 6, "velocity": 64}, {"time": 1536, "pitch": 60, "duration": 48, "velocity": 64}]}]}