{"metadata": {"schema_version": "0.1", "title": "Suqu ganbu hao zuofeng", "source_format": "abc"}, "resolution": 24, "tempos": [{"time": 0, "qpm": 120.0}], "key_signatures": [{"time": 0, "root": 4, "mode": "major", "fifths": 4}], "time_signatures": [{"time": 0, "numerator": 4, "denominator": 4}, {"time": 36, "numerator": 1, "denominator": 8}, {"time": 84, "numerator": 7, "denominator": 8}, {"time": 204, "numerator": 5, "denominator": 8}, {"time": 300, "numerator": 1, "denominator": 8}, {"time": 348, "numerator": 2, "denominator": 4}, {"time": 432, "numerator": 1, "denominator": 4}, {"time": 492, "numerator": 3, "denominator": 4}, {"time": 636, "numerator": 1, "denominator": 4}, {"time": 696, "numerator": 1, "denominator": 4}, {"time": 720, "numerator": 3, "denominator": 8}, {"time": 756, "numerator": 1, "denominator": 8}], "beats": [{"time": 0, "is_downbeat": true}, {"time": 12, "is_downbeat": true}, {"time": 24, "is_downbeat": true}, {"time": 36, "is_downbeat": true}, {"time": 48, "is_downbeat": true}, {"time": 60, "is_downbeat": false}, {"time": 72, "is_downbeat": false}, {"time": 84, "is_downbeat": true}, {"time": 96, "is_downbeat": false}, {"time": 108, "is_downbeat": false}, {"time": 120, "is_downbeat": false}, {"time": 132, "is_downbeat": false}, {"time": 144, "is_downbeat": true}, {"time": 156, "is_downbeat": false}, {"time": 168, "is_downbeat": true}, {"time": 180, "is_downbeat": false}, {"time": 192, "is_downbeat": false}, {"time": 204, "is_downbeat": true}, {"time": 216, "is_downbeat": true}, {"time": 228, "is_downbeat": true}, {"time": 240, "is_downbeat": true}, {"time": 252, "is_downbeat": true}, {"time": 264, "is_downbeat": true}, {"time": 276, "is_downbeat": true}, {"time": 288, "is_downbeat": true}, {"time": 300, "is_downbeat": true}, {"time": 312, "is_downbeat": true}, {"time": 336, "is_downbeat": false}, {"time": 348, "is_downbeat": true}, {"time": 372, "is_downbeat": true}, {"time": 396, "is_downbeat": true}, {"time": 420, "is_downbeat": true}, {"time": 432, "is_downbeat": true}, {"time": 456, "is_downbeat": true}, {"time": 480, "is_downbeat": false}, {"time": 492, "is_downbeat": true}, {"time": 516, "is_downbeat": true}, {"time": 540, "is_downbeat": true}, {"time": 564, "is_downbeat": true}, {"time": 588, "is_downbeat": true}, {"time": 600, "is_downbeat": true}, {"time": 624, "is_downbeat": true}, {"time": 636, "is_downbeat": true}, {"time": 660, "is_downbeat": true}, {"time": 684, "is_downbeat": true}, {"time": 696, "is_downbeat": true}, {"time": 708, "is_downbeat": false}, {"time": 720, "is_downbeat": true}, {"time": 732, "is_downbeat": true}, {"time": 744, "is_downbeat": true}, {"time": 756, "is_downbeat": true}], "tracks": [{"program": 0, "is_drum": false, "notes": [{"time": 0, "pitch": 80, "duration": 12, "velocity": 64}, {"time": 12, "pitch": 80, "duration": 6, "velocity": 64}, {"time": 18, "pitch": 76, "duration": 6, "velocity": 64}, {"time": 24, "pitch": 78, "duration": 24, "velocity": 64}, {"time": 48, "pitch": 80, "duration": 36, "velocity": 64}, {"time": 84, "pitch": 73, "duration": 24, "velocity": 64}, {"time": 108, "pitch": 78, "duration": 12, "velocity": 64}, {"time": 120, "pitch": 78, "duration": 6, "velocity": 64}, {"time": 126, "pitch": 80, "duration": 6, "velocity": 64}, {"time": 132, "pitch": 78, "duration": 6, "velocity": 64}, {"time": 138, "pitch": 76, "duration": 6, "velocity": 64}, {"time": 144, "pitch": 80, "duration": 12, "velocity": 64}, {"time": 156, "pitch": 78, "duration": 6, "velocity": 64}, {"time": 162, "pitch": 80, "duration": 6, "velocity": 64}, {"time": 168, "pitch": 78, "duration": 6, "velocity": 64}, {"time": 174, "pitch": 76, "duration": 6, "velocity": 64}, {"time": 180, "pitch": 80, "duration": 12, "velocity": 64}, {"time": 192, "pitch": 78, "duration": 6, "velocity": 64}, {"time": 198, "pitch": 80, "duration": 6, "velocity": 64}, {"time": 204, "pitch": 78, "duration": 6, "velocity": 64}, {"time": 210, "pitch": 76, "duration": 6, "velocity": 64}, {"time": 216, "pitch": 78, "duration": 12, "velocity": 64}, {"time": 228, "pitch": 78, "duration": 12, "velocity": 64}, {"time": 240, "pitch": 76, "duration": 6, "velocity": 64}, {"time": 246, "pitch": 78, "duration": 6, "velocity": 64}, {"time": 252, "pitch": 73, "duration": 6, "velocity": 64}, {"time": 258, "pitch": 73, "duration": 6, "velocity": 64}, {"time": 264, "pitch": 73, "duration": 6, "velocity": 64}, {"time": 270, "pitch": 76, "duration": 6, "velocity": 64}, {"time": 276, "pitch": 78, "duration": 3, "velocity": 64}, {"time": 279, "pitch": 76, "duration": 3, "velocity": 64}, {"time": 282, "pitch": 73, "duration": 6, "velocity": 64}, {"time": 288, "pitch": 73, "duration": 6, "velocity": 64}, {"time": 294, "pitch": 76, "duration": 6, "velocity": 64}, {"time": 300, "pitch": 73, "duration": 6, "velocity": 64}, {"time": 306, "pitch": 73, "duration": 6, "velocity": 64}, {"time": 312, "pitch": 73, "duration": 48, "velocity": 64}, {"time": 360, "pitch": 80, "duration": 12, "velocity": 64}, {"time": 372, "pitch": 80, "duration": 12, "velocity": 64}, {"time": 384, "pitch": 76, "duration": 6, "velocity": 64}, {"time": 390, "pitch": 80, "duration": 6, "velocity": 64}, {"time": 396, "pitch": 78, "duration": 6, "velocity": 64}, {"time": 402, "pitch": 76, "duration": 6, "velocity": 64}, {"time": 408, "pitch": 78, "duration": 6, "velocity": 64}, {"time": 414, "pitch": 80, "duration": 6, "velocity": 64}, {"time": 420, "pitch": 78, "duration": 6, "velocity": 64}, {"time": 426, "pitch": 78, "duration": 6, "velocity": 64}, {"time": 432, "pitch": 76, "duration": 6, "velocity": 64}, {"time": 438, "pitch": 73, "duration": 6, "velocity": 64}, {"time": 444, "pitch": 73, "duration": 6, "velocity": 64}, {"time": 450, "pitch": 73, "duration": 6, "velocity": 64}, {"time": 456, "pitch": 76, "duration": 6, "velocity": 64}, {"time": 462, "pitch": 78, "duration": 6, "velocity": 64}, {"time": 468, "pitch": 73, "duration": 12, "velocity": 64}, {"time": 480, "pitch": 76, "duration": 6, "velocity": 64}, {"time": 486, "pitch": 73, "duration": 6, "velocity": 64}, {"time": 492, "pitch": 73, "duration": 24, "velocity": 64}, {"time": 516, "pitch": 73, "duration": 6, "velocity": 64}, {"time": 522, "pitch": 76, "duration": 6, "velocity": 64}, {"time": 528, "pitch": 76, "duration": 6, "velocity": 64}, {"time": 534, "pitch": 78, "duration": 6, "velocity": 64}, {"time": 540, "pitch": 78, "duration": 36, "velocity": 64}, {"time": 588, "pitch": 76, "duration": 6, "velocity": 64}, {"time": 594, "pitch": 78, "duration": 6, "velocity": 64}, {"time": 600, "pitch": 80, "duration": 12, "velocity": 64}, {"time": 612, "pitch": 78, "duration": 6, "velocity": 64}, {"time": 618, "pitch": 76, "duration": 6, "velocity": 64}, {"time": 624, "pitch": 78, "duration": 6, "velocity": 64}, {"time": 630, "pitch": 73, "duration": 6, "velocity": 64}, {"time": 636, "pitch": 73, "duration": 6, "velocity": 64}, {"time": 642, "pitch": 78, "duration": 6, "velocity": 64}, {"time": 648, "pitch": 76, "duration": 6, "velocity": 64}, {"time": 654, "pitch": 78, "duration": 6, "velocity": 64}, {"time": 660, "pitch": 73, "duration": 12, "velocity": 64}, {"time": 672, "pitch": 76, "duration": 24, "velocity": 64}, {"time": 696, "pitch": 73, "duration": 6, "velocity": 64}, {"time": 702, "pitch": 76, "duration": 6, "velocity": 64}, {"time": 708, "pitch": 73, "duration": 6, "velocity": 64}, {"time": 714, "pitch": 73, "duration": 6, "velocity": 64}, {"time": 720, "pitch": 73, "duration": 48, "velocity": 64}]}]}