{"metadata": {"schema_version": "0.1", "title": "Gao shan diao", "source_format": "abc"}, "resolution": 24, "tempos": [{"time": 0, "qpm": 120.0}], "key_signatures": [{"time": 0, "root": 9, "mode": "major", "fifths": 3}], "time_signatures": [{"time": 0, "numerator": 4, "denominator": 4}, {"time": 576, "numerator": 3, "denominator": 2}, {"time": 720, "numerator": 2, "denominator": 4}], "beats": [{"time": 0, "is_downbeat": true}, {"time": 48, "is_downbeat": true}, {"time": 96, "is_downbeat": true}, {"time": 144, "is_downbeat": true}, {"time": 192, "is_downbeat": true}, {"time": 240, "is_downbeat": true}, {"time": 288, "is_downbeat": true}, {"time": 336, "is_downbeat": true}, {"time": 384, "is_downbeat": true}, {"time": 432, "is_downbeat": true}, {"time": 480, "is_downbeat": true}, {"time": 528, "is_downbeat": true}, {"time": 576, "is_downbeat": true}, {"time": 600, "is_downbeat": false}, {"time": 624, "is_downbeat": true}, {"time": 648, "is_downbeat": false}, {"time": 672, "is_downbeat": true}, {"time": 696, "is_downbeat": false}, {"time": 720, "is_downbeat": true}, {"time": 744, "is_downbeat": false}, {"time": 768, "is_downbeat": true}, {"time": 792, "is_downbeat": false}, {"time": 816, "is_downbeat": true}, {"time": 840, "is_downbeat": false}], "tracks": [{"program": 0, "is_drum": false, "notes": [{"time": 24, "pitch": 73, "duration": 12, "velocity": 64}, {"time": 36, "pitch": 73, "duration": 12, "velocity": 64}, {"time": 48, "pitch": 78, "duration": 12, "velocity": 64}, {"time": 60, "pitch": 78, "duration": 12, "velocity": 64}, {"time": 72, "pitch": 73, "duration": 12, "velocity": 64}, {"time": 84, "pitch": 73, "duration": 12, "velocity": 64}, {"time": 96, "pitch": 78, "duration": 12, "velocity": 64}, {"time": 108, "pitch": 81, "duration": 6, "velocity": 64}, {"time": 114, "pitch": 83, "duration": 6, "velocity": 64}, {"time": 120, "pitch": 81, "duration": 48, "velocity": 64}, {"time": 168, "pitch": 73, "duration": 12, "velocity": 64}, {"time": 180, "pitch": 77, "duration": 12, "velocity": 64}, {"time": 192, "pitch": 78, "duration": 12, "velocity": 64}, {"time": 204, "pitch": 81, "duration": 6, "velocity": 64}, {"time": 210, "pitch": 83, "duration": 6, "velocity": 64}, {"time": 216, "pitch": 78, "duration": 12, "velocity": 64}, {"time": 228, "pitch": 73, "duration": 12, "velocity": 64}, {"time": 240, "pitch": 73, "duration": 36, "velocity": 64}, {"time": 276, "pitch": 77, "duration": 12, "velocity": 64}, {"time": 288, "pitch": 78, "duration": 8, "velocity": 64}, {"time": 296, "pitch": 81, "duration": 8, "velocity": 64}, {"time": 304, "pitch": 73, "duration": 8, "velocity": 64}, {"time": 312, "pitch": 73, "duration": 8, "velocity": 64}, {"time": 320, "pitch": 81, "duration": 8, "velocity": 64}, {"time": 328, "pitch": 77, "duration": 8, "velocity": 64}, {"time": 336, "pitch": 78, "duration": 48, "velocity": 64}, {"time": 384, "pitch": 73, "duration": 48, "velocity": 64}, {"time": 456, "pitch": 73, "duration": 12, "velocity": 64}, {"time": 468, "pitch": 78, "duration": 12, "velocity": 64}, {"time": 480, "pitch": 78, "duration": 8, "velocity": 64}, {"time": 488, "pitch": 81, "duration": 8, "velocity": 64}, {"time": 496, "pitch": 73, "duration": 8, "velocity": 64}, {"time": 504, "pitch": 73, "duration": 12, "velocity": 64}, {"time": 516, "pitch": 73, "duration": 12, "velocity": 64}, {"time": 528, "pitch": 73, "duration": 12, "velocity": 64}, {"time": 540, "pitch": 81, "duration": 12, "velocity": 64}, {"time": 552, "pitch": 81, "duration": 48, "velocity": 64}, {"time": 600, "pitch": 73, "duration": 24, "velocity": 64}, {"time": 624, "pitch": 78, "duration": 12, "velocity": 64}, {"time": 636, "pitch": 81, "duration": 6, "velocity": 64}, {"time": 642, "pitch": 83, "duration": 6, "velocity": 64}, {"time": 648, "pitch": 78, "duration": 12, "velocity": 64}, {"time": 660, "pitch": 73, "duration": 48, "velocity": 64}, {"time": 708, "pitch": 77, "duration": 12, "velocity": 64}, {"time": 720, "pitch": 78, "duration": 8, "velocity": 64}, {"time": 728, "pitch": 81, "duration": 8, "velocity": 64}, {"time": 736, "pitch": 73, "duration": 8, "velocity": 64}, {"time": 744, "pitch": 73, "duration": 8, "velocity": 64}, {"time": 752, "pitch": 81, "duration": 8, "velocity": 64}, {"time": 760, "pitch": 77, "duration": 8, "velocity": 64}, {"time": 768, "pitch": 78, "duration": 48, "velocity": 64}, {"time": 816, "pitch": 73, "duration": 48, "velocity": 64}]}]}