{"metadata": {"schema_version": "0.1", "title": "Che lu ge", "source_format": "abc"}, "resolution": 24, "tempos": [{"time": 0, "qpm": 120.0}], "key_signatures": [{"time": 0, "root": 5, "mode": "major", "fifths": -1}], "time_signatures": [{"time": 0, "numerator": 4, "denominator": 4}], "tracks": [{"program": 0, "is_drum": false, "notes": [{"time": 0, "pitch": 60, "duration": 24, "velocity": 64}, {"time": 24, "pitch": 62, "duration": 24, "velocity": 64}, {"time": 48, "pitch": 60, "duration": 72, "velocity": 64}, {"time": 120, "pitch": 57, "duration": 24, "velocity": 64}, {"time": 144, "pitch": 60, "duration": 12, "velocity": 64}, {"time": 156, "pitch": 67, "duration": 12, "velocity": 64}, {"time": 168, "pitch": 65, "duration": 108, "velocity": 64}, {"time": 276, "pitch": 62, "duration": 12, "velocity": 64}, {"time": 312, "pitch": 65, "duration": 18, "velocity": 64}, {"time": 330, "pitch": 65, "duration": 3, "velocity": 64}, {"time": 333, "pitch": 72, "duration": 96, "velocity": 64}, {"time": 429, "pitch": 70, "duration": 36, "velocity": 64}, {"time": 465, "pitch": 69, "duration": 12, "velocity": 64}, {"time": 477, "pitch": 69, "duration": 18, "velocity": 64}, {"time": 495, "pitch": 67, "duration": 6, "velocity": 64}, {"time": 501, "pitch": 65, "duration": 48, "velocity": 64}, {"time": 549, "pitch": 67, "duration": 6, "velocity": 64}, {"time": 555, "pitch": 65, "duration": 6, "velocity": 64}, {"time": 561, "pitch": 62, "duration": 12, "velocity": 64}, {"time": 621, "pitch": 65, "duration": 24, "velocity": 64}, {"time": 645, "pitch": 74, "duration": 9, "velocity": 64}, {"time": 654, "pitch": 72, "duration": 3, "velocity": 64}, {"time": 657, "pitch": 70, "duration": 12, "velocity": 64}, {"time": 669, "pitch": 74, "duration": 12, "velocity": 64}, {"time": 681, "pitch": 72, "duration": 96, "velocity": 64}, {"time": 777, "pitch": 69, "duration": 6, "velocity": 64}, {"time": 783, "pitch": 67, "duration": 42, "velocity": 64}, {"time": 825, "pitch": 69, "duration": 12, "velocity": 64}, {"time": 837, "pitch": 65, "duration": 6, "velocity": 64}, {"time": 843, "pitch": 62, "duration": 6, "velocity": 64}, {"time": 873, "pitch": 72, "duration": 6, "velocity": 64}, {"time": 879, "pitch": 69, "duration": 18, "velocity": 64}, {"time": 897, "pitch": 69, "duration": 12, "velocity": 64}, {"time": 909, "pitch": 69, "duration": 12, "velocity": 64}, {"time": 921, "pitch": 67, "duration": 6, "velocity": 64}, {"time": 927, "pitch": 65, "duration": 6, "velocity": 64}, {"time": 933, "pitch": 62, "duration": 12, "velocity": 64}, {"time": 969, "pitch": 72, "duration": 6, "velocity": 64}, {"time": 975, "pitch": 69, "duration": 18, "velocity": 64}, {"time": 993, "pitch": 69, "duration": 6, "velocity": 64}, {"time": 999, "pitch": 67, "duration": 6, "velocity": 64}, {"time": 1005, "pitch": 69, "duration": 12, "velocity": 64}, {"time": 1017, "pitch": 67, "duration": 6, "velocity": 64}, {"time": 1023, "pitch": 65, "duration": 6, "velocity": 64}, {"time": 1029, "pitch": 62, "duration": 12, "velocity": 64}, {"time": 1065, "pitch": 72, "duration": 6, "velocity": 64}, {"time": 1071, "pitch": 69, "duration": 18, "velocity": 64}, {"time": 1089, "pitch": 69, "duration": 12, "velocity": 64}, {"time": 1101, "pitch": 69, "duration": 12, "velocity": 64}, {"time": 1113, "pitch": 67, "duration": 6, "velocity": 64}, {"time": 1119, "pitch": 65, "duration": 6, "velocity": 64}, {"time": 1125, "pitch": 62, "duration": 12, "velocity": 64}, {"time": 1161, "pitch": 67, "duration": 24, "velocity": 64}, {"time": 1185, "pitch": 65, "duration": 84, "velocity": 64}, {"time": 1269, "pitch": 60, "duration": 96, "velocity": 64}, {"time": 1365, "pitch": 65, "duration": 96, "velocity": 64}]}]}