{"metadata": {"schema_version": "0.1", "title": "Sanyue li lai hao fengguang", "source_format": "abc"}, "resolution": 24, "tempos": [{"time": 0, "qpm": 120.0}], "key_signatures": [{"time": 0, "root": 4, "mode": "major", "fifths": 4}], "time_signatures": [{"time": 0, "numerator": 2, "denominator": 4}], "beats": [{"time": 0, "is_downbeat": true}, {"time": 24, "is_downbeat": false}, {"time": 48, "is_downbeat": true}, {"time": 72, "is_downbeat": false}, {"time": 96, "is_downbeat": true}, {"time": 120, "is_downbeat": false}, {"time": 144, "is_downbeat": true}, {"time": 168, "is_downbeat": false}, {"time": 192, "is_downbeat": true}, {"time": 216, "is_downbeat": false}, {"time": 240, "is_downbeat": true}, {"time": 264, "is_downbeat": false}, {"time": 288, "is_downbeat": true}, {"time": 312, "is_downbeat": false}, {"time": 336, "is_downbeat": true}, {"time": 360, "is_downbeat": false}, {"time": 384, "is_downbeat": true}, {"time": 408, "is_downbeat": false}, {"time": 432, "is_downbeat": true}, {"time": 456, "is_downbeat": false}, {"time": 480, "is_downbeat": true}, {"time": 504, "is_downbeat": false}, {"time": 528, "is_downbeat": true}, {"time": 552, "is_downbeat": false}, {"time": 576, "is_downbeat": true}, {"time": 600, "is_downbeat": false}, {"time": 624, "is_downbeat": true}, {"time": 648, "is_downbeat": false}, {"time": 672, "is_downbeat": true}, {"time": 696, "is_downbeat": false}, {"time": 720, "is_downbeat": true}, {"time": 744, "is_downbeat": false}, {"time": 768, "is_downbeat": true}, {"time": 792, "is_downbeat": false}, {"time": 816, "is_downbeat": true}, {"time": 840, "is_downbeat": false}, {"time": 864, "is_downbeat": true}, {"time": 888, "is_downbeat": false}, {"time": 912, "is_downbeat": true}, {"time": 936, "is_downbeat": false}, {"time": 960, "is_downbeat": true}, {"time": 984, "is_downbeat": false}, {"time": 1008, "is_downbeat": true}, {"time": 1032, "is_downbeat": false}, {"time": 1056, "is_downbeat": true}, {"time": 1080, "is_downbeat": false}, {"time": 1104, "is_downbeat": true}, {"time": 1128, "is_downbeat": false}], "tracks": [{"program": 0, "is_drum": false, "notes": [{"time": 0, "pitch": 68, "duration": 12, "velocity": 64}, {"time": 12, "pitch": 73, "duration": 36, "velocity": 64}, {"time": 48, "pitch": 68, "duration": 12, "velocity": 64}, {"time": 60, "pitch": 73, "duration": 24, "velocity": 64}, {"time": 84, "pitch": 68, "duration": 12, "velocity": 64}, {"time": 96, "pitch": 65, "duration": 6, "velocity": 64}, {"time": 102, "pitch": 68, "duration": 6, "velocity": 64}, {"time": 108, "pitch": 68, "duration": 6, "velocity": 64}, {"time": 114, "pitch": 64, "duration": 6, "velocity": 64}, {"time": 120, "pitch": 61, "duration": 24, "velocity": 64}, {"time": 144, "pitch": 68, "duration": 12, "velocity": 64}, {"time": 156, "pitch": 73, "duration": 12, "velocity": 64}, {"time": 168, "pitch": 73, "duration": 12, "velocity": 64}, {"time": 180, "pitch": 68, "duration": 12, "velocity": 64}, {"time": 192, "pitch": 61, "duration": 12, "velocity": 64}, {"time": 204, "pitch": 64, "duration": 24, "velocity": 64}, {"time": 228, "pitch": 68, "duration": 6, "velocity": 64}, {"time": 234, "pitch": 64, "duration": 6, "velocity": 64}, {"time": 240, "pitch": 61, "duration": 36, "velocity": 64}, {"time": 288, "pitch": 68, "duration": 18, "velocity": 64}, {"time": 306, "pitch": 73, "duration": 6, "velocity": 64}, {"time": 312, "pitch": 73, "duration": 12, "velocity": 64}, {"time": 324, "pitch": 68, "duration": 12, "velocity": 64}, {"time": 336, "pitch": 61, "duration": 12, "velocity": 64}, {"time": 348, "pitch": 64, "duration": 24, "velocity": 64}, {"time": 372, "pitch": 68, "duration": 12, "velocity": 64}, {"time": 384, "pitch": 73, "duration": 12, "velocity": 64}, {"time": 396, "pitch": 73, "duration": 6, "velocity": 64}, {"time": 402, "pitch": 76, "duration": 6, "velocity": 64}, {"time": 408, "pitch": 73, "duration": 12, "velocity": 64}, {"time": 432, "pitch": 73, "duration": 12, "velocity": 64}, {"time": 444, "pitch": 68, "duration": 12, "velocity": 64}, {"time": 456, "pitch": 73, "duration": 6, "velocity": 64}, {"time": 462, "pitch": 76, "duration": 6, "velocity": 64}, {"time": 468, "pitch": 80, "duration": 12, "velocity": 64}, {"time": 480, "pitch": 72, "duration": 12, "velocity": 64}, {"time": 492, "pitch": 73, "duration": 24, "velocity": 64}, {"time": 516, "pitch": 71, "duration": 12, "velocity": 64}, {"time": 528, "pitch": 68, "duration": 36, "velocity": 64}, {"time": 576, "pitch": 73, "duration": 12, "velocity": 64}, {"time": 588, "pitch": 68, "duration": 12, "velocity": 64}, {"time": 600, "pitch": 73, "duration": 18, "velocity": 64}, {"time": 618, "pitch": 68, "duration": 6, "velocity": 64}, {"time": 624, "pitch": 73, "duration": 12, "velocity": 64}, {"time": 636, "pitch": 73, "duration": 24, "velocity": 64}, {"time": 660, "pitch": 68, "duration": 12, "velocity": 64}, {"time": 672, "pitch": 68, "duration": 12, "velocity": 64}, {"time": 684, "pitch": 65, "duration": 6, "velocity": 64}, {"time": 690, "pitch": 68, "duration": 6, "velocity": 64}, {"time": 696, "pitch": 61, "duration": 24, "velocity": 64}, {"time": 720, "pitch": 68, "duration": 12, "velocity": 64}, {"time": 732, "pitch": 73, "duration": 12, "velocity": 64}, {"time": 744, "pitch": 73, "duration": 12, "velocity": 64}, {"time": 756, "pitch": 68, "duration": 12, "velocity": 64}, {"time": 768, "pitch": 61, "duration": 12, "velocity": 64}, {"time": 780, "pitch": 64, "duration": 24, "velocity": 64}, {"time": 804, "pitch": 68, "duration": 6, "velocity": 64}, {"time": 810, "pitch": 64, "duration": 6, "velocity": 64}, {"time": 816, "pitch": 61, "duration": 48, "velocity": 64}, {"time": 864, "pitch": 68, "duration": 18, "velocity": 64}, {"time": 882, "pitch": 73, "duration": 6, "velocity": 64}, {"time": 888, "pitch": 73, "duration": 12, "velocity": 64}, {"time": 900, "pitch": 68, "duration": 12, "velocity": 64}, {"time": 912, "pitch": 61, "duration": 12, "velocity": 64}, {"time": 924, "pitch": 64, "duration": 24, "velocity": 64}, {"time": 948, "pitch": 68, "duration": 12, "velocity": 64}, {"time": 960, "pitch": 73, "duration": 12, "velocity": 64}, {"time": 972, "pitch": 73, "duration": 6, "velocity": 64}, {"time": 978, "pitch": 76, "duration": 6, "velocity": 64}, {"time": 984, "pitch": 73, "duration": 12, "velocity": 64}, {"time": 1008, "pitch": 73, "duration": 12, "velocity": 64}, {"time": 1020, "pitch": 68, "duration": 12, "velocity": 64}, {"time": 1032, "pitch": 73, "duration": 6, "velocity": 64}, {"time": 1038, "pitch": 76, "duration": 6, "velocity": 64}, {"time": 1044, "pitch": 80, "duration": 12, "velocity": 64}, {"time": 1056, "pitch": 72, "duration": 12, "velocity": 64}, {"time": 1068, "pitch": 73, "duration": 24, "velocity": 64}, {"time": 1092, "pitch": 71, "duration": 12, "velocity": 64}, {"time": 1104, "pitch": 68, "duration": 36, "velocity": 64}]}]}