{"metadata": {"schema_version": "0.1", "title": "Sheng jizi jiao ming", "source_format": "abc"}, "resolution": 24, "tempos": [{"time": 0, "qpm": 120.0}], "key_signatures": [{"time": 0, "root": 10, "mode": "major", "fifths": -2}], "time_signatures": [{"time": 0, "numerator": 2, "denominator": 4}], "beats": [{"time": 0, "is_downbeat": true}, {"time": 24, "is_downbeat": true}, {"time": 48, "is_downbeat": false}, {"time": 72, "is_downbeat": true}, {"time": 96, "is_downbeat": false}, {"time": 120, "is_downbeat": true}, {"time": 144, "is_downbeat": false}, {"time": 168, "is_downbeat": true}, {"time": 192, "is_downbeat": false}, {"time": 216, "is_downbeat": true}, {"time": 240, "is_downbeat": false}, {"time": 264, "is_downbeat": true}, {"time": 288, "is_downbeat": false}, {"time": 312, "is_downbeat": true}, {"time": 336, "is_downbeat": false}, {"time": 360, "is_downbeat": true}, {"time": 384, "is_downbeat": false}, {"time": 408, "is_downbeat": true}, {"time": 432, "is_downbeat": false}, {"time": 456, "is_downbeat": true}, {"time": 480, "is_downbeat": false}, {"time": 504, "is_downbeat": true}, {"time": 528, "is_downbeat": false}, {"time": 552, "is_downbeat": true}, {"time": 576, "is_downbeat": false}, {"time": 600, "is_downbeat": true}, {"time": 624, "is_downbeat": false}, {"time": 648, "is_downbeat": true}, {"time": 672, "is_downbeat": false}, {"time": 696, "is_downbeat": true}, {"time": 720, "is_downbeat": false}, {"time": 744, "is_downbeat": true}, {"time": 768, "is_downbeat": false}, {"time": 792, "is_downbeat": true}, {"time": 816, "is_downbeat": false}, {"time": 840, "is_downbeat": true}, {"time": 864, "is_downbeat": false}, {"time": 888, "is_downbeat": true}, {"time": 912, "is_downbeat": false}, {"time": 936, "is_downbeat": true}, {"time": 960, "is_downbeat": false}, {"time": 984, "is_downbeat": true}, {"time": 1008, "is_downbeat": false}, {"time": 1032, "is_downbeat": true}, {"time": 1056, "is_downbeat": false}, {"time": 1080, "is_downbeat": true}, {"time": 1104, "is_downbeat": false}], "tracks": [{"program": 0, "is_drum": false, "notes": [{"time": 12, "pitch": 77, "duration": 12, "velocity": 64}, {"time": 24, "pitch": 77, "duration": 12, "velocity": 64}, {"time": 36, "pitch": 77, "duration": 24, "velocity": 64}, {"time": 60, "pitch": 72, "duration": 12, "velocity": 64}, {"time": 72, "pitch": 75, "duration": 36, "velocity": 64}, {"time": 108, "pitch": 72, "duration": 12, "velocity": 64}, {"time": 120, "pitch": 77, "duration": 12, "velocity": 64}, {"time": 132, "pitch": 77, "duration": 24, "velocity": 64}, {"time": 156, "pitch": 72, "duration": 12, "velocity": 64}, {"time": 168, "pitch": 82, "duration": 36, "velocity": 64}, {"time": 204, "pitch": 79, "duration": 12, "velocity": 64}, {"time": 216, "pitch": 77, "duration": 36, "velocity": 64}, {"time": 252, "pitch": 77, "duration": 12, "velocity": 64}, {"time": 264, "pitch": 77, "duration": 12, "velocity": 64}, {"time": 276, "pitch": 77, "duration": 24, "velocity": 64}, {"time": 300, "pitch": 72, "duration": 12, "velocity": 64}, {"time": 312, "pitch": 75, "duration": 36, "velocity": 64}, {"time": 348, "pitch": 72, "duration": 12, "velocity": 64}, {"time": 360, "pitch": 77, "duration": 12, "velocity": 64}, {"time": 372, "pitch": 77, "duration": 24, "velocity": 64}, {"time": 396, "pitch": 72, "duration": 12, "velocity": 64}, {"time": 408, "pitch": 82, "duration": 36, "velocity": 64}, {"time": 444, "pitch": 79, "duration": 12, "velocity": 64}, {"time": 456, "pitch": 77, "duration": 36, "velocity": 64}, {"time": 492, "pitch": 77, "duration": 12, "velocity": 64}, {"time": 504, "pitch": 72, "duration": 18, "velocity": 64}, {"time": 522, "pitch": 77, "duration": 6, "velocity": 64}, {"time": 528, "pitch": 72, "duration": 12, "velocity": 64}, {"time": 540, "pitch": 82, "duration": 12, "velocity": 64}, {"time": 552, "pitch": 72, "duration": 18, "velocity": 64}, {"time": 570, "pitch": 77, "duration": 6, "velocity": 64}, {"time": 576, "pitch": 72, "duration": 12, "velocity": 64}, {"time": 588, "pitch": 82, "duration": 12, "velocity": 64}, {"time": 600, "pitch": 79, "duration": 12, "velocity": 64}, {"time": 612, "pitch": 77, "duration": 6, "velocity": 64}, {"time": 618, "pitch": 77, "duration": 6, "velocity": 64}, {"time": 624, "pitch": 82, "duration": 12, "velocity": 64}, {"time": 636, "pitch": 77, "duration": 12, "velocity": 64}, {"time": 648, "pitch": 81, "duration": 36, "velocity": 64}, {"time": 684, "pitch": 77, "duration": 12, "velocity": 64}, {"time": 696, "pitch": 72, "duration": 18, "velocity": 64}, {"time": 714, "pitch": 77, "duration": 6, "velocity": 64}, {"time": 720, "pitch": 72, "duration": 12, "velocity": 64}, {"time": 732, "pitch": 82, "duration": 12, "velocity": 64}, {"time": 744, "pitch": 72, "duration": 18, "velocity": 64}, {"time": 762, "pitch": 77, "duration": 6, "velocity": 64}, {"time": 768, "pitch": 72, "duration": 12, "velocity": 64}, {"time": 780, "pitch": 82, "duration": 12, "velocity": 64}, {"time": 792, "pitch": 79, "duration": 12, "velocity": 64}, {"time": 804, "pitch": 77, "duration": 6, "velocity": 64}, {"time": 810, "pitch": 77, "duration": 6, "velocity": 64}, {"time": 816, "pitch": 82, "duration": 12, "velocity": 64}, {"time": 828, "pitch": 77, "duration": 12, "velocity": 64}, {"time": 840, "pitch": 81, "duration": 36, "velocity": 64}, {"time": 876, "pitch": 77, "duration": 12, "velocity": 64}, {"time": 888, "pitch": 77, "duration": 12, "velocity": 64}, {"time": 900, "pitch": 77, "duration": 24, "velocity": 64}, {"time": 924, "pitch": 72, "duration": 12, "velocity": 64}, {"time": 936, "pitch": 75, "duration": 36, "velocity": 64}, {"time": 972, "pitch": 72, "duration": 12, "velocity": 64}, {"time": 984, "pitch": 77, "duration": 12, "velocity": 64}, {"time": 996, "pitch": 77, "duration": 24, "velocity": 64}, {"time": 1020, "pitch": 72, "duration": 12, "velocity": 64}, {"time": 1032, "pitch": 82, "duration": 36, "velocity": 64}, {"time": 1068, "pitch": 79, "duration": 12, "velocity": 64}, {"time": 1080, "pitch": 77, "duration": 36, "velocity": 64}]}]}