{"metadata": {"schema_version": "0.1", "title": "Kaihua diao   , vgl. Kopie)", "source_format": "abc"}, "resolution": 24, "tempos": [{"time": 0, "qpm": 120.0}], "key_signatures": [{"time": 0, "root": 9, "mode": "major", "fifths": 3}], "time_signatures": [{"time": 0, "numerator": 2, "denominator": 4}], "beats": [{"time": 0, "is_downbeat": true}, {"time": 24, "is_downbeat": false}, {"time": 48, "is_downbeat": true}, {"time": 72, "is_downbeat": false}, {"time": 96, "is_downbeat": true}, {"time": 120, "is_downbeat": false}, {"time": 144, "is_downbeat": true}, {"time": 168, "is_downbeat": false}, {"time": 192, "is_downbeat": true}, {"time": 216, "is_downbeat": false}, {"time": 240, "is_downbeat": true}, {"time": 264, "is_downbeat": false}, {"time": 288, "is_downbeat": true}, {"time": 312, "is_downbeat": false}, {"time": 336, "is_downbeat": true}, {"time": 360, "is_downbeat": false}], "tracks": [{"program": 0, "is_drum": false, "notes": [{"time": 0, "pitch": 83, "duration": 12, "velocity": 64}, {"time": 12, "pitch": 83, "duration": 6, "velocity": 64}, {"time": 18, "pitch": 83, "duration": 6, "velocity": 64}, {"time": 24, "pitch": 81, "duration": 12, "velocity": 64}, {"time": 36, "pitch": 83, "duration": 12, "velocity": 64}, {"time": 48, "pitch": 76, "duration": 24, "velocity": 64}, {"time": 72, "pitch": 81, "duration": 18, "velocity": 64}, {"time": 90, "pitch": 73, "duration": 6, "velocity": 64}, {"time": 96, "pitch": 83, "duration": 12, "velocity": 64}, {"time": 108, "pitch": 83, "duration": 6, "velocity": 64}, {"time": 114, "pitch": 83, "duration": 6, "velocity": 64}, {"time": 120, "pitch": 81, "duration": 12, "velocity": 64}, {"time": 132, "pitch": 80, "duration": 12, "velocity": 64}, {"time": 144, "pitch": 78, "duration": 12, "velocity": 64}, {"time": 156, "pitch": 76, "duration": 36, "velocity": 64}, {"time": 192, "pitch": 81, "duration": 18, "velocity": 64}, {"time": 210, "pitch": 83, "duration": 6, "velocity": 64}, {"time": 216, "pitch": 73, "duration": 12, "velocity": 64}, {"time": 228, "pitch": 73, "duration": 12, "velocity": 64}, {"time": 240, "pitch": 83, "duration": 12, "velocity": 64}, {"time": 252, "pitch": 73, "duration": 6, "velocity": 64}, {"time": 258, "pitch": 83, "duration": 6, "velocity": 64}, {"time": 264, "pitch": 81, "duration": 18, "velocity": 64}, {"time": 282, "pitch": 81, "duration": 6, "velocity": 64}, {"time": 288, "pitch": 73, "duration": 6, "velocity": 64}, {"time": 294, "pitch": 76, "duration": 12, "velocity": 64}, {"time": 306, "pitch": 78, "duration": 6, "velocity": 64}, {"time": 312, "pitch": 80, "duration": 6, "velocity": 64}, {"time": 318, "pitch": 83, "duration": 6, "velocity": 64}, {"time": 324, "pitch": 80, "duration": 12, "velocity": 64}, {"time": 336, "pitch": 78, "duration": 12, "velocity": 64}, {"time": 348, "pitch": 76, "duration": 36, "velocity": 64}]}]}