{"metadata": {"schema_version": "0.1", "title": "Dui hua I", "source_format": "abc"}, "resolution": 24, "tempos": [{"time": 0, "qpm": 120.0}], "key_signatures": [{"time": 0, "root": 10, "mode": "major", "fifths": -2}], "time_signatures": [{"time": 0, "numerator": 2, "denominator": 4}], "beats": [{"time": 0, "is_downbeat": true}, {"time": 24, "is_downbeat": false}, {"time": 48, "is_downbeat": true}, {"time": 72, "is_downbeat": false}, {"time": 96, "is_downbeat": true}, {"time": 120, "is_downbeat": false}, {"time": 144, "is_downbeat": true}, {"time": 168, "is_downbeat": false}, {"time": 192, "is_downbeat": true}, {"time": 216, "is_downbeat": false}, {"time": 240, "is_downbeat": true}, {"time": 264, "is_downbeat": false}, {"time": 288, "is_downbeat": true}, {"time": 312, "is_downbeat": false}, {"time": 336, "is_downbeat": true}, {"time": 360, "is_downbeat": false}, {"time": 384, "is_downbeat": true}, {"time": 408, "is_downbeat": false}, {"time": 432, "is_downbeat": true}, {"time": 456, "is_downbeat": false}, {"time": 480, "is_downbeat": true}, {"time": 504, "is_downbeat": false}, {"time": 528, "is_downbeat": true}, {"time": 552, "is_downbeat": false}, {"time": 576, "is_downbeat": true}, {"time": 600, "is_downbeat": false}, {"time": 624, "is_downbeat": true}, {"time": 648, "is_downbeat": false}, {"time": 672, "is_downbeat": true}, {"time": 696, "is_downbeat": false}, {"time": 720, "is_downbeat": true}, {"time": 744, "is_downbeat": false}, {"time": 768, "is_downbeat": true}, {"time": 792, "is_downbeat": false}, {"time": 816, "is_downbeat": true}, {"time": 840, "is_downbeat": false}, {"time": 864, "is_downbeat": true}, {"time": 888, "is_downbeat": false}, {"time": 912, "is_downbeat": true}, {"time": 936, "is_downbeat": false}, {"time": 960, "is_downbeat": true}, {"time": 984, "is_downbeat": false}, {"time": 1008, "is_downbeat": true}, {"time": 1032, "is_downbeat": false}, {"time": 1056, "is_downbeat": true}, {"time": 1080, "is_downbeat": false}, {"time": 1104, "is_downbeat": true}, {"time": 1128, "is_downbeat": false}, {"time": 1152, "is_downbeat": true}, {"time": 1176, "is_downbeat": false}, {"time": 1200, "is_downbeat": true}, {"time": 1224, "is_downbeat": false}, {"time": 1248, "is_downbeat": true}, {"time": 1272, "is_downbeat": false}, {"time": 1296, "is_downbeat": true}, {"time": 1320, "is_downbeat": false}, {"time": 1344, "is_downbeat": true}, {"time": 1368, "is_downbeat": false}, {"time": 1392, "is_downbeat": true}, {"time": 1416, "is_downbeat": false}, {"time": 1440, "is_downbeat": true}, {"time": 1464, "is_downbeat": false}, {"time": 1488, "is_downbeat": true}, {"time": 1512, "is_downbeat": false}, {"time": 1536, "is_downbeat": true}, {"time": 1560, "is_downbeat": false}, {"time": 1584, "is_downbeat": true}, {"time": 1608, "is_downbeat": false}, {"time": 1632, "is_downbeat": true}, {"time": 1656, "is_downbeat": false}, {"time": 1680, "is_downbeat": true}, {"time": 1704, "is_downbeat": false}, {"time": 1728, "is_downbeat": true}, {"time": 1752, "is_downbeat": false}, {"time": 1776, "is_downbeat": true}, {"time": 1800, "is_downbeat": false}, {"time": 1824, "is_downbeat": true}, {"time": 1848, "is_downbeat": false}, {"time": 1872, "is_downbeat": true}, {"time": 1896, "is_downbeat": false}, {"time": 1920, "is_downbeat": true}, {"time": 1944, "is_downbeat": false}, {"time": 1968, "is_downbeat": true}, {"time": 1992, "is_downbeat": false}, {"time": 2016, "is_downbeat": true}, {"time": 2040, "is_downbeat": false}, {"time": 2064, "is_downbeat": true}, {"time": 2088, "is_downbeat": false}, {"time": 2112, "is_downbeat": true}, {"time": 2136, "is_downbeat": false}, {"time": 2160, "is_downbeat": true}, {"time": 2184, "is_downbeat": false}, {"time": 2208, "is_downbeat": true}, {"time": 2232, "is_downbeat": false}, {"time": 2256, "is_downbeat": true}, {"time": 2280, "is_downbeat": false}, {"time": 2304, "is_downbeat": true}, {"time": 2328, "is_downbeat": false}, {"time": 2352, "is_downbeat": true}, {"time": 2376, "is_downbeat": false}, {"time": 2400, "is_downbeat": true}, {"time": 2424, "is_downbeat": false}, {"time": 2448, "is_downbeat": true}, {"time": 2472, "is_downbeat": false}, {"time": 2496, "is_downbeat": true}, {"time": 2520, "is_downbeat": false}, {"time": 2544, "is_downbeat": true}, {"time": 2568, "is_downbeat": false}, {"time": 2592, "is_downbeat": true}, {"time": 2616, "is_downbeat": false}, {"time": 2640, "is_downbeat": true}, {"time": 2664, "is_downbeat": false}, {"time": 2688, "is_downbeat": true}, {"time": 2712, "is_downbeat": false}, {"time": 2736, "is_downbeat": true}, {"time": 2760, "is_downbeat": false}, {"time": 2784, "is_downbeat": true}, {"time": 2808, "is_downbeat": false}, {"time": 2832, "is_downbeat": true}, {"time": 2856, "is_downbeat": false}, {"time": 2880, "is_downbeat": true}, {"time": 2904, "is_downbeat": false}, {"time": 2928, "is_downbeat": true}, {"time": 2952, "is_downbeat": false}, {"time": 2976, "is_downbeat": true}, {"time": 3000, "is_downbeat": false}, {"time": 3024, "is_downbeat": true}, {"time": 3048, "is_downbeat": false}, {"time": 3072, "is_downbeat": true}, {"time": 3096, "is_downbeat": false}, {"time": 3120, "is_downbeat": true}, {"time": 3144, "is_downbeat": false}, {"time": 3168, "is_downbeat": true}, {"time": 3192, "is_downbeat": false}, {"time": 3216, "is_downbeat": true}, {"time": 3240, "is_downbeat": false}, {"time": 3264, "is_downbeat": true}, {"time": 3288, "is_downbeat": false}, {"time": 3312, "is_downbeat": true}, {"time": 3336, "is_downbeat": false}, {"time": 3360, "is_downbeat": true}, {"time": 3384, "is_downbeat": false}, {"time": 3408, "is_downbeat": true}, {"time": 3432, "is_downbeat": false}, {"time": 3456, "is_downbeat": true}, {"time": 3480, "is_downbeat": false}, {"time": 3504, "is_downbeat": true}, {"time": 3528, "is_downbeat": false}, {"time": 3552, "is_downbeat": true}, {"time": 3576, "is_downbeat": false}, {"time": 3600, "is_downbeat": true}, {"time": 3624, "is_downbeat": false}, {"time": 3648, "is_downbeat": true}, {"time": 3672, "is_downbeat": false}, {"time": 3696, "is_downbeat": true}, {"time": 3720, "is_downbeat": false}], "tracks": [{"program": 0, "is_drum": false, "notes": [{"time": 0, "pitch": 72, "duration": 12, "velocity": 64}, {"time": 12, "pitch": 72, "duration": 12, "velocity": 64}, {"time": 24, "pitch": 77, "duration": 12, "velocity": 64}, {"time": 36, "pitch": 77, "duration": 6, "velocity": 64}, {"time": 42, "pitch": 74, "duration": 6, "velocity": 64}, {"time": 48, "pitch": 72, "duration": 12, "velocity": 64}, {"time": 60, "pitch": 74, "duration": 6, "velocity": 64}, {"time": 66, "pitch": 72, "duration": 6, "velocity": 64}, {"time": 72, "pitch": 82, "duration": 24, "velocity": 64}, {"time": 96, "pitch": 74, "duration": 12, "velocity": 64}, {"time": 108, "pitch": 74, "duration": 6, "velocity": 64}, {"time": 114, "pitch": 72, "duration": 6, "velocity": 64}, {"time": 120, "pitch": 82, "duration": 12, "velocity": 64}, {"time": 132, "pitch": 82, "duration": 6, "velocity": 64}, {"time": 138, "pitch": 72, "duration": 6, "velocity": 64}, {"time": 144, "pitch": 79, "duration": 12, "velocity": 64}, {"time": 156, "pitch": 77, "duration": 36, "velocity": 64}, {"time": 192, "pitch": 82, "duration": 18, "velocity": 64}, {"time": 210, "pitch": 82, "duration": 6, "velocity": 64}, {"time": 216, "pitch": 74, "duration": 12, "velocity": 64}, {"time": 228, "pitch": 77, "duration": 12, "velocity": 64}, {"time": 240, "pitch": 79, "duration": 12, "velocity": 64}, {"time": 252, "pitch": 79, "duration": 6, "velocity": 64}, {"time": 258, "pitch": 77, "duration": 6, "velocity": 64}, {"time": 264, "pitch": 79, "duration": 24, "velocity": 64}, {"time": 288, "pitch": 72, "duration": 12, "velocity": 64}, {"time": 300, "pitch": 79, "duration": 12, "velocity": 64}, {"time": 312, "pitch": 82, "duration": 12, "velocity": 64}, {"time": 324, "pitch": 72, "duration": 12, "velocity": 64}, {"time": 336, "pitch": 79, "duration": 12, "velocity": 64}, {"time": 348, "pitch": 77, "duration": 36, "velocity": 64}, {"time": 384, "pitch": 77, "duration": 6, "velocity": 64}, {"time": 390, "pitch": 79, "duration": 6, "velocity": 64}, {"time": 396, "pitch": 77, "duration": 6, "velocity": 64}, {"time": 402, "pitch": 74, "duration": 6, "velocity": 64}, {"time": 408, "pitch": 72, "duration": 12, "velocity": 64}, {"time": 420, "pitch": 74, "duration": 6, "velocity": 64}, {"time": 426, "pitch": 77, "duration": 6, "velocity": 64}, {"time": 432, "pitch": 74, "duration": 12, "velocity": 64}, {"time": 444, "pitch": 74, "duration": 6, "velocity": 64}, {"time": 450, "pitch": 72, "duration": 6, "velocity": 64}, {"time": 456, "pitch": 82, "duration": 24, "velocity": 64}, {"time": 480, "pitch": 74, "duration": 12, "velocity": 64}, {"time": 492, "pitch": 74, "duration": 6, "velocity": 64}, {"time": 498, "pitch": 72, "duration": 6, "velocity": 64}, {"time": 504, "pitch": 82, "duration": 12, "velocity": 64}, {"time": 516, "pitch": 72, "duration": 12, "velocity": 64}, {"time": 528, "pitch": 79, "duration": 12, "velocity": 64}, {"time": 540, "pitch": 77, "duration": 36, "velocity": 64}, {"time": 576, "pitch": 82, "duration": 18, "velocity": 64}, {"time": 594, "pitch": 82, "duration": 6, "velocity": 64}, {"time": 600, "pitch": 74, "duration": 12, "velocity": 64}, {"time": 612, "pitch": 77, "duration": 12, "velocity": 64}, {"time": 624, "pitch": 79, "duration": 12, "velocity": 64}, {"time": 636, "pitch": 79, "duration": 6, "velocity": 64}, {"time": 642, "pitch": 77, "duration": 6, "velocity": 64}, {"time": 648, "pitch": 79, "duration": 24, "velocity": 64}, {"time": 672, "pitch": 72, "duration": 12, "velocity": 64}, {"time": 684, "pitch": 79, "duration": 12, "velocity": 64}, {"time": 696, "pitch": 82, "duration": 12, "velocity": 64}, {"time": 708, "pitch": 72, "duration": 12, "velocity": 64}, {"time": 720, "pitch": 79, "duration": 12, "velocity": 64}, {"time": 732, "pitch": 77, "duration": 36, "velocity": 64}, {"time": 768, "pitch": 77, "duration": 24, "velocity": 64}, {"time": 792, "pitch": 74, "duration": 18, "velocity": 64}, {"time": 810, "pitch": 77, "duration": 6, "velocity": 64}, {"time": 816, "pitch": 79, "duration": 12, "velocity": 64}, {"time": 828, "pitch": 79, "duration": 6, "velocity": 64}, {"time": 834, "pitch": 74, "duration": 6, "velocity": 64}, {"time": 840, "pitch": 77, "duration": 24, "velocity": 64}, {"time": 864, "pitch": 77, "duration": 18, "velocity": 64}, {"time": 882, "pitch": 79, "duration": 6, "velocity": 64}, {"time": 888, "pitch": 74, "duration": 12, "velocity": 64}, {"time": 900, "pitch": 72, "duration": 12, "velocity": 64}, {"time": 912, "pitch": 72, "duration": 6, "velocity": 64}, {"time": 918, "pitch": 74, "duration": 6, "velocity": 64}, {"time": 924, "pitch": 82, "duration": 36, "velocity": 64}, {"time": 960, "pitch": 74, "duration": 12, "velocity": 64}, {"time": 972, "pitch": 72, "duration": 6, "velocity": 64}, {"time": 978, "pitch": 74, "duration": 6, "velocity": 64}, {"time": 984, "pitch": 77, "duration": 18, "velocity": 64}, {"time": 1002, "pitch": 74, "duration": 6, "velocity": 64}, {"time": 1008, "pitch": 72, "duration": 12, "velocity": 64}, {"time": 1020, "pitch": 72, "duration": 6, "velocity": 64}, {"time": 1026, "pitch": 79, "duration": 6, "velocity": 64}, {"time": 1032, "pitch": 82, "duration": 24, "velocity": 64}, {"time": 1056, "pitch": 74, "duration": 12, "velocity": 64}, {"time": 1068, "pitch": 74, "duration": 6, "velocity": 64}, {"time": 1074, "pitch": 72, "duration": 6, "velocity": 64}, {"time": 1080, "pitch": 82, "duration": 12, "velocity": 64}, {"time": 1092, "pitch": 77, "duration": 12, "velocity": 64}, {"time": 1104, "pitch": 79, "duration": 12, "velocity": 64}, {"time": 1116, "pitch": 77, "duration": 36, "velocity": 64}, {"time": 1152, "pitch": 82, "duration": 18, "velocity": 64}, {"time": 1170, "pitch": 82, "duration": 6, "velocity": 64}, {"time": 1176, "pitch": 74, "duration": 12, "velocity": 64}, {"time": 1188, "pitch": 77, "duration": 12, "velocity": 64}, {"time": 1200, "pitch": 79, "duration": 12, "velocity": 64}, {"time": 1212, "pitch": 79, "duration": 6, "velocity": 64}, {"time": 1218, "pitch": 77, "duration": 6, "velocity": 64}, {"time": 1224, "pitch": 79, "duration": 24, "velocity": 64}, {"time": 1248, "pitch": 74, "duration": 12, "velocity": 64}, {"time": 1260, "pitch": 74, "duration": 6, "velocity": 64}, {"time": 1266, "pitch": 72, "duration": 6, "velocity": 64}, {"time": 1272, "pitch": 82, "duration": 12, "velocity": 64}, {"time": 1284, "pitch": 82, "duration": 6, "velocity": 64}, {"time": 1290, "pitch": 79, "duration": 6, "velocity": 64}, {"time": 1296, "pitch": 77, "duration": 12, "velocity": 64}, {"time": 1308, "pitch": 79, "duration": 36, "velocity": 64}, {"time": 1344, "pitch": 74, "duration": 12, "velocity": 64}, {"time": 1356, "pitch": 74, "duration": 6, "velocity": 64}, {"time": 1362, "pitch": 72, "duration": 6, "velocity": 64}, {"time": 1368, "pitch": 82, "duration": 12, "velocity": 64}, {"time": 1380, "pitch": 82, "duration": 6, "velocity": 64}, {"time": 1386, "pitch": 79, "duration": 6, "velocity": 64}, {"time": 1392, "pitch": 77, "duration": 12, "velocity": 64}, {"time": 1404, "pitch": 79, "duration": 24, "velocity": 64}, {"time": 1428, "pitch": 82, "duration": 12, "velocity": 64}, {"time": 1440, "pitch": 74, "duration": 12, "velocity": 64}, {"time": 1452, "pitch": 74, "duration": 6, "velocity": 64}, {"time": 1458, "pitch": 72, "duration": 6, "velocity": 64}, {"time": 1464, "pitch": 82, "duration": 12, "velocity": 64}, {"time": 1476, "pitch": 77, "duration": 12, "velocity": 64}, {"time": 1488, "pitch": 79, "duration": 12, "velocity": 64}, {"time": 1500, "pitch": 77, "duration": 36, "velocity": 64}, {"time": 1536, "pitch": 77, "duration": 24, "velocity": 64}, {"time": 1560, "pitch": 74, "duration": 18, "velocity": 64}, {"time": 1578, "pitch": 77, "duration": 6, "velocity": 64}, {"time": 1584, "pitch": 79, "duration": 18, "velocity": 64}, {"time": 1602, "pitch": 74, "duration": 6, "velocity": 64}, {"time": 1608, "pitch": 77, "duration": 12, "velocity": 64}, {"time": 1620, "pitch": 74, "duration": 12, "velocity": 64}, {"time": 1632, "pitch": 77, "duration": 18, "velocity": 64}, {"time": 1650, "pitch": 79, "duration": 6, "velocity": 64}, {"time": 1656, "pitch": 74, "duration": 12, "velocity": 64}, {"time": 1668, "pitch": 72, "duration": 12, "velocity": 64}, {"time": 1680, "pitch": 72, "duration": 6, "velocity": 64}, {"time": 1686, "pitch": 74, "duration": 6, "velocity": 64}, {"time": 1692, "pitch": 82, "duration": 36, "velocity": 64}, {"time": 1728, "pitch": 74, "duration": 12, "velocity": 64}, {"time": 1740, "pitch": 72, "duration": 6, "velocity": 64}, {"time": 1746, "pitch": 74, "duration": 6, "velocity": 64}, {"time": 1752, "pitch": 77, "duration": 18, "velocity": 64}, {"time": 1770, "pitch": 74, "duration": 6, "velocity": 64}, {"time": 1776, "pitch": 72, "duration": 18, "velocity": 64}, {"time": 1794, "pitch": 79, "duration": 6, "velocity": 64}, {"time": 1800, "pitch": 82, "duration": 24, "velocity": 64}, {"time": 1824, "pitch": 74, "duration": 18, "velocity": 64}, {"time": 1842, "pitch": 72, "duration": 6, "velocity": 64}, {"time": 1848, "pitch": 82, "duration": 12, "velocity": 64}, {"time": 1860, "pitch": 77, "duration": 12, "velocity": 64}, {"time": 1872, "pitch": 79, "duration": 12, "velocity": 64}, {"time": 1884, "pitch": 77, "duration": 36, "velocity": 64}, {"time": 1920, "pitch": 82, "duration": 24, "velocity": 64}, {"time": 1944, "pitch": 74, "duration": 18, "velocity": 64}, {"time": 1962, "pitch": 77, "duration": 6, "velocity": 64}, {"time": 1968, "pitch": 79, "duration": 12, "velocity": 64}, {"time": 1980, "pitch": 79, "duration": 6, "velocity": 64}, {"time": 1986, "pitch": 77, "duration": 6, "velocity": 64}, {"time": 1992, "pitch": 79, "duration": 18, "velocity": 64}, {"time": 2010, "pitch": 82, "duration": 6, "velocity": 64}, {"time": 2016, "pitch": 74, "duration": 6, "velocity": 64}, {"time": 2022, "pitch": 77, "duration": 6, "velocity": 64}, {"time": 2028, "pitch": 74, "duration": 6, "velocity": 64}, {"time": 2034, "pitch": 72, "duration": 6, "velocity": 64}, {"time": 2040, "pitch": 82, "duration": 12, "velocity": 64}, {"time": 2052, "pitch": 82, "duration": 6, "velocity": 64}, {"time": 2058, "pitch": 79, "duration": 6, "velocity": 64}, {"time": 2064, "pitch": 77, "duration": 12, "velocity": 64}, {"time": 2076, "pitch": 79, "duration": 36, "velocity": 64}, {"time": 2112, "pitch": 74, "duration": 18, "velocity": 64}, {"time": 2130, "pitch": 72, "duration": 6, "velocity": 64}, {"time": 2136, "pitch": 82, "duration": 12, "velocity": 64}, {"time": 2148, "pitch": 79, "duration": 12, "velocity": 64}, {"time": 2160, "pitch": 77, "duration": 12, "velocity": 64}, {"time": 2172, "pitch": 79, "duration": 24, "velocity": 64}, {"time": 2196, "pitch": 82, "duration": 12, "velocity": 64}, {"time": 2208, "pitch": 74, "duration": 18, "velocity": 64}, {"time": 2226, "pitch": 72, "duration": 6, "velocity": 64}, {"time": 2232, "pitch": 82, "duration": 12, "velocity": 64}, {"time": 2244, "pitch": 77, "duration": 12, "velocity": 64}, {"time": 2256, "pitch": 79, "duration": 12, "velocity": 64}, {"time": 2268, "pitch": 77, "duration": 36, "velocity": 64}, {"time": 2304, "pitch": 77, "duration": 18, "velocity": 64}, {"time": 2322, "pitch": 79, "duration": 6, "velocity": 64}, {"time": 2328, "pitch": 74, "duration": 18, "velocity": 64}, {"time": 2346, "pitch": 77, "duration": 6, "velocity": 64}, {"time": 2352, "pitch": 79, "duration": 6, "velocity": 64}, {"time": 2358, "pitch": 77, "duration": 6, "velocity": 64}, {"time": 2364, "pitch": 79, "duration": 6, "velocity": 64}, {"time": 2370, "pitch": 74, "duration": 6, "velocity": 64}, {"time": 2376, "pitch": 77, "duration": 18, "velocity": 64}, {"time": 2394, "pitch": 77, "duration": 6, "velocity": 64}, {"time": 2400, "pitch": 77, "duration": 18, "velocity": 64}, {"time": 2418, "pitch": 79, "duration": 6, "velocity": 64}, {"time": 2424, "pitch": 74, "duration": 12, "velocity": 64}, {"time": 2436, "pitch": 72, "duration": 12, "velocity": 64}, {"time": 2448, "pitch": 74, "duration": 6, "velocity": 64}, {"time": 2454, "pitch": 77, "duration": 6, "velocity": 64}, {"time": 2460, "pitch": 74, "duration": 6, "velocity": 64}, {"time": 2466, "pitch": 72, "duration": 6, "velocity": 64}, {"time": 2472, "pitch": 82, "duration": 18, "velocity": 64}, {"time": 2490, "pitch": 79, "duration": 6, "velocity": 64}, {"time": 2496, "pitch": 82, "duration": 12, "velocity": 64}, {"time": 2508, "pitch": 79, "duration": 6, "velocity": 64}, {"time": 2514, "pitch": 82, "duration": 6, "velocity": 64}, {"time": 2520, "pitch": 77, "duration": 24, "velocity": 64}, {"time": 2544, "pitch": 77, "duration": 6, "velocity": 64}, {"time": 2550, "pitch": 79, "duration": 6, "velocity": 64}, {"time": 2556, "pitch": 77, "duration": 6, "velocity": 64}, {"time": 2562, "pitch": 79, "duration": 6, "velocity": 64}, {"time": 2568, "pitch": 82, "duration": 12, "velocity": 64}, {"time": 2580, "pitch": 79, "duration": 12, "velocity": 64}, {"time": 2592, "pitch": 82, "duration": 18, "velocity": 64}, {"time": 2610, "pitch": 72, "duration": 6, "velocity": 64}, {"time": 2616, "pitch": 74, "duration": 12, "velocity": 64}, {"time": 2628, "pitch": 77, "duration": 12, "velocity": 64}, {"time": 2640, "pitch": 82, "duration": 6, "velocity": 64}, {"time": 2646, "pitch": 72, "duration": 6, "velocity": 64}, {"time": 2652, "pitch": 82, "duration": 6, "velocity": 64}, {"time": 2658, "pitch": 79, "duration": 6, "velocity": 64}, {"time": 2664, "pitch": 77, "duration": 24, "velocity": 64}, {"time": 2688, "pitch": 74, "duration": 12, "velocity": 64}, {"time": 2700, "pitch": 77, "duration": 24, "velocity": 64}, {"time": 2724, "pitch": 74, "duration": 6, "velocity": 64}, {"time": 2730, "pitch": 72, "duration": 6, "velocity": 64}, {"time": 2736, "pitch": 74, "duration": 6, "velocity": 64}, {"time": 2742, "pitch": 77, "duration": 6, "velocity": 64}, {"time": 2748, "pitch": 74, "duration": 6, "velocity": 64}, {"time": 2754, "pitch": 72, "duration": 6, "velocity": 64}, {"time": 2760, "pitch": 82, "duration": 12, "velocity": 64}, {"time": 2772, "pitch": 79, "duration": 12, "velocity": 64}, {"time": 2784, "pitch": 82, "duration": 18, "velocity": 64}, {"time": 2802, "pitch": 72, "duration": 6, "velocity": 64}, {"time": 2808, "pitch": 74, "duration": 12, "velocity": 64}, {"time": 2820, "pitch": 77, "duration": 12, "velocity": 64}, {"time": 2832, "pitch": 79, "duration": 6, "velocity": 64}, {"time": 2838, "pitch": 77, "duration": 6, "velocity": 64}, {"time": 2844, "pitch": 74, "duration": 6, "velocity": 64}, {"time": 2850, "pitch": 72, "duration": 6, "velocity": 64}, {"time": 2856, "pitch": 82, "duration": 18, "velocity": 64}, {"time": 2874, "pitch": 72, "duration": 6, "velocity": 64}, {"time": 2880, "pitch": 82, "duration": 12, "velocity": 64}, {"time": 2892, "pitch": 79, "duration": 6, "velocity": 64}, {"time": 2898, "pitch": 82, "duration": 6, "velocity": 64}, {"time": 2904, "pitch": 77, "duration": 24, "velocity": 64}, {"time": 2928, "pitch": 77, "duration": 6, "velocity": 64}, {"time": 2934, "pitch": 79, "duration": 6, "velocity": 64}, {"time": 2940, "pitch": 77, "duration": 6, "velocity": 64}, {"time": 2946, "pitch": 79, "duration": 6, "velocity": 64}, {"time": 2952, "pitch": 82, "duration": 18, "velocity": 64}, {"time": 2970, "pitch": 79, "duration": 6, "velocity": 64}, {"time": 2976, "pitch": 74, "duration": 18, "velocity": 64}, {"time": 2994, "pitch": 72, "duration": 6, "velocity": 64}, {"time": 3000, "pitch": 82, "duration": 12, "velocity": 64}, {"time": 3012, "pitch": 77, "duration": 12, "velocity": 64}, {"time": 3024, "pitch": 79, "duration": 12, "velocity": 64}, {"time": 3036, "pitch": 79, "duration": 12, "velocity": 64}, {"time": 3060, "pitch": 77, "duration": 12, "velocity": 64}, {"time": 3072, "pitch": 79, "duration": 12, "velocity": 64}, {"time": 3084, "pitch": 79, "duration": 12, "velocity": 64}, {"time": 3108, "pitch": 77, "duration": 12, "velocity": 64}, {"time": 3120, "pitch": 79, "duration": 12, "velocity": 64}, {"time": 3132, "pitch": 79, "duration": 12, "velocity": 64}, {"time": 3156, "pitch": 82, "duration": 12, "velocity": 64}, {"time": 3168, "pitch": 72, "duration": 18, "velocity": 64}, {"time": 3186, "pitch": 74, "duration": 6, "velocity": 64}, {"time": 3192, "pitch": 72, "duration": 6, "velocity": 64}, {"time": 3198, "pitch": 82, "duration": 6, "velocity": 64}, {"time": 3204, "pitch": 79, "duration": 12, "velocity": 64}, {"time": 3216, "pitch": 77, "duration": 12, "velocity": 64}, {"time": 3234, "pitch": 79, "duration": 6, "velocity": 64}, {"time": 3240, "pitch": 77, "duration": 12, "velocity": 64}, {"time": 3252, "pitch": 79, "duration": 12, "velocity": 64}, {"time": 3264, "pitch": 82, "duration": 6, "velocity": 64}, {"time": 3270, "pitch": 72, "duration": 6, "velocity": 64}, {"time": 3276, "pitch": 74, "duration": 6, "velocity": 64}, {"time": 3282, "pitch": 77, "duration": 6, "velocity": 64}, {"time": 3288, "pitch": 82, "duration": 12, "velocity": 64}, {"time": 3300, "pitch": 77, "duration": 12, "velocity": 64}, {"time": 3312, "pitch": 79, "duration": 6, "velocity": 64}, {"time": 3318, "pitch": 82, "duration": 6, "velocity": 64}, {"time": 3324, "pitch": 77, "duration": 36, "velocity": 64}, {"time": 3360, "pitch": 77, "duration": 12, "velocity": 64}, {"time": 3372, "pitch": 77, "duration": 12, "velocity": 64}, {"time": 3384, "pitch": 74, "duration": 12, "velocity": 64}, {"time": 3396, "pitch": 77, "duration": 12, "velocity": 64}, {"time": 3408, "pitch": 79, "duration": 12, "velocity": 64}, {"time": 3420, "pitch": 79, "duration": 6, "velocity": 64}, {"time": 3426, "pitch": 74, "duration": 6, "velocity": 64}, {"time": 3432, "pitch": 77, "duration": 24, "velocity": 64}, {"time": 3456, "pitch": 77, "duration": 6, "velocity": 64}, {"time": 3462, "pitch": 79, "duration": 6, "velocity": 64}, {"time": 3468, "pitch": 77, "duration": 6, "velocity": 64}, {"time": 3474, "pitch": 74, "duration": 6, "velocity": 64}, {"time": 3480, "pitch": 72, "duration": 6, "velocity": 64}, {"time": 3486, "pitch": 74, "duration": 6, "velocity": 64}, {"time": 3492, "pitch": 77, "duration": 6, "velocity": 64}, {"time": 3498, "pitch": 74, "duration": 6, "velocity": 64}, {"time": 3504, "pitch": 72, "duration": 6, "velocity": 64}, {"time": 3510, "pitch": 74, "duration": 6, "velocity": 64}, {"time": 3516, "pitch": 82, "duration": 24, "velocity": 64}, {"time": 3540, "pitch": 77, "duration": 12, "velocity": 64}, {"time": 3552, "pitch": 79, "duration": 12, "velocity": 64}, {"time": 3564, "pitch": 77, "duration": 6, "velocity": 64}, {"time": 3570, "pitch": 79, "duration": 6, "velocity": 64}, {"time": 3576, "pitch": 82, "duration": 12, "velocity": 64}, {"time": 3600, "pitch": 82, "duration": 12, "velocity": 64}, {"time": 3612, "pitch": 77, "duration": 24, "velocity": 64}, {"time": 3636, "pitch": 79, "duration": 12, "velocity": 64}, {"time": 3648, "pitch": 82, "duration": 12, "velocity": 64}, {"time": 3660, "pitch": 72, "duration": 6, "velocity": 64}, {"time": 3666, "pitch": 74, "duration": 6, "velocity": 64}, {"time": 3672, "pitch": 72, "duration": 6, "velocity": 64}, {"time": 3678, "pitch": 82, "duration": 6, "velocity": 64}, {"time": 3684, "pitch": 79, "duration": 12, "velocity": 64}, {"time": 3696, "pitch": 77, "duration": 48, "velocity": 64}]}]}