{"metadata": {"schema_version": "0.1", "title": "Huang shan yangge", "source_format": "abc"}, "resolution": 24, "tempos": [{"time": 0, "qpm": 120.0}], "key_signatures": [{"time": 0, "root": 9, "mode": "major", "fifths": 3}], "time_signatures": [{"time": 0, "numerator": 4, "denominator": 4}, {"time": 528, "numerator": 1, "denominator": 4}, {"time": 1488, "numerator": 1, "denominator": 4}, {"time": 1512, "numerator": 2, "denominator": 4}], "beats": [{"time": 0, "is_downbeat": true}, {"time": 24, "is_downbeat": true}, {"time": 48, "is_downbeat": true}, {"time": 72, "is_downbeat": true}, {"time": 96, "is_downbeat": true}, {"time": 120, "is_downbeat": true}, {"time": 144, "is_downbeat": true}, {"time": 168, "is_downbeat": true}, {"time": 192, "is_downbeat": true}, {"time": 216, "is_downbeat": true}, {"time": 240, "is_downbeat": true}, {"time": 264, "is_downbeat": true}, {"time": 288, "is_downbeat": true}, {"time": 312, "is_downbeat": true}, {"time": 336, "is_downbeat": true}, {"time": 360, "is_downbeat": true}, {"time": 384, "is_downbeat": true}, {"time": 408, "is_downbeat": true}, {"time": 432, "is_downbeat": true}, {"time": 456, "is_downbeat": true}, {"time": 480, "is_downbeat": true}, {"time": 504, "is_downbeat": true}, {"time": 528, "is_downbeat": true}, {"time": 552, "is_downbeat": true}, {"time": 576, "is_downbeat": true}, {"time": 600, "is_downbeat": true}, {"time": 624, "is_downbeat": true}, {"time": 648, "is_downbeat": true}, {"time": 672, "is_downbeat": true}, {"time": 696, "is_downbeat": true}, {"time": 720, "is_downbeat": true}, {"time": 744, "is_downbeat": true}, {"time": 768, "is_downbeat": true}, {"time": 792, "is_downbeat": true}, {"time": 816, "is_downbeat": true}, {"time": 840, "is_downbeat": true}, {"time": 864, "is_downbeat": true}, {"time": 888, "is_downbeat": true}, {"time": 912, "is_downbeat": true}, {"time": 936, "is_downbeat": true}, {"time": 960, "is_downbeat": true}, {"time": 984, "is_downbeat": true}, {"time": 1008, "is_downbeat": true}, {"time": 1032, "is_downbeat": true}, {"time": 1056, "is_downbeat": true}, {"time": 1080, "is_downbeat": true}, {"time": 1104, "is_downbeat": true}, {"time": 1128, "is_downbeat": true}, {"time": 1152, "is_downbeat": true}, {"time": 1176, "is_downbeat": true}, {"time": 1200, "is_downbeat": true}, {"time": 1224, "is_downbeat": true}, {"time": 1248, "is_downbeat": true}, {"time": 1272, "is_downbeat": true}, {"time": 1296, "is_downbeat": true}, {"time": 1320, "is_downbeat": true}, {"time": 1344, "is_downbeat": true}, {"time": 1368, "is_downbeat": true}, {"time": 1392, "is_downbeat": true}, {"time": 1416, "is_downbeat": true}, {"time": 1440, "is_downbeat": true}, {"time": 1464, "is_downbeat": true}, {"time": 1488, "is_downbeat": true}, {"time": 1512, "is_downbeat": true}, {"time": 1536, "is_downbeat": false}, {"time": 1560, "is_downbeat": true}, {"time": 1584, "is_downbeat": false}, {"time": 1608, "is_downbeat": true}, {"time": 1632, "is_downbeat": false}, {"time": 1656, "is_downbeat": true}, {"time": 1680, "is_downbeat": false}, {"time": 1704, "is_downbeat": true}, {"time": 1728, "is_downbeat": false}, {"time": 1752, "is_downbeat": true}, {"time": 1776, "is_downbeat": false}, {"time": 1800, "is_downbeat": true}, {"time": 1824, "is_downbeat": false}], "tracks": [{"program": 0, "is_drum": false, "notes": [{"time": 0, "pitch": 73, "duration": 12, "velocity": 64}, {"time": 12, "pitch": 71, "duration": 12, "velocity": 64}, {"time": 24, "pitch": 73, "duration": 12, "velocity": 64}, {"time": 36, "pitch": 71, "duration": 12, "velocity": 64}, {"time": 48, "pitch": 73, "duration": 12, "velocity": 64}, {"time": 60, "pitch": 71, "duration": 12, "velocity": 64}, {"time": 72, "pitch": 71, "duration": 12, "velocity": 64}, {"time": 84, "pitch": 66, "duration": 12, "velocity": 64}, {"time": 96, "pitch": 64, "duration": 96, "velocity": 64}, {"time": 192, "pitch": 78, "duration": 12, "velocity": 64}, {"time": 204, "pitch": 69, "duration": 12, "velocity": 64}, {"time": 216, "pitch": 64, "duration": 12, "velocity": 64}, {"time": 228, "pitch": 66, "duration": 12, "velocity": 64}, {"time": 240, "pitch": 69, "duration": 24, "velocity": 64}, {"time": 264, "pitch": 66, "duration": 12, "velocity": 64}, {"time": 288, "pitch": 69, "duration": 12, "velocity": 64}, {"time": 300, "pitch": 71, "duration": 12, "velocity": 64}, {"time": 312, "pitch": 76, "duration": 12, "velocity": 64}, {"time": 324, "pitch": 73, "duration": 60, "velocity": 64}, {"time": 384, "pitch": 78, "duration": 12, "velocity": 64}, {"time": 396, "pitch": 76, "duration": 12, "velocity": 64}, {"time": 408, "pitch": 73, "duration": 12, "velocity": 64}, {"time": 420, "pitch": 71, "duration": 12, "velocity": 64}, {"time": 432, "pitch": 73, "duration": 6, "velocity": 64}, {"time": 438, "pitch": 69, "duration": 18, "velocity": 64}, {"time": 456, "pitch": 66, "duration": 12, "velocity": 64}, {"time": 480, "pitch": 71, "duration": 12, "velocity": 64}, {"time": 492, "pitch": 73, "duration": 12, "velocity": 64}, {"time": 504, "pitch": 76, "duration": 6, "velocity": 64}, {"time": 510, "pitch": 71, "duration": 42, "velocity": 64}, {"time": 552, "pitch": 73, "duration": 12, "velocity": 64}, {"time": 564, "pitch": 71, "duration": 12, "velocity": 64}, {"time": 576, "pitch": 69, "duration": 12, "velocity": 64}, {"time": 588, "pitch": 66, "duration": 12, "velocity": 64}, {"time": 600, "pitch": 66, "duration": 12, "velocity": 64}, {"time": 612, "pitch": 69, "duration": 12, "velocity": 64}, {"time": 624, "pitch": 66, "duration": 6, "velocity": 64}, {"time": 630, "pitch": 64, "duration": 54, "velocity": 64}, {"time": 696, "pitch": 66, "duration": 12, "velocity": 64}, {"time": 708, "pitch": 66, "duration": 12, "velocity": 64}, {"time": 720, "pitch": 69, "duration": 12, "velocity": 64}, {"time": 732, "pitch": 71, "duration": 12, "velocity": 64}, {"time": 744, "pitch": 73, "duration": 12, "velocity": 64}, {"time": 756, "pitch": 71, "duration": 12, "velocity": 64}, {"time": 768, "pitch": 71, "duration": 12, "velocity": 64}, {"time": 780, "pitch": 69, "duration": 12, "velocity": 64}, {"time": 792, "pitch": 71, "duration": 48, "velocity": 64}, {"time": 840, "pitch": 73, "duration": 12, "velocity": 64}, {"time": 852, "pitch": 71, "duration": 12, "velocity": 64}, {"time": 864, "pitch": 71, "duration": 12, "velocity": 64}, {"time": 876, "pitch": 66, "duration": 12, "velocity": 64}, {"time": 888, "pitch": 69, "duration": 36, "velocity": 64}, {"time": 924, "pitch": 71, "duration": 12, "velocity": 64}, {"time": 936, "pitch": 64, "duration": 36, "velocity": 64}, {"time": 972, "pitch": 66, "duration": 12, "velocity": 64}, {"time": 984, "pitch": 69, "duration": 12, "velocity": 64}, {"time": 996, "pitch": 71, "duration": 12, "velocity": 64}, {"time": 1008, "pitch": 69, "duration": 12, "velocity": 64}, {"time": 1020, "pitch": 66, "duration": 12, "velocity": 64}, {"time": 1032, "pitch": 66, "duration": 48, "velocity": 64}, {"time": 1080, "pitch": 73, "duration": 12, "velocity": 64}, {"time": 1092, "pitch": 71, "duration": 60, "velocity": 64}, {"time": 1152, "pitch": 71, "duration": 6, "velocity": 64}, {"time": 1158, "pitch": 69, "duration": 6, "velocity": 64}, {"time": 1164, "pitch": 66, "duration": 60, "velocity": 64}, {"time": 1224, "pitch": 69, "duration": 12, "velocity": 64}, {"time": 1236, "pitch": 71, "duration": 12, "velocity": 64}, {"time": 1248, "pitch": 73, "duration": 12, "velocity": 64}, {"time": 1260, "pitch": 76, "duration": 6, "velocity": 64}, {"time": 1266, "pitch": 73, "duration": 6, "velocity": 64}, {"time": 1272, "pitch": 71, "duration": 12, "velocity": 64}, {"time": 1284, "pitch": 73, "duration": 6, "velocity": 64}, {"time": 1290, "pitch": 71, "duration": 6, "velocity": 64}, {"time": 1296, "pitch": 69, "duration": 18, "velocity": 64}, {"time": 1314, "pitch": 66, "duration": 6, "velocity": 64}, {"time": 1320, "pitch": 71, "duration": 12, "velocity": 64}, {"time": 1332, "pitch": 69, "duration": 12, "velocity": 64}, {"time": 1344, "pitch": 66, "duration": 12, "velocity": 64}, {"time": 1356, "pitch": 64, "duration": 24, "velocity": 64}, {"time": 1380, "pitch": 69, "duration": 24, "velocity": 64}, {"time": 1404, "pitch": 66, "duration": 12, "velocity": 64}, {"time": 1416, "pitch": 69, "duration": 12, "velocity": 64}, {"time": 1428, "pitch": 71, "duration": 12, "velocity": 64}, {"time": 1440, "pitch": 73, "duration": 12, "velocity": 64}, {"time": 1452, "pitch": 76, "duration": 12, "velocity": 64}, {"time": 1464, "pitch": 73, "duration": 12, "velocity": 64}, {"time": 1476, "pitch": 71, "duration": 12, "velocity": 64}, {"time": 1488, "pitch": 73, "duration": 12, "velocity": 64}, {"time": 1500, "pitch": 76, "duration": 6, "velocity": 64}, {"time": 1506, "pitch": 73, "duration": 6, "velocity": 64}, {"time": 1512, "pitch": 71, "duration": 18, "velocity": 64}, {"time": 1530, "pitch": 73, "duration": 6, "velocity": 64}, {"time": 1536, "pitch": 66, "duration": 6, "velocity": 64}, {"time": 1542, "pitch": 69, "duration": 6, "velocity": 64}, {"time": 1548, "pitch": 71, "duration": 6, "velocity": 64}, {"time": 1554, "pitch": 73, "duration": 6, "velocity": 64}, {"time": 1560, "pitch": 71, "duration": 6, "velocity": 64}, {"time": 1566, "pitch": 69, "duration": 6, "velocity": 64}, {"time": 1572, "pitch": 66, "duration": 6, "velocity": 64}, {"time": 1578, "pitch": 64, "duration": 6, "velocity": 64}, {"time": 1584, "pitch": 66, "duration": 24, "velocity": 64}, {"time": 1608, "pitch": 66, "duration": 12, "velocity": 64}, {"time": 1620, "pitch": 69, "duration": 6, "velocity": 64}, {"time": 1626, "pitch": 71, "duration": 6, "velocity": 64}, {"time": 1632, "pitch": 64, "duration": 12, "velocity": 64}, {"time": 1644, "pitch": 66, "duration": 12, "velocity": 64}, {"time": 1656, "pitch": 69, "duration": 24, "velocity": 64}, {"time": 1680, "pitch": 66, "duration": 12, "velocity": 64}, {"time": 1704, "pitch": 71, "duration": 24, "velocity": 64}, {"time": 1728, "pitch": 69, "duration": 6, "velocity": 64}, {"time": 1734, "pitch": 71, "duration": 6, "velocity": 64}, {"time": 1740, "pitch": 66, "duration": 12, "velocity": 64}, {"time": 1752, "pitch": 69, "duration": 6, "velocity": 64}, {"time": 1758, "pitch": 71, "duration": 6, "velocity": 64}, {"time": 1764, "pitch": 66, "duration": 12, "velocity": 64}, {"time": 1776, "pitch": 64, "duration": 48, "velocity": 64}]}]}