{"metadata": {"schema_version": "0.1", "title": "Dui hua mi", "source_format": "abc"}, "resolution": 24, "tempos": [{"time": 0, "qpm": 120.0}], "key_signatures": [{"time": 0, "root": 7, "mode": "major", "fifths": 1}], "time_signatures": [{"time": 0, "numerator": 4, "denominator": 4}, {"time": 720, "numerator": 1, "denominator": 4}, {"time": 792, "numerator": 1, "denominator": 4}, {"time": 1632, "numerator": 1, "denominator": 4}, {"time": 1704, "numerator": 1, "denominator": 4}, {"time": 1728, "numerator": 2, "denominator": 4}], "beats": [{"time": 0, "is_downbeat": true}, {"time": 24, "is_downbeat": true}, {"time": 48, "is_downbeat": true}, {"time": 72, "is_downbeat": true}, {"time": 96, "is_downbeat": true}, {"time": 120, "is_downbeat": true}, {"time": 144, "is_downbeat": true}, {"time": 168, "is_downbeat": true}, {"time": 192, "is_downbeat": true}, {"time": 216, "is_downbeat": true}, {"time": 240, "is_downbeat": true}, {"time": 264, "is_downbeat": true}, {"time": 288, "is_downbeat": true}, {"time": 312, "is_downbeat": true}, {"time": 336, "is_downbeat": true}, {"time": 360, "is_downbeat": true}, {"time": 384, "is_downbeat": true}, {"time": 408, "is_downbeat": true}, {"time": 432, "is_downbeat": true}, {"time": 456, "is_downbeat": true}, {"time": 480, "is_downbeat": true}, {"time": 504, "is_downbeat": true}, {"time": 528, "is_downbeat": true}, {"time": 552, "is_downbeat": true}, {"time": 576, "is_downbeat": true}, {"time": 600, "is_downbeat": true}, {"time": 624, "is_downbeat": true}, {"time": 648, "is_downbeat": true}, {"time": 672, "is_downbeat": true}, {"time": 696, "is_downbeat": true}, {"time": 720, "is_downbeat": true}, {"time": 744, "is_downbeat": true}, {"time": 768, "is_downbeat": true}, {"time": 792, "is_downbeat": true}, {"time": 816, "is_downbeat": true}, {"time": 840, "is_downbeat": true}, {"time": 864, "is_downbeat": true}, {"time": 888, "is_downbeat": true}, {"time": 912, "is_downbeat": true}, {"time": 936, "is_downbeat": true}, {"time": 960, "is_downbeat": true}, {"time": 984, "is_downbeat": true}, {"time": 1008, "is_downbeat": true}, {"time": 1032, "is_downbeat": true}, {"time": 1056, "is_downbeat": true}, {"time": 1080, "is_downbeat": true}, {"time": 1104, "is_downbeat": true}, {"time": 1128, "is_downbeat": true}, {"time": 1152, "is_downbeat": true}, {"time": 1176, "is_downbeat": true}, {"time": 1200, "is_downbeat": true}, {"time": 1224, "is_downbeat": true}, {"time": 1248, "is_downbeat": true}, {"time": 1272, "is_downbeat": true}, {"time": 1296, "is_downbeat": true}, {"time": 1320, "is_downbeat": true}, {"time": 1344, "is_downbeat": true}, {"time": 1368, "is_downbeat": true}, {"time": 1392, "is_downbeat": true}, {"time": 1416, "is_downbeat": true}, {"time": 1440, "is_downbeat": true}, {"time": 1464, "is_downbeat": true}, {"time": 1488, "is_downbeat": true}, {"time": 1512, "is_downbeat": true}, {"time": 1536, "is_downbeat": true}, {"time": 1560, "is_downbeat": true}, {"time": 1584, "is_downbeat": true}, {"time": 1608, "is_downbeat": true}, {"time": 1632, "is_downbeat": true}, {"time": 1656, "is_downbeat": true}, {"time": 1680, "is_downbeat": true}, {"time": 1704, "is_downbeat": true}, {"time": 1728, "is_downbeat": true}, {"time": 1752, "is_downbeat": false}, {"time": 1776, "is_downbeat": true}, {"time": 1800, "is_downbeat": false}, {"time": 1824, "is_downbeat": true}, {"time": 1848, "is_downbeat": false}, {"time": 1872, "is_downbeat": true}, {"time": 1896, "is_downbeat": false}, {"time": 1920, "is_downbeat": true}, {"time": 1944, "is_downbeat": false}, {"time": 1968, "is_downbeat": true}, {"time": 1992, "is_downbeat": false}, {"time": 2016, "is_downbeat": true}, {"time": 2040, "is_downbeat": false}, {"time": 2064, "is_downbeat": true}, {"time": 2088, "is_downbeat": false}], "tracks": [{"program": 0, "is_drum": false, "notes": [{"time": 0, "pitch": 74, "duration": 9, "velocity": 64}, {"time": 9, "pitch": 71, "duration": 3, "velocity": 64}, {"time": 12, "pitch": 74, "duration": 6, "velocity": 64}, {"time": 18, "pitch": 71, "duration": 6, "velocity": 64}, {"time": 24, "pitch": 74, "duration": 6, "velocity": 64}, {"time": 30, "pitch": 71, "duration": 18, "velocity": 64}, {"time": 48, "pitch": 67, "duration": 9, "velocity": 64}, {"time": 57, "pitch": 64, "duration": 3, "velocity": 64}, {"time": 60, "pitch": 67, "duration": 6, "velocity": 64}, {"time": 66, "pitch": 64, "duration": 6, "velocity": 64}, {"time": 72, "pitch": 67, "duration": 12, "velocity": 64}, {"time": 84, "pitch": 64, "duration": 12, "velocity": 64}, {"time": 96, "pitch": 67, "duration": 12, "velocity": 64}, {"time": 108, "pitch": 64, "duration": 6, "velocity": 64}, {"time": 114, "pitch": 67, "duration": 6, "velocity": 64}, {"time": 120, "pitch": 64, "duration": 12, "velocity": 64}, {"time": 144, "pitch": 67, "duration": 9, "velocity": 64}, {"time": 153, "pitch": 76, "duration": 3, "velocity": 64}, {"time": 156, "pitch": 76, "duration": 6, "velocity": 64}, {"time": 162, "pitch": 67, "duration": 6, "velocity": 64}, {"time": 168, "pitch": 64, "duration": 12, "velocity": 64}, {"time": 192, "pitch": 69, "duration": 12, "velocity": 64}, {"time": 204, "pitch": 64, "duration": 6, "velocity": 64}, {"time": 210, "pitch": 67, "duration": 6, "velocity": 64}, {"time": 216, "pitch": 64, "duration": 9, "velocity": 64}, {"time": 225, "pitch": 67, "duration": 3, "velocity": 64}, {"time": 228, "pitch": 67, "duration": 6, "velocity": 64}, {"time": 234, "pitch": 64, "duration": 6, "velocity": 64}, {"time": 240, "pitch": 64, "duration": 6, "velocity": 64}, {"time": 246, "pitch": 67, "duration": 6, "velocity": 64}, {"time": 252, "pitch": 64, "duration": 6, "velocity": 64}, {"time": 258, "pitch": 67, "duration": 6, "velocity": 64}, {"time": 264, "pitch": 64, "duration": 12, "velocity": 64}, {"time": 288, "pitch": 74, "duration": 18, "velocity": 64}, {"time": 306, "pitch": 71, "duration": 6, "velocity": 64}, {"time": 312, "pitch": 74, "duration": 12, "velocity": 64}, {"time": 324, "pitch": 71, "duration": 6, "velocity": 64}, {"time": 330, "pitch": 71, "duration": 6, "velocity": 64}, {"time": 336, "pitch": 67, "duration": 12, "velocity": 64}, {"time": 348, "pitch": 69, "duration": 6, "velocity": 64}, {"time": 354, "pitch": 67, "duration": 6, "velocity": 64}, {"time": 360, "pitch": 64, "duration": 24, "velocity": 64}, {"time": 384, "pitch": 71, "duration": 18, "velocity": 64}, {"time": 402, "pitch": 74, "duration": 6, "velocity": 64}, {"time": 408, "pitch": 71, "duration": 12, "velocity": 64}, {"time": 420, "pitch": 74, "duration": 12, "velocity": 64}, {"time": 432, "pitch": 71, "duration": 12, "velocity": 64}, {"time": 444, "pitch": 74, "duration": 12, "velocity": 64}, {"time": 456, "pitch": 74, "duration": 12, "velocity": 64}, {"time": 468, "pitch": 71, "duration": 6, "velocity": 64}, {"time": 474, "pitch": 71, "duration": 6, "velocity": 64}, {"time": 480, "pitch": 67, "duration": 24, "velocity": 64}, {"time": 504, "pitch": 64, "duration": 24, "velocity": 64}, {"time": 528, "pitch": 67, "duration": 24, "velocity": 64}, {"time": 552, "pitch": 64, "duration": 24, "velocity": 64}, {"time": 576, "pitch": 64, "duration": 12, "velocity": 64}, {"time": 588, "pitch": 64, "duration": 6, "velocity": 64}, {"time": 594, "pitch": 64, "duration": 6, "velocity": 64}, {"time": 600, "pitch": 67, "duration": 12, "velocity": 64}, {"time": 612, "pitch": 67, "duration": 12, "velocity": 64}, {"time": 624, "pitch": 71, "duration": 12, "velocity": 64}, {"time": 636, "pitch": 71, "duration": 6, "velocity": 64}, {"time": 642, "pitch": 74, "duration": 6, "velocity": 64}, {"time": 648, "pitch": 71, "duration": 12, "velocity": 64}, {"time": 660, "pitch": 71, "duration": 12, "velocity": 64}, {"time": 672, "pitch": 67, "duration": 6, "velocity": 64}, {"time": 678, "pitch": 64, "duration": 6, "velocity": 64}, {"time": 684, "pitch": 67, "duration": 6, "velocity": 64}, {"time": 690, "pitch": 64, "duration": 6, "velocity": 64}, {"time": 696, "pitch": 67, "duration": 24, "velocity": 64}, {"time": 720, "pitch": 64, "duration": 12, "velocity": 64}, {"time": 744, "pitch": 67, "duration": 6, "velocity": 64}, {"time": 750, "pitch": 64, "duration": 6, "velocity": 64}, {"time": 756, "pitch": 67, "duration": 6, "velocity": 64}, {"time": 762, "pitch": 64, "duration": 6, "velocity": 64}, {"time": 768, "pitch": 67, "duration": 24, "velocity": 64}, {"time": 792, "pitch": 64, "duration": 12, "velocity": 64}, {"time": 810, "pitch": 64, "duration": 6, "velocity": 64}, {"time": 816, "pitch": 67, "duration": 12, "velocity": 64}, {"time": 828, "pitch": 71, "duration": 12, "velocity": 64}, {"time": 840, "pitch": 69, "duration": 12, "velocity": 64}, {"time": 852, "pitch": 69, "duration": 6, "velocity": 64}, {"time": 858, "pitch": 64, "duration": 6, "velocity": 64}, {"time": 864, "pitch": 67, "duration": 24, "velocity": 64}, {"time": 888, "pitch": 64, "duration": 24, "velocity": 64}, {"time": 912, "pitch": 67, "duration": 12, "velocity": 64}, {"time": 924, "pitch": 64, "duration": 6, "velocity": 64}, {"time": 930, "pitch": 67, "duration": 6, "velocity": 64}, {"time": 936, "pitch": 64, "duration": 12, "velocity": 64}, {"time": 960, "pitch": 67, "duration": 9, "velocity": 64}, {"time": 969, "pitch": 64, "duration": 3, "velocity": 64}, {"time": 972, "pitch": 64, "duration": 6, "velocity": 64}, {"time": 978, "pitch": 67, "duration": 6, "velocity": 64}, {"time": 984, "pitch": 64, "duration": 12, "velocity": 64}, {"time": 1008, "pitch": 69, "duration": 12, "velocity": 64}, {"time": 1020, "pitch": 64, "duration": 6, "velocity": 64}, {"time": 1026, "pitch": 67, "duration": 6, "velocity": 64}, {"time": 1032, "pitch": 64, "duration": 9, "velocity": 64}, {"time": 1041, "pitch": 67, "duration": 3, "velocity": 64}, {"time": 1044, "pitch": 67, "duration": 6, "velocity": 64}, {"time": 1050, "pitch": 64, "duration": 6, "velocity": 64}, {"time": 1056, "pitch": 64, "duration": 6, "velocity": 64}, {"time": 1062, "pitch": 67, "duration": 6, "velocity": 64}, {"time": 1068, "pitch": 64, "duration": 6, "velocity": 64}, {"time": 1074, "pitch": 67, "duration": 6, "velocity": 64}, {"time": 1080, "pitch": 64, "duration": 12, "velocity": 64}, {"time": 1104, "pitch": 74, "duration": 18, "velocity": 64}, {"time": 1122, "pitch": 71, "duration": 6, "velocity": 64}, {"time": 1128, "pitch": 74, "duration": 12, "velocity": 64}, {"time": 1140, "pitch": 71, "duration": 12, "velocity": 64}, {"time": 1152, "pitch": 71, "duration": 12, "velocity": 64}, {"time": 1164, "pitch": 74, "duration": 12, "velocity": 64}, {"time": 1176, "pitch": 74, "duration": 12, "velocity": 64}, {"time": 1188, "pitch": 71, "duration": 6, "velocity": 64}, {"time": 1194, "pitch": 71, "duration": 6, "velocity": 64}, {"time": 1200, "pitch": 74, "duration": 18, "velocity": 64}, {"time": 1218, "pitch": 71, "duration": 6, "velocity": 64}, {"time": 1224, "pitch": 74, "duration": 12, "velocity": 64}, {"time": 1236, "pitch": 71, "duration": 6, "velocity": 64}, {"time": 1242, "pitch": 71, "duration": 6, "velocity": 64}, {"time": 1248, "pitch": 67, "duration": 12, "velocity": 64}, {"time": 1260, "pitch": 69, "duration": 6, "velocity": 64}, {"time": 1266, "pitch": 67, "duration": 6, "velocity": 64}, {"time": 1272, "pitch": 64, "duration": 24, "velocity": 64}, {"time": 1296, "pitch": 71, "duration": 18, "velocity": 64}, {"time": 1314, "pitch": 74, "duration": 6, "velocity": 64}, {"time": 1320, "pitch": 71, "duration": 12, "velocity": 64}, {"time": 1332, "pitch": 74, "duration": 12, "velocity": 64}, {"time": 1344, "pitch": 71, "duration": 12, "velocity": 64}, {"time": 1356, "pitch": 74, "duration": 12, "velocity": 64}, {"time": 1368, "pitch": 74, "duration": 12, "velocity": 64}, {"time": 1380, "pitch": 71, "duration": 6, "velocity": 64}, {"time": 1386, "pitch": 71, "duration": 6, "velocity": 64}, {"time": 1392, "pitch": 67, "duration": 24, "velocity": 64}, {"time": 1416, "pitch": 64, "duration": 24, "velocity": 64}, {"time": 1440, "pitch": 67, "duration": 24, "velocity": 64}, {"time": 1464, "pitch": 64, "duration": 24, "velocity": 64}, {"time": 1488, "pitch": 64, "duration": 12, "velocity": 64}, {"time": 1500, "pitch": 64, "duration": 6, "velocity": 64}, {"time": 1506, "pitch": 64, "duration": 6, "velocity": 64}, {"time": 1512, "pitch": 67, "duration": 12, "velocity": 64}, {"time": 1524, "pitch": 67, "duration": 12, "velocity": 64}, {"time": 1536, "pitch": 71, "duration": 12, "velocity": 64}, {"time": 1548, "pitch": 71, "duration": 6, "velocity": 64}, {"time": 1554, "pitch": 74, "duration": 6, "velocity": 64}, {"time": 1560, "pitch": 71, "duration": 12, "velocity": 64}, {"time": 1572, "pitch": 71, "duration": 12, "velocity": 64}, {"time": 1584, "pitch": 67, "duration": 6, "velocity": 64}, {"time": 1590, "pitch": 64, "duration": 6, "velocity": 64}, {"time": 1596, "pitch": 67, "duration": 6, "velocity": 64}, {"time": 1602, "pitch": 64, "duration": 6, "velocity": 64}, {"time": 1608, "pitch": 67, "duration": 24, "velocity": 64}, {"time": 1632, "pitch": 64, "duration": 12, "velocity": 64}, {"time": 1656, "pitch": 67, "duration": 6, "velocity": 64}, {"time": 1662, "pitch": 64, "duration": 6, "velocity": 64}, {"time": 1668, "pitch": 67, "duration": 6, "velocity": 64}, {"time": 1674, "pitch": 64, "duration": 6, "velocity": 64}, {"time": 1680, "pitch": 67, "duration": 24, "velocity": 64}, {"time": 1704, "pitch": 64, "duration": 12, "velocity": 64}, {"time": 1722, "pitch": 64, "duration": 6, "velocity": 64}, {"time": 1728, "pitch": 67, "duration": 12, "velocity": 64}, {"time": 1740, "pitch": 71, "duration": 12, "velocity": 64}, {"time": 1752, "pitch": 69, "duration": 12, "velocity": 64}, {"time": 1764, "pitch": 69, "duration": 6, "velocity": 64}, {"time": 1770, "pitch": 64, "duration": 6, "velocity": 64}, {"time": 1776, "pitch": 67, "duration": 24, "velocity": 64}, {"time": 1800, "pitch": 64, "duration": 24, "velocity": 64}, {"time": 1824, "pitch": 74, "duration": 6, "velocity": 64}, {"time": 1830, "pitch": 71, "duration": 6, "velocity": 64}, {"time": 1836, "pitch": 71, "duration": 6, "velocity": 64}, {"time": 1842, "pitch": 71, "duration": 6, "velocity": 64}, {"time": 1848, "pitch": 74, "duration": 6, "velocity": 64}, {"time": 1854, "pitch": 71, "duration": 6, "velocity": 64}, {"time": 1860, "pitch": 71, "duration": 12, "velocity": 64}, {"time": 1872, "pitch": 74, "duration": 6, "velocity": 64}, {"time": 1878, "pitch": 71, "duration": 6, "velocity": 64}, {"time": 1884, "pitch": 71, "duration": 6, "velocity": 64}, {"time": 1890, "pitch": 71, "duration": 6, "velocity": 64}, {"time": 1896, "pitch": 74, "duration": 6, "velocity": 64}, {"time": 1902, "pitch": 71, "duration": 6, "velocity": 64}, {"time": 1908, "pitch": 71, "duration": 12, "velocity": 64}, {"time": 1920, "pitch": 71, "duration": 6, "velocity": 64}, {"time": 1926, "pitch": 64, "duration": 6, "velocity": 64}, {"time": 1932, "pitch": 64, "duration": 6, "velocity": 64}, {"time": 1938, "pitch": 64, "duration": 6, "velocity": 64}, {"time": 1944, "pitch": 67, "duration": 12, "velocity": 64}, {"time": 1956, "pitch": 64, "duration": 12, "velocity": 64}, {"time": 1968, "pitch": 67, "duration": 12, "velocity": 64}, {"time": 1980, "pitch": 64, "duration": 6, "velocity": 64}, {"time": 1986, "pitch": 64, "duration": 6, "velocity": 64}, {"time": 1992, "pitch": 64, "duration": 12, "velocity": 64}, {"time": 2004, "pitch": 64, "duration": 6, "velocity": 64}, {"time": 2010, "pitch": 64, "duration": 6, "velocity": 64}, {"time": 2016, "pitch": 67, "duration": 12, "velocity": 64}, {"time": 2028, "pitch": 71, "duration": 12, "velocity": 64}, {"time": 2040, "pitch": 69, "duration": 18, "velocity": 64}, {"time": 2058, "pitch": 67, "duration": 6, "velocity": 64}, {"time": 2064, "pitch": 67, "duration": 24, "velocity": 64}, {"time": 2088, "pitch": 64, "duration": 24, "velocity": 64}]}]}