{"metadata": {"schema_version": "0.1", "title": "Fanshen daoqing", "source_format": "abc"}, "resolution": 24, "tempos": [{"time": 0, "qpm": 120.0}], "key_signatures": [{"time": 0, "root": 8, "mode": "major", "fifths": -4}], "time_signatures": [{"time": 0, "numerator": 4, "denominator": 4}, {"time": 2016, "numerator": 3, "denominator": 2}, {"time": 2400, "numerator": 3, "denominator": 2}, {"time": 2784, "numerator": 3, "denominator": 2}, {"time": 3168, "numerator": 4, "denominator": 4}, {"time": 3264, "numerator": 2, "denominator": 4}], "beats": [{"time": 0, "is_downbeat": true}, {"time": 48, "is_downbeat": true}, {"time": 96, "is_downbeat": true}, {"time": 144, "is_downbeat": true}, {"time": 192, "is_downbeat": true}, {"time": 240, "is_downbeat": true}, {"time": 288, "is_downbeat": true}, {"time": 336, "is_downbeat": true}, {"time": 384, "is_downbeat": true}, {"time": 432, "is_downbeat": true}, {"time": 480, "is_downbeat": true}, {"time": 528, "is_downbeat": true}, {"time": 576, "is_downbeat": true}, {"time": 624, "is_downbeat": true}, {"time": 672, "is_downbeat": true}, {"time": 720, "is_downbeat": true}, {"time": 768, "is_downbeat": true}, {"time": 816, "is_downbeat": true}, {"time": 864, "is_downbeat": true}, {"time": 912, "is_downbeat": true}, {"time": 960, "is_downbeat": true}, {"time": 1008, "is_downbeat": true}, {"time": 1056, "is_downbeat": true}, {"time": 1104, "is_downbeat": true}, {"time": 1152, "is_downbeat": true}, {"time": 1200, "is_downbeat": true}, {"time": 1248, "is_downbeat": true}, {"time": 1296, "is_downbeat": true}, {"time": 1344, "is_downbeat": true}, {"time": 1392, "is_downbeat": true}, {"time": 1440, "is_downbeat": true}, {"time": 1488, "is_downbeat": true}, {"time": 1536, "is_downbeat": true}, {"time": 1584, "is_downbeat": true}, {"time": 1632, "is_downbeat": true}, {"time": 1680, "is_downbeat": true}, {"time": 1728, "is_downbeat": true}, {"time": 1776, "is_downbeat": true}, {"time": 1824, "is_downbeat": true}, {"time": 1872, "is_downbeat": true}, {"time": 1920, "is_downbeat": true}, {"time": 1968, "is_downbeat": true}, {"time": 2016, "is_downbeat": true}, {"time": 2064, "is_downbeat": false}, {"time": 2112, "is_downbeat": false}, {"time": 2160, "is_downbeat": true}, {"time": 2208, "is_downbeat": true}, {"time": 2256, "is_downbeat": true}, {"time": 2304, "is_downbeat": true}, {"time": 2352, "is_downbeat": true}, {"time": 2400, "is_downbeat": true}, {"time": 2448, "is_downbeat": false}, {"time": 2496, "is_downbeat": false}, {"time": 2544, "is_downbeat": true}, {"time": 2592, "is_downbeat": true}, {"time": 2640, "is_downbeat": true}, {"time": 2688, "is_downbeat": true}, {"time": 2736, "is_downbeat": true}, {"time": 2784, "is_downbeat": true}, {"time": 2808, "is_downbeat": false}, {"time": 2832, "is_downbeat": false}, {"time": 2856, "is_downbeat": false}, {"time": 2880, "is_downbeat": true}, {"time": 2904, "is_downbeat": false}, {"time": 2928, "is_downbeat": true}, {"time": 2952, "is_downbeat": false}, {"time": 2976, "is_downbeat": true}, {"time": 3000, "is_downbeat": false}, {"time": 3024, "is_downbeat": true}, {"time": 3048, "is_downbeat": false}, {"time": 3072, "is_downbeat": true}, {"time": 3096, "is_downbeat": false}, {"time": 3120, "is_downbeat": true}, {"time": 3144, "is_downbeat": false}, {"time": 3168, "is_downbeat": true}, {"time": 3192, "is_downbeat": false}, {"time": 3216, "is_downbeat": true}, {"time": 3240, "is_downbeat": false}, {"time": 3264, "is_downbeat": true}, {"time": 3288, "is_downbeat": false}, {"time": 3312, "is_downbeat": true}, {"time": 3336, "is_downbeat": false}, {"time": 3360, "is_downbeat": true}, {"time": 3384, "is_downbeat": false}, {"time": 3408, "is_downbeat": true}, {"time": 3432, "is_downbeat": false}, {"time": 3456, "is_downbeat": true}, {"time": 3480, "is_downbeat": false}, {"time": 3504, "is_downbeat": true}, {"time": 3528, "is_downbeat": false}, {"time": 3552, "is_downbeat": true}, {"time": 3576, "is_downbeat": false}, {"time": 3600, "is_downbeat": true}, {"time": 3624, "is_downbeat": false}, {"time": 3648, "is_downbeat": true}, {"time": 3672, "is_downbeat": false}, {"time": 3696, "is_downbeat": true}, {"time": 3720, "is_downbeat": false}, {"time": 3744, "is_downbeat": true}, {"time": 3768, "is_downbeat": false}, {"time": 3792, "is_downbeat": true}, {"time": 3816, "is_downbeat": false}, {"time": 3840, "is_downbeat": true}, {"time": 3864, "is_downbeat": false}, {"time": 3888, "is_downbeat": true}, {"time": 3912, "is_downbeat": false}, {"time": 3936, "is_downbeat": true}, {"time": 3960, "is_downbeat": false}, {"time": 3984, "is_downbeat": true}, {"time": 4008, "is_downbeat": false}, {"time": 4032, "is_downbeat": true}, {"time": 4056, "is_downbeat": false}, {"time": 4080, "is_downbeat": true}, {"time": 4104, "is_downbeat": false}, {"time": 4128, "is_downbeat": true}, {"time": 4152, "is_downbeat": false}, {"time": 4176, "is_downbeat": true}, {"time": 4200, "is_downbeat": false}, {"time": 4224, "is_downbeat": true}, {"time": 4248, "is_downbeat": false}, {"time": 4272, "is_downbeat": true}, {"time": 4296, "is_downbeat": false}, {"time": 4320, "is_downbeat": true}, {"time": 4344, "is_downbeat": false}, {"time": 4368, "is_downbeat": true}, {"time": 4392, "is_downbeat": false}, {"time": 4416, "is_downbeat": true}, {"time": 4440, "is_downbeat": false}, {"time": 4464, "is_downbeat": true}, {"time": 4488, "is_downbeat": false}, {"time": 4512, "is_downbeat": true}, {"time": 4536, "is_downbeat": false}, {"time": 4560, "is_downbeat": true}, {"time": 4584, "is_downbeat": false}, {"time": 4608, "is_downbeat": true}, {"time": 4632, "is_downbeat": false}, {"time": 4656, "is_downbeat": true}, {"time": 4680, "is_downbeat": false}, {"time": 4704, "is_downbeat": true}, {"time": 4728, "is_downbeat": false}, {"time": 4752, "is_downbeat": true}, {"time": 4776, "is_downbeat": false}, {"time": 4800, "is_downbeat": true}, {"time": 4824, "is_downbeat": false}, {"time": 4848, "is_downbeat": true}, {"time": 4872, "is_downbeat": false}, {"time": 4896, "is_downbeat": true}, {"time": 4920, "is_downbeat": false}, {"time": 4944, "is_downbeat": true}, {"time": 4968, "is_downbeat": false}, {"time": 4992, "is_downbeat": true}, {"time": 5016, "is_downbeat": false}, {"time": 5040, "is_downbeat": true}, {"time": 5064, "is_downbeat": false}, {"time": 5088, "is_downbeat": true}, {"time": 5112, "is_downbeat": false}], "tracks": [{"program": 0, "is_drum": false, "notes": [{"time": 0, "pitch": 75, "duration": 24, "velocity": 64}, {"time": 24, "pitch": 70, "duration": 48, "velocity": 64}, {"time": 72, "pitch": 70, "duration": 24, "velocity": 64}, {"time": 96, "pitch": 75, "duration": 24, "velocity": 64}, {"time": 120, "pitch": 72, "duration": 18, "velocity": 64}, {"time": 138, "pitch": 70, "duration": 6, "velocity": 64}, {"time": 144, "pitch": 68, "duration": 24, "velocity": 64}, {"time": 168, "pitch": 70, "duration": 18, "velocity": 64}, {"time": 186, "pitch": 70, "duration": 6, "velocity": 64}, {"time": 192, "pitch": 70, "duration": 12, "velocity": 64}, {"time": 204, "pitch": 75, "duration": 12, "velocity": 64}, {"time": 216, "pitch": 75, "duration": 12, "velocity": 64}, {"time": 228, "pitch": 72, "duration": 12, "velocity": 64}, {"time": 240, "pitch": 70, "duration": 12, "velocity": 64}, {"time": 252, "pitch": 72, "duration": 12, "velocity": 64}, {"time": 264, "pitch": 70, "duration": 12, "velocity": 64}, {"time": 276, "pitch": 72, "duration": 12, "velocity": 64}, {"time": 288, "pitch": 70, "duration": 12, "velocity": 64}, {"time": 300, "pitch": 72, "duration": 12, "velocity": 64}, {"time": 312, "pitch": 70, "duration": 12, "velocity": 64}, {"time": 324, "pitch": 72, "duration": 12, "velocity": 64}, {"time": 336, "pitch": 70, "duration": 12, "velocity": 64}, {"time": 348, "pitch": 72, "duration": 12, "velocity": 64}, {"time": 360, "pitch": 70, "duration": 12, "velocity": 64}, {"time": 372, "pitch": 72, "duration": 12, "velocity": 64}, {"time": 384, "pitch": 70, "duration": 12, "velocity": 64}, {"time": 408, "pitch": 70, "duration": 12, "velocity": 64}, {"time": 432, "pitch": 70, "duration": 96, "velocity": 64}, {"time": 528, "pitch": 72, "duration": 12, "velocity": 64}, {"time": 540, "pitch": 70, "duration": 12, "velocity": 64}, {"time": 552, "pitch": 75, "duration": 72, "velocity": 64}, {"time": 624, "pitch": 68, "duration": 12, "velocity": 64}, {"time": 636, "pitch": 65, "duration": 12, "velocity": 64}, {"time": 648, "pitch": 75, "duration": 12, "velocity": 64}, {"time": 660, "pitch": 72, "duration": 12, "velocity": 64}, {"time": 672, "pitch": 70, "duration": 18, "velocity": 64}, {"time": 690, "pitch": 68, "duration": 6, "velocity": 64}, {"time": 696, "pitch": 68, "duration": 12, "velocity": 64}, {"time": 708, "pitch": 65, "duration": 12, "velocity": 64}, {"time": 720, "pitch": 63, "duration": 48, "velocity": 64}, {"time": 768, "pitch": 72, "duration": 12, "velocity": 64}, {"time": 780, "pitch": 75, "duration": 24, "velocity": 64}, {"time": 804, "pitch": 72, "duration": 12, "velocity": 64}, {"time": 816, "pitch": 75, "duration": 12, "velocity": 64}, {"time": 828, "pitch": 77, "duration": 12, "velocity": 64}, {"time": 840, "pitch": 72, "duration": 12, "velocity": 64}, {"time": 852, "pitch": 70, "duration": 12, "velocity": 64}, {"time": 864, "pitch": 68, "duration": 12, "velocity": 64}, {"time": 876, "pitch": 65, "duration": 12, "velocity": 64}, {"time": 888, "pitch": 63, "duration": 24, "velocity": 64}, {"time": 912, "pitch": 72, "duration": 24, "velocity": 64}, {"time": 936, "pitch": 77, "duration": 24, "velocity": 64}, {"time": 960, "pitch": 75, "duration": 24, "velocity": 64}, {"time": 984, "pitch": 72, "duration": 12, "velocity": 64}, {"time": 996, "pitch": 75, "duration": 12, "velocity": 64}, {"time": 1008, "pitch": 70, "duration": 12, "velocity": 64}, {"time": 1020, "pitch": 65, "duration": 12, "velocity": 64}, {"time": 1032, "pitch": 68, "duration": 18, "velocity": 64}, {"time": 1050, "pitch": 65, "duration": 6, "velocity": 64}, {"time": 1056, "pitch": 63, "duration": 48, "velocity": 64}, {"time": 1104, "pitch": 75, "duration": 12, "velocity": 64}, {"time": 1116, "pitch": 75, "duration": 12, "velocity": 64}, {"time": 1128, "pitch": 70, "duration": 96, "velocity": 64}, {"time": 1224, "pitch": 70, "duration": 12, "velocity": 64}, {"time": 1236, "pitch": 70, "duration": 12, "velocity": 64}, {"time": 1248, "pitch": 75, "duration": 24, "velocity": 64}, {"time": 1272, "pitch": 77, "duration": 12, "velocity": 64}, {"time": 1284, "pitch": 75, "duration": 12, "velocity": 64}, {"time": 1296, "pitch": 72, "duration": 12, "velocity": 64}, {"time": 1308, "pitch": 70, "duration": 12, "velocity": 64}, {"time": 1320, "pitch": 68, "duration": 24, "velocity": 64}, {"time": 1344, "pitch": 68, "duration": 12, "velocity": 64}, {"time": 1356, "pitch": 68, "duration": 24, "velocity": 64}, {"time": 1380, "pitch": 68, "duration": 12, "velocity": 64}, {"time": 1392, "pitch": 70, "duration": 12, "velocity": 64}, {"time": 1404, "pitch": 72, "duration": 12, "velocity": 64}, {"time": 1416, "pitch": 70, "duration": 24, "velocity": 64}, {"time": 1440, "pitch": 68, "duration": 24, "velocity": 64}, {"time": 1464, "pitch": 63, "duration": 24, "velocity": 64}, {"time": 1488, "pitch": 68, "duration": 24, "velocity": 64}, {"time": 1512, "pitch": 72, "duration": 24, "velocity": 64}, {"time": 1536, "pitch": 70, "duration": 24, "velocity": 64}, {"time": 1560, "pitch": 65, "duration": 12, "velocity": 64}, {"time": 1572, "pitch": 63, "duration": 12, "velocity": 64}, {"time": 1584, "pitch": 68, "duration": 24, "velocity": 64}, {"time": 1608, "pitch": 68, "duration": 12, "velocity": 64}, {"time": 1620, "pitch": 65, "duration": 12, "velocity": 64}, {"time": 1632, "pitch": 63, "duration": 48, "velocity": 64}, {"time": 1680, "pitch": 70, "duration": 24, "velocity": 64}, {"time": 1704, "pitch": 70, "duration": 24, "velocity": 64}, {"time": 1728, "pitch": 75, "duration": 48, "velocity": 64}, {"time": 1776, "pitch": 77, "duration": 12, "velocity": 64}, {"time": 1788, "pitch": 75, "duration": 12, "velocity": 64}, {"time": 1800, "pitch": 72, "duration": 12, "velocity": 64}, {"time": 1812, "pitch": 75, "duration": 12, "velocity": 64}, {"time": 1824, "pitch": 70, "duration": 48, "velocity": 64}, {"time": 1872, "pitch": 75, "duration": 24, "velocity": 64}, {"time": 1896, "pitch": 75, "duration": 12, "velocity": 64}, {"time": 1908, "pitch": 77, "duration": 12, "velocity": 64}, {"time": 1920, "pitch": 75, "duration": 24, "velocity": 64}, {"time": 1944, "pitch": 68, "duration": 12, "velocity": 64}, {"time": 1956, "pitch": 70, "duration": 12, "velocity": 64}, {"time": 1968, "pitch": 75, "duration": 24, "velocity": 64}, {"time": 1992, "pitch": 72, "duration": 12, "velocity": 64}, {"time": 2004, "pitch": 70, "duration": 12, "velocity": 64}, {"time": 2016, "pitch": 68, "duration": 48, "velocity": 64}, {"time": 2064, "pitch": 68, "duration": 24, "velocity": 64}, {"time": 2088, "pitch": 65, "duration": 12, "velocity": 64}, {"time": 2100, "pitch": 72, "duration": 12, "velocity": 64}, {"time": 2112, "pitch": 70, "duration": 48, "velocity": 64}, {"time": 2160, "pitch": 75, "duration": 24, "velocity": 64}, {"time": 2184, "pitch": 75, "duration": 24, "velocity": 64}, {"time": 2208, "pitch": 75, "duration": 12, "velocity": 64}, {"time": 2220, "pitch": 72, "duration": 12, "velocity": 64}, {"time": 2232, "pitch": 70, "duration": 12, "velocity": 64}, {"time": 2244, "pitch": 68, "duration": 12, "velocity": 64}, {"time": 2256, "pitch": 68, "duration": 12, "velocity": 64}, {"time": 2268, "pitch": 63, "duration": 24, "velocity": 64}, {"time": 2292, "pitch": 65, "duration": 12, "velocity": 64}, {"time": 2304, "pitch": 68, "duration": 24, "velocity": 64}, {"time": 2328, "pitch": 75, "duration": 12, "velocity": 64}, {"time": 2340, "pitch": 72, "duration": 12, "velocity": 64}, {"time": 2352, "pitch": 70, "duration": 12, "velocity": 64}, {"time": 2364, "pitch": 65, "duration": 12, "velocity": 64}, {"time": 2376, "pitch": 68, "duration": 12, "velocity": 64}, {"time": 2388, "pitch": 65, "duration": 12, "velocity": 64}, {"time": 2400, "pitch": 63, "duration": 48, "velocity": 64}, {"time": 2448, "pitch": 70, "duration": 24, "velocity": 64}, {"time": 2472, "pitch": 70, "duration": 24, "velocity": 64}, {"time": 2496, "pitch": 75, "duration": 48, "velocity": 64}, {"time": 2544, "pitch": 77, "duration": 12, "velocity": 64}, {"time": 2556, "pitch": 75, "duration": 12, "velocity": 64}, {"time": 2568, "pitch": 72, "duration": 12, "velocity": 64}, {"time": 2580, "pitch": 75, "duration": 12, "velocity": 64}, {"time": 2592, "pitch": 70, "duration": 48, "velocity": 64}, {"time": 2640, "pitch": 75, "duration": 24, "velocity": 64}, {"time": 2664, "pitch": 75, "duration": 12, "velocity": 64}, {"time": 2676, "pitch": 77, "duration": 12, "velocity": 64}, {"time": 2688, "pitch": 75, "duration": 24, "velocity": 64}, {"time": 2712, "pitch": 68, "duration": 12, "velocity": 64}, {"time": 2724, "pitch": 70, "duration": 12, "velocity": 64}, {"time": 2736, "pitch": 75, "duration": 24, "velocity": 64}, {"time": 2760, "pitch": 72, "duration": 12, "velocity": 64}, {"time": 2772, "pitch": 70, "duration": 12, "velocity": 64}, {"time": 2784, "pitch": 68, "duration": 48, "velocity": 64}, {"time": 2832, "pitch": 68, "duration": 24, "velocity": 64}, {"time": 2856, "pitch": 65, "duration": 12, "velocity": 64}, {"time": 2868, "pitch": 68, "duration": 12, "velocity": 64}, {"time": 2880, "pitch": 70, "duration": 48, "velocity": 64}, {"time": 2928, "pitch": 75, "duration": 24, "velocity": 64}, {"time": 2952, "pitch": 75, "duration": 24, "velocity": 64}, {"time": 2976, "pitch": 75, "duration": 12, "velocity": 64}, {"time": 2988, "pitch": 72, "duration": 12, "velocity": 64}, {"time": 3000, "pitch": 70, "duration": 12, "velocity": 64}, {"time": 3012, "pitch": 68, "duration": 12, "velocity": 64}, {"time": 3024, "pitch": 68, "duration": 12, "velocity": 64}, {"time": 3036, "pitch": 63, "duration": 24, "velocity": 64}, {"time": 3060, "pitch": 65, "duration": 12, "velocity": 64}, {"time": 3072, "pitch": 68, "duration": 24, "velocity": 64}, {"time": 3096, "pitch": 75, "duration": 12, "velocity": 64}, {"time": 3108, "pitch": 72, "duration": 12, "velocity": 64}, {"time": 3120, "pitch": 70, "duration": 12, "velocity": 64}, {"time": 3132, "pitch": 65, "duration": 12, "velocity": 64}, {"time": 3144, "pitch": 68, "duration": 18, "velocity": 64}, {"time": 3162, "pitch": 65, "duration": 6, "velocity": 64}, {"time": 3168, "pitch": 63, "duration": 48, "velocity": 64}, {"time": 3216, "pitch": 75, "duration": 24, "velocity": 64}, {"time": 3240, "pitch": 75, "duration": 96, "velocity": 64}, {"time": 3336, "pitch": 75, "duration": 12, "velocity": 64}, {"time": 3348, "pitch": 75, "duration": 12, "velocity": 64}, {"time": 3360, "pitch": 75, "duration": 12, "velocity": 64}, {"time": 3372, "pitch": 80, "duration": 12, "velocity": 64}, {"time": 3384, "pitch": 77, "duration": 12, "velocity": 64}, {"time": 3396, "pitch": 75, "duration": 12, "velocity": 64}, {"time": 3408, "pitch": 72, "duration": 18, "velocity": 64}, {"time": 3426, "pitch": 70, "duration": 6, "velocity": 64}, {"time": 3432, "pitch": 68, "duration": 24, "velocity": 64}, {"time": 3456, "pitch": 70, "duration": 12, "velocity": 64}, {"time": 3468, "pitch": 72, "duration": 12, "velocity": 64}, {"time": 3480, "pitch": 70, "duration": 72, "velocity": 64}, {"time": 3552, "pitch": 68, "duration": 12, "velocity": 64}, {"time": 3564, "pitch": 65, "duration": 12, "velocity": 64}, {"time": 3576, "pitch": 72, "duration": 24, "velocity": 64}, {"time": 3600, "pitch": 70, "duration": 18, "velocity": 64}, {"time": 3618, "pitch": 65, "duration": 6, "velocity": 64}, {"time": 3624, "pitch": 68, "duration": 12, "velocity": 64}, {"time": 3636, "pitch": 65, "duration": 12, "velocity": 64}, {"time": 3648, "pitch": 63, "duration": 48, "velocity": 64}, {"time": 3696, "pitch": 72, "duration": 12, "velocity": 64}, {"time": 3708, "pitch": 75, "duration": 24, "velocity": 64}, {"time": 3732, "pitch": 72, "duration": 12, "velocity": 64}, {"time": 3744, "pitch": 75, "duration": 24, "velocity": 64}, {"time": 3768, "pitch": 72, "duration": 12, "velocity": 64}, {"time": 3780, "pitch": 70, "duration": 12, "velocity": 64}, {"time": 3792, "pitch": 68, "duration": 24, "velocity": 64}, {"time": 3816, "pitch": 63, "duration": 24, "velocity": 64}, {"time": 3840, "pitch": 72, "duration": 24, "velocity": 64}, {"time": 3864, "pitch": 77, "duration": 24, "velocity": 64}, {"time": 3888, "pitch": 75, "duration": 24, "velocity": 64}, {"time": 3912, "pitch": 68, "duration": 24, "velocity": 64}, {"time": 3936, "pitch": 70, "duration": 18, "velocity": 64}, {"time": 3954, "pitch": 72, "duration": 6, "velocity": 64}, {"time": 3960, "pitch": 68, "duration": 12, "velocity": 64}, {"time": 3972, "pitch": 65, "duration": 12, "velocity": 64}, {"time": 3984, "pitch": 63, "duration": 48, "velocity": 64}, {"time": 4032, "pitch": 75, "duration": 24, "velocity": 64}, {"time": 4056, "pitch": 70, "duration": 60, "velocity": 64}, {"time": 4116, "pitch": 70, "duration": 12, "velocity": 64}, {"time": 4128, "pitch": 75, "duration": 24, "velocity": 64}, {"time": 4152, "pitch": 77, "duration": 12, "velocity": 64}, {"time": 4164, "pitch": 75, "duration": 12, "velocity": 64}, {"time": 4176, "pitch": 72, "duration": 18, "velocity": 64}, {"time": 4194, "pitch": 70, "duration": 6, "velocity": 64}, {"time": 4200, "pitch": 68, "duration": 24, "velocity": 64}, {"time": 4266, "pitch": 68, "duration": 6, "velocity": 64}, {"time": 4272, "pitch": 70, "duration": 12, "velocity": 64}, {"time": 4284, "pitch": 72, "duration": 12, "velocity": 64}, {"time": 4296, "pitch": 70, "duration": 72, "velocity": 64}, {"time": 4368, "pitch": 68, "duration": 12, "velocity": 64}, {"time": 4380, "pitch": 65, "duration": 12, "velocity": 64}, {"time": 4392, "pitch": 75, "duration": 12, "velocity": 64}, {"time": 4404, "pitch": 72, "duration": 12, "velocity": 64}, {"time": 4416, "pitch": 70, "duration": 18, "velocity": 64}, {"time": 4434, "pitch": 65, "duration": 6, "velocity": 64}, {"time": 4440, "pitch": 68, "duration": 12, "velocity": 64}, {"time": 4452, "pitch": 65, "duration": 12, "velocity": 64}, {"time": 4464, "pitch": 63, "duration": 48, "velocity": 64}, {"time": 4512, "pitch": 72, "duration": 12, "velocity": 64}, {"time": 4524, "pitch": 75, "duration": 24, "velocity": 64}, {"time": 4548, "pitch": 72, "duration": 12, "velocity": 64}, {"time": 4560, "pitch": 75, "duration": 48, "velocity": 64}, {"time": 4608, "pitch": 65, "duration": 24, "velocity": 64}, {"time": 4656, "pitch": 77, "duration": 24, "velocity": 64}, {"time": 4680, "pitch": 75, "duration": 24, "velocity": 64}, {"time": 4704, "pitch": 75, "duration": 12, "velocity": 64}, {"time": 4716, "pitch": 72, "duration": 12, "velocity": 64}, {"time": 4728, "pitch": 70, "duration": 12, "velocity": 64}, {"time": 4740, "pitch": 68, "duration": 12, "velocity": 64}, {"time": 4752, "pitch": 68, "duration": 18, "velocity": 64}, {"time": 4770, "pitch": 63, "duration": 6, "velocity": 64}, {"time": 4776, "pitch": 65, "duration": 48, "velocity": 64}, {"time": 4848, "pitch": 70, "duration": 12, "velocity": 64}, {"time": 4860, "pitch": 70, "duration": 24, "velocity": 64}, {"time": 4884, "pitch": 75, "duration": 12, "velocity": 64}, {"time": 4896, "pitch": 68, "duration": 12, "velocity": 64}, {"time": 4908, "pitch": 65, "duration": 12, "velocity": 64}, {"time": 4920, "pitch": 63, "duration": 24, "velocity": 64}, {"time": 4944, "pitch": 63, "duration": 12, "velocity": 64}, {"time": 4956, "pitch": 65, "duration": 12, "velocity": 64}, {"time": 4968, "pitch": 68, "duration": 12, "velocity": 64}, {"time": 4980, "pitch": 72, "duration": 12, "velocity": 64}, {"time": 4992, "pitch": 70, "duration": 12, "velocity": 64}, {"time": 5004, "pitch": 65, "duration": 12, "velocity": 64}, {"time": 5016, "pitch": 68, "duration": 12, "velocity": 64}, {"time": 5028, "pitch": 65, "duration": 12, "velocity": 64}, {"time": 5040, "pitch": 75, "duration": 96, "velocity": 64}]}]}