{"metadata": {"schema_version": "0.1", "title": "Wo yiren kanle yi tai xi", "source_format": "abc"}, "resolution": 24, "tempos": [{"time": 0, "qpm": 120.0}], "key_signatures": [{"time": 0, "root": 5, "mode": "major", "fifths": -1}], "time_signatures": [{"time": 0, "numerator": 2, "denominator": 4}], "beats": [{"time": 0, "is_downbeat": true}, {"time": 24, "is_downbeat": false}, {"time": 48, "is_downbeat": true}, {"time": 72, "is_downbeat": false}, {"time": 96, "is_downbeat": true}, {"time": 120, "is_downbeat": false}, {"time": 144, "is_downbeat": true}, {"time": 168, "is_downbeat": false}, {"time": 192, "is_downbeat": true}, {"time": 216, "is_downbeat": false}, {"time": 240, "is_downbeat": true}, {"time": 264, "is_downbeat": false}, {"time": 288, "is_downbeat": true}, {"time": 312, "is_downbeat": false}, {"time": 336, "is_downbeat": true}, {"time": 360, "is_downbeat": false}, {"time": 384, "is_downbeat": true}, {"time": 408, "is_downbeat": false}, {"time": 432, "is_downbeat": true}, {"time": 456, "is_downbeat": false}, {"time": 480, "is_downbeat": true}, {"time": 504, "is_downbeat": false}, {"time": 528, "is_downbeat": true}, {"time": 552, "is_downbeat": false}, {"time": 576, "is_downbeat": true}, {"time": 600, "is_downbeat": false}, {"time": 624, "is_downbeat": true}, {"time": 648, "is_downbeat": false}, {"time": 672, "is_downbeat": true}, {"time": 696, "is_downbeat": false}, {"time": 720, "is_downbeat": true}, {"time": 744, "is_downbeat": false}, {"time": 768, "is_downbeat": true}, {"time": 792, "is_downbeat": false}, {"time": 816, "is_downbeat": true}, {"time": 840, "is_downbeat": false}, {"time": 864, "is_downbeat": true}, {"time": 888, "is_downbeat": false}, {"time": 912, "is_downbeat": true}, {"time": 936, "is_downbeat": false}, {"time": 960, "is_downbeat": true}, {"time": 984, "is_downbeat": false}, {"time": 1008, "is_downbeat": true}, {"time": 1032, "is_downbeat": false}, {"time": 1056, "is_downbeat": true}, {"time": 1080, "is_downbeat": false}, {"time": 1104, "is_downbeat": true}, {"time": 1128, "is_downbeat": false}, {"time": 1152, "is_downbeat": true}, {"time": 1176, "is_downbeat": false}, {"time": 1200, "is_downbeat": true}, {"time": 1224, "is_downbeat": false}, {"time": 1248, "is_downbeat": true}, {"time": 1272, "is_downbeat": false}, {"time": 1296, "is_downbeat": true}, {"time": 1320, "is_downbeat": false}, {"time": 1344, "is_downbeat": true}, {"time": 1368, "is_downbeat": false}, {"time": 1392, "is_downbeat": true}, {"time": 1416, "is_downbeat": false}, {"time": 1440, "is_downbeat": true}, {"time": 1464, "is_downbeat": false}, {"time": 1488, "is_downbeat": true}, {"time": 1512, "is_downbeat": false}, {"time": 1536, "is_downbeat": true}, {"time": 1560, "is_downbeat": false}, {"time": 1584, "is_downbeat": true}, {"time": 1608, "is_downbeat": false}, {"time": 1632, "is_downbeat": true}, {"time": 1656, "is_downbeat": false}, {"time": 1680, "is_downbeat": true}, {"time": 1704, "is_downbeat": false}, {"time": 1728, "is_downbeat": true}, {"time": 1752, "is_downbeat": false}, {"time": 1776, "is_downbeat": true}, {"time": 1800, "is_downbeat": false}, {"time": 1824, "is_downbeat": true}, {"time": 1848, "is_downbeat": false}, {"time": 1872, "is_downbeat": true}, {"time": 1896, "is_downbeat": false}, {"time": 1920, "is_downbeat": true}, {"time": 1944, "is_downbeat": false}, {"time": 1968, "is_downbeat": true}, {"time": 1992, "is_downbeat": false}, {"time": 2016, "is_downbeat": true}, {"time": 2040, "is_downbeat": false}, {"time": 2064, "is_downbeat": true}, {"time": 2088, "is_downbeat": false}, {"time": 2112, "is_downbeat": true}, {"time": 2136, "is_downbeat": false}, {"time": 2160, "is_downbeat": true}, {"time": 2184, "is_downbeat": false}, {"time": 2208, "is_downbeat": true}, {"time": 2232, "is_downbeat": false}, {"time": 2256, "is_downbeat": true}, {"time": 2280, "is_downbeat": false}, {"time": 2304, "is_downbeat": true}, {"time": 2328, "is_downbeat": false}, {"time": 2352, "is_downbeat": true}, {"time": 2376, "is_downbeat": false}, {"time": 2400, "is_downbeat": true}, {"time": 2424, "is_downbeat": false}, {"time": 2448, "is_downbeat": true}, {"time": 2472, "is_downbeat": false}, {"time": 2496, "is_downbeat": true}, {"time": 2520, "is_downbeat": false}, {"time": 2544, "is_downbeat": true}, {"time": 2568, "is_downbeat": false}, {"time": 2592, "is_downbeat": true}, {"time": 2616, "is_downbeat": false}, {"time": 2640, "is_downbeat": true}, {"time": 2664, "is_downbeat": false}, {"time": 2688, "is_downbeat": true}, {"time": 2712, "is_downbeat": false}, {"time": 2736, "is_downbeat": true}, {"time": 2760, "is_downbeat": false}, {"time": 2784, "is_downbeat": true}, {"time": 2808, "is_downbeat": false}, {"time": 2832, "is_downbeat": true}, {"time": 2856, "is_downbeat": false}, {"time": 2880, "is_downbeat": true}, {"time": 2904, "is_downbeat": false}, {"time": 2928, "is_downbeat": true}, {"time": 2952, "is_downbeat": false}, {"time": 2976, "is_downbeat": true}, {"time": 3000, "is_downbeat": false}, {"time": 3024, "is_downbeat": true}, {"time": 3048, "is_downbeat": false}, {"time": 3072, "is_downbeat": true}, {"time": 3096, "is_downbeat": false}, {"time": 3120, "is_downbeat": true}, {"time": 3144, "is_downbeat": false}, {"time": 3168, "is_downbeat": true}, {"time": 3192, "is_downbeat": false}, {"time": 3216, "is_downbeat": true}, {"time": 3240, "is_downbeat": false}, {"time": 3264, "is_downbeat": true}, {"time": 3288, "is_downbeat": false}, {"time": 3312, "is_downbeat": true}, {"time": 3336, "is_downbeat": false}, {"time": 3360, "is_downbeat": true}, {"time": 3384, "is_downbeat": false}, {"time": 3408, "is_downbeat": true}, {"time": 3432, "is_downbeat": false}, {"time": 3456, "is_downbeat": true}, {"time": 3480, "is_downbeat": false}, {"time": 3504, "is_downbeat": true}, {"time": 3528, "is_downbeat": false}, {"time": 3552, "is_downbeat": true}, {"time": 3576, "is_downbeat": false}, {"time": 3600, "is_downbeat": true}, {"time": 3624, "is_downbeat": false}, {"time": 3648, "is_downbeat": true}, {"time": 3672, "is_downbeat": false}, {"time": 3696, "is_downbeat": true}, {"time": 3720, "is_downbeat": false}, {"time": 3744, "is_downbeat": true}, {"time": 3768, "is_downbeat": false}, {"time": 3792, "is_downbeat": true}, {"time": 3816, "is_downbeat": false}, {"time": 3840, "is_downbeat": true}, {"time": 3864, "is_downbeat": false}], "tracks": [{"program": 0, "is_drum": false, "notes": [{"time": 0, "pitch": 72, "duration": 24, "velocity": 64}, {"time": 24, "pitch": 67, "duration": 18, "velocity": 64}, {"time": 42, "pitch": 72, "duration": 6, "velocity": 64}, {"time": 48, "pitch": 72, "duration": 12, "velocity": 64}, {"time": 60, "pitch": 72, "duration": 12, "velocity": 64}, {"time": 72, "pitch": 76, "duration": 24, "velocity": 64}, {"time": 96, "pitch": 72, "duration": 12, "velocity": 64}, {"time": 108, "pitch": 72, "duration": 6, "velocity": 64}, {"time": 114, "pitch": 76, "duration": 6, "velocity": 64}, {"time": 120, "pitch": 72, "duration": 6, "velocity": 64}, {"time": 126, "pitch": 70, "duration": 6, "velocity": 64}, {"time": 132, "pitch": 64, "duration": 6, "velocity": 64}, {"time": 138, "pitch": 65, "duration": 6, "velocity": 64}, {"time": 144, "pitch": 67, "duration": 48, "velocity": 64}, {"time": 192, "pitch": 72, "duration": 24, "velocity": 64}, {"time": 216, "pitch": 67, "duration": 12, "velocity": 64}, {"time": 228, "pitch": 72, "duration": 12, "velocity": 64}, {"time": 240, "pitch": 76, "duration": 12, "velocity": 64}, {"time": 252, "pitch": 72, "duration": 12, "velocity": 64}, {"time": 264, "pitch": 72, "duration": 24, "velocity": 64}, {"time": 288, "pitch": 65, "duration": 12, "velocity": 64}, {"time": 300, "pitch": 64, "duration": 6, "velocity": 64}, {"time": 306, "pitch": 65, "duration": 6, "velocity": 64}, {"time": 312, "pitch": 67, "duration": 12, "velocity": 64}, {"time": 324, "pitch": 65, "duration": 12, "velocity": 64}, {"time": 336, "pitch": 60, "duration": 48, "velocity": 64}, {"time": 384, "pitch": 65, "duration": 12, "velocity": 64}, {"time": 396, "pitch": 62, "duration": 6, "velocity": 64}, {"time": 402, "pitch": 60, "duration": 6, "velocity": 64}, {"time": 408, "pitch": 59, "duration": 6, "velocity": 64}, {"time": 414, "pitch": 60, "duration": 6, "velocity": 64}, {"time": 420, "pitch": 62, "duration": 6, "velocity": 64}, {"time": 426, "pitch": 60, "duration": 6, "velocity": 64}, {"time": 432, "pitch": 60, "duration": 12, "velocity": 64}, {"time": 444, "pitch": 60, "duration": 36, "velocity": 64}, {"time": 480, "pitch": 65, "duration": 24, "velocity": 64}, {"time": 504, "pitch": 67, "duration": 24, "velocity": 64}, {"time": 528, "pitch": 72, "duration": 6, "velocity": 64}, {"time": 534, "pitch": 64, "duration": 6, "velocity": 64}, {"time": 540, "pitch": 72, "duration": 6, "velocity": 64}, {"time": 546, "pitch": 67, "duration": 6, "velocity": 64}, {"time": 552, "pitch": 70, "duration": 24, "velocity": 64}, {"time": 576, "pitch": 67, "duration": 12, "velocity": 64}, {"time": 588, "pitch": 67, "duration": 12, "velocity": 64}, {"time": 600, "pitch": 72, "duration": 18, "velocity": 64}, {"time": 618, "pitch": 76, "duration": 6, "velocity": 64}, {"time": 624, "pitch": 64, "duration": 18, "velocity": 64}, {"time": 642, "pitch": 65, "duration": 6, "velocity": 64}, {"time": 648, "pitch": 67, "duration": 24, "velocity": 64}, {"time": 672, "pitch": 70, "duration": 12, "velocity": 64}, {"time": 684, "pitch": 67, "duration": 6, "velocity": 64}, {"time": 690, "pitch": 70, "duration": 6, "velocity": 64}, {"time": 696, "pitch": 67, "duration": 12, "velocity": 64}, {"time": 708, "pitch": 65, "duration": 12, "velocity": 64}, {"time": 720, "pitch": 60, "duration": 48, "velocity": 64}, {"time": 768, "pitch": 65, "duration": 12, "velocity": 64}, {"time": 780, "pitch": 62, "duration": 6, "velocity": 64}, {"time": 786, "pitch": 60, "duration": 6, "velocity": 64}, {"time": 792, "pitch": 59, "duration": 6, "velocity": 64}, {"time": 798, "pitch": 60, "duration": 6, "velocity": 64}, {"time": 804, "pitch": 62, "duration": 6, "velocity": 64}, {"time": 810, "pitch": 60, "duration": 6, "velocity": 64}, {"time": 816, "pitch": 60, "duration": 12, "velocity": 64}, {"time": 828, "pitch": 60, "duration": 36, "velocity": 64}, {"time": 864, "pitch": 65, "duration": 24, "velocity": 64}, {"time": 888, "pitch": 67, "duration": 24, "velocity": 64}, {"time": 912, "pitch": 72, "duration": 12, "velocity": 64}, {"time": 924, "pitch": 74, "duration": 6, "velocity": 64}, {"time": 930, "pitch": 72, "duration": 6, "velocity": 64}, {"time": 936, "pitch": 67, "duration": 24, "velocity": 64}, {"time": 960, "pitch": 67, "duration": 24, "velocity": 64}, {"time": 984, "pitch": 72, "duration": 18, "velocity": 64}, {"time": 1002, "pitch": 74, "duration": 6, "velocity": 64}, {"time": 1008, "pitch": 72, "duration": 12, "velocity": 64}, {"time": 1020, "pitch": 65, "duration": 12, "velocity": 64}, {"time": 1032, "pitch": 67, "duration": 24, "velocity": 64}, {"time": 1056, "pitch": 67, "duration": 18, "velocity": 64}, {"time": 1074, "pitch": 72, "duration": 6, "velocity": 64}, {"time": 1080, "pitch": 65, "duration": 12, "velocity": 64}, {"time": 1092, "pitch": 62, "duration": 6, "velocity": 64}, {"time": 1098, "pitch": 60, "duration": 6, "velocity": 64}, {"time": 1104, "pitch": 60, "duration": 48, "velocity": 64}, {"time": 1152, "pitch": 65, "duration": 12, "velocity": 64}, {"time": 1164, "pitch": 65, "duration": 12, "velocity": 64}, {"time": 1176, "pitch": 62, "duration": 12, "velocity": 64}, {"time": 1188, "pitch": 60, "duration": 12, "velocity": 64}, {"time": 1200, "pitch": 59, "duration": 12, "velocity": 64}, {"time": 1212, "pitch": 58, "duration": 12, "velocity": 64}, {"time": 1224, "pitch": 60, "duration": 24, "velocity": 64}, {"time": 1248, "pitch": 65, "duration": 12, "velocity": 64}, {"time": 1260, "pitch": 62, "duration": 6, "velocity": 64}, {"time": 1266, "pitch": 65, "duration": 6, "velocity": 64}, {"time": 1272, "pitch": 60, "duration": 12, "velocity": 64}, {"time": 1284, "pitch": 60, "duration": 12, "velocity": 64}, {"time": 1296, "pitch": 59, "duration": 12, "velocity": 64}, {"time": 1308, "pitch": 58, "duration": 12, "velocity": 64}, {"time": 1320, "pitch": 60, "duration": 24, "velocity": 64}, {"time": 1356, "pitch": 67, "duration": 12, "velocity": 64}, {"time": 1368, "pitch": 65, "duration": 12, "velocity": 64}, {"time": 1380, "pitch": 67, "duration": 12, "velocity": 64}, {"time": 1392, "pitch": 72, "duration": 18, "velocity": 64}, {"time": 1410, "pitch": 74, "duration": 6, "velocity": 64}, {"time": 1416, "pitch": 72, "duration": 84, "velocity": 64}, {"time": 1500, "pitch": 74, "duration": 6, "velocity": 64}, {"time": 1506, "pitch": 72, "duration": 6, "velocity": 64}, {"time": 1512, "pitch": 72, "duration": 12, "velocity": 64}, {"time": 1524, "pitch": 72, "duration": 12, "velocity": 64}, {"time": 1548, "pitch": 74, "duration": 6, "velocity": 64}, {"time": 1554, "pitch": 72, "duration": 6, "velocity": 64}, {"time": 1560, "pitch": 72, "duration": 12, "velocity": 64}, {"time": 1572, "pitch": 72, "duration": 12, "velocity": 64}, {"time": 1596, "pitch": 74, "duration": 6, "velocity": 64}, {"time": 1602, "pitch": 72, "duration": 6, "velocity": 64}, {"time": 1608, "pitch": 71, "duration": 12, "velocity": 64}, {"time": 1620, "pitch": 72, "duration": 12, "velocity": 64}, {"time": 1632, "pitch": 70, "duration": 12, "velocity": 64}, {"time": 1644, "pitch": 72, "duration": 12, "velocity": 64}, {"time": 1656, "pitch": 77, "duration": 18, "velocity": 64}, {"time": 1674, "pitch": 74, "duration": 6, "velocity": 64}, {"time": 1680, "pitch": 72, "duration": 96, "velocity": 64}, {"time": 1824, "pitch": 65, "duration": 24, "velocity": 64}, {"time": 1848, "pitch": 67, "duration": 18, "velocity": 64}, {"time": 1866, "pitch": 72, "duration": 6, "velocity": 64}, {"time": 1872, "pitch": 65, "duration": 12, "velocity": 64}, {"time": 1884, "pitch": 67, "duration": 6, "velocity": 64}, {"time": 1890, "pitch": 65, "duration": 6, "velocity": 64}, {"time": 1896, "pitch": 60, "duration": 12, "velocity": 64}, {"time": 1908, "pitch": 60, "duration": 12, "velocity": 64}, {"time": 1920, "pitch": 65, "duration": 24, "velocity": 64}, {"time": 1944, "pitch": 67, "duration": 18, "velocity": 64}, {"time": 1962, "pitch": 74, "duration": 6, "velocity": 64}, {"time": 1968, "pitch": 72, "duration": 12, "velocity": 64}, {"time": 1980, "pitch": 74, "duration": 6, "velocity": 64}, {"time": 1986, "pitch": 72, "duration": 6, "velocity": 64}, {"time": 1992, "pitch": 67, "duration": 12, "velocity": 64}, {"time": 2004, "pitch": 64, "duration": 12, "velocity": 64}, {"time": 2016, "pitch": 72, "duration": 12, "velocity": 64}, {"time": 2028, "pitch": 67, "duration": 6, "velocity": 64}, {"time": 2034, "pitch": 72, "duration": 6, "velocity": 64}, {"time": 2040, "pitch": 67, "duration": 12, "velocity": 64}, {"time": 2052, "pitch": 65, "duration": 12, "velocity": 64}, {"time": 2064, "pitch": 67, "duration": 6, "velocity": 64}, {"time": 2070, "pitch": 65, "duration": 6, "velocity": 64}, {"time": 2076, "pitch": 60, "duration": 24, "velocity": 64}, {"time": 2100, "pitch": 60, "duration": 12, "velocity": 64}, {"time": 2112, "pitch": 62, "duration": 24, "velocity": 64}, {"time": 2136, "pitch": 55, "duration": 24, "velocity": 64}, {"time": 2160, "pitch": 65, "duration": 12, "velocity": 64}, {"time": 2172, "pitch": 62, "duration": 6, "velocity": 64}, {"time": 2178, "pitch": 60, "duration": 6, "velocity": 64}, {"time": 2184, "pitch": 60, "duration": 12, "velocity": 64}, {"time": 2196, "pitch": 60, "duration": 12, "velocity": 64}, {"time": 2208, "pitch": 65, "duration": 12, "velocity": 64}, {"time": 2220, "pitch": 60, "duration": 6, "velocity": 64}, {"time": 2226, "pitch": 65, "duration": 6, "velocity": 64}, {"time": 2232, "pitch": 67, "duration": 6, "velocity": 64}, {"time": 2238, "pitch": 72, "duration": 6, "velocity": 64}, {"time": 2244, "pitch": 65, "duration": 12, "velocity": 64}, {"time": 2256, "pitch": 67, "duration": 48, "velocity": 64}, {"time": 2304, "pitch": 72, "duration": 24, "velocity": 64}, {"time": 2328, "pitch": 74, "duration": 24, "velocity": 64}, {"time": 2352, "pitch": 72, "duration": 6, "velocity": 64}, {"time": 2358, "pitch": 67, "duration": 6, "velocity": 64}, {"time": 2364, "pitch": 72, "duration": 84, "velocity": 64}, {"time": 2448, "pitch": 72, "duration": 12, "velocity": 64}, {"time": 2460, "pitch": 67, "duration": 6, "velocity": 64}, {"time": 2466, "pitch": 72, "duration": 6, "velocity": 64}, {"time": 2472, "pitch": 67, "duration": 6, "velocity": 64}, {"time": 2478, "pitch": 69, "duration": 6, "velocity": 64}, {"time": 2484, "pitch": 67, "duration": 6, "velocity": 64}, {"time": 2490, "pitch": 65, "duration": 6, "velocity": 64}, {"time": 2496, "pitch": 67, "duration": 6, "velocity": 64}, {"time": 2502, "pitch": 65, "duration": 6, "velocity": 64}, {"time": 2508, "pitch": 60, "duration": 12, "velocity": 64}, {"time": 2520, "pitch": 65, "duration": 24, "velocity": 64}, {"time": 2544, "pitch": 65, "duration": 12, "velocity": 64}, {"time": 2556, "pitch": 64, "duration": 6, "velocity": 64}, {"time": 2562, "pitch": 65, "duration": 6, "velocity": 64}, {"time": 2568, "pitch": 67, "duration": 6, "velocity": 64}, {"time": 2574, "pitch": 72, "duration": 6, "velocity": 64}, {"time": 2580, "pitch": 65, "duration": 6, "velocity": 64}, {"time": 2586, "pitch": 67, "duration": 6, "velocity": 64}, {"time": 2592, "pitch": 60, "duration": 48, "velocity": 64}, {"time": 2640, "pitch": 65, "duration": 12, "velocity": 64}, {"time": 2652, "pitch": 62, "duration": 6, "velocity": 64}, {"time": 2658, "pitch": 60, "duration": 6, "velocity": 64}, {"time": 2664, "pitch": 62, "duration": 6, "velocity": 64}, {"time": 2670, "pitch": 60, "duration": 6, "velocity": 64}, {"time": 2676, "pitch": 55, "duration": 12, "velocity": 64}, {"time": 2688, "pitch": 60, "duration": 12, "velocity": 64}, {"time": 2700, "pitch": 60, "duration": 36, "velocity": 64}, {"time": 2736, "pitch": 65, "duration": 24, "velocity": 64}, {"time": 2760, "pitch": 67, "duration": 18, "velocity": 64}, {"time": 2778, "pitch": 72, "duration": 6, "velocity": 64}, {"time": 2784, "pitch": 65, "duration": 12, "velocity": 64}, {"time": 2796, "pitch": 67, "duration": 6, "velocity": 64}, {"time": 2802, "pitch": 65, "duration": 6, "velocity": 64}, {"time": 2808, "pitch": 60, "duration": 12, "velocity": 64}, {"time": 2820, "pitch": 60, "duration": 12, "velocity": 64}, {"time": 2832, "pitch": 65, "duration": 24, "velocity": 64}, {"time": 2856, "pitch": 67, "duration": 18, "velocity": 64}, {"time": 2874, "pitch": 74, "duration": 6, "velocity": 64}, {"time": 2880, "pitch": 72, "duration": 12, "velocity": 64}, {"time": 2892, "pitch": 74, "duration": 6, "velocity": 64}, {"time": 2898, "pitch": 72, "duration": 6, "velocity": 64}, {"time": 2904, "pitch": 67, "duration": 12, "velocity": 64}, {"time": 2916, "pitch": 64, "duration": 12, "velocity": 64}, {"time": 2928, "pitch": 72, "duration": 12, "velocity": 64}, {"time": 2940, "pitch": 67, "duration": 6, "velocity": 64}, {"time": 2946, "pitch": 72, "duration": 6, "velocity": 64}, {"time": 2952, "pitch": 67, "duration": 12, "velocity": 64}, {"time": 2964, "pitch": 65, "duration": 12, "velocity": 64}, {"time": 2976, "pitch": 67, "duration": 6, "velocity": 64}, {"time": 2982, "pitch": 65, "duration": 6, "velocity": 64}, {"time": 2988, "pitch": 60, "duration": 24, "velocity": 64}, {"time": 3012, "pitch": 60, "duration": 12, "velocity": 64}, {"time": 3024, "pitch": 62, "duration": 24, "velocity": 64}, {"time": 3048, "pitch": 55, "duration": 24, "velocity": 64}, {"time": 3072, "pitch": 65, "duration": 12, "velocity": 64}, {"time": 3084, "pitch": 62, "duration": 6, "velocity": 64}, {"time": 3090, "pitch": 60, "duration": 6, "velocity": 64}, {"time": 3096, "pitch": 60, "duration": 12, "velocity": 64}, {"time": 3108, "pitch": 60, "duration": 12, "velocity": 64}, {"time": 3120, "pitch": 65, "duration": 12, "velocity": 64}, {"time": 3132, "pitch": 60, "duration": 6, "velocity": 64}, {"time": 3138, "pitch": 65, "duration": 6, "velocity": 64}, {"time": 3144, "pitch": 67, "duration": 6, "velocity": 64}, {"time": 3150, "pitch": 72, "duration": 6, "velocity": 64}, {"time": 3156, "pitch": 65, "duration": 12, "velocity": 64}, {"time": 3168, "pitch": 67, "duration": 48, "velocity": 64}, {"time": 3216, "pitch": 72, "duration": 24, "velocity": 64}, {"time": 3240, "pitch": 74, "duration": 24, "velocity": 64}, {"time": 3264, "pitch": 72, "duration": 6, "velocity": 64}, {"time": 3270, "pitch": 67, "duration": 6, "velocity": 64}, {"time": 3276, "pitch": 72, "duration": 84, "velocity": 64}, {"time": 3360, "pitch": 72, "duration": 12, "velocity": 64}, {"time": 3372, "pitch": 67, "duration": 6, "velocity": 64}, {"time": 3378, "pitch": 72, "duration": 6, "velocity": 64}, {"time": 3384, "pitch": 67, "duration": 6, "velocity": 64}, {"time": 3390, "pitch": 69, "duration": 6, "velocity": 64}, {"time": 3396, "pitch": 67, "duration": 6, "velocity": 64}, {"time": 3402, "pitch": 65, "duration": 6, "velocity": 64}, {"time": 3408, "pitch": 67, "duration": 6, "velocity": 64}, {"time": 3414, "pitch": 65, "duration": 6, "velocity": 64}, {"time": 3420, "pitch": 60, "duration": 12, "velocity": 64}, {"time": 3432, "pitch": 65, "duration": 24, "velocity": 64}, {"time": 3456, "pitch": 65, "duration": 12, "velocity": 64}, {"time": 3468, "pitch": 64, "duration": 6, "velocity": 64}, {"time": 3474, "pitch": 65, "duration": 6, "velocity": 64}, {"time": 3480, "pitch": 67, "duration": 6, "velocity": 64}, {"time": 3486, "pitch": 72, "duration": 6, "velocity": 64}, {"time": 3492, "pitch": 65, "duration": 6, "velocity": 64}, {"time": 3498, "pitch": 67, "duration": 6, "velocity": 64}, {"time": 3504, "pitch": 60, "duration": 48, "velocity": 64}, {"time": 3600, "pitch": 74, "duration": 12, "velocity": 64}, {"time": 3612, "pitch": 74, "duration": 6, "velocity": 64}, {"time": 3618, "pitch": 72, "duration": 6, "velocity": 64}, {"time": 3624, "pitch": 74, "duration": 6, "velocity": 64}, {"time": 3630, "pitch": 72, "duration": 6, "velocity": 64}, {"time": 3636, "pitch": 67, "duration": 12, "velocity": 64}, {"time": 3648, "pitch": 72, "duration": 12, "velocity": 64}, {"time": 3660, "pitch": 72, "duration": 36, "velocity": 64}, {"time": 3696, "pitch": 72, "duration": 18, "velocity": 64}, {"time": 3714, "pitch": 72, "duration": 6, "velocity": 64}, {"time": 3720, "pitch": 70, "duration": 12, "velocity": 64}, {"time": 3732, "pitch": 72, "duration": 12, "velocity": 64}, {"time": 3744, "pitch": 74, "duration": 24, "velocity": 64}, {"time": 3768, "pitch": 74, "duration": 6, "velocity": 64}, {"time": 3774, "pitch": 72, "duration": 6, "velocity": 64}, {"time": 3780, "pitch": 67, "duration": 12, "velocity": 64}, {"time": 3792, "pitch": 72, "duration": 96, "velocity": 64}]}]}