{"metadata": {"schema_version": "0.1", "title": "Zhizi huaer shun qiang zai", "source_format": "abc"}, "resolution": 24, "tempos": [{"time": 0, "qpm": 120.0}], "key_signatures": [{"time": 0, "root": 9, "mode": "major", "fifths": 3}], "time_signatures": [{"time": 0, "numerator": 4, "denominator": 4}, {"time": 576, "numerator": 3, "denominator": 2}, {"time": 1104, "numerator": 8, "denominator": 4}, {"time": 1488, "numerator": 2, "denominator": 4}, {"time": 1632, "numerator": 3, "denominator": 2}, {"time": 2160, "numerator": 3, "denominator": 2}, {"time": 2784, "numerator": 3, "denominator": 2}, {"time": 2928, "numerator": 2, "denominator": 2}], "beats": [{"time": 0, "is_downbeat": true}, {"time": 48, "is_downbeat": false}, {"time": 96, "is_downbeat": true}, {"time": 144, "is_downbeat": false}, {"time": 192, "is_downbeat": true}, {"time": 240, "is_downbeat": false}, {"time": 288, "is_downbeat": true}, {"time": 336, "is_downbeat": false}, {"time": 384, "is_downbeat": true}, {"time": 432, "is_downbeat": false}, {"time": 480, "is_downbeat": true}, {"time": 528, "is_downbeat": false}, {"time": 576, "is_downbeat": true}, {"time": 600, "is_downbeat": false}, {"time": 624, "is_downbeat": false}, {"time": 648, "is_downbeat": false}, {"time": 672, "is_downbeat": false}, {"time": 696, "is_downbeat": false}, {"time": 720, "is_downbeat": true}, {"time": 744, "is_downbeat": false}, {"time": 768, "is_downbeat": false}, {"time": 792, "is_downbeat": false}, {"time": 816, "is_downbeat": true}, {"time": 840, "is_downbeat": false}, {"time": 864, "is_downbeat": false}, {"time": 888, "is_downbeat": false}, {"time": 912, "is_downbeat": true}, {"time": 936, "is_downbeat": false}, {"time": 960, "is_downbeat": false}, {"time": 984, "is_downbeat": false}, {"time": 1008, "is_downbeat": true}, {"time": 1032, "is_downbeat": false}, {"time": 1056, "is_downbeat": false}, {"time": 1080, "is_downbeat": false}, {"time": 1104, "is_downbeat": true}, {"time": 1128, "is_downbeat": false}, {"time": 1152, "is_downbeat": true}, {"time": 1176, "is_downbeat": false}, {"time": 1200, "is_downbeat": true}, {"time": 1224, "is_downbeat": false}, {"time": 1248, "is_downbeat": true}, {"time": 1272, "is_downbeat": false}, {"time": 1296, "is_downbeat": true}, {"time": 1320, "is_downbeat": false}, {"time": 1344, "is_downbeat": true}, {"time": 1368, "is_downbeat": false}, {"time": 1392, "is_downbeat": true}, {"time": 1416, "is_downbeat": false}, {"time": 1440, "is_downbeat": true}, {"time": 1464, "is_downbeat": false}, {"time": 1488, "is_downbeat": true}, {"time": 1536, "is_downbeat": true}, {"time": 1584, "is_downbeat": false}, {"time": 1632, "is_downbeat": true}, {"time": 1680, "is_downbeat": false}, {"time": 1728, "is_downbeat": false}, {"time": 1776, "is_downbeat": true}, {"time": 1824, "is_downbeat": false}, {"time": 1872, "is_downbeat": true}, {"time": 1920, "is_downbeat": false}, {"time": 1968, "is_downbeat": true}, {"time": 2016, "is_downbeat": false}, {"time": 2064, "is_downbeat": true}, {"time": 2112, "is_downbeat": false}, {"time": 2160, "is_downbeat": true}, {"time": 2208, "is_downbeat": false}, {"time": 2256, "is_downbeat": false}, {"time": 2304, "is_downbeat": true}, {"time": 2352, "is_downbeat": false}, {"time": 2400, "is_downbeat": true}, {"time": 2448, "is_downbeat": false}, {"time": 2496, "is_downbeat": true}, {"time": 2544, "is_downbeat": false}, {"time": 2592, "is_downbeat": true}, {"time": 2640, "is_downbeat": false}, {"time": 2688, "is_downbeat": true}, {"time": 2736, "is_downbeat": false}, {"time": 2784, "is_downbeat": true}, {"time": 2832, "is_downbeat": false}, {"time": 2880, "is_downbeat": true}, {"time": 2928, "is_downbeat": true}, {"time": 2976, "is_downbeat": false}, {"time": 3024, "is_downbeat": true}, {"time": 3072, "is_downbeat": false}, {"time": 3120, "is_downbeat": true}, {"time": 3168, "is_downbeat": false}, {"time": 3216, "is_downbeat": true}, {"time": 3264, "is_downbeat": false}], "tracks": [{"program": 0, "is_drum": false, "notes": [{"time": 0, "pitch": 83, "duration": 12, "velocity": 64}, {"time": 12, "pitch": 81, "duration": 12, "velocity": 64}, {"time": 24, "pitch": 83, "duration": 12, "velocity": 64}, {"time": 36, "pitch": 78, "duration": 60, "velocity": 64}, {"time": 96, "pitch": 73, "duration": 6, "velocity": 64}, {"time": 102, "pitch": 76, "duration": 6, "velocity": 64}, {"time": 108, "pitch": 83, "duration": 12, "velocity": 64}, {"time": 120, "pitch": 83, "duration": 6, "velocity": 64}, {"time": 126, "pitch": 76, "duration": 6, "velocity": 64}, {"time": 132, "pitch": 73, "duration": 12, "velocity": 64}, {"time": 144, "pitch": 73, "duration": 72, "velocity": 64}, {"time": 216, "pitch": 81, "duration": 24, "velocity": 64}, {"time": 240, "pitch": 73, "duration": 12, "velocity": 64}, {"time": 252, "pitch": 81, "duration": 12, "velocity": 64}, {"time": 264, "pitch": 83, "duration": 12, "velocity": 64}, {"time": 276, "pitch": 80, "duration": 12, "velocity": 64}, {"time": 288, "pitch": 78, "duration": 72, "velocity": 64}, {"time": 372, "pitch": 78, "duration": 12, "velocity": 64}, {"time": 384, "pitch": 81, "duration": 12, "velocity": 64}, {"time": 396, "pitch": 73, "duration": 12, "velocity": 64}, {"time": 408, "pitch": 83, "duration": 6, "velocity": 64}, {"time": 414, "pitch": 73, "duration": 6, "velocity": 64}, {"time": 420, "pitch": 83, "duration": 12, "velocity": 64}, {"time": 432, "pitch": 83, "duration": 6, "velocity": 64}, {"time": 438, "pitch": 73, "duration": 6, "velocity": 64}, {"time": 444, "pitch": 81, "duration": 12, "velocity": 64}, {"time": 456, "pitch": 83, "duration": 12, "velocity": 64}, {"time": 468, "pitch": 80, "duration": 12, "velocity": 64}, {"time": 480, "pitch": 78, "duration": 12, "velocity": 64}, {"time": 492, "pitch": 78, "duration": 84, "velocity": 64}, {"time": 624, "pitch": 73, "duration": 6, "velocity": 64}, {"time": 630, "pitch": 76, "duration": 6, "velocity": 64}, {"time": 636, "pitch": 73, "duration": 12, "velocity": 64}, {"time": 648, "pitch": 83, "duration": 12, "velocity": 64}, {"time": 660, "pitch": 73, "duration": 12, "velocity": 64}, {"time": 672, "pitch": 83, "duration": 12, "velocity": 64}, {"time": 684, "pitch": 73, "duration": 6, "velocity": 64}, {"time": 690, "pitch": 76, "duration": 6, "velocity": 64}, {"time": 696, "pitch": 73, "duration": 120, "velocity": 64}, {"time": 816, "pitch": 83, "duration": 6, "velocity": 64}, {"time": 822, "pitch": 73, "duration": 6, "velocity": 64}, {"time": 828, "pitch": 81, "duration": 12, "velocity": 64}, {"time": 840, "pitch": 78, "duration": 48, "velocity": 64}, {"time": 888, "pitch": 81, "duration": 24, "velocity": 64}, {"time": 912, "pitch": 83, "duration": 6, "velocity": 64}, {"time": 918, "pitch": 73, "duration": 6, "velocity": 64}, {"time": 924, "pitch": 83, "duration": 12, "velocity": 64}, {"time": 936, "pitch": 81, "duration": 12, "velocity": 64}, {"time": 948, "pitch": 83, "duration": 12, "velocity": 64}, {"time": 960, "pitch": 81, "duration": 12, "velocity": 64}, {"time": 972, "pitch": 73, "duration": 12, "velocity": 64}, {"time": 984, "pitch": 73, "duration": 18, "velocity": 64}, {"time": 1002, "pitch": 83, "duration": 6, "velocity": 64}, {"time": 1008, "pitch": 81, "duration": 12, "velocity": 64}, {"time": 1020, "pitch": 78, "duration": 84, "velocity": 64}, {"time": 1152, "pitch": 73, "duration": 12, "velocity": 64}, {"time": 1164, "pitch": 78, "duration": 12, "velocity": 64}, {"time": 1176, "pitch": 78, "duration": 6, "velocity": 64}, {"time": 1182, "pitch": 81, "duration": 6, "velocity": 64}, {"time": 1188, "pitch": 73, "duration": 12, "velocity": 64}, {"time": 1200, "pitch": 73, "duration": 12, "velocity": 64}, {"time": 1212, "pitch": 78, "duration": 12, "velocity": 64}, {"time": 1224, "pitch": 81, "duration": 48, "velocity": 64}, {"time": 1272, "pitch": 78, "duration": 24, "velocity": 64}, {"time": 1296, "pitch": 81, "duration": 12, "velocity": 64}, {"time": 1308, "pitch": 78, "duration": 6, "velocity": 64}, {"time": 1314, "pitch": 76, "duration": 6, "velocity": 64}, {"time": 1320, "pitch": 78, "duration": 48, "velocity": 64}, {"time": 1368, "pitch": 81, "duration": 24, "velocity": 64}, {"time": 1392, "pitch": 81, "duration": 12, "velocity": 64}, {"time": 1404, "pitch": 73, "duration": 12, "velocity": 64}, {"time": 1416, "pitch": 73, "duration": 12, "velocity": 64}, {"time": 1428, "pitch": 83, "duration": 12, "velocity": 64}, {"time": 1440, "pitch": 83, "duration": 6, "velocity": 64}, {"time": 1446, "pitch": 73, "duration": 6, "velocity": 64}, {"time": 1452, "pitch": 81, "duration": 12, "velocity": 64}, {"time": 1464, "pitch": 83, "duration": 48, "velocity": 64}, {"time": 1512, "pitch": 81, "duration": 24, "velocity": 64}, {"time": 1536, "pitch": 73, "duration": 6, "velocity": 64}, {"time": 1542, "pitch": 83, "duration": 6, "velocity": 64}, {"time": 1548, "pitch": 81, "duration": 12, "velocity": 64}, {"time": 1560, "pitch": 78, "duration": 72, "velocity": 64}, {"time": 1680, "pitch": 73, "duration": 6, "velocity": 64}, {"time": 1686, "pitch": 76, "duration": 6, "velocity": 64}, {"time": 1692, "pitch": 73, "duration": 12, "velocity": 64}, {"time": 1704, "pitch": 83, "duration": 12, "velocity": 64}, {"time": 1716, "pitch": 83, "duration": 12, "velocity": 64}, {"time": 1728, "pitch": 76, "duration": 12, "velocity": 64}, {"time": 1740, "pitch": 76, "duration": 12, "velocity": 64}, {"time": 1752, "pitch": 73, "duration": 72, "velocity": 64}, {"time": 1824, "pitch": 73, "duration": 12, "velocity": 64}, {"time": 1836, "pitch": 81, "duration": 12, "velocity": 64}, {"time": 1848, "pitch": 83, "duration": 12, "velocity": 64}, {"time": 1860, "pitch": 80, "duration": 12, "velocity": 64}, {"time": 1872, "pitch": 78, "duration": 12, "velocity": 64}, {"time": 1884, "pitch": 78, "duration": 60, "velocity": 64}, {"time": 1944, "pitch": 81, "duration": 24, "velocity": 64}, {"time": 1968, "pitch": 73, "duration": 12, "velocity": 64}, {"time": 1980, "pitch": 83, "duration": 12, "velocity": 64}, {"time": 1992, "pitch": 73, "duration": 12, "velocity": 64}, {"time": 2004, "pitch": 83, "duration": 12, "velocity": 64}, {"time": 2016, "pitch": 83, "duration": 24, "velocity": 64}, {"time": 2040, "pitch": 73, "duration": 24, "velocity": 64}, {"time": 2064, "pitch": 81, "duration": 12, "velocity": 64}, {"time": 2076, "pitch": 81, "duration": 12, "velocity": 64}, {"time": 2088, "pitch": 78, "duration": 72, "velocity": 64}, {"time": 2208, "pitch": 73, "duration": 12, "velocity": 64}, {"time": 2220, "pitch": 78, "duration": 12, "velocity": 64}, {"time": 2232, "pitch": 78, "duration": 6, "velocity": 64}, {"time": 2238, "pitch": 81, "duration": 6, "velocity": 64}, {"time": 2244, "pitch": 73, "duration": 12, "velocity": 64}, {"time": 2256, "pitch": 73, "duration": 12, "velocity": 64}, {"time": 2268, "pitch": 78, "duration": 12, "velocity": 64}, {"time": 2280, "pitch": 81, "duration": 12, "velocity": 64}, {"time": 2292, "pitch": 78, "duration": 12, "velocity": 64}, {"time": 2304, "pitch": 73, "duration": 12, "velocity": 64}, {"time": 2316, "pitch": 81, "duration": 12, "velocity": 64}, {"time": 2328, "pitch": 81, "duration": 12, "velocity": 64}, {"time": 2340, "pitch": 78, "duration": 12, "velocity": 64}, {"time": 2352, "pitch": 78, "duration": 12, "velocity": 64}, {"time": 2364, "pitch": 81, "duration": 6, "velocity": 64}, {"time": 2370, "pitch": 73, "duration": 6, "velocity": 64}, {"time": 2376, "pitch": 81, "duration": 12, "velocity": 64}, {"time": 2388, "pitch": 78, "duration": 12, "velocity": 64}, {"time": 2400, "pitch": 78, "duration": 6, "velocity": 64}, {"time": 2406, "pitch": 81, "duration": 6, "velocity": 64}, {"time": 2412, "pitch": 78, "duration": 12, "velocity": 64}, {"time": 2424, "pitch": 73, "duration": 12, "velocity": 64}, {"time": 2436, "pitch": 73, "duration": 12, "velocity": 64}, {"time": 2448, "pitch": 81, "duration": 12, "velocity": 64}, {"time": 2460, "pitch": 81, "duration": 12, "velocity": 64}, {"time": 2472, "pitch": 78, "duration": 12, "velocity": 64}, {"time": 2484, "pitch": 78, "duration": 12, "velocity": 64}, {"time": 2496, "pitch": 81, "duration": 12, "velocity": 64}, {"time": 2508, "pitch": 78, "duration": 12, "velocity": 64}, {"time": 2520, "pitch": 81, "duration": 12, "velocity": 64}, {"time": 2532, "pitch": 78, "duration": 12, "velocity": 64}, {"time": 2544, "pitch": 78, "duration": 12, "velocity": 64}, {"time": 2556, "pitch": 81, "duration": 12, "velocity": 64}, {"time": 2568, "pitch": 78, "duration": 24, "velocity": 64}, {"time": 2592, "pitch": 83, "duration": 6, "velocity": 64}, {"time": 2598, "pitch": 73, "duration": 6, "velocity": 64}, {"time": 2604, "pitch": 83, "duration": 12, "velocity": 64}, {"time": 2616, "pitch": 81, "duration": 12, "velocity": 64}, {"time": 2628, "pitch": 81, "duration": 12, "velocity": 64}, {"time": 2640, "pitch": 73, "duration": 12, "velocity": 64}, {"time": 2652, "pitch": 73, "duration": 12, "velocity": 64}, {"time": 2664, "pitch": 83, "duration": 12, "velocity": 64}, {"time": 2676, "pitch": 83, "duration": 12, "velocity": 64}, {"time": 2688, "pitch": 73, "duration": 12, "velocity": 64}, {"time": 2700, "pitch": 83, "duration": 12, "velocity": 64}, {"time": 2712, "pitch": 73, "duration": 12, "velocity": 64}, {"time": 2724, "pitch": 83, "duration": 12, "velocity": 64}, {"time": 2736, "pitch": 83, "duration": 12, "velocity": 64}, {"time": 2748, "pitch": 73, "duration": 12, "velocity": 64}, {"time": 2760, "pitch": 81, "duration": 12, "velocity": 64}, {"time": 2772, "pitch": 78, "duration": 12, "velocity": 64}, {"time": 2832, "pitch": 73, "duration": 6, "velocity": 64}, {"time": 2838, "pitch": 76, "duration": 6, "velocity": 64}, {"time": 2844, "pitch": 73, "duration": 12, "velocity": 64}, {"time": 2856, "pitch": 83, "duration": 12, "velocity": 64}, {"time": 2868, "pitch": 83, "duration": 12, "velocity": 64}, {"time": 2880, "pitch": 76, "duration": 12, "velocity": 64}, {"time": 2892, "pitch": 76, "duration": 12, "velocity": 64}, {"time": 2904, "pitch": 73, "duration": 72, "velocity": 64}, {"time": 2976, "pitch": 73, "duration": 12, "velocity": 64}, {"time": 2988, "pitch": 81, "duration": 12, "velocity": 64}, {"time": 3000, "pitch": 83, "duration": 12, "velocity": 64}, {"time": 3012, "pitch": 80, "duration": 12, "velocity": 64}, {"time": 3024, "pitch": 78, "duration": 12, "velocity": 64}, {"time": 3036, "pitch": 78, "duration": 60, "velocity": 64}, {"time": 3096, "pitch": 81, "duration": 24, "velocity": 64}, {"time": 3120, "pitch": 73, "duration": 12, "velocity": 64}, {"time": 3132, "pitch": 83, "duration": 12, "velocity": 64}, {"time": 3144, "pitch": 73, "duration": 12, "velocity": 64}, {"time": 3156, "pitch": 83, "duration": 12, "velocity": 64}, {"time": 3168, "pitch": 83, "duration": 24, "velocity": 64}, {"time": 3192, "pitch": 73, "duration": 24, "velocity": 64}, {"time": 3216, "pitch": 81, "duration": 12, "velocity": 64}, {"time": 3228, "pitch": 81, "duration": 12, "velocity": 64}, {"time": 3240, "pitch": 78, "duration": 72, "velocity": 64}]}]}