{"metadata": {"schema_version": "0.1", "title": "Mao zhuxi qinshou zaipei ta", "source_format": "abc"}, "resolution": 24, "tempos": [{"time": 0, "qpm": 120.0}], "key_signatures": [{"time": 0, "root": 10, "mode": "major", "fifths": -2}], "time_signatures": [{"time": 0, "numerator": 2, "denominator": 4}], "beats": [{"time": 0, "is_downbeat": true}, {"time": 24, "is_downbeat": false}, {"time": 48, "is_downbeat": true}, {"time": 72, "is_downbeat": false}, {"time": 96, "is_downbeat": true}, {"time": 120, "is_downbeat": false}, {"time": 144, "is_downbeat": true}, {"time": 168, "is_downbeat": false}, {"time": 192, "is_downbeat": true}, {"time": 216, "is_downbeat": false}, {"time": 240, "is_downbeat": true}, {"time": 264, "is_downbeat": false}, {"time": 288, "is_downbeat": true}, {"time": 312, "is_downbeat": false}, {"time": 336, "is_downbeat": true}, {"time": 360, "is_downbeat": false}, {"time": 384, "is_downbeat": true}, {"time": 408, "is_downbeat": false}, {"time": 432, "is_downbeat": true}, {"time": 456, "is_downbeat": false}, {"time": 480, "is_downbeat": true}, {"time": 504, "is_downbeat": false}, {"time": 528, "is_downbeat": true}, {"time": 552, "is_downbeat": false}, {"time": 576, "is_downbeat": true}, {"time": 600, "is_downbeat": false}, {"time": 624, "is_downbeat": true}, {"time": 648, "is_downbeat": false}, {"time": 672, "is_downbeat": true}, {"time": 696, "is_downbeat": false}, {"time": 720, "is_downbeat": true}, {"time": 744, "is_downbeat": false}, {"time": 768, "is_downbeat": true}, {"time": 792, "is_downbeat": false}, {"time": 816, "is_downbeat": true}, {"time": 840, "is_downbeat": false}], "tracks": [{"program": 0, "is_drum": false, "notes": [{"time": 0, "pitch": 77, "duration": 12, "velocity": 64}, {"time": 12, "pitch": 77, "duration": 12, "velocity": 64}, {"time": 24, "pitch": 77, "duration": 6, "velocity": 64}, {"time": 30, "pitch": 72, "duration": 6, "velocity": 64}, {"time": 36, "pitch": 77, "duration": 4, "velocity": 64}, {"time": 40, "pitch": 72, "duration": 4, "velocity": 64}, {"time": 44, "pitch": 77, "duration": 4, "velocity": 64}, {"time": 48, "pitch": 79, "duration": 48, "velocity": 64}, {"time": 96, "pitch": 82, "duration": 12, "velocity": 64}, {"time": 108, "pitch": 79, "duration": 6, "velocity": 64}, {"time": 114, "pitch": 82, "duration": 6, "velocity": 64}, {"time": 120, "pitch": 79, "duration": 6, "velocity": 64}, {"time": 126, "pitch": 77, "duration": 6, "velocity": 64}, {"time": 132, "pitch": 77, "duration": 12, "velocity": 64}, {"time": 144, "pitch": 77, "duration": 12, "velocity": 64}, {"time": 156, "pitch": 77, "duration": 12, "velocity": 64}, {"time": 168, "pitch": 72, "duration": 6, "velocity": 64}, {"time": 174, "pitch": 74, "duration": 6, "velocity": 64}, {"time": 180, "pitch": 72, "duration": 6, "velocity": 64}, {"time": 186, "pitch": 70, "duration": 6, "velocity": 64}, {"time": 192, "pitch": 67, "duration": 48, "velocity": 64}, {"time": 240, "pitch": 72, "duration": 6, "velocity": 64}, {"time": 246, "pitch": 72, "duration": 18, "velocity": 64}, {"time": 264, "pitch": 74, "duration": 12, "velocity": 64}, {"time": 276, "pitch": 74, "duration": 6, "velocity": 64}, {"time": 282, "pitch": 77, "duration": 6, "velocity": 64}, {"time": 288, "pitch": 79, "duration": 6, "velocity": 64}, {"time": 294, "pitch": 77, "duration": 6, "velocity": 64}, {"time": 300, "pitch": 74, "duration": 6, "velocity": 64}, {"time": 306, "pitch": 72, "duration": 30, "velocity": 64}, {"time": 336, "pitch": 77, "duration": 12, "velocity": 64}, {"time": 348, "pitch": 74, "duration": 6, "velocity": 64}, {"time": 354, "pitch": 72, "duration": 30, "velocity": 64}, {"time": 384, "pitch": 72, "duration": 36, "velocity": 64}, {"time": 432, "pitch": 77, "duration": 12, "velocity": 64}, {"time": 444, "pitch": 74, "duration": 4, "velocity": 64}, {"time": 448, "pitch": 79, "duration": 4, "velocity": 64}, {"time": 452, "pitch": 77, "duration": 4, "velocity": 64}, {"time": 456, "pitch": 72, "duration": 12, "velocity": 64}, {"time": 468, "pitch": 72, "duration": 6, "velocity": 64}, {"time": 474, "pitch": 74, "duration": 6, "velocity": 64}, {"time": 480, "pitch": 77, "duration": 6, "velocity": 64}, {"time": 486, "pitch": 74, "duration": 6, "velocity": 64}, {"time": 492, "pitch": 77, "duration": 6, "velocity": 64}, {"time": 498, "pitch": 79, "duration": 30, "velocity": 64}, {"time": 528, "pitch": 82, "duration": 12, "velocity": 64}, {"time": 540, "pitch": 79, "duration": 6, "velocity": 64}, {"time": 546, "pitch": 82, "duration": 6, "velocity": 64}, {"time": 552, "pitch": 79, "duration": 6, "velocity": 64}, {"time": 558, "pitch": 77, "duration": 6, "velocity": 64}, {"time": 564, "pitch": 77, "duration": 12, "velocity": 64}, {"time": 576, "pitch": 74, "duration": 6, "velocity": 64}, {"time": 582, "pitch": 77, "duration": 18, "velocity": 64}, {"time": 600, "pitch": 72, "duration": 6, "velocity": 64}, {"time": 606, "pitch": 74, "duration": 6, "velocity": 64}, {"time": 612, "pitch": 72, "duration": 6, "velocity": 64}, {"time": 618, "pitch": 70, "duration": 6, "velocity": 64}, {"time": 624, "pitch": 67, "duration": 48, "velocity": 64}, {"time": 672, "pitch": 72, "duration": 12, "velocity": 64}, {"time": 684, "pitch": 72, "duration": 6, "velocity": 64}, {"time": 690, "pitch": 72, "duration": 6, "velocity": 64}, {"time": 696, "pitch": 74, "duration": 12, "velocity": 64}, {"time": 708, "pitch": 74, "duration": 6, "velocity": 64}, {"time": 714, "pitch": 77, "duration": 6, "velocity": 64}, {"time": 720, "pitch": 79, "duration": 6, "velocity": 64}, {"time": 726, "pitch": 77, "duration": 6, "velocity": 64}, {"time": 732, "pitch": 74, "duration": 6, "velocity": 64}, {"time": 738, "pitch": 72, "duration": 30, "velocity": 64}, {"time": 768, "pitch": 77, "duration": 12, "velocity": 64}, {"time": 780, "pitch": 74, "duration": 6, "velocity": 64}, {"time": 786, "pitch": 72, "duration": 30, "velocity": 64}, {"time": 816, "pitch": 72, "duration": 36, "velocity": 64}]}]}