{"metadata": {"schema_version": "0.1", "title": "Wang cheng Shange", "source_format": "abc"}, "resolution": 24, "tempos": [{"time": 0, "qpm": 120.0}], "key_signatures": [{"time": 0, "root": 9, "mode": "major", "fifths": 3}], "time_signatures": [{"time": 0, "numerator": 4, "denominator": 4}], "tracks": [{"program": 0, "is_drum": false, "notes": [{"time": 0, "pitch": 78, "duration": 24, "velocity": 64}, {"time": 24, "pitch": 81, "duration": 12, "velocity": 64}, {"time": 36, "pitch": 78, "duration": 12, "velocity": 64}, {"time": 48, "pitch": 73, "duration": 24, "velocity": 64}, {"time": 72, "pitch": 73, "duration": 72, "velocity": 64}, {"time": 144, "pitch": 78, "duration": 24, "velocity": 64}, {"time": 168, "pitch": 81, "duration": 24, "velocity": 64}, {"time": 192, "pitch": 81, "duration": 72, "velocity": 64}, {"time": 264, "pitch": 81, "duration": 24, "velocity": 64}, {"time": 288, "pitch": 81, "duration": 24, "velocity": 64}, {"time": 312, "pitch": 73, "duration": 24, "velocity": 64}, {"time": 336, "pitch": 78, "duration": 48, "velocity": 64}, {"time": 384, "pitch": 73, "duration": 12, "velocity": 64}, {"time": 408, "pitch": 73, "duration": 24, "velocity": 64}, {"time": 432, "pitch": 81, "duration": 72, "velocity": 64}, {"time": 504, "pitch": 73, "duration": 24, "velocity": 64}, {"time": 528, "pitch": 81, "duration": 24, "velocity": 64}, {"time": 552, "pitch": 78, "duration": 24, "velocity": 64}, {"time": 576, "pitch": 73, "duration": 24, "velocity": 64}, {"time": 600, "pitch": 78, "duration": 12, "velocity": 64}, {"time": 612, "pitch": 78, "duration": 72, "velocity": 64}, {"time": 684, "pitch": 73, "duration": 12, "velocity": 64}, {"time": 696, "pitch": 78, "duration": 12, "velocity": 64}, {"time": 708, "pitch": 81, "duration": 12, "velocity": 64}, {"time": 720, "pitch": 73, "duration": 36, "velocity": 64}, {"time": 768, "pitch": 73, "duration": 12, "velocity": 64}, {"time": 780, "pitch": 73, "duration": 12, "velocity": 64}, {"time": 792, "pitch": 81, "duration": 12, "velocity": 64}, {"time": 804, "pitch": 73, "duration": 12, "velocity": 64}, {"time": 816, "pitch": 81, "duration": 24, "velocity": 64}, {"time": 840, "pitch": 73, "duration": 12, "velocity": 64}, {"time": 852, "pitch": 73, "duration": 12, "velocity": 64}, {"time": 864, "pitch": 78, "duration": 24, "velocity": 64}, {"time": 888, "pitch": 81, "duration": 12, "velocity": 64}, {"time": 900, "pitch": 78, "duration": 72, "velocity": 64}, {"time": 972, "pitch": 73, "duration": 12, "velocity": 64}, {"time": 996, "pitch": 73, "duration": 12, "velocity": 64}, {"time": 1008, "pitch": 78, "duration": 12, "velocity": 64}, {"time": 1020, "pitch": 81, "duration": 12, "velocity": 64}, {"time": 1032, "pitch": 73, "duration": 36, "velocity": 64}, {"time": 1080, "pitch": 73, "duration": 12, "velocity": 64}, {"time": 1092, "pitch": 73, "duration": 12, "velocity": 64}, {"time": 1104, "pitch": 73, "duration": 12, "velocity": 64}, {"time": 1116, "pitch": 81, "duration": 12, "velocity": 64}, {"time": 1128, "pitch": 78, "duration": 12, "velocity": 64}, {"time": 1140, "pitch": 81, "duration": 24, "velocity": 64}, {"time": 1164, "pitch": 73, "duration": 24, "velocity": 64}, {"time": 1188, "pitch": 81, "duration": 24, "velocity": 64}, {"time": 1212, "pitch": 81, "duration": 48, "velocity": 64}, {"time": 1260, "pitch": 81, "duration": 12, "velocity": 64}, {"time": 1272, "pitch": 81, "duration": 12, "velocity": 64}, {"time": 1284, "pitch": 78, "duration": 18, "velocity": 64}, {"time": 1302, "pitch": 73, "duration": 6, "velocity": 64}, {"time": 1308, "pitch": 78, "duration": 6, "velocity": 64}, {"time": 1314, "pitch": 81, "duration": 6, "velocity": 64}, {"time": 1320, "pitch": 78, "duration": 24, "velocity": 64}, {"time": 1344, "pitch": 73, "duration": 12, "velocity": 64}, {"time": 1356, "pitch": 73, "duration": 12, "velocity": 64}, {"time": 1368, "pitch": 81, "duration": 36, "velocity": 64}, {"time": 1404, "pitch": 73, "duration": 24, "velocity": 64}, {"time": 1428, "pitch": 81, "duration": 24, "velocity": 64}, {"time": 1452, "pitch": 78, "duration": 36, "velocity": 64}, {"time": 1488, "pitch": 73, "duration": 12, "velocity": 64}, {"time": 1500, "pitch": 78, "duration": 36, "velocity": 64}, {"time": 1536, "pitch": 80, "duration": 6, "velocity": 64}, {"time": 1542, "pitch": 78, "duration": 72, "velocity": 64}]}]}