{"metadata": {"schema_version": "0.1", "title": "Wo yiren kanle yi tai xi", "source_format": "abc"}, "resolution": 24, "tempos": [{"time": 0, "qpm": 120.0}], "key_signatures": [{"time": 0, "root": 5, "mode": "major", "fifths": -1}], "time_signatures": [{"time": 0, "numerator": 2, "denominator": 4}], "beats": [{"time": 0, "is_downbeat": true}, {"time": 24, "is_downbeat": false}, {"time": 48, "is_downbeat": true}, {"time": 72, "is_downbeat": false}, {"time": 96, "is_downbeat": true}, {"time": 120, "is_downbeat": false}, {"time": 144, "is_downbeat": true}, {"time": 168, "is_downbeat": false}, {"time": 192, "is_downbeat": true}, {"time": 216, "is_downbeat": false}, {"time": 240, "is_downbeat": true}, {"time": 264, "is_downbeat": false}, {"time": 288, "is_downbeat": true}, {"time": 312, "is_downbeat": false}, {"time": 336, "is_downbeat": true}, {"time": 360, "is_downbeat": false}, {"time": 384, "is_downbeat": true}, {"time": 408, "is_downbeat": false}, {"time": 432, "is_downbeat": true}, {"time": 456, "is_downbeat": false}, {"time": 480, "is_downbeat": true}, {"time": 504, "is_downbeat": false}, {"time": 528, "is_downbeat": true}, {"time": 552, "is_downbeat": false}, {"time": 576, "is_downbeat": true}, {"time": 600, "is_downbeat": false}, {"time": 624, "is_downbeat": true}, {"time": 648, "is_downbeat": false}, {"time": 672, "is_downbeat": true}, {"time": 696, "is_downbeat": false}, {"time": 720, "is_downbeat": true}, {"time": 744, "is_downbeat": false}, {"time": 768, "is_downbeat": true}, {"time": 792, "is_downbeat": false}, {"time": 816, "is_downbeat": true}, {"time": 840, "is_downbeat": false}, {"time": 864, "is_downbeat": true}, {"time": 888, "is_downbeat": false}, {"time": 912, "is_downbeat": true}, {"time": 936, "is_downbeat": false}, {"time": 960, "is_downbeat": true}, {"time": 984, "is_downbeat": false}, {"time": 1008, "is_downbeat": true}, {"time": 1032, "is_downbeat": false}, {"time": 1056, "is_downbeat": true}, {"time": 1080, "is_downbeat": false}, {"time": 1104, "is_downbeat": true}, {"time": 1128, "is_downbeat": false}, {"time": 1152, "is_downbeat": true}, {"time": 1176, "is_downbeat": false}, {"time": 1200, "is_downbeat": true}, {"time": 1224, "is_downbeat": false}, {"time": 1248, "is_downbeat": true}, {"time": 1272, "is_downbeat": false}, {"time": 1296, "is_downbeat": true}, {"time": 1320, "is_downbeat": false}, {"time": 1344, "is_downbeat": true}, {"time": 1368, "is_downbeat": false}, {"time": 1392, "is_downbeat": true}, {"time": 1416, "is_downbeat": false}, {"time": 1440, "is_downbeat": true}, {"time": 1464, "is_downbeat": false}, {"time": 1488, "is_downbeat": true}, {"time": 1512, "is_downbeat": false}, {"time": 1536, "is_downbeat": true}, {"time": 1560, "is_downbeat": false}, {"time": 1584, "is_downbeat": true}, {"time": 1608, "is_downbeat": false}, {"time": 1632, "is_downbeat": true}, {"time": 1656, "is_downbeat": false}, {"time": 1680, "is_downbeat": true}, {"time": 1704, "is_downbeat": false}, {"time": 1728, "is_downbeat": true}, {"time": 1752, "is_downbeat": false}, {"time": 1776, "is_downbeat": true}, {"time": 1800, "is_downbeat": false}, {"time": 1824, "is_downbeat": true}, {"time": 1848, "is_downbeat": false}, {"time": 1872, "is_downbeat": true}, {"time": 1896, "is_downbeat": false}, {"time": 1920, "is_downbeat": true}, {"time": 1944, "is_downbeat": false}, {"time": 1968, "is_downbeat": true}, {"time": 1992, "is_downbeat": false}, {"time": 2016, "is_downbeat": true}, {"time": 2040, "is_downbeat": false}], "tracks": [{"program": 0, "is_drum": false, "notes": [{"time": 0, "pitch": 65, "duration": 24, "velocity": 64}, {"time": 24, "pitch": 67, "duration": 18, "velocity": 64}, {"time": 42, "pitch": 72, "duration": 6, "velocity": 64}, {"time": 48, "pitch": 65, "duration": 12, "velocity": 64}, {"time": 60, "pitch": 67, "duration": 6, "velocity": 64}, {"time": 66, "pitch": 65, "duration": 6, "velocity": 64}, {"time": 72, "pitch": 60, "duration": 12, "velocity": 64}, {"time": 84, "pitch": 60, "duration": 12, "velocity": 64}, {"time": 96, "pitch": 65, "duration": 24, "velocity": 64}, {"time": 120, "pitch": 67, "duration": 18, "velocity": 64}, {"time": 138, "pitch": 74, "duration": 6, "velocity": 64}, {"time": 144, "pitch": 72, "duration": 12, "velocity": 64}, {"time": 156, "pitch": 74, "duration": 6, "velocity": 64}, {"time": 162, "pitch": 72, "duration": 6, "velocity": 64}, {"time": 168, "pitch": 67, "duration": 12, "velocity": 64}, {"time": 180, "pitch": 64, "duration": 12, "velocity": 64}, {"time": 192, "pitch": 72, "duration": 12, "velocity": 64}, {"time": 204, "pitch": 67, "duration": 6, "velocity": 64}, {"time": 210, "pitch": 72, "duration": 6, "velocity": 64}, {"time": 216, "pitch": 67, "duration": 12, "velocity": 64}, {"time": 228, "pitch": 65, "duration": 12, "velocity": 64}, {"time": 240, "pitch": 67, "duration": 6, "velocity": 64}, {"time": 246, "pitch": 65, "duration": 6, "velocity": 64}, {"time": 252, "pitch": 60, "duration": 24, "velocity": 64}, {"time": 276, "pitch": 60, "duration": 12, "velocity": 64}, {"time": 288, "pitch": 62, "duration": 24, "velocity": 64}, {"time": 312, "pitch": 55, "duration": 24, "velocity": 64}, {"time": 336, "pitch": 65, "duration": 12, "velocity": 64}, {"time": 348, "pitch": 62, "duration": 6, "velocity": 64}, {"time": 354, "pitch": 60, "duration": 6, "velocity": 64}, {"time": 360, "pitch": 60, "duration": 12, "velocity": 64}, {"time": 372, "pitch": 60, "duration": 12, "velocity": 64}, {"time": 384, "pitch": 65, "duration": 12, "velocity": 64}, {"time": 396, "pitch": 60, "duration": 6, "velocity": 64}, {"time": 402, "pitch": 65, "duration": 6, "velocity": 64}, {"time": 408, "pitch": 67, "duration": 6, "velocity": 64}, {"time": 414, "pitch": 72, "duration": 6, "velocity": 64}, {"time": 420, "pitch": 65, "duration": 12, "velocity": 64}, {"time": 432, "pitch": 67, "duration": 48, "velocity": 64}, {"time": 480, "pitch": 72, "duration": 24, "velocity": 64}, {"time": 504, "pitch": 74, "duration": 24, "velocity": 64}, {"time": 528, "pitch": 72, "duration": 6, "velocity": 64}, {"time": 534, "pitch": 67, "duration": 6, "velocity": 64}, {"time": 540, "pitch": 72, "duration": 84, "velocity": 64}, {"time": 624, "pitch": 72, "duration": 12, "velocity": 64}, {"time": 636, "pitch": 67, "duration": 6, "velocity": 64}, {"time": 642, "pitch": 72, "duration": 6, "velocity": 64}, {"time": 648, "pitch": 67, "duration": 6, "velocity": 64}, {"time": 654, "pitch": 69, "duration": 6, "velocity": 64}, {"time": 660, "pitch": 67, "duration": 6, "velocity": 64}, {"time": 666, "pitch": 65, "duration": 6, "velocity": 64}, {"time": 672, "pitch": 67, "duration": 6, "velocity": 64}, {"time": 678, "pitch": 65, "duration": 6, "velocity": 64}, {"time": 684, "pitch": 60, "duration": 12, "velocity": 64}, {"time": 696, "pitch": 65, "duration": 24, "velocity": 64}, {"time": 720, "pitch": 65, "duration": 12, "velocity": 64}, {"time": 732, "pitch": 64, "duration": 6, "velocity": 64}, {"time": 738, "pitch": 65, "duration": 6, "velocity": 64}, {"time": 744, "pitch": 67, "duration": 6, "velocity": 64}, {"time": 750, "pitch": 72, "duration": 6, "velocity": 64}, {"time": 756, "pitch": 65, "duration": 6, "velocity": 64}, {"time": 762, "pitch": 67, "duration": 6, "velocity": 64}, {"time": 768, "pitch": 60, "duration": 48, "velocity": 64}, {"time": 816, "pitch": 65, "duration": 12, "velocity": 64}, {"time": 828, "pitch": 62, "duration": 6, "velocity": 64}, {"time": 834, "pitch": 60, "duration": 6, "velocity": 64}, {"time": 840, "pitch": 62, "duration": 6, "velocity": 64}, {"time": 846, "pitch": 60, "duration": 6, "velocity": 64}, {"time": 852, "pitch": 55, "duration": 12, "velocity": 64}, {"time": 864, "pitch": 60, "duration": 12, "velocity": 64}, {"time": 876, "pitch": 60, "duration": 36, "velocity": 64}, {"time": 912, "pitch": 65, "duration": 24, "velocity": 64}, {"time": 936, "pitch": 67, "duration": 18, "velocity": 64}, {"time": 954, "pitch": 72, "duration": 6, "velocity": 64}, {"time": 960, "pitch": 65, "duration": 12, "velocity": 64}, {"time": 972, "pitch": 67, "duration": 6, "velocity": 64}, {"time": 978, "pitch": 65, "duration": 6, "velocity": 64}, {"time": 984, "pitch": 60, "duration": 12, "velocity": 64}, {"time": 996, "pitch": 60, "duration": 12, "velocity": 64}, {"time": 1008, "pitch": 65, "duration": 24, "velocity": 64}, {"time": 1032, "pitch": 67, "duration": 18, "velocity": 64}, {"time": 1050, "pitch": 74, "duration": 6, "velocity": 64}, {"time": 1056, "pitch": 72, "duration": 12, "velocity": 64}, {"time": 1068, "pitch": 74, "duration": 6, "velocity": 64}, {"time": 1074, "pitch": 72, "duration": 6, "velocity": 64}, {"time": 1080, "pitch": 67, "duration": 12, "velocity": 64}, {"time": 1092, "pitch": 64, "duration": 12, "velocity": 64}, {"time": 1104, "pitch": 72, "duration": 12, "velocity": 64}, {"time": 1116, "pitch": 67, "duration": 6, "velocity": 64}, {"time": 1122, "pitch": 72, "duration": 6, "velocity": 64}, {"time": 1128, "pitch": 67, "duration": 12, "velocity": 64}, {"time": 1140, "pitch": 65, "duration": 12, "velocity": 64}, {"time": 1152, "pitch": 67, "duration": 6, "velocity": 64}, {"time": 1158, "pitch": 65, "duration": 6, "velocity": 64}, {"time": 1164, "pitch": 60, "duration": 24, "velocity": 64}, {"time": 1188, "pitch": 60, "duration": 12, "velocity": 64}, {"time": 1200, "pitch": 62, "duration": 24, "velocity": 64}, {"time": 1224, "pitch": 55, "duration": 24, "velocity": 64}, {"time": 1248, "pitch": 65, "duration": 12, "velocity": 64}, {"time": 1260, "pitch": 62, "duration": 6, "velocity": 64}, {"time": 1266, "pitch": 60, "duration": 6, "velocity": 64}, {"time": 1272, "pitch": 60, "duration": 12, "velocity": 64}, {"time": 1284, "pitch": 60, "duration": 12, "velocity": 64}, {"time": 1296, "pitch": 65, "duration": 12, "velocity": 64}, {"time": 1308, "pitch": 60, "duration": 6, "velocity": 64}, {"time": 1314, "pitch": 65, "duration": 6, "velocity": 64}, {"time": 1320, "pitch": 67, "duration": 6, "velocity": 64}, {"time": 1326, "pitch": 72, "duration": 6, "velocity": 64}, {"time": 1332, "pitch": 65, "duration": 12, "velocity": 64}, {"time": 1344, "pitch": 67, "duration": 48, "velocity": 64}, {"time": 1392, "pitch": 72, "duration": 24, "velocity": 64}, {"time": 1416, "pitch": 74, "duration": 24, "velocity": 64}, {"time": 1440, "pitch": 72, "duration": 6, "velocity": 64}, {"time": 1446, "pitch": 67, "duration": 6, "velocity": 64}, {"time": 1452, "pitch": 72, "duration": 84, "velocity": 64}, {"time": 1536, "pitch": 72, "duration": 12, "velocity": 64}, {"time": 1548, "pitch": 67, "duration": 6, "velocity": 64}, {"time": 1554, "pitch": 72, "duration": 6, "velocity": 64}, {"time": 1560, "pitch": 67, "duration": 6, "velocity": 64}, {"time": 1566, "pitch": 69, "duration": 6, "velocity": 64}, {"time": 1572, "pitch": 67, "duration": 6, "velocity": 64}, {"time": 1578, "pitch": 65, "duration": 6, "velocity": 64}, {"time": 1584, "pitch": 67, "duration": 6, "velocity": 64}, {"time": 1590, "pitch": 65, "duration": 6, "velocity": 64}, {"time": 1596, "pitch": 60, "duration": 12, "velocity": 64}, {"time": 1608, "pitch": 65, "duration": 24, "velocity": 64}, {"time": 1632, "pitch": 65, "duration": 12, "velocity": 64}, {"time": 1644, "pitch": 64, "duration": 6, "velocity": 64}, {"time": 1650, "pitch": 65, "duration": 6, "velocity": 64}, {"time": 1656, "pitch": 67, "duration": 6, "velocity": 64}, {"time": 1662, "pitch": 72, "duration": 6, "velocity": 64}, {"time": 1668, "pitch": 65, "duration": 6, "velocity": 64}, {"time": 1674, "pitch": 67, "duration": 6, "velocity": 64}, {"time": 1680, "pitch": 60, "duration": 48, "velocity": 64}, {"time": 1776, "pitch": 74, "duration": 12, "velocity": 64}, {"time": 1788, "pitch": 74, "duration": 6, "velocity": 64}, {"time": 1794, "pitch": 72, "duration": 6, "velocity": 64}, {"time": 1800, "pitch": 74, "duration": 6, "velocity": 64}, {"time": 1806, "pitch": 72, "duration": 6, "velocity": 64}, {"time": 1812, "pitch": 67, "duration": 12, "velocity": 64}, {"time": 1824, "pitch": 72, "duration": 12, "velocity": 64}, {"time": 1836, "pitch": 72, "duration": 36, "velocity": 64}, {"time": 1872, "pitch": 72, "duration": 18, "velocity": 64}, {"time": 1890, "pitch": 72, "duration": 6, "velocity": 64}, {"time": 1896, "pitch": 70, "duration": 12, "velocity": 64}, {"time": 1908, "pitch": 72, "duration": 12, "velocity": 64}, {"time": 1920, "pitch": 74, "duration": 24, "velocity": 64}, {"time": 1944, "pitch": 74, "duration": 6, "velocity": 64}, {"time": 1950, "pitch": 72, "duration": 6, "velocity": 64}, {"time": 1956, "pitch": 67, "duration": 12, "velocity": 64}, {"time": 1968, "pitch": 72, "duration": 96, "velocity": 64}]}]}