{"metadata": {"schema_version": "0.1", "title": "Guzhang Shange", "source_format": "abc"}, "resolution": 24, "tempos": [{"time": 0, "qpm": 120.0}], "key_signatures": [{"time": 0, "root": 9, "mode": "major", "fifths": 3}], "time_signatures": [{"time": 0, "numerator": 4, "denominator": 4}], "tracks": [{"program": 0, "is_drum": false, "notes": [{"time": 0, "pitch": 78, "duration": 48, "velocity": 64}, {"time": 48, "pitch": 76, "duration": 24, "velocity": 64}, {"time": 72, "pitch": 78, "duration": 48, "velocity": 64}, {"time": 120, "pitch": 76, "duration": 24, "velocity": 64}, {"time": 144, "pitch": 78, "duration": 48, "velocity": 64}, {"time": 192, "pitch": 76, "duration": 24, "velocity": 64}, {"time": 216, "pitch": 78, "duration": 24, "velocity": 64}, {"time": 240, "pitch": 76, "duration": 24, "velocity": 64}, {"time": 264, "pitch": 78, "duration": 24, "velocity": 64}, {"time": 288, "pitch": 76, "duration": 48, "velocity": 64}, {"time": 336, "pitch": 73, "duration": 24, "velocity": 64}, {"time": 360, "pitch": 73, "duration": 12, "velocity": 64}, {"time": 372, "pitch": 84, "duration": 12, "velocity": 64}, {"time": 384, "pitch": 73, "duration": 12, "velocity": 64}, {"time": 396, "pitch": 73, "duration": 12, "velocity": 64}, {"time": 408, "pitch": 73, "duration": 12, "velocity": 64}, {"time": 420, "pitch": 83, "duration": 12, "velocity": 64}, {"time": 432, "pitch": 73, "duration": 12, "velocity": 64}, {"time": 444, "pitch": 73, "duration": 12, "velocity": 64}, {"time": 456, "pitch": 73, "duration": 96, "velocity": 64}, {"time": 552, "pitch": 81, "duration": 12, "velocity": 64}, {"time": 564, "pitch": 78, "duration": 24, "velocity": 64}, {"time": 588, "pitch": 76, "duration": 24, "velocity": 64}, {"time": 612, "pitch": 81, "duration": 12, "velocity": 64}, {"time": 624, "pitch": 78, "duration": 12, "velocity": 64}, {"time": 636, "pitch": 78, "duration": 12, "velocity": 64}, {"time": 648, "pitch": 76, "duration": 12, "velocity": 64}, {"time": 660, "pitch": 73, "duration": 12, "velocity": 64}, {"time": 672, "pitch": 78, "duration": 12, "velocity": 64}, {"time": 684, "pitch": 78, "duration": 12, "velocity": 64}, {"time": 696, "pitch": 81, "duration": 12, "velocity": 64}, {"time": 708, "pitch": 78, "duration": 36, "velocity": 64}, {"time": 744, "pitch": 78, "duration": 12, "velocity": 64}, {"time": 756, "pitch": 78, "duration": 6, "velocity": 64}, {"time": 768, "pitch": 76, "duration": 12, "velocity": 64}, {"time": 780, "pitch": 76, "duration": 12, "velocity": 64}, {"time": 792, "pitch": 76, "duration": 48, "velocity": 64}, {"time": 840, "pitch": 73, "duration": 24, "velocity": 64}, {"time": 864, "pitch": 81, "duration": 12, "velocity": 64}, {"time": 876, "pitch": 83, "duration": 36, "velocity": 64}, {"time": 912, "pitch": 83, "duration": 12, "velocity": 64}, {"time": 924, "pitch": 81, "duration": 24, "velocity": 64}, {"time": 948, "pitch": 78, "duration": 24, "velocity": 64}, {"time": 972, "pitch": 78, "duration": 6, "velocity": 64}, {"time": 978, "pitch": 76, "duration": 6, "velocity": 64}, {"time": 984, "pitch": 73, "duration": 12, "velocity": 64}, {"time": 996, "pitch": 81, "duration": 12, "velocity": 64}, {"time": 1008, "pitch": 78, "duration": 12, "velocity": 64}, {"time": 1020, "pitch": 78, "duration": 12, "velocity": 64}, {"time": 1032, "pitch": 78, "duration": 12, "velocity": 64}, {"time": 1044, "pitch": 81, "duration": 24, "velocity": 64}, {"time": 1068, "pitch": 78, "duration": 12, "velocity": 64}, {"time": 1080, "pitch": 83, "duration": 36, "velocity": 64}, {"time": 1116, "pitch": 78, "duration": 12, "velocity": 64}, {"time": 1128, "pitch": 78, "duration": 36, "velocity": 64}, {"time": 1164, "pitch": 76, "duration": 24, "velocity": 64}, {"time": 1188, "pitch": 78, "duration": 36, "velocity": 64}, {"time": 1224, "pitch": 76, "duration": 24, "velocity": 64}, {"time": 1248, "pitch": 78, "duration": 24, "velocity": 64}, {"time": 1272, "pitch": 76, "duration": 24, "velocity": 64}, {"time": 1296, "pitch": 73, "duration": 24, "velocity": 64}]}]}