{"metadata": {"schema_version": "0.1", "title": "Xin xiu hebao liangmian hong", "source_format": "abc"}, "resolution": 24, "tempos": [{"time": 0, "qpm": 120.0}], "key_signatures": [{"time": 0, "root": 5, "mode": "major", "fifths": -1}], "time_signatures": [{"time": 0, "numerator": 4, "denominator": 4}, {"time": 192, "numerator": 3, "denominator": 4}, {"time": 360, "numerator": 7, "denominator": 4}, {"time": 816, "numerator": 3, "denominator": 4}, {"time": 1080, "numerator": 3, "denominator": 4}, {"time": 1152, "numerator": 4, "denominator": 4}], "beats": [{"time": 0, "is_downbeat": true}, {"time": 24, "is_downbeat": false}, {"time": 48, "is_downbeat": false}, {"time": 72, "is_downbeat": true}, {"time": 96, "is_downbeat": true}, {"time": 120, "is_downbeat": false}, {"time": 144, "is_downbeat": false}, {"time": 168, "is_downbeat": true}, {"time": 192, "is_downbeat": true}, {"time": 216, "is_downbeat": false}, {"time": 240, "is_downbeat": false}, {"time": 264, "is_downbeat": true}, {"time": 288, "is_downbeat": false}, {"time": 312, "is_downbeat": false}, {"time": 336, "is_downbeat": false}, {"time": 360, "is_downbeat": true}, {"time": 384, "is_downbeat": false}, {"time": 408, "is_downbeat": false}, {"time": 432, "is_downbeat": true}, {"time": 456, "is_downbeat": false}, {"time": 480, "is_downbeat": false}, {"time": 504, "is_downbeat": true}, {"time": 528, "is_downbeat": true}, {"time": 552, "is_downbeat": false}, {"time": 576, "is_downbeat": false}, {"time": 600, "is_downbeat": true}, {"time": 624, "is_downbeat": true}, {"time": 648, "is_downbeat": false}, {"time": 672, "is_downbeat": false}, {"time": 696, "is_downbeat": true}, {"time": 720, "is_downbeat": true}, {"time": 744, "is_downbeat": false}, {"time": 768, "is_downbeat": false}, {"time": 792, "is_downbeat": true}, {"time": 816, "is_downbeat": true}, {"time": 840, "is_downbeat": false}, {"time": 864, "is_downbeat": false}, {"time": 888, "is_downbeat": true}, {"time": 912, "is_downbeat": false}, {"time": 936, "is_downbeat": false}, {"time": 960, "is_downbeat": true}, {"time": 984, "is_downbeat": true}, {"time": 1008, "is_downbeat": false}, {"time": 1032, "is_downbeat": false}, {"time": 1056, "is_downbeat": true}, {"time": 1080, "is_downbeat": true}, {"time": 1104, "is_downbeat": false}, {"time": 1128, "is_downbeat": false}, {"time": 1152, "is_downbeat": true}, {"time": 1176, "is_downbeat": false}, {"time": 1200, "is_downbeat": false}, {"time": 1224, "is_downbeat": false}], "tracks": [{"program": 0, "is_drum": false, "notes": [{"time": 0, "pitch": 62, "duration": 12, "velocity": 64}, {"time": 12, "pitch": 62, "duration": 12, "velocity": 64}, {"time": 24, "pitch": 62, "duration": 12, "velocity": 64}, {"time": 36, "pitch": 67, "duration": 12, "velocity": 64}, {"time": 48, "pitch": 65, "duration": 6, "velocity": 64}, {"time": 54, "pitch": 62, "duration": 6, "velocity": 64}, {"time": 60, "pitch": 67, "duration": 12, "velocity": 64}, {"time": 72, "pitch": 67, "duration": 6, "velocity": 64}, {"time": 78, "pitch": 65, "duration": 6, "velocity": 64}, {"time": 84, "pitch": 67, "duration": 84, "velocity": 64}, {"time": 168, "pitch": 62, "duration": 12, "velocity": 64}, {"time": 180, "pitch": 65, "duration": 6, "velocity": 64}, {"time": 186, "pitch": 67, "duration": 6, "velocity": 64}, {"time": 192, "pitch": 65, "duration": 6, "velocity": 64}, {"time": 198, "pitch": 62, "duration": 6, "velocity": 64}, {"time": 216, "pitch": 62, "duration": 6, "velocity": 64}, {"time": 222, "pitch": 65, "duration": 6, "velocity": 64}, {"time": 228, "pitch": 62, "duration": 12, "velocity": 64}, {"time": 240, "pitch": 67, "duration": 6, "velocity": 64}, {"time": 246, "pitch": 65, "duration": 6, "velocity": 64}, {"time": 252, "pitch": 62, "duration": 12, "velocity": 64}, {"time": 264, "pitch": 65, "duration": 60, "velocity": 64}, {"time": 324, "pitch": 62, "duration": 4, "velocity": 64}, {"time": 328, "pitch": 65, "duration": 4, "velocity": 64}, {"time": 332, "pitch": 62, "duration": 4, "velocity": 64}, {"time": 360, "pitch": 62, "duration": 12, "velocity": 64}, {"time": 372, "pitch": 65, "duration": 6, "velocity": 64}, {"time": 378, "pitch": 62, "duration": 6, "velocity": 64}, {"time": 384, "pitch": 65, "duration": 6, "velocity": 64}, {"time": 390, "pitch": 67, "duration": 6, "velocity": 64}, {"time": 396, "pitch": 65, "duration": 6, "velocity": 64}, {"time": 402, "pitch": 62, "duration": 6, "velocity": 64}, {"time": 408, "pitch": 72, "duration": 24, "velocity": 64}, {"time": 432, "pitch": 62, "duration": 12, "velocity": 64}, {"time": 456, "pitch": 62, "duration": 12, "velocity": 64}, {"time": 468, "pitch": 65, "duration": 6, "velocity": 64}, {"time": 474, "pitch": 67, "duration": 6, "velocity": 64}, {"time": 480, "pitch": 65, "duration": 36, "velocity": 64}, {"time": 516, "pitch": 65, "duration": 6, "velocity": 64}, {"time": 522, "pitch": 67, "duration": 6, "velocity": 64}, {"time": 528, "pitch": 65, "duration": 12, "velocity": 64}, {"time": 540, "pitch": 67, "duration": 6, "velocity": 64}, {"time": 546, "pitch": 65, "duration": 6, "velocity": 64}, {"time": 552, "pitch": 62, "duration": 6, "velocity": 64}, {"time": 558, "pitch": 65, "duration": 3, "velocity": 64}, {"time": 561, "pitch": 67, "duration": 3, "velocity": 64}, {"time": 564, "pitch": 65, "duration": 6, "velocity": 64}, {"time": 570, "pitch": 62, "duration": 6, "velocity": 64}, {"time": 576, "pitch": 62, "duration": 48, "velocity": 64}, {"time": 624, "pitch": 67, "duration": 12, "velocity": 64}, {"time": 636, "pitch": 62, "duration": 12, "velocity": 64}, {"time": 648, "pitch": 62, "duration": 12, "velocity": 64}, {"time": 660, "pitch": 65, "duration": 6, "velocity": 64}, {"time": 666, "pitch": 67, "duration": 6, "velocity": 64}, {"time": 672, "pitch": 65, "duration": 6, "velocity": 64}, {"time": 678, "pitch": 62, "duration": 6, "velocity": 64}, {"time": 684, "pitch": 67, "duration": 12, "velocity": 64}, {"time": 696, "pitch": 67, "duration": 6, "velocity": 64}, {"time": 702, "pitch": 65, "duration": 6, "velocity": 64}, {"time": 708, "pitch": 67, "duration": 84, "velocity": 64}, {"time": 792, "pitch": 62, "duration": 12, "velocity": 64}, {"time": 804, "pitch": 65, "duration": 6, "velocity": 64}, {"time": 810, "pitch": 67, "duration": 6, "velocity": 64}, {"time": 816, "pitch": 65, "duration": 12, "velocity": 64}, {"time": 828, "pitch": 62, "duration": 12, "velocity": 64}, {"time": 840, "pitch": 62, "duration": 6, "velocity": 64}, {"time": 846, "pitch": 65, "duration": 6, "velocity": 64}, {"time": 852, "pitch": 62, "duration": 12, "velocity": 64}, {"time": 864, "pitch": 67, "duration": 6, "velocity": 64}, {"time": 870, "pitch": 65, "duration": 6, "velocity": 64}, {"time": 876, "pitch": 62, "duration": 12, "velocity": 64}, {"time": 888, "pitch": 65, "duration": 48, "velocity": 64}, {"time": 936, "pitch": 62, "duration": 24, "velocity": 64}, {"time": 984, "pitch": 62, "duration": 12, "velocity": 64}, {"time": 996, "pitch": 65, "duration": 6, "velocity": 64}, {"time": 1002, "pitch": 67, "duration": 6, "velocity": 64}, {"time": 1008, "pitch": 65, "duration": 6, "velocity": 64}, {"time": 1014, "pitch": 62, "duration": 6, "velocity": 64}, {"time": 1020, "pitch": 62, "duration": 6, "velocity": 64}, {"time": 1026, "pitch": 62, "duration": 6, "velocity": 64}, {"time": 1032, "pitch": 72, "duration": 24, "velocity": 64}, {"time": 1056, "pitch": 62, "duration": 12, "velocity": 64}, {"time": 1080, "pitch": 62, "duration": 12, "velocity": 64}, {"time": 1092, "pitch": 65, "duration": 6, "velocity": 64}, {"time": 1098, "pitch": 67, "duration": 6, "velocity": 64}, {"time": 1104, "pitch": 65, "duration": 36, "velocity": 64}, {"time": 1140, "pitch": 65, "duration": 6, "velocity": 64}, {"time": 1146, "pitch": 67, "duration": 6, "velocity": 64}, {"time": 1152, "pitch": 67, "duration": 12, "velocity": 64}, {"time": 1164, "pitch": 65, "duration": 6, "velocity": 64}, {"time": 1170, "pitch": 67, "duration": 6, "velocity": 64}, {"time": 1176, "pitch": 62, "duration": 6, "velocity": 64}, {"time": 1182, "pitch": 65, "duration": 3, "velocity": 64}, {"time": 1185, "pitch": 67, "duration": 3, "velocity": 64}, {"time": 1188, "pitch": 65, "duration": 6, "velocity": 64}, {"time": 1194, "pitch": 62, "duration": 6, "velocity": 64}, {"time": 1200, "pitch": 62, "duration": 24, "velocity": 64}]}]}