{"metadata": {"schema_version": "0.1", "title": "Wang ersao guonian, 2)", "source_format": "abc"}, "resolution": 24, "tempos": [{"time": 0, "qpm": 120.0}], "key_signatures": [{"time": 0, "root": 7, "mode": "major", "fifths": 1}], "time_signatures": [{"time": 0, "numerator": 2, "denominator": 4}], "beats": [{"time": 0, "is_downbeat": true}, {"time": 24, "is_downbeat": false}, {"time": 48, "is_downbeat": true}, {"time": 72, "is_downbeat": false}, {"time": 96, "is_downbeat": true}, {"time": 120, "is_downbeat": false}, {"time": 144, "is_downbeat": true}, {"time": 168, "is_downbeat": false}, {"time": 192, "is_downbeat": true}, {"time": 216, "is_downbeat": false}, {"time": 240, "is_downbeat": true}, {"time": 264, "is_downbeat": false}, {"time": 288, "is_downbeat": true}, {"time": 312, "is_downbeat": false}, {"time": 336, "is_downbeat": true}, {"time": 360, "is_downbeat": false}, {"time": 384, "is_downbeat": true}, {"time": 408, "is_downbeat": false}, {"time": 432, "is_downbeat": true}, {"time": 456, "is_downbeat": false}, {"time": 480, "is_downbeat": true}, {"time": 504, "is_downbeat": false}, {"time": 528, "is_downbeat": true}, {"time": 552, "is_downbeat": false}, {"time": 576, "is_downbeat": true}, {"time": 600, "is_downbeat": false}, {"time": 624, "is_downbeat": true}, {"time": 648, "is_downbeat": false}, {"time": 672, "is_downbeat": true}, {"time": 696, "is_downbeat": false}, {"time": 720, "is_downbeat": true}, {"time": 744, "is_downbeat": false}, {"time": 768, "is_downbeat": true}, {"time": 792, "is_downbeat": false}, {"time": 816, "is_downbeat": true}, {"time": 840, "is_downbeat": false}, {"time": 864, "is_downbeat": true}, {"time": 888, "is_downbeat": false}, {"time": 912, "is_downbeat": true}, {"time": 936, "is_downbeat": false}, {"time": 960, "is_downbeat": true}, {"time": 984, "is_downbeat": false}, {"time": 1008, "is_downbeat": true}, {"time": 1032, "is_downbeat": false}, {"time": 1056, "is_downbeat": true}, {"time": 1080, "is_downbeat": false}, {"time": 1104, "is_downbeat": true}, {"time": 1128, "is_downbeat": false}, {"time": 1152, "is_downbeat": true}, {"time": 1176, "is_downbeat": false}, {"time": 1200, "is_downbeat": true}, {"time": 1224, "is_downbeat": false}, {"time": 1248, "is_downbeat": true}, {"time": 1272, "is_downbeat": false}, {"time": 1296, "is_downbeat": true}, {"time": 1320, "is_downbeat": false}, {"time": 1344, "is_downbeat": true}, {"time": 1368, "is_downbeat": false}, {"time": 1392, "is_downbeat": true}, {"time": 1416, "is_downbeat": false}, {"time": 1440, "is_downbeat": true}, {"time": 1464, "is_downbeat": false}, {"time": 1488, "is_downbeat": true}, {"time": 1512, "is_downbeat": false}, {"time": 1536, "is_downbeat": true}, {"time": 1560, "is_downbeat": false}, {"time": 1584, "is_downbeat": true}, {"time": 1608, "is_downbeat": false}, {"time": 1632, "is_downbeat": true}, {"time": 1656, "is_downbeat": false}, {"time": 1680, "is_downbeat": true}, {"time": 1704, "is_downbeat": false}, {"time": 1728, "is_downbeat": true}, {"time": 1752, "is_downbeat": false}, {"time": 1776, "is_downbeat": true}, {"time": 1800, "is_downbeat": false}, {"time": 1824, "is_downbeat": true}, {"time": 1848, "is_downbeat": false}, {"time": 1872, "is_downbeat": true}, {"time": 1896, "is_downbeat": false}, {"time": 1920, "is_downbeat": true}, {"time": 1944, "is_downbeat": false}, {"time": 1968, "is_downbeat": true}, {"time": 1992, "is_downbeat": false}, {"time": 2016, "is_downbeat": true}, {"time": 2040, "is_downbeat": false}, {"time": 2064, "is_downbeat": true}, {"time": 2088, "is_downbeat": false}, {"time": 2112, "is_downbeat": true}, {"time": 2136, "is_downbeat": false}, {"time": 2160, "is_downbeat": true}, {"time": 2184, "is_downbeat": false}, {"time": 2208, "is_downbeat": true}, {"time": 2232, "is_downbeat": false}, {"time": 2256, "is_downbeat": true}, {"time": 2280, "is_downbeat": false}, {"time": 2304, "is_downbeat": true}, {"time": 2328, "is_downbeat": false}, {"time": 2352, "is_downbeat": true}, {"time": 2376, "is_downbeat": false}, {"time": 2400, "is_downbeat": true}, {"time": 2424, "is_downbeat": false}, {"time": 2448, "is_downbeat": true}, {"time": 2472, "is_downbeat": false}, {"time": 2496, "is_downbeat": true}, {"time": 2520, "is_downbeat": false}, {"time": 2544, "is_downbeat": true}, {"time": 2568, "is_downbeat": false}, {"time": 2592, "is_downbeat": true}, {"time": 2616, "is_downbeat": false}, {"time": 2640, "is_downbeat": true}, {"time": 2664, "is_downbeat": false}, {"time": 2688, "is_downbeat": true}, {"time": 2712, "is_downbeat": false}, {"time": 2736, "is_downbeat": true}, {"time": 2760, "is_downbeat": false}, {"time": 2784, "is_downbeat": true}, {"time": 2808, "is_downbeat": false}, {"time": 2832, "is_downbeat": true}, {"time": 2856, "is_downbeat": false}, {"time": 2880, "is_downbeat": true}, {"time": 2904, "is_downbeat": false}, {"time": 2928, "is_downbeat": true}, {"time": 2952, "is_downbeat": false}, {"time": 2976, "is_downbeat": true}, {"time": 3000, "is_downbeat": false}, {"time": 3024, "is_downbeat": true}, {"time": 3048, "is_downbeat": false}, {"time": 3072, "is_downbeat": true}, {"time": 3096, "is_downbeat": false}, {"time": 3120, "is_downbeat": true}, {"time": 3144, "is_downbeat": false}, {"time": 3168, "is_downbeat": true}, {"time": 3192, "is_downbeat": false}, {"time": 3216, "is_downbeat": true}, {"time": 3240, "is_downbeat": false}, {"time": 3264, "is_downbeat": true}, {"time": 3288, "is_downbeat": false}, {"time": 3312, "is_downbeat": true}, {"time": 3336, "is_downbeat": false}, {"time": 3360, "is_downbeat": true}, {"time": 3384, "is_downbeat": false}, {"time": 3408, "is_downbeat": true}, {"time": 3432, "is_downbeat": false}, {"time": 3456, "is_downbeat": true}, {"time": 3480, "is_downbeat": false}, {"time": 3504, "is_downbeat": true}, {"time": 3528, "is_downbeat": false}, {"time": 3552, "is_downbeat": true}, {"time": 3576, "is_downbeat": false}], "tracks": [{"program": 0, "is_drum": false, "notes": [{"time": 12, "pitch": 74, "duration": 12, "velocity": 64}, {"time": 24, "pitch": 74, "duration": 12, "velocity": 64}, {"time": 36, "pitch": 71, "duration": 12, "velocity": 64}, {"time": 48, "pitch": 71, "duration": 12, "velocity": 64}, {"time": 60, "pitch": 79, "duration": 12, "velocity": 64}, {"time": 72, "pitch": 76, "duration": 6, "velocity": 64}, {"time": 78, "pitch": 74, "duration": 6, "velocity": 64}, {"time": 84, "pitch": 71, "duration": 12, "velocity": 64}, {"time": 96, "pitch": 69, "duration": 12, "velocity": 64}, {"time": 108, "pitch": 69, "duration": 24, "velocity": 64}, {"time": 132, "pitch": 67, "duration": 12, "velocity": 64}, {"time": 144, "pitch": 69, "duration": 48, "velocity": 64}, {"time": 192, "pitch": 74, "duration": 24, "velocity": 64}, {"time": 216, "pitch": 74, "duration": 24, "velocity": 64}, {"time": 240, "pitch": 79, "duration": 6, "velocity": 64}, {"time": 246, "pitch": 71, "duration": 18, "velocity": 64}, {"time": 264, "pitch": 71, "duration": 12, "velocity": 64}, {"time": 276, "pitch": 69, "duration": 12, "velocity": 64}, {"time": 288, "pitch": 67, "duration": 12, "velocity": 64}, {"time": 300, "pitch": 67, "duration": 24, "velocity": 64}, {"time": 324, "pitch": 69, "duration": 12, "velocity": 64}, {"time": 336, "pitch": 67, "duration": 36, "velocity": 64}, {"time": 372, "pitch": 64, "duration": 12, "velocity": 64}, {"time": 396, "pitch": 64, "duration": 6, "velocity": 64}, {"time": 402, "pitch": 67, "duration": 6, "velocity": 64}, {"time": 408, "pitch": 71, "duration": 12, "velocity": 64}, {"time": 420, "pitch": 71, "duration": 12, "velocity": 64}, {"time": 432, "pitch": 69, "duration": 12, "velocity": 64}, {"time": 444, "pitch": 74, "duration": 12, "velocity": 64}, {"time": 456, "pitch": 66, "duration": 12, "velocity": 64}, {"time": 468, "pitch": 64, "duration": 12, "velocity": 64}, {"time": 480, "pitch": 62, "duration": 24, "velocity": 64}, {"time": 504, "pitch": 62, "duration": 24, "velocity": 64}, {"time": 528, "pitch": 67, "duration": 12, "velocity": 64}, {"time": 540, "pitch": 67, "duration": 6, "velocity": 64}, {"time": 546, "pitch": 67, "duration": 6, "velocity": 64}, {"time": 552, "pitch": 64, "duration": 12, "velocity": 64}, {"time": 564, "pitch": 67, "duration": 12, "velocity": 64}, {"time": 576, "pitch": 69, "duration": 24, "velocity": 64}, {"time": 600, "pitch": 69, "duration": 24, "velocity": 64}, {"time": 624, "pitch": 67, "duration": 12, "velocity": 64}, {"time": 636, "pitch": 62, "duration": 12, "velocity": 64}, {"time": 648, "pitch": 64, "duration": 6, "velocity": 64}, {"time": 654, "pitch": 62, "duration": 6, "velocity": 64}, {"time": 660, "pitch": 64, "duration": 6, "velocity": 64}, {"time": 666, "pitch": 67, "duration": 6, "velocity": 64}, {"time": 672, "pitch": 62, "duration": 48, "velocity": 64}, {"time": 732, "pitch": 74, "duration": 12, "velocity": 64}, {"time": 744, "pitch": 74, "duration": 12, "velocity": 64}, {"time": 756, "pitch": 74, "duration": 6, "velocity": 64}, {"time": 762, "pitch": 71, "duration": 6, "velocity": 64}, {"time": 768, "pitch": 71, "duration": 12, "velocity": 64}, {"time": 780, "pitch": 79, "duration": 12, "velocity": 64}, {"time": 792, "pitch": 76, "duration": 6, "velocity": 64}, {"time": 798, "pitch": 74, "duration": 6, "velocity": 64}, {"time": 804, "pitch": 71, "duration": 12, "velocity": 64}, {"time": 816, "pitch": 69, "duration": 12, "velocity": 64}, {"time": 828, "pitch": 69, "duration": 24, "velocity": 64}, {"time": 852, "pitch": 67, "duration": 12, "velocity": 64}, {"time": 864, "pitch": 69, "duration": 12, "velocity": 64}, {"time": 912, "pitch": 74, "duration": 6, "velocity": 64}, {"time": 918, "pitch": 71, "duration": 6, "velocity": 64}, {"time": 924, "pitch": 74, "duration": 6, "velocity": 64}, {"time": 930, "pitch": 74, "duration": 6, "velocity": 64}, {"time": 936, "pitch": 74, "duration": 6, "velocity": 64}, {"time": 942, "pitch": 71, "duration": 6, "velocity": 64}, {"time": 948, "pitch": 74, "duration": 12, "velocity": 64}, {"time": 960, "pitch": 79, "duration": 24, "velocity": 64}, {"time": 984, "pitch": 71, "duration": 12, "velocity": 64}, {"time": 996, "pitch": 69, "duration": 12, "velocity": 64}, {"time": 1008, "pitch": 67, "duration": 12, "velocity": 64}, {"time": 1020, "pitch": 67, "duration": 24, "velocity": 64}, {"time": 1044, "pitch": 69, "duration": 12, "velocity": 64}, {"time": 1056, "pitch": 67, "duration": 36, "velocity": 64}, {"time": 1092, "pitch": 76, "duration": 12, "velocity": 64}, {"time": 1116, "pitch": 74, "duration": 12, "velocity": 64}, {"time": 1128, "pitch": 74, "duration": 12, "velocity": 64}, {"time": 1140, "pitch": 71, "duration": 12, "velocity": 64}, {"time": 1152, "pitch": 69, "duration": 12, "velocity": 64}, {"time": 1164, "pitch": 74, "duration": 12, "velocity": 64}, {"time": 1176, "pitch": 66, "duration": 12, "velocity": 64}, {"time": 1188, "pitch": 64, "duration": 12, "velocity": 64}, {"time": 1200, "pitch": 62, "duration": 24, "velocity": 64}, {"time": 1224, "pitch": 62, "duration": 24, "velocity": 64}, {"time": 1248, "pitch": 67, "duration": 12, "velocity": 64}, {"time": 1260, "pitch": 64, "duration": 6, "velocity": 64}, {"time": 1266, "pitch": 67, "duration": 6, "velocity": 64}, {"time": 1272, "pitch": 71, "duration": 12, "velocity": 64}, {"time": 1284, "pitch": 64, "duration": 6, "velocity": 64}, {"time": 1290, "pitch": 67, "duration": 6, "velocity": 64}, {"time": 1296, "pitch": 69, "duration": 24, "velocity": 64}, {"time": 1320, "pitch": 69, "duration": 24, "velocity": 64}, {"time": 1344, "pitch": 67, "duration": 12, "velocity": 64}, {"time": 1356, "pitch": 62, "duration": 12, "velocity": 64}, {"time": 1368, "pitch": 64, "duration": 6, "velocity": 64}, {"time": 1374, "pitch": 62, "duration": 6, "velocity": 64}, {"time": 1380, "pitch": 64, "duration": 6, "velocity": 64}, {"time": 1386, "pitch": 67, "duration": 6, "velocity": 64}, {"time": 1392, "pitch": 62, "duration": 48, "velocity": 64}, {"time": 1440, "pitch": 76, "duration": 24, "velocity": 64}, {"time": 1464, "pitch": 71, "duration": 6, "velocity": 64}, {"time": 1470, "pitch": 74, "duration": 6, "velocity": 64}, {"time": 1476, "pitch": 69, "duration": 24, "velocity": 64}, {"time": 1548, "pitch": 74, "duration": 24, "velocity": 64}, {"time": 1572, "pitch": 71, "duration": 12, "velocity": 64}, {"time": 1584, "pitch": 71, "duration": 18, "velocity": 64}, {"time": 1602, "pitch": 69, "duration": 6, "velocity": 64}, {"time": 1608, "pitch": 67, "duration": 6, "velocity": 64}, {"time": 1614, "pitch": 69, "duration": 6, "velocity": 64}, {"time": 1620, "pitch": 64, "duration": 24, "velocity": 64}, {"time": 1692, "pitch": 71, "duration": 24, "velocity": 64}, {"time": 1716, "pitch": 64, "duration": 12, "velocity": 64}, {"time": 1728, "pitch": 71, "duration": 24, "velocity": 64}, {"time": 1752, "pitch": 64, "duration": 6, "velocity": 64}, {"time": 1758, "pitch": 67, "duration": 6, "velocity": 64}, {"time": 1764, "pitch": 64, "duration": 12, "velocity": 64}, {"time": 1776, "pitch": 74, "duration": 18, "velocity": 64}, {"time": 1794, "pitch": 71, "duration": 6, "velocity": 64}, {"time": 1800, "pitch": 71, "duration": 24, "velocity": 64}, {"time": 1824, "pitch": 74, "duration": 24, "velocity": 64}, {"time": 1848, "pitch": 71, "duration": 6, "velocity": 64}, {"time": 1854, "pitch": 74, "duration": 6, "velocity": 64}, {"time": 1860, "pitch": 69, "duration": 24, "velocity": 64}, {"time": 1932, "pitch": 84, "duration": 6, "velocity": 64}, {"time": 1938, "pitch": 84, "duration": 6, "velocity": 64}, {"time": 1944, "pitch": 84, "duration": 12, "velocity": 64}, {"time": 1956, "pitch": 84, "duration": 12, "velocity": 64}, {"time": 1968, "pitch": 84, "duration": 18, "velocity": 64}, {"time": 1986, "pitch": 84, "duration": 6, "velocity": 64}, {"time": 1992, "pitch": 84, "duration": 24, "velocity": 64}, {"time": 2016, "pitch": 84, "duration": 12, "velocity": 64}, {"time": 2028, "pitch": 84, "duration": 12, "velocity": 64}, {"time": 2040, "pitch": 84, "duration": 24, "velocity": 64}, {"time": 2064, "pitch": 84, "duration": 12, "velocity": 64}, {"time": 2076, "pitch": 84, "duration": 12, "velocity": 64}, {"time": 2088, "pitch": 84, "duration": 24, "velocity": 64}, {"time": 2112, "pitch": 84, "duration": 12, "velocity": 64}, {"time": 2124, "pitch": 84, "duration": 6, "velocity": 64}, {"time": 2130, "pitch": 84, "duration": 6, "velocity": 64}, {"time": 2136, "pitch": 84, "duration": 12, "velocity": 64}, {"time": 2148, "pitch": 84, "duration": 12, "velocity": 64}, {"time": 2160, "pitch": 84, "duration": 24, "velocity": 64}, {"time": 2184, "pitch": 67, "duration": 6, "velocity": 64}, {"time": 2190, "pitch": 69, "duration": 6, "velocity": 64}, {"time": 2196, "pitch": 64, "duration": 24, "velocity": 64}, {"time": 2268, "pitch": 74, "duration": 24, "velocity": 64}, {"time": 2292, "pitch": 71, "duration": 12, "velocity": 64}, {"time": 2304, "pitch": 79, "duration": 12, "velocity": 64}, {"time": 2316, "pitch": 71, "duration": 12, "velocity": 64}, {"time": 2328, "pitch": 69, "duration": 12, "velocity": 64}, {"time": 2340, "pitch": 69, "duration": 12, "velocity": 64}, {"time": 2364, "pitch": 76, "duration": 24, "velocity": 64}, {"time": 2388, "pitch": 74, "duration": 12, "velocity": 64}, {"time": 2400, "pitch": 67, "duration": 24, "velocity": 64}, {"time": 2424, "pitch": 71, "duration": 12, "velocity": 64}, {"time": 2436, "pitch": 69, "duration": 24, "velocity": 64}, {"time": 2508, "pitch": 84, "duration": 24, "velocity": 64}, {"time": 2532, "pitch": 84, "duration": 12, "velocity": 64}, {"time": 2544, "pitch": 84, "duration": 24, "velocity": 64}, {"time": 2568, "pitch": 84, "duration": 24, "velocity": 64}, {"time": 2592, "pitch": 84, "duration": 12, "velocity": 64}, {"time": 2604, "pitch": 84, "duration": 6, "velocity": 64}, {"time": 2610, "pitch": 84, "duration": 6, "velocity": 64}, {"time": 2616, "pitch": 84, "duration": 12, "velocity": 64}, {"time": 2628, "pitch": 84, "duration": 6, "velocity": 64}, {"time": 2634, "pitch": 84, "duration": 6, "velocity": 64}, {"time": 2640, "pitch": 59, "duration": 12, "velocity": 64}, {"time": 2652, "pitch": 62, "duration": 12, "velocity": 64}, {"time": 2664, "pitch": 62, "duration": 24, "velocity": 64}, {"time": 2700, "pitch": 76, "duration": 24, "velocity": 64}, {"time": 2724, "pitch": 71, "duration": 12, "velocity": 64}, {"time": 2736, "pitch": 74, "duration": 24, "velocity": 64}, {"time": 2760, "pitch": 74, "duration": 12, "velocity": 64}, {"time": 2772, "pitch": 71, "duration": 12, "velocity": 64}, {"time": 2784, "pitch": 69, "duration": 12, "velocity": 64}, {"time": 2796, "pitch": 67, "duration": 12, "velocity": 64}, {"time": 2808, "pitch": 64, "duration": 24, "velocity": 64}, {"time": 2832, "pitch": 69, "duration": 18, "velocity": 64}, {"time": 2850, "pitch": 67, "duration": 6, "velocity": 64}, {"time": 2856, "pitch": 69, "duration": 12, "velocity": 64}, {"time": 2868, "pitch": 71, "duration": 12, "velocity": 64}, {"time": 2880, "pitch": 69, "duration": 12, "velocity": 64}, {"time": 2892, "pitch": 67, "duration": 12, "velocity": 64}, {"time": 2904, "pitch": 64, "duration": 24, "velocity": 64}, {"time": 2928, "pitch": 62, "duration": 96, "velocity": 64}, {"time": 3024, "pitch": 71, "duration": 24, "velocity": 64}, {"time": 3048, "pitch": 76, "duration": 24, "velocity": 64}, {"time": 3072, "pitch": 76, "duration": 12, "velocity": 64}, {"time": 3084, "pitch": 74, "duration": 12, "velocity": 64}, {"time": 3096, "pitch": 71, "duration": 24, "velocity": 64}, {"time": 3120, "pitch": 69, "duration": 36, "velocity": 64}, {"time": 3156, "pitch": 71, "duration": 12, "velocity": 64}, {"time": 3168, "pitch": 69, "duration": 24, "velocity": 64}, {"time": 3192, "pitch": 67, "duration": 24, "velocity": 64}, {"time": 3216, "pitch": 64, "duration": 24, "velocity": 64}, {"time": 3240, "pitch": 62, "duration": 24, "velocity": 64}, {"time": 3264, "pitch": 64, "duration": 12, "velocity": 64}, {"time": 3276, "pitch": 62, "duration": 12, "velocity": 64}, {"time": 3288, "pitch": 64, "duration": 12, "velocity": 64}, {"time": 3300, "pitch": 67, "duration": 12, "velocity": 64}, {"time": 3312, "pitch": 69, "duration": 72, "velocity": 64}, {"time": 3384, "pitch": 79, "duration": 24, "velocity": 64}, {"time": 3408, "pitch": 76, "duration": 24, "velocity": 64}, {"time": 3432, "pitch": 76, "duration": 24, "velocity": 64}, {"time": 3456, "pitch": 76, "duration": 12, "velocity": 64}, {"time": 3468, "pitch": 74, "duration": 12, "velocity": 64}, {"time": 3480, "pitch": 71, "duration": 24, "velocity": 64}, {"time": 3504, "pitch": 69, "duration": 96, "velocity": 64}]}]}