{"metadata": {"schema_version": "0.1", "title": "You Hao Shange,Liu Deng Lai", "source_format": "abc"}, "resolution": 24, "tempos": [{"time": 0, "qpm": 120.0}], "key_signatures": [{"time": 0, "root": 0, "mode": "major", "fifths": 0}], "time_signatures": [{"time": 0, "numerator": 4, "denominator": 4}], "tracks": [{"program": 0, "is_drum": false, "notes": [{"time": 0, "pitch": 64, "duration": 12, "velocity": 64}, {"time": 12, "pitch": 62, "duration": 48, "velocity": 64}, {"time": 60, "pitch": 64, "duration": 4, "velocity": 64}, {"time": 64, "pitch": 62, "duration": 4, "velocity": 64}, {"time": 68, "pitch": 64, "duration": 4, "velocity": 64}, {"time": 72, "pitch": 64, "duration": 12, "velocity": 64}, {"time": 84, "pitch": 64, "duration": 6, "velocity": 64}, {"time": 90, "pitch": 64, "duration": 6, "velocity": 64}, {"time": 96, "pitch": 64, "duration": 12, "velocity": 64}, {"time": 108, "pitch": 57, "duration": 12, "velocity": 64}, {"time": 120, "pitch": 62, "duration": 96, "velocity": 64}, {"time": 216, "pitch": 64, "duration": 4, "velocity": 64}, {"time": 220, "pitch": 62, "duration": 4, "velocity": 64}, {"time": 224, "pitch": 64, "duration": 4, "velocity": 64}, {"time": 228, "pitch": 62, "duration": 6, "velocity": 64}, {"time": 234, "pitch": 64, "duration": 6, "velocity": 64}, {"time": 240, "pitch": 62, "duration": 48, "velocity": 64}, {"time": 288, "pitch": 60, "duration": 6, "velocity": 64}, {"time": 294, "pitch": 62, "duration": 6, "velocity": 64}, {"time": 300, "pitch": 60, "duration": 6, "velocity": 64}, {"time": 306, "pitch": 57, "duration": 6, "velocity": 64}, {"time": 312, "pitch": 57, "duration": 12, "velocity": 64}, {"time": 324, "pitch": 60, "duration": 12, "velocity": 64}, {"time": 336, "pitch": 57, "duration": 96, "velocity": 64}, {"time": 456, "pitch": 60, "duration": 6, "velocity": 64}, {"time": 462, "pitch": 62, "duration": 6, "velocity": 64}, {"time": 468, "pitch": 64, "duration": 6, "velocity": 64}, {"time": 474, "pitch": 60, "duration": 6, "velocity": 64}, {"time": 480, "pitch": 62, "duration": 96, "velocity": 64}, {"time": 576, "pitch": 64, "duration": 4, "velocity": 64}, {"time": 580, "pitch": 62, "duration": 4, "velocity": 64}, {"time": 584, "pitch": 64, "duration": 4, "velocity": 64}, {"time": 588, "pitch": 62, "duration": 6, "velocity": 64}, {"time": 594, "pitch": 64, "duration": 6, "velocity": 64}, {"time": 600, "pitch": 62, "duration": 6, "velocity": 64}, {"time": 606, "pitch": 60, "duration": 6, "velocity": 64}, {"time": 612, "pitch": 57, "duration": 96, "velocity": 64}, {"time": 708, "pitch": 57, "duration": 48, "velocity": 64}, {"time": 756, "pitch": 60, "duration": 6, "velocity": 64}, {"time": 762, "pitch": 62, "duration": 6, "velocity": 64}, {"time": 768, "pitch": 60, "duration": 48, "velocity": 64}, {"time": 816, "pitch": 57, "duration": 96, "velocity": 64}]}]}