{"metadata": {"schema_version": "0.1", "title": "Kejia Shange,te chu ming", "source_format": "abc"}, "resolution": 24, "tempos": [{"time": 0, "qpm": 120.0}], "key_signatures": [{"time": 0, "root": 7, "mode": "major", "fifths": 1}], "time_signatures": [{"time": 0, "numerator": 4, "denominator": 4}], "beats": [{"time": 0, "is_downbeat": true}, {"time": 24, "is_downbeat": false}, {"time": 48, "is_downbeat": false}, {"time": 72, "is_downbeat": false}, {"time": 96, "is_downbeat": true}, {"time": 120, "is_downbeat": false}, {"time": 144, "is_downbeat": false}, {"time": 168, "is_downbeat": false}, {"time": 192, "is_downbeat": true}, {"time": 216, "is_downbeat": false}, {"time": 240, "is_downbeat": false}, {"time": 264, "is_downbeat": false}, {"time": 288, "is_downbeat": true}, {"time": 312, "is_downbeat": false}, {"time": 336, "is_downbeat": false}, {"time": 360, "is_downbeat": false}, {"time": 384, "is_downbeat": true}, {"time": 408, "is_downbeat": false}, {"time": 432, "is_downbeat": false}, {"time": 456, "is_downbeat": false}, {"time": 480, "is_downbeat": true}, {"time": 504, "is_downbeat": false}, {"time": 528, "is_downbeat": false}, {"time": 552, "is_downbeat": false}, {"time": 576, "is_downbeat": true}, {"time": 600, "is_downbeat": false}, {"time": 624, "is_downbeat": false}, {"time": 648, "is_downbeat": false}, {"time": 672, "is_downbeat": true}, {"time": 696, "is_downbeat": false}, {"time": 720, "is_downbeat": false}, {"time": 744, "is_downbeat": false}], "tracks": [{"program": 0, "is_drum": false, "notes": [{"time": 0, "pitch": 83, "duration": 12, "velocity": 64}, {"time": 12, "pitch": 83, "duration": 36, "velocity": 64}, {"time": 48, "pitch": 81, "duration": 6, "velocity": 64}, {"time": 54, "pitch": 83, "duration": 6, "velocity": 64}, {"time": 60, "pitch": 81, "duration": 24, "velocity": 64}, {"time": 84, "pitch": 83, "duration": 12, "velocity": 64}, {"time": 96, "pitch": 81, "duration": 6, "velocity": 64}, {"time": 102, "pitch": 83, "duration": 6, "velocity": 64}, {"time": 108, "pitch": 81, "duration": 6, "velocity": 64}, {"time": 114, "pitch": 79, "duration": 6, "velocity": 64}, {"time": 120, "pitch": 76, "duration": 24, "velocity": 64}, {"time": 144, "pitch": 76, "duration": 6, "velocity": 64}, {"time": 150, "pitch": 79, "duration": 6, "velocity": 64}, {"time": 156, "pitch": 81, "duration": 24, "velocity": 64}, {"time": 180, "pitch": 83, "duration": 12, "velocity": 64}, {"time": 192, "pitch": 81, "duration": 12, "velocity": 64}, {"time": 204, "pitch": 79, "duration": 6, "velocity": 64}, {"time": 210, "pitch": 76, "duration": 30, "velocity": 64}, {"time": 240, "pitch": 76, "duration": 6, "velocity": 64}, {"time": 246, "pitch": 79, "duration": 6, "velocity": 64}, {"time": 252, "pitch": 81, "duration": 24, "velocity": 64}, {"time": 276, "pitch": 83, "duration": 12, "velocity": 64}, {"time": 288, "pitch": 76, "duration": 12, "velocity": 64}, {"time": 300, "pitch": 81, "duration": 6, "velocity": 64}, {"time": 306, "pitch": 79, "duration": 6, "velocity": 64}, {"time": 312, "pitch": 76, "duration": 24, "velocity": 64}, {"time": 336, "pitch": 76, "duration": 12, "velocity": 64}, {"time": 348, "pitch": 79, "duration": 24, "velocity": 64}, {"time": 372, "pitch": 76, "duration": 12, "velocity": 64}, {"time": 384, "pitch": 76, "duration": 12, "velocity": 64}, {"time": 396, "pitch": 76, "duration": 36, "velocity": 64}, {"time": 432, "pitch": 76, "duration": 6, "velocity": 64}, {"time": 438, "pitch": 79, "duration": 6, "velocity": 64}, {"time": 444, "pitch": 81, "duration": 24, "velocity": 64}, {"time": 468, "pitch": 83, "duration": 12, "velocity": 64}, {"time": 480, "pitch": 81, "duration": 6, "velocity": 64}, {"time": 486, "pitch": 83, "duration": 6, "velocity": 64}, {"time": 492, "pitch": 81, "duration": 6, "velocity": 64}, {"time": 498, "pitch": 79, "duration": 6, "velocity": 64}, {"time": 504, "pitch": 76, "duration": 24, "velocity": 64}, {"time": 528, "pitch": 76, "duration": 12, "velocity": 64}, {"time": 540, "pitch": 79, "duration": 24, "velocity": 64}, {"time": 564, "pitch": 81, "duration": 6, "velocity": 64}, {"time": 570, "pitch": 83, "duration": 6, "velocity": 64}, {"time": 576, "pitch": 81, "duration": 12, "velocity": 64}, {"time": 588, "pitch": 79, "duration": 6, "velocity": 64}, {"time": 594, "pitch": 76, "duration": 30, "velocity": 64}, {"time": 624, "pitch": 76, "duration": 6, "velocity": 64}, {"time": 630, "pitch": 79, "duration": 6, "velocity": 64}, {"time": 636, "pitch": 81, "duration": 24, "velocity": 64}, {"time": 660, "pitch": 83, "duration": 12, "velocity": 64}, {"time": 672, "pitch": 79, "duration": 12, "velocity": 64}, {"time": 684, "pitch": 81, "duration": 6, "velocity": 64}, {"time": 690, "pitch": 79, "duration": 6, "velocity": 64}, {"time": 696, "pitch": 76, "duration": 24, "velocity": 64}, {"time": 720, "pitch": 76, "duration": 12, "velocity": 64}, {"time": 732, "pitch": 76, "duration": 36, "velocity": 64}]}]}