{"metadata": {"schema_version": "0.1", "title": "Qing jiang he", "source_format": "abc"}, "resolution": 24, "tempos": [{"time": 0, "qpm": 120.0}], "key_signatures": [{"time": 0, "root": 3, "mode": "major", "fifths": -3}], "time_signatures": [{"time": 0, "numerator": 4, "denominator": 4}, {"time": 720, "numerator": 1, "denominator": 4}, {"time": 744, "numerator": 2, "denominator": 4}], "beats": [{"time": 0, "is_downbeat": true}, {"time": 24, "is_downbeat": true}, {"time": 48, "is_downbeat": true}, {"time": 72, "is_downbeat": true}, {"time": 96, "is_downbeat": true}, {"time": 120, "is_downbeat": true}, {"time": 144, "is_downbeat": true}, {"time": 168, "is_downbeat": true}, {"time": 192, "is_downbeat": true}, {"time": 216, "is_downbeat": true}, {"time": 240, "is_downbeat": true}, {"time": 264, "is_downbeat": true}, {"time": 288, "is_downbeat": true}, {"time": 312, "is_downbeat": true}, {"time": 336, "is_downbeat": true}, {"time": 360, "is_downbeat": true}, {"time": 384, "is_downbeat": true}, {"time": 408, "is_downbeat": true}, {"time": 432, "is_downbeat": true}, {"time": 456, "is_downbeat": true}, {"time": 480, "is_downbeat": true}, {"time": 504, "is_downbeat": true}, {"time": 528, "is_downbeat": true}, {"time": 552, "is_downbeat": true}, {"time": 576, "is_downbeat": true}, {"time": 600, "is_downbeat": true}, {"time": 624, "is_downbeat": true}, {"time": 648, "is_downbeat": true}, {"time": 672, "is_downbeat": true}, {"time": 696, "is_downbeat": true}, {"time": 720, "is_downbeat": true}, {"time": 744, "is_downbeat": true}, {"time": 768, "is_downbeat": false}, {"time": 792, "is_downbeat": true}, {"time": 816, "is_downbeat": false}], "tracks": [{"program": 0, "is_drum": false, "notes": [{"time": 0, "pitch": 72, "duration": 12, "velocity": 64}, {"time": 12, "pitch": 72, "duration": 24, "velocity": 64}, {"time": 36, "pitch": 70, "duration": 12, "velocity": 64}, {"time": 48, "pitch": 72, "duration": 12, "velocity": 64}, {"time": 60, "pitch": 72, "duration": 24, "velocity": 64}, {"time": 84, "pitch": 70, "duration": 12, "velocity": 64}, {"time": 96, "pitch": 72, "duration": 12, "velocity": 64}, {"time": 108, "pitch": 75, "duration": 12, "velocity": 64}, {"time": 120, "pitch": 72, "duration": 6, "velocity": 64}, {"time": 126, "pitch": 75, "duration": 6, "velocity": 64}, {"time": 132, "pitch": 72, "duration": 6, "velocity": 64}, {"time": 138, "pitch": 70, "duration": 6, "velocity": 64}, {"time": 144, "pitch": 68, "duration": 48, "velocity": 64}, {"time": 192, "pitch": 68, "duration": 12, "velocity": 64}, {"time": 204, "pitch": 68, "duration": 24, "velocity": 64}, {"time": 228, "pitch": 70, "duration": 12, "velocity": 64}, {"time": 240, "pitch": 72, "duration": 12, "velocity": 64}, {"time": 252, "pitch": 72, "duration": 24, "velocity": 64}, {"time": 276, "pitch": 70, "duration": 12, "velocity": 64}, {"time": 288, "pitch": 67, "duration": 12, "velocity": 64}, {"time": 300, "pitch": 65, "duration": 12, "velocity": 64}, {"time": 312, "pitch": 67, "duration": 6, "velocity": 64}, {"time": 318, "pitch": 70, "duration": 6, "velocity": 64}, {"time": 324, "pitch": 65, "duration": 6, "velocity": 64}, {"time": 330, "pitch": 63, "duration": 6, "velocity": 64}, {"time": 336, "pitch": 60, "duration": 48, "velocity": 64}, {"time": 384, "pitch": 60, "duration": 12, "velocity": 64}, {"time": 396, "pitch": 60, "duration": 24, "velocity": 64}, {"time": 420, "pitch": 63, "duration": 12, "velocity": 64}, {"time": 432, "pitch": 65, "duration": 12, "velocity": 64}, {"time": 444, "pitch": 65, "duration": 24, "velocity": 64}, {"time": 468, "pitch": 63, "duration": 12, "velocity": 64}, {"time": 480, "pitch": 63, "duration": 12, "velocity": 64}, {"time": 492, "pitch": 65, "duration": 12, "velocity": 64}, {"time": 504, "pitch": 67, "duration": 6, "velocity": 64}, {"time": 510, "pitch": 65, "duration": 6, "velocity": 64}, {"time": 516, "pitch": 67, "duration": 6, "velocity": 64}, {"time": 522, "pitch": 70, "duration": 6, "velocity": 64}, {"time": 528, "pitch": 72, "duration": 48, "velocity": 64}, {"time": 576, "pitch": 72, "duration": 12, "velocity": 64}, {"time": 588, "pitch": 72, "duration": 24, "velocity": 64}, {"time": 612, "pitch": 70, "duration": 6, "velocity": 64}, {"time": 618, "pitch": 67, "duration": 6, "velocity": 64}, {"time": 624, "pitch": 65, "duration": 18, "velocity": 64}, {"time": 642, "pitch": 67, "duration": 6, "velocity": 64}, {"time": 648, "pitch": 65, "duration": 12, "velocity": 64}, {"time": 660, "pitch": 63, "duration": 12, "velocity": 64}, {"time": 672, "pitch": 65, "duration": 12, "velocity": 64}, {"time": 684, "pitch": 63, "duration": 12, "velocity": 64}, {"time": 696, "pitch": 60, "duration": 12, "velocity": 64}, {"time": 708, "pitch": 72, "duration": 24, "velocity": 64}, {"time": 732, "pitch": 70, "duration": 6, "velocity": 64}, {"time": 738, "pitch": 72, "duration": 6, "velocity": 64}, {"time": 744, "pitch": 70, "duration": 12, "velocity": 64}, {"time": 756, "pitch": 67, "duration": 12, "velocity": 64}, {"time": 768, "pitch": 65, "duration": 12, "velocity": 64}, {"time": 780, "pitch": 63, "duration": 12, "velocity": 64}, {"time": 792, "pitch": 60, "duration": 48, "velocity": 64}]}]}