{"metadata": {"schema_version": "0.1", "title": "Shier yue hua", "source_format": "abc"}, "resolution": 24, "tempos": [{"time": 0, "qpm": 120.0}], "key_signatures": [{"time": 0, "root": 5, "mode": "major", "fifths": -1}], "time_signatures": [{"time": 0, "numerator": 2, "denominator": 4}], "beats": [{"time": 0, "is_downbeat": true}, {"time": 24, "is_downbeat": false}, {"time": 48, "is_downbeat": true}, {"time": 72, "is_downbeat": false}, {"time": 96, "is_downbeat": true}, {"time": 120, "is_downbeat": false}, {"time": 144, "is_downbeat": true}, {"time": 168, "is_downbeat": false}, {"time": 192, "is_downbeat": true}, {"time": 216, "is_downbeat": false}, {"time": 240, "is_downbeat": true}, {"time": 264, "is_downbeat": false}, {"time": 288, "is_downbeat": true}, {"time": 312, "is_downbeat": false}, {"time": 336, "is_downbeat": true}, {"time": 360, "is_downbeat": false}, {"time": 384, "is_downbeat": true}, {"time": 408, "is_downbeat": false}, {"time": 432, "is_downbeat": true}, {"time": 456, "is_downbeat": false}, {"time": 480, "is_downbeat": true}, {"time": 504, "is_downbeat": false}, {"time": 528, "is_downbeat": true}, {"time": 552, "is_downbeat": false}, {"time": 576, "is_downbeat": true}, {"time": 600, "is_downbeat": false}, {"time": 624, "is_downbeat": true}, {"time": 648, "is_downbeat": false}, {"time": 672, "is_downbeat": true}, {"time": 696, "is_downbeat": false}, {"time": 720, "is_downbeat": true}, {"time": 744, "is_downbeat": false}, {"time": 768, "is_downbeat": true}, {"time": 792, "is_downbeat": false}], "tracks": [{"program": 0, "is_drum": false, "notes": [{"time": 0, "pitch": 65, "duration": 6, "velocity": 64}, {"time": 6, "pitch": 65, "duration": 6, "velocity": 64}, {"time": 12, "pitch": 62, "duration": 6, "velocity": 64}, {"time": 18, "pitch": 65, "duration": 6, "velocity": 64}, {"time": 24, "pitch": 62, "duration": 12, "velocity": 64}, {"time": 36, "pitch": 72, "duration": 12, "velocity": 64}, {"time": 48, "pitch": 72, "duration": 6, "velocity": 64}, {"time": 54, "pitch": 69, "duration": 6, "velocity": 64}, {"time": 60, "pitch": 69, "duration": 6, "velocity": 64}, {"time": 66, "pitch": 67, "duration": 6, "velocity": 64}, {"time": 72, "pitch": 65, "duration": 6, "velocity": 64}, {"time": 78, "pitch": 67, "duration": 6, "velocity": 64}, {"time": 84, "pitch": 65, "duration": 12, "velocity": 64}, {"time": 96, "pitch": 65, "duration": 12, "velocity": 64}, {"time": 108, "pitch": 65, "duration": 24, "velocity": 64}, {"time": 132, "pitch": 62, "duration": 6, "velocity": 64}, {"time": 138, "pitch": 60, "duration": 6, "velocity": 64}, {"time": 144, "pitch": 72, "duration": 12, "velocity": 64}, {"time": 156, "pitch": 69, "duration": 6, "velocity": 64}, {"time": 162, "pitch": 72, "duration": 6, "velocity": 64}, {"time": 168, "pitch": 67, "duration": 24, "velocity": 64}, {"time": 192, "pitch": 72, "duration": 36, "velocity": 64}, {"time": 228, "pitch": 69, "duration": 6, "velocity": 64}, {"time": 234, "pitch": 72, "duration": 6, "velocity": 64}, {"time": 240, "pitch": 74, "duration": 36, "velocity": 64}, {"time": 276, "pitch": 69, "duration": 6, "velocity": 64}, {"time": 282, "pitch": 67, "duration": 6, "velocity": 64}, {"time": 288, "pitch": 65, "duration": 12, "velocity": 64}, {"time": 300, "pitch": 60, "duration": 6, "velocity": 64}, {"time": 306, "pitch": 62, "duration": 6, "velocity": 64}, {"time": 312, "pitch": 65, "duration": 24, "velocity": 64}, {"time": 336, "pitch": 65, "duration": 12, "velocity": 64}, {"time": 348, "pitch": 65, "duration": 6, "velocity": 64}, {"time": 354, "pitch": 62, "duration": 6, "velocity": 64}, {"time": 360, "pitch": 72, "duration": 24, "velocity": 64}, {"time": 384, "pitch": 69, "duration": 9, "velocity": 64}, {"time": 393, "pitch": 72, "duration": 3, "velocity": 64}, {"time": 396, "pitch": 69, "duration": 6, "velocity": 64}, {"time": 402, "pitch": 67, "duration": 6, "velocity": 64}, {"time": 408, "pitch": 65, "duration": 6, "velocity": 64}, {"time": 414, "pitch": 67, "duration": 6, "velocity": 64}, {"time": 420, "pitch": 65, "duration": 6, "velocity": 64}, {"time": 426, "pitch": 62, "duration": 6, "velocity": 64}, {"time": 432, "pitch": 60, "duration": 48, "velocity": 64}, {"time": 480, "pitch": 65, "duration": 6, "velocity": 64}, {"time": 486, "pitch": 60, "duration": 12, "velocity": 64}, {"time": 498, "pitch": 62, "duration": 6, "velocity": 64}, {"time": 504, "pitch": 65, "duration": 12, "velocity": 64}, {"time": 516, "pitch": 65, "duration": 12, "velocity": 64}, {"time": 528, "pitch": 72, "duration": 36, "velocity": 64}, {"time": 564, "pitch": 69, "duration": 6, "velocity": 64}, {"time": 570, "pitch": 72, "duration": 6, "velocity": 64}, {"time": 576, "pitch": 74, "duration": 36, "velocity": 64}, {"time": 612, "pitch": 69, "duration": 6, "velocity": 64}, {"time": 618, "pitch": 67, "duration": 6, "velocity": 64}, {"time": 624, "pitch": 65, "duration": 12, "velocity": 64}, {"time": 636, "pitch": 60, "duration": 6, "velocity": 64}, {"time": 642, "pitch": 62, "duration": 6, "velocity": 64}, {"time": 648, "pitch": 65, "duration": 24, "velocity": 64}, {"time": 672, "pitch": 65, "duration": 12, "velocity": 64}, {"time": 684, "pitch": 65, "duration": 6, "velocity": 64}, {"time": 690, "pitch": 62, "duration": 6, "velocity": 64}, {"time": 696, "pitch": 60, "duration": 24, "velocity": 64}, {"time": 720, "pitch": 69, "duration": 9, "velocity": 64}, {"time": 729, "pitch": 72, "duration": 3, "velocity": 64}, {"time": 732, "pitch": 69, "duration": 6, "velocity": 64}, {"time": 738, "pitch": 67, "duration": 6, "velocity": 64}, {"time": 744, "pitch": 65, "duration": 6, "velocity": 64}, {"time": 750, "pitch": 67, "duration": 6, "velocity": 64}, {"time": 756, "pitch": 65, "duration": 6, "velocity": 64}, {"time": 762, "pitch": 62, "duration": 6, "velocity": 64}, {"time": 768, "pitch": 60, "duration": 48, "velocity": 64}]}]}