{"metadata": {"schema_version": "0.1", "title": "Jian mian hua", "source_format": "abc"}, "resolution": 24, "tempos": [{"time": 0, "qpm": 120.0}], "key_signatures": [{"time": 0, "root": 3, "mode": "major", "fifths": -3}], "time_signatures": [{"time": 0, "numerator": 2, "denominator": 4}], "beats": [{"time": 0, "is_downbeat": true}, {"time": 24, "is_downbeat": false}, {"time": 48, "is_downbeat": true}, {"time": 72, "is_downbeat": false}, {"time": 96, "is_downbeat": true}, {"time": 120, "is_downbeat": false}, {"time": 144, "is_downbeat": true}, {"time": 168, "is_downbeat": false}, {"time": 192, "is_downbeat": true}, {"time": 216, "is_downbeat": false}, {"time": 240, "is_downbeat": true}, {"time": 264, "is_downbeat": false}, {"time": 288, "is_downbeat": true}, {"time": 312, "is_downbeat": false}, {"time": 336, "is_downbeat": true}, {"time": 360, "is_downbeat": false}, {"time": 384, "is_downbeat": true}, {"time": 408, "is_downbeat": false}, {"time": 432, "is_downbeat": true}, {"time": 456, "is_downbeat": false}, {"time": 480, "is_downbeat": true}, {"time": 504, "is_downbeat": false}, {"time": 528, "is_downbeat": true}, {"time": 552, "is_downbeat": false}, {"time": 576, "is_downbeat": true}, {"time": 600, "is_downbeat": false}, {"time": 624, "is_downbeat": true}, {"time": 648, "is_downbeat": false}, {"time": 672, "is_downbeat": true}, {"time": 696, "is_downbeat": false}, {"time": 720, "is_downbeat": true}, {"time": 744, "is_downbeat": false}, {"time": 768, "is_downbeat": true}, {"time": 792, "is_downbeat": false}, {"time": 816, "is_downbeat": true}, {"time": 840, "is_downbeat": false}, {"time": 864, "is_downbeat": true}, {"time": 888, "is_downbeat": false}, {"time": 912, "is_downbeat": true}, {"time": 936, "is_downbeat": false}, {"time": 960, "is_downbeat": true}, {"time": 984, "is_downbeat": false}, {"time": 1008, "is_downbeat": true}, {"time": 1032, "is_downbeat": false}, {"time": 1056, "is_downbeat": true}, {"time": 1080, "is_downbeat": false}, {"time": 1104, "is_downbeat": true}, {"time": 1128, "is_downbeat": false}, {"time": 1152, "is_downbeat": true}, {"time": 1176, "is_downbeat": false}], "tracks": [{"program": 0, "is_drum": false, "notes": [{"time": 0, "pitch": 77, "duration": 12, "velocity": 64}, {"time": 12, "pitch": 74, "duration": 12, "velocity": 64}, {"time": 24, "pitch": 72, "duration": 12, "velocity": 64}, {"time": 36, "pitch": 67, "duration": 12, "velocity": 64}, {"time": 48, "pitch": 77, "duration": 12, "velocity": 64}, {"time": 60, "pitch": 74, "duration": 12, "velocity": 64}, {"time": 72, "pitch": 72, "duration": 12, "velocity": 64}, {"time": 84, "pitch": 67, "duration": 12, "velocity": 64}, {"time": 96, "pitch": 77, "duration": 18, "velocity": 64}, {"time": 114, "pitch": 74, "duration": 6, "velocity": 64}, {"time": 120, "pitch": 72, "duration": 12, "velocity": 64}, {"time": 132, "pitch": 72, "duration": 6, "velocity": 64}, {"time": 138, "pitch": 75, "duration": 6, "velocity": 64}, {"time": 144, "pitch": 67, "duration": 12, "velocity": 64}, {"time": 156, "pitch": 70, "duration": 24, "velocity": 64}, {"time": 180, "pitch": 72, "duration": 12, "velocity": 64}, {"time": 192, "pitch": 67, "duration": 48, "velocity": 64}, {"time": 240, "pitch": 67, "duration": 12, "velocity": 64}, {"time": 252, "pitch": 67, "duration": 24, "velocity": 64}, {"time": 276, "pitch": 67, "duration": 6, "velocity": 64}, {"time": 282, "pitch": 67, "duration": 6, "velocity": 64}, {"time": 288, "pitch": 77, "duration": 12, "velocity": 64}, {"time": 300, "pitch": 74, "duration": 12, "velocity": 64}, {"time": 312, "pitch": 72, "duration": 12, "velocity": 64}, {"time": 324, "pitch": 72, "duration": 12, "velocity": 64}, {"time": 336, "pitch": 63, "duration": 18, "velocity": 64}, {"time": 354, "pitch": 65, "duration": 6, "velocity": 64}, {"time": 360, "pitch": 67, "duration": 12, "velocity": 64}, {"time": 372, "pitch": 67, "duration": 12, "velocity": 64}, {"time": 384, "pitch": 65, "duration": 24, "velocity": 64}, {"time": 408, "pitch": 65, "duration": 24, "velocity": 64}, {"time": 432, "pitch": 72, "duration": 24, "velocity": 64}, {"time": 456, "pitch": 72, "duration": 24, "velocity": 64}, {"time": 480, "pitch": 72, "duration": 24, "velocity": 64}, {"time": 504, "pitch": 72, "duration": 24, "velocity": 64}, {"time": 528, "pitch": 67, "duration": 9, "velocity": 64}, {"time": 537, "pitch": 67, "duration": 3, "velocity": 64}, {"time": 540, "pitch": 67, "duration": 6, "velocity": 64}, {"time": 546, "pitch": 65, "duration": 6, "velocity": 64}, {"time": 552, "pitch": 63, "duration": 12, "velocity": 64}, {"time": 564, "pitch": 70, "duration": 12, "velocity": 64}, {"time": 576, "pitch": 67, "duration": 18, "velocity": 64}, {"time": 594, "pitch": 65, "duration": 6, "velocity": 64}, {"time": 600, "pitch": 63, "duration": 12, "velocity": 64}, {"time": 612, "pitch": 60, "duration": 24, "velocity": 64}, {"time": 636, "pitch": 67, "duration": 12, "velocity": 64}, {"time": 648, "pitch": 65, "duration": 9, "velocity": 64}, {"time": 657, "pitch": 67, "duration": 3, "velocity": 64}, {"time": 660, "pitch": 65, "duration": 6, "velocity": 64}, {"time": 666, "pitch": 63, "duration": 6, "velocity": 64}, {"time": 672, "pitch": 65, "duration": 12, "velocity": 64}, {"time": 684, "pitch": 60, "duration": 24, "velocity": 64}, {"time": 708, "pitch": 58, "duration": 12, "velocity": 64}, {"time": 720, "pitch": 60, "duration": 24, "velocity": 64}, {"time": 744, "pitch": 60, "duration": 24, "velocity": 64}, {"time": 768, "pitch": 67, "duration": 12, "velocity": 64}, {"time": 780, "pitch": 67, "duration": 12, "velocity": 64}, {"time": 792, "pitch": 67, "duration": 12, "velocity": 64}, {"time": 804, "pitch": 74, "duration": 12, "velocity": 64}, {"time": 816, "pitch": 72, "duration": 24, "velocity": 64}, {"time": 840, "pitch": 72, "duration": 24, "velocity": 64}, {"time": 864, "pitch": 67, "duration": 9, "velocity": 64}, {"time": 873, "pitch": 67, "duration": 3, "velocity": 64}, {"time": 876, "pitch": 67, "duration": 6, "velocity": 64}, {"time": 882, "pitch": 65, "duration": 6, "velocity": 64}, {"time": 888, "pitch": 63, "duration": 12, "velocity": 64}, {"time": 900, "pitch": 70, "duration": 12, "velocity": 64}, {"time": 912, "pitch": 67, "duration": 18, "velocity": 64}, {"time": 930, "pitch": 65, "duration": 6, "velocity": 64}, {"time": 936, "pitch": 63, "duration": 12, "velocity": 64}, {"time": 948, "pitch": 60, "duration": 24, "velocity": 64}, {"time": 972, "pitch": 67, "duration": 6, "velocity": 64}, {"time": 978, "pitch": 67, "duration": 6, "velocity": 64}, {"time": 984, "pitch": 65, "duration": 9, "velocity": 64}, {"time": 993, "pitch": 67, "duration": 3, "velocity": 64}, {"time": 996, "pitch": 65, "duration": 6, "velocity": 64}, {"time": 1002, "pitch": 63, "duration": 6, "velocity": 64}, {"time": 1008, "pitch": 65, "duration": 12, "velocity": 64}, {"time": 1020, "pitch": 60, "duration": 24, "velocity": 64}, {"time": 1044, "pitch": 58, "duration": 12, "velocity": 64}, {"time": 1056, "pitch": 60, "duration": 48, "velocity": 64}, {"time": 1104, "pitch": 67, "duration": 12, "velocity": 64}, {"time": 1116, "pitch": 67, "duration": 12, "velocity": 64}, {"time": 1128, "pitch": 67, "duration": 12, "velocity": 64}, {"time": 1140, "pitch": 74, "duration": 12, "velocity": 64}, {"time": 1152, "pitch": 72, "duration": 48, "velocity": 64}]}]}