{"metadata": {"schema_version": "0.1", "title": "Lang da shaozi ying guo gou", "source_format": "abc"}, "resolution": 24, "tempos": [{"time": 0, "qpm": 120.0}], "key_signatures": [{"time": 0, "root": 9, "mode": "major", "fifths": 3}], "time_signatures": [{"time": 0, "numerator": 2, "denominator": 4}], "beats": [{"time": 0, "is_downbeat": true}, {"time": 24, "is_downbeat": false}, {"time": 48, "is_downbeat": true}, {"time": 72, "is_downbeat": false}, {"time": 96, "is_downbeat": true}, {"time": 120, "is_downbeat": false}, {"time": 144, "is_downbeat": true}, {"time": 168, "is_downbeat": false}, {"time": 192, "is_downbeat": true}, {"time": 216, "is_downbeat": false}, {"time": 240, "is_downbeat": true}, {"time": 264, "is_downbeat": false}, {"time": 288, "is_downbeat": true}, {"time": 312, "is_downbeat": false}, {"time": 336, "is_downbeat": true}, {"time": 360, "is_downbeat": false}, {"time": 384, "is_downbeat": true}, {"time": 408, "is_downbeat": false}, {"time": 432, "is_downbeat": true}, {"time": 456, "is_downbeat": false}, {"time": 480, "is_downbeat": true}, {"time": 504, "is_downbeat": false}, {"time": 528, "is_downbeat": true}, {"time": 552, "is_downbeat": false}, {"time": 576, "is_downbeat": true}, {"time": 600, "is_downbeat": false}, {"time": 624, "is_downbeat": true}, {"time": 648, "is_downbeat": false}, {"time": 672, "is_downbeat": true}, {"time": 696, "is_downbeat": false}, {"time": 720, "is_downbeat": true}, {"time": 744, "is_downbeat": false}, {"time": 768, "is_downbeat": true}, {"time": 792, "is_downbeat": false}, {"time": 816, "is_downbeat": true}, {"time": 840, "is_downbeat": false}, {"time": 864, "is_downbeat": true}, {"time": 888, "is_downbeat": false}, {"time": 912, "is_downbeat": true}, {"time": 936, "is_downbeat": false}, {"time": 960, "is_downbeat": true}, {"time": 984, "is_downbeat": false}, {"time": 1008, "is_downbeat": true}, {"time": 1032, "is_downbeat": false}, {"time": 1056, "is_downbeat": true}, {"time": 1080, "is_downbeat": false}, {"time": 1104, "is_downbeat": true}, {"time": 1128, "is_downbeat": false}, {"time": 1152, "is_downbeat": true}, {"time": 1176, "is_downbeat": false}, {"time": 1200, "is_downbeat": true}, {"time": 1224, "is_downbeat": false}, {"time": 1248, "is_downbeat": true}, {"time": 1272, "is_downbeat": false}, {"time": 1296, "is_downbeat": true}, {"time": 1320, "is_downbeat": false}, {"time": 1344, "is_downbeat": true}, {"time": 1368, "is_downbeat": false}, {"time": 1392, "is_downbeat": true}, {"time": 1416, "is_downbeat": false}, {"time": 1440, "is_downbeat": true}, {"time": 1464, "is_downbeat": false}, {"time": 1488, "is_downbeat": true}, {"time": 1512, "is_downbeat": false}, {"time": 1536, "is_downbeat": true}, {"time": 1560, "is_downbeat": false}, {"time": 1584, "is_downbeat": true}, {"time": 1608, "is_downbeat": false}, {"time": 1632, "is_downbeat": true}, {"time": 1656, "is_downbeat": false}], "tracks": [{"program": 0, "is_drum": false, "notes": [{"time": 0, "pitch": 73, "duration": 12, "velocity": 64}, {"time": 12, "pitch": 78, "duration": 12, "velocity": 64}, {"time": 24, "pitch": 81, "duration": 12, "velocity": 64}, {"time": 36, "pitch": 78, "duration": 12, "velocity": 64}, {"time": 48, "pitch": 78, "duration": 48, "velocity": 64}, {"time": 96, "pitch": 73, "duration": 48, "velocity": 64}, {"time": 144, "pitch": 76, "duration": 48, "velocity": 64}, {"time": 192, "pitch": 73, "duration": 12, "velocity": 64}, {"time": 204, "pitch": 73, "duration": 6, "velocity": 64}, {"time": 210, "pitch": 76, "duration": 6, "velocity": 64}, {"time": 216, "pitch": 73, "duration": 18, "velocity": 64}, {"time": 234, "pitch": 83, "duration": 6, "velocity": 64}, {"time": 240, "pitch": 76, "duration": 12, "velocity": 64}, {"time": 252, "pitch": 81, "duration": 6, "velocity": 64}, {"time": 258, "pitch": 78, "duration": 30, "velocity": 64}, {"time": 288, "pitch": 83, "duration": 12, "velocity": 64}, {"time": 300, "pitch": 76, "duration": 12, "velocity": 64}, {"time": 312, "pitch": 73, "duration": 12, "velocity": 64}, {"time": 324, "pitch": 73, "duration": 12, "velocity": 64}, {"time": 336, "pitch": 83, "duration": 36, "velocity": 64}, {"time": 372, "pitch": 73, "duration": 12, "velocity": 64}, {"time": 384, "pitch": 83, "duration": 6, "velocity": 64}, {"time": 390, "pitch": 73, "duration": 6, "velocity": 64}, {"time": 396, "pitch": 81, "duration": 12, "velocity": 64}, {"time": 408, "pitch": 81, "duration": 12, "velocity": 64}, {"time": 420, "pitch": 78, "duration": 12, "velocity": 64}, {"time": 432, "pitch": 83, "duration": 12, "velocity": 64}, {"time": 444, "pitch": 78, "duration": 36, "velocity": 64}, {"time": 480, "pitch": 73, "duration": 12, "velocity": 64}, {"time": 492, "pitch": 78, "duration": 12, "velocity": 64}, {"time": 504, "pitch": 81, "duration": 12, "velocity": 64}, {"time": 516, "pitch": 73, "duration": 12, "velocity": 64}, {"time": 528, "pitch": 78, "duration": 48, "velocity": 64}, {"time": 576, "pitch": 73, "duration": 48, "velocity": 64}, {"time": 624, "pitch": 76, "duration": 36, "velocity": 64}, {"time": 660, "pitch": 76, "duration": 12, "velocity": 64}, {"time": 672, "pitch": 83, "duration": 12, "velocity": 64}, {"time": 684, "pitch": 73, "duration": 6, "velocity": 64}, {"time": 690, "pitch": 76, "duration": 6, "velocity": 64}, {"time": 696, "pitch": 73, "duration": 18, "velocity": 64}, {"time": 714, "pitch": 83, "duration": 6, "velocity": 64}, {"time": 720, "pitch": 73, "duration": 12, "velocity": 64}, {"time": 732, "pitch": 81, "duration": 6, "velocity": 64}, {"time": 738, "pitch": 78, "duration": 18, "velocity": 64}, {"time": 756, "pitch": 73, "duration": 12, "velocity": 64}, {"time": 768, "pitch": 81, "duration": 12, "velocity": 64}, {"time": 780, "pitch": 73, "duration": 12, "velocity": 64}, {"time": 792, "pitch": 81, "duration": 12, "velocity": 64}, {"time": 804, "pitch": 83, "duration": 12, "velocity": 64}, {"time": 816, "pitch": 83, "duration": 36, "velocity": 64}, {"time": 852, "pitch": 78, "duration": 12, "velocity": 64}, {"time": 864, "pitch": 81, "duration": 12, "velocity": 64}, {"time": 876, "pitch": 81, "duration": 12, "velocity": 64}, {"time": 888, "pitch": 83, "duration": 24, "velocity": 64}, {"time": 912, "pitch": 83, "duration": 12, "velocity": 64}, {"time": 924, "pitch": 78, "duration": 36, "velocity": 64}, {"time": 960, "pitch": 73, "duration": 18, "velocity": 64}, {"time": 978, "pitch": 78, "duration": 6, "velocity": 64}, {"time": 984, "pitch": 78, "duration": 12, "velocity": 64}, {"time": 996, "pitch": 73, "duration": 12, "velocity": 64}, {"time": 1008, "pitch": 78, "duration": 12, "velocity": 64}, {"time": 1044, "pitch": 78, "duration": 6, "velocity": 64}, {"time": 1050, "pitch": 78, "duration": 6, "velocity": 64}, {"time": 1056, "pitch": 78, "duration": 6, "velocity": 64}, {"time": 1062, "pitch": 81, "duration": 6, "velocity": 64}, {"time": 1068, "pitch": 73, "duration": 24, "velocity": 64}, {"time": 1092, "pitch": 78, "duration": 6, "velocity": 64}, {"time": 1098, "pitch": 81, "duration": 6, "velocity": 64}, {"time": 1104, "pitch": 78, "duration": 12, "velocity": 64}, {"time": 1116, "pitch": 78, "duration": 36, "velocity": 64}, {"time": 1182, "pitch": 83, "duration": 18, "velocity": 64}, {"time": 1200, "pitch": 81, "duration": 12, "velocity": 64}, {"time": 1212, "pitch": 81, "duration": 12, "velocity": 64}, {"time": 1224, "pitch": 81, "duration": 12, "velocity": 64}, {"time": 1236, "pitch": 81, "duration": 12, "velocity": 64}, {"time": 1248, "pitch": 83, "duration": 48, "velocity": 64}, {"time": 1296, "pitch": 73, "duration": 12, "velocity": 64}, {"time": 1308, "pitch": 83, "duration": 12, "velocity": 64}, {"time": 1320, "pitch": 83, "duration": 24, "velocity": 64}, {"time": 1344, "pitch": 83, "duration": 12, "velocity": 64}, {"time": 1356, "pitch": 78, "duration": 36, "velocity": 64}, {"time": 1392, "pitch": 81, "duration": 12, "velocity": 64}, {"time": 1404, "pitch": 73, "duration": 12, "velocity": 64}, {"time": 1416, "pitch": 78, "duration": 12, "velocity": 64}, {"time": 1428, "pitch": 81, "duration": 12, "velocity": 64}, {"time": 1440, "pitch": 78, "duration": 12, "velocity": 64}, {"time": 1452, "pitch": 78, "duration": 24, "velocity": 64}, {"time": 1476, "pitch": 81, "duration": 12, "velocity": 64}, {"time": 1488, "pitch": 81, "duration": 12, "velocity": 64}, {"time": 1500, "pitch": 73, "duration": 12, "velocity": 64}, {"time": 1512, "pitch": 73, "duration": 18, "velocity": 64}, {"time": 1530, "pitch": 81, "duration": 6, "velocity": 64}, {"time": 1536, "pitch": 83, "duration": 24, "velocity": 64}, {"time": 1572, "pitch": 83, "duration": 12, "velocity": 64}, {"time": 1584, "pitch": 83, "duration": 6, "velocity": 64}, {"time": 1590, "pitch": 73, "duration": 6, "velocity": 64}, {"time": 1596, "pitch": 81, "duration": 12, "velocity": 64}, {"time": 1608, "pitch": 73, "duration": 12, "velocity": 64}, {"time": 1620, "pitch": 81, "duration": 6, "velocity": 64}, {"time": 1626, "pitch": 78, "duration": 54, "velocity": 64}]}]}