{"metadata": {"schema_version": "0.1", "title": "Laba Xiaodiao", "source_format": "abc"}, "resolution": 24, "tempos": [{"time": 0, "qpm": 120.0}], "key_signatures": [{"time": 0, "root": 2, "mode": "major", "fifths": 2}], "time_signatures": [{"time": 0, "numerator": 2, "denominator": 4}], "beats": [{"time": 0, "is_downbeat": true}, {"time": 24, "is_downbeat": false}, {"time": 48, "is_downbeat": true}, {"time": 72, "is_downbeat": false}, {"time": 96, "is_downbeat": true}, {"time": 120, "is_downbeat": false}, {"time": 144, "is_downbeat": true}, {"time": 168, "is_downbeat": false}, {"time": 192, "is_downbeat": true}, {"time": 216, "is_downbeat": false}, {"time": 240, "is_downbeat": true}, {"time": 264, "is_downbeat": false}, {"time": 288, "is_downbeat": true}, {"time": 312, "is_downbeat": false}, {"time": 336, "is_downbeat": true}, {"time": 360, "is_downbeat": false}, {"time": 384, "is_downbeat": true}, {"time": 408, "is_downbeat": false}, {"time": 432, "is_downbeat": true}, {"time": 456, "is_downbeat": false}, {"time": 480, "is_downbeat": true}, {"time": 504, "is_downbeat": false}, {"time": 528, "is_downbeat": true}, {"time": 552, "is_downbeat": false}, {"time": 576, "is_downbeat": true}, {"time": 600, "is_downbeat": false}, {"time": 624, "is_downbeat": true}, {"time": 648, "is_downbeat": false}, {"time": 672, "is_downbeat": true}, {"time": 696, "is_downbeat": false}, {"time": 720, "is_downbeat": true}, {"time": 744, "is_downbeat": false}, {"time": 768, "is_downbeat": true}, {"time": 792, "is_downbeat": false}, {"time": 816, "is_downbeat": true}, {"time": 840, "is_downbeat": false}, {"time": 864, "is_downbeat": true}, {"time": 888, "is_downbeat": false}, {"time": 912, "is_downbeat": true}, {"time": 936, "is_downbeat": false}, {"time": 960, "is_downbeat": true}, {"time": 984, "is_downbeat": false}, {"time": 1008, "is_downbeat": true}, {"time": 1032, "is_downbeat": false}, {"time": 1056, "is_downbeat": true}, {"time": 1080, "is_downbeat": false}, {"time": 1104, "is_downbeat": true}, {"time": 1128, "is_downbeat": false}, {"time": 1152, "is_downbeat": true}, {"time": 1176, "is_downbeat": false}, {"time": 1200, "is_downbeat": true}, {"time": 1224, "is_downbeat": false}, {"time": 1248, "is_downbeat": true}, {"time": 1272, "is_downbeat": false}, {"time": 1296, "is_downbeat": true}, {"time": 1320, "is_downbeat": false}, {"time": 1344, "is_downbeat": true}, {"time": 1368, "is_downbeat": false}, {"time": 1392, "is_downbeat": true}, {"time": 1416, "is_downbeat": false}, {"time": 1440, "is_downbeat": true}, {"time": 1464, "is_downbeat": false}, {"time": 1488, "is_downbeat": true}, {"time": 1512, "is_downbeat": false}, {"time": 1536, "is_downbeat": true}, {"time": 1560, "is_downbeat": false}, {"time": 1584, "is_downbeat": true}, {"time": 1608, "is_downbeat": false}, {"time": 1632, "is_downbeat": true}, {"time": 1656, "is_downbeat": false}, {"time": 1680, "is_downbeat": true}, {"time": 1704, "is_downbeat": false}, {"time": 1728, "is_downbeat": true}, {"time": 1752, "is_downbeat": false}, {"time": 1776, "is_downbeat": true}, {"time": 1800, "is_downbeat": false}, {"time": 1824, "is_downbeat": true}, {"time": 1848, "is_downbeat": false}, {"time": 1872, "is_downbeat": true}, {"time": 1896, "is_downbeat": false}], "tracks": [{"program": 0, "is_drum": false, "notes": [{"time": 0, "pitch": 69, "duration": 12, "velocity": 64}, {"time": 12, "pitch": 69, "duration": 12, "velocity": 64}, {"time": 24, "pitch": 69, "duration": 12, "velocity": 64}, {"time": 36, "pitch": 71, "duration": 12, "velocity": 64}, {"time": 48, "pitch": 74, "duration": 12, "velocity": 64}, {"time": 60, "pitch": 76, "duration": 24, "velocity": 64}, {"time": 84, "pitch": 71, "duration": 12, "velocity": 64}, {"time": 96, "pitch": 74, "duration": 12, "velocity": 64}, {"time": 108, "pitch": 76, "duration": 12, "velocity": 64}, {"time": 120, "pitch": 74, "duration": 6, "velocity": 64}, {"time": 126, "pitch": 76, "duration": 6, "velocity": 64}, {"time": 132, "pitch": 71, "duration": 12, "velocity": 64}, {"time": 144, "pitch": 69, "duration": 36, "velocity": 64}, {"time": 180, "pitch": 71, "duration": 12, "velocity": 64}, {"time": 192, "pitch": 76, "duration": 18, "velocity": 64}, {"time": 210, "pitch": 76, "duration": 6, "velocity": 64}, {"time": 216, "pitch": 74, "duration": 12, "velocity": 64}, {"time": 228, "pitch": 76, "duration": 12, "velocity": 64}, {"time": 240, "pitch": 69, "duration": 24, "velocity": 64}, {"time": 264, "pitch": 71, "duration": 24, "velocity": 64}, {"time": 288, "pitch": 76, "duration": 12, "velocity": 64}, {"time": 300, "pitch": 74, "duration": 12, "velocity": 64}, {"time": 312, "pitch": 71, "duration": 12, "velocity": 64}, {"time": 324, "pitch": 71, "duration": 12, "velocity": 64}, {"time": 336, "pitch": 69, "duration": 12, "velocity": 64}, {"time": 348, "pitch": 69, "duration": 36, "velocity": 64}, {"time": 384, "pitch": 69, "duration": 12, "velocity": 64}, {"time": 396, "pitch": 69, "duration": 12, "velocity": 64}, {"time": 408, "pitch": 69, "duration": 12, "velocity": 64}, {"time": 420, "pitch": 71, "duration": 12, "velocity": 64}, {"time": 432, "pitch": 74, "duration": 12, "velocity": 64}, {"time": 444, "pitch": 76, "duration": 24, "velocity": 64}, {"time": 468, "pitch": 71, "duration": 12, "velocity": 64}, {"time": 480, "pitch": 74, "duration": 12, "velocity": 64}, {"time": 492, "pitch": 76, "duration": 12, "velocity": 64}, {"time": 504, "pitch": 74, "duration": 6, "velocity": 64}, {"time": 510, "pitch": 76, "duration": 6, "velocity": 64}, {"time": 516, "pitch": 71, "duration": 12, "velocity": 64}, {"time": 528, "pitch": 69, "duration": 36, "velocity": 64}, {"time": 564, "pitch": 71, "duration": 12, "velocity": 64}, {"time": 576, "pitch": 76, "duration": 18, "velocity": 64}, {"time": 594, "pitch": 76, "duration": 6, "velocity": 64}, {"time": 600, "pitch": 74, "duration": 12, "velocity": 64}, {"time": 612, "pitch": 76, "duration": 12, "velocity": 64}, {"time": 624, "pitch": 69, "duration": 24, "velocity": 64}, {"time": 648, "pitch": 71, "duration": 24, "velocity": 64}, {"time": 672, "pitch": 76, "duration": 12, "velocity": 64}, {"time": 684, "pitch": 74, "duration": 12, "velocity": 64}, {"time": 696, "pitch": 71, "duration": 12, "velocity": 64}, {"time": 708, "pitch": 71, "duration": 12, "velocity": 64}, {"time": 720, "pitch": 69, "duration": 48, "velocity": 64}, {"time": 768, "pitch": 71, "duration": 6, "velocity": 64}, {"time": 774, "pitch": 74, "duration": 6, "velocity": 64}, {"time": 780, "pitch": 66, "duration": 6, "velocity": 64}, {"time": 786, "pitch": 69, "duration": 6, "velocity": 64}, {"time": 792, "pitch": 69, "duration": 24, "velocity": 64}, {"time": 816, "pitch": 74, "duration": 12, "velocity": 64}, {"time": 828, "pitch": 71, "duration": 6, "velocity": 64}, {"time": 834, "pitch": 74, "duration": 6, "velocity": 64}, {"time": 840, "pitch": 71, "duration": 12, "velocity": 64}, {"time": 852, "pitch": 69, "duration": 12, "velocity": 64}, {"time": 864, "pitch": 71, "duration": 12, "velocity": 64}, {"time": 876, "pitch": 74, "duration": 12, "velocity": 64}, {"time": 888, "pitch": 69, "duration": 12, "velocity": 64}, {"time": 900, "pitch": 69, "duration": 12, "velocity": 64}, {"time": 912, "pitch": 74, "duration": 24, "velocity": 64}, {"time": 936, "pitch": 71, "duration": 24, "velocity": 64}, {"time": 960, "pitch": 69, "duration": 18, "velocity": 64}, {"time": 978, "pitch": 69, "duration": 6, "velocity": 64}, {"time": 984, "pitch": 69, "duration": 12, "velocity": 64}, {"time": 996, "pitch": 69, "duration": 6, "velocity": 64}, {"time": 1002, "pitch": 71, "duration": 6, "velocity": 64}, {"time": 1008, "pitch": 74, "duration": 24, "velocity": 64}, {"time": 1032, "pitch": 71, "duration": 24, "velocity": 64}, {"time": 1056, "pitch": 69, "duration": 12, "velocity": 64}, {"time": 1068, "pitch": 69, "duration": 12, "velocity": 64}, {"time": 1080, "pitch": 69, "duration": 12, "velocity": 64}, {"time": 1092, "pitch": 71, "duration": 12, "velocity": 64}, {"time": 1104, "pitch": 71, "duration": 6, "velocity": 64}, {"time": 1110, "pitch": 74, "duration": 6, "velocity": 64}, {"time": 1116, "pitch": 76, "duration": 24, "velocity": 64}, {"time": 1140, "pitch": 71, "duration": 12, "velocity": 64}, {"time": 1152, "pitch": 74, "duration": 12, "velocity": 64}, {"time": 1164, "pitch": 74, "duration": 12, "velocity": 64}, {"time": 1176, "pitch": 76, "duration": 12, "velocity": 64}, {"time": 1188, "pitch": 74, "duration": 12, "velocity": 64}, {"time": 1200, "pitch": 71, "duration": 12, "velocity": 64}, {"time": 1212, "pitch": 71, "duration": 6, "velocity": 64}, {"time": 1218, "pitch": 74, "duration": 6, "velocity": 64}, {"time": 1224, "pitch": 71, "duration": 12, "velocity": 64}, {"time": 1236, "pitch": 69, "duration": 12, "velocity": 64}, {"time": 1248, "pitch": 71, "duration": 18, "velocity": 64}, {"time": 1266, "pitch": 71, "duration": 6, "velocity": 64}, {"time": 1272, "pitch": 71, "duration": 12, "velocity": 64}, {"time": 1284, "pitch": 71, "duration": 6, "velocity": 64}, {"time": 1290, "pitch": 74, "duration": 6, "velocity": 64}, {"time": 1296, "pitch": 69, "duration": 24, "velocity": 64}, {"time": 1344, "pitch": 74, "duration": 24, "velocity": 64}, {"time": 1368, "pitch": 76, "duration": 24, "velocity": 64}, {"time": 1392, "pitch": 69, "duration": 24, "velocity": 64}, {"time": 1416, "pitch": 71, "duration": 24, "velocity": 64}, {"time": 1440, "pitch": 76, "duration": 12, "velocity": 64}, {"time": 1452, "pitch": 74, "duration": 12, "velocity": 64}, {"time": 1464, "pitch": 71, "duration": 12, "velocity": 64}, {"time": 1476, "pitch": 71, "duration": 12, "velocity": 64}, {"time": 1488, "pitch": 69, "duration": 12, "velocity": 64}, {"time": 1500, "pitch": 69, "duration": 36, "velocity": 64}, {"time": 1536, "pitch": 69, "duration": 12, "velocity": 64}, {"time": 1548, "pitch": 69, "duration": 12, "velocity": 64}, {"time": 1560, "pitch": 69, "duration": 12, "velocity": 64}, {"time": 1572, "pitch": 71, "duration": 12, "velocity": 64}, {"time": 1584, "pitch": 74, "duration": 12, "velocity": 64}, {"time": 1596, "pitch": 76, "duration": 24, "velocity": 64}, {"time": 1620, "pitch": 71, "duration": 12, "velocity": 64}, {"time": 1632, "pitch": 74, "duration": 12, "velocity": 64}, {"time": 1644, "pitch": 76, "duration": 12, "velocity": 64}, {"time": 1656, "pitch": 74, "duration": 6, "velocity": 64}, {"time": 1662, "pitch": 76, "duration": 6, "velocity": 64}, {"time": 1668, "pitch": 74, "duration": 6, "velocity": 64}, {"time": 1674, "pitch": 71, "duration": 6, "velocity": 64}, {"time": 1680, "pitch": 69, "duration": 36, "velocity": 64}, {"time": 1716, "pitch": 71, "duration": 12, "velocity": 64}, {"time": 1728, "pitch": 76, "duration": 12, "velocity": 64}, {"time": 1740, "pitch": 76, "duration": 12, "velocity": 64}, {"time": 1752, "pitch": 74, "duration": 12, "velocity": 64}, {"time": 1764, "pitch": 76, "duration": 12, "velocity": 64}, {"time": 1776, "pitch": 69, "duration": 24, "velocity": 64}, {"time": 1800, "pitch": 71, "duration": 24, "velocity": 64}, {"time": 1824, "pitch": 76, "duration": 12, "velocity": 64}, {"time": 1836, "pitch": 74, "duration": 12, "velocity": 64}, {"time": 1848, "pitch": 71, "duration": 12, "velocity": 64}, {"time": 1860, "pitch": 71, "duration": 12, "velocity": 64}, {"time": 1872, "pitch": 69, "duration": 48, "velocity": 64}]}]}