{"metadata": {"schema_version": "0.1", "title": "Ha you gua", "source_format": "abc"}, "resolution": 24, "tempos": [{"time": 0, "qpm": 120.0}], "key_signatures": [{"time": 0, "root": 2, "mode": "major", "fifths": 2}], "time_signatures": [{"time": 0, "numerator": 4, "denominator": 4}, {"time": 168, "numerator": 1, "denominator": 4}, {"time": 312, "numerator": 1, "denominator": 4}, {"time": 456, "numerator": 1, "denominator": 4}, {"time": 672, "numerator": 1, "denominator": 4}, {"time": 888, "numerator": 1, "denominator": 4}, {"time": 1104, "numerator": 1, "denominator": 4}, {"time": 1248, "numerator": 1, "denominator": 4}, {"time": 1392, "numerator": 1, "denominator": 4}, {"time": 1536, "numerator": 1, "denominator": 4}, {"time": 1680, "numerator": 1, "denominator": 4}, {"time": 1824, "numerator": 1, "denominator": 4}, {"time": 2040, "numerator": 1, "denominator": 4}, {"time": 2064, "numerator": 2, "denominator": 4}], "beats": [{"time": 0, "is_downbeat": true}, {"time": 24, "is_downbeat": true}, {"time": 48, "is_downbeat": true}, {"time": 72, "is_downbeat": true}, {"time": 96, "is_downbeat": true}, {"time": 120, "is_downbeat": true}, {"time": 144, "is_downbeat": true}, {"time": 168, "is_downbeat": true}, {"time": 192, "is_downbeat": true}, {"time": 216, "is_downbeat": true}, {"time": 240, "is_downbeat": true}, {"time": 264, "is_downbeat": true}, {"time": 288, "is_downbeat": true}, {"time": 312, "is_downbeat": true}, {"time": 336, "is_downbeat": true}, {"time": 360, "is_downbeat": true}, {"time": 384, "is_downbeat": true}, {"time": 408, "is_downbeat": true}, {"time": 432, "is_downbeat": true}, {"time": 456, "is_downbeat": true}, {"time": 480, "is_downbeat": true}, {"time": 504, "is_downbeat": true}, {"time": 528, "is_downbeat": true}, {"time": 552, "is_downbeat": true}, {"time": 576, "is_downbeat": true}, {"time": 600, "is_downbeat": true}, {"time": 624, "is_downbeat": true}, {"time": 648, "is_downbeat": true}, {"time": 672, "is_downbeat": true}, {"time": 696, "is_downbeat": true}, {"time": 720, "is_downbeat": true}, {"time": 744, "is_downbeat": true}, {"time": 768, "is_downbeat": true}, {"time": 792, "is_downbeat": true}, {"time": 816, "is_downbeat": true}, {"time": 840, "is_downbeat": true}, {"time": 864, "is_downbeat": true}, {"time": 888, "is_downbeat": true}, {"time": 912, "is_downbeat": true}, {"time": 936, "is_downbeat": true}, {"time": 960, "is_downbeat": true}, {"time": 984, "is_downbeat": true}, {"time": 1008, "is_downbeat": true}, {"time": 1032, "is_downbeat": true}, {"time": 1056, "is_downbeat": true}, {"time": 1080, "is_downbeat": true}, {"time": 1104, "is_downbeat": true}, {"time": 1128, "is_downbeat": true}, {"time": 1152, "is_downbeat": true}, {"time": 1176, "is_downbeat": true}, {"time": 1200, "is_downbeat": true}, {"time": 1224, "is_downbeat": true}, {"time": 1248, "is_downbeat": true}, {"time": 1272, "is_downbeat": true}, {"time": 1296, "is_downbeat": true}, {"time": 1320, "is_downbeat": true}, {"time": 1344, "is_downbeat": true}, {"time": 1368, "is_downbeat": true}, {"time": 1392, "is_downbeat": true}, {"time": 1416, "is_downbeat": true}, {"time": 1440, "is_downbeat": true}, {"time": 1464, "is_downbeat": true}, {"time": 1488, "is_downbeat": true}, {"time": 1512, "is_downbeat": true}, {"time": 1536, "is_downbeat": true}, {"time": 1560, "is_downbeat": true}, {"time": 1584, "is_downbeat": true}, {"time": 1608, "is_downbeat": true}, {"time": 1632, "is_downbeat": true}, {"time": 1656, "is_downbeat": true}, {"time": 1680, "is_downbeat": true}, {"time": 1704, "is_downbeat": true}, {"time": 1728, "is_downbeat": true}, {"time": 1752, "is_downbeat": true}, {"time": 1776, "is_downbeat": true}, {"time": 1800, "is_downbeat": true}, {"time": 1824, "is_downbeat": true}, {"time": 1848, "is_downbeat": true}, {"time": 1872, "is_downbeat": true}, {"time": 1896, "is_downbeat": true}, {"time": 1920, "is_downbeat": true}, {"time": 1944, "is_downbeat": true}, {"time": 1968, "is_downbeat": true}, {"time": 1992, "is_downbeat": true}, {"time": 2016, "is_downbeat": true}, {"time": 2040, "is_downbeat": true}, {"time": 2064, "is_downbeat": true}, {"time": 2088, "is_downbeat": true}, {"time": 2112, "is_downbeat": false}, {"time": 2136, "is_downbeat": true}, {"time": 2160, "is_downbeat": false}], "tracks": [{"program": 0, "is_drum": false, "notes": [{"time": 0, "pitch": 74, "duration": 12, "velocity": 64}, {"time": 12, "pitch": 74, "duration": 12, "velocity": 64}, {"time": 24, "pitch": 71, "duration": 24, "velocity": 64}, {"time": 48, "pitch": 69, "duration": 24, "velocity": 64}, {"time": 72, "pitch": 76, "duration": 24, "velocity": 64}, {"time": 96, "pitch": 71, "duration": 24, "velocity": 64}, {"time": 120, "pitch": 69, "duration": 24, "velocity": 64}, {"time": 144, "pitch": 71, "duration": 6, "velocity": 64}, {"time": 150, "pitch": 69, "duration": 6, "velocity": 64}, {"time": 156, "pitch": 71, "duration": 12, "velocity": 64}, {"time": 168, "pitch": 69, "duration": 24, "velocity": 64}, {"time": 192, "pitch": 69, "duration": 24, "velocity": 64}, {"time": 216, "pitch": 64, "duration": 12, "velocity": 64}, {"time": 228, "pitch": 69, "duration": 12, "velocity": 64}, {"time": 240, "pitch": 71, "duration": 6, "velocity": 64}, {"time": 246, "pitch": 69, "duration": 6, "velocity": 64}, {"time": 252, "pitch": 71, "duration": 12, "velocity": 64}, {"time": 264, "pitch": 69, "duration": 24, "velocity": 64}, {"time": 288, "pitch": 71, "duration": 12, "velocity": 64}, {"time": 300, "pitch": 71, "duration": 6, "velocity": 64}, {"time": 306, "pitch": 69, "duration": 6, "velocity": 64}, {"time": 312, "pitch": 79, "duration": 12, "velocity": 64}, {"time": 324, "pitch": 71, "duration": 12, "velocity": 64}, {"time": 336, "pitch": 69, "duration": 24, "velocity": 64}, {"time": 360, "pitch": 71, "duration": 12, "velocity": 64}, {"time": 372, "pitch": 68, "duration": 6, "velocity": 64}, {"time": 378, "pitch": 66, "duration": 6, "velocity": 64}, {"time": 384, "pitch": 64, "duration": 12, "velocity": 64}, {"time": 396, "pitch": 64, "duration": 12, "velocity": 64}, {"time": 408, "pitch": 76, "duration": 24, "velocity": 64}, {"time": 432, "pitch": 71, "duration": 24, "velocity": 64}, {"time": 456, "pitch": 74, "duration": 24, "velocity": 64}, {"time": 480, "pitch": 69, "duration": 12, "velocity": 64}, {"time": 492, "pitch": 69, "duration": 12, "velocity": 64}, {"time": 504, "pitch": 69, "duration": 12, "velocity": 64}, {"time": 516, "pitch": 66, "duration": 6, "velocity": 64}, {"time": 522, "pitch": 69, "duration": 6, "velocity": 64}, {"time": 528, "pitch": 71, "duration": 6, "velocity": 64}, {"time": 534, "pitch": 69, "duration": 6, "velocity": 64}, {"time": 540, "pitch": 71, "duration": 12, "velocity": 64}, {"time": 552, "pitch": 69, "duration": 24, "velocity": 64}, {"time": 576, "pitch": 71, "duration": 12, "velocity": 64}, {"time": 588, "pitch": 69, "duration": 6, "velocity": 64}, {"time": 594, "pitch": 71, "duration": 6, "velocity": 64}, {"time": 600, "pitch": 74, "duration": 12, "velocity": 64}, {"time": 612, "pitch": 71, "duration": 6, "velocity": 64}, {"time": 624, "pitch": 69, "duration": 24, "velocity": 64}, {"time": 648, "pitch": 71, "duration": 12, "velocity": 64}, {"time": 660, "pitch": 67, "duration": 6, "velocity": 64}, {"time": 666, "pitch": 66, "duration": 6, "velocity": 64}, {"time": 672, "pitch": 76, "duration": 12, "velocity": 64}, {"time": 684, "pitch": 76, "duration": 12, "velocity": 64}, {"time": 696, "pitch": 76, "duration": 18, "velocity": 64}, {"time": 714, "pitch": 73, "duration": 6, "velocity": 64}, {"time": 720, "pitch": 76, "duration": 18, "velocity": 64}, {"time": 738, "pitch": 73, "duration": 6, "velocity": 64}, {"time": 744, "pitch": 71, "duration": 24, "velocity": 64}, {"time": 768, "pitch": 69, "duration": 24, "velocity": 64}, {"time": 792, "pitch": 71, "duration": 24, "velocity": 64}, {"time": 816, "pitch": 69, "duration": 24, "velocity": 64}, {"time": 840, "pitch": 69, "duration": 12, "velocity": 64}, {"time": 852, "pitch": 69, "duration": 12, "velocity": 64}, {"time": 864, "pitch": 69, "duration": 12, "velocity": 64}, {"time": 876, "pitch": 66, "duration": 6, "velocity": 64}, {"time": 882, "pitch": 69, "duration": 6, "velocity": 64}, {"time": 888, "pitch": 71, "duration": 6, "velocity": 64}, {"time": 894, "pitch": 69, "duration": 6, "velocity": 64}, {"time": 900, "pitch": 71, "duration": 12, "velocity": 64}, {"time": 912, "pitch": 69, "duration": 24, "velocity": 64}, {"time": 936, "pitch": 71, "duration": 12, "velocity": 64}, {"time": 948, "pitch": 69, "duration": 6, "velocity": 64}, {"time": 954, "pitch": 71, "duration": 6, "velocity": 64}, {"time": 960, "pitch": 74, "duration": 12, "velocity": 64}, {"time": 972, "pitch": 67, "duration": 6, "velocity": 64}, {"time": 978, "pitch": 69, "duration": 6, "velocity": 64}, {"time": 984, "pitch": 69, "duration": 24, "velocity": 64}, {"time": 1008, "pitch": 71, "duration": 12, "velocity": 64}, {"time": 1020, "pitch": 71, "duration": 6, "velocity": 64}, {"time": 1026, "pitch": 69, "duration": 6, "velocity": 64}, {"time": 1032, "pitch": 68, "duration": 12, "velocity": 64}, {"time": 1044, "pitch": 71, "duration": 12, "velocity": 64}, {"time": 1056, "pitch": 69, "duration": 24, "velocity": 64}, {"time": 1080, "pitch": 76, "duration": 24, "velocity": 64}, {"time": 1104, "pitch": 71, "duration": 24, "velocity": 64}, {"time": 1128, "pitch": 69, "duration": 24, "velocity": 64}, {"time": 1152, "pitch": 74, "duration": 24, "velocity": 64}, {"time": 1176, "pitch": 69, "duration": 24, "velocity": 64}, {"time": 1200, "pitch": 69, "duration": 24, "velocity": 64}, {"time": 1224, "pitch": 64, "duration": 12, "velocity": 64}, {"time": 1236, "pitch": 69, "duration": 6, "velocity": 64}, {"time": 1242, "pitch": 69, "duration": 6, "velocity": 64}, {"time": 1248, "pitch": 71, "duration": 6, "velocity": 64}, {"time": 1254, "pitch": 69, "duration": 6, "velocity": 64}, {"time": 1260, "pitch": 71, "duration": 12, "velocity": 64}, {"time": 1272, "pitch": 69, "duration": 24, "velocity": 64}, {"time": 1296, "pitch": 71, "duration": 12, "velocity": 64}, {"time": 1308, "pitch": 69, "duration": 6, "velocity": 64}, {"time": 1314, "pitch": 71, "duration": 6, "velocity": 64}, {"time": 1320, "pitch": 62, "duration": 12, "velocity": 64}, {"time": 1332, "pitch": 69, "duration": 6, "velocity": 64}, {"time": 1338, "pitch": 71, "duration": 6, "velocity": 64}, {"time": 1344, "pitch": 69, "duration": 24, "velocity": 64}, {"time": 1368, "pitch": 76, "duration": 18, "velocity": 64}, {"time": 1386, "pitch": 73, "duration": 6, "velocity": 64}, {"time": 1392, "pitch": 71, "duration": 24, "velocity": 64}, {"time": 1416, "pitch": 69, "duration": 24, "velocity": 64}, {"time": 1440, "pitch": 71, "duration": 6, "velocity": 64}, {"time": 1452, "pitch": 71, "duration": 6, "velocity": 64}, {"time": 1464, "pitch": 69, "duration": 24, "velocity": 64}, {"time": 1488, "pitch": 69, "duration": 24, "velocity": 64}, {"time": 1512, "pitch": 73, "duration": 12, "velocity": 64}, {"time": 1524, "pitch": 66, "duration": 6, "velocity": 64}, {"time": 1530, "pitch": 69, "duration": 6, "velocity": 64}, {"time": 1536, "pitch": 71, "duration": 6, "velocity": 64}, {"time": 1542, "pitch": 69, "duration": 6, "velocity": 64}, {"time": 1548, "pitch": 71, "duration": 12, "velocity": 64}, {"time": 1560, "pitch": 69, "duration": 24, "velocity": 64}, {"time": 1584, "pitch": 71, "duration": 12, "velocity": 64}, {"time": 1596, "pitch": 69, "duration": 6, "velocity": 64}, {"time": 1602, "pitch": 71, "duration": 6, "velocity": 64}, {"time": 1608, "pitch": 74, "duration": 12, "velocity": 64}, {"time": 1620, "pitch": 71, "duration": 6, "velocity": 64}, {"time": 1632, "pitch": 69, "duration": 24, "velocity": 64}, {"time": 1656, "pitch": 73, "duration": 12, "velocity": 64}, {"time": 1668, "pitch": 76, "duration": 12, "velocity": 64}, {"time": 1680, "pitch": 73, "duration": 12, "velocity": 64}, {"time": 1692, "pitch": 76, "duration": 12, "velocity": 64}, {"time": 1704, "pitch": 76, "duration": 18, "velocity": 64}, {"time": 1722, "pitch": 73, "duration": 6, "velocity": 64}, {"time": 1728, "pitch": 71, "duration": 24, "velocity": 64}, {"time": 1752, "pitch": 74, "duration": 24, "velocity": 64}, {"time": 1776, "pitch": 69, "duration": 12, "velocity": 64}, {"time": 1788, "pitch": 69, "duration": 12, "velocity": 64}, {"time": 1800, "pitch": 73, "duration": 12, "velocity": 64}, {"time": 1812, "pitch": 66, "duration": 6, "velocity": 64}, {"time": 1818, "pitch": 69, "duration": 6, "velocity": 64}, {"time": 1824, "pitch": 71, "duration": 6, "velocity": 64}, {"time": 1830, "pitch": 71, "duration": 6, "velocity": 64}, {"time": 1836, "pitch": 69, "duration": 6, "velocity": 64}, {"time": 1842, "pitch": 71, "duration": 6, "velocity": 64}, {"time": 1848, "pitch": 69, "duration": 24, "velocity": 64}, {"time": 1872, "pitch": 76, "duration": 24, "velocity": 64}, {"time": 1896, "pitch": 71, "duration": 24, "velocity": 64}, {"time": 1920, "pitch": 69, "duration": 24, "velocity": 64}, {"time": 1944, "pitch": 71, "duration": 6, "velocity": 64}, {"time": 1950, "pitch": 69, "duration": 6, "velocity": 64}, {"time": 1956, "pitch": 71, "duration": 12, "velocity": 64}, {"time": 1968, "pitch": 69, "duration": 24, "velocity": 64}, {"time": 1992, "pitch": 69, "duration": 24, "velocity": 64}, {"time": 2016, "pitch": 74, "duration": 12, "velocity": 64}, {"time": 2028, "pitch": 69, "duration": 6, "velocity": 64}, {"time": 2034, "pitch": 74, "duration": 6, "velocity": 64}, {"time": 2040, "pitch": 71, "duration": 12, "velocity": 64}, {"time": 2052, "pitch": 69, "duration": 6, "velocity": 64}, {"time": 2058, "pitch": 69, "duration": 6, "velocity": 64}, {"time": 2064, "pitch": 69, "duration": 24, "velocity": 64}, {"time": 2088, "pitch": 74, "duration": 12, "velocity": 64}, {"time": 2100, "pitch": 74, "duration": 12, "velocity": 64}, {"time": 2112, "pitch": 71, "duration": 12, "velocity": 64}, {"time": 2124, "pitch": 69, "duration": 6, "velocity": 64}, {"time": 2130, "pitch": 66, "duration": 6, "velocity": 64}, {"time": 2136, "pitch": 69, "duration": 24, "velocity": 64}]}]}