{"metadata": {"schema_version": "0.1", "title": "Ge zhong lian ou zai tang bian", "source_format": "abc"}, "resolution": 24, "tempos": [{"time": 0, "qpm": 120.0}], "key_signatures": [{"time": 0, "root": 0, "mode": "major", "fifths": 0}], "time_signatures": [{"time": 0, "numerator": 4, "denominator": 4}, {"time": 216, "numerator": 4, "denominator": 4}, {"time": 384, "numerator": 1, "denominator": 4}, {"time": 480, "numerator": 4, "denominator": 4}, {"time": 576, "numerator": 3, "denominator": 4}, {"time": 792, "numerator": 1, "denominator": 4}], "beats": [{"time": 0, "is_downbeat": true}, {"time": 24, "is_downbeat": false}, {"time": 48, "is_downbeat": false}, {"time": 72, "is_downbeat": true}, {"time": 96, "is_downbeat": false}, {"time": 120, "is_downbeat": false}, {"time": 144, "is_downbeat": true}, {"time": 168, "is_downbeat": false}, {"time": 192, "is_downbeat": false}, {"time": 216, "is_downbeat": true}, {"time": 240, "is_downbeat": true}, {"time": 264, "is_downbeat": true}, {"time": 288, "is_downbeat": true}, {"time": 312, "is_downbeat": true}, {"time": 336, "is_downbeat": true}, {"time": 360, "is_downbeat": true}, {"time": 384, "is_downbeat": true}, {"time": 408, "is_downbeat": true}, {"time": 432, "is_downbeat": false}, {"time": 456, "is_downbeat": false}, {"time": 480, "is_downbeat": true}, {"time": 504, "is_downbeat": false}, {"time": 528, "is_downbeat": false}, {"time": 552, "is_downbeat": true}, {"time": 576, "is_downbeat": true}, {"time": 600, "is_downbeat": true}, {"time": 624, "is_downbeat": true}, {"time": 648, "is_downbeat": true}, {"time": 672, "is_downbeat": true}, {"time": 696, "is_downbeat": true}, {"time": 720, "is_downbeat": true}, {"time": 744, "is_downbeat": true}, {"time": 768, "is_downbeat": true}, {"time": 792, "is_downbeat": true}], "tracks": [{"program": 0, "is_drum": false, "notes": [{"time": 0, "pitch": 76, "duration": 12, "velocity": 64}, {"time": 12, "pitch": 64, "duration": 24, "velocity": 64}, {"time": 36, "pitch": 62, "duration": 24, "velocity": 64}, {"time": 60, "pitch": 64, "duration": 12, "velocity": 64}, {"time": 72, "pitch": 69, "duration": 24, "velocity": 64}, {"time": 96, "pitch": 60, "duration": 24, "velocity": 64}, {"time": 120, "pitch": 62, "duration": 24, "velocity": 64}, {"time": 144, "pitch": 62, "duration": 24, "velocity": 64}, {"time": 168, "pitch": 60, "duration": 6, "velocity": 64}, {"time": 174, "pitch": 62, "duration": 6, "velocity": 64}, {"time": 180, "pitch": 60, "duration": 6, "velocity": 64}, {"time": 186, "pitch": 57, "duration": 6, "velocity": 64}, {"time": 192, "pitch": 57, "duration": 12, "velocity": 64}, {"time": 204, "pitch": 57, "duration": 12, "velocity": 64}, {"time": 216, "pitch": 57, "duration": 24, "velocity": 64}, {"time": 240, "pitch": 60, "duration": 12, "velocity": 64}, {"time": 252, "pitch": 62, "duration": 12, "velocity": 64}, {"time": 264, "pitch": 60, "duration": 6, "velocity": 64}, {"time": 270, "pitch": 62, "duration": 6, "velocity": 64}, {"time": 276, "pitch": 60, "duration": 6, "velocity": 64}, {"time": 282, "pitch": 69, "duration": 6, "velocity": 64}, {"time": 288, "pitch": 60, "duration": 4, "velocity": 64}, {"time": 292, "pitch": 62, "duration": 4, "velocity": 64}, {"time": 296, "pitch": 60, "duration": 4, "velocity": 64}, {"time": 300, "pitch": 57, "duration": 12, "velocity": 64}, {"time": 312, "pitch": 60, "duration": 48, "velocity": 64}, {"time": 360, "pitch": 69, "duration": 48, "velocity": 64}, {"time": 408, "pitch": 57, "duration": 24, "velocity": 64}, {"time": 432, "pitch": 57, "duration": 24, "velocity": 64}, {"time": 456, "pitch": 60, "duration": 12, "velocity": 64}, {"time": 468, "pitch": 57, "duration": 6, "velocity": 64}, {"time": 474, "pitch": 60, "duration": 6, "velocity": 64}, {"time": 480, "pitch": 62, "duration": 24, "velocity": 64}, {"time": 504, "pitch": 64, "duration": 12, "velocity": 64}, {"time": 516, "pitch": 64, "duration": 12, "velocity": 64}, {"time": 528, "pitch": 62, "duration": 24, "velocity": 64}, {"time": 552, "pitch": 57, "duration": 24, "velocity": 64}, {"time": 576, "pitch": 57, "duration": 12, "velocity": 64}, {"time": 588, "pitch": 60, "duration": 12, "velocity": 64}, {"time": 600, "pitch": 62, "duration": 12, "velocity": 64}, {"time": 612, "pitch": 60, "duration": 12, "velocity": 64}, {"time": 624, "pitch": 57, "duration": 24, "velocity": 64}, {"time": 648, "pitch": 57, "duration": 12, "velocity": 64}, {"time": 660, "pitch": 57, "duration": 12, "velocity": 64}, {"time": 672, "pitch": 62, "duration": 24, "velocity": 64}, {"time": 696, "pitch": 62, "duration": 24, "velocity": 64}, {"time": 720, "pitch": 60, "duration": 6, "velocity": 64}, {"time": 726, "pitch": 62, "duration": 6, "velocity": 64}, {"time": 732, "pitch": 60, "duration": 6, "velocity": 64}, {"time": 738, "pitch": 57, "duration": 6, "velocity": 64}, {"time": 744, "pitch": 60, "duration": 24, "velocity": 64}, {"time": 768, "pitch": 57, "duration": 24, "velocity": 64}, {"time": 792, "pitch": 69, "duration": 24, "velocity": 64}]}]}