{"metadata": {"schema_version": "0.1", "title": "Cai Cha yao", "source_format": "abc"}, "resolution": 24, "tempos": [{"time": 0, "qpm": 120.0}], "key_signatures": [{"time": 0, "root": 0, "mode": "major", "fifths": 0}], "time_signatures": [{"time": 0, "numerator": 2, "denominator": 4}], "beats": [{"time": 0, "is_downbeat": true}, {"time": 24, "is_downbeat": false}, {"time": 48, "is_downbeat": true}, {"time": 72, "is_downbeat": false}, {"time": 96, "is_downbeat": true}, {"time": 120, "is_downbeat": false}, {"time": 144, "is_downbeat": true}, {"time": 168, "is_downbeat": false}, {"time": 192, "is_downbeat": true}, {"time": 216, "is_downbeat": false}, {"time": 240, "is_downbeat": true}, {"time": 264, "is_downbeat": false}, {"time": 288, "is_downbeat": true}, {"time": 312, "is_downbeat": false}, {"time": 336, "is_downbeat": true}, {"time": 360, "is_downbeat": false}, {"time": 384, "is_downbeat": true}, {"time": 408, "is_downbeat": false}, {"time": 432, "is_downbeat": true}, {"time": 456, "is_downbeat": false}, {"time": 480, "is_downbeat": true}, {"time": 504, "is_downbeat": false}, {"time": 528, "is_downbeat": true}, {"time": 552, "is_downbeat": false}], "tracks": [{"program": 0, "is_drum": false, "notes": [{"time": 0, "pitch": 60, "duration": 12, "velocity": 64}, {"time": 12, "pitch": 57, "duration": 12, "velocity": 64}, {"time": 24, "pitch": 60, "duration": 12, "velocity": 64}, {"time": 36, "pitch": 62, "duration": 12, "velocity": 64}, {"time": 48, "pitch": 64, "duration": 36, "velocity": 64}, {"time": 84, "pitch": 62, "duration": 12, "velocity": 64}, {"time": 96, "pitch": 64, "duration": 48, "velocity": 64}, {"time": 144, "pitch": 62, "duration": 12, "velocity": 64}, {"time": 156, "pitch": 67, "duration": 12, "velocity": 64}, {"time": 168, "pitch": 64, "duration": 12, "velocity": 64}, {"time": 180, "pitch": 62, "duration": 12, "velocity": 64}, {"time": 192, "pitch": 60, "duration": 36, "velocity": 64}, {"time": 228, "pitch": 57, "duration": 12, "velocity": 64}, {"time": 240, "pitch": 60, "duration": 48, "velocity": 64}, {"time": 288, "pitch": 60, "duration": 24, "velocity": 64}, {"time": 312, "pitch": 64, "duration": 24, "velocity": 64}, {"time": 336, "pitch": 62, "duration": 12, "velocity": 64}, {"time": 348, "pitch": 64, "duration": 12, "velocity": 64}, {"time": 360, "pitch": 62, "duration": 12, "velocity": 64}, {"time": 372, "pitch": 60, "duration": 12, "velocity": 64}, {"time": 384, "pitch": 57, "duration": 24, "velocity": 64}, {"time": 408, "pitch": 55, "duration": 12, "velocity": 64}, {"time": 420, "pitch": 57, "duration": 12, "velocity": 64}, {"time": 432, "pitch": 60, "duration": 24, "velocity": 64}, {"time": 456, "pitch": 62, "duration": 12, "velocity": 64}, {"time": 468, "pitch": 60, "duration": 12, "velocity": 64}, {"time": 480, "pitch": 57, "duration": 36, "velocity": 64}, {"time": 516, "pitch": 55, "duration": 12, "velocity": 64}, {"time": 528, "pitch": 57, "duration": 48, "velocity": 64}]}]}