{"metadata": {"schema_version": "0.1", "title": "Xiu he bao", "source_format": "abc"}, "resolution": 24, "tempos": [{"time": 0, "qpm": 120.0}], "key_signatures": [{"time": 0, "root": 9, "mode": "major", "fifths": 3}], "time_signatures": [{"time": 0, "numerator": 2, "denominator": 4}], "beats": [{"time": 0, "is_downbeat": true}, {"time": 24, "is_downbeat": false}, {"time": 48, "is_downbeat": true}, {"time": 72, "is_downbeat": false}, {"time": 96, "is_downbeat": true}, {"time": 120, "is_downbeat": false}, {"time": 144, "is_downbeat": true}, {"time": 168, "is_downbeat": false}, {"time": 192, "is_downbeat": true}, {"time": 216, "is_downbeat": false}, {"time": 240, "is_downbeat": true}, {"time": 264, "is_downbeat": false}, {"time": 288, "is_downbeat": true}, {"time": 312, "is_downbeat": false}, {"time": 336, "is_downbeat": true}, {"time": 360, "is_downbeat": false}, {"time": 384, "is_downbeat": true}, {"time": 408, "is_downbeat": false}, {"time": 432, "is_downbeat": true}, {"time": 456, "is_downbeat": false}, {"time": 480, "is_downbeat": true}, {"time": 504, "is_downbeat": false}, {"time": 528, "is_downbeat": true}, {"time": 552, "is_downbeat": false}, {"time": 576, "is_downbeat": true}, {"time": 600, "is_downbeat": false}, {"time": 624, "is_downbeat": true}, {"time": 648, "is_downbeat": false}], "tracks": [{"program": 0, "is_drum": false, "notes": [{"time": 0, "pitch": 78, "duration": 12, "velocity": 64}, {"time": 12, "pitch": 81, "duration": 6, "velocity": 64}, {"time": 18, "pitch": 83, "duration": 6, "velocity": 64}, {"time": 24, "pitch": 81, "duration": 12, "velocity": 64}, {"time": 36, "pitch": 83, "duration": 12, "velocity": 64}, {"time": 48, "pitch": 81, "duration": 12, "velocity": 64}, {"time": 60, "pitch": 78, "duration": 36, "velocity": 64}, {"time": 96, "pitch": 73, "duration": 12, "velocity": 64}, {"time": 108, "pitch": 81, "duration": 12, "velocity": 64}, {"time": 120, "pitch": 83, "duration": 6, "velocity": 64}, {"time": 126, "pitch": 81, "duration": 6, "velocity": 64}, {"time": 132, "pitch": 83, "duration": 12, "velocity": 64}, {"time": 144, "pitch": 73, "duration": 48, "velocity": 64}, {"time": 192, "pitch": 76, "duration": 12, "velocity": 64}, {"time": 204, "pitch": 73, "duration": 12, "velocity": 64}, {"time": 216, "pitch": 73, "duration": 12, "velocity": 64}, {"time": 228, "pitch": 83, "duration": 12, "velocity": 64}, {"time": 240, "pitch": 76, "duration": 12, "velocity": 64}, {"time": 252, "pitch": 73, "duration": 12, "velocity": 64}, {"time": 264, "pitch": 73, "duration": 6, "velocity": 64}, {"time": 270, "pitch": 81, "duration": 6, "velocity": 64}, {"time": 276, "pitch": 83, "duration": 3, "velocity": 64}, {"time": 279, "pitch": 73, "duration": 3, "velocity": 64}, {"time": 282, "pitch": 83, "duration": 6, "velocity": 64}, {"time": 288, "pitch": 81, "duration": 12, "velocity": 64}, {"time": 300, "pitch": 83, "duration": 12, "velocity": 64}, {"time": 312, "pitch": 81, "duration": 12, "velocity": 64}, {"time": 324, "pitch": 78, "duration": 12, "velocity": 64}, {"time": 336, "pitch": 78, "duration": 48, "velocity": 64}, {"time": 384, "pitch": 78, "duration": 12, "velocity": 64}, {"time": 396, "pitch": 81, "duration": 12, "velocity": 64}, {"time": 408, "pitch": 73, "duration": 12, "velocity": 64}, {"time": 420, "pitch": 83, "duration": 12, "velocity": 64}, {"time": 432, "pitch": 81, "duration": 12, "velocity": 64}, {"time": 444, "pitch": 83, "duration": 12, "velocity": 64}, {"time": 456, "pitch": 81, "duration": 24, "velocity": 64}, {"time": 480, "pitch": 81, "duration": 12, "velocity": 64}, {"time": 492, "pitch": 81, "duration": 12, "velocity": 64}, {"time": 504, "pitch": 83, "duration": 12, "velocity": 64}, {"time": 516, "pitch": 83, "duration": 12, "velocity": 64}, {"time": 528, "pitch": 76, "duration": 12, "velocity": 64}, {"time": 540, "pitch": 73, "duration": 12, "velocity": 64}, {"time": 552, "pitch": 73, "duration": 6, "velocity": 64}, {"time": 558, "pitch": 81, "duration": 6, "velocity": 64}, {"time": 564, "pitch": 83, "duration": 3, "velocity": 64}, {"time": 567, "pitch": 73, "duration": 3, "velocity": 64}, {"time": 570, "pitch": 83, "duration": 6, "velocity": 64}, {"time": 576, "pitch": 81, "duration": 12, "velocity": 64}, {"time": 588, "pitch": 83, "duration": 12, "velocity": 64}, {"time": 600, "pitch": 81, "duration": 12, "velocity": 64}, {"time": 612, "pitch": 78, "duration": 12, "velocity": 64}, {"time": 624, "pitch": 78, "duration": 48, "velocity": 64}]}]}