{"metadata": {"schema_version": "0.1", "title": "Huangying zhanchi", "source_format": "abc"}, "resolution": 24, "tempos": [{"time": 0, "qpm": 120.0}], "key_signatures": [{"time": 0, "root": 10, "mode": "major", "fifths": -2}], "time_signatures": [{"time": 0, "numerator": 4, "denominator": 4}, {"time": 384, "numerator": 22, "denominator": 4}], "beats": [{"time": 0, "is_downbeat": true}, {"time": 24, "is_downbeat": false}, {"time": 48, "is_downbeat": false}, {"time": 72, "is_downbeat": false}, {"time": 96, "is_downbeat": true}, {"time": 120, "is_downbeat": false}, {"time": 144, "is_downbeat": false}, {"time": 168, "is_downbeat": false}, {"time": 192, "is_downbeat": true}, {"time": 216, "is_downbeat": false}, {"time": 240, "is_downbeat": false}, {"time": 264, "is_downbeat": false}, {"time": 288, "is_downbeat": true}, {"time": 312, "is_downbeat": false}, {"time": 336, "is_downbeat": false}, {"time": 360, "is_downbeat": false}, {"time": 384, "is_downbeat": true}, {"time": 408, "is_downbeat": false}, {"time": 432, "is_downbeat": false}, {"time": 456, "is_downbeat": false}, {"time": 480, "is_downbeat": false}, {"time": 504, "is_downbeat": false}, {"time": 528, "is_downbeat": false}, {"time": 552, "is_downbeat": false}, {"time": 576, "is_downbeat": false}, {"time": 600, "is_downbeat": false}, {"time": 624, "is_downbeat": false}, {"time": 648, "is_downbeat": false}, {"time": 672, "is_downbeat": false}, {"time": 696, "is_downbeat": false}, {"time": 720, "is_downbeat": false}, {"time": 744, "is_downbeat": false}, {"time": 768, "is_downbeat": false}, {"time": 792, "is_downbeat": false}, {"time": 816, "is_downbeat": false}, {"time": 840, "is_downbeat": false}, {"time": 864, "is_downbeat": false}, {"time": 888, "is_downbeat": false}], "tracks": [{"program": 0, "is_drum": false, "notes": [{"time": 0, "pitch": 79, "duration": 6, "velocity": 64}, {"time": 6, "pitch": 82, "duration": 6, "velocity": 64}, {"time": 12, "pitch": 77, "duration": 24, "velocity": 64}, {"time": 36, "pitch": 79, "duration": 12, "velocity": 64}, {"time": 48, "pitch": 82, "duration": 12, "velocity": 64}, {"time": 60, "pitch": 72, "duration": 12, "velocity": 64}, {"time": 72, "pitch": 82, "duration": 12, "velocity": 64}, {"time": 84, "pitch": 82, "duration": 6, "velocity": 64}, {"time": 90, "pitch": 79, "duration": 6, "velocity": 64}, {"time": 96, "pitch": 82, "duration": 6, "velocity": 64}, {"time": 102, "pitch": 79, "duration": 6, "velocity": 64}, {"time": 108, "pitch": 77, "duration": 24, "velocity": 64}, {"time": 132, "pitch": 79, "duration": 6, "velocity": 64}, {"time": 138, "pitch": 82, "duration": 6, "velocity": 64}, {"time": 144, "pitch": 77, "duration": 36, "velocity": 64}, {"time": 180, "pitch": 79, "duration": 12, "velocity": 64}, {"time": 192, "pitch": 82, "duration": 12, "velocity": 64}, {"time": 204, "pitch": 72, "duration": 12, "velocity": 64}, {"time": 216, "pitch": 82, "duration": 12, "velocity": 64}, {"time": 228, "pitch": 82, "duration": 6, "velocity": 64}, {"time": 234, "pitch": 79, "duration": 6, "velocity": 64}, {"time": 240, "pitch": 82, "duration": 6, "velocity": 64}, {"time": 246, "pitch": 79, "duration": 6, "velocity": 64}, {"time": 252, "pitch": 77, "duration": 36, "velocity": 64}, {"time": 288, "pitch": 77, "duration": 18, "velocity": 64}, {"time": 306, "pitch": 74, "duration": 6, "velocity": 64}, {"time": 312, "pitch": 72, "duration": 12, "velocity": 64}, {"time": 324, "pitch": 74, "duration": 12, "velocity": 64}, {"time": 336, "pitch": 77, "duration": 12, "velocity": 64}, {"time": 348, "pitch": 72, "duration": 6, "velocity": 64}, {"time": 354, "pitch": 74, "duration": 6, "velocity": 64}, {"time": 360, "pitch": 77, "duration": 48, "velocity": 64}, {"time": 408, "pitch": 77, "duration": 18, "velocity": 64}, {"time": 426, "pitch": 79, "duration": 6, "velocity": 64}, {"time": 432, "pitch": 82, "duration": 12, "velocity": 64}, {"time": 444, "pitch": 82, "duration": 12, "velocity": 64}, {"time": 456, "pitch": 72, "duration": 6, "velocity": 64}, {"time": 462, "pitch": 82, "duration": 6, "velocity": 64}, {"time": 468, "pitch": 79, "duration": 6, "velocity": 64}, {"time": 474, "pitch": 82, "duration": 6, "velocity": 64}, {"time": 480, "pitch": 77, "duration": 24, "velocity": 64}, {"time": 504, "pitch": 77, "duration": 12, "velocity": 64}, {"time": 516, "pitch": 77, "duration": 12, "velocity": 64}, {"time": 528, "pitch": 74, "duration": 12, "velocity": 64}, {"time": 540, "pitch": 74, "duration": 6, "velocity": 64}, {"time": 546, "pitch": 74, "duration": 6, "velocity": 64}, {"time": 552, "pitch": 72, "duration": 6, "velocity": 64}, {"time": 558, "pitch": 74, "duration": 6, "velocity": 64}, {"time": 564, "pitch": 82, "duration": 12, "velocity": 64}, {"time": 576, "pitch": 72, "duration": 12, "velocity": 64}, {"time": 588, "pitch": 82, "duration": 12, "velocity": 64}, {"time": 600, "pitch": 77, "duration": 12, "velocity": 64}, {"time": 612, "pitch": 77, "duration": 12, "velocity": 64}, {"time": 624, "pitch": 74, "duration": 12, "velocity": 64}, {"time": 636, "pitch": 74, "duration": 6, "velocity": 64}, {"time": 642, "pitch": 74, "duration": 6, "velocity": 64}, {"time": 648, "pitch": 72, "duration": 6, "velocity": 64}, {"time": 654, "pitch": 74, "duration": 6, "velocity": 64}, {"time": 660, "pitch": 82, "duration": 12, "velocity": 64}, {"time": 672, "pitch": 72, "duration": 12, "velocity": 64}, {"time": 684, "pitch": 82, "duration": 12, "velocity": 64}, {"time": 696, "pitch": 79, "duration": 18, "velocity": 64}, {"time": 714, "pitch": 82, "duration": 6, "velocity": 64}, {"time": 720, "pitch": 79, "duration": 12, "velocity": 64}, {"time": 732, "pitch": 82, "duration": 12, "velocity": 64}, {"time": 744, "pitch": 79, "duration": 6, "velocity": 64}, {"time": 750, "pitch": 82, "duration": 6, "velocity": 64}, {"time": 756, "pitch": 74, "duration": 12, "velocity": 64}, {"time": 768, "pitch": 72, "duration": 12, "velocity": 64}, {"time": 780, "pitch": 82, "duration": 6, "velocity": 64}, {"time": 786, "pitch": 79, "duration": 6, "velocity": 64}, {"time": 792, "pitch": 74, "duration": 24, "velocity": 64}, {"time": 816, "pitch": 72, "duration": 12, "velocity": 64}, {"time": 828, "pitch": 82, "duration": 6, "velocity": 64}, {"time": 834, "pitch": 79, "duration": 6, "velocity": 64}, {"time": 840, "pitch": 77, "duration": 6, "velocity": 64}, {"time": 846, "pitch": 79, "duration": 6, "velocity": 64}, {"time": 852, "pitch": 72, "duration": 12, "velocity": 64}, {"time": 864, "pitch": 82, "duration": 36, "velocity": 64}]}]}