{"metadata": {"schema_version": "0.1", "title": "Zhijian qingsong bujian hua", "source_format": "abc"}, "resolution": 24, "tempos": [{"time": 0, "qpm": 120.0}], "key_signatures": [{"time": 0, "root": 7, "mode": "major", "fifths": 1}], "time_signatures": [{"time": 0, "numerator": 2, "denominator": 4}], "beats": [{"time": 0, "is_downbeat": true}, {"time": 24, "is_downbeat": false}, {"time": 48, "is_downbeat": true}, {"time": 72, "is_downbeat": false}, {"time": 96, "is_downbeat": true}, {"time": 120, "is_downbeat": false}, {"time": 144, "is_downbeat": true}, {"time": 168, "is_downbeat": false}, {"time": 192, "is_downbeat": true}, {"time": 216, "is_downbeat": false}, {"time": 240, "is_downbeat": true}, {"time": 264, "is_downbeat": false}, {"time": 288, "is_downbeat": true}, {"time": 312, "is_downbeat": false}, {"time": 336, "is_downbeat": true}, {"time": 360, "is_downbeat": false}, {"time": 384, "is_downbeat": true}, {"time": 408, "is_downbeat": false}, {"time": 432, "is_downbeat": true}, {"time": 456, "is_downbeat": false}, {"time": 480, "is_downbeat": true}, {"time": 504, "is_downbeat": false}, {"time": 528, "is_downbeat": true}, {"time": 552, "is_downbeat": false}, {"time": 576, "is_downbeat": true}, {"time": 600, "is_downbeat": false}, {"time": 624, "is_downbeat": true}, {"time": 648, "is_downbeat": false}, {"time": 672, "is_downbeat": true}, {"time": 696, "is_downbeat": false}, {"time": 720, "is_downbeat": true}, {"time": 744, "is_downbeat": false}], "tracks": [{"program": 0, "is_drum": false, "notes": [{"time": 0, "pitch": 74, "duration": 24, "velocity": 64}, {"time": 24, "pitch": 83, "duration": 18, "velocity": 64}, {"time": 42, "pitch": 81, "duration": 6, "velocity": 64}, {"time": 48, "pitch": 83, "duration": 12, "velocity": 64}, {"time": 60, "pitch": 83, "duration": 24, "velocity": 64}, {"time": 96, "pitch": 81, "duration": 24, "velocity": 64}, {"time": 120, "pitch": 83, "duration": 18, "velocity": 64}, {"time": 138, "pitch": 74, "duration": 6, "velocity": 64}, {"time": 144, "pitch": 83, "duration": 18, "velocity": 64}, {"time": 162, "pitch": 81, "duration": 6, "velocity": 64}, {"time": 168, "pitch": 79, "duration": 18, "velocity": 64}, {"time": 186, "pitch": 76, "duration": 6, "velocity": 64}, {"time": 192, "pitch": 79, "duration": 36, "velocity": 64}, {"time": 228, "pitch": 81, "duration": 12, "velocity": 64}, {"time": 240, "pitch": 83, "duration": 12, "velocity": 64}, {"time": 252, "pitch": 83, "duration": 12, "velocity": 64}, {"time": 264, "pitch": 79, "duration": 18, "velocity": 64}, {"time": 282, "pitch": 83, "duration": 6, "velocity": 64}, {"time": 288, "pitch": 81, "duration": 12, "velocity": 64}, {"time": 300, "pitch": 79, "duration": 12, "velocity": 64}, {"time": 312, "pitch": 76, "duration": 24, "velocity": 64}, {"time": 336, "pitch": 74, "duration": 36, "velocity": 64}, {"time": 384, "pitch": 74, "duration": 12, "velocity": 64}, {"time": 396, "pitch": 71, "duration": 12, "velocity": 64}, {"time": 408, "pitch": 74, "duration": 24, "velocity": 64}, {"time": 432, "pitch": 76, "duration": 12, "velocity": 64}, {"time": 444, "pitch": 79, "duration": 12, "velocity": 64}, {"time": 480, "pitch": 79, "duration": 12, "velocity": 64}, {"time": 492, "pitch": 79, "duration": 12, "velocity": 64}, {"time": 504, "pitch": 76, "duration": 18, "velocity": 64}, {"time": 522, "pitch": 74, "duration": 6, "velocity": 64}, {"time": 528, "pitch": 71, "duration": 36, "velocity": 64}, {"time": 576, "pitch": 81, "duration": 12, "velocity": 64}, {"time": 588, "pitch": 81, "duration": 24, "velocity": 64}, {"time": 612, "pitch": 74, "duration": 12, "velocity": 64}, {"time": 624, "pitch": 83, "duration": 24, "velocity": 64}, {"time": 648, "pitch": 79, "duration": 24, "velocity": 64}, {"time": 672, "pitch": 76, "duration": 12, "velocity": 64}, {"time": 684, "pitch": 76, "duration": 12, "velocity": 64}, {"time": 696, "pitch": 79, "duration": 24, "velocity": 64}, {"time": 720, "pitch": 79, "duration": 36, "velocity": 64}]}]}