{"metadata": {"schema_version": "0.1", "title": "Haocaoge, Da fenghuangji", "source_format": "abc"}, "resolution": 24, "tempos": [{"time": 0, "qpm": 120.0}], "key_signatures": [{"time": 0, "root": 5, "mode": "major", "fifths": -1}], "time_signatures": [{"time": 0, "numerator": 2, "denominator": 4}], "beats": [{"time": 0, "is_downbeat": true}, {"time": 24, "is_downbeat": false}, {"time": 48, "is_downbeat": true}, {"time": 72, "is_downbeat": false}, {"time": 96, "is_downbeat": true}, {"time": 120, "is_downbeat": false}, {"time": 144, "is_downbeat": true}, {"time": 168, "is_downbeat": false}, {"time": 192, "is_downbeat": true}, {"time": 216, "is_downbeat": false}, {"time": 240, "is_downbeat": true}, {"time": 264, "is_downbeat": false}, {"time": 288, "is_downbeat": true}, {"time": 312, "is_downbeat": false}], "tracks": [{"program": 0, "is_drum": false, "notes": [{"time": 0, "pitch": 79, "duration": 18, "velocity": 64}, {"time": 18, "pitch": 79, "duration": 6, "velocity": 64}, {"time": 24, "pitch": 74, "duration": 12, "velocity": 64}, {"time": 36, "pitch": 74, "duration": 6, "velocity": 64}, {"time": 42, "pitch": 77, "duration": 6, "velocity": 64}, {"time": 48, "pitch": 79, "duration": 6, "velocity": 64}, {"time": 54, "pitch": 79, "duration": 30, "velocity": 64}, {"time": 84, "pitch": 77, "duration": 12, "velocity": 64}, {"time": 96, "pitch": 74, "duration": 6, "velocity": 64}, {"time": 102, "pitch": 74, "duration": 12, "velocity": 64}, {"time": 114, "pitch": 77, "duration": 6, "velocity": 64}, {"time": 120, "pitch": 79, "duration": 12, "velocity": 64}, {"time": 132, "pitch": 77, "duration": 12, "velocity": 64}, {"time": 144, "pitch": 74, "duration": 24, "velocity": 64}, {"time": 192, "pitch": 72, "duration": 6, "velocity": 64}, {"time": 198, "pitch": 72, "duration": 12, "velocity": 64}, {"time": 210, "pitch": 74, "duration": 6, "velocity": 64}, {"time": 216, "pitch": 79, "duration": 12, "velocity": 64}, {"time": 228, "pitch": 79, "duration": 6, "velocity": 64}, {"time": 234, "pitch": 77, "duration": 6, "velocity": 64}, {"time": 240, "pitch": 74, "duration": 6, "velocity": 64}, {"time": 246, "pitch": 74, "duration": 12, "velocity": 64}, {"time": 258, "pitch": 77, "duration": 6, "velocity": 64}, {"time": 264, "pitch": 79, "duration": 12, "velocity": 64}, {"time": 276, "pitch": 77, "duration": 12, "velocity": 64}, {"time": 288, "pitch": 77, "duration": 6, "velocity": 64}, {"time": 294, "pitch": 74, "duration": 18, "velocity": 64}, {"time": 312, "pitch": 72, "duration": 24, "velocity": 64}]}]}