{"metadata": {"schema_version": "0.1", "title": "Shibeijiu", "source_format": "abc"}, "resolution": 24, "tempos": [{"time": 0, "qpm": 120.0}], "key_signatures": [{"time": 0, "root": 9, "mode": "major", "fifths": 3}], "time_signatures": [{"time": 0, "numerator": 2, "denominator": 4}], "beats": [{"time": 0, "is_downbeat": true}, {"time": 24, "is_downbeat": false}, {"time": 48, "is_downbeat": true}, {"time": 72, "is_downbeat": false}, {"time": 96, "is_downbeat": true}, {"time": 120, "is_downbeat": false}, {"time": 144, "is_downbeat": true}, {"time": 168, "is_downbeat": false}, {"time": 192, "is_downbeat": true}, {"time": 216, "is_downbeat": false}, {"time": 240, "is_downbeat": true}, {"time": 264, "is_downbeat": false}, {"time": 288, "is_downbeat": true}, {"time": 312, "is_downbeat": false}, {"time": 336, "is_downbeat": true}, {"time": 360, "is_downbeat": false}, {"time": 384, "is_downbeat": true}, {"time": 408, "is_downbeat": false}, {"time": 432, "is_downbeat": true}, {"time": 456, "is_downbeat": false}, {"time": 480, "is_downbeat": true}, {"time": 504, "is_downbeat": false}, {"time": 528, "is_downbeat": true}, {"time": 552, "is_downbeat": false}, {"time": 576, "is_downbeat": true}, {"time": 600, "is_downbeat": false}, {"time": 624, "is_downbeat": true}, {"time": 648, "is_downbeat": false}, {"time": 672, "is_downbeat": true}, {"time": 696, "is_downbeat": false}, {"time": 720, "is_downbeat": true}, {"time": 744, "is_downbeat": false}, {"time": 768, "is_downbeat": true}, {"time": 792, "is_downbeat": false}, {"time": 816, "is_downbeat": true}, {"time": 840, "is_downbeat": false}, {"time": 864, "is_downbeat": true}, {"time": 888, "is_downbeat": false}, {"time": 912, "is_downbeat": true}, {"time": 936, "is_downbeat": false}, {"time": 960, "is_downbeat": true}, {"time": 984, "is_downbeat": false}, {"time": 1008, "is_downbeat": true}, {"time": 1032, "is_downbeat": false}, {"time": 1056, "is_downbeat": true}, {"time": 1080, "is_downbeat": false}], "tracks": [{"program": 0, "is_drum": false, "notes": [{"time": 0, "pitch": 78, "duration": 6, "velocity": 64}, {"time": 6, "pitch": 78, "duration": 18, "velocity": 64}, {"time": 24, "pitch": 78, "duration": 6, "velocity": 64}, {"time": 30, "pitch": 81, "duration": 6, "velocity": 64}, {"time": 36, "pitch": 78, "duration": 6, "velocity": 64}, {"time": 42, "pitch": 76, "duration": 6, "velocity": 64}, {"time": 48, "pitch": 76, "duration": 6, "velocity": 64}, {"time": 54, "pitch": 73, "duration": 18, "velocity": 64}, {"time": 72, "pitch": 73, "duration": 12, "velocity": 64}, {"time": 84, "pitch": 76, "duration": 12, "velocity": 64}, {"time": 96, "pitch": 78, "duration": 12, "velocity": 64}, {"time": 120, "pitch": 81, "duration": 4, "velocity": 64}, {"time": 124, "pitch": 83, "duration": 4, "velocity": 64}, {"time": 128, "pitch": 81, "duration": 4, "velocity": 64}, {"time": 132, "pitch": 83, "duration": 12, "velocity": 64}, {"time": 144, "pitch": 78, "duration": 18, "velocity": 64}, {"time": 162, "pitch": 81, "duration": 6, "velocity": 64}, {"time": 168, "pitch": 78, "duration": 12, "velocity": 64}, {"time": 180, "pitch": 76, "duration": 12, "velocity": 64}, {"time": 192, "pitch": 78, "duration": 12, "velocity": 64}, {"time": 204, "pitch": 78, "duration": 6, "velocity": 64}, {"time": 210, "pitch": 76, "duration": 6, "velocity": 64}, {"time": 216, "pitch": 78, "duration": 48, "velocity": 64}, {"time": 264, "pitch": 76, "duration": 12, "velocity": 64}, {"time": 276, "pitch": 78, "duration": 12, "velocity": 64}, {"time": 288, "pitch": 78, "duration": 12, "velocity": 64}, {"time": 300, "pitch": 78, "duration": 12, "velocity": 64}, {"time": 312, "pitch": 81, "duration": 12, "velocity": 64}, {"time": 324, "pitch": 78, "duration": 12, "velocity": 64}, {"time": 336, "pitch": 76, "duration": 12, "velocity": 64}, {"time": 348, "pitch": 78, "duration": 6, "velocity": 64}, {"time": 354, "pitch": 81, "duration": 6, "velocity": 64}, {"time": 360, "pitch": 78, "duration": 6, "velocity": 64}, {"time": 366, "pitch": 76, "duration": 6, "velocity": 64}, {"time": 372, "pitch": 73, "duration": 6, "velocity": 64}, {"time": 384, "pitch": 76, "duration": 6, "velocity": 64}, {"time": 390, "pitch": 78, "duration": 6, "velocity": 64}, {"time": 396, "pitch": 76, "duration": 6, "velocity": 64}, {"time": 402, "pitch": 73, "duration": 6, "velocity": 64}, {"time": 408, "pitch": 71, "duration": 12, "velocity": 64}, {"time": 420, "pitch": 71, "duration": 6, "velocity": 64}, {"time": 426, "pitch": 69, "duration": 6, "velocity": 64}, {"time": 432, "pitch": 71, "duration": 36, "velocity": 64}, {"time": 480, "pitch": 76, "duration": 12, "velocity": 64}, {"time": 492, "pitch": 73, "duration": 24, "velocity": 64}, {"time": 516, "pitch": 76, "duration": 12, "velocity": 64}, {"time": 528, "pitch": 78, "duration": 12, "velocity": 64}, {"time": 540, "pitch": 78, "duration": 12, "velocity": 64}, {"time": 552, "pitch": 78, "duration": 6, "velocity": 64}, {"time": 558, "pitch": 81, "duration": 6, "velocity": 64}, {"time": 564, "pitch": 78, "duration": 6, "velocity": 64}, {"time": 570, "pitch": 76, "duration": 6, "velocity": 64}, {"time": 576, "pitch": 78, "duration": 12, "velocity": 64}, {"time": 588, "pitch": 78, "duration": 12, "velocity": 64}, {"time": 600, "pitch": 73, "duration": 6, "velocity": 64}, {"time": 612, "pitch": 78, "duration": 12, "velocity": 64}, {"time": 624, "pitch": 73, "duration": 12, "velocity": 64}, {"time": 636, "pitch": 73, "duration": 6, "velocity": 64}, {"time": 642, "pitch": 71, "duration": 6, "velocity": 64}, {"time": 648, "pitch": 69, "duration": 12, "velocity": 64}, {"time": 660, "pitch": 71, "duration": 12, "velocity": 64}, {"time": 672, "pitch": 73, "duration": 12, "velocity": 64}, {"time": 696, "pitch": 76, "duration": 6, "velocity": 64}, {"time": 702, "pitch": 78, "duration": 6, "velocity": 64}, {"time": 708, "pitch": 76, "duration": 6, "velocity": 64}, {"time": 714, "pitch": 73, "duration": 6, "velocity": 64}, {"time": 720, "pitch": 71, "duration": 12, "velocity": 64}, {"time": 732, "pitch": 71, "duration": 12, "velocity": 64}, {"time": 744, "pitch": 71, "duration": 12, "velocity": 64}, {"time": 756, "pitch": 69, "duration": 12, "velocity": 64}, {"time": 768, "pitch": 66, "duration": 12, "velocity": 64}, {"time": 780, "pitch": 69, "duration": 12, "velocity": 64}, {"time": 792, "pitch": 66, "duration": 12, "velocity": 64}, {"time": 804, "pitch": 64, "duration": 12, "velocity": 64}, {"time": 816, "pitch": 66, "duration": 72, "velocity": 64}, {"time": 888, "pitch": 69, "duration": 12, "velocity": 64}, {"time": 900, "pitch": 71, "duration": 12, "velocity": 64}, {"time": 912, "pitch": 73, "duration": 24, "velocity": 64}, {"time": 936, "pitch": 76, "duration": 6, "velocity": 64}, {"time": 942, "pitch": 78, "duration": 6, "velocity": 64}, {"time": 948, "pitch": 76, "duration": 6, "velocity": 64}, {"time": 954, "pitch": 73, "duration": 6, "velocity": 64}, {"time": 960, "pitch": 71, "duration": 12, "velocity": 64}, {"time": 972, "pitch": 71, "duration": 12, "velocity": 64}, {"time": 984, "pitch": 71, "duration": 12, "velocity": 64}, {"time": 996, "pitch": 69, "duration": 12, "velocity": 64}, {"time": 1008, "pitch": 66, "duration": 12, "velocity": 64}, {"time": 1020, "pitch": 69, "duration": 12, "velocity": 64}, {"time": 1032, "pitch": 66, "duration": 12, "velocity": 64}, {"time": 1044, "pitch": 64, "duration": 12, "velocity": 64}, {"time": 1056, "pitch": 66, "duration": 48, "velocity": 64}]}]}