{"metadata": {"schema_version": "0.1", "title": "Haocaockemen yao guoxi", "source_format": "abc"}, "resolution": 24, "tempos": [{"time": 0, "qpm": 120.0}], "key_signatures": [{"time": 0, "root": 3, "mode": "major", "fifths": -3}], "time_signatures": [{"time": 0, "numerator": 4, "denominator": 4}], "beats": [{"time": 0, "is_downbeat": true}, {"time": 24, "is_downbeat": false}, {"time": 48, "is_downbeat": false}, {"time": 72, "is_downbeat": false}, {"time": 96, "is_downbeat": true}, {"time": 120, "is_downbeat": false}, {"time": 144, "is_downbeat": true}, {"time": 168, "is_downbeat": false}, {"time": 192, "is_downbeat": false}, {"time": 216, "is_downbeat": false}, {"time": 240, "is_downbeat": true}, {"time": 264, "is_downbeat": false}, {"time": 288, "is_downbeat": false}, {"time": 312, "is_downbeat": false}, {"time": 336, "is_downbeat": true}, {"time": 360, "is_downbeat": false}, {"time": 372, "is_downbeat": true}, {"time": 396, "is_downbeat": false}, {"time": 420, "is_downbeat": false}, {"time": 444, "is_downbeat": false}, {"time": 468, "is_downbeat": true}, {"time": 492, "is_downbeat": false}, {"time": 516, "is_downbeat": false}, {"time": 540, "is_downbeat": false}, {"time": 564, "is_downbeat": true}, {"time": 588, "is_downbeat": false}, {"time": 612, "is_downbeat": false}, {"time": 636, "is_downbeat": false}, {"time": 660, "is_downbeat": true}, {"time": 684, "is_downbeat": false}, {"time": 708, "is_downbeat": false}, {"time": 732, "is_downbeat": false}, {"time": 756, "is_downbeat": true}, {"time": 780, "is_downbeat": false}, {"time": 804, "is_downbeat": false}, {"time": 828, "is_downbeat": false}, {"time": 852, "is_downbeat": true}, {"time": 876, "is_downbeat": false}, {"time": 900, "is_downbeat": false}, {"time": 924, "is_downbeat": true}, {"time": 948, "is_downbeat": false}, {"time": 972, "is_downbeat": false}, {"time": 996, "is_downbeat": false}], "tracks": [{"program": 0, "is_drum": false, "notes": [{"time": 0, "pitch": 75, "duration": 24, "velocity": 64}, {"time": 24, "pitch": 75, "duration": 4, "velocity": 64}, {"time": 28, "pitch": 75, "duration": 4, "velocity": 64}, {"time": 32, "pitch": 75, "duration": 4, "velocity": 64}, {"time": 36, "pitch": 77, "duration": 12, "velocity": 64}, {"time": 48, "pitch": 79, "duration": 12, "velocity": 64}, {"time": 60, "pitch": 75, "duration": 12, "velocity": 64}, {"time": 72, "pitch": 77, "duration": 12, "velocity": 64}, {"time": 84, "pitch": 82, "duration": 36, "velocity": 64}, {"time": 120, "pitch": 77, "duration": 24, "velocity": 64}, {"time": 144, "pitch": 79, "duration": 24, "velocity": 64}, {"time": 168, "pitch": 79, "duration": 6, "velocity": 64}, {"time": 174, "pitch": 79, "duration": 6, "velocity": 64}, {"time": 180, "pitch": 79, "duration": 24, "velocity": 64}, {"time": 204, "pitch": 79, "duration": 6, "velocity": 64}, {"time": 210, "pitch": 77, "duration": 6, "velocity": 64}, {"time": 216, "pitch": 79, "duration": 6, "velocity": 64}, {"time": 222, "pitch": 77, "duration": 6, "velocity": 64}, {"time": 228, "pitch": 75, "duration": 24, "velocity": 64}, {"time": 252, "pitch": 70, "duration": 24, "velocity": 64}, {"time": 276, "pitch": 75, "duration": 18, "velocity": 64}, {"time": 294, "pitch": 77, "duration": 6, "velocity": 64}, {"time": 300, "pitch": 77, "duration": 6, "velocity": 64}, {"time": 306, "pitch": 79, "duration": 6, "velocity": 64}, {"time": 312, "pitch": 77, "duration": 6, "velocity": 64}, {"time": 318, "pitch": 79, "duration": 6, "velocity": 64}, {"time": 324, "pitch": 79, "duration": 6, "velocity": 64}, {"time": 330, "pitch": 77, "duration": 6, "velocity": 64}, {"time": 336, "pitch": 75, "duration": 12, "velocity": 64}, {"time": 348, "pitch": 79, "duration": 12, "velocity": 64}, {"time": 360, "pitch": 77, "duration": 6, "velocity": 64}, {"time": 366, "pitch": 75, "duration": 6, "velocity": 64}, {"time": 372, "pitch": 75, "duration": 24, "velocity": 64}, {"time": 396, "pitch": 72, "duration": 24, "velocity": 64}, {"time": 420, "pitch": 75, "duration": 24, "velocity": 64}, {"time": 444, "pitch": 75, "duration": 24, "velocity": 64}, {"time": 468, "pitch": 77, "duration": 12, "velocity": 64}, {"time": 480, "pitch": 79, "duration": 12, "velocity": 64}, {"time": 492, "pitch": 77, "duration": 18, "velocity": 64}, {"time": 510, "pitch": 75, "duration": 6, "velocity": 64}, {"time": 516, "pitch": 72, "duration": 12, "velocity": 64}, {"time": 528, "pitch": 75, "duration": 12, "velocity": 64}, {"time": 540, "pitch": 77, "duration": 12, "velocity": 64}, {"time": 552, "pitch": 79, "duration": 12, "velocity": 64}, {"time": 564, "pitch": 77, "duration": 36, "velocity": 64}, {"time": 600, "pitch": 79, "duration": 12, "velocity": 64}, {"time": 612, "pitch": 77, "duration": 12, "velocity": 64}, {"time": 624, "pitch": 75, "duration": 12, "velocity": 64}, {"time": 636, "pitch": 72, "duration": 12, "velocity": 64}, {"time": 648, "pitch": 75, "duration": 12, "velocity": 64}, {"time": 660, "pitch": 77, "duration": 48, "velocity": 64}, {"time": 708, "pitch": 75, "duration": 48, "velocity": 64}, {"time": 756, "pitch": 75, "duration": 24, "velocity": 64}, {"time": 780, "pitch": 75, "duration": 24, "velocity": 64}, {"time": 804, "pitch": 75, "duration": 12, "velocity": 64}, {"time": 816, "pitch": 75, "duration": 6, "velocity": 64}, {"time": 822, "pitch": 77, "duration": 6, "velocity": 64}, {"time": 828, "pitch": 79, "duration": 6, "velocity": 64}, {"time": 834, "pitch": 79, "duration": 6, "velocity": 64}, {"time": 840, "pitch": 79, "duration": 12, "velocity": 64}, {"time": 852, "pitch": 75, "duration": 6, "velocity": 64}, {"time": 858, "pitch": 77, "duration": 6, "velocity": 64}, {"time": 864, "pitch": 82, "duration": 36, "velocity": 64}, {"time": 900, "pitch": 77, "duration": 24, "velocity": 64}, {"time": 924, "pitch": 77, "duration": 18, "velocity": 64}, {"time": 942, "pitch": 79, "duration": 6, "velocity": 64}, {"time": 948, "pitch": 79, "duration": 6, "velocity": 64}, {"time": 954, "pitch": 79, "duration": 6, "velocity": 64}, {"time": 960, "pitch": 79, "duration": 12, "velocity": 64}, {"time": 972, "pitch": 79, "duration": 6, "velocity": 64}, {"time": 978, "pitch": 77, "duration": 6, "velocity": 64}, {"time": 984, "pitch": 75, "duration": 6, "velocity": 64}, {"time": 990, "pitch": 77, "duration": 6, "velocity": 64}, {"time": 996, "pitch": 75, "duration": 24, "velocity": 64}, {"time": 1020, "pitch": 70, "duration": 12, "velocity": 64}, {"time": 1032, "pitch": 75, "duration": 18, "velocity": 64}, {"time": 1050, "pitch": 77, "duration": 6, "velocity": 64}, {"time": 1056, "pitch": 79, "duration": 6, "velocity": 64}, {"time": 1062, "pitch": 79, "duration": 6, "velocity": 64}, {"time": 1068, "pitch": 77, "duration": 6, "velocity": 64}, {"time": 1074, "pitch": 79, "duration": 6, "velocity": 64}, {"time": 1080, "pitch": 75, "duration": 12, "velocity": 64}, {"time": 1092, "pitch": 77, "duration": 6, "velocity": 64}, {"time": 1098, "pitch": 77, "duration": 6, "velocity": 64}, {"time": 1104, "pitch": 79, "duration": 12, "velocity": 64}, {"time": 1116, "pitch": 77, "duration": 6, "velocity": 64}, {"time": 1122, "pitch": 75, "duration": 6, "velocity": 64}, {"time": 1128, "pitch": 77, "duration": 12, "velocity": 64}, {"time": 1140, "pitch": 75, "duration": 36, "velocity": 64}, {"time": 1176, "pitch": 72, "duration": 24, "velocity": 64}, {"time": 1200, "pitch": 75, "duration": 24, "velocity": 64}, {"time": 1224, "pitch": 72, "duration": 12, "velocity": 64}, {"time": 1236, "pitch": 75, "duration": 12, "velocity": 64}, {"time": 1248, "pitch": 77, "duration": 12, "velocity": 64}, {"time": 1260, "pitch": 79, "duration": 12, "velocity": 64}, {"time": 1272, "pitch": 77, "duration": 18, "velocity": 64}, {"time": 1290, "pitch": 75, "duration": 6, "velocity": 64}, {"time": 1296, "pitch": 72, "duration": 12, "velocity": 64}, {"time": 1308, "pitch": 75, "duration": 12, "velocity": 64}, {"time": 1320, "pitch": 77, "duration": 12, "velocity": 64}, {"time": 1332, "pitch": 79, "duration": 12, "velocity": 64}, {"time": 1344, "pitch": 77, "duration": 36, "velocity": 64}, {"time": 1380, "pitch": 79, "duration": 12, "velocity": 64}, {"time": 1392, "pitch": 77, "duration": 12, "velocity": 64}, {"time": 1404, "pitch": 75, "duration": 12, "velocity": 64}, {"time": 1416, "pitch": 72, "duration": 12, "velocity": 64}, {"time": 1428, "pitch": 75, "duration": 12, "velocity": 64}, {"time": 1440, "pitch": 77, "duration": 48, "velocity": 64}, {"time": 1488, "pitch": 75, "duration": 48, "velocity": 64}]}]}