{"metadata": {"schema_version": "0.1", "title": "Shjiapai", "source_format": "abc"}, "resolution": 24, "tempos": [{"time": 0, "qpm": 120.0}], "key_signatures": [{"time": 0, "root": 10, "mode": "major", "fifths": -2}], "time_signatures": [{"time": 0, "numerator": 2, "denominator": 4}], "beats": [{"time": 0, "is_downbeat": true}, {"time": 24, "is_downbeat": false}, {"time": 48, "is_downbeat": true}, {"time": 72, "is_downbeat": false}, {"time": 96, "is_downbeat": true}, {"time": 120, "is_downbeat": false}, {"time": 144, "is_downbeat": true}, {"time": 168, "is_downbeat": false}, {"time": 192, "is_downbeat": true}, {"time": 216, "is_downbeat": false}, {"time": 240, "is_downbeat": true}, {"time": 264, "is_downbeat": false}, {"time": 288, "is_downbeat": true}, {"time": 312, "is_downbeat": false}, {"time": 336, "is_downbeat": true}, {"time": 360, "is_downbeat": false}, {"time": 384, "is_downbeat": true}, {"time": 408, "is_downbeat": false}, {"time": 432, "is_downbeat": true}, {"time": 456, "is_downbeat": false}, {"time": 480, "is_downbeat": true}, {"time": 504, "is_downbeat": false}, {"time": 528, "is_downbeat": true}, {"time": 552, "is_downbeat": false}, {"time": 576, "is_downbeat": true}, {"time": 600, "is_downbeat": false}, {"time": 624, "is_downbeat": true}, {"time": 648, "is_downbeat": false}, {"time": 672, "is_downbeat": true}, {"time": 696, "is_downbeat": false}], "tracks": [{"program": 0, "is_drum": false, "notes": [{"time": 12, "pitch": 74, "duration": 6, "velocity": 64}, {"time": 18, "pitch": 77, "duration": 6, "velocity": 64}, {"time": 24, "pitch": 82, "duration": 12, "velocity": 64}, {"time": 36, "pitch": 81, "duration": 6, "velocity": 64}, {"time": 42, "pitch": 79, "duration": 6, "velocity": 64}, {"time": 48, "pitch": 79, "duration": 12, "velocity": 64}, {"time": 60, "pitch": 74, "duration": 12, "velocity": 64}, {"time": 72, "pitch": 77, "duration": 12, "velocity": 64}, {"time": 84, "pitch": 79, "duration": 6, "velocity": 64}, {"time": 90, "pitch": 82, "duration": 6, "velocity": 64}, {"time": 96, "pitch": 74, "duration": 12, "velocity": 64}, {"time": 108, "pitch": 74, "duration": 6, "velocity": 64}, {"time": 114, "pitch": 77, "duration": 6, "velocity": 64}, {"time": 120, "pitch": 82, "duration": 12, "velocity": 64}, {"time": 132, "pitch": 81, "duration": 6, "velocity": 64}, {"time": 138, "pitch": 79, "duration": 6, "velocity": 64}, {"time": 144, "pitch": 74, "duration": 6, "velocity": 64}, {"time": 150, "pitch": 77, "duration": 6, "velocity": 64}, {"time": 156, "pitch": 82, "duration": 12, "velocity": 64}, {"time": 168, "pitch": 81, "duration": 6, "velocity": 64}, {"time": 174, "pitch": 79, "duration": 6, "velocity": 64}, {"time": 180, "pitch": 74, "duration": 6, "velocity": 64}, {"time": 186, "pitch": 77, "duration": 6, "velocity": 64}, {"time": 192, "pitch": 82, "duration": 12, "velocity": 64}, {"time": 204, "pitch": 81, "duration": 6, "velocity": 64}, {"time": 210, "pitch": 79, "duration": 6, "velocity": 64}, {"time": 216, "pitch": 77, "duration": 6, "velocity": 64}, {"time": 222, "pitch": 79, "duration": 6, "velocity": 64}, {"time": 228, "pitch": 74, "duration": 12, "velocity": 64}, {"time": 240, "pitch": 74, "duration": 12, "velocity": 64}, {"time": 252, "pitch": 74, "duration": 6, "velocity": 64}, {"time": 258, "pitch": 77, "duration": 6, "velocity": 64}, {"time": 264, "pitch": 79, "duration": 12, "velocity": 64}, {"time": 276, "pitch": 74, "duration": 6, "velocity": 64}, {"time": 282, "pitch": 77, "duration": 6, "velocity": 64}, {"time": 288, "pitch": 81, "duration": 9, "velocity": 64}, {"time": 297, "pitch": 72, "duration": 3, "velocity": 64}, {"time": 300, "pitch": 79, "duration": 6, "velocity": 64}, {"time": 306, "pitch": 77, "duration": 6, "velocity": 64}, {"time": 312, "pitch": 74, "duration": 24, "velocity": 64}, {"time": 336, "pitch": 82, "duration": 18, "velocity": 64}, {"time": 354, "pitch": 79, "duration": 6, "velocity": 64}, {"time": 360, "pitch": 82, "duration": 12, "velocity": 64}, {"time": 372, "pitch": 82, "duration": 6, "velocity": 64}, {"time": 378, "pitch": 72, "duration": 6, "velocity": 64}, {"time": 384, "pitch": 74, "duration": 9, "velocity": 64}, {"time": 393, "pitch": 72, "duration": 3, "velocity": 64}, {"time": 396, "pitch": 74, "duration": 6, "velocity": 64}, {"time": 402, "pitch": 77, "duration": 6, "velocity": 64}, {"time": 408, "pitch": 79, "duration": 6, "velocity": 64}, {"time": 414, "pitch": 74, "duration": 3, "velocity": 64}, {"time": 417, "pitch": 75, "duration": 3, "velocity": 64}, {"time": 420, "pitch": 74, "duration": 12, "velocity": 64}, {"time": 432, "pitch": 74, "duration": 6, "velocity": 64}, {"time": 438, "pitch": 72, "duration": 12, "velocity": 64}, {"time": 450, "pitch": 74, "duration": 6, "velocity": 64}, {"time": 456, "pitch": 83, "duration": 12, "velocity": 64}, {"time": 468, "pitch": 72, "duration": 6, "velocity": 64}, {"time": 474, "pitch": 74, "duration": 6, "velocity": 64}, {"time": 480, "pitch": 79, "duration": 9, "velocity": 64}, {"time": 489, "pitch": 81, "duration": 3, "velocity": 64}, {"time": 492, "pitch": 79, "duration": 6, "velocity": 64}, {"time": 498, "pitch": 77, "duration": 6, "velocity": 64}, {"time": 504, "pitch": 79, "duration": 6, "velocity": 64}, {"time": 510, "pitch": 74, "duration": 6, "velocity": 64}, {"time": 516, "pitch": 77, "duration": 24, "velocity": 64}, {"time": 540, "pitch": 79, "duration": 12, "velocity": 64}, {"time": 552, "pitch": 77, "duration": 12, "velocity": 64}, {"time": 564, "pitch": 76, "duration": 6, "velocity": 64}, {"time": 570, "pitch": 75, "duration": 6, "velocity": 64}, {"time": 576, "pitch": 74, "duration": 9, "velocity": 64}, {"time": 585, "pitch": 77, "duration": 3, "velocity": 64}, {"time": 588, "pitch": 74, "duration": 6, "velocity": 64}, {"time": 594, "pitch": 79, "duration": 6, "velocity": 64}, {"time": 600, "pitch": 82, "duration": 9, "velocity": 64}, {"time": 609, "pitch": 82, "duration": 3, "velocity": 64}, {"time": 612, "pitch": 82, "duration": 6, "velocity": 64}, {"time": 618, "pitch": 72, "duration": 6, "velocity": 64}, {"time": 624, "pitch": 74, "duration": 9, "velocity": 64}, {"time": 633, "pitch": 72, "duration": 3, "velocity": 64}, {"time": 636, "pitch": 74, "duration": 6, "velocity": 64}, {"time": 642, "pitch": 77, "duration": 6, "velocity": 64}, {"time": 648, "pitch": 79, "duration": 6, "velocity": 64}, {"time": 654, "pitch": 74, "duration": 3, "velocity": 64}, {"time": 657, "pitch": 75, "duration": 3, "velocity": 64}, {"time": 660, "pitch": 74, "duration": 6, "velocity": 64}, {"time": 666, "pitch": 72, "duration": 6, "velocity": 64}, {"time": 672, "pitch": 81, "duration": 9, "velocity": 64}, {"time": 681, "pitch": 72, "duration": 3, "velocity": 64}, {"time": 684, "pitch": 79, "duration": 6, "velocity": 64}, {"time": 690, "pitch": 77, "duration": 6, "velocity": 64}, {"time": 696, "pitch": 74, "duration": 24, "velocity": 64}]}]}