{"metadata": {"schema_version": "0.1", "title": "Maigaodi", "source_format": "abc"}, "resolution": 24, "tempos": [{"time": 0, "qpm": 120.0}], "key_signatures": [{"time": 0, "root": 3, "mode": "major", "fifths": -3}], "time_signatures": [{"time": 0, "numerator": 2, "denominator": 4}], "beats": [{"time": 0, "is_downbeat": true}, {"time": 24, "is_downbeat": false}, {"time": 48, "is_downbeat": true}, {"time": 72, "is_downbeat": false}, {"time": 96, "is_downbeat": true}, {"time": 120, "is_downbeat": false}, {"time": 144, "is_downbeat": true}, {"time": 168, "is_downbeat": false}, {"time": 192, "is_downbeat": true}, {"time": 216, "is_downbeat": false}, {"time": 240, "is_downbeat": true}, {"time": 264, "is_downbeat": false}, {"time": 288, "is_downbeat": true}, {"time": 312, "is_downbeat": false}, {"time": 336, "is_downbeat": true}, {"time": 360, "is_downbeat": false}, {"time": 384, "is_downbeat": true}, {"time": 408, "is_downbeat": false}, {"time": 432, "is_downbeat": true}, {"time": 456, "is_downbeat": false}, {"time": 480, "is_downbeat": true}, {"time": 504, "is_downbeat": false}, {"time": 528, "is_downbeat": true}, {"time": 552, "is_downbeat": false}, {"time": 576, "is_downbeat": true}, {"time": 600, "is_downbeat": false}, {"time": 624, "is_downbeat": true}, {"time": 648, "is_downbeat": false}, {"time": 672, "is_downbeat": true}, {"time": 696, "is_downbeat": false}, {"time": 720, "is_downbeat": true}, {"time": 744, "is_downbeat": false}], "tracks": [{"program": 0, "is_drum": false, "notes": [{"time": 0, "pitch": 72, "duration": 12, "velocity": 64}, {"time": 12, "pitch": 72, "duration": 6, "velocity": 64}, {"time": 18, "pitch": 74, "duration": 6, "velocity": 64}, {"time": 24, "pitch": 67, "duration": 12, "velocity": 64}, {"time": 36, "pitch": 67, "duration": 6, "velocity": 64}, {"time": 42, "pitch": 70, "duration": 6, "velocity": 64}, {"time": 48, "pitch": 72, "duration": 12, "velocity": 64}, {"time": 60, "pitch": 72, "duration": 6, "velocity": 64}, {"time": 66, "pitch": 74, "duration": 6, "velocity": 64}, {"time": 72, "pitch": 67, "duration": 12, "velocity": 64}, {"time": 96, "pitch": 72, "duration": 12, "velocity": 64}, {"time": 108, "pitch": 72, "duration": 12, "velocity": 64}, {"time": 120, "pitch": 67, "duration": 6, "velocity": 64}, {"time": 126, "pitch": 70, "duration": 6, "velocity": 64}, {"time": 132, "pitch": 67, "duration": 6, "velocity": 64}, {"time": 138, "pitch": 70, "duration": 6, "velocity": 64}, {"time": 144, "pitch": 72, "duration": 12, "velocity": 64}, {"time": 216, "pitch": 72, "duration": 12, "velocity": 64}, {"time": 228, "pitch": 72, "duration": 12, "velocity": 64}, {"time": 240, "pitch": 70, "duration": 18, "velocity": 64}, {"time": 258, "pitch": 72, "duration": 6, "velocity": 64}, {"time": 264, "pitch": 74, "duration": 12, "velocity": 64}, {"time": 276, "pitch": 77, "duration": 12, "velocity": 64}, {"time": 288, "pitch": 72, "duration": 6, "velocity": 64}, {"time": 294, "pitch": 74, "duration": 6, "velocity": 64}, {"time": 300, "pitch": 72, "duration": 6, "velocity": 64}, {"time": 306, "pitch": 70, "duration": 6, "velocity": 64}, {"time": 312, "pitch": 67, "duration": 12, "velocity": 64}, {"time": 336, "pitch": 67, "duration": 12, "velocity": 64}, {"time": 348, "pitch": 67, "duration": 6, "velocity": 64}, {"time": 354, "pitch": 72, "duration": 6, "velocity": 64}, {"time": 360, "pitch": 63, "duration": 18, "velocity": 64}, {"time": 378, "pitch": 65, "duration": 6, "velocity": 64}, {"time": 384, "pitch": 67, "duration": 12, "velocity": 64}, {"time": 396, "pitch": 67, "duration": 6, "velocity": 64}, {"time": 402, "pitch": 72, "duration": 6, "velocity": 64}, {"time": 408, "pitch": 63, "duration": 18, "velocity": 64}, {"time": 426, "pitch": 65, "duration": 6, "velocity": 64}, {"time": 432, "pitch": 67, "duration": 12, "velocity": 64}, {"time": 444, "pitch": 67, "duration": 12, "velocity": 64}, {"time": 468, "pitch": 72, "duration": 6, "velocity": 64}, {"time": 474, "pitch": 72, "duration": 6, "velocity": 64}, {"time": 480, "pitch": 67, "duration": 12, "velocity": 64}, {"time": 492, "pitch": 67, "duration": 12, "velocity": 64}, {"time": 516, "pitch": 79, "duration": 12, "velocity": 64}, {"time": 528, "pitch": 75, "duration": 12, "velocity": 64}, {"time": 540, "pitch": 74, "duration": 12, "velocity": 64}, {"time": 552, "pitch": 72, "duration": 6, "velocity": 64}, {"time": 558, "pitch": 74, "duration": 6, "velocity": 64}, {"time": 564, "pitch": 72, "duration": 6, "velocity": 64}, {"time": 570, "pitch": 67, "duration": 6, "velocity": 64}, {"time": 576, "pitch": 71, "duration": 3, "velocity": 64}, {"time": 579, "pitch": 70, "duration": 9, "velocity": 64}, {"time": 588, "pitch": 70, "duration": 3, "velocity": 64}, {"time": 591, "pitch": 70, "duration": 9, "velocity": 64}, {"time": 600, "pitch": 70, "duration": 3, "velocity": 64}, {"time": 603, "pitch": 70, "duration": 9, "velocity": 64}, {"time": 612, "pitch": 70, "duration": 3, "velocity": 64}, {"time": 615, "pitch": 70, "duration": 9, "velocity": 64}, {"time": 660, "pitch": 74, "duration": 12, "velocity": 64}, {"time": 672, "pitch": 72, "duration": 24, "velocity": 64}, {"time": 696, "pitch": 67, "duration": 6, "velocity": 64}, {"time": 702, "pitch": 70, "duration": 6, "velocity": 64}, {"time": 708, "pitch": 67, "duration": 6, "velocity": 64}, {"time": 714, "pitch": 65, "duration": 6, "velocity": 64}, {"time": 720, "pitch": 67, "duration": 6, "velocity": 64}, {"time": 726, "pitch": 67, "duration": 12, "velocity": 64}, {"time": 738, "pitch": 60, "duration": 6, "velocity": 64}, {"time": 744, "pitch": 60, "duration": 24, "velocity": 64}]}]}