{"metadata": {"schema_version": "0.1", "title": "Da ge yami shuai guo qu", "source_format": "abc"}, "resolution": 24, "tempos": [{"time": 0, "qpm": 120.0}], "key_signatures": [{"time": 0, "root": 9, "mode": "major", "fifths": 3}], "time_signatures": [{"time": 0, "numerator": 4, "denominator": 4}, {"time": 288, "numerator": 1, "denominator": 8}, {"time": 348, "numerator": 3, "denominator": 4}, {"time": 468, "numerator": 3, "denominator": 4}, {"time": 588, "numerator": 3, "denominator": 4}, {"time": 708, "numerator": 1, "denominator": 8}, {"time": 720, "numerator": 2, "denominator": 4}, {"time": 768, "numerator": 1, "denominator": 8}], "beats": [{"time": 0, "is_downbeat": true}, {"time": 12, "is_downbeat": true}, {"time": 24, "is_downbeat": true}, {"time": 36, "is_downbeat": true}, {"time": 48, "is_downbeat": true}, {"time": 60, "is_downbeat": true}, {"time": 72, "is_downbeat": true}, {"time": 84, "is_downbeat": true}, {"time": 96, "is_downbeat": true}, {"time": 108, "is_downbeat": true}, {"time": 120, "is_downbeat": true}, {"time": 132, "is_downbeat": true}, {"time": 144, "is_downbeat": true}, {"time": 156, "is_downbeat": true}, {"time": 168, "is_downbeat": true}, {"time": 180, "is_downbeat": true}, {"time": 192, "is_downbeat": true}, {"time": 204, "is_downbeat": true}, {"time": 216, "is_downbeat": true}, {"time": 228, "is_downbeat": true}, {"time": 240, "is_downbeat": true}, {"time": 252, "is_downbeat": true}, {"time": 264, "is_downbeat": true}, {"time": 276, "is_downbeat": true}, {"time": 288, "is_downbeat": true}, {"time": 300, "is_downbeat": true}, {"time": 324, "is_downbeat": false}, {"time": 348, "is_downbeat": true}, {"time": 372, "is_downbeat": false}, {"time": 396, "is_downbeat": false}, {"time": 420, "is_downbeat": true}, {"time": 444, "is_downbeat": false}, {"time": 468, "is_downbeat": true}, {"time": 492, "is_downbeat": false}, {"time": 516, "is_downbeat": false}, {"time": 540, "is_downbeat": true}, {"time": 564, "is_downbeat": false}, {"time": 588, "is_downbeat": true}, {"time": 600, "is_downbeat": true}, {"time": 612, "is_downbeat": true}, {"time": 624, "is_downbeat": true}, {"time": 636, "is_downbeat": true}, {"time": 648, "is_downbeat": true}, {"time": 660, "is_downbeat": true}, {"time": 672, "is_downbeat": true}, {"time": 684, "is_downbeat": true}, {"time": 696, "is_downbeat": true}, {"time": 708, "is_downbeat": true}, {"time": 720, "is_downbeat": true}, {"time": 732, "is_downbeat": true}, {"time": 744, "is_downbeat": true}, {"time": 756, "is_downbeat": true}, {"time": 768, "is_downbeat": true}], "tracks": [{"program": 0, "is_drum": false, "notes": [{"time": 0, "pitch": 66, "duration": 6, "velocity": 64}, {"time": 6, "pitch": 69, "duration": 6, "velocity": 64}, {"time": 12, "pitch": 66, "duration": 6, "velocity": 64}, {"time": 18, "pitch": 69, "duration": 6, "velocity": 64}, {"time": 24, "pitch": 71, "duration": 24, "velocity": 64}, {"time": 48, "pitch": 71, "duration": 12, "velocity": 64}, {"time": 60, "pitch": 71, "duration": 6, "velocity": 64}, {"time": 66, "pitch": 69, "duration": 6, "velocity": 64}, {"time": 72, "pitch": 66, "duration": 24, "velocity": 64}, {"time": 96, "pitch": 71, "duration": 12, "velocity": 64}, {"time": 108, "pitch": 69, "duration": 6, "velocity": 64}, {"time": 114, "pitch": 69, "duration": 6, "velocity": 64}, {"time": 120, "pitch": 71, "duration": 12, "velocity": 64}, {"time": 132, "pitch": 69, "duration": 12, "velocity": 64}, {"time": 144, "pitch": 66, "duration": 6, "velocity": 64}, {"time": 150, "pitch": 69, "duration": 6, "velocity": 64}, {"time": 156, "pitch": 64, "duration": 12, "velocity": 64}, {"time": 168, "pitch": 66, "duration": 12, "velocity": 64}, {"time": 180, "pitch": 69, "duration": 12, "velocity": 64}, {"time": 192, "pitch": 69, "duration": 12, "velocity": 64}, {"time": 204, "pitch": 66, "duration": 6, "velocity": 64}, {"time": 210, "pitch": 66, "duration": 6, "velocity": 64}, {"time": 216, "pitch": 64, "duration": 24, "velocity": 64}, {"time": 240, "pitch": 73, "duration": 12, "velocity": 64}, {"time": 252, "pitch": 73, "duration": 6, "velocity": 64}, {"time": 258, "pitch": 71, "duration": 6, "velocity": 64}, {"time": 264, "pitch": 69, "duration": 12, "velocity": 64}, {"time": 276, "pitch": 71, "duration": 24, "velocity": 64}, {"time": 300, "pitch": 69, "duration": 12, "velocity": 64}, {"time": 312, "pitch": 69, "duration": 6, "velocity": 64}, {"time": 318, "pitch": 66, "duration": 6, "velocity": 64}, {"time": 324, "pitch": 73, "duration": 12, "velocity": 64}, {"time": 336, "pitch": 71, "duration": 12, "velocity": 64}, {"time": 348, "pitch": 69, "duration": 12, "velocity": 64}, {"time": 360, "pitch": 71, "duration": 12, "velocity": 64}, {"time": 372, "pitch": 69, "duration": 12, "velocity": 64}, {"time": 384, "pitch": 66, "duration": 12, "velocity": 64}, {"time": 396, "pitch": 64, "duration": 24, "velocity": 64}, {"time": 420, "pitch": 64, "duration": 6, "velocity": 64}, {"time": 426, "pitch": 66, "duration": 6, "velocity": 64}, {"time": 432, "pitch": 69, "duration": 12, "velocity": 64}, {"time": 444, "pitch": 66, "duration": 12, "velocity": 64}, {"time": 456, "pitch": 64, "duration": 12, "velocity": 64}, {"time": 468, "pitch": 64, "duration": 12, "velocity": 64}, {"time": 480, "pitch": 64, "duration": 12, "velocity": 64}, {"time": 492, "pitch": 64, "duration": 6, "velocity": 64}, {"time": 498, "pitch": 66, "duration": 6, "velocity": 64}, {"time": 504, "pitch": 69, "duration": 12, "velocity": 64}, {"time": 516, "pitch": 69, "duration": 24, "velocity": 64}, {"time": 540, "pitch": 69, "duration": 12, "velocity": 64}, {"time": 552, "pitch": 69, "duration": 6, "velocity": 64}, {"time": 558, "pitch": 66, "duration": 6, "velocity": 64}, {"time": 564, "pitch": 73, "duration": 12, "velocity": 64}, {"time": 576, "pitch": 71, "duration": 12, "velocity": 64}, {"time": 588, "pitch": 69, "duration": 12, "velocity": 64}, {"time": 600, "pitch": 71, "duration": 12, "velocity": 64}, {"time": 612, "pitch": 69, "duration": 12, "velocity": 64}, {"time": 624, "pitch": 66, "duration": 12, "velocity": 64}, {"time": 636, "pitch": 64, "duration": 24, "velocity": 64}, {"time": 660, "pitch": 64, "duration": 6, "velocity": 64}, {"time": 666, "pitch": 66, "duration": 6, "velocity": 64}, {"time": 672, "pitch": 69, "duration": 12, "velocity": 64}, {"time": 684, "pitch": 64, "duration": 12, "velocity": 64}, {"time": 696, "pitch": 66, "duration": 12, "velocity": 64}, {"time": 708, "pitch": 64, "duration": 6, "velocity": 64}, {"time": 714, "pitch": 66, "duration": 6, "velocity": 64}, {"time": 720, "pitch": 69, "duration": 24, "velocity": 64}, {"time": 744, "pitch": 64, "duration": 12, "velocity": 64}]}]}