{"metadata": {"schema_version": "0.1", "title": "Xiaoxiao chawuo aidundun", "source_format": "abc"}, "resolution": 24, "tempos": [{"time": 0, "qpm": 120.0}], "key_signatures": [{"time": 0, "root": 7, "mode": "major", "fifths": 1}], "time_signatures": [{"time": 0, "numerator": 4, "denominator": 4}, {"time": 144, "numerator": 4, "denominator": 4}, {"time": 384, "numerator": 1, "denominator": 4}, {"time": 480, "numerator": 5, "denominator": 4}, {"time": 672, "numerator": 1, "denominator": 4}, {"time": 696, "numerator": 3, "denominator": 4}], "beats": [{"time": 0, "is_downbeat": true}, {"time": 24, "is_downbeat": false}, {"time": 48, "is_downbeat": false}, {"time": 72, "is_downbeat": true}, {"time": 96, "is_downbeat": false}, {"time": 120, "is_downbeat": false}, {"time": 144, "is_downbeat": true}, {"time": 168, "is_downbeat": true}, {"time": 192, "is_downbeat": true}, {"time": 216, "is_downbeat": true}, {"time": 240, "is_downbeat": true}, {"time": 264, "is_downbeat": true}, {"time": 288, "is_downbeat": true}, {"time": 312, "is_downbeat": true}, {"time": 336, "is_downbeat": true}, {"time": 360, "is_downbeat": true}, {"time": 384, "is_downbeat": true}, {"time": 408, "is_downbeat": true}, {"time": 432, "is_downbeat": false}, {"time": 456, "is_downbeat": false}, {"time": 480, "is_downbeat": true}, {"time": 504, "is_downbeat": true}, {"time": 528, "is_downbeat": true}, {"time": 552, "is_downbeat": true}, {"time": 576, "is_downbeat": true}, {"time": 600, "is_downbeat": true}, {"time": 624, "is_downbeat": true}, {"time": 648, "is_downbeat": true}, {"time": 672, "is_downbeat": true}, {"time": 696, "is_downbeat": true}, {"time": 720, "is_downbeat": false}, {"time": 744, "is_downbeat": false}], "tracks": [{"program": 0, "is_drum": false, "notes": [{"time": 0, "pitch": 64, "duration": 12, "velocity": 64}, {"time": 12, "pitch": 64, "duration": 12, "velocity": 64}, {"time": 24, "pitch": 64, "duration": 24, "velocity": 64}, {"time": 48, "pitch": 67, "duration": 12, "velocity": 64}, {"time": 60, "pitch": 69, "duration": 12, "velocity": 64}, {"time": 72, "pitch": 71, "duration": 96, "velocity": 64}, {"time": 168, "pitch": 74, "duration": 12, "velocity": 64}, {"time": 180, "pitch": 71, "duration": 12, "velocity": 64}, {"time": 192, "pitch": 69, "duration": 12, "velocity": 64}, {"time": 204, "pitch": 67, "duration": 12, "velocity": 64}, {"time": 216, "pitch": 69, "duration": 24, "velocity": 64}, {"time": 240, "pitch": 74, "duration": 12, "velocity": 64}, {"time": 252, "pitch": 71, "duration": 60, "velocity": 64}, {"time": 312, "pitch": 74, "duration": 12, "velocity": 64}, {"time": 324, "pitch": 74, "duration": 12, "velocity": 64}, {"time": 336, "pitch": 71, "duration": 12, "velocity": 64}, {"time": 348, "pitch": 69, "duration": 12, "velocity": 64}, {"time": 360, "pitch": 67, "duration": 24, "velocity": 64}, {"time": 384, "pitch": 69, "duration": 12, "velocity": 64}, {"time": 396, "pitch": 67, "duration": 12, "velocity": 64}, {"time": 408, "pitch": 67, "duration": 24, "velocity": 64}, {"time": 432, "pitch": 64, "duration": 72, "velocity": 64}, {"time": 504, "pitch": 74, "duration": 12, "velocity": 64}, {"time": 516, "pitch": 64, "duration": 12, "velocity": 64}, {"time": 528, "pitch": 67, "duration": 6, "velocity": 64}, {"time": 534, "pitch": 69, "duration": 6, "velocity": 64}, {"time": 540, "pitch": 71, "duration": 60, "velocity": 64}, {"time": 600, "pitch": 71, "duration": 12, "velocity": 64}, {"time": 612, "pitch": 74, "duration": 12, "velocity": 64}, {"time": 624, "pitch": 69, "duration": 12, "velocity": 64}, {"time": 636, "pitch": 67, "duration": 12, "velocity": 64}, {"time": 648, "pitch": 67, "duration": 24, "velocity": 64}, {"time": 672, "pitch": 64, "duration": 72, "velocity": 64}]}]}