{"metadata": {"schema_version": "0.1", "title": "Shixuxie", "source_format": "abc"}, "resolution": 24, "tempos": [{"time": 0, "qpm": 120.0}], "key_signatures": [{"time": 0, "root": 2, "mode": "major", "fifths": 2}], "time_signatures": [{"time": 0, "numerator": 4, "denominator": 4}, {"time": 144, "numerator": 3, "denominator": 4}, {"time": 744, "numerator": 1, "denominator": 4}, {"time": 816, "numerator": 3, "denominator": 4}, {"time": 1032, "numerator": 3, "denominator": 4}, {"time": 1296, "numerator": 1, "denominator": 4}, {"time": 1368, "numerator": 4, "denominator": 4}, {"time": 1608, "numerator": 3, "denominator": 4}, {"time": 1872, "numerator": 1, "denominator": 4}, {"time": 1944, "numerator": 4, "denominator": 4}, {"time": 2184, "numerator": 3, "denominator": 4}, {"time": 2448, "numerator": 1, "denominator": 4}, {"time": 2520, "numerator": 3, "denominator": 4}, {"time": 2736, "numerator": 3, "denominator": 4}, {"time": 3000, "numerator": 1, "denominator": 4}, {"time": 3072, "numerator": 3, "denominator": 4}, {"time": 3288, "numerator": 3, "denominator": 4}, {"time": 3552, "numerator": 1, "denominator": 4}, {"time": 3624, "numerator": 4, "denominator": 4}, {"time": 3864, "numerator": 3, "denominator": 4}, {"time": 4128, "numerator": 1, "denominator": 4}, {"time": 4200, "numerator": 4, "denominator": 4}, {"time": 4440, "numerator": 3, "denominator": 4}, {"time": 4704, "numerator": 1, "denominator": 4}, {"time": 4776, "numerator": 4, "denominator": 4}, {"time": 5016, "numerator": 3, "denominator": 4}, {"time": 5280, "numerator": 1, "denominator": 4}, {"time": 5352, "numerator": 3, "denominator": 4}, {"time": 5424, "numerator": 2, "denominator": 4}], "beats": [{"time": 0, "is_downbeat": true}, {"time": 24, "is_downbeat": false}, {"time": 48, "is_downbeat": true}, {"time": 72, "is_downbeat": false}, {"time": 96, "is_downbeat": true}, {"time": 120, "is_downbeat": false}, {"time": 144, "is_downbeat": true}, {"time": 168, "is_downbeat": true}, {"time": 192, "is_downbeat": true}, {"time": 216, "is_downbeat": true}, {"time": 240, "is_downbeat": true}, {"time": 264, "is_downbeat": true}, {"time": 288, "is_downbeat": true}, {"time": 312, "is_downbeat": true}, {"time": 336, "is_downbeat": true}, {"time": 360, "is_downbeat": true}, {"time": 384, "is_downbeat": true}, {"time": 408, "is_downbeat": true}, {"time": 432, "is_downbeat": true}, {"time": 456, "is_downbeat": true}, {"time": 480, "is_downbeat": true}, {"time": 504, "is_downbeat": true}, {"time": 528, "is_downbeat": true}, {"time": 552, "is_downbeat": true}, {"time": 576, "is_downbeat": true}, {"time": 600, "is_downbeat": true}, {"time": 624, "is_downbeat": true}, {"time": 648, "is_downbeat": true}, {"time": 672, "is_downbeat": true}, {"time": 696, "is_downbeat": true}, {"time": 720, "is_downbeat": true}, {"time": 744, "is_downbeat": true}, {"time": 768, "is_downbeat": true}, {"time": 792, "is_downbeat": false}, {"time": 816, "is_downbeat": true}, {"time": 840, "is_downbeat": false}, {"time": 864, "is_downbeat": false}, {"time": 888, "is_downbeat": true}, {"time": 912, "is_downbeat": false}, {"time": 936, "is_downbeat": true}, {"time": 960, "is_downbeat": false}, {"time": 984, "is_downbeat": true}, {"time": 1008, "is_downbeat": false}, {"time": 1032, "is_downbeat": true}, {"time": 1056, "is_downbeat": true}, {"time": 1080, "is_downbeat": true}, {"time": 1104, "is_downbeat": true}, {"time": 1128, "is_downbeat": true}, {"time": 1152, "is_downbeat": true}, {"time": 1176, "is_downbeat": true}, {"time": 1200, "is_downbeat": true}, {"time": 1224, "is_downbeat": true}, {"time": 1248, "is_downbeat": true}, {"time": 1272, "is_downbeat": true}, {"time": 1296, "is_downbeat": true}, {"time": 1320, "is_downbeat": true}, {"time": 1344, "is_downbeat": false}, {"time": 1368, "is_downbeat": true}, {"time": 1392, "is_downbeat": false}, {"time": 1416, "is_downbeat": false}, {"time": 1440, "is_downbeat": true}, {"time": 1464, "is_downbeat": true}, {"time": 1488, "is_downbeat": false}, {"time": 1512, "is_downbeat": true}, {"time": 1536, "is_downbeat": false}, {"time": 1560, "is_downbeat": true}, {"time": 1584, "is_downbeat": false}, {"time": 1608, "is_downbeat": true}, {"time": 1632, "is_downbeat": true}, {"time": 1656, "is_downbeat": true}, {"time": 1680, "is_downbeat": true}, {"time": 1704, "is_downbeat": true}, {"time": 1728, "is_downbeat": true}, {"time": 1752, "is_downbeat": true}, {"time": 1776, "is_downbeat": true}, {"time": 1800, "is_downbeat": true}, {"time": 1824, "is_downbeat": true}, {"time": 1848, "is_downbeat": true}, {"time": 1872, "is_downbeat": true}, {"time": 1896, "is_downbeat": true}, {"time": 1920, "is_downbeat": false}, {"time": 1944, "is_downbeat": true}, {"time": 1968, "is_downbeat": false}, {"time": 1992, "is_downbeat": false}, {"time": 2016, "is_downbeat": true}, {"time": 2040, "is_downbeat": true}, {"time": 2064, "is_downbeat": false}, {"time": 2088, "is_downbeat": true}, {"time": 2112, "is_downbeat": false}, {"time": 2136, "is_downbeat": true}, {"time": 2160, "is_downbeat": false}, {"time": 2184, "is_downbeat": true}, {"time": 2208, "is_downbeat": true}, {"time": 2232, "is_downbeat": true}, {"time": 2256, "is_downbeat": true}, {"time": 2280, "is_downbeat": true}, {"time": 2304, "is_downbeat": true}, {"time": 2328, "is_downbeat": true}, {"time": 2352, "is_downbeat": true}, {"time": 2376, "is_downbeat": true}, {"time": 2400, "is_downbeat": true}, {"time": 2424, "is_downbeat": true}, {"time": 2448, "is_downbeat": true}, {"time": 2472, "is_downbeat": true}, {"time": 2496, "is_downbeat": false}, {"time": 2520, "is_downbeat": true}, {"time": 2544, "is_downbeat": false}, {"time": 2568, "is_downbeat": false}, {"time": 2592, "is_downbeat": true}, {"time": 2616, "is_downbeat": false}, {"time": 2640, "is_downbeat": true}, {"time": 2664, "is_downbeat": false}, {"time": 2688, "is_downbeat": true}, {"time": 2712, "is_downbeat": false}, {"time": 2736, "is_downbeat": true}, {"time": 2760, "is_downbeat": true}, {"time": 2784, "is_downbeat": true}, {"time": 2808, "is_downbeat": true}, {"time": 2832, "is_downbeat": true}, {"time": 2856, "is_downbeat": true}, {"time": 2880, "is_downbeat": true}, {"time": 2904, "is_downbeat": true}, {"time": 2928, "is_downbeat": true}, {"time": 2952, "is_downbeat": true}, {"time": 2976, "is_downbeat": true}, {"time": 3000, "is_downbeat": true}, {"time": 3024, "is_downbeat": true}, {"time": 3048, "is_downbeat": false}, {"time": 3072, "is_downbeat": true}, {"time": 3096, "is_downbeat": false}, {"time": 3120, "is_downbeat": false}, {"time": 3144, "is_downbeat": true}, {"time": 3168, "is_downbeat": false}, {"time": 3192, "is_downbeat": true}, {"time": 3216, "is_downbeat": false}, {"time": 3240, "is_downbeat": true}, {"time": 3264, "is_downbeat": false}, {"time": 3288, "is_downbeat": true}, {"time": 3312, "is_downbeat": true}, {"time": 3336, "is_downbeat": true}, {"time": 3360, "is_downbeat": true}, {"time": 3384, "is_downbeat": true}, {"time": 3408, "is_downbeat": true}, {"time": 3432, "is_downbeat": true}, {"time": 3456, "is_downbeat": true}, {"time": 3480, "is_downbeat": true}, {"time": 3504, "is_downbeat": true}, {"time": 3528, "is_downbeat": true}, {"time": 3552, "is_downbeat": true}, {"time": 3576, "is_downbeat": true}, {"time": 3600, "is_downbeat": false}, {"time": 3624, "is_downbeat": true}, {"time": 3648, "is_downbeat": false}, {"time": 3672, "is_downbeat": false}, {"time": 3696, "is_downbeat": true}, {"time": 3720, "is_downbeat": true}, {"time": 3744, "is_downbeat": false}, {"time": 3768, "is_downbeat": true}, {"time": 3792, "is_downbeat": false}, {"time": 3816, "is_downbeat": true}, {"time": 3840, "is_downbeat": false}, {"time": 3864, "is_downbeat": true}, {"time": 3888, "is_downbeat": true}, {"time": 3912, "is_downbeat": true}, {"time": 3936, "is_downbeat": true}, {"time": 3960, "is_downbeat": true}, {"time": 3984, "is_downbeat": true}, {"time": 4008, "is_downbeat": true}, {"time": 4032, "is_downbeat": true}, {"time": 4056, "is_downbeat": true}, {"time": 4080, "is_downbeat": true}, {"time": 4104, "is_downbeat": true}, {"time": 4128, "is_downbeat": true}, {"time": 4152, "is_downbeat": true}, {"time": 4176, "is_downbeat": false}, {"time": 4200, "is_downbeat": true}, {"time": 4224, "is_downbeat": false}, {"time": 4248, "is_downbeat": false}, {"time": 4272, "is_downbeat": true}, {"time": 4296, "is_downbeat": true}, {"time": 4320, "is_downbeat": false}, {"time": 4344, "is_downbeat": true}, {"time": 4368, "is_downbeat": false}, {"time": 4392, "is_downbeat": true}, {"time": 4416, "is_downbeat": false}, {"time": 4440, "is_downbeat": true}, {"time": 4464, "is_downbeat": true}, {"time": 4488, "is_downbeat": true}, {"time": 4512, "is_downbeat": true}, {"time": 4536, "is_downbeat": true}, {"time": 4560, "is_downbeat": true}, {"time": 4584, "is_downbeat": true}, {"time": 4608, "is_downbeat": true}, {"time": 4632, "is_downbeat": true}, {"time": 4656, "is_downbeat": true}, {"time": 4680, "is_downbeat": true}, {"time": 4704, "is_downbeat": true}, {"time": 4728, "is_downbeat": true}, {"time": 4752, "is_downbeat": false}, {"time": 4776, "is_downbeat": true}, {"time": 4800, "is_downbeat": false}, {"time": 4824, "is_downbeat": false}, {"time": 4848, "is_downbeat": true}, {"time": 4872, "is_downbeat": true}, {"time": 4896, "is_downbeat": false}, {"time": 4920, "is_downbeat": true}, {"time": 4944, "is_downbeat": false}, {"time": 4968, "is_downbeat": true}, {"time": 4992, "is_downbeat": false}, {"time": 5016, "is_downbeat": true}, {"time": 5040, "is_downbeat": true}, {"time": 5064, "is_downbeat": true}, {"time": 5088, "is_downbeat": true}, {"time": 5112, "is_downbeat": true}, {"time": 5136, "is_downbeat": true}, {"time": 5160, "is_downbeat": true}, {"time": 5184, "is_downbeat": true}, {"time": 5208, "is_downbeat": true}, {"time": 5232, "is_downbeat": true}, {"time": 5256, "is_downbeat": true}, {"time": 5280, "is_downbeat": true}, {"time": 5304, "is_downbeat": true}, {"time": 5328, "is_downbeat": false}, {"time": 5352, "is_downbeat": true}, {"time": 5376, "is_downbeat": false}, {"time": 5400, "is_downbeat": true}, {"time": 5424, "is_downbeat": true}, {"time": 5448, "is_downbeat": false}, {"time": 5472, "is_downbeat": true}, {"time": 5496, "is_downbeat": false}, {"time": 5520, "is_downbeat": true}, {"time": 5544, "is_downbeat": false}, {"time": 5568, "is_downbeat": true}, {"time": 5592, "is_downbeat": false}, {"time": 5616, "is_downbeat": true}, {"time": 5640, "is_downbeat": false}, {"time": 5664, "is_downbeat": true}, {"time": 5688, "is_downbeat": false}, {"time": 5712, "is_downbeat": true}, {"time": 5736, "is_downbeat": false}], "tracks": [{"program": 0, "is_drum": false, "notes": [{"time": 0, "pitch": 76, "duration": 6, "velocity": 64}, {"time": 6, "pitch": 79, "duration": 6, "velocity": 64}, {"time": 12, "pitch": 76, "duration": 12, "velocity": 64}, {"time": 24, "pitch": 74, "duration": 12, "velocity": 64}, {"time": 36, "pitch": 76, "duration": 12, "velocity": 64}, {"time": 48, "pitch": 74, "duration": 12, "velocity": 64}, {"time": 60, "pitch": 76, "duration": 6, "velocity": 64}, {"time": 66, "pitch": 74, "duration": 6, "velocity": 64}, {"time": 72, "pitch": 71, "duration": 24, "velocity": 64}, {"time": 96, "pitch": 76, "duration": 24, "velocity": 64}, {"time": 120, "pitch": 71, "duration": 12, "velocity": 64}, {"time": 132, "pitch": 69, "duration": 24, "velocity": 64}, {"time": 156, "pitch": 64, "duration": 12, "velocity": 64}, {"time": 168, "pitch": 64, "duration": 12, "velocity": 64}, {"time": 180, "pitch": 64, "duration": 12, "velocity": 64}, {"time": 192, "pitch": 71, "duration": 6, "velocity": 64}, {"time": 198, "pitch": 74, "duration": 6, "velocity": 64}, {"time": 204, "pitch": 71, "duration": 6, "velocity": 64}, {"time": 210, "pitch": 69, "duration": 6, "velocity": 64}, {"time": 216, "pitch": 71, "duration": 6, "velocity": 64}, {"time": 222, "pitch": 74, "duration": 6, "velocity": 64}, {"time": 228, "pitch": 69, "duration": 12, "velocity": 64}, {"time": 240, "pitch": 64, "duration": 24, "velocity": 64}, {"time": 264, "pitch": 69, "duration": 48, "velocity": 64}, {"time": 312, "pitch": 69, "duration": 18, "velocity": 64}, {"time": 330, "pitch": 69, "duration": 6, "velocity": 64}, {"time": 336, "pitch": 71, "duration": 6, "velocity": 64}, {"time": 342, "pitch": 73, "duration": 6, "velocity": 64}, {"time": 348, "pitch": 71, "duration": 12, "velocity": 64}, {"time": 360, "pitch": 71, "duration": 18, "velocity": 64}, {"time": 378, "pitch": 74, "duration": 6, "velocity": 64}, {"time": 384, "pitch": 69, "duration": 24, "velocity": 64}, {"time": 408, "pitch": 71, "duration": 6, "velocity": 64}, {"time": 414, "pitch": 73, "duration": 6, "velocity": 64}, {"time": 420, "pitch": 71, "duration": 24, "velocity": 64}, {"time": 444, "pitch": 73, "duration": 6, "velocity": 64}, {"time": 450, "pitch": 71, "duration": 6, "velocity": 64}, {"time": 456, "pitch": 69, "duration": 48, "velocity": 64}, {"time": 504, "pitch": 76, "duration": 18, "velocity": 64}, {"time": 522, "pitch": 78, "duration": 6, "velocity": 64}, {"time": 528, "pitch": 74, "duration": 12, "velocity": 64}, {"time": 540, "pitch": 76, "duration": 12, "velocity": 64}, {"time": 552, "pitch": 76, "duration": 6, "velocity": 64}, {"time": 558, "pitch": 78, "duration": 6, "velocity": 64}, {"time": 564, "pitch": 71, "duration": 12, "velocity": 64}, {"time": 588, "pitch": 76, "duration": 6, "velocity": 64}, {"time": 594, "pitch": 78, "duration": 6, "velocity": 64}, {"time": 600, "pitch": 71, "duration": 12, "velocity": 64}, {"time": 612, "pitch": 71, "duration": 24, "velocity": 64}, {"time": 636, "pitch": 76, "duration": 12, "velocity": 64}, {"time": 648, "pitch": 74, "duration": 48, "velocity": 64}, {"time": 696, "pitch": 76, "duration": 12, "velocity": 64}, {"time": 708, "pitch": 76, "duration": 24, "velocity": 64}, {"time": 732, "pitch": 78, "duration": 6, "velocity": 64}, {"time": 738, "pitch": 76, "duration": 6, "velocity": 64}, {"time": 744, "pitch": 71, "duration": 12, "velocity": 64}, {"time": 756, "pitch": 71, "duration": 6, "velocity": 64}, {"time": 762, "pitch": 69, "duration": 6, "velocity": 64}, {"time": 768, "pitch": 71, "duration": 18, "velocity": 64}, {"time": 786, "pitch": 69, "duration": 6, "velocity": 64}, {"time": 792, "pitch": 71, "duration": 6, "velocity": 64}, {"time": 798, "pitch": 74, "duration": 6, "velocity": 64}, {"time": 804, "pitch": 71, "duration": 6, "velocity": 64}, {"time": 810, "pitch": 74, "duration": 6, "velocity": 64}, {"time": 816, "pitch": 71, "duration": 12, "velocity": 64}, {"time": 828, "pitch": 66, "duration": 12, "velocity": 64}, {"time": 840, "pitch": 71, "duration": 18, "velocity": 64}, {"time": 858, "pitch": 69, "duration": 6, "velocity": 64}, {"time": 864, "pitch": 71, "duration": 12, "velocity": 64}, {"time": 876, "pitch": 71, "duration": 6, "velocity": 64}, {"time": 882, "pitch": 69, "duration": 6, "velocity": 64}, {"time": 888, "pitch": 71, "duration": 6, "velocity": 64}, {"time": 894, "pitch": 74, "duration": 6, "velocity": 64}, {"time": 900, "pitch": 76, "duration": 24, "velocity": 64}, {"time": 924, "pitch": 69, "duration": 12, "velocity": 64}, {"time": 936, "pitch": 71, "duration": 6, "velocity": 64}, {"time": 942, "pitch": 74, "duration": 6, "velocity": 64}, {"time": 948, "pitch": 71, "duration": 6, "velocity": 64}, {"time": 954, "pitch": 69, "duration": 6, "velocity": 64}, {"time": 960, "pitch": 64, "duration": 12, "velocity": 64}, {"time": 972, "pitch": 69, "duration": 12, "velocity": 64}, {"time": 984, "pitch": 71, "duration": 6, "velocity": 64}, {"time": 990, "pitch": 74, "duration": 6, "velocity": 64}, {"time": 996, "pitch": 71, "duration": 24, "velocity": 64}, {"time": 1020, "pitch": 69, "duration": 6, "velocity": 64}, {"time": 1026, "pitch": 66, "duration": 6, "velocity": 64}, {"time": 1032, "pitch": 64, "duration": 24, "velocity": 64}, {"time": 1056, "pitch": 69, "duration": 18, "velocity": 64}, {"time": 1074, "pitch": 71, "duration": 6, "velocity": 64}, {"time": 1080, "pitch": 64, "duration": 12, "velocity": 64}, {"time": 1092, "pitch": 69, "duration": 12, "velocity": 64}, {"time": 1104, "pitch": 71, "duration": 6, "velocity": 64}, {"time": 1110, "pitch": 74, "duration": 6, "velocity": 64}, {"time": 1116, "pitch": 64, "duration": 12, "velocity": 64}, {"time": 1140, "pitch": 71, "duration": 6, "velocity": 64}, {"time": 1146, "pitch": 69, "duration": 6, "velocity": 64}, {"time": 1152, "pitch": 64, "duration": 12, "velocity": 64}, {"time": 1164, "pitch": 64, "duration": 24, "velocity": 64}, {"time": 1188, "pitch": 69, "duration": 6, "velocity": 64}, {"time": 1194, "pitch": 71, "duration": 6, "velocity": 64}, {"time": 1200, "pitch": 67, "duration": 48, "velocity": 64}, {"time": 1248, "pitch": 76, "duration": 6, "velocity": 64}, {"time": 1254, "pitch": 79, "duration": 6, "velocity": 64}, {"time": 1260, "pitch": 76, "duration": 24, "velocity": 64}, {"time": 1284, "pitch": 79, "duration": 6, "velocity": 64}, {"time": 1290, "pitch": 76, "duration": 6, "velocity": 64}, {"time": 1296, "pitch": 71, "duration": 12, "velocity": 64}, {"time": 1308, "pitch": 71, "duration": 6, "velocity": 64}, {"time": 1314, "pitch": 69, "duration": 6, "velocity": 64}, {"time": 1320, "pitch": 71, "duration": 18, "velocity": 64}, {"time": 1338, "pitch": 69, "duration": 6, "velocity": 64}, {"time": 1344, "pitch": 71, "duration": 6, "velocity": 64}, {"time": 1350, "pitch": 74, "duration": 6, "velocity": 64}, {"time": 1356, "pitch": 71, "duration": 6, "velocity": 64}, {"time": 1362, "pitch": 69, "duration": 6, "velocity": 64}, {"time": 1368, "pitch": 69, "duration": 12, "velocity": 64}, {"time": 1380, "pitch": 66, "duration": 12, "velocity": 64}, {"time": 1392, "pitch": 69, "duration": 6, "velocity": 64}, {"time": 1398, "pitch": 69, "duration": 6, "velocity": 64}, {"time": 1404, "pitch": 69, "duration": 6, "velocity": 64}, {"time": 1410, "pitch": 69, "duration": 6, "velocity": 64}, {"time": 1416, "pitch": 71, "duration": 6, "velocity": 64}, {"time": 1422, "pitch": 74, "duration": 6, "velocity": 64}, {"time": 1428, "pitch": 71, "duration": 6, "velocity": 64}, {"time": 1434, "pitch": 69, "duration": 6, "velocity": 64}, {"time": 1440, "pitch": 69, "duration": 6, "velocity": 64}, {"time": 1446, "pitch": 71, "duration": 6, "velocity": 64}, {"time": 1452, "pitch": 69, "duration": 6, "velocity": 64}, {"time": 1458, "pitch": 66, "duration": 6, "velocity": 64}, {"time": 1464, "pitch": 71, "duration": 12, "velocity": 64}, {"time": 1476, "pitch": 76, "duration": 24, "velocity": 64}, {"time": 1500, "pitch": 71, "duration": 6, "velocity": 64}, {"time": 1506, "pitch": 69, "duration": 6, "velocity": 64}, {"time": 1512, "pitch": 69, "duration": 12, "velocity": 64}, {"time": 1524, "pitch": 71, "duration": 6, "velocity": 64}, {"time": 1530, "pitch": 69, "duration": 6, "velocity": 64}, {"time": 1536, "pitch": 64, "duration": 12, "velocity": 64}, {"time": 1548, "pitch": 69, "duration": 12, "velocity": 64}, {"time": 1560, "pitch": 71, "duration": 6, "velocity": 64}, {"time": 1566, "pitch": 74, "duration": 6, "velocity": 64}, {"time": 1572, "pitch": 71, "duration": 12, "velocity": 64}, {"time": 1596, "pitch": 69, "duration": 6, "velocity": 64}, {"time": 1602, "pitch": 66, "duration": 6, "velocity": 64}, {"time": 1608, "pitch": 64, "duration": 24, "velocity": 64}, {"time": 1632, "pitch": 69, "duration": 18, "velocity": 64}, {"time": 1650, "pitch": 71, "duration": 6, "velocity": 64}, {"time": 1656, "pitch": 64, "duration": 12, "velocity": 64}, {"time": 1668, "pitch": 69, "duration": 12, "velocity": 64}, {"time": 1680, "pitch": 71, "duration": 6, "velocity": 64}, {"time": 1686, "pitch": 69, "duration": 6, "velocity": 64}, {"time": 1692, "pitch": 64, "duration": 12, "velocity": 64}, {"time": 1716, "pitch": 71, "duration": 6, "velocity": 64}, {"time": 1722, "pitch": 69, "duration": 6, "velocity": 64}, {"time": 1728, "pitch": 64, "duration": 12, "velocity": 64}, {"time": 1740, "pitch": 64, "duration": 24, "velocity": 64}, {"time": 1764, "pitch": 69, "duration": 12, "velocity": 64}, {"time": 1776, "pitch": 67, "duration": 48, "velocity": 64}, {"time": 1824, "pitch": 76, "duration": 6, "velocity": 64}, {"time": 1830, "pitch": 79, "duration": 6, "velocity": 64}, {"time": 1836, "pitch": 76, "duration": 24, "velocity": 64}, {"time": 1860, "pitch": 79, "duration": 6, "velocity": 64}, {"time": 1866, "pitch": 76, "duration": 6, "velocity": 64}, {"time": 1872, "pitch": 71, "duration": 12, "velocity": 64}, {"time": 1884, "pitch": 71, "duration": 6, "velocity": 64}, {"time": 1890, "pitch": 69, "duration": 6, "velocity": 64}, {"time": 1896, "pitch": 71, "duration": 18, "velocity": 64}, {"time": 1914, "pitch": 76, "duration": 6, "velocity": 64}, {"time": 1920, "pitch": 71, "duration": 6, "velocity": 64}, {"time": 1926, "pitch": 73, "duration": 6, "velocity": 64}, {"time": 1932, "pitch": 71, "duration": 6, "velocity": 64}, {"time": 1938, "pitch": 69, "duration": 6, "velocity": 64}, {"time": 1944, "pitch": 69, "duration": 12, "velocity": 64}, {"time": 1956, "pitch": 69, "duration": 12, "velocity": 64}, {"time": 1968, "pitch": 69, "duration": 6, "velocity": 64}, {"time": 1974, "pitch": 69, "duration": 6, "velocity": 64}, {"time": 1980, "pitch": 69, "duration": 6, "velocity": 64}, {"time": 1986, "pitch": 69, "duration": 6, "velocity": 64}, {"time": 1992, "pitch": 71, "duration": 6, "velocity": 64}, {"time": 1998, "pitch": 74, "duration": 6, "velocity": 64}, {"time": 2004, "pitch": 71, "duration": 6, "velocity": 64}, {"time": 2010, "pitch": 69, "duration": 6, "velocity": 64}, {"time": 2016, "pitch": 69, "duration": 6, "velocity": 64}, {"time": 2022, "pitch": 71, "duration": 6, "velocity": 64}, {"time": 2028, "pitch": 69, "duration": 6, "velocity": 64}, {"time": 2034, "pitch": 66, "duration": 6, "velocity": 64}, {"time": 2040, "pitch": 71, "duration": 12, "velocity": 64}, {"time": 2052, "pitch": 76, "duration": 24, "velocity": 64}, {"time": 2076, "pitch": 71, "duration": 6, "velocity": 64}, {"time": 2082, "pitch": 69, "duration": 6, "velocity": 64}, {"time": 2088, "pitch": 69, "duration": 12, "velocity": 64}, {"time": 2100, "pitch": 71, "duration": 6, "velocity": 64}, {"time": 2106, "pitch": 69, "duration": 6, "velocity": 64}, {"time": 2112, "pitch": 64, "duration": 12, "velocity": 64}, {"time": 2124, "pitch": 69, "duration": 12, "velocity": 64}, {"time": 2136, "pitch": 71, "duration": 6, "velocity": 64}, {"time": 2142, "pitch": 74, "duration": 6, "velocity": 64}, {"time": 2148, "pitch": 71, "duration": 12, "velocity": 64}, {"time": 2172, "pitch": 69, "duration": 6, "velocity": 64}, {"time": 2178, "pitch": 66, "duration": 6, "velocity": 64}, {"time": 2184, "pitch": 64, "duration": 24, "velocity": 64}, {"time": 2208, "pitch": 69, "duration": 18, "velocity": 64}, {"time": 2226, "pitch": 71, "duration": 6, "velocity": 64}, {"time": 2232, "pitch": 64, "duration": 12, "velocity": 64}, {"time": 2244, "pitch": 69, "duration": 12, "velocity": 64}, {"time": 2256, "pitch": 64, "duration": 12, "velocity": 64}, {"time": 2268, "pitch": 64, "duration": 12, "velocity": 64}, {"time": 2292, "pitch": 69, "duration": 12, "velocity": 64}, {"time": 2304, "pitch": 64, "duration": 12, "velocity": 64}, {"time": 2316, "pitch": 64, "duration": 24, "velocity": 64}, {"time": 2340, "pitch": 69, "duration": 12, "velocity": 64}, {"time": 2352, "pitch": 67, "duration": 48, "velocity": 64}, {"time": 2400, "pitch": 76, "duration": 6, "velocity": 64}, {"time": 2406, "pitch": 79, "duration": 6, "velocity": 64}, {"time": 2412, "pitch": 76, "duration": 24, "velocity": 64}, {"time": 2436, "pitch": 79, "duration": 6, "velocity": 64}, {"time": 2442, "pitch": 76, "duration": 6, "velocity": 64}, {"time": 2448, "pitch": 71, "duration": 12, "velocity": 64}, {"time": 2460, "pitch": 71, "duration": 6, "velocity": 64}, {"time": 2466, "pitch": 69, "duration": 6, "velocity": 64}, {"time": 2472, "pitch": 71, "duration": 12, "velocity": 64}, {"time": 2484, "pitch": 76, "duration": 24, "velocity": 64}, {"time": 2508, "pitch": 71, "duration": 6, "velocity": 64}, {"time": 2514, "pitch": 69, "duration": 6, "velocity": 64}, {"time": 2520, "pitch": 71, "duration": 6, "velocity": 64}, {"time": 2526, "pitch": 73, "duration": 6, "velocity": 64}, {"time": 2532, "pitch": 69, "duration": 12, "velocity": 64}, {"time": 2544, "pitch": 71, "duration": 18, "velocity": 64}, {"time": 2562, "pitch": 69, "duration": 6, "velocity": 64}, {"time": 2568, "pitch": 69, "duration": 12, "velocity": 64}, {"time": 2580, "pitch": 71, "duration": 6, "velocity": 64}, {"time": 2586, "pitch": 69, "duration": 6, "velocity": 64}, {"time": 2592, "pitch": 71, "duration": 12, "velocity": 64}, {"time": 2604, "pitch": 76, "duration": 24, "velocity": 64}, {"time": 2628, "pitch": 71, "duration": 6, "velocity": 64}, {"time": 2634, "pitch": 69, "duration": 6, "velocity": 64}, {"time": 2640, "pitch": 71, "duration": 12, "velocity": 64}, {"time": 2652, "pitch": 71, "duration": 6, "velocity": 64}, {"time": 2658, "pitch": 69, "duration": 6, "velocity": 64}, {"time": 2664, "pitch": 64, "duration": 12, "velocity": 64}, {"time": 2676, "pitch": 69, "duration": 12, "velocity": 64}, {"time": 2688, "pitch": 71, "duration": 6, "velocity": 64}, {"time": 2694, "pitch": 74, "duration": 6, "velocity": 64}, {"time": 2700, "pitch": 71, "duration": 12, "velocity": 64}, {"time": 2724, "pitch": 69, "duration": 6, "velocity": 64}, {"time": 2730, "pitch": 66, "duration": 6, "velocity": 64}, {"time": 2736, "pitch": 64, "duration": 24, "velocity": 64}, {"time": 2760, "pitch": 69, "duration": 18, "velocity": 64}, {"time": 2778, "pitch": 71, "duration": 6, "velocity": 64}, {"time": 2784, "pitch": 64, "duration": 12, "velocity": 64}, {"time": 2796, "pitch": 69, "duration": 12, "velocity": 64}, {"time": 2808, "pitch": 69, "duration": 6, "velocity": 64}, {"time": 2814, "pitch": 71, "duration": 6, "velocity": 64}, {"time": 2820, "pitch": 64, "duration": 12, "velocity": 64}, {"time": 2844, "pitch": 69, "duration": 12, "velocity": 64}, {"time": 2856, "pitch": 64, "duration": 12, "velocity": 64}, {"time": 2868, "pitch": 64, "duration": 24, "velocity": 64}, {"time": 2892, "pitch": 69, "duration": 12, "velocity": 64}, {"time": 2904, "pitch": 67, "duration": 48, "velocity": 64}, {"time": 2952, "pitch": 76, "duration": 6, "velocity": 64}, {"time": 2958, "pitch": 79, "duration": 6, "velocity": 64}, {"time": 2964, "pitch": 76, "duration": 24, "velocity": 64}, {"time": 2988, "pitch": 79, "duration": 6, "velocity": 64}, {"time": 2994, "pitch": 76, "duration": 6, "velocity": 64}, {"time": 3000, "pitch": 71, "duration": 12, "velocity": 64}, {"time": 3012, "pitch": 71, "duration": 6, "velocity": 64}, {"time": 3018, "pitch": 69, "duration": 6, "velocity": 64}, {"time": 3024, "pitch": 71, "duration": 12, "velocity": 64}, {"time": 3036, "pitch": 76, "duration": 24, "velocity": 64}, {"time": 3060, "pitch": 71, "duration": 6, "velocity": 64}, {"time": 3066, "pitch": 69, "duration": 6, "velocity": 64}, {"time": 3072, "pitch": 71, "duration": 6, "velocity": 64}, {"time": 3078, "pitch": 73, "duration": 6, "velocity": 64}, {"time": 3084, "pitch": 69, "duration": 12, "velocity": 64}, {"time": 3096, "pitch": 71, "duration": 18, "velocity": 64}, {"time": 3114, "pitch": 69, "duration": 6, "velocity": 64}, {"time": 3120, "pitch": 71, "duration": 6, "velocity": 64}, {"time": 3126, "pitch": 76, "duration": 6, "velocity": 64}, {"time": 3132, "pitch": 71, "duration": 6, "velocity": 64}, {"time": 3138, "pitch": 69, "duration": 6, "velocity": 64}, {"time": 3144, "pitch": 71, "duration": 12, "velocity": 64}, {"time": 3156, "pitch": 76, "duration": 24, "velocity": 64}, {"time": 3180, "pitch": 71, "duration": 6, "velocity": 64}, {"time": 3186, "pitch": 69, "duration": 6, "velocity": 64}, {"time": 3192, "pitch": 71, "duration": 12, "velocity": 64}, {"time": 3204, "pitch": 71, "duration": 6, "velocity": 64}, {"time": 3210, "pitch": 69, "duration": 6, "velocity": 64}, {"time": 3216, "pitch": 64, "duration": 12, "velocity": 64}, {"time": 3228, "pitch": 69, "duration": 12, "velocity": 64}, {"time": 3240, "pitch": 71, "duration": 6, "velocity": 64}, {"time": 3246, "pitch": 74, "duration": 6, "velocity": 64}, {"time": 3252, "pitch": 71, "duration": 12, "velocity": 64}, {"time": 3276, "pitch": 69, "duration": 6, "velocity": 64}, {"time": 3282, "pitch": 66, "duration": 6, "velocity": 64}, {"time": 3288, "pitch": 64, "duration": 24, "velocity": 64}, {"time": 3312, "pitch": 69, "duration": 18, "velocity": 64}, {"time": 3330, "pitch": 71, "duration": 6, "velocity": 64}, {"time": 3336, "pitch": 64, "duration": 12, "velocity": 64}, {"time": 3348, "pitch": 69, "duration": 12, "velocity": 64}, {"time": 3360, "pitch": 69, "duration": 12, "velocity": 64}, {"time": 3372, "pitch": 64, "duration": 12, "velocity": 64}, {"time": 3396, "pitch": 69, "duration": 12, "velocity": 64}, {"time": 3408, "pitch": 64, "duration": 12, "velocity": 64}, {"time": 3420, "pitch": 64, "duration": 24, "velocity": 64}, {"time": 3444, "pitch": 69, "duration": 12, "velocity": 64}, {"time": 3456, "pitch": 67, "duration": 48, "velocity": 64}, {"time": 3504, "pitch": 76, "duration": 12, "velocity": 64}, {"time": 3516, "pitch": 76, "duration": 24, "velocity": 64}, {"time": 3540, "pitch": 79, "duration": 6, "velocity": 64}, {"time": 3546, "pitch": 76, "duration": 6, "velocity": 64}, {"time": 3552, "pitch": 71, "duration": 12, "velocity": 64}, {"time": 3564, "pitch": 71, "duration": 6, "velocity": 64}, {"time": 3570, "pitch": 69, "duration": 6, "velocity": 64}, {"time": 3576, "pitch": 71, "duration": 12, "velocity": 64}, {"time": 3588, "pitch": 76, "duration": 24, "velocity": 64}, {"time": 3612, "pitch": 69, "duration": 12, "velocity": 64}, {"time": 3624, "pitch": 71, "duration": 12, "velocity": 64}, {"time": 3636, "pitch": 71, "duration": 6, "velocity": 64}, {"time": 3642, "pitch": 69, "duration": 6, "velocity": 64}, {"time": 3648, "pitch": 71, "duration": 18, "velocity": 64}, {"time": 3666, "pitch": 76, "duration": 6, "velocity": 64}, {"time": 3672, "pitch": 71, "duration": 12, "velocity": 64}, {"time": 3684, "pitch": 71, "duration": 6, "velocity": 64}, {"time": 3690, "pitch": 69, "duration": 6, "velocity": 64}, {"time": 3696, "pitch": 71, "duration": 12, "velocity": 64}, {"time": 3708, "pitch": 71, "duration": 6, "velocity": 64}, {"time": 3714, "pitch": 69, "duration": 6, "velocity": 64}, {"time": 3720, "pitch": 71, "duration": 12, "velocity": 64}, {"time": 3732, "pitch": 76, "duration": 24, "velocity": 64}, {"time": 3756, "pitch": 71, "duration": 6, "velocity": 64}, {"time": 3762, "pitch": 76, "duration": 6, "velocity": 64}, {"time": 3768, "pitch": 71, "duration": 12, "velocity": 64}, {"time": 3780, "pitch": 71, "duration": 6, "velocity": 64}, {"time": 3786, "pitch": 69, "duration": 6, "velocity": 64}, {"time": 3792, "pitch": 64, "duration": 12, "velocity": 64}, {"time": 3804, "pitch": 69, "duration": 12, "velocity": 64}, {"time": 3816, "pitch": 71, "duration": 6, "velocity": 64}, {"time": 3822, "pitch": 74, "duration": 6, "velocity": 64}, {"time": 3828, "pitch": 71, "duration": 12, "velocity": 64}, {"time": 3852, "pitch": 69, "duration": 6, "velocity": 64}, {"time": 3858, "pitch": 66, "duration": 6, "velocity": 64}, {"time": 3864, "pitch": 64, "duration": 24, "velocity": 64}, {"time": 3888, "pitch": 69, "duration": 18, "velocity": 64}, {"time": 3906, "pitch": 71, "duration": 6, "velocity": 64}, {"time": 3912, "pitch": 64, "duration": 12, "velocity": 64}, {"time": 3924, "pitch": 69, "duration": 12, "velocity": 64}, {"time": 3936, "pitch": 69, "duration": 12, "velocity": 64}, {"time": 3948, "pitch": 64, "duration": 12, "velocity": 64}, {"time": 3972, "pitch": 69, "duration": 12, "velocity": 64}, {"time": 3984, "pitch": 64, "duration": 12, "velocity": 64}, {"time": 3996, "pitch": 64, "duration": 24, "velocity": 64}, {"time": 4020, "pitch": 69, "duration": 12, "velocity": 64}, {"time": 4032, "pitch": 67, "duration": 48, "velocity": 64}, {"time": 4080, "pitch": 76, "duration": 6, "velocity": 64}, {"time": 4086, "pitch": 79, "duration": 6, "velocity": 64}, {"time": 4092, "pitch": 76, "duration": 24, "velocity": 64}, {"time": 4116, "pitch": 79, "duration": 6, "velocity": 64}, {"time": 4122, "pitch": 76, "duration": 6, "velocity": 64}, {"time": 4128, "pitch": 71, "duration": 12, "velocity": 64}, {"time": 4140, "pitch": 71, "duration": 6, "velocity": 64}, {"time": 4146, "pitch": 69, "duration": 6, "velocity": 64}, {"time": 4152, "pitch": 71, "duration": 12, "velocity": 64}, {"time": 4164, "pitch": 76, "duration": 24, "velocity": 64}, {"time": 4188, "pitch": 69, "duration": 12, "velocity": 64}, {"time": 4200, "pitch": 71, "duration": 12, "velocity": 64}, {"time": 4212, "pitch": 71, "duration": 6, "velocity": 64}, {"time": 4218, "pitch": 69, "duration": 6, "velocity": 64}, {"time": 4224, "pitch": 69, "duration": 6, "velocity": 64}, {"time": 4230, "pitch": 69, "duration": 6, "velocity": 64}, {"time": 4236, "pitch": 69, "duration": 6, "velocity": 64}, {"time": 4242, "pitch": 69, "duration": 6, "velocity": 64}, {"time": 4248, "pitch": 71, "duration": 6, "velocity": 64}, {"time": 4254, "pitch": 74, "duration": 6, "velocity": 64}, {"time": 4260, "pitch": 71, "duration": 6, "velocity": 64}, {"time": 4266, "pitch": 69, "duration": 6, "velocity": 64}, {"time": 4272, "pitch": 71, "duration": 6, "velocity": 64}, {"time": 4278, "pitch": 73, "duration": 6, "velocity": 64}, {"time": 4284, "pitch": 69, "duration": 12, "velocity": 64}, {"time": 4296, "pitch": 71, "duration": 12, "velocity": 64}, {"time": 4308, "pitch": 76, "duration": 24, "velocity": 64}, {"time": 4332, "pitch": 69, "duration": 12, "velocity": 64}, {"time": 4344, "pitch": 69, "duration": 12, "velocity": 64}, {"time": 4356, "pitch": 71, "duration": 6, "velocity": 64}, {"time": 4362, "pitch": 69, "duration": 6, "velocity": 64}, {"time": 4368, "pitch": 64, "duration": 12, "velocity": 64}, {"time": 4380, "pitch": 69, "duration": 12, "velocity": 64}, {"time": 4392, "pitch": 71, "duration": 6, "velocity": 64}, {"time": 4398, "pitch": 74, "duration": 6, "velocity": 64}, {"time": 4404, "pitch": 71, "duration": 12, "velocity": 64}, {"time": 4428, "pitch": 69, "duration": 6, "velocity": 64}, {"time": 4434, "pitch": 66, "duration": 6, "velocity": 64}, {"time": 4440, "pitch": 64, "duration": 24, "velocity": 64}, {"time": 4464, "pitch": 69, "duration": 18, "velocity": 64}, {"time": 4482, "pitch": 71, "duration": 6, "velocity": 64}, {"time": 4488, "pitch": 64, "duration": 12, "velocity": 64}, {"time": 4500, "pitch": 69, "duration": 12, "velocity": 64}, {"time": 4512, "pitch": 64, "duration": 12, "velocity": 64}, {"time": 4524, "pitch": 64, "duration": 12, "velocity": 64}, {"time": 4548, "pitch": 71, "duration": 6, "velocity": 64}, {"time": 4554, "pitch": 69, "duration": 6, "velocity": 64}, {"time": 4560, "pitch": 64, "duration": 12, "velocity": 64}, {"time": 4572, "pitch": 64, "duration": 24, "velocity": 64}, {"time": 4596, "pitch": 69, "duration": 12, "velocity": 64}, {"time": 4608, "pitch": 67, "duration": 48, "velocity": 64}, {"time": 4656, "pitch": 71, "duration": 12, "velocity": 64}, {"time": 4668, "pitch": 76, "duration": 24, "velocity": 64}, {"time": 4692, "pitch": 79, "duration": 6, "velocity": 64}, {"time": 4698, "pitch": 76, "duration": 6, "velocity": 64}, {"time": 4704, "pitch": 71, "duration": 12, "velocity": 64}, {"time": 4716, "pitch": 71, "duration": 6, "velocity": 64}, {"time": 4722, "pitch": 69, "duration": 6, "velocity": 64}, {"time": 4728, "pitch": 71, "duration": 12, "velocity": 64}, {"time": 4740, "pitch": 76, "duration": 24, "velocity": 64}, {"time": 4764, "pitch": 69, "duration": 12, "velocity": 64}, {"time": 4776, "pitch": 71, "duration": 12, "velocity": 64}, {"time": 4788, "pitch": 71, "duration": 6, "velocity": 64}, {"time": 4794, "pitch": 69, "duration": 6, "velocity": 64}, {"time": 4800, "pitch": 69, "duration": 6, "velocity": 64}, {"time": 4806, "pitch": 69, "duration": 6, "velocity": 64}, {"time": 4812, "pitch": 69, "duration": 6, "velocity": 64}, {"time": 4818, "pitch": 69, "duration": 6, "velocity": 64}, {"time": 4824, "pitch": 71, "duration": 6, "velocity": 64}, {"time": 4830, "pitch": 74, "duration": 6, "velocity": 64}, {"time": 4836, "pitch": 71, "duration": 6, "velocity": 64}, {"time": 4842, "pitch": 69, "duration": 6, "velocity": 64}, {"time": 4848, "pitch": 71, "duration": 6, "velocity": 64}, {"time": 4854, "pitch": 73, "duration": 6, "velocity": 64}, {"time": 4860, "pitch": 69, "duration": 12, "velocity": 64}, {"time": 4872, "pitch": 71, "duration": 12, "velocity": 64}, {"time": 4884, "pitch": 76, "duration": 24, "velocity": 64}, {"time": 4908, "pitch": 69, "duration": 12, "velocity": 64}, {"time": 4920, "pitch": 71, "duration": 12, "velocity": 64}, {"time": 4932, "pitch": 71, "duration": 6, "velocity": 64}, {"time": 4938, "pitch": 69, "duration": 6, "velocity": 64}, {"time": 4944, "pitch": 64, "duration": 12, "velocity": 64}, {"time": 4956, "pitch": 69, "duration": 12, "velocity": 64}, {"time": 4968, "pitch": 71, "duration": 6, "velocity": 64}, {"time": 4974, "pitch": 74, "duration": 6, "velocity": 64}, {"time": 4980, "pitch": 71, "duration": 12, "velocity": 64}, {"time": 5004, "pitch": 69, "duration": 6, "velocity": 64}, {"time": 5010, "pitch": 66, "duration": 6, "velocity": 64}, {"time": 5016, "pitch": 64, "duration": 24, "velocity": 64}, {"time": 5040, "pitch": 71, "duration": 18, "velocity": 64}, {"time": 5058, "pitch": 69, "duration": 6, "velocity": 64}, {"time": 5064, "pitch": 64, "duration": 12, "velocity": 64}, {"time": 5076, "pitch": 69, "duration": 12, "velocity": 64}, {"time": 5088, "pitch": 69, "duration": 6, "velocity": 64}, {"time": 5094, "pitch": 71, "duration": 6, "velocity": 64}, {"time": 5100, "pitch": 64, "duration": 12, "velocity": 64}, {"time": 5124, "pitch": 69, "duration": 6, "velocity": 64}, {"time": 5130, "pitch": 71, "duration": 6, "velocity": 64}, {"time": 5136, "pitch": 64, "duration": 12, "velocity": 64}, {"time": 5148, "pitch": 64, "duration": 24, "velocity": 64}, {"time": 5172, "pitch": 69, "duration": 12, "velocity": 64}, {"time": 5184, "pitch": 67, "duration": 48, "velocity": 64}, {"time": 5232, "pitch": 76, "duration": 12, "velocity": 64}, {"time": 5244, "pitch": 76, "duration": 24, "velocity": 64}, {"time": 5268, "pitch": 79, "duration": 6, "velocity": 64}, {"time": 5274, "pitch": 76, "duration": 6, "velocity": 64}, {"time": 5280, "pitch": 71, "duration": 12, "velocity": 64}, {"time": 5292, "pitch": 71, "duration": 6, "velocity": 64}, {"time": 5298, "pitch": 69, "duration": 6, "velocity": 64}, {"time": 5304, "pitch": 71, "duration": 12, "velocity": 64}, {"time": 5316, "pitch": 76, "duration": 24, "velocity": 64}, {"time": 5340, "pitch": 69, "duration": 12, "velocity": 64}, {"time": 5352, "pitch": 71, "duration": 12, "velocity": 64}, {"time": 5364, "pitch": 71, "duration": 6, "velocity": 64}, {"time": 5370, "pitch": 69, "duration": 6, "velocity": 64}, {"time": 5376, "pitch": 71, "duration": 18, "velocity": 64}, {"time": 5394, "pitch": 69, "duration": 6, "velocity": 64}, {"time": 5400, "pitch": 71, "duration": 6, "velocity": 64}, {"time": 5406, "pitch": 73, "duration": 6, "velocity": 64}, {"time": 5412, "pitch": 69, "duration": 12, "velocity": 64}, {"time": 5424, "pitch": 69, "duration": 6, "velocity": 64}, {"time": 5430, "pitch": 71, "duration": 6, "velocity": 64}, {"time": 5436, "pitch": 69, "duration": 6, "velocity": 64}, {"time": 5442, "pitch": 71, "duration": 6, "velocity": 64}, {"time": 5448, "pitch": 71, "duration": 6, "velocity": 64}, {"time": 5454, "pitch": 73, "duration": 6, "velocity": 64}, {"time": 5460, "pitch": 71, "duration": 6, "velocity": 64}, {"time": 5466, "pitch": 69, "duration": 6, "velocity": 64}, {"time": 5472, "pitch": 71, "duration": 12, "velocity": 64}, {"time": 5484, "pitch": 76, "duration": 24, "velocity": 64}, {"time": 5508, "pitch": 69, "duration": 12, "velocity": 64}, {"time": 5520, "pitch": 71, "duration": 12, "velocity": 64}, {"time": 5532, "pitch": 71, "duration": 6, "velocity": 64}, {"time": 5538, "pitch": 69, "duration": 6, "velocity": 64}, {"time": 5544, "pitch": 64, "duration": 12, "velocity": 64}, {"time": 5556, "pitch": 69, "duration": 12, "velocity": 64}, {"time": 5568, "pitch": 71, "duration": 6, "velocity": 64}, {"time": 5574, "pitch": 74, "duration": 6, "velocity": 64}, {"time": 5580, "pitch": 71, "duration": 12, "velocity": 64}, {"time": 5604, "pitch": 69, "duration": 6, "velocity": 64}, {"time": 5610, "pitch": 66, "duration": 6, "velocity": 64}, {"time": 5616, "pitch": 64, "duration": 24, "velocity": 64}, {"time": 5640, "pitch": 64, "duration": 12, "velocity": 64}, {"time": 5652, "pitch": 69, "duration": 12, "velocity": 64}, {"time": 5664, "pitch": 71, "duration": 6, "velocity": 64}, {"time": 5670, "pitch": 74, "duration": 6, "velocity": 64}, {"time": 5676, "pitch": 71, "duration": 12, "velocity": 64}, {"time": 5700, "pitch": 69, "duration": 6, "velocity": 64}, {"time": 5706, "pitch": 66, "duration": 6, "velocity": 64}, {"time": 5712, "pitch": 64, "duration": 48, "velocity": 64}]}]}