{"metadata": {"schema_version": "0.1", "title": "Zhonghua", "source_format": "abc"}, "resolution": 24, "tempos": [{"time": 0, "qpm": 120.0}], "key_signatures": [{"time": 0, "root": 2, "mode": "major", "fifths": 2}], "time_signatures": [{"time": 0, "numerator": 2, "denominator": 4}], "beats": [{"time": 0, "is_downbeat": true}, {"time": 24, "is_downbeat": false}, {"time": 48, "is_downbeat": true}, {"time": 72, "is_downbeat": false}, {"time": 96, "is_downbeat": true}, {"time": 120, "is_downbeat": false}, {"time": 144, "is_downbeat": true}, {"time": 168, "is_downbeat": false}, {"time": 192, "is_downbeat": true}, {"time": 216, "is_downbeat": false}, {"time": 240, "is_downbeat": true}, {"time": 264, "is_downbeat": false}, {"time": 288, "is_downbeat": true}, {"time": 312, "is_downbeat": true}, {"time": 336, "is_downbeat": false}, {"time": 360, "is_downbeat": true}, {"time": 384, "is_downbeat": false}, {"time": 408, "is_downbeat": true}, {"time": 432, "is_downbeat": false}, {"time": 456, "is_downbeat": true}, {"time": 480, "is_downbeat": false}, {"time": 504, "is_downbeat": true}, {"time": 528, "is_downbeat": false}, {"time": 552, "is_downbeat": true}, {"time": 576, "is_downbeat": false}, {"time": 600, "is_downbeat": true}, {"time": 624, "is_downbeat": false}, {"time": 648, "is_downbeat": true}, {"time": 672, "is_downbeat": true}, {"time": 696, "is_downbeat": false}, {"time": 720, "is_downbeat": true}, {"time": 744, "is_downbeat": false}, {"time": 768, "is_downbeat": true}, {"time": 792, "is_downbeat": false}], "tracks": [{"program": 0, "is_drum": false, "notes": [{"time": 0, "pitch": 74, "duration": 12, "velocity": 64}, {"time": 12, "pitch": 66, "duration": 12, "velocity": 64}, {"time": 24, "pitch": 66, "duration": 6, "velocity": 64}, {"time": 30, "pitch": 69, "duration": 6, "velocity": 64}, {"time": 36, "pitch": 74, "duration": 12, "velocity": 64}, {"time": 48, "pitch": 66, "duration": 12, "velocity": 64}, {"time": 60, "pitch": 69, "duration": 12, "velocity": 64}, {"time": 72, "pitch": 69, "duration": 24, "velocity": 64}, {"time": 96, "pitch": 74, "duration": 12, "velocity": 64}, {"time": 108, "pitch": 71, "duration": 6, "velocity": 64}, {"time": 114, "pitch": 69, "duration": 6, "velocity": 64}, {"time": 120, "pitch": 66, "duration": 12, "velocity": 64}, {"time": 132, "pitch": 69, "duration": 12, "velocity": 64}, {"time": 144, "pitch": 64, "duration": 6, "velocity": 64}, {"time": 150, "pitch": 64, "duration": 6, "velocity": 64}, {"time": 156, "pitch": 66, "duration": 3, "velocity": 64}, {"time": 159, "pitch": 64, "duration": 3, "velocity": 64}, {"time": 162, "pitch": 62, "duration": 6, "velocity": 64}, {"time": 168, "pitch": 64, "duration": 24, "velocity": 64}, {"time": 192, "pitch": 64, "duration": 12, "velocity": 64}, {"time": 204, "pitch": 69, "duration": 12, "velocity": 64}, {"time": 216, "pitch": 69, "duration": 12, "velocity": 64}, {"time": 228, "pitch": 66, "duration": 6, "velocity": 64}, {"time": 234, "pitch": 64, "duration": 6, "velocity": 64}, {"time": 240, "pitch": 62, "duration": 18, "velocity": 64}, {"time": 258, "pitch": 64, "duration": 6, "velocity": 64}, {"time": 264, "pitch": 66, "duration": 24, "velocity": 64}, {"time": 288, "pitch": 76, "duration": 6, "velocity": 64}, {"time": 294, "pitch": 78, "duration": 6, "velocity": 64}, {"time": 300, "pitch": 76, "duration": 6, "velocity": 64}, {"time": 306, "pitch": 74, "duration": 6, "velocity": 64}, {"time": 312, "pitch": 71, "duration": 12, "velocity": 64}, {"time": 324, "pitch": 71, "duration": 24, "velocity": 64}, {"time": 348, "pitch": 74, "duration": 6, "velocity": 64}, {"time": 354, "pitch": 76, "duration": 6, "velocity": 64}, {"time": 360, "pitch": 74, "duration": 12, "velocity": 64}, {"time": 372, "pitch": 74, "duration": 12, "velocity": 64}, {"time": 384, "pitch": 78, "duration": 12, "velocity": 64}, {"time": 396, "pitch": 71, "duration": 12, "velocity": 64}, {"time": 408, "pitch": 69, "duration": 48, "velocity": 64}, {"time": 456, "pitch": 66, "duration": 12, "velocity": 64}, {"time": 468, "pitch": 62, "duration": 12, "velocity": 64}, {"time": 480, "pitch": 64, "duration": 24, "velocity": 64}, {"time": 504, "pitch": 62, "duration": 12, "velocity": 64}, {"time": 516, "pitch": 66, "duration": 12, "velocity": 64}, {"time": 528, "pitch": 64, "duration": 24, "velocity": 64}, {"time": 552, "pitch": 64, "duration": 12, "velocity": 64}, {"time": 564, "pitch": 69, "duration": 12, "velocity": 64}, {"time": 576, "pitch": 69, "duration": 12, "velocity": 64}, {"time": 588, "pitch": 66, "duration": 6, "velocity": 64}, {"time": 594, "pitch": 64, "duration": 6, "velocity": 64}, {"time": 600, "pitch": 62, "duration": 12, "velocity": 64}, {"time": 612, "pitch": 64, "duration": 12, "velocity": 64}, {"time": 624, "pitch": 66, "duration": 24, "velocity": 64}, {"time": 648, "pitch": 76, "duration": 6, "velocity": 64}, {"time": 654, "pitch": 78, "duration": 6, "velocity": 64}, {"time": 660, "pitch": 76, "duration": 6, "velocity": 64}, {"time": 666, "pitch": 74, "duration": 6, "velocity": 64}, {"time": 672, "pitch": 71, "duration": 12, "velocity": 64}, {"time": 684, "pitch": 71, "duration": 24, "velocity": 64}, {"time": 708, "pitch": 74, "duration": 6, "velocity": 64}, {"time": 714, "pitch": 76, "duration": 6, "velocity": 64}, {"time": 720, "pitch": 74, "duration": 12, "velocity": 64}, {"time": 732, "pitch": 74, "duration": 12, "velocity": 64}, {"time": 744, "pitch": 78, "duration": 12, "velocity": 64}, {"time": 756, "pitch": 71, "duration": 12, "velocity": 64}, {"time": 768, "pitch": 69, "duration": 48, "velocity": 64}]}]}