{"metadata": {"schema_version": "0.1", "title": "Lang zai gaoshan han yi sheng", "source_format": "abc"}, "resolution": 24, "tempos": [{"time": 0, "qpm": 120.0}], "key_signatures": [{"time": 0, "root": 9, "mode": "major", "fifths": 3}], "time_signatures": [{"time": 0, "numerator": 4, "denominator": 4}], "beats": [{"time": 0, "is_downbeat": true}, {"time": 24, "is_downbeat": false}, {"time": 48, "is_downbeat": false}, {"time": 72, "is_downbeat": false}, {"time": 96, "is_downbeat": true}, {"time": 120, "is_downbeat": false}, {"time": 144, "is_downbeat": false}, {"time": 168, "is_downbeat": false}, {"time": 192, "is_downbeat": true}, {"time": 216, "is_downbeat": false}, {"time": 240, "is_downbeat": false}, {"time": 264, "is_downbeat": false}, {"time": 288, "is_downbeat": true}, {"time": 312, "is_downbeat": false}, {"time": 336, "is_downbeat": false}, {"time": 360, "is_downbeat": false}, {"time": 384, "is_downbeat": true}, {"time": 408, "is_downbeat": false}, {"time": 432, "is_downbeat": false}, {"time": 456, "is_downbeat": false}, {"time": 480, "is_downbeat": true}, {"time": 504, "is_downbeat": false}, {"time": 528, "is_downbeat": false}, {"time": 552, "is_downbeat": false}, {"time": 576, "is_downbeat": true}, {"time": 600, "is_downbeat": false}, {"time": 624, "is_downbeat": false}, {"time": 648, "is_downbeat": false}, {"time": 672, "is_downbeat": true}, {"time": 696, "is_downbeat": false}, {"time": 720, "is_downbeat": false}, {"time": 744, "is_downbeat": false}, {"time": 768, "is_downbeat": true}, {"time": 792, "is_downbeat": false}, {"time": 816, "is_downbeat": false}, {"time": 840, "is_downbeat": false}, {"time": 864, "is_downbeat": true}, {"time": 888, "is_downbeat": false}, {"time": 912, "is_downbeat": false}, {"time": 936, "is_downbeat": false}, {"time": 960, "is_downbeat": true}, {"time": 984, "is_downbeat": false}, {"time": 1008, "is_downbeat": false}, {"time": 1032, "is_downbeat": false}, {"time": 1056, "is_downbeat": true}, {"time": 1080, "is_downbeat": false}, {"time": 1104, "is_downbeat": false}, {"time": 1128, "is_downbeat": false}, {"time": 1152, "is_downbeat": true}, {"time": 1176, "is_downbeat": false}, {"time": 1200, "is_downbeat": false}, {"time": 1224, "is_downbeat": false}, {"time": 1248, "is_downbeat": true}, {"time": 1272, "is_downbeat": false}, {"time": 1296, "is_downbeat": false}, {"time": 1320, "is_downbeat": false}, {"time": 1344, "is_downbeat": true}, {"time": 1368, "is_downbeat": false}, {"time": 1392, "is_downbeat": false}, {"time": 1416, "is_downbeat": false}, {"time": 1440, "is_downbeat": true}, {"time": 1464, "is_downbeat": false}, {"time": 1488, "is_downbeat": false}, {"time": 1512, "is_downbeat": false}], "tracks": [{"program": 0, "is_drum": false, "notes": [{"time": 0, "pitch": 83, "duration": 12, "velocity": 64}, {"time": 12, "pitch": 76, "duration": 12, "velocity": 64}, {"time": 24, "pitch": 76, "duration": 12, "velocity": 64}, {"time": 36, "pitch": 83, "duration": 12, "velocity": 64}, {"time": 48, "pitch": 76, "duration": 24, "velocity": 64}, {"time": 72, "pitch": 76, "duration": 24, "velocity": 64}, {"time": 96, "pitch": 76, "duration": 6, "velocity": 64}, {"time": 102, "pitch": 73, "duration": 6, "velocity": 64}, {"time": 108, "pitch": 83, "duration": 12, "velocity": 64}, {"time": 120, "pitch": 81, "duration": 12, "velocity": 64}, {"time": 132, "pitch": 83, "duration": 12, "velocity": 64}, {"time": 144, "pitch": 81, "duration": 120, "velocity": 64}, {"time": 264, "pitch": 83, "duration": 12, "velocity": 64}, {"time": 288, "pitch": 83, "duration": 12, "velocity": 64}, {"time": 300, "pitch": 76, "duration": 12, "velocity": 64}, {"time": 312, "pitch": 76, "duration": 12, "velocity": 64}, {"time": 324, "pitch": 83, "duration": 12, "velocity": 64}, {"time": 336, "pitch": 81, "duration": 24, "velocity": 64}, {"time": 360, "pitch": 83, "duration": 24, "velocity": 64}, {"time": 384, "pitch": 78, "duration": 18, "velocity": 64}, {"time": 402, "pitch": 76, "duration": 6, "velocity": 64}, {"time": 408, "pitch": 75, "duration": 12, "velocity": 64}, {"time": 420, "pitch": 76, "duration": 156, "velocity": 64}, {"time": 576, "pitch": 83, "duration": 12, "velocity": 64}, {"time": 588, "pitch": 76, "duration": 12, "velocity": 64}, {"time": 600, "pitch": 83, "duration": 24, "velocity": 64}, {"time": 624, "pitch": 81, "duration": 24, "velocity": 64}, {"time": 648, "pitch": 76, "duration": 24, "velocity": 64}, {"time": 672, "pitch": 81, "duration": 72, "velocity": 64}, {"time": 768, "pitch": 81, "duration": 24, "velocity": 64}, {"time": 792, "pitch": 83, "duration": 24, "velocity": 64}, {"time": 816, "pitch": 76, "duration": 24, "velocity": 64}, {"time": 840, "pitch": 76, "duration": 12, "velocity": 64}, {"time": 852, "pitch": 76, "duration": 12, "velocity": 64}, {"time": 864, "pitch": 83, "duration": 12, "velocity": 64}, {"time": 876, "pitch": 76, "duration": 12, "velocity": 64}, {"time": 888, "pitch": 83, "duration": 24, "velocity": 64}, {"time": 912, "pitch": 76, "duration": 6, "velocity": 64}, {"time": 918, "pitch": 73, "duration": 6, "velocity": 64}, {"time": 924, "pitch": 83, "duration": 12, "velocity": 64}, {"time": 936, "pitch": 81, "duration": 96, "velocity": 64}, {"time": 1032, "pitch": 83, "duration": 12, "velocity": 64}, {"time": 1056, "pitch": 81, "duration": 24, "velocity": 64}, {"time": 1080, "pitch": 83, "duration": 24, "velocity": 64}, {"time": 1104, "pitch": 76, "duration": 24, "velocity": 64}, {"time": 1128, "pitch": 76, "duration": 12, "velocity": 64}, {"time": 1140, "pitch": 83, "duration": 12, "velocity": 64}, {"time": 1152, "pitch": 78, "duration": 18, "velocity": 64}, {"time": 1170, "pitch": 76, "duration": 6, "velocity": 64}, {"time": 1176, "pitch": 75, "duration": 12, "velocity": 64}, {"time": 1188, "pitch": 76, "duration": 156, "velocity": 64}, {"time": 1344, "pitch": 83, "duration": 12, "velocity": 64}, {"time": 1356, "pitch": 76, "duration": 12, "velocity": 64}, {"time": 1368, "pitch": 83, "duration": 24, "velocity": 64}, {"time": 1392, "pitch": 81, "duration": 24, "velocity": 64}, {"time": 1416, "pitch": 76, "duration": 24, "velocity": 64}, {"time": 1440, "pitch": 81, "duration": 96, "velocity": 64}]}]}