{"metadata": {"schema_version": "0.1", "title": "Siji quanlang", "source_format": "abc"}, "resolution": 24, "tempos": [{"time": 0, "qpm": 120.0}], "key_signatures": [{"time": 0, "root": 2, "mode": "major", "fifths": 2}], "time_signatures": [{"time": 0, "numerator": 2, "denominator": 4}], "beats": [{"time": 0, "is_downbeat": true}, {"time": 24, "is_downbeat": false}, {"time": 48, "is_downbeat": true}, {"time": 72, "is_downbeat": false}, {"time": 96, "is_downbeat": true}, {"time": 120, "is_downbeat": false}, {"time": 144, "is_downbeat": true}, {"time": 168, "is_downbeat": false}, {"time": 192, "is_downbeat": true}, {"time": 216, "is_downbeat": false}, {"time": 240, "is_downbeat": true}, {"time": 264, "is_downbeat": false}, {"time": 288, "is_downbeat": true}, {"time": 312, "is_downbeat": false}, {"time": 336, "is_downbeat": true}, {"time": 360, "is_downbeat": false}, {"time": 384, "is_downbeat": true}, {"time": 408, "is_downbeat": false}, {"time": 432, "is_downbeat": true}, {"time": 456, "is_downbeat": false}, {"time": 480, "is_downbeat": true}, {"time": 504, "is_downbeat": false}, {"time": 528, "is_downbeat": true}, {"time": 552, "is_downbeat": false}, {"time": 576, "is_downbeat": true}, {"time": 600, "is_downbeat": false}, {"time": 624, "is_downbeat": true}, {"time": 648, "is_downbeat": false}, {"time": 672, "is_downbeat": true}, {"time": 696, "is_downbeat": false}, {"time": 720, "is_downbeat": true}, {"time": 744, "is_downbeat": false}, {"time": 768, "is_downbeat": true}, {"time": 792, "is_downbeat": false}, {"time": 816, "is_downbeat": true}, {"time": 840, "is_downbeat": false}, {"time": 864, "is_downbeat": true}, {"time": 888, "is_downbeat": false}, {"time": 912, "is_downbeat": true}, {"time": 936, "is_downbeat": false}, {"time": 960, "is_downbeat": true}, {"time": 984, "is_downbeat": false}, {"time": 1008, "is_downbeat": true}, {"time": 1032, "is_downbeat": false}, {"time": 1056, "is_downbeat": true}, {"time": 1080, "is_downbeat": false}, {"time": 1104, "is_downbeat": true}, {"time": 1128, "is_downbeat": false}, {"time": 1152, "is_downbeat": true}, {"time": 1176, "is_downbeat": false}, {"time": 1200, "is_downbeat": true}, {"time": 1224, "is_downbeat": false}, {"time": 1248, "is_downbeat": true}, {"time": 1272, "is_downbeat": false}, {"time": 1296, "is_downbeat": true}, {"time": 1320, "is_downbeat": false}, {"time": 1344, "is_downbeat": true}, {"time": 1368, "is_downbeat": false}, {"time": 1392, "is_downbeat": true}, {"time": 1416, "is_downbeat": false}, {"time": 1440, "is_downbeat": true}, {"time": 1464, "is_downbeat": false}, {"time": 1488, "is_downbeat": true}, {"time": 1512, "is_downbeat": false}, {"time": 1536, "is_downbeat": true}, {"time": 1560, "is_downbeat": false}, {"time": 1584, "is_downbeat": true}, {"time": 1608, "is_downbeat": false}, {"time": 1632, "is_downbeat": true}, {"time": 1656, "is_downbeat": false}, {"time": 1680, "is_downbeat": true}, {"time": 1704, "is_downbeat": false}, {"time": 1728, "is_downbeat": true}, {"time": 1752, "is_downbeat": false}, {"time": 1776, "is_downbeat": true}, {"time": 1800, "is_downbeat": false}, {"time": 1824, "is_downbeat": true}, {"time": 1848, "is_downbeat": false}, {"time": 1872, "is_downbeat": true}, {"time": 1896, "is_downbeat": false}, {"time": 1920, "is_downbeat": true}, {"time": 1944, "is_downbeat": false}, {"time": 1968, "is_downbeat": true}, {"time": 1992, "is_downbeat": false}, {"time": 2016, "is_downbeat": true}, {"time": 2040, "is_downbeat": false}, {"time": 2064, "is_downbeat": true}, {"time": 2088, "is_downbeat": false}, {"time": 2112, "is_downbeat": true}, {"time": 2136, "is_downbeat": false}], "tracks": [{"program": 0, "is_drum": false, "notes": [{"time": 12, "pitch": 76, "duration": 6, "velocity": 64}, {"time": 18, "pitch": 74, "duration": 6, "velocity": 64}, {"time": 24, "pitch": 69, "duration": 12, "velocity": 64}, {"time": 36, "pitch": 69, "duration": 12, "velocity": 64}, {"time": 48, "pitch": 69, "duration": 12, "velocity": 64}, {"time": 60, "pitch": 66, "duration": 12, "velocity": 64}, {"time": 84, "pitch": 76, "duration": 6, "velocity": 64}, {"time": 90, "pitch": 74, "duration": 6, "velocity": 64}, {"time": 96, "pitch": 74, "duration": 12, "velocity": 64}, {"time": 108, "pitch": 76, "duration": 24, "velocity": 64}, {"time": 132, "pitch": 74, "duration": 12, "velocity": 64}, {"time": 144, "pitch": 74, "duration": 60, "velocity": 64}, {"time": 204, "pitch": 76, "duration": 6, "velocity": 64}, {"time": 210, "pitch": 74, "duration": 6, "velocity": 64}, {"time": 216, "pitch": 76, "duration": 12, "velocity": 64}, {"time": 228, "pitch": 74, "duration": 6, "velocity": 64}, {"time": 234, "pitch": 71, "duration": 6, "velocity": 64}, {"time": 246, "pitch": 66, "duration": 6, "velocity": 64}, {"time": 252, "pitch": 66, "duration": 6, "velocity": 64}, {"time": 258, "pitch": 69, "duration": 6, "velocity": 64}, {"time": 264, "pitch": 69, "duration": 6, "velocity": 64}, {"time": 270, "pitch": 74, "duration": 6, "velocity": 64}, {"time": 276, "pitch": 66, "duration": 24, "velocity": 64}, {"time": 300, "pitch": 69, "duration": 6, "velocity": 64}, {"time": 306, "pitch": 71, "duration": 6, "velocity": 64}, {"time": 312, "pitch": 69, "duration": 6, "velocity": 64}, {"time": 318, "pitch": 74, "duration": 6, "velocity": 64}, {"time": 324, "pitch": 69, "duration": 18, "velocity": 64}, {"time": 342, "pitch": 71, "duration": 6, "velocity": 64}, {"time": 348, "pitch": 66, "duration": 12, "velocity": 64}, {"time": 360, "pitch": 62, "duration": 72, "velocity": 64}, {"time": 438, "pitch": 74, "duration": 6, "velocity": 64}, {"time": 444, "pitch": 78, "duration": 6, "velocity": 64}, {"time": 450, "pitch": 76, "duration": 6, "velocity": 64}, {"time": 456, "pitch": 74, "duration": 9, "velocity": 64}, {"time": 465, "pitch": 76, "duration": 3, "velocity": 64}, {"time": 468, "pitch": 74, "duration": 6, "velocity": 64}, {"time": 474, "pitch": 76, "duration": 6, "velocity": 64}, {"time": 480, "pitch": 76, "duration": 24, "velocity": 64}, {"time": 504, "pitch": 74, "duration": 6, "velocity": 64}, {"time": 510, "pitch": 76, "duration": 6, "velocity": 64}, {"time": 516, "pitch": 76, "duration": 12, "velocity": 64}, {"time": 528, "pitch": 74, "duration": 36, "velocity": 64}, {"time": 564, "pitch": 76, "duration": 12, "velocity": 64}, {"time": 576, "pitch": 76, "duration": 6, "velocity": 64}, {"time": 582, "pitch": 78, "duration": 6, "velocity": 64}, {"time": 588, "pitch": 74, "duration": 12, "velocity": 64}, {"time": 600, "pitch": 69, "duration": 12, "velocity": 64}, {"time": 612, "pitch": 69, "duration": 6, "velocity": 64}, {"time": 618, "pitch": 66, "duration": 6, "velocity": 64}, {"time": 648, "pitch": 69, "duration": 6, "velocity": 64}, {"time": 654, "pitch": 74, "duration": 6, "velocity": 64}, {"time": 660, "pitch": 69, "duration": 6, "velocity": 64}, {"time": 666, "pitch": 66, "duration": 6, "velocity": 64}, {"time": 672, "pitch": 69, "duration": 6, "velocity": 64}, {"time": 678, "pitch": 66, "duration": 18, "velocity": 64}, {"time": 696, "pitch": 69, "duration": 6, "velocity": 64}, {"time": 702, "pitch": 69, "duration": 6, "velocity": 64}, {"time": 708, "pitch": 69, "duration": 6, "velocity": 64}, {"time": 714, "pitch": 76, "duration": 6, "velocity": 64}, {"time": 720, "pitch": 74, "duration": 60, "velocity": 64}, {"time": 780, "pitch": 76, "duration": 12, "velocity": 64}, {"time": 804, "pitch": 66, "duration": 6, "velocity": 64}, {"time": 810, "pitch": 69, "duration": 6, "velocity": 64}, {"time": 816, "pitch": 69, "duration": 6, "velocity": 64}, {"time": 822, "pitch": 71, "duration": 6, "velocity": 64}, {"time": 828, "pitch": 69, "duration": 12, "velocity": 64}, {"time": 840, "pitch": 69, "duration": 12, "velocity": 64}, {"time": 852, "pitch": 69, "duration": 12, "velocity": 64}, {"time": 864, "pitch": 66, "duration": 12, "velocity": 64}, {"time": 876, "pitch": 62, "duration": 24, "velocity": 64}, {"time": 900, "pitch": 66, "duration": 12, "velocity": 64}, {"time": 912, "pitch": 69, "duration": 12, "velocity": 64}, {"time": 924, "pitch": 66, "duration": 24, "velocity": 64}, {"time": 948, "pitch": 66, "duration": 12, "velocity": 64}, {"time": 960, "pitch": 69, "duration": 24, "velocity": 64}, {"time": 984, "pitch": 69, "duration": 12, "velocity": 64}, {"time": 996, "pitch": 69, "duration": 6, "velocity": 64}, {"time": 1002, "pitch": 66, "duration": 6, "velocity": 64}, {"time": 1008, "pitch": 66, "duration": 12, "velocity": 64}, {"time": 1020, "pitch": 64, "duration": 6, "velocity": 64}, {"time": 1026, "pitch": 66, "duration": 6, "velocity": 64}, {"time": 1032, "pitch": 62, "duration": 72, "velocity": 64}, {"time": 1128, "pitch": 76, "duration": 6, "velocity": 64}, {"time": 1134, "pitch": 74, "duration": 6, "velocity": 64}, {"time": 1140, "pitch": 74, "duration": 6, "velocity": 64}, {"time": 1146, "pitch": 76, "duration": 6, "velocity": 64}, {"time": 1152, "pitch": 76, "duration": 24, "velocity": 64}, {"time": 1176, "pitch": 76, "duration": 6, "velocity": 64}, {"time": 1182, "pitch": 74, "duration": 6, "velocity": 64}, {"time": 1188, "pitch": 74, "duration": 6, "velocity": 64}, {"time": 1194, "pitch": 76, "duration": 6, "velocity": 64}, {"time": 1200, "pitch": 76, "duration": 24, "velocity": 64}, {"time": 1224, "pitch": 76, "duration": 6, "velocity": 64}, {"time": 1230, "pitch": 74, "duration": 6, "velocity": 64}, {"time": 1236, "pitch": 74, "duration": 72, "velocity": 64}, {"time": 1308, "pitch": 76, "duration": 6, "velocity": 64}, {"time": 1314, "pitch": 74, "duration": 6, "velocity": 64}, {"time": 1320, "pitch": 76, "duration": 12, "velocity": 64}, {"time": 1332, "pitch": 74, "duration": 6, "velocity": 64}, {"time": 1338, "pitch": 71, "duration": 6, "velocity": 64}, {"time": 1350, "pitch": 66, "duration": 6, "velocity": 64}, {"time": 1356, "pitch": 66, "duration": 6, "velocity": 64}, {"time": 1362, "pitch": 69, "duration": 6, "velocity": 64}, {"time": 1368, "pitch": 69, "duration": 6, "velocity": 64}, {"time": 1374, "pitch": 74, "duration": 6, "velocity": 64}, {"time": 1380, "pitch": 66, "duration": 24, "velocity": 64}, {"time": 1404, "pitch": 69, "duration": 6, "velocity": 64}, {"time": 1410, "pitch": 71, "duration": 6, "velocity": 64}, {"time": 1416, "pitch": 69, "duration": 6, "velocity": 64}, {"time": 1422, "pitch": 74, "duration": 6, "velocity": 64}, {"time": 1428, "pitch": 69, "duration": 18, "velocity": 64}, {"time": 1446, "pitch": 71, "duration": 6, "velocity": 64}, {"time": 1452, "pitch": 66, "duration": 12, "velocity": 64}, {"time": 1464, "pitch": 62, "duration": 72, "velocity": 64}, {"time": 1548, "pitch": 74, "duration": 6, "velocity": 64}, {"time": 1554, "pitch": 76, "duration": 6, "velocity": 64}, {"time": 1560, "pitch": 74, "duration": 6, "velocity": 64}, {"time": 1566, "pitch": 76, "duration": 6, "velocity": 64}, {"time": 1572, "pitch": 76, "duration": 12, "velocity": 64}, {"time": 1584, "pitch": 76, "duration": 24, "velocity": 64}, {"time": 1608, "pitch": 74, "duration": 30, "velocity": 64}, {"time": 1638, "pitch": 71, "duration": 6, "velocity": 64}, {"time": 1644, "pitch": 76, "duration": 12, "velocity": 64}, {"time": 1656, "pitch": 76, "duration": 12, "velocity": 64}, {"time": 1668, "pitch": 76, "duration": 6, "velocity": 64}, {"time": 1674, "pitch": 78, "duration": 6, "velocity": 64}, {"time": 1680, "pitch": 69, "duration": 12, "velocity": 64}, {"time": 1692, "pitch": 69, "duration": 6, "velocity": 64}, {"time": 1698, "pitch": 66, "duration": 6, "velocity": 64}, {"time": 1752, "pitch": 69, "duration": 6, "velocity": 64}, {"time": 1758, "pitch": 66, "duration": 6, "velocity": 64}, {"time": 1764, "pitch": 69, "duration": 6, "velocity": 64}, {"time": 1770, "pitch": 66, "duration": 6, "velocity": 64}, {"time": 1776, "pitch": 69, "duration": 6, "velocity": 64}, {"time": 1782, "pitch": 66, "duration": 18, "velocity": 64}, {"time": 1800, "pitch": 69, "duration": 6, "velocity": 64}, {"time": 1806, "pitch": 69, "duration": 6, "velocity": 64}, {"time": 1812, "pitch": 69, "duration": 6, "velocity": 64}, {"time": 1818, "pitch": 76, "duration": 6, "velocity": 64}, {"time": 1824, "pitch": 74, "duration": 60, "velocity": 64}, {"time": 1884, "pitch": 76, "duration": 12, "velocity": 64}, {"time": 1896, "pitch": 69, "duration": 6, "velocity": 64}, {"time": 1902, "pitch": 69, "duration": 6, "velocity": 64}, {"time": 1908, "pitch": 62, "duration": 6, "velocity": 64}, {"time": 1914, "pitch": 66, "duration": 6, "velocity": 64}, {"time": 1920, "pitch": 62, "duration": 6, "velocity": 64}, {"time": 1926, "pitch": 64, "duration": 6, "velocity": 64}, {"time": 1932, "pitch": 62, "duration": 24, "velocity": 64}, {"time": 1956, "pitch": 66, "duration": 12, "velocity": 64}, {"time": 1968, "pitch": 69, "duration": 4, "velocity": 64}, {"time": 1972, "pitch": 66, "duration": 4, "velocity": 64}, {"time": 1976, "pitch": 62, "duration": 4, "velocity": 64}, {"time": 1980, "pitch": 66, "duration": 24, "velocity": 64}, {"time": 2004, "pitch": 69, "duration": 12, "velocity": 64}, {"time": 2016, "pitch": 74, "duration": 24, "velocity": 64}, {"time": 2040, "pitch": 69, "duration": 18, "velocity": 64}, {"time": 2058, "pitch": 66, "duration": 6, "velocity": 64}, {"time": 2064, "pitch": 66, "duration": 12, "velocity": 64}, {"time": 2076, "pitch": 64, "duration": 12, "velocity": 64}, {"time": 2088, "pitch": 62, "duration": 72, "velocity": 64}]}]}