{"metadata": {"schema_version": "0.1", "title": "Cha tian ge", "source_format": "abc"}, "resolution": 24, "tempos": [{"time": 0, "qpm": 120.0}], "key_signatures": [{"time": 0, "root": 4, "mode": "major", "fifths": 4}], "time_signatures": [{"time": 0, "numerator": 4, "denominator": 4}, {"time": 168, "numerator": 3, "denominator": 4}, {"time": 288, "numerator": 5, "denominator": 4}, {"time": 792, "numerator": 5, "denominator": 4}, {"time": 1008, "numerator": 3, "denominator": 2}, {"time": 1392, "numerator": 1, "denominator": 4}, {"time": 1512, "numerator": 5, "denominator": 4}, {"time": 1968, "numerator": 1, "denominator": 4}, {"time": 2088, "numerator": 5, "denominator": 4}, {"time": 2592, "numerator": 5, "denominator": 4}, {"time": 2808, "numerator": 3, "denominator": 2}, {"time": 2952, "numerator": 2, "denominator": 4}, {"time": 3000, "numerator": 1, "denominator": 4}], "beats": [{"time": 0, "is_downbeat": true}, {"time": 24, "is_downbeat": true}, {"time": 48, "is_downbeat": false}, {"time": 72, "is_downbeat": true}, {"time": 96, "is_downbeat": false}, {"time": 120, "is_downbeat": true}, {"time": 144, "is_downbeat": false}, {"time": 168, "is_downbeat": true}, {"time": 192, "is_downbeat": false}, {"time": 216, "is_downbeat": false}, {"time": 240, "is_downbeat": true}, {"time": 264, "is_downbeat": false}, {"time": 288, "is_downbeat": true}, {"time": 312, "is_downbeat": false}, {"time": 336, "is_downbeat": false}, {"time": 360, "is_downbeat": false}, {"time": 384, "is_downbeat": false}, {"time": 408, "is_downbeat": true}, {"time": 432, "is_downbeat": false}, {"time": 456, "is_downbeat": true}, {"time": 480, "is_downbeat": false}, {"time": 504, "is_downbeat": true}, {"time": 528, "is_downbeat": false}, {"time": 552, "is_downbeat": true}, {"time": 576, "is_downbeat": false}, {"time": 600, "is_downbeat": true}, {"time": 624, "is_downbeat": false}, {"time": 648, "is_downbeat": true}, {"time": 672, "is_downbeat": false}, {"time": 696, "is_downbeat": true}, {"time": 720, "is_downbeat": false}, {"time": 744, "is_downbeat": true}, {"time": 768, "is_downbeat": false}, {"time": 792, "is_downbeat": true}, {"time": 840, "is_downbeat": false}, {"time": 888, "is_downbeat": false}, {"time": 912, "is_downbeat": true}, {"time": 960, "is_downbeat": true}, {"time": 1008, "is_downbeat": true}, {"time": 1032, "is_downbeat": true}, {"time": 1056, "is_downbeat": true}, {"time": 1080, "is_downbeat": true}, {"time": 1104, "is_downbeat": true}, {"time": 1128, "is_downbeat": true}, {"time": 1152, "is_downbeat": true}, {"time": 1176, "is_downbeat": true}, {"time": 1200, "is_downbeat": true}, {"time": 1224, "is_downbeat": true}, {"time": 1248, "is_downbeat": true}, {"time": 1272, "is_downbeat": true}, {"time": 1296, "is_downbeat": true}, {"time": 1320, "is_downbeat": true}, {"time": 1344, "is_downbeat": true}, {"time": 1368, "is_downbeat": true}, {"time": 1392, "is_downbeat": true}, {"time": 1416, "is_downbeat": true}, {"time": 1440, "is_downbeat": false}, {"time": 1464, "is_downbeat": true}, {"time": 1488, "is_downbeat": false}, {"time": 1512, "is_downbeat": true}, {"time": 1536, "is_downbeat": true}, {"time": 1560, "is_downbeat": true}, {"time": 1584, "is_downbeat": true}, {"time": 1608, "is_downbeat": true}, {"time": 1632, "is_downbeat": true}, {"time": 1656, "is_downbeat": true}, {"time": 1680, "is_downbeat": true}, {"time": 1704, "is_downbeat": true}, {"time": 1728, "is_downbeat": true}, {"time": 1752, "is_downbeat": true}, {"time": 1776, "is_downbeat": true}, {"time": 1800, "is_downbeat": true}, {"time": 1824, "is_downbeat": true}, {"time": 1848, "is_downbeat": true}, {"time": 1872, "is_downbeat": true}, {"time": 1896, "is_downbeat": true}, {"time": 1920, "is_downbeat": true}, {"time": 1944, "is_downbeat": true}, {"time": 1968, "is_downbeat": true}, {"time": 1992, "is_downbeat": true}, {"time": 2016, "is_downbeat": false}, {"time": 2040, "is_downbeat": true}, {"time": 2064, "is_downbeat": false}, {"time": 2088, "is_downbeat": true}, {"time": 2112, "is_downbeat": false}, {"time": 2136, "is_downbeat": false}, {"time": 2160, "is_downbeat": false}, {"time": 2184, "is_downbeat": false}, {"time": 2208, "is_downbeat": true}, {"time": 2232, "is_downbeat": false}, {"time": 2256, "is_downbeat": true}, {"time": 2280, "is_downbeat": false}, {"time": 2304, "is_downbeat": true}, {"time": 2328, "is_downbeat": false}, {"time": 2352, "is_downbeat": true}, {"time": 2376, "is_downbeat": false}, {"time": 2400, "is_downbeat": true}, {"time": 2424, "is_downbeat": false}, {"time": 2448, "is_downbeat": true}, {"time": 2472, "is_downbeat": false}, {"time": 2496, "is_downbeat": true}, {"time": 2520, "is_downbeat": false}, {"time": 2544, "is_downbeat": true}, {"time": 2568, "is_downbeat": false}, {"time": 2592, "is_downbeat": true}, {"time": 2640, "is_downbeat": false}, {"time": 2688, "is_downbeat": false}, {"time": 2712, "is_downbeat": true}, {"time": 2760, "is_downbeat": true}, {"time": 2808, "is_downbeat": true}, {"time": 2832, "is_downbeat": false}, {"time": 2856, "is_downbeat": true}, {"time": 2880, "is_downbeat": false}, {"time": 2904, "is_downbeat": true}, {"time": 2928, "is_downbeat": false}, {"time": 2952, "is_downbeat": true}, {"time": 2976, "is_downbeat": true}, {"time": 3000, "is_downbeat": true}], "tracks": [{"program": 0, "is_drum": false, "notes": [{"time": 0, "pitch": 80, "duration": 12, "velocity": 64}, {"time": 12, "pitch": 76, "duration": 12, "velocity": 64}, {"time": 24, "pitch": 78, "duration": 24, "velocity": 64}, {"time": 48, "pitch": 76, "duration": 12, "velocity": 64}, {"time": 60, "pitch": 80, "duration": 12, "velocity": 64}, {"time": 72, "pitch": 78, "duration": 24, "velocity": 64}, {"time": 96, "pitch": 78, "duration": 6, "velocity": 64}, {"time": 102, "pitch": 78, "duration": 18, "velocity": 64}, {"time": 120, "pitch": 80, "duration": 6, "velocity": 64}, {"time": 126, "pitch": 78, "duration": 6, "velocity": 64}, {"time": 132, "pitch": 76, "duration": 6, "velocity": 64}, {"time": 138, "pitch": 73, "duration": 6, "velocity": 64}, {"time": 144, "pitch": 71, "duration": 48, "velocity": 64}, {"time": 192, "pitch": 76, "duration": 6, "velocity": 64}, {"time": 198, "pitch": 80, "duration": 6, "velocity": 64}, {"time": 204, "pitch": 73, "duration": 12, "velocity": 64}, {"time": 216, "pitch": 76, "duration": 6, "velocity": 64}, {"time": 222, "pitch": 76, "duration": 6, "velocity": 64}, {"time": 228, "pitch": 78, "duration": 24, "velocity": 64}, {"time": 252, "pitch": 80, "duration": 6, "velocity": 64}, {"time": 258, "pitch": 78, "duration": 6, "velocity": 64}, {"time": 264, "pitch": 76, "duration": 48, "velocity": 64}, {"time": 312, "pitch": 76, "duration": 48, "velocity": 64}, {"time": 360, "pitch": 76, "duration": 6, "velocity": 64}, {"time": 366, "pitch": 80, "duration": 6, "velocity": 64}, {"time": 372, "pitch": 78, "duration": 36, "velocity": 64}, {"time": 408, "pitch": 80, "duration": 6, "velocity": 64}, {"time": 414, "pitch": 78, "duration": 6, "velocity": 64}, {"time": 420, "pitch": 76, "duration": 6, "velocity": 64}, {"time": 426, "pitch": 73, "duration": 6, "velocity": 64}, {"time": 432, "pitch": 71, "duration": 36, "velocity": 64}, {"time": 468, "pitch": 73, "duration": 12, "velocity": 64}, {"time": 480, "pitch": 76, "duration": 6, "velocity": 64}, {"time": 486, "pitch": 73, "duration": 3, "velocity": 64}, {"time": 489, "pitch": 76, "duration": 3, "velocity": 64}, {"time": 492, "pitch": 78, "duration": 30, "velocity": 64}, {"time": 522, "pitch": 76, "duration": 6, "velocity": 64}, {"time": 528, "pitch": 76, "duration": 48, "velocity": 64}, {"time": 576, "pitch": 80, "duration": 12, "velocity": 64}, {"time": 588, "pitch": 76, "duration": 6, "velocity": 64}, {"time": 594, "pitch": 76, "duration": 6, "velocity": 64}, {"time": 600, "pitch": 78, "duration": 24, "velocity": 64}, {"time": 624, "pitch": 80, "duration": 12, "velocity": 64}, {"time": 636, "pitch": 76, "duration": 6, "velocity": 64}, {"time": 642, "pitch": 76, "duration": 6, "velocity": 64}, {"time": 648, "pitch": 78, "duration": 24, "velocity": 64}, {"time": 672, "pitch": 78, "duration": 6, "velocity": 64}, {"time": 678, "pitch": 78, "duration": 18, "velocity": 64}, {"time": 696, "pitch": 80, "duration": 6, "velocity": 64}, {"time": 702, "pitch": 78, "duration": 6, "velocity": 64}, {"time": 708, "pitch": 76, "duration": 6, "velocity": 64}, {"time": 714, "pitch": 73, "duration": 6, "velocity": 64}, {"time": 720, "pitch": 71, "duration": 36, "velocity": 64}, {"time": 756, "pitch": 73, "duration": 12, "velocity": 64}, {"time": 768, "pitch": 76, "duration": 12, "velocity": 64}, {"time": 780, "pitch": 73, "duration": 12, "velocity": 64}, {"time": 792, "pitch": 76, "duration": 12, "velocity": 64}, {"time": 804, "pitch": 78, "duration": 12, "velocity": 64}, {"time": 816, "pitch": 71, "duration": 36, "velocity": 64}, {"time": 852, "pitch": 73, "duration": 12, "velocity": 64}, {"time": 864, "pitch": 76, "duration": 48, "velocity": 64}, {"time": 936, "pitch": 83, "duration": 18, "velocity": 64}, {"time": 954, "pitch": 80, "duration": 6, "velocity": 64}, {"time": 960, "pitch": 78, "duration": 36, "velocity": 64}, {"time": 996, "pitch": 76, "duration": 12, "velocity": 64}, {"time": 1008, "pitch": 78, "duration": 12, "velocity": 64}, {"time": 1056, "pitch": 71, "duration": 36, "velocity": 64}, {"time": 1092, "pitch": 73, "duration": 12, "velocity": 64}, {"time": 1104, "pitch": 76, "duration": 6, "velocity": 64}, {"time": 1110, "pitch": 73, "duration": 3, "velocity": 64}, {"time": 1113, "pitch": 76, "duration": 3, "velocity": 64}, {"time": 1116, "pitch": 78, "duration": 24, "velocity": 64}, {"time": 1140, "pitch": 76, "duration": 12, "velocity": 64}, {"time": 1152, "pitch": 73, "duration": 18, "velocity": 64}, {"time": 1170, "pitch": 71, "duration": 6, "velocity": 64}, {"time": 1176, "pitch": 71, "duration": 48, "velocity": 64}, {"time": 1224, "pitch": 76, "duration": 12, "velocity": 64}, {"time": 1236, "pitch": 76, "duration": 12, "velocity": 64}, {"time": 1248, "pitch": 78, "duration": 24, "velocity": 64}, {"time": 1272, "pitch": 80, "duration": 12, "velocity": 64}, {"time": 1284, "pitch": 76, "duration": 12, "velocity": 64}, {"time": 1296, "pitch": 78, "duration": 24, "velocity": 64}, {"time": 1320, "pitch": 78, "duration": 6, "velocity": 64}, {"time": 1326, "pitch": 78, "duration": 18, "velocity": 64}, {"time": 1344, "pitch": 80, "duration": 6, "velocity": 64}, {"time": 1350, "pitch": 78, "duration": 6, "velocity": 64}, {"time": 1356, "pitch": 76, "duration": 6, "velocity": 64}, {"time": 1362, "pitch": 73, "duration": 6, "velocity": 64}, {"time": 1368, "pitch": 71, "duration": 36, "velocity": 64}, {"time": 1404, "pitch": 76, "duration": 6, "velocity": 64}, {"time": 1410, "pitch": 73, "duration": 6, "velocity": 64}, {"time": 1416, "pitch": 76, "duration": 6, "velocity": 64}, {"time": 1422, "pitch": 76, "duration": 6, "velocity": 64}, {"time": 1428, "pitch": 73, "duration": 12, "velocity": 64}, {"time": 1440, "pitch": 76, "duration": 6, "velocity": 64}, {"time": 1446, "pitch": 76, "duration": 6, "velocity": 64}, {"time": 1452, "pitch": 78, "duration": 24, "velocity": 64}, {"time": 1476, "pitch": 80, "duration": 6, "velocity": 64}, {"time": 1482, "pitch": 78, "duration": 6, "velocity": 64}, {"time": 1488, "pitch": 76, "duration": 48, "velocity": 64}, {"time": 1536, "pitch": 76, "duration": 48, "velocity": 64}, {"time": 1584, "pitch": 76, "duration": 6, "velocity": 64}, {"time": 1590, "pitch": 80, "duration": 6, "velocity": 64}, {"time": 1596, "pitch": 78, "duration": 36, "velocity": 64}, {"time": 1632, "pitch": 80, "duration": 6, "velocity": 64}, {"time": 1638, "pitch": 78, "duration": 6, "velocity": 64}, {"time": 1644, "pitch": 76, "duration": 6, "velocity": 64}, {"time": 1650, "pitch": 73, "duration": 6, "velocity": 64}, {"time": 1656, "pitch": 71, "duration": 36, "velocity": 64}, {"time": 1692, "pitch": 73, "duration": 12, "velocity": 64}, {"time": 1704, "pitch": 76, "duration": 6, "velocity": 64}, {"time": 1710, "pitch": 73, "duration": 3, "velocity": 64}, {"time": 1713, "pitch": 76, "duration": 3, "velocity": 64}, {"time": 1716, "pitch": 78, "duration": 30, "velocity": 64}, {"time": 1746, "pitch": 76, "duration": 6, "velocity": 64}, {"time": 1752, "pitch": 76, "duration": 48, "velocity": 64}, {"time": 1800, "pitch": 76, "duration": 12, "velocity": 64}, {"time": 1812, "pitch": 76, "duration": 12, "velocity": 64}, {"time": 1824, "pitch": 78, "duration": 24, "velocity": 64}, {"time": 1848, "pitch": 80, "duration": 12, "velocity": 64}, {"time": 1860, "pitch": 76, "duration": 12, "velocity": 64}, {"time": 1872, "pitch": 78, "duration": 24, "velocity": 64}, {"time": 1896, "pitch": 78, "duration": 6, "velocity": 64}, {"time": 1902, "pitch": 78, "duration": 18, "velocity": 64}, {"time": 1920, "pitch": 68, "duration": 6, "velocity": 64}, {"time": 1926, "pitch": 78, "duration": 6, "velocity": 64}, {"time": 1932, "pitch": 76, "duration": 6, "velocity": 64}, {"time": 1938, "pitch": 73, "duration": 6, "velocity": 64}, {"time": 1944, "pitch": 71, "duration": 36, "velocity": 64}, {"time": 1980, "pitch": 76, "duration": 6, "velocity": 64}, {"time": 1986, "pitch": 73, "duration": 6, "velocity": 64}, {"time": 1992, "pitch": 76, "duration": 6, "velocity": 64}, {"time": 1998, "pitch": 76, "duration": 6, "velocity": 64}, {"time": 2004, "pitch": 73, "duration": 12, "velocity": 64}, {"time": 2016, "pitch": 76, "duration": 6, "velocity": 64}, {"time": 2022, "pitch": 76, "duration": 6, "velocity": 64}, {"time": 2028, "pitch": 78, "duration": 24, "velocity": 64}, {"time": 2052, "pitch": 80, "duration": 6, "velocity": 64}, {"time": 2058, "pitch": 78, "duration": 6, "velocity": 64}, {"time": 2064, "pitch": 76, "duration": 48, "velocity": 64}, {"time": 2112, "pitch": 76, "duration": 48, "velocity": 64}, {"time": 2160, "pitch": 80, "duration": 6, "velocity": 64}, {"time": 2166, "pitch": 78, "duration": 6, "velocity": 64}, {"time": 2172, "pitch": 78, "duration": 36, "velocity": 64}, {"time": 2208, "pitch": 80, "duration": 6, "velocity": 64}, {"time": 2214, "pitch": 78, "duration": 6, "velocity": 64}, {"time": 2220, "pitch": 76, "duration": 6, "velocity": 64}, {"time": 2226, "pitch": 73, "duration": 6, "velocity": 64}, {"time": 2232, "pitch": 71, "duration": 36, "velocity": 64}, {"time": 2268, "pitch": 73, "duration": 12, "velocity": 64}, {"time": 2280, "pitch": 76, "duration": 6, "velocity": 64}, {"time": 2286, "pitch": 73, "duration": 3, "velocity": 64}, {"time": 2289, "pitch": 76, "duration": 3, "velocity": 64}, {"time": 2292, "pitch": 78, "duration": 30, "velocity": 64}, {"time": 2322, "pitch": 76, "duration": 6, "velocity": 64}, {"time": 2328, "pitch": 76, "duration": 48, "velocity": 64}, {"time": 2376, "pitch": 76, "duration": 12, "velocity": 64}, {"time": 2388, "pitch": 76, "duration": 12, "velocity": 64}, {"time": 2400, "pitch": 78, "duration": 24, "velocity": 64}, {"time": 2424, "pitch": 76, "duration": 12, "velocity": 64}, {"time": 2436, "pitch": 80, "duration": 12, "velocity": 64}, {"time": 2448, "pitch": 78, "duration": 24, "velocity": 64}, {"time": 2472, "pitch": 78, "duration": 6, "velocity": 64}, {"time": 2478, "pitch": 78, "duration": 18, "velocity": 64}, {"time": 2496, "pitch": 80, "duration": 6, "velocity": 64}, {"time": 2502, "pitch": 78, "duration": 6, "velocity": 64}, {"time": 2508, "pitch": 76, "duration": 6, "velocity": 64}, {"time": 2514, "pitch": 73, "duration": 6, "velocity": 64}, {"time": 2520, "pitch": 71, "duration": 36, "velocity": 64}, {"time": 2556, "pitch": 73, "duration": 12, "velocity": 64}, {"time": 2568, "pitch": 76, "duration": 12, "velocity": 64}, {"time": 2580, "pitch": 73, "duration": 12, "velocity": 64}, {"time": 2592, "pitch": 76, "duration": 12, "velocity": 64}, {"time": 2604, "pitch": 78, "duration": 12, "velocity": 64}, {"time": 2616, "pitch": 71, "duration": 36, "velocity": 64}, {"time": 2652, "pitch": 73, "duration": 12, "velocity": 64}, {"time": 2664, "pitch": 76, "duration": 48, "velocity": 64}, {"time": 2736, "pitch": 83, "duration": 18, "velocity": 64}, {"time": 2754, "pitch": 80, "duration": 6, "velocity": 64}, {"time": 2760, "pitch": 78, "duration": 36, "velocity": 64}, {"time": 2796, "pitch": 76, "duration": 12, "velocity": 64}, {"time": 2808, "pitch": 78, "duration": 12, "velocity": 64}, {"time": 2856, "pitch": 71, "duration": 36, "velocity": 64}, {"time": 2892, "pitch": 73, "duration": 12, "velocity": 64}, {"time": 2904, "pitch": 76, "duration": 6, "velocity": 64}, {"time": 2910, "pitch": 73, "duration": 3, "velocity": 64}, {"time": 2913, "pitch": 76, "duration": 3, "velocity": 64}, {"time": 2916, "pitch": 78, "duration": 30, "velocity": 64}, {"time": 2946, "pitch": 76, "duration": 6, "velocity": 64}, {"time": 2952, "pitch": 73, "duration": 18, "velocity": 64}, {"time": 2970, "pitch": 71, "duration": 6, "velocity": 64}, {"time": 2976, "pitch": 71, "duration": 48, "velocity": 64}]}]}