{"metadata": {"schema_version": "0.1", "title": "Dafeng gualai zhuye luo", "source_format": "abc"}, "resolution": 24, "tempos": [{"time": 0, "qpm": 120.0}], "key_signatures": [{"time": 0, "root": 10, "mode": "major", "fifths": -2}], "time_signatures": [{"time": 0, "numerator": 4, "denominator": 4}, {"time": 96, "numerator": 1, "denominator": 4}, {"time": 168, "numerator": 4, "denominator": 4}, {"time": 312, "numerator": 1, "denominator": 4}, {"time": 384, "numerator": 3, "denominator": 4}, {"time": 504, "numerator": 1, "denominator": 4}, {"time": 576, "numerator": 1, "denominator": 4}, {"time": 648, "numerator": 1, "denominator": 4}, {"time": 816, "numerator": 1, "denominator": 4}, {"time": 888, "numerator": 6, "denominator": 8}, {"time": 1008, "numerator": 4, "denominator": 4}, {"time": 1152, "numerator": 1, "denominator": 4}, {"time": 1224, "numerator": 1, "denominator": 4}, {"time": 1488, "numerator": 3, "denominator": 4}, {"time": 1608, "numerator": 1, "denominator": 4}, {"time": 1632, "numerator": 2, "denominator": 4}], "beats": [{"time": 0, "is_downbeat": true}, {"time": 24, "is_downbeat": true}, {"time": 48, "is_downbeat": true}, {"time": 72, "is_downbeat": true}, {"time": 96, "is_downbeat": true}, {"time": 120, "is_downbeat": true}, {"time": 144, "is_downbeat": false}, {"time": 168, "is_downbeat": true}, {"time": 192, "is_downbeat": true}, {"time": 216, "is_downbeat": true}, {"time": 240, "is_downbeat": true}, {"time": 264, "is_downbeat": true}, {"time": 288, "is_downbeat": true}, {"time": 312, "is_downbeat": true}, {"time": 336, "is_downbeat": true}, {"time": 360, "is_downbeat": false}, {"time": 384, "is_downbeat": true}, {"time": 408, "is_downbeat": true}, {"time": 432, "is_downbeat": true}, {"time": 456, "is_downbeat": true}, {"time": 480, "is_downbeat": true}, {"time": 504, "is_downbeat": true}, {"time": 528, "is_downbeat": true}, {"time": 552, "is_downbeat": true}, {"time": 576, "is_downbeat": true}, {"time": 600, "is_downbeat": true}, {"time": 624, "is_downbeat": true}, {"time": 648, "is_downbeat": true}, {"time": 672, "is_downbeat": true}, {"time": 696, "is_downbeat": true}, {"time": 720, "is_downbeat": true}, {"time": 744, "is_downbeat": true}, {"time": 768, "is_downbeat": true}, {"time": 792, "is_downbeat": true}, {"time": 816, "is_downbeat": true}, {"time": 828, "is_downbeat": false}, {"time": 840, "is_downbeat": true}, {"time": 852, "is_downbeat": false}, {"time": 864, "is_downbeat": false}, {"time": 876, "is_downbeat": false}, {"time": 888, "is_downbeat": true}, {"time": 912, "is_downbeat": false}, {"time": 936, "is_downbeat": false}, {"time": 960, "is_downbeat": true}, {"time": 984, "is_downbeat": false}, {"time": 1008, "is_downbeat": true}, {"time": 1032, "is_downbeat": true}, {"time": 1056, "is_downbeat": true}, {"time": 1080, "is_downbeat": true}, {"time": 1104, "is_downbeat": true}, {"time": 1128, "is_downbeat": true}, {"time": 1152, "is_downbeat": true}, {"time": 1176, "is_downbeat": true}, {"time": 1200, "is_downbeat": true}, {"time": 1224, "is_downbeat": true}, {"time": 1248, "is_downbeat": true}, {"time": 1272, "is_downbeat": false}, {"time": 1296, "is_downbeat": true}, {"time": 1320, "is_downbeat": false}, {"time": 1344, "is_downbeat": true}, {"time": 1368, "is_downbeat": false}, {"time": 1392, "is_downbeat": true}, {"time": 1416, "is_downbeat": false}, {"time": 1440, "is_downbeat": true}, {"time": 1464, "is_downbeat": false}, {"time": 1488, "is_downbeat": true}, {"time": 1512, "is_downbeat": true}, {"time": 1536, "is_downbeat": true}, {"time": 1560, "is_downbeat": true}, {"time": 1584, "is_downbeat": true}, {"time": 1608, "is_downbeat": true}, {"time": 1632, "is_downbeat": true}, {"time": 1656, "is_downbeat": false}, {"time": 1680, "is_downbeat": true}, {"time": 1704, "is_downbeat": false}], "tracks": [{"program": 0, "is_drum": false, "notes": [{"time": 0, "pitch": 79, "duration": 12, "velocity": 64}, {"time": 12, "pitch": 72, "duration": 6, "velocity": 64}, {"time": 18, "pitch": 82, "duration": 6, "velocity": 64}, {"time": 24, "pitch": 79, "duration": 12, "velocity": 64}, {"time": 36, "pitch": 72, "duration": 12, "velocity": 64}, {"time": 48, "pitch": 79, "duration": 24, "velocity": 64}, {"time": 72, "pitch": 72, "duration": 6, "velocity": 64}, {"time": 78, "pitch": 74, "duration": 12, "velocity": 64}, {"time": 90, "pitch": 72, "duration": 6, "velocity": 64}, {"time": 96, "pitch": 82, "duration": 12, "velocity": 64}, {"time": 108, "pitch": 79, "duration": 12, "velocity": 64}, {"time": 120, "pitch": 79, "duration": 24, "velocity": 64}, {"time": 144, "pitch": 72, "duration": 6, "velocity": 64}, {"time": 150, "pitch": 74, "duration": 12, "velocity": 64}, {"time": 162, "pitch": 72, "duration": 6, "velocity": 64}, {"time": 168, "pitch": 82, "duration": 12, "velocity": 64}, {"time": 180, "pitch": 79, "duration": 12, "velocity": 64}, {"time": 192, "pitch": 72, "duration": 12, "velocity": 64}, {"time": 204, "pitch": 72, "duration": 6, "velocity": 64}, {"time": 210, "pitch": 72, "duration": 6, "velocity": 64}, {"time": 216, "pitch": 79, "duration": 12, "velocity": 64}, {"time": 228, "pitch": 82, "duration": 6, "velocity": 64}, {"time": 234, "pitch": 79, "duration": 6, "velocity": 64}, {"time": 240, "pitch": 77, "duration": 12, "velocity": 64}, {"time": 252, "pitch": 75, "duration": 12, "velocity": 64}, {"time": 264, "pitch": 77, "duration": 12, "velocity": 64}, {"time": 276, "pitch": 79, "duration": 18, "velocity": 64}, {"time": 294, "pitch": 77, "duration": 6, "velocity": 64}, {"time": 300, "pitch": 79, "duration": 6, "velocity": 64}, {"time": 306, "pitch": 82, "duration": 6, "velocity": 64}, {"time": 312, "pitch": 77, "duration": 12, "velocity": 64}, {"time": 324, "pitch": 79, "duration": 6, "velocity": 64}, {"time": 330, "pitch": 82, "duration": 6, "velocity": 64}, {"time": 336, "pitch": 77, "duration": 12, "velocity": 64}, {"time": 348, "pitch": 79, "duration": 18, "velocity": 64}, {"time": 366, "pitch": 77, "duration": 6, "velocity": 64}, {"time": 372, "pitch": 77, "duration": 6, "velocity": 64}, {"time": 378, "pitch": 75, "duration": 6, "velocity": 64}, {"time": 384, "pitch": 72, "duration": 24, "velocity": 64}, {"time": 408, "pitch": 75, "duration": 12, "velocity": 64}, {"time": 420, "pitch": 72, "duration": 12, "velocity": 64}, {"time": 432, "pitch": 79, "duration": 6, "velocity": 64}, {"time": 438, "pitch": 82, "duration": 6, "velocity": 64}, {"time": 444, "pitch": 79, "duration": 12, "velocity": 64}, {"time": 456, "pitch": 72, "duration": 60, "velocity": 64}, {"time": 516, "pitch": 77, "duration": 12, "velocity": 64}, {"time": 528, "pitch": 74, "duration": 12, "velocity": 64}, {"time": 540, "pitch": 72, "duration": 18, "velocity": 64}, {"time": 558, "pitch": 82, "duration": 6, "velocity": 64}, {"time": 564, "pitch": 79, "duration": 6, "velocity": 64}, {"time": 570, "pitch": 82, "duration": 6, "velocity": 64}, {"time": 576, "pitch": 77, "duration": 12, "velocity": 64}, {"time": 588, "pitch": 77, "duration": 12, "velocity": 64}, {"time": 600, "pitch": 74, "duration": 12, "velocity": 64}, {"time": 612, "pitch": 72, "duration": 18, "velocity": 64}, {"time": 630, "pitch": 82, "duration": 6, "velocity": 64}, {"time": 636, "pitch": 79, "duration": 6, "velocity": 64}, {"time": 642, "pitch": 82, "duration": 6, "velocity": 64}, {"time": 648, "pitch": 77, "duration": 18, "velocity": 64}, {"time": 666, "pitch": 79, "duration": 6, "velocity": 64}, {"time": 672, "pitch": 77, "duration": 12, "velocity": 64}, {"time": 684, "pitch": 77, "duration": 12, "velocity": 64}, {"time": 696, "pitch": 75, "duration": 12, "velocity": 64}, {"time": 708, "pitch": 77, "duration": 12, "velocity": 64}, {"time": 720, "pitch": 79, "duration": 36, "velocity": 64}, {"time": 756, "pitch": 72, "duration": 12, "velocity": 64}, {"time": 768, "pitch": 77, "duration": 12, "velocity": 64}, {"time": 780, "pitch": 79, "duration": 12, "velocity": 64}, {"time": 792, "pitch": 79, "duration": 6, "velocity": 64}, {"time": 798, "pitch": 77, "duration": 6, "velocity": 64}, {"time": 804, "pitch": 77, "duration": 6, "velocity": 64}, {"time": 810, "pitch": 75, "duration": 6, "velocity": 64}, {"time": 816, "pitch": 72, "duration": 12, "velocity": 64}, {"time": 828, "pitch": 75, "duration": 6, "velocity": 64}, {"time": 834, "pitch": 77, "duration": 6, "velocity": 64}, {"time": 840, "pitch": 77, "duration": 12, "velocity": 64}, {"time": 852, "pitch": 79, "duration": 12, "velocity": 64}, {"time": 864, "pitch": 79, "duration": 6, "velocity": 64}, {"time": 870, "pitch": 77, "duration": 6, "velocity": 64}, {"time": 876, "pitch": 77, "duration": 6, "velocity": 64}, {"time": 882, "pitch": 75, "duration": 6, "velocity": 64}, {"time": 888, "pitch": 72, "duration": 24, "velocity": 64}, {"time": 924, "pitch": 82, "duration": 12, "velocity": 64}, {"time": 936, "pitch": 81, "duration": 12, "velocity": 64}, {"time": 948, "pitch": 82, "duration": 12, "velocity": 64}, {"time": 960, "pitch": 72, "duration": 12, "velocity": 64}, {"time": 972, "pitch": 82, "duration": 6, "velocity": 64}, {"time": 978, "pitch": 72, "duration": 6, "velocity": 64}, {"time": 984, "pitch": 77, "duration": 12, "velocity": 64}, {"time": 996, "pitch": 79, "duration": 6, "velocity": 64}, {"time": 1002, "pitch": 82, "duration": 6, "velocity": 64}, {"time": 1008, "pitch": 72, "duration": 24, "velocity": 64}, {"time": 1032, "pitch": 72, "duration": 18, "velocity": 64}, {"time": 1050, "pitch": 82, "duration": 6, "velocity": 64}, {"time": 1056, "pitch": 77, "duration": 12, "velocity": 64}, {"time": 1068, "pitch": 82, "duration": 6, "velocity": 64}, {"time": 1074, "pitch": 72, "duration": 6, "velocity": 64}, {"time": 1080, "pitch": 79, "duration": 18, "velocity": 64}, {"time": 1098, "pitch": 82, "duration": 6, "velocity": 64}, {"time": 1104, "pitch": 75, "duration": 18, "velocity": 64}, {"time": 1122, "pitch": 77, "duration": 6, "velocity": 64}, {"time": 1128, "pitch": 79, "duration": 12, "velocity": 64}, {"time": 1140, "pitch": 79, "duration": 12, "velocity": 64}, {"time": 1152, "pitch": 77, "duration": 12, "velocity": 64}, {"time": 1164, "pitch": 75, "duration": 6, "velocity": 64}, {"time": 1170, "pitch": 79, "duration": 6, "velocity": 64}, {"time": 1176, "pitch": 75, "duration": 12, "velocity": 64}, {"time": 1188, "pitch": 79, "duration": 12, "velocity": 64}, {"time": 1200, "pitch": 82, "duration": 12, "velocity": 64}, {"time": 1212, "pitch": 75, "duration": 6, "velocity": 64}, {"time": 1218, "pitch": 77, "duration": 6, "velocity": 64}, {"time": 1224, "pitch": 79, "duration": 12, "velocity": 64}, {"time": 1236, "pitch": 82, "duration": 6, "velocity": 64}, {"time": 1242, "pitch": 75, "duration": 6, "velocity": 64}, {"time": 1248, "pitch": 75, "duration": 12, "velocity": 64}, {"time": 1260, "pitch": 77, "duration": 12, "velocity": 64}, {"time": 1284, "pitch": 70, "duration": 24, "velocity": 64}, {"time": 1308, "pitch": 74, "duration": 12, "velocity": 64}, {"time": 1320, "pitch": 72, "duration": 24, "velocity": 64}, {"time": 1344, "pitch": 74, "duration": 12, "velocity": 64}, {"time": 1356, "pitch": 72, "duration": 72, "velocity": 64}, {"time": 1428, "pitch": 77, "duration": 12, "velocity": 64}, {"time": 1440, "pitch": 77, "duration": 12, "velocity": 64}, {"time": 1452, "pitch": 72, "duration": 6, "velocity": 64}, {"time": 1458, "pitch": 82, "duration": 6, "velocity": 64}, {"time": 1464, "pitch": 75, "duration": 12, "velocity": 64}, {"time": 1476, "pitch": 77, "duration": 12, "velocity": 64}, {"time": 1488, "pitch": 79, "duration": 24, "velocity": 64}, {"time": 1512, "pitch": 82, "duration": 12, "velocity": 64}, {"time": 1524, "pitch": 79, "duration": 12, "velocity": 64}, {"time": 1536, "pitch": 79, "duration": 6, "velocity": 64}, {"time": 1542, "pitch": 82, "duration": 6, "velocity": 64}, {"time": 1548, "pitch": 79, "duration": 6, "velocity": 64}, {"time": 1554, "pitch": 82, "duration": 6, "velocity": 64}, {"time": 1560, "pitch": 72, "duration": 60, "velocity": 64}, {"time": 1620, "pitch": 74, "duration": 12, "velocity": 64}, {"time": 1632, "pitch": 77, "duration": 12, "velocity": 64}, {"time": 1644, "pitch": 79, "duration": 12, "velocity": 64}, {"time": 1656, "pitch": 79, "duration": 6, "velocity": 64}, {"time": 1662, "pitch": 77, "duration": 6, "velocity": 64}, {"time": 1668, "pitch": 77, "duration": 6, "velocity": 64}, {"time": 1674, "pitch": 75, "duration": 6, "velocity": 64}, {"time": 1680, "pitch": 72, "duration": 48, "velocity": 64}]}]}