{"metadata": {"schema_version": "0.1", "title": "Fuyuan diao", "source_format": "abc"}, "resolution": 24, "tempos": [{"time": 0, "qpm": 120.0}], "key_signatures": [{"time": 0, "root": 10, "mode": "major", "fifths": -2}], "time_signatures": [{"time": 0, "numerator": 4, "denominator": 4}, {"time": 144, "numerator": 1, "denominator": 4}, {"time": 384, "numerator": 1, "denominator": 4}, {"time": 408, "numerator": 3, "denominator": 4}], "beats": [{"time": 0, "is_downbeat": true}, {"time": 24, "is_downbeat": true}, {"time": 48, "is_downbeat": true}, {"time": 72, "is_downbeat": true}, {"time": 96, "is_downbeat": true}, {"time": 120, "is_downbeat": true}, {"time": 144, "is_downbeat": true}, {"time": 168, "is_downbeat": true}, {"time": 192, "is_downbeat": true}, {"time": 216, "is_downbeat": true}, {"time": 240, "is_downbeat": true}, {"time": 264, "is_downbeat": true}, {"time": 288, "is_downbeat": true}, {"time": 312, "is_downbeat": true}, {"time": 336, "is_downbeat": true}, {"time": 360, "is_downbeat": true}, {"time": 384, "is_downbeat": true}, {"time": 408, "is_downbeat": true}, {"time": 432, "is_downbeat": false}, {"time": 456, "is_downbeat": false}], "tracks": [{"program": 0, "is_drum": false, "notes": [{"time": 0, "pitch": 77, "duration": 12, "velocity": 64}, {"time": 12, "pitch": 77, "duration": 6, "velocity": 64}, {"time": 18, "pitch": 77, "duration": 6, "velocity": 64}, {"time": 24, "pitch": 77, "duration": 12, "velocity": 64}, {"time": 36, "pitch": 82, "duration": 12, "velocity": 64}, {"time": 48, "pitch": 82, "duration": 6, "velocity": 64}, {"time": 54, "pitch": 72, "duration": 6, "velocity": 64}, {"time": 60, "pitch": 77, "duration": 12, "velocity": 64}, {"time": 72, "pitch": 82, "duration": 12, "velocity": 64}, {"time": 84, "pitch": 72, "duration": 6, "velocity": 64}, {"time": 90, "pitch": 74, "duration": 6, "velocity": 64}, {"time": 96, "pitch": 72, "duration": 9, "velocity": 64}, {"time": 105, "pitch": 82, "duration": 3, "velocity": 64}, {"time": 108, "pitch": 80, "duration": 6, "velocity": 64}, {"time": 114, "pitch": 82, "duration": 6, "velocity": 64}, {"time": 120, "pitch": 72, "duration": 6, "velocity": 64}, {"time": 126, "pitch": 82, "duration": 6, "velocity": 64}, {"time": 132, "pitch": 79, "duration": 6, "velocity": 64}, {"time": 138, "pitch": 77, "duration": 6, "velocity": 64}, {"time": 144, "pitch": 77, "duration": 12, "velocity": 64}, {"time": 156, "pitch": 77, "duration": 6, "velocity": 64}, {"time": 162, "pitch": 82, "duration": 6, "velocity": 64}, {"time": 168, "pitch": 77, "duration": 6, "velocity": 64}, {"time": 174, "pitch": 82, "duration": 6, "velocity": 64}, {"time": 180, "pitch": 79, "duration": 6, "velocity": 64}, {"time": 186, "pitch": 77, "duration": 6, "velocity": 64}, {"time": 192, "pitch": 77, "duration": 24, "velocity": 64}, {"time": 216, "pitch": 72, "duration": 12, "velocity": 64}, {"time": 240, "pitch": 77, "duration": 12, "velocity": 64}, {"time": 252, "pitch": 77, "duration": 6, "velocity": 64}, {"time": 258, "pitch": 77, "duration": 6, "velocity": 64}, {"time": 264, "pitch": 77, "duration": 12, "velocity": 64}, {"time": 276, "pitch": 77, "duration": 6, "velocity": 64}, {"time": 282, "pitch": 82, "duration": 6, "velocity": 64}, {"time": 288, "pitch": 82, "duration": 6, "velocity": 64}, {"time": 294, "pitch": 72, "duration": 6, "velocity": 64}, {"time": 300, "pitch": 77, "duration": 12, "velocity": 64}, {"time": 312, "pitch": 82, "duration": 12, "velocity": 64}, {"time": 324, "pitch": 72, "duration": 6, "velocity": 64}, {"time": 330, "pitch": 74, "duration": 6, "velocity": 64}, {"time": 336, "pitch": 72, "duration": 9, "velocity": 64}, {"time": 345, "pitch": 82, "duration": 3, "velocity": 64}, {"time": 348, "pitch": 80, "duration": 6, "velocity": 64}, {"time": 354, "pitch": 82, "duration": 6, "velocity": 64}, {"time": 360, "pitch": 72, "duration": 6, "velocity": 64}, {"time": 366, "pitch": 82, "duration": 6, "velocity": 64}, {"time": 372, "pitch": 79, "duration": 6, "velocity": 64}, {"time": 378, "pitch": 77, "duration": 6, "velocity": 64}, {"time": 384, "pitch": 77, "duration": 12, "velocity": 64}, {"time": 396, "pitch": 77, "duration": 6, "velocity": 64}, {"time": 402, "pitch": 82, "duration": 6, "velocity": 64}, {"time": 408, "pitch": 77, "duration": 6, "velocity": 64}, {"time": 414, "pitch": 82, "duration": 6, "velocity": 64}, {"time": 420, "pitch": 79, "duration": 6, "velocity": 64}, {"time": 426, "pitch": 77, "duration": 6, "velocity": 64}, {"time": 432, "pitch": 77, "duration": 24, "velocity": 64}, {"time": 456, "pitch": 72, "duration": 12, "velocity": 64}]}]}