{"metadata": {"schema_version": "0.1", "title": "Dahe changshui xiaohe qing", "source_format": "abc"}, "resolution": 24, "tempos": [{"time": 0, "qpm": 120.0}], "key_signatures": [{"time": 0, "root": 7, "mode": "major", "fifths": 1}], "time_signatures": [{"time": 0, "numerator": 4, "denominator": 4}, {"time": 192, "numerator": 1, "denominator": 4}, {"time": 216, "numerator": 3, "denominator": 4}], "beats": [{"time": 0, "is_downbeat": true}, {"time": 24, "is_downbeat": true}, {"time": 48, "is_downbeat": true}, {"time": 72, "is_downbeat": true}, {"time": 96, "is_downbeat": true}, {"time": 120, "is_downbeat": true}, {"time": 144, "is_downbeat": true}, {"time": 168, "is_downbeat": true}, {"time": 192, "is_downbeat": true}, {"time": 216, "is_downbeat": true}, {"time": 240, "is_downbeat": false}, {"time": 264, "is_downbeat": true}, {"time": 288, "is_downbeat": false}, {"time": 312, "is_downbeat": true}, {"time": 336, "is_downbeat": false}, {"time": 360, "is_downbeat": false}], "tracks": [{"program": 0, "is_drum": false, "notes": [{"time": 0, "pitch": 71, "duration": 12, "velocity": 64}, {"time": 12, "pitch": 71, "duration": 6, "velocity": 64}, {"time": 18, "pitch": 64, "duration": 6, "velocity": 64}, {"time": 24, "pitch": 71, "duration": 12, "velocity": 64}, {"time": 36, "pitch": 74, "duration": 36, "velocity": 64}, {"time": 72, "pitch": 76, "duration": 6, "velocity": 64}, {"time": 78, "pitch": 71, "duration": 6, "velocity": 64}, {"time": 84, "pitch": 74, "duration": 12, "velocity": 64}, {"time": 96, "pitch": 69, "duration": 12, "velocity": 64}, {"time": 108, "pitch": 71, "duration": 6, "velocity": 64}, {"time": 114, "pitch": 67, "duration": 6, "velocity": 64}, {"time": 120, "pitch": 64, "duration": 12, "velocity": 64}, {"time": 132, "pitch": 62, "duration": 12, "velocity": 64}, {"time": 144, "pitch": 67, "duration": 24, "velocity": 64}, {"time": 168, "pitch": 67, "duration": 12, "velocity": 64}, {"time": 180, "pitch": 64, "duration": 6, "velocity": 64}, {"time": 186, "pitch": 67, "duration": 6, "velocity": 64}, {"time": 192, "pitch": 69, "duration": 12, "velocity": 64}, {"time": 204, "pitch": 71, "duration": 6, "velocity": 64}, {"time": 210, "pitch": 64, "duration": 6, "velocity": 64}, {"time": 216, "pitch": 62, "duration": 48, "velocity": 64}, {"time": 264, "pitch": 67, "duration": 12, "velocity": 64}, {"time": 276, "pitch": 71, "duration": 12, "velocity": 64}, {"time": 288, "pitch": 69, "duration": 12, "velocity": 64}, {"time": 300, "pitch": 67, "duration": 4, "velocity": 64}, {"time": 304, "pitch": 64, "duration": 4, "velocity": 64}, {"time": 308, "pitch": 67, "duration": 4, "velocity": 64}, {"time": 312, "pitch": 64, "duration": 12, "velocity": 64}, {"time": 324, "pitch": 62, "duration": 12, "velocity": 64}, {"time": 336, "pitch": 62, "duration": 24, "velocity": 64}]}]}