{"metadata": {"schema_version": "0.1", "title": "Jin chi he", "source_format": "abc"}, "resolution": 24, "tempos": [{"time": 0, "qpm": 120.0}], "key_signatures": [{"time": 0, "root": 5, "mode": "major", "fifths": -1}], "time_signatures": [{"time": 0, "numerator": 4, "denominator": 4}, {"time": 48, "numerator": 1, "denominator": 16}, {"time": 198, "numerator": 1, "denominator": 4}, {"time": 318, "numerator": 1, "denominator": 4}, {"time": 390, "numerator": 1, "denominator": 4}, {"time": 462, "numerator": 1, "denominator": 4}, {"time": 774, "numerator": 1, "denominator": 4}, {"time": 918, "numerator": 1, "denominator": 4}, {"time": 942, "numerator": 2, "denominator": 4}], "beats": [{"time": 0, "is_downbeat": true}, {"time": 6, "is_downbeat": true}, {"time": 12, "is_downbeat": true}, {"time": 18, "is_downbeat": true}, {"time": 24, "is_downbeat": true}, {"time": 30, "is_downbeat": true}, {"time": 36, "is_downbeat": true}, {"time": 42, "is_downbeat": true}, {"time": 48, "is_downbeat": true}, {"time": 54, "is_downbeat": true}, {"time": 78, "is_downbeat": true}, {"time": 102, "is_downbeat": true}, {"time": 126, "is_downbeat": true}, {"time": 150, "is_downbeat": true}, {"time": 174, "is_downbeat": true}, {"time": 198, "is_downbeat": true}, {"time": 222, "is_downbeat": true}, {"time": 246, "is_downbeat": true}, {"time": 270, "is_downbeat": true}, {"time": 294, "is_downbeat": true}, {"time": 318, "is_downbeat": true}, {"time": 342, "is_downbeat": true}, {"time": 366, "is_downbeat": true}, {"time": 390, "is_downbeat": true}, {"time": 414, "is_downbeat": true}, {"time": 438, "is_downbeat": true}, {"time": 462, "is_downbeat": true}, {"time": 486, "is_downbeat": true}, {"time": 510, "is_downbeat": true}, {"time": 534, "is_downbeat": true}, {"time": 558, "is_downbeat": true}, {"time": 582, "is_downbeat": true}, {"time": 606, "is_downbeat": true}, {"time": 630, "is_downbeat": true}, {"time": 654, "is_downbeat": true}, {"time": 678, "is_downbeat": true}, {"time": 702, "is_downbeat": true}, {"time": 726, "is_downbeat": true}, {"time": 750, "is_downbeat": true}, {"time": 774, "is_downbeat": true}, {"time": 798, "is_downbeat": true}, {"time": 822, "is_downbeat": true}, {"time": 846, "is_downbeat": true}, {"time": 870, "is_downbeat": true}, {"time": 894, "is_downbeat": true}, {"time": 918, "is_downbeat": true}, {"time": 942, "is_downbeat": true}, {"time": 966, "is_downbeat": false}, {"time": 990, "is_downbeat": true}, {"time": 1014, "is_downbeat": false}, {"time": 1038, "is_downbeat": true}, {"time": 1062, "is_downbeat": false}, {"time": 1086, "is_downbeat": true}, {"time": 1110, "is_downbeat": false}, {"time": 1134, "is_downbeat": true}, {"time": 1158, "is_downbeat": false}], "tracks": [{"program": 0, "is_drum": false, "notes": [{"time": 0, "pitch": 72, "duration": 12, "velocity": 64}, {"time": 12, "pitch": 72, "duration": 6, "velocity": 64}, {"time": 18, "pitch": 72, "duration": 6, "velocity": 64}, {"time": 24, "pitch": 74, "duration": 12, "velocity": 64}, {"time": 36, "pitch": 74, "duration": 6, "velocity": 64}, {"time": 42, "pitch": 72, "duration": 12, "velocity": 64}, {"time": 54, "pitch": 79, "duration": 72, "velocity": 64}, {"time": 126, "pitch": 79, "duration": 12, "velocity": 64}, {"time": 138, "pitch": 79, "duration": 12, "velocity": 64}, {"time": 150, "pitch": 77, "duration": 48, "velocity": 64}, {"time": 198, "pitch": 74, "duration": 12, "velocity": 64}, {"time": 210, "pitch": 72, "duration": 12, "velocity": 64}, {"time": 222, "pitch": 72, "duration": 24, "velocity": 64}, {"time": 246, "pitch": 74, "duration": 12, "velocity": 64}, {"time": 258, "pitch": 74, "duration": 6, "velocity": 64}, {"time": 264, "pitch": 72, "duration": 6, "velocity": 64}, {"time": 270, "pitch": 77, "duration": 24, "velocity": 64}, {"time": 294, "pitch": 72, "duration": 6, "velocity": 64}, {"time": 300, "pitch": 74, "duration": 6, "velocity": 64}, {"time": 306, "pitch": 72, "duration": 12, "velocity": 64}, {"time": 318, "pitch": 72, "duration": 12, "velocity": 64}, {"time": 330, "pitch": 74, "duration": 12, "velocity": 64}, {"time": 342, "pitch": 72, "duration": 24, "velocity": 64}, {"time": 366, "pitch": 67, "duration": 12, "velocity": 64}, {"time": 378, "pitch": 67, "duration": 12, "velocity": 64}, {"time": 390, "pitch": 65, "duration": 12, "velocity": 64}, {"time": 402, "pitch": 60, "duration": 12, "velocity": 64}, {"time": 414, "pitch": 65, "duration": 12, "velocity": 64}, {"time": 426, "pitch": 67, "duration": 12, "velocity": 64}, {"time": 438, "pitch": 72, "duration": 12, "velocity": 64}, {"time": 450, "pitch": 74, "duration": 12, "velocity": 64}, {"time": 462, "pitch": 67, "duration": 12, "velocity": 64}, {"time": 474, "pitch": 67, "duration": 12, "velocity": 64}, {"time": 486, "pitch": 65, "duration": 48, "velocity": 64}, {"time": 534, "pitch": 60, "duration": 48, "velocity": 64}, {"time": 582, "pitch": 77, "duration": 12, "velocity": 64}, {"time": 594, "pitch": 74, "duration": 6, "velocity": 64}, {"time": 600, "pitch": 74, "duration": 6, "velocity": 64}, {"time": 606, "pitch": 74, "duration": 12, "velocity": 64}, {"time": 618, "pitch": 72, "duration": 12, "velocity": 64}, {"time": 630, "pitch": 77, "duration": 12, "velocity": 64}, {"time": 642, "pitch": 74, "duration": 6, "velocity": 64}, {"time": 648, "pitch": 74, "duration": 6, "velocity": 64}, {"time": 654, "pitch": 74, "duration": 12, "velocity": 64}, {"time": 666, "pitch": 72, "duration": 12, "velocity": 64}, {"time": 678, "pitch": 77, "duration": 12, "velocity": 64}, {"time": 690, "pitch": 79, "duration": 12, "velocity": 64}, {"time": 702, "pitch": 69, "duration": 12, "velocity": 64}, {"time": 714, "pitch": 72, "duration": 12, "velocity": 64}, {"time": 726, "pitch": 77, "duration": 24, "velocity": 64}, {"time": 750, "pitch": 72, "duration": 12, "velocity": 64}, {"time": 762, "pitch": 72, "duration": 36, "velocity": 64}, {"time": 798, "pitch": 67, "duration": 6, "velocity": 64}, {"time": 804, "pitch": 69, "duration": 6, "velocity": 64}, {"time": 810, "pitch": 67, "duration": 6, "velocity": 64}, {"time": 816, "pitch": 65, "duration": 6, "velocity": 64}, {"time": 822, "pitch": 67, "duration": 24, "velocity": 64}, {"time": 846, "pitch": 65, "duration": 12, "velocity": 64}, {"time": 858, "pitch": 67, "duration": 12, "velocity": 64}, {"time": 870, "pitch": 72, "duration": 12, "velocity": 64}, {"time": 882, "pitch": 74, "duration": 12, "velocity": 64}, {"time": 894, "pitch": 72, "duration": 24, "velocity": 64}, {"time": 918, "pitch": 67, "duration": 12, "velocity": 64}, {"time": 930, "pitch": 67, "duration": 12, "velocity": 64}, {"time": 942, "pitch": 65, "duration": 24, "velocity": 64}, {"time": 966, "pitch": 72, "duration": 12, "velocity": 64}, {"time": 978, "pitch": 72, "duration": 12, "velocity": 64}, {"time": 990, "pitch": 67, "duration": 6, "velocity": 64}, {"time": 996, "pitch": 69, "duration": 6, "velocity": 64}, {"time": 1002, "pitch": 67, "duration": 6, "velocity": 64}, {"time": 1008, "pitch": 65, "duration": 6, "velocity": 64}, {"time": 1014, "pitch": 65, "duration": 12, "velocity": 64}, {"time": 1026, "pitch": 60, "duration": 12, "velocity": 64}, {"time": 1038, "pitch": 67, "duration": 12, "velocity": 64}, {"time": 1050, "pitch": 69, "duration": 12, "velocity": 64}, {"time": 1062, "pitch": 67, "duration": 12, "velocity": 64}, {"time": 1074, "pitch": 67, "duration": 12, "velocity": 64}, {"time": 1086, "pitch": 65, "duration": 48, "velocity": 64}, {"time": 1134, "pitch": 60, "duration": 48, "velocity": 64}]}]}