{"metadata": {"schema_version": "0.1", "title": "Taigong Haozi", "source_format": "abc"}, "resolution": 24, "tempos": [{"time": 0, "qpm": 120.0}], "key_signatures": [{"time": 0, "root": 4, "mode": "major", "fifths": 4}], "time_signatures": [{"time": 0, "numerator": 4, "denominator": 4}], "tracks": [{"program": 0, "is_drum": false, "notes": [{"time": 0, "pitch": 71, "duration": 24, "velocity": 64}, {"time": 24, "pitch": 73, "duration": 24, "velocity": 64}, {"time": 48, "pitch": 73, "duration": 9, "velocity": 64}, {"time": 57, "pitch": 71, "duration": 3, "velocity": 64}, {"time": 60, "pitch": 70, "duration": 12, "velocity": 64}, {"time": 72, "pitch": 71, "duration": 12, "velocity": 64}, {"time": 84, "pitch": 66, "duration": 12, "velocity": 64}, {"time": 96, "pitch": 71, "duration": 24, "velocity": 64}, {"time": 120, "pitch": 73, "duration": 24, "velocity": 64}, {"time": 144, "pitch": 73, "duration": 9, "velocity": 64}, {"time": 153, "pitch": 71, "duration": 3, "velocity": 64}, {"time": 156, "pitch": 69, "duration": 12, "velocity": 64}, {"time": 168, "pitch": 71, "duration": 12, "velocity": 64}, {"time": 180, "pitch": 71, "duration": 12, "velocity": 64}, {"time": 192, "pitch": 71, "duration": 24, "velocity": 64}, {"time": 216, "pitch": 71, "duration": 12, "velocity": 64}, {"time": 228, "pitch": 71, "duration": 12, "velocity": 64}, {"time": 240, "pitch": 73, "duration": 18, "velocity": 64}, {"time": 258, "pitch": 71, "duration": 6, "velocity": 64}, {"time": 264, "pitch": 66, "duration": 12, "velocity": 64}, {"time": 276, "pitch": 71, "duration": 12, "velocity": 64}, {"time": 288, "pitch": 71, "duration": 24, "velocity": 64}, {"time": 312, "pitch": 71, "duration": 12, "velocity": 64}, {"time": 324, "pitch": 71, "duration": 12, "velocity": 64}, {"time": 336, "pitch": 73, "duration": 18, "velocity": 64}, {"time": 354, "pitch": 71, "duration": 6, "velocity": 64}, {"time": 360, "pitch": 66, "duration": 12, "velocity": 64}, {"time": 372, "pitch": 66, "duration": 12, "velocity": 64}, {"time": 384, "pitch": 66, "duration": 12, "velocity": 64}, {"time": 396, "pitch": 71, "duration": 12, "velocity": 64}, {"time": 408, "pitch": 73, "duration": 24, "velocity": 64}, {"time": 432, "pitch": 73, "duration": 9, "velocity": 64}, {"time": 441, "pitch": 71, "duration": 3, "velocity": 64}, {"time": 444, "pitch": 69, "duration": 12, "velocity": 64}, {"time": 456, "pitch": 71, "duration": 12, "velocity": 64}, {"time": 468, "pitch": 71, "duration": 12, "velocity": 64}, {"time": 480, "pitch": 66, "duration": 12, "velocity": 64}, {"time": 492, "pitch": 71, "duration": 12, "velocity": 64}, {"time": 504, "pitch": 73, "duration": 24, "velocity": 64}, {"time": 528, "pitch": 73, "duration": 9, "velocity": 64}, {"time": 537, "pitch": 71, "duration": 3, "velocity": 64}, {"time": 540, "pitch": 69, "duration": 12, "velocity": 64}, {"time": 552, "pitch": 71, "duration": 12, "velocity": 64}, {"time": 564, "pitch": 71, "duration": 12, "velocity": 64}, {"time": 576, "pitch": 66, "duration": 12, "velocity": 64}, {"time": 588, "pitch": 66, "duration": 9, "velocity": 64}, {"time": 597, "pitch": 71, "duration": 3, "velocity": 64}, {"time": 600, "pitch": 69, "duration": 12, "velocity": 64}, {"time": 612, "pitch": 66, "duration": 12, "velocity": 64}, {"time": 624, "pitch": 66, "duration": 12, "velocity": 64}, {"time": 636, "pitch": 69, "duration": 12, "velocity": 64}, {"time": 648, "pitch": 71, "duration": 12, "velocity": 64}, {"time": 660, "pitch": 71, "duration": 12, "velocity": 64}, {"time": 672, "pitch": 66, "duration": 12, "velocity": 64}, {"time": 684, "pitch": 66, "duration": 12, "velocity": 64}, {"time": 696, "pitch": 69, "duration": 12, "velocity": 64}, {"time": 708, "pitch": 66, "duration": 12, "velocity": 64}, {"time": 720, "pitch": 66, "duration": 12, "velocity": 64}, {"time": 732, "pitch": 69, "duration": 12, "velocity": 64}, {"time": 744, "pitch": 71, "duration": 12, "velocity": 64}, {"time": 756, "pitch": 71, "duration": 12, "velocity": 64}, {"time": 768, "pitch": 73, "duration": 24, "velocity": 64}, {"time": 792, "pitch": 76, "duration": 12, "velocity": 64}, {"time": 804, "pitch": 71, "duration": 12, "velocity": 64}, {"time": 816, "pitch": 73, "duration": 18, "velocity": 64}, {"time": 834, "pitch": 71, "duration": 6, "velocity": 64}, {"time": 840, "pitch": 71, "duration": 12, "velocity": 64}, {"time": 852, "pitch": 71, "duration": 12, "velocity": 64}, {"time": 864, "pitch": 78, "duration": 12, "velocity": 64}, {"time": 876, "pitch": 76, "duration": 12, "velocity": 64}, {"time": 888, "pitch": 73, "duration": 12, "velocity": 64}, {"time": 900, "pitch": 76, "duration": 12, "velocity": 64}, {"time": 912, "pitch": 73, "duration": 18, "velocity": 64}, {"time": 930, "pitch": 71, "duration": 6, "velocity": 64}, {"time": 936, "pitch": 71, "duration": 12, "velocity": 64}, {"time": 948, "pitch": 71, "duration": 12, "velocity": 64}, {"time": 960, "pitch": 71, "duration": 12, "velocity": 64}, {"time": 972, "pitch": 76, "duration": 12, "velocity": 64}, {"time": 984, "pitch": 73, "duration": 12, "velocity": 64}, {"time": 996, "pitch": 71, "duration": 12, "velocity": 64}, {"time": 1008, "pitch": 66, "duration": 6, "velocity": 64}, {"time": 1014, "pitch": 76, "duration": 6, "velocity": 64}, {"time": 1020, "pitch": 73, "duration": 4, "velocity": 64}, {"time": 1024, "pitch": 76, "duration": 4, "velocity": 64}, {"time": 1028, "pitch": 73, "duration": 4, "velocity": 64}, {"time": 1032, "pitch": 71, "duration": 12, "velocity": 64}, {"time": 1044, "pitch": 71, "duration": 12, "velocity": 64}, {"time": 1056, "pitch": 78, "duration": 18, "velocity": 64}, {"time": 1074, "pitch": 76, "duration": 6, "velocity": 64}, {"time": 1080, "pitch": 73, "duration": 12, "velocity": 64}, {"time": 1092, "pitch": 76, "duration": 12, "velocity": 64}, {"time": 1104, "pitch": 73, "duration": 18, "velocity": 64}, {"time": 1122, "pitch": 71, "duration": 6, "velocity": 64}, {"time": 1128, "pitch": 71, "duration": 12, "velocity": 64}, {"time": 1140, "pitch": 71, "duration": 12, "velocity": 64}, {"time": 1152, "pitch": 76, "duration": 12, "velocity": 64}, {"time": 1164, "pitch": 71, "duration": 12, "velocity": 64}, {"time": 1176, "pitch": 73, "duration": 12, "velocity": 64}, {"time": 1188, "pitch": 71, "duration": 12, "velocity": 64}, {"time": 1200, "pitch": 71, "duration": 12, "velocity": 64}, {"time": 1212, "pitch": 76, "duration": 12, "velocity": 64}, {"time": 1224, "pitch": 73, "duration": 12, "velocity": 64}, {"time": 1236, "pitch": 71, "duration": 6, "velocity": 64}, {"time": 1242, "pitch": 71, "duration": 6, "velocity": 64}, {"time": 1248, "pitch": 73, "duration": 12, "velocity": 64}, {"time": 1260, "pitch": 71, "duration": 12, "velocity": 64}, {"time": 1272, "pitch": 66, "duration": 12, "velocity": 64}, {"time": 1284, "pitch": 71, "duration": 12, "velocity": 64}, {"time": 1296, "pitch": 73, "duration": 24, "velocity": 64}, {"time": 1320, "pitch": 71, "duration": 12, "velocity": 64}, {"time": 1332, "pitch": 71, "duration": 12, "velocity": 64}, {"time": 1344, "pitch": 76, "duration": 12, "velocity": 64}, {"time": 1356, "pitch": 71, "duration": 6, "velocity": 64}, {"time": 1362, "pitch": 76, "duration": 6, "velocity": 64}, {"time": 1368, "pitch": 73, "duration": 18, "velocity": 64}, {"time": 1386, "pitch": 71, "duration": 6, "velocity": 64}, {"time": 1392, "pitch": 71, "duration": 12, "velocity": 64}, {"time": 1404, "pitch": 76, "duration": 12, "velocity": 64}, {"time": 1416, "pitch": 73, "duration": 12, "velocity": 64}, {"time": 1428, "pitch": 71, "duration": 6, "velocity": 64}, {"time": 1434, "pitch": 71, "duration": 6, "velocity": 64}, {"time": 1440, "pitch": 78, "duration": 12, "velocity": 64}, {"time": 1452, "pitch": 76, "duration": 12, "velocity": 64}, {"time": 1464, "pitch": 73, "duration": 12, "velocity": 64}, {"time": 1476, "pitch": 76, "duration": 12, "velocity": 64}, {"time": 1488, "pitch": 71, "duration": 18, "velocity": 64}, {"time": 1506, "pitch": 76, "duration": 6, "velocity": 64}, {"time": 1512, "pitch": 73, "duration": 24, "velocity": 64}]}]}