{"metadata": {"schema_version": "0.1", "title": "Wuge fang yang", "source_format": "abc"}, "resolution": 24, "tempos": [{"time": 0, "qpm": 120.0}], "key_signatures": [{"time": 0, "root": 9, "mode": "major", "fifths": 3}], "time_signatures": [{"time": 0, "numerator": 2, "denominator": 4}], "beats": [{"time": 0, "is_downbeat": true}, {"time": 24, "is_downbeat": false}, {"time": 48, "is_downbeat": true}, {"time": 72, "is_downbeat": false}, {"time": 96, "is_downbeat": true}, {"time": 120, "is_downbeat": false}, {"time": 144, "is_downbeat": true}, {"time": 168, "is_downbeat": false}, {"time": 192, "is_downbeat": true}, {"time": 216, "is_downbeat": false}, {"time": 240, "is_downbeat": true}, {"time": 264, "is_downbeat": false}, {"time": 288, "is_downbeat": true}, {"time": 312, "is_downbeat": false}, {"time": 336, "is_downbeat": true}, {"time": 360, "is_downbeat": false}, {"time": 384, "is_downbeat": true}, {"time": 408, "is_downbeat": false}, {"time": 432, "is_downbeat": true}, {"time": 456, "is_downbeat": false}, {"time": 480, "is_downbeat": true}, {"time": 504, "is_downbeat": false}, {"time": 528, "is_downbeat": true}, {"time": 552, "is_downbeat": false}, {"time": 576, "is_downbeat": true}, {"time": 600, "is_downbeat": false}, {"time": 624, "is_downbeat": true}, {"time": 648, "is_downbeat": false}, {"time": 672, "is_downbeat": true}, {"time": 696, "is_downbeat": false}, {"time": 720, "is_downbeat": true}, {"time": 744, "is_downbeat": false}, {"time": 768, "is_downbeat": true}, {"time": 792, "is_downbeat": false}, {"time": 816, "is_downbeat": true}, {"time": 840, "is_downbeat": false}, {"time": 864, "is_downbeat": true}, {"time": 888, "is_downbeat": false}, {"time": 912, "is_downbeat": true}, {"time": 936, "is_downbeat": false}, {"time": 960, "is_downbeat": true}, {"time": 984, "is_downbeat": false}, {"time": 1008, "is_downbeat": true}, {"time": 1032, "is_downbeat": false}, {"time": 1056, "is_downbeat": true}, {"time": 1080, "is_downbeat": false}, {"time": 1104, "is_downbeat": true}, {"time": 1128, "is_downbeat": false}, {"time": 1152, "is_downbeat": true}, {"time": 1176, "is_downbeat": false}, {"time": 1200, "is_downbeat": true}, {"time": 1224, "is_downbeat": false}, {"time": 1248, "is_downbeat": true}, {"time": 1272, "is_downbeat": false}, {"time": 1296, "is_downbeat": true}, {"time": 1320, "is_downbeat": false}, {"time": 1344, "is_downbeat": true}, {"time": 1368, "is_downbeat": false}, {"time": 1392, "is_downbeat": true}, {"time": 1416, "is_downbeat": false}, {"time": 1440, "is_downbeat": true}, {"time": 1464, "is_downbeat": false}, {"time": 1488, "is_downbeat": true}, {"time": 1512, "is_downbeat": false}, {"time": 1536, "is_downbeat": true}, {"time": 1560, "is_downbeat": false}, {"time": 1584, "is_downbeat": true}, {"time": 1608, "is_downbeat": false}, {"time": 1632, "is_downbeat": true}, {"time": 1656, "is_downbeat": false}, {"time": 1680, "is_downbeat": true}, {"time": 1704, "is_downbeat": false}, {"time": 1728, "is_downbeat": true}, {"time": 1752, "is_downbeat": false}, {"time": 1776, "is_downbeat": true}, {"time": 1800, "is_downbeat": false}, {"time": 1824, "is_downbeat": true}, {"time": 1848, "is_downbeat": false}, {"time": 1872, "is_downbeat": true}, {"time": 1896, "is_downbeat": false}, {"time": 1920, "is_downbeat": true}, {"time": 1944, "is_downbeat": false}, {"time": 1968, "is_downbeat": true}, {"time": 1992, "is_downbeat": false}, {"time": 2016, "is_downbeat": true}, {"time": 2040, "is_downbeat": false}, {"time": 2064, "is_downbeat": true}, {"time": 2088, "is_downbeat": false}, {"time": 2112, "is_downbeat": true}, {"time": 2136, "is_downbeat": false}, {"time": 2160, "is_downbeat": true}, {"time": 2184, "is_downbeat": false}, {"time": 2208, "is_downbeat": true}, {"time": 2232, "is_downbeat": false}, {"time": 2256, "is_downbeat": true}, {"time": 2280, "is_downbeat": false}, {"time": 2304, "is_downbeat": true}, {"time": 2328, "is_downbeat": false}, {"time": 2352, "is_downbeat": true}, {"time": 2376, "is_downbeat": false}, {"time": 2400, "is_downbeat": true}, {"time": 2424, "is_downbeat": false}, {"time": 2448, "is_downbeat": true}, {"time": 2472, "is_downbeat": false}, {"time": 2496, "is_downbeat": true}, {"time": 2520, "is_downbeat": false}, {"time": 2544, "is_downbeat": true}, {"time": 2568, "is_downbeat": false}, {"time": 2592, "is_downbeat": true}, {"time": 2616, "is_downbeat": false}, {"time": 2640, "is_downbeat": true}, {"time": 2664, "is_downbeat": false}, {"time": 2688, "is_downbeat": true}, {"time": 2712, "is_downbeat": false}, {"time": 2736, "is_downbeat": true}, {"time": 2760, "is_downbeat": false}, {"time": 2784, "is_downbeat": true}, {"time": 2808, "is_downbeat": false}, {"time": 2832, "is_downbeat": true}, {"time": 2856, "is_downbeat": false}, {"time": 2880, "is_downbeat": true}, {"time": 2904, "is_downbeat": false}, {"time": 2928, "is_downbeat": true}, {"time": 2952, "is_downbeat": false}, {"time": 2976, "is_downbeat": true}, {"time": 3000, "is_downbeat": false}, {"time": 3024, "is_downbeat": true}, {"time": 3048, "is_downbeat": false}, {"time": 3072, "is_downbeat": true}, {"time": 3096, "is_downbeat": false}, {"time": 3120, "is_downbeat": true}, {"time": 3144, "is_downbeat": false}, {"time": 3168, "is_downbeat": true}, {"time": 3192, "is_downbeat": false}, {"time": 3216, "is_downbeat": true}, {"time": 3240, "is_downbeat": false}, {"time": 3264, "is_downbeat": true}, {"time": 3288, "is_downbeat": false}, {"time": 3312, "is_downbeat": true}, {"time": 3336, "is_downbeat": false}, {"time": 3360, "is_downbeat": true}, {"time": 3384, "is_downbeat": false}, {"time": 3408, "is_downbeat": true}, {"time": 3432, "is_downbeat": false}, {"time": 3456, "is_downbeat": true}, {"time": 3480, "is_downbeat": false}, {"time": 3504, "is_downbeat": true}, {"time": 3528, "is_downbeat": false}, {"time": 3552, "is_downbeat": true}, {"time": 3576, "is_downbeat": false}, {"time": 3600, "is_downbeat": true}, {"time": 3624, "is_downbeat": false}, {"time": 3648, "is_downbeat": true}, {"time": 3672, "is_downbeat": false}, {"time": 3696, "is_downbeat": true}, {"time": 3720, "is_downbeat": false}, {"time": 3744, "is_downbeat": true}, {"time": 3768, "is_downbeat": false}, {"time": 3792, "is_downbeat": true}, {"time": 3816, "is_downbeat": false}, {"time": 3840, "is_downbeat": true}, {"time": 3864, "is_downbeat": false}, {"time": 3888, "is_downbeat": true}, {"time": 3912, "is_downbeat": false}, {"time": 3936, "is_downbeat": true}, {"time": 3960, "is_downbeat": false}, {"time": 3984, "is_downbeat": true}, {"time": 4008, "is_downbeat": false}, {"time": 4032, "is_downbeat": true}, {"time": 4056, "is_downbeat": false}, {"time": 4080, "is_downbeat": true}, {"time": 4104, "is_downbeat": false}, {"time": 4128, "is_downbeat": true}, {"time": 4152, "is_downbeat": false}, {"time": 4176, "is_downbeat": true}, {"time": 4200, "is_downbeat": false}, {"time": 4224, "is_downbeat": true}, {"time": 4248, "is_downbeat": false}, {"time": 4272, "is_downbeat": true}, {"time": 4296, "is_downbeat": false}, {"time": 4320, "is_downbeat": true}, {"time": 4344, "is_downbeat": false}, {"time": 4368, "is_downbeat": true}, {"time": 4392, "is_downbeat": false}, {"time": 4416, "is_downbeat": true}, {"time": 4440, "is_downbeat": false}, {"time": 4464, "is_downbeat": true}, {"time": 4488, "is_downbeat": false}, {"time": 4512, "is_downbeat": true}, {"time": 4536, "is_downbeat": false}, {"time": 4560, "is_downbeat": true}, {"time": 4584, "is_downbeat": false}, {"time": 4608, "is_downbeat": true}, {"time": 4632, "is_downbeat": false}, {"time": 4656, "is_downbeat": true}, {"time": 4680, "is_downbeat": false}, {"time": 4704, "is_downbeat": true}, {"time": 4728, "is_downbeat": false}, {"time": 4752, "is_downbeat": true}, {"time": 4776, "is_downbeat": false}, {"time": 4800, "is_downbeat": true}, {"time": 4824, "is_downbeat": false}, {"time": 4848, "is_downbeat": true}, {"time": 4872, "is_downbeat": false}, {"time": 4896, "is_downbeat": true}, {"time": 4920, "is_downbeat": false}], "tracks": [{"program": 0, "is_drum": false, "notes": [{"time": 0, "pitch": 73, "duration": 12, "velocity": 64}, {"time": 12, "pitch": 76, "duration": 12, "velocity": 64}, {"time": 24, "pitch": 81, "duration": 18, "velocity": 64}, {"time": 42, "pitch": 78, "duration": 6, "velocity": 64}, {"time": 48, "pitch": 76, "duration": 48, "velocity": 64}, {"time": 96, "pitch": 78, "duration": 6, "velocity": 64}, {"time": 102, "pitch": 81, "duration": 6, "velocity": 64}, {"time": 108, "pitch": 78, "duration": 6, "velocity": 64}, {"time": 114, "pitch": 76, "duration": 6, "velocity": 64}, {"time": 120, "pitch": 73, "duration": 6, "velocity": 64}, {"time": 126, "pitch": 76, "duration": 12, "velocity": 64}, {"time": 138, "pitch": 66, "duration": 6, "velocity": 64}, {"time": 144, "pitch": 66, "duration": 12, "velocity": 64}, {"time": 156, "pitch": 69, "duration": 36, "velocity": 64}, {"time": 192, "pitch": 71, "duration": 18, "velocity": 64}, {"time": 210, "pitch": 73, "duration": 6, "velocity": 64}, {"time": 216, "pitch": 73, "duration": 18, "velocity": 64}, {"time": 234, "pitch": 81, "duration": 6, "velocity": 64}, {"time": 240, "pitch": 78, "duration": 12, "velocity": 64}, {"time": 252, "pitch": 76, "duration": 12, "velocity": 64}, {"time": 264, "pitch": 73, "duration": 12, "velocity": 64}, {"time": 276, "pitch": 66, "duration": 12, "velocity": 64}, {"time": 288, "pitch": 76, "duration": 12, "velocity": 64}, {"time": 300, "pitch": 69, "duration": 12, "velocity": 64}, {"time": 312, "pitch": 73, "duration": 6, "velocity": 64}, {"time": 318, "pitch": 76, "duration": 6, "velocity": 64}, {"time": 324, "pitch": 66, "duration": 6, "velocity": 64}, {"time": 330, "pitch": 69, "duration": 6, "velocity": 64}, {"time": 336, "pitch": 69, "duration": 12, "velocity": 64}, {"time": 348, "pitch": 64, "duration": 36, "velocity": 64}, {"time": 384, "pitch": 71, "duration": 12, "velocity": 64}, {"time": 396, "pitch": 71, "duration": 24, "velocity": 64}, {"time": 420, "pitch": 73, "duration": 6, "velocity": 64}, {"time": 426, "pitch": 76, "duration": 6, "velocity": 64}, {"time": 432, "pitch": 71, "duration": 12, "velocity": 64}, {"time": 444, "pitch": 71, "duration": 24, "velocity": 64}, {"time": 468, "pitch": 73, "duration": 6, "velocity": 64}, {"time": 474, "pitch": 76, "duration": 6, "velocity": 64}, {"time": 480, "pitch": 66, "duration": 18, "velocity": 64}, {"time": 498, "pitch": 69, "duration": 6, "velocity": 64}, {"time": 504, "pitch": 66, "duration": 12, "velocity": 64}, {"time": 516, "pitch": 64, "duration": 12, "velocity": 64}, {"time": 528, "pitch": 76, "duration": 48, "velocity": 64}, {"time": 576, "pitch": 73, "duration": 18, "velocity": 64}, {"time": 594, "pitch": 81, "duration": 6, "velocity": 64}, {"time": 600, "pitch": 78, "duration": 12, "velocity": 64}, {"time": 612, "pitch": 76, "duration": 6, "velocity": 64}, {"time": 618, "pitch": 78, "duration": 6, "velocity": 64}, {"time": 624, "pitch": 69, "duration": 12, "velocity": 64}, {"time": 636, "pitch": 66, "duration": 24, "velocity": 64}, {"time": 660, "pitch": 73, "duration": 6, "velocity": 64}, {"time": 666, "pitch": 76, "duration": 6, "velocity": 64}, {"time": 672, "pitch": 71, "duration": 6, "velocity": 64}, {"time": 678, "pitch": 69, "duration": 6, "velocity": 64}, {"time": 684, "pitch": 71, "duration": 24, "velocity": 64}, {"time": 708, "pitch": 71, "duration": 6, "velocity": 64}, {"time": 714, "pitch": 73, "duration": 6, "velocity": 64}, {"time": 720, "pitch": 76, "duration": 12, "velocity": 64}, {"time": 732, "pitch": 69, "duration": 12, "velocity": 64}, {"time": 744, "pitch": 73, "duration": 6, "velocity": 64}, {"time": 750, "pitch": 76, "duration": 6, "velocity": 64}, {"time": 756, "pitch": 66, "duration": 6, "velocity": 64}, {"time": 762, "pitch": 69, "duration": 6, "velocity": 64}, {"time": 768, "pitch": 69, "duration": 12, "velocity": 64}, {"time": 780, "pitch": 64, "duration": 36, "velocity": 64}, {"time": 816, "pitch": 71, "duration": 12, "velocity": 64}, {"time": 828, "pitch": 71, "duration": 24, "velocity": 64}, {"time": 852, "pitch": 73, "duration": 6, "velocity": 64}, {"time": 858, "pitch": 76, "duration": 6, "velocity": 64}, {"time": 864, "pitch": 71, "duration": 12, "velocity": 64}, {"time": 876, "pitch": 71, "duration": 24, "velocity": 64}, {"time": 900, "pitch": 73, "duration": 6, "velocity": 64}, {"time": 906, "pitch": 76, "duration": 6, "velocity": 64}, {"time": 912, "pitch": 66, "duration": 18, "velocity": 64}, {"time": 930, "pitch": 69, "duration": 6, "velocity": 64}, {"time": 936, "pitch": 66, "duration": 12, "velocity": 64}, {"time": 948, "pitch": 64, "duration": 12, "velocity": 64}, {"time": 960, "pitch": 76, "duration": 48, "velocity": 64}, {"time": 1008, "pitch": 73, "duration": 18, "velocity": 64}, {"time": 1026, "pitch": 81, "duration": 6, "velocity": 64}, {"time": 1032, "pitch": 78, "duration": 12, "velocity": 64}, {"time": 1044, "pitch": 76, "duration": 6, "velocity": 64}, {"time": 1050, "pitch": 78, "duration": 6, "velocity": 64}, {"time": 1056, "pitch": 69, "duration": 12, "velocity": 64}, {"time": 1068, "pitch": 66, "duration": 24, "velocity": 64}, {"time": 1092, "pitch": 73, "duration": 6, "velocity": 64}, {"time": 1098, "pitch": 76, "duration": 6, "velocity": 64}, {"time": 1104, "pitch": 71, "duration": 6, "velocity": 64}, {"time": 1110, "pitch": 69, "duration": 6, "velocity": 64}, {"time": 1116, "pitch": 71, "duration": 24, "velocity": 64}, {"time": 1140, "pitch": 71, "duration": 6, "velocity": 64}, {"time": 1146, "pitch": 73, "duration": 6, "velocity": 64}, {"time": 1152, "pitch": 76, "duration": 12, "velocity": 64}, {"time": 1164, "pitch": 69, "duration": 12, "velocity": 64}, {"time": 1176, "pitch": 73, "duration": 6, "velocity": 64}, {"time": 1182, "pitch": 76, "duration": 6, "velocity": 64}, {"time": 1188, "pitch": 66, "duration": 6, "velocity": 64}, {"time": 1194, "pitch": 69, "duration": 6, "velocity": 64}, {"time": 1200, "pitch": 69, "duration": 12, "velocity": 64}, {"time": 1212, "pitch": 64, "duration": 36, "velocity": 64}, {"time": 1248, "pitch": 73, "duration": 12, "velocity": 64}, {"time": 1260, "pitch": 76, "duration": 12, "velocity": 64}, {"time": 1272, "pitch": 81, "duration": 18, "velocity": 64}, {"time": 1290, "pitch": 78, "duration": 6, "velocity": 64}, {"time": 1296, "pitch": 76, "duration": 48, "velocity": 64}, {"time": 1344, "pitch": 81, "duration": 36, "velocity": 64}, {"time": 1380, "pitch": 66, "duration": 12, "velocity": 64}, {"time": 1392, "pitch": 66, "duration": 12, "velocity": 64}, {"time": 1404, "pitch": 69, "duration": 36, "velocity": 64}, {"time": 1440, "pitch": 71, "duration": 18, "velocity": 64}, {"time": 1458, "pitch": 73, "duration": 6, "velocity": 64}, {"time": 1464, "pitch": 73, "duration": 18, "velocity": 64}, {"time": 1482, "pitch": 81, "duration": 6, "velocity": 64}, {"time": 1488, "pitch": 78, "duration": 12, "velocity": 64}, {"time": 1500, "pitch": 76, "duration": 12, "velocity": 64}, {"time": 1512, "pitch": 73, "duration": 12, "velocity": 64}, {"time": 1524, "pitch": 66, "duration": 12, "velocity": 64}, {"time": 1536, "pitch": 76, "duration": 12, "velocity": 64}, {"time": 1548, "pitch": 69, "duration": 12, "velocity": 64}, {"time": 1560, "pitch": 73, "duration": 18, "velocity": 64}, {"time": 1578, "pitch": 66, "duration": 6, "velocity": 64}, {"time": 1584, "pitch": 69, "duration": 12, "velocity": 64}, {"time": 1596, "pitch": 64, "duration": 36, "velocity": 64}, {"time": 1632, "pitch": 71, "duration": 12, "velocity": 64}, {"time": 1644, "pitch": 71, "duration": 24, "velocity": 64}, {"time": 1668, "pitch": 73, "duration": 6, "velocity": 64}, {"time": 1674, "pitch": 76, "duration": 6, "velocity": 64}, {"time": 1680, "pitch": 71, "duration": 12, "velocity": 64}, {"time": 1692, "pitch": 71, "duration": 24, "velocity": 64}, {"time": 1716, "pitch": 73, "duration": 6, "velocity": 64}, {"time": 1722, "pitch": 76, "duration": 6, "velocity": 64}, {"time": 1728, "pitch": 66, "duration": 18, "velocity": 64}, {"time": 1746, "pitch": 69, "duration": 6, "velocity": 64}, {"time": 1752, "pitch": 66, "duration": 12, "velocity": 64}, {"time": 1764, "pitch": 64, "duration": 12, "velocity": 64}, {"time": 1776, "pitch": 76, "duration": 48, "velocity": 64}, {"time": 1824, "pitch": 73, "duration": 18, "velocity": 64}, {"time": 1842, "pitch": 81, "duration": 6, "velocity": 64}, {"time": 1848, "pitch": 78, "duration": 12, "velocity": 64}, {"time": 1860, "pitch": 76, "duration": 6, "velocity": 64}, {"time": 1866, "pitch": 78, "duration": 6, "velocity": 64}, {"time": 1872, "pitch": 73, "duration": 6, "velocity": 64}, {"time": 1878, "pitch": 76, "duration": 6, "velocity": 64}, {"time": 1884, "pitch": 66, "duration": 24, "velocity": 64}, {"time": 1908, "pitch": 73, "duration": 6, "velocity": 64}, {"time": 1914, "pitch": 76, "duration": 6, "velocity": 64}, {"time": 1920, "pitch": 71, "duration": 6, "velocity": 64}, {"time": 1926, "pitch": 69, "duration": 6, "velocity": 64}, {"time": 1932, "pitch": 71, "duration": 24, "velocity": 64}, {"time": 1956, "pitch": 71, "duration": 6, "velocity": 64}, {"time": 1962, "pitch": 73, "duration": 6, "velocity": 64}, {"time": 1968, "pitch": 76, "duration": 12, "velocity": 64}, {"time": 1980, "pitch": 69, "duration": 12, "velocity": 64}, {"time": 1992, "pitch": 73, "duration": 18, "velocity": 64}, {"time": 2010, "pitch": 66, "duration": 6, "velocity": 64}, {"time": 2016, "pitch": 69, "duration": 12, "velocity": 64}, {"time": 2028, "pitch": 64, "duration": 36, "velocity": 64}, {"time": 2064, "pitch": 73, "duration": 12, "velocity": 64}, {"time": 2076, "pitch": 76, "duration": 12, "velocity": 64}, {"time": 2088, "pitch": 81, "duration": 18, "velocity": 64}, {"time": 2106, "pitch": 78, "duration": 6, "velocity": 64}, {"time": 2112, "pitch": 76, "duration": 18, "velocity": 64}, {"time": 2130, "pitch": 78, "duration": 6, "velocity": 64}, {"time": 2136, "pitch": 81, "duration": 12, "velocity": 64}, {"time": 2148, "pitch": 83, "duration": 12, "velocity": 64}, {"time": 2160, "pitch": 78, "duration": 12, "velocity": 64}, {"time": 2172, "pitch": 74, "duration": 12, "velocity": 64}, {"time": 2184, "pitch": 73, "duration": 12, "velocity": 64}, {"time": 2196, "pitch": 66, "duration": 12, "velocity": 64}, {"time": 2208, "pitch": 69, "duration": 36, "velocity": 64}, {"time": 2244, "pitch": 66, "duration": 12, "velocity": 64}, {"time": 2256, "pitch": 71, "duration": 18, "velocity": 64}, {"time": 2274, "pitch": 73, "duration": 6, "velocity": 64}, {"time": 2280, "pitch": 73, "duration": 18, "velocity": 64}, {"time": 2298, "pitch": 81, "duration": 6, "velocity": 64}, {"time": 2304, "pitch": 78, "duration": 12, "velocity": 64}, {"time": 2316, "pitch": 76, "duration": 12, "velocity": 64}, {"time": 2328, "pitch": 73, "duration": 12, "velocity": 64}, {"time": 2340, "pitch": 66, "duration": 12, "velocity": 64}, {"time": 2352, "pitch": 76, "duration": 12, "velocity": 64}, {"time": 2364, "pitch": 69, "duration": 12, "velocity": 64}, {"time": 2376, "pitch": 73, "duration": 6, "velocity": 64}, {"time": 2382, "pitch": 76, "duration": 6, "velocity": 64}, {"time": 2388, "pitch": 66, "duration": 6, "velocity": 64}, {"time": 2394, "pitch": 69, "duration": 6, "velocity": 64}, {"time": 2400, "pitch": 69, "duration": 12, "velocity": 64}, {"time": 2412, "pitch": 64, "duration": 36, "velocity": 64}, {"time": 2448, "pitch": 71, "duration": 12, "velocity": 64}, {"time": 2460, "pitch": 71, "duration": 24, "velocity": 64}, {"time": 2484, "pitch": 73, "duration": 6, "velocity": 64}, {"time": 2490, "pitch": 76, "duration": 6, "velocity": 64}, {"time": 2496, "pitch": 71, "duration": 12, "velocity": 64}, {"time": 2508, "pitch": 71, "duration": 24, "velocity": 64}, {"time": 2532, "pitch": 73, "duration": 6, "velocity": 64}, {"time": 2538, "pitch": 76, "duration": 6, "velocity": 64}, {"time": 2544, "pitch": 66, "duration": 18, "velocity": 64}, {"time": 2562, "pitch": 69, "duration": 6, "velocity": 64}, {"time": 2568, "pitch": 66, "duration": 12, "velocity": 64}, {"time": 2580, "pitch": 64, "duration": 12, "velocity": 64}, {"time": 2592, "pitch": 76, "duration": 48, "velocity": 64}, {"time": 2640, "pitch": 73, "duration": 18, "velocity": 64}, {"time": 2658, "pitch": 81, "duration": 6, "velocity": 64}, {"time": 2664, "pitch": 78, "duration": 12, "velocity": 64}, {"time": 2676, "pitch": 76, "duration": 6, "velocity": 64}, {"time": 2682, "pitch": 78, "duration": 6, "velocity": 64}, {"time": 2688, "pitch": 69, "duration": 12, "velocity": 64}, {"time": 2700, "pitch": 66, "duration": 24, "velocity": 64}, {"time": 2724, "pitch": 73, "duration": 6, "velocity": 64}, {"time": 2730, "pitch": 76, "duration": 6, "velocity": 64}, {"time": 2736, "pitch": 71, "duration": 6, "velocity": 64}, {"time": 2742, "pitch": 69, "duration": 6, "velocity": 64}, {"time": 2748, "pitch": 71, "duration": 24, "velocity": 64}, {"time": 2772, "pitch": 71, "duration": 6, "velocity": 64}, {"time": 2778, "pitch": 73, "duration": 6, "velocity": 64}, {"time": 2784, "pitch": 76, "duration": 12, "velocity": 64}, {"time": 2796, "pitch": 69, "duration": 12, "velocity": 64}, {"time": 2808, "pitch": 73, "duration": 6, "velocity": 64}, {"time": 2814, "pitch": 76, "duration": 6, "velocity": 64}, {"time": 2820, "pitch": 66, "duration": 6, "velocity": 64}, {"time": 2826, "pitch": 69, "duration": 6, "velocity": 64}, {"time": 2832, "pitch": 69, "duration": 12, "velocity": 64}, {"time": 2844, "pitch": 64, "duration": 36, "velocity": 64}, {"time": 2880, "pitch": 73, "duration": 12, "velocity": 64}, {"time": 2892, "pitch": 76, "duration": 12, "velocity": 64}, {"time": 2904, "pitch": 81, "duration": 18, "velocity": 64}, {"time": 2922, "pitch": 78, "duration": 6, "velocity": 64}, {"time": 2928, "pitch": 76, "duration": 36, "velocity": 64}, {"time": 2964, "pitch": 73, "duration": 12, "velocity": 64}, {"time": 2976, "pitch": 78, "duration": 12, "velocity": 64}, {"time": 2988, "pitch": 74, "duration": 12, "velocity": 64}, {"time": 3000, "pitch": 73, "duration": 12, "velocity": 64}, {"time": 3012, "pitch": 71, "duration": 6, "velocity": 64}, {"time": 3018, "pitch": 73, "duration": 6, "velocity": 64}, {"time": 3024, "pitch": 69, "duration": 48, "velocity": 64}, {"time": 3072, "pitch": 71, "duration": 18, "velocity": 64}, {"time": 3090, "pitch": 73, "duration": 6, "velocity": 64}, {"time": 3096, "pitch": 76, "duration": 12, "velocity": 64}, {"time": 3108, "pitch": 81, "duration": 12, "velocity": 64}, {"time": 3120, "pitch": 78, "duration": 12, "velocity": 64}, {"time": 3132, "pitch": 76, "duration": 12, "velocity": 64}, {"time": 3144, "pitch": 74, "duration": 12, "velocity": 64}, {"time": 3156, "pitch": 73, "duration": 12, "velocity": 64}, {"time": 3168, "pitch": 76, "duration": 12, "velocity": 64}, {"time": 3180, "pitch": 69, "duration": 12, "velocity": 64}, {"time": 3192, "pitch": 73, "duration": 6, "velocity": 64}, {"time": 3198, "pitch": 76, "duration": 6, "velocity": 64}, {"time": 3204, "pitch": 66, "duration": 12, "velocity": 64}, {"time": 3216, "pitch": 69, "duration": 12, "velocity": 64}, {"time": 3228, "pitch": 68, "duration": 6, "velocity": 64}, {"time": 3234, "pitch": 66, "duration": 6, "velocity": 64}, {"time": 3240, "pitch": 64, "duration": 24, "velocity": 64}, {"time": 3264, "pitch": 71, "duration": 12, "velocity": 64}, {"time": 3276, "pitch": 71, "duration": 24, "velocity": 64}, {"time": 3300, "pitch": 73, "duration": 6, "velocity": 64}, {"time": 3306, "pitch": 76, "duration": 6, "velocity": 64}, {"time": 3312, "pitch": 71, "duration": 12, "velocity": 64}, {"time": 3324, "pitch": 71, "duration": 24, "velocity": 64}, {"time": 3348, "pitch": 73, "duration": 6, "velocity": 64}, {"time": 3354, "pitch": 76, "duration": 6, "velocity": 64}, {"time": 3360, "pitch": 66, "duration": 18, "velocity": 64}, {"time": 3378, "pitch": 69, "duration": 6, "velocity": 64}, {"time": 3384, "pitch": 66, "duration": 12, "velocity": 64}, {"time": 3396, "pitch": 64, "duration": 12, "velocity": 64}, {"time": 3408, "pitch": 76, "duration": 48, "velocity": 64}, {"time": 3456, "pitch": 73, "duration": 18, "velocity": 64}, {"time": 3474, "pitch": 81, "duration": 6, "velocity": 64}, {"time": 3480, "pitch": 78, "duration": 12, "velocity": 64}, {"time": 3492, "pitch": 76, "duration": 6, "velocity": 64}, {"time": 3498, "pitch": 78, "duration": 6, "velocity": 64}, {"time": 3504, "pitch": 69, "duration": 12, "velocity": 64}, {"time": 3516, "pitch": 66, "duration": 24, "velocity": 64}, {"time": 3540, "pitch": 73, "duration": 6, "velocity": 64}, {"time": 3546, "pitch": 76, "duration": 6, "velocity": 64}, {"time": 3552, "pitch": 71, "duration": 6, "velocity": 64}, {"time": 3558, "pitch": 69, "duration": 6, "velocity": 64}, {"time": 3564, "pitch": 71, "duration": 24, "velocity": 64}, {"time": 3588, "pitch": 71, "duration": 6, "velocity": 64}, {"time": 3594, "pitch": 73, "duration": 6, "velocity": 64}, {"time": 3600, "pitch": 76, "duration": 12, "velocity": 64}, {"time": 3612, "pitch": 69, "duration": 12, "velocity": 64}, {"time": 3624, "pitch": 68, "duration": 12, "velocity": 64}, {"time": 3636, "pitch": 66, "duration": 6, "velocity": 64}, {"time": 3642, "pitch": 68, "duration": 6, "velocity": 64}, {"time": 3648, "pitch": 64, "duration": 48, "velocity": 64}, {"time": 3696, "pitch": 73, "duration": 12, "velocity": 64}, {"time": 3708, "pitch": 76, "duration": 12, "velocity": 64}, {"time": 3720, "pitch": 81, "duration": 12, "velocity": 64}, {"time": 3732, "pitch": 78, "duration": 12, "velocity": 64}, {"time": 3744, "pitch": 76, "duration": 12, "velocity": 64}, {"time": 3756, "pitch": 73, "duration": 12, "velocity": 64}, {"time": 3768, "pitch": 81, "duration": 24, "velocity": 64}, {"time": 3792, "pitch": 78, "duration": 12, "velocity": 64}, {"time": 3804, "pitch": 76, "duration": 12, "velocity": 64}, {"time": 3816, "pitch": 73, "duration": 12, "velocity": 64}, {"time": 3828, "pitch": 66, "duration": 12, "velocity": 64}, {"time": 3840, "pitch": 69, "duration": 36, "velocity": 64}, {"time": 3876, "pitch": 66, "duration": 12, "velocity": 64}, {"time": 3888, "pitch": 71, "duration": 18, "velocity": 64}, {"time": 3906, "pitch": 73, "duration": 6, "velocity": 64}, {"time": 3912, "pitch": 76, "duration": 18, "velocity": 64}, {"time": 3930, "pitch": 81, "duration": 6, "velocity": 64}, {"time": 3936, "pitch": 78, "duration": 12, "velocity": 64}, {"time": 3948, "pitch": 76, "duration": 12, "velocity": 64}, {"time": 3960, "pitch": 73, "duration": 12, "velocity": 64}, {"time": 3972, "pitch": 78, "duration": 6, "velocity": 64}, {"time": 3978, "pitch": 81, "duration": 6, "velocity": 64}, {"time": 3984, "pitch": 76, "duration": 12, "velocity": 64}, {"time": 3996, "pitch": 69, "duration": 12, "velocity": 64}, {"time": 4008, "pitch": 73, "duration": 12, "velocity": 64}, {"time": 4020, "pitch": 66, "duration": 12, "velocity": 64}, {"time": 4032, "pitch": 69, "duration": 12, "velocity": 64}, {"time": 4044, "pitch": 64, "duration": 36, "velocity": 64}, {"time": 4080, "pitch": 73, "duration": 12, "velocity": 64}, {"time": 4092, "pitch": 66, "duration": 12, "velocity": 64}, {"time": 4116, "pitch": 73, "duration": 6, "velocity": 64}, {"time": 4122, "pitch": 76, "duration": 6, "velocity": 64}, {"time": 4128, "pitch": 71, "duration": 12, "velocity": 64}, {"time": 4140, "pitch": 71, "duration": 12, "velocity": 64}, {"time": 4164, "pitch": 73, "duration": 6, "velocity": 64}, {"time": 4170, "pitch": 76, "duration": 6, "velocity": 64}, {"time": 4176, "pitch": 66, "duration": 18, "velocity": 64}, {"time": 4194, "pitch": 69, "duration": 6, "velocity": 64}, {"time": 4200, "pitch": 66, "duration": 12, "velocity": 64}, {"time": 4212, "pitch": 64, "duration": 12, "velocity": 64}, {"time": 4224, "pitch": 76, "duration": 48, "velocity": 64}, {"time": 4272, "pitch": 73, "duration": 18, "velocity": 64}, {"time": 4290, "pitch": 81, "duration": 6, "velocity": 64}, {"time": 4296, "pitch": 78, "duration": 12, "velocity": 64}, {"time": 4308, "pitch": 76, "duration": 12, "velocity": 64}, {"time": 4320, "pitch": 69, "duration": 12, "velocity": 64}, {"time": 4332, "pitch": 66, "duration": 24, "velocity": 64}, {"time": 4356, "pitch": 73, "duration": 6, "velocity": 64}, {"time": 4362, "pitch": 76, "duration": 6, "velocity": 64}, {"time": 4368, "pitch": 71, "duration": 6, "velocity": 64}, {"time": 4374, "pitch": 69, "duration": 6, "velocity": 64}, {"time": 4380, "pitch": 71, "duration": 24, "velocity": 64}, {"time": 4404, "pitch": 71, "duration": 6, "velocity": 64}, {"time": 4410, "pitch": 73, "duration": 6, "velocity": 64}, {"time": 4416, "pitch": 76, "duration": 12, "velocity": 64}, {"time": 4428, "pitch": 69, "duration": 12, "velocity": 64}, {"time": 4440, "pitch": 73, "duration": 6, "velocity": 64}, {"time": 4446, "pitch": 76, "duration": 6, "velocity": 64}, {"time": 4452, "pitch": 66, "duration": 6, "velocity": 64}, {"time": 4458, "pitch": 69, "duration": 6, "velocity": 64}, {"time": 4464, "pitch": 69, "duration": 12, "velocity": 64}, {"time": 4476, "pitch": 64, "duration": 36, "velocity": 64}, {"time": 4512, "pitch": 71, "duration": 12, "velocity": 64}, {"time": 4524, "pitch": 71, "duration": 24, "velocity": 64}, {"time": 4548, "pitch": 73, "duration": 6, "velocity": 64}, {"time": 4554, "pitch": 76, "duration": 6, "velocity": 64}, {"time": 4560, "pitch": 71, "duration": 12, "velocity": 64}, {"time": 4572, "pitch": 71, "duration": 24, "velocity": 64}, {"time": 4596, "pitch": 73, "duration": 6, "velocity": 64}, {"time": 4602, "pitch": 76, "duration": 6, "velocity": 64}, {"time": 4608, "pitch": 66, "duration": 18, "velocity": 64}, {"time": 4626, "pitch": 69, "duration": 6, "velocity": 64}, {"time": 4632, "pitch": 66, "duration": 12, "velocity": 64}, {"time": 4644, "pitch": 64, "duration": 12, "velocity": 64}, {"time": 4656, "pitch": 76, "duration": 48, "velocity": 64}, {"time": 4704, "pitch": 73, "duration": 18, "velocity": 64}, {"time": 4722, "pitch": 81, "duration": 6, "velocity": 64}, {"time": 4728, "pitch": 78, "duration": 12, "velocity": 64}, {"time": 4740, "pitch": 76, "duration": 6, "velocity": 64}, {"time": 4746, "pitch": 78, "duration": 6, "velocity": 64}, {"time": 4752, "pitch": 69, "duration": 12, "velocity": 64}, {"time": 4764, "pitch": 66, "duration": 24, "velocity": 64}, {"time": 4788, "pitch": 73, "duration": 6, "velocity": 64}, {"time": 4794, "pitch": 76, "duration": 6, "velocity": 64}, {"time": 4800, "pitch": 71, "duration": 12, "velocity": 64}, {"time": 4812, "pitch": 64, "duration": 12, "velocity": 64}, {"time": 4824, "pitch": 71, "duration": 6, "velocity": 64}, {"time": 4830, "pitch": 64, "duration": 6, "velocity": 64}, {"time": 4836, "pitch": 71, "duration": 6, "velocity": 64}, {"time": 4842, "pitch": 73, "duration": 6, "velocity": 64}, {"time": 4848, "pitch": 76, "duration": 12, "velocity": 64}, {"time": 4860, "pitch": 69, "duration": 12, "velocity": 64}, {"time": 4872, "pitch": 73, "duration": 6, "velocity": 64}, {"time": 4878, "pitch": 76, "duration": 6, "velocity": 64}, {"time": 4884, "pitch": 66, "duration": 6, "velocity": 64}, {"time": 4890, "pitch": 69, "duration": 6, "velocity": 64}, {"time": 4896, "pitch": 69, "duration": 12, "velocity": 64}, {"time": 4908, "pitch": 64, "duration": 36, "velocity": 64}]}]}