{"metadata": {"schema_version": "0.1", "title": "Kan yang ge", "source_format": "abc"}, "resolution": 24, "tempos": [{"time": 0, "qpm": 120.0}], "key_signatures": [{"time": 0, "root": 3, "mode": "major", "fifths": -3}], "time_signatures": [{"time": 0, "numerator": 4, "denominator": 4}], "beats": [{"time": 0, "is_downbeat": true}, {"time": 24, "is_downbeat": false}, {"time": 48, "is_downbeat": false}, {"time": 72, "is_downbeat": false}, {"time": 96, "is_downbeat": true}, {"time": 120, "is_downbeat": false}, {"time": 144, "is_downbeat": true}, {"time": 168, "is_downbeat": false}, {"time": 192, "is_downbeat": true}, {"time": 216, "is_downbeat": false}, {"time": 240, "is_downbeat": false}, {"time": 264, "is_downbeat": false}, {"time": 288, "is_downbeat": true}, {"time": 312, "is_downbeat": false}, {"time": 336, "is_downbeat": false}, {"time": 360, "is_downbeat": false}, {"time": 384, "is_downbeat": true}, {"time": 408, "is_downbeat": false}, {"time": 432, "is_downbeat": false}, {"time": 456, "is_downbeat": false}, {"time": 480, "is_downbeat": true}, {"time": 504, "is_downbeat": false}, {"time": 528, "is_downbeat": true}, {"time": 552, "is_downbeat": false}, {"time": 576, "is_downbeat": true}, {"time": 600, "is_downbeat": false}, {"time": 624, "is_downbeat": false}, {"time": 648, "is_downbeat": false}, {"time": 672, "is_downbeat": true}, {"time": 696, "is_downbeat": false}, {"time": 720, "is_downbeat": false}, {"time": 744, "is_downbeat": false}, {"time": 768, "is_downbeat": true}, {"time": 792, "is_downbeat": false}, {"time": 816, "is_downbeat": false}, {"time": 840, "is_downbeat": false}, {"time": 864, "is_downbeat": true}, {"time": 888, "is_downbeat": false}, {"time": 912, "is_downbeat": true}, {"time": 936, "is_downbeat": false}, {"time": 960, "is_downbeat": false}, {"time": 984, "is_downbeat": false}], "tracks": [{"program": 0, "is_drum": false, "notes": [{"time": 12, "pitch": 72, "duration": 12, "velocity": 64}, {"time": 24, "pitch": 67, "duration": 12, "velocity": 64}, {"time": 36, "pitch": 67, "duration": 6, "velocity": 64}, {"time": 42, "pitch": 67, "duration": 6, "velocity": 64}, {"time": 48, "pitch": 72, "duration": 12, "velocity": 64}, {"time": 60, "pitch": 72, "duration": 6, "velocity": 64}, {"time": 66, "pitch": 79, "duration": 6, "velocity": 64}, {"time": 72, "pitch": 75, "duration": 12, "velocity": 64}, {"time": 84, "pitch": 74, "duration": 6, "velocity": 64}, {"time": 90, "pitch": 72, "duration": 6, "velocity": 64}, {"time": 96, "pitch": 67, "duration": 12, "velocity": 64}, {"time": 108, "pitch": 79, "duration": 12, "velocity": 64}, {"time": 120, "pitch": 75, "duration": 6, "velocity": 64}, {"time": 126, "pitch": 74, "duration": 6, "velocity": 64}, {"time": 132, "pitch": 72, "duration": 6, "velocity": 64}, {"time": 138, "pitch": 74, "duration": 6, "velocity": 64}, {"time": 144, "pitch": 71, "duration": 6, "velocity": 64}, {"time": 150, "pitch": 72, "duration": 6, "velocity": 64}, {"time": 156, "pitch": 67, "duration": 24, "velocity": 64}, {"time": 180, "pitch": 79, "duration": 12, "velocity": 64}, {"time": 192, "pitch": 75, "duration": 6, "velocity": 64}, {"time": 198, "pitch": 74, "duration": 6, "velocity": 64}, {"time": 204, "pitch": 72, "duration": 6, "velocity": 64}, {"time": 210, "pitch": 74, "duration": 6, "velocity": 64}, {"time": 216, "pitch": 72, "duration": 6, "velocity": 64}, {"time": 222, "pitch": 74, "duration": 6, "velocity": 64}, {"time": 228, "pitch": 72, "duration": 6, "velocity": 64}, {"time": 234, "pitch": 67, "duration": 6, "velocity": 64}, {"time": 240, "pitch": 71, "duration": 12, "velocity": 64}, {"time": 252, "pitch": 72, "duration": 6, "velocity": 64}, {"time": 258, "pitch": 74, "duration": 6, "velocity": 64}, {"time": 264, "pitch": 72, "duration": 12, "velocity": 64}, {"time": 276, "pitch": 70, "duration": 6, "velocity": 64}, {"time": 282, "pitch": 67, "duration": 6, "velocity": 64}, {"time": 288, "pitch": 65, "duration": 12, "velocity": 64}, {"time": 300, "pitch": 63, "duration": 6, "velocity": 64}, {"time": 306, "pitch": 62, "duration": 6, "velocity": 64}, {"time": 312, "pitch": 60, "duration": 24, "velocity": 64}, {"time": 336, "pitch": 72, "duration": 6, "velocity": 64}, {"time": 342, "pitch": 67, "duration": 6, "velocity": 64}, {"time": 348, "pitch": 72, "duration": 6, "velocity": 64}, {"time": 354, "pitch": 79, "duration": 6, "velocity": 64}, {"time": 360, "pitch": 75, "duration": 6, "velocity": 64}, {"time": 366, "pitch": 74, "duration": 6, "velocity": 64}, {"time": 372, "pitch": 72, "duration": 6, "velocity": 64}, {"time": 378, "pitch": 67, "duration": 6, "velocity": 64}, {"time": 384, "pitch": 72, "duration": 12, "velocity": 64}, {"time": 396, "pitch": 72, "duration": 6, "velocity": 64}, {"time": 402, "pitch": 79, "duration": 6, "velocity": 64}, {"time": 408, "pitch": 75, "duration": 6, "velocity": 64}, {"time": 414, "pitch": 74, "duration": 6, "velocity": 64}, {"time": 420, "pitch": 72, "duration": 12, "velocity": 64}, {"time": 432, "pitch": 79, "duration": 12, "velocity": 64}, {"time": 444, "pitch": 75, "duration": 6, "velocity": 64}, {"time": 450, "pitch": 74, "duration": 6, "velocity": 64}, {"time": 456, "pitch": 72, "duration": 6, "velocity": 64}, {"time": 462, "pitch": 74, "duration": 6, "velocity": 64}, {"time": 468, "pitch": 72, "duration": 6, "velocity": 64}, {"time": 474, "pitch": 70, "duration": 6, "velocity": 64}, {"time": 480, "pitch": 67, "duration": 6, "velocity": 64}, {"time": 486, "pitch": 70, "duration": 6, "velocity": 64}, {"time": 492, "pitch": 67, "duration": 6, "velocity": 64}, {"time": 498, "pitch": 65, "duration": 6, "velocity": 64}, {"time": 504, "pitch": 63, "duration": 6, "velocity": 64}, {"time": 510, "pitch": 60, "duration": 6, "velocity": 64}, {"time": 516, "pitch": 63, "duration": 12, "velocity": 64}, {"time": 528, "pitch": 65, "duration": 12, "velocity": 64}, {"time": 540, "pitch": 67, "duration": 12, "velocity": 64}, {"time": 552, "pitch": 72, "duration": 12, "velocity": 64}, {"time": 564, "pitch": 72, "duration": 6, "velocity": 64}, {"time": 570, "pitch": 79, "duration": 6, "velocity": 64}, {"time": 576, "pitch": 75, "duration": 6, "velocity": 64}, {"time": 582, "pitch": 74, "duration": 6, "velocity": 64}, {"time": 588, "pitch": 72, "duration": 6, "velocity": 64}, {"time": 594, "pitch": 65, "duration": 6, "velocity": 64}, {"time": 600, "pitch": 67, "duration": 6, "velocity": 64}, {"time": 606, "pitch": 68, "duration": 6, "velocity": 64}, {"time": 612, "pitch": 67, "duration": 12, "velocity": 64}, {"time": 624, "pitch": 72, "duration": 6, "velocity": 64}, {"time": 630, "pitch": 72, "duration": 6, "velocity": 64}, {"time": 636, "pitch": 72, "duration": 6, "velocity": 64}, {"time": 642, "pitch": 79, "duration": 6, "velocity": 64}, {"time": 648, "pitch": 75, "duration": 6, "velocity": 64}, {"time": 654, "pitch": 74, "duration": 6, "velocity": 64}, {"time": 660, "pitch": 77, "duration": 6, "velocity": 64}, {"time": 666, "pitch": 72, "duration": 6, "velocity": 64}, {"time": 672, "pitch": 67, "duration": 6, "velocity": 64}, {"time": 678, "pitch": 70, "duration": 6, "velocity": 64}, {"time": 684, "pitch": 65, "duration": 6, "velocity": 64}, {"time": 690, "pitch": 62, "duration": 6, "velocity": 64}, {"time": 696, "pitch": 60, "duration": 24, "velocity": 64}, {"time": 732, "pitch": 79, "duration": 12, "velocity": 64}, {"time": 744, "pitch": 75, "duration": 12, "velocity": 64}, {"time": 756, "pitch": 75, "duration": 6, "velocity": 64}, {"time": 762, "pitch": 75, "duration": 6, "velocity": 64}, {"time": 768, "pitch": 72, "duration": 6, "velocity": 64}, {"time": 774, "pitch": 74, "duration": 6, "velocity": 64}, {"time": 780, "pitch": 72, "duration": 6, "velocity": 64}, {"time": 786, "pitch": 65, "duration": 6, "velocity": 64}, {"time": 792, "pitch": 67, "duration": 6, "velocity": 64}, {"time": 798, "pitch": 68, "duration": 6, "velocity": 64}, {"time": 804, "pitch": 67, "duration": 12, "velocity": 64}, {"time": 816, "pitch": 72, "duration": 6, "velocity": 64}, {"time": 822, "pitch": 72, "duration": 6, "velocity": 64}, {"time": 828, "pitch": 72, "duration": 6, "velocity": 64}, {"time": 834, "pitch": 79, "duration": 6, "velocity": 64}, {"time": 840, "pitch": 75, "duration": 6, "velocity": 64}, {"time": 846, "pitch": 74, "duration": 6, "velocity": 64}, {"time": 852, "pitch": 77, "duration": 6, "velocity": 64}, {"time": 858, "pitch": 72, "duration": 6, "velocity": 64}, {"time": 864, "pitch": 67, "duration": 6, "velocity": 64}, {"time": 870, "pitch": 70, "duration": 6, "velocity": 64}, {"time": 876, "pitch": 65, "duration": 6, "velocity": 64}, {"time": 882, "pitch": 62, "duration": 6, "velocity": 64}, {"time": 888, "pitch": 60, "duration": 72, "velocity": 64}]}]}