{"metadata": {"schema_version": "0.1", "title": "Ge youmai", "source_format": "abc"}, "resolution": 24, "tempos": [{"time": 0, "qpm": 120.0}], "key_signatures": [{"time": 0, "root": 0, "mode": "major", "fifths": 0}], "time_signatures": [{"time": 0, "numerator": 2, "denominator": 4}], "beats": [{"time": 0, "is_downbeat": true}, {"time": 24, "is_downbeat": false}, {"time": 48, "is_downbeat": true}, {"time": 72, "is_downbeat": false}, {"time": 96, "is_downbeat": true}, {"time": 120, "is_downbeat": false}, {"time": 144, "is_downbeat": true}, {"time": 168, "is_downbeat": false}, {"time": 192, "is_downbeat": true}, {"time": 216, "is_downbeat": false}, {"time": 240, "is_downbeat": true}, {"time": 264, "is_downbeat": false}, {"time": 288, "is_downbeat": true}, {"time": 312, "is_downbeat": false}, {"time": 336, "is_downbeat": true}, {"time": 360, "is_downbeat": false}, {"time": 384, "is_downbeat": true}, {"time": 408, "is_downbeat": false}, {"time": 432, "is_downbeat": true}, {"time": 456, "is_downbeat": false}, {"time": 480, "is_downbeat": true}, {"time": 504, "is_downbeat": false}, {"time": 528, "is_downbeat": true}, {"time": 552, "is_downbeat": false}, {"time": 576, "is_downbeat": true}, {"time": 600, "is_downbeat": false}, {"time": 624, "is_downbeat": true}, {"time": 648, "is_downbeat": false}], "tracks": [{"program": 0, "is_drum": false, "notes": [{"time": 0, "pitch": 74, "duration": 12, "velocity": 64}, {"time": 12, "pitch": 74, "duration": 24, "velocity": 64}, {"time": 36, "pitch": 79, "duration": 12, "velocity": 64}, {"time": 48, "pitch": 69, "duration": 18, "velocity": 64}, {"time": 66, "pitch": 72, "duration": 6, "velocity": 64}, {"time": 72, "pitch": 69, "duration": 18, "velocity": 64}, {"time": 90, "pitch": 72, "duration": 6, "velocity": 64}, {"time": 96, "pitch": 69, "duration": 6, "velocity": 64}, {"time": 102, "pitch": 72, "duration": 18, "velocity": 64}, {"time": 144, "pitch": 69, "duration": 6, "velocity": 64}, {"time": 150, "pitch": 72, "duration": 18, "velocity": 64}, {"time": 192, "pitch": 69, "duration": 12, "velocity": 64}, {"time": 204, "pitch": 72, "duration": 12, "velocity": 64}, {"time": 216, "pitch": 74, "duration": 12, "velocity": 64}, {"time": 228, "pitch": 64, "duration": 12, "velocity": 64}, {"time": 240, "pitch": 62, "duration": 48, "velocity": 64}, {"time": 288, "pitch": 76, "duration": 12, "velocity": 64}, {"time": 300, "pitch": 74, "duration": 24, "velocity": 64}, {"time": 324, "pitch": 74, "duration": 6, "velocity": 64}, {"time": 330, "pitch": 79, "duration": 6, "velocity": 64}, {"time": 336, "pitch": 69, "duration": 18, "velocity": 64}, {"time": 354, "pitch": 72, "duration": 6, "velocity": 64}, {"time": 360, "pitch": 69, "duration": 18, "velocity": 64}, {"time": 378, "pitch": 72, "duration": 6, "velocity": 64}, {"time": 384, "pitch": 69, "duration": 18, "velocity": 64}, {"time": 402, "pitch": 72, "duration": 6, "velocity": 64}, {"time": 408, "pitch": 69, "duration": 18, "velocity": 64}, {"time": 426, "pitch": 72, "duration": 6, "velocity": 64}, {"time": 432, "pitch": 69, "duration": 6, "velocity": 64}, {"time": 438, "pitch": 72, "duration": 18, "velocity": 64}, {"time": 480, "pitch": 69, "duration": 6, "velocity": 64}, {"time": 486, "pitch": 72, "duration": 18, "velocity": 64}, {"time": 528, "pitch": 69, "duration": 12, "velocity": 64}, {"time": 540, "pitch": 72, "duration": 12, "velocity": 64}, {"time": 552, "pitch": 74, "duration": 24, "velocity": 64}, {"time": 576, "pitch": 79, "duration": 12, "velocity": 64}, {"time": 588, "pitch": 72, "duration": 6, "velocity": 64}, {"time": 594, "pitch": 69, "duration": 6, "velocity": 64}, {"time": 600, "pitch": 69, "duration": 12, "velocity": 64}, {"time": 612, "pitch": 67, "duration": 60, "velocity": 64}]}]}