{"metadata": {"schema_version": "0.1", "title": "Siji ge", "source_format": "abc"}, "resolution": 24, "tempos": [{"time": 0, "qpm": 120.0}], "key_signatures": [{"time": 0, "root": 2, "mode": "major", "fifths": 2}], "time_signatures": [{"time": 0, "numerator": 4, "denominator": 4}], "beats": [{"time": 0, "is_downbeat": true}, {"time": 24, "is_downbeat": false}, {"time": 48, "is_downbeat": false}, {"time": 72, "is_downbeat": false}, {"time": 96, "is_downbeat": true}, {"time": 120, "is_downbeat": false}, {"time": 144, "is_downbeat": false}, {"time": 168, "is_downbeat": false}, {"time": 192, "is_downbeat": true}, {"time": 216, "is_downbeat": false}, {"time": 240, "is_downbeat": false}, {"time": 264, "is_downbeat": false}, {"time": 288, "is_downbeat": true}, {"time": 312, "is_downbeat": false}, {"time": 336, "is_downbeat": false}, {"time": 360, "is_downbeat": false}, {"time": 384, "is_downbeat": true}, {"time": 408, "is_downbeat": false}, {"time": 432, "is_downbeat": false}, {"time": 456, "is_downbeat": false}, {"time": 480, "is_downbeat": true}, {"time": 504, "is_downbeat": false}, {"time": 528, "is_downbeat": false}, {"time": 552, "is_downbeat": false}, {"time": 576, "is_downbeat": true}, {"time": 600, "is_downbeat": false}, {"time": 624, "is_downbeat": false}, {"time": 648, "is_downbeat": false}, {"time": 672, "is_downbeat": true}, {"time": 696, "is_downbeat": false}, {"time": 720, "is_downbeat": false}, {"time": 744, "is_downbeat": false}, {"time": 768, "is_downbeat": true}, {"time": 792, "is_downbeat": false}, {"time": 816, "is_downbeat": false}, {"time": 840, "is_downbeat": false}], "tracks": [{"program": 0, "is_drum": false, "notes": [{"time": 0, "pitch": 66, "duration": 18, "velocity": 64}, {"time": 18, "pitch": 71, "duration": 6, "velocity": 64}, {"time": 24, "pitch": 66, "duration": 6, "velocity": 64}, {"time": 30, "pitch": 71, "duration": 6, "velocity": 64}, {"time": 36, "pitch": 66, "duration": 6, "velocity": 64}, {"time": 42, "pitch": 64, "duration": 6, "velocity": 64}, {"time": 48, "pitch": 66, "duration": 6, "velocity": 64}, {"time": 54, "pitch": 64, "duration": 6, "velocity": 64}, {"time": 60, "pitch": 62, "duration": 6, "velocity": 64}, {"time": 66, "pitch": 61, "duration": 6, "velocity": 64}, {"time": 72, "pitch": 59, "duration": 24, "velocity": 64}, {"time": 96, "pitch": 71, "duration": 18, "velocity": 64}, {"time": 114, "pitch": 74, "duration": 6, "velocity": 64}, {"time": 120, "pitch": 71, "duration": 6, "velocity": 64}, {"time": 126, "pitch": 69, "duration": 6, "velocity": 64}, {"time": 132, "pitch": 66, "duration": 6, "velocity": 64}, {"time": 138, "pitch": 69, "duration": 6, "velocity": 64}, {"time": 144, "pitch": 71, "duration": 48, "velocity": 64}, {"time": 192, "pitch": 71, "duration": 18, "velocity": 64}, {"time": 210, "pitch": 74, "duration": 6, "velocity": 64}, {"time": 216, "pitch": 71, "duration": 6, "velocity": 64}, {"time": 222, "pitch": 69, "duration": 6, "velocity": 64}, {"time": 228, "pitch": 66, "duration": 6, "velocity": 64}, {"time": 234, "pitch": 69, "duration": 6, "velocity": 64}, {"time": 240, "pitch": 71, "duration": 48, "velocity": 64}, {"time": 288, "pitch": 71, "duration": 12, "velocity": 64}, {"time": 300, "pitch": 71, "duration": 12, "velocity": 64}, {"time": 312, "pitch": 76, "duration": 12, "velocity": 64}, {"time": 324, "pitch": 71, "duration": 6, "velocity": 64}, {"time": 330, "pitch": 69, "duration": 6, "velocity": 64}, {"time": 336, "pitch": 71, "duration": 12, "velocity": 64}, {"time": 348, "pitch": 71, "duration": 12, "velocity": 64}, {"time": 360, "pitch": 69, "duration": 12, "velocity": 64}, {"time": 372, "pitch": 66, "duration": 12, "velocity": 64}, {"time": 384, "pitch": 71, "duration": 18, "velocity": 64}, {"time": 402, "pitch": 74, "duration": 6, "velocity": 64}, {"time": 408, "pitch": 71, "duration": 6, "velocity": 64}, {"time": 414, "pitch": 69, "duration": 6, "velocity": 64}, {"time": 420, "pitch": 66, "duration": 12, "velocity": 64}, {"time": 432, "pitch": 64, "duration": 12, "velocity": 64}, {"time": 444, "pitch": 66, "duration": 12, "velocity": 64}, {"time": 456, "pitch": 69, "duration": 8, "velocity": 64}, {"time": 464, "pitch": 66, "duration": 8, "velocity": 64}, {"time": 472, "pitch": 69, "duration": 8, "velocity": 64}, {"time": 480, "pitch": 64, "duration": 12, "velocity": 64}, {"time": 492, "pitch": 66, "duration": 6, "velocity": 64}, {"time": 498, "pitch": 69, "duration": 6, "velocity": 64}, {"time": 504, "pitch": 66, "duration": 6, "velocity": 64}, {"time": 510, "pitch": 64, "duration": 6, "velocity": 64}, {"time": 516, "pitch": 61, "duration": 12, "velocity": 64}, {"time": 528, "pitch": 59, "duration": 48, "velocity": 64}, {"time": 576, "pitch": 71, "duration": 12, "velocity": 64}, {"time": 588, "pitch": 71, "duration": 6, "velocity": 64}, {"time": 594, "pitch": 74, "duration": 6, "velocity": 64}, {"time": 600, "pitch": 71, "duration": 6, "velocity": 64}, {"time": 606, "pitch": 69, "duration": 6, "velocity": 64}, {"time": 612, "pitch": 66, "duration": 12, "velocity": 64}, {"time": 624, "pitch": 64, "duration": 48, "velocity": 64}, {"time": 672, "pitch": 71, "duration": 18, "velocity": 64}, {"time": 690, "pitch": 74, "duration": 6, "velocity": 64}, {"time": 696, "pitch": 71, "duration": 6, "velocity": 64}, {"time": 702, "pitch": 69, "duration": 6, "velocity": 64}, {"time": 708, "pitch": 66, "duration": 12, "velocity": 64}, {"time": 720, "pitch": 64, "duration": 12, "velocity": 64}, {"time": 732, "pitch": 66, "duration": 12, "velocity": 64}, {"time": 744, "pitch": 69, "duration": 24, "velocity": 64}, {"time": 768, "pitch": 64, "duration": 12, "velocity": 64}, {"time": 780, "pitch": 66, "duration": 6, "velocity": 64}, {"time": 786, "pitch": 69, "duration": 6, "velocity": 64}, {"time": 792, "pitch": 66, "duration": 6, "velocity": 64}, {"time": 798, "pitch": 64, "duration": 6, "velocity": 64}, {"time": 804, "pitch": 61, "duration": 12, "velocity": 64}, {"time": 816, "pitch": 59, "duration": 48, "velocity": 64}]}]}