{"metadata": {"schema_version": "0.1", "title": "Shangqu gaoshan wang pingchuan", "source_format": "abc"}, "resolution": 24, "tempos": [{"time": 0, "qpm": 120.0}], "key_signatures": [{"time": 0, "root": 10, "mode": "major", "fifths": -2}], "time_signatures": [{"time": 0, "numerator": 4, "denominator": 4}], "beats": [{"time": 0, "is_downbeat": true}, {"time": 24, "is_downbeat": false}, {"time": 48, "is_downbeat": false}, {"time": 72, "is_downbeat": false}, {"time": 96, "is_downbeat": true}, {"time": 120, "is_downbeat": false}, {"time": 144, "is_downbeat": false}, {"time": 168, "is_downbeat": false}, {"time": 192, "is_downbeat": true}, {"time": 216, "is_downbeat": false}, {"time": 240, "is_downbeat": false}, {"time": 264, "is_downbeat": false}, {"time": 288, "is_downbeat": true}, {"time": 312, "is_downbeat": false}, {"time": 336, "is_downbeat": false}, {"time": 360, "is_downbeat": false}, {"time": 384, "is_downbeat": true}, {"time": 408, "is_downbeat": false}, {"time": 432, "is_downbeat": false}, {"time": 456, "is_downbeat": false}, {"time": 480, "is_downbeat": true}, {"time": 504, "is_downbeat": false}, {"time": 528, "is_downbeat": false}, {"time": 552, "is_downbeat": false}, {"time": 576, "is_downbeat": true}, {"time": 600, "is_downbeat": false}, {"time": 624, "is_downbeat": false}, {"time": 648, "is_downbeat": false}, {"time": 672, "is_downbeat": true}, {"time": 696, "is_downbeat": false}, {"time": 720, "is_downbeat": false}, {"time": 744, "is_downbeat": false}, {"time": 768, "is_downbeat": true}, {"time": 792, "is_downbeat": false}, {"time": 816, "is_downbeat": false}, {"time": 840, "is_downbeat": false}, {"time": 864, "is_downbeat": true}, {"time": 888, "is_downbeat": false}, {"time": 912, "is_downbeat": false}, {"time": 936, "is_downbeat": false}], "tracks": [{"program": 0, "is_drum": false, "notes": [{"time": 0, "pitch": 72, "duration": 24, "velocity": 64}, {"time": 24, "pitch": 72, "duration": 12, "velocity": 64}, {"time": 36, "pitch": 72, "duration": 12, "velocity": 64}, {"time": 48, "pitch": 72, "duration": 6, "velocity": 64}, {"time": 54, "pitch": 70, "duration": 6, "velocity": 64}, {"time": 60, "pitch": 67, "duration": 9, "velocity": 64}, {"time": 69, "pitch": 65, "duration": 3, "velocity": 64}, {"time": 72, "pitch": 65, "duration": 24, "velocity": 64}, {"time": 96, "pitch": 67, "duration": 6, "velocity": 64}, {"time": 102, "pitch": 70, "duration": 6, "velocity": 64}, {"time": 108, "pitch": 72, "duration": 12, "velocity": 64}, {"time": 120, "pitch": 72, "duration": 24, "velocity": 64}, {"time": 144, "pitch": 77, "duration": 36, "velocity": 64}, {"time": 180, "pitch": 77, "duration": 6, "velocity": 64}, {"time": 186, "pitch": 72, "duration": 6, "velocity": 64}, {"time": 192, "pitch": 72, "duration": 6, "velocity": 64}, {"time": 198, "pitch": 70, "duration": 6, "velocity": 64}, {"time": 204, "pitch": 72, "duration": 6, "velocity": 64}, {"time": 210, "pitch": 70, "duration": 6, "velocity": 64}, {"time": 216, "pitch": 67, "duration": 24, "velocity": 64}, {"time": 264, "pitch": 67, "duration": 12, "velocity": 64}, {"time": 276, "pitch": 65, "duration": 12, "velocity": 64}, {"time": 288, "pitch": 67, "duration": 6, "velocity": 64}, {"time": 294, "pitch": 70, "duration": 6, "velocity": 64}, {"time": 300, "pitch": 72, "duration": 36, "velocity": 64}, {"time": 336, "pitch": 72, "duration": 36, "velocity": 64}, {"time": 372, "pitch": 77, "duration": 12, "velocity": 64}, {"time": 384, "pitch": 77, "duration": 72, "velocity": 64}, {"time": 480, "pitch": 60, "duration": 18, "velocity": 64}, {"time": 498, "pitch": 65, "duration": 6, "velocity": 64}, {"time": 504, "pitch": 65, "duration": 18, "velocity": 64}, {"time": 522, "pitch": 65, "duration": 6, "velocity": 64}, {"time": 528, "pitch": 67, "duration": 6, "velocity": 64}, {"time": 534, "pitch": 70, "duration": 6, "velocity": 64}, {"time": 540, "pitch": 72, "duration": 36, "velocity": 64}, {"time": 576, "pitch": 72, "duration": 12, "velocity": 64}, {"time": 588, "pitch": 72, "duration": 24, "velocity": 64}, {"time": 612, "pitch": 77, "duration": 12, "velocity": 64}, {"time": 624, "pitch": 77, "duration": 36, "velocity": 64}, {"time": 660, "pitch": 77, "duration": 6, "velocity": 64}, {"time": 666, "pitch": 72, "duration": 6, "velocity": 64}, {"time": 672, "pitch": 72, "duration": 24, "velocity": 64}, {"time": 696, "pitch": 72, "duration": 6, "velocity": 64}, {"time": 702, "pitch": 70, "duration": 6, "velocity": 64}, {"time": 708, "pitch": 72, "duration": 6, "velocity": 64}, {"time": 714, "pitch": 70, "duration": 6, "velocity": 64}, {"time": 720, "pitch": 67, "duration": 12, "velocity": 64}, {"time": 744, "pitch": 67, "duration": 18, "velocity": 64}, {"time": 762, "pitch": 70, "duration": 6, "velocity": 64}, {"time": 768, "pitch": 72, "duration": 36, "velocity": 64}, {"time": 804, "pitch": 77, "duration": 12, "velocity": 64}, {"time": 816, "pitch": 72, "duration": 6, "velocity": 64}, {"time": 822, "pitch": 70, "duration": 6, "velocity": 64}, {"time": 828, "pitch": 72, "duration": 6, "velocity": 64}, {"time": 834, "pitch": 70, "duration": 6, "velocity": 64}, {"time": 840, "pitch": 67, "duration": 24, "velocity": 64}, {"time": 864, "pitch": 65, "duration": 24, "velocity": 64}, {"time": 888, "pitch": 65, "duration": 72, "velocity": 64}]}]}