{"metadata": {"schema_version": "0.1", "title": "Lan poniang ma ji", "source_format": "abc"}, "resolution": 24, "tempos": [{"time": 0, "qpm": 120.0}], "key_signatures": [{"time": 0, "root": 5, "mode": "major", "fifths": -1}], "time_signatures": [{"time": 0, "numerator": 4, "denominator": 4}, {"time": 288, "numerator": 1, "denominator": 4}, {"time": 792, "numerator": 3, "denominator": 4}, {"time": 1584, "numerator": 3, "denominator": 4}, {"time": 1656, "numerator": 2, "denominator": 4}, {"time": 3048, "numerator": 1, "denominator": 4}], "beats": [{"time": 0, "is_downbeat": true}, {"time": 24, "is_downbeat": true}, {"time": 48, "is_downbeat": true}, {"time": 72, "is_downbeat": true}, {"time": 96, "is_downbeat": true}, {"time": 120, "is_downbeat": true}, {"time": 144, "is_downbeat": true}, {"time": 168, "is_downbeat": true}, {"time": 192, "is_downbeat": true}, {"time": 216, "is_downbeat": true}, {"time": 240, "is_downbeat": true}, {"time": 264, "is_downbeat": true}, {"time": 288, "is_downbeat": true}, {"time": 312, "is_downbeat": true}, {"time": 336, "is_downbeat": false}, {"time": 360, "is_downbeat": true}, {"time": 384, "is_downbeat": false}, {"time": 408, "is_downbeat": true}, {"time": 432, "is_downbeat": false}, {"time": 456, "is_downbeat": true}, {"time": 480, "is_downbeat": false}, {"time": 504, "is_downbeat": true}, {"time": 528, "is_downbeat": false}, {"time": 552, "is_downbeat": true}, {"time": 576, "is_downbeat": false}, {"time": 600, "is_downbeat": true}, {"time": 624, "is_downbeat": false}, {"time": 648, "is_downbeat": true}, {"time": 672, "is_downbeat": false}, {"time": 696, "is_downbeat": true}, {"time": 720, "is_downbeat": false}, {"time": 744, "is_downbeat": true}, {"time": 768, "is_downbeat": false}, {"time": 792, "is_downbeat": true}, {"time": 816, "is_downbeat": false}, {"time": 840, "is_downbeat": false}, {"time": 864, "is_downbeat": true}, {"time": 888, "is_downbeat": false}, {"time": 912, "is_downbeat": true}, {"time": 936, "is_downbeat": false}, {"time": 960, "is_downbeat": true}, {"time": 984, "is_downbeat": false}, {"time": 1008, "is_downbeat": true}, {"time": 1032, "is_downbeat": false}, {"time": 1056, "is_downbeat": true}, {"time": 1080, "is_downbeat": false}, {"time": 1104, "is_downbeat": true}, {"time": 1128, "is_downbeat": false}, {"time": 1152, "is_downbeat": true}, {"time": 1176, "is_downbeat": false}, {"time": 1200, "is_downbeat": true}, {"time": 1224, "is_downbeat": false}, {"time": 1248, "is_downbeat": true}, {"time": 1272, "is_downbeat": false}, {"time": 1296, "is_downbeat": true}, {"time": 1320, "is_downbeat": false}, {"time": 1344, "is_downbeat": true}, {"time": 1368, "is_downbeat": false}, {"time": 1392, "is_downbeat": true}, {"time": 1416, "is_downbeat": false}, {"time": 1440, "is_downbeat": true}, {"time": 1464, "is_downbeat": false}, {"time": 1488, "is_downbeat": true}, {"time": 1512, "is_downbeat": false}, {"time": 1536, "is_downbeat": true}, {"time": 1560, "is_downbeat": false}, {"time": 1584, "is_downbeat": true}, {"time": 1608, "is_downbeat": false}, {"time": 1632, "is_downbeat": true}, {"time": 1656, "is_downbeat": true}, {"time": 1680, "is_downbeat": true}, {"time": 1704, "is_downbeat": true}, {"time": 1728, "is_downbeat": true}, {"time": 1752, "is_downbeat": true}, {"time": 1776, "is_downbeat": true}, {"time": 1800, "is_downbeat": true}, {"time": 1824, "is_downbeat": true}, {"time": 1848, "is_downbeat": true}, {"time": 1872, "is_downbeat": true}, {"time": 1896, "is_downbeat": true}, {"time": 1920, "is_downbeat": true}, {"time": 1944, "is_downbeat": true}, {"time": 1968, "is_downbeat": true}, {"time": 1992, "is_downbeat": true}, {"time": 2016, "is_downbeat": true}, {"time": 2040, "is_downbeat": true}, {"time": 2064, "is_downbeat": true}, {"time": 2088, "is_downbeat": true}, {"time": 2112, "is_downbeat": true}, {"time": 2136, "is_downbeat": true}, {"time": 2160, "is_downbeat": true}, {"time": 2184, "is_downbeat": true}, {"time": 2208, "is_downbeat": true}, {"time": 2232, "is_downbeat": true}, {"time": 2256, "is_downbeat": true}, {"time": 2280, "is_downbeat": true}, {"time": 2304, "is_downbeat": true}, {"time": 2328, "is_downbeat": true}, {"time": 2352, "is_downbeat": true}, {"time": 2376, "is_downbeat": true}, {"time": 2400, "is_downbeat": true}, {"time": 2424, "is_downbeat": true}, {"time": 2448, "is_downbeat": true}, {"time": 2472, "is_downbeat": true}, {"time": 2496, "is_downbeat": true}, {"time": 2520, "is_downbeat": true}, {"time": 2544, "is_downbeat": true}, {"time": 2568, "is_downbeat": true}, {"time": 2592, "is_downbeat": true}, {"time": 2616, "is_downbeat": true}, {"time": 2640, "is_downbeat": true}, {"time": 2664, "is_downbeat": true}, {"time": 2688, "is_downbeat": true}, {"time": 2712, "is_downbeat": true}, {"time": 2736, "is_downbeat": true}, {"time": 2760, "is_downbeat": true}, {"time": 2784, "is_downbeat": true}, {"time": 2808, "is_downbeat": true}, {"time": 2832, "is_downbeat": true}, {"time": 2856, "is_downbeat": true}, {"time": 2880, "is_downbeat": true}, {"time": 2904, "is_downbeat": true}, {"time": 2928, "is_downbeat": true}, {"time": 2952, "is_downbeat": true}, {"time": 2976, "is_downbeat": true}, {"time": 3000, "is_downbeat": true}, {"time": 3024, "is_downbeat": true}, {"time": 3048, "is_downbeat": true}], "tracks": [{"program": 0, "is_drum": false, "notes": [{"time": 0, "pitch": 67, "duration": 12, "velocity": 64}, {"time": 12, "pitch": 67, "duration": 12, "velocity": 64}, {"time": 24, "pitch": 67, "duration": 6, "velocity": 64}, {"time": 30, "pitch": 69, "duration": 6, "velocity": 64}, {"time": 36, "pitch": 67, "duration": 6, "velocity": 64}, {"time": 42, "pitch": 65, "duration": 6, "velocity": 64}, {"time": 48, "pitch": 65, "duration": 12, "velocity": 64}, {"time": 60, "pitch": 65, "duration": 12, "velocity": 64}, {"time": 84, "pitch": 65, "duration": 12, "velocity": 64}, {"time": 96, "pitch": 65, "duration": 6, "velocity": 64}, {"time": 102, "pitch": 70, "duration": 6, "velocity": 64}, {"time": 108, "pitch": 70, "duration": 6, "velocity": 64}, {"time": 114, "pitch": 65, "duration": 6, "velocity": 64}, {"time": 132, "pitch": 67, "duration": 12, "velocity": 64}, {"time": 144, "pitch": 67, "duration": 12, "velocity": 64}, {"time": 156, "pitch": 67, "duration": 6, "velocity": 64}, {"time": 162, "pitch": 67, "duration": 6, "velocity": 64}, {"time": 168, "pitch": 67, "duration": 12, "velocity": 64}, {"time": 180, "pitch": 67, "duration": 6, "velocity": 64}, {"time": 186, "pitch": 65, "duration": 6, "velocity": 64}, {"time": 192, "pitch": 65, "duration": 18, "velocity": 64}, {"time": 210, "pitch": 67, "duration": 6, "velocity": 64}, {"time": 216, "pitch": 77, "duration": 12, "velocity": 64}, {"time": 228, "pitch": 72, "duration": 12, "velocity": 64}, {"time": 240, "pitch": 72, "duration": 12, "velocity": 64}, {"time": 252, "pitch": 72, "duration": 6, "velocity": 64}, {"time": 258, "pitch": 67, "duration": 6, "velocity": 64}, {"time": 264, "pitch": 65, "duration": 36, "velocity": 64}, {"time": 300, "pitch": 72, "duration": 6, "velocity": 64}, {"time": 306, "pitch": 72, "duration": 6, "velocity": 64}, {"time": 312, "pitch": 72, "duration": 12, "velocity": 64}, {"time": 324, "pitch": 65, "duration": 6, "velocity": 64}, {"time": 330, "pitch": 67, "duration": 6, "velocity": 64}, {"time": 336, "pitch": 65, "duration": 24, "velocity": 64}, {"time": 360, "pitch": 72, "duration": 12, "velocity": 64}, {"time": 372, "pitch": 65, "duration": 6, "velocity": 64}, {"time": 378, "pitch": 67, "duration": 6, "velocity": 64}, {"time": 384, "pitch": 65, "duration": 24, "velocity": 64}, {"time": 408, "pitch": 72, "duration": 12, "velocity": 64}, {"time": 420, "pitch": 72, "duration": 6, "velocity": 64}, {"time": 426, "pitch": 69, "duration": 6, "velocity": 64}, {"time": 432, "pitch": 67, "duration": 6, "velocity": 64}, {"time": 438, "pitch": 69, "duration": 6, "velocity": 64}, {"time": 444, "pitch": 67, "duration": 6, "velocity": 64}, {"time": 450, "pitch": 65, "duration": 6, "velocity": 64}, {"time": 456, "pitch": 67, "duration": 6, "velocity": 64}, {"time": 462, "pitch": 65, "duration": 6, "velocity": 64}, {"time": 468, "pitch": 65, "duration": 6, "velocity": 64}, {"time": 474, "pitch": 67, "duration": 6, "velocity": 64}, {"time": 480, "pitch": 65, "duration": 24, "velocity": 64}, {"time": 504, "pitch": 67, "duration": 12, "velocity": 64}, {"time": 516, "pitch": 67, "duration": 12, "velocity": 64}, {"time": 528, "pitch": 67, "duration": 12, "velocity": 64}, {"time": 540, "pitch": 67, "duration": 6, "velocity": 64}, {"time": 546, "pitch": 65, "duration": 6, "velocity": 64}, {"time": 552, "pitch": 65, "duration": 12, "velocity": 64}, {"time": 564, "pitch": 77, "duration": 24, "velocity": 64}, {"time": 588, "pitch": 74, "duration": 6, "velocity": 64}, {"time": 594, "pitch": 72, "duration": 6, "velocity": 64}, {"time": 600, "pitch": 72, "duration": 12, "velocity": 64}, {"time": 612, "pitch": 72, "duration": 6, "velocity": 64}, {"time": 618, "pitch": 67, "duration": 6, "velocity": 64}, {"time": 624, "pitch": 65, "duration": 24, "velocity": 64}, {"time": 648, "pitch": 67, "duration": 12, "velocity": 64}, {"time": 660, "pitch": 67, "duration": 12, "velocity": 64}, {"time": 672, "pitch": 67, "duration": 12, "velocity": 64}, {"time": 684, "pitch": 67, "duration": 6, "velocity": 64}, {"time": 690, "pitch": 65, "duration": 6, "velocity": 64}, {"time": 696, "pitch": 65, "duration": 18, "velocity": 64}, {"time": 714, "pitch": 67, "duration": 6, "velocity": 64}, {"time": 720, "pitch": 77, "duration": 12, "velocity": 64}, {"time": 732, "pitch": 72, "duration": 12, "velocity": 64}, {"time": 744, "pitch": 72, "duration": 12, "velocity": 64}, {"time": 756, "pitch": 72, "duration": 6, "velocity": 64}, {"time": 762, "pitch": 67, "duration": 6, "velocity": 64}, {"time": 768, "pitch": 65, "duration": 48, "velocity": 64}, {"time": 816, "pitch": 72, "duration": 12, "velocity": 64}, {"time": 828, "pitch": 72, "duration": 6, "velocity": 64}, {"time": 834, "pitch": 72, "duration": 6, "velocity": 64}, {"time": 840, "pitch": 67, "duration": 6, "velocity": 64}, {"time": 846, "pitch": 69, "duration": 6, "velocity": 64}, {"time": 852, "pitch": 67, "duration": 6, "velocity": 64}, {"time": 858, "pitch": 65, "duration": 6, "velocity": 64}, {"time": 864, "pitch": 67, "duration": 6, "velocity": 64}, {"time": 870, "pitch": 65, "duration": 6, "velocity": 64}, {"time": 876, "pitch": 65, "duration": 6, "velocity": 64}, {"time": 882, "pitch": 67, "duration": 6, "velocity": 64}, {"time": 888, "pitch": 65, "duration": 12, "velocity": 64}, {"time": 906, "pitch": 72, "duration": 6, "velocity": 64}, {"time": 912, "pitch": 72, "duration": 12, "velocity": 64}, {"time": 924, "pitch": 72, "duration": 6, "velocity": 64}, {"time": 930, "pitch": 69, "duration": 6, "velocity": 64}, {"time": 936, "pitch": 67, "duration": 6, "velocity": 64}, {"time": 942, "pitch": 69, "duration": 6, "velocity": 64}, {"time": 948, "pitch": 67, "duration": 6, "velocity": 64}, {"time": 954, "pitch": 65, "duration": 6, "velocity": 64}, {"time": 960, "pitch": 72, "duration": 12, "velocity": 64}, {"time": 972, "pitch": 62, "duration": 12, "velocity": 64}, {"time": 984, "pitch": 65, "duration": 24, "velocity": 64}, {"time": 1008, "pitch": 70, "duration": 12, "velocity": 64}, {"time": 1020, "pitch": 65, "duration": 12, "velocity": 64}, {"time": 1032, "pitch": 70, "duration": 12, "velocity": 64}, {"time": 1044, "pitch": 70, "duration": 6, "velocity": 64}, {"time": 1050, "pitch": 67, "duration": 6, "velocity": 64}, {"time": 1056, "pitch": 70, "duration": 12, "velocity": 64}, {"time": 1068, "pitch": 65, "duration": 6, "velocity": 64}, {"time": 1074, "pitch": 67, "duration": 6, "velocity": 64}, {"time": 1080, "pitch": 65, "duration": 12, "velocity": 64}, {"time": 1098, "pitch": 72, "duration": 6, "velocity": 64}, {"time": 1104, "pitch": 72, "duration": 12, "velocity": 64}, {"time": 1116, "pitch": 72, "duration": 6, "velocity": 64}, {"time": 1122, "pitch": 69, "duration": 6, "velocity": 64}, {"time": 1128, "pitch": 67, "duration": 6, "velocity": 64}, {"time": 1134, "pitch": 69, "duration": 6, "velocity": 64}, {"time": 1140, "pitch": 67, "duration": 6, "velocity": 64}, {"time": 1146, "pitch": 65, "duration": 6, "velocity": 64}, {"time": 1152, "pitch": 67, "duration": 12, "velocity": 64}, {"time": 1164, "pitch": 65, "duration": 6, "velocity": 64}, {"time": 1170, "pitch": 67, "duration": 6, "velocity": 64}, {"time": 1176, "pitch": 65, "duration": 24, "velocity": 64}, {"time": 1200, "pitch": 70, "duration": 12, "velocity": 64}, {"time": 1212, "pitch": 70, "duration": 12, "velocity": 64}, {"time": 1224, "pitch": 67, "duration": 6, "velocity": 64}, {"time": 1230, "pitch": 69, "duration": 6, "velocity": 64}, {"time": 1236, "pitch": 67, "duration": 6, "velocity": 64}, {"time": 1242, "pitch": 65, "duration": 6, "velocity": 64}, {"time": 1248, "pitch": 67, "duration": 12, "velocity": 64}, {"time": 1260, "pitch": 65, "duration": 6, "velocity": 64}, {"time": 1266, "pitch": 67, "duration": 6, "velocity": 64}, {"time": 1272, "pitch": 65, "duration": 12, "velocity": 64}, {"time": 1290, "pitch": 67, "duration": 6, "velocity": 64}, {"time": 1296, "pitch": 67, "duration": 12, "velocity": 64}, {"time": 1308, "pitch": 67, "duration": 12, "velocity": 64}, {"time": 1320, "pitch": 67, "duration": 6, "velocity": 64}, {"time": 1326, "pitch": 69, "duration": 6, "velocity": 64}, {"time": 1332, "pitch": 67, "duration": 6, "velocity": 64}, {"time": 1338, "pitch": 65, "duration": 6, "velocity": 64}, {"time": 1344, "pitch": 72, "duration": 12, "velocity": 64}, {"time": 1356, "pitch": 62, "duration": 12, "velocity": 64}, {"time": 1368, "pitch": 65, "duration": 12, "velocity": 64}, {"time": 1392, "pitch": 72, "duration": 6, "velocity": 64}, {"time": 1398, "pitch": 72, "duration": 6, "velocity": 64}, {"time": 1404, "pitch": 72, "duration": 12, "velocity": 64}, {"time": 1416, "pitch": 67, "duration": 6, "velocity": 64}, {"time": 1422, "pitch": 70, "duration": 6, "velocity": 64}, {"time": 1428, "pitch": 67, "duration": 6, "velocity": 64}, {"time": 1434, "pitch": 65, "duration": 6, "velocity": 64}, {"time": 1440, "pitch": 72, "duration": 12, "velocity": 64}, {"time": 1452, "pitch": 65, "duration": 6, "velocity": 64}, {"time": 1458, "pitch": 67, "duration": 6, "velocity": 64}, {"time": 1464, "pitch": 65, "duration": 12, "velocity": 64}, {"time": 1482, "pitch": 72, "duration": 6, "velocity": 64}, {"time": 1488, "pitch": 72, "duration": 12, "velocity": 64}, {"time": 1500, "pitch": 72, "duration": 6, "velocity": 64}, {"time": 1506, "pitch": 69, "duration": 6, "velocity": 64}, {"time": 1512, "pitch": 67, "duration": 6, "velocity": 64}, {"time": 1518, "pitch": 69, "duration": 6, "velocity": 64}, {"time": 1524, "pitch": 67, "duration": 6, "velocity": 64}, {"time": 1530, "pitch": 65, "duration": 6, "velocity": 64}, {"time": 1536, "pitch": 65, "duration": 12, "velocity": 64}, {"time": 1548, "pitch": 72, "duration": 6, "velocity": 64}, {"time": 1554, "pitch": 62, "duration": 6, "velocity": 64}, {"time": 1560, "pitch": 65, "duration": 48, "velocity": 64}, {"time": 1608, "pitch": 70, "duration": 12, "velocity": 64}, {"time": 1620, "pitch": 70, "duration": 6, "velocity": 64}, {"time": 1626, "pitch": 70, "duration": 6, "velocity": 64}, {"time": 1632, "pitch": 67, "duration": 6, "velocity": 64}, {"time": 1638, "pitch": 69, "duration": 6, "velocity": 64}, {"time": 1644, "pitch": 67, "duration": 6, "velocity": 64}, {"time": 1650, "pitch": 65, "duration": 6, "velocity": 64}, {"time": 1656, "pitch": 67, "duration": 12, "velocity": 64}, {"time": 1668, "pitch": 65, "duration": 6, "velocity": 64}, {"time": 1674, "pitch": 67, "duration": 6, "velocity": 64}, {"time": 1680, "pitch": 65, "duration": 12, "velocity": 64}, {"time": 1698, "pitch": 65, "duration": 6, "velocity": 64}, {"time": 1704, "pitch": 65, "duration": 12, "velocity": 64}, {"time": 1716, "pitch": 65, "duration": 12, "velocity": 64}, {"time": 1728, "pitch": 70, "duration": 12, "velocity": 64}, {"time": 1740, "pitch": 65, "duration": 6, "velocity": 64}, {"time": 1746, "pitch": 65, "duration": 6, "velocity": 64}, {"time": 1752, "pitch": 72, "duration": 12, "velocity": 64}, {"time": 1764, "pitch": 65, "duration": 6, "velocity": 64}, {"time": 1770, "pitch": 67, "duration": 6, "velocity": 64}, {"time": 1776, "pitch": 65, "duration": 24, "velocity": 64}, {"time": 1800, "pitch": 72, "duration": 12, "velocity": 64}, {"time": 1812, "pitch": 72, "duration": 6, "velocity": 64}, {"time": 1818, "pitch": 69, "duration": 6, "velocity": 64}, {"time": 1824, "pitch": 67, "duration": 6, "velocity": 64}, {"time": 1830, "pitch": 69, "duration": 6, "velocity": 64}, {"time": 1836, "pitch": 67, "duration": 6, "velocity": 64}, {"time": 1842, "pitch": 65, "duration": 6, "velocity": 64}, {"time": 1848, "pitch": 67, "duration": 6, "velocity": 64}, {"time": 1854, "pitch": 65, "duration": 6, "velocity": 64}, {"time": 1860, "pitch": 65, "duration": 6, "velocity": 64}, {"time": 1866, "pitch": 67, "duration": 6, "velocity": 64}, {"time": 1872, "pitch": 65, "duration": 24, "velocity": 64}, {"time": 1896, "pitch": 72, "duration": 12, "velocity": 64}, {"time": 1908, "pitch": 72, "duration": 6, "velocity": 64}, {"time": 1914, "pitch": 69, "duration": 6, "velocity": 64}, {"time": 1920, "pitch": 67, "duration": 6, "velocity": 64}, {"time": 1926, "pitch": 69, "duration": 6, "velocity": 64}, {"time": 1932, "pitch": 67, "duration": 6, "velocity": 64}, {"time": 1938, "pitch": 65, "duration": 6, "velocity": 64}, {"time": 1944, "pitch": 72, "duration": 12, "velocity": 64}, {"time": 1956, "pitch": 65, "duration": 6, "velocity": 64}, {"time": 1962, "pitch": 67, "duration": 6, "velocity": 64}, {"time": 1968, "pitch": 65, "duration": 24, "velocity": 64}, {"time": 1992, "pitch": 72, "duration": 12, "velocity": 64}, {"time": 2004, "pitch": 72, "duration": 6, "velocity": 64}, {"time": 2010, "pitch": 69, "duration": 6, "velocity": 64}, {"time": 2016, "pitch": 67, "duration": 6, "velocity": 64}, {"time": 2022, "pitch": 69, "duration": 6, "velocity": 64}, {"time": 2028, "pitch": 67, "duration": 6, "velocity": 64}, {"time": 2034, "pitch": 65, "duration": 6, "velocity": 64}, {"time": 2040, "pitch": 67, "duration": 12, "velocity": 64}, {"time": 2052, "pitch": 65, "duration": 6, "velocity": 64}, {"time": 2058, "pitch": 67, "duration": 6, "velocity": 64}, {"time": 2064, "pitch": 65, "duration": 24, "velocity": 64}, {"time": 2088, "pitch": 72, "duration": 12, "velocity": 64}, {"time": 2100, "pitch": 72, "duration": 6, "velocity": 64}, {"time": 2106, "pitch": 69, "duration": 6, "velocity": 64}, {"time": 2112, "pitch": 67, "duration": 6, "velocity": 64}, {"time": 2118, "pitch": 69, "duration": 6, "velocity": 64}, {"time": 2124, "pitch": 67, "duration": 6, "velocity": 64}, {"time": 2130, "pitch": 65, "duration": 6, "velocity": 64}, {"time": 2136, "pitch": 72, "duration": 18, "velocity": 64}, {"time": 2154, "pitch": 65, "duration": 6, "velocity": 64}, {"time": 2160, "pitch": 65, "duration": 12, "velocity": 64}, {"time": 2178, "pitch": 72, "duration": 6, "velocity": 64}, {"time": 2184, "pitch": 72, "duration": 12, "velocity": 64}, {"time": 2196, "pitch": 72, "duration": 6, "velocity": 64}, {"time": 2202, "pitch": 69, "duration": 6, "velocity": 64}, {"time": 2208, "pitch": 67, "duration": 6, "velocity": 64}, {"time": 2214, "pitch": 69, "duration": 6, "velocity": 64}, {"time": 2220, "pitch": 67, "duration": 6, "velocity": 64}, {"time": 2226, "pitch": 65, "duration": 6, "velocity": 64}, {"time": 2232, "pitch": 65, "duration": 12, "velocity": 64}, {"time": 2244, "pitch": 72, "duration": 12, "velocity": 64}, {"time": 2256, "pitch": 65, "duration": 12, "velocity": 64}, {"time": 2274, "pitch": 60, "duration": 6, "velocity": 64}, {"time": 2280, "pitch": 60, "duration": 12, "velocity": 64}, {"time": 2292, "pitch": 60, "duration": 12, "velocity": 64}, {"time": 2304, "pitch": 70, "duration": 6, "velocity": 64}, {"time": 2310, "pitch": 70, "duration": 6, "velocity": 64}, {"time": 2316, "pitch": 70, "duration": 6, "velocity": 64}, {"time": 2322, "pitch": 67, "duration": 6, "velocity": 64}, {"time": 2328, "pitch": 65, "duration": 12, "velocity": 64}, {"time": 2340, "pitch": 72, "duration": 12, "velocity": 64}, {"time": 2352, "pitch": 65, "duration": 12, "velocity": 64}, {"time": 2370, "pitch": 65, "duration": 6, "velocity": 64}, {"time": 2376, "pitch": 65, "duration": 12, "velocity": 64}, {"time": 2388, "pitch": 65, "duration": 12, "velocity": 64}, {"time": 2400, "pitch": 70, "duration": 6, "velocity": 64}, {"time": 2406, "pitch": 70, "duration": 6, "velocity": 64}, {"time": 2412, "pitch": 70, "duration": 6, "velocity": 64}, {"time": 2418, "pitch": 67, "duration": 6, "velocity": 64}, {"time": 2424, "pitch": 62, "duration": 6, "velocity": 64}, {"time": 2430, "pitch": 65, "duration": 6, "velocity": 64}, {"time": 2436, "pitch": 72, "duration": 6, "velocity": 64}, {"time": 2442, "pitch": 62, "duration": 6, "velocity": 64}, {"time": 2448, "pitch": 65, "duration": 12, "velocity": 64}, {"time": 2466, "pitch": 65, "duration": 6, "velocity": 64}, {"time": 2472, "pitch": 65, "duration": 12, "velocity": 64}, {"time": 2484, "pitch": 65, "duration": 12, "velocity": 64}, {"time": 2496, "pitch": 70, "duration": 6, "velocity": 64}, {"time": 2502, "pitch": 70, "duration": 6, "velocity": 64}, {"time": 2508, "pitch": 70, "duration": 6, "velocity": 64}, {"time": 2514, "pitch": 67, "duration": 6, "velocity": 64}, {"time": 2520, "pitch": 65, "duration": 12, "velocity": 64}, {"time": 2532, "pitch": 72, "duration": 12, "velocity": 64}, {"time": 2544, "pitch": 65, "duration": 12, "velocity": 64}, {"time": 2562, "pitch": 60, "duration": 6, "velocity": 64}, {"time": 2568, "pitch": 60, "duration": 12, "velocity": 64}, {"time": 2580, "pitch": 60, "duration": 12, "velocity": 64}, {"time": 2592, "pitch": 70, "duration": 6, "velocity": 64}, {"time": 2598, "pitch": 70, "duration": 6, "velocity": 64}, {"time": 2604, "pitch": 70, "duration": 6, "velocity": 64}, {"time": 2610, "pitch": 67, "duration": 6, "velocity": 64}, {"time": 2616, "pitch": 65, "duration": 6, "velocity": 64}, {"time": 2622, "pitch": 67, "duration": 6, "velocity": 64}, {"time": 2628, "pitch": 72, "duration": 6, "velocity": 64}, {"time": 2634, "pitch": 62, "duration": 6, "velocity": 64}, {"time": 2640, "pitch": 65, "duration": 12, "velocity": 64}, {"time": 2658, "pitch": 72, "duration": 6, "velocity": 64}, {"time": 2664, "pitch": 72, "duration": 12, "velocity": 64}, {"time": 2676, "pitch": 72, "duration": 6, "velocity": 64}, {"time": 2682, "pitch": 69, "duration": 6, "velocity": 64}, {"time": 2688, "pitch": 67, "duration": 6, "velocity": 64}, {"time": 2694, "pitch": 69, "duration": 6, "velocity": 64}, {"time": 2700, "pitch": 67, "duration": 6, "velocity": 64}, {"time": 2706, "pitch": 65, "duration": 6, "velocity": 64}, {"time": 2712, "pitch": 65, "duration": 6, "velocity": 64}, {"time": 2718, "pitch": 67, "duration": 6, "velocity": 64}, {"time": 2724, "pitch": 72, "duration": 6, "velocity": 64}, {"time": 2730, "pitch": 62, "duration": 6, "velocity": 64}, {"time": 2736, "pitch": 65, "duration": 12, "velocity": 64}, {"time": 2760, "pitch": 67, "duration": 12, "velocity": 64}, {"time": 2772, "pitch": 67, "duration": 12, "velocity": 64}, {"time": 2784, "pitch": 67, "duration": 12, "velocity": 64}, {"time": 2796, "pitch": 67, "duration": 6, "velocity": 64}, {"time": 2802, "pitch": 67, "duration": 6, "velocity": 64}, {"time": 2808, "pitch": 65, "duration": 12, "velocity": 64}, {"time": 2820, "pitch": 77, "duration": 24, "velocity": 64}, {"time": 2844, "pitch": 74, "duration": 6, "velocity": 64}, {"time": 2850, "pitch": 72, "duration": 6, "velocity": 64}, {"time": 2856, "pitch": 72, "duration": 12, "velocity": 64}, {"time": 2868, "pitch": 72, "duration": 6, "velocity": 64}, {"time": 2874, "pitch": 67, "duration": 6, "velocity": 64}, {"time": 2880, "pitch": 65, "duration": 12, "velocity": 64}, {"time": 2904, "pitch": 67, "duration": 12, "velocity": 64}, {"time": 2916, "pitch": 67, "duration": 6, "velocity": 64}, {"time": 2922, "pitch": 67, "duration": 6, "velocity": 64}, {"time": 2928, "pitch": 67, "duration": 12, "velocity": 64}, {"time": 2940, "pitch": 67, "duration": 6, "velocity": 64}, {"time": 2946, "pitch": 67, "duration": 6, "velocity": 64}, {"time": 2952, "pitch": 65, "duration": 18, "velocity": 64}, {"time": 2970, "pitch": 67, "duration": 6, "velocity": 64}, {"time": 2976, "pitch": 77, "duration": 12, "velocity": 64}, {"time": 2988, "pitch": 72, "duration": 12, "velocity": 64}, {"time": 3000, "pitch": 72, "duration": 12, "velocity": 64}, {"time": 3012, "pitch": 72, "duration": 6, "velocity": 64}, {"time": 3018, "pitch": 67, "duration": 6, "velocity": 64}, {"time": 3024, "pitch": 65, "duration": 48, "velocity": 64}]}]}