{"metadata": {"schema_version": "0.1", "title": "Tongqian ge", "source_format": "abc"}, "resolution": 24, "tempos": [{"time": 0, "qpm": 120.0}], "key_signatures": [{"time": 0, "root": 10, "mode": "major", "fifths": -2}], "time_signatures": [{"time": 0, "numerator": 2, "denominator": 4}], "beats": [{"time": 0, "is_downbeat": true}, {"time": 24, "is_downbeat": false}, {"time": 48, "is_downbeat": true}, {"time": 72, "is_downbeat": false}, {"time": 96, "is_downbeat": true}, {"time": 120, "is_downbeat": false}, {"time": 144, "is_downbeat": true}, {"time": 168, "is_downbeat": false}, {"time": 192, "is_downbeat": true}, {"time": 216, "is_downbeat": false}, {"time": 240, "is_downbeat": true}, {"time": 264, "is_downbeat": false}, {"time": 288, "is_downbeat": true}, {"time": 312, "is_downbeat": false}, {"time": 336, "is_downbeat": true}, {"time": 360, "is_downbeat": false}, {"time": 384, "is_downbeat": true}, {"time": 408, "is_downbeat": false}, {"time": 432, "is_downbeat": true}, {"time": 456, "is_downbeat": false}, {"time": 480, "is_downbeat": true}, {"time": 504, "is_downbeat": false}, {"time": 528, "is_downbeat": true}, {"time": 552, "is_downbeat": false}, {"time": 576, "is_downbeat": true}, {"time": 600, "is_downbeat": false}, {"time": 624, "is_downbeat": true}, {"time": 648, "is_downbeat": false}, {"time": 672, "is_downbeat": true}, {"time": 696, "is_downbeat": false}, {"time": 720, "is_downbeat": true}, {"time": 744, "is_downbeat": false}, {"time": 768, "is_downbeat": true}, {"time": 792, "is_downbeat": false}, {"time": 816, "is_downbeat": true}, {"time": 840, "is_downbeat": false}, {"time": 864, "is_downbeat": true}, {"time": 888, "is_downbeat": false}, {"time": 912, "is_downbeat": true}, {"time": 936, "is_downbeat": false}, {"time": 960, "is_downbeat": true}, {"time": 984, "is_downbeat": false}, {"time": 1008, "is_downbeat": true}, {"time": 1032, "is_downbeat": false}, {"time": 1056, "is_downbeat": true}, {"time": 1080, "is_downbeat": false}, {"time": 1104, "is_downbeat": true}, {"time": 1128, "is_downbeat": false}, {"time": 1152, "is_downbeat": true}, {"time": 1176, "is_downbeat": false}, {"time": 1200, "is_downbeat": true}, {"time": 1224, "is_downbeat": false}, {"time": 1248, "is_downbeat": true}, {"time": 1272, "is_downbeat": false}, {"time": 1296, "is_downbeat": true}, {"time": 1320, "is_downbeat": false}, {"time": 1344, "is_downbeat": true}, {"time": 1368, "is_downbeat": false}, {"time": 1392, "is_downbeat": true}, {"time": 1416, "is_downbeat": false}, {"time": 1440, "is_downbeat": true}, {"time": 1464, "is_downbeat": false}, {"time": 1488, "is_downbeat": true}, {"time": 1512, "is_downbeat": false}, {"time": 1536, "is_downbeat": true}, {"time": 1560, "is_downbeat": false}, {"time": 1584, "is_downbeat": true}, {"time": 1608, "is_downbeat": false}, {"time": 1632, "is_downbeat": true}, {"time": 1656, "is_downbeat": false}, {"time": 1680, "is_downbeat": true}, {"time": 1704, "is_downbeat": false}, {"time": 1728, "is_downbeat": true}, {"time": 1752, "is_downbeat": false}, {"time": 1776, "is_downbeat": true}, {"time": 1800, "is_downbeat": false}, {"time": 1824, "is_downbeat": true}, {"time": 1848, "is_downbeat": false}, {"time": 1872, "is_downbeat": true}, {"time": 1896, "is_downbeat": false}, {"time": 1920, "is_downbeat": true}, {"time": 1944, "is_downbeat": false}, {"time": 1968, "is_downbeat": true}, {"time": 1992, "is_downbeat": false}, {"time": 2016, "is_downbeat": true}, {"time": 2040, "is_downbeat": false}, {"time": 2064, "is_downbeat": true}, {"time": 2088, "is_downbeat": false}, {"time": 2112, "is_downbeat": true}, {"time": 2136, "is_downbeat": false}, {"time": 2160, "is_downbeat": true}, {"time": 2184, "is_downbeat": false}, {"time": 2208, "is_downbeat": true}, {"time": 2232, "is_downbeat": false}, {"time": 2256, "is_downbeat": true}, {"time": 2280, "is_downbeat": false}, {"time": 2304, "is_downbeat": true}, {"time": 2328, "is_downbeat": false}, {"time": 2352, "is_downbeat": true}, {"time": 2376, "is_downbeat": false}, {"time": 2400, "is_downbeat": true}, {"time": 2424, "is_downbeat": false}, {"time": 2448, "is_downbeat": true}, {"time": 2472, "is_downbeat": false}, {"time": 2496, "is_downbeat": true}, {"time": 2520, "is_downbeat": false}, {"time": 2544, "is_downbeat": true}, {"time": 2568, "is_downbeat": false}, {"time": 2592, "is_downbeat": true}, {"time": 2616, "is_downbeat": false}, {"time": 2640, "is_downbeat": true}, {"time": 2664, "is_downbeat": false}, {"time": 2688, "is_downbeat": true}, {"time": 2712, "is_downbeat": false}, {"time": 2736, "is_downbeat": true}, {"time": 2760, "is_downbeat": false}, {"time": 2784, "is_downbeat": true}, {"time": 2808, "is_downbeat": false}, {"time": 2832, "is_downbeat": true}, {"time": 2856, "is_downbeat": false}, {"time": 2880, "is_downbeat": true}, {"time": 2904, "is_downbeat": false}, {"time": 2928, "is_downbeat": true}, {"time": 2952, "is_downbeat": false}, {"time": 2976, "is_downbeat": true}, {"time": 3000, "is_downbeat": false}], "tracks": [{"program": 0, "is_drum": false, "notes": [{"time": 0, "pitch": 82, "duration": 24, "velocity": 64}, {"time": 24, "pitch": 79, "duration": 12, "velocity": 64}, {"time": 36, "pitch": 82, "duration": 12, "velocity": 64}, {"time": 48, "pitch": 77, "duration": 12, "velocity": 64}, {"time": 60, "pitch": 74, "duration": 24, "velocity": 64}, {"time": 84, "pitch": 79, "duration": 12, "velocity": 64}, {"time": 96, "pitch": 74, "duration": 12, "velocity": 64}, {"time": 108, "pitch": 74, "duration": 6, "velocity": 64}, {"time": 114, "pitch": 77, "duration": 6, "velocity": 64}, {"time": 120, "pitch": 82, "duration": 12, "velocity": 64}, {"time": 132, "pitch": 82, "duration": 6, "velocity": 64}, {"time": 138, "pitch": 79, "duration": 6, "velocity": 64}, {"time": 144, "pitch": 79, "duration": 24, "velocity": 64}, {"time": 192, "pitch": 82, "duration": 12, "velocity": 64}, {"time": 204, "pitch": 79, "duration": 12, "velocity": 64}, {"time": 216, "pitch": 79, "duration": 12, "velocity": 64}, {"time": 228, "pitch": 82, "duration": 12, "velocity": 64}, {"time": 240, "pitch": 74, "duration": 12, "velocity": 64}, {"time": 252, "pitch": 77, "duration": 12, "velocity": 64}, {"time": 264, "pitch": 74, "duration": 24, "velocity": 64}, {"time": 288, "pitch": 82, "duration": 12, "velocity": 64}, {"time": 300, "pitch": 79, "duration": 6, "velocity": 64}, {"time": 306, "pitch": 82, "duration": 6, "velocity": 64}, {"time": 312, "pitch": 74, "duration": 12, "velocity": 64}, {"time": 324, "pitch": 82, "duration": 6, "velocity": 64}, {"time": 330, "pitch": 79, "duration": 6, "velocity": 64}, {"time": 336, "pitch": 79, "duration": 24, "velocity": 64}, {"time": 384, "pitch": 82, "duration": 12, "velocity": 64}, {"time": 396, "pitch": 79, "duration": 12, "velocity": 64}, {"time": 408, "pitch": 79, "duration": 12, "velocity": 64}, {"time": 420, "pitch": 82, "duration": 12, "velocity": 64}, {"time": 432, "pitch": 74, "duration": 12, "velocity": 64}, {"time": 444, "pitch": 77, "duration": 12, "velocity": 64}, {"time": 456, "pitch": 74, "duration": 24, "velocity": 64}, {"time": 480, "pitch": 82, "duration": 12, "velocity": 64}, {"time": 492, "pitch": 82, "duration": 12, "velocity": 64}, {"time": 504, "pitch": 79, "duration": 12, "velocity": 64}, {"time": 516, "pitch": 82, "duration": 12, "velocity": 64}, {"time": 528, "pitch": 74, "duration": 12, "velocity": 64}, {"time": 540, "pitch": 77, "duration": 12, "velocity": 64}, {"time": 552, "pitch": 74, "duration": 24, "velocity": 64}, {"time": 576, "pitch": 82, "duration": 12, "velocity": 64}, {"time": 588, "pitch": 82, "duration": 6, "velocity": 64}, {"time": 594, "pitch": 79, "duration": 6, "velocity": 64}, {"time": 600, "pitch": 79, "duration": 12, "velocity": 64}, {"time": 612, "pitch": 82, "duration": 12, "velocity": 64}, {"time": 624, "pitch": 79, "duration": 12, "velocity": 64}, {"time": 636, "pitch": 79, "duration": 6, "velocity": 64}, {"time": 642, "pitch": 82, "duration": 6, "velocity": 64}, {"time": 648, "pitch": 74, "duration": 24, "velocity": 64}, {"time": 672, "pitch": 82, "duration": 12, "velocity": 64}, {"time": 684, "pitch": 79, "duration": 6, "velocity": 64}, {"time": 690, "pitch": 82, "duration": 6, "velocity": 64}, {"time": 696, "pitch": 74, "duration": 12, "velocity": 64}, {"time": 708, "pitch": 82, "duration": 6, "velocity": 64}, {"time": 714, "pitch": 79, "duration": 6, "velocity": 64}, {"time": 720, "pitch": 79, "duration": 24, "velocity": 64}, {"time": 768, "pitch": 82, "duration": 18, "velocity": 64}, {"time": 786, "pitch": 82, "duration": 6, "velocity": 64}, {"time": 792, "pitch": 74, "duration": 12, "velocity": 64}, {"time": 804, "pitch": 82, "duration": 12, "velocity": 64}, {"time": 816, "pitch": 77, "duration": 12, "velocity": 64}, {"time": 828, "pitch": 74, "duration": 24, "velocity": 64}, {"time": 852, "pitch": 79, "duration": 12, "velocity": 64}, {"time": 864, "pitch": 74, "duration": 12, "velocity": 64}, {"time": 876, "pitch": 79, "duration": 6, "velocity": 64}, {"time": 882, "pitch": 79, "duration": 6, "velocity": 64}, {"time": 888, "pitch": 82, "duration": 12, "velocity": 64}, {"time": 900, "pitch": 82, "duration": 6, "velocity": 64}, {"time": 906, "pitch": 79, "duration": 6, "velocity": 64}, {"time": 912, "pitch": 79, "duration": 24, "velocity": 64}, {"time": 960, "pitch": 79, "duration": 12, "velocity": 64}, {"time": 972, "pitch": 82, "duration": 12, "velocity": 64}, {"time": 984, "pitch": 79, "duration": 12, "velocity": 64}, {"time": 996, "pitch": 77, "duration": 12, "velocity": 64}, {"time": 1008, "pitch": 79, "duration": 12, "velocity": 64}, {"time": 1020, "pitch": 82, "duration": 12, "velocity": 64}, {"time": 1032, "pitch": 79, "duration": 12, "velocity": 64}, {"time": 1044, "pitch": 77, "duration": 12, "velocity": 64}, {"time": 1056, "pitch": 79, "duration": 12, "velocity": 64}, {"time": 1068, "pitch": 82, "duration": 12, "velocity": 64}, {"time": 1080, "pitch": 79, "duration": 12, "velocity": 64}, {"time": 1092, "pitch": 77, "duration": 12, "velocity": 64}, {"time": 1104, "pitch": 79, "duration": 18, "velocity": 64}, {"time": 1122, "pitch": 82, "duration": 6, "velocity": 64}, {"time": 1128, "pitch": 79, "duration": 6, "velocity": 64}, {"time": 1134, "pitch": 82, "duration": 6, "velocity": 64}, {"time": 1140, "pitch": 79, "duration": 6, "velocity": 64}, {"time": 1146, "pitch": 77, "duration": 6, "velocity": 64}, {"time": 1152, "pitch": 74, "duration": 24, "velocity": 64}, {"time": 1176, "pitch": 77, "duration": 24, "velocity": 64}, {"time": 1200, "pitch": 79, "duration": 18, "velocity": 64}, {"time": 1218, "pitch": 82, "duration": 6, "velocity": 64}, {"time": 1224, "pitch": 79, "duration": 6, "velocity": 64}, {"time": 1230, "pitch": 82, "duration": 6, "velocity": 64}, {"time": 1236, "pitch": 79, "duration": 6, "velocity": 64}, {"time": 1242, "pitch": 77, "duration": 6, "velocity": 64}, {"time": 1248, "pitch": 74, "duration": 24, "velocity": 64}, {"time": 1272, "pitch": 77, "duration": 24, "velocity": 64}, {"time": 1296, "pitch": 74, "duration": 6, "velocity": 64}, {"time": 1302, "pitch": 77, "duration": 6, "velocity": 64}, {"time": 1308, "pitch": 82, "duration": 12, "velocity": 64}, {"time": 1320, "pitch": 79, "duration": 6, "velocity": 64}, {"time": 1326, "pitch": 82, "duration": 6, "velocity": 64}, {"time": 1332, "pitch": 74, "duration": 12, "velocity": 64}, {"time": 1344, "pitch": 82, "duration": 24, "velocity": 64}, {"time": 1368, "pitch": 82, "duration": 24, "velocity": 64}, {"time": 1392, "pitch": 82, "duration": 12, "velocity": 64}, {"time": 1404, "pitch": 82, "duration": 6, "velocity": 64}, {"time": 1410, "pitch": 79, "duration": 6, "velocity": 64}, {"time": 1416, "pitch": 82, "duration": 12, "velocity": 64}, {"time": 1428, "pitch": 74, "duration": 12, "velocity": 64}, {"time": 1440, "pitch": 79, "duration": 24, "velocity": 64}, {"time": 1464, "pitch": 77, "duration": 24, "velocity": 64}, {"time": 1488, "pitch": 82, "duration": 24, "velocity": 64}, {"time": 1512, "pitch": 79, "duration": 12, "velocity": 64}, {"time": 1524, "pitch": 82, "duration": 12, "velocity": 64}, {"time": 1536, "pitch": 77, "duration": 12, "velocity": 64}, {"time": 1548, "pitch": 74, "duration": 24, "velocity": 64}, {"time": 1572, "pitch": 79, "duration": 12, "velocity": 64}, {"time": 1584, "pitch": 74, "duration": 12, "velocity": 64}, {"time": 1596, "pitch": 74, "duration": 6, "velocity": 64}, {"time": 1602, "pitch": 77, "duration": 6, "velocity": 64}, {"time": 1608, "pitch": 82, "duration": 12, "velocity": 64}, {"time": 1620, "pitch": 82, "duration": 6, "velocity": 64}, {"time": 1626, "pitch": 79, "duration": 6, "velocity": 64}, {"time": 1632, "pitch": 79, "duration": 24, "velocity": 64}, {"time": 1680, "pitch": 82, "duration": 12, "velocity": 64}, {"time": 1692, "pitch": 79, "duration": 12, "velocity": 64}, {"time": 1704, "pitch": 79, "duration": 12, "velocity": 64}, {"time": 1716, "pitch": 82, "duration": 12, "velocity": 64}, {"time": 1728, "pitch": 74, "duration": 12, "velocity": 64}, {"time": 1740, "pitch": 77, "duration": 12, "velocity": 64}, {"time": 1752, "pitch": 74, "duration": 24, "velocity": 64}, {"time": 1776, "pitch": 82, "duration": 12, "velocity": 64}, {"time": 1788, "pitch": 79, "duration": 6, "velocity": 64}, {"time": 1794, "pitch": 82, "duration": 6, "velocity": 64}, {"time": 1800, "pitch": 74, "duration": 12, "velocity": 64}, {"time": 1812, "pitch": 82, "duration": 6, "velocity": 64}, {"time": 1818, "pitch": 79, "duration": 6, "velocity": 64}, {"time": 1824, "pitch": 79, "duration": 24, "velocity": 64}, {"time": 1872, "pitch": 82, "duration": 12, "velocity": 64}, {"time": 1884, "pitch": 79, "duration": 12, "velocity": 64}, {"time": 1896, "pitch": 79, "duration": 12, "velocity": 64}, {"time": 1908, "pitch": 82, "duration": 12, "velocity": 64}, {"time": 1920, "pitch": 74, "duration": 12, "velocity": 64}, {"time": 1932, "pitch": 77, "duration": 12, "velocity": 64}, {"time": 1944, "pitch": 74, "duration": 24, "velocity": 64}, {"time": 1968, "pitch": 82, "duration": 12, "velocity": 64}, {"time": 1980, "pitch": 82, "duration": 12, "velocity": 64}, {"time": 1992, "pitch": 79, "duration": 12, "velocity": 64}, {"time": 2004, "pitch": 82, "duration": 12, "velocity": 64}, {"time": 2016, "pitch": 74, "duration": 12, "velocity": 64}, {"time": 2028, "pitch": 77, "duration": 12, "velocity": 64}, {"time": 2040, "pitch": 74, "duration": 24, "velocity": 64}, {"time": 2064, "pitch": 82, "duration": 12, "velocity": 64}, {"time": 2076, "pitch": 82, "duration": 6, "velocity": 64}, {"time": 2082, "pitch": 79, "duration": 6, "velocity": 64}, {"time": 2088, "pitch": 79, "duration": 12, "velocity": 64}, {"time": 2100, "pitch": 82, "duration": 12, "velocity": 64}, {"time": 2112, "pitch": 79, "duration": 12, "velocity": 64}, {"time": 2124, "pitch": 79, "duration": 6, "velocity": 64}, {"time": 2130, "pitch": 82, "duration": 6, "velocity": 64}, {"time": 2136, "pitch": 74, "duration": 24, "velocity": 64}, {"time": 2160, "pitch": 82, "duration": 12, "velocity": 64}, {"time": 2172, "pitch": 79, "duration": 6, "velocity": 64}, {"time": 2178, "pitch": 82, "duration": 6, "velocity": 64}, {"time": 2184, "pitch": 74, "duration": 12, "velocity": 64}, {"time": 2196, "pitch": 82, "duration": 6, "velocity": 64}, {"time": 2202, "pitch": 79, "duration": 6, "velocity": 64}, {"time": 2208, "pitch": 79, "duration": 24, "velocity": 64}, {"time": 2256, "pitch": 82, "duration": 18, "velocity": 64}, {"time": 2274, "pitch": 82, "duration": 6, "velocity": 64}, {"time": 2280, "pitch": 74, "duration": 12, "velocity": 64}, {"time": 2292, "pitch": 82, "duration": 12, "velocity": 64}, {"time": 2304, "pitch": 77, "duration": 12, "velocity": 64}, {"time": 2316, "pitch": 74, "duration": 24, "velocity": 64}, {"time": 2340, "pitch": 79, "duration": 12, "velocity": 64}, {"time": 2352, "pitch": 74, "duration": 12, "velocity": 64}, {"time": 2364, "pitch": 79, "duration": 6, "velocity": 64}, {"time": 2370, "pitch": 79, "duration": 6, "velocity": 64}, {"time": 2376, "pitch": 82, "duration": 12, "velocity": 64}, {"time": 2388, "pitch": 82, "duration": 6, "velocity": 64}, {"time": 2394, "pitch": 79, "duration": 6, "velocity": 64}, {"time": 2400, "pitch": 79, "duration": 24, "velocity": 64}, {"time": 2448, "pitch": 79, "duration": 12, "velocity": 64}, {"time": 2460, "pitch": 82, "duration": 12, "velocity": 64}, {"time": 2472, "pitch": 79, "duration": 12, "velocity": 64}, {"time": 2484, "pitch": 77, "duration": 12, "velocity": 64}, {"time": 2496, "pitch": 79, "duration": 12, "velocity": 64}, {"time": 2508, "pitch": 82, "duration": 12, "velocity": 64}, {"time": 2520, "pitch": 79, "duration": 12, "velocity": 64}, {"time": 2532, "pitch": 77, "duration": 12, "velocity": 64}, {"time": 2544, "pitch": 79, "duration": 12, "velocity": 64}, {"time": 2556, "pitch": 82, "duration": 12, "velocity": 64}, {"time": 2568, "pitch": 79, "duration": 12, "velocity": 64}, {"time": 2580, "pitch": 77, "duration": 12, "velocity": 64}, {"time": 2592, "pitch": 79, "duration": 18, "velocity": 64}, {"time": 2610, "pitch": 82, "duration": 6, "velocity": 64}, {"time": 2616, "pitch": 79, "duration": 6, "velocity": 64}, {"time": 2622, "pitch": 82, "duration": 6, "velocity": 64}, {"time": 2628, "pitch": 79, "duration": 6, "velocity": 64}, {"time": 2634, "pitch": 77, "duration": 6, "velocity": 64}, {"time": 2640, "pitch": 74, "duration": 24, "velocity": 64}, {"time": 2664, "pitch": 77, "duration": 24, "velocity": 64}, {"time": 2688, "pitch": 79, "duration": 18, "velocity": 64}, {"time": 2706, "pitch": 82, "duration": 6, "velocity": 64}, {"time": 2712, "pitch": 79, "duration": 6, "velocity": 64}, {"time": 2718, "pitch": 82, "duration": 6, "velocity": 64}, {"time": 2724, "pitch": 79, "duration": 6, "velocity": 64}, {"time": 2730, "pitch": 77, "duration": 6, "velocity": 64}, {"time": 2736, "pitch": 74, "duration": 24, "velocity": 64}, {"time": 2760, "pitch": 77, "duration": 24, "velocity": 64}, {"time": 2784, "pitch": 74, "duration": 6, "velocity": 64}, {"time": 2790, "pitch": 77, "duration": 6, "velocity": 64}, {"time": 2796, "pitch": 82, "duration": 12, "velocity": 64}, {"time": 2808, "pitch": 79, "duration": 6, "velocity": 64}, {"time": 2814, "pitch": 82, "duration": 6, "velocity": 64}, {"time": 2820, "pitch": 74, "duration": 12, "velocity": 64}, {"time": 2832, "pitch": 82, "duration": 24, "velocity": 64}, {"time": 2856, "pitch": 82, "duration": 24, "velocity": 64}, {"time": 2880, "pitch": 77, "duration": 12, "velocity": 64}, {"time": 2892, "pitch": 74, "duration": 24, "velocity": 64}, {"time": 2916, "pitch": 77, "duration": 12, "velocity": 64}, {"time": 2928, "pitch": 82, "duration": 36, "velocity": 64}, {"time": 2964, "pitch": 77, "duration": 12, "velocity": 64}, {"time": 2976, "pitch": 79, "duration": 48, "velocity": 64}]}]}