{"metadata": {"schema_version": "0.1", "title": "Na you xiankong hui niangjia", "source_format": "abc"}, "resolution": 24, "tempos": [{"time": 0, "qpm": 120.0}], "key_signatures": [{"time": 0, "root": 2, "mode": "major", "fifths": 2}], "time_signatures": [{"time": 0, "numerator": 4, "denominator": 4}, {"time": 432, "numerator": 1, "denominator": 4}, {"time": 984, "numerator": 1, "denominator": 4}, {"time": 1344, "numerator": 1, "denominator": 4}, {"time": 1896, "numerator": 1, "denominator": 4}, {"time": 2448, "numerator": 1, "denominator": 4}, {"time": 2808, "numerator": 1, "denominator": 4}, {"time": 2832, "numerator": 2, "denominator": 4}], "beats": [{"time": 0, "is_downbeat": true}, {"time": 24, "is_downbeat": true}, {"time": 48, "is_downbeat": true}, {"time": 72, "is_downbeat": true}, {"time": 96, "is_downbeat": true}, {"time": 120, "is_downbeat": true}, {"time": 144, "is_downbeat": true}, {"time": 168, "is_downbeat": true}, {"time": 192, "is_downbeat": true}, {"time": 216, "is_downbeat": true}, {"time": 240, "is_downbeat": true}, {"time": 264, "is_downbeat": true}, {"time": 288, "is_downbeat": true}, {"time": 312, "is_downbeat": true}, {"time": 336, "is_downbeat": true}, {"time": 360, "is_downbeat": true}, {"time": 384, "is_downbeat": true}, {"time": 408, "is_downbeat": true}, {"time": 432, "is_downbeat": true}, {"time": 456, "is_downbeat": true}, {"time": 480, "is_downbeat": true}, {"time": 504, "is_downbeat": true}, {"time": 528, "is_downbeat": true}, {"time": 552, "is_downbeat": true}, {"time": 576, "is_downbeat": true}, {"time": 600, "is_downbeat": true}, {"time": 624, "is_downbeat": true}, {"time": 648, "is_downbeat": true}, {"time": 672, "is_downbeat": true}, {"time": 696, "is_downbeat": true}, {"time": 720, "is_downbeat": true}, {"time": 744, "is_downbeat": true}, {"time": 768, "is_downbeat": true}, {"time": 792, "is_downbeat": true}, {"time": 816, "is_downbeat": true}, {"time": 840, "is_downbeat": true}, {"time": 864, "is_downbeat": true}, {"time": 888, "is_downbeat": true}, {"time": 912, "is_downbeat": true}, {"time": 936, "is_downbeat": true}, {"time": 960, "is_downbeat": true}, {"time": 984, "is_downbeat": true}, {"time": 1008, "is_downbeat": true}, {"time": 1032, "is_downbeat": true}, {"time": 1056, "is_downbeat": true}, {"time": 1080, "is_downbeat": true}, {"time": 1104, "is_downbeat": true}, {"time": 1128, "is_downbeat": true}, {"time": 1152, "is_downbeat": true}, {"time": 1176, "is_downbeat": true}, {"time": 1200, "is_downbeat": true}, {"time": 1224, "is_downbeat": true}, {"time": 1248, "is_downbeat": true}, {"time": 1272, "is_downbeat": true}, {"time": 1296, "is_downbeat": true}, {"time": 1320, "is_downbeat": true}, {"time": 1344, "is_downbeat": true}, {"time": 1368, "is_downbeat": true}, {"time": 1392, "is_downbeat": true}, {"time": 1416, "is_downbeat": true}, {"time": 1440, "is_downbeat": true}, {"time": 1464, "is_downbeat": true}, {"time": 1488, "is_downbeat": true}, {"time": 1512, "is_downbeat": true}, {"time": 1536, "is_downbeat": true}, {"time": 1560, "is_downbeat": true}, {"time": 1584, "is_downbeat": true}, {"time": 1608, "is_downbeat": true}, {"time": 1632, "is_downbeat": true}, {"time": 1656, "is_downbeat": true}, {"time": 1680, "is_downbeat": true}, {"time": 1704, "is_downbeat": true}, {"time": 1728, "is_downbeat": true}, {"time": 1752, "is_downbeat": true}, {"time": 1776, "is_downbeat": true}, {"time": 1800, "is_downbeat": true}, {"time": 1824, "is_downbeat": true}, {"time": 1848, "is_downbeat": true}, {"time": 1872, "is_downbeat": true}, {"time": 1896, "is_downbeat": true}, {"time": 1920, "is_downbeat": true}, {"time": 1944, "is_downbeat": true}, {"time": 1968, "is_downbeat": true}, {"time": 1992, "is_downbeat": true}, {"time": 2016, "is_downbeat": true}, {"time": 2040, "is_downbeat": true}, {"time": 2064, "is_downbeat": true}, {"time": 2088, "is_downbeat": true}, {"time": 2112, "is_downbeat": true}, {"time": 2136, "is_downbeat": true}, {"time": 2160, "is_downbeat": true}, {"time": 2184, "is_downbeat": true}, {"time": 2208, "is_downbeat": true}, {"time": 2232, "is_downbeat": true}, {"time": 2256, "is_downbeat": true}, {"time": 2280, "is_downbeat": true}, {"time": 2304, "is_downbeat": true}, {"time": 2328, "is_downbeat": true}, {"time": 2352, "is_downbeat": true}, {"time": 2376, "is_downbeat": true}, {"time": 2400, "is_downbeat": true}, {"time": 2424, "is_downbeat": true}, {"time": 2448, "is_downbeat": true}, {"time": 2472, "is_downbeat": true}, {"time": 2496, "is_downbeat": true}, {"time": 2520, "is_downbeat": true}, {"time": 2544, "is_downbeat": true}, {"time": 2568, "is_downbeat": true}, {"time": 2592, "is_downbeat": true}, {"time": 2616, "is_downbeat": true}, {"time": 2640, "is_downbeat": true}, {"time": 2664, "is_downbeat": true}, {"time": 2688, "is_downbeat": true}, {"time": 2712, "is_downbeat": true}, {"time": 2736, "is_downbeat": true}, {"time": 2760, "is_downbeat": true}, {"time": 2784, "is_downbeat": true}, {"time": 2808, "is_downbeat": true}, {"time": 2832, "is_downbeat": true}, {"time": 2856, "is_downbeat": false}, {"time": 2880, "is_downbeat": true}, {"time": 2904, "is_downbeat": false}], "tracks": [{"program": 0, "is_drum": false, "notes": [{"time": 0, "pitch": 74, "duration": 18, "velocity": 64}, {"time": 18, "pitch": 76, "duration": 6, "velocity": 64}, {"time": 24, "pitch": 74, "duration": 6, "velocity": 64}, {"time": 30, "pitch": 76, "duration": 6, "velocity": 64}, {"time": 36, "pitch": 74, "duration": 12, "velocity": 64}, {"time": 48, "pitch": 74, "duration": 6, "velocity": 64}, {"time": 54, "pitch": 76, "duration": 6, "velocity": 64}, {"time": 60, "pitch": 69, "duration": 24, "velocity": 64}, {"time": 84, "pitch": 74, "duration": 12, "velocity": 64}, {"time": 96, "pitch": 74, "duration": 12, "velocity": 64}, {"time": 108, "pitch": 74, "duration": 6, "velocity": 64}, {"time": 114, "pitch": 78, "duration": 6, "velocity": 64}, {"time": 120, "pitch": 76, "duration": 24, "velocity": 64}, {"time": 144, "pitch": 74, "duration": 12, "velocity": 64}, {"time": 156, "pitch": 66, "duration": 12, "velocity": 64}, {"time": 168, "pitch": 69, "duration": 12, "velocity": 64}, {"time": 180, "pitch": 69, "duration": 6, "velocity": 64}, {"time": 186, "pitch": 66, "duration": 6, "velocity": 64}, {"time": 192, "pitch": 69, "duration": 12, "velocity": 64}, {"time": 204, "pitch": 69, "duration": 24, "velocity": 64}, {"time": 228, "pitch": 64, "duration": 6, "velocity": 64}, {"time": 234, "pitch": 66, "duration": 6, "velocity": 64}, {"time": 240, "pitch": 69, "duration": 6, "velocity": 64}, {"time": 246, "pitch": 71, "duration": 6, "velocity": 64}, {"time": 252, "pitch": 64, "duration": 6, "velocity": 64}, {"time": 258, "pitch": 66, "duration": 6, "velocity": 64}, {"time": 264, "pitch": 69, "duration": 24, "velocity": 64}, {"time": 288, "pitch": 69, "duration": 18, "velocity": 64}, {"time": 306, "pitch": 74, "duration": 6, "velocity": 64}, {"time": 312, "pitch": 74, "duration": 6, "velocity": 64}, {"time": 318, "pitch": 76, "duration": 6, "velocity": 64}, {"time": 324, "pitch": 66, "duration": 12, "velocity": 64}, {"time": 336, "pitch": 69, "duration": 12, "velocity": 64}, {"time": 348, "pitch": 69, "duration": 6, "velocity": 64}, {"time": 354, "pitch": 74, "duration": 6, "velocity": 64}, {"time": 360, "pitch": 69, "duration": 12, "velocity": 64}, {"time": 372, "pitch": 69, "duration": 6, "velocity": 64}, {"time": 378, "pitch": 66, "duration": 6, "velocity": 64}, {"time": 384, "pitch": 69, "duration": 12, "velocity": 64}, {"time": 396, "pitch": 66, "duration": 12, "velocity": 64}, {"time": 408, "pitch": 69, "duration": 24, "velocity": 64}, {"time": 432, "pitch": 74, "duration": 24, "velocity": 64}, {"time": 456, "pitch": 66, "duration": 12, "velocity": 64}, {"time": 468, "pitch": 69, "duration": 24, "velocity": 64}, {"time": 492, "pitch": 66, "duration": 12, "velocity": 64}, {"time": 504, "pitch": 66, "duration": 6, "velocity": 64}, {"time": 510, "pitch": 64, "duration": 6, "velocity": 64}, {"time": 516, "pitch": 62, "duration": 6, "velocity": 64}, {"time": 522, "pitch": 66, "duration": 6, "velocity": 64}, {"time": 528, "pitch": 64, "duration": 24, "velocity": 64}, {"time": 552, "pitch": 74, "duration": 18, "velocity": 64}, {"time": 570, "pitch": 76, "duration": 6, "velocity": 64}, {"time": 576, "pitch": 74, "duration": 6, "velocity": 64}, {"time": 582, "pitch": 76, "duration": 6, "velocity": 64}, {"time": 588, "pitch": 74, "duration": 12, "velocity": 64}, {"time": 600, "pitch": 74, "duration": 6, "velocity": 64}, {"time": 606, "pitch": 76, "duration": 6, "velocity": 64}, {"time": 612, "pitch": 69, "duration": 24, "velocity": 64}, {"time": 636, "pitch": 74, "duration": 12, "velocity": 64}, {"time": 648, "pitch": 74, "duration": 12, "velocity": 64}, {"time": 660, "pitch": 74, "duration": 6, "velocity": 64}, {"time": 666, "pitch": 78, "duration": 6, "velocity": 64}, {"time": 672, "pitch": 76, "duration": 24, "velocity": 64}, {"time": 696, "pitch": 74, "duration": 12, "velocity": 64}, {"time": 708, "pitch": 66, "duration": 12, "velocity": 64}, {"time": 720, "pitch": 69, "duration": 12, "velocity": 64}, {"time": 732, "pitch": 69, "duration": 6, "velocity": 64}, {"time": 738, "pitch": 66, "duration": 6, "velocity": 64}, {"time": 744, "pitch": 69, "duration": 12, "velocity": 64}, {"time": 756, "pitch": 69, "duration": 24, "velocity": 64}, {"time": 780, "pitch": 66, "duration": 12, "velocity": 64}, {"time": 792, "pitch": 69, "duration": 6, "velocity": 64}, {"time": 798, "pitch": 71, "duration": 6, "velocity": 64}, {"time": 804, "pitch": 64, "duration": 6, "velocity": 64}, {"time": 810, "pitch": 66, "duration": 6, "velocity": 64}, {"time": 816, "pitch": 69, "duration": 24, "velocity": 64}, {"time": 840, "pitch": 74, "duration": 18, "velocity": 64}, {"time": 858, "pitch": 74, "duration": 6, "velocity": 64}, {"time": 864, "pitch": 66, "duration": 6, "velocity": 64}, {"time": 870, "pitch": 69, "duration": 6, "velocity": 64}, {"time": 876, "pitch": 66, "duration": 6, "velocity": 64}, {"time": 882, "pitch": 69, "duration": 6, "velocity": 64}, {"time": 888, "pitch": 74, "duration": 6, "velocity": 64}, {"time": 894, "pitch": 66, "duration": 6, "velocity": 64}, {"time": 900, "pitch": 69, "duration": 12, "velocity": 64}, {"time": 912, "pitch": 69, "duration": 12, "velocity": 64}, {"time": 924, "pitch": 69, "duration": 6, "velocity": 64}, {"time": 930, "pitch": 66, "duration": 6, "velocity": 64}, {"time": 936, "pitch": 69, "duration": 12, "velocity": 64}, {"time": 948, "pitch": 66, "duration": 12, "velocity": 64}, {"time": 960, "pitch": 69, "duration": 24, "velocity": 64}, {"time": 984, "pitch": 74, "duration": 24, "velocity": 64}, {"time": 1008, "pitch": 66, "duration": 12, "velocity": 64}, {"time": 1020, "pitch": 69, "duration": 24, "velocity": 64}, {"time": 1044, "pitch": 66, "duration": 6, "velocity": 64}, {"time": 1050, "pitch": 64, "duration": 6, "velocity": 64}, {"time": 1056, "pitch": 66, "duration": 6, "velocity": 64}, {"time": 1062, "pitch": 64, "duration": 6, "velocity": 64}, {"time": 1068, "pitch": 62, "duration": 6, "velocity": 64}, {"time": 1074, "pitch": 66, "duration": 6, "velocity": 64}, {"time": 1080, "pitch": 64, "duration": 24, "velocity": 64}, {"time": 1104, "pitch": 74, "duration": 6, "velocity": 64}, {"time": 1110, "pitch": 74, "duration": 6, "velocity": 64}, {"time": 1116, "pitch": 74, "duration": 6, "velocity": 64}, {"time": 1122, "pitch": 78, "duration": 6, "velocity": 64}, {"time": 1128, "pitch": 76, "duration": 24, "velocity": 64}, {"time": 1152, "pitch": 74, "duration": 6, "velocity": 64}, {"time": 1158, "pitch": 76, "duration": 6, "velocity": 64}, {"time": 1164, "pitch": 74, "duration": 6, "velocity": 64}, {"time": 1170, "pitch": 76, "duration": 6, "velocity": 64}, {"time": 1176, "pitch": 69, "duration": 24, "velocity": 64}, {"time": 1200, "pitch": 74, "duration": 18, "velocity": 64}, {"time": 1218, "pitch": 74, "duration": 6, "velocity": 64}, {"time": 1224, "pitch": 66, "duration": 6, "velocity": 64}, {"time": 1230, "pitch": 69, "duration": 6, "velocity": 64}, {"time": 1236, "pitch": 66, "duration": 6, "velocity": 64}, {"time": 1242, "pitch": 69, "duration": 6, "velocity": 64}, {"time": 1248, "pitch": 74, "duration": 6, "velocity": 64}, {"time": 1254, "pitch": 78, "duration": 6, "velocity": 64}, {"time": 1260, "pitch": 69, "duration": 12, "velocity": 64}, {"time": 1272, "pitch": 69, "duration": 12, "velocity": 64}, {"time": 1284, "pitch": 69, "duration": 6, "velocity": 64}, {"time": 1290, "pitch": 66, "duration": 6, "velocity": 64}, {"time": 1296, "pitch": 69, "duration": 18, "velocity": 64}, {"time": 1314, "pitch": 66, "duration": 6, "velocity": 64}, {"time": 1320, "pitch": 69, "duration": 24, "velocity": 64}, {"time": 1344, "pitch": 74, "duration": 24, "velocity": 64}, {"time": 1368, "pitch": 66, "duration": 12, "velocity": 64}, {"time": 1380, "pitch": 69, "duration": 24, "velocity": 64}, {"time": 1404, "pitch": 66, "duration": 6, "velocity": 64}, {"time": 1410, "pitch": 64, "duration": 6, "velocity": 64}, {"time": 1416, "pitch": 66, "duration": 6, "velocity": 64}, {"time": 1422, "pitch": 64, "duration": 6, "velocity": 64}, {"time": 1428, "pitch": 62, "duration": 6, "velocity": 64}, {"time": 1434, "pitch": 66, "duration": 6, "velocity": 64}, {"time": 1440, "pitch": 64, "duration": 24, "velocity": 64}, {"time": 1464, "pitch": 69, "duration": 12, "velocity": 64}, {"time": 1476, "pitch": 74, "duration": 6, "velocity": 64}, {"time": 1482, "pitch": 74, "duration": 6, "velocity": 64}, {"time": 1488, "pitch": 74, "duration": 6, "velocity": 64}, {"time": 1494, "pitch": 76, "duration": 6, "velocity": 64}, {"time": 1500, "pitch": 74, "duration": 12, "velocity": 64}, {"time": 1512, "pitch": 74, "duration": 6, "velocity": 64}, {"time": 1518, "pitch": 76, "duration": 6, "velocity": 64}, {"time": 1524, "pitch": 69, "duration": 24, "velocity": 64}, {"time": 1548, "pitch": 74, "duration": 12, "velocity": 64}, {"time": 1560, "pitch": 74, "duration": 12, "velocity": 64}, {"time": 1572, "pitch": 74, "duration": 6, "velocity": 64}, {"time": 1578, "pitch": 78, "duration": 6, "velocity": 64}, {"time": 1584, "pitch": 76, "duration": 24, "velocity": 64}, {"time": 1608, "pitch": 74, "duration": 18, "velocity": 64}, {"time": 1626, "pitch": 66, "duration": 6, "velocity": 64}, {"time": 1632, "pitch": 69, "duration": 12, "velocity": 64}, {"time": 1644, "pitch": 69, "duration": 6, "velocity": 64}, {"time": 1650, "pitch": 66, "duration": 6, "velocity": 64}, {"time": 1656, "pitch": 69, "duration": 12, "velocity": 64}, {"time": 1668, "pitch": 69, "duration": 24, "velocity": 64}, {"time": 1692, "pitch": 64, "duration": 6, "velocity": 64}, {"time": 1698, "pitch": 66, "duration": 6, "velocity": 64}, {"time": 1704, "pitch": 66, "duration": 6, "velocity": 64}, {"time": 1710, "pitch": 69, "duration": 6, "velocity": 64}, {"time": 1716, "pitch": 64, "duration": 6, "velocity": 64}, {"time": 1722, "pitch": 66, "duration": 6, "velocity": 64}, {"time": 1728, "pitch": 69, "duration": 24, "velocity": 64}, {"time": 1752, "pitch": 69, "duration": 18, "velocity": 64}, {"time": 1770, "pitch": 74, "duration": 6, "velocity": 64}, {"time": 1776, "pitch": 74, "duration": 6, "velocity": 64}, {"time": 1782, "pitch": 76, "duration": 6, "velocity": 64}, {"time": 1788, "pitch": 66, "duration": 12, "velocity": 64}, {"time": 1800, "pitch": 69, "duration": 12, "velocity": 64}, {"time": 1812, "pitch": 69, "duration": 6, "velocity": 64}, {"time": 1818, "pitch": 74, "duration": 6, "velocity": 64}, {"time": 1824, "pitch": 69, "duration": 12, "velocity": 64}, {"time": 1836, "pitch": 69, "duration": 6, "velocity": 64}, {"time": 1842, "pitch": 66, "duration": 6, "velocity": 64}, {"time": 1848, "pitch": 69, "duration": 12, "velocity": 64}, {"time": 1860, "pitch": 66, "duration": 12, "velocity": 64}, {"time": 1872, "pitch": 69, "duration": 24, "velocity": 64}, {"time": 1896, "pitch": 74, "duration": 24, "velocity": 64}, {"time": 1920, "pitch": 66, "duration": 12, "velocity": 64}, {"time": 1932, "pitch": 69, "duration": 24, "velocity": 64}, {"time": 1956, "pitch": 66, "duration": 6, "velocity": 64}, {"time": 1962, "pitch": 64, "duration": 6, "velocity": 64}, {"time": 1968, "pitch": 62, "duration": 6, "velocity": 64}, {"time": 1974, "pitch": 64, "duration": 6, "velocity": 64}, {"time": 1980, "pitch": 62, "duration": 6, "velocity": 64}, {"time": 1986, "pitch": 66, "duration": 6, "velocity": 64}, {"time": 1992, "pitch": 64, "duration": 24, "velocity": 64}, {"time": 2016, "pitch": 74, "duration": 18, "velocity": 64}, {"time": 2034, "pitch": 76, "duration": 6, "velocity": 64}, {"time": 2040, "pitch": 74, "duration": 6, "velocity": 64}, {"time": 2046, "pitch": 76, "duration": 6, "velocity": 64}, {"time": 2052, "pitch": 74, "duration": 12, "velocity": 64}, {"time": 2064, "pitch": 74, "duration": 6, "velocity": 64}, {"time": 2070, "pitch": 76, "duration": 6, "velocity": 64}, {"time": 2076, "pitch": 69, "duration": 24, "velocity": 64}, {"time": 2100, "pitch": 74, "duration": 12, "velocity": 64}, {"time": 2112, "pitch": 74, "duration": 12, "velocity": 64}, {"time": 2124, "pitch": 74, "duration": 6, "velocity": 64}, {"time": 2130, "pitch": 78, "duration": 6, "velocity": 64}, {"time": 2136, "pitch": 76, "duration": 24, "velocity": 64}, {"time": 2160, "pitch": 74, "duration": 18, "velocity": 64}, {"time": 2178, "pitch": 66, "duration": 6, "velocity": 64}, {"time": 2184, "pitch": 69, "duration": 12, "velocity": 64}, {"time": 2196, "pitch": 69, "duration": 6, "velocity": 64}, {"time": 2202, "pitch": 66, "duration": 6, "velocity": 64}, {"time": 2208, "pitch": 69, "duration": 12, "velocity": 64}, {"time": 2220, "pitch": 69, "duration": 24, "velocity": 64}, {"time": 2244, "pitch": 64, "duration": 6, "velocity": 64}, {"time": 2250, "pitch": 66, "duration": 6, "velocity": 64}, {"time": 2256, "pitch": 69, "duration": 6, "velocity": 64}, {"time": 2262, "pitch": 71, "duration": 6, "velocity": 64}, {"time": 2268, "pitch": 64, "duration": 6, "velocity": 64}, {"time": 2274, "pitch": 66, "duration": 6, "velocity": 64}, {"time": 2280, "pitch": 69, "duration": 24, "velocity": 64}, {"time": 2304, "pitch": 69, "duration": 18, "velocity": 64}, {"time": 2322, "pitch": 74, "duration": 6, "velocity": 64}, {"time": 2328, "pitch": 74, "duration": 6, "velocity": 64}, {"time": 2334, "pitch": 76, "duration": 6, "velocity": 64}, {"time": 2340, "pitch": 66, "duration": 12, "velocity": 64}, {"time": 2352, "pitch": 69, "duration": 12, "velocity": 64}, {"time": 2364, "pitch": 69, "duration": 18, "velocity": 64}, {"time": 2382, "pitch": 74, "duration": 6, "velocity": 64}, {"time": 2388, "pitch": 66, "duration": 6, "velocity": 64}, {"time": 2394, "pitch": 66, "duration": 6, "velocity": 64}, {"time": 2400, "pitch": 69, "duration": 12, "velocity": 64}, {"time": 2412, "pitch": 66, "duration": 12, "velocity": 64}, {"time": 2424, "pitch": 69, "duration": 24, "velocity": 64}, {"time": 2448, "pitch": 74, "duration": 24, "velocity": 64}, {"time": 2472, "pitch": 66, "duration": 12, "velocity": 64}, {"time": 2484, "pitch": 69, "duration": 24, "velocity": 64}, {"time": 2508, "pitch": 66, "duration": 12, "velocity": 64}, {"time": 2520, "pitch": 66, "duration": 6, "velocity": 64}, {"time": 2526, "pitch": 69, "duration": 6, "velocity": 64}, {"time": 2532, "pitch": 62, "duration": 6, "velocity": 64}, {"time": 2538, "pitch": 66, "duration": 6, "velocity": 64}, {"time": 2544, "pitch": 64, "duration": 24, "velocity": 64}, {"time": 2568, "pitch": 74, "duration": 6, "velocity": 64}, {"time": 2574, "pitch": 74, "duration": 6, "velocity": 64}, {"time": 2580, "pitch": 74, "duration": 6, "velocity": 64}, {"time": 2586, "pitch": 78, "duration": 6, "velocity": 64}, {"time": 2592, "pitch": 76, "duration": 24, "velocity": 64}, {"time": 2616, "pitch": 74, "duration": 6, "velocity": 64}, {"time": 2622, "pitch": 76, "duration": 6, "velocity": 64}, {"time": 2628, "pitch": 74, "duration": 6, "velocity": 64}, {"time": 2634, "pitch": 76, "duration": 6, "velocity": 64}, {"time": 2640, "pitch": 69, "duration": 24, "velocity": 64}, {"time": 2664, "pitch": 69, "duration": 18, "velocity": 64}, {"time": 2682, "pitch": 74, "duration": 6, "velocity": 64}, {"time": 2688, "pitch": 74, "duration": 6, "velocity": 64}, {"time": 2694, "pitch": 76, "duration": 6, "velocity": 64}, {"time": 2700, "pitch": 66, "duration": 12, "velocity": 64}, {"time": 2712, "pitch": 69, "duration": 12, "velocity": 64}, {"time": 2724, "pitch": 69, "duration": 12, "velocity": 64}, {"time": 2736, "pitch": 69, "duration": 6, "velocity": 64}, {"time": 2742, "pitch": 74, "duration": 6, "velocity": 64}, {"time": 2748, "pitch": 66, "duration": 6, "velocity": 64}, {"time": 2754, "pitch": 66, "duration": 6, "velocity": 64}, {"time": 2760, "pitch": 69, "duration": 18, "velocity": 64}, {"time": 2778, "pitch": 66, "duration": 6, "velocity": 64}, {"time": 2784, "pitch": 69, "duration": 24, "velocity": 64}, {"time": 2808, "pitch": 74, "duration": 24, "velocity": 64}, {"time": 2832, "pitch": 78, "duration": 12, "velocity": 64}, {"time": 2844, "pitch": 78, "duration": 24, "velocity": 64}, {"time": 2868, "pitch": 81, "duration": 12, "velocity": 64}, {"time": 2880, "pitch": 78, "duration": 6, "velocity": 64}, {"time": 2886, "pitch": 81, "duration": 6, "velocity": 64}, {"time": 2892, "pitch": 74, "duration": 6, "velocity": 64}, {"time": 2898, "pitch": 78, "duration": 6, "velocity": 64}, {"time": 2904, "pitch": 76, "duration": 24, "velocity": 64}]}]}