{"metadata": {"schema_version": "0.1", "title": "Liuzhou you ge liyuyan", "source_format": "abc"}, "resolution": 24, "tempos": [{"time": 0, "qpm": 120.0}], "key_signatures": [{"time": 0, "root": 7, "mode": "major", "fifths": 1}], "time_signatures": [{"time": 0, "numerator": 4, "denominator": 4}, {"time": 48, "numerator": 1, "denominator": 16}, {"time": 54, "numerator": 2, "denominator": 4}], "beats": [{"time": 0, "is_downbeat": true}, {"time": 6, "is_downbeat": true}, {"time": 12, "is_downbeat": true}, {"time": 18, "is_downbeat": true}, {"time": 24, "is_downbeat": true}, {"time": 30, "is_downbeat": true}, {"time": 36, "is_downbeat": true}, {"time": 42, "is_downbeat": true}, {"time": 48, "is_downbeat": true}, {"time": 54, "is_downbeat": true}, {"time": 78, "is_downbeat": false}, {"time": 102, "is_downbeat": true}, {"time": 126, "is_downbeat": false}, {"time": 150, "is_downbeat": true}, {"time": 174, "is_downbeat": false}, {"time": 198, "is_downbeat": true}, {"time": 222, "is_downbeat": false}, {"time": 246, "is_downbeat": true}, {"time": 270, "is_downbeat": false}, {"time": 294, "is_downbeat": true}, {"time": 318, "is_downbeat": false}, {"time": 342, "is_downbeat": true}, {"time": 366, "is_downbeat": false}, {"time": 390, "is_downbeat": true}, {"time": 414, "is_downbeat": false}, {"time": 438, "is_downbeat": true}, {"time": 462, "is_downbeat": false}, {"time": 486, "is_downbeat": true}, {"time": 510, "is_downbeat": false}, {"time": 534, "is_downbeat": true}, {"time": 558, "is_downbeat": false}, {"time": 582, "is_downbeat": true}, {"time": 606, "is_downbeat": false}, {"time": 630, "is_downbeat": true}, {"time": 654, "is_downbeat": false}, {"time": 678, "is_downbeat": true}, {"time": 702, "is_downbeat": false}, {"time": 726, "is_downbeat": true}, {"time": 750, "is_downbeat": false}], "tracks": [{"program": 0, "is_drum": false, "notes": [{"time": 0, "pitch": 71, "duration": 12, "velocity": 64}, {"time": 12, "pitch": 71, "duration": 12, "velocity": 64}, {"time": 24, "pitch": 71, "duration": 12, "velocity": 64}, {"time": 36, "pitch": 69, "duration": 6, "velocity": 64}, {"time": 42, "pitch": 71, "duration": 12, "velocity": 64}, {"time": 54, "pitch": 67, "duration": 12, "velocity": 64}, {"time": 66, "pitch": 67, "duration": 6, "velocity": 64}, {"time": 72, "pitch": 69, "duration": 6, "velocity": 64}, {"time": 78, "pitch": 71, "duration": 12, "velocity": 64}, {"time": 90, "pitch": 69, "duration": 6, "velocity": 64}, {"time": 96, "pitch": 71, "duration": 6, "velocity": 64}, {"time": 102, "pitch": 74, "duration": 6, "velocity": 64}, {"time": 108, "pitch": 71, "duration": 6, "velocity": 64}, {"time": 114, "pitch": 69, "duration": 12, "velocity": 64}, {"time": 126, "pitch": 69, "duration": 30, "velocity": 64}, {"time": 156, "pitch": 67, "duration": 6, "velocity": 64}, {"time": 162, "pitch": 66, "duration": 6, "velocity": 64}, {"time": 168, "pitch": 64, "duration": 6, "velocity": 64}, {"time": 174, "pitch": 67, "duration": 12, "velocity": 64}, {"time": 198, "pitch": 71, "duration": 12, "velocity": 64}, {"time": 210, "pitch": 69, "duration": 12, "velocity": 64}, {"time": 222, "pitch": 69, "duration": 12, "velocity": 64}, {"time": 234, "pitch": 64, "duration": 12, "velocity": 64}, {"time": 246, "pitch": 67, "duration": 12, "velocity": 64}, {"time": 258, "pitch": 64, "duration": 6, "velocity": 64}, {"time": 264, "pitch": 62, "duration": 6, "velocity": 64}, {"time": 270, "pitch": 67, "duration": 24, "velocity": 64}, {"time": 294, "pitch": 69, "duration": 12, "velocity": 64}, {"time": 306, "pitch": 69, "duration": 6, "velocity": 64}, {"time": 312, "pitch": 67, "duration": 6, "velocity": 64}, {"time": 318, "pitch": 64, "duration": 12, "velocity": 64}, {"time": 330, "pitch": 62, "duration": 12, "velocity": 64}, {"time": 342, "pitch": 64, "duration": 24, "velocity": 64}, {"time": 366, "pitch": 62, "duration": 24, "velocity": 64}, {"time": 390, "pitch": 71, "duration": 12, "velocity": 64}, {"time": 402, "pitch": 67, "duration": 12, "velocity": 64}, {"time": 414, "pitch": 71, "duration": 12, "velocity": 64}, {"time": 426, "pitch": 71, "duration": 12, "velocity": 64}, {"time": 438, "pitch": 71, "duration": 12, "velocity": 64}, {"time": 450, "pitch": 69, "duration": 6, "velocity": 64}, {"time": 456, "pitch": 71, "duration": 6, "velocity": 64}, {"time": 462, "pitch": 67, "duration": 18, "velocity": 64}, {"time": 480, "pitch": 69, "duration": 6, "velocity": 64}, {"time": 486, "pitch": 74, "duration": 6, "velocity": 64}, {"time": 492, "pitch": 71, "duration": 6, "velocity": 64}, {"time": 498, "pitch": 69, "duration": 12, "velocity": 64}, {"time": 510, "pitch": 69, "duration": 30, "velocity": 64}, {"time": 540, "pitch": 67, "duration": 6, "velocity": 64}, {"time": 546, "pitch": 64, "duration": 6, "velocity": 64}, {"time": 552, "pitch": 62, "duration": 6, "velocity": 64}, {"time": 558, "pitch": 67, "duration": 12, "velocity": 64}, {"time": 582, "pitch": 71, "duration": 12, "velocity": 64}, {"time": 594, "pitch": 71, "duration": 12, "velocity": 64}, {"time": 606, "pitch": 69, "duration": 12, "velocity": 64}, {"time": 618, "pitch": 64, "duration": 12, "velocity": 64}, {"time": 630, "pitch": 67, "duration": 18, "velocity": 64}, {"time": 648, "pitch": 64, "duration": 6, "velocity": 64}, {"time": 654, "pitch": 67, "duration": 24, "velocity": 64}, {"time": 678, "pitch": 69, "duration": 18, "velocity": 64}, {"time": 696, "pitch": 67, "duration": 6, "velocity": 64}, {"time": 702, "pitch": 64, "duration": 12, "velocity": 64}, {"time": 714, "pitch": 62, "duration": 12, "velocity": 64}, {"time": 726, "pitch": 62, "duration": 24, "velocity": 64}, {"time": 750, "pitch": 62, "duration": 24, "velocity": 64}]}]}