{"metadata": {"schema_version": "0.1", "title": "Cuimian ge", "source_format": "abc"}, "resolution": 24, "tempos": [{"time": 0, "qpm": 120.0}], "key_signatures": [{"time": 0, "root": 9, "mode": "major", "fifths": 3}], "time_signatures": [{"time": 0, "numerator": 4, "denominator": 4}], "beats": [{"time": 0, "is_downbeat": true}, {"time": 24, "is_downbeat": false}, {"time": 48, "is_downbeat": false}, {"time": 72, "is_downbeat": true}, {"time": 96, "is_downbeat": false}, {"time": 120, "is_downbeat": false}, {"time": 144, "is_downbeat": false}, {"time": 168, "is_downbeat": true}, {"time": 192, "is_downbeat": false}, {"time": 216, "is_downbeat": false}, {"time": 240, "is_downbeat": false}, {"time": 264, "is_downbeat": true}, {"time": 288, "is_downbeat": false}, {"time": 312, "is_downbeat": true}, {"time": 336, "is_downbeat": false}, {"time": 360, "is_downbeat": false}, {"time": 384, "is_downbeat": false}, {"time": 408, "is_downbeat": true}, {"time": 432, "is_downbeat": false}, {"time": 456, "is_downbeat": false}, {"time": 480, "is_downbeat": false}, {"time": 504, "is_downbeat": true}, {"time": 528, "is_downbeat": false}, {"time": 552, "is_downbeat": false}, {"time": 564, "is_downbeat": true}, {"time": 588, "is_downbeat": false}, {"time": 612, "is_downbeat": false}, {"time": 636, "is_downbeat": false}, {"time": 660, "is_downbeat": true}, {"time": 684, "is_downbeat": false}, {"time": 708, "is_downbeat": false}, {"time": 732, "is_downbeat": false}, {"time": 756, "is_downbeat": true}, {"time": 780, "is_downbeat": false}, {"time": 804, "is_downbeat": false}, {"time": 816, "is_downbeat": true}, {"time": 840, "is_downbeat": false}, {"time": 864, "is_downbeat": false}, {"time": 888, "is_downbeat": false}, {"time": 912, "is_downbeat": true}, {"time": 936, "is_downbeat": false}, {"time": 960, "is_downbeat": false}, {"time": 984, "is_downbeat": false}, {"time": 1008, "is_downbeat": true}, {"time": 1032, "is_downbeat": false}, {"time": 1056, "is_downbeat": false}, {"time": 1080, "is_downbeat": true}, {"time": 1104, "is_downbeat": false}, {"time": 1128, "is_downbeat": false}, {"time": 1152, "is_downbeat": false}, {"time": 1176, "is_downbeat": true}, {"time": 1200, "is_downbeat": false}, {"time": 1224, "is_downbeat": true}, {"time": 1248, "is_downbeat": false}, {"time": 1272, "is_downbeat": false}, {"time": 1296, "is_downbeat": false}, {"time": 1320, "is_downbeat": true}, {"time": 1344, "is_downbeat": false}, {"time": 1368, "is_downbeat": true}, {"time": 1392, "is_downbeat": false}, {"time": 1416, "is_downbeat": false}, {"time": 1440, "is_downbeat": false}, {"time": 1464, "is_downbeat": true}, {"time": 1488, "is_downbeat": false}, {"time": 1512, "is_downbeat": false}, {"time": 1536, "is_downbeat": true}, {"time": 1560, "is_downbeat": false}, {"time": 1584, "is_downbeat": false}, {"time": 1608, "is_downbeat": false}, {"time": 1632, "is_downbeat": true}, {"time": 1656, "is_downbeat": false}, {"time": 1680, "is_downbeat": false}, {"time": 1704, "is_downbeat": false}, {"time": 1716, "is_downbeat": true}, {"time": 1740, "is_downbeat": false}, {"time": 1764, "is_downbeat": false}, {"time": 1788, "is_downbeat": false}], "tracks": [{"program": 0, "is_drum": false, "notes": [{"time": 0, "pitch": 73, "duration": 24, "velocity": 64}, {"time": 24, "pitch": 76, "duration": 12, "velocity": 64}, {"time": 36, "pitch": 81, "duration": 36, "velocity": 64}, {"time": 72, "pitch": 73, "duration": 24, "velocity": 64}, {"time": 96, "pitch": 72, "duration": 6, "velocity": 64}, {"time": 102, "pitch": 83, "duration": 6, "velocity": 64}, {"time": 108, "pitch": 81, "duration": 36, "velocity": 64}, {"time": 144, "pitch": 81, "duration": 12, "velocity": 64}, {"time": 156, "pitch": 83, "duration": 12, "velocity": 64}, {"time": 168, "pitch": 81, "duration": 12, "velocity": 64}, {"time": 180, "pitch": 73, "duration": 12, "velocity": 64}, {"time": 192, "pitch": 83, "duration": 3, "velocity": 64}, {"time": 195, "pitch": 73, "duration": 3, "velocity": 64}, {"time": 198, "pitch": 83, "duration": 6, "velocity": 64}, {"time": 204, "pitch": 73, "duration": 6, "velocity": 64}, {"time": 210, "pitch": 83, "duration": 6, "velocity": 64}, {"time": 216, "pitch": 81, "duration": 36, "velocity": 64}, {"time": 252, "pitch": 81, "duration": 12, "velocity": 64}, {"time": 264, "pitch": 73, "duration": 12, "velocity": 64}, {"time": 276, "pitch": 76, "duration": 12, "velocity": 64}, {"time": 288, "pitch": 81, "duration": 24, "velocity": 64}, {"time": 312, "pitch": 76, "duration": 12, "velocity": 64}, {"time": 324, "pitch": 81, "duration": 24, "velocity": 64}, {"time": 348, "pitch": 76, "duration": 12, "velocity": 64}, {"time": 360, "pitch": 81, "duration": 24, "velocity": 64}, {"time": 384, "pitch": 83, "duration": 12, "velocity": 64}, {"time": 396, "pitch": 81, "duration": 12, "velocity": 64}, {"time": 408, "pitch": 73, "duration": 12, "velocity": 64}, {"time": 420, "pitch": 73, "duration": 24, "velocity": 64}, {"time": 444, "pitch": 76, "duration": 12, "velocity": 64}, {"time": 456, "pitch": 81, "duration": 36, "velocity": 64}, {"time": 492, "pitch": 73, "duration": 12, "velocity": 64}, {"time": 504, "pitch": 73, "duration": 24, "velocity": 64}, {"time": 528, "pitch": 81, "duration": 12, "velocity": 64}, {"time": 540, "pitch": 83, "duration": 24, "velocity": 64}, {"time": 564, "pitch": 73, "duration": 6, "velocity": 64}, {"time": 570, "pitch": 83, "duration": 6, "velocity": 64}, {"time": 576, "pitch": 81, "duration": 24, "velocity": 64}, {"time": 600, "pitch": 76, "duration": 6, "velocity": 64}, {"time": 606, "pitch": 81, "duration": 30, "velocity": 64}, {"time": 636, "pitch": 73, "duration": 12, "velocity": 64}, {"time": 648, "pitch": 83, "duration": 12, "velocity": 64}, {"time": 660, "pitch": 81, "duration": 12, "velocity": 64}, {"time": 672, "pitch": 73, "duration": 9, "velocity": 64}, {"time": 681, "pitch": 83, "duration": 3, "velocity": 64}, {"time": 684, "pitch": 73, "duration": 12, "velocity": 64}, {"time": 696, "pitch": 81, "duration": 12, "velocity": 64}, {"time": 708, "pitch": 83, "duration": 12, "velocity": 64}, {"time": 732, "pitch": 81, "duration": 12, "velocity": 64}, {"time": 744, "pitch": 73, "duration": 24, "velocity": 64}, {"time": 768, "pitch": 76, "duration": 12, "velocity": 64}, {"time": 780, "pitch": 81, "duration": 36, "velocity": 64}, {"time": 816, "pitch": 83, "duration": 12, "velocity": 64}, {"time": 828, "pitch": 81, "duration": 24, "velocity": 64}, {"time": 852, "pitch": 76, "duration": 12, "velocity": 64}, {"time": 864, "pitch": 81, "duration": 36, "velocity": 64}, {"time": 900, "pitch": 73, "duration": 12, "velocity": 64}, {"time": 912, "pitch": 76, "duration": 12, "velocity": 64}, {"time": 924, "pitch": 76, "duration": 12, "velocity": 64}, {"time": 936, "pitch": 80, "duration": 24, "velocity": 64}, {"time": 960, "pitch": 80, "duration": 12, "velocity": 64}, {"time": 972, "pitch": 78, "duration": 36, "velocity": 64}, {"time": 1008, "pitch": 80, "duration": 12, "velocity": 64}, {"time": 1020, "pitch": 73, "duration": 12, "velocity": 64}, {"time": 1032, "pitch": 73, "duration": 12, "velocity": 64}, {"time": 1044, "pitch": 76, "duration": 24, "velocity": 64}, {"time": 1068, "pitch": 73, "duration": 12, "velocity": 64}, {"time": 1080, "pitch": 76, "duration": 24, "velocity": 64}, {"time": 1104, "pitch": 83, "duration": 12, "velocity": 64}, {"time": 1116, "pitch": 81, "duration": 24, "velocity": 64}, {"time": 1140, "pitch": 73, "duration": 12, "velocity": 64}, {"time": 1152, "pitch": 73, "duration": 24, "velocity": 64}, {"time": 1176, "pitch": 83, "duration": 12, "velocity": 64}, {"time": 1188, "pitch": 81, "duration": 36, "velocity": 64}, {"time": 1224, "pitch": 76, "duration": 12, "velocity": 64}, {"time": 1236, "pitch": 81, "duration": 24, "velocity": 64}, {"time": 1260, "pitch": 83, "duration": 12, "velocity": 64}, {"time": 1272, "pitch": 81, "duration": 24, "velocity": 64}, {"time": 1296, "pitch": 73, "duration": 12, "velocity": 64}, {"time": 1308, "pitch": 73, "duration": 24, "velocity": 64}, {"time": 1332, "pitch": 83, "duration": 12, "velocity": 64}, {"time": 1344, "pitch": 81, "duration": 24, "velocity": 64}, {"time": 1368, "pitch": 81, "duration": 24, "velocity": 64}, {"time": 1392, "pitch": 73, "duration": 9, "velocity": 64}, {"time": 1401, "pitch": 83, "duration": 3, "velocity": 64}, {"time": 1404, "pitch": 73, "duration": 12, "velocity": 64}, {"time": 1416, "pitch": 73, "duration": 12, "velocity": 64}, {"time": 1428, "pitch": 83, "duration": 24, "velocity": 64}, {"time": 1452, "pitch": 73, "duration": 6, "velocity": 64}, {"time": 1458, "pitch": 83, "duration": 6, "velocity": 64}, {"time": 1464, "pitch": 81, "duration": 24, "velocity": 64}, {"time": 1488, "pitch": 76, "duration": 6, "velocity": 64}, {"time": 1494, "pitch": 81, "duration": 6, "velocity": 64}, {"time": 1500, "pitch": 81, "duration": 36, "velocity": 64}, {"time": 1536, "pitch": 73, "duration": 12, "velocity": 64}, {"time": 1548, "pitch": 76, "duration": 12, "velocity": 64}, {"time": 1560, "pitch": 80, "duration": 12, "velocity": 64}, {"time": 1572, "pitch": 80, "duration": 24, "velocity": 64}, {"time": 1596, "pitch": 80, "duration": 12, "velocity": 64}, {"time": 1608, "pitch": 78, "duration": 36, "velocity": 64}, {"time": 1644, "pitch": 80, "duration": 12, "velocity": 64}, {"time": 1656, "pitch": 73, "duration": 12, "velocity": 64}, {"time": 1668, "pitch": 73, "duration": 12, "velocity": 64}, {"time": 1680, "pitch": 76, "duration": 24, "velocity": 64}, {"time": 1704, "pitch": 80, "duration": 6, "velocity": 64}, {"time": 1710, "pitch": 78, "duration": 6, "velocity": 64}, {"time": 1716, "pitch": 76, "duration": 24, "velocity": 64}, {"time": 1740, "pitch": 73, "duration": 12, "velocity": 64}, {"time": 1752, "pitch": 76, "duration": 12, "velocity": 64}, {"time": 1764, "pitch": 78, "duration": 36, "velocity": 64}]}]}