{"metadata": {"schema_version": "0.1", "title": "Jia lang yiao jia geng tian lang", "source_format": "abc"}, "resolution": 24, "tempos": [{"time": 0, "qpm": 120.0}], "key_signatures": [{"time": 0, "root": 9, "mode": "major", "fifths": 3}], "time_signatures": [{"time": 0, "numerator": 4, "denominator": 4}, {"time": 48, "numerator": 1, "denominator": 4}, {"time": 888, "numerator": 3, "denominator": 2}, {"time": 1320, "numerator": 12, "denominator": 4}, {"time": 1608, "numerator": 2, "denominator": 4}], "beats": [{"time": 0, "is_downbeat": true}, {"time": 24, "is_downbeat": true}, {"time": 48, "is_downbeat": true}, {"time": 72, "is_downbeat": true}, {"time": 120, "is_downbeat": true}, {"time": 168, "is_downbeat": true}, {"time": 216, "is_downbeat": true}, {"time": 264, "is_downbeat": true}, {"time": 312, "is_downbeat": true}, {"time": 360, "is_downbeat": true}, {"time": 408, "is_downbeat": true}, {"time": 456, "is_downbeat": true}, {"time": 504, "is_downbeat": true}, {"time": 552, "is_downbeat": true}, {"time": 600, "is_downbeat": true}, {"time": 648, "is_downbeat": true}, {"time": 696, "is_downbeat": true}, {"time": 744, "is_downbeat": true}, {"time": 792, "is_downbeat": true}, {"time": 840, "is_downbeat": true}, {"time": 888, "is_downbeat": true}, {"time": 912, "is_downbeat": false}, {"time": 936, "is_downbeat": false}, {"time": 960, "is_downbeat": false}, {"time": 984, "is_downbeat": false}, {"time": 1008, "is_downbeat": false}, {"time": 1032, "is_downbeat": true}, {"time": 1056, "is_downbeat": false}, {"time": 1080, "is_downbeat": true}, {"time": 1104, "is_downbeat": false}, {"time": 1128, "is_downbeat": true}, {"time": 1152, "is_downbeat": false}, {"time": 1176, "is_downbeat": true}, {"time": 1200, "is_downbeat": false}, {"time": 1224, "is_downbeat": true}, {"time": 1248, "is_downbeat": false}, {"time": 1272, "is_downbeat": true}, {"time": 1296, "is_downbeat": false}, {"time": 1320, "is_downbeat": true}, {"time": 1344, "is_downbeat": false}, {"time": 1368, "is_downbeat": true}, {"time": 1392, "is_downbeat": false}, {"time": 1416, "is_downbeat": true}, {"time": 1440, "is_downbeat": false}, {"time": 1464, "is_downbeat": true}, {"time": 1488, "is_downbeat": false}, {"time": 1512, "is_downbeat": true}, {"time": 1536, "is_downbeat": false}, {"time": 1560, "is_downbeat": true}, {"time": 1584, "is_downbeat": false}, {"time": 1608, "is_downbeat": true}, {"time": 1632, "is_downbeat": false}, {"time": 1656, "is_downbeat": true}, {"time": 1680, "is_downbeat": false}], "tracks": [{"program": 0, "is_drum": false, "notes": [{"time": 0, "pitch": 71, "duration": 6, "velocity": 64}, {"time": 6, "pitch": 73, "duration": 6, "velocity": 64}, {"time": 12, "pitch": 73, "duration": 6, "velocity": 64}, {"time": 18, "pitch": 71, "duration": 6, "velocity": 64}, {"time": 24, "pitch": 69, "duration": 12, "velocity": 64}, {"time": 36, "pitch": 71, "duration": 24, "velocity": 64}, {"time": 60, "pitch": 69, "duration": 6, "velocity": 64}, {"time": 66, "pitch": 73, "duration": 6, "velocity": 64}, {"time": 72, "pitch": 73, "duration": 6, "velocity": 64}, {"time": 78, "pitch": 71, "duration": 6, "velocity": 64}, {"time": 84, "pitch": 69, "duration": 12, "velocity": 64}, {"time": 96, "pitch": 69, "duration": 6, "velocity": 64}, {"time": 102, "pitch": 71, "duration": 6, "velocity": 64}, {"time": 108, "pitch": 73, "duration": 12, "velocity": 64}, {"time": 120, "pitch": 66, "duration": 12, "velocity": 64}, {"time": 132, "pitch": 66, "duration": 12, "velocity": 64}, {"time": 144, "pitch": 66, "duration": 12, "velocity": 64}, {"time": 156, "pitch": 71, "duration": 6, "velocity": 64}, {"time": 162, "pitch": 73, "duration": 6, "velocity": 64}, {"time": 168, "pitch": 66, "duration": 12, "velocity": 64}, {"time": 180, "pitch": 66, "duration": 6, "velocity": 64}, {"time": 186, "pitch": 64, "duration": 6, "velocity": 64}, {"time": 192, "pitch": 66, "duration": 24, "velocity": 64}, {"time": 216, "pitch": 69, "duration": 12, "velocity": 64}, {"time": 228, "pitch": 71, "duration": 24, "velocity": 64}, {"time": 252, "pitch": 73, "duration": 12, "velocity": 64}, {"time": 276, "pitch": 69, "duration": 6, "velocity": 64}, {"time": 282, "pitch": 71, "duration": 6, "velocity": 64}, {"time": 288, "pitch": 66, "duration": 12, "velocity": 64}, {"time": 300, "pitch": 71, "duration": 6, "velocity": 64}, {"time": 306, "pitch": 69, "duration": 6, "velocity": 64}, {"time": 312, "pitch": 66, "duration": 36, "velocity": 64}, {"time": 348, "pitch": 69, "duration": 6, "velocity": 64}, {"time": 354, "pitch": 71, "duration": 6, "velocity": 64}, {"time": 360, "pitch": 66, "duration": 12, "velocity": 64}, {"time": 372, "pitch": 73, "duration": 12, "velocity": 64}, {"time": 384, "pitch": 66, "duration": 12, "velocity": 64}, {"time": 396, "pitch": 73, "duration": 12, "velocity": 64}, {"time": 408, "pitch": 69, "duration": 6, "velocity": 64}, {"time": 414, "pitch": 71, "duration": 6, "velocity": 64}, {"time": 420, "pitch": 73, "duration": 12, "velocity": 64}, {"time": 432, "pitch": 71, "duration": 6, "velocity": 64}, {"time": 438, "pitch": 73, "duration": 6, "velocity": 64}, {"time": 444, "pitch": 66, "duration": 12, "velocity": 64}, {"time": 456, "pitch": 71, "duration": 12, "velocity": 64}, {"time": 468, "pitch": 71, "duration": 12, "velocity": 64}, {"time": 480, "pitch": 71, "duration": 6, "velocity": 64}, {"time": 486, "pitch": 73, "duration": 6, "velocity": 64}, {"time": 492, "pitch": 73, "duration": 12, "velocity": 64}, {"time": 504, "pitch": 71, "duration": 12, "velocity": 64}, {"time": 516, "pitch": 71, "duration": 12, "velocity": 64}, {"time": 528, "pitch": 69, "duration": 6, "velocity": 64}, {"time": 534, "pitch": 71, "duration": 6, "velocity": 64}, {"time": 540, "pitch": 71, "duration": 6, "velocity": 64}, {"time": 546, "pitch": 69, "duration": 6, "velocity": 64}, {"time": 552, "pitch": 66, "duration": 24, "velocity": 64}, {"time": 576, "pitch": 66, "duration": 12, "velocity": 64}, {"time": 588, "pitch": 69, "duration": 48, "velocity": 64}, {"time": 636, "pitch": 71, "duration": 6, "velocity": 64}, {"time": 642, "pitch": 69, "duration": 6, "velocity": 64}, {"time": 648, "pitch": 66, "duration": 36, "velocity": 64}, {"time": 684, "pitch": 69, "duration": 6, "velocity": 64}, {"time": 690, "pitch": 73, "duration": 6, "velocity": 64}, {"time": 696, "pitch": 69, "duration": 12, "velocity": 64}, {"time": 708, "pitch": 73, "duration": 6, "velocity": 64}, {"time": 714, "pitch": 69, "duration": 6, "velocity": 64}, {"time": 720, "pitch": 71, "duration": 6, "velocity": 64}, {"time": 726, "pitch": 73, "duration": 6, "velocity": 64}, {"time": 732, "pitch": 73, "duration": 6, "velocity": 64}, {"time": 738, "pitch": 69, "duration": 6, "velocity": 64}, {"time": 744, "pitch": 71, "duration": 36, "velocity": 64}, {"time": 780, "pitch": 71, "duration": 6, "velocity": 64}, {"time": 786, "pitch": 73, "duration": 6, "velocity": 64}, {"time": 792, "pitch": 71, "duration": 6, "velocity": 64}, {"time": 798, "pitch": 73, "duration": 6, "velocity": 64}, {"time": 804, "pitch": 73, "duration": 12, "velocity": 64}, {"time": 816, "pitch": 69, "duration": 6, "velocity": 64}, {"time": 822, "pitch": 71, "duration": 6, "velocity": 64}, {"time": 828, "pitch": 66, "duration": 12, "velocity": 64}, {"time": 840, "pitch": 61, "duration": 6, "velocity": 64}, {"time": 846, "pitch": 66, "duration": 6, "velocity": 64}, {"time": 852, "pitch": 66, "duration": 12, "velocity": 64}, {"time": 864, "pitch": 66, "duration": 12, "velocity": 64}, {"time": 876, "pitch": 66, "duration": 12, "velocity": 64}, {"time": 888, "pitch": 71, "duration": 6, "velocity": 64}, {"time": 894, "pitch": 69, "duration": 6, "velocity": 64}, {"time": 900, "pitch": 69, "duration": 12, "velocity": 64}, {"time": 912, "pitch": 69, "duration": 6, "velocity": 64}, {"time": 918, "pitch": 71, "duration": 6, "velocity": 64}, {"time": 924, "pitch": 71, "duration": 12, "velocity": 64}, {"time": 936, "pitch": 71, "duration": 12, "velocity": 64}, {"time": 948, "pitch": 71, "duration": 6, "velocity": 64}, {"time": 954, "pitch": 69, "duration": 6, "velocity": 64}, {"time": 960, "pitch": 66, "duration": 12, "velocity": 64}, {"time": 972, "pitch": 66, "duration": 12, "velocity": 64}, {"time": 984, "pitch": 69, "duration": 12, "velocity": 64}, {"time": 996, "pitch": 69, "duration": 6, "velocity": 64}, {"time": 1002, "pitch": 71, "duration": 6, "velocity": 64}, {"time": 1008, "pitch": 66, "duration": 12, "velocity": 64}, {"time": 1020, "pitch": 66, "duration": 6, "velocity": 64}, {"time": 1026, "pitch": 71, "duration": 6, "velocity": 64}, {"time": 1032, "pitch": 66, "duration": 12, "velocity": 64}, {"time": 1044, "pitch": 69, "duration": 6, "velocity": 64}, {"time": 1050, "pitch": 71, "duration": 6, "velocity": 64}, {"time": 1056, "pitch": 66, "duration": 12, "velocity": 64}, {"time": 1068, "pitch": 69, "duration": 48, "velocity": 64}, {"time": 1116, "pitch": 69, "duration": 6, "velocity": 64}, {"time": 1122, "pitch": 73, "duration": 6, "velocity": 64}, {"time": 1128, "pitch": 66, "duration": 12, "velocity": 64}, {"time": 1140, "pitch": 73, "duration": 6, "velocity": 64}, {"time": 1146, "pitch": 69, "duration": 6, "velocity": 64}, {"time": 1152, "pitch": 71, "duration": 6, "velocity": 64}, {"time": 1158, "pitch": 73, "duration": 6, "velocity": 64}, {"time": 1164, "pitch": 73, "duration": 6, "velocity": 64}, {"time": 1170, "pitch": 69, "duration": 6, "velocity": 64}, {"time": 1176, "pitch": 71, "duration": 36, "velocity": 64}, {"time": 1212, "pitch": 73, "duration": 6, "velocity": 64}, {"time": 1218, "pitch": 73, "duration": 6, "velocity": 64}, {"time": 1224, "pitch": 71, "duration": 12, "velocity": 64}, {"time": 1236, "pitch": 71, "duration": 6, "velocity": 64}, {"time": 1242, "pitch": 73, "duration": 6, "velocity": 64}, {"time": 1248, "pitch": 66, "duration": 12, "velocity": 64}, {"time": 1260, "pitch": 66, "duration": 12, "velocity": 64}, {"time": 1272, "pitch": 66, "duration": 12, "velocity": 64}, {"time": 1284, "pitch": 66, "duration": 6, "velocity": 64}, {"time": 1290, "pitch": 69, "duration": 6, "velocity": 64}, {"time": 1296, "pitch": 71, "duration": 6, "velocity": 64}, {"time": 1302, "pitch": 73, "duration": 6, "velocity": 64}, {"time": 1308, "pitch": 73, "duration": 12, "velocity": 64}, {"time": 1320, "pitch": 66, "duration": 12, "velocity": 64}, {"time": 1332, "pitch": 69, "duration": 6, "velocity": 64}, {"time": 1338, "pitch": 71, "duration": 6, "velocity": 64}, {"time": 1344, "pitch": 66, "duration": 12, "velocity": 64}, {"time": 1356, "pitch": 66, "duration": 12, "velocity": 64}, {"time": 1368, "pitch": 71, "duration": 12, "velocity": 64}, {"time": 1380, "pitch": 69, "duration": 6, "velocity": 64}, {"time": 1386, "pitch": 71, "duration": 6, "velocity": 64}, {"time": 1392, "pitch": 71, "duration": 12, "velocity": 64}, {"time": 1404, "pitch": 71, "duration": 12, "velocity": 64}, {"time": 1416, "pitch": 66, "duration": 12, "velocity": 64}, {"time": 1428, "pitch": 66, "duration": 6, "velocity": 64}, {"time": 1434, "pitch": 69, "duration": 6, "velocity": 64}, {"time": 1440, "pitch": 71, "duration": 12, "velocity": 64}, {"time": 1452, "pitch": 71, "duration": 12, "velocity": 64}, {"time": 1464, "pitch": 71, "duration": 6, "velocity": 64}, {"time": 1470, "pitch": 69, "duration": 6, "velocity": 64}, {"time": 1476, "pitch": 66, "duration": 6, "velocity": 64}, {"time": 1482, "pitch": 69, "duration": 6, "velocity": 64}, {"time": 1488, "pitch": 71, "duration": 12, "velocity": 64}, {"time": 1500, "pitch": 71, "duration": 12, "velocity": 64}, {"time": 1512, "pitch": 66, "duration": 12, "velocity": 64}, {"time": 1524, "pitch": 66, "duration": 12, "velocity": 64}, {"time": 1536, "pitch": 69, "duration": 12, "velocity": 64}, {"time": 1548, "pitch": 69, "duration": 6, "velocity": 64}, {"time": 1554, "pitch": 71, "duration": 6, "velocity": 64}, {"time": 1560, "pitch": 69, "duration": 12, "velocity": 64}, {"time": 1572, "pitch": 69, "duration": 6, "velocity": 64}, {"time": 1578, "pitch": 71, "duration": 6, "velocity": 64}, {"time": 1584, "pitch": 66, "duration": 12, "velocity": 64}, {"time": 1596, "pitch": 66, "duration": 6, "velocity": 64}, {"time": 1602, "pitch": 71, "duration": 6, "velocity": 64}, {"time": 1608, "pitch": 69, "duration": 6, "velocity": 64}, {"time": 1614, "pitch": 71, "duration": 6, "velocity": 64}, {"time": 1620, "pitch": 66, "duration": 12, "velocity": 64}, {"time": 1632, "pitch": 66, "duration": 18, "velocity": 64}, {"time": 1650, "pitch": 64, "duration": 6, "velocity": 64}, {"time": 1656, "pitch": 66, "duration": 12, "velocity": 64}, {"time": 1668, "pitch": 66, "duration": 36, "velocity": 64}]}]}