{"metadata": {"schema_version": "0.1", "title": "Tanger tiao dan song suqin", "source_format": "abc"}, "resolution": 24, "tempos": [{"time": 0, "qpm": 120.0}], "key_signatures": [{"time": 0, "root": 9, "mode": "major", "fifths": 3}], "time_signatures": [{"time": 0, "numerator": 4, "denominator": 4}], "beats": [{"time": 0, "is_downbeat": true}, {"time": 24, "is_downbeat": false}, {"time": 48, "is_downbeat": false}, {"time": 72, "is_downbeat": true}, {"time": 96, "is_downbeat": false}, {"time": 120, "is_downbeat": false}, {"time": 144, "is_downbeat": false}, {"time": 168, "is_downbeat": true}, {"time": 192, "is_downbeat": false}, {"time": 216, "is_downbeat": false}, {"time": 240, "is_downbeat": false}, {"time": 264, "is_downbeat": true}, {"time": 288, "is_downbeat": true}, {"time": 312, "is_downbeat": false}, {"time": 336, "is_downbeat": false}, {"time": 360, "is_downbeat": false}, {"time": 384, "is_downbeat": true}, {"time": 408, "is_downbeat": false}, {"time": 432, "is_downbeat": false}, {"time": 456, "is_downbeat": false}, {"time": 480, "is_downbeat": true}, {"time": 504, "is_downbeat": false}, {"time": 528, "is_downbeat": false}, {"time": 552, "is_downbeat": false}, {"time": 576, "is_downbeat": true}, {"time": 600, "is_downbeat": false}, {"time": 624, "is_downbeat": false}, {"time": 648, "is_downbeat": false}, {"time": 672, "is_downbeat": true}, {"time": 696, "is_downbeat": false}, {"time": 720, "is_downbeat": true}, {"time": 744, "is_downbeat": false}, {"time": 768, "is_downbeat": false}, {"time": 792, "is_downbeat": false}, {"time": 816, "is_downbeat": true}, {"time": 840, "is_downbeat": false}, {"time": 864, "is_downbeat": true}, {"time": 888, "is_downbeat": false}, {"time": 912, "is_downbeat": false}, {"time": 936, "is_downbeat": false}, {"time": 960, "is_downbeat": true}, {"time": 978, "is_downbeat": true}, {"time": 1002, "is_downbeat": false}, {"time": 1026, "is_downbeat": true}, {"time": 1050, "is_downbeat": false}, {"time": 1074, "is_downbeat": false}, {"time": 1098, "is_downbeat": false}, {"time": 1122, "is_downbeat": true}, {"time": 1146, "is_downbeat": false}, {"time": 1170, "is_downbeat": false}, {"time": 1194, "is_downbeat": false}, {"time": 1218, "is_downbeat": true}, {"time": 1242, "is_downbeat": false}, {"time": 1266, "is_downbeat": true}, {"time": 1290, "is_downbeat": false}, {"time": 1314, "is_downbeat": true}, {"time": 1338, "is_downbeat": false}, {"time": 1362, "is_downbeat": false}, {"time": 1386, "is_downbeat": false}, {"time": 1410, "is_downbeat": true}, {"time": 1434, "is_downbeat": false}, {"time": 1458, "is_downbeat": true}, {"time": 1482, "is_downbeat": false}, {"time": 1506, "is_downbeat": true}, {"time": 1530, "is_downbeat": false}, {"time": 1554, "is_downbeat": false}, {"time": 1578, "is_downbeat": false}, {"time": 1602, "is_downbeat": true}, {"time": 1626, "is_downbeat": false}, {"time": 1650, "is_downbeat": true}, {"time": 1674, "is_downbeat": false}, {"time": 1698, "is_downbeat": false}, {"time": 1722, "is_downbeat": false}, {"time": 1746, "is_downbeat": true}, {"time": 1770, "is_downbeat": false}, {"time": 1794, "is_downbeat": true}, {"time": 1818, "is_downbeat": false}, {"time": 1842, "is_downbeat": false}, {"time": 1866, "is_downbeat": false}, {"time": 1890, "is_downbeat": true}, {"time": 1914, "is_downbeat": false}, {"time": 1938, "is_downbeat": true}, {"time": 1962, "is_downbeat": false}, {"time": 1986, "is_downbeat": true}, {"time": 2010, "is_downbeat": false}, {"time": 2034, "is_downbeat": true}, {"time": 2058, "is_downbeat": false}, {"time": 2082, "is_downbeat": false}, {"time": 2106, "is_downbeat": false}], "tracks": [{"program": 0, "is_drum": false, "notes": [{"time": 0, "pitch": 78, "duration": 6, "velocity": 64}, {"time": 6, "pitch": 81, "duration": 6, "velocity": 64}, {"time": 12, "pitch": 76, "duration": 12, "velocity": 64}, {"time": 24, "pitch": 78, "duration": 24, "velocity": 64}, {"time": 48, "pitch": 76, "duration": 12, "velocity": 64}, {"time": 60, "pitch": 73, "duration": 12, "velocity": 64}, {"time": 72, "pitch": 78, "duration": 24, "velocity": 64}, {"time": 96, "pitch": 76, "duration": 24, "velocity": 64}, {"time": 120, "pitch": 73, "duration": 24, "velocity": 64}, {"time": 144, "pitch": 81, "duration": 24, "velocity": 64}, {"time": 168, "pitch": 83, "duration": 12, "velocity": 64}, {"time": 180, "pitch": 81, "duration": 12, "velocity": 64}, {"time": 192, "pitch": 78, "duration": 24, "velocity": 64}, {"time": 216, "pitch": 83, "duration": 24, "velocity": 64}, {"time": 240, "pitch": 73, "duration": 24, "velocity": 64}, {"time": 264, "pitch": 81, "duration": 24, "velocity": 64}, {"time": 288, "pitch": 73, "duration": 6, "velocity": 64}, {"time": 294, "pitch": 73, "duration": 18, "velocity": 64}, {"time": 312, "pitch": 83, "duration": 36, "velocity": 64}, {"time": 348, "pitch": 81, "duration": 6, "velocity": 64}, {"time": 354, "pitch": 78, "duration": 6, "velocity": 64}, {"time": 360, "pitch": 78, "duration": 36, "velocity": 64}, {"time": 396, "pitch": 76, "duration": 6, "velocity": 64}, {"time": 402, "pitch": 73, "duration": 6, "velocity": 64}, {"time": 408, "pitch": 78, "duration": 6, "velocity": 64}, {"time": 414, "pitch": 81, "duration": 6, "velocity": 64}, {"time": 420, "pitch": 76, "duration": 12, "velocity": 64}, {"time": 432, "pitch": 78, "duration": 12, "velocity": 64}, {"time": 444, "pitch": 83, "duration": 24, "velocity": 64}, {"time": 468, "pitch": 81, "duration": 6, "velocity": 64}, {"time": 474, "pitch": 78, "duration": 6, "velocity": 64}, {"time": 480, "pitch": 78, "duration": 36, "velocity": 64}, {"time": 516, "pitch": 76, "duration": 12, "velocity": 64}, {"time": 528, "pitch": 81, "duration": 12, "velocity": 64}, {"time": 540, "pitch": 78, "duration": 12, "velocity": 64}, {"time": 552, "pitch": 76, "duration": 24, "velocity": 64}, {"time": 576, "pitch": 73, "duration": 24, "velocity": 64}, {"time": 600, "pitch": 76, "duration": 12, "velocity": 64}, {"time": 612, "pitch": 73, "duration": 12, "velocity": 64}, {"time": 624, "pitch": 78, "duration": 24, "velocity": 64}, {"time": 648, "pitch": 76, "duration": 24, "velocity": 64}, {"time": 672, "pitch": 73, "duration": 24, "velocity": 64}, {"time": 696, "pitch": 83, "duration": 24, "velocity": 64}, {"time": 720, "pitch": 73, "duration": 18, "velocity": 64}, {"time": 738, "pitch": 83, "duration": 6, "velocity": 64}, {"time": 744, "pitch": 73, "duration": 24, "velocity": 64}, {"time": 768, "pitch": 83, "duration": 12, "velocity": 64}, {"time": 780, "pitch": 81, "duration": 12, "velocity": 64}, {"time": 792, "pitch": 81, "duration": 12, "velocity": 64}, {"time": 804, "pitch": 78, "duration": 12, "velocity": 64}, {"time": 816, "pitch": 83, "duration": 24, "velocity": 64}, {"time": 840, "pitch": 73, "duration": 24, "velocity": 64}, {"time": 864, "pitch": 81, "duration": 12, "velocity": 64}, {"time": 876, "pitch": 83, "duration": 12, "velocity": 64}, {"time": 888, "pitch": 78, "duration": 48, "velocity": 64}, {"time": 936, "pitch": 83, "duration": 6, "velocity": 64}, {"time": 942, "pitch": 73, "duration": 24, "velocity": 64}, {"time": 966, "pitch": 83, "duration": 12, "velocity": 64}, {"time": 978, "pitch": 83, "duration": 12, "velocity": 64}, {"time": 990, "pitch": 73, "duration": 12, "velocity": 64}, {"time": 1002, "pitch": 83, "duration": 12, "velocity": 64}, {"time": 1014, "pitch": 81, "duration": 12, "velocity": 64}, {"time": 1026, "pitch": 83, "duration": 12, "velocity": 64}, {"time": 1038, "pitch": 73, "duration": 12, "velocity": 64}, {"time": 1050, "pitch": 81, "duration": 12, "velocity": 64}, {"time": 1062, "pitch": 83, "duration": 6, "velocity": 64}, {"time": 1068, "pitch": 81, "duration": 3, "velocity": 64}, {"time": 1071, "pitch": 83, "duration": 3, "velocity": 64}, {"time": 1074, "pitch": 73, "duration": 36, "velocity": 64}, {"time": 1110, "pitch": 76, "duration": 12, "velocity": 64}, {"time": 1122, "pitch": 83, "duration": 12, "velocity": 64}, {"time": 1134, "pitch": 81, "duration": 12, "velocity": 64}, {"time": 1146, "pitch": 73, "duration": 24, "velocity": 64}, {"time": 1170, "pitch": 76, "duration": 24, "velocity": 64}, {"time": 1194, "pitch": 73, "duration": 24, "velocity": 64}, {"time": 1218, "pitch": 76, "duration": 24, "velocity": 64}, {"time": 1242, "pitch": 76, "duration": 24, "velocity": 64}, {"time": 1266, "pitch": 73, "duration": 24, "velocity": 64}, {"time": 1290, "pitch": 76, "duration": 24, "velocity": 64}, {"time": 1314, "pitch": 83, "duration": 24, "velocity": 64}, {"time": 1338, "pitch": 81, "duration": 24, "velocity": 64}, {"time": 1362, "pitch": 83, "duration": 12, "velocity": 64}, {"time": 1374, "pitch": 83, "duration": 12, "velocity": 64}, {"time": 1386, "pitch": 81, "duration": 12, "velocity": 64}, {"time": 1398, "pitch": 73, "duration": 12, "velocity": 64}, {"time": 1410, "pitch": 81, "duration": 24, "velocity": 64}, {"time": 1434, "pitch": 83, "duration": 24, "velocity": 64}, {"time": 1458, "pitch": 78, "duration": 24, "velocity": 64}, {"time": 1482, "pitch": 83, "duration": 8, "velocity": 64}, {"time": 1490, "pitch": 81, "duration": 8, "velocity": 64}, {"time": 1498, "pitch": 66, "duration": 8, "velocity": 64}, {"time": 1506, "pitch": 76, "duration": 24, "velocity": 64}, {"time": 1530, "pitch": 73, "duration": 24, "velocity": 64}, {"time": 1554, "pitch": 76, "duration": 24, "velocity": 64}, {"time": 1578, "pitch": 76, "duration": 24, "velocity": 64}, {"time": 1602, "pitch": 83, "duration": 36, "velocity": 64}, {"time": 1638, "pitch": 83, "duration": 12, "velocity": 64}, {"time": 1650, "pitch": 73, "duration": 48, "velocity": 64}, {"time": 1698, "pitch": 73, "duration": 24, "velocity": 64}, {"time": 1722, "pitch": 76, "duration": 24, "velocity": 64}, {"time": 1746, "pitch": 73, "duration": 12, "velocity": 64}, {"time": 1758, "pitch": 76, "duration": 12, "velocity": 64}, {"time": 1770, "pitch": 73, "duration": 12, "velocity": 64}, {"time": 1782, "pitch": 83, "duration": 12, "velocity": 64}, {"time": 1794, "pitch": 81, "duration": 48, "velocity": 64}, {"time": 1842, "pitch": 78, "duration": 18, "velocity": 64}, {"time": 1860, "pitch": 81, "duration": 6, "velocity": 64}, {"time": 1866, "pitch": 76, "duration": 12, "velocity": 64}, {"time": 1878, "pitch": 78, "duration": 12, "velocity": 64}, {"time": 1890, "pitch": 83, "duration": 36, "velocity": 64}, {"time": 1926, "pitch": 81, "duration": 12, "velocity": 64}, {"time": 1938, "pitch": 78, "duration": 12, "velocity": 64}, {"time": 1950, "pitch": 81, "duration": 12, "velocity": 64}, {"time": 1962, "pitch": 83, "duration": 12, "velocity": 64}, {"time": 1974, "pitch": 81, "duration": 12, "velocity": 64}, {"time": 1986, "pitch": 78, "duration": 12, "velocity": 64}, {"time": 1998, "pitch": 81, "duration": 12, "velocity": 64}, {"time": 2010, "pitch": 76, "duration": 24, "velocity": 64}, {"time": 2034, "pitch": 78, "duration": 48, "velocity": 64}]}]}