{"metadata": {"schema_version": "0.1", "title": "Bayue shiwu yue tuanyuan", "source_format": "abc"}, "resolution": 24, "tempos": [{"time": 0, "qpm": 120.0}], "key_signatures": [{"time": 0, "root": 2, "mode": "major", "fifths": 2}], "time_signatures": [{"time": 0, "numerator": 4, "denominator": 4}, {"time": 480, "numerator": 10, "denominator": 4}, {"time": 1200, "numerator": 5, "denominator": 4}, {"time": 1512, "numerator": 1, "denominator": 4}, {"time": 2016, "numerator": 14, "denominator": 4}, {"time": 2352, "numerator": 4, "denominator": 4}], "beats": [{"time": 0, "is_downbeat": true}, {"time": 24, "is_downbeat": false}, {"time": 48, "is_downbeat": false}, {"time": 72, "is_downbeat": false}, {"time": 96, "is_downbeat": true}, {"time": 120, "is_downbeat": false}, {"time": 144, "is_downbeat": false}, {"time": 168, "is_downbeat": false}, {"time": 192, "is_downbeat": true}, {"time": 216, "is_downbeat": false}, {"time": 240, "is_downbeat": false}, {"time": 264, "is_downbeat": false}, {"time": 288, "is_downbeat": true}, {"time": 312, "is_downbeat": false}, {"time": 336, "is_downbeat": false}, {"time": 360, "is_downbeat": false}, {"time": 384, "is_downbeat": true}, {"time": 408, "is_downbeat": false}, {"time": 432, "is_downbeat": false}, {"time": 456, "is_downbeat": false}, {"time": 480, "is_downbeat": true}, {"time": 504, "is_downbeat": false}, {"time": 528, "is_downbeat": false}, {"time": 552, "is_downbeat": false}, {"time": 576, "is_downbeat": false}, {"time": 600, "is_downbeat": true}, {"time": 624, "is_downbeat": false}, {"time": 648, "is_downbeat": false}, {"time": 672, "is_downbeat": false}, {"time": 696, "is_downbeat": false}, {"time": 720, "is_downbeat": true}, {"time": 744, "is_downbeat": false}, {"time": 768, "is_downbeat": false}, {"time": 792, "is_downbeat": false}, {"time": 816, "is_downbeat": true}, {"time": 840, "is_downbeat": false}, {"time": 864, "is_downbeat": false}, {"time": 888, "is_downbeat": false}, {"time": 912, "is_downbeat": true}, {"time": 936, "is_downbeat": false}, {"time": 960, "is_downbeat": false}, {"time": 984, "is_downbeat": false}, {"time": 1008, "is_downbeat": true}, {"time": 1032, "is_downbeat": false}, {"time": 1056, "is_downbeat": false}, {"time": 1080, "is_downbeat": false}, {"time": 1104, "is_downbeat": true}, {"time": 1128, "is_downbeat": false}, {"time": 1152, "is_downbeat": false}, {"time": 1176, "is_downbeat": false}, {"time": 1200, "is_downbeat": true}, {"time": 1224, "is_downbeat": true}, {"time": 1248, "is_downbeat": true}, {"time": 1272, "is_downbeat": true}, {"time": 1296, "is_downbeat": true}, {"time": 1320, "is_downbeat": true}, {"time": 1344, "is_downbeat": true}, {"time": 1368, "is_downbeat": true}, {"time": 1392, "is_downbeat": true}, {"time": 1416, "is_downbeat": true}, {"time": 1440, "is_downbeat": true}, {"time": 1464, "is_downbeat": true}, {"time": 1488, "is_downbeat": true}, {"time": 1512, "is_downbeat": true}, {"time": 1536, "is_downbeat": true}, {"time": 1560, "is_downbeat": false}, {"time": 1584, "is_downbeat": false}, {"time": 1608, "is_downbeat": false}, {"time": 1632, "is_downbeat": true}, {"time": 1656, "is_downbeat": false}, {"time": 1680, "is_downbeat": false}, {"time": 1704, "is_downbeat": false}, {"time": 1728, "is_downbeat": true}, {"time": 1752, "is_downbeat": false}, {"time": 1776, "is_downbeat": false}, {"time": 1800, "is_downbeat": false}, {"time": 1824, "is_downbeat": true}, {"time": 1848, "is_downbeat": false}, {"time": 1872, "is_downbeat": false}, {"time": 1896, "is_downbeat": false}, {"time": 1920, "is_downbeat": true}, {"time": 1944, "is_downbeat": false}, {"time": 1968, "is_downbeat": false}, {"time": 1992, "is_downbeat": false}, {"time": 2016, "is_downbeat": true}, {"time": 2040, "is_downbeat": false}, {"time": 2064, "is_downbeat": false}, {"time": 2088, "is_downbeat": false}, {"time": 2112, "is_downbeat": true}, {"time": 2136, "is_downbeat": false}, {"time": 2160, "is_downbeat": false}, {"time": 2184, "is_downbeat": false}, {"time": 2208, "is_downbeat": true}, {"time": 2232, "is_downbeat": false}, {"time": 2256, "is_downbeat": false}, {"time": 2280, "is_downbeat": false}, {"time": 2304, "is_downbeat": true}, {"time": 2328, "is_downbeat": false}, {"time": 2352, "is_downbeat": true}, {"time": 2376, "is_downbeat": false}, {"time": 2400, "is_downbeat": false}, {"time": 2424, "is_downbeat": false}], "tracks": [{"program": 0, "is_drum": false, "notes": [{"time": 0, "pitch": 71, "duration": 12, "velocity": 64}, {"time": 12, "pitch": 71, "duration": 6, "velocity": 64}, {"time": 18, "pitch": 74, "duration": 6, "velocity": 64}, {"time": 24, "pitch": 76, "duration": 12, "velocity": 64}, {"time": 36, "pitch": 73, "duration": 12, "velocity": 64}, {"time": 48, "pitch": 71, "duration": 12, "velocity": 64}, {"time": 60, "pitch": 76, "duration": 24, "velocity": 64}, {"time": 84, "pitch": 78, "duration": 12, "velocity": 64}, {"time": 96, "pitch": 76, "duration": 6, "velocity": 64}, {"time": 102, "pitch": 78, "duration": 6, "velocity": 64}, {"time": 108, "pitch": 76, "duration": 12, "velocity": 64}, {"time": 120, "pitch": 71, "duration": 24, "velocity": 64}, {"time": 144, "pitch": 71, "duration": 6, "velocity": 64}, {"time": 150, "pitch": 74, "duration": 6, "velocity": 64}, {"time": 156, "pitch": 76, "duration": 24, "velocity": 64}, {"time": 180, "pitch": 78, "duration": 12, "velocity": 64}, {"time": 192, "pitch": 76, "duration": 6, "velocity": 64}, {"time": 198, "pitch": 78, "duration": 6, "velocity": 64}, {"time": 204, "pitch": 76, "duration": 6, "velocity": 64}, {"time": 210, "pitch": 74, "duration": 6, "velocity": 64}, {"time": 216, "pitch": 76, "duration": 12, "velocity": 64}, {"time": 240, "pitch": 71, "duration": 6, "velocity": 64}, {"time": 246, "pitch": 74, "duration": 6, "velocity": 64}, {"time": 252, "pitch": 71, "duration": 12, "velocity": 64}, {"time": 264, "pitch": 71, "duration": 24, "velocity": 64}, {"time": 288, "pitch": 76, "duration": 24, "velocity": 64}, {"time": 312, "pitch": 71, "duration": 12, "velocity": 64}, {"time": 324, "pitch": 71, "duration": 12, "velocity": 64}, {"time": 336, "pitch": 71, "duration": 12, "velocity": 64}, {"time": 348, "pitch": 74, "duration": 36, "velocity": 64}, {"time": 384, "pitch": 71, "duration": 6, "velocity": 64}, {"time": 390, "pitch": 74, "duration": 6, "velocity": 64}, {"time": 396, "pitch": 71, "duration": 36, "velocity": 64}, {"time": 432, "pitch": 74, "duration": 12, "velocity": 64}, {"time": 444, "pitch": 76, "duration": 6, "velocity": 64}, {"time": 450, "pitch": 74, "duration": 6, "velocity": 64}, {"time": 456, "pitch": 76, "duration": 36, "velocity": 64}, {"time": 492, "pitch": 78, "duration": 12, "velocity": 64}, {"time": 504, "pitch": 74, "duration": 12, "velocity": 64}, {"time": 516, "pitch": 76, "duration": 6, "velocity": 64}, {"time": 522, "pitch": 78, "duration": 6, "velocity": 64}, {"time": 528, "pitch": 76, "duration": 12, "velocity": 64}, {"time": 540, "pitch": 74, "duration": 4, "velocity": 64}, {"time": 544, "pitch": 76, "duration": 4, "velocity": 64}, {"time": 548, "pitch": 74, "duration": 4, "velocity": 64}, {"time": 552, "pitch": 71, "duration": 12, "velocity": 64}, {"time": 564, "pitch": 74, "duration": 24, "velocity": 64}, {"time": 588, "pitch": 76, "duration": 6, "velocity": 64}, {"time": 594, "pitch": 78, "duration": 6, "velocity": 64}, {"time": 600, "pitch": 76, "duration": 6, "velocity": 64}, {"time": 606, "pitch": 74, "duration": 6, "velocity": 64}, {"time": 612, "pitch": 71, "duration": 24, "velocity": 64}, {"time": 648, "pitch": 71, "duration": 12, "velocity": 64}, {"time": 660, "pitch": 76, "duration": 6, "velocity": 64}, {"time": 666, "pitch": 74, "duration": 6, "velocity": 64}, {"time": 672, "pitch": 76, "duration": 36, "velocity": 64}, {"time": 708, "pitch": 78, "duration": 12, "velocity": 64}, {"time": 720, "pitch": 76, "duration": 6, "velocity": 64}, {"time": 726, "pitch": 74, "duration": 6, "velocity": 64}, {"time": 732, "pitch": 71, "duration": 12, "velocity": 64}, {"time": 744, "pitch": 71, "duration": 24, "velocity": 64}, {"time": 768, "pitch": 71, "duration": 12, "velocity": 64}, {"time": 780, "pitch": 71, "duration": 36, "velocity": 64}, {"time": 816, "pitch": 78, "duration": 12, "velocity": 64}, {"time": 828, "pitch": 78, "duration": 36, "velocity": 64}, {"time": 864, "pitch": 76, "duration": 6, "velocity": 64}, {"time": 870, "pitch": 78, "duration": 6, "velocity": 64}, {"time": 876, "pitch": 76, "duration": 24, "velocity": 64}, {"time": 900, "pitch": 78, "duration": 12, "velocity": 64}, {"time": 912, "pitch": 74, "duration": 12, "velocity": 64}, {"time": 924, "pitch": 76, "duration": 6, "velocity": 64}, {"time": 930, "pitch": 74, "duration": 6, "velocity": 64}, {"time": 936, "pitch": 71, "duration": 24, "velocity": 64}, {"time": 960, "pitch": 71, "duration": 6, "velocity": 64}, {"time": 966, "pitch": 74, "duration": 6, "velocity": 64}, {"time": 972, "pitch": 76, "duration": 24, "velocity": 64}, {"time": 996, "pitch": 78, "duration": 12, "velocity": 64}, {"time": 1008, "pitch": 74, "duration": 12, "velocity": 64}, {"time": 1020, "pitch": 76, "duration": 6, "velocity": 64}, {"time": 1026, "pitch": 78, "duration": 18, "velocity": 64}, {"time": 1056, "pitch": 76, "duration": 6, "velocity": 64}, {"time": 1062, "pitch": 78, "duration": 6, "velocity": 64}, {"time": 1068, "pitch": 76, "duration": 6, "velocity": 64}, {"time": 1074, "pitch": 74, "duration": 6, "velocity": 64}, {"time": 1080, "pitch": 71, "duration": 24, "velocity": 64}, {"time": 1104, "pitch": 76, "duration": 24, "velocity": 64}, {"time": 1128, "pitch": 71, "duration": 12, "velocity": 64}, {"time": 1140, "pitch": 74, "duration": 4, "velocity": 64}, {"time": 1144, "pitch": 76, "duration": 4, "velocity": 64}, {"time": 1148, "pitch": 74, "duration": 4, "velocity": 64}, {"time": 1152, "pitch": 71, "duration": 12, "velocity": 64}, {"time": 1164, "pitch": 74, "duration": 36, "velocity": 64}, {"time": 1200, "pitch": 71, "duration": 6, "velocity": 64}, {"time": 1206, "pitch": 74, "duration": 6, "velocity": 64}, {"time": 1212, "pitch": 71, "duration": 36, "velocity": 64}, {"time": 1248, "pitch": 71, "duration": 6, "velocity": 64}, {"time": 1254, "pitch": 74, "duration": 6, "velocity": 64}, {"time": 1260, "pitch": 71, "duration": 12, "velocity": 64}, {"time": 1272, "pitch": 76, "duration": 36, "velocity": 64}, {"time": 1308, "pitch": 78, "duration": 12, "velocity": 64}, {"time": 1320, "pitch": 74, "duration": 12, "velocity": 64}, {"time": 1332, "pitch": 78, "duration": 12, "velocity": 64}, {"time": 1344, "pitch": 76, "duration": 12, "velocity": 64}, {"time": 1356, "pitch": 74, "duration": 3, "velocity": 64}, {"time": 1359, "pitch": 76, "duration": 3, "velocity": 64}, {"time": 1362, "pitch": 74, "duration": 3, "velocity": 64}, {"time": 1365, "pitch": 71, "duration": 3, "velocity": 64}, {"time": 1368, "pitch": 71, "duration": 12, "velocity": 64}, {"time": 1380, "pitch": 74, "duration": 24, "velocity": 64}, {"time": 1404, "pitch": 76, "duration": 6, "velocity": 64}, {"time": 1410, "pitch": 78, "duration": 6, "velocity": 64}, {"time": 1416, "pitch": 76, "duration": 12, "velocity": 64}, {"time": 1428, "pitch": 74, "duration": 6, "velocity": 64}, {"time": 1434, "pitch": 71, "duration": 18, "velocity": 64}, {"time": 1464, "pitch": 74, "duration": 4, "velocity": 64}, {"time": 1468, "pitch": 76, "duration": 4, "velocity": 64}, {"time": 1472, "pitch": 74, "duration": 4, "velocity": 64}, {"time": 1476, "pitch": 71, "duration": 12, "velocity": 64}, {"time": 1488, "pitch": 76, "duration": 36, "velocity": 64}, {"time": 1524, "pitch": 78, "duration": 12, "velocity": 64}, {"time": 1536, "pitch": 76, "duration": 24, "velocity": 64}, {"time": 1560, "pitch": 71, "duration": 12, "velocity": 64}, {"time": 1572, "pitch": 74, "duration": 4, "velocity": 64}, {"time": 1576, "pitch": 76, "duration": 4, "velocity": 64}, {"time": 1580, "pitch": 74, "duration": 4, "velocity": 64}, {"time": 1584, "pitch": 71, "duration": 12, "velocity": 64}, {"time": 1596, "pitch": 71, "duration": 36, "velocity": 64}, {"time": 1632, "pitch": 78, "duration": 12, "velocity": 64}, {"time": 1644, "pitch": 78, "duration": 36, "velocity": 64}, {"time": 1680, "pitch": 76, "duration": 6, "velocity": 64}, {"time": 1686, "pitch": 78, "duration": 6, "velocity": 64}, {"time": 1692, "pitch": 76, "duration": 24, "velocity": 64}, {"time": 1716, "pitch": 78, "duration": 12, "velocity": 64}, {"time": 1728, "pitch": 76, "duration": 6, "velocity": 64}, {"time": 1734, "pitch": 78, "duration": 6, "velocity": 64}, {"time": 1740, "pitch": 76, "duration": 6, "velocity": 64}, {"time": 1746, "pitch": 74, "duration": 6, "velocity": 64}, {"time": 1752, "pitch": 71, "duration": 24, "velocity": 64}, {"time": 1776, "pitch": 71, "duration": 6, "velocity": 64}, {"time": 1782, "pitch": 74, "duration": 6, "velocity": 64}, {"time": 1788, "pitch": 76, "duration": 24, "velocity": 64}, {"time": 1812, "pitch": 78, "duration": 12, "velocity": 64}, {"time": 1824, "pitch": 74, "duration": 12, "velocity": 64}, {"time": 1836, "pitch": 76, "duration": 6, "velocity": 64}, {"time": 1842, "pitch": 78, "duration": 6, "velocity": 64}, {"time": 1848, "pitch": 78, "duration": 12, "velocity": 64}, {"time": 1872, "pitch": 76, "duration": 6, "velocity": 64}, {"time": 1878, "pitch": 78, "duration": 6, "velocity": 64}, {"time": 1884, "pitch": 76, "duration": 6, "velocity": 64}, {"time": 1890, "pitch": 74, "duration": 6, "velocity": 64}, {"time": 1896, "pitch": 71, "duration": 24, "velocity": 64}, {"time": 1920, "pitch": 76, "duration": 12, "velocity": 64}, {"time": 1932, "pitch": 74, "duration": 4, "velocity": 64}, {"time": 1936, "pitch": 76, "duration": 4, "velocity": 64}, {"time": 1940, "pitch": 74, "duration": 4, "velocity": 64}, {"time": 1944, "pitch": 71, "duration": 12, "velocity": 64}, {"time": 1956, "pitch": 74, "duration": 6, "velocity": 64}, {"time": 1962, "pitch": 76, "duration": 6, "velocity": 64}, {"time": 1968, "pitch": 71, "duration": 12, "velocity": 64}, {"time": 1980, "pitch": 74, "duration": 36, "velocity": 64}, {"time": 2016, "pitch": 71, "duration": 6, "velocity": 64}, {"time": 2022, "pitch": 74, "duration": 6, "velocity": 64}, {"time": 2028, "pitch": 71, "duration": 36, "velocity": 64}, {"time": 2064, "pitch": 74, "duration": 6, "velocity": 64}, {"time": 2070, "pitch": 76, "duration": 6, "velocity": 64}, {"time": 2076, "pitch": 71, "duration": 12, "velocity": 64}, {"time": 2088, "pitch": 76, "duration": 36, "velocity": 64}, {"time": 2124, "pitch": 78, "duration": 12, "velocity": 64}, {"time": 2136, "pitch": 74, "duration": 12, "velocity": 64}, {"time": 2148, "pitch": 76, "duration": 6, "velocity": 64}, {"time": 2154, "pitch": 78, "duration": 6, "velocity": 64}, {"time": 2160, "pitch": 76, "duration": 12, "velocity": 64}, {"time": 2172, "pitch": 76, "duration": 4, "velocity": 64}, {"time": 2176, "pitch": 74, "duration": 4, "velocity": 64}, {"time": 2180, "pitch": 71, "duration": 4, "velocity": 64}, {"time": 2184, "pitch": 76, "duration": 12, "velocity": 64}, {"time": 2196, "pitch": 74, "duration": 24, "velocity": 64}, {"time": 2220, "pitch": 76, "duration": 6, "velocity": 64}, {"time": 2226, "pitch": 78, "duration": 6, "velocity": 64}, {"time": 2232, "pitch": 76, "duration": 12, "velocity": 64}, {"time": 2244, "pitch": 74, "duration": 6, "velocity": 64}, {"time": 2250, "pitch": 71, "duration": 18, "velocity": 64}, {"time": 2280, "pitch": 71, "duration": 12, "velocity": 64}, {"time": 2292, "pitch": 71, "duration": 12, "velocity": 64}, {"time": 2304, "pitch": 76, "duration": 36, "velocity": 64}, {"time": 2340, "pitch": 78, "duration": 12, "velocity": 64}, {"time": 2352, "pitch": 76, "duration": 24, "velocity": 64}, {"time": 2376, "pitch": 71, "duration": 12, "velocity": 64}, {"time": 2388, "pitch": 74, "duration": 6, "velocity": 64}, {"time": 2394, "pitch": 76, "duration": 6, "velocity": 64}, {"time": 2400, "pitch": 71, "duration": 12, "velocity": 64}, {"time": 2412, "pitch": 71, "duration": 36, "velocity": 64}]}]}