{"metadata": {"schema_version": "0.1", "title": "Chunji zhaicha chaye xin", "source_format": "abc"}, "resolution": 24, "tempos": [{"time": 0, "qpm": 120.0}], "key_signatures": [{"time": 0, "root": 2, "mode": "major", "fifths": 2}], "time_signatures": [{"time": 0, "numerator": 2, "denominator": 4}], "beats": [{"time": 0, "is_downbeat": true}, {"time": 24, "is_downbeat": false}, {"time": 48, "is_downbeat": true}, {"time": 72, "is_downbeat": false}, {"time": 96, "is_downbeat": true}, {"time": 120, "is_downbeat": false}, {"time": 144, "is_downbeat": true}, {"time": 168, "is_downbeat": false}, {"time": 192, "is_downbeat": true}, {"time": 216, "is_downbeat": false}, {"time": 240, "is_downbeat": true}, {"time": 264, "is_downbeat": false}, {"time": 288, "is_downbeat": true}, {"time": 312, "is_downbeat": false}, {"time": 336, "is_downbeat": true}, {"time": 360, "is_downbeat": false}, {"time": 384, "is_downbeat": true}, {"time": 408, "is_downbeat": false}, {"time": 432, "is_downbeat": true}, {"time": 456, "is_downbeat": false}, {"time": 480, "is_downbeat": true}, {"time": 504, "is_downbeat": false}, {"time": 528, "is_downbeat": true}, {"time": 552, "is_downbeat": false}, {"time": 576, "is_downbeat": true}, {"time": 600, "is_downbeat": false}, {"time": 624, "is_downbeat": true}, {"time": 648, "is_downbeat": false}, {"time": 672, "is_downbeat": true}, {"time": 696, "is_downbeat": false}, {"time": 720, "is_downbeat": true}, {"time": 744, "is_downbeat": false}, {"time": 768, "is_downbeat": true}, {"time": 792, "is_downbeat": false}, {"time": 816, "is_downbeat": true}, {"time": 840, "is_downbeat": false}, {"time": 864, "is_downbeat": true}, {"time": 888, "is_downbeat": false}], "tracks": [{"program": 0, "is_drum": false, "notes": [{"time": 0, "pitch": 62, "duration": 12, "velocity": 64}, {"time": 12, "pitch": 64, "duration": 12, "velocity": 64}, {"time": 24, "pitch": 66, "duration": 12, "velocity": 64}, {"time": 36, "pitch": 66, "duration": 6, "velocity": 64}, {"time": 42, "pitch": 64, "duration": 6, "velocity": 64}, {"time": 48, "pitch": 62, "duration": 12, "velocity": 64}, {"time": 60, "pitch": 64, "duration": 6, "velocity": 64}, {"time": 66, "pitch": 66, "duration": 6, "velocity": 64}, {"time": 72, "pitch": 62, "duration": 12, "velocity": 64}, {"time": 84, "pitch": 64, "duration": 12, "velocity": 64}, {"time": 96, "pitch": 66, "duration": 12, "velocity": 64}, {"time": 108, "pitch": 64, "duration": 12, "velocity": 64}, {"time": 120, "pitch": 66, "duration": 12, "velocity": 64}, {"time": 132, "pitch": 69, "duration": 12, "velocity": 64}, {"time": 144, "pitch": 64, "duration": 12, "velocity": 64}, {"time": 156, "pitch": 66, "duration": 12, "velocity": 64}, {"time": 168, "pitch": 64, "duration": 6, "velocity": 64}, {"time": 174, "pitch": 66, "duration": 6, "velocity": 64}, {"time": 180, "pitch": 64, "duration": 6, "velocity": 64}, {"time": 186, "pitch": 62, "duration": 6, "velocity": 64}, {"time": 192, "pitch": 59, "duration": 12, "velocity": 64}, {"time": 204, "pitch": 59, "duration": 12, "velocity": 64}, {"time": 216, "pitch": 59, "duration": 6, "velocity": 64}, {"time": 222, "pitch": 62, "duration": 6, "velocity": 64}, {"time": 228, "pitch": 64, "duration": 6, "velocity": 64}, {"time": 234, "pitch": 66, "duration": 6, "velocity": 64}, {"time": 240, "pitch": 62, "duration": 6, "velocity": 64}, {"time": 246, "pitch": 64, "duration": 6, "velocity": 64}, {"time": 252, "pitch": 59, "duration": 12, "velocity": 64}, {"time": 264, "pitch": 62, "duration": 24, "velocity": 64}, {"time": 288, "pitch": 69, "duration": 18, "velocity": 64}, {"time": 306, "pitch": 71, "duration": 6, "velocity": 64}, {"time": 312, "pitch": 69, "duration": 12, "velocity": 64}, {"time": 324, "pitch": 62, "duration": 12, "velocity": 64}, {"time": 336, "pitch": 64, "duration": 48, "velocity": 64}, {"time": 384, "pitch": 69, "duration": 18, "velocity": 64}, {"time": 402, "pitch": 71, "duration": 6, "velocity": 64}, {"time": 408, "pitch": 69, "duration": 12, "velocity": 64}, {"time": 420, "pitch": 62, "duration": 12, "velocity": 64}, {"time": 432, "pitch": 64, "duration": 48, "velocity": 64}, {"time": 480, "pitch": 64, "duration": 18, "velocity": 64}, {"time": 498, "pitch": 66, "duration": 6, "velocity": 64}, {"time": 504, "pitch": 69, "duration": 24, "velocity": 64}, {"time": 528, "pitch": 66, "duration": 12, "velocity": 64}, {"time": 540, "pitch": 69, "duration": 12, "velocity": 64}, {"time": 552, "pitch": 66, "duration": 6, "velocity": 64}, {"time": 558, "pitch": 69, "duration": 6, "velocity": 64}, {"time": 564, "pitch": 66, "duration": 6, "velocity": 64}, {"time": 570, "pitch": 64, "duration": 6, "velocity": 64}, {"time": 576, "pitch": 62, "duration": 18, "velocity": 64}, {"time": 594, "pitch": 64, "duration": 6, "velocity": 64}, {"time": 600, "pitch": 66, "duration": 6, "velocity": 64}, {"time": 606, "pitch": 64, "duration": 6, "velocity": 64}, {"time": 612, "pitch": 66, "duration": 6, "velocity": 64}, {"time": 618, "pitch": 69, "duration": 6, "velocity": 64}, {"time": 624, "pitch": 64, "duration": 48, "velocity": 64}, {"time": 672, "pitch": 59, "duration": 12, "velocity": 64}, {"time": 684, "pitch": 66, "duration": 12, "velocity": 64}, {"time": 696, "pitch": 64, "duration": 6, "velocity": 64}, {"time": 702, "pitch": 66, "duration": 6, "velocity": 64}, {"time": 708, "pitch": 59, "duration": 12, "velocity": 64}, {"time": 720, "pitch": 62, "duration": 48, "velocity": 64}, {"time": 768, "pitch": 62, "duration": 12, "velocity": 64}, {"time": 780, "pitch": 59, "duration": 6, "velocity": 64}, {"time": 786, "pitch": 62, "duration": 6, "velocity": 64}, {"time": 792, "pitch": 64, "duration": 6, "velocity": 64}, {"time": 798, "pitch": 66, "duration": 6, "velocity": 64}, {"time": 804, "pitch": 64, "duration": 6, "velocity": 64}, {"time": 810, "pitch": 62, "duration": 6, "velocity": 64}, {"time": 816, "pitch": 59, "duration": 12, "velocity": 64}, {"time": 828, "pitch": 59, "duration": 12, "velocity": 64}, {"time": 840, "pitch": 59, "duration": 6, "velocity": 64}, {"time": 846, "pitch": 62, "duration": 6, "velocity": 64}, {"time": 852, "pitch": 57, "duration": 12, "velocity": 64}, {"time": 864, "pitch": 59, "duration": 48, "velocity": 64}]}]}