{"metadata": {"schema_version": "0.1", "title": "Bachuan hozi", "source_format": "abc"}, "resolution": 24, "tempos": [{"time": 0, "qpm": 120.0}], "key_signatures": [{"time": 0, "root": 7, "mode": "major", "fifths": 1}], "time_signatures": [{"time": 0, "numerator": 4, "denominator": 4}, {"time": 432, "numerator": 1, "denominator": 4}, {"time": 456, "numerator": 2, "denominator": 4}], "beats": [{"time": 0, "is_downbeat": true}, {"time": 24, "is_downbeat": true}, {"time": 48, "is_downbeat": true}, {"time": 72, "is_downbeat": true}, {"time": 96, "is_downbeat": true}, {"time": 120, "is_downbeat": true}, {"time": 144, "is_downbeat": true}, {"time": 168, "is_downbeat": true}, {"time": 192, "is_downbeat": true}, {"time": 216, "is_downbeat": true}, {"time": 240, "is_downbeat": true}, {"time": 264, "is_downbeat": true}, {"time": 288, "is_downbeat": true}, {"time": 312, "is_downbeat": true}, {"time": 336, "is_downbeat": true}, {"time": 360, "is_downbeat": true}, {"time": 384, "is_downbeat": true}, {"time": 408, "is_downbeat": true}, {"time": 432, "is_downbeat": true}, {"time": 456, "is_downbeat": true}, {"time": 480, "is_downbeat": false}, {"time": 504, "is_downbeat": true}, {"time": 528, "is_downbeat": false}, {"time": 552, "is_downbeat": true}, {"time": 576, "is_downbeat": false}, {"time": 600, "is_downbeat": true}, {"time": 624, "is_downbeat": false}, {"time": 648, "is_downbeat": true}, {"time": 672, "is_downbeat": false}, {"time": 696, "is_downbeat": true}, {"time": 720, "is_downbeat": false}, {"time": 744, "is_downbeat": true}, {"time": 768, "is_downbeat": false}, {"time": 792, "is_downbeat": true}, {"time": 816, "is_downbeat": false}, {"time": 840, "is_downbeat": true}, {"time": 864, "is_downbeat": false}, {"time": 888, "is_downbeat": true}, {"time": 912, "is_downbeat": false}, {"time": 936, "is_downbeat": true}, {"time": 960, "is_downbeat": false}, {"time": 984, "is_downbeat": true}, {"time": 1008, "is_downbeat": false}, {"time": 1032, "is_downbeat": true}, {"time": 1056, "is_downbeat": false}, {"time": 1080, "is_downbeat": true}, {"time": 1104, "is_downbeat": false}, {"time": 1128, "is_downbeat": true}, {"time": 1152, "is_downbeat": false}, {"time": 1176, "is_downbeat": true}, {"time": 1200, "is_downbeat": false}, {"time": 1224, "is_downbeat": true}, {"time": 1248, "is_downbeat": false}, {"time": 1272, "is_downbeat": true}, {"time": 1296, "is_downbeat": false}, {"time": 1320, "is_downbeat": true}, {"time": 1344, "is_downbeat": false}, {"time": 1368, "is_downbeat": true}, {"time": 1392, "is_downbeat": false}, {"time": 1416, "is_downbeat": true}, {"time": 1440, "is_downbeat": false}, {"time": 1464, "is_downbeat": true}, {"time": 1488, "is_downbeat": false}, {"time": 1512, "is_downbeat": true}, {"time": 1536, "is_downbeat": false}, {"time": 1560, "is_downbeat": true}, {"time": 1584, "is_downbeat": false}, {"time": 1608, "is_downbeat": true}, {"time": 1632, "is_downbeat": false}, {"time": 1656, "is_downbeat": true}, {"time": 1680, "is_downbeat": false}, {"time": 1704, "is_downbeat": true}, {"time": 1728, "is_downbeat": false}, {"time": 1752, "is_downbeat": true}, {"time": 1776, "is_downbeat": false}, {"time": 1800, "is_downbeat": true}, {"time": 1824, "is_downbeat": false}, {"time": 1848, "is_downbeat": true}, {"time": 1872, "is_downbeat": false}, {"time": 1896, "is_downbeat": true}, {"time": 1920, "is_downbeat": false}, {"time": 1944, "is_downbeat": true}, {"time": 1968, "is_downbeat": false}, {"time": 1992, "is_downbeat": true}, {"time": 2016, "is_downbeat": false}, {"time": 2040, "is_downbeat": true}, {"time": 2064, "is_downbeat": false}, {"time": 2088, "is_downbeat": true}, {"time": 2112, "is_downbeat": false}, {"time": 2136, "is_downbeat": true}, {"time": 2160, "is_downbeat": false}, {"time": 2184, "is_downbeat": true}, {"time": 2208, "is_downbeat": false}, {"time": 2232, "is_downbeat": true}, {"time": 2256, "is_downbeat": false}, {"time": 2280, "is_downbeat": true}, {"time": 2304, "is_downbeat": false}, {"time": 2328, "is_downbeat": true}, {"time": 2352, "is_downbeat": false}, {"time": 2376, "is_downbeat": true}, {"time": 2400, "is_downbeat": false}, {"time": 2424, "is_downbeat": true}, {"time": 2448, "is_downbeat": false}, {"time": 2472, "is_downbeat": true}, {"time": 2496, "is_downbeat": false}, {"time": 2520, "is_downbeat": true}, {"time": 2544, "is_downbeat": false}, {"time": 2568, "is_downbeat": true}, {"time": 2592, "is_downbeat": false}, {"time": 2616, "is_downbeat": true}, {"time": 2640, "is_downbeat": false}, {"time": 2664, "is_downbeat": true}, {"time": 2688, "is_downbeat": false}, {"time": 2712, "is_downbeat": true}, {"time": 2736, "is_downbeat": false}, {"time": 2760, "is_downbeat": true}, {"time": 2784, "is_downbeat": false}, {"time": 2808, "is_downbeat": true}, {"time": 2832, "is_downbeat": false}, {"time": 2856, "is_downbeat": true}, {"time": 2880, "is_downbeat": false}, {"time": 2904, "is_downbeat": true}, {"time": 2928, "is_downbeat": false}, {"time": 2952, "is_downbeat": true}, {"time": 2976, "is_downbeat": false}, {"time": 3000, "is_downbeat": true}, {"time": 3024, "is_downbeat": false}, {"time": 3048, "is_downbeat": true}, {"time": 3072, "is_downbeat": false}, {"time": 3096, "is_downbeat": true}, {"time": 3120, "is_downbeat": false}, {"time": 3144, "is_downbeat": true}, {"time": 3168, "is_downbeat": false}, {"time": 3192, "is_downbeat": true}, {"time": 3216, "is_downbeat": false}, {"time": 3240, "is_downbeat": true}, {"time": 3264, "is_downbeat": false}, {"time": 3288, "is_downbeat": true}, {"time": 3312, "is_downbeat": false}, {"time": 3336, "is_downbeat": true}, {"time": 3360, "is_downbeat": false}, {"time": 3384, "is_downbeat": true}, {"time": 3408, "is_downbeat": false}, {"time": 3432, "is_downbeat": true}, {"time": 3456, "is_downbeat": false}, {"time": 3480, "is_downbeat": true}, {"time": 3504, "is_downbeat": false}], "tracks": [{"program": 0, "is_drum": false, "notes": [{"time": 0, "pitch": 69, "duration": 24, "velocity": 64}, {"time": 24, "pitch": 71, "duration": 6, "velocity": 64}, {"time": 30, "pitch": 69, "duration": 6, "velocity": 64}, {"time": 36, "pitch": 71, "duration": 12, "velocity": 64}, {"time": 48, "pitch": 71, "duration": 12, "velocity": 64}, {"time": 60, "pitch": 71, "duration": 6, "velocity": 64}, {"time": 66, "pitch": 69, "duration": 6, "velocity": 64}, {"time": 72, "pitch": 69, "duration": 24, "velocity": 64}, {"time": 96, "pitch": 71, "duration": 6, "velocity": 64}, {"time": 102, "pitch": 69, "duration": 18, "velocity": 64}, {"time": 120, "pitch": 69, "duration": 12, "velocity": 64}, {"time": 132, "pitch": 67, "duration": 6, "velocity": 64}, {"time": 138, "pitch": 64, "duration": 6, "velocity": 64}, {"time": 144, "pitch": 62, "duration": 36, "velocity": 64}, {"time": 180, "pitch": 64, "duration": 12, "velocity": 64}, {"time": 192, "pitch": 67, "duration": 18, "velocity": 64}, {"time": 210, "pitch": 69, "duration": 6, "velocity": 64}, {"time": 216, "pitch": 67, "duration": 6, "velocity": 64}, {"time": 222, "pitch": 69, "duration": 6, "velocity": 64}, {"time": 228, "pitch": 67, "duration": 6, "velocity": 64}, {"time": 234, "pitch": 64, "duration": 6, "velocity": 64}, {"time": 240, "pitch": 62, "duration": 36, "velocity": 64}, {"time": 276, "pitch": 64, "duration": 12, "velocity": 64}, {"time": 288, "pitch": 67, "duration": 18, "velocity": 64}, {"time": 306, "pitch": 69, "duration": 6, "velocity": 64}, {"time": 312, "pitch": 67, "duration": 6, "velocity": 64}, {"time": 318, "pitch": 69, "duration": 6, "velocity": 64}, {"time": 324, "pitch": 67, "duration": 6, "velocity": 64}, {"time": 330, "pitch": 64, "duration": 6, "velocity": 64}, {"time": 336, "pitch": 62, "duration": 24, "velocity": 64}, {"time": 360, "pitch": 62, "duration": 24, "velocity": 64}, {"time": 384, "pitch": 69, "duration": 24, "velocity": 64}, {"time": 408, "pitch": 71, "duration": 12, "velocity": 64}, {"time": 420, "pitch": 69, "duration": 12, "velocity": 64}, {"time": 432, "pitch": 69, "duration": 24, "velocity": 64}, {"time": 456, "pitch": 71, "duration": 12, "velocity": 64}, {"time": 468, "pitch": 71, "duration": 6, "velocity": 64}, {"time": 474, "pitch": 69, "duration": 6, "velocity": 64}, {"time": 480, "pitch": 69, "duration": 24, "velocity": 64}, {"time": 504, "pitch": 69, "duration": 12, "velocity": 64}, {"time": 516, "pitch": 69, "duration": 24, "velocity": 64}, {"time": 540, "pitch": 64, "duration": 12, "velocity": 64}, {"time": 552, "pitch": 67, "duration": 24, "velocity": 64}, {"time": 576, "pitch": 67, "duration": 24, "velocity": 64}, {"time": 600, "pitch": 67, "duration": 18, "velocity": 64}, {"time": 618, "pitch": 69, "duration": 6, "velocity": 64}, {"time": 624, "pitch": 67, "duration": 6, "velocity": 64}, {"time": 630, "pitch": 69, "duration": 6, "velocity": 64}, {"time": 636, "pitch": 67, "duration": 6, "velocity": 64}, {"time": 642, "pitch": 64, "duration": 6, "velocity": 64}, {"time": 648, "pitch": 62, "duration": 36, "velocity": 64}, {"time": 684, "pitch": 64, "duration": 12, "velocity": 64}, {"time": 696, "pitch": 67, "duration": 12, "velocity": 64}, {"time": 708, "pitch": 69, "duration": 12, "velocity": 64}, {"time": 720, "pitch": 67, "duration": 6, "velocity": 64}, {"time": 726, "pitch": 69, "duration": 6, "velocity": 64}, {"time": 732, "pitch": 67, "duration": 6, "velocity": 64}, {"time": 738, "pitch": 64, "duration": 6, "velocity": 64}, {"time": 744, "pitch": 62, "duration": 24, "velocity": 64}, {"time": 768, "pitch": 62, "duration": 24, "velocity": 64}, {"time": 792, "pitch": 64, "duration": 12, "velocity": 64}, {"time": 804, "pitch": 64, "duration": 12, "velocity": 64}, {"time": 816, "pitch": 69, "duration": 24, "velocity": 64}, {"time": 840, "pitch": 69, "duration": 12, "velocity": 64}, {"time": 852, "pitch": 69, "duration": 12, "velocity": 64}, {"time": 864, "pitch": 71, "duration": 12, "velocity": 64}, {"time": 876, "pitch": 69, "duration": 12, "velocity": 64}, {"time": 888, "pitch": 69, "duration": 12, "velocity": 64}, {"time": 900, "pitch": 67, "duration": 12, "velocity": 64}, {"time": 912, "pitch": 64, "duration": 24, "velocity": 64}, {"time": 936, "pitch": 69, "duration": 24, "velocity": 64}, {"time": 960, "pitch": 69, "duration": 12, "velocity": 64}, {"time": 972, "pitch": 71, "duration": 12, "velocity": 64}, {"time": 984, "pitch": 69, "duration": 12, "velocity": 64}, {"time": 996, "pitch": 69, "duration": 6, "velocity": 64}, {"time": 1002, "pitch": 71, "duration": 6, "velocity": 64}, {"time": 1008, "pitch": 69, "duration": 6, "velocity": 64}, {"time": 1014, "pitch": 67, "duration": 6, "velocity": 64}, {"time": 1020, "pitch": 64, "duration": 12, "velocity": 64}, {"time": 1032, "pitch": 62, "duration": 36, "velocity": 64}, {"time": 1068, "pitch": 64, "duration": 12, "velocity": 64}, {"time": 1080, "pitch": 69, "duration": 12, "velocity": 64}, {"time": 1092, "pitch": 67, "duration": 6, "velocity": 64}, {"time": 1098, "pitch": 69, "duration": 6, "velocity": 64}, {"time": 1104, "pitch": 67, "duration": 6, "velocity": 64}, {"time": 1110, "pitch": 69, "duration": 6, "velocity": 64}, {"time": 1116, "pitch": 67, "duration": 6, "velocity": 64}, {"time": 1122, "pitch": 64, "duration": 6, "velocity": 64}, {"time": 1128, "pitch": 62, "duration": 24, "velocity": 64}, {"time": 1152, "pitch": 62, "duration": 24, "velocity": 64}, {"time": 1176, "pitch": 67, "duration": 12, "velocity": 64}, {"time": 1188, "pitch": 67, "duration": 12, "velocity": 64}, {"time": 1200, "pitch": 69, "duration": 6, "velocity": 64}, {"time": 1206, "pitch": 67, "duration": 6, "velocity": 64}, {"time": 1212, "pitch": 64, "duration": 12, "velocity": 64}, {"time": 1224, "pitch": 71, "duration": 12, "velocity": 64}, {"time": 1236, "pitch": 69, "duration": 24, "velocity": 64}, {"time": 1260, "pitch": 69, "duration": 12, "velocity": 64}, {"time": 1272, "pitch": 67, "duration": 12, "velocity": 64}, {"time": 1284, "pitch": 69, "duration": 12, "velocity": 64}, {"time": 1296, "pitch": 64, "duration": 24, "velocity": 64}, {"time": 1320, "pitch": 62, "duration": 24, "velocity": 64}, {"time": 1344, "pitch": 62, "duration": 24, "velocity": 64}, {"time": 1368, "pitch": 64, "duration": 18, "velocity": 64}, {"time": 1386, "pitch": 67, "duration": 6, "velocity": 64}, {"time": 1392, "pitch": 64, "duration": 6, "velocity": 64}, {"time": 1398, "pitch": 62, "duration": 6, "velocity": 64}, {"time": 1404, "pitch": 59, "duration": 12, "velocity": 64}, {"time": 1416, "pitch": 62, "duration": 24, "velocity": 64}, {"time": 1440, "pitch": 62, "duration": 24, "velocity": 64}, {"time": 1464, "pitch": 64, "duration": 18, "velocity": 64}, {"time": 1482, "pitch": 67, "duration": 6, "velocity": 64}, {"time": 1488, "pitch": 64, "duration": 6, "velocity": 64}, {"time": 1494, "pitch": 62, "duration": 6, "velocity": 64}, {"time": 1500, "pitch": 59, "duration": 12, "velocity": 64}, {"time": 1512, "pitch": 62, "duration": 24, "velocity": 64}, {"time": 1536, "pitch": 62, "duration": 24, "velocity": 64}, {"time": 1560, "pitch": 69, "duration": 12, "velocity": 64}, {"time": 1572, "pitch": 69, "duration": 24, "velocity": 64}, {"time": 1596, "pitch": 71, "duration": 12, "velocity": 64}, {"time": 1608, "pitch": 69, "duration": 12, "velocity": 64}, {"time": 1620, "pitch": 69, "duration": 6, "velocity": 64}, {"time": 1626, "pitch": 71, "duration": 6, "velocity": 64}, {"time": 1632, "pitch": 71, "duration": 12, "velocity": 64}, {"time": 1644, "pitch": 69, "duration": 12, "velocity": 64}, {"time": 1656, "pitch": 69, "duration": 24, "velocity": 64}, {"time": 1680, "pitch": 64, "duration": 24, "velocity": 64}, {"time": 1704, "pitch": 67, "duration": 48, "velocity": 64}, {"time": 1752, "pitch": 67, "duration": 12, "velocity": 64}, {"time": 1764, "pitch": 67, "duration": 6, "velocity": 64}, {"time": 1770, "pitch": 69, "duration": 6, "velocity": 64}, {"time": 1776, "pitch": 67, "duration": 6, "velocity": 64}, {"time": 1782, "pitch": 69, "duration": 6, "velocity": 64}, {"time": 1788, "pitch": 67, "duration": 6, "velocity": 64}, {"time": 1794, "pitch": 64, "duration": 6, "velocity": 64}, {"time": 1800, "pitch": 62, "duration": 48, "velocity": 64}, {"time": 1848, "pitch": 67, "duration": 12, "velocity": 64}, {"time": 1860, "pitch": 67, "duration": 6, "velocity": 64}, {"time": 1866, "pitch": 69, "duration": 6, "velocity": 64}, {"time": 1872, "pitch": 67, "duration": 6, "velocity": 64}, {"time": 1878, "pitch": 69, "duration": 6, "velocity": 64}, {"time": 1884, "pitch": 67, "duration": 6, "velocity": 64}, {"time": 1890, "pitch": 64, "duration": 6, "velocity": 64}, {"time": 1896, "pitch": 62, "duration": 48, "velocity": 64}, {"time": 1944, "pitch": 69, "duration": 12, "velocity": 64}, {"time": 1956, "pitch": 69, "duration": 24, "velocity": 64}, {"time": 1980, "pitch": 71, "duration": 12, "velocity": 64}, {"time": 1992, "pitch": 71, "duration": 12, "velocity": 64}, {"time": 2004, "pitch": 69, "duration": 6, "velocity": 64}, {"time": 2010, "pitch": 71, "duration": 6, "velocity": 64}, {"time": 2016, "pitch": 69, "duration": 6, "velocity": 64}, {"time": 2022, "pitch": 67, "duration": 6, "velocity": 64}, {"time": 2028, "pitch": 64, "duration": 12, "velocity": 64}, {"time": 2040, "pitch": 64, "duration": 12, "velocity": 64}, {"time": 2052, "pitch": 64, "duration": 6, "velocity": 64}, {"time": 2058, "pitch": 67, "duration": 6, "velocity": 64}, {"time": 2064, "pitch": 69, "duration": 6, "velocity": 64}, {"time": 2070, "pitch": 71, "duration": 6, "velocity": 64}, {"time": 2076, "pitch": 69, "duration": 6, "velocity": 64}, {"time": 2082, "pitch": 64, "duration": 6, "velocity": 64}, {"time": 2088, "pitch": 67, "duration": 24, "velocity": 64}, {"time": 2112, "pitch": 67, "duration": 24, "velocity": 64}, {"time": 2136, "pitch": 69, "duration": 48, "velocity": 64}, {"time": 2184, "pitch": 67, "duration": 12, "velocity": 64}, {"time": 2196, "pitch": 69, "duration": 12, "velocity": 64}, {"time": 2208, "pitch": 67, "duration": 6, "velocity": 64}, {"time": 2214, "pitch": 69, "duration": 6, "velocity": 64}, {"time": 2220, "pitch": 67, "duration": 6, "velocity": 64}, {"time": 2226, "pitch": 64, "duration": 6, "velocity": 64}, {"time": 2232, "pitch": 62, "duration": 48, "velocity": 64}, {"time": 2280, "pitch": 67, "duration": 12, "velocity": 64}, {"time": 2292, "pitch": 69, "duration": 12, "velocity": 64}, {"time": 2304, "pitch": 67, "duration": 6, "velocity": 64}, {"time": 2310, "pitch": 69, "duration": 6, "velocity": 64}, {"time": 2316, "pitch": 67, "duration": 6, "velocity": 64}, {"time": 2322, "pitch": 64, "duration": 6, "velocity": 64}, {"time": 2328, "pitch": 62, "duration": 48, "velocity": 64}, {"time": 2376, "pitch": 69, "duration": 24, "velocity": 64}, {"time": 2400, "pitch": 71, "duration": 12, "velocity": 64}, {"time": 2412, "pitch": 69, "duration": 12, "velocity": 64}, {"time": 2424, "pitch": 71, "duration": 12, "velocity": 64}, {"time": 2436, "pitch": 69, "duration": 6, "velocity": 64}, {"time": 2442, "pitch": 71, "duration": 6, "velocity": 64}, {"time": 2448, "pitch": 69, "duration": 6, "velocity": 64}, {"time": 2454, "pitch": 67, "duration": 6, "velocity": 64}, {"time": 2460, "pitch": 64, "duration": 12, "velocity": 64}, {"time": 2472, "pitch": 64, "duration": 12, "velocity": 64}, {"time": 2484, "pitch": 64, "duration": 12, "velocity": 64}, {"time": 2496, "pitch": 69, "duration": 12, "velocity": 64}, {"time": 2508, "pitch": 64, "duration": 12, "velocity": 64}, {"time": 2520, "pitch": 67, "duration": 48, "velocity": 64}, {"time": 2568, "pitch": 67, "duration": 12, "velocity": 64}, {"time": 2580, "pitch": 69, "duration": 12, "velocity": 64}, {"time": 2592, "pitch": 67, "duration": 6, "velocity": 64}, {"time": 2598, "pitch": 69, "duration": 6, "velocity": 64}, {"time": 2604, "pitch": 67, "duration": 6, "velocity": 64}, {"time": 2610, "pitch": 64, "duration": 6, "velocity": 64}, {"time": 2616, "pitch": 62, "duration": 48, "velocity": 64}, {"time": 2664, "pitch": 67, "duration": 12, "velocity": 64}, {"time": 2676, "pitch": 69, "duration": 12, "velocity": 64}, {"time": 2688, "pitch": 67, "duration": 6, "velocity": 64}, {"time": 2694, "pitch": 69, "duration": 6, "velocity": 64}, {"time": 2700, "pitch": 67, "duration": 6, "velocity": 64}, {"time": 2706, "pitch": 64, "duration": 6, "velocity": 64}, {"time": 2712, "pitch": 62, "duration": 48, "velocity": 64}, {"time": 2760, "pitch": 67, "duration": 12, "velocity": 64}, {"time": 2772, "pitch": 67, "duration": 24, "velocity": 64}, {"time": 2796, "pitch": 64, "duration": 12, "velocity": 64}, {"time": 2808, "pitch": 69, "duration": 12, "velocity": 64}, {"time": 2820, "pitch": 71, "duration": 12, "velocity": 64}, {"time": 2832, "pitch": 69, "duration": 12, "velocity": 64}, {"time": 2844, "pitch": 71, "duration": 12, "velocity": 64}, {"time": 2856, "pitch": 67, "duration": 12, "velocity": 64}, {"time": 2868, "pitch": 69, "duration": 12, "velocity": 64}, {"time": 2880, "pitch": 71, "duration": 24, "velocity": 64}, {"time": 2904, "pitch": 69, "duration": 24, "velocity": 64}, {"time": 2928, "pitch": 69, "duration": 24, "velocity": 64}, {"time": 2952, "pitch": 69, "duration": 12, "velocity": 64}, {"time": 2964, "pitch": 71, "duration": 12, "velocity": 64}, {"time": 2976, "pitch": 69, "duration": 6, "velocity": 64}, {"time": 2982, "pitch": 71, "duration": 6, "velocity": 64}, {"time": 2988, "pitch": 69, "duration": 6, "velocity": 64}, {"time": 2994, "pitch": 64, "duration": 6, "velocity": 64}, {"time": 3000, "pitch": 62, "duration": 24, "velocity": 64}, {"time": 3024, "pitch": 62, "duration": 18, "velocity": 64}, {"time": 3042, "pitch": 64, "duration": 6, "velocity": 64}, {"time": 3048, "pitch": 67, "duration": 18, "velocity": 64}, {"time": 3066, "pitch": 69, "duration": 6, "velocity": 64}, {"time": 3072, "pitch": 67, "duration": 6, "velocity": 64}, {"time": 3078, "pitch": 69, "duration": 6, "velocity": 64}, {"time": 3084, "pitch": 67, "duration": 6, "velocity": 64}, {"time": 3090, "pitch": 64, "duration": 6, "velocity": 64}, {"time": 3096, "pitch": 62, "duration": 24, "velocity": 64}, {"time": 3120, "pitch": 62, "duration": 24, "velocity": 64}, {"time": 3144, "pitch": 64, "duration": 12, "velocity": 64}, {"time": 3156, "pitch": 64, "duration": 24, "velocity": 64}, {"time": 3192, "pitch": 71, "duration": 12, "velocity": 64}, {"time": 3204, "pitch": 71, "duration": 12, "velocity": 64}, {"time": 3216, "pitch": 69, "duration": 12, "velocity": 64}, {"time": 3228, "pitch": 71, "duration": 12, "velocity": 64}, {"time": 3240, "pitch": 69, "duration": 24, "velocity": 64}, {"time": 3264, "pitch": 64, "duration": 24, "velocity": 64}, {"time": 3288, "pitch": 67, "duration": 48, "velocity": 64}, {"time": 3336, "pitch": 67, "duration": 12, "velocity": 64}, {"time": 3348, "pitch": 69, "duration": 12, "velocity": 64}, {"time": 3360, "pitch": 67, "duration": 6, "velocity": 64}, {"time": 3366, "pitch": 69, "duration": 6, "velocity": 64}, {"time": 3372, "pitch": 67, "duration": 6, "velocity": 64}, {"time": 3378, "pitch": 64, "duration": 6, "velocity": 64}, {"time": 3384, "pitch": 62, "duration": 42, "velocity": 64}, {"time": 3426, "pitch": 64, "duration": 6, "velocity": 64}, {"time": 3432, "pitch": 67, "duration": 18, "velocity": 64}, {"time": 3450, "pitch": 69, "duration": 6, "velocity": 64}, {"time": 3456, "pitch": 69, "duration": 12, "velocity": 64}, {"time": 3468, "pitch": 67, "duration": 6, "velocity": 64}, {"time": 3474, "pitch": 64, "duration": 6, "velocity": 64}, {"time": 3480, "pitch": 62, "duration": 48, "velocity": 64}]}]}