{"metadata": {"schema_version": "0.1", "title": "Guijiang shuiji tan you wan", "source_format": "abc"}, "resolution": 24, "tempos": [{"time": 0, "qpm": 120.0}], "key_signatures": [{"time": 0, "root": 9, "mode": "major", "fifths": 3}], "time_signatures": [{"time": 0, "numerator": 4, "denominator": 4}, {"time": 48, "numerator": 1, "denominator": 4}, {"time": 312, "numerator": 3, "denominator": 4}, {"time": 432, "numerator": 1, "denominator": 4}, {"time": 504, "numerator": 4, "denominator": 4}, {"time": 648, "numerator": 3, "denominator": 4}, {"time": 816, "numerator": 4, "denominator": 4}, {"time": 960, "numerator": 1, "denominator": 4}, {"time": 1032, "numerator": 4, "denominator": 4}, {"time": 1176, "numerator": 3, "denominator": 4}, {"time": 1344, "numerator": 3, "denominator": 4}, {"time": 1416, "numerator": 2, "denominator": 4}, {"time": 1512, "numerator": 1, "denominator": 4}], "beats": [{"time": 0, "is_downbeat": true}, {"time": 24, "is_downbeat": true}, {"time": 48, "is_downbeat": true}, {"time": 72, "is_downbeat": true}, {"time": 96, "is_downbeat": false}, {"time": 120, "is_downbeat": true}, {"time": 144, "is_downbeat": false}, {"time": 168, "is_downbeat": true}, {"time": 192, "is_downbeat": false}, {"time": 216, "is_downbeat": true}, {"time": 240, "is_downbeat": false}, {"time": 264, "is_downbeat": true}, {"time": 288, "is_downbeat": false}, {"time": 312, "is_downbeat": true}, {"time": 336, "is_downbeat": true}, {"time": 360, "is_downbeat": true}, {"time": 384, "is_downbeat": true}, {"time": 408, "is_downbeat": true}, {"time": 432, "is_downbeat": true}, {"time": 456, "is_downbeat": true}, {"time": 480, "is_downbeat": false}, {"time": 504, "is_downbeat": true}, {"time": 528, "is_downbeat": false}, {"time": 552, "is_downbeat": false}, {"time": 576, "is_downbeat": true}, {"time": 600, "is_downbeat": true}, {"time": 624, "is_downbeat": false}, {"time": 648, "is_downbeat": true}, {"time": 672, "is_downbeat": false}, {"time": 696, "is_downbeat": false}, {"time": 720, "is_downbeat": true}, {"time": 744, "is_downbeat": false}, {"time": 768, "is_downbeat": true}, {"time": 792, "is_downbeat": false}, {"time": 816, "is_downbeat": true}, {"time": 840, "is_downbeat": true}, {"time": 864, "is_downbeat": true}, {"time": 888, "is_downbeat": true}, {"time": 912, "is_downbeat": true}, {"time": 936, "is_downbeat": true}, {"time": 960, "is_downbeat": true}, {"time": 984, "is_downbeat": true}, {"time": 1008, "is_downbeat": false}, {"time": 1032, "is_downbeat": true}, {"time": 1056, "is_downbeat": false}, {"time": 1080, "is_downbeat": false}, {"time": 1104, "is_downbeat": true}, {"time": 1128, "is_downbeat": true}, {"time": 1152, "is_downbeat": false}, {"time": 1176, "is_downbeat": true}, {"time": 1200, "is_downbeat": false}, {"time": 1224, "is_downbeat": false}, {"time": 1248, "is_downbeat": true}, {"time": 1272, "is_downbeat": false}, {"time": 1296, "is_downbeat": true}, {"time": 1320, "is_downbeat": false}, {"time": 1344, "is_downbeat": true}, {"time": 1368, "is_downbeat": false}, {"time": 1392, "is_downbeat": true}, {"time": 1416, "is_downbeat": true}, {"time": 1440, "is_downbeat": true}, {"time": 1464, "is_downbeat": true}, {"time": 1488, "is_downbeat": true}, {"time": 1512, "is_downbeat": true}], "tracks": [{"program": 0, "is_drum": false, "notes": [{"time": 0, "pitch": 78, "duration": 48, "velocity": 64}, {"time": 48, "pitch": 73, "duration": 12, "velocity": 64}, {"time": 60, "pitch": 73, "duration": 12, "velocity": 64}, {"time": 72, "pitch": 71, "duration": 12, "velocity": 64}, {"time": 84, "pitch": 78, "duration": 6, "velocity": 64}, {"time": 90, "pitch": 76, "duration": 6, "velocity": 64}, {"time": 96, "pitch": 73, "duration": 12, "velocity": 64}, {"time": 108, "pitch": 78, "duration": 6, "velocity": 64}, {"time": 114, "pitch": 76, "duration": 6, "velocity": 64}, {"time": 120, "pitch": 71, "duration": 12, "velocity": 64}, {"time": 132, "pitch": 76, "duration": 12, "velocity": 64}, {"time": 144, "pitch": 78, "duration": 12, "velocity": 64}, {"time": 156, "pitch": 76, "duration": 6, "velocity": 64}, {"time": 162, "pitch": 73, "duration": 6, "velocity": 64}, {"time": 168, "pitch": 78, "duration": 18, "velocity": 64}, {"time": 186, "pitch": 76, "duration": 6, "velocity": 64}, {"time": 192, "pitch": 73, "duration": 12, "velocity": 64}, {"time": 204, "pitch": 73, "duration": 12, "velocity": 64}, {"time": 216, "pitch": 73, "duration": 18, "velocity": 64}, {"time": 234, "pitch": 76, "duration": 6, "velocity": 64}, {"time": 240, "pitch": 78, "duration": 12, "velocity": 64}, {"time": 252, "pitch": 81, "duration": 12, "velocity": 64}, {"time": 264, "pitch": 73, "duration": 12, "velocity": 64}, {"time": 276, "pitch": 71, "duration": 12, "velocity": 64}, {"time": 288, "pitch": 71, "duration": 18, "velocity": 64}, {"time": 306, "pitch": 69, "duration": 6, "velocity": 64}, {"time": 312, "pitch": 66, "duration": 24, "velocity": 64}, {"time": 336, "pitch": 73, "duration": 12, "velocity": 64}, {"time": 348, "pitch": 66, "duration": 6, "velocity": 64}, {"time": 354, "pitch": 69, "duration": 6, "velocity": 64}, {"time": 360, "pitch": 66, "duration": 12, "velocity": 64}, {"time": 372, "pitch": 73, "duration": 12, "velocity": 64}, {"time": 384, "pitch": 69, "duration": 12, "velocity": 64}, {"time": 396, "pitch": 71, "duration": 6, "velocity": 64}, {"time": 402, "pitch": 69, "duration": 6, "velocity": 64}, {"time": 408, "pitch": 66, "duration": 12, "velocity": 64}, {"time": 420, "pitch": 66, "duration": 12, "velocity": 64}, {"time": 432, "pitch": 73, "duration": 12, "velocity": 64}, {"time": 444, "pitch": 73, "duration": 12, "velocity": 64}, {"time": 456, "pitch": 69, "duration": 12, "velocity": 64}, {"time": 468, "pitch": 71, "duration": 12, "velocity": 64}, {"time": 480, "pitch": 71, "duration": 24, "velocity": 64}, {"time": 504, "pitch": 69, "duration": 24, "velocity": 64}, {"time": 528, "pitch": 78, "duration": 48, "velocity": 64}, {"time": 576, "pitch": 73, "duration": 12, "velocity": 64}, {"time": 588, "pitch": 73, "duration": 12, "velocity": 64}, {"time": 600, "pitch": 73, "duration": 12, "velocity": 64}, {"time": 612, "pitch": 76, "duration": 6, "velocity": 64}, {"time": 618, "pitch": 76, "duration": 6, "velocity": 64}, {"time": 624, "pitch": 71, "duration": 12, "velocity": 64}, {"time": 636, "pitch": 78, "duration": 12, "velocity": 64}, {"time": 648, "pitch": 78, "duration": 12, "velocity": 64}, {"time": 660, "pitch": 76, "duration": 6, "velocity": 64}, {"time": 666, "pitch": 73, "duration": 6, "velocity": 64}, {"time": 672, "pitch": 78, "duration": 18, "velocity": 64}, {"time": 690, "pitch": 76, "duration": 6, "velocity": 64}, {"time": 696, "pitch": 73, "duration": 12, "velocity": 64}, {"time": 708, "pitch": 73, "duration": 12, "velocity": 64}, {"time": 720, "pitch": 73, "duration": 18, "velocity": 64}, {"time": 738, "pitch": 76, "duration": 6, "velocity": 64}, {"time": 744, "pitch": 78, "duration": 12, "velocity": 64}, {"time": 756, "pitch": 81, "duration": 12, "velocity": 64}, {"time": 768, "pitch": 73, "duration": 12, "velocity": 64}, {"time": 780, "pitch": 71, "duration": 12, "velocity": 64}, {"time": 792, "pitch": 71, "duration": 18, "velocity": 64}, {"time": 810, "pitch": 69, "duration": 6, "velocity": 64}, {"time": 816, "pitch": 66, "duration": 24, "velocity": 64}, {"time": 840, "pitch": 73, "duration": 12, "velocity": 64}, {"time": 852, "pitch": 66, "duration": 6, "velocity": 64}, {"time": 858, "pitch": 69, "duration": 6, "velocity": 64}, {"time": 864, "pitch": 66, "duration": 12, "velocity": 64}, {"time": 876, "pitch": 73, "duration": 12, "velocity": 64}, {"time": 888, "pitch": 73, "duration": 12, "velocity": 64}, {"time": 900, "pitch": 71, "duration": 12, "velocity": 64}, {"time": 912, "pitch": 73, "duration": 12, "velocity": 64}, {"time": 924, "pitch": 66, "duration": 6, "velocity": 64}, {"time": 930, "pitch": 69, "duration": 6, "velocity": 64}, {"time": 936, "pitch": 73, "duration": 12, "velocity": 64}, {"time": 948, "pitch": 71, "duration": 12, "velocity": 64}, {"time": 960, "pitch": 66, "duration": 12, "velocity": 64}, {"time": 972, "pitch": 73, "duration": 12, "velocity": 64}, {"time": 984, "pitch": 73, "duration": 12, "velocity": 64}, {"time": 996, "pitch": 73, "duration": 12, "velocity": 64}, {"time": 1008, "pitch": 71, "duration": 24, "velocity": 64}, {"time": 1032, "pitch": 69, "duration": 24, "velocity": 64}, {"time": 1056, "pitch": 78, "duration": 48, "velocity": 64}, {"time": 1104, "pitch": 73, "duration": 12, "velocity": 64}, {"time": 1116, "pitch": 73, "duration": 12, "velocity": 64}, {"time": 1128, "pitch": 73, "duration": 12, "velocity": 64}, {"time": 1140, "pitch": 66, "duration": 12, "velocity": 64}, {"time": 1152, "pitch": 73, "duration": 12, "velocity": 64}, {"time": 1164, "pitch": 78, "duration": 12, "velocity": 64}, {"time": 1176, "pitch": 78, "duration": 12, "velocity": 64}, {"time": 1188, "pitch": 76, "duration": 6, "velocity": 64}, {"time": 1194, "pitch": 73, "duration": 6, "velocity": 64}, {"time": 1200, "pitch": 78, "duration": 18, "velocity": 64}, {"time": 1218, "pitch": 76, "duration": 6, "velocity": 64}, {"time": 1224, "pitch": 73, "duration": 12, "velocity": 64}, {"time": 1236, "pitch": 73, "duration": 12, "velocity": 64}, {"time": 1248, "pitch": 73, "duration": 18, "velocity": 64}, {"time": 1266, "pitch": 76, "duration": 6, "velocity": 64}, {"time": 1272, "pitch": 78, "duration": 12, "velocity": 64}, {"time": 1284, "pitch": 81, "duration": 12, "velocity": 64}, {"time": 1296, "pitch": 73, "duration": 12, "velocity": 64}, {"time": 1308, "pitch": 71, "duration": 12, "velocity": 64}, {"time": 1320, "pitch": 71, "duration": 18, "velocity": 64}, {"time": 1338, "pitch": 69, "duration": 6, "velocity": 64}, {"time": 1344, "pitch": 66, "duration": 24, "velocity": 64}, {"time": 1368, "pitch": 73, "duration": 12, "velocity": 64}, {"time": 1380, "pitch": 66, "duration": 6, "velocity": 64}, {"time": 1386, "pitch": 69, "duration": 6, "velocity": 64}, {"time": 1392, "pitch": 66, "duration": 12, "velocity": 64}, {"time": 1404, "pitch": 73, "duration": 12, "velocity": 64}, {"time": 1416, "pitch": 73, "duration": 12, "velocity": 64}, {"time": 1428, "pitch": 71, "duration": 12, "velocity": 64}, {"time": 1440, "pitch": 66, "duration": 12, "velocity": 64}, {"time": 1452, "pitch": 73, "duration": 12, "velocity": 64}, {"time": 1464, "pitch": 73, "duration": 12, "velocity": 64}, {"time": 1476, "pitch": 73, "duration": 12, "velocity": 64}, {"time": 1488, "pitch": 71, "duration": 24, "velocity": 64}, {"time": 1512, "pitch": 69, "duration": 24, "velocity": 64}]}]}