{"metadata": {"schema_version": "0.1", "title": "Muniu ge", "source_format": "abc"}, "resolution": 24, "tempos": [{"time": 0, "qpm": 120.0}], "key_signatures": [{"time": 0, "root": 5, "mode": "major", "fifths": -1}], "time_signatures": [{"time": 0, "numerator": 4, "denominator": 4}], "tracks": [{"program": 0, "is_drum": false, "notes": [{"time": 0, "pitch": 79, "duration": 48, "velocity": 64}, {"time": 48, "pitch": 74, "duration": 12, "velocity": 64}, {"time": 60, "pitch": 72, "duration": 12, "velocity": 64}, {"time": 72, "pitch": 81, "duration": 12, "velocity": 64}, {"time": 84, "pitch": 79, "duration": 12, "velocity": 64}, {"time": 96, "pitch": 77, "duration": 36, "velocity": 64}, {"time": 132, "pitch": 74, "duration": 12, "velocity": 64}, {"time": 156, "pitch": 74, "duration": 12, "velocity": 64}, {"time": 168, "pitch": 77, "duration": 12, "velocity": 64}, {"time": 180, "pitch": 77, "duration": 12, "velocity": 64}, {"time": 192, "pitch": 79, "duration": 12, "velocity": 64}, {"time": 204, "pitch": 77, "duration": 24, "velocity": 64}, {"time": 228, "pitch": 74, "duration": 24, "velocity": 64}, {"time": 252, "pitch": 69, "duration": 12, "velocity": 64}, {"time": 264, "pitch": 72, "duration": 48, "velocity": 64}, {"time": 312, "pitch": 79, "duration": 48, "velocity": 64}, {"time": 360, "pitch": 74, "duration": 12, "velocity": 64}, {"time": 372, "pitch": 72, "duration": 12, "velocity": 64}, {"time": 384, "pitch": 77, "duration": 48, "velocity": 64}, {"time": 432, "pitch": 74, "duration": 12, "velocity": 64}, {"time": 468, "pitch": 74, "duration": 12, "velocity": 64}, {"time": 480, "pitch": 77, "duration": 12, "velocity": 64}, {"time": 492, "pitch": 77, "duration": 12, "velocity": 64}, {"time": 504, "pitch": 79, "duration": 12, "velocity": 64}, {"time": 516, "pitch": 77, "duration": 24, "velocity": 64}, {"time": 540, "pitch": 74, "duration": 24, "velocity": 64}, {"time": 564, "pitch": 69, "duration": 12, "velocity": 64}, {"time": 576, "pitch": 72, "duration": 48, "velocity": 64}, {"time": 624, "pitch": 79, "duration": 12, "velocity": 64}, {"time": 636, "pitch": 81, "duration": 12, "velocity": 64}, {"time": 648, "pitch": 79, "duration": 12, "velocity": 64}, {"time": 660, "pitch": 74, "duration": 36, "velocity": 64}, {"time": 696, "pitch": 77, "duration": 12, "velocity": 64}, {"time": 708, "pitch": 79, "duration": 12, "velocity": 64}, {"time": 720, "pitch": 77, "duration": 12, "velocity": 64}, {"time": 732, "pitch": 74, "duration": 12, "velocity": 64}, {"time": 744, "pitch": 74, "duration": 36, "velocity": 64}, {"time": 780, "pitch": 69, "duration": 12, "velocity": 64}, {"time": 792, "pitch": 72, "duration": 48, "velocity": 64}, {"time": 840, "pitch": 79, "duration": 36, "velocity": 64}, {"time": 876, "pitch": 74, "duration": 6, "velocity": 64}, {"time": 882, "pitch": 72, "duration": 6, "velocity": 64}, {"time": 888, "pitch": 81, "duration": 6, "velocity": 64}, {"time": 894, "pitch": 79, "duration": 6, "velocity": 64}, {"time": 900, "pitch": 77, "duration": 24, "velocity": 64}, {"time": 924, "pitch": 74, "duration": 12, "velocity": 64}, {"time": 948, "pitch": 74, "duration": 12, "velocity": 64}, {"time": 960, "pitch": 77, "duration": 12, "velocity": 64}, {"time": 972, "pitch": 77, "duration": 12, "velocity": 64}, {"time": 984, "pitch": 79, "duration": 12, "velocity": 64}, {"time": 996, "pitch": 77, "duration": 24, "velocity": 64}, {"time": 1020, "pitch": 74, "duration": 12, "velocity": 64}, {"time": 1032, "pitch": 72, "duration": 72, "velocity": 64}, {"time": 1104, "pitch": 79, "duration": 24, "velocity": 64}, {"time": 1128, "pitch": 72, "duration": 12, "velocity": 64}, {"time": 1152, "pitch": 79, "duration": 24, "velocity": 64}, {"time": 1176, "pitch": 72, "duration": 12, "velocity": 64}, {"time": 1200, "pitch": 79, "duration": 12, "velocity": 64}, {"time": 1212, "pitch": 79, "duration": 24, "velocity": 64}, {"time": 1236, "pitch": 74, "duration": 12, "velocity": 64}, {"time": 1248, "pitch": 81, "duration": 12, "velocity": 64}, {"time": 1260, "pitch": 79, "duration": 24, "velocity": 64}, {"time": 1284, "pitch": 74, "duration": 12, "velocity": 64}, {"time": 1296, "pitch": 77, "duration": 24, "velocity": 64}, {"time": 1332, "pitch": 74, "duration": 12, "velocity": 64}, {"time": 1344, "pitch": 77, "duration": 12, "velocity": 64}, {"time": 1356, "pitch": 77, "duration": 12, "velocity": 64}, {"time": 1368, "pitch": 79, "duration": 12, "velocity": 64}, {"time": 1380, "pitch": 77, "duration": 12, "velocity": 64}, {"time": 1404, "pitch": 74, "duration": 24, "velocity": 64}, {"time": 1428, "pitch": 69, "duration": 12, "velocity": 64}, {"time": 1440, "pitch": 72, "duration": 48, "velocity": 64}, {"time": 1488, "pitch": 79, "duration": 12, "velocity": 64}, {"time": 1500, "pitch": 81, "duration": 12, "velocity": 64}, {"time": 1512, "pitch": 79, "duration": 12, "velocity": 64}, {"time": 1524, "pitch": 81, "duration": 12, "velocity": 64}, {"time": 1536, "pitch": 81, "duration": 12, "velocity": 64}, {"time": 1548, "pitch": 79, "duration": 12, "velocity": 64}, {"time": 1572, "pitch": 74, "duration": 12, "velocity": 64}, {"time": 1584, "pitch": 79, "duration": 12, "velocity": 64}, {"time": 1596, "pitch": 74, "duration": 12, "velocity": 64}, {"time": 1608, "pitch": 77, "duration": 12, "velocity": 64}, {"time": 1620, "pitch": 77, "duration": 12, "velocity": 64}, {"time": 1632, "pitch": 79, "duration": 12, "velocity": 64}, {"time": 1644, "pitch": 77, "duration": 12, "velocity": 64}, {"time": 1668, "pitch": 74, "duration": 12, "velocity": 64}, {"time": 1680, "pitch": 69, "duration": 12, "velocity": 64}, {"time": 1692, "pitch": 72, "duration": 12, "velocity": 64}, {"time": 1716, "pitch": 74, "duration": 12, "velocity": 64}, {"time": 1728, "pitch": 77, "duration": 12, "velocity": 64}, {"time": 1740, "pitch": 77, "duration": 12, "velocity": 64}, {"time": 1752, "pitch": 79, "duration": 12, "velocity": 64}, {"time": 1764, "pitch": 77, "duration": 24, "velocity": 64}, {"time": 1788, "pitch": 74, "duration": 24, "velocity": 64}, {"time": 1812, "pitch": 69, "duration": 12, "velocity": 64}, {"time": 1824, "pitch": 72, "duration": 48, "velocity": 64}, {"time": 1872, "pitch": 79, "duration": 24, "velocity": 64}, {"time": 1896, "pitch": 72, "duration": 12, "velocity": 64}, {"time": 1920, "pitch": 79, "duration": 24, "velocity": 64}, {"time": 1944, "pitch": 72, "duration": 12, "velocity": 64}, {"time": 1968, "pitch": 79, "duration": 24, "velocity": 64}, {"time": 1992, "pitch": 72, "duration": 12, "velocity": 64}]}]}