{"metadata": {"schema_version": "0.1", "title": "Suo ge", "source_format": "abc"}, "resolution": 24, "tempos": [{"time": 0, "qpm": 120.0}], "key_signatures": [{"time": 0, "root": 7, "mode": "major", "fifths": 1}], "time_signatures": [{"time": 0, "numerator": 5, "denominator": 8}], "beats": [{"time": 0, "is_downbeat": true}, {"time": 12, "is_downbeat": false}, {"time": 24, "is_downbeat": false}, {"time": 36, "is_downbeat": false}, {"time": 48, "is_downbeat": false}, {"time": 60, "is_downbeat": true}, {"time": 72, "is_downbeat": false}, {"time": 84, "is_downbeat": false}, {"time": 96, "is_downbeat": false}, {"time": 108, "is_downbeat": false}, {"time": 120, "is_downbeat": true}, {"time": 132, "is_downbeat": false}, {"time": 144, "is_downbeat": false}, {"time": 156, "is_downbeat": false}, {"time": 168, "is_downbeat": false}, {"time": 180, "is_downbeat": true}, {"time": 192, "is_downbeat": false}, {"time": 204, "is_downbeat": false}, {"time": 216, "is_downbeat": false}, {"time": 228, "is_downbeat": false}, {"time": 240, "is_downbeat": true}, {"time": 252, "is_downbeat": false}, {"time": 264, "is_downbeat": false}, {"time": 276, "is_downbeat": false}, {"time": 288, "is_downbeat": false}, {"time": 300, "is_downbeat": true}, {"time": 312, "is_downbeat": false}, {"time": 324, "is_downbeat": false}, {"time": 336, "is_downbeat": false}, {"time": 348, "is_downbeat": false}, {"time": 360, "is_downbeat": true}, {"time": 372, "is_downbeat": false}, {"time": 384, "is_downbeat": false}, {"time": 396, "is_downbeat": false}, {"time": 408, "is_downbeat": false}, {"time": 420, "is_downbeat": true}, {"time": 432, "is_downbeat": false}, {"time": 444, "is_downbeat": false}, {"time": 456, "is_downbeat": false}, {"time": 468, "is_downbeat": false}, {"time": 480, "is_downbeat": true}, {"time": 492, "is_downbeat": false}, {"time": 504, "is_downbeat": false}, {"time": 516, "is_downbeat": false}, {"time": 528, "is_downbeat": false}, {"time": 540, "is_downbeat": true}, {"time": 552, "is_downbeat": false}, {"time": 564, "is_downbeat": false}, {"time": 576, "is_downbeat": false}, {"time": 588, "is_downbeat": true}, {"time": 600, "is_downbeat": false}, {"time": 612, "is_downbeat": false}, {"time": 624, "is_downbeat": false}, {"time": 636, "is_downbeat": false}, {"time": 648, "is_downbeat": true}, {"time": 660, "is_downbeat": false}, {"time": 672, "is_downbeat": false}, {"time": 684, "is_downbeat": false}, {"time": 696, "is_downbeat": false}, {"time": 708, "is_downbeat": true}, {"time": 720, "is_downbeat": false}, {"time": 732, "is_downbeat": false}, {"time": 744, "is_downbeat": false}, {"time": 756, "is_downbeat": false}, {"time": 768, "is_downbeat": true}, {"time": 780, "is_downbeat": false}, {"time": 792, "is_downbeat": false}, {"time": 804, "is_downbeat": false}, {"time": 816, "is_downbeat": false}, {"time": 828, "is_downbeat": true}, {"time": 840, "is_downbeat": false}, {"time": 852, "is_downbeat": false}, {"time": 864, "is_downbeat": false}, {"time": 876, "is_downbeat": false}, {"time": 888, "is_downbeat": true}, {"time": 900, "is_downbeat": false}, {"time": 912, "is_downbeat": false}, {"time": 924, "is_downbeat": false}, {"time": 936, "is_downbeat": false}], "tracks": [{"program": 0, "is_drum": false, "notes": [{"time": 0, "pitch": 74, "duration": 12, "velocity": 64}, {"time": 12, "pitch": 74, "duration": 6, "velocity": 64}, {"time": 18, "pitch": 74, "duration": 6, "velocity": 64}, {"time": 24, "pitch": 74, "duration": 12, "velocity": 64}, {"time": 36, "pitch": 79, "duration": 24, "velocity": 64}, {"time": 60, "pitch": 79, "duration": 12, "velocity": 64}, {"time": 72, "pitch": 76, "duration": 6, "velocity": 64}, {"time": 78, "pitch": 74, "duration": 6, "velocity": 64}, {"time": 84, "pitch": 74, "duration": 12, "velocity": 64}, {"time": 96, "pitch": 76, "duration": 24, "velocity": 64}, {"time": 120, "pitch": 79, "duration": 6, "velocity": 64}, {"time": 126, "pitch": 76, "duration": 6, "velocity": 64}, {"time": 132, "pitch": 76, "duration": 6, "velocity": 64}, {"time": 138, "pitch": 79, "duration": 6, "velocity": 64}, {"time": 144, "pitch": 76, "duration": 12, "velocity": 64}, {"time": 156, "pitch": 74, "duration": 24, "velocity": 64}, {"time": 180, "pitch": 76, "duration": 6, "velocity": 64}, {"time": 186, "pitch": 74, "duration": 6, "velocity": 64}, {"time": 192, "pitch": 76, "duration": 12, "velocity": 64}, {"time": 204, "pitch": 74, "duration": 12, "velocity": 64}, {"time": 216, "pitch": 74, "duration": 12, "velocity": 64}, {"time": 240, "pitch": 74, "duration": 6, "velocity": 64}, {"time": 246, "pitch": 74, "duration": 6, "velocity": 64}, {"time": 252, "pitch": 74, "duration": 6, "velocity": 64}, {"time": 258, "pitch": 76, "duration": 6, "velocity": 64}, {"time": 264, "pitch": 74, "duration": 12, "velocity": 64}, {"time": 276, "pitch": 79, "duration": 24, "velocity": 64}, {"time": 300, "pitch": 79, "duration": 12, "velocity": 64}, {"time": 312, "pitch": 76, "duration": 6, "velocity": 64}, {"time": 318, "pitch": 74, "duration": 6, "velocity": 64}, {"time": 324, "pitch": 79, "duration": 12, "velocity": 64}, {"time": 336, "pitch": 76, "duration": 24, "velocity": 64}, {"time": 360, "pitch": 79, "duration": 6, "velocity": 64}, {"time": 366, "pitch": 79, "duration": 6, "velocity": 64}, {"time": 372, "pitch": 76, "duration": 6, "velocity": 64}, {"time": 378, "pitch": 79, "duration": 6, "velocity": 64}, {"time": 384, "pitch": 76, "duration": 12, "velocity": 64}, {"time": 396, "pitch": 74, "duration": 24, "velocity": 64}, {"time": 420, "pitch": 76, "duration": 6, "velocity": 64}, {"time": 426, "pitch": 74, "duration": 6, "velocity": 64}, {"time": 432, "pitch": 76, "duration": 12, "velocity": 64}, {"time": 444, "pitch": 74, "duration": 12, "velocity": 64}, {"time": 456, "pitch": 74, "duration": 12, "velocity": 64}, {"time": 480, "pitch": 76, "duration": 12, "velocity": 64}, {"time": 492, "pitch": 81, "duration": 12, "velocity": 64}, {"time": 504, "pitch": 81, "duration": 12, "velocity": 64}, {"time": 516, "pitch": 81, "duration": 12, "velocity": 64}, {"time": 528, "pitch": 81, "duration": 12, "velocity": 64}, {"time": 540, "pitch": 76, "duration": 12, "velocity": 64}, {"time": 552, "pitch": 81, "duration": 12, "velocity": 64}, {"time": 564, "pitch": 79, "duration": 12, "velocity": 64}, {"time": 576, "pitch": 79, "duration": 12, "velocity": 64}, {"time": 588, "pitch": 79, "duration": 6, "velocity": 64}, {"time": 594, "pitch": 76, "duration": 6, "velocity": 64}, {"time": 600, "pitch": 74, "duration": 6, "velocity": 64}, {"time": 606, "pitch": 76, "duration": 6, "velocity": 64}, {"time": 612, "pitch": 74, "duration": 12, "velocity": 64}, {"time": 624, "pitch": 74, "duration": 12, "velocity": 64}, {"time": 636, "pitch": 74, "duration": 12, "velocity": 64}, {"time": 648, "pitch": 79, "duration": 24, "velocity": 64}, {"time": 672, "pitch": 76, "duration": 18, "velocity": 64}, {"time": 690, "pitch": 74, "duration": 6, "velocity": 64}, {"time": 696, "pitch": 74, "duration": 12, "velocity": 64}, {"time": 708, "pitch": 74, "duration": 12, "velocity": 64}, {"time": 720, "pitch": 79, "duration": 12, "velocity": 64}, {"time": 732, "pitch": 79, "duration": 12, "velocity": 64}, {"time": 744, "pitch": 79, "duration": 12, "velocity": 64}, {"time": 756, "pitch": 79, "duration": 12, "velocity": 64}, {"time": 768, "pitch": 79, "duration": 12, "velocity": 64}, {"time": 780, "pitch": 76, "duration": 6, "velocity": 64}, {"time": 786, "pitch": 74, "duration": 6, "velocity": 64}, {"time": 792, "pitch": 74, "duration": 12, "velocity": 64}, {"time": 804, "pitch": 76, "duration": 24, "velocity": 64}, {"time": 828, "pitch": 79, "duration": 6, "velocity": 64}, {"time": 834, "pitch": 76, "duration": 6, "velocity": 64}, {"time": 840, "pitch": 74, "duration": 6, "velocity": 64}, {"time": 846, "pitch": 76, "duration": 6, "velocity": 64}, {"time": 852, "pitch": 74, "duration": 12, "velocity": 64}, {"time": 864, "pitch": 74, "duration": 12, "velocity": 64}, {"time": 876, "pitch": 74, "duration": 12, "velocity": 64}, {"time": 888, "pitch": 79, "duration": 12, "velocity": 64}, {"time": 900, "pitch": 76, "duration": 18, "velocity": 64}, {"time": 918, "pitch": 74, "duration": 6, "velocity": 64}, {"time": 924, "pitch": 74, "duration": 24, "velocity": 64}]}]}