{"metadata": {"schema_version": "0.1", "title": "Zhuai dasheng hao", "source_format": "abc"}, "resolution": 24, "tempos": [{"time": 0, "qpm": 120.0}], "key_signatures": [{"time": 0, "root": 7, "mode": "major", "fifths": 1}], "time_signatures": [{"time": 0, "numerator": 4, "denominator": 4}, {"time": 96, "numerator": 1, "denominator": 16}, {"time": 1254, "numerator": 1, "denominator": 4}, {"time": 1374, "numerator": 1, "denominator": 4}, {"time": 1494, "numerator": 1, "denominator": 4}, {"time": 1614, "numerator": 1, "denominator": 4}, {"time": 1734, "numerator": 1, "denominator": 4}, {"time": 1854, "numerator": 1, "denominator": 4}, {"time": 1974, "numerator": 1, "denominator": 4}, {"time": 2190, "numerator": 1, "denominator": 4}, {"time": 2214, "numerator": 4, "denominator": 4}], "beats": [{"time": 0, "is_downbeat": true}, {"time": 6, "is_downbeat": true}, {"time": 12, "is_downbeat": true}, {"time": 18, "is_downbeat": true}, {"time": 24, "is_downbeat": true}, {"time": 30, "is_downbeat": true}, {"time": 36, "is_downbeat": true}, {"time": 42, "is_downbeat": true}, {"time": 48, "is_downbeat": true}, {"time": 54, "is_downbeat": true}, {"time": 60, "is_downbeat": true}, {"time": 66, "is_downbeat": true}, {"time": 72, "is_downbeat": true}, {"time": 78, "is_downbeat": true}, {"time": 84, "is_downbeat": true}, {"time": 90, "is_downbeat": true}, {"time": 96, "is_downbeat": true}, {"time": 102, "is_downbeat": true}, {"time": 126, "is_downbeat": true}, {"time": 150, "is_downbeat": true}, {"time": 174, "is_downbeat": true}, {"time": 198, "is_downbeat": true}, {"time": 222, "is_downbeat": true}, {"time": 246, "is_downbeat": true}, {"time": 270, "is_downbeat": true}, {"time": 294, "is_downbeat": true}, {"time": 318, "is_downbeat": true}, {"time": 342, "is_downbeat": true}, {"time": 366, "is_downbeat": true}, {"time": 390, "is_downbeat": true}, {"time": 414, "is_downbeat": true}, {"time": 438, "is_downbeat": true}, {"time": 462, "is_downbeat": true}, {"time": 486, "is_downbeat": true}, {"time": 510, "is_downbeat": true}, {"time": 534, "is_downbeat": true}, {"time": 558, "is_downbeat": true}, {"time": 582, "is_downbeat": true}, {"time": 606, "is_downbeat": true}, {"time": 630, "is_downbeat": true}, {"time": 654, "is_downbeat": true}, {"time": 678, "is_downbeat": true}, {"time": 702, "is_downbeat": true}, {"time": 726, "is_downbeat": true}, {"time": 750, "is_downbeat": true}, {"time": 774, "is_downbeat": true}, {"time": 798, "is_downbeat": true}, {"time": 822, "is_downbeat": true}, {"time": 846, "is_downbeat": true}, {"time": 870, "is_downbeat": true}, {"time": 894, "is_downbeat": true}, {"time": 918, "is_downbeat": true}, {"time": 942, "is_downbeat": true}, {"time": 966, "is_downbeat": true}, {"time": 990, "is_downbeat": true}, {"time": 1014, "is_downbeat": true}, {"time": 1038, "is_downbeat": true}, {"time": 1062, "is_downbeat": true}, {"time": 1086, "is_downbeat": true}, {"time": 1110, "is_downbeat": true}, {"time": 1134, "is_downbeat": true}, {"time": 1158, "is_downbeat": true}, {"time": 1182, "is_downbeat": true}, {"time": 1206, "is_downbeat": true}, {"time": 1230, "is_downbeat": true}, {"time": 1254, "is_downbeat": true}, {"time": 1278, "is_downbeat": true}, {"time": 1302, "is_downbeat": true}, {"time": 1326, "is_downbeat": true}, {"time": 1350, "is_downbeat": true}, {"time": 1374, "is_downbeat": true}, {"time": 1398, "is_downbeat": true}, {"time": 1422, "is_downbeat": true}, {"time": 1446, "is_downbeat": true}, {"time": 1470, "is_downbeat": true}, {"time": 1494, "is_downbeat": true}, {"time": 1518, "is_downbeat": true}, {"time": 1542, "is_downbeat": true}, {"time": 1566, "is_downbeat": true}, {"time": 1590, "is_downbeat": true}, {"time": 1614, "is_downbeat": true}, {"time": 1638, "is_downbeat": true}, {"time": 1662, "is_downbeat": true}, {"time": 1686, "is_downbeat": true}, {"time": 1710, "is_downbeat": true}, {"time": 1734, "is_downbeat": true}, {"time": 1758, "is_downbeat": true}, {"time": 1782, "is_downbeat": true}, {"time": 1806, "is_downbeat": true}, {"time": 1830, "is_downbeat": true}, {"time": 1854, "is_downbeat": true}, {"time": 1878, "is_downbeat": true}, {"time": 1902, "is_downbeat": true}, {"time": 1926, "is_downbeat": true}, {"time": 1950, "is_downbeat": true}, {"time": 1974, "is_downbeat": true}, {"time": 1998, "is_downbeat": true}, {"time": 2022, "is_downbeat": true}, {"time": 2046, "is_downbeat": true}, {"time": 2070, "is_downbeat": true}, {"time": 2094, "is_downbeat": true}, {"time": 2118, "is_downbeat": true}, {"time": 2142, "is_downbeat": true}, {"time": 2166, "is_downbeat": true}, {"time": 2190, "is_downbeat": true}, {"time": 2214, "is_downbeat": true}, {"time": 2238, "is_downbeat": false}, {"time": 2262, "is_downbeat": false}, {"time": 2286, "is_downbeat": false}, {"time": 2310, "is_downbeat": true}, {"time": 2334, "is_downbeat": false}, {"time": 2358, "is_downbeat": false}, {"time": 2382, "is_downbeat": false}, {"time": 2406, "is_downbeat": true}, {"time": 2430, "is_downbeat": false}, {"time": 2454, "is_downbeat": false}, {"time": 2478, "is_downbeat": false}, {"time": 2502, "is_downbeat": true}, {"time": 2526, "is_downbeat": false}, {"time": 2550, "is_downbeat": false}, {"time": 2574, "is_downbeat": false}, {"time": 2598, "is_downbeat": true}, {"time": 2622, "is_downbeat": false}, {"time": 2646, "is_downbeat": false}, {"time": 2670, "is_downbeat": false}, {"time": 2694, "is_downbeat": true}, {"time": 2718, "is_downbeat": false}, {"time": 2742, "is_downbeat": false}, {"time": 2766, "is_downbeat": false}, {"time": 2790, "is_downbeat": true}, {"time": 2814, "is_downbeat": false}, {"time": 2838, "is_downbeat": false}, {"time": 2862, "is_downbeat": false}], "tracks": [{"program": 0, "is_drum": false, "notes": [{"time": 0, "pitch": 67, "duration": 36, "velocity": 64}, {"time": 36, "pitch": 64, "duration": 12, "velocity": 64}, {"time": 48, "pitch": 74, "duration": 4, "velocity": 64}, {"time": 52, "pitch": 71, "duration": 4, "velocity": 64}, {"time": 56, "pitch": 74, "duration": 4, "velocity": 64}, {"time": 60, "pitch": 71, "duration": 6, "velocity": 64}, {"time": 66, "pitch": 74, "duration": 6, "velocity": 64}, {"time": 72, "pitch": 71, "duration": 18, "velocity": 64}, {"time": 102, "pitch": 76, "duration": 12, "velocity": 64}, {"time": 114, "pitch": 74, "duration": 18, "velocity": 64}, {"time": 132, "pitch": 71, "duration": 6, "velocity": 64}, {"time": 138, "pitch": 69, "duration": 6, "velocity": 64}, {"time": 144, "pitch": 67, "duration": 6, "velocity": 64}, {"time": 150, "pitch": 67, "duration": 12, "velocity": 64}, {"time": 162, "pitch": 69, "duration": 6, "velocity": 64}, {"time": 168, "pitch": 64, "duration": 6, "velocity": 64}, {"time": 174, "pitch": 67, "duration": 12, "velocity": 64}, {"time": 198, "pitch": 74, "duration": 12, "velocity": 64}, {"time": 210, "pitch": 71, "duration": 12, "velocity": 64}, {"time": 222, "pitch": 76, "duration": 12, "velocity": 64}, {"time": 234, "pitch": 74, "duration": 12, "velocity": 64}, {"time": 246, "pitch": 71, "duration": 12, "velocity": 64}, {"time": 258, "pitch": 69, "duration": 12, "velocity": 64}, {"time": 270, "pitch": 67, "duration": 24, "velocity": 64}, {"time": 294, "pitch": 71, "duration": 12, "velocity": 64}, {"time": 306, "pitch": 71, "duration": 12, "velocity": 64}, {"time": 318, "pitch": 66, "duration": 12, "velocity": 64}, {"time": 330, "pitch": 69, "duration": 12, "velocity": 64}, {"time": 342, "pitch": 71, "duration": 12, "velocity": 64}, {"time": 354, "pitch": 71, "duration": 12, "velocity": 64}, {"time": 366, "pitch": 69, "duration": 12, "velocity": 64}, {"time": 390, "pitch": 69, "duration": 24, "velocity": 64}, {"time": 414, "pitch": 71, "duration": 12, "velocity": 64}, {"time": 426, "pitch": 69, "duration": 12, "velocity": 64}, {"time": 438, "pitch": 74, "duration": 12, "velocity": 64}, {"time": 450, "pitch": 71, "duration": 12, "velocity": 64}, {"time": 462, "pitch": 69, "duration": 24, "velocity": 64}, {"time": 486, "pitch": 71, "duration": 12, "velocity": 64}, {"time": 498, "pitch": 74, "duration": 12, "velocity": 64}, {"time": 510, "pitch": 69, "duration": 12, "velocity": 64}, {"time": 522, "pitch": 67, "duration": 12, "velocity": 64}, {"time": 534, "pitch": 67, "duration": 12, "velocity": 64}, {"time": 546, "pitch": 69, "duration": 6, "velocity": 64}, {"time": 552, "pitch": 64, "duration": 6, "velocity": 64}, {"time": 558, "pitch": 67, "duration": 12, "velocity": 64}, {"time": 582, "pitch": 74, "duration": 12, "velocity": 64}, {"time": 594, "pitch": 71, "duration": 12, "velocity": 64}, {"time": 606, "pitch": 74, "duration": 12, "velocity": 64}, {"time": 618, "pitch": 76, "duration": 12, "velocity": 64}, {"time": 630, "pitch": 71, "duration": 12, "velocity": 64}, {"time": 642, "pitch": 69, "duration": 12, "velocity": 64}, {"time": 654, "pitch": 67, "duration": 24, "velocity": 64}, {"time": 678, "pitch": 71, "duration": 12, "velocity": 64}, {"time": 690, "pitch": 71, "duration": 12, "velocity": 64}, {"time": 702, "pitch": 66, "duration": 12, "velocity": 64}, {"time": 714, "pitch": 69, "duration": 12, "velocity": 64}, {"time": 726, "pitch": 73, "duration": 12, "velocity": 64}, {"time": 738, "pitch": 71, "duration": 12, "velocity": 64}, {"time": 750, "pitch": 69, "duration": 12, "velocity": 64}, {"time": 774, "pitch": 69, "duration": 24, "velocity": 64}, {"time": 798, "pitch": 71, "duration": 12, "velocity": 64}, {"time": 810, "pitch": 69, "duration": 12, "velocity": 64}, {"time": 822, "pitch": 73, "duration": 12, "velocity": 64}, {"time": 834, "pitch": 71, "duration": 12, "velocity": 64}, {"time": 846, "pitch": 69, "duration": 24, "velocity": 64}, {"time": 870, "pitch": 71, "duration": 12, "velocity": 64}, {"time": 882, "pitch": 74, "duration": 12, "velocity": 64}, {"time": 894, "pitch": 69, "duration": 12, "velocity": 64}, {"time": 906, "pitch": 67, "duration": 6, "velocity": 64}, {"time": 912, "pitch": 67, "duration": 6, "velocity": 64}, {"time": 918, "pitch": 71, "duration": 12, "velocity": 64}, {"time": 930, "pitch": 69, "duration": 12, "velocity": 64}, {"time": 942, "pitch": 67, "duration": 12, "velocity": 64}, {"time": 966, "pitch": 74, "duration": 12, "velocity": 64}, {"time": 978, "pitch": 71, "duration": 12, "velocity": 64}, {"time": 990, "pitch": 76, "duration": 12, "velocity": 64}, {"time": 1002, "pitch": 74, "duration": 12, "velocity": 64}, {"time": 1014, "pitch": 71, "duration": 12, "velocity": 64}, {"time": 1026, "pitch": 69, "duration": 12, "velocity": 64}, {"time": 1038, "pitch": 67, "duration": 24, "velocity": 64}, {"time": 1062, "pitch": 71, "duration": 12, "velocity": 64}, {"time": 1074, "pitch": 71, "duration": 12, "velocity": 64}, {"time": 1086, "pitch": 71, "duration": 6, "velocity": 64}, {"time": 1092, "pitch": 73, "duration": 6, "velocity": 64}, {"time": 1098, "pitch": 71, "duration": 12, "velocity": 64}, {"time": 1110, "pitch": 71, "duration": 36, "velocity": 64}, {"time": 1158, "pitch": 69, "duration": 24, "velocity": 64}, {"time": 1182, "pitch": 71, "duration": 12, "velocity": 64}, {"time": 1194, "pitch": 69, "duration": 12, "velocity": 64}, {"time": 1206, "pitch": 71, "duration": 12, "velocity": 64}, {"time": 1218, "pitch": 67, "duration": 12, "velocity": 64}, {"time": 1230, "pitch": 67, "duration": 12, "velocity": 64}, {"time": 1242, "pitch": 64, "duration": 12, "velocity": 64}, {"time": 1254, "pitch": 67, "duration": 12, "velocity": 64}, {"time": 1278, "pitch": 74, "duration": 12, "velocity": 64}, {"time": 1290, "pitch": 71, "duration": 12, "velocity": 64}, {"time": 1302, "pitch": 69, "duration": 12, "velocity": 64}, {"time": 1314, "pitch": 67, "duration": 12, "velocity": 64}, {"time": 1326, "pitch": 66, "duration": 12, "velocity": 64}, {"time": 1338, "pitch": 66, "duration": 6, "velocity": 64}, {"time": 1344, "pitch": 66, "duration": 6, "velocity": 64}, {"time": 1350, "pitch": 71, "duration": 12, "velocity": 64}, {"time": 1362, "pitch": 71, "duration": 12, "velocity": 64}, {"time": 1374, "pitch": 69, "duration": 12, "velocity": 64}, {"time": 1398, "pitch": 69, "duration": 24, "velocity": 64}, {"time": 1422, "pitch": 71, "duration": 12, "velocity": 64}, {"time": 1434, "pitch": 69, "duration": 12, "velocity": 64}, {"time": 1446, "pitch": 71, "duration": 12, "velocity": 64}, {"time": 1458, "pitch": 71, "duration": 6, "velocity": 64}, {"time": 1464, "pitch": 74, "duration": 6, "velocity": 64}, {"time": 1470, "pitch": 71, "duration": 12, "velocity": 64}, {"time": 1482, "pitch": 69, "duration": 12, "velocity": 64}, {"time": 1494, "pitch": 67, "duration": 12, "velocity": 64}, {"time": 1518, "pitch": 74, "duration": 12, "velocity": 64}, {"time": 1530, "pitch": 71, "duration": 12, "velocity": 64}, {"time": 1542, "pitch": 69, "duration": 12, "velocity": 64}, {"time": 1554, "pitch": 67, "duration": 12, "velocity": 64}, {"time": 1566, "pitch": 69, "duration": 12, "velocity": 64}, {"time": 1578, "pitch": 69, "duration": 6, "velocity": 64}, {"time": 1584, "pitch": 67, "duration": 6, "velocity": 64}, {"time": 1590, "pitch": 64, "duration": 12, "velocity": 64}, {"time": 1602, "pitch": 67, "duration": 12, "velocity": 64}, {"time": 1614, "pitch": 69, "duration": 12, "velocity": 64}, {"time": 1638, "pitch": 69, "duration": 24, "velocity": 64}, {"time": 1662, "pitch": 71, "duration": 12, "velocity": 64}, {"time": 1674, "pitch": 74, "duration": 12, "velocity": 64}, {"time": 1686, "pitch": 69, "duration": 12, "velocity": 64}, {"time": 1698, "pitch": 67, "duration": 12, "velocity": 64}, {"time": 1710, "pitch": 71, "duration": 12, "velocity": 64}, {"time": 1722, "pitch": 69, "duration": 6, "velocity": 64}, {"time": 1728, "pitch": 67, "duration": 6, "velocity": 64}, {"time": 1734, "pitch": 67, "duration": 12, "velocity": 64}, {"time": 1758, "pitch": 74, "duration": 12, "velocity": 64}, {"time": 1770, "pitch": 71, "duration": 12, "velocity": 64}, {"time": 1782, "pitch": 69, "duration": 12, "velocity": 64}, {"time": 1794, "pitch": 67, "duration": 12, "velocity": 64}, {"time": 1806, "pitch": 64, "duration": 12, "velocity": 64}, {"time": 1818, "pitch": 67, "duration": 6, "velocity": 64}, {"time": 1824, "pitch": 67, "duration": 6, "velocity": 64}, {"time": 1830, "pitch": 71, "duration": 12, "velocity": 64}, {"time": 1842, "pitch": 74, "duration": 12, "velocity": 64}, {"time": 1854, "pitch": 69, "duration": 12, "velocity": 64}, {"time": 1878, "pitch": 69, "duration": 24, "velocity": 64}, {"time": 1902, "pitch": 71, "duration": 12, "velocity": 64}, {"time": 1914, "pitch": 69, "duration": 12, "velocity": 64}, {"time": 1926, "pitch": 69, "duration": 12, "velocity": 64}, {"time": 1938, "pitch": 67, "duration": 12, "velocity": 64}, {"time": 1950, "pitch": 71, "duration": 12, "velocity": 64}, {"time": 1962, "pitch": 69, "duration": 12, "velocity": 64}, {"time": 1974, "pitch": 67, "duration": 12, "velocity": 64}, {"time": 1998, "pitch": 74, "duration": 12, "velocity": 64}, {"time": 2010, "pitch": 71, "duration": 12, "velocity": 64}, {"time": 2022, "pitch": 69, "duration": 12, "velocity": 64}, {"time": 2034, "pitch": 67, "duration": 12, "velocity": 64}, {"time": 2046, "pitch": 67, "duration": 48, "velocity": 64}, {"time": 2094, "pitch": 71, "duration": 36, "velocity": 64}, {"time": 2130, "pitch": 71, "duration": 6, "velocity": 64}, {"time": 2136, "pitch": 71, "duration": 6, "velocity": 64}, {"time": 2142, "pitch": 71, "duration": 12, "velocity": 64}, {"time": 2154, "pitch": 69, "duration": 6, "velocity": 64}, {"time": 2160, "pitch": 69, "duration": 6, "velocity": 64}, {"time": 2166, "pitch": 69, "duration": 12, "velocity": 64}, {"time": 2178, "pitch": 71, "duration": 12, "velocity": 64}, {"time": 2190, "pitch": 69, "duration": 12, "velocity": 64}, {"time": 2214, "pitch": 69, "duration": 24, "velocity": 64}, {"time": 2238, "pitch": 71, "duration": 12, "velocity": 64}, {"time": 2250, "pitch": 69, "duration": 12, "velocity": 64}, {"time": 2262, "pitch": 73, "duration": 12, "velocity": 64}, {"time": 2274, "pitch": 71, "duration": 12, "velocity": 64}, {"time": 2286, "pitch": 69, "duration": 24, "velocity": 64}, {"time": 2310, "pitch": 71, "duration": 12, "velocity": 64}, {"time": 2322, "pitch": 74, "duration": 12, "velocity": 64}, {"time": 2334, "pitch": 69, "duration": 12, "velocity": 64}, {"time": 2346, "pitch": 67, "duration": 6, "velocity": 64}, {"time": 2352, "pitch": 67, "duration": 6, "velocity": 64}, {"time": 2358, "pitch": 71, "duration": 12, "velocity": 64}, {"time": 2370, "pitch": 69, "duration": 12, "velocity": 64}, {"time": 2382, "pitch": 67, "duration": 12, "velocity": 64}, {"time": 2406, "pitch": 74, "duration": 12, "velocity": 64}, {"time": 2418, "pitch": 71, "duration": 12, "velocity": 64}, {"time": 2430, "pitch": 74, "duration": 12, "velocity": 64}, {"time": 2442, "pitch": 76, "duration": 12, "velocity": 64}, {"time": 2454, "pitch": 71, "duration": 12, "velocity": 64}, {"time": 2466, "pitch": 69, "duration": 12, "velocity": 64}, {"time": 2478, "pitch": 67, "duration": 24, "velocity": 64}, {"time": 2502, "pitch": 71, "duration": 12, "velocity": 64}, {"time": 2514, "pitch": 74, "duration": 12, "velocity": 64}, {"time": 2526, "pitch": 64, "duration": 12, "velocity": 64}, {"time": 2538, "pitch": 67, "duration": 12, "velocity": 64}, {"time": 2550, "pitch": 71, "duration": 12, "velocity": 64}, {"time": 2562, "pitch": 71, "duration": 12, "velocity": 64}, {"time": 2574, "pitch": 69, "duration": 12, "velocity": 64}, {"time": 2598, "pitch": 69, "duration": 24, "velocity": 64}, {"time": 2622, "pitch": 71, "duration": 12, "velocity": 64}, {"time": 2634, "pitch": 69, "duration": 12, "velocity": 64}, {"time": 2646, "pitch": 74, "duration": 12, "velocity": 64}, {"time": 2658, "pitch": 71, "duration": 12, "velocity": 64}, {"time": 2670, "pitch": 69, "duration": 24, "velocity": 64}, {"time": 2706, "pitch": 74, "duration": 6, "velocity": 64}, {"time": 2712, "pitch": 74, "duration": 6, "velocity": 64}, {"time": 2718, "pitch": 69, "duration": 12, "velocity": 64}, {"time": 2730, "pitch": 67, "duration": 6, "velocity": 64}, {"time": 2736, "pitch": 67, "duration": 6, "velocity": 64}, {"time": 2742, "pitch": 62, "duration": 12, "velocity": 64}, {"time": 2754, "pitch": 64, "duration": 12, "velocity": 64}, {"time": 2766, "pitch": 67, "duration": 24, "velocity": 64}, {"time": 2790, "pitch": 74, "duration": 12, "velocity": 64}, {"time": 2802, "pitch": 71, "duration": 12, "velocity": 64}, {"time": 2814, "pitch": 76, "duration": 12, "velocity": 64}, {"time": 2826, "pitch": 74, "duration": 12, "velocity": 64}, {"time": 2838, "pitch": 71, "duration": 12, "velocity": 64}, {"time": 2850, "pitch": 69, "duration": 12, "velocity": 64}, {"time": 2862, "pitch": 67, "duration": 24, "velocity": 64}]}]}