{"metadata": {"schema_version": "0.1", "title": "Fan luosuo wugeng", "source_format": "abc"}, "resolution": 24, "tempos": [{"time": 0, "qpm": 120.0}], "key_signatures": [{"time": 0, "root": 2, "mode": "major", "fifths": 2}], "time_signatures": [{"time": 0, "numerator": 4, "denominator": 4}], "beats": [{"time": 0, "is_downbeat": true}, {"time": 24, "is_downbeat": false}, {"time": 48, "is_downbeat": false}, {"time": 72, "is_downbeat": false}, {"time": 96, "is_downbeat": true}, {"time": 120, "is_downbeat": false}, {"time": 144, "is_downbeat": false}, {"time": 168, "is_downbeat": false}, {"time": 192, "is_downbeat": true}, {"time": 216, "is_downbeat": false}, {"time": 240, "is_downbeat": false}, {"time": 264, "is_downbeat": false}, {"time": 288, "is_downbeat": true}, {"time": 312, "is_downbeat": false}, {"time": 336, "is_downbeat": false}, {"time": 360, "is_downbeat": false}, {"time": 384, "is_downbeat": true}, {"time": 408, "is_downbeat": false}, {"time": 432, "is_downbeat": false}, {"time": 456, "is_downbeat": false}, {"time": 480, "is_downbeat": true}, {"time": 504, "is_downbeat": false}, {"time": 528, "is_downbeat": false}, {"time": 552, "is_downbeat": false}, {"time": 576, "is_downbeat": true}, {"time": 600, "is_downbeat": false}, {"time": 624, "is_downbeat": false}, {"time": 648, "is_downbeat": false}, {"time": 672, "is_downbeat": true}, {"time": 696, "is_downbeat": false}, {"time": 720, "is_downbeat": false}, {"time": 744, "is_downbeat": false}, {"time": 768, "is_downbeat": true}, {"time": 792, "is_downbeat": false}, {"time": 816, "is_downbeat": false}, {"time": 840, "is_downbeat": false}, {"time": 864, "is_downbeat": true}, {"time": 888, "is_downbeat": false}, {"time": 912, "is_downbeat": false}, {"time": 936, "is_downbeat": false}, {"time": 960, "is_downbeat": true}, {"time": 984, "is_downbeat": false}, {"time": 1008, "is_downbeat": false}, {"time": 1032, "is_downbeat": false}, {"time": 1056, "is_downbeat": true}, {"time": 1080, "is_downbeat": false}, {"time": 1104, "is_downbeat": false}, {"time": 1128, "is_downbeat": false}, {"time": 1152, "is_downbeat": true}, {"time": 1176, "is_downbeat": false}, {"time": 1200, "is_downbeat": false}, {"time": 1224, "is_downbeat": false}, {"time": 1248, "is_downbeat": true}, {"time": 1272, "is_downbeat": false}, {"time": 1296, "is_downbeat": false}, {"time": 1320, "is_downbeat": false}, {"time": 1344, "is_downbeat": true}, {"time": 1368, "is_downbeat": false}, {"time": 1392, "is_downbeat": false}, {"time": 1416, "is_downbeat": false}, {"time": 1440, "is_downbeat": true}, {"time": 1464, "is_downbeat": false}, {"time": 1488, "is_downbeat": false}, {"time": 1512, "is_downbeat": false}, {"time": 1536, "is_downbeat": true}, {"time": 1560, "is_downbeat": false}, {"time": 1584, "is_downbeat": false}, {"time": 1608, "is_downbeat": false}, {"time": 1632, "is_downbeat": true}, {"time": 1656, "is_downbeat": false}, {"time": 1680, "is_downbeat": false}, {"time": 1704, "is_downbeat": false}, {"time": 1728, "is_downbeat": true}, {"time": 1752, "is_downbeat": false}, {"time": 1776, "is_downbeat": false}, {"time": 1800, "is_downbeat": false}, {"time": 1824, "is_downbeat": true}, {"time": 1848, "is_downbeat": false}, {"time": 1872, "is_downbeat": false}, {"time": 1896, "is_downbeat": false}, {"time": 1920, "is_downbeat": true}, {"time": 1944, "is_downbeat": false}, {"time": 1968, "is_downbeat": false}, {"time": 1992, "is_downbeat": false}, {"time": 2016, "is_downbeat": true}, {"time": 2040, "is_downbeat": false}, {"time": 2064, "is_downbeat": false}, {"time": 2088, "is_downbeat": false}, {"time": 2112, "is_downbeat": true}, {"time": 2136, "is_downbeat": false}, {"time": 2160, "is_downbeat": false}, {"time": 2184, "is_downbeat": false}, {"time": 2208, "is_downbeat": true}, {"time": 2232, "is_downbeat": false}, {"time": 2256, "is_downbeat": false}, {"time": 2280, "is_downbeat": false}, {"time": 2304, "is_downbeat": true}, {"time": 2328, "is_downbeat": false}, {"time": 2352, "is_downbeat": false}, {"time": 2376, "is_downbeat": false}], "tracks": [{"program": 0, "is_drum": false, "notes": [{"time": 0, "pitch": 71, "duration": 12, "velocity": 64}, {"time": 12, "pitch": 71, "duration": 12, "velocity": 64}, {"time": 24, "pitch": 66, "duration": 12, "velocity": 64}, {"time": 36, "pitch": 69, "duration": 12, "velocity": 64}, {"time": 48, "pitch": 71, "duration": 24, "velocity": 64}, {"time": 72, "pitch": 71, "duration": 24, "velocity": 64}, {"time": 96, "pitch": 69, "duration": 12, "velocity": 64}, {"time": 108, "pitch": 69, "duration": 12, "velocity": 64}, {"time": 120, "pitch": 66, "duration": 12, "velocity": 64}, {"time": 132, "pitch": 69, "duration": 12, "velocity": 64}, {"time": 144, "pitch": 71, "duration": 48, "velocity": 64}, {"time": 192, "pitch": 69, "duration": 12, "velocity": 64}, {"time": 204, "pitch": 71, "duration": 12, "velocity": 64}, {"time": 216, "pitch": 74, "duration": 24, "velocity": 64}, {"time": 240, "pitch": 71, "duration": 12, "velocity": 64}, {"time": 252, "pitch": 69, "duration": 12, "velocity": 64}, {"time": 264, "pitch": 69, "duration": 12, "velocity": 64}, {"time": 276, "pitch": 66, "duration": 12, "velocity": 64}, {"time": 288, "pitch": 69, "duration": 12, "velocity": 64}, {"time": 300, "pitch": 66, "duration": 12, "velocity": 64}, {"time": 312, "pitch": 64, "duration": 12, "velocity": 64}, {"time": 324, "pitch": 62, "duration": 12, "velocity": 64}, {"time": 336, "pitch": 66, "duration": 12, "velocity": 64}, {"time": 348, "pitch": 69, "duration": 12, "velocity": 64}, {"time": 360, "pitch": 69, "duration": 12, "velocity": 64}, {"time": 372, "pitch": 64, "duration": 12, "velocity": 64}, {"time": 384, "pitch": 66, "duration": 72, "velocity": 64}, {"time": 504, "pitch": 71, "duration": 24, "velocity": 64}, {"time": 528, "pitch": 71, "duration": 12, "velocity": 64}, {"time": 540, "pitch": 66, "duration": 12, "velocity": 64}, {"time": 552, "pitch": 69, "duration": 24, "velocity": 64}, {"time": 576, "pitch": 74, "duration": 36, "velocity": 64}, {"time": 612, "pitch": 71, "duration": 12, "velocity": 64}, {"time": 624, "pitch": 69, "duration": 12, "velocity": 64}, {"time": 636, "pitch": 66, "duration": 12, "velocity": 64}, {"time": 648, "pitch": 69, "duration": 24, "velocity": 64}, {"time": 696, "pitch": 71, "duration": 24, "velocity": 64}, {"time": 720, "pitch": 69, "duration": 12, "velocity": 64}, {"time": 732, "pitch": 66, "duration": 12, "velocity": 64}, {"time": 744, "pitch": 71, "duration": 12, "velocity": 64}, {"time": 756, "pitch": 69, "duration": 12, "velocity": 64}, {"time": 768, "pitch": 74, "duration": 36, "velocity": 64}, {"time": 804, "pitch": 71, "duration": 12, "velocity": 64}, {"time": 816, "pitch": 69, "duration": 12, "velocity": 64}, {"time": 828, "pitch": 66, "duration": 12, "velocity": 64}, {"time": 840, "pitch": 69, "duration": 24, "velocity": 64}, {"time": 888, "pitch": 66, "duration": 24, "velocity": 64}, {"time": 912, "pitch": 69, "duration": 24, "velocity": 64}, {"time": 936, "pitch": 71, "duration": 12, "velocity": 64}, {"time": 948, "pitch": 69, "duration": 12, "velocity": 64}, {"time": 960, "pitch": 74, "duration": 36, "velocity": 64}, {"time": 996, "pitch": 71, "duration": 12, "velocity": 64}, {"time": 1008, "pitch": 69, "duration": 12, "velocity": 64}, {"time": 1020, "pitch": 66, "duration": 12, "velocity": 64}, {"time": 1032, "pitch": 69, "duration": 24, "velocity": 64}, {"time": 1080, "pitch": 71, "duration": 24, "velocity": 64}, {"time": 1104, "pitch": 69, "duration": 24, "velocity": 64}, {"time": 1128, "pitch": 71, "duration": 12, "velocity": 64}, {"time": 1140, "pitch": 69, "duration": 12, "velocity": 64}, {"time": 1152, "pitch": 74, "duration": 36, "velocity": 64}, {"time": 1188, "pitch": 71, "duration": 12, "velocity": 64}, {"time": 1200, "pitch": 69, "duration": 12, "velocity": 64}, {"time": 1212, "pitch": 66, "duration": 12, "velocity": 64}, {"time": 1224, "pitch": 69, "duration": 24, "velocity": 64}, {"time": 1272, "pitch": 71, "duration": 24, "velocity": 64}, {"time": 1296, "pitch": 62, "duration": 24, "velocity": 64}, {"time": 1320, "pitch": 64, "duration": 24, "velocity": 64}, {"time": 1344, "pitch": 69, "duration": 36, "velocity": 64}, {"time": 1380, "pitch": 64, "duration": 12, "velocity": 64}, {"time": 1392, "pitch": 66, "duration": 12, "velocity": 64}, {"time": 1404, "pitch": 64, "duration": 12, "velocity": 64}, {"time": 1416, "pitch": 66, "duration": 24, "velocity": 64}, {"time": 1464, "pitch": 71, "duration": 24, "velocity": 64}, {"time": 1488, "pitch": 62, "duration": 24, "velocity": 64}, {"time": 1512, "pitch": 64, "duration": 24, "velocity": 64}, {"time": 1536, "pitch": 69, "duration": 36, "velocity": 64}, {"time": 1572, "pitch": 64, "duration": 12, "velocity": 64}, {"time": 1584, "pitch": 66, "duration": 12, "velocity": 64}, {"time": 1596, "pitch": 64, "duration": 12, "velocity": 64}, {"time": 1608, "pitch": 66, "duration": 24, "velocity": 64}, {"time": 1644, "pitch": 78, "duration": 24, "velocity": 64}, {"time": 1668, "pitch": 76, "duration": 12, "velocity": 64}, {"time": 1680, "pitch": 74, "duration": 24, "velocity": 64}, {"time": 1704, "pitch": 74, "duration": 12, "velocity": 64}, {"time": 1716, "pitch": 71, "duration": 12, "velocity": 64}, {"time": 1740, "pitch": 78, "duration": 24, "velocity": 64}, {"time": 1764, "pitch": 76, "duration": 12, "velocity": 64}, {"time": 1776, "pitch": 74, "duration": 24, "velocity": 64}, {"time": 1800, "pitch": 74, "duration": 24, "velocity": 64}, {"time": 1824, "pitch": 71, "duration": 18, "velocity": 64}, {"time": 1842, "pitch": 69, "duration": 6, "velocity": 64}, {"time": 1848, "pitch": 71, "duration": 12, "velocity": 64}, {"time": 1860, "pitch": 71, "duration": 12, "velocity": 64}, {"time": 1872, "pitch": 74, "duration": 24, "velocity": 64}, {"time": 1896, "pitch": 74, "duration": 24, "velocity": 64}, {"time": 1920, "pitch": 71, "duration": 24, "velocity": 64}, {"time": 1944, "pitch": 71, "duration": 24, "velocity": 64}, {"time": 1968, "pitch": 62, "duration": 24, "velocity": 64}, {"time": 1992, "pitch": 69, "duration": 24, "velocity": 64}, {"time": 2016, "pitch": 66, "duration": 48, "velocity": 64}, {"time": 2064, "pitch": 64, "duration": 12, "velocity": 64}, {"time": 2076, "pitch": 59, "duration": 12, "velocity": 64}, {"time": 2088, "pitch": 62, "duration": 24, "velocity": 64}, {"time": 2136, "pitch": 66, "duration": 24, "velocity": 64}, {"time": 2160, "pitch": 64, "duration": 24, "velocity": 64}, {"time": 2184, "pitch": 62, "duration": 24, "velocity": 64}, {"time": 2208, "pitch": 71, "duration": 24, "velocity": 64}, {"time": 2232, "pitch": 71, "duration": 12, "velocity": 64}, {"time": 2244, "pitch": 74, "duration": 12, "velocity": 64}, {"time": 2256, "pitch": 69, "duration": 12, "velocity": 64}, {"time": 2268, "pitch": 71, "duration": 12, "velocity": 64}, {"time": 2280, "pitch": 76, "duration": 12, "velocity": 64}, {"time": 2292, "pitch": 73, "duration": 12, "velocity": 64}, {"time": 2304, "pitch": 71, "duration": 72, "velocity": 64}]}]}