{"metadata": {"schema_version": "0.1", "title": "Wuzhi xiaochuan", "source_format": "abc"}, "resolution": 24, "tempos": [{"time": 0, "qpm": 120.0}], "key_signatures": [{"time": 0, "root": 10, "mode": "major", "fifths": -2}], "time_signatures": [{"time": 0, "numerator": 4, "denominator": 4}, {"time": 192, "numerator": 1, "denominator": 4}, {"time": 288, "numerator": 1, "denominator": 4}, {"time": 384, "numerator": 1, "denominator": 4}, {"time": 528, "numerator": 9, "denominator": 4}, {"time": 816, "numerator": 1, "denominator": 4}, {"time": 960, "numerator": 5, "denominator": 4}, {"time": 1152, "numerator": 1, "denominator": 4}, {"time": 1248, "numerator": 1, "denominator": 4}, {"time": 1272, "numerator": 3, "denominator": 4}], "beats": [{"time": 0, "is_downbeat": true}, {"time": 24, "is_downbeat": true}, {"time": 48, "is_downbeat": true}, {"time": 72, "is_downbeat": true}, {"time": 96, "is_downbeat": true}, {"time": 120, "is_downbeat": true}, {"time": 144, "is_downbeat": true}, {"time": 168, "is_downbeat": true}, {"time": 192, "is_downbeat": true}, {"time": 216, "is_downbeat": true}, {"time": 240, "is_downbeat": true}, {"time": 264, "is_downbeat": true}, {"time": 288, "is_downbeat": true}, {"time": 312, "is_downbeat": true}, {"time": 336, "is_downbeat": true}, {"time": 360, "is_downbeat": true}, {"time": 384, "is_downbeat": true}, {"time": 408, "is_downbeat": true}, {"time": 432, "is_downbeat": false}, {"time": 456, "is_downbeat": true}, {"time": 480, "is_downbeat": false}, {"time": 504, "is_downbeat": false}, {"time": 528, "is_downbeat": true}, {"time": 552, "is_downbeat": true}, {"time": 576, "is_downbeat": true}, {"time": 600, "is_downbeat": true}, {"time": 624, "is_downbeat": true}, {"time": 648, "is_downbeat": true}, {"time": 672, "is_downbeat": true}, {"time": 696, "is_downbeat": true}, {"time": 720, "is_downbeat": true}, {"time": 744, "is_downbeat": true}, {"time": 768, "is_downbeat": true}, {"time": 792, "is_downbeat": true}, {"time": 816, "is_downbeat": true}, {"time": 840, "is_downbeat": true}, {"time": 864, "is_downbeat": false}, {"time": 888, "is_downbeat": true}, {"time": 912, "is_downbeat": false}, {"time": 936, "is_downbeat": false}, {"time": 960, "is_downbeat": true}, {"time": 984, "is_downbeat": true}, {"time": 1008, "is_downbeat": true}, {"time": 1032, "is_downbeat": true}, {"time": 1056, "is_downbeat": true}, {"time": 1080, "is_downbeat": true}, {"time": 1104, "is_downbeat": true}, {"time": 1128, "is_downbeat": true}, {"time": 1152, "is_downbeat": true}, {"time": 1176, "is_downbeat": true}, {"time": 1200, "is_downbeat": true}, {"time": 1224, "is_downbeat": true}, {"time": 1248, "is_downbeat": true}, {"time": 1272, "is_downbeat": true}, {"time": 1296, "is_downbeat": false}, {"time": 1320, "is_downbeat": true}, {"time": 1344, "is_downbeat": false}, {"time": 1368, "is_downbeat": false}], "tracks": [{"program": 0, "is_drum": false, "notes": [{"time": 0, "pitch": 72, "duration": 6, "velocity": 64}, {"time": 6, "pitch": 82, "duration": 6, "velocity": 64}, {"time": 12, "pitch": 72, "duration": 6, "velocity": 64}, {"time": 18, "pitch": 74, "duration": 6, "velocity": 64}, {"time": 24, "pitch": 77, "duration": 6, "velocity": 64}, {"time": 30, "pitch": 74, "duration": 6, "velocity": 64}, {"time": 36, "pitch": 72, "duration": 12, "velocity": 64}, {"time": 48, "pitch": 72, "duration": 6, "velocity": 64}, {"time": 54, "pitch": 82, "duration": 6, "velocity": 64}, {"time": 60, "pitch": 79, "duration": 6, "velocity": 64}, {"time": 72, "pitch": 82, "duration": 18, "velocity": 64}, {"time": 90, "pitch": 72, "duration": 6, "velocity": 64}, {"time": 96, "pitch": 74, "duration": 12, "velocity": 64}, {"time": 108, "pitch": 72, "duration": 12, "velocity": 64}, {"time": 120, "pitch": 72, "duration": 6, "velocity": 64}, {"time": 126, "pitch": 79, "duration": 6, "velocity": 64}, {"time": 132, "pitch": 82, "duration": 36, "velocity": 64}, {"time": 168, "pitch": 74, "duration": 6, "velocity": 64}, {"time": 174, "pitch": 74, "duration": 6, "velocity": 64}, {"time": 180, "pitch": 74, "duration": 6, "velocity": 64}, {"time": 186, "pitch": 77, "duration": 6, "velocity": 64}, {"time": 192, "pitch": 79, "duration": 6, "velocity": 64}, {"time": 198, "pitch": 77, "duration": 3, "velocity": 64}, {"time": 201, "pitch": 79, "duration": 3, "velocity": 64}, {"time": 204, "pitch": 82, "duration": 12, "velocity": 64}, {"time": 216, "pitch": 82, "duration": 6, "velocity": 64}, {"time": 222, "pitch": 72, "duration": 6, "velocity": 64}, {"time": 228, "pitch": 74, "duration": 6, "velocity": 64}, {"time": 234, "pitch": 72, "duration": 6, "velocity": 64}, {"time": 240, "pitch": 77, "duration": 6, "velocity": 64}, {"time": 246, "pitch": 74, "duration": 6, "velocity": 64}, {"time": 252, "pitch": 72, "duration": 6, "velocity": 64}, {"time": 264, "pitch": 72, "duration": 6, "velocity": 64}, {"time": 270, "pitch": 81, "duration": 6, "velocity": 64}, {"time": 276, "pitch": 79, "duration": 6, "velocity": 64}, {"time": 282, "pitch": 79, "duration": 6, "velocity": 64}, {"time": 288, "pitch": 79, "duration": 6, "velocity": 64}, {"time": 294, "pitch": 74, "duration": 6, "velocity": 64}, {"time": 300, "pitch": 77, "duration": 12, "velocity": 64}, {"time": 312, "pitch": 79, "duration": 3, "velocity": 64}, {"time": 315, "pitch": 82, "duration": 3, "velocity": 64}, {"time": 318, "pitch": 77, "duration": 6, "velocity": 64}, {"time": 324, "pitch": 79, "duration": 6, "velocity": 64}, {"time": 330, "pitch": 79, "duration": 6, "velocity": 64}, {"time": 336, "pitch": 77, "duration": 24, "velocity": 64}, {"time": 360, "pitch": 79, "duration": 6, "velocity": 64}, {"time": 366, "pitch": 82, "duration": 6, "velocity": 64}, {"time": 372, "pitch": 82, "duration": 6, "velocity": 64}, {"time": 378, "pitch": 82, "duration": 6, "velocity": 64}, {"time": 384, "pitch": 82, "duration": 6, "velocity": 64}, {"time": 390, "pitch": 74, "duration": 6, "velocity": 64}, {"time": 396, "pitch": 72, "duration": 12, "velocity": 64}, {"time": 408, "pitch": 72, "duration": 6, "velocity": 64}, {"time": 414, "pitch": 81, "duration": 6, "velocity": 64}, {"time": 420, "pitch": 79, "duration": 6, "velocity": 64}, {"time": 426, "pitch": 77, "duration": 6, "velocity": 64}, {"time": 432, "pitch": 79, "duration": 6, "velocity": 64}, {"time": 438, "pitch": 74, "duration": 6, "velocity": 64}, {"time": 444, "pitch": 77, "duration": 12, "velocity": 64}, {"time": 456, "pitch": 79, "duration": 6, "velocity": 64}, {"time": 462, "pitch": 77, "duration": 6, "velocity": 64}, {"time": 468, "pitch": 79, "duration": 6, "velocity": 64}, {"time": 474, "pitch": 81, "duration": 3, "velocity": 64}, {"time": 477, "pitch": 79, "duration": 3, "velocity": 64}, {"time": 480, "pitch": 77, "duration": 24, "velocity": 64}, {"time": 504, "pitch": 72, "duration": 6, "velocity": 64}, {"time": 510, "pitch": 82, "duration": 6, "velocity": 64}, {"time": 516, "pitch": 72, "duration": 6, "velocity": 64}, {"time": 522, "pitch": 74, "duration": 6, "velocity": 64}, {"time": 528, "pitch": 72, "duration": 12, "velocity": 64}, {"time": 552, "pitch": 74, "duration": 6, "velocity": 64}, {"time": 558, "pitch": 72, "duration": 6, "velocity": 64}, {"time": 564, "pitch": 74, "duration": 6, "velocity": 64}, {"time": 570, "pitch": 82, "duration": 6, "velocity": 64}, {"time": 576, "pitch": 72, "duration": 12, "velocity": 64}, {"time": 600, "pitch": 72, "duration": 9, "velocity": 64}, {"time": 609, "pitch": 82, "duration": 3, "velocity": 64}, {"time": 612, "pitch": 79, "duration": 6, "velocity": 64}, {"time": 618, "pitch": 82, "duration": 6, "velocity": 64}, {"time": 624, "pitch": 74, "duration": 12, "velocity": 64}, {"time": 636, "pitch": 72, "duration": 12, "velocity": 64}, {"time": 648, "pitch": 74, "duration": 6, "velocity": 64}, {"time": 654, "pitch": 72, "duration": 6, "velocity": 64}, {"time": 660, "pitch": 79, "duration": 6, "velocity": 64}, {"time": 666, "pitch": 82, "duration": 6, "velocity": 64}, {"time": 672, "pitch": 72, "duration": 24, "velocity": 64}, {"time": 696, "pitch": 72, "duration": 6, "velocity": 64}, {"time": 702, "pitch": 81, "duration": 6, "velocity": 64}, {"time": 708, "pitch": 79, "duration": 6, "velocity": 64}, {"time": 714, "pitch": 79, "duration": 6, "velocity": 64}, {"time": 720, "pitch": 79, "duration": 6, "velocity": 64}, {"time": 726, "pitch": 74, "duration": 6, "velocity": 64}, {"time": 732, "pitch": 77, "duration": 12, "velocity": 64}, {"time": 744, "pitch": 79, "duration": 6, "velocity": 64}, {"time": 750, "pitch": 77, "duration": 6, "velocity": 64}, {"time": 756, "pitch": 79, "duration": 6, "velocity": 64}, {"time": 762, "pitch": 82, "duration": 3, "velocity": 64}, {"time": 765, "pitch": 79, "duration": 3, "velocity": 64}, {"time": 768, "pitch": 77, "duration": 24, "velocity": 64}, {"time": 792, "pitch": 79, "duration": 9, "velocity": 64}, {"time": 801, "pitch": 82, "duration": 3, "velocity": 64}, {"time": 804, "pitch": 82, "duration": 6, "velocity": 64}, {"time": 810, "pitch": 82, "duration": 6, "velocity": 64}, {"time": 816, "pitch": 82, "duration": 6, "velocity": 64}, {"time": 822, "pitch": 74, "duration": 6, "velocity": 64}, {"time": 828, "pitch": 72, "duration": 12, "velocity": 64}, {"time": 840, "pitch": 72, "duration": 6, "velocity": 64}, {"time": 846, "pitch": 81, "duration": 6, "velocity": 64}, {"time": 852, "pitch": 79, "duration": 6, "velocity": 64}, {"time": 858, "pitch": 79, "duration": 6, "velocity": 64}, {"time": 864, "pitch": 79, "duration": 6, "velocity": 64}, {"time": 870, "pitch": 74, "duration": 6, "velocity": 64}, {"time": 876, "pitch": 77, "duration": 12, "velocity": 64}, {"time": 888, "pitch": 79, "duration": 3, "velocity": 64}, {"time": 891, "pitch": 82, "duration": 3, "velocity": 64}, {"time": 894, "pitch": 77, "duration": 6, "velocity": 64}, {"time": 900, "pitch": 79, "duration": 6, "velocity": 64}, {"time": 906, "pitch": 82, "duration": 3, "velocity": 64}, {"time": 909, "pitch": 79, "duration": 3, "velocity": 64}, {"time": 912, "pitch": 77, "duration": 24, "velocity": 64}, {"time": 936, "pitch": 74, "duration": 6, "velocity": 64}, {"time": 942, "pitch": 72, "duration": 6, "velocity": 64}, {"time": 948, "pitch": 74, "duration": 6, "velocity": 64}, {"time": 954, "pitch": 74, "duration": 6, "velocity": 64}, {"time": 960, "pitch": 72, "duration": 12, "velocity": 64}, {"time": 984, "pitch": 74, "duration": 6, "velocity": 64}, {"time": 990, "pitch": 74, "duration": 6, "velocity": 64}, {"time": 996, "pitch": 74, "duration": 6, "velocity": 64}, {"time": 1002, "pitch": 82, "duration": 6, "velocity": 64}, {"time": 1008, "pitch": 72, "duration": 12, "velocity": 64}, {"time": 1032, "pitch": 72, "duration": 6, "velocity": 64}, {"time": 1038, "pitch": 72, "duration": 6, "velocity": 64}, {"time": 1044, "pitch": 82, "duration": 6, "velocity": 64}, {"time": 1050, "pitch": 72, "duration": 6, "velocity": 64}, {"time": 1056, "pitch": 74, "duration": 6, "velocity": 64}, {"time": 1062, "pitch": 79, "duration": 6, "velocity": 64}, {"time": 1068, "pitch": 77, "duration": 12, "velocity": 64}, {"time": 1080, "pitch": 72, "duration": 6, "velocity": 64}, {"time": 1086, "pitch": 74, "duration": 6, "velocity": 64}, {"time": 1092, "pitch": 72, "duration": 6, "velocity": 64}, {"time": 1098, "pitch": 79, "duration": 6, "velocity": 64}, {"time": 1104, "pitch": 82, "duration": 24, "velocity": 64}, {"time": 1128, "pitch": 72, "duration": 6, "velocity": 64}, {"time": 1134, "pitch": 81, "duration": 6, "velocity": 64}, {"time": 1140, "pitch": 79, "duration": 6, "velocity": 64}, {"time": 1146, "pitch": 79, "duration": 6, "velocity": 64}, {"time": 1152, "pitch": 79, "duration": 6, "velocity": 64}, {"time": 1158, "pitch": 74, "duration": 6, "velocity": 64}, {"time": 1164, "pitch": 77, "duration": 12, "velocity": 64}, {"time": 1176, "pitch": 79, "duration": 3, "velocity": 64}, {"time": 1179, "pitch": 82, "duration": 3, "velocity": 64}, {"time": 1182, "pitch": 77, "duration": 6, "velocity": 64}, {"time": 1188, "pitch": 79, "duration": 6, "velocity": 64}, {"time": 1194, "pitch": 82, "duration": 3, "velocity": 64}, {"time": 1197, "pitch": 79, "duration": 3, "velocity": 64}, {"time": 1200, "pitch": 77, "duration": 24, "velocity": 64}, {"time": 1224, "pitch": 79, "duration": 9, "velocity": 64}, {"time": 1233, "pitch": 82, "duration": 3, "velocity": 64}, {"time": 1236, "pitch": 82, "duration": 6, "velocity": 64}, {"time": 1242, "pitch": 82, "duration": 6, "velocity": 64}, {"time": 1248, "pitch": 82, "duration": 6, "velocity": 64}, {"time": 1254, "pitch": 74, "duration": 6, "velocity": 64}, {"time": 1260, "pitch": 72, "duration": 12, "velocity": 64}, {"time": 1272, "pitch": 72, "duration": 6, "velocity": 64}, {"time": 1278, "pitch": 81, "duration": 6, "velocity": 64}, {"time": 1284, "pitch": 79, "duration": 6, "velocity": 64}, {"time": 1290, "pitch": 79, "duration": 6, "velocity": 64}, {"time": 1296, "pitch": 79, "duration": 6, "velocity": 64}, {"time": 1302, "pitch": 74, "duration": 6, "velocity": 64}, {"time": 1308, "pitch": 77, "duration": 12, "velocity": 64}, {"time": 1320, "pitch": 79, "duration": 3, "velocity": 64}, {"time": 1323, "pitch": 82, "duration": 3, "velocity": 64}, {"time": 1326, "pitch": 77, "duration": 6, "velocity": 64}, {"time": 1332, "pitch": 79, "duration": 6, "velocity": 64}, {"time": 1338, "pitch": 79, "duration": 6, "velocity": 64}, {"time": 1344, "pitch": 77, "duration": 36, "velocity": 64}]}]}