{"metadata": {"schema_version": "0.1", "title": "Fang fengzheng", "source_format": "abc"}, "resolution": 24, "tempos": [{"time": 0, "qpm": 120.0}], "key_signatures": [{"time": 0, "root": 9, "mode": "major", "fifths": 3}], "time_signatures": [{"time": 0, "numerator": 2, "denominator": 4}], "beats": [{"time": 0, "is_downbeat": true}, {"time": 24, "is_downbeat": false}, {"time": 48, "is_downbeat": true}, {"time": 72, "is_downbeat": false}, {"time": 96, "is_downbeat": true}, {"time": 120, "is_downbeat": false}, {"time": 144, "is_downbeat": true}, {"time": 168, "is_downbeat": false}, {"time": 192, "is_downbeat": true}, {"time": 216, "is_downbeat": false}, {"time": 240, "is_downbeat": true}, {"time": 264, "is_downbeat": false}, {"time": 288, "is_downbeat": true}, {"time": 312, "is_downbeat": false}, {"time": 336, "is_downbeat": true}, {"time": 360, "is_downbeat": false}, {"time": 384, "is_downbeat": true}, {"time": 408, "is_downbeat": false}, {"time": 432, "is_downbeat": true}, {"time": 456, "is_downbeat": false}, {"time": 480, "is_downbeat": true}, {"time": 504, "is_downbeat": false}, {"time": 528, "is_downbeat": true}, {"time": 552, "is_downbeat": false}, {"time": 576, "is_downbeat": true}, {"time": 600, "is_downbeat": false}, {"time": 624, "is_downbeat": true}, {"time": 648, "is_downbeat": false}, {"time": 672, "is_downbeat": true}, {"time": 696, "is_downbeat": false}, {"time": 720, "is_downbeat": true}, {"time": 744, "is_downbeat": false}, {"time": 768, "is_downbeat": true}, {"time": 792, "is_downbeat": false}, {"time": 816, "is_downbeat": true}, {"time": 840, "is_downbeat": false}, {"time": 864, "is_downbeat": true}, {"time": 888, "is_downbeat": false}, {"time": 912, "is_downbeat": true}, {"time": 936, "is_downbeat": false}, {"time": 960, "is_downbeat": true}, {"time": 984, "is_downbeat": false}, {"time": 1008, "is_downbeat": true}, {"time": 1032, "is_downbeat": false}, {"time": 1056, "is_downbeat": true}, {"time": 1080, "is_downbeat": false}, {"time": 1104, "is_downbeat": true}, {"time": 1128, "is_downbeat": false}, {"time": 1152, "is_downbeat": true}, {"time": 1176, "is_downbeat": false}, {"time": 1200, "is_downbeat": true}, {"time": 1224, "is_downbeat": false}, {"time": 1248, "is_downbeat": true}, {"time": 1272, "is_downbeat": false}, {"time": 1296, "is_downbeat": true}, {"time": 1320, "is_downbeat": false}, {"time": 1344, "is_downbeat": true}, {"time": 1368, "is_downbeat": false}, {"time": 1392, "is_downbeat": true}, {"time": 1416, "is_downbeat": false}, {"time": 1440, "is_downbeat": true}, {"time": 1464, "is_downbeat": false}, {"time": 1488, "is_downbeat": true}, {"time": 1512, "is_downbeat": false}, {"time": 1536, "is_downbeat": true}, {"time": 1560, "is_downbeat": false}, {"time": 1584, "is_downbeat": true}, {"time": 1608, "is_downbeat": false}, {"time": 1632, "is_downbeat": true}, {"time": 1656, "is_downbeat": false}, {"time": 1680, "is_downbeat": true}, {"time": 1704, "is_downbeat": false}, {"time": 1728, "is_downbeat": true}, {"time": 1752, "is_downbeat": false}, {"time": 1776, "is_downbeat": true}, {"time": 1800, "is_downbeat": false}, {"time": 1824, "is_downbeat": true}, {"time": 1848, "is_downbeat": false}, {"time": 1872, "is_downbeat": true}, {"time": 1896, "is_downbeat": false}, {"time": 1920, "is_downbeat": true}, {"time": 1944, "is_downbeat": false}, {"time": 1968, "is_downbeat": true}, {"time": 1992, "is_downbeat": false}, {"time": 2016, "is_downbeat": true}, {"time": 2040, "is_downbeat": false}, {"time": 2064, "is_downbeat": true}, {"time": 2088, "is_downbeat": false}], "tracks": [{"program": 0, "is_drum": false, "notes": [{"time": 0, "pitch": 76, "duration": 12, "velocity": 64}, {"time": 12, "pitch": 76, "duration": 6, "velocity": 64}, {"time": 18, "pitch": 73, "duration": 6, "velocity": 64}, {"time": 24, "pitch": 78, "duration": 12, "velocity": 64}, {"time": 36, "pitch": 76, "duration": 6, "velocity": 64}, {"time": 42, "pitch": 73, "duration": 6, "velocity": 64}, {"time": 48, "pitch": 76, "duration": 12, "velocity": 64}, {"time": 60, "pitch": 71, "duration": 24, "velocity": 64}, {"time": 84, "pitch": 73, "duration": 12, "velocity": 64}, {"time": 96, "pitch": 76, "duration": 12, "velocity": 64}, {"time": 108, "pitch": 76, "duration": 6, "velocity": 64}, {"time": 114, "pitch": 73, "duration": 6, "velocity": 64}, {"time": 120, "pitch": 78, "duration": 12, "velocity": 64}, {"time": 132, "pitch": 76, "duration": 6, "velocity": 64}, {"time": 138, "pitch": 73, "duration": 6, "velocity": 64}, {"time": 144, "pitch": 71, "duration": 6, "velocity": 64}, {"time": 150, "pitch": 76, "duration": 6, "velocity": 64}, {"time": 156, "pitch": 73, "duration": 6, "velocity": 64}, {"time": 162, "pitch": 71, "duration": 6, "velocity": 64}, {"time": 168, "pitch": 69, "duration": 12, "velocity": 64}, {"time": 192, "pitch": 69, "duration": 18, "velocity": 64}, {"time": 210, "pitch": 71, "duration": 6, "velocity": 64}, {"time": 216, "pitch": 73, "duration": 12, "velocity": 64}, {"time": 228, "pitch": 73, "duration": 12, "velocity": 64}, {"time": 240, "pitch": 71, "duration": 9, "velocity": 64}, {"time": 249, "pitch": 73, "duration": 3, "velocity": 64}, {"time": 252, "pitch": 71, "duration": 6, "velocity": 64}, {"time": 258, "pitch": 69, "duration": 6, "velocity": 64}, {"time": 264, "pitch": 69, "duration": 12, "velocity": 64}, {"time": 276, "pitch": 69, "duration": 12, "velocity": 64}, {"time": 288, "pitch": 64, "duration": 12, "velocity": 64}, {"time": 300, "pitch": 66, "duration": 12, "velocity": 64}, {"time": 312, "pitch": 64, "duration": 12, "velocity": 64}, {"time": 336, "pitch": 69, "duration": 6, "velocity": 64}, {"time": 342, "pitch": 66, "duration": 6, "velocity": 64}, {"time": 348, "pitch": 69, "duration": 6, "velocity": 64}, {"time": 354, "pitch": 71, "duration": 6, "velocity": 64}, {"time": 360, "pitch": 66, "duration": 12, "velocity": 64}, {"time": 372, "pitch": 64, "duration": 12, "velocity": 64}, {"time": 384, "pitch": 76, "duration": 6, "velocity": 64}, {"time": 390, "pitch": 71, "duration": 6, "velocity": 64}, {"time": 396, "pitch": 73, "duration": 6, "velocity": 64}, {"time": 402, "pitch": 76, "duration": 6, "velocity": 64}, {"time": 408, "pitch": 71, "duration": 24, "velocity": 64}, {"time": 432, "pitch": 76, "duration": 6, "velocity": 64}, {"time": 438, "pitch": 71, "duration": 6, "velocity": 64}, {"time": 444, "pitch": 73, "duration": 6, "velocity": 64}, {"time": 450, "pitch": 76, "duration": 6, "velocity": 64}, {"time": 456, "pitch": 71, "duration": 12, "velocity": 64}, {"time": 468, "pitch": 69, "duration": 12, "velocity": 64}, {"time": 480, "pitch": 66, "duration": 6, "velocity": 64}, {"time": 486, "pitch": 64, "duration": 6, "velocity": 64}, {"time": 492, "pitch": 66, "duration": 6, "velocity": 64}, {"time": 498, "pitch": 69, "duration": 6, "velocity": 64}, {"time": 504, "pitch": 64, "duration": 24, "velocity": 64}, {"time": 528, "pitch": 73, "duration": 12, "velocity": 64}, {"time": 540, "pitch": 76, "duration": 12, "velocity": 64}, {"time": 552, "pitch": 73, "duration": 6, "velocity": 64}, {"time": 558, "pitch": 71, "duration": 6, "velocity": 64}, {"time": 564, "pitch": 69, "duration": 6, "velocity": 64}, {"time": 570, "pitch": 66, "duration": 6, "velocity": 64}, {"time": 576, "pitch": 71, "duration": 6, "velocity": 64}, {"time": 582, "pitch": 73, "duration": 6, "velocity": 64}, {"time": 588, "pitch": 69, "duration": 6, "velocity": 64}, {"time": 594, "pitch": 71, "duration": 6, "velocity": 64}, {"time": 600, "pitch": 73, "duration": 24, "velocity": 64}, {"time": 624, "pitch": 71, "duration": 12, "velocity": 64}, {"time": 636, "pitch": 73, "duration": 6, "velocity": 64}, {"time": 642, "pitch": 76, "duration": 6, "velocity": 64}, {"time": 648, "pitch": 71, "duration": 12, "velocity": 64}, {"time": 660, "pitch": 69, "duration": 12, "velocity": 64}, {"time": 672, "pitch": 71, "duration": 6, "velocity": 64}, {"time": 678, "pitch": 69, "duration": 6, "velocity": 64}, {"time": 684, "pitch": 66, "duration": 6, "velocity": 64}, {"time": 690, "pitch": 64, "duration": 6, "velocity": 64}, {"time": 696, "pitch": 69, "duration": 24, "velocity": 64}, {"time": 720, "pitch": 69, "duration": 6, "velocity": 64}, {"time": 726, "pitch": 66, "duration": 6, "velocity": 64}, {"time": 732, "pitch": 69, "duration": 24, "velocity": 64}, {"time": 756, "pitch": 71, "duration": 6, "velocity": 64}, {"time": 762, "pitch": 73, "duration": 6, "velocity": 64}, {"time": 768, "pitch": 76, "duration": 24, "velocity": 64}, {"time": 792, "pitch": 73, "duration": 18, "velocity": 64}, {"time": 810, "pitch": 81, "duration": 6, "velocity": 64}, {"time": 816, "pitch": 71, "duration": 6, "velocity": 64}, {"time": 822, "pitch": 73, "duration": 6, "velocity": 64}, {"time": 828, "pitch": 71, "duration": 36, "velocity": 64}, {"time": 864, "pitch": 71, "duration": 12, "velocity": 64}, {"time": 876, "pitch": 76, "duration": 24, "velocity": 64}, {"time": 900, "pitch": 73, "duration": 6, "velocity": 64}, {"time": 906, "pitch": 71, "duration": 6, "velocity": 64}, {"time": 912, "pitch": 69, "duration": 12, "velocity": 64}, {"time": 924, "pitch": 71, "duration": 12, "velocity": 64}, {"time": 936, "pitch": 69, "duration": 24, "velocity": 64}, {"time": 960, "pitch": 71, "duration": 12, "velocity": 64}, {"time": 972, "pitch": 76, "duration": 12, "velocity": 64}, {"time": 984, "pitch": 71, "duration": 12, "velocity": 64}, {"time": 996, "pitch": 76, "duration": 12, "velocity": 64}, {"time": 1008, "pitch": 73, "duration": 6, "velocity": 64}, {"time": 1014, "pitch": 71, "duration": 6, "velocity": 64}, {"time": 1020, "pitch": 69, "duration": 6, "velocity": 64}, {"time": 1026, "pitch": 71, "duration": 6, "velocity": 64}, {"time": 1032, "pitch": 66, "duration": 12, "velocity": 64}, {"time": 1044, "pitch": 64, "duration": 12, "velocity": 64}, {"time": 1056, "pitch": 76, "duration": 18, "velocity": 64}, {"time": 1074, "pitch": 73, "duration": 6, "velocity": 64}, {"time": 1080, "pitch": 71, "duration": 12, "velocity": 64}, {"time": 1092, "pitch": 76, "duration": 24, "velocity": 64}, {"time": 1116, "pitch": 73, "duration": 6, "velocity": 64}, {"time": 1122, "pitch": 71, "duration": 6, "velocity": 64}, {"time": 1128, "pitch": 69, "duration": 24, "velocity": 64}, {"time": 1152, "pitch": 76, "duration": 24, "velocity": 64}, {"time": 1176, "pitch": 71, "duration": 12, "velocity": 64}, {"time": 1188, "pitch": 69, "duration": 6, "velocity": 64}, {"time": 1194, "pitch": 66, "duration": 6, "velocity": 64}, {"time": 1200, "pitch": 64, "duration": 24, "velocity": 64}, {"time": 1224, "pitch": 76, "duration": 18, "velocity": 64}, {"time": 1242, "pitch": 78, "duration": 6, "velocity": 64}, {"time": 1248, "pitch": 76, "duration": 12, "velocity": 64}, {"time": 1260, "pitch": 73, "duration": 12, "velocity": 64}, {"time": 1272, "pitch": 71, "duration": 6, "velocity": 64}, {"time": 1278, "pitch": 73, "duration": 12, "velocity": 64}, {"time": 1290, "pitch": 71, "duration": 6, "velocity": 64}, {"time": 1296, "pitch": 69, "duration": 6, "velocity": 64}, {"time": 1302, "pitch": 66, "duration": 6, "velocity": 64}, {"time": 1308, "pitch": 69, "duration": 24, "velocity": 64}, {"time": 1332, "pitch": 71, "duration": 12, "velocity": 64}, {"time": 1344, "pitch": 69, "duration": 12, "velocity": 64}, {"time": 1356, "pitch": 69, "duration": 6, "velocity": 64}, {"time": 1362, "pitch": 71, "duration": 6, "velocity": 64}, {"time": 1368, "pitch": 73, "duration": 12, "velocity": 64}, {"time": 1380, "pitch": 76, "duration": 12, "velocity": 64}, {"time": 1392, "pitch": 71, "duration": 6, "velocity": 64}, {"time": 1398, "pitch": 69, "duration": 6, "velocity": 64}, {"time": 1404, "pitch": 66, "duration": 12, "velocity": 64}, {"time": 1428, "pitch": 69, "duration": 12, "velocity": 64}, {"time": 1440, "pitch": 61, "duration": 12, "velocity": 64}, {"time": 1452, "pitch": 64, "duration": 12, "velocity": 64}, {"time": 1464, "pitch": 66, "duration": 12, "velocity": 64}, {"time": 1476, "pitch": 71, "duration": 12, "velocity": 64}, {"time": 1488, "pitch": 69, "duration": 18, "velocity": 64}, {"time": 1506, "pitch": 71, "duration": 6, "velocity": 64}, {"time": 1512, "pitch": 76, "duration": 12, "velocity": 64}, {"time": 1524, "pitch": 73, "duration": 12, "velocity": 64}, {"time": 1536, "pitch": 73, "duration": 12, "velocity": 64}, {"time": 1548, "pitch": 71, "duration": 12, "velocity": 64}, {"time": 1572, "pitch": 73, "duration": 6, "velocity": 64}, {"time": 1578, "pitch": 71, "duration": 6, "velocity": 64}, {"time": 1584, "pitch": 69, "duration": 12, "velocity": 64}, {"time": 1596, "pitch": 68, "duration": 12, "velocity": 64}, {"time": 1608, "pitch": 71, "duration": 12, "velocity": 64}, {"time": 1620, "pitch": 66, "duration": 12, "velocity": 64}, {"time": 1632, "pitch": 69, "duration": 12, "velocity": 64}, {"time": 1644, "pitch": 64, "duration": 36, "velocity": 64}, {"time": 1680, "pitch": 76, "duration": 12, "velocity": 64}, {"time": 1692, "pitch": 76, "duration": 12, "velocity": 64}, {"time": 1704, "pitch": 76, "duration": 12, "velocity": 64}, {"time": 1716, "pitch": 71, "duration": 6, "velocity": 64}, {"time": 1722, "pitch": 69, "duration": 6, "velocity": 64}, {"time": 1728, "pitch": 68, "duration": 12, "velocity": 64}, {"time": 1740, "pitch": 66, "duration": 12, "velocity": 64}, {"time": 1752, "pitch": 64, "duration": 12, "velocity": 64}, {"time": 1788, "pitch": 69, "duration": 12, "velocity": 64}, {"time": 1800, "pitch": 61, "duration": 12, "velocity": 64}, {"time": 1812, "pitch": 64, "duration": 6, "velocity": 64}, {"time": 1818, "pitch": 64, "duration": 6, "velocity": 64}, {"time": 1824, "pitch": 69, "duration": 6, "velocity": 64}, {"time": 1830, "pitch": 71, "duration": 6, "velocity": 64}, {"time": 1836, "pitch": 73, "duration": 6, "velocity": 64}, {"time": 1842, "pitch": 71, "duration": 6, "velocity": 64}, {"time": 1848, "pitch": 69, "duration": 24, "velocity": 64}, {"time": 1872, "pitch": 66, "duration": 12, "velocity": 64}, {"time": 1884, "pitch": 71, "duration": 12, "velocity": 64}, {"time": 1896, "pitch": 68, "duration": 12, "velocity": 64}, {"time": 1908, "pitch": 66, "duration": 12, "velocity": 64}, {"time": 1920, "pitch": 73, "duration": 12, "velocity": 64}, {"time": 1932, "pitch": 71, "duration": 6, "velocity": 64}, {"time": 1938, "pitch": 69, "duration": 6, "velocity": 64}, {"time": 1944, "pitch": 68, "duration": 12, "velocity": 64}, {"time": 1956, "pitch": 66, "duration": 12, "velocity": 64}, {"time": 1980, "pitch": 69, "duration": 12, "velocity": 64}, {"time": 1992, "pitch": 61, "duration": 12, "velocity": 64}, {"time": 2004, "pitch": 64, "duration": 12, "velocity": 64}, {"time": 2016, "pitch": 66, "duration": 12, "velocity": 64}, {"time": 2028, "pitch": 71, "duration": 12, "velocity": 64}, {"time": 2040, "pitch": 68, "duration": 12, "velocity": 64}, {"time": 2052, "pitch": 66, "duration": 12, "velocity": 64}, {"time": 2064, "pitch": 64, "duration": 48, "velocity": 64}]}]}