{"metadata": {"schema_version": "0.1", "title": "Sipan", "source_format": "abc"}, "resolution": 24, "tempos": [{"time": 0, "qpm": 120.0}], "key_signatures": [{"time": 0, "root": 4, "mode": "major", "fifths": 4}], "time_signatures": [{"time": 0, "numerator": 4, "denominator": 4}, {"time": 528, "numerator": 1, "denominator": 4}, {"time": 552, "numerator": 2, "denominator": 4}], "beats": [{"time": 0, "is_downbeat": true}, {"time": 24, "is_downbeat": true}, {"time": 48, "is_downbeat": true}, {"time": 72, "is_downbeat": true}, {"time": 96, "is_downbeat": true}, {"time": 120, "is_downbeat": true}, {"time": 144, "is_downbeat": true}, {"time": 168, "is_downbeat": true}, {"time": 192, "is_downbeat": true}, {"time": 216, "is_downbeat": true}, {"time": 240, "is_downbeat": true}, {"time": 264, "is_downbeat": true}, {"time": 288, "is_downbeat": true}, {"time": 312, "is_downbeat": true}, {"time": 336, "is_downbeat": true}, {"time": 360, "is_downbeat": true}, {"time": 384, "is_downbeat": true}, {"time": 408, "is_downbeat": true}, {"time": 432, "is_downbeat": true}, {"time": 456, "is_downbeat": true}, {"time": 480, "is_downbeat": true}, {"time": 504, "is_downbeat": true}, {"time": 528, "is_downbeat": true}, {"time": 552, "is_downbeat": true}, {"time": 576, "is_downbeat": false}, {"time": 600, "is_downbeat": true}, {"time": 624, "is_downbeat": false}, {"time": 648, "is_downbeat": true}, {"time": 672, "is_downbeat": false}, {"time": 696, "is_downbeat": true}, {"time": 720, "is_downbeat": false}, {"time": 744, "is_downbeat": true}, {"time": 768, "is_downbeat": false}], "tracks": [{"program": 0, "is_drum": false, "notes": [{"time": 0, "pitch": 71, "duration": 12, "velocity": 64}, {"time": 12, "pitch": 71, "duration": 6, "velocity": 64}, {"time": 18, "pitch": 71, "duration": 6, "velocity": 64}, {"time": 24, "pitch": 73, "duration": 6, "velocity": 64}, {"time": 30, "pitch": 71, "duration": 6, "velocity": 64}, {"time": 36, "pitch": 73, "duration": 6, "velocity": 64}, {"time": 42, "pitch": 76, "duration": 6, "velocity": 64}, {"time": 48, "pitch": 71, "duration": 48, "velocity": 64}, {"time": 96, "pitch": 71, "duration": 12, "velocity": 64}, {"time": 108, "pitch": 66, "duration": 6, "velocity": 64}, {"time": 114, "pitch": 68, "duration": 6, "velocity": 64}, {"time": 120, "pitch": 71, "duration": 12, "velocity": 64}, {"time": 132, "pitch": 68, "duration": 6, "velocity": 64}, {"time": 138, "pitch": 66, "duration": 6, "velocity": 64}, {"time": 144, "pitch": 64, "duration": 48, "velocity": 64}, {"time": 192, "pitch": 73, "duration": 18, "velocity": 64}, {"time": 210, "pitch": 71, "duration": 6, "velocity": 64}, {"time": 216, "pitch": 73, "duration": 24, "velocity": 64}, {"time": 240, "pitch": 76, "duration": 12, "velocity": 64}, {"time": 252, "pitch": 73, "duration": 6, "velocity": 64}, {"time": 258, "pitch": 71, "duration": 6, "velocity": 64}, {"time": 264, "pitch": 68, "duration": 24, "velocity": 64}, {"time": 288, "pitch": 71, "duration": 12, "velocity": 64}, {"time": 300, "pitch": 66, "duration": 6, "velocity": 64}, {"time": 306, "pitch": 68, "duration": 6, "velocity": 64}, {"time": 312, "pitch": 71, "duration": 12, "velocity": 64}, {"time": 324, "pitch": 68, "duration": 6, "velocity": 64}, {"time": 330, "pitch": 66, "duration": 6, "velocity": 64}, {"time": 336, "pitch": 64, "duration": 48, "velocity": 64}, {"time": 384, "pitch": 71, "duration": 12, "velocity": 64}, {"time": 396, "pitch": 66, "duration": 6, "velocity": 64}, {"time": 402, "pitch": 68, "duration": 6, "velocity": 64}, {"time": 408, "pitch": 71, "duration": 24, "velocity": 64}, {"time": 432, "pitch": 73, "duration": 6, "velocity": 64}, {"time": 438, "pitch": 71, "duration": 6, "velocity": 64}, {"time": 444, "pitch": 73, "duration": 6, "velocity": 64}, {"time": 450, "pitch": 76, "duration": 6, "velocity": 64}, {"time": 456, "pitch": 71, "duration": 18, "velocity": 64}, {"time": 474, "pitch": 68, "duration": 6, "velocity": 64}, {"time": 480, "pitch": 66, "duration": 6, "velocity": 64}, {"time": 486, "pitch": 68, "duration": 6, "velocity": 64}, {"time": 492, "pitch": 66, "duration": 6, "velocity": 64}, {"time": 498, "pitch": 64, "duration": 6, "velocity": 64}, {"time": 504, "pitch": 64, "duration": 12, "velocity": 64}, {"time": 516, "pitch": 61, "duration": 24, "velocity": 64}, {"time": 540, "pitch": 64, "duration": 12, "velocity": 64}, {"time": 552, "pitch": 66, "duration": 12, "velocity": 64}, {"time": 564, "pitch": 68, "duration": 12, "velocity": 64}, {"time": 576, "pitch": 64, "duration": 12, "velocity": 64}, {"time": 588, "pitch": 61, "duration": 12, "velocity": 64}, {"time": 600, "pitch": 59, "duration": 24, "velocity": 64}, {"time": 624, "pitch": 59, "duration": 18, "velocity": 64}, {"time": 642, "pitch": 61, "duration": 6, "velocity": 64}, {"time": 648, "pitch": 64, "duration": 12, "velocity": 64}, {"time": 660, "pitch": 66, "duration": 12, "velocity": 64}, {"time": 672, "pitch": 64, "duration": 12, "velocity": 64}, {"time": 684, "pitch": 61, "duration": 12, "velocity": 64}, {"time": 696, "pitch": 59, "duration": 36, "velocity": 64}, {"time": 732, "pitch": 61, "duration": 12, "velocity": 64}, {"time": 744, "pitch": 59, "duration": 48, "velocity": 64}]}]}