{"metadata": {"schema_version": "0.1", "title": "Taishan jing", "source_format": "abc"}, "resolution": 24, "tempos": [{"time": 0, "qpm": 120.0}], "key_signatures": [{"time": 0, "root": 0, "mode": "major", "fifths": 0}], "time_signatures": [{"time": 0, "numerator": 4, "denominator": 4}], "beats": [{"time": 0, "is_downbeat": true}, {"time": 24, "is_downbeat": false}, {"time": 48, "is_downbeat": false}, {"time": 72, "is_downbeat": false}, {"time": 96, "is_downbeat": true}, {"time": 120, "is_downbeat": false}, {"time": 144, "is_downbeat": false}, {"time": 168, "is_downbeat": false}, {"time": 192, "is_downbeat": true}, {"time": 216, "is_downbeat": false}, {"time": 240, "is_downbeat": false}, {"time": 264, "is_downbeat": false}, {"time": 288, "is_downbeat": true}, {"time": 312, "is_downbeat": false}, {"time": 336, "is_downbeat": false}, {"time": 360, "is_downbeat": false}, {"time": 384, "is_downbeat": true}, {"time": 408, "is_downbeat": false}, {"time": 432, "is_downbeat": false}, {"time": 456, "is_downbeat": false}, {"time": 480, "is_downbeat": true}, {"time": 504, "is_downbeat": false}, {"time": 528, "is_downbeat": false}, {"time": 552, "is_downbeat": false}, {"time": 576, "is_downbeat": true}, {"time": 600, "is_downbeat": false}, {"time": 624, "is_downbeat": false}, {"time": 648, "is_downbeat": false}, {"time": 672, "is_downbeat": true}, {"time": 696, "is_downbeat": false}, {"time": 720, "is_downbeat": false}, {"time": 744, "is_downbeat": false}, {"time": 768, "is_downbeat": true}, {"time": 792, "is_downbeat": false}, {"time": 816, "is_downbeat": false}, {"time": 840, "is_downbeat": false}, {"time": 864, "is_downbeat": true}, {"time": 888, "is_downbeat": false}, {"time": 912, "is_downbeat": false}, {"time": 936, "is_downbeat": false}, {"time": 960, "is_downbeat": true}, {"time": 984, "is_downbeat": false}, {"time": 1008, "is_downbeat": false}, {"time": 1032, "is_downbeat": false}, {"time": 1056, "is_downbeat": true}, {"time": 1080, "is_downbeat": false}, {"time": 1104, "is_downbeat": false}, {"time": 1128, "is_downbeat": false}, {"time": 1152, "is_downbeat": true}, {"time": 1176, "is_downbeat": false}, {"time": 1200, "is_downbeat": false}, {"time": 1224, "is_downbeat": false}, {"time": 1248, "is_downbeat": true}, {"time": 1272, "is_downbeat": false}, {"time": 1296, "is_downbeat": false}, {"time": 1320, "is_downbeat": false}, {"time": 1344, "is_downbeat": true}, {"time": 1368, "is_downbeat": false}, {"time": 1392, "is_downbeat": false}, {"time": 1416, "is_downbeat": false}, {"time": 1440, "is_downbeat": true}, {"time": 1464, "is_downbeat": false}, {"time": 1488, "is_downbeat": false}, {"time": 1512, "is_downbeat": false}, {"time": 1536, "is_downbeat": true}, {"time": 1560, "is_downbeat": false}, {"time": 1584, "is_downbeat": false}, {"time": 1608, "is_downbeat": false}, {"time": 1632, "is_downbeat": true}, {"time": 1656, "is_downbeat": false}, {"time": 1680, "is_downbeat": false}, {"time": 1704, "is_downbeat": false}, {"time": 1728, "is_downbeat": true}, {"time": 1752, "is_downbeat": false}, {"time": 1776, "is_downbeat": false}, {"time": 1800, "is_downbeat": false}, {"time": 1824, "is_downbeat": true}, {"time": 1848, "is_downbeat": false}, {"time": 1872, "is_downbeat": false}, {"time": 1896, "is_downbeat": false}, {"time": 1920, "is_downbeat": true}, {"time": 1944, "is_downbeat": false}, {"time": 1968, "is_downbeat": false}, {"time": 1992, "is_downbeat": false}, {"time": 2016, "is_downbeat": true}, {"time": 2040, "is_downbeat": false}, {"time": 2064, "is_downbeat": false}, {"time": 2088, "is_downbeat": false}, {"time": 2112, "is_downbeat": true}, {"time": 2136, "is_downbeat": false}, {"time": 2160, "is_downbeat": false}, {"time": 2184, "is_downbeat": false}, {"time": 2208, "is_downbeat": true}, {"time": 2232, "is_downbeat": false}, {"time": 2256, "is_downbeat": false}, {"time": 2280, "is_downbeat": false}, {"time": 2304, "is_downbeat": true}, {"time": 2328, "is_downbeat": false}, {"time": 2352, "is_downbeat": false}, {"time": 2376, "is_downbeat": false}, {"time": 2400, "is_downbeat": true}, {"time": 2424, "is_downbeat": false}, {"time": 2448, "is_downbeat": false}, {"time": 2472, "is_downbeat": false}, {"time": 2496, "is_downbeat": true}, {"time": 2520, "is_downbeat": false}, {"time": 2544, "is_downbeat": false}, {"time": 2568, "is_downbeat": false}, {"time": 2592, "is_downbeat": true}, {"time": 2616, "is_downbeat": false}, {"time": 2640, "is_downbeat": false}, {"time": 2664, "is_downbeat": false}, {"time": 2688, "is_downbeat": true}, {"time": 2712, "is_downbeat": false}, {"time": 2736, "is_downbeat": false}, {"time": 2760, "is_downbeat": false}, {"time": 2784, "is_downbeat": true}, {"time": 2808, "is_downbeat": false}, {"time": 2832, "is_downbeat": false}, {"time": 2856, "is_downbeat": false}, {"time": 2880, "is_downbeat": true}, {"time": 2904, "is_downbeat": false}, {"time": 2928, "is_downbeat": false}, {"time": 2952, "is_downbeat": false}, {"time": 2976, "is_downbeat": true}, {"time": 3000, "is_downbeat": false}, {"time": 3024, "is_downbeat": true}, {"time": 3048, "is_downbeat": false}, {"time": 3072, "is_downbeat": true}, {"time": 3096, "is_downbeat": false}, {"time": 3120, "is_downbeat": false}, {"time": 3144, "is_downbeat": false}, {"time": 3168, "is_downbeat": true}, {"time": 3192, "is_downbeat": false}, {"time": 3216, "is_downbeat": false}, {"time": 3240, "is_downbeat": false}, {"time": 3264, "is_downbeat": true}, {"time": 3288, "is_downbeat": false}, {"time": 3312, "is_downbeat": false}, {"time": 3336, "is_downbeat": false}, {"time": 3360, "is_downbeat": true}, {"time": 3384, "is_downbeat": false}, {"time": 3408, "is_downbeat": false}, {"time": 3432, "is_downbeat": false}, {"time": 3456, "is_downbeat": true}, {"time": 3480, "is_downbeat": false}, {"time": 3504, "is_downbeat": false}, {"time": 3528, "is_downbeat": false}, {"time": 3552, "is_downbeat": true}, {"time": 3576, "is_downbeat": false}, {"time": 3600, "is_downbeat": false}, {"time": 3624, "is_downbeat": false}, {"time": 3648, "is_downbeat": true}, {"time": 3672, "is_downbeat": false}, {"time": 3696, "is_downbeat": false}, {"time": 3720, "is_downbeat": false}, {"time": 3744, "is_downbeat": true}, {"time": 3768, "is_downbeat": false}, {"time": 3792, "is_downbeat": false}, {"time": 3816, "is_downbeat": false}, {"time": 3840, "is_downbeat": true}, {"time": 3864, "is_downbeat": false}, {"time": 3888, "is_downbeat": true}, {"time": 3912, "is_downbeat": false}, {"time": 3936, "is_downbeat": true}, {"time": 3960, "is_downbeat": false}, {"time": 3984, "is_downbeat": false}, {"time": 4008, "is_downbeat": false}, {"time": 4032, "is_downbeat": true}, {"time": 4056, "is_downbeat": false}, {"time": 4080, "is_downbeat": false}, {"time": 4104, "is_downbeat": false}, {"time": 4128, "is_downbeat": true}, {"time": 4152, "is_downbeat": false}, {"time": 4176, "is_downbeat": false}, {"time": 4200, "is_downbeat": false}, {"time": 4224, "is_downbeat": true}, {"time": 4248, "is_downbeat": false}, {"time": 4272, "is_downbeat": false}, {"time": 4296, "is_downbeat": false}, {"time": 4320, "is_downbeat": true}, {"time": 4344, "is_downbeat": false}, {"time": 4368, "is_downbeat": false}, {"time": 4392, "is_downbeat": false}, {"time": 4416, "is_downbeat": true}, {"time": 4440, "is_downbeat": false}, {"time": 4464, "is_downbeat": false}, {"time": 4488, "is_downbeat": false}, {"time": 4512, "is_downbeat": true}, {"time": 4536, "is_downbeat": false}, {"time": 4560, "is_downbeat": false}, {"time": 4584, "is_downbeat": false}, {"time": 4608, "is_downbeat": true}, {"time": 4632, "is_downbeat": false}, {"time": 4656, "is_downbeat": false}, {"time": 4680, "is_downbeat": false}, {"time": 4704, "is_downbeat": true}, {"time": 4728, "is_downbeat": false}, {"time": 4752, "is_downbeat": false}, {"time": 4776, "is_downbeat": false}], "tracks": [{"program": 0, "is_drum": false, "notes": [{"time": 0, "pitch": 72, "duration": 24, "velocity": 64}, {"time": 24, "pitch": 74, "duration": 12, "velocity": 64}, {"time": 36, "pitch": 76, "duration": 12, "velocity": 64}, {"time": 48, "pitch": 74, "duration": 48, "velocity": 64}, {"time": 96, "pitch": 76, "duration": 12, "velocity": 64}, {"time": 108, "pitch": 76, "duration": 12, "velocity": 64}, {"time": 120, "pitch": 74, "duration": 12, "velocity": 64}, {"time": 132, "pitch": 76, "duration": 12, "velocity": 64}, {"time": 144, "pitch": 74, "duration": 12, "velocity": 64}, {"time": 156, "pitch": 79, "duration": 6, "velocity": 64}, {"time": 162, "pitch": 76, "duration": 6, "velocity": 64}, {"time": 168, "pitch": 74, "duration": 48, "velocity": 64}, {"time": 216, "pitch": 76, "duration": 24, "velocity": 64}, {"time": 240, "pitch": 74, "duration": 12, "velocity": 64}, {"time": 252, "pitch": 76, "duration": 12, "velocity": 64}, {"time": 264, "pitch": 74, "duration": 12, "velocity": 64}, {"time": 276, "pitch": 72, "duration": 12, "velocity": 64}, {"time": 288, "pitch": 72, "duration": 12, "velocity": 64}, {"time": 300, "pitch": 69, "duration": 12, "velocity": 64}, {"time": 324, "pitch": 74, "duration": 12, "velocity": 64}, {"time": 336, "pitch": 72, "duration": 48, "velocity": 64}, {"time": 384, "pitch": 72, "duration": 12, "velocity": 64}, {"time": 396, "pitch": 72, "duration": 6, "velocity": 64}, {"time": 402, "pitch": 69, "duration": 6, "velocity": 64}, {"time": 408, "pitch": 72, "duration": 12, "velocity": 64}, {"time": 420, "pitch": 74, "duration": 12, "velocity": 64}, {"time": 432, "pitch": 69, "duration": 18, "velocity": 64}, {"time": 450, "pitch": 67, "duration": 6, "velocity": 64}, {"time": 456, "pitch": 64, "duration": 12, "velocity": 64}, {"time": 468, "pitch": 67, "duration": 12, "velocity": 64}, {"time": 492, "pitch": 69, "duration": 12, "velocity": 64}, {"time": 516, "pitch": 71, "duration": 6, "velocity": 64}, {"time": 522, "pitch": 69, "duration": 6, "velocity": 64}, {"time": 528, "pitch": 67, "duration": 18, "velocity": 64}, {"time": 546, "pitch": 69, "duration": 6, "velocity": 64}, {"time": 552, "pitch": 67, "duration": 72, "velocity": 64}, {"time": 624, "pitch": 67, "duration": 18, "velocity": 64}, {"time": 642, "pitch": 69, "duration": 6, "velocity": 64}, {"time": 648, "pitch": 67, "duration": 12, "velocity": 64}, {"time": 660, "pitch": 69, "duration": 12, "velocity": 64}, {"time": 672, "pitch": 72, "duration": 24, "velocity": 64}, {"time": 696, "pitch": 72, "duration": 12, "velocity": 64}, {"time": 708, "pitch": 74, "duration": 12, "velocity": 64}, {"time": 732, "pitch": 79, "duration": 12, "velocity": 64}, {"time": 744, "pitch": 76, "duration": 12, "velocity": 64}, {"time": 756, "pitch": 74, "duration": 12, "velocity": 64}, {"time": 768, "pitch": 79, "duration": 12, "velocity": 64}, {"time": 780, "pitch": 76, "duration": 6, "velocity": 64}, {"time": 786, "pitch": 74, "duration": 6, "velocity": 64}, {"time": 792, "pitch": 76, "duration": 12, "velocity": 64}, {"time": 804, "pitch": 74, "duration": 12, "velocity": 64}, {"time": 828, "pitch": 76, "duration": 12, "velocity": 64}, {"time": 840, "pitch": 74, "duration": 12, "velocity": 64}, {"time": 852, "pitch": 76, "duration": 12, "velocity": 64}, {"time": 864, "pitch": 74, "duration": 6, "velocity": 64}, {"time": 870, "pitch": 76, "duration": 6, "velocity": 64}, {"time": 876, "pitch": 74, "duration": 6, "velocity": 64}, {"time": 882, "pitch": 72, "duration": 6, "velocity": 64}, {"time": 888, "pitch": 69, "duration": 12, "velocity": 64}, {"time": 900, "pitch": 72, "duration": 12, "velocity": 64}, {"time": 924, "pitch": 74, "duration": 12, "velocity": 64}, {"time": 948, "pitch": 76, "duration": 6, "velocity": 64}, {"time": 954, "pitch": 74, "duration": 6, "velocity": 64}, {"time": 960, "pitch": 71, "duration": 18, "velocity": 64}, {"time": 978, "pitch": 74, "duration": 6, "velocity": 64}, {"time": 984, "pitch": 72, "duration": 72, "velocity": 64}, {"time": 1056, "pitch": 76, "duration": 18, "velocity": 64}, {"time": 1074, "pitch": 74, "duration": 6, "velocity": 64}, {"time": 1080, "pitch": 76, "duration": 12, "velocity": 64}, {"time": 1092, "pitch": 74, "duration": 12, "velocity": 64}, {"time": 1104, "pitch": 71, "duration": 18, "velocity": 64}, {"time": 1122, "pitch": 74, "duration": 6, "velocity": 64}, {"time": 1128, "pitch": 72, "duration": 12, "velocity": 64}, {"time": 1140, "pitch": 72, "duration": 12, "velocity": 64}, {"time": 1164, "pitch": 72, "duration": 24, "velocity": 64}, {"time": 1188, "pitch": 74, "duration": 12, "velocity": 64}, {"time": 1200, "pitch": 76, "duration": 18, "velocity": 64}, {"time": 1218, "pitch": 74, "duration": 6, "velocity": 64}, {"time": 1224, "pitch": 72, "duration": 12, "velocity": 64}, {"time": 1236, "pitch": 72, "duration": 12, "velocity": 64}, {"time": 1248, "pitch": 74, "duration": 18, "velocity": 64}, {"time": 1266, "pitch": 71, "duration": 6, "velocity": 64}, {"time": 1272, "pitch": 69, "duration": 6, "velocity": 64}, {"time": 1278, "pitch": 67, "duration": 6, "velocity": 64}, {"time": 1284, "pitch": 69, "duration": 12, "velocity": 64}, {"time": 1308, "pitch": 67, "duration": 24, "velocity": 64}, {"time": 1332, "pitch": 67, "duration": 12, "velocity": 64}, {"time": 1344, "pitch": 67, "duration": 18, "velocity": 64}, {"time": 1362, "pitch": 69, "duration": 6, "velocity": 64}, {"time": 1368, "pitch": 72, "duration": 6, "velocity": 64}, {"time": 1374, "pitch": 69, "duration": 6, "velocity": 64}, {"time": 1380, "pitch": 72, "duration": 12, "velocity": 64}, {"time": 1404, "pitch": 67, "duration": 12, "velocity": 64}, {"time": 1416, "pitch": 64, "duration": 12, "velocity": 64}, {"time": 1428, "pitch": 62, "duration": 12, "velocity": 64}, {"time": 1440, "pitch": 64, "duration": 9, "velocity": 64}, {"time": 1449, "pitch": 67, "duration": 3, "velocity": 64}, {"time": 1452, "pitch": 64, "duration": 6, "velocity": 64}, {"time": 1458, "pitch": 62, "duration": 6, "velocity": 64}, {"time": 1464, "pitch": 60, "duration": 12, "velocity": 64}, {"time": 1476, "pitch": 62, "duration": 6, "velocity": 64}, {"time": 1482, "pitch": 64, "duration": 6, "velocity": 64}, {"time": 1488, "pitch": 60, "duration": 48, "velocity": 64}, {"time": 1536, "pitch": 74, "duration": 12, "velocity": 64}, {"time": 1548, "pitch": 74, "duration": 6, "velocity": 64}, {"time": 1554, "pitch": 69, "duration": 6, "velocity": 64}, {"time": 1560, "pitch": 72, "duration": 12, "velocity": 64}, {"time": 1572, "pitch": 69, "duration": 12, "velocity": 64}, {"time": 1584, "pitch": 72, "duration": 12, "velocity": 64}, {"time": 1596, "pitch": 72, "duration": 6, "velocity": 64}, {"time": 1602, "pitch": 69, "duration": 6, "velocity": 64}, {"time": 1608, "pitch": 72, "duration": 12, "velocity": 64}, {"time": 1620, "pitch": 74, "duration": 12, "velocity": 64}, {"time": 1632, "pitch": 69, "duration": 18, "velocity": 64}, {"time": 1650, "pitch": 67, "duration": 6, "velocity": 64}, {"time": 1656, "pitch": 64, "duration": 12, "velocity": 64}, {"time": 1668, "pitch": 67, "duration": 12, "velocity": 64}, {"time": 1692, "pitch": 69, "duration": 12, "velocity": 64}, {"time": 1716, "pitch": 71, "duration": 6, "velocity": 64}, {"time": 1722, "pitch": 69, "duration": 6, "velocity": 64}, {"time": 1728, "pitch": 67, "duration": 18, "velocity": 64}, {"time": 1746, "pitch": 69, "duration": 6, "velocity": 64}, {"time": 1752, "pitch": 67, "duration": 24, "velocity": 64}, {"time": 1776, "pitch": 67, "duration": 18, "velocity": 64}, {"time": 1794, "pitch": 69, "duration": 6, "velocity": 64}, {"time": 1800, "pitch": 67, "duration": 12, "velocity": 64}, {"time": 1812, "pitch": 69, "duration": 12, "velocity": 64}, {"time": 1824, "pitch": 72, "duration": 24, "velocity": 64}, {"time": 1848, "pitch": 72, "duration": 12, "velocity": 64}, {"time": 1860, "pitch": 74, "duration": 12, "velocity": 64}, {"time": 1884, "pitch": 79, "duration": 12, "velocity": 64}, {"time": 1896, "pitch": 76, "duration": 12, "velocity": 64}, {"time": 1908, "pitch": 74, "duration": 12, "velocity": 64}, {"time": 1920, "pitch": 76, "duration": 12, "velocity": 64}, {"time": 1932, "pitch": 76, "duration": 6, "velocity": 64}, {"time": 1938, "pitch": 74, "duration": 6, "velocity": 64}, {"time": 1944, "pitch": 76, "duration": 12, "velocity": 64}, {"time": 1956, "pitch": 74, "duration": 12, "velocity": 64}, {"time": 1980, "pitch": 76, "duration": 12, "velocity": 64}, {"time": 1992, "pitch": 74, "duration": 12, "velocity": 64}, {"time": 2004, "pitch": 76, "duration": 12, "velocity": 64}, {"time": 2016, "pitch": 74, "duration": 6, "velocity": 64}, {"time": 2022, "pitch": 76, "duration": 6, "velocity": 64}, {"time": 2028, "pitch": 74, "duration": 6, "velocity": 64}, {"time": 2034, "pitch": 72, "duration": 6, "velocity": 64}, {"time": 2040, "pitch": 69, "duration": 12, "velocity": 64}, {"time": 2052, "pitch": 72, "duration": 12, "velocity": 64}, {"time": 2076, "pitch": 74, "duration": 12, "velocity": 64}, {"time": 2100, "pitch": 76, "duration": 6, "velocity": 64}, {"time": 2106, "pitch": 74, "duration": 6, "velocity": 64}, {"time": 2112, "pitch": 71, "duration": 18, "velocity": 64}, {"time": 2130, "pitch": 74, "duration": 6, "velocity": 64}, {"time": 2136, "pitch": 72, "duration": 36, "velocity": 64}, {"time": 2172, "pitch": 76, "duration": 12, "velocity": 64}, {"time": 2184, "pitch": 76, "duration": 12, "velocity": 64}, {"time": 2196, "pitch": 76, "duration": 6, "velocity": 64}, {"time": 2202, "pitch": 74, "duration": 6, "velocity": 64}, {"time": 2208, "pitch": 72, "duration": 12, "velocity": 64}, {"time": 2220, "pitch": 74, "duration": 12, "velocity": 64}, {"time": 2232, "pitch": 72, "duration": 6, "velocity": 64}, {"time": 2238, "pitch": 74, "duration": 6, "velocity": 64}, {"time": 2244, "pitch": 72, "duration": 6, "velocity": 64}, {"time": 2250, "pitch": 69, "duration": 6, "velocity": 64}, {"time": 2256, "pitch": 67, "duration": 18, "velocity": 64}, {"time": 2274, "pitch": 69, "duration": 6, "velocity": 64}, {"time": 2280, "pitch": 72, "duration": 6, "velocity": 64}, {"time": 2286, "pitch": 69, "duration": 6, "velocity": 64}, {"time": 2292, "pitch": 72, "duration": 12, "velocity": 64}, {"time": 2316, "pitch": 72, "duration": 12, "velocity": 64}, {"time": 2328, "pitch": 69, "duration": 6, "velocity": 64}, {"time": 2334, "pitch": 72, "duration": 6, "velocity": 64}, {"time": 2340, "pitch": 69, "duration": 6, "velocity": 64}, {"time": 2346, "pitch": 67, "duration": 6, "velocity": 64}, {"time": 2352, "pitch": 69, "duration": 18, "velocity": 64}, {"time": 2370, "pitch": 67, "duration": 6, "velocity": 64}, {"time": 2376, "pitch": 64, "duration": 12, "velocity": 64}, {"time": 2388, "pitch": 62, "duration": 12, "velocity": 64}, {"time": 2412, "pitch": 67, "duration": 24, "velocity": 64}, {"time": 2436, "pitch": 62, "duration": 12, "velocity": 64}, {"time": 2448, "pitch": 64, "duration": 9, "velocity": 64}, {"time": 2457, "pitch": 67, "duration": 3, "velocity": 64}, {"time": 2460, "pitch": 64, "duration": 6, "velocity": 64}, {"time": 2466, "pitch": 62, "duration": 6, "velocity": 64}, {"time": 2472, "pitch": 60, "duration": 12, "velocity": 64}, {"time": 2484, "pitch": 62, "duration": 6, "velocity": 64}, {"time": 2490, "pitch": 64, "duration": 6, "velocity": 64}, {"time": 2496, "pitch": 60, "duration": 48, "velocity": 64}, {"time": 2544, "pitch": 67, "duration": 18, "velocity": 64}, {"time": 2562, "pitch": 69, "duration": 6, "velocity": 64}, {"time": 2568, "pitch": 67, "duration": 18, "velocity": 64}, {"time": 2586, "pitch": 69, "duration": 6, "velocity": 64}, {"time": 2592, "pitch": 72, "duration": 24, "velocity": 64}, {"time": 2616, "pitch": 72, "duration": 12, "velocity": 64}, {"time": 2628, "pitch": 74, "duration": 12, "velocity": 64}, {"time": 2652, "pitch": 79, "duration": 12, "velocity": 64}, {"time": 2664, "pitch": 76, "duration": 12, "velocity": 64}, {"time": 2676, "pitch": 74, "duration": 12, "velocity": 64}, {"time": 2688, "pitch": 79, "duration": 12, "velocity": 64}, {"time": 2700, "pitch": 76, "duration": 6, "velocity": 64}, {"time": 2706, "pitch": 74, "duration": 6, "velocity": 64}, {"time": 2712, "pitch": 76, "duration": 12, "velocity": 64}, {"time": 2724, "pitch": 74, "duration": 12, "velocity": 64}, {"time": 2748, "pitch": 76, "duration": 12, "velocity": 64}, {"time": 2760, "pitch": 74, "duration": 12, "velocity": 64}, {"time": 2772, "pitch": 76, "duration": 12, "velocity": 64}, {"time": 2784, "pitch": 74, "duration": 6, "velocity": 64}, {"time": 2790, "pitch": 76, "duration": 6, "velocity": 64}, {"time": 2796, "pitch": 74, "duration": 6, "velocity": 64}, {"time": 2802, "pitch": 72, "duration": 6, "velocity": 64}, {"time": 2808, "pitch": 69, "duration": 18, "velocity": 64}, {"time": 2826, "pitch": 72, "duration": 6, "velocity": 64}, {"time": 2844, "pitch": 74, "duration": 12, "velocity": 64}, {"time": 2868, "pitch": 76, "duration": 6, "velocity": 64}, {"time": 2874, "pitch": 74, "duration": 6, "velocity": 64}, {"time": 2880, "pitch": 71, "duration": 18, "velocity": 64}, {"time": 2898, "pitch": 74, "duration": 6, "velocity": 64}, {"time": 2904, "pitch": 72, "duration": 48, "velocity": 64}, {"time": 2976, "pitch": 67, "duration": 18, "velocity": 64}, {"time": 2994, "pitch": 69, "duration": 6, "velocity": 64}, {"time": 3000, "pitch": 67, "duration": 12, "velocity": 64}, {"time": 3012, "pitch": 69, "duration": 12, "velocity": 64}, {"time": 3024, "pitch": 67, "duration": 12, "velocity": 64}, {"time": 3036, "pitch": 72, "duration": 12, "velocity": 64}, {"time": 3048, "pitch": 67, "duration": 18, "velocity": 64}, {"time": 3066, "pitch": 67, "duration": 6, "velocity": 64}, {"time": 3072, "pitch": 67, "duration": 12, "velocity": 64}, {"time": 3084, "pitch": 69, "duration": 12, "velocity": 64}, {"time": 3096, "pitch": 67, "duration": 24, "velocity": 64}, {"time": 3120, "pitch": 67, "duration": 12, "velocity": 64}, {"time": 3132, "pitch": 69, "duration": 12, "velocity": 64}, {"time": 3144, "pitch": 67, "duration": 18, "velocity": 64}, {"time": 3162, "pitch": 72, "duration": 6, "velocity": 64}, {"time": 3168, "pitch": 72, "duration": 12, "velocity": 64}, {"time": 3180, "pitch": 64, "duration": 6, "velocity": 64}, {"time": 3186, "pitch": 69, "duration": 6, "velocity": 64}, {"time": 3192, "pitch": 67, "duration": 24, "velocity": 64}, {"time": 3216, "pitch": 67, "duration": 18, "velocity": 64}, {"time": 3234, "pitch": 69, "duration": 6, "velocity": 64}, {"time": 3240, "pitch": 67, "duration": 12, "velocity": 64}, {"time": 3252, "pitch": 69, "duration": 12, "velocity": 64}, {"time": 3264, "pitch": 72, "duration": 12, "velocity": 64}, {"time": 3276, "pitch": 64, "duration": 6, "velocity": 64}, {"time": 3282, "pitch": 69, "duration": 6, "velocity": 64}, {"time": 3288, "pitch": 67, "duration": 24, "velocity": 64}, {"time": 3312, "pitch": 67, "duration": 18, "velocity": 64}, {"time": 3330, "pitch": 69, "duration": 6, "velocity": 64}, {"time": 3336, "pitch": 67, "duration": 12, "velocity": 64}, {"time": 3348, "pitch": 69, "duration": 12, "velocity": 64}, {"time": 3360, "pitch": 67, "duration": 12, "velocity": 64}, {"time": 3372, "pitch": 72, "duration": 12, "velocity": 64}, {"time": 3384, "pitch": 67, "duration": 24, "velocity": 64}, {"time": 3408, "pitch": 67, "duration": 12, "velocity": 64}, {"time": 3420, "pitch": 69, "duration": 12, "velocity": 64}, {"time": 3432, "pitch": 67, "duration": 12, "velocity": 64}, {"time": 3444, "pitch": 69, "duration": 12, "velocity": 64}, {"time": 3456, "pitch": 72, "duration": 12, "velocity": 64}, {"time": 3468, "pitch": 64, "duration": 6, "velocity": 64}, {"time": 3474, "pitch": 69, "duration": 6, "velocity": 64}, {"time": 3480, "pitch": 67, "duration": 24, "velocity": 64}, {"time": 3504, "pitch": 67, "duration": 18, "velocity": 64}, {"time": 3522, "pitch": 69, "duration": 6, "velocity": 64}, {"time": 3528, "pitch": 67, "duration": 12, "velocity": 64}, {"time": 3540, "pitch": 69, "duration": 12, "velocity": 64}, {"time": 3552, "pitch": 67, "duration": 12, "velocity": 64}, {"time": 3564, "pitch": 67, "duration": 6, "velocity": 64}, {"time": 3570, "pitch": 72, "duration": 6, "velocity": 64}, {"time": 3576, "pitch": 67, "duration": 24, "velocity": 64}, {"time": 3600, "pitch": 67, "duration": 18, "velocity": 64}, {"time": 3618, "pitch": 69, "duration": 6, "velocity": 64}, {"time": 3624, "pitch": 67, "duration": 12, "velocity": 64}, {"time": 3636, "pitch": 69, "duration": 12, "velocity": 64}, {"time": 3648, "pitch": 72, "duration": 12, "velocity": 64}, {"time": 3660, "pitch": 64, "duration": 6, "velocity": 64}, {"time": 3666, "pitch": 69, "duration": 6, "velocity": 64}, {"time": 3672, "pitch": 67, "duration": 24, "velocity": 64}, {"time": 3696, "pitch": 67, "duration": 18, "velocity": 64}, {"time": 3714, "pitch": 69, "duration": 6, "velocity": 64}, {"time": 3720, "pitch": 67, "duration": 12, "velocity": 64}, {"time": 3732, "pitch": 69, "duration": 12, "velocity": 64}, {"time": 3744, "pitch": 67, "duration": 12, "velocity": 64}, {"time": 3756, "pitch": 72, "duration": 12, "velocity": 64}, {"time": 3768, "pitch": 72, "duration": 24, "velocity": 64}, {"time": 3792, "pitch": 74, "duration": 12, "velocity": 64}, {"time": 3804, "pitch": 76, "duration": 6, "velocity": 64}, {"time": 3810, "pitch": 74, "duration": 6, "velocity": 64}, {"time": 3816, "pitch": 72, "duration": 24, "velocity": 64}, {"time": 3840, "pitch": 72, "duration": 24, "velocity": 64}, {"time": 3864, "pitch": 72, "duration": 18, "velocity": 64}, {"time": 3882, "pitch": 72, "duration": 6, "velocity": 64}, {"time": 3888, "pitch": 74, "duration": 18, "velocity": 64}, {"time": 3906, "pitch": 72, "duration": 6, "velocity": 64}, {"time": 3912, "pitch": 72, "duration": 24, "velocity": 64}, {"time": 3936, "pitch": 74, "duration": 12, "velocity": 64}, {"time": 3948, "pitch": 76, "duration": 6, "velocity": 64}, {"time": 3954, "pitch": 74, "duration": 6, "velocity": 64}, {"time": 3960, "pitch": 72, "duration": 6, "velocity": 64}, {"time": 3966, "pitch": 74, "duration": 6, "velocity": 64}, {"time": 3972, "pitch": 72, "duration": 12, "velocity": 64}, {"time": 3996, "pitch": 76, "duration": 12, "velocity": 64}, {"time": 4008, "pitch": 74, "duration": 12, "velocity": 64}, {"time": 4020, "pitch": 76, "duration": 6, "velocity": 64}, {"time": 4026, "pitch": 74, "duration": 6, "velocity": 64}, {"time": 4032, "pitch": 72, "duration": 12, "velocity": 64}, {"time": 4044, "pitch": 74, "duration": 12, "velocity": 64}, {"time": 4056, "pitch": 72, "duration": 6, "velocity": 64}, {"time": 4062, "pitch": 74, "duration": 6, "velocity": 64}, {"time": 4068, "pitch": 72, "duration": 6, "velocity": 64}, {"time": 4074, "pitch": 69, "duration": 6, "velocity": 64}, {"time": 4080, "pitch": 67, "duration": 18, "velocity": 64}, {"time": 4098, "pitch": 69, "duration": 6, "velocity": 64}, {"time": 4104, "pitch": 72, "duration": 6, "velocity": 64}, {"time": 4110, "pitch": 69, "duration": 6, "velocity": 64}, {"time": 4116, "pitch": 72, "duration": 12, "velocity": 64}, {"time": 4140, "pitch": 72, "duration": 12, "velocity": 64}, {"time": 4152, "pitch": 69, "duration": 12, "velocity": 64}, {"time": 4164, "pitch": 67, "duration": 12, "velocity": 64}, {"time": 4176, "pitch": 69, "duration": 18, "velocity": 64}, {"time": 4194, "pitch": 67, "duration": 6, "velocity": 64}, {"time": 4200, "pitch": 64, "duration": 12, "velocity": 64}, {"time": 4212, "pitch": 62, "duration": 12, "velocity": 64}, {"time": 4236, "pitch": 67, "duration": 24, "velocity": 64}, {"time": 4260, "pitch": 62, "duration": 12, "velocity": 64}, {"time": 4272, "pitch": 64, "duration": 9, "velocity": 64}, {"time": 4281, "pitch": 67, "duration": 3, "velocity": 64}, {"time": 4284, "pitch": 64, "duration": 6, "velocity": 64}, {"time": 4290, "pitch": 62, "duration": 6, "velocity": 64}, {"time": 4296, "pitch": 60, "duration": 12, "velocity": 64}, {"time": 4308, "pitch": 62, "duration": 6, "velocity": 64}, {"time": 4314, "pitch": 64, "duration": 6, "velocity": 64}, {"time": 4320, "pitch": 60, "duration": 48, "velocity": 64}, {"time": 4368, "pitch": 67, "duration": 18, "velocity": 64}, {"time": 4386, "pitch": 69, "duration": 6, "velocity": 64}, {"time": 4392, "pitch": 67, "duration": 12, "velocity": 64}, {"time": 4404, "pitch": 69, "duration": 12, "velocity": 64}, {"time": 4416, "pitch": 72, "duration": 24, "velocity": 64}, {"time": 4440, "pitch": 72, "duration": 12, "velocity": 64}, {"time": 4452, "pitch": 74, "duration": 12, "velocity": 64}, {"time": 4476, "pitch": 79, "duration": 12, "velocity": 64}, {"time": 4488, "pitch": 76, "duration": 12, "velocity": 64}, {"time": 4500, "pitch": 74, "duration": 12, "velocity": 64}, {"time": 4512, "pitch": 79, "duration": 12, "velocity": 64}, {"time": 4524, "pitch": 76, "duration": 6, "velocity": 64}, {"time": 4530, "pitch": 74, "duration": 6, "velocity": 64}, {"time": 4536, "pitch": 76, "duration": 12, "velocity": 64}, {"time": 4548, "pitch": 74, "duration": 12, "velocity": 64}, {"time": 4572, "pitch": 76, "duration": 12, "velocity": 64}, {"time": 4584, "pitch": 74, "duration": 12, "velocity": 64}, {"time": 4596, "pitch": 76, "duration": 12, "velocity": 64}, {"time": 4608, "pitch": 74, "duration": 6, "velocity": 64}, {"time": 4614, "pitch": 76, "duration": 6, "velocity": 64}, {"time": 4620, "pitch": 74, "duration": 6, "velocity": 64}, {"time": 4626, "pitch": 72, "duration": 6, "velocity": 64}, {"time": 4632, "pitch": 69, "duration": 12, "velocity": 64}, {"time": 4644, "pitch": 72, "duration": 12, "velocity": 64}, {"time": 4668, "pitch": 74, "duration": 12, "velocity": 64}, {"time": 4692, "pitch": 76, "duration": 6, "velocity": 64}, {"time": 4698, "pitch": 74, "duration": 6, "velocity": 64}, {"time": 4704, "pitch": 71, "duration": 18, "velocity": 64}, {"time": 4722, "pitch": 74, "duration": 6, "velocity": 64}, {"time": 4728, "pitch": 72, "duration": 48, "velocity": 64}]}]}