{"metadata": {"schema_version": "0.1", "title": "Sipan", "source_format": "abc"}, "resolution": 24, "tempos": [{"time": 0, "qpm": 120.0}], "key_signatures": [{"time": 0, "root": 4, "mode": "major", "fifths": 4}], "time_signatures": [{"time": 0, "numerator": 4, "denominator": 4}, {"time": 192, "numerator": 1, "denominator": 4}, {"time": 720, "numerator": 1, "denominator": 4}, {"time": 864, "numerator": 1, "denominator": 4}, {"time": 1200, "numerator": 1, "denominator": 4}, {"time": 1488, "numerator": 1, "denominator": 4}, {"time": 2040, "numerator": 1, "denominator": 4}, {"time": 2232, "numerator": 1, "denominator": 4}, {"time": 2424, "numerator": 1, "denominator": 4}, {"time": 2448, "numerator": 3, "denominator": 4}], "beats": [{"time": 0, "is_downbeat": true}, {"time": 24, "is_downbeat": true}, {"time": 48, "is_downbeat": true}, {"time": 72, "is_downbeat": true}, {"time": 96, "is_downbeat": true}, {"time": 120, "is_downbeat": true}, {"time": 144, "is_downbeat": true}, {"time": 168, "is_downbeat": true}, {"time": 192, "is_downbeat": true}, {"time": 216, "is_downbeat": true}, {"time": 240, "is_downbeat": true}, {"time": 264, "is_downbeat": true}, {"time": 288, "is_downbeat": true}, {"time": 312, "is_downbeat": true}, {"time": 336, "is_downbeat": true}, {"time": 360, "is_downbeat": true}, {"time": 384, "is_downbeat": true}, {"time": 408, "is_downbeat": true}, {"time": 432, "is_downbeat": true}, {"time": 456, "is_downbeat": true}, {"time": 480, "is_downbeat": true}, {"time": 504, "is_downbeat": true}, {"time": 528, "is_downbeat": true}, {"time": 552, "is_downbeat": true}, {"time": 576, "is_downbeat": true}, {"time": 600, "is_downbeat": true}, {"time": 624, "is_downbeat": true}, {"time": 648, "is_downbeat": true}, {"time": 672, "is_downbeat": true}, {"time": 696, "is_downbeat": true}, {"time": 720, "is_downbeat": true}, {"time": 744, "is_downbeat": true}, {"time": 768, "is_downbeat": true}, {"time": 792, "is_downbeat": true}, {"time": 816, "is_downbeat": true}, {"time": 840, "is_downbeat": true}, {"time": 864, "is_downbeat": true}, {"time": 888, "is_downbeat": true}, {"time": 912, "is_downbeat": true}, {"time": 936, "is_downbeat": true}, {"time": 960, "is_downbeat": true}, {"time": 984, "is_downbeat": true}, {"time": 1008, "is_downbeat": true}, {"time": 1032, "is_downbeat": true}, {"time": 1056, "is_downbeat": true}, {"time": 1080, "is_downbeat": true}, {"time": 1104, "is_downbeat": true}, {"time": 1128, "is_downbeat": true}, {"time": 1152, "is_downbeat": true}, {"time": 1176, "is_downbeat": true}, {"time": 1200, "is_downbeat": true}, {"time": 1224, "is_downbeat": true}, {"time": 1248, "is_downbeat": true}, {"time": 1272, "is_downbeat": true}, {"time": 1296, "is_downbeat": true}, {"time": 1320, "is_downbeat": true}, {"time": 1344, "is_downbeat": true}, {"time": 1368, "is_downbeat": true}, {"time": 1392, "is_downbeat": true}, {"time": 1416, "is_downbeat": true}, {"time": 1440, "is_downbeat": true}, {"time": 1464, "is_downbeat": true}, {"time": 1488, "is_downbeat": true}, {"time": 1512, "is_downbeat": true}, {"time": 1536, "is_downbeat": true}, {"time": 1560, "is_downbeat": true}, {"time": 1584, "is_downbeat": true}, {"time": 1608, "is_downbeat": true}, {"time": 1632, "is_downbeat": true}, {"time": 1656, "is_downbeat": true}, {"time": 1680, "is_downbeat": true}, {"time": 1704, "is_downbeat": true}, {"time": 1728, "is_downbeat": true}, {"time": 1752, "is_downbeat": true}, {"time": 1776, "is_downbeat": true}, {"time": 1800, "is_downbeat": true}, {"time": 1824, "is_downbeat": true}, {"time": 1848, "is_downbeat": true}, {"time": 1872, "is_downbeat": true}, {"time": 1896, "is_downbeat": true}, {"time": 1920, "is_downbeat": true}, {"time": 1944, "is_downbeat": true}, {"time": 1968, "is_downbeat": true}, {"time": 1992, "is_downbeat": true}, {"time": 2016, "is_downbeat": true}, {"time": 2040, "is_downbeat": true}, {"time": 2064, "is_downbeat": true}, {"time": 2088, "is_downbeat": true}, {"time": 2112, "is_downbeat": true}, {"time": 2136, "is_downbeat": true}, {"time": 2160, "is_downbeat": true}, {"time": 2184, "is_downbeat": true}, {"time": 2208, "is_downbeat": true}, {"time": 2232, "is_downbeat": true}, {"time": 2256, "is_downbeat": true}, {"time": 2280, "is_downbeat": true}, {"time": 2304, "is_downbeat": true}, {"time": 2328, "is_downbeat": true}, {"time": 2352, "is_downbeat": true}, {"time": 2376, "is_downbeat": true}, {"time": 2400, "is_downbeat": true}, {"time": 2424, "is_downbeat": true}, {"time": 2448, "is_downbeat": true}, {"time": 2472, "is_downbeat": false}, {"time": 2496, "is_downbeat": true}, {"time": 2520, "is_downbeat": false}, {"time": 2544, "is_downbeat": true}, {"time": 2568, "is_downbeat": false}, {"time": 2592, "is_downbeat": false}], "tracks": [{"program": 0, "is_drum": false, "notes": [{"time": 0, "pitch": 76, "duration": 12, "velocity": 64}, {"time": 12, "pitch": 76, "duration": 12, "velocity": 64}, {"time": 24, "pitch": 73, "duration": 6, "velocity": 64}, {"time": 30, "pitch": 76, "duration": 6, "velocity": 64}, {"time": 36, "pitch": 73, "duration": 12, "velocity": 64}, {"time": 48, "pitch": 71, "duration": 12, "velocity": 64}, {"time": 60, "pitch": 73, "duration": 12, "velocity": 64}, {"time": 72, "pitch": 71, "duration": 36, "velocity": 64}, {"time": 108, "pitch": 68, "duration": 6, "velocity": 64}, {"time": 114, "pitch": 66, "duration": 6, "velocity": 64}, {"time": 120, "pitch": 64, "duration": 18, "velocity": 64}, {"time": 138, "pitch": 66, "duration": 6, "velocity": 64}, {"time": 144, "pitch": 68, "duration": 24, "velocity": 64}, {"time": 168, "pitch": 73, "duration": 18, "velocity": 64}, {"time": 186, "pitch": 71, "duration": 6, "velocity": 64}, {"time": 192, "pitch": 68, "duration": 6, "velocity": 64}, {"time": 198, "pitch": 71, "duration": 6, "velocity": 64}, {"time": 204, "pitch": 76, "duration": 6, "velocity": 64}, {"time": 210, "pitch": 73, "duration": 6, "velocity": 64}, {"time": 216, "pitch": 71, "duration": 18, "velocity": 64}, {"time": 234, "pitch": 68, "duration": 6, "velocity": 64}, {"time": 240, "pitch": 66, "duration": 6, "velocity": 64}, {"time": 246, "pitch": 68, "duration": 6, "velocity": 64}, {"time": 252, "pitch": 66, "duration": 6, "velocity": 64}, {"time": 258, "pitch": 64, "duration": 6, "velocity": 64}, {"time": 264, "pitch": 61, "duration": 24, "velocity": 64}, {"time": 288, "pitch": 71, "duration": 12, "velocity": 64}, {"time": 300, "pitch": 71, "duration": 12, "velocity": 64}, {"time": 312, "pitch": 68, "duration": 6, "velocity": 64}, {"time": 318, "pitch": 66, "duration": 6, "velocity": 64}, {"time": 324, "pitch": 64, "duration": 12, "velocity": 64}, {"time": 336, "pitch": 66, "duration": 6, "velocity": 64}, {"time": 342, "pitch": 68, "duration": 6, "velocity": 64}, {"time": 348, "pitch": 66, "duration": 6, "velocity": 64}, {"time": 354, "pitch": 64, "duration": 6, "velocity": 64}, {"time": 360, "pitch": 61, "duration": 24, "velocity": 64}, {"time": 384, "pitch": 71, "duration": 18, "velocity": 64}, {"time": 402, "pitch": 73, "duration": 6, "velocity": 64}, {"time": 408, "pitch": 76, "duration": 12, "velocity": 64}, {"time": 420, "pitch": 76, "duration": 12, "velocity": 64}, {"time": 432, "pitch": 73, "duration": 18, "velocity": 64}, {"time": 450, "pitch": 71, "duration": 6, "velocity": 64}, {"time": 456, "pitch": 68, "duration": 6, "velocity": 64}, {"time": 462, "pitch": 71, "duration": 6, "velocity": 64}, {"time": 468, "pitch": 73, "duration": 6, "velocity": 64}, {"time": 474, "pitch": 76, "duration": 6, "velocity": 64}, {"time": 480, "pitch": 71, "duration": 18, "velocity": 64}, {"time": 498, "pitch": 68, "duration": 6, "velocity": 64}, {"time": 504, "pitch": 68, "duration": 24, "velocity": 64}, {"time": 528, "pitch": 66, "duration": 12, "velocity": 64}, {"time": 540, "pitch": 64, "duration": 12, "velocity": 64}, {"time": 552, "pitch": 66, "duration": 6, "velocity": 64}, {"time": 558, "pitch": 64, "duration": 6, "velocity": 64}, {"time": 564, "pitch": 66, "duration": 6, "velocity": 64}, {"time": 570, "pitch": 68, "duration": 6, "velocity": 64}, {"time": 576, "pitch": 71, "duration": 24, "velocity": 64}, {"time": 600, "pitch": 73, "duration": 6, "velocity": 64}, {"time": 606, "pitch": 71, "duration": 6, "velocity": 64}, {"time": 612, "pitch": 73, "duration": 6, "velocity": 64}, {"time": 618, "pitch": 76, "duration": 6, "velocity": 64}, {"time": 624, "pitch": 71, "duration": 18, "velocity": 64}, {"time": 642, "pitch": 73, "duration": 6, "velocity": 64}, {"time": 648, "pitch": 64, "duration": 18, "velocity": 64}, {"time": 666, "pitch": 61, "duration": 6, "velocity": 64}, {"time": 672, "pitch": 64, "duration": 24, "velocity": 64}, {"time": 696, "pitch": 66, "duration": 24, "velocity": 64}, {"time": 720, "pitch": 71, "duration": 12, "velocity": 64}, {"time": 732, "pitch": 68, "duration": 12, "velocity": 64}, {"time": 744, "pitch": 66, "duration": 18, "velocity": 64}, {"time": 762, "pitch": 64, "duration": 6, "velocity": 64}, {"time": 768, "pitch": 61, "duration": 72, "velocity": 64}, {"time": 840, "pitch": 64, "duration": 18, "velocity": 64}, {"time": 858, "pitch": 66, "duration": 6, "velocity": 64}, {"time": 864, "pitch": 68, "duration": 6, "velocity": 64}, {"time": 870, "pitch": 66, "duration": 6, "velocity": 64}, {"time": 876, "pitch": 68, "duration": 12, "velocity": 64}, {"time": 888, "pitch": 68, "duration": 12, "velocity": 64}, {"time": 900, "pitch": 64, "duration": 6, "velocity": 64}, {"time": 906, "pitch": 68, "duration": 6, "velocity": 64}, {"time": 912, "pitch": 66, "duration": 36, "velocity": 64}, {"time": 948, "pitch": 68, "duration": 6, "velocity": 64}, {"time": 954, "pitch": 66, "duration": 6, "velocity": 64}, {"time": 960, "pitch": 64, "duration": 6, "velocity": 64}, {"time": 966, "pitch": 66, "duration": 6, "velocity": 64}, {"time": 972, "pitch": 64, "duration": 6, "velocity": 64}, {"time": 978, "pitch": 61, "duration": 6, "velocity": 64}, {"time": 984, "pitch": 59, "duration": 48, "velocity": 64}, {"time": 1032, "pitch": 64, "duration": 18, "velocity": 64}, {"time": 1050, "pitch": 66, "duration": 6, "velocity": 64}, {"time": 1056, "pitch": 68, "duration": 12, "velocity": 64}, {"time": 1068, "pitch": 68, "duration": 12, "velocity": 64}, {"time": 1080, "pitch": 66, "duration": 18, "velocity": 64}, {"time": 1098, "pitch": 61, "duration": 6, "velocity": 64}, {"time": 1104, "pitch": 64, "duration": 72, "velocity": 64}, {"time": 1176, "pitch": 71, "duration": 24, "velocity": 64}, {"time": 1200, "pitch": 71, "duration": 12, "velocity": 64}, {"time": 1212, "pitch": 68, "duration": 12, "velocity": 64}, {"time": 1224, "pitch": 66, "duration": 24, "velocity": 64}, {"time": 1248, "pitch": 64, "duration": 12, "velocity": 64}, {"time": 1260, "pitch": 61, "duration": 12, "velocity": 64}, {"time": 1272, "pitch": 59, "duration": 36, "velocity": 64}, {"time": 1308, "pitch": 61, "duration": 12, "velocity": 64}, {"time": 1320, "pitch": 64, "duration": 12, "velocity": 64}, {"time": 1332, "pitch": 66, "duration": 12, "velocity": 64}, {"time": 1344, "pitch": 64, "duration": 12, "velocity": 64}, {"time": 1356, "pitch": 61, "duration": 12, "velocity": 64}, {"time": 1368, "pitch": 59, "duration": 36, "velocity": 64}, {"time": 1404, "pitch": 61, "duration": 12, "velocity": 64}, {"time": 1416, "pitch": 59, "duration": 48, "velocity": 64}, {"time": 1464, "pitch": 68, "duration": 24, "velocity": 64}, {"time": 1488, "pitch": 71, "duration": 12, "velocity": 64}, {"time": 1500, "pitch": 66, "duration": 12, "velocity": 64}, {"time": 1512, "pitch": 68, "duration": 48, "velocity": 64}, {"time": 1560, "pitch": 71, "duration": 18, "velocity": 64}, {"time": 1578, "pitch": 73, "duration": 6, "velocity": 64}, {"time": 1584, "pitch": 76, "duration": 12, "velocity": 64}, {"time": 1596, "pitch": 73, "duration": 12, "velocity": 64}, {"time": 1608, "pitch": 71, "duration": 36, "velocity": 64}, {"time": 1644, "pitch": 68, "duration": 6, "velocity": 64}, {"time": 1650, "pitch": 66, "duration": 6, "velocity": 64}, {"time": 1656, "pitch": 64, "duration": 18, "velocity": 64}, {"time": 1674, "pitch": 66, "duration": 6, "velocity": 64}, {"time": 1680, "pitch": 68, "duration": 24, "velocity": 64}, {"time": 1704, "pitch": 71, "duration": 12, "velocity": 64}, {"time": 1716, "pitch": 68, "duration": 6, "velocity": 64}, {"time": 1722, "pitch": 71, "duration": 6, "velocity": 64}, {"time": 1728, "pitch": 73, "duration": 96, "velocity": 64}, {"time": 1824, "pitch": 71, "duration": 12, "velocity": 64}, {"time": 1836, "pitch": 73, "duration": 6, "velocity": 64}, {"time": 1842, "pitch": 71, "duration": 6, "velocity": 64}, {"time": 1848, "pitch": 68, "duration": 12, "velocity": 64}, {"time": 1860, "pitch": 71, "duration": 12, "velocity": 64}, {"time": 1872, "pitch": 76, "duration": 18, "velocity": 64}, {"time": 1890, "pitch": 73, "duration": 6, "velocity": 64}, {"time": 1896, "pitch": 71, "duration": 18, "velocity": 64}, {"time": 1914, "pitch": 68, "duration": 6, "velocity": 64}, {"time": 1920, "pitch": 71, "duration": 12, "velocity": 64}, {"time": 1932, "pitch": 68, "duration": 6, "velocity": 64}, {"time": 1938, "pitch": 66, "duration": 6, "velocity": 64}, {"time": 1944, "pitch": 68, "duration": 6, "velocity": 64}, {"time": 1950, "pitch": 66, "duration": 6, "velocity": 64}, {"time": 1956, "pitch": 64, "duration": 12, "velocity": 64}, {"time": 1968, "pitch": 66, "duration": 6, "velocity": 64}, {"time": 1974, "pitch": 68, "duration": 6, "velocity": 64}, {"time": 1980, "pitch": 66, "duration": 6, "velocity": 64}, {"time": 1986, "pitch": 64, "duration": 6, "velocity": 64}, {"time": 1992, "pitch": 61, "duration": 24, "velocity": 64}, {"time": 2016, "pitch": 71, "duration": 18, "velocity": 64}, {"time": 2034, "pitch": 68, "duration": 6, "velocity": 64}, {"time": 2040, "pitch": 68, "duration": 6, "velocity": 64}, {"time": 2046, "pitch": 71, "duration": 6, "velocity": 64}, {"time": 2052, "pitch": 75, "duration": 6, "velocity": 64}, {"time": 2058, "pitch": 73, "duration": 6, "velocity": 64}, {"time": 2064, "pitch": 68, "duration": 24, "velocity": 64}, {"time": 2088, "pitch": 66, "duration": 12, "velocity": 64}, {"time": 2100, "pitch": 61, "duration": 12, "velocity": 64}, {"time": 2112, "pitch": 64, "duration": 24, "velocity": 64}, {"time": 2136, "pitch": 66, "duration": 72, "velocity": 64}, {"time": 2208, "pitch": 71, "duration": 12, "velocity": 64}, {"time": 2220, "pitch": 73, "duration": 6, "velocity": 64}, {"time": 2226, "pitch": 71, "duration": 6, "velocity": 64}, {"time": 2232, "pitch": 68, "duration": 12, "velocity": 64}, {"time": 2244, "pitch": 71, "duration": 12, "velocity": 64}, {"time": 2256, "pitch": 76, "duration": 18, "velocity": 64}, {"time": 2274, "pitch": 73, "duration": 6, "velocity": 64}, {"time": 2280, "pitch": 71, "duration": 18, "velocity": 64}, {"time": 2298, "pitch": 68, "duration": 6, "velocity": 64}, {"time": 2304, "pitch": 71, "duration": 12, "velocity": 64}, {"time": 2316, "pitch": 68, "duration": 6, "velocity": 64}, {"time": 2322, "pitch": 66, "duration": 6, "velocity": 64}, {"time": 2328, "pitch": 68, "duration": 6, "velocity": 64}, {"time": 2334, "pitch": 66, "duration": 6, "velocity": 64}, {"time": 2340, "pitch": 64, "duration": 12, "velocity": 64}, {"time": 2352, "pitch": 66, "duration": 6, "velocity": 64}, {"time": 2358, "pitch": 68, "duration": 6, "velocity": 64}, {"time": 2364, "pitch": 66, "duration": 6, "velocity": 64}, {"time": 2370, "pitch": 64, "duration": 6, "velocity": 64}, {"time": 2376, "pitch": 61, "duration": 24, "velocity": 64}, {"time": 2400, "pitch": 71, "duration": 18, "velocity": 64}, {"time": 2418, "pitch": 68, "duration": 6, "velocity": 64}, {"time": 2424, "pitch": 68, "duration": 6, "velocity": 64}, {"time": 2430, "pitch": 71, "duration": 6, "velocity": 64}, {"time": 2436, "pitch": 75, "duration": 6, "velocity": 64}, {"time": 2442, "pitch": 73, "duration": 6, "velocity": 64}, {"time": 2448, "pitch": 68, "duration": 24, "velocity": 64}, {"time": 2472, "pitch": 66, "duration": 12, "velocity": 64}, {"time": 2484, "pitch": 61, "duration": 12, "velocity": 64}, {"time": 2496, "pitch": 64, "duration": 24, "velocity": 64}, {"time": 2520, "pitch": 66, "duration": 72, "velocity": 64}]}]}