{"metadata": {"schema_version": "0.1", "title": "Buda haozi lengle tai", "source_format": "abc"}, "resolution": 24, "tempos": [{"time": 0, "qpm": 120.0}], "key_signatures": [{"time": 0, "root": 7, "mode": "major", "fifths": 1}], "time_signatures": [{"time": 0, "numerator": 4, "denominator": 4}, {"time": 432, "numerator": 1, "denominator": 4}, {"time": 696, "numerator": 3, "denominator": 4}, {"time": 1344, "numerator": 1, "denominator": 4}, {"time": 1368, "numerator": 2, "denominator": 4}], "beats": [{"time": 0, "is_downbeat": true}, {"time": 24, "is_downbeat": true}, {"time": 48, "is_downbeat": true}, {"time": 72, "is_downbeat": true}, {"time": 96, "is_downbeat": true}, {"time": 120, "is_downbeat": true}, {"time": 144, "is_downbeat": true}, {"time": 168, "is_downbeat": true}, {"time": 192, "is_downbeat": true}, {"time": 216, "is_downbeat": true}, {"time": 240, "is_downbeat": true}, {"time": 264, "is_downbeat": true}, {"time": 288, "is_downbeat": true}, {"time": 312, "is_downbeat": true}, {"time": 336, "is_downbeat": true}, {"time": 360, "is_downbeat": true}, {"time": 384, "is_downbeat": true}, {"time": 408, "is_downbeat": true}, {"time": 432, "is_downbeat": true}, {"time": 456, "is_downbeat": true}, {"time": 480, "is_downbeat": false}, {"time": 504, "is_downbeat": true}, {"time": 528, "is_downbeat": false}, {"time": 552, "is_downbeat": true}, {"time": 576, "is_downbeat": false}, {"time": 600, "is_downbeat": true}, {"time": 624, "is_downbeat": false}, {"time": 648, "is_downbeat": true}, {"time": 672, "is_downbeat": false}, {"time": 696, "is_downbeat": true}, {"time": 720, "is_downbeat": true}, {"time": 744, "is_downbeat": true}, {"time": 768, "is_downbeat": true}, {"time": 792, "is_downbeat": true}, {"time": 816, "is_downbeat": true}, {"time": 840, "is_downbeat": true}, {"time": 864, "is_downbeat": true}, {"time": 888, "is_downbeat": true}, {"time": 912, "is_downbeat": true}, {"time": 936, "is_downbeat": true}, {"time": 960, "is_downbeat": true}, {"time": 984, "is_downbeat": true}, {"time": 1008, "is_downbeat": true}, {"time": 1032, "is_downbeat": true}, {"time": 1056, "is_downbeat": true}, {"time": 1080, "is_downbeat": true}, {"time": 1104, "is_downbeat": true}, {"time": 1128, "is_downbeat": true}, {"time": 1152, "is_downbeat": true}, {"time": 1176, "is_downbeat": true}, {"time": 1200, "is_downbeat": true}, {"time": 1224, "is_downbeat": true}, {"time": 1248, "is_downbeat": true}, {"time": 1272, "is_downbeat": true}, {"time": 1296, "is_downbeat": true}, {"time": 1320, "is_downbeat": true}, {"time": 1344, "is_downbeat": true}, {"time": 1368, "is_downbeat": true}, {"time": 1392, "is_downbeat": false}, {"time": 1416, "is_downbeat": true}, {"time": 1440, "is_downbeat": false}, {"time": 1464, "is_downbeat": true}, {"time": 1488, "is_downbeat": false}], "tracks": [{"program": 0, "is_drum": false, "notes": [{"time": 0, "pitch": 83, "duration": 12, "velocity": 64}, {"time": 12, "pitch": 81, "duration": 6, "velocity": 64}, {"time": 18, "pitch": 83, "duration": 6, "velocity": 64}, {"time": 24, "pitch": 81, "duration": 72, "velocity": 64}, {"time": 96, "pitch": 79, "duration": 12, "velocity": 64}, {"time": 108, "pitch": 81, "duration": 12, "velocity": 64}, {"time": 120, "pitch": 74, "duration": 12, "velocity": 64}, {"time": 132, "pitch": 76, "duration": 12, "velocity": 64}, {"time": 144, "pitch": 74, "duration": 36, "velocity": 64}, {"time": 180, "pitch": 83, "duration": 4, "velocity": 64}, {"time": 184, "pitch": 74, "duration": 4, "velocity": 64}, {"time": 188, "pitch": 83, "duration": 4, "velocity": 64}, {"time": 192, "pitch": 81, "duration": 48, "velocity": 64}, {"time": 240, "pitch": 79, "duration": 12, "velocity": 64}, {"time": 252, "pitch": 81, "duration": 12, "velocity": 64}, {"time": 264, "pitch": 74, "duration": 12, "velocity": 64}, {"time": 276, "pitch": 81, "duration": 6, "velocity": 64}, {"time": 282, "pitch": 83, "duration": 6, "velocity": 64}, {"time": 288, "pitch": 83, "duration": 6, "velocity": 64}, {"time": 294, "pitch": 81, "duration": 6, "velocity": 64}, {"time": 300, "pitch": 79, "duration": 36, "velocity": 64}, {"time": 336, "pitch": 79, "duration": 12, "velocity": 64}, {"time": 348, "pitch": 81, "duration": 12, "velocity": 64}, {"time": 360, "pitch": 74, "duration": 6, "velocity": 64}, {"time": 366, "pitch": 83, "duration": 6, "velocity": 64}, {"time": 372, "pitch": 81, "duration": 48, "velocity": 64}, {"time": 420, "pitch": 83, "duration": 6, "velocity": 64}, {"time": 426, "pitch": 81, "duration": 6, "velocity": 64}, {"time": 432, "pitch": 79, "duration": 12, "velocity": 64}, {"time": 444, "pitch": 76, "duration": 12, "velocity": 64}, {"time": 456, "pitch": 79, "duration": 6, "velocity": 64}, {"time": 462, "pitch": 79, "duration": 6, "velocity": 64}, {"time": 468, "pitch": 76, "duration": 12, "velocity": 64}, {"time": 504, "pitch": 74, "duration": 6, "velocity": 64}, {"time": 510, "pitch": 83, "duration": 6, "velocity": 64}, {"time": 516, "pitch": 81, "duration": 24, "velocity": 64}, {"time": 540, "pitch": 81, "duration": 4, "velocity": 64}, {"time": 544, "pitch": 83, "duration": 4, "velocity": 64}, {"time": 548, "pitch": 81, "duration": 4, "velocity": 64}, {"time": 552, "pitch": 79, "duration": 48, "velocity": 64}, {"time": 600, "pitch": 81, "duration": 6, "velocity": 64}, {"time": 606, "pitch": 81, "duration": 6, "velocity": 64}, {"time": 612, "pitch": 81, "duration": 6, "velocity": 64}, {"time": 618, "pitch": 83, "duration": 6, "velocity": 64}, {"time": 624, "pitch": 79, "duration": 6, "velocity": 64}, {"time": 630, "pitch": 76, "duration": 6, "velocity": 64}, {"time": 636, "pitch": 79, "duration": 6, "velocity": 64}, {"time": 642, "pitch": 81, "duration": 6, "velocity": 64}, {"time": 648, "pitch": 81, "duration": 12, "velocity": 64}, {"time": 660, "pitch": 79, "duration": 6, "velocity": 64}, {"time": 666, "pitch": 76, "duration": 6, "velocity": 64}, {"time": 672, "pitch": 81, "duration": 6, "velocity": 64}, {"time": 678, "pitch": 79, "duration": 6, "velocity": 64}, {"time": 684, "pitch": 76, "duration": 36, "velocity": 64}, {"time": 720, "pitch": 79, "duration": 12, "velocity": 64}, {"time": 732, "pitch": 81, "duration": 12, "velocity": 64}, {"time": 744, "pitch": 74, "duration": 6, "velocity": 64}, {"time": 750, "pitch": 83, "duration": 6, "velocity": 64}, {"time": 756, "pitch": 81, "duration": 24, "velocity": 64}, {"time": 780, "pitch": 83, "duration": 6, "velocity": 64}, {"time": 786, "pitch": 81, "duration": 6, "velocity": 64}, {"time": 792, "pitch": 79, "duration": 12, "velocity": 64}, {"time": 804, "pitch": 76, "duration": 12, "velocity": 64}, {"time": 816, "pitch": 79, "duration": 12, "velocity": 64}, {"time": 828, "pitch": 81, "duration": 6, "velocity": 64}, {"time": 834, "pitch": 83, "duration": 6, "velocity": 64}, {"time": 840, "pitch": 81, "duration": 6, "velocity": 64}, {"time": 846, "pitch": 79, "duration": 6, "velocity": 64}, {"time": 852, "pitch": 76, "duration": 6, "velocity": 64}, {"time": 858, "pitch": 79, "duration": 6, "velocity": 64}, {"time": 864, "pitch": 74, "duration": 36, "velocity": 64}, {"time": 900, "pitch": 76, "duration": 12, "velocity": 64}, {"time": 912, "pitch": 74, "duration": 48, "velocity": 64}, {"time": 960, "pitch": 76, "duration": 12, "velocity": 64}, {"time": 972, "pitch": 79, "duration": 6, "velocity": 64}, {"time": 978, "pitch": 76, "duration": 6, "velocity": 64}, {"time": 984, "pitch": 74, "duration": 12, "velocity": 64}, {"time": 996, "pitch": 74, "duration": 12, "velocity": 64}, {"time": 1008, "pitch": 76, "duration": 12, "velocity": 64}, {"time": 1020, "pitch": 76, "duration": 6, "velocity": 64}, {"time": 1026, "pitch": 79, "duration": 6, "velocity": 64}, {"time": 1032, "pitch": 81, "duration": 24, "velocity": 64}, {"time": 1056, "pitch": 81, "duration": 12, "velocity": 64}, {"time": 1068, "pitch": 74, "duration": 6, "velocity": 64}, {"time": 1074, "pitch": 83, "duration": 6, "velocity": 64}, {"time": 1080, "pitch": 81, "duration": 12, "velocity": 64}, {"time": 1092, "pitch": 81, "duration": 6, "velocity": 64}, {"time": 1098, "pitch": 79, "duration": 6, "velocity": 64}, {"time": 1104, "pitch": 81, "duration": 12, "velocity": 64}, {"time": 1116, "pitch": 74, "duration": 6, "velocity": 64}, {"time": 1122, "pitch": 83, "duration": 6, "velocity": 64}, {"time": 1128, "pitch": 81, "duration": 12, "velocity": 64}, {"time": 1140, "pitch": 81, "duration": 6, "velocity": 64}, {"time": 1146, "pitch": 79, "duration": 6, "velocity": 64}, {"time": 1152, "pitch": 76, "duration": 12, "velocity": 64}, {"time": 1164, "pitch": 79, "duration": 6, "velocity": 64}, {"time": 1170, "pitch": 76, "duration": 6, "velocity": 64}, {"time": 1176, "pitch": 74, "duration": 24, "velocity": 64}, {"time": 1200, "pitch": 76, "duration": 6, "velocity": 64}, {"time": 1206, "pitch": 76, "duration": 6, "velocity": 64}, {"time": 1212, "pitch": 79, "duration": 6, "velocity": 64}, {"time": 1218, "pitch": 76, "duration": 6, "velocity": 64}, {"time": 1224, "pitch": 74, "duration": 12, "velocity": 64}, {"time": 1236, "pitch": 74, "duration": 12, "velocity": 64}, {"time": 1248, "pitch": 76, "duration": 6, "velocity": 64}, {"time": 1254, "pitch": 76, "duration": 6, "velocity": 64}, {"time": 1260, "pitch": 79, "duration": 6, "velocity": 64}, {"time": 1266, "pitch": 76, "duration": 6, "velocity": 64}, {"time": 1272, "pitch": 74, "duration": 12, "velocity": 64}, {"time": 1284, "pitch": 74, "duration": 12, "velocity": 64}, {"time": 1296, "pitch": 76, "duration": 12, "velocity": 64}, {"time": 1308, "pitch": 76, "duration": 6, "velocity": 64}, {"time": 1314, "pitch": 79, "duration": 6, "velocity": 64}, {"time": 1320, "pitch": 81, "duration": 36, "velocity": 64}, {"time": 1356, "pitch": 79, "duration": 6, "velocity": 64}, {"time": 1362, "pitch": 76, "duration": 6, "velocity": 64}, {"time": 1368, "pitch": 79, "duration": 12, "velocity": 64}, {"time": 1380, "pitch": 81, "duration": 6, "velocity": 64}, {"time": 1386, "pitch": 83, "duration": 6, "velocity": 64}, {"time": 1392, "pitch": 81, "duration": 6, "velocity": 64}, {"time": 1398, "pitch": 79, "duration": 6, "velocity": 64}, {"time": 1404, "pitch": 76, "duration": 6, "velocity": 64}, {"time": 1410, "pitch": 79, "duration": 6, "velocity": 64}, {"time": 1416, "pitch": 74, "duration": 36, "velocity": 64}, {"time": 1452, "pitch": 76, "duration": 12, "velocity": 64}, {"time": 1464, "pitch": 74, "duration": 48, "velocity": 64}]}]}