{"metadata": {"schema_version": "0.1", "title": "Longshan gaolai xishan di", "source_format": "abc"}, "resolution": 24, "tempos": [{"time": 0, "qpm": 120.0}], "key_signatures": [{"time": 0, "root": 0, "mode": "major", "fifths": 0}], "time_signatures": [{"time": 0, "numerator": 4, "denominator": 4}, {"time": 144, "numerator": 1, "denominator": 4}, {"time": 696, "numerator": 1, "denominator": 4}, {"time": 864, "numerator": 3, "denominator": 4}, {"time": 1368, "numerator": 1, "denominator": 4}, {"time": 1392, "numerator": 2, "denominator": 4}], "beats": [{"time": 0, "is_downbeat": true}, {"time": 24, "is_downbeat": true}, {"time": 48, "is_downbeat": true}, {"time": 72, "is_downbeat": true}, {"time": 96, "is_downbeat": true}, {"time": 120, "is_downbeat": true}, {"time": 144, "is_downbeat": true}, {"time": 168, "is_downbeat": true}, {"time": 192, "is_downbeat": true}, {"time": 216, "is_downbeat": true}, {"time": 240, "is_downbeat": true}, {"time": 264, "is_downbeat": true}, {"time": 288, "is_downbeat": true}, {"time": 312, "is_downbeat": true}, {"time": 336, "is_downbeat": true}, {"time": 360, "is_downbeat": true}, {"time": 384, "is_downbeat": true}, {"time": 408, "is_downbeat": true}, {"time": 432, "is_downbeat": true}, {"time": 456, "is_downbeat": true}, {"time": 480, "is_downbeat": true}, {"time": 504, "is_downbeat": true}, {"time": 528, "is_downbeat": true}, {"time": 552, "is_downbeat": true}, {"time": 576, "is_downbeat": true}, {"time": 600, "is_downbeat": true}, {"time": 624, "is_downbeat": true}, {"time": 648, "is_downbeat": true}, {"time": 672, "is_downbeat": true}, {"time": 696, "is_downbeat": true}, {"time": 720, "is_downbeat": true}, {"time": 744, "is_downbeat": false}, {"time": 768, "is_downbeat": true}, {"time": 792, "is_downbeat": false}, {"time": 816, "is_downbeat": true}, {"time": 840, "is_downbeat": false}, {"time": 864, "is_downbeat": true}, {"time": 888, "is_downbeat": true}, {"time": 912, "is_downbeat": true}, {"time": 936, "is_downbeat": true}, {"time": 960, "is_downbeat": true}, {"time": 984, "is_downbeat": true}, {"time": 1008, "is_downbeat": true}, {"time": 1032, "is_downbeat": true}, {"time": 1056, "is_downbeat": true}, {"time": 1080, "is_downbeat": true}, {"time": 1104, "is_downbeat": true}, {"time": 1128, "is_downbeat": true}, {"time": 1152, "is_downbeat": true}, {"time": 1176, "is_downbeat": true}, {"time": 1200, "is_downbeat": true}, {"time": 1224, "is_downbeat": true}, {"time": 1248, "is_downbeat": true}, {"time": 1272, "is_downbeat": true}, {"time": 1296, "is_downbeat": true}, {"time": 1320, "is_downbeat": true}, {"time": 1344, "is_downbeat": true}, {"time": 1368, "is_downbeat": true}, {"time": 1392, "is_downbeat": true}, {"time": 1416, "is_downbeat": false}], "tracks": [{"program": 0, "is_drum": false, "notes": [{"time": 0, "pitch": 62, "duration": 8, "velocity": 64}, {"time": 8, "pitch": 76, "duration": 8, "velocity": 64}, {"time": 16, "pitch": 76, "duration": 8, "velocity": 64}, {"time": 24, "pitch": 76, "duration": 12, "velocity": 64}, {"time": 36, "pitch": 74, "duration": 12, "velocity": 64}, {"time": 48, "pitch": 72, "duration": 48, "velocity": 64}, {"time": 96, "pitch": 74, "duration": 8, "velocity": 64}, {"time": 104, "pitch": 76, "duration": 8, "velocity": 64}, {"time": 112, "pitch": 76, "duration": 8, "velocity": 64}, {"time": 120, "pitch": 76, "duration": 24, "velocity": 64}, {"time": 144, "pitch": 74, "duration": 60, "velocity": 64}, {"time": 204, "pitch": 72, "duration": 6, "velocity": 64}, {"time": 210, "pitch": 69, "duration": 6, "velocity": 64}, {"time": 216, "pitch": 74, "duration": 8, "velocity": 64}, {"time": 224, "pitch": 79, "duration": 8, "velocity": 64}, {"time": 232, "pitch": 76, "duration": 8, "velocity": 64}, {"time": 240, "pitch": 76, "duration": 6, "velocity": 64}, {"time": 246, "pitch": 74, "duration": 6, "velocity": 64}, {"time": 252, "pitch": 74, "duration": 6, "velocity": 64}, {"time": 258, "pitch": 71, "duration": 6, "velocity": 64}, {"time": 264, "pitch": 67, "duration": 48, "velocity": 64}, {"time": 312, "pitch": 69, "duration": 24, "velocity": 64}, {"time": 336, "pitch": 74, "duration": 12, "velocity": 64}, {"time": 348, "pitch": 71, "duration": 12, "velocity": 64}, {"time": 360, "pitch": 71, "duration": 12, "velocity": 64}, {"time": 372, "pitch": 69, "duration": 24, "velocity": 64}, {"time": 396, "pitch": 67, "duration": 6, "velocity": 64}, {"time": 402, "pitch": 64, "duration": 6, "velocity": 64}, {"time": 408, "pitch": 74, "duration": 8, "velocity": 64}, {"time": 416, "pitch": 74, "duration": 8, "velocity": 64}, {"time": 424, "pitch": 74, "duration": 8, "velocity": 64}, {"time": 432, "pitch": 71, "duration": 12, "velocity": 64}, {"time": 444, "pitch": 74, "duration": 12, "velocity": 64}, {"time": 456, "pitch": 69, "duration": 24, "velocity": 64}, {"time": 480, "pitch": 69, "duration": 12, "velocity": 64}, {"time": 492, "pitch": 67, "duration": 12, "velocity": 64}, {"time": 504, "pitch": 69, "duration": 24, "velocity": 64}, {"time": 552, "pitch": 74, "duration": 8, "velocity": 64}, {"time": 560, "pitch": 74, "duration": 8, "velocity": 64}, {"time": 568, "pitch": 74, "duration": 8, "velocity": 64}, {"time": 576, "pitch": 74, "duration": 6, "velocity": 64}, {"time": 582, "pitch": 74, "duration": 6, "velocity": 64}, {"time": 588, "pitch": 71, "duration": 6, "velocity": 64}, {"time": 594, "pitch": 69, "duration": 6, "velocity": 64}, {"time": 600, "pitch": 67, "duration": 48, "velocity": 64}, {"time": 648, "pitch": 69, "duration": 48, "velocity": 64}, {"time": 696, "pitch": 69, "duration": 6, "velocity": 64}, {"time": 702, "pitch": 71, "duration": 6, "velocity": 64}, {"time": 708, "pitch": 74, "duration": 6, "velocity": 64}, {"time": 714, "pitch": 76, "duration": 6, "velocity": 64}, {"time": 720, "pitch": 71, "duration": 12, "velocity": 64}, {"time": 732, "pitch": 69, "duration": 24, "velocity": 64}, {"time": 756, "pitch": 67, "duration": 6, "velocity": 64}, {"time": 762, "pitch": 64, "duration": 6, "velocity": 64}, {"time": 768, "pitch": 74, "duration": 12, "velocity": 64}, {"time": 780, "pitch": 76, "duration": 12, "velocity": 64}, {"time": 792, "pitch": 76, "duration": 12, "velocity": 64}, {"time": 804, "pitch": 76, "duration": 12, "velocity": 64}, {"time": 816, "pitch": 74, "duration": 12, "velocity": 64}, {"time": 828, "pitch": 76, "duration": 12, "velocity": 64}, {"time": 840, "pitch": 76, "duration": 12, "velocity": 64}, {"time": 852, "pitch": 74, "duration": 24, "velocity": 64}, {"time": 876, "pitch": 72, "duration": 6, "velocity": 64}, {"time": 882, "pitch": 69, "duration": 6, "velocity": 64}, {"time": 888, "pitch": 74, "duration": 12, "velocity": 64}, {"time": 900, "pitch": 76, "duration": 12, "velocity": 64}, {"time": 912, "pitch": 74, "duration": 6, "velocity": 64}, {"time": 918, "pitch": 71, "duration": 6, "velocity": 64}, {"time": 924, "pitch": 69, "duration": 12, "velocity": 64}, {"time": 936, "pitch": 67, "duration": 48, "velocity": 64}, {"time": 984, "pitch": 69, "duration": 24, "velocity": 64}, {"time": 1008, "pitch": 74, "duration": 6, "velocity": 64}, {"time": 1014, "pitch": 71, "duration": 6, "velocity": 64}, {"time": 1020, "pitch": 69, "duration": 12, "velocity": 64}, {"time": 1032, "pitch": 71, "duration": 12, "velocity": 64}, {"time": 1044, "pitch": 69, "duration": 24, "velocity": 64}, {"time": 1068, "pitch": 67, "duration": 6, "velocity": 64}, {"time": 1074, "pitch": 64, "duration": 6, "velocity": 64}, {"time": 1080, "pitch": 69, "duration": 12, "velocity": 64}, {"time": 1092, "pitch": 71, "duration": 12, "velocity": 64}, {"time": 1104, "pitch": 69, "duration": 12, "velocity": 64}, {"time": 1116, "pitch": 71, "duration": 12, "velocity": 64}, {"time": 1128, "pitch": 71, "duration": 6, "velocity": 64}, {"time": 1134, "pitch": 69, "duration": 18, "velocity": 64}, {"time": 1152, "pitch": 71, "duration": 12, "velocity": 64}, {"time": 1164, "pitch": 67, "duration": 12, "velocity": 64}, {"time": 1176, "pitch": 69, "duration": 12, "velocity": 64}, {"time": 1224, "pitch": 69, "duration": 6, "velocity": 64}, {"time": 1230, "pitch": 74, "duration": 6, "velocity": 64}, {"time": 1236, "pitch": 74, "duration": 6, "velocity": 64}, {"time": 1242, "pitch": 74, "duration": 6, "velocity": 64}, {"time": 1248, "pitch": 74, "duration": 6, "velocity": 64}, {"time": 1254, "pitch": 74, "duration": 6, "velocity": 64}, {"time": 1260, "pitch": 71, "duration": 6, "velocity": 64}, {"time": 1266, "pitch": 69, "duration": 6, "velocity": 64}, {"time": 1272, "pitch": 67, "duration": 48, "velocity": 64}, {"time": 1320, "pitch": 69, "duration": 24, "velocity": 64}, {"time": 1344, "pitch": 74, "duration": 12, "velocity": 64}, {"time": 1356, "pitch": 71, "duration": 12, "velocity": 64}, {"time": 1368, "pitch": 69, "duration": 6, "velocity": 64}, {"time": 1374, "pitch": 71, "duration": 6, "velocity": 64}, {"time": 1380, "pitch": 74, "duration": 6, "velocity": 64}, {"time": 1386, "pitch": 76, "duration": 6, "velocity": 64}, {"time": 1392, "pitch": 71, "duration": 12, "velocity": 64}, {"time": 1404, "pitch": 69, "duration": 24, "velocity": 64}, {"time": 1428, "pitch": 67, "duration": 6, "velocity": 64}, {"time": 1434, "pitch": 64, "duration": 6, "velocity": 64}]}]}