{"metadata": {"schema_version": "0.1", "title": "Yiba zhima sa shang tian", "source_format": "abc"}, "resolution": 24, "tempos": [{"time": 0, "qpm": 120.0}], "key_signatures": [{"time": 0, "root": 10, "mode": "major", "fifths": -2}], "time_signatures": [{"time": 0, "numerator": 4, "denominator": 4}], "tracks": [{"program": 0, "is_drum": false, "notes": [{"time": 0, "pitch": 74, "duration": 12, "velocity": 64}, {"time": 12, "pitch": 77, "duration": 24, "velocity": 64}, {"time": 36, "pitch": 79, "duration": 12, "velocity": 64}, {"time": 48, "pitch": 82, "duration": 12, "velocity": 64}, {"time": 60, "pitch": 77, "duration": 6, "velocity": 64}, {"time": 66, "pitch": 74, "duration": 6, "velocity": 64}, {"time": 72, "pitch": 74, "duration": 12, "velocity": 64}, {"time": 84, "pitch": 72, "duration": 24, "velocity": 64}, {"time": 108, "pitch": 72, "duration": 12, "velocity": 64}, {"time": 120, "pitch": 82, "duration": 24, "velocity": 64}, {"time": 144, "pitch": 77, "duration": 12, "velocity": 64}, {"time": 156, "pitch": 82, "duration": 6, "velocity": 64}, {"time": 162, "pitch": 79, "duration": 6, "velocity": 64}, {"time": 168, "pitch": 77, "duration": 36, "velocity": 64}, {"time": 204, "pitch": 79, "duration": 6, "velocity": 64}, {"time": 210, "pitch": 82, "duration": 6, "velocity": 64}, {"time": 216, "pitch": 72, "duration": 8, "velocity": 64}, {"time": 224, "pitch": 72, "duration": 8, "velocity": 64}, {"time": 232, "pitch": 82, "duration": 8, "velocity": 64}, {"time": 240, "pitch": 72, "duration": 12, "velocity": 64}, {"time": 252, "pitch": 82, "duration": 6, "velocity": 64}, {"time": 258, "pitch": 79, "duration": 6, "velocity": 64}, {"time": 264, "pitch": 74, "duration": 24, "velocity": 64}, {"time": 288, "pitch": 72, "duration": 12, "velocity": 64}, {"time": 312, "pitch": 74, "duration": 12, "velocity": 64}, {"time": 324, "pitch": 79, "duration": 12, "velocity": 64}, {"time": 336, "pitch": 79, "duration": 12, "velocity": 64}, {"time": 348, "pitch": 82, "duration": 12, "velocity": 64}, {"time": 360, "pitch": 77, "duration": 36, "velocity": 64}, {"time": 396, "pitch": 82, "duration": 6, "velocity": 64}, {"time": 402, "pitch": 79, "duration": 6, "velocity": 64}, {"time": 408, "pitch": 72, "duration": 12, "velocity": 64}, {"time": 420, "pitch": 77, "duration": 6, "velocity": 64}, {"time": 426, "pitch": 74, "duration": 6, "velocity": 64}, {"time": 432, "pitch": 74, "duration": 6, "velocity": 64}, {"time": 438, "pitch": 72, "duration": 6, "velocity": 64}, {"time": 444, "pitch": 70, "duration": 36, "velocity": 64}, {"time": 480, "pitch": 79, "duration": 12, "velocity": 64}, {"time": 492, "pitch": 79, "duration": 12, "velocity": 64}, {"time": 504, "pitch": 79, "duration": 6, "velocity": 64}, {"time": 510, "pitch": 77, "duration": 6, "velocity": 64}, {"time": 516, "pitch": 74, "duration": 24, "velocity": 64}, {"time": 540, "pitch": 74, "duration": 12, "velocity": 64}, {"time": 552, "pitch": 72, "duration": 12, "velocity": 64}, {"time": 564, "pitch": 82, "duration": 12, "velocity": 64}, {"time": 576, "pitch": 82, "duration": 12, "velocity": 64}, {"time": 588, "pitch": 74, "duration": 12, "velocity": 64}, {"time": 600, "pitch": 72, "duration": 48, "velocity": 64}, {"time": 648, "pitch": 72, "duration": 6, "velocity": 64}, {"time": 654, "pitch": 82, "duration": 6, "velocity": 64}, {"time": 660, "pitch": 79, "duration": 24, "velocity": 64}, {"time": 684, "pitch": 82, "duration": 12, "velocity": 64}, {"time": 696, "pitch": 79, "duration": 8, "velocity": 64}, {"time": 704, "pitch": 79, "duration": 8, "velocity": 64}, {"time": 712, "pitch": 82, "duration": 28, "velocity": 64}, {"time": 740, "pitch": 79, "duration": 12, "velocity": 64}, {"time": 752, "pitch": 77, "duration": 6, "velocity": 64}, {"time": 758, "pitch": 74, "duration": 6, "velocity": 64}, {"time": 764, "pitch": 72, "duration": 24, "velocity": 64}, {"time": 788, "pitch": 67, "duration": 12, "velocity": 64}, {"time": 812, "pitch": 74, "duration": 12, "velocity": 64}, {"time": 824, "pitch": 79, "duration": 12, "velocity": 64}, {"time": 836, "pitch": 82, "duration": 12, "velocity": 64}, {"time": 848, "pitch": 82, "duration": 12, "velocity": 64}, {"time": 860, "pitch": 77, "duration": 36, "velocity": 64}, {"time": 896, "pitch": 82, "duration": 6, "velocity": 64}, {"time": 902, "pitch": 79, "duration": 6, "velocity": 64}, {"time": 908, "pitch": 72, "duration": 12, "velocity": 64}, {"time": 920, "pitch": 77, "duration": 6, "velocity": 64}, {"time": 926, "pitch": 74, "duration": 6, "velocity": 64}, {"time": 932, "pitch": 74, "duration": 6, "velocity": 64}, {"time": 938, "pitch": 72, "duration": 6, "velocity": 64}, {"time": 944, "pitch": 70, "duration": 36, "velocity": 64}]}]}