{"metadata": {"schema_version": "0.1", "title": "Jinluo yi zhu wo kai yan", "source_format": "abc"}, "resolution": 24, "tempos": [{"time": 0, "qpm": 120.0}], "key_signatures": [{"time": 0, "root": 10, "mode": "major", "fifths": -2}], "time_signatures": [{"time": 0, "numerator": 4, "denominator": 4}, {"time": 768, "numerator": 1, "denominator": 4}, {"time": 792, "numerator": 2, "denominator": 4}], "beats": [{"time": 0, "is_downbeat": true}, {"time": 24, "is_downbeat": true}, {"time": 48, "is_downbeat": true}, {"time": 72, "is_downbeat": true}, {"time": 96, "is_downbeat": true}, {"time": 120, "is_downbeat": true}, {"time": 144, "is_downbeat": true}, {"time": 168, "is_downbeat": true}, {"time": 192, "is_downbeat": true}, {"time": 216, "is_downbeat": true}, {"time": 240, "is_downbeat": true}, {"time": 264, "is_downbeat": true}, {"time": 288, "is_downbeat": true}, {"time": 312, "is_downbeat": true}, {"time": 336, "is_downbeat": true}, {"time": 360, "is_downbeat": true}, {"time": 384, "is_downbeat": true}, {"time": 408, "is_downbeat": true}, {"time": 432, "is_downbeat": true}, {"time": 456, "is_downbeat": true}, {"time": 480, "is_downbeat": true}, {"time": 504, "is_downbeat": true}, {"time": 528, "is_downbeat": true}, {"time": 552, "is_downbeat": true}, {"time": 576, "is_downbeat": true}, {"time": 600, "is_downbeat": true}, {"time": 624, "is_downbeat": true}, {"time": 648, "is_downbeat": true}, {"time": 672, "is_downbeat": true}, {"time": 696, "is_downbeat": true}, {"time": 720, "is_downbeat": true}, {"time": 744, "is_downbeat": true}, {"time": 768, "is_downbeat": true}, {"time": 792, "is_downbeat": true}, {"time": 816, "is_downbeat": false}, {"time": 840, "is_downbeat": true}, {"time": 864, "is_downbeat": false}, {"time": 888, "is_downbeat": true}, {"time": 912, "is_downbeat": false}, {"time": 936, "is_downbeat": true}, {"time": 960, "is_downbeat": false}, {"time": 984, "is_downbeat": true}, {"time": 1008, "is_downbeat": false}, {"time": 1032, "is_downbeat": true}, {"time": 1056, "is_downbeat": false}, {"time": 1080, "is_downbeat": true}, {"time": 1104, "is_downbeat": false}, {"time": 1128, "is_downbeat": true}, {"time": 1152, "is_downbeat": false}, {"time": 1176, "is_downbeat": true}, {"time": 1200, "is_downbeat": false}, {"time": 1224, "is_downbeat": true}, {"time": 1248, "is_downbeat": false}, {"time": 1272, "is_downbeat": true}, {"time": 1296, "is_downbeat": false}, {"time": 1320, "is_downbeat": true}, {"time": 1344, "is_downbeat": false}, {"time": 1368, "is_downbeat": true}, {"time": 1392, "is_downbeat": false}, {"time": 1416, "is_downbeat": true}, {"time": 1440, "is_downbeat": false}, {"time": 1464, "is_downbeat": true}, {"time": 1488, "is_downbeat": false}, {"time": 1512, "is_downbeat": true}, {"time": 1536, "is_downbeat": false}, {"time": 1560, "is_downbeat": true}, {"time": 1584, "is_downbeat": false}, {"time": 1608, "is_downbeat": true}, {"time": 1632, "is_downbeat": false}, {"time": 1656, "is_downbeat": true}, {"time": 1680, "is_downbeat": false}, {"time": 1704, "is_downbeat": true}, {"time": 1728, "is_downbeat": false}, {"time": 1752, "is_downbeat": true}, {"time": 1776, "is_downbeat": false}, {"time": 1800, "is_downbeat": true}, {"time": 1824, "is_downbeat": false}, {"time": 1848, "is_downbeat": true}, {"time": 1872, "is_downbeat": false}, {"time": 1896, "is_downbeat": true}, {"time": 1920, "is_downbeat": false}, {"time": 1944, "is_downbeat": true}, {"time": 1968, "is_downbeat": false}, {"time": 1992, "is_downbeat": true}, {"time": 2016, "is_downbeat": false}, {"time": 2040, "is_downbeat": true}, {"time": 2064, "is_downbeat": false}, {"time": 2088, "is_downbeat": true}, {"time": 2112, "is_downbeat": false}, {"time": 2136, "is_downbeat": true}, {"time": 2160, "is_downbeat": false}, {"time": 2184, "is_downbeat": true}, {"time": 2208, "is_downbeat": false}, {"time": 2232, "is_downbeat": true}, {"time": 2256, "is_downbeat": false}, {"time": 2280, "is_downbeat": true}, {"time": 2304, "is_downbeat": false}, {"time": 2328, "is_downbeat": true}, {"time": 2352, "is_downbeat": false}, {"time": 2376, "is_downbeat": true}, {"time": 2400, "is_downbeat": false}], "tracks": [{"program": 0, "is_drum": false, "notes": [{"time": 0, "pitch": 72, "duration": 24, "velocity": 64}, {"time": 24, "pitch": 77, "duration": 24, "velocity": 64}, {"time": 48, "pitch": 72, "duration": 24, "velocity": 64}, {"time": 72, "pitch": 72, "duration": 12, "velocity": 64}, {"time": 84, "pitch": 70, "duration": 12, "velocity": 64}, {"time": 96, "pitch": 72, "duration": 96, "velocity": 64}, {"time": 192, "pitch": 72, "duration": 12, "velocity": 64}, {"time": 204, "pitch": 72, "duration": 12, "velocity": 64}, {"time": 216, "pitch": 72, "duration": 12, "velocity": 64}, {"time": 228, "pitch": 70, "duration": 12, "velocity": 64}, {"time": 240, "pitch": 72, "duration": 24, "velocity": 64}, {"time": 288, "pitch": 72, "duration": 12, "velocity": 64}, {"time": 300, "pitch": 72, "duration": 12, "velocity": 64}, {"time": 312, "pitch": 72, "duration": 12, "velocity": 64}, {"time": 324, "pitch": 70, "duration": 12, "velocity": 64}, {"time": 336, "pitch": 72, "duration": 24, "velocity": 64}, {"time": 384, "pitch": 72, "duration": 12, "velocity": 64}, {"time": 396, "pitch": 72, "duration": 12, "velocity": 64}, {"time": 408, "pitch": 72, "duration": 12, "velocity": 64}, {"time": 420, "pitch": 70, "duration": 12, "velocity": 64}, {"time": 432, "pitch": 72, "duration": 24, "velocity": 64}, {"time": 456, "pitch": 70, "duration": 12, "velocity": 64}, {"time": 468, "pitch": 72, "duration": 12, "velocity": 64}, {"time": 480, "pitch": 74, "duration": 24, "velocity": 64}, {"time": 504, "pitch": 74, "duration": 12, "velocity": 64}, {"time": 516, "pitch": 79, "duration": 12, "velocity": 64}, {"time": 528, "pitch": 77, "duration": 12, "velocity": 64}, {"time": 540, "pitch": 72, "duration": 12, "velocity": 64}, {"time": 552, "pitch": 72, "duration": 12, "velocity": 64}, {"time": 564, "pitch": 70, "duration": 12, "velocity": 64}, {"time": 576, "pitch": 72, "duration": 96, "velocity": 64}, {"time": 672, "pitch": 72, "duration": 12, "velocity": 64}, {"time": 684, "pitch": 72, "duration": 12, "velocity": 64}, {"time": 696, "pitch": 72, "duration": 12, "velocity": 64}, {"time": 708, "pitch": 70, "duration": 12, "velocity": 64}, {"time": 720, "pitch": 77, "duration": 12, "velocity": 64}, {"time": 732, "pitch": 74, "duration": 24, "velocity": 64}, {"time": 756, "pitch": 77, "duration": 12, "velocity": 64}, {"time": 768, "pitch": 72, "duration": 24, "velocity": 64}, {"time": 792, "pitch": 72, "duration": 12, "velocity": 64}, {"time": 804, "pitch": 77, "duration": 12, "velocity": 64}, {"time": 816, "pitch": 74, "duration": 12, "velocity": 64}, {"time": 828, "pitch": 72, "duration": 12, "velocity": 64}, {"time": 840, "pitch": 72, "duration": 12, "velocity": 64}, {"time": 852, "pitch": 70, "duration": 12, "velocity": 64}, {"time": 864, "pitch": 67, "duration": 12, "velocity": 64}, {"time": 888, "pitch": 67, "duration": 12, "velocity": 64}, {"time": 900, "pitch": 67, "duration": 12, "velocity": 64}, {"time": 912, "pitch": 67, "duration": 12, "velocity": 64}, {"time": 924, "pitch": 70, "duration": 12, "velocity": 64}, {"time": 936, "pitch": 72, "duration": 12, "velocity": 64}, {"time": 948, "pitch": 77, "duration": 12, "velocity": 64}, {"time": 960, "pitch": 74, "duration": 12, "velocity": 64}, {"time": 972, "pitch": 72, "duration": 12, "velocity": 64}, {"time": 984, "pitch": 72, "duration": 12, "velocity": 64}, {"time": 996, "pitch": 70, "duration": 12, "velocity": 64}, {"time": 1008, "pitch": 67, "duration": 12, "velocity": 64}, {"time": 1020, "pitch": 65, "duration": 12, "velocity": 64}, {"time": 1032, "pitch": 65, "duration": 12, "velocity": 64}, {"time": 1044, "pitch": 64, "duration": 12, "velocity": 64}, {"time": 1056, "pitch": 65, "duration": 24, "velocity": 64}, {"time": 1080, "pitch": 67, "duration": 12, "velocity": 64}, {"time": 1092, "pitch": 67, "duration": 12, "velocity": 64}, {"time": 1104, "pitch": 67, "duration": 12, "velocity": 64}, {"time": 1116, "pitch": 70, "duration": 12, "velocity": 64}, {"time": 1128, "pitch": 74, "duration": 12, "velocity": 64}, {"time": 1140, "pitch": 72, "duration": 12, "velocity": 64}, {"time": 1152, "pitch": 72, "duration": 12, "velocity": 64}, {"time": 1164, "pitch": 70, "duration": 12, "velocity": 64}, {"time": 1176, "pitch": 67, "duration": 12, "velocity": 64}, {"time": 1188, "pitch": 62, "duration": 12, "velocity": 64}, {"time": 1200, "pitch": 65, "duration": 12, "velocity": 64}, {"time": 1212, "pitch": 67, "duration": 12, "velocity": 64}, {"time": 1224, "pitch": 72, "duration": 12, "velocity": 64}, {"time": 1236, "pitch": 70, "duration": 12, "velocity": 64}, {"time": 1248, "pitch": 67, "duration": 12, "velocity": 64}, {"time": 1260, "pitch": 65, "duration": 12, "velocity": 64}, {"time": 1272, "pitch": 65, "duration": 12, "velocity": 64}, {"time": 1284, "pitch": 64, "duration": 12, "velocity": 64}, {"time": 1296, "pitch": 65, "duration": 72, "velocity": 64}, {"time": 1368, "pitch": 77, "duration": 12, "velocity": 64}, {"time": 1380, "pitch": 76, "duration": 12, "velocity": 64}, {"time": 1392, "pitch": 79, "duration": 12, "velocity": 64}, {"time": 1404, "pitch": 77, "duration": 12, "velocity": 64}, {"time": 1416, "pitch": 77, "duration": 12, "velocity": 64}, {"time": 1428, "pitch": 72, "duration": 12, "velocity": 64}, {"time": 1440, "pitch": 72, "duration": 12, "velocity": 64}, {"time": 1452, "pitch": 70, "duration": 12, "velocity": 64}, {"time": 1464, "pitch": 72, "duration": 96, "velocity": 64}, {"time": 1560, "pitch": 72, "duration": 12, "velocity": 64}, {"time": 1572, "pitch": 72, "duration": 12, "velocity": 64}, {"time": 1584, "pitch": 72, "duration": 12, "velocity": 64}, {"time": 1596, "pitch": 70, "duration": 12, "velocity": 64}, {"time": 1608, "pitch": 72, "duration": 24, "velocity": 64}, {"time": 1656, "pitch": 72, "duration": 12, "velocity": 64}, {"time": 1668, "pitch": 72, "duration": 12, "velocity": 64}, {"time": 1680, "pitch": 72, "duration": 12, "velocity": 64}, {"time": 1692, "pitch": 70, "duration": 12, "velocity": 64}, {"time": 1704, "pitch": 72, "duration": 24, "velocity": 64}, {"time": 1752, "pitch": 72, "duration": 12, "velocity": 64}, {"time": 1764, "pitch": 72, "duration": 12, "velocity": 64}, {"time": 1776, "pitch": 72, "duration": 12, "velocity": 64}, {"time": 1788, "pitch": 70, "duration": 12, "velocity": 64}, {"time": 1800, "pitch": 72, "duration": 24, "velocity": 64}, {"time": 1824, "pitch": 70, "duration": 12, "velocity": 64}, {"time": 1836, "pitch": 72, "duration": 12, "velocity": 64}, {"time": 1848, "pitch": 74, "duration": 24, "velocity": 64}, {"time": 1872, "pitch": 74, "duration": 12, "velocity": 64}, {"time": 1884, "pitch": 79, "duration": 12, "velocity": 64}, {"time": 1896, "pitch": 77, "duration": 12, "velocity": 64}, {"time": 1908, "pitch": 72, "duration": 12, "velocity": 64}, {"time": 1920, "pitch": 72, "duration": 12, "velocity": 64}, {"time": 1932, "pitch": 70, "duration": 12, "velocity": 64}, {"time": 1944, "pitch": 72, "duration": 96, "velocity": 64}, {"time": 2040, "pitch": 72, "duration": 12, "velocity": 64}, {"time": 2052, "pitch": 70, "duration": 12, "velocity": 64}, {"time": 2064, "pitch": 72, "duration": 24, "velocity": 64}, {"time": 2088, "pitch": 67, "duration": 12, "velocity": 64}, {"time": 2100, "pitch": 70, "duration": 12, "velocity": 64}, {"time": 2112, "pitch": 72, "duration": 24, "velocity": 64}, {"time": 2136, "pitch": 77, "duration": 12, "velocity": 64}, {"time": 2148, "pitch": 76, "duration": 6, "velocity": 64}, {"time": 2154, "pitch": 77, "duration": 6, "velocity": 64}, {"time": 2160, "pitch": 79, "duration": 12, "velocity": 64}, {"time": 2172, "pitch": 77, "duration": 12, "velocity": 64}, {"time": 2184, "pitch": 72, "duration": 12, "velocity": 64}, {"time": 2196, "pitch": 70, "duration": 12, "velocity": 64}, {"time": 2208, "pitch": 72, "duration": 24, "velocity": 64}, {"time": 2232, "pitch": 72, "duration": 12, "velocity": 64}, {"time": 2244, "pitch": 77, "duration": 6, "velocity": 64}, {"time": 2250, "pitch": 77, "duration": 6, "velocity": 64}, {"time": 2256, "pitch": 77, "duration": 12, "velocity": 64}, {"time": 2268, "pitch": 77, "duration": 12, "velocity": 64}, {"time": 2280, "pitch": 79, "duration": 12, "velocity": 64}, {"time": 2292, "pitch": 79, "duration": 6, "velocity": 64}, {"time": 2298, "pitch": 77, "duration": 6, "velocity": 64}, {"time": 2304, "pitch": 75, "duration": 12, "velocity": 64}, {"time": 2316, "pitch": 72, "duration": 12, "velocity": 64}, {"time": 2328, "pitch": 77, "duration": 12, "velocity": 64}, {"time": 2340, "pitch": 72, "duration": 6, "velocity": 64}, {"time": 2346, "pitch": 72, "duration": 6, "velocity": 64}, {"time": 2352, "pitch": 72, "duration": 12, "velocity": 64}, {"time": 2364, "pitch": 70, "duration": 12, "velocity": 64}, {"time": 2376, "pitch": 72, "duration": 48, "velocity": 64}]}]}