{"metadata": {"schema_version": "0.1", "title": "Li tian ge", "source_format": "abc"}, "resolution": 24, "tempos": [{"time": 0, "qpm": 120.0}], "key_signatures": [{"time": 0, "root": 10, "mode": "major", "fifths": -2}], "time_signatures": [{"time": 0, "numerator": 2, "denominator": 4}], "beats": [{"time": 0, "is_downbeat": true}, {"time": 24, "is_downbeat": false}, {"time": 48, "is_downbeat": true}, {"time": 72, "is_downbeat": false}, {"time": 96, "is_downbeat": true}, {"time": 120, "is_downbeat": false}, {"time": 144, "is_downbeat": true}, {"time": 168, "is_downbeat": false}, {"time": 192, "is_downbeat": true}, {"time": 216, "is_downbeat": false}, {"time": 240, "is_downbeat": true}, {"time": 264, "is_downbeat": false}, {"time": 288, "is_downbeat": true}, {"time": 312, "is_downbeat": false}, {"time": 336, "is_downbeat": true}, {"time": 360, "is_downbeat": false}, {"time": 384, "is_downbeat": true}, {"time": 408, "is_downbeat": false}, {"time": 432, "is_downbeat": true}, {"time": 456, "is_downbeat": false}, {"time": 480, "is_downbeat": true}, {"time": 504, "is_downbeat": false}, {"time": 528, "is_downbeat": true}, {"time": 552, "is_downbeat": false}, {"time": 576, "is_downbeat": true}, {"time": 600, "is_downbeat": false}, {"time": 624, "is_downbeat": true}, {"time": 648, "is_downbeat": false}, {"time": 672, "is_downbeat": true}, {"time": 696, "is_downbeat": false}, {"time": 720, "is_downbeat": true}, {"time": 744, "is_downbeat": false}, {"time": 768, "is_downbeat": true}, {"time": 792, "is_downbeat": false}, {"time": 816, "is_downbeat": true}, {"time": 840, "is_downbeat": false}, {"time": 864, "is_downbeat": true}, {"time": 888, "is_downbeat": false}, {"time": 912, "is_downbeat": true}, {"time": 936, "is_downbeat": false}], "tracks": [{"program": 0, "is_drum": false, "notes": [{"time": 0, "pitch": 72, "duration": 48, "velocity": 64}, {"time": 48, "pitch": 74, "duration": 6, "velocity": 64}, {"time": 54, "pitch": 72, "duration": 18, "velocity": 64}, {"time": 72, "pitch": 74, "duration": 6, "velocity": 64}, {"time": 78, "pitch": 72, "duration": 18, "velocity": 64}, {"time": 96, "pitch": 72, "duration": 48, "velocity": 64}, {"time": 144, "pitch": 82, "duration": 18, "velocity": 64}, {"time": 162, "pitch": 72, "duration": 6, "velocity": 64}, {"time": 168, "pitch": 77, "duration": 6, "velocity": 64}, {"time": 174, "pitch": 72, "duration": 18, "velocity": 64}, {"time": 192, "pitch": 72, "duration": 48, "velocity": 64}, {"time": 240, "pitch": 77, "duration": 24, "velocity": 64}, {"time": 264, "pitch": 82, "duration": 6, "velocity": 64}, {"time": 270, "pitch": 72, "duration": 18, "velocity": 64}, {"time": 288, "pitch": 74, "duration": 24, "velocity": 64}, {"time": 312, "pitch": 77, "duration": 24, "velocity": 64}, {"time": 336, "pitch": 82, "duration": 12, "velocity": 64}, {"time": 348, "pitch": 79, "duration": 12, "velocity": 64}, {"time": 360, "pitch": 79, "duration": 12, "velocity": 64}, {"time": 372, "pitch": 77, "duration": 12, "velocity": 64}, {"time": 384, "pitch": 79, "duration": 12, "velocity": 64}, {"time": 396, "pitch": 77, "duration": 36, "velocity": 64}, {"time": 432, "pitch": 77, "duration": 18, "velocity": 64}, {"time": 450, "pitch": 77, "duration": 6, "velocity": 64}, {"time": 456, "pitch": 79, "duration": 12, "velocity": 64}, {"time": 468, "pitch": 79, "duration": 12, "velocity": 64}, {"time": 480, "pitch": 82, "duration": 12, "velocity": 64}, {"time": 492, "pitch": 82, "duration": 12, "velocity": 64}, {"time": 504, "pitch": 79, "duration": 24, "velocity": 64}, {"time": 528, "pitch": 74, "duration": 18, "velocity": 64}, {"time": 546, "pitch": 82, "duration": 6, "velocity": 64}, {"time": 552, "pitch": 77, "duration": 12, "velocity": 64}, {"time": 564, "pitch": 77, "duration": 12, "velocity": 64}, {"time": 576, "pitch": 79, "duration": 12, "velocity": 64}, {"time": 588, "pitch": 79, "duration": 12, "velocity": 64}, {"time": 600, "pitch": 77, "duration": 12, "velocity": 64}, {"time": 624, "pitch": 77, "duration": 6, "velocity": 64}, {"time": 630, "pitch": 74, "duration": 18, "velocity": 64}, {"time": 648, "pitch": 77, "duration": 72, "velocity": 64}, {"time": 720, "pitch": 82, "duration": 24, "velocity": 64}, {"time": 744, "pitch": 72, "duration": 24, "velocity": 64}, {"time": 768, "pitch": 72, "duration": 36, "velocity": 64}, {"time": 804, "pitch": 82, "duration": 6, "velocity": 64}, {"time": 810, "pitch": 79, "duration": 6, "velocity": 64}, {"time": 816, "pitch": 77, "duration": 36, "velocity": 64}, {"time": 852, "pitch": 74, "duration": 12, "velocity": 64}, {"time": 864, "pitch": 72, "duration": 36, "velocity": 64}, {"time": 900, "pitch": 82, "duration": 6, "velocity": 64}, {"time": 906, "pitch": 79, "duration": 6, "velocity": 64}, {"time": 912, "pitch": 77, "duration": 48, "velocity": 64}]}]}