{"metadata": {"schema_version": "0.1", "title": "Shang chengcheng", "source_format": "abc"}, "resolution": 24, "tempos": [{"time": 0, "qpm": 120.0}], "key_signatures": [{"time": 0, "root": 7, "mode": "major", "fifths": 1}], "time_signatures": [{"time": 0, "numerator": 4, "denominator": 4}, {"time": 144, "numerator": 1, "denominator": 4}, {"time": 552, "numerator": 1, "denominator": 4}, {"time": 768, "numerator": 1, "denominator": 4}, {"time": 792, "numerator": 2, "denominator": 4}], "beats": [{"time": 0, "is_downbeat": true}, {"time": 24, "is_downbeat": true}, {"time": 48, "is_downbeat": true}, {"time": 72, "is_downbeat": true}, {"time": 96, "is_downbeat": true}, {"time": 120, "is_downbeat": true}, {"time": 144, "is_downbeat": true}, {"time": 168, "is_downbeat": true}, {"time": 192, "is_downbeat": true}, {"time": 216, "is_downbeat": true}, {"time": 240, "is_downbeat": true}, {"time": 264, "is_downbeat": true}, {"time": 288, "is_downbeat": true}, {"time": 312, "is_downbeat": true}, {"time": 336, "is_downbeat": true}, {"time": 360, "is_downbeat": true}, {"time": 384, "is_downbeat": true}, {"time": 408, "is_downbeat": true}, {"time": 432, "is_downbeat": true}, {"time": 456, "is_downbeat": true}, {"time": 480, "is_downbeat": true}, {"time": 504, "is_downbeat": true}, {"time": 528, "is_downbeat": true}, {"time": 552, "is_downbeat": true}, {"time": 576, "is_downbeat": true}, {"time": 600, "is_downbeat": true}, {"time": 624, "is_downbeat": true}, {"time": 648, "is_downbeat": true}, {"time": 672, "is_downbeat": true}, {"time": 696, "is_downbeat": true}, {"time": 720, "is_downbeat": true}, {"time": 744, "is_downbeat": true}, {"time": 768, "is_downbeat": true}, {"time": 792, "is_downbeat": true}, {"time": 816, "is_downbeat": false}, {"time": 840, "is_downbeat": true}, {"time": 864, "is_downbeat": false}], "tracks": [{"program": 0, "is_drum": false, "notes": [{"time": 0, "pitch": 64, "duration": 12, "velocity": 64}, {"time": 12, "pitch": 64, "duration": 6, "velocity": 64}, {"time": 18, "pitch": 67, "duration": 6, "velocity": 64}, {"time": 24, "pitch": 67, "duration": 12, "velocity": 64}, {"time": 36, "pitch": 69, "duration": 12, "velocity": 64}, {"time": 48, "pitch": 71, "duration": 12, "velocity": 64}, {"time": 60, "pitch": 74, "duration": 6, "velocity": 64}, {"time": 66, "pitch": 71, "duration": 6, "velocity": 64}, {"time": 72, "pitch": 69, "duration": 24, "velocity": 64}, {"time": 96, "pitch": 74, "duration": 12, "velocity": 64}, {"time": 108, "pitch": 74, "duration": 6, "velocity": 64}, {"time": 114, "pitch": 76, "duration": 6, "velocity": 64}, {"time": 120, "pitch": 76, "duration": 6, "velocity": 64}, {"time": 126, "pitch": 74, "duration": 6, "velocity": 64}, {"time": 132, "pitch": 71, "duration": 6, "velocity": 64}, {"time": 138, "pitch": 69, "duration": 6, "velocity": 64}, {"time": 144, "pitch": 67, "duration": 6, "velocity": 64}, {"time": 150, "pitch": 64, "duration": 12, "velocity": 64}, {"time": 162, "pitch": 67, "duration": 6, "velocity": 64}, {"time": 168, "pitch": 69, "duration": 24, "velocity": 64}, {"time": 192, "pitch": 71, "duration": 24, "velocity": 64}, {"time": 216, "pitch": 69, "duration": 6, "velocity": 64}, {"time": 222, "pitch": 67, "duration": 6, "velocity": 64}, {"time": 228, "pitch": 64, "duration": 12, "velocity": 64}, {"time": 240, "pitch": 62, "duration": 24, "velocity": 64}, {"time": 264, "pitch": 64, "duration": 12, "velocity": 64}, {"time": 276, "pitch": 64, "duration": 6, "velocity": 64}, {"time": 282, "pitch": 64, "duration": 6, "velocity": 64}, {"time": 288, "pitch": 67, "duration": 12, "velocity": 64}, {"time": 300, "pitch": 69, "duration": 12, "velocity": 64}, {"time": 312, "pitch": 71, "duration": 12, "velocity": 64}, {"time": 324, "pitch": 74, "duration": 6, "velocity": 64}, {"time": 330, "pitch": 71, "duration": 6, "velocity": 64}, {"time": 336, "pitch": 69, "duration": 24, "velocity": 64}, {"time": 360, "pitch": 69, "duration": 6, "velocity": 64}, {"time": 366, "pitch": 71, "duration": 6, "velocity": 64}, {"time": 372, "pitch": 69, "duration": 6, "velocity": 64}, {"time": 378, "pitch": 67, "duration": 6, "velocity": 64}, {"time": 384, "pitch": 64, "duration": 24, "velocity": 64}, {"time": 408, "pitch": 74, "duration": 12, "velocity": 64}, {"time": 420, "pitch": 74, "duration": 6, "velocity": 64}, {"time": 426, "pitch": 74, "duration": 6, "velocity": 64}, {"time": 432, "pitch": 76, "duration": 12, "velocity": 64}, {"time": 444, "pitch": 76, "duration": 6, "velocity": 64}, {"time": 450, "pitch": 79, "duration": 6, "velocity": 64}, {"time": 456, "pitch": 76, "duration": 12, "velocity": 64}, {"time": 468, "pitch": 74, "duration": 6, "velocity": 64}, {"time": 474, "pitch": 71, "duration": 6, "velocity": 64}, {"time": 480, "pitch": 74, "duration": 24, "velocity": 64}, {"time": 504, "pitch": 74, "duration": 12, "velocity": 64}, {"time": 516, "pitch": 74, "duration": 6, "velocity": 64}, {"time": 522, "pitch": 76, "duration": 6, "velocity": 64}, {"time": 528, "pitch": 76, "duration": 6, "velocity": 64}, {"time": 534, "pitch": 74, "duration": 6, "velocity": 64}, {"time": 540, "pitch": 71, "duration": 6, "velocity": 64}, {"time": 546, "pitch": 69, "duration": 6, "velocity": 64}, {"time": 552, "pitch": 67, "duration": 6, "velocity": 64}, {"time": 558, "pitch": 64, "duration": 18, "velocity": 64}, {"time": 576, "pitch": 69, "duration": 24, "velocity": 64}, {"time": 600, "pitch": 71, "duration": 24, "velocity": 64}, {"time": 624, "pitch": 69, "duration": 12, "velocity": 64}, {"time": 636, "pitch": 67, "duration": 6, "velocity": 64}, {"time": 642, "pitch": 64, "duration": 6, "velocity": 64}, {"time": 648, "pitch": 62, "duration": 24, "velocity": 64}, {"time": 672, "pitch": 64, "duration": 12, "velocity": 64}, {"time": 684, "pitch": 64, "duration": 6, "velocity": 64}, {"time": 690, "pitch": 67, "duration": 6, "velocity": 64}, {"time": 696, "pitch": 69, "duration": 24, "velocity": 64}, {"time": 720, "pitch": 74, "duration": 12, "velocity": 64}, {"time": 732, "pitch": 74, "duration": 6, "velocity": 64}, {"time": 738, "pitch": 76, "duration": 6, "velocity": 64}, {"time": 744, "pitch": 76, "duration": 6, "velocity": 64}, {"time": 750, "pitch": 74, "duration": 6, "velocity": 64}, {"time": 756, "pitch": 71, "duration": 6, "velocity": 64}, {"time": 762, "pitch": 69, "duration": 6, "velocity": 64}, {"time": 768, "pitch": 67, "duration": 6, "velocity": 64}, {"time": 774, "pitch": 64, "duration": 18, "velocity": 64}, {"time": 792, "pitch": 69, "duration": 24, "velocity": 64}, {"time": 816, "pitch": 71, "duration": 24, "velocity": 64}, {"time": 840, "pitch": 69, "duration": 12, "velocity": 64}, {"time": 852, "pitch": 67, "duration": 6, "velocity": 64}, {"time": 858, "pitch": 64, "duration": 6, "velocity": 64}, {"time": 864, "pitch": 62, "duration": 24, "velocity": 64}]}]}