{"metadata": {"schema_version": "0.1", "title": "Zhenjing hong", "source_format": "abc"}, "resolution": 24, "tempos": [{"time": 0, "qpm": 120.0}], "key_signatures": [{"time": 0, "root": 3, "mode": "major", "fifths": -3}], "time_signatures": [{"time": 0, "numerator": 2, "denominator": 4}], "beats": [{"time": 0, "is_downbeat": true}, {"time": 24, "is_downbeat": true}, {"time": 48, "is_downbeat": false}, {"time": 72, "is_downbeat": true}, {"time": 96, "is_downbeat": false}, {"time": 120, "is_downbeat": true}, {"time": 144, "is_downbeat": false}, {"time": 168, "is_downbeat": true}, {"time": 192, "is_downbeat": false}, {"time": 216, "is_downbeat": true}, {"time": 240, "is_downbeat": false}, {"time": 264, "is_downbeat": true}, {"time": 288, "is_downbeat": false}, {"time": 312, "is_downbeat": true}, {"time": 336, "is_downbeat": false}, {"time": 360, "is_downbeat": true}, {"time": 384, "is_downbeat": false}, {"time": 408, "is_downbeat": true}, {"time": 432, "is_downbeat": false}, {"time": 456, "is_downbeat": true}, {"time": 480, "is_downbeat": false}, {"time": 504, "is_downbeat": true}, {"time": 528, "is_downbeat": true}, {"time": 552, "is_downbeat": false}, {"time": 576, "is_downbeat": true}, {"time": 600, "is_downbeat": false}, {"time": 624, "is_downbeat": true}, {"time": 648, "is_downbeat": false}, {"time": 672, "is_downbeat": true}, {"time": 696, "is_downbeat": false}, {"time": 720, "is_downbeat": true}, {"time": 744, "is_downbeat": false}, {"time": 768, "is_downbeat": true}, {"time": 792, "is_downbeat": false}, {"time": 816, "is_downbeat": true}, {"time": 840, "is_downbeat": false}, {"time": 864, "is_downbeat": true}, {"time": 888, "is_downbeat": true}, {"time": 912, "is_downbeat": false}, {"time": 936, "is_downbeat": true}, {"time": 960, "is_downbeat": false}, {"time": 984, "is_downbeat": true}, {"time": 1008, "is_downbeat": false}, {"time": 1032, "is_downbeat": true}, {"time": 1056, "is_downbeat": false}, {"time": 1080, "is_downbeat": true}, {"time": 1104, "is_downbeat": false}, {"time": 1128, "is_downbeat": true}, {"time": 1152, "is_downbeat": false}, {"time": 1176, "is_downbeat": true}, {"time": 1200, "is_downbeat": false}], "tracks": [{"program": 0, "is_drum": false, "notes": [{"time": 12, "pitch": 72, "duration": 12, "velocity": 64}, {"time": 24, "pitch": 79, "duration": 6, "velocity": 64}, {"time": 30, "pitch": 72, "duration": 6, "velocity": 64}, {"time": 36, "pitch": 75, "duration": 24, "velocity": 64}, {"time": 60, "pitch": 77, "duration": 12, "velocity": 64}, {"time": 72, "pitch": 79, "duration": 6, "velocity": 64}, {"time": 78, "pitch": 75, "duration": 6, "velocity": 64}, {"time": 84, "pitch": 77, "duration": 12, "velocity": 64}, {"time": 108, "pitch": 77, "duration": 12, "velocity": 64}, {"time": 120, "pitch": 82, "duration": 6, "velocity": 64}, {"time": 126, "pitch": 79, "duration": 6, "velocity": 64}, {"time": 132, "pitch": 82, "duration": 12, "velocity": 64}, {"time": 144, "pitch": 68, "duration": 3, "velocity": 64}, {"time": 147, "pitch": 70, "duration": 9, "velocity": 64}, {"time": 156, "pitch": 68, "duration": 3, "velocity": 64}, {"time": 159, "pitch": 70, "duration": 9, "velocity": 64}, {"time": 168, "pitch": 72, "duration": 6, "velocity": 64}, {"time": 174, "pitch": 70, "duration": 6, "velocity": 64}, {"time": 180, "pitch": 67, "duration": 12, "velocity": 64}, {"time": 192, "pitch": 65, "duration": 3, "velocity": 64}, {"time": 195, "pitch": 67, "duration": 9, "velocity": 64}, {"time": 204, "pitch": 65, "duration": 3, "velocity": 64}, {"time": 207, "pitch": 67, "duration": 9, "velocity": 64}, {"time": 216, "pitch": 79, "duration": 12, "velocity": 64}, {"time": 228, "pitch": 79, "duration": 6, "velocity": 64}, {"time": 234, "pitch": 79, "duration": 6, "velocity": 64}, {"time": 240, "pitch": 77, "duration": 12, "velocity": 64}, {"time": 264, "pitch": 72, "duration": 6, "velocity": 64}, {"time": 270, "pitch": 75, "duration": 6, "velocity": 64}, {"time": 276, "pitch": 75, "duration": 24, "velocity": 64}, {"time": 300, "pitch": 77, "duration": 12, "velocity": 64}, {"time": 312, "pitch": 79, "duration": 6, "velocity": 64}, {"time": 318, "pitch": 75, "duration": 6, "velocity": 64}, {"time": 324, "pitch": 77, "duration": 12, "velocity": 64}, {"time": 348, "pitch": 77, "duration": 12, "velocity": 64}, {"time": 360, "pitch": 79, "duration": 3, "velocity": 64}, {"time": 363, "pitch": 77, "duration": 3, "velocity": 64}, {"time": 366, "pitch": 79, "duration": 3, "velocity": 64}, {"time": 369, "pitch": 77, "duration": 3, "velocity": 64}, {"time": 372, "pitch": 79, "duration": 24, "velocity": 64}, {"time": 396, "pitch": 72, "duration": 6, "velocity": 64}, {"time": 402, "pitch": 82, "duration": 6, "velocity": 64}, {"time": 408, "pitch": 79, "duration": 6, "velocity": 64}, {"time": 414, "pitch": 77, "duration": 18, "velocity": 64}, {"time": 432, "pitch": 75, "duration": 6, "velocity": 64}, {"time": 438, "pitch": 77, "duration": 6, "velocity": 64}, {"time": 444, "pitch": 79, "duration": 3, "velocity": 64}, {"time": 447, "pitch": 77, "duration": 3, "velocity": 64}, {"time": 450, "pitch": 79, "duration": 6, "velocity": 64}, {"time": 456, "pitch": 82, "duration": 6, "velocity": 64}, {"time": 462, "pitch": 79, "duration": 6, "velocity": 64}, {"time": 468, "pitch": 77, "duration": 24, "velocity": 64}, {"time": 492, "pitch": 75, "duration": 6, "velocity": 64}, {"time": 498, "pitch": 72, "duration": 6, "velocity": 64}, {"time": 516, "pitch": 77, "duration": 12, "velocity": 64}, {"time": 528, "pitch": 82, "duration": 3, "velocity": 64}, {"time": 531, "pitch": 80, "duration": 3, "velocity": 64}, {"time": 534, "pitch": 82, "duration": 3, "velocity": 64}, {"time": 537, "pitch": 80, "duration": 3, "velocity": 64}, {"time": 540, "pitch": 82, "duration": 12, "velocity": 64}, {"time": 552, "pitch": 80, "duration": 3, "velocity": 64}, {"time": 555, "pitch": 82, "duration": 3, "velocity": 64}, {"time": 558, "pitch": 80, "duration": 3, "velocity": 64}, {"time": 561, "pitch": 82, "duration": 3, "velocity": 64}, {"time": 564, "pitch": 80, "duration": 3, "velocity": 64}, {"time": 567, "pitch": 82, "duration": 3, "velocity": 64}, {"time": 570, "pitch": 82, "duration": 3, "velocity": 64}, {"time": 573, "pitch": 79, "duration": 3, "velocity": 64}, {"time": 576, "pitch": 72, "duration": 6, "velocity": 64}, {"time": 582, "pitch": 82, "duration": 6, "velocity": 64}, {"time": 588, "pitch": 79, "duration": 12, "velocity": 64}, {"time": 600, "pitch": 79, "duration": 24, "velocity": 64}, {"time": 624, "pitch": 82, "duration": 6, "velocity": 64}, {"time": 630, "pitch": 79, "duration": 6, "velocity": 64}, {"time": 636, "pitch": 77, "duration": 12, "velocity": 64}, {"time": 648, "pitch": 77, "duration": 12, "velocity": 64}, {"time": 660, "pitch": 75, "duration": 6, "velocity": 64}, {"time": 666, "pitch": 77, "duration": 6, "velocity": 64}, {"time": 672, "pitch": 79, "duration": 6, "velocity": 64}, {"time": 678, "pitch": 77, "duration": 3, "velocity": 64}, {"time": 681, "pitch": 79, "duration": 3, "velocity": 64}, {"time": 684, "pitch": 77, "duration": 6, "velocity": 64}, {"time": 690, "pitch": 79, "duration": 6, "velocity": 64}, {"time": 696, "pitch": 79, "duration": 6, "velocity": 64}, {"time": 702, "pitch": 79, "duration": 6, "velocity": 64}, {"time": 708, "pitch": 79, "duration": 12, "velocity": 64}, {"time": 720, "pitch": 79, "duration": 6, "velocity": 64}, {"time": 726, "pitch": 77, "duration": 6, "velocity": 64}, {"time": 732, "pitch": 77, "duration": 12, "velocity": 64}, {"time": 744, "pitch": 79, "duration": 12, "velocity": 64}, {"time": 756, "pitch": 72, "duration": 6, "velocity": 64}, {"time": 762, "pitch": 82, "duration": 6, "velocity": 64}, {"time": 768, "pitch": 79, "duration": 6, "velocity": 64}, {"time": 774, "pitch": 77, "duration": 18, "velocity": 64}, {"time": 792, "pitch": 75, "duration": 6, "velocity": 64}, {"time": 798, "pitch": 77, "duration": 6, "velocity": 64}, {"time": 804, "pitch": 79, "duration": 3, "velocity": 64}, {"time": 807, "pitch": 77, "duration": 3, "velocity": 64}, {"time": 810, "pitch": 79, "duration": 6, "velocity": 64}, {"time": 816, "pitch": 82, "duration": 6, "velocity": 64}, {"time": 822, "pitch": 79, "duration": 6, "velocity": 64}, {"time": 828, "pitch": 77, "duration": 12, "velocity": 64}, {"time": 840, "pitch": 77, "duration": 12, "velocity": 64}, {"time": 852, "pitch": 75, "duration": 6, "velocity": 64}, {"time": 858, "pitch": 72, "duration": 6, "velocity": 64}, {"time": 876, "pitch": 75, "duration": 12, "velocity": 64}, {"time": 888, "pitch": 77, "duration": 48, "velocity": 64}, {"time": 936, "pitch": 79, "duration": 6, "velocity": 64}, {"time": 942, "pitch": 77, "duration": 6, "velocity": 64}, {"time": 948, "pitch": 79, "duration": 12, "velocity": 64}, {"time": 960, "pitch": 77, "duration": 6, "velocity": 64}, {"time": 966, "pitch": 79, "duration": 18, "velocity": 64}, {"time": 984, "pitch": 72, "duration": 6, "velocity": 64}, {"time": 990, "pitch": 82, "duration": 6, "velocity": 64}, {"time": 996, "pitch": 79, "duration": 12, "velocity": 64}, {"time": 1008, "pitch": 79, "duration": 6, "velocity": 64}, {"time": 1014, "pitch": 79, "duration": 6, "velocity": 64}, {"time": 1020, "pitch": 79, "duration": 12, "velocity": 64}, {"time": 1032, "pitch": 79, "duration": 6, "velocity": 64}, {"time": 1038, "pitch": 77, "duration": 6, "velocity": 64}, {"time": 1044, "pitch": 75, "duration": 24, "velocity": 64}, {"time": 1068, "pitch": 77, "duration": 12, "velocity": 64}, {"time": 1080, "pitch": 79, "duration": 4, "velocity": 64}, {"time": 1084, "pitch": 77, "duration": 4, "velocity": 64}, {"time": 1088, "pitch": 79, "duration": 4, "velocity": 64}, {"time": 1092, "pitch": 77, "duration": 3, "velocity": 64}, {"time": 1095, "pitch": 79, "duration": 3, "velocity": 64}, {"time": 1098, "pitch": 77, "duration": 3, "velocity": 64}, {"time": 1101, "pitch": 79, "duration": 15, "velocity": 64}, {"time": 1116, "pitch": 72, "duration": 6, "velocity": 64}, {"time": 1122, "pitch": 82, "duration": 6, "velocity": 64}, {"time": 1128, "pitch": 79, "duration": 6, "velocity": 64}, {"time": 1134, "pitch": 77, "duration": 18, "velocity": 64}, {"time": 1152, "pitch": 75, "duration": 6, "velocity": 64}, {"time": 1158, "pitch": 77, "duration": 6, "velocity": 64}, {"time": 1164, "pitch": 79, "duration": 3, "velocity": 64}, {"time": 1167, "pitch": 77, "duration": 3, "velocity": 64}, {"time": 1170, "pitch": 79, "duration": 6, "velocity": 64}, {"time": 1176, "pitch": 82, "duration": 6, "velocity": 64}, {"time": 1182, "pitch": 79, "duration": 6, "velocity": 64}, {"time": 1188, "pitch": 77, "duration": 24, "velocity": 64}, {"time": 1212, "pitch": 75, "duration": 6, "velocity": 64}, {"time": 1218, "pitch": 72, "duration": 6, "velocity": 64}]}]}