{"metadata": {"schema_version": "0.1", "title": "Da ta qing", "source_format": "abc"}, "resolution": 24, "tempos": [{"time": 0, "qpm": 120.0}], "key_signatures": [{"time": 0, "root": 3, "mode": "major", "fifths": -3}], "time_signatures": [{"time": 0, "numerator": 4, "denominator": 4}, {"time": 624, "numerator": 16, "denominator": 4}, {"time": 1008, "numerator": 2, "denominator": 4}], "beats": [{"time": 0, "is_downbeat": true}, {"time": 24, "is_downbeat": false}, {"time": 48, "is_downbeat": true}, {"time": 72, "is_downbeat": false}, {"time": 96, "is_downbeat": true}, {"time": 120, "is_downbeat": false}, {"time": 144, "is_downbeat": true}, {"time": 168, "is_downbeat": false}, {"time": 192, "is_downbeat": true}, {"time": 216, "is_downbeat": false}, {"time": 240, "is_downbeat": true}, {"time": 264, "is_downbeat": false}, {"time": 288, "is_downbeat": true}, {"time": 312, "is_downbeat": false}, {"time": 336, "is_downbeat": true}, {"time": 360, "is_downbeat": false}, {"time": 384, "is_downbeat": true}, {"time": 408, "is_downbeat": false}, {"time": 432, "is_downbeat": true}, {"time": 456, "is_downbeat": false}, {"time": 480, "is_downbeat": true}, {"time": 504, "is_downbeat": false}, {"time": 528, "is_downbeat": true}, {"time": 552, "is_downbeat": false}, {"time": 576, "is_downbeat": true}, {"time": 600, "is_downbeat": false}, {"time": 624, "is_downbeat": true}, {"time": 648, "is_downbeat": false}, {"time": 672, "is_downbeat": true}, {"time": 696, "is_downbeat": false}, {"time": 720, "is_downbeat": true}, {"time": 744, "is_downbeat": false}, {"time": 768, "is_downbeat": true}, {"time": 792, "is_downbeat": false}, {"time": 816, "is_downbeat": true}, {"time": 840, "is_downbeat": false}, {"time": 864, "is_downbeat": true}, {"time": 888, "is_downbeat": false}, {"time": 912, "is_downbeat": true}, {"time": 936, "is_downbeat": false}, {"time": 960, "is_downbeat": true}, {"time": 984, "is_downbeat": false}, {"time": 1008, "is_downbeat": true}, {"time": 1032, "is_downbeat": false}, {"time": 1056, "is_downbeat": true}, {"time": 1080, "is_downbeat": false}, {"time": 1104, "is_downbeat": true}, {"time": 1128, "is_downbeat": false}, {"time": 1152, "is_downbeat": true}, {"time": 1176, "is_downbeat": false}, {"time": 1200, "is_downbeat": true}, {"time": 1224, "is_downbeat": false}, {"time": 1248, "is_downbeat": true}, {"time": 1272, "is_downbeat": false}, {"time": 1296, "is_downbeat": true}, {"time": 1320, "is_downbeat": false}, {"time": 1344, "is_downbeat": true}, {"time": 1368, "is_downbeat": false}, {"time": 1392, "is_downbeat": true}, {"time": 1416, "is_downbeat": false}, {"time": 1440, "is_downbeat": true}, {"time": 1464, "is_downbeat": false}, {"time": 1488, "is_downbeat": true}, {"time": 1512, "is_downbeat": false}], "tracks": [{"program": 0, "is_drum": false, "notes": [{"time": 0, "pitch": 67, "duration": 12, "velocity": 64}, {"time": 12, "pitch": 65, "duration": 12, "velocity": 64}, {"time": 24, "pitch": 63, "duration": 12, "velocity": 64}, {"time": 36, "pitch": 60, "duration": 6, "velocity": 64}, {"time": 42, "pitch": 63, "duration": 6, "velocity": 64}, {"time": 48, "pitch": 65, "duration": 36, "velocity": 64}, {"time": 84, "pitch": 70, "duration": 12, "velocity": 64}, {"time": 96, "pitch": 67, "duration": 12, "velocity": 64}, {"time": 108, "pitch": 65, "duration": 12, "velocity": 64}, {"time": 120, "pitch": 63, "duration": 12, "velocity": 64}, {"time": 132, "pitch": 60, "duration": 6, "velocity": 64}, {"time": 138, "pitch": 63, "duration": 6, "velocity": 64}, {"time": 144, "pitch": 65, "duration": 48, "velocity": 64}, {"time": 192, "pitch": 70, "duration": 12, "velocity": 64}, {"time": 204, "pitch": 67, "duration": 12, "velocity": 64}, {"time": 216, "pitch": 70, "duration": 12, "velocity": 64}, {"time": 228, "pitch": 75, "duration": 12, "velocity": 64}, {"time": 240, "pitch": 72, "duration": 12, "velocity": 64}, {"time": 252, "pitch": 70, "duration": 12, "velocity": 64}, {"time": 264, "pitch": 70, "duration": 12, "velocity": 64}, {"time": 276, "pitch": 72, "duration": 6, "velocity": 64}, {"time": 282, "pitch": 70, "duration": 6, "velocity": 64}, {"time": 288, "pitch": 67, "duration": 12, "velocity": 64}, {"time": 300, "pitch": 65, "duration": 12, "velocity": 64}, {"time": 312, "pitch": 63, "duration": 12, "velocity": 64}, {"time": 324, "pitch": 60, "duration": 6, "velocity": 64}, {"time": 330, "pitch": 63, "duration": 6, "velocity": 64}, {"time": 336, "pitch": 65, "duration": 48, "velocity": 64}, {"time": 384, "pitch": 70, "duration": 18, "velocity": 64}, {"time": 402, "pitch": 72, "duration": 6, "velocity": 64}, {"time": 408, "pitch": 67, "duration": 12, "velocity": 64}, {"time": 420, "pitch": 65, "duration": 12, "velocity": 64}, {"time": 432, "pitch": 63, "duration": 12, "velocity": 64}, {"time": 444, "pitch": 60, "duration": 6, "velocity": 64}, {"time": 450, "pitch": 63, "duration": 6, "velocity": 64}, {"time": 456, "pitch": 65, "duration": 24, "velocity": 64}, {"time": 480, "pitch": 70, "duration": 18, "velocity": 64}, {"time": 498, "pitch": 72, "duration": 6, "velocity": 64}, {"time": 504, "pitch": 67, "duration": 12, "velocity": 64}, {"time": 516, "pitch": 65, "duration": 12, "velocity": 64}, {"time": 528, "pitch": 63, "duration": 12, "velocity": 64}, {"time": 540, "pitch": 60, "duration": 6, "velocity": 64}, {"time": 546, "pitch": 63, "duration": 6, "velocity": 64}, {"time": 552, "pitch": 65, "duration": 24, "velocity": 64}, {"time": 576, "pitch": 67, "duration": 12, "velocity": 64}, {"time": 588, "pitch": 63, "duration": 12, "velocity": 64}, {"time": 600, "pitch": 65, "duration": 24, "velocity": 64}, {"time": 624, "pitch": 67, "duration": 12, "velocity": 64}, {"time": 636, "pitch": 63, "duration": 12, "velocity": 64}, {"time": 648, "pitch": 65, "duration": 24, "velocity": 64}, {"time": 672, "pitch": 67, "duration": 12, "velocity": 64}, {"time": 684, "pitch": 63, "duration": 12, "velocity": 64}, {"time": 696, "pitch": 65, "duration": 24, "velocity": 64}, {"time": 720, "pitch": 63, "duration": 12, "velocity": 64}, {"time": 732, "pitch": 67, "duration": 12, "velocity": 64}, {"time": 744, "pitch": 65, "duration": 24, "velocity": 64}, {"time": 768, "pitch": 63, "duration": 12, "velocity": 64}, {"time": 780, "pitch": 67, "duration": 12, "velocity": 64}, {"time": 792, "pitch": 65, "duration": 24, "velocity": 64}, {"time": 816, "pitch": 67, "duration": 12, "velocity": 64}, {"time": 828, "pitch": 63, "duration": 12, "velocity": 64}, {"time": 840, "pitch": 65, "duration": 24, "velocity": 64}, {"time": 864, "pitch": 67, "duration": 12, "velocity": 64}, {"time": 876, "pitch": 63, "duration": 12, "velocity": 64}, {"time": 888, "pitch": 65, "duration": 24, "velocity": 64}, {"time": 912, "pitch": 63, "duration": 12, "velocity": 64}, {"time": 924, "pitch": 65, "duration": 6, "velocity": 64}, {"time": 930, "pitch": 67, "duration": 6, "velocity": 64}, {"time": 936, "pitch": 65, "duration": 24, "velocity": 64}, {"time": 960, "pitch": 70, "duration": 18, "velocity": 64}, {"time": 978, "pitch": 72, "duration": 6, "velocity": 64}, {"time": 984, "pitch": 67, "duration": 12, "velocity": 64}, {"time": 996, "pitch": 65, "duration": 12, "velocity": 64}, {"time": 1008, "pitch": 63, "duration": 12, "velocity": 64}, {"time": 1020, "pitch": 67, "duration": 12, "velocity": 64}, {"time": 1032, "pitch": 65, "duration": 12, "velocity": 64}, {"time": 1044, "pitch": 65, "duration": 6, "velocity": 64}, {"time": 1050, "pitch": 65, "duration": 6, "velocity": 64}, {"time": 1056, "pitch": 58, "duration": 24, "velocity": 64}, {"time": 1080, "pitch": 63, "duration": 12, "velocity": 64}, {"time": 1092, "pitch": 63, "duration": 12, "velocity": 64}, {"time": 1104, "pitch": 65, "duration": 24, "velocity": 64}, {"time": 1128, "pitch": 63, "duration": 12, "velocity": 64}, {"time": 1140, "pitch": 60, "duration": 12, "velocity": 64}, {"time": 1152, "pitch": 58, "duration": 12, "velocity": 64}, {"time": 1164, "pitch": 58, "duration": 12, "velocity": 64}, {"time": 1176, "pitch": 56, "duration": 6, "velocity": 64}, {"time": 1182, "pitch": 58, "duration": 6, "velocity": 64}, {"time": 1188, "pitch": 60, "duration": 12, "velocity": 64}, {"time": 1200, "pitch": 58, "duration": 48, "velocity": 64}, {"time": 1248, "pitch": 65, "duration": 18, "velocity": 64}, {"time": 1266, "pitch": 67, "duration": 6, "velocity": 64}, {"time": 1272, "pitch": 70, "duration": 12, "velocity": 64}, {"time": 1284, "pitch": 70, "duration": 12, "velocity": 64}, {"time": 1296, "pitch": 70, "duration": 12, "velocity": 64}, {"time": 1308, "pitch": 67, "duration": 12, "velocity": 64}, {"time": 1320, "pitch": 65, "duration": 12, "velocity": 64}, {"time": 1332, "pitch": 63, "duration": 12, "velocity": 64}, {"time": 1344, "pitch": 58, "duration": 24, "velocity": 64}, {"time": 1368, "pitch": 63, "duration": 12, "velocity": 64}, {"time": 1380, "pitch": 63, "duration": 12, "velocity": 64}, {"time": 1392, "pitch": 65, "duration": 24, "velocity": 64}, {"time": 1416, "pitch": 63, "duration": 12, "velocity": 64}, {"time": 1428, "pitch": 60, "duration": 12, "velocity": 64}, {"time": 1440, "pitch": 58, "duration": 12, "velocity": 64}, {"time": 1452, "pitch": 58, "duration": 12, "velocity": 64}, {"time": 1464, "pitch": 56, "duration": 6, "velocity": 64}, {"time": 1470, "pitch": 58, "duration": 6, "velocity": 64}, {"time": 1476, "pitch": 60, "duration": 12, "velocity": 64}, {"time": 1488, "pitch": 58, "duration": 48, "velocity": 64}]}]}