{"metadata": {"schema_version": "0.1", "title": "Duikou shange", "source_format": "abc"}, "resolution": 24, "tempos": [{"time": 0, "qpm": 120.0}], "key_signatures": [{"time": 0, "root": 9, "mode": "major", "fifths": 3}], "time_signatures": [{"time": 0, "numerator": 4, "denominator": 4}, {"time": 336, "numerator": 3, "denominator": 4}, {"time": 888, "numerator": 3, "denominator": 4}, {"time": 960, "numerator": 2, "denominator": 4}], "beats": [{"time": 0, "is_downbeat": true}, {"time": 24, "is_downbeat": false}, {"time": 48, "is_downbeat": true}, {"time": 72, "is_downbeat": false}, {"time": 96, "is_downbeat": true}, {"time": 120, "is_downbeat": false}, {"time": 144, "is_downbeat": true}, {"time": 168, "is_downbeat": false}, {"time": 192, "is_downbeat": true}, {"time": 216, "is_downbeat": false}, {"time": 240, "is_downbeat": true}, {"time": 264, "is_downbeat": false}, {"time": 288, "is_downbeat": true}, {"time": 312, "is_downbeat": false}, {"time": 336, "is_downbeat": true}, {"time": 360, "is_downbeat": false}, {"time": 384, "is_downbeat": false}, {"time": 408, "is_downbeat": true}, {"time": 432, "is_downbeat": false}, {"time": 456, "is_downbeat": true}, {"time": 480, "is_downbeat": false}, {"time": 504, "is_downbeat": true}, {"time": 528, "is_downbeat": false}, {"time": 552, "is_downbeat": true}, {"time": 576, "is_downbeat": false}, {"time": 600, "is_downbeat": true}, {"time": 624, "is_downbeat": false}, {"time": 648, "is_downbeat": true}, {"time": 672, "is_downbeat": false}, {"time": 696, "is_downbeat": true}, {"time": 720, "is_downbeat": false}, {"time": 744, "is_downbeat": true}, {"time": 768, "is_downbeat": false}, {"time": 792, "is_downbeat": true}, {"time": 816, "is_downbeat": false}, {"time": 840, "is_downbeat": true}, {"time": 864, "is_downbeat": false}, {"time": 888, "is_downbeat": true}, {"time": 912, "is_downbeat": false}, {"time": 936, "is_downbeat": true}, {"time": 960, "is_downbeat": true}, {"time": 984, "is_downbeat": false}, {"time": 1008, "is_downbeat": true}, {"time": 1032, "is_downbeat": false}], "tracks": [{"program": 0, "is_drum": false, "notes": [{"time": 0, "pitch": 76, "duration": 6, "velocity": 64}, {"time": 6, "pitch": 73, "duration": 6, "velocity": 64}, {"time": 12, "pitch": 73, "duration": 6, "velocity": 64}, {"time": 18, "pitch": 81, "duration": 6, "velocity": 64}, {"time": 24, "pitch": 83, "duration": 24, "velocity": 64}, {"time": 48, "pitch": 73, "duration": 6, "velocity": 64}, {"time": 54, "pitch": 76, "duration": 3, "velocity": 64}, {"time": 57, "pitch": 76, "duration": 3, "velocity": 64}, {"time": 60, "pitch": 73, "duration": 6, "velocity": 64}, {"time": 66, "pitch": 81, "duration": 6, "velocity": 64}, {"time": 72, "pitch": 83, "duration": 24, "velocity": 64}, {"time": 96, "pitch": 83, "duration": 12, "velocity": 64}, {"time": 108, "pitch": 83, "duration": 6, "velocity": 64}, {"time": 114, "pitch": 83, "duration": 6, "velocity": 64}, {"time": 120, "pitch": 83, "duration": 12, "velocity": 64}, {"time": 132, "pitch": 81, "duration": 12, "velocity": 64}, {"time": 144, "pitch": 78, "duration": 12, "velocity": 64}, {"time": 156, "pitch": 76, "duration": 12, "velocity": 64}, {"time": 168, "pitch": 73, "duration": 18, "velocity": 64}, {"time": 186, "pitch": 76, "duration": 6, "velocity": 64}, {"time": 192, "pitch": 83, "duration": 6, "velocity": 64}, {"time": 198, "pitch": 80, "duration": 6, "velocity": 64}, {"time": 204, "pitch": 78, "duration": 12, "velocity": 64}, {"time": 216, "pitch": 76, "duration": 24, "velocity": 64}, {"time": 240, "pitch": 76, "duration": 6, "velocity": 64}, {"time": 246, "pitch": 78, "duration": 6, "velocity": 64}, {"time": 252, "pitch": 78, "duration": 12, "velocity": 64}, {"time": 264, "pitch": 78, "duration": 12, "velocity": 64}, {"time": 276, "pitch": 81, "duration": 12, "velocity": 64}, {"time": 288, "pitch": 73, "duration": 12, "velocity": 64}, {"time": 300, "pitch": 83, "duration": 12, "velocity": 64}, {"time": 312, "pitch": 83, "duration": 12, "velocity": 64}, {"time": 324, "pitch": 81, "duration": 12, "velocity": 64}, {"time": 336, "pitch": 78, "duration": 24, "velocity": 64}, {"time": 360, "pitch": 81, "duration": 6, "velocity": 64}, {"time": 366, "pitch": 73, "duration": 6, "velocity": 64}, {"time": 372, "pitch": 83, "duration": 12, "velocity": 64}, {"time": 384, "pitch": 83, "duration": 12, "velocity": 64}, {"time": 396, "pitch": 81, "duration": 12, "velocity": 64}, {"time": 408, "pitch": 78, "duration": 12, "velocity": 64}, {"time": 420, "pitch": 76, "duration": 12, "velocity": 64}, {"time": 432, "pitch": 73, "duration": 12, "velocity": 64}, {"time": 444, "pitch": 76, "duration": 12, "velocity": 64}, {"time": 456, "pitch": 83, "duration": 12, "velocity": 64}, {"time": 468, "pitch": 80, "duration": 6, "velocity": 64}, {"time": 474, "pitch": 78, "duration": 6, "velocity": 64}, {"time": 480, "pitch": 76, "duration": 24, "velocity": 64}, {"time": 504, "pitch": 73, "duration": 6, "velocity": 64}, {"time": 510, "pitch": 73, "duration": 3, "velocity": 64}, {"time": 513, "pitch": 76, "duration": 3, "velocity": 64}, {"time": 516, "pitch": 73, "duration": 6, "velocity": 64}, {"time": 522, "pitch": 81, "duration": 6, "velocity": 64}, {"time": 528, "pitch": 83, "duration": 24, "velocity": 64}, {"time": 552, "pitch": 73, "duration": 6, "velocity": 64}, {"time": 558, "pitch": 76, "duration": 3, "velocity": 64}, {"time": 561, "pitch": 76, "duration": 3, "velocity": 64}, {"time": 564, "pitch": 73, "duration": 6, "velocity": 64}, {"time": 570, "pitch": 81, "duration": 6, "velocity": 64}, {"time": 576, "pitch": 83, "duration": 24, "velocity": 64}, {"time": 600, "pitch": 78, "duration": 6, "velocity": 64}, {"time": 606, "pitch": 73, "duration": 6, "velocity": 64}, {"time": 612, "pitch": 83, "duration": 12, "velocity": 64}, {"time": 624, "pitch": 83, "duration": 12, "velocity": 64}, {"time": 636, "pitch": 81, "duration": 12, "velocity": 64}, {"time": 648, "pitch": 78, "duration": 12, "velocity": 64}, {"time": 660, "pitch": 76, "duration": 12, "velocity": 64}, {"time": 672, "pitch": 83, "duration": 12, "velocity": 64}, {"time": 684, "pitch": 81, "duration": 12, "velocity": 64}, {"time": 696, "pitch": 78, "duration": 18, "velocity": 64}, {"time": 714, "pitch": 76, "duration": 6, "velocity": 64}, {"time": 720, "pitch": 73, "duration": 12, "velocity": 64}, {"time": 732, "pitch": 76, "duration": 12, "velocity": 64}, {"time": 744, "pitch": 83, "duration": 6, "velocity": 64}, {"time": 750, "pitch": 80, "duration": 6, "velocity": 64}, {"time": 756, "pitch": 78, "duration": 6, "velocity": 64}, {"time": 762, "pitch": 81, "duration": 6, "velocity": 64}, {"time": 768, "pitch": 76, "duration": 24, "velocity": 64}, {"time": 792, "pitch": 76, "duration": 6, "velocity": 64}, {"time": 798, "pitch": 78, "duration": 6, "velocity": 64}, {"time": 804, "pitch": 78, "duration": 12, "velocity": 64}, {"time": 816, "pitch": 78, "duration": 12, "velocity": 64}, {"time": 828, "pitch": 81, "duration": 12, "velocity": 64}, {"time": 840, "pitch": 73, "duration": 12, "velocity": 64}, {"time": 852, "pitch": 83, "duration": 12, "velocity": 64}, {"time": 864, "pitch": 83, "duration": 12, "velocity": 64}, {"time": 876, "pitch": 81, "duration": 12, "velocity": 64}, {"time": 888, "pitch": 78, "duration": 24, "velocity": 64}, {"time": 912, "pitch": 81, "duration": 6, "velocity": 64}, {"time": 918, "pitch": 73, "duration": 6, "velocity": 64}, {"time": 924, "pitch": 83, "duration": 12, "velocity": 64}, {"time": 936, "pitch": 83, "duration": 12, "velocity": 64}, {"time": 948, "pitch": 81, "duration": 12, "velocity": 64}, {"time": 960, "pitch": 78, "duration": 12, "velocity": 64}, {"time": 972, "pitch": 76, "duration": 12, "velocity": 64}, {"time": 984, "pitch": 73, "duration": 12, "velocity": 64}, {"time": 996, "pitch": 76, "duration": 12, "velocity": 64}, {"time": 1008, "pitch": 83, "duration": 6, "velocity": 64}, {"time": 1014, "pitch": 80, "duration": 6, "velocity": 64}, {"time": 1020, "pitch": 78, "duration": 6, "velocity": 64}, {"time": 1026, "pitch": 81, "duration": 6, "velocity": 64}, {"time": 1032, "pitch": 76, "duration": 24, "velocity": 64}]}]}