{"metadata": {"schema_version": "0.1", "title": "Xiu mudan", "source_format": "abc"}, "resolution": 24, "tempos": [{"time": 0, "qpm": 120.0}], "key_signatures": [{"time": 0, "root": 0, "mode": "major", "fifths": 0}], "time_signatures": [{"time": 0, "numerator": 2, "denominator": 4}], "beats": [{"time": 0, "is_downbeat": true}, {"time": 24, "is_downbeat": false}, {"time": 48, "is_downbeat": true}, {"time": 72, "is_downbeat": false}, {"time": 96, "is_downbeat": true}, {"time": 120, "is_downbeat": false}, {"time": 144, "is_downbeat": true}, {"time": 168, "is_downbeat": false}, {"time": 192, "is_downbeat": true}, {"time": 216, "is_downbeat": false}, {"time": 240, "is_downbeat": true}, {"time": 264, "is_downbeat": false}, {"time": 288, "is_downbeat": true}, {"time": 312, "is_downbeat": false}, {"time": 336, "is_downbeat": true}, {"time": 360, "is_downbeat": false}, {"time": 384, "is_downbeat": true}, {"time": 408, "is_downbeat": false}, {"time": 432, "is_downbeat": true}, {"time": 456, "is_downbeat": false}, {"time": 480, "is_downbeat": true}, {"time": 504, "is_downbeat": false}, {"time": 528, "is_downbeat": true}, {"time": 552, "is_downbeat": false}, {"time": 576, "is_downbeat": true}, {"time": 600, "is_downbeat": false}, {"time": 624, "is_downbeat": true}, {"time": 648, "is_downbeat": false}, {"time": 672, "is_downbeat": true}, {"time": 696, "is_downbeat": false}, {"time": 720, "is_downbeat": true}, {"time": 744, "is_downbeat": false}, {"time": 768, "is_downbeat": true}, {"time": 792, "is_downbeat": false}, {"time": 816, "is_downbeat": true}, {"time": 840, "is_downbeat": false}, {"time": 864, "is_downbeat": true}, {"time": 888, "is_downbeat": false}, {"time": 912, "is_downbeat": true}, {"time": 936, "is_downbeat": false}, {"time": 960, "is_downbeat": true}, {"time": 984, "is_downbeat": false}, {"time": 1008, "is_downbeat": true}, {"time": 1032, "is_downbeat": false}, {"time": 1056, "is_downbeat": true}, {"time": 1080, "is_downbeat": false}, {"time": 1104, "is_downbeat": true}, {"time": 1128, "is_downbeat": false}, {"time": 1152, "is_downbeat": true}, {"time": 1176, "is_downbeat": false}, {"time": 1200, "is_downbeat": true}, {"time": 1224, "is_downbeat": false}, {"time": 1248, "is_downbeat": true}, {"time": 1272, "is_downbeat": false}, {"time": 1296, "is_downbeat": true}, {"time": 1320, "is_downbeat": false}, {"time": 1344, "is_downbeat": true}, {"time": 1368, "is_downbeat": false}, {"time": 1392, "is_downbeat": true}, {"time": 1416, "is_downbeat": false}, {"time": 1440, "is_downbeat": true}, {"time": 1464, "is_downbeat": false}, {"time": 1488, "is_downbeat": true}, {"time": 1512, "is_downbeat": false}, {"time": 1536, "is_downbeat": true}, {"time": 1560, "is_downbeat": false}, {"time": 1584, "is_downbeat": true}, {"time": 1608, "is_downbeat": false}, {"time": 1632, "is_downbeat": true}, {"time": 1656, "is_downbeat": false}, {"time": 1680, "is_downbeat": true}, {"time": 1704, "is_downbeat": false}, {"time": 1728, "is_downbeat": true}, {"time": 1752, "is_downbeat": false}], "tracks": [{"program": 0, "is_drum": false, "notes": [{"time": 0, "pitch": 69, "duration": 6, "velocity": 64}, {"time": 6, "pitch": 76, "duration": 6, "velocity": 64}, {"time": 12, "pitch": 76, "duration": 6, "velocity": 64}, {"time": 18, "pitch": 76, "duration": 6, "velocity": 64}, {"time": 24, "pitch": 74, "duration": 12, "velocity": 64}, {"time": 36, "pitch": 72, "duration": 6, "velocity": 64}, {"time": 42, "pitch": 69, "duration": 6, "velocity": 64}, {"time": 48, "pitch": 69, "duration": 12, "velocity": 64}, {"time": 60, "pitch": 72, "duration": 12, "velocity": 64}, {"time": 72, "pitch": 72, "duration": 12, "velocity": 64}, {"time": 90, "pitch": 69, "duration": 6, "velocity": 64}, {"time": 96, "pitch": 67, "duration": 18, "velocity": 64}, {"time": 114, "pitch": 72, "duration": 6, "velocity": 64}, {"time": 120, "pitch": 69, "duration": 12, "velocity": 64}, {"time": 132, "pitch": 67, "duration": 12, "velocity": 64}, {"time": 144, "pitch": 64, "duration": 12, "velocity": 64}, {"time": 156, "pitch": 62, "duration": 12, "velocity": 64}, {"time": 168, "pitch": 64, "duration": 12, "velocity": 64}, {"time": 192, "pitch": 79, "duration": 12, "velocity": 64}, {"time": 204, "pitch": 76, "duration": 12, "velocity": 64}, {"time": 216, "pitch": 74, "duration": 12, "velocity": 64}, {"time": 228, "pitch": 76, "duration": 6, "velocity": 64}, {"time": 234, "pitch": 76, "duration": 6, "velocity": 64}, {"time": 240, "pitch": 69, "duration": 12, "velocity": 64}, {"time": 252, "pitch": 76, "duration": 12, "velocity": 64}, {"time": 264, "pitch": 74, "duration": 6, "velocity": 64}, {"time": 270, "pitch": 72, "duration": 6, "velocity": 64}, {"time": 276, "pitch": 69, "duration": 6, "velocity": 64}, {"time": 282, "pitch": 67, "duration": 6, "velocity": 64}, {"time": 288, "pitch": 64, "duration": 12, "velocity": 64}, {"time": 300, "pitch": 72, "duration": 12, "velocity": 64}, {"time": 312, "pitch": 69, "duration": 12, "velocity": 64}, {"time": 324, "pitch": 67, "duration": 12, "velocity": 64}, {"time": 336, "pitch": 64, "duration": 12, "velocity": 64}, {"time": 348, "pitch": 62, "duration": 12, "velocity": 64}, {"time": 360, "pitch": 64, "duration": 12, "velocity": 64}, {"time": 384, "pitch": 76, "duration": 12, "velocity": 64}, {"time": 396, "pitch": 76, "duration": 12, "velocity": 64}, {"time": 408, "pitch": 74, "duration": 18, "velocity": 64}, {"time": 426, "pitch": 72, "duration": 6, "velocity": 64}, {"time": 432, "pitch": 72, "duration": 12, "velocity": 64}, {"time": 444, "pitch": 72, "duration": 12, "velocity": 64}, {"time": 456, "pitch": 72, "duration": 12, "velocity": 64}, {"time": 468, "pitch": 69, "duration": 12, "velocity": 64}, {"time": 480, "pitch": 72, "duration": 6, "velocity": 64}, {"time": 486, "pitch": 72, "duration": 18, "velocity": 64}, {"time": 504, "pitch": 64, "duration": 12, "velocity": 64}, {"time": 516, "pitch": 72, "duration": 12, "velocity": 64}, {"time": 528, "pitch": 62, "duration": 12, "velocity": 64}, {"time": 540, "pitch": 66, "duration": 12, "velocity": 64}, {"time": 552, "pitch": 64, "duration": 12, "velocity": 64}, {"time": 576, "pitch": 72, "duration": 18, "velocity": 64}, {"time": 594, "pitch": 74, "duration": 6, "velocity": 64}, {"time": 600, "pitch": 76, "duration": 24, "velocity": 64}, {"time": 624, "pitch": 74, "duration": 18, "velocity": 64}, {"time": 642, "pitch": 69, "duration": 6, "velocity": 64}, {"time": 648, "pitch": 72, "duration": 24, "velocity": 64}, {"time": 672, "pitch": 69, "duration": 12, "velocity": 64}, {"time": 684, "pitch": 76, "duration": 12, "velocity": 64}, {"time": 696, "pitch": 74, "duration": 6, "velocity": 64}, {"time": 702, "pitch": 72, "duration": 6, "velocity": 64}, {"time": 708, "pitch": 69, "duration": 6, "velocity": 64}, {"time": 714, "pitch": 72, "duration": 6, "velocity": 64}, {"time": 720, "pitch": 67, "duration": 36, "velocity": 64}, {"time": 756, "pitch": 64, "duration": 12, "velocity": 64}, {"time": 768, "pitch": 67, "duration": 18, "velocity": 64}, {"time": 786, "pitch": 69, "duration": 6, "velocity": 64}, {"time": 792, "pitch": 72, "duration": 24, "velocity": 64}, {"time": 816, "pitch": 69, "duration": 18, "velocity": 64}, {"time": 834, "pitch": 72, "duration": 6, "velocity": 64}, {"time": 840, "pitch": 67, "duration": 12, "velocity": 64}, {"time": 852, "pitch": 64, "duration": 12, "velocity": 64}, {"time": 864, "pitch": 67, "duration": 18, "velocity": 64}, {"time": 882, "pitch": 64, "duration": 6, "velocity": 64}, {"time": 888, "pitch": 62, "duration": 6, "velocity": 64}, {"time": 894, "pitch": 64, "duration": 6, "velocity": 64}, {"time": 900, "pitch": 66, "duration": 6, "velocity": 64}, {"time": 906, "pitch": 67, "duration": 6, "velocity": 64}, {"time": 912, "pitch": 64, "duration": 48, "velocity": 64}, {"time": 960, "pitch": 62, "duration": 18, "velocity": 64}, {"time": 978, "pitch": 64, "duration": 6, "velocity": 64}, {"time": 984, "pitch": 60, "duration": 12, "velocity": 64}, {"time": 996, "pitch": 59, "duration": 12, "velocity": 64}, {"time": 1008, "pitch": 57, "duration": 48, "velocity": 64}, {"time": 1056, "pitch": 62, "duration": 12, "velocity": 64}, {"time": 1068, "pitch": 62, "duration": 12, "velocity": 64}, {"time": 1080, "pitch": 62, "duration": 12, "velocity": 64}, {"time": 1092, "pitch": 62, "duration": 12, "velocity": 64}, {"time": 1104, "pitch": 67, "duration": 18, "velocity": 64}, {"time": 1122, "pitch": 62, "duration": 6, "velocity": 64}, {"time": 1128, "pitch": 64, "duration": 24, "velocity": 64}, {"time": 1152, "pitch": 69, "duration": 12, "velocity": 64}, {"time": 1164, "pitch": 69, "duration": 12, "velocity": 64}, {"time": 1176, "pitch": 69, "duration": 12, "velocity": 64}, {"time": 1188, "pitch": 69, "duration": 12, "velocity": 64}, {"time": 1200, "pitch": 72, "duration": 18, "velocity": 64}, {"time": 1218, "pitch": 67, "duration": 6, "velocity": 64}, {"time": 1224, "pitch": 69, "duration": 24, "velocity": 64}, {"time": 1248, "pitch": 67, "duration": 18, "velocity": 64}, {"time": 1266, "pitch": 69, "duration": 6, "velocity": 64}, {"time": 1272, "pitch": 72, "duration": 24, "velocity": 64}, {"time": 1296, "pitch": 69, "duration": 18, "velocity": 64}, {"time": 1314, "pitch": 72, "duration": 6, "velocity": 64}, {"time": 1320, "pitch": 67, "duration": 12, "velocity": 64}, {"time": 1332, "pitch": 62, "duration": 12, "velocity": 64}, {"time": 1344, "pitch": 64, "duration": 24, "velocity": 64}, {"time": 1380, "pitch": 64, "duration": 6, "velocity": 64}, {"time": 1386, "pitch": 67, "duration": 6, "velocity": 64}, {"time": 1392, "pitch": 74, "duration": 12, "velocity": 64}, {"time": 1404, "pitch": 74, "duration": 6, "velocity": 64}, {"time": 1410, "pitch": 76, "duration": 6, "velocity": 64}, {"time": 1416, "pitch": 72, "duration": 12, "velocity": 64}, {"time": 1428, "pitch": 71, "duration": 12, "velocity": 64}, {"time": 1440, "pitch": 69, "duration": 48, "velocity": 64}, {"time": 1488, "pitch": 67, "duration": 12, "velocity": 64}, {"time": 1500, "pitch": 67, "duration": 6, "velocity": 64}, {"time": 1506, "pitch": 64, "duration": 6, "velocity": 64}, {"time": 1512, "pitch": 62, "duration": 6, "velocity": 64}, {"time": 1518, "pitch": 64, "duration": 6, "velocity": 64}, {"time": 1524, "pitch": 66, "duration": 12, "velocity": 64}, {"time": 1536, "pitch": 64, "duration": 48, "velocity": 64}, {"time": 1584, "pitch": 71, "duration": 12, "velocity": 64}, {"time": 1596, "pitch": 71, "duration": 6, "velocity": 64}, {"time": 1602, "pitch": 69, "duration": 6, "velocity": 64}, {"time": 1608, "pitch": 67, "duration": 12, "velocity": 64}, {"time": 1620, "pitch": 71, "duration": 12, "velocity": 64}, {"time": 1632, "pitch": 69, "duration": 48, "velocity": 64}, {"time": 1680, "pitch": 67, "duration": 12, "velocity": 64}, {"time": 1692, "pitch": 67, "duration": 6, "velocity": 64}, {"time": 1698, "pitch": 64, "duration": 6, "velocity": 64}, {"time": 1704, "pitch": 62, "duration": 12, "velocity": 64}, {"time": 1716, "pitch": 66, "duration": 12, "velocity": 64}, {"time": 1728, "pitch": 64, "duration": 48, "velocity": 64}]}]}