{"metadata": {"schema_version": "0.1", "title": "Fengbao ge", "source_format": "abc"}, "resolution": 24, "tempos": [{"time": 0, "qpm": 120.0}], "key_signatures": [{"time": 0, "root": 7, "mode": "major", "fifths": 1}], "time_signatures": [{"time": 0, "numerator": 2, "denominator": 4}], "beats": [{"time": 0, "is_downbeat": true}, {"time": 24, "is_downbeat": false}, {"time": 48, "is_downbeat": true}, {"time": 72, "is_downbeat": false}, {"time": 96, "is_downbeat": true}, {"time": 120, "is_downbeat": false}, {"time": 144, "is_downbeat": true}, {"time": 168, "is_downbeat": false}, {"time": 192, "is_downbeat": true}, {"time": 216, "is_downbeat": false}, {"time": 240, "is_downbeat": true}, {"time": 264, "is_downbeat": false}, {"time": 288, "is_downbeat": true}, {"time": 312, "is_downbeat": false}, {"time": 336, "is_downbeat": true}, {"time": 360, "is_downbeat": false}, {"time": 384, "is_downbeat": true}, {"time": 408, "is_downbeat": false}, {"time": 432, "is_downbeat": true}, {"time": 456, "is_downbeat": false}, {"time": 480, "is_downbeat": true}, {"time": 504, "is_downbeat": false}, {"time": 528, "is_downbeat": true}, {"time": 552, "is_downbeat": false}], "tracks": [{"program": 0, "is_drum": false, "notes": [{"time": 0, "pitch": 81, "duration": 6, "velocity": 64}, {"time": 6, "pitch": 74, "duration": 6, "velocity": 64}, {"time": 12, "pitch": 74, "duration": 6, "velocity": 64}, {"time": 18, "pitch": 74, "duration": 6, "velocity": 64}, {"time": 24, "pitch": 83, "duration": 12, "velocity": 64}, {"time": 36, "pitch": 74, "duration": 12, "velocity": 64}, {"time": 48, "pitch": 83, "duration": 12, "velocity": 64}, {"time": 60, "pitch": 76, "duration": 12, "velocity": 64}, {"time": 72, "pitch": 76, "duration": 6, "velocity": 64}, {"time": 78, "pitch": 74, "duration": 6, "velocity": 64}, {"time": 84, "pitch": 74, "duration": 6, "velocity": 64}, {"time": 90, "pitch": 83, "duration": 6, "velocity": 64}, {"time": 96, "pitch": 81, "duration": 48, "velocity": 64}, {"time": 144, "pitch": 81, "duration": 18, "velocity": 64}, {"time": 162, "pitch": 74, "duration": 6, "velocity": 64}, {"time": 168, "pitch": 76, "duration": 6, "velocity": 64}, {"time": 174, "pitch": 79, "duration": 6, "velocity": 64}, {"time": 180, "pitch": 81, "duration": 12, "velocity": 64}, {"time": 192, "pitch": 81, "duration": 12, "velocity": 64}, {"time": 204, "pitch": 76, "duration": 12, "velocity": 64}, {"time": 216, "pitch": 79, "duration": 12, "velocity": 64}, {"time": 228, "pitch": 76, "duration": 6, "velocity": 64}, {"time": 234, "pitch": 79, "duration": 6, "velocity": 64}, {"time": 240, "pitch": 76, "duration": 48, "velocity": 64}, {"time": 288, "pitch": 71, "duration": 18, "velocity": 64}, {"time": 306, "pitch": 74, "duration": 6, "velocity": 64}, {"time": 312, "pitch": 76, "duration": 12, "velocity": 64}, {"time": 324, "pitch": 79, "duration": 12, "velocity": 64}, {"time": 336, "pitch": 81, "duration": 6, "velocity": 64}, {"time": 342, "pitch": 81, "duration": 6, "velocity": 64}, {"time": 348, "pitch": 79, "duration": 6, "velocity": 64}, {"time": 354, "pitch": 76, "duration": 6, "velocity": 64}, {"time": 360, "pitch": 76, "duration": 12, "velocity": 64}, {"time": 384, "pitch": 71, "duration": 12, "velocity": 64}, {"time": 396, "pitch": 76, "duration": 6, "velocity": 64}, {"time": 402, "pitch": 74, "duration": 6, "velocity": 64}, {"time": 408, "pitch": 76, "duration": 6, "velocity": 64}, {"time": 414, "pitch": 79, "duration": 6, "velocity": 64}, {"time": 420, "pitch": 81, "duration": 12, "velocity": 64}, {"time": 432, "pitch": 81, "duration": 24, "velocity": 64}, {"time": 456, "pitch": 81, "duration": 6, "velocity": 64}, {"time": 462, "pitch": 79, "duration": 6, "velocity": 64}, {"time": 468, "pitch": 76, "duration": 6, "velocity": 64}, {"time": 474, "pitch": 74, "duration": 3, "velocity": 64}, {"time": 477, "pitch": 76, "duration": 3, "velocity": 64}, {"time": 480, "pitch": 74, "duration": 12, "velocity": 64}, {"time": 492, "pitch": 74, "duration": 84, "velocity": 64}]}]}