{"metadata": {"schema_version": "0.1", "title": "Duihua", "source_format": "abc"}, "resolution": 24, "tempos": [{"time": 0, "qpm": 120.0}], "key_signatures": [{"time": 0, "root": 8, "mode": "major", "fifths": -4}], "time_signatures": [{"time": 0, "numerator": 4, "denominator": 4}, {"time": 144, "numerator": 3, "denominator": 2}, {"time": 336, "numerator": 3, "denominator": 2}, {"time": 528, "numerator": 3, "denominator": 2}, {"time": 864, "numerator": 1, "denominator": 4}, {"time": 936, "numerator": 3, "denominator": 4}, {"time": 1056, "numerator": 1, "denominator": 4}, {"time": 1080, "numerator": 2, "denominator": 4}], "beats": [{"time": 0, "is_downbeat": true}, {"time": 48, "is_downbeat": true}, {"time": 96, "is_downbeat": true}, {"time": 144, "is_downbeat": true}, {"time": 192, "is_downbeat": false}, {"time": 240, "is_downbeat": false}, {"time": 288, "is_downbeat": true}, {"time": 336, "is_downbeat": true}, {"time": 384, "is_downbeat": false}, {"time": 432, "is_downbeat": false}, {"time": 480, "is_downbeat": true}, {"time": 528, "is_downbeat": true}, {"time": 552, "is_downbeat": true}, {"time": 576, "is_downbeat": true}, {"time": 600, "is_downbeat": true}, {"time": 624, "is_downbeat": true}, {"time": 648, "is_downbeat": true}, {"time": 672, "is_downbeat": true}, {"time": 696, "is_downbeat": true}, {"time": 720, "is_downbeat": true}, {"time": 744, "is_downbeat": true}, {"time": 768, "is_downbeat": true}, {"time": 792, "is_downbeat": true}, {"time": 816, "is_downbeat": true}, {"time": 840, "is_downbeat": true}, {"time": 864, "is_downbeat": true}, {"time": 888, "is_downbeat": true}, {"time": 912, "is_downbeat": false}, {"time": 936, "is_downbeat": true}, {"time": 960, "is_downbeat": true}, {"time": 984, "is_downbeat": true}, {"time": 1008, "is_downbeat": true}, {"time": 1032, "is_downbeat": true}, {"time": 1056, "is_downbeat": true}, {"time": 1080, "is_downbeat": true}, {"time": 1104, "is_downbeat": false}, {"time": 1128, "is_downbeat": true}, {"time": 1152, "is_downbeat": false}, {"time": 1176, "is_downbeat": true}, {"time": 1200, "is_downbeat": false}, {"time": 1224, "is_downbeat": true}, {"time": 1248, "is_downbeat": false}], "tracks": [{"program": 0, "is_drum": false, "notes": [{"time": 0, "pitch": 72, "duration": 12, "velocity": 64}, {"time": 12, "pitch": 75, "duration": 12, "velocity": 64}, {"time": 24, "pitch": 77, "duration": 12, "velocity": 64}, {"time": 36, "pitch": 72, "duration": 6, "velocity": 64}, {"time": 42, "pitch": 75, "duration": 6, "velocity": 64}, {"time": 48, "pitch": 72, "duration": 6, "velocity": 64}, {"time": 54, "pitch": 70, "duration": 6, "velocity": 64}, {"time": 60, "pitch": 68, "duration": 12, "velocity": 64}, {"time": 72, "pitch": 68, "duration": 24, "velocity": 64}, {"time": 96, "pitch": 75, "duration": 12, "velocity": 64}, {"time": 108, "pitch": 72, "duration": 6, "velocity": 64}, {"time": 114, "pitch": 75, "duration": 6, "velocity": 64}, {"time": 120, "pitch": 77, "duration": 12, "velocity": 64}, {"time": 132, "pitch": 75, "duration": 12, "velocity": 64}, {"time": 144, "pitch": 72, "duration": 12, "velocity": 64}, {"time": 156, "pitch": 72, "duration": 6, "velocity": 64}, {"time": 162, "pitch": 70, "duration": 6, "velocity": 64}, {"time": 168, "pitch": 68, "duration": 24, "velocity": 64}, {"time": 192, "pitch": 68, "duration": 12, "velocity": 64}, {"time": 204, "pitch": 70, "duration": 12, "velocity": 64}, {"time": 216, "pitch": 72, "duration": 18, "velocity": 64}, {"time": 234, "pitch": 70, "duration": 6, "velocity": 64}, {"time": 240, "pitch": 69, "duration": 12, "velocity": 64}, {"time": 252, "pitch": 70, "duration": 36, "velocity": 64}, {"time": 288, "pitch": 65, "duration": 18, "velocity": 64}, {"time": 306, "pitch": 68, "duration": 6, "velocity": 64}, {"time": 312, "pitch": 70, "duration": 12, "velocity": 64}, {"time": 324, "pitch": 70, "duration": 12, "velocity": 64}, {"time": 336, "pitch": 68, "duration": 48, "velocity": 64}, {"time": 384, "pitch": 67, "duration": 12, "velocity": 64}, {"time": 396, "pitch": 65, "duration": 12, "velocity": 64}, {"time": 408, "pitch": 68, "duration": 12, "velocity": 64}, {"time": 420, "pitch": 68, "duration": 6, "velocity": 64}, {"time": 426, "pitch": 68, "duration": 6, "velocity": 64}, {"time": 432, "pitch": 68, "duration": 12, "velocity": 64}, {"time": 444, "pitch": 68, "duration": 6, "velocity": 64}, {"time": 450, "pitch": 65, "duration": 6, "velocity": 64}, {"time": 456, "pitch": 63, "duration": 24, "velocity": 64}, {"time": 480, "pitch": 68, "duration": 6, "velocity": 64}, {"time": 486, "pitch": 65, "duration": 6, "velocity": 64}, {"time": 492, "pitch": 72, "duration": 12, "velocity": 64}, {"time": 504, "pitch": 70, "duration": 18, "velocity": 64}, {"time": 522, "pitch": 68, "duration": 6, "velocity": 64}, {"time": 528, "pitch": 60, "duration": 12, "velocity": 64}, {"time": 540, "pitch": 63, "duration": 36, "velocity": 64}, {"time": 576, "pitch": 70, "duration": 12, "velocity": 64}, {"time": 588, "pitch": 70, "duration": 12, "velocity": 64}, {"time": 600, "pitch": 68, "duration": 24, "velocity": 64}, {"time": 624, "pitch": 72, "duration": 12, "velocity": 64}, {"time": 636, "pitch": 75, "duration": 24, "velocity": 64}, {"time": 660, "pitch": 77, "duration": 12, "velocity": 64}, {"time": 672, "pitch": 72, "duration": 6, "velocity": 64}, {"time": 678, "pitch": 70, "duration": 6, "velocity": 64}, {"time": 684, "pitch": 68, "duration": 36, "velocity": 64}, {"time": 720, "pitch": 77, "duration": 18, "velocity": 64}, {"time": 738, "pitch": 75, "duration": 6, "velocity": 64}, {"time": 744, "pitch": 72, "duration": 12, "velocity": 64}, {"time": 756, "pitch": 75, "duration": 12, "velocity": 64}, {"time": 768, "pitch": 77, "duration": 24, "velocity": 64}, {"time": 792, "pitch": 75, "duration": 24, "velocity": 64}, {"time": 816, "pitch": 72, "duration": 18, "velocity": 64}, {"time": 834, "pitch": 70, "duration": 6, "velocity": 64}, {"time": 840, "pitch": 70, "duration": 12, "velocity": 64}, {"time": 852, "pitch": 68, "duration": 24, "velocity": 64}, {"time": 876, "pitch": 70, "duration": 12, "velocity": 64}, {"time": 888, "pitch": 72, "duration": 12, "velocity": 64}, {"time": 900, "pitch": 70, "duration": 12, "velocity": 64}, {"time": 912, "pitch": 70, "duration": 12, "velocity": 64}, {"time": 924, "pitch": 68, "duration": 24, "velocity": 64}, {"time": 960, "pitch": 68, "duration": 18, "velocity": 64}, {"time": 978, "pitch": 70, "duration": 6, "velocity": 64}, {"time": 984, "pitch": 75, "duration": 24, "velocity": 64}, {"time": 1008, "pitch": 77, "duration": 12, "velocity": 64}, {"time": 1020, "pitch": 75, "duration": 24, "velocity": 64}, {"time": 1044, "pitch": 72, "duration": 6, "velocity": 64}, {"time": 1050, "pitch": 70, "duration": 6, "velocity": 64}, {"time": 1056, "pitch": 68, "duration": 24, "velocity": 64}, {"time": 1080, "pitch": 75, "duration": 12, "velocity": 64}, {"time": 1092, "pitch": 72, "duration": 6, "velocity": 64}, {"time": 1098, "pitch": 75, "duration": 6, "velocity": 64}, {"time": 1104, "pitch": 72, "duration": 12, "velocity": 64}, {"time": 1116, "pitch": 72, "duration": 12, "velocity": 64}, {"time": 1128, "pitch": 70, "duration": 12, "velocity": 64}, {"time": 1140, "pitch": 68, "duration": 6, "velocity": 64}, {"time": 1146, "pitch": 70, "duration": 6, "velocity": 64}, {"time": 1152, "pitch": 72, "duration": 12, "velocity": 64}, {"time": 1164, "pitch": 70, "duration": 12, "velocity": 64}, {"time": 1176, "pitch": 68, "duration": 24, "velocity": 64}, {"time": 1200, "pitch": 65, "duration": 12, "velocity": 64}, {"time": 1212, "pitch": 63, "duration": 60, "velocity": 64}]}]}