{"metadata": {"schema_version": "0.1", "title": "Xiaoxiao menlou", "source_format": "abc"}, "resolution": 24, "tempos": [{"time": 0, "qpm": 120.0}], "key_signatures": [{"time": 0, "root": 10, "mode": "major", "fifths": -2}], "time_signatures": [{"time": 0, "numerator": 4, "denominator": 4}, {"time": 192, "numerator": 1, "denominator": 4}, {"time": 216, "numerator": 2, "denominator": 4}], "beats": [{"time": 0, "is_downbeat": true}, {"time": 24, "is_downbeat": true}, {"time": 48, "is_downbeat": true}, {"time": 72, "is_downbeat": true}, {"time": 96, "is_downbeat": true}, {"time": 120, "is_downbeat": true}, {"time": 144, "is_downbeat": true}, {"time": 168, "is_downbeat": true}, {"time": 192, "is_downbeat": true}, {"time": 216, "is_downbeat": true}, {"time": 240, "is_downbeat": false}, {"time": 264, "is_downbeat": true}, {"time": 288, "is_downbeat": false}, {"time": 312, "is_downbeat": true}, {"time": 336, "is_downbeat": false}, {"time": 360, "is_downbeat": true}, {"time": 384, "is_downbeat": false}, {"time": 408, "is_downbeat": true}, {"time": 432, "is_downbeat": false}, {"time": 456, "is_downbeat": true}, {"time": 480, "is_downbeat": false}, {"time": 504, "is_downbeat": true}, {"time": 528, "is_downbeat": false}, {"time": 552, "is_downbeat": true}, {"time": 576, "is_downbeat": false}, {"time": 600, "is_downbeat": true}, {"time": 624, "is_downbeat": false}, {"time": 648, "is_downbeat": true}, {"time": 672, "is_downbeat": false}, {"time": 696, "is_downbeat": true}, {"time": 720, "is_downbeat": false}, {"time": 744, "is_downbeat": true}, {"time": 768, "is_downbeat": false}, {"time": 792, "is_downbeat": true}, {"time": 816, "is_downbeat": false}, {"time": 840, "is_downbeat": true}, {"time": 864, "is_downbeat": false}, {"time": 888, "is_downbeat": true}, {"time": 912, "is_downbeat": false}, {"time": 936, "is_downbeat": true}, {"time": 960, "is_downbeat": false}, {"time": 984, "is_downbeat": true}, {"time": 1008, "is_downbeat": false}, {"time": 1032, "is_downbeat": true}, {"time": 1056, "is_downbeat": false}, {"time": 1080, "is_downbeat": true}, {"time": 1104, "is_downbeat": false}, {"time": 1128, "is_downbeat": true}, {"time": 1152, "is_downbeat": false}, {"time": 1176, "is_downbeat": true}, {"time": 1200, "is_downbeat": false}, {"time": 1224, "is_downbeat": true}, {"time": 1248, "is_downbeat": false}, {"time": 1272, "is_downbeat": true}, {"time": 1296, "is_downbeat": false}, {"time": 1320, "is_downbeat": true}, {"time": 1344, "is_downbeat": false}, {"time": 1368, "is_downbeat": true}, {"time": 1392, "is_downbeat": false}, {"time": 1416, "is_downbeat": true}, {"time": 1440, "is_downbeat": false}, {"time": 1464, "is_downbeat": true}, {"time": 1488, "is_downbeat": false}, {"time": 1512, "is_downbeat": true}, {"time": 1536, "is_downbeat": false}, {"time": 1560, "is_downbeat": true}, {"time": 1584, "is_downbeat": false}, {"time": 1608, "is_downbeat": true}, {"time": 1632, "is_downbeat": false}], "tracks": [{"program": 0, "is_drum": false, "notes": [{"time": 0, "pitch": 79, "duration": 24, "velocity": 64}, {"time": 24, "pitch": 74, "duration": 18, "velocity": 64}, {"time": 42, "pitch": 77, "duration": 6, "velocity": 64}, {"time": 48, "pitch": 79, "duration": 24, "velocity": 64}, {"time": 72, "pitch": 72, "duration": 18, "velocity": 64}, {"time": 90, "pitch": 81, "duration": 6, "velocity": 64}, {"time": 96, "pitch": 79, "duration": 12, "velocity": 64}, {"time": 108, "pitch": 81, "duration": 12, "velocity": 64}, {"time": 120, "pitch": 79, "duration": 24, "velocity": 64}, {"time": 144, "pitch": 74, "duration": 12, "velocity": 64}, {"time": 156, "pitch": 74, "duration": 6, "velocity": 64}, {"time": 162, "pitch": 77, "duration": 6, "velocity": 64}, {"time": 168, "pitch": 74, "duration": 36, "velocity": 64}, {"time": 204, "pitch": 79, "duration": 12, "velocity": 64}, {"time": 216, "pitch": 77, "duration": 24, "velocity": 64}, {"time": 240, "pitch": 74, "duration": 24, "velocity": 64}, {"time": 264, "pitch": 74, "duration": 12, "velocity": 64}, {"time": 276, "pitch": 74, "duration": 12, "velocity": 64}, {"time": 288, "pitch": 74, "duration": 12, "velocity": 64}, {"time": 300, "pitch": 79, "duration": 12, "velocity": 64}, {"time": 324, "pitch": 74, "duration": 12, "velocity": 64}, {"time": 336, "pitch": 83, "duration": 12, "velocity": 64}, {"time": 348, "pitch": 72, "duration": 12, "velocity": 64}, {"time": 360, "pitch": 74, "duration": 18, "velocity": 64}, {"time": 378, "pitch": 77, "duration": 6, "velocity": 64}, {"time": 384, "pitch": 74, "duration": 12, "velocity": 64}, {"time": 396, "pitch": 72, "duration": 12, "velocity": 64}, {"time": 408, "pitch": 82, "duration": 18, "velocity": 64}, {"time": 426, "pitch": 72, "duration": 6, "velocity": 64}, {"time": 432, "pitch": 74, "duration": 24, "velocity": 64}, {"time": 456, "pitch": 74, "duration": 12, "velocity": 64}, {"time": 468, "pitch": 74, "duration": 12, "velocity": 64}, {"time": 480, "pitch": 74, "duration": 12, "velocity": 64}, {"time": 492, "pitch": 79, "duration": 12, "velocity": 64}, {"time": 504, "pitch": 74, "duration": 12, "velocity": 64}, {"time": 516, "pitch": 79, "duration": 36, "velocity": 64}, {"time": 552, "pitch": 77, "duration": 12, "velocity": 64}, {"time": 564, "pitch": 74, "duration": 36, "velocity": 64}, {"time": 600, "pitch": 77, "duration": 24, "velocity": 64}, {"time": 624, "pitch": 74, "duration": 18, "velocity": 64}, {"time": 642, "pitch": 74, "duration": 6, "velocity": 64}, {"time": 648, "pitch": 77, "duration": 24, "velocity": 64}, {"time": 672, "pitch": 74, "duration": 24, "velocity": 64}, {"time": 696, "pitch": 74, "duration": 12, "velocity": 64}, {"time": 708, "pitch": 74, "duration": 12, "velocity": 64}, {"time": 720, "pitch": 74, "duration": 24, "velocity": 64}, {"time": 744, "pitch": 74, "duration": 12, "velocity": 64}, {"time": 756, "pitch": 74, "duration": 12, "velocity": 64}, {"time": 768, "pitch": 74, "duration": 12, "velocity": 64}, {"time": 780, "pitch": 81, "duration": 12, "velocity": 64}, {"time": 792, "pitch": 79, "duration": 18, "velocity": 64}, {"time": 810, "pitch": 82, "duration": 6, "velocity": 64}, {"time": 816, "pitch": 72, "duration": 12, "velocity": 64}, {"time": 828, "pitch": 74, "duration": 12, "velocity": 64}, {"time": 840, "pitch": 72, "duration": 12, "velocity": 64}, {"time": 852, "pitch": 81, "duration": 12, "velocity": 64}, {"time": 864, "pitch": 79, "duration": 24, "velocity": 64}, {"time": 888, "pitch": 79, "duration": 18, "velocity": 64}, {"time": 906, "pitch": 79, "duration": 6, "velocity": 64}, {"time": 912, "pitch": 79, "duration": 12, "velocity": 64}, {"time": 924, "pitch": 72, "duration": 12, "velocity": 64}, {"time": 936, "pitch": 81, "duration": 12, "velocity": 64}, {"time": 948, "pitch": 79, "duration": 12, "velocity": 64}, {"time": 960, "pitch": 79, "duration": 12, "velocity": 64}, {"time": 972, "pitch": 72, "duration": 12, "velocity": 64}, {"time": 984, "pitch": 79, "duration": 24, "velocity": 64}, {"time": 1008, "pitch": 79, "duration": 24, "velocity": 64}, {"time": 1032, "pitch": 82, "duration": 24, "velocity": 64}, {"time": 1068, "pitch": 79, "duration": 6, "velocity": 64}, {"time": 1074, "pitch": 79, "duration": 6, "velocity": 64}, {"time": 1080, "pitch": 79, "duration": 12, "velocity": 64}, {"time": 1092, "pitch": 79, "duration": 6, "velocity": 64}, {"time": 1098, "pitch": 82, "duration": 6, "velocity": 64}, {"time": 1104, "pitch": 74, "duration": 18, "velocity": 64}, {"time": 1122, "pitch": 77, "duration": 6, "velocity": 64}, {"time": 1128, "pitch": 79, "duration": 24, "velocity": 64}, {"time": 1152, "pitch": 79, "duration": 24, "velocity": 64}, {"time": 1200, "pitch": 82, "duration": 24, "velocity": 64}, {"time": 1224, "pitch": 74, "duration": 12, "velocity": 64}, {"time": 1236, "pitch": 72, "duration": 12, "velocity": 64}, {"time": 1248, "pitch": 82, "duration": 12, "velocity": 64}, {"time": 1260, "pitch": 72, "duration": 12, "velocity": 64}, {"time": 1272, "pitch": 74, "duration": 12, "velocity": 64}, {"time": 1284, "pitch": 74, "duration": 12, "velocity": 64}, {"time": 1296, "pitch": 74, "duration": 12, "velocity": 64}, {"time": 1308, "pitch": 81, "duration": 12, "velocity": 64}, {"time": 1320, "pitch": 79, "duration": 24, "velocity": 64}, {"time": 1344, "pitch": 79, "duration": 12, "velocity": 64}, {"time": 1356, "pitch": 72, "duration": 12, "velocity": 64}, {"time": 1368, "pitch": 79, "duration": 48, "velocity": 64}, {"time": 1416, "pitch": 74, "duration": 9, "velocity": 64}, {"time": 1425, "pitch": 74, "duration": 3, "velocity": 64}, {"time": 1428, "pitch": 74, "duration": 9, "velocity": 64}, {"time": 1437, "pitch": 72, "duration": 3, "velocity": 64}, {"time": 1440, "pitch": 74, "duration": 12, "velocity": 64}, {"time": 1452, "pitch": 77, "duration": 12, "velocity": 64}, {"time": 1464, "pitch": 74, "duration": 18, "velocity": 64}, {"time": 1482, "pitch": 72, "duration": 6, "velocity": 64}, {"time": 1488, "pitch": 82, "duration": 12, "velocity": 64}, {"time": 1500, "pitch": 79, "duration": 12, "velocity": 64}, {"time": 1512, "pitch": 74, "duration": 24, "velocity": 64}, {"time": 1536, "pitch": 72, "duration": 12, "velocity": 64}, {"time": 1548, "pitch": 81, "duration": 12, "velocity": 64}, {"time": 1560, "pitch": 79, "duration": 12, "velocity": 64}, {"time": 1572, "pitch": 79, "duration": 24, "velocity": 64}, {"time": 1596, "pitch": 79, "duration": 12, "velocity": 64}, {"time": 1608, "pitch": 79, "duration": 48, "velocity": 64}]}]}