{"metadata": {"schema_version": "0.1", "title": "Pulianche", "source_format": "abc"}, "resolution": 24, "tempos": [{"time": 0, "qpm": 120.0}], "key_signatures": [{"time": 0, "root": 2, "mode": "major", "fifths": 2}], "time_signatures": [{"time": 0, "numerator": 2, "denominator": 4}], "beats": [{"time": 0, "is_downbeat": true}, {"time": 24, "is_downbeat": false}, {"time": 48, "is_downbeat": true}, {"time": 72, "is_downbeat": false}, {"time": 96, "is_downbeat": true}, {"time": 120, "is_downbeat": false}, {"time": 144, "is_downbeat": true}, {"time": 168, "is_downbeat": false}, {"time": 192, "is_downbeat": true}, {"time": 216, "is_downbeat": false}, {"time": 240, "is_downbeat": true}, {"time": 264, "is_downbeat": false}, {"time": 288, "is_downbeat": true}, {"time": 312, "is_downbeat": false}, {"time": 336, "is_downbeat": true}, {"time": 360, "is_downbeat": false}, {"time": 384, "is_downbeat": true}, {"time": 408, "is_downbeat": false}, {"time": 432, "is_downbeat": true}, {"time": 456, "is_downbeat": false}, {"time": 480, "is_downbeat": true}, {"time": 504, "is_downbeat": false}, {"time": 528, "is_downbeat": true}, {"time": 552, "is_downbeat": false}, {"time": 576, "is_downbeat": true}, {"time": 600, "is_downbeat": false}, {"time": 624, "is_downbeat": true}, {"time": 648, "is_downbeat": false}, {"time": 672, "is_downbeat": true}, {"time": 696, "is_downbeat": false}, {"time": 720, "is_downbeat": true}, {"time": 744, "is_downbeat": false}, {"time": 768, "is_downbeat": true}, {"time": 792, "is_downbeat": false}, {"time": 816, "is_downbeat": true}, {"time": 840, "is_downbeat": false}, {"time": 864, "is_downbeat": true}, {"time": 888, "is_downbeat": false}, {"time": 912, "is_downbeat": true}, {"time": 936, "is_downbeat": false}, {"time": 960, "is_downbeat": true}, {"time": 984, "is_downbeat": false}, {"time": 1008, "is_downbeat": true}, {"time": 1032, "is_downbeat": false}, {"time": 1056, "is_downbeat": true}, {"time": 1080, "is_downbeat": false}, {"time": 1104, "is_downbeat": true}, {"time": 1128, "is_downbeat": false}, {"time": 1152, "is_downbeat": true}, {"time": 1176, "is_downbeat": false}, {"time": 1200, "is_downbeat": true}, {"time": 1224, "is_downbeat": false}, {"time": 1248, "is_downbeat": true}, {"time": 1272, "is_downbeat": false}, {"time": 1296, "is_downbeat": true}, {"time": 1320, "is_downbeat": false}, {"time": 1344, "is_downbeat": true}, {"time": 1368, "is_downbeat": false}, {"time": 1392, "is_downbeat": true}, {"time": 1416, "is_downbeat": false}, {"time": 1440, "is_downbeat": true}, {"time": 1464, "is_downbeat": false}, {"time": 1488, "is_downbeat": true}, {"time": 1512, "is_downbeat": false}, {"time": 1536, "is_downbeat": true}, {"time": 1560, "is_downbeat": false}, {"time": 1584, "is_downbeat": true}, {"time": 1608, "is_downbeat": false}, {"time": 1632, "is_downbeat": true}, {"time": 1656, "is_downbeat": false}, {"time": 1680, "is_downbeat": true}, {"time": 1704, "is_downbeat": false}, {"time": 1728, "is_downbeat": true}, {"time": 1752, "is_downbeat": false}, {"time": 1776, "is_downbeat": true}, {"time": 1800, "is_downbeat": false}, {"time": 1824, "is_downbeat": true}, {"time": 1848, "is_downbeat": false}, {"time": 1872, "is_downbeat": true}, {"time": 1896, "is_downbeat": false}, {"time": 1920, "is_downbeat": true}, {"time": 1944, "is_downbeat": false}, {"time": 1968, "is_downbeat": true}, {"time": 1992, "is_downbeat": false}, {"time": 2016, "is_downbeat": true}, {"time": 2040, "is_downbeat": false}, {"time": 2064, "is_downbeat": true}, {"time": 2088, "is_downbeat": false}, {"time": 2112, "is_downbeat": true}, {"time": 2136, "is_downbeat": false}, {"time": 2160, "is_downbeat": true}, {"time": 2184, "is_downbeat": false}], "tracks": [{"program": 0, "is_drum": false, "notes": [{"time": 0, "pitch": 69, "duration": 12, "velocity": 64}, {"time": 12, "pitch": 69, "duration": 12, "velocity": 64}, {"time": 24, "pitch": 74, "duration": 24, "velocity": 64}, {"time": 48, "pitch": 74, "duration": 12, "velocity": 64}, {"time": 60, "pitch": 76, "duration": 6, "velocity": 64}, {"time": 66, "pitch": 74, "duration": 6, "velocity": 64}, {"time": 72, "pitch": 71, "duration": 12, "velocity": 64}, {"time": 84, "pitch": 69, "duration": 12, "velocity": 64}, {"time": 96, "pitch": 66, "duration": 6, "velocity": 64}, {"time": 102, "pitch": 69, "duration": 6, "velocity": 64}, {"time": 108, "pitch": 71, "duration": 6, "velocity": 64}, {"time": 114, "pitch": 74, "duration": 6, "velocity": 64}, {"time": 120, "pitch": 66, "duration": 6, "velocity": 64}, {"time": 126, "pitch": 69, "duration": 6, "velocity": 64}, {"time": 132, "pitch": 66, "duration": 12, "velocity": 64}, {"time": 144, "pitch": 64, "duration": 24, "velocity": 64}, {"time": 168, "pitch": 62, "duration": 24, "velocity": 64}, {"time": 192, "pitch": 71, "duration": 6, "velocity": 64}, {"time": 198, "pitch": 69, "duration": 6, "velocity": 64}, {"time": 204, "pitch": 66, "duration": 6, "velocity": 64}, {"time": 210, "pitch": 69, "duration": 6, "velocity": 64}, {"time": 216, "pitch": 74, "duration": 24, "velocity": 64}, {"time": 240, "pitch": 74, "duration": 12, "velocity": 64}, {"time": 252, "pitch": 76, "duration": 6, "velocity": 64}, {"time": 258, "pitch": 74, "duration": 6, "velocity": 64}, {"time": 264, "pitch": 76, "duration": 12, "velocity": 64}, {"time": 276, "pitch": 71, "duration": 6, "velocity": 64}, {"time": 282, "pitch": 69, "duration": 6, "velocity": 64}, {"time": 288, "pitch": 66, "duration": 6, "velocity": 64}, {"time": 294, "pitch": 69, "duration": 6, "velocity": 64}, {"time": 300, "pitch": 71, "duration": 6, "velocity": 64}, {"time": 306, "pitch": 74, "duration": 6, "velocity": 64}, {"time": 312, "pitch": 69, "duration": 12, "velocity": 64}, {"time": 324, "pitch": 69, "duration": 6, "velocity": 64}, {"time": 330, "pitch": 66, "duration": 6, "velocity": 64}, {"time": 336, "pitch": 64, "duration": 24, "velocity": 64}, {"time": 360, "pitch": 62, "duration": 24, "velocity": 64}, {"time": 384, "pitch": 69, "duration": 12, "velocity": 64}, {"time": 396, "pitch": 69, "duration": 12, "velocity": 64}, {"time": 408, "pitch": 74, "duration": 24, "velocity": 64}, {"time": 432, "pitch": 76, "duration": 12, "velocity": 64}, {"time": 444, "pitch": 71, "duration": 12, "velocity": 64}, {"time": 456, "pitch": 69, "duration": 9, "velocity": 64}, {"time": 465, "pitch": 71, "duration": 3, "velocity": 64}, {"time": 468, "pitch": 69, "duration": 6, "velocity": 64}, {"time": 474, "pitch": 71, "duration": 6, "velocity": 64}, {"time": 480, "pitch": 76, "duration": 12, "velocity": 64}, {"time": 492, "pitch": 74, "duration": 12, "velocity": 64}, {"time": 504, "pitch": 71, "duration": 6, "velocity": 64}, {"time": 510, "pitch": 69, "duration": 6, "velocity": 64}, {"time": 516, "pitch": 69, "duration": 12, "velocity": 64}, {"time": 528, "pitch": 64, "duration": 18, "velocity": 64}, {"time": 546, "pitch": 66, "duration": 6, "velocity": 64}, {"time": 552, "pitch": 64, "duration": 12, "velocity": 64}, {"time": 564, "pitch": 66, "duration": 12, "velocity": 64}, {"time": 576, "pitch": 69, "duration": 12, "velocity": 64}, {"time": 588, "pitch": 69, "duration": 12, "velocity": 64}, {"time": 600, "pitch": 74, "duration": 12, "velocity": 64}, {"time": 612, "pitch": 76, "duration": 6, "velocity": 64}, {"time": 618, "pitch": 74, "duration": 6, "velocity": 64}, {"time": 624, "pitch": 71, "duration": 6, "velocity": 64}, {"time": 630, "pitch": 74, "duration": 6, "velocity": 64}, {"time": 636, "pitch": 71, "duration": 6, "velocity": 64}, {"time": 642, "pitch": 69, "duration": 6, "velocity": 64}, {"time": 648, "pitch": 69, "duration": 12, "velocity": 64}, {"time": 660, "pitch": 71, "duration": 6, "velocity": 64}, {"time": 666, "pitch": 74, "duration": 6, "velocity": 64}, {"time": 672, "pitch": 66, "duration": 6, "velocity": 64}, {"time": 678, "pitch": 69, "duration": 6, "velocity": 64}, {"time": 684, "pitch": 66, "duration": 12, "velocity": 64}, {"time": 696, "pitch": 64, "duration": 24, "velocity": 64}, {"time": 720, "pitch": 62, "duration": 48, "velocity": 64}, {"time": 768, "pitch": 69, "duration": 12, "velocity": 64}, {"time": 780, "pitch": 69, "duration": 12, "velocity": 64}, {"time": 792, "pitch": 74, "duration": 24, "velocity": 64}, {"time": 816, "pitch": 76, "duration": 12, "velocity": 64}, {"time": 828, "pitch": 71, "duration": 12, "velocity": 64}, {"time": 840, "pitch": 69, "duration": 9, "velocity": 64}, {"time": 849, "pitch": 71, "duration": 3, "velocity": 64}, {"time": 852, "pitch": 69, "duration": 6, "velocity": 64}, {"time": 858, "pitch": 71, "duration": 6, "velocity": 64}, {"time": 864, "pitch": 76, "duration": 12, "velocity": 64}, {"time": 876, "pitch": 74, "duration": 12, "velocity": 64}, {"time": 888, "pitch": 71, "duration": 6, "velocity": 64}, {"time": 894, "pitch": 69, "duration": 6, "velocity": 64}, {"time": 900, "pitch": 69, "duration": 12, "velocity": 64}, {"time": 912, "pitch": 64, "duration": 18, "velocity": 64}, {"time": 930, "pitch": 66, "duration": 6, "velocity": 64}, {"time": 936, "pitch": 64, "duration": 12, "velocity": 64}, {"time": 948, "pitch": 66, "duration": 12, "velocity": 64}, {"time": 960, "pitch": 69, "duration": 12, "velocity": 64}, {"time": 972, "pitch": 69, "duration": 6, "velocity": 64}, {"time": 978, "pitch": 69, "duration": 6, "velocity": 64}, {"time": 984, "pitch": 74, "duration": 12, "velocity": 64}, {"time": 996, "pitch": 76, "duration": 6, "velocity": 64}, {"time": 1002, "pitch": 74, "duration": 6, "velocity": 64}, {"time": 1008, "pitch": 71, "duration": 12, "velocity": 64}, {"time": 1020, "pitch": 69, "duration": 12, "velocity": 64}, {"time": 1032, "pitch": 71, "duration": 18, "velocity": 64}, {"time": 1050, "pitch": 69, "duration": 6, "velocity": 64}, {"time": 1056, "pitch": 71, "duration": 6, "velocity": 64}, {"time": 1062, "pitch": 69, "duration": 6, "velocity": 64}, {"time": 1068, "pitch": 71, "duration": 6, "velocity": 64}, {"time": 1074, "pitch": 69, "duration": 6, "velocity": 64}, {"time": 1080, "pitch": 74, "duration": 6, "velocity": 64}, {"time": 1086, "pitch": 74, "duration": 18, "velocity": 64}, {"time": 1104, "pitch": 71, "duration": 6, "velocity": 64}, {"time": 1110, "pitch": 74, "duration": 6, "velocity": 64}, {"time": 1116, "pitch": 71, "duration": 6, "velocity": 64}, {"time": 1122, "pitch": 69, "duration": 6, "velocity": 64}, {"time": 1128, "pitch": 69, "duration": 24, "velocity": 64}, {"time": 1152, "pitch": 67, "duration": 6, "velocity": 64}, {"time": 1158, "pitch": 69, "duration": 6, "velocity": 64}, {"time": 1164, "pitch": 71, "duration": 6, "velocity": 64}, {"time": 1170, "pitch": 74, "duration": 6, "velocity": 64}, {"time": 1176, "pitch": 69, "duration": 24, "velocity": 64}, {"time": 1200, "pitch": 69, "duration": 48, "velocity": 64}, {"time": 1248, "pitch": 76, "duration": 12, "velocity": 64}, {"time": 1260, "pitch": 66, "duration": 6, "velocity": 64}, {"time": 1266, "pitch": 66, "duration": 6, "velocity": 64}, {"time": 1272, "pitch": 64, "duration": 12, "velocity": 64}, {"time": 1284, "pitch": 66, "duration": 12, "velocity": 64}, {"time": 1296, "pitch": 69, "duration": 12, "velocity": 64}, {"time": 1308, "pitch": 71, "duration": 6, "velocity": 64}, {"time": 1314, "pitch": 69, "duration": 6, "velocity": 64}, {"time": 1320, "pitch": 69, "duration": 24, "velocity": 64}, {"time": 1344, "pitch": 71, "duration": 6, "velocity": 64}, {"time": 1350, "pitch": 74, "duration": 6, "velocity": 64}, {"time": 1356, "pitch": 71, "duration": 6, "velocity": 64}, {"time": 1362, "pitch": 69, "duration": 6, "velocity": 64}, {"time": 1368, "pitch": 71, "duration": 12, "velocity": 64}, {"time": 1380, "pitch": 69, "duration": 6, "velocity": 64}, {"time": 1386, "pitch": 71, "duration": 6, "velocity": 64}, {"time": 1392, "pitch": 74, "duration": 18, "velocity": 64}, {"time": 1410, "pitch": 76, "duration": 6, "velocity": 64}, {"time": 1416, "pitch": 74, "duration": 24, "velocity": 64}, {"time": 1440, "pitch": 71, "duration": 6, "velocity": 64}, {"time": 1446, "pitch": 74, "duration": 6, "velocity": 64}, {"time": 1452, "pitch": 71, "duration": 6, "velocity": 64}, {"time": 1458, "pitch": 69, "duration": 6, "velocity": 64}, {"time": 1464, "pitch": 71, "duration": 12, "velocity": 64}, {"time": 1476, "pitch": 69, "duration": 6, "velocity": 64}, {"time": 1482, "pitch": 66, "duration": 6, "velocity": 64}, {"time": 1488, "pitch": 69, "duration": 12, "velocity": 64}, {"time": 1500, "pitch": 71, "duration": 6, "velocity": 64}, {"time": 1506, "pitch": 69, "duration": 6, "velocity": 64}, {"time": 1512, "pitch": 69, "duration": 24, "velocity": 64}, {"time": 1536, "pitch": 69, "duration": 18, "velocity": 64}, {"time": 1554, "pitch": 71, "duration": 6, "velocity": 64}, {"time": 1560, "pitch": 74, "duration": 12, "velocity": 64}, {"time": 1572, "pitch": 74, "duration": 12, "velocity": 64}, {"time": 1584, "pitch": 76, "duration": 12, "velocity": 64}, {"time": 1596, "pitch": 66, "duration": 12, "velocity": 64}, {"time": 1608, "pitch": 66, "duration": 12, "velocity": 64}, {"time": 1620, "pitch": 66, "duration": 6, "velocity": 64}, {"time": 1626, "pitch": 64, "duration": 6, "velocity": 64}, {"time": 1632, "pitch": 62, "duration": 18, "velocity": 64}, {"time": 1650, "pitch": 64, "duration": 6, "velocity": 64}, {"time": 1656, "pitch": 62, "duration": 12, "velocity": 64}, {"time": 1668, "pitch": 64, "duration": 12, "velocity": 64}, {"time": 1680, "pitch": 62, "duration": 48, "velocity": 64}, {"time": 1728, "pitch": 67, "duration": 12, "velocity": 64}, {"time": 1740, "pitch": 64, "duration": 24, "velocity": 64}, {"time": 1764, "pitch": 67, "duration": 12, "velocity": 64}, {"time": 1776, "pitch": 69, "duration": 12, "velocity": 64}, {"time": 1788, "pitch": 71, "duration": 12, "velocity": 64}, {"time": 1800, "pitch": 69, "duration": 24, "velocity": 64}, {"time": 1824, "pitch": 67, "duration": 12, "velocity": 64}, {"time": 1836, "pitch": 64, "duration": 24, "velocity": 64}, {"time": 1860, "pitch": 67, "duration": 12, "velocity": 64}, {"time": 1872, "pitch": 69, "duration": 12, "velocity": 64}, {"time": 1884, "pitch": 71, "duration": 12, "velocity": 64}, {"time": 1896, "pitch": 69, "duration": 24, "velocity": 64}, {"time": 1920, "pitch": 69, "duration": 48, "velocity": 64}, {"time": 1968, "pitch": 69, "duration": 12, "velocity": 64}, {"time": 1980, "pitch": 69, "duration": 24, "velocity": 64}, {"time": 2004, "pitch": 67, "duration": 12, "velocity": 64}, {"time": 2016, "pitch": 74, "duration": 12, "velocity": 64}, {"time": 2028, "pitch": 66, "duration": 12, "velocity": 64}, {"time": 2040, "pitch": 69, "duration": 12, "velocity": 64}, {"time": 2052, "pitch": 66, "duration": 12, "velocity": 64}, {"time": 2064, "pitch": 66, "duration": 18, "velocity": 64}, {"time": 2082, "pitch": 64, "duration": 6, "velocity": 64}, {"time": 2088, "pitch": 62, "duration": 12, "velocity": 64}, {"time": 2100, "pitch": 62, "duration": 12, "velocity": 64}, {"time": 2112, "pitch": 64, "duration": 12, "velocity": 64}, {"time": 2124, "pitch": 64, "duration": 6, "velocity": 64}, {"time": 2130, "pitch": 62, "duration": 6, "velocity": 64}, {"time": 2136, "pitch": 59, "duration": 12, "velocity": 64}, {"time": 2148, "pitch": 64, "duration": 12, "velocity": 64}, {"time": 2160, "pitch": 62, "duration": 18, "velocity": 64}, {"time": 2178, "pitch": 59, "duration": 6, "velocity": 64}, {"time": 2184, "pitch": 57, "duration": 24, "velocity": 64}]}]}