{"metadata": {"schema_version": "0.1", "title": "Shigezi", "source_format": "abc"}, "resolution": 24, "tempos": [{"time": 0, "qpm": 120.0}], "key_signatures": [{"time": 0, "root": 10, "mode": "major", "fifths": -2}], "time_signatures": [{"time": 0, "numerator": 4, "denominator": 4}, {"time": 1200, "numerator": 8, "denominator": 4}, {"time": 1392, "numerator": 2, "denominator": 4}], "beats": [{"time": 0, "is_downbeat": true}, {"time": 24, "is_downbeat": false}, {"time": 48, "is_downbeat": true}, {"time": 72, "is_downbeat": false}, {"time": 96, "is_downbeat": true}, {"time": 120, "is_downbeat": false}, {"time": 144, "is_downbeat": true}, {"time": 168, "is_downbeat": false}, {"time": 192, "is_downbeat": true}, {"time": 216, "is_downbeat": false}, {"time": 240, "is_downbeat": true}, {"time": 264, "is_downbeat": false}, {"time": 288, "is_downbeat": true}, {"time": 312, "is_downbeat": false}, {"time": 336, "is_downbeat": true}, {"time": 360, "is_downbeat": false}, {"time": 384, "is_downbeat": true}, {"time": 408, "is_downbeat": false}, {"time": 432, "is_downbeat": true}, {"time": 456, "is_downbeat": false}, {"time": 480, "is_downbeat": true}, {"time": 504, "is_downbeat": false}, {"time": 528, "is_downbeat": true}, {"time": 552, "is_downbeat": false}, {"time": 576, "is_downbeat": true}, {"time": 600, "is_downbeat": false}, {"time": 624, "is_downbeat": true}, {"time": 648, "is_downbeat": false}, {"time": 672, "is_downbeat": true}, {"time": 696, "is_downbeat": false}, {"time": 720, "is_downbeat": true}, {"time": 744, "is_downbeat": false}, {"time": 768, "is_downbeat": true}, {"time": 792, "is_downbeat": false}, {"time": 816, "is_downbeat": true}, {"time": 840, "is_downbeat": false}, {"time": 864, "is_downbeat": true}, {"time": 888, "is_downbeat": false}, {"time": 912, "is_downbeat": true}, {"time": 936, "is_downbeat": false}, {"time": 960, "is_downbeat": true}, {"time": 984, "is_downbeat": false}, {"time": 1008, "is_downbeat": true}, {"time": 1032, "is_downbeat": false}, {"time": 1056, "is_downbeat": true}, {"time": 1080, "is_downbeat": false}, {"time": 1104, "is_downbeat": true}, {"time": 1128, "is_downbeat": false}, {"time": 1152, "is_downbeat": true}, {"time": 1176, "is_downbeat": false}, {"time": 1200, "is_downbeat": true}, {"time": 1224, "is_downbeat": false}, {"time": 1248, "is_downbeat": true}, {"time": 1272, "is_downbeat": false}, {"time": 1296, "is_downbeat": true}, {"time": 1320, "is_downbeat": false}, {"time": 1344, "is_downbeat": true}, {"time": 1368, "is_downbeat": false}, {"time": 1392, "is_downbeat": true}, {"time": 1416, "is_downbeat": false}, {"time": 1440, "is_downbeat": true}, {"time": 1464, "is_downbeat": false}, {"time": 1488, "is_downbeat": true}, {"time": 1512, "is_downbeat": false}], "tracks": [{"program": 0, "is_drum": false, "notes": [{"time": 0, "pitch": 74, "duration": 6, "velocity": 64}, {"time": 6, "pitch": 74, "duration": 6, "velocity": 64}, {"time": 12, "pitch": 74, "duration": 6, "velocity": 64}, {"time": 18, "pitch": 72, "duration": 6, "velocity": 64}, {"time": 24, "pitch": 74, "duration": 12, "velocity": 64}, {"time": 36, "pitch": 74, "duration": 6, "velocity": 64}, {"time": 42, "pitch": 72, "duration": 6, "velocity": 64}, {"time": 48, "pitch": 82, "duration": 12, "velocity": 64}, {"time": 60, "pitch": 79, "duration": 12, "velocity": 64}, {"time": 72, "pitch": 77, "duration": 12, "velocity": 64}, {"time": 84, "pitch": 77, "duration": 6, "velocity": 64}, {"time": 90, "pitch": 74, "duration": 6, "velocity": 64}, {"time": 96, "pitch": 74, "duration": 6, "velocity": 64}, {"time": 102, "pitch": 74, "duration": 6, "velocity": 64}, {"time": 108, "pitch": 74, "duration": 6, "velocity": 64}, {"time": 114, "pitch": 72, "duration": 6, "velocity": 64}, {"time": 120, "pitch": 74, "duration": 12, "velocity": 64}, {"time": 132, "pitch": 74, "duration": 6, "velocity": 64}, {"time": 138, "pitch": 72, "duration": 6, "velocity": 64}, {"time": 144, "pitch": 82, "duration": 6, "velocity": 64}, {"time": 150, "pitch": 72, "duration": 6, "velocity": 64}, {"time": 156, "pitch": 74, "duration": 6, "velocity": 64}, {"time": 162, "pitch": 79, "duration": 6, "velocity": 64}, {"time": 168, "pitch": 77, "duration": 12, "velocity": 64}, {"time": 180, "pitch": 77, "duration": 6, "velocity": 64}, {"time": 186, "pitch": 74, "duration": 6, "velocity": 64}, {"time": 192, "pitch": 74, "duration": 12, "velocity": 64}, {"time": 204, "pitch": 74, "duration": 6, "velocity": 64}, {"time": 210, "pitch": 72, "duration": 6, "velocity": 64}, {"time": 216, "pitch": 74, "duration": 12, "velocity": 64}, {"time": 228, "pitch": 74, "duration": 6, "velocity": 64}, {"time": 234, "pitch": 72, "duration": 6, "velocity": 64}, {"time": 240, "pitch": 82, "duration": 12, "velocity": 64}, {"time": 252, "pitch": 79, "duration": 12, "velocity": 64}, {"time": 264, "pitch": 77, "duration": 12, "velocity": 64}, {"time": 276, "pitch": 77, "duration": 6, "velocity": 64}, {"time": 282, "pitch": 74, "duration": 6, "velocity": 64}, {"time": 288, "pitch": 79, "duration": 18, "velocity": 64}, {"time": 306, "pitch": 77, "duration": 6, "velocity": 64}, {"time": 312, "pitch": 79, "duration": 12, "velocity": 64}, {"time": 324, "pitch": 79, "duration": 12, "velocity": 64}, {"time": 336, "pitch": 77, "duration": 6, "velocity": 64}, {"time": 342, "pitch": 79, "duration": 6, "velocity": 64}, {"time": 348, "pitch": 82, "duration": 12, "velocity": 64}, {"time": 360, "pitch": 82, "duration": 12, "velocity": 64}, {"time": 372, "pitch": 74, "duration": 12, "velocity": 64}, {"time": 384, "pitch": 72, "duration": 18, "velocity": 64}, {"time": 402, "pitch": 74, "duration": 6, "velocity": 64}, {"time": 408, "pitch": 77, "duration": 18, "velocity": 64}, {"time": 426, "pitch": 82, "duration": 6, "velocity": 64}, {"time": 432, "pitch": 79, "duration": 6, "velocity": 64}, {"time": 438, "pitch": 77, "duration": 6, "velocity": 64}, {"time": 444, "pitch": 76, "duration": 12, "velocity": 64}, {"time": 456, "pitch": 77, "duration": 24, "velocity": 64}, {"time": 480, "pitch": 79, "duration": 18, "velocity": 64}, {"time": 498, "pitch": 82, "duration": 6, "velocity": 64}, {"time": 504, "pitch": 72, "duration": 18, "velocity": 64}, {"time": 522, "pitch": 82, "duration": 6, "velocity": 64}, {"time": 528, "pitch": 72, "duration": 48, "velocity": 64}, {"time": 576, "pitch": 74, "duration": 18, "velocity": 64}, {"time": 594, "pitch": 72, "duration": 6, "velocity": 64}, {"time": 600, "pitch": 82, "duration": 24, "velocity": 64}, {"time": 624, "pitch": 74, "duration": 12, "velocity": 64}, {"time": 636, "pitch": 74, "duration": 12, "velocity": 64}, {"time": 648, "pitch": 77, "duration": 18, "velocity": 64}, {"time": 666, "pitch": 79, "duration": 6, "velocity": 64}, {"time": 672, "pitch": 82, "duration": 18, "velocity": 64}, {"time": 690, "pitch": 74, "duration": 6, "velocity": 64}, {"time": 696, "pitch": 72, "duration": 6, "velocity": 64}, {"time": 702, "pitch": 82, "duration": 6, "velocity": 64}, {"time": 708, "pitch": 79, "duration": 12, "velocity": 64}, {"time": 720, "pitch": 82, "duration": 24, "velocity": 64}, {"time": 768, "pitch": 74, "duration": 6, "velocity": 64}, {"time": 774, "pitch": 74, "duration": 6, "velocity": 64}, {"time": 780, "pitch": 74, "duration": 6, "velocity": 64}, {"time": 786, "pitch": 72, "duration": 6, "velocity": 64}, {"time": 792, "pitch": 74, "duration": 12, "velocity": 64}, {"time": 804, "pitch": 74, "duration": 6, "velocity": 64}, {"time": 810, "pitch": 72, "duration": 6, "velocity": 64}, {"time": 816, "pitch": 82, "duration": 12, "velocity": 64}, {"time": 828, "pitch": 79, "duration": 12, "velocity": 64}, {"time": 840, "pitch": 77, "duration": 12, "velocity": 64}, {"time": 852, "pitch": 77, "duration": 6, "velocity": 64}, {"time": 858, "pitch": 74, "duration": 6, "velocity": 64}, {"time": 864, "pitch": 74, "duration": 6, "velocity": 64}, {"time": 870, "pitch": 74, "duration": 6, "velocity": 64}, {"time": 876, "pitch": 74, "duration": 6, "velocity": 64}, {"time": 882, "pitch": 72, "duration": 6, "velocity": 64}, {"time": 888, "pitch": 74, "duration": 12, "velocity": 64}, {"time": 900, "pitch": 74, "duration": 6, "velocity": 64}, {"time": 906, "pitch": 72, "duration": 6, "velocity": 64}, {"time": 912, "pitch": 82, "duration": 6, "velocity": 64}, {"time": 918, "pitch": 82, "duration": 6, "velocity": 64}, {"time": 924, "pitch": 79, "duration": 12, "velocity": 64}, {"time": 936, "pitch": 77, "duration": 12, "velocity": 64}, {"time": 948, "pitch": 77, "duration": 6, "velocity": 64}, {"time": 954, "pitch": 74, "duration": 6, "velocity": 64}, {"time": 960, "pitch": 74, "duration": 6, "velocity": 64}, {"time": 966, "pitch": 74, "duration": 6, "velocity": 64}, {"time": 972, "pitch": 74, "duration": 6, "velocity": 64}, {"time": 978, "pitch": 72, "duration": 6, "velocity": 64}, {"time": 984, "pitch": 74, "duration": 12, "velocity": 64}, {"time": 996, "pitch": 74, "duration": 6, "velocity": 64}, {"time": 1002, "pitch": 72, "duration": 6, "velocity": 64}, {"time": 1008, "pitch": 82, "duration": 12, "velocity": 64}, {"time": 1020, "pitch": 79, "duration": 12, "velocity": 64}, {"time": 1032, "pitch": 77, "duration": 12, "velocity": 64}, {"time": 1044, "pitch": 77, "duration": 6, "velocity": 64}, {"time": 1050, "pitch": 74, "duration": 6, "velocity": 64}, {"time": 1056, "pitch": 79, "duration": 18, "velocity": 64}, {"time": 1074, "pitch": 77, "duration": 6, "velocity": 64}, {"time": 1080, "pitch": 79, "duration": 12, "velocity": 64}, {"time": 1092, "pitch": 79, "duration": 12, "velocity": 64}, {"time": 1104, "pitch": 77, "duration": 6, "velocity": 64}, {"time": 1110, "pitch": 79, "duration": 6, "velocity": 64}, {"time": 1116, "pitch": 82, "duration": 12, "velocity": 64}, {"time": 1128, "pitch": 82, "duration": 12, "velocity": 64}, {"time": 1140, "pitch": 74, "duration": 12, "velocity": 64}, {"time": 1152, "pitch": 74, "duration": 9, "velocity": 64}, {"time": 1161, "pitch": 77, "duration": 3, "velocity": 64}, {"time": 1164, "pitch": 79, "duration": 6, "velocity": 64}, {"time": 1170, "pitch": 74, "duration": 6, "velocity": 64}, {"time": 1176, "pitch": 77, "duration": 12, "velocity": 64}, {"time": 1188, "pitch": 77, "duration": 12, "velocity": 64}, {"time": 1200, "pitch": 74, "duration": 9, "velocity": 64}, {"time": 1209, "pitch": 77, "duration": 3, "velocity": 64}, {"time": 1212, "pitch": 82, "duration": 6, "velocity": 64}, {"time": 1218, "pitch": 74, "duration": 6, "velocity": 64}, {"time": 1224, "pitch": 77, "duration": 12, "velocity": 64}, {"time": 1236, "pitch": 77, "duration": 12, "velocity": 64}, {"time": 1248, "pitch": 82, "duration": 9, "velocity": 64}, {"time": 1257, "pitch": 79, "duration": 3, "velocity": 64}, {"time": 1260, "pitch": 82, "duration": 6, "velocity": 64}, {"time": 1266, "pitch": 74, "duration": 6, "velocity": 64}, {"time": 1272, "pitch": 77, "duration": 12, "velocity": 64}, {"time": 1284, "pitch": 77, "duration": 12, "velocity": 64}, {"time": 1296, "pitch": 82, "duration": 9, "velocity": 64}, {"time": 1305, "pitch": 79, "duration": 3, "velocity": 64}, {"time": 1308, "pitch": 82, "duration": 6, "velocity": 64}, {"time": 1314, "pitch": 74, "duration": 6, "velocity": 64}, {"time": 1320, "pitch": 77, "duration": 24, "velocity": 64}, {"time": 1344, "pitch": 77, "duration": 12, "velocity": 64}, {"time": 1356, "pitch": 77, "duration": 24, "velocity": 64}, {"time": 1380, "pitch": 77, "duration": 6, "velocity": 64}, {"time": 1386, "pitch": 79, "duration": 6, "velocity": 64}, {"time": 1392, "pitch": 82, "duration": 48, "velocity": 64}, {"time": 1440, "pitch": 74, "duration": 6, "velocity": 64}, {"time": 1446, "pitch": 72, "duration": 6, "velocity": 64}, {"time": 1452, "pitch": 72, "duration": 6, "velocity": 64}, {"time": 1458, "pitch": 74, "duration": 6, "velocity": 64}, {"time": 1464, "pitch": 77, "duration": 12, "velocity": 64}, {"time": 1476, "pitch": 77, "duration": 12, "velocity": 64}, {"time": 1488, "pitch": 72, "duration": 6, "velocity": 64}, {"time": 1494, "pitch": 77, "duration": 6, "velocity": 64}, {"time": 1500, "pitch": 74, "duration": 6, "velocity": 64}, {"time": 1506, "pitch": 72, "duration": 6, "velocity": 64}, {"time": 1512, "pitch": 82, "duration": 24, "velocity": 64}]}]}