{"metadata": {"schema_version": "0.1", "title": "Dui hua", "source_format": "abc"}, "resolution": 24, "tempos": [{"time": 0, "qpm": 120.0}], "key_signatures": [{"time": 0, "root": 7, "mode": "major", "fifths": 1}], "time_signatures": [{"time": 0, "numerator": 2, "denominator": 4}], "beats": [{"time": 0, "is_downbeat": true}, {"time": 24, "is_downbeat": false}, {"time": 48, "is_downbeat": true}, {"time": 72, "is_downbeat": false}, {"time": 96, "is_downbeat": true}, {"time": 120, "is_downbeat": false}, {"time": 144, "is_downbeat": true}, {"time": 168, "is_downbeat": false}, {"time": 192, "is_downbeat": true}, {"time": 216, "is_downbeat": false}, {"time": 240, "is_downbeat": true}, {"time": 264, "is_downbeat": false}, {"time": 288, "is_downbeat": true}, {"time": 312, "is_downbeat": false}, {"time": 336, "is_downbeat": true}, {"time": 360, "is_downbeat": false}, {"time": 384, "is_downbeat": true}, {"time": 408, "is_downbeat": false}, {"time": 432, "is_downbeat": true}, {"time": 456, "is_downbeat": false}, {"time": 480, "is_downbeat": true}, {"time": 504, "is_downbeat": false}, {"time": 528, "is_downbeat": true}, {"time": 552, "is_downbeat": false}, {"time": 576, "is_downbeat": true}, {"time": 600, "is_downbeat": false}, {"time": 624, "is_downbeat": true}, {"time": 648, "is_downbeat": false}, {"time": 672, "is_downbeat": true}, {"time": 696, "is_downbeat": false}, {"time": 720, "is_downbeat": true}, {"time": 744, "is_downbeat": false}, {"time": 768, "is_downbeat": true}, {"time": 792, "is_downbeat": false}, {"time": 816, "is_downbeat": true}, {"time": 840, "is_downbeat": false}, {"time": 864, "is_downbeat": true}, {"time": 888, "is_downbeat": false}, {"time": 912, "is_downbeat": true}, {"time": 936, "is_downbeat": false}, {"time": 960, "is_downbeat": true}, {"time": 984, "is_downbeat": false}, {"time": 1008, "is_downbeat": true}, {"time": 1032, "is_downbeat": false}, {"time": 1056, "is_downbeat": true}, {"time": 1080, "is_downbeat": false}, {"time": 1104, "is_downbeat": true}, {"time": 1128, "is_downbeat": false}, {"time": 1152, "is_downbeat": true}, {"time": 1176, "is_downbeat": false}, {"time": 1200, "is_downbeat": true}, {"time": 1224, "is_downbeat": false}, {"time": 1248, "is_downbeat": true}, {"time": 1272, "is_downbeat": false}, {"time": 1296, "is_downbeat": true}, {"time": 1320, "is_downbeat": false}, {"time": 1344, "is_downbeat": true}, {"time": 1368, "is_downbeat": false}, {"time": 1392, "is_downbeat": true}, {"time": 1416, "is_downbeat": false}, {"time": 1440, "is_downbeat": true}, {"time": 1464, "is_downbeat": false}, {"time": 1488, "is_downbeat": true}, {"time": 1512, "is_downbeat": false}, {"time": 1536, "is_downbeat": true}, {"time": 1560, "is_downbeat": false}, {"time": 1584, "is_downbeat": true}, {"time": 1608, "is_downbeat": false}, {"time": 1632, "is_downbeat": true}, {"time": 1656, "is_downbeat": false}, {"time": 1680, "is_downbeat": true}, {"time": 1704, "is_downbeat": false}, {"time": 1728, "is_downbeat": true}, {"time": 1752, "is_downbeat": false}, {"time": 1776, "is_downbeat": true}, {"time": 1800, "is_downbeat": false}, {"time": 1824, "is_downbeat": true}, {"time": 1848, "is_downbeat": false}, {"time": 1872, "is_downbeat": true}, {"time": 1896, "is_downbeat": false}, {"time": 1920, "is_downbeat": true}, {"time": 1944, "is_downbeat": false}, {"time": 1968, "is_downbeat": true}, {"time": 1992, "is_downbeat": false}, {"time": 2016, "is_downbeat": true}, {"time": 2040, "is_downbeat": false}], "tracks": [{"program": 0, "is_drum": false, "notes": [{"time": 0, "pitch": 79, "duration": 18, "velocity": 64}, {"time": 18, "pitch": 79, "duration": 6, "velocity": 64}, {"time": 24, "pitch": 79, "duration": 12, "velocity": 64}, {"time": 36, "pitch": 76, "duration": 12, "velocity": 64}, {"time": 48, "pitch": 74, "duration": 24, "velocity": 64}, {"time": 72, "pitch": 74, "duration": 24, "velocity": 64}, {"time": 96, "pitch": 71, "duration": 18, "velocity": 64}, {"time": 114, "pitch": 71, "duration": 6, "velocity": 64}, {"time": 120, "pitch": 71, "duration": 12, "velocity": 64}, {"time": 132, "pitch": 69, "duration": 12, "velocity": 64}, {"time": 144, "pitch": 67, "duration": 24, "velocity": 64}, {"time": 168, "pitch": 64, "duration": 24, "velocity": 64}, {"time": 192, "pitch": 79, "duration": 18, "velocity": 64}, {"time": 210, "pitch": 81, "duration": 6, "velocity": 64}, {"time": 216, "pitch": 79, "duration": 12, "velocity": 64}, {"time": 228, "pitch": 76, "duration": 12, "velocity": 64}, {"time": 240, "pitch": 74, "duration": 24, "velocity": 64}, {"time": 264, "pitch": 74, "duration": 24, "velocity": 64}, {"time": 288, "pitch": 79, "duration": 12, "velocity": 64}, {"time": 300, "pitch": 71, "duration": 12, "velocity": 64}, {"time": 312, "pitch": 71, "duration": 12, "velocity": 64}, {"time": 324, "pitch": 69, "duration": 12, "velocity": 64}, {"time": 336, "pitch": 67, "duration": 24, "velocity": 64}, {"time": 360, "pitch": 64, "duration": 24, "velocity": 64}, {"time": 384, "pitch": 74, "duration": 24, "velocity": 64}, {"time": 408, "pitch": 69, "duration": 12, "velocity": 64}, {"time": 420, "pitch": 71, "duration": 12, "velocity": 64}, {"time": 432, "pitch": 74, "duration": 24, "velocity": 64}, {"time": 456, "pitch": 74, "duration": 24, "velocity": 64}, {"time": 480, "pitch": 74, "duration": 18, "velocity": 64}, {"time": 498, "pitch": 74, "duration": 6, "velocity": 64}, {"time": 504, "pitch": 69, "duration": 12, "velocity": 64}, {"time": 516, "pitch": 71, "duration": 12, "velocity": 64}, {"time": 528, "pitch": 74, "duration": 24, "velocity": 64}, {"time": 552, "pitch": 74, "duration": 24, "velocity": 64}, {"time": 576, "pitch": 69, "duration": 24, "velocity": 64}, {"time": 600, "pitch": 74, "duration": 24, "velocity": 64}, {"time": 624, "pitch": 74, "duration": 24, "velocity": 64}, {"time": 648, "pitch": 74, "duration": 24, "velocity": 64}, {"time": 672, "pitch": 79, "duration": 18, "velocity": 64}, {"time": 690, "pitch": 79, "duration": 6, "velocity": 64}, {"time": 696, "pitch": 79, "duration": 12, "velocity": 64}, {"time": 708, "pitch": 79, "duration": 12, "velocity": 64}, {"time": 720, "pitch": 76, "duration": 24, "velocity": 64}, {"time": 744, "pitch": 76, "duration": 12, "velocity": 64}, {"time": 756, "pitch": 74, "duration": 12, "velocity": 64}, {"time": 768, "pitch": 76, "duration": 12, "velocity": 64}, {"time": 780, "pitch": 74, "duration": 12, "velocity": 64}, {"time": 792, "pitch": 79, "duration": 24, "velocity": 64}, {"time": 816, "pitch": 71, "duration": 24, "velocity": 64}, {"time": 840, "pitch": 71, "duration": 12, "velocity": 64}, {"time": 852, "pitch": 69, "duration": 12, "velocity": 64}, {"time": 864, "pitch": 71, "duration": 12, "velocity": 64}, {"time": 876, "pitch": 74, "duration": 12, "velocity": 64}, {"time": 888, "pitch": 69, "duration": 48, "velocity": 64}, {"time": 936, "pitch": 74, "duration": 48, "velocity": 64}, {"time": 984, "pitch": 79, "duration": 24, "velocity": 64}, {"time": 1008, "pitch": 71, "duration": 12, "velocity": 64}, {"time": 1020, "pitch": 74, "duration": 12, "velocity": 64}, {"time": 1032, "pitch": 71, "duration": 24, "velocity": 64}, {"time": 1056, "pitch": 71, "duration": 12, "velocity": 64}, {"time": 1068, "pitch": 69, "duration": 12, "velocity": 64}, {"time": 1080, "pitch": 71, "duration": 12, "velocity": 64}, {"time": 1092, "pitch": 74, "duration": 12, "velocity": 64}, {"time": 1104, "pitch": 71, "duration": 24, "velocity": 64}, {"time": 1128, "pitch": 71, "duration": 12, "velocity": 64}, {"time": 1140, "pitch": 69, "duration": 12, "velocity": 64}, {"time": 1152, "pitch": 71, "duration": 12, "velocity": 64}, {"time": 1164, "pitch": 69, "duration": 12, "velocity": 64}, {"time": 1176, "pitch": 67, "duration": 12, "velocity": 64}, {"time": 1188, "pitch": 69, "duration": 12, "velocity": 64}, {"time": 1200, "pitch": 67, "duration": 48, "velocity": 64}, {"time": 1248, "pitch": 79, "duration": 18, "velocity": 64}, {"time": 1266, "pitch": 79, "duration": 6, "velocity": 64}, {"time": 1272, "pitch": 79, "duration": 12, "velocity": 64}, {"time": 1284, "pitch": 76, "duration": 12, "velocity": 64}, {"time": 1296, "pitch": 74, "duration": 24, "velocity": 64}, {"time": 1320, "pitch": 74, "duration": 24, "velocity": 64}, {"time": 1344, "pitch": 69, "duration": 18, "velocity": 64}, {"time": 1362, "pitch": 71, "duration": 6, "velocity": 64}, {"time": 1368, "pitch": 69, "duration": 12, "velocity": 64}, {"time": 1380, "pitch": 71, "duration": 12, "velocity": 64}, {"time": 1392, "pitch": 74, "duration": 24, "velocity": 64}, {"time": 1416, "pitch": 74, "duration": 24, "velocity": 64}, {"time": 1440, "pitch": 79, "duration": 18, "velocity": 64}, {"time": 1458, "pitch": 81, "duration": 6, "velocity": 64}, {"time": 1464, "pitch": 79, "duration": 12, "velocity": 64}, {"time": 1476, "pitch": 76, "duration": 12, "velocity": 64}, {"time": 1488, "pitch": 74, "duration": 24, "velocity": 64}, {"time": 1512, "pitch": 74, "duration": 24, "velocity": 64}, {"time": 1536, "pitch": 71, "duration": 18, "velocity": 64}, {"time": 1554, "pitch": 71, "duration": 6, "velocity": 64}, {"time": 1560, "pitch": 71, "duration": 12, "velocity": 64}, {"time": 1572, "pitch": 69, "duration": 12, "velocity": 64}, {"time": 1584, "pitch": 67, "duration": 24, "velocity": 64}, {"time": 1608, "pitch": 67, "duration": 24, "velocity": 64}, {"time": 1632, "pitch": 76, "duration": 12, "velocity": 64}, {"time": 1644, "pitch": 74, "duration": 12, "velocity": 64}, {"time": 1656, "pitch": 76, "duration": 48, "velocity": 64}, {"time": 1704, "pitch": 76, "duration": 24, "velocity": 64}, {"time": 1728, "pitch": 79, "duration": 12, "velocity": 64}, {"time": 1740, "pitch": 71, "duration": 12, "velocity": 64}, {"time": 1752, "pitch": 71, "duration": 12, "velocity": 64}, {"time": 1764, "pitch": 69, "duration": 12, "velocity": 64}, {"time": 1776, "pitch": 67, "duration": 18, "velocity": 64}, {"time": 1794, "pitch": 69, "duration": 6, "velocity": 64}, {"time": 1800, "pitch": 67, "duration": 12, "velocity": 64}, {"time": 1812, "pitch": 69, "duration": 12, "velocity": 64}, {"time": 1824, "pitch": 67, "duration": 18, "velocity": 64}, {"time": 1842, "pitch": 69, "duration": 6, "velocity": 64}, {"time": 1848, "pitch": 67, "duration": 12, "velocity": 64}, {"time": 1860, "pitch": 69, "duration": 12, "velocity": 64}, {"time": 1872, "pitch": 74, "duration": 12, "velocity": 64}, {"time": 1884, "pitch": 71, "duration": 12, "velocity": 64}, {"time": 1896, "pitch": 74, "duration": 24, "velocity": 64}, {"time": 1944, "pitch": 79, "duration": 24, "velocity": 64}, {"time": 1968, "pitch": 71, "duration": 18, "velocity": 64}, {"time": 1986, "pitch": 69, "duration": 6, "velocity": 64}, {"time": 1992, "pitch": 67, "duration": 12, "velocity": 64}, {"time": 2004, "pitch": 69, "duration": 12, "velocity": 64}, {"time": 2016, "pitch": 67, "duration": 48, "velocity": 64}]}]}