{"metadata": {"schema_version": "0.1", "title": "Huagu diao", "source_format": "abc"}, "resolution": 24, "tempos": [{"time": 0, "qpm": 120.0}], "key_signatures": [{"time": 0, "root": 9, "mode": "major", "fifths": 3}], "time_signatures": [{"time": 0, "numerator": 2, "denominator": 4}], "beats": [{"time": 0, "is_downbeat": true}, {"time": 24, "is_downbeat": false}, {"time": 48, "is_downbeat": true}, {"time": 72, "is_downbeat": false}, {"time": 96, "is_downbeat": true}, {"time": 120, "is_downbeat": false}, {"time": 144, "is_downbeat": true}, {"time": 168, "is_downbeat": false}, {"time": 192, "is_downbeat": true}, {"time": 216, "is_downbeat": false}, {"time": 240, "is_downbeat": true}, {"time": 264, "is_downbeat": false}, {"time": 288, "is_downbeat": true}, {"time": 312, "is_downbeat": false}, {"time": 336, "is_downbeat": true}, {"time": 360, "is_downbeat": false}, {"time": 384, "is_downbeat": true}, {"time": 408, "is_downbeat": false}, {"time": 432, "is_downbeat": true}, {"time": 456, "is_downbeat": false}, {"time": 480, "is_downbeat": true}, {"time": 504, "is_downbeat": false}, {"time": 528, "is_downbeat": true}, {"time": 552, "is_downbeat": false}, {"time": 576, "is_downbeat": true}, {"time": 600, "is_downbeat": false}, {"time": 624, "is_downbeat": true}, {"time": 648, "is_downbeat": false}, {"time": 672, "is_downbeat": true}, {"time": 696, "is_downbeat": false}, {"time": 720, "is_downbeat": true}, {"time": 744, "is_downbeat": false}, {"time": 768, "is_downbeat": true}, {"time": 792, "is_downbeat": false}, {"time": 816, "is_downbeat": true}, {"time": 840, "is_downbeat": false}, {"time": 864, "is_downbeat": true}, {"time": 888, "is_downbeat": false}, {"time": 912, "is_downbeat": true}, {"time": 936, "is_downbeat": false}, {"time": 960, "is_downbeat": true}, {"time": 984, "is_downbeat": false}, {"time": 1008, "is_downbeat": true}, {"time": 1032, "is_downbeat": false}, {"time": 1056, "is_downbeat": true}, {"time": 1080, "is_downbeat": false}, {"time": 1104, "is_downbeat": true}, {"time": 1128, "is_downbeat": false}, {"time": 1152, "is_downbeat": true}, {"time": 1176, "is_downbeat": false}, {"time": 1200, "is_downbeat": true}, {"time": 1224, "is_downbeat": false}, {"time": 1248, "is_downbeat": true}, {"time": 1272, "is_downbeat": false}, {"time": 1296, "is_downbeat": true}, {"time": 1320, "is_downbeat": false}, {"time": 1344, "is_downbeat": true}, {"time": 1368, "is_downbeat": false}, {"time": 1392, "is_downbeat": true}, {"time": 1416, "is_downbeat": false}, {"time": 1440, "is_downbeat": true}, {"time": 1464, "is_downbeat": false}, {"time": 1488, "is_downbeat": true}, {"time": 1512, "is_downbeat": false}, {"time": 1536, "is_downbeat": true}, {"time": 1560, "is_downbeat": false}, {"time": 1584, "is_downbeat": true}, {"time": 1608, "is_downbeat": false}, {"time": 1632, "is_downbeat": true}, {"time": 1656, "is_downbeat": false}, {"time": 1680, "is_downbeat": true}, {"time": 1704, "is_downbeat": false}, {"time": 1728, "is_downbeat": true}, {"time": 1752, "is_downbeat": false}, {"time": 1776, "is_downbeat": true}, {"time": 1800, "is_downbeat": false}, {"time": 1824, "is_downbeat": true}, {"time": 1848, "is_downbeat": false}, {"time": 1872, "is_downbeat": true}, {"time": 1896, "is_downbeat": false}, {"time": 1920, "is_downbeat": true}, {"time": 1944, "is_downbeat": false}, {"time": 1968, "is_downbeat": true}, {"time": 1992, "is_downbeat": false}, {"time": 2016, "is_downbeat": true}, {"time": 2040, "is_downbeat": false}, {"time": 2064, "is_downbeat": true}, {"time": 2088, "is_downbeat": false}, {"time": 2112, "is_downbeat": true}, {"time": 2136, "is_downbeat": false}, {"time": 2160, "is_downbeat": true}, {"time": 2184, "is_downbeat": false}, {"time": 2208, "is_downbeat": true}, {"time": 2232, "is_downbeat": false}, {"time": 2256, "is_downbeat": true}, {"time": 2280, "is_downbeat": false}, {"time": 2304, "is_downbeat": true}, {"time": 2328, "is_downbeat": false}, {"time": 2352, "is_downbeat": true}, {"time": 2376, "is_downbeat": false}, {"time": 2400, "is_downbeat": true}, {"time": 2424, "is_downbeat": false}, {"time": 2448, "is_downbeat": true}, {"time": 2472, "is_downbeat": false}, {"time": 2496, "is_downbeat": true}, {"time": 2520, "is_downbeat": false}, {"time": 2544, "is_downbeat": true}, {"time": 2568, "is_downbeat": false}, {"time": 2592, "is_downbeat": true}, {"time": 2616, "is_downbeat": false}, {"time": 2640, "is_downbeat": true}, {"time": 2664, "is_downbeat": false}, {"time": 2688, "is_downbeat": true}, {"time": 2712, "is_downbeat": false}, {"time": 2736, "is_downbeat": true}, {"time": 2760, "is_downbeat": false}, {"time": 2784, "is_downbeat": true}, {"time": 2808, "is_downbeat": false}, {"time": 2832, "is_downbeat": true}, {"time": 2856, "is_downbeat": false}, {"time": 2880, "is_downbeat": true}, {"time": 2904, "is_downbeat": false}, {"time": 2928, "is_downbeat": true}, {"time": 2952, "is_downbeat": false}, {"time": 2976, "is_downbeat": true}, {"time": 3000, "is_downbeat": false}, {"time": 3024, "is_downbeat": true}, {"time": 3048, "is_downbeat": false}, {"time": 3072, "is_downbeat": true}, {"time": 3096, "is_downbeat": false}, {"time": 3120, "is_downbeat": true}, {"time": 3144, "is_downbeat": false}, {"time": 3168, "is_downbeat": true}, {"time": 3192, "is_downbeat": false}, {"time": 3216, "is_downbeat": true}, {"time": 3240, "is_downbeat": false}, {"time": 3264, "is_downbeat": true}, {"time": 3288, "is_downbeat": false}, {"time": 3312, "is_downbeat": true}, {"time": 3336, "is_downbeat": false}, {"time": 3360, "is_downbeat": true}, {"time": 3384, "is_downbeat": false}, {"time": 3408, "is_downbeat": true}, {"time": 3432, "is_downbeat": false}, {"time": 3456, "is_downbeat": true}, {"time": 3480, "is_downbeat": false}], "tracks": [{"program": 0, "is_drum": false, "notes": [{"time": 0, "pitch": 78, "duration": 48, "velocity": 64}, {"time": 48, "pitch": 81, "duration": 96, "velocity": 64}, {"time": 144, "pitch": 73, "duration": 48, "velocity": 64}, {"time": 192, "pitch": 78, "duration": 96, "velocity": 64}, {"time": 288, "pitch": 81, "duration": 48, "velocity": 64}, {"time": 336, "pitch": 76, "duration": 36, "velocity": 64}, {"time": 372, "pitch": 80, "duration": 12, "velocity": 64}, {"time": 384, "pitch": 78, "duration": 12, "velocity": 64}, {"time": 396, "pitch": 76, "duration": 12, "velocity": 64}, {"time": 408, "pitch": 74, "duration": 12, "velocity": 64}, {"time": 420, "pitch": 73, "duration": 12, "velocity": 64}, {"time": 432, "pitch": 71, "duration": 24, "velocity": 64}, {"time": 456, "pitch": 71, "duration": 12, "velocity": 64}, {"time": 468, "pitch": 73, "duration": 12, "velocity": 64}, {"time": 480, "pitch": 76, "duration": 24, "velocity": 64}, {"time": 504, "pitch": 76, "duration": 12, "velocity": 64}, {"time": 516, "pitch": 66, "duration": 12, "velocity": 64}, {"time": 528, "pitch": 69, "duration": 36, "velocity": 64}, {"time": 564, "pitch": 71, "duration": 12, "velocity": 64}, {"time": 576, "pitch": 69, "duration": 48, "velocity": 64}, {"time": 624, "pitch": 76, "duration": 12, "velocity": 64}, {"time": 636, "pitch": 73, "duration": 12, "velocity": 64}, {"time": 648, "pitch": 76, "duration": 24, "velocity": 64}, {"time": 684, "pitch": 76, "duration": 12, "velocity": 64}, {"time": 696, "pitch": 73, "duration": 12, "velocity": 64}, {"time": 708, "pitch": 76, "duration": 12, "velocity": 64}, {"time": 720, "pitch": 78, "duration": 24, "velocity": 64}, {"time": 744, "pitch": 80, "duration": 6, "velocity": 64}, {"time": 750, "pitch": 83, "duration": 6, "velocity": 64}, {"time": 756, "pitch": 80, "duration": 6, "velocity": 64}, {"time": 762, "pitch": 78, "duration": 6, "velocity": 64}, {"time": 768, "pitch": 76, "duration": 12, "velocity": 64}, {"time": 780, "pitch": 78, "duration": 6, "velocity": 64}, {"time": 786, "pitch": 81, "duration": 6, "velocity": 64}, {"time": 792, "pitch": 78, "duration": 6, "velocity": 64}, {"time": 798, "pitch": 76, "duration": 6, "velocity": 64}, {"time": 804, "pitch": 74, "duration": 6, "velocity": 64}, {"time": 810, "pitch": 73, "duration": 6, "velocity": 64}, {"time": 816, "pitch": 71, "duration": 24, "velocity": 64}, {"time": 840, "pitch": 71, "duration": 12, "velocity": 64}, {"time": 852, "pitch": 73, "duration": 12, "velocity": 64}, {"time": 864, "pitch": 76, "duration": 24, "velocity": 64}, {"time": 888, "pitch": 76, "duration": 12, "velocity": 64}, {"time": 900, "pitch": 66, "duration": 12, "velocity": 64}, {"time": 912, "pitch": 69, "duration": 36, "velocity": 64}, {"time": 948, "pitch": 71, "duration": 12, "velocity": 64}, {"time": 960, "pitch": 69, "duration": 48, "velocity": 64}, {"time": 1008, "pitch": 81, "duration": 24, "velocity": 64}, {"time": 1032, "pitch": 80, "duration": 12, "velocity": 64}, {"time": 1044, "pitch": 78, "duration": 12, "velocity": 64}, {"time": 1056, "pitch": 76, "duration": 12, "velocity": 64}, {"time": 1068, "pitch": 73, "duration": 12, "velocity": 64}, {"time": 1080, "pitch": 76, "duration": 12, "velocity": 64}, {"time": 1092, "pitch": 80, "duration": 12, "velocity": 64}, {"time": 1104, "pitch": 78, "duration": 36, "velocity": 64}, {"time": 1140, "pitch": 76, "duration": 12, "velocity": 64}, {"time": 1152, "pitch": 78, "duration": 48, "velocity": 64}, {"time": 1200, "pitch": 81, "duration": 24, "velocity": 64}, {"time": 1224, "pitch": 80, "duration": 12, "velocity": 64}, {"time": 1236, "pitch": 78, "duration": 12, "velocity": 64}, {"time": 1248, "pitch": 76, "duration": 12, "velocity": 64}, {"time": 1260, "pitch": 78, "duration": 12, "velocity": 64}, {"time": 1272, "pitch": 81, "duration": 12, "velocity": 64}, {"time": 1284, "pitch": 76, "duration": 12, "velocity": 64}, {"time": 1296, "pitch": 78, "duration": 36, "velocity": 64}, {"time": 1332, "pitch": 76, "duration": 12, "velocity": 64}, {"time": 1344, "pitch": 78, "duration": 48, "velocity": 64}, {"time": 1392, "pitch": 76, "duration": 12, "velocity": 64}, {"time": 1404, "pitch": 73, "duration": 12, "velocity": 64}, {"time": 1416, "pitch": 76, "duration": 24, "velocity": 64}, {"time": 1452, "pitch": 76, "duration": 12, "velocity": 64}, {"time": 1464, "pitch": 73, "duration": 12, "velocity": 64}, {"time": 1476, "pitch": 76, "duration": 12, "velocity": 64}, {"time": 1488, "pitch": 78, "duration": 24, "velocity": 64}, {"time": 1512, "pitch": 80, "duration": 6, "velocity": 64}, {"time": 1518, "pitch": 83, "duration": 6, "velocity": 64}, {"time": 1524, "pitch": 80, "duration": 6, "velocity": 64}, {"time": 1530, "pitch": 78, "duration": 6, "velocity": 64}, {"time": 1536, "pitch": 76, "duration": 12, "velocity": 64}, {"time": 1548, "pitch": 78, "duration": 6, "velocity": 64}, {"time": 1554, "pitch": 81, "duration": 6, "velocity": 64}, {"time": 1560, "pitch": 78, "duration": 6, "velocity": 64}, {"time": 1566, "pitch": 76, "duration": 6, "velocity": 64}, {"time": 1572, "pitch": 73, "duration": 12, "velocity": 64}, {"time": 1584, "pitch": 71, "duration": 24, "velocity": 64}, {"time": 1608, "pitch": 71, "duration": 12, "velocity": 64}, {"time": 1620, "pitch": 73, "duration": 12, "velocity": 64}, {"time": 1632, "pitch": 76, "duration": 24, "velocity": 64}, {"time": 1656, "pitch": 76, "duration": 12, "velocity": 64}, {"time": 1668, "pitch": 66, "duration": 12, "velocity": 64}, {"time": 1680, "pitch": 69, "duration": 36, "velocity": 64}, {"time": 1716, "pitch": 71, "duration": 12, "velocity": 64}, {"time": 1728, "pitch": 69, "duration": 48, "velocity": 64}, {"time": 1776, "pitch": 81, "duration": 24, "velocity": 64}, {"time": 1800, "pitch": 83, "duration": 12, "velocity": 64}, {"time": 1812, "pitch": 73, "duration": 12, "velocity": 64}, {"time": 1824, "pitch": 81, "duration": 18, "velocity": 64}, {"time": 1842, "pitch": 83, "duration": 6, "velocity": 64}, {"time": 1848, "pitch": 78, "duration": 12, "velocity": 64}, {"time": 1860, "pitch": 76, "duration": 12, "velocity": 64}, {"time": 1872, "pitch": 74, "duration": 12, "velocity": 64}, {"time": 1884, "pitch": 76, "duration": 12, "velocity": 64}, {"time": 1896, "pitch": 78, "duration": 12, "velocity": 64}, {"time": 1908, "pitch": 74, "duration": 12, "velocity": 64}, {"time": 1920, "pitch": 76, "duration": 48, "velocity": 64}, {"time": 1968, "pitch": 73, "duration": 18, "velocity": 64}, {"time": 1986, "pitch": 76, "duration": 6, "velocity": 64}, {"time": 1992, "pitch": 73, "duration": 12, "velocity": 64}, {"time": 2004, "pitch": 71, "duration": 12, "velocity": 64}, {"time": 2016, "pitch": 69, "duration": 12, "velocity": 64}, {"time": 2028, "pitch": 71, "duration": 12, "velocity": 64}, {"time": 2040, "pitch": 76, "duration": 12, "velocity": 64}, {"time": 2052, "pitch": 73, "duration": 12, "velocity": 64}, {"time": 2064, "pitch": 71, "duration": 36, "velocity": 64}, {"time": 2100, "pitch": 69, "duration": 12, "velocity": 64}, {"time": 2112, "pitch": 71, "duration": 48, "velocity": 64}, {"time": 2160, "pitch": 71, "duration": 36, "velocity": 64}, {"time": 2196, "pitch": 73, "duration": 12, "velocity": 64}, {"time": 2208, "pitch": 76, "duration": 48, "velocity": 64}, {"time": 2256, "pitch": 78, "duration": 18, "velocity": 64}, {"time": 2274, "pitch": 81, "duration": 6, "velocity": 64}, {"time": 2280, "pitch": 78, "duration": 12, "velocity": 64}, {"time": 2292, "pitch": 74, "duration": 12, "velocity": 64}, {"time": 2304, "pitch": 76, "duration": 36, "velocity": 64}, {"time": 2340, "pitch": 78, "duration": 12, "velocity": 64}, {"time": 2352, "pitch": 74, "duration": 36, "velocity": 64}, {"time": 2388, "pitch": 73, "duration": 12, "velocity": 64}, {"time": 2400, "pitch": 71, "duration": 36, "velocity": 64}, {"time": 2436, "pitch": 73, "duration": 12, "velocity": 64}, {"time": 2448, "pitch": 76, "duration": 36, "velocity": 64}, {"time": 2484, "pitch": 73, "duration": 12, "velocity": 64}, {"time": 2496, "pitch": 71, "duration": 12, "velocity": 64}, {"time": 2508, "pitch": 73, "duration": 12, "velocity": 64}, {"time": 2520, "pitch": 76, "duration": 24, "velocity": 64}, {"time": 2544, "pitch": 73, "duration": 18, "velocity": 64}, {"time": 2562, "pitch": 76, "duration": 6, "velocity": 64}, {"time": 2568, "pitch": 73, "duration": 12, "velocity": 64}, {"time": 2580, "pitch": 71, "duration": 12, "velocity": 64}, {"time": 2592, "pitch": 69, "duration": 12, "velocity": 64}, {"time": 2604, "pitch": 66, "duration": 12, "velocity": 64}, {"time": 2616, "pitch": 69, "duration": 24, "velocity": 64}, {"time": 2652, "pitch": 69, "duration": 12, "velocity": 64}, {"time": 2664, "pitch": 66, "duration": 12, "velocity": 64}, {"time": 2676, "pitch": 69, "duration": 12, "velocity": 64}, {"time": 2688, "pitch": 71, "duration": 36, "velocity": 64}, {"time": 2724, "pitch": 73, "duration": 12, "velocity": 64}, {"time": 2736, "pitch": 69, "duration": 12, "velocity": 64}, {"time": 2748, "pitch": 71, "duration": 12, "velocity": 64}, {"time": 2760, "pitch": 68, "duration": 12, "velocity": 64}, {"time": 2772, "pitch": 66, "duration": 12, "velocity": 64}, {"time": 2784, "pitch": 64, "duration": 18, "velocity": 64}, {"time": 2802, "pitch": 66, "duration": 6, "velocity": 64}, {"time": 2808, "pitch": 69, "duration": 12, "velocity": 64}, {"time": 2820, "pitch": 71, "duration": 12, "velocity": 64}, {"time": 2832, "pitch": 66, "duration": 12, "velocity": 64}, {"time": 2844, "pitch": 64, "duration": 12, "velocity": 64}, {"time": 2856, "pitch": 62, "duration": 6, "velocity": 64}, {"time": 2862, "pitch": 64, "duration": 6, "velocity": 64}, {"time": 2868, "pitch": 66, "duration": 6, "velocity": 64}, {"time": 2874, "pitch": 69, "duration": 6, "velocity": 64}, {"time": 2880, "pitch": 64, "duration": 36, "velocity": 64}, {"time": 2916, "pitch": 66, "duration": 12, "velocity": 64}, {"time": 2928, "pitch": 64, "duration": 48, "velocity": 64}, {"time": 2976, "pitch": 71, "duration": 36, "velocity": 64}, {"time": 3012, "pitch": 73, "duration": 12, "velocity": 64}, {"time": 3024, "pitch": 76, "duration": 36, "velocity": 64}, {"time": 3060, "pitch": 73, "duration": 12, "velocity": 64}, {"time": 3072, "pitch": 71, "duration": 18, "velocity": 64}, {"time": 3090, "pitch": 73, "duration": 6, "velocity": 64}, {"time": 3096, "pitch": 76, "duration": 24, "velocity": 64}, {"time": 3120, "pitch": 73, "duration": 18, "velocity": 64}, {"time": 3138, "pitch": 76, "duration": 6, "velocity": 64}, {"time": 3144, "pitch": 73, "duration": 12, "velocity": 64}, {"time": 3156, "pitch": 71, "duration": 12, "velocity": 64}, {"time": 3168, "pitch": 69, "duration": 12, "velocity": 64}, {"time": 3180, "pitch": 66, "duration": 12, "velocity": 64}, {"time": 3192, "pitch": 69, "duration": 24, "velocity": 64}, {"time": 3228, "pitch": 81, "duration": 12, "velocity": 64}, {"time": 3240, "pitch": 78, "duration": 12, "velocity": 64}, {"time": 3252, "pitch": 81, "duration": 12, "velocity": 64}, {"time": 3264, "pitch": 83, "duration": 24, "velocity": 64}, {"time": 3288, "pitch": 73, "duration": 12, "velocity": 64}, {"time": 3300, "pitch": 83, "duration": 12, "velocity": 64}, {"time": 3312, "pitch": 81, "duration": 18, "velocity": 64}, {"time": 3330, "pitch": 83, "duration": 6, "velocity": 64}, {"time": 3336, "pitch": 80, "duration": 12, "velocity": 64}, {"time": 3348, "pitch": 78, "duration": 12, "velocity": 64}, {"time": 3360, "pitch": 76, "duration": 18, "velocity": 64}, {"time": 3378, "pitch": 78, "duration": 6, "velocity": 64}, {"time": 3384, "pitch": 81, "duration": 12, "velocity": 64}, {"time": 3396, "pitch": 83, "duration": 12, "velocity": 64}, {"time": 3408, "pitch": 78, "duration": 12, "velocity": 64}, {"time": 3420, "pitch": 76, "duration": 12, "velocity": 64}, {"time": 3432, "pitch": 74, "duration": 6, "velocity": 64}, {"time": 3438, "pitch": 76, "duration": 6, "velocity": 64}, {"time": 3444, "pitch": 78, "duration": 6, "velocity": 64}, {"time": 3450, "pitch": 81, "duration": 6, "velocity": 64}, {"time": 3456, "pitch": 76, "duration": 48, "velocity": 64}]}]}