{"metadata": {"schema_version": "0.1", "title": "Da dangong", "source_format": "abc"}, "resolution": 24, "tempos": [{"time": 0, "qpm": 120.0}], "key_signatures": [{"time": 0, "root": 0, "mode": "major", "fifths": 0}], "time_signatures": [{"time": 0, "numerator": 4, "denominator": 4}, {"time": 72, "numerator": 1, "denominator": 4}, {"time": 168, "numerator": 4, "denominator": 4}, {"time": 336, "numerator": 4, "denominator": 4}, {"time": 648, "numerator": 4, "denominator": 4}, {"time": 744, "numerator": 3, "denominator": 4}], "beats": [{"time": 0, "is_downbeat": true}, {"time": 24, "is_downbeat": true}, {"time": 48, "is_downbeat": true}, {"time": 72, "is_downbeat": true}, {"time": 96, "is_downbeat": true}, {"time": 120, "is_downbeat": false}, {"time": 144, "is_downbeat": false}, {"time": 168, "is_downbeat": true}, {"time": 192, "is_downbeat": false}, {"time": 216, "is_downbeat": false}, {"time": 240, "is_downbeat": false}, {"time": 264, "is_downbeat": true}, {"time": 288, "is_downbeat": false}, {"time": 312, "is_downbeat": false}, {"time": 336, "is_downbeat": true}, {"time": 360, "is_downbeat": false}, {"time": 384, "is_downbeat": false}, {"time": 408, "is_downbeat": false}, {"time": 432, "is_downbeat": true}, {"time": 456, "is_downbeat": false}, {"time": 480, "is_downbeat": false}, {"time": 504, "is_downbeat": true}, {"time": 528, "is_downbeat": false}, {"time": 552, "is_downbeat": false}, {"time": 576, "is_downbeat": true}, {"time": 600, "is_downbeat": false}, {"time": 624, "is_downbeat": false}, {"time": 648, "is_downbeat": true}, {"time": 672, "is_downbeat": false}, {"time": 696, "is_downbeat": false}, {"time": 720, "is_downbeat": true}, {"time": 744, "is_downbeat": true}, {"time": 768, "is_downbeat": false}, {"time": 792, "is_downbeat": false}], "tracks": [{"program": 0, "is_drum": false, "notes": [{"time": 0, "pitch": 74, "duration": 12, "velocity": 64}, {"time": 12, "pitch": 74, "duration": 12, "velocity": 64}, {"time": 24, "pitch": 69, "duration": 6, "velocity": 64}, {"time": 30, "pitch": 72, "duration": 6, "velocity": 64}, {"time": 36, "pitch": 71, "duration": 6, "velocity": 64}, {"time": 42, "pitch": 69, "duration": 6, "velocity": 64}, {"time": 48, "pitch": 67, "duration": 48, "velocity": 64}, {"time": 96, "pitch": 74, "duration": 12, "velocity": 64}, {"time": 108, "pitch": 74, "duration": 12, "velocity": 64}, {"time": 120, "pitch": 69, "duration": 6, "velocity": 64}, {"time": 126, "pitch": 72, "duration": 6, "velocity": 64}, {"time": 132, "pitch": 74, "duration": 60, "velocity": 64}, {"time": 192, "pitch": 74, "duration": 12, "velocity": 64}, {"time": 204, "pitch": 74, "duration": 6, "velocity": 64}, {"time": 210, "pitch": 72, "duration": 6, "velocity": 64}, {"time": 216, "pitch": 67, "duration": 6, "velocity": 64}, {"time": 222, "pitch": 69, "duration": 6, "velocity": 64}, {"time": 228, "pitch": 67, "duration": 24, "velocity": 64}, {"time": 252, "pitch": 69, "duration": 12, "velocity": 64}, {"time": 264, "pitch": 74, "duration": 12, "velocity": 64}, {"time": 276, "pitch": 74, "duration": 6, "velocity": 64}, {"time": 282, "pitch": 72, "duration": 6, "velocity": 64}, {"time": 288, "pitch": 67, "duration": 6, "velocity": 64}, {"time": 294, "pitch": 69, "duration": 6, "velocity": 64}, {"time": 300, "pitch": 67, "duration": 60, "velocity": 64}, {"time": 360, "pitch": 74, "duration": 12, "velocity": 64}, {"time": 372, "pitch": 74, "duration": 12, "velocity": 64}, {"time": 384, "pitch": 69, "duration": 6, "velocity": 64}, {"time": 390, "pitch": 72, "duration": 6, "velocity": 64}, {"time": 396, "pitch": 74, "duration": 36, "velocity": 64}, {"time": 432, "pitch": 69, "duration": 6, "velocity": 64}, {"time": 438, "pitch": 72, "duration": 6, "velocity": 64}, {"time": 444, "pitch": 67, "duration": 6, "velocity": 64}, {"time": 450, "pitch": 69, "duration": 6, "velocity": 64}, {"time": 456, "pitch": 72, "duration": 6, "velocity": 64}, {"time": 462, "pitch": 69, "duration": 6, "velocity": 64}, {"time": 468, "pitch": 67, "duration": 36, "velocity": 64}, {"time": 504, "pitch": 74, "duration": 12, "velocity": 64}, {"time": 516, "pitch": 74, "duration": 6, "velocity": 64}, {"time": 522, "pitch": 72, "duration": 6, "velocity": 64}, {"time": 528, "pitch": 67, "duration": 6, "velocity": 64}, {"time": 534, "pitch": 69, "duration": 6, "velocity": 64}, {"time": 540, "pitch": 67, "duration": 36, "velocity": 64}, {"time": 576, "pitch": 72, "duration": 12, "velocity": 64}, {"time": 588, "pitch": 72, "duration": 12, "velocity": 64}, {"time": 600, "pitch": 69, "duration": 6, "velocity": 64}, {"time": 606, "pitch": 72, "duration": 6, "velocity": 64}, {"time": 612, "pitch": 74, "duration": 60, "velocity": 64}, {"time": 672, "pitch": 72, "duration": 12, "velocity": 64}, {"time": 684, "pitch": 72, "duration": 6, "velocity": 64}, {"time": 690, "pitch": 69, "duration": 6, "velocity": 64}, {"time": 696, "pitch": 67, "duration": 6, "velocity": 64}, {"time": 702, "pitch": 69, "duration": 6, "velocity": 64}, {"time": 708, "pitch": 67, "duration": 24, "velocity": 64}, {"time": 732, "pitch": 69, "duration": 12, "velocity": 64}, {"time": 744, "pitch": 74, "duration": 18, "velocity": 64}, {"time": 762, "pitch": 72, "duration": 6, "velocity": 64}, {"time": 768, "pitch": 67, "duration": 6, "velocity": 64}, {"time": 774, "pitch": 69, "duration": 6, "velocity": 64}, {"time": 780, "pitch": 67, "duration": 36, "velocity": 64}]}]}