{"metadata": {"schema_version": "0.1", "title": "Laohan fangyang", "source_format": "abc"}, "resolution": 24, "tempos": [{"time": 0, "qpm": 120.0}], "key_signatures": [{"time": 0, "root": 7, "mode": "major", "fifths": 1}], "time_signatures": [{"time": 0, "numerator": 4, "denominator": 4}, {"time": 576, "numerator": 1, "denominator": 4}, {"time": 1392, "numerator": 1, "denominator": 4}, {"time": 1416, "numerator": 2, "denominator": 4}], "beats": [{"time": 0, "is_downbeat": true}, {"time": 24, "is_downbeat": true}, {"time": 48, "is_downbeat": true}, {"time": 72, "is_downbeat": true}, {"time": 96, "is_downbeat": true}, {"time": 120, "is_downbeat": true}, {"time": 144, "is_downbeat": true}, {"time": 168, "is_downbeat": true}, {"time": 192, "is_downbeat": true}, {"time": 216, "is_downbeat": true}, {"time": 240, "is_downbeat": true}, {"time": 264, "is_downbeat": true}, {"time": 288, "is_downbeat": true}, {"time": 312, "is_downbeat": true}, {"time": 336, "is_downbeat": true}, {"time": 360, "is_downbeat": true}, {"time": 384, "is_downbeat": true}, {"time": 408, "is_downbeat": true}, {"time": 432, "is_downbeat": true}, {"time": 456, "is_downbeat": true}, {"time": 480, "is_downbeat": true}, {"time": 504, "is_downbeat": true}, {"time": 528, "is_downbeat": true}, {"time": 552, "is_downbeat": true}, {"time": 576, "is_downbeat": true}, {"time": 600, "is_downbeat": true}, {"time": 624, "is_downbeat": true}, {"time": 648, "is_downbeat": true}, {"time": 672, "is_downbeat": true}, {"time": 696, "is_downbeat": true}, {"time": 720, "is_downbeat": true}, {"time": 744, "is_downbeat": true}, {"time": 768, "is_downbeat": true}, {"time": 792, "is_downbeat": true}, {"time": 816, "is_downbeat": true}, {"time": 840, "is_downbeat": true}, {"time": 864, "is_downbeat": true}, {"time": 888, "is_downbeat": true}, {"time": 912, "is_downbeat": true}, {"time": 936, "is_downbeat": true}, {"time": 960, "is_downbeat": true}, {"time": 984, "is_downbeat": true}, {"time": 1008, "is_downbeat": true}, {"time": 1032, "is_downbeat": true}, {"time": 1056, "is_downbeat": true}, {"time": 1080, "is_downbeat": true}, {"time": 1104, "is_downbeat": true}, {"time": 1128, "is_downbeat": true}, {"time": 1152, "is_downbeat": true}, {"time": 1176, "is_downbeat": true}, {"time": 1200, "is_downbeat": true}, {"time": 1224, "is_downbeat": true}, {"time": 1248, "is_downbeat": true}, {"time": 1272, "is_downbeat": true}, {"time": 1296, "is_downbeat": true}, {"time": 1320, "is_downbeat": true}, {"time": 1344, "is_downbeat": true}, {"time": 1368, "is_downbeat": true}, {"time": 1392, "is_downbeat": true}, {"time": 1416, "is_downbeat": true}, {"time": 1440, "is_downbeat": false}, {"time": 1464, "is_downbeat": true}, {"time": 1488, "is_downbeat": false}, {"time": 1512, "is_downbeat": true}, {"time": 1536, "is_downbeat": false}, {"time": 1560, "is_downbeat": true}, {"time": 1584, "is_downbeat": false}, {"time": 1608, "is_downbeat": true}, {"time": 1632, "is_downbeat": false}, {"time": 1656, "is_downbeat": true}, {"time": 1680, "is_downbeat": false}, {"time": 1704, "is_downbeat": true}, {"time": 1728, "is_downbeat": false}, {"time": 1752, "is_downbeat": true}, {"time": 1776, "is_downbeat": false}, {"time": 1800, "is_downbeat": true}, {"time": 1824, "is_downbeat": false}, {"time": 1848, "is_downbeat": true}, {"time": 1872, "is_downbeat": false}, {"time": 1896, "is_downbeat": true}, {"time": 1920, "is_downbeat": false}, {"time": 1944, "is_downbeat": true}, {"time": 1968, "is_downbeat": false}, {"time": 1992, "is_downbeat": true}, {"time": 2016, "is_downbeat": false}, {"time": 2040, "is_downbeat": true}, {"time": 2064, "is_downbeat": false}, {"time": 2088, "is_downbeat": true}, {"time": 2112, "is_downbeat": false}, {"time": 2136, "is_downbeat": true}, {"time": 2160, "is_downbeat": false}, {"time": 2184, "is_downbeat": true}, {"time": 2208, "is_downbeat": false}, {"time": 2232, "is_downbeat": true}, {"time": 2256, "is_downbeat": false}, {"time": 2280, "is_downbeat": true}, {"time": 2304, "is_downbeat": false}, {"time": 2328, "is_downbeat": true}, {"time": 2352, "is_downbeat": false}, {"time": 2376, "is_downbeat": true}, {"time": 2400, "is_downbeat": false}, {"time": 2424, "is_downbeat": true}, {"time": 2448, "is_downbeat": false}, {"time": 2472, "is_downbeat": true}, {"time": 2496, "is_downbeat": false}, {"time": 2520, "is_downbeat": true}, {"time": 2544, "is_downbeat": false}, {"time": 2568, "is_downbeat": true}, {"time": 2592, "is_downbeat": false}, {"time": 2616, "is_downbeat": true}, {"time": 2640, "is_downbeat": false}, {"time": 2664, "is_downbeat": true}, {"time": 2688, "is_downbeat": false}, {"time": 2712, "is_downbeat": true}, {"time": 2736, "is_downbeat": false}, {"time": 2760, "is_downbeat": true}, {"time": 2784, "is_downbeat": false}, {"time": 2808, "is_downbeat": true}, {"time": 2832, "is_downbeat": false}], "tracks": [{"program": 0, "is_drum": false, "notes": [{"time": 0, "pitch": 79, "duration": 18, "velocity": 64}, {"time": 18, "pitch": 79, "duration": 6, "velocity": 64}, {"time": 24, "pitch": 76, "duration": 12, "velocity": 64}, {"time": 36, "pitch": 74, "duration": 12, "velocity": 64}, {"time": 48, "pitch": 71, "duration": 12, "velocity": 64}, {"time": 60, "pitch": 74, "duration": 6, "velocity": 64}, {"time": 66, "pitch": 76, "duration": 6, "velocity": 64}, {"time": 72, "pitch": 79, "duration": 24, "velocity": 64}, {"time": 96, "pitch": 71, "duration": 18, "velocity": 64}, {"time": 114, "pitch": 71, "duration": 6, "velocity": 64}, {"time": 120, "pitch": 71, "duration": 12, "velocity": 64}, {"time": 132, "pitch": 71, "duration": 12, "velocity": 64}, {"time": 144, "pitch": 69, "duration": 12, "velocity": 64}, {"time": 156, "pitch": 74, "duration": 12, "velocity": 64}, {"time": 168, "pitch": 74, "duration": 24, "velocity": 64}, {"time": 192, "pitch": 71, "duration": 18, "velocity": 64}, {"time": 210, "pitch": 79, "duration": 6, "velocity": 64}, {"time": 216, "pitch": 76, "duration": 12, "velocity": 64}, {"time": 228, "pitch": 76, "duration": 6, "velocity": 64}, {"time": 234, "pitch": 74, "duration": 6, "velocity": 64}, {"time": 240, "pitch": 71, "duration": 12, "velocity": 64}, {"time": 252, "pitch": 71, "duration": 6, "velocity": 64}, {"time": 258, "pitch": 74, "duration": 6, "velocity": 64}, {"time": 264, "pitch": 71, "duration": 24, "velocity": 64}, {"time": 288, "pitch": 71, "duration": 18, "velocity": 64}, {"time": 306, "pitch": 69, "duration": 6, "velocity": 64}, {"time": 312, "pitch": 71, "duration": 12, "velocity": 64}, {"time": 324, "pitch": 71, "duration": 12, "velocity": 64}, {"time": 336, "pitch": 71, "duration": 18, "velocity": 64}, {"time": 354, "pitch": 69, "duration": 6, "velocity": 64}, {"time": 360, "pitch": 71, "duration": 12, "velocity": 64}, {"time": 372, "pitch": 71, "duration": 12, "velocity": 64}, {"time": 384, "pitch": 69, "duration": 12, "velocity": 64}, {"time": 396, "pitch": 74, "duration": 12, "velocity": 64}, {"time": 408, "pitch": 74, "duration": 24, "velocity": 64}, {"time": 444, "pitch": 71, "duration": 24, "velocity": 64}, {"time": 468, "pitch": 79, "duration": 12, "velocity": 64}, {"time": 480, "pitch": 76, "duration": 12, "velocity": 64}, {"time": 492, "pitch": 76, "duration": 6, "velocity": 64}, {"time": 498, "pitch": 74, "duration": 6, "velocity": 64}, {"time": 504, "pitch": 71, "duration": 12, "velocity": 64}, {"time": 516, "pitch": 71, "duration": 6, "velocity": 64}, {"time": 522, "pitch": 79, "duration": 6, "velocity": 64}, {"time": 528, "pitch": 76, "duration": 24, "velocity": 64}, {"time": 552, "pitch": 71, "duration": 18, "velocity": 64}, {"time": 570, "pitch": 71, "duration": 6, "velocity": 64}, {"time": 576, "pitch": 71, "duration": 12, "velocity": 64}, {"time": 588, "pitch": 71, "duration": 12, "velocity": 64}, {"time": 600, "pitch": 69, "duration": 12, "velocity": 64}, {"time": 612, "pitch": 74, "duration": 12, "velocity": 64}, {"time": 624, "pitch": 71, "duration": 24, "velocity": 64}, {"time": 660, "pitch": 71, "duration": 24, "velocity": 64}, {"time": 684, "pitch": 79, "duration": 12, "velocity": 64}, {"time": 696, "pitch": 76, "duration": 12, "velocity": 64}, {"time": 714, "pitch": 74, "duration": 6, "velocity": 64}, {"time": 720, "pitch": 71, "duration": 12, "velocity": 64}, {"time": 732, "pitch": 74, "duration": 12, "velocity": 64}, {"time": 744, "pitch": 71, "duration": 24, "velocity": 64}, {"time": 768, "pitch": 71, "duration": 18, "velocity": 64}, {"time": 786, "pitch": 71, "duration": 6, "velocity": 64}, {"time": 792, "pitch": 71, "duration": 12, "velocity": 64}, {"time": 804, "pitch": 71, "duration": 6, "velocity": 64}, {"time": 810, "pitch": 71, "duration": 6, "velocity": 64}, {"time": 816, "pitch": 69, "duration": 12, "velocity": 64}, {"time": 828, "pitch": 74, "duration": 12, "velocity": 64}, {"time": 840, "pitch": 71, "duration": 24, "velocity": 64}, {"time": 864, "pitch": 71, "duration": 18, "velocity": 64}, {"time": 882, "pitch": 71, "duration": 6, "velocity": 64}, {"time": 888, "pitch": 71, "duration": 12, "velocity": 64}, {"time": 900, "pitch": 71, "duration": 12, "velocity": 64}, {"time": 912, "pitch": 69, "duration": 12, "velocity": 64}, {"time": 924, "pitch": 74, "duration": 12, "velocity": 64}, {"time": 936, "pitch": 71, "duration": 12, "velocity": 64}, {"time": 948, "pitch": 71, "duration": 12, "velocity": 64}, {"time": 960, "pitch": 79, "duration": 18, "velocity": 64}, {"time": 978, "pitch": 79, "duration": 6, "velocity": 64}, {"time": 984, "pitch": 76, "duration": 12, "velocity": 64}, {"time": 996, "pitch": 74, "duration": 12, "velocity": 64}, {"time": 1008, "pitch": 71, "duration": 24, "velocity": 64}, {"time": 1032, "pitch": 69, "duration": 12, "velocity": 64}, {"time": 1044, "pitch": 71, "duration": 12, "velocity": 64}, {"time": 1056, "pitch": 73, "duration": 18, "velocity": 64}, {"time": 1074, "pitch": 76, "duration": 6, "velocity": 64}, {"time": 1080, "pitch": 74, "duration": 24, "velocity": 64}, {"time": 1104, "pitch": 78, "duration": 24, "velocity": 64}, {"time": 1128, "pitch": 78, "duration": 24, "velocity": 64}, {"time": 1152, "pitch": 76, "duration": 48, "velocity": 64}, {"time": 1212, "pitch": 76, "duration": 24, "velocity": 64}, {"time": 1236, "pitch": 74, "duration": 12, "velocity": 64}, {"time": 1248, "pitch": 73, "duration": 24, "velocity": 64}, {"time": 1272, "pitch": 71, "duration": 12, "velocity": 64}, {"time": 1284, "pitch": 71, "duration": 12, "velocity": 64}, {"time": 1296, "pitch": 69, "duration": 24, "velocity": 64}, {"time": 1320, "pitch": 74, "duration": 24, "velocity": 64}, {"time": 1344, "pitch": 71, "duration": 24, "velocity": 64}, {"time": 1368, "pitch": 71, "duration": 12, "velocity": 64}, {"time": 1380, "pitch": 71, "duration": 6, "velocity": 64}, {"time": 1386, "pitch": 71, "duration": 6, "velocity": 64}, {"time": 1392, "pitch": 71, "duration": 12, "velocity": 64}, {"time": 1404, "pitch": 71, "duration": 12, "velocity": 64}, {"time": 1416, "pitch": 69, "duration": 12, "velocity": 64}, {"time": 1428, "pitch": 74, "duration": 12, "velocity": 64}, {"time": 1452, "pitch": 74, "duration": 12, "velocity": 64}, {"time": 1464, "pitch": 71, "duration": 18, "velocity": 64}, {"time": 1482, "pitch": 71, "duration": 6, "velocity": 64}, {"time": 1488, "pitch": 71, "duration": 12, "velocity": 64}, {"time": 1500, "pitch": 71, "duration": 12, "velocity": 64}, {"time": 1512, "pitch": 71, "duration": 12, "velocity": 64}, {"time": 1524, "pitch": 79, "duration": 12, "velocity": 64}, {"time": 1548, "pitch": 71, "duration": 12, "velocity": 64}, {"time": 1560, "pitch": 71, "duration": 12, "velocity": 64}, {"time": 1572, "pitch": 71, "duration": 12, "velocity": 64}, {"time": 1584, "pitch": 71, "duration": 12, "velocity": 64}, {"time": 1596, "pitch": 71, "duration": 12, "velocity": 64}, {"time": 1608, "pitch": 69, "duration": 12, "velocity": 64}, {"time": 1620, "pitch": 74, "duration": 12, "velocity": 64}, {"time": 1632, "pitch": 74, "duration": 24, "velocity": 64}, {"time": 1656, "pitch": 71, "duration": 18, "velocity": 64}, {"time": 1674, "pitch": 71, "duration": 6, "velocity": 64}, {"time": 1680, "pitch": 71, "duration": 12, "velocity": 64}, {"time": 1692, "pitch": 71, "duration": 12, "velocity": 64}, {"time": 1704, "pitch": 71, "duration": 12, "velocity": 64}, {"time": 1716, "pitch": 79, "duration": 12, "velocity": 64}, {"time": 1740, "pitch": 74, "duration": 12, "velocity": 64}, {"time": 1752, "pitch": 71, "duration": 18, "velocity": 64}, {"time": 1770, "pitch": 71, "duration": 6, "velocity": 64}, {"time": 1776, "pitch": 71, "duration": 12, "velocity": 64}, {"time": 1788, "pitch": 71, "duration": 12, "velocity": 64}, {"time": 1800, "pitch": 69, "duration": 12, "velocity": 64}, {"time": 1812, "pitch": 74, "duration": 12, "velocity": 64}, {"time": 1824, "pitch": 74, "duration": 24, "velocity": 64}, {"time": 1848, "pitch": 71, "duration": 18, "velocity": 64}, {"time": 1866, "pitch": 71, "duration": 6, "velocity": 64}, {"time": 1872, "pitch": 71, "duration": 12, "velocity": 64}, {"time": 1884, "pitch": 71, "duration": 12, "velocity": 64}, {"time": 1896, "pitch": 71, "duration": 12, "velocity": 64}, {"time": 1908, "pitch": 79, "duration": 12, "velocity": 64}, {"time": 1932, "pitch": 79, "duration": 12, "velocity": 64}, {"time": 1944, "pitch": 71, "duration": 18, "velocity": 64}, {"time": 1962, "pitch": 71, "duration": 6, "velocity": 64}, {"time": 1968, "pitch": 71, "duration": 12, "velocity": 64}, {"time": 1980, "pitch": 71, "duration": 12, "velocity": 64}, {"time": 1992, "pitch": 69, "duration": 12, "velocity": 64}, {"time": 2004, "pitch": 74, "duration": 12, "velocity": 64}, {"time": 2016, "pitch": 74, "duration": 24, "velocity": 64}, {"time": 2040, "pitch": 71, "duration": 18, "velocity": 64}, {"time": 2058, "pitch": 71, "duration": 6, "velocity": 64}, {"time": 2064, "pitch": 71, "duration": 12, "velocity": 64}, {"time": 2076, "pitch": 71, "duration": 12, "velocity": 64}, {"time": 2088, "pitch": 69, "duration": 12, "velocity": 64}, {"time": 2100, "pitch": 74, "duration": 12, "velocity": 64}, {"time": 2124, "pitch": 74, "duration": 12, "velocity": 64}, {"time": 2136, "pitch": 76, "duration": 18, "velocity": 64}, {"time": 2154, "pitch": 76, "duration": 6, "velocity": 64}, {"time": 2160, "pitch": 79, "duration": 12, "velocity": 64}, {"time": 2172, "pitch": 74, "duration": 12, "velocity": 64}, {"time": 2184, "pitch": 69, "duration": 12, "velocity": 64}, {"time": 2196, "pitch": 74, "duration": 12, "velocity": 64}, {"time": 2208, "pitch": 74, "duration": 24, "velocity": 64}, {"time": 2232, "pitch": 78, "duration": 24, "velocity": 64}, {"time": 2256, "pitch": 76, "duration": 72, "velocity": 64}, {"time": 2340, "pitch": 76, "duration": 24, "velocity": 64}, {"time": 2364, "pitch": 74, "duration": 12, "velocity": 64}, {"time": 2376, "pitch": 71, "duration": 24, "velocity": 64}, {"time": 2400, "pitch": 74, "duration": 24, "velocity": 64}, {"time": 2424, "pitch": 67, "duration": 48, "velocity": 64}, {"time": 2484, "pitch": 76, "duration": 12, "velocity": 64}, {"time": 2496, "pitch": 74, "duration": 12, "velocity": 64}, {"time": 2508, "pitch": 76, "duration": 12, "velocity": 64}, {"time": 2520, "pitch": 79, "duration": 18, "velocity": 64}, {"time": 2538, "pitch": 79, "duration": 6, "velocity": 64}, {"time": 2544, "pitch": 76, "duration": 12, "velocity": 64}, {"time": 2556, "pitch": 74, "duration": 12, "velocity": 64}, {"time": 2568, "pitch": 74, "duration": 24, "velocity": 64}, {"time": 2592, "pitch": 76, "duration": 36, "velocity": 64}, {"time": 2628, "pitch": 71, "duration": 12, "velocity": 64}, {"time": 2640, "pitch": 69, "duration": 12, "velocity": 64}, {"time": 2652, "pitch": 71, "duration": 12, "velocity": 64}, {"time": 2664, "pitch": 79, "duration": 24, "velocity": 64}, {"time": 2688, "pitch": 74, "duration": 18, "velocity": 64}, {"time": 2706, "pitch": 76, "duration": 6, "velocity": 64}, {"time": 2712, "pitch": 71, "duration": 18, "velocity": 64}, {"time": 2730, "pitch": 69, "duration": 6, "velocity": 64}, {"time": 2736, "pitch": 67, "duration": 24, "velocity": 64}, {"time": 2760, "pitch": 71, "duration": 18, "velocity": 64}, {"time": 2778, "pitch": 74, "duration": 6, "velocity": 64}, {"time": 2784, "pitch": 69, "duration": 12, "velocity": 64}, {"time": 2796, "pitch": 71, "duration": 12, "velocity": 64}, {"time": 2808, "pitch": 67, "duration": 48, "velocity": 64}]}]}