{"metadata": {"schema_version": "0.1", "title": "Xiaoxiao liyu hongkousai", "source_format": "abc"}, "resolution": 24, "tempos": [{"time": 0, "qpm": 120.0}], "key_signatures": [{"time": 0, "root": 0, "mode": "major", "fifths": 0}], "time_signatures": [{"time": 0, "numerator": 4, "denominator": 4}], "tracks": [{"program": 0, "is_drum": false, "notes": [{"time": 0, "pitch": 69, "duration": 36, "velocity": 64}, {"time": 36, "pitch": 67, "duration": 12, "velocity": 64}, {"time": 48, "pitch": 64, "duration": 6, "velocity": 64}, {"time": 54, "pitch": 64, "duration": 6, "velocity": 64}, {"time": 60, "pitch": 64, "duration": 6, "velocity": 64}, {"time": 66, "pitch": 64, "duration": 6, "velocity": 64}, {"time": 72, "pitch": 69, "duration": 3, "velocity": 64}, {"time": 75, "pitch": 72, "duration": 3, "velocity": 64}, {"time": 78, "pitch": 69, "duration": 6, "velocity": 64}, {"time": 84, "pitch": 64, "duration": 6, "velocity": 64}, {"time": 90, "pitch": 67, "duration": 30, "velocity": 64}, {"time": 120, "pitch": 69, "duration": 12, "velocity": 64}, {"time": 132, "pitch": 69, "duration": 6, "velocity": 64}, {"time": 138, "pitch": 69, "duration": 6, "velocity": 64}, {"time": 144, "pitch": 72, "duration": 6, "velocity": 64}, {"time": 150, "pitch": 72, "duration": 6, "velocity": 64}, {"time": 156, "pitch": 74, "duration": 12, "velocity": 64}, {"time": 168, "pitch": 76, "duration": 6, "velocity": 64}, {"time": 174, "pitch": 79, "duration": 6, "velocity": 64}, {"time": 180, "pitch": 76, "duration": 6, "velocity": 64}, {"time": 186, "pitch": 74, "duration": 6, "velocity": 64}, {"time": 192, "pitch": 76, "duration": 6, "velocity": 64}, {"time": 198, "pitch": 74, "duration": 3, "velocity": 64}, {"time": 201, "pitch": 76, "duration": 3, "velocity": 64}, {"time": 204, "pitch": 74, "duration": 24, "velocity": 64}, {"time": 228, "pitch": 76, "duration": 6, "velocity": 64}, {"time": 234, "pitch": 74, "duration": 6, "velocity": 64}, {"time": 240, "pitch": 72, "duration": 6, "velocity": 64}, {"time": 246, "pitch": 74, "duration": 3, "velocity": 64}, {"time": 249, "pitch": 72, "duration": 3, "velocity": 64}, {"time": 252, "pitch": 69, "duration": 6, "velocity": 64}, {"time": 258, "pitch": 72, "duration": 6, "velocity": 64}, {"time": 264, "pitch": 69, "duration": 12, "velocity": 64}, {"time": 276, "pitch": 67, "duration": 36, "velocity": 64}, {"time": 312, "pitch": 69, "duration": 6, "velocity": 64}, {"time": 318, "pitch": 69, "duration": 6, "velocity": 64}, {"time": 324, "pitch": 69, "duration": 6, "velocity": 64}, {"time": 330, "pitch": 69, "duration": 6, "velocity": 64}, {"time": 336, "pitch": 69, "duration": 6, "velocity": 64}, {"time": 342, "pitch": 69, "duration": 3, "velocity": 64}, {"time": 345, "pitch": 72, "duration": 3, "velocity": 64}, {"time": 348, "pitch": 69, "duration": 12, "velocity": 64}, {"time": 360, "pitch": 73, "duration": 6, "velocity": 64}, {"time": 366, "pitch": 72, "duration": 6, "velocity": 64}, {"time": 372, "pitch": 74, "duration": 24, "velocity": 64}, {"time": 396, "pitch": 74, "duration": 12, "velocity": 64}, {"time": 408, "pitch": 72, "duration": 6, "velocity": 64}, {"time": 414, "pitch": 74, "duration": 3, "velocity": 64}, {"time": 417, "pitch": 72, "duration": 3, "velocity": 64}, {"time": 420, "pitch": 69, "duration": 6, "velocity": 64}, {"time": 426, "pitch": 72, "duration": 6, "velocity": 64}, {"time": 432, "pitch": 69, "duration": 12, "velocity": 64}, {"time": 444, "pitch": 67, "duration": 36, "velocity": 64}, {"time": 480, "pitch": 64, "duration": 24, "velocity": 64}, {"time": 504, "pitch": 67, "duration": 48, "velocity": 64}, {"time": 564, "pitch": 69, "duration": 12, "velocity": 64}, {"time": 576, "pitch": 73, "duration": 6, "velocity": 64}, {"time": 582, "pitch": 72, "duration": 6, "velocity": 64}, {"time": 588, "pitch": 74, "duration": 12, "velocity": 64}, {"time": 600, "pitch": 76, "duration": 6, "velocity": 64}, {"time": 606, "pitch": 79, "duration": 6, "velocity": 64}, {"time": 612, "pitch": 76, "duration": 6, "velocity": 64}, {"time": 618, "pitch": 74, "duration": 6, "velocity": 64}, {"time": 624, "pitch": 76, "duration": 6, "velocity": 64}, {"time": 630, "pitch": 74, "duration": 3, "velocity": 64}, {"time": 633, "pitch": 76, "duration": 3, "velocity": 64}, {"time": 636, "pitch": 74, "duration": 24, "velocity": 64}, {"time": 660, "pitch": 76, "duration": 6, "velocity": 64}, {"time": 666, "pitch": 74, "duration": 6, "velocity": 64}, {"time": 672, "pitch": 72, "duration": 6, "velocity": 64}, {"time": 678, "pitch": 74, "duration": 3, "velocity": 64}, {"time": 681, "pitch": 72, "duration": 3, "velocity": 64}, {"time": 684, "pitch": 69, "duration": 6, "velocity": 64}, {"time": 690, "pitch": 72, "duration": 6, "velocity": 64}, {"time": 696, "pitch": 69, "duration": 12, "velocity": 64}, {"time": 708, "pitch": 67, "duration": 36, "velocity": 64}, {"time": 744, "pitch": 69, "duration": 24, "velocity": 64}, {"time": 768, "pitch": 72, "duration": 4, "velocity": 64}, {"time": 772, "pitch": 72, "duration": 4, "velocity": 64}, {"time": 776, "pitch": 72, "duration": 4, "velocity": 64}, {"time": 780, "pitch": 74, "duration": 24, "velocity": 64}, {"time": 804, "pitch": 72, "duration": 4, "velocity": 64}, {"time": 808, "pitch": 74, "duration": 4, "velocity": 64}, {"time": 812, "pitch": 72, "duration": 4, "velocity": 64}, {"time": 816, "pitch": 67, "duration": 48, "velocity": 64}, {"time": 864, "pitch": 69, "duration": 24, "velocity": 64}, {"time": 888, "pitch": 69, "duration": 12, "velocity": 64}, {"time": 900, "pitch": 67, "duration": 12, "velocity": 64}, {"time": 912, "pitch": 64, "duration": 6, "velocity": 64}, {"time": 918, "pitch": 64, "duration": 6, "velocity": 64}, {"time": 924, "pitch": 64, "duration": 6, "velocity": 64}, {"time": 930, "pitch": 69, "duration": 6, "velocity": 64}, {"time": 936, "pitch": 67, "duration": 48, "velocity": 64}, {"time": 984, "pitch": 69, "duration": 12, "velocity": 64}, {"time": 996, "pitch": 69, "duration": 6, "velocity": 64}, {"time": 1002, "pitch": 74, "duration": 6, "velocity": 64}, {"time": 1008, "pitch": 73, "duration": 12, "velocity": 64}, {"time": 1020, "pitch": 74, "duration": 12, "velocity": 64}, {"time": 1032, "pitch": 76, "duration": 6, "velocity": 64}, {"time": 1038, "pitch": 79, "duration": 6, "velocity": 64}, {"time": 1044, "pitch": 76, "duration": 6, "velocity": 64}, {"time": 1050, "pitch": 74, "duration": 6, "velocity": 64}, {"time": 1056, "pitch": 76, "duration": 6, "velocity": 64}, {"time": 1062, "pitch": 74, "duration": 3, "velocity": 64}, {"time": 1065, "pitch": 76, "duration": 3, "velocity": 64}, {"time": 1068, "pitch": 74, "duration": 24, "velocity": 64}, {"time": 1092, "pitch": 76, "duration": 6, "velocity": 64}, {"time": 1098, "pitch": 74, "duration": 6, "velocity": 64}, {"time": 1104, "pitch": 72, "duration": 6, "velocity": 64}, {"time": 1110, "pitch": 74, "duration": 3, "velocity": 64}, {"time": 1113, "pitch": 72, "duration": 3, "velocity": 64}, {"time": 1116, "pitch": 69, "duration": 6, "velocity": 64}, {"time": 1122, "pitch": 72, "duration": 6, "velocity": 64}, {"time": 1128, "pitch": 69, "duration": 12, "velocity": 64}, {"time": 1140, "pitch": 67, "duration": 36, "velocity": 64}, {"time": 1176, "pitch": 69, "duration": 6, "velocity": 64}, {"time": 1182, "pitch": 69, "duration": 6, "velocity": 64}, {"time": 1188, "pitch": 69, "duration": 6, "velocity": 64}, {"time": 1194, "pitch": 69, "duration": 6, "velocity": 64}, {"time": 1200, "pitch": 73, "duration": 6, "velocity": 64}, {"time": 1206, "pitch": 72, "duration": 6, "velocity": 64}, {"time": 1212, "pitch": 74, "duration": 12, "velocity": 64}, {"time": 1224, "pitch": 72, "duration": 12, "velocity": 64}, {"time": 1236, "pitch": 69, "duration": 6, "velocity": 64}, {"time": 1242, "pitch": 72, "duration": 6, "velocity": 64}, {"time": 1248, "pitch": 69, "duration": 12, "velocity": 64}, {"time": 1260, "pitch": 67, "duration": 36, "velocity": 64}, {"time": 1296, "pitch": 69, "duration": 24, "velocity": 64}, {"time": 1320, "pitch": 67, "duration": 6, "velocity": 64}, {"time": 1326, "pitch": 67, "duration": 6, "velocity": 64}, {"time": 1332, "pitch": 67, "duration": 6, "velocity": 64}, {"time": 1338, "pitch": 67, "duration": 6, "velocity": 64}, {"time": 1344, "pitch": 67, "duration": 48, "velocity": 64}, {"time": 1392, "pitch": 69, "duration": 6, "velocity": 64}, {"time": 1398, "pitch": 69, "duration": 6, "velocity": 64}, {"time": 1404, "pitch": 69, "duration": 6, "velocity": 64}, {"time": 1410, "pitch": 69, "duration": 6, "velocity": 64}, {"time": 1416, "pitch": 73, "duration": 6, "velocity": 64}, {"time": 1422, "pitch": 72, "duration": 6, "velocity": 64}, {"time": 1428, "pitch": 74, "duration": 12, "velocity": 64}, {"time": 1440, "pitch": 76, "duration": 6, "velocity": 64}, {"time": 1446, "pitch": 79, "duration": 6, "velocity": 64}, {"time": 1452, "pitch": 76, "duration": 6, "velocity": 64}, {"time": 1458, "pitch": 74, "duration": 6, "velocity": 64}, {"time": 1464, "pitch": 76, "duration": 6, "velocity": 64}, {"time": 1470, "pitch": 74, "duration": 3, "velocity": 64}, {"time": 1473, "pitch": 76, "duration": 3, "velocity": 64}, {"time": 1476, "pitch": 74, "duration": 24, "velocity": 64}, {"time": 1500, "pitch": 76, "duration": 6, "velocity": 64}, {"time": 1506, "pitch": 74, "duration": 6, "velocity": 64}, {"time": 1512, "pitch": 76, "duration": 6, "velocity": 64}, {"time": 1518, "pitch": 69, "duration": 6, "velocity": 64}, {"time": 1524, "pitch": 69, "duration": 6, "velocity": 64}, {"time": 1530, "pitch": 67, "duration": 6, "velocity": 64}, {"time": 1536, "pitch": 69, "duration": 6, "velocity": 64}, {"time": 1542, "pitch": 67, "duration": 9, "velocity": 64}, {"time": 1551, "pitch": 67, "duration": 36, "velocity": 64}, {"time": 1587, "pitch": 64, "duration": 6, "velocity": 64}, {"time": 1593, "pitch": 67, "duration": 6, "velocity": 64}, {"time": 1599, "pitch": 69, "duration": 6, "velocity": 64}, {"time": 1605, "pitch": 69, "duration": 6, "velocity": 64}, {"time": 1611, "pitch": 69, "duration": 24, "velocity": 64}, {"time": 1635, "pitch": 72, "duration": 6, "velocity": 64}, {"time": 1641, "pitch": 72, "duration": 6, "velocity": 64}, {"time": 1647, "pitch": 74, "duration": 24, "velocity": 64}, {"time": 1671, "pitch": 74, "duration": 12, "velocity": 64}, {"time": 1683, "pitch": 72, "duration": 6, "velocity": 64}, {"time": 1689, "pitch": 74, "duration": 3, "velocity": 64}, {"time": 1692, "pitch": 72, "duration": 3, "velocity": 64}, {"time": 1695, "pitch": 69, "duration": 6, "velocity": 64}, {"time": 1701, "pitch": 67, "duration": 30, "velocity": 64}, {"time": 1731, "pitch": 64, "duration": 24, "velocity": 64}, {"time": 1755, "pitch": 69, "duration": 24, "velocity": 64}, {"time": 1779, "pitch": 67, "duration": 6, "velocity": 64}, {"time": 1785, "pitch": 69, "duration": 6, "velocity": 64}, {"time": 1791, "pitch": 67, "duration": 24, "velocity": 64}, {"time": 1815, "pitch": 69, "duration": 12, "velocity": 64}, {"time": 1827, "pitch": 73, "duration": 12, "velocity": 64}, {"time": 1839, "pitch": 74, "duration": 12, "velocity": 64}, {"time": 1851, "pitch": 76, "duration": 6, "velocity": 64}, {"time": 1857, "pitch": 79, "duration": 6, "velocity": 64}, {"time": 1863, "pitch": 76, "duration": 6, "velocity": 64}, {"time": 1869, "pitch": 74, "duration": 6, "velocity": 64}, {"time": 1875, "pitch": 76, "duration": 6, "velocity": 64}, {"time": 1881, "pitch": 74, "duration": 3, "velocity": 64}, {"time": 1884, "pitch": 76, "duration": 3, "velocity": 64}, {"time": 1887, "pitch": 74, "duration": 24, "velocity": 64}, {"time": 1911, "pitch": 76, "duration": 6, "velocity": 64}, {"time": 1917, "pitch": 74, "duration": 6, "velocity": 64}, {"time": 1923, "pitch": 72, "duration": 6, "velocity": 64}, {"time": 1929, "pitch": 74, "duration": 3, "velocity": 64}, {"time": 1932, "pitch": 72, "duration": 3, "velocity": 64}, {"time": 1935, "pitch": 69, "duration": 6, "velocity": 64}, {"time": 1941, "pitch": 72, "duration": 6, "velocity": 64}, {"time": 1947, "pitch": 69, "duration": 12, "velocity": 64}, {"time": 1959, "pitch": 67, "duration": 36, "velocity": 64}, {"time": 1995, "pitch": 69, "duration": 6, "velocity": 64}, {"time": 2001, "pitch": 69, "duration": 6, "velocity": 64}, {"time": 2007, "pitch": 69, "duration": 6, "velocity": 64}, {"time": 2013, "pitch": 72, "duration": 6, "velocity": 64}, {"time": 2019, "pitch": 73, "duration": 12, "velocity": 64}, {"time": 2031, "pitch": 74, "duration": 12, "velocity": 64}, {"time": 2043, "pitch": 72, "duration": 12, "velocity": 64}, {"time": 2055, "pitch": 69, "duration": 6, "velocity": 64}, {"time": 2061, "pitch": 72, "duration": 6, "velocity": 64}, {"time": 2067, "pitch": 69, "duration": 12, "velocity": 64}, {"time": 2079, "pitch": 67, "duration": 36, "velocity": 64}]}]}