{"metadata": {"schema_version": "0.1", "title": "Yiduo xianhua shui di kai", "source_format": "abc"}, "resolution": 24, "tempos": [{"time": 0, "qpm": 120.0}], "key_signatures": [{"time": 0, "root": 2, "mode": "major", "fifths": 2}], "time_signatures": [{"time": 0, "numerator": 4, "denominator": 4}, {"time": 336, "numerator": 3, "denominator": 4}, {"time": 696, "numerator": 1, "denominator": 4}, {"time": 720, "numerator": 2, "denominator": 4}, {"time": 768, "numerator": 1, "denominator": 4}], "beats": [{"time": 0, "is_downbeat": true}, {"time": 24, "is_downbeat": false}, {"time": 48, "is_downbeat": true}, {"time": 72, "is_downbeat": false}, {"time": 96, "is_downbeat": true}, {"time": 120, "is_downbeat": false}, {"time": 144, "is_downbeat": true}, {"time": 168, "is_downbeat": false}, {"time": 192, "is_downbeat": true}, {"time": 216, "is_downbeat": false}, {"time": 240, "is_downbeat": true}, {"time": 264, "is_downbeat": false}, {"time": 288, "is_downbeat": true}, {"time": 312, "is_downbeat": false}, {"time": 336, "is_downbeat": true}, {"time": 360, "is_downbeat": true}, {"time": 384, "is_downbeat": true}, {"time": 408, "is_downbeat": true}, {"time": 432, "is_downbeat": true}, {"time": 456, "is_downbeat": true}, {"time": 480, "is_downbeat": true}, {"time": 504, "is_downbeat": true}, {"time": 528, "is_downbeat": true}, {"time": 552, "is_downbeat": true}, {"time": 576, "is_downbeat": true}, {"time": 600, "is_downbeat": true}, {"time": 624, "is_downbeat": true}, {"time": 648, "is_downbeat": true}, {"time": 672, "is_downbeat": true}, {"time": 696, "is_downbeat": true}, {"time": 720, "is_downbeat": true}, {"time": 744, "is_downbeat": true}, {"time": 768, "is_downbeat": true}], "tracks": [{"program": 0, "is_drum": false, "notes": [{"time": 0, "pitch": 76, "duration": 12, "velocity": 64}, {"time": 12, "pitch": 76, "duration": 12, "velocity": 64}, {"time": 24, "pitch": 78, "duration": 12, "velocity": 64}, {"time": 36, "pitch": 74, "duration": 12, "velocity": 64}, {"time": 48, "pitch": 76, "duration": 36, "velocity": 64}, {"time": 84, "pitch": 81, "duration": 12, "velocity": 64}, {"time": 108, "pitch": 74, "duration": 24, "velocity": 64}, {"time": 132, "pitch": 76, "duration": 6, "velocity": 64}, {"time": 138, "pitch": 74, "duration": 6, "velocity": 64}, {"time": 144, "pitch": 71, "duration": 48, "velocity": 64}, {"time": 192, "pitch": 71, "duration": 12, "velocity": 64}, {"time": 204, "pitch": 71, "duration": 12, "velocity": 64}, {"time": 216, "pitch": 71, "duration": 12, "velocity": 64}, {"time": 228, "pitch": 76, "duration": 6, "velocity": 64}, {"time": 234, "pitch": 78, "duration": 6, "velocity": 64}, {"time": 240, "pitch": 74, "duration": 36, "velocity": 64}, {"time": 276, "pitch": 76, "duration": 12, "velocity": 64}, {"time": 288, "pitch": 71, "duration": 6, "velocity": 64}, {"time": 294, "pitch": 69, "duration": 6, "velocity": 64}, {"time": 300, "pitch": 67, "duration": 6, "velocity": 64}, {"time": 306, "pitch": 69, "duration": 6, "velocity": 64}, {"time": 312, "pitch": 71, "duration": 6, "velocity": 64}, {"time": 318, "pitch": 74, "duration": 6, "velocity": 64}, {"time": 324, "pitch": 69, "duration": 36, "velocity": 64}, {"time": 360, "pitch": 67, "duration": 24, "velocity": 64}, {"time": 384, "pitch": 69, "duration": 24, "velocity": 64}, {"time": 408, "pitch": 67, "duration": 12, "velocity": 64}, {"time": 420, "pitch": 69, "duration": 6, "velocity": 64}, {"time": 426, "pitch": 67, "duration": 6, "velocity": 64}, {"time": 432, "pitch": 64, "duration": 24, "velocity": 64}, {"time": 456, "pitch": 67, "duration": 12, "velocity": 64}, {"time": 468, "pitch": 64, "duration": 24, "velocity": 64}, {"time": 492, "pitch": 67, "duration": 12, "velocity": 64}, {"time": 504, "pitch": 69, "duration": 12, "velocity": 64}, {"time": 516, "pitch": 67, "duration": 6, "velocity": 64}, {"time": 522, "pitch": 69, "duration": 6, "velocity": 64}, {"time": 528, "pitch": 64, "duration": 24, "velocity": 64}, {"time": 552, "pitch": 74, "duration": 24, "velocity": 64}, {"time": 576, "pitch": 76, "duration": 24, "velocity": 64}, {"time": 600, "pitch": 74, "duration": 12, "velocity": 64}, {"time": 612, "pitch": 76, "duration": 6, "velocity": 64}, {"time": 618, "pitch": 74, "duration": 6, "velocity": 64}, {"time": 624, "pitch": 71, "duration": 24, "velocity": 64}, {"time": 648, "pitch": 74, "duration": 12, "velocity": 64}, {"time": 660, "pitch": 71, "duration": 24, "velocity": 64}, {"time": 684, "pitch": 76, "duration": 12, "velocity": 64}, {"time": 696, "pitch": 74, "duration": 24, "velocity": 64}, {"time": 720, "pitch": 74, "duration": 18, "velocity": 64}, {"time": 738, "pitch": 71, "duration": 6, "velocity": 64}, {"time": 744, "pitch": 69, "duration": 6, "velocity": 64}, {"time": 750, "pitch": 71, "duration": 6, "velocity": 64}, {"time": 756, "pitch": 74, "duration": 36, "velocity": 64}]}]}