{"metadata": {"schema_version": "0.1", "title": "Zhuowang shan shang", "source_format": "abc"}, "resolution": 24, "tempos": [{"time": 0, "qpm": 120.0}], "key_signatures": [{"time": 0, "root": 9, "mode": "major", "fifths": 3}], "time_signatures": [{"time": 0, "numerator": 5, "denominator": 8}], "beats": [{"time": 0, "is_downbeat": true}, {"time": 12, "is_downbeat": false}, {"time": 24, "is_downbeat": false}, {"time": 36, "is_downbeat": false}, {"time": 48, "is_downbeat": false}, {"time": 60, "is_downbeat": true}, {"time": 72, "is_downbeat": false}, {"time": 84, "is_downbeat": false}, {"time": 96, "is_downbeat": false}, {"time": 108, "is_downbeat": false}, {"time": 120, "is_downbeat": true}, {"time": 132, "is_downbeat": false}, {"time": 144, "is_downbeat": false}, {"time": 156, "is_downbeat": false}, {"time": 168, "is_downbeat": false}, {"time": 180, "is_downbeat": true}, {"time": 192, "is_downbeat": false}, {"time": 204, "is_downbeat": false}, {"time": 216, "is_downbeat": false}, {"time": 228, "is_downbeat": false}, {"time": 240, "is_downbeat": true}, {"time": 252, "is_downbeat": false}, {"time": 264, "is_downbeat": false}, {"time": 276, "is_downbeat": false}, {"time": 288, "is_downbeat": false}, {"time": 300, "is_downbeat": true}, {"time": 312, "is_downbeat": false}, {"time": 324, "is_downbeat": false}, {"time": 336, "is_downbeat": false}, {"time": 348, "is_downbeat": false}, {"time": 360, "is_downbeat": true}, {"time": 372, "is_downbeat": false}, {"time": 384, "is_downbeat": false}, {"time": 396, "is_downbeat": false}, {"time": 408, "is_downbeat": false}, {"time": 420, "is_downbeat": true}, {"time": 432, "is_downbeat": false}, {"time": 444, "is_downbeat": false}, {"time": 456, "is_downbeat": false}, {"time": 468, "is_downbeat": false}], "tracks": [{"program": 0, "is_drum": false, "notes": [{"time": 0, "pitch": 73, "duration": 12, "velocity": 64}, {"time": 12, "pitch": 73, "duration": 6, "velocity": 64}, {"time": 18, "pitch": 71, "duration": 6, "velocity": 64}, {"time": 24, "pitch": 73, "duration": 12, "velocity": 64}, {"time": 36, "pitch": 73, "duration": 24, "velocity": 64}, {"time": 60, "pitch": 73, "duration": 12, "velocity": 64}, {"time": 72, "pitch": 73, "duration": 6, "velocity": 64}, {"time": 78, "pitch": 71, "duration": 6, "velocity": 64}, {"time": 84, "pitch": 69, "duration": 12, "velocity": 64}, {"time": 96, "pitch": 71, "duration": 24, "velocity": 64}, {"time": 120, "pitch": 73, "duration": 12, "velocity": 64}, {"time": 132, "pitch": 71, "duration": 6, "velocity": 64}, {"time": 138, "pitch": 73, "duration": 6, "velocity": 64}, {"time": 144, "pitch": 71, "duration": 12, "velocity": 64}, {"time": 156, "pitch": 66, "duration": 24, "velocity": 64}, {"time": 180, "pitch": 71, "duration": 6, "velocity": 64}, {"time": 186, "pitch": 69, "duration": 6, "velocity": 64}, {"time": 192, "pitch": 71, "duration": 6, "velocity": 64}, {"time": 198, "pitch": 73, "duration": 6, "velocity": 64}, {"time": 204, "pitch": 69, "duration": 12, "velocity": 64}, {"time": 216, "pitch": 69, "duration": 12, "velocity": 64}, {"time": 240, "pitch": 69, "duration": 12, "velocity": 64}, {"time": 252, "pitch": 69, "duration": 6, "velocity": 64}, {"time": 258, "pitch": 66, "duration": 6, "velocity": 64}, {"time": 264, "pitch": 69, "duration": 6, "velocity": 64}, {"time": 270, "pitch": 71, "duration": 6, "velocity": 64}, {"time": 276, "pitch": 73, "duration": 24, "velocity": 64}, {"time": 300, "pitch": 73, "duration": 12, "velocity": 64}, {"time": 312, "pitch": 73, "duration": 6, "velocity": 64}, {"time": 318, "pitch": 71, "duration": 6, "velocity": 64}, {"time": 324, "pitch": 69, "duration": 12, "velocity": 64}, {"time": 336, "pitch": 71, "duration": 24, "velocity": 64}, {"time": 360, "pitch": 73, "duration": 12, "velocity": 64}, {"time": 372, "pitch": 71, "duration": 6, "velocity": 64}, {"time": 378, "pitch": 73, "duration": 6, "velocity": 64}, {"time": 384, "pitch": 71, "duration": 6, "velocity": 64}, {"time": 390, "pitch": 69, "duration": 6, "velocity": 64}, {"time": 396, "pitch": 66, "duration": 24, "velocity": 64}, {"time": 420, "pitch": 71, "duration": 6, "velocity": 64}, {"time": 426, "pitch": 69, "duration": 6, "velocity": 64}, {"time": 432, "pitch": 71, "duration": 6, "velocity": 64}, {"time": 438, "pitch": 73, "duration": 6, "velocity": 64}, {"time": 444, "pitch": 69, "duration": 12, "velocity": 64}, {"time": 456, "pitch": 69, "duration": 24, "velocity": 64}]}]}