{"metadata": {"schema_version": "0.1", "title": "Taohua kai lai hong shi hong", "source_format": "abc"}, "resolution": 24, "tempos": [{"time": 0, "qpm": 120.0}], "key_signatures": [{"time": 0, "root": 0, "mode": "major", "fifths": 0}], "time_signatures": [{"time": 0, "numerator": 4, "denominator": 4}, {"time": 816, "numerator": 6, "denominator": 8}, {"time": 888, "numerator": 2, "denominator": 4}], "beats": [{"time": 0, "is_downbeat": true}, {"time": 12, "is_downbeat": false}, {"time": 24, "is_downbeat": false}, {"time": 36, "is_downbeat": false}, {"time": 48, "is_downbeat": true}, {"time": 60, "is_downbeat": false}, {"time": 72, "is_downbeat": false}, {"time": 84, "is_downbeat": false}, {"time": 96, "is_downbeat": true}, {"time": 108, "is_downbeat": false}, {"time": 120, "is_downbeat": false}, {"time": 132, "is_downbeat": false}, {"time": 144, "is_downbeat": true}, {"time": 156, "is_downbeat": false}, {"time": 168, "is_downbeat": false}, {"time": 180, "is_downbeat": false}, {"time": 192, "is_downbeat": true}, {"time": 204, "is_downbeat": false}, {"time": 216, "is_downbeat": false}, {"time": 228, "is_downbeat": false}, {"time": 240, "is_downbeat": true}, {"time": 252, "is_downbeat": false}, {"time": 264, "is_downbeat": false}, {"time": 276, "is_downbeat": false}, {"time": 288, "is_downbeat": true}, {"time": 300, "is_downbeat": false}, {"time": 312, "is_downbeat": false}, {"time": 324, "is_downbeat": false}, {"time": 336, "is_downbeat": true}, {"time": 348, "is_downbeat": false}, {"time": 360, "is_downbeat": false}, {"time": 372, "is_downbeat": false}, {"time": 384, "is_downbeat": true}, {"time": 396, "is_downbeat": false}, {"time": 408, "is_downbeat": false}, {"time": 420, "is_downbeat": false}, {"time": 432, "is_downbeat": true}, {"time": 444, "is_downbeat": false}, {"time": 456, "is_downbeat": false}, {"time": 468, "is_downbeat": false}, {"time": 480, "is_downbeat": true}, {"time": 492, "is_downbeat": false}, {"time": 504, "is_downbeat": false}, {"time": 516, "is_downbeat": false}, {"time": 528, "is_downbeat": true}, {"time": 540, "is_downbeat": false}, {"time": 552, "is_downbeat": false}, {"time": 564, "is_downbeat": false}, {"time": 576, "is_downbeat": true}, {"time": 588, "is_downbeat": false}, {"time": 600, "is_downbeat": false}, {"time": 612, "is_downbeat": false}, {"time": 624, "is_downbeat": true}, {"time": 636, "is_downbeat": false}, {"time": 648, "is_downbeat": false}, {"time": 660, "is_downbeat": false}, {"time": 672, "is_downbeat": true}, {"time": 684, "is_downbeat": false}, {"time": 696, "is_downbeat": false}, {"time": 708, "is_downbeat": false}, {"time": 720, "is_downbeat": true}, {"time": 732, "is_downbeat": false}, {"time": 744, "is_downbeat": false}, {"time": 756, "is_downbeat": false}, {"time": 768, "is_downbeat": true}, {"time": 780, "is_downbeat": false}, {"time": 792, "is_downbeat": false}, {"time": 804, "is_downbeat": false}, {"time": 816, "is_downbeat": true}, {"time": 840, "is_downbeat": false}, {"time": 864, "is_downbeat": true}, {"time": 888, "is_downbeat": true}, {"time": 912, "is_downbeat": false}, {"time": 936, "is_downbeat": true}, {"time": 960, "is_downbeat": false}, {"time": 984, "is_downbeat": true}, {"time": 1008, "is_downbeat": false}, {"time": 1032, "is_downbeat": true}, {"time": 1056, "is_downbeat": false}, {"time": 1080, "is_downbeat": true}, {"time": 1104, "is_downbeat": false}, {"time": 1128, "is_downbeat": true}, {"time": 1152, "is_downbeat": false}, {"time": 1176, "is_downbeat": true}, {"time": 1200, "is_downbeat": false}, {"time": 1224, "is_downbeat": true}, {"time": 1248, "is_downbeat": false}, {"time": 1272, "is_downbeat": true}, {"time": 1296, "is_downbeat": false}, {"time": 1320, "is_downbeat": true}, {"time": 1344, "is_downbeat": false}, {"time": 1368, "is_downbeat": true}, {"time": 1392, "is_downbeat": false}, {"time": 1416, "is_downbeat": true}, {"time": 1440, "is_downbeat": false}, {"time": 1464, "is_downbeat": true}, {"time": 1488, "is_downbeat": false}, {"time": 1512, "is_downbeat": true}, {"time": 1536, "is_downbeat": false}, {"time": 1560, "is_downbeat": true}, {"time": 1584, "is_downbeat": false}, {"time": 1608, "is_downbeat": true}, {"time": 1632, "is_downbeat": false}, {"time": 1656, "is_downbeat": true}, {"time": 1680, "is_downbeat": false}, {"time": 1704, "is_downbeat": true}, {"time": 1728, "is_downbeat": false}, {"time": 1752, "is_downbeat": true}, {"time": 1776, "is_downbeat": false}, {"time": 1800, "is_downbeat": true}, {"time": 1824, "is_downbeat": false}, {"time": 1848, "is_downbeat": true}, {"time": 1872, "is_downbeat": false}, {"time": 1896, "is_downbeat": true}, {"time": 1920, "is_downbeat": false}], "tracks": [{"program": 0, "is_drum": false, "notes": [{"time": 0, "pitch": 76, "duration": 18, "velocity": 64}, {"time": 18, "pitch": 74, "duration": 6, "velocity": 64}, {"time": 24, "pitch": 72, "duration": 12, "velocity": 64}, {"time": 36, "pitch": 74, "duration": 12, "velocity": 64}, {"time": 48, "pitch": 76, "duration": 48, "velocity": 64}, {"time": 96, "pitch": 69, "duration": 12, "velocity": 64}, {"time": 108, "pitch": 69, "duration": 6, "velocity": 64}, {"time": 114, "pitch": 72, "duration": 6, "velocity": 64}, {"time": 120, "pitch": 67, "duration": 12, "velocity": 64}, {"time": 132, "pitch": 64, "duration": 6, "velocity": 64}, {"time": 138, "pitch": 67, "duration": 6, "velocity": 64}, {"time": 144, "pitch": 69, "duration": 48, "velocity": 64}, {"time": 192, "pitch": 69, "duration": 12, "velocity": 64}, {"time": 204, "pitch": 69, "duration": 6, "velocity": 64}, {"time": 210, "pitch": 72, "duration": 6, "velocity": 64}, {"time": 216, "pitch": 67, "duration": 12, "velocity": 64}, {"time": 228, "pitch": 64, "duration": 6, "velocity": 64}, {"time": 234, "pitch": 67, "duration": 6, "velocity": 64}, {"time": 240, "pitch": 69, "duration": 48, "velocity": 64}, {"time": 288, "pitch": 64, "duration": 18, "velocity": 64}, {"time": 306, "pitch": 67, "duration": 6, "velocity": 64}, {"time": 312, "pitch": 69, "duration": 12, "velocity": 64}, {"time": 324, "pitch": 72, "duration": 12, "velocity": 64}, {"time": 336, "pitch": 67, "duration": 12, "velocity": 64}, {"time": 348, "pitch": 64, "duration": 12, "velocity": 64}, {"time": 360, "pitch": 67, "duration": 24, "velocity": 64}, {"time": 384, "pitch": 64, "duration": 18, "velocity": 64}, {"time": 402, "pitch": 67, "duration": 6, "velocity": 64}, {"time": 408, "pitch": 69, "duration": 12, "velocity": 64}, {"time": 420, "pitch": 72, "duration": 12, "velocity": 64}, {"time": 432, "pitch": 67, "duration": 18, "velocity": 64}, {"time": 450, "pitch": 64, "duration": 6, "velocity": 64}, {"time": 456, "pitch": 67, "duration": 6, "velocity": 64}, {"time": 462, "pitch": 64, "duration": 6, "velocity": 64}, {"time": 468, "pitch": 67, "duration": 12, "velocity": 64}, {"time": 480, "pitch": 69, "duration": 18, "velocity": 64}, {"time": 498, "pitch": 67, "duration": 6, "velocity": 64}, {"time": 504, "pitch": 64, "duration": 6, "velocity": 64}, {"time": 510, "pitch": 67, "duration": 6, "velocity": 64}, {"time": 516, "pitch": 64, "duration": 12, "velocity": 64}, {"time": 528, "pitch": 72, "duration": 12, "velocity": 64}, {"time": 540, "pitch": 74, "duration": 12, "velocity": 64}, {"time": 552, "pitch": 76, "duration": 6, "velocity": 64}, {"time": 558, "pitch": 79, "duration": 6, "velocity": 64}, {"time": 564, "pitch": 74, "duration": 12, "velocity": 64}, {"time": 576, "pitch": 76, "duration": 18, "velocity": 64}, {"time": 594, "pitch": 74, "duration": 6, "velocity": 64}, {"time": 600, "pitch": 76, "duration": 6, "velocity": 64}, {"time": 606, "pitch": 74, "duration": 6, "velocity": 64}, {"time": 612, "pitch": 76, "duration": 12, "velocity": 64}, {"time": 624, "pitch": 69, "duration": 24, "velocity": 64}, {"time": 648, "pitch": 72, "duration": 24, "velocity": 64}, {"time": 672, "pitch": 69, "duration": 24, "velocity": 64}, {"time": 696, "pitch": 72, "duration": 24, "velocity": 64}, {"time": 720, "pitch": 76, "duration": 24, "velocity": 64}, {"time": 744, "pitch": 79, "duration": 24, "velocity": 64}, {"time": 768, "pitch": 76, "duration": 18, "velocity": 64}, {"time": 786, "pitch": 74, "duration": 6, "velocity": 64}, {"time": 792, "pitch": 72, "duration": 18, "velocity": 64}, {"time": 810, "pitch": 74, "duration": 6, "velocity": 64}, {"time": 816, "pitch": 76, "duration": 6, "velocity": 64}, {"time": 822, "pitch": 79, "duration": 6, "velocity": 64}, {"time": 828, "pitch": 74, "duration": 12, "velocity": 64}, {"time": 852, "pitch": 72, "duration": 24, "velocity": 64}, {"time": 876, "pitch": 69, "duration": 6, "velocity": 64}, {"time": 882, "pitch": 67, "duration": 6, "velocity": 64}, {"time": 888, "pitch": 69, "duration": 18, "velocity": 64}, {"time": 906, "pitch": 72, "duration": 6, "velocity": 64}, {"time": 912, "pitch": 69, "duration": 6, "velocity": 64}, {"time": 918, "pitch": 67, "duration": 6, "velocity": 64}, {"time": 924, "pitch": 64, "duration": 6, "velocity": 64}, {"time": 930, "pitch": 67, "duration": 6, "velocity": 64}, {"time": 936, "pitch": 69, "duration": 48, "velocity": 64}, {"time": 984, "pitch": 69, "duration": 24, "velocity": 64}, {"time": 1008, "pitch": 72, "duration": 24, "velocity": 64}, {"time": 1032, "pitch": 69, "duration": 24, "velocity": 64}, {"time": 1056, "pitch": 72, "duration": 24, "velocity": 64}, {"time": 1080, "pitch": 69, "duration": 12, "velocity": 64}, {"time": 1092, "pitch": 67, "duration": 12, "velocity": 64}, {"time": 1104, "pitch": 64, "duration": 12, "velocity": 64}, {"time": 1116, "pitch": 67, "duration": 12, "velocity": 64}, {"time": 1128, "pitch": 69, "duration": 36, "velocity": 64}, {"time": 1164, "pitch": 72, "duration": 12, "velocity": 64}, {"time": 1176, "pitch": 69, "duration": 12, "velocity": 64}, {"time": 1188, "pitch": 67, "duration": 12, "velocity": 64}, {"time": 1200, "pitch": 64, "duration": 12, "velocity": 64}, {"time": 1212, "pitch": 67, "duration": 12, "velocity": 64}, {"time": 1224, "pitch": 69, "duration": 48, "velocity": 64}, {"time": 1272, "pitch": 64, "duration": 18, "velocity": 64}, {"time": 1290, "pitch": 67, "duration": 6, "velocity": 64}, {"time": 1296, "pitch": 69, "duration": 12, "velocity": 64}, {"time": 1308, "pitch": 72, "duration": 12, "velocity": 64}, {"time": 1320, "pitch": 67, "duration": 12, "velocity": 64}, {"time": 1332, "pitch": 64, "duration": 12, "velocity": 64}, {"time": 1344, "pitch": 67, "duration": 24, "velocity": 64}, {"time": 1368, "pitch": 64, "duration": 18, "velocity": 64}, {"time": 1386, "pitch": 67, "duration": 6, "velocity": 64}, {"time": 1392, "pitch": 69, "duration": 12, "velocity": 64}, {"time": 1404, "pitch": 72, "duration": 12, "velocity": 64}, {"time": 1416, "pitch": 67, "duration": 18, "velocity": 64}, {"time": 1434, "pitch": 64, "duration": 6, "velocity": 64}, {"time": 1440, "pitch": 67, "duration": 6, "velocity": 64}, {"time": 1446, "pitch": 64, "duration": 6, "velocity": 64}, {"time": 1452, "pitch": 67, "duration": 12, "velocity": 64}, {"time": 1464, "pitch": 69, "duration": 18, "velocity": 64}, {"time": 1482, "pitch": 67, "duration": 6, "velocity": 64}, {"time": 1488, "pitch": 64, "duration": 6, "velocity": 64}, {"time": 1494, "pitch": 67, "duration": 6, "velocity": 64}, {"time": 1500, "pitch": 64, "duration": 12, "velocity": 64}, {"time": 1512, "pitch": 72, "duration": 18, "velocity": 64}, {"time": 1530, "pitch": 74, "duration": 6, "velocity": 64}, {"time": 1536, "pitch": 76, "duration": 6, "velocity": 64}, {"time": 1542, "pitch": 79, "duration": 6, "velocity": 64}, {"time": 1548, "pitch": 74, "duration": 12, "velocity": 64}, {"time": 1560, "pitch": 76, "duration": 18, "velocity": 64}, {"time": 1578, "pitch": 74, "duration": 6, "velocity": 64}, {"time": 1584, "pitch": 76, "duration": 6, "velocity": 64}, {"time": 1590, "pitch": 74, "duration": 6, "velocity": 64}, {"time": 1596, "pitch": 76, "duration": 12, "velocity": 64}, {"time": 1608, "pitch": 72, "duration": 12, "velocity": 64}, {"time": 1620, "pitch": 69, "duration": 12, "velocity": 64}, {"time": 1632, "pitch": 76, "duration": 12, "velocity": 64}, {"time": 1644, "pitch": 69, "duration": 12, "velocity": 64}, {"time": 1656, "pitch": 72, "duration": 12, "velocity": 64}, {"time": 1668, "pitch": 72, "duration": 12, "velocity": 64}, {"time": 1680, "pitch": 69, "duration": 12, "velocity": 64}, {"time": 1692, "pitch": 72, "duration": 12, "velocity": 64}, {"time": 1704, "pitch": 69, "duration": 12, "velocity": 64}, {"time": 1716, "pitch": 72, "duration": 12, "velocity": 64}, {"time": 1728, "pitch": 67, "duration": 12, "velocity": 64}, {"time": 1740, "pitch": 64, "duration": 6, "velocity": 64}, {"time": 1746, "pitch": 67, "duration": 6, "velocity": 64}, {"time": 1752, "pitch": 69, "duration": 24, "velocity": 64}, {"time": 1776, "pitch": 72, "duration": 12, "velocity": 64}, {"time": 1788, "pitch": 72, "duration": 12, "velocity": 64}, {"time": 1800, "pitch": 69, "duration": 12, "velocity": 64}, {"time": 1812, "pitch": 72, "duration": 12, "velocity": 64}, {"time": 1824, "pitch": 69, "duration": 12, "velocity": 64}, {"time": 1836, "pitch": 72, "duration": 12, "velocity": 64}, {"time": 1848, "pitch": 67, "duration": 12, "velocity": 64}, {"time": 1860, "pitch": 69, "duration": 12, "velocity": 64}, {"time": 1872, "pitch": 74, "duration": 12, "velocity": 64}, {"time": 1884, "pitch": 71, "duration": 12, "velocity": 64}, {"time": 1896, "pitch": 69, "duration": 48, "velocity": 64}]}]}