{"metadata": {"schema_version": "0.1", "title": "Shiyue wanglang", "source_format": "abc"}, "resolution": 24, "tempos": [{"time": 0, "qpm": 120.0}], "key_signatures": [{"time": 0, "root": 9, "mode": "major", "fifths": 3}], "time_signatures": [{"time": 0, "numerator": 4, "denominator": 4}, {"time": 48, "numerator": 1, "denominator": 4}, {"time": 120, "numerator": 1, "denominator": 4}, {"time": 240, "numerator": 3, "denominator": 4}, {"time": 792, "numerator": 3, "denominator": 4}, {"time": 1008, "numerator": 4, "denominator": 4}, {"time": 1104, "numerator": 2, "denominator": 4}, {"time": 1344, "numerator": 1, "denominator": 4}], "beats": [{"time": 0, "is_downbeat": true}, {"time": 24, "is_downbeat": true}, {"time": 48, "is_downbeat": true}, {"time": 72, "is_downbeat": true}, {"time": 96, "is_downbeat": true}, {"time": 120, "is_downbeat": true}, {"time": 144, "is_downbeat": true}, {"time": 168, "is_downbeat": false}, {"time": 192, "is_downbeat": true}, {"time": 216, "is_downbeat": false}, {"time": 240, "is_downbeat": true}, {"time": 264, "is_downbeat": false}, {"time": 288, "is_downbeat": false}, {"time": 312, "is_downbeat": true}, {"time": 336, "is_downbeat": false}, {"time": 360, "is_downbeat": true}, {"time": 384, "is_downbeat": false}, {"time": 408, "is_downbeat": true}, {"time": 432, "is_downbeat": false}, {"time": 456, "is_downbeat": true}, {"time": 480, "is_downbeat": false}, {"time": 504, "is_downbeat": true}, {"time": 528, "is_downbeat": false}, {"time": 552, "is_downbeat": true}, {"time": 576, "is_downbeat": false}, {"time": 600, "is_downbeat": true}, {"time": 624, "is_downbeat": false}, {"time": 648, "is_downbeat": true}, {"time": 672, "is_downbeat": false}, {"time": 696, "is_downbeat": true}, {"time": 720, "is_downbeat": false}, {"time": 744, "is_downbeat": true}, {"time": 768, "is_downbeat": false}, {"time": 792, "is_downbeat": true}, {"time": 816, "is_downbeat": false}, {"time": 840, "is_downbeat": false}, {"time": 864, "is_downbeat": true}, {"time": 888, "is_downbeat": false}, {"time": 912, "is_downbeat": true}, {"time": 936, "is_downbeat": false}, {"time": 960, "is_downbeat": true}, {"time": 984, "is_downbeat": false}, {"time": 1008, "is_downbeat": true}, {"time": 1032, "is_downbeat": false}, {"time": 1056, "is_downbeat": true}, {"time": 1080, "is_downbeat": false}, {"time": 1104, "is_downbeat": true}, {"time": 1128, "is_downbeat": true}, {"time": 1152, "is_downbeat": true}, {"time": 1176, "is_downbeat": true}, {"time": 1200, "is_downbeat": true}, {"time": 1224, "is_downbeat": true}, {"time": 1248, "is_downbeat": true}, {"time": 1272, "is_downbeat": true}, {"time": 1296, "is_downbeat": true}, {"time": 1320, "is_downbeat": true}, {"time": 1344, "is_downbeat": true}], "tracks": [{"program": 0, "is_drum": false, "notes": [{"time": 0, "pitch": 78, "duration": 12, "velocity": 64}, {"time": 12, "pitch": 78, "duration": 24, "velocity": 64}, {"time": 36, "pitch": 81, "duration": 12, "velocity": 64}, {"time": 48, "pitch": 76, "duration": 24, "velocity": 64}, {"time": 72, "pitch": 78, "duration": 72, "velocity": 64}, {"time": 144, "pitch": 78, "duration": 12, "velocity": 64}, {"time": 156, "pitch": 81, "duration": 12, "velocity": 64}, {"time": 168, "pitch": 78, "duration": 12, "velocity": 64}, {"time": 180, "pitch": 73, "duration": 12, "velocity": 64}, {"time": 192, "pitch": 83, "duration": 18, "velocity": 64}, {"time": 210, "pitch": 73, "duration": 6, "velocity": 64}, {"time": 216, "pitch": 83, "duration": 48, "velocity": 64}, {"time": 264, "pitch": 83, "duration": 18, "velocity": 64}, {"time": 282, "pitch": 73, "duration": 6, "velocity": 64}, {"time": 288, "pitch": 83, "duration": 12, "velocity": 64}, {"time": 300, "pitch": 73, "duration": 12, "velocity": 64}, {"time": 312, "pitch": 83, "duration": 18, "velocity": 64}, {"time": 330, "pitch": 73, "duration": 6, "velocity": 64}, {"time": 336, "pitch": 83, "duration": 12, "velocity": 64}, {"time": 348, "pitch": 73, "duration": 12, "velocity": 64}, {"time": 360, "pitch": 78, "duration": 24, "velocity": 64}, {"time": 384, "pitch": 81, "duration": 18, "velocity": 64}, {"time": 402, "pitch": 83, "duration": 6, "velocity": 64}, {"time": 408, "pitch": 76, "duration": 18, "velocity": 64}, {"time": 426, "pitch": 78, "duration": 6, "velocity": 64}, {"time": 432, "pitch": 73, "duration": 12, "velocity": 64}, {"time": 444, "pitch": 76, "duration": 12, "velocity": 64}, {"time": 456, "pitch": 78, "duration": 18, "velocity": 64}, {"time": 474, "pitch": 81, "duration": 6, "velocity": 64}, {"time": 480, "pitch": 78, "duration": 24, "velocity": 64}, {"time": 504, "pitch": 76, "duration": 12, "velocity": 64}, {"time": 516, "pitch": 78, "duration": 12, "velocity": 64}, {"time": 528, "pitch": 81, "duration": 12, "velocity": 64}, {"time": 540, "pitch": 78, "duration": 12, "velocity": 64}, {"time": 552, "pitch": 78, "duration": 12, "velocity": 64}, {"time": 564, "pitch": 76, "duration": 36, "velocity": 64}, {"time": 600, "pitch": 78, "duration": 12, "velocity": 64}, {"time": 612, "pitch": 78, "duration": 12, "velocity": 64}, {"time": 624, "pitch": 78, "duration": 24, "velocity": 64}, {"time": 648, "pitch": 83, "duration": 36, "velocity": 64}, {"time": 684, "pitch": 73, "duration": 12, "velocity": 64}, {"time": 696, "pitch": 81, "duration": 24, "velocity": 64}, {"time": 720, "pitch": 83, "duration": 12, "velocity": 64}, {"time": 732, "pitch": 81, "duration": 12, "velocity": 64}, {"time": 744, "pitch": 78, "duration": 24, "velocity": 64}, {"time": 768, "pitch": 76, "duration": 48, "velocity": 64}, {"time": 816, "pitch": 76, "duration": 12, "velocity": 64}, {"time": 828, "pitch": 81, "duration": 12, "velocity": 64}, {"time": 840, "pitch": 78, "duration": 24, "velocity": 64}, {"time": 864, "pitch": 76, "duration": 48, "velocity": 64}, {"time": 912, "pitch": 78, "duration": 12, "velocity": 64}, {"time": 924, "pitch": 81, "duration": 12, "velocity": 64}, {"time": 936, "pitch": 78, "duration": 12, "velocity": 64}, {"time": 948, "pitch": 73, "duration": 12, "velocity": 64}, {"time": 960, "pitch": 83, "duration": 72, "velocity": 64}, {"time": 1032, "pitch": 81, "duration": 12, "velocity": 64}, {"time": 1044, "pitch": 83, "duration": 12, "velocity": 64}, {"time": 1056, "pitch": 78, "duration": 24, "velocity": 64}, {"time": 1092, "pitch": 78, "duration": 12, "velocity": 64}, {"time": 1104, "pitch": 83, "duration": 18, "velocity": 64}, {"time": 1122, "pitch": 73, "duration": 6, "velocity": 64}, {"time": 1128, "pitch": 83, "duration": 12, "velocity": 64}, {"time": 1140, "pitch": 73, "duration": 12, "velocity": 64}, {"time": 1152, "pitch": 83, "duration": 12, "velocity": 64}, {"time": 1164, "pitch": 73, "duration": 12, "velocity": 64}, {"time": 1176, "pitch": 83, "duration": 12, "velocity": 64}, {"time": 1188, "pitch": 73, "duration": 12, "velocity": 64}, {"time": 1200, "pitch": 78, "duration": 24, "velocity": 64}, {"time": 1224, "pitch": 81, "duration": 12, "velocity": 64}, {"time": 1236, "pitch": 78, "duration": 12, "velocity": 64}, {"time": 1248, "pitch": 76, "duration": 18, "velocity": 64}, {"time": 1266, "pitch": 78, "duration": 6, "velocity": 64}, {"time": 1272, "pitch": 73, "duration": 12, "velocity": 64}, {"time": 1284, "pitch": 76, "duration": 12, "velocity": 64}, {"time": 1296, "pitch": 78, "duration": 72, "velocity": 64}]}]}