{"metadata": {"schema_version": "0.1", "title": "Xiashui bannao haozi", "source_format": "abc"}, "resolution": 24, "tempos": [{"time": 0, "qpm": 120.0}], "key_signatures": [{"time": 0, "root": 9, "mode": "major", "fifths": 3}], "time_signatures": [{"time": 0, "numerator": 4, "denominator": 4}, {"time": 48, "numerator": 10, "denominator": 4}, {"time": 288, "numerator": 2, "denominator": 4}], "beats": [{"time": 0, "is_downbeat": true}, {"time": 24, "is_downbeat": false}, {"time": 48, "is_downbeat": true}, {"time": 72, "is_downbeat": false}, {"time": 96, "is_downbeat": true}, {"time": 120, "is_downbeat": false}, {"time": 144, "is_downbeat": true}, {"time": 168, "is_downbeat": false}, {"time": 192, "is_downbeat": true}, {"time": 216, "is_downbeat": false}, {"time": 240, "is_downbeat": true}, {"time": 264, "is_downbeat": false}, {"time": 288, "is_downbeat": true}, {"time": 312, "is_downbeat": false}, {"time": 336, "is_downbeat": true}, {"time": 360, "is_downbeat": false}, {"time": 384, "is_downbeat": true}, {"time": 408, "is_downbeat": false}, {"time": 432, "is_downbeat": true}, {"time": 456, "is_downbeat": false}, {"time": 480, "is_downbeat": true}, {"time": 504, "is_downbeat": false}, {"time": 528, "is_downbeat": true}, {"time": 552, "is_downbeat": false}], "tracks": [{"program": 0, "is_drum": false, "notes": [{"time": 0, "pitch": 71, "duration": 48, "velocity": 64}, {"time": 48, "pitch": 73, "duration": 6, "velocity": 64}, {"time": 54, "pitch": 71, "duration": 6, "velocity": 64}, {"time": 60, "pitch": 69, "duration": 6, "velocity": 64}, {"time": 66, "pitch": 69, "duration": 6, "velocity": 64}, {"time": 72, "pitch": 69, "duration": 12, "velocity": 64}, {"time": 84, "pitch": 66, "duration": 12, "velocity": 64}, {"time": 96, "pitch": 71, "duration": 6, "velocity": 64}, {"time": 102, "pitch": 73, "duration": 6, "velocity": 64}, {"time": 108, "pitch": 69, "duration": 6, "velocity": 64}, {"time": 114, "pitch": 69, "duration": 6, "velocity": 64}, {"time": 120, "pitch": 69, "duration": 12, "velocity": 64}, {"time": 132, "pitch": 66, "duration": 12, "velocity": 64}, {"time": 144, "pitch": 64, "duration": 6, "velocity": 64}, {"time": 150, "pitch": 64, "duration": 6, "velocity": 64}, {"time": 156, "pitch": 66, "duration": 6, "velocity": 64}, {"time": 162, "pitch": 64, "duration": 6, "velocity": 64}, {"time": 168, "pitch": 69, "duration": 12, "velocity": 64}, {"time": 180, "pitch": 66, "duration": 12, "velocity": 64}, {"time": 192, "pitch": 73, "duration": 18, "velocity": 64}, {"time": 210, "pitch": 69, "duration": 6, "velocity": 64}, {"time": 216, "pitch": 71, "duration": 24, "velocity": 64}, {"time": 240, "pitch": 78, "duration": 9, "velocity": 64}, {"time": 249, "pitch": 76, "duration": 3, "velocity": 64}, {"time": 252, "pitch": 73, "duration": 6, "velocity": 64}, {"time": 258, "pitch": 76, "duration": 6, "velocity": 64}, {"time": 264, "pitch": 78, "duration": 24, "velocity": 64}, {"time": 288, "pitch": 78, "duration": 9, "velocity": 64}, {"time": 297, "pitch": 76, "duration": 3, "velocity": 64}, {"time": 300, "pitch": 73, "duration": 9, "velocity": 64}, {"time": 309, "pitch": 71, "duration": 3, "velocity": 64}, {"time": 312, "pitch": 71, "duration": 24, "velocity": 64}, {"time": 336, "pitch": 78, "duration": 6, "velocity": 64}, {"time": 342, "pitch": 76, "duration": 6, "velocity": 64}, {"time": 348, "pitch": 78, "duration": 6, "velocity": 64}, {"time": 354, "pitch": 76, "duration": 6, "velocity": 64}, {"time": 360, "pitch": 78, "duration": 6, "velocity": 64}, {"time": 366, "pitch": 76, "duration": 18, "velocity": 64}, {"time": 384, "pitch": 73, "duration": 6, "velocity": 64}, {"time": 390, "pitch": 71, "duration": 18, "velocity": 64}, {"time": 408, "pitch": 71, "duration": 12, "velocity": 64}, {"time": 420, "pitch": 78, "duration": 6, "velocity": 64}, {"time": 426, "pitch": 76, "duration": 6, "velocity": 64}, {"time": 432, "pitch": 73, "duration": 6, "velocity": 64}, {"time": 438, "pitch": 71, "duration": 6, "velocity": 64}, {"time": 444, "pitch": 69, "duration": 6, "velocity": 64}, {"time": 450, "pitch": 69, "duration": 6, "velocity": 64}, {"time": 456, "pitch": 69, "duration": 12, "velocity": 64}, {"time": 468, "pitch": 66, "duration": 12, "velocity": 64}, {"time": 480, "pitch": 71, "duration": 6, "velocity": 64}, {"time": 486, "pitch": 73, "duration": 6, "velocity": 64}, {"time": 492, "pitch": 69, "duration": 6, "velocity": 64}, {"time": 498, "pitch": 69, "duration": 6, "velocity": 64}, {"time": 504, "pitch": 69, "duration": 12, "velocity": 64}, {"time": 516, "pitch": 66, "duration": 12, "velocity": 64}, {"time": 528, "pitch": 64, "duration": 6, "velocity": 64}, {"time": 534, "pitch": 64, "duration": 6, "velocity": 64}, {"time": 540, "pitch": 66, "duration": 6, "velocity": 64}, {"time": 546, "pitch": 66, "duration": 6, "velocity": 64}, {"time": 552, "pitch": 69, "duration": 12, "velocity": 64}, {"time": 564, "pitch": 66, "duration": 12, "velocity": 64}]}]}