{"metadata": {"schema_version": "0.1", "title": "Xiashui bannao haozi", "source_format": "abc"}, "resolution": 24, "tempos": [{"time": 0, "qpm": 120.0}], "key_signatures": [{"time": 0, "root": 9, "mode": "major", "fifths": 3}], "time_signatures": [{"time": 0, "numerator": 2, "denominator": 4}], "beats": [{"time": 0, "is_downbeat": true}, {"time": 24, "is_downbeat": false}, {"time": 48, "is_downbeat": true}, {"time": 72, "is_downbeat": false}, {"time": 96, "is_downbeat": true}, {"time": 120, "is_downbeat": false}, {"time": 144, "is_downbeat": true}, {"time": 168, "is_downbeat": false}, {"time": 192, "is_downbeat": true}, {"time": 216, "is_downbeat": false}, {"time": 240, "is_downbeat": true}, {"time": 264, "is_downbeat": false}, {"time": 288, "is_downbeat": true}, {"time": 312, "is_downbeat": false}, {"time": 336, "is_downbeat": true}, {"time": 360, "is_downbeat": false}, {"time": 384, "is_downbeat": true}, {"time": 408, "is_downbeat": false}, {"time": 432, "is_downbeat": true}, {"time": 456, "is_downbeat": false}, {"time": 480, "is_downbeat": true}, {"time": 504, "is_downbeat": false}, {"time": 528, "is_downbeat": true}, {"time": 552, "is_downbeat": false}, {"time": 576, "is_downbeat": true}, {"time": 600, "is_downbeat": false}, {"time": 624, "is_downbeat": true}, {"time": 648, "is_downbeat": false}, {"time": 672, "is_downbeat": true}, {"time": 696, "is_downbeat": false}], "tracks": [{"program": 0, "is_drum": false, "notes": [{"time": 0, "pitch": 81, "duration": 18, "velocity": 64}, {"time": 18, "pitch": 78, "duration": 6, "velocity": 64}, {"time": 24, "pitch": 73, "duration": 12, "velocity": 64}, {"time": 36, "pitch": 78, "duration": 6, "velocity": 64}, {"time": 42, "pitch": 76, "duration": 6, "velocity": 64}, {"time": 48, "pitch": 73, "duration": 6, "velocity": 64}, {"time": 54, "pitch": 76, "duration": 6, "velocity": 64}, {"time": 60, "pitch": 73, "duration": 6, "velocity": 64}, {"time": 66, "pitch": 76, "duration": 6, "velocity": 64}, {"time": 72, "pitch": 78, "duration": 3, "velocity": 64}, {"time": 75, "pitch": 76, "duration": 3, "velocity": 64}, {"time": 78, "pitch": 73, "duration": 6, "velocity": 64}, {"time": 96, "pitch": 66, "duration": 12, "velocity": 64}, {"time": 108, "pitch": 76, "duration": 6, "velocity": 64}, {"time": 114, "pitch": 73, "duration": 3, "velocity": 64}, {"time": 117, "pitch": 76, "duration": 3, "velocity": 64}, {"time": 120, "pitch": 78, "duration": 12, "velocity": 64}, {"time": 132, "pitch": 73, "duration": 4, "velocity": 64}, {"time": 136, "pitch": 76, "duration": 4, "velocity": 64}, {"time": 140, "pitch": 73, "duration": 4, "velocity": 64}, {"time": 144, "pitch": 71, "duration": 6, "velocity": 64}, {"time": 150, "pitch": 73, "duration": 6, "velocity": 64}, {"time": 156, "pitch": 69, "duration": 6, "velocity": 64}, {"time": 162, "pitch": 66, "duration": 6, "velocity": 64}, {"time": 168, "pitch": 76, "duration": 12, "velocity": 64}, {"time": 192, "pitch": 73, "duration": 18, "velocity": 64}, {"time": 210, "pitch": 81, "duration": 6, "velocity": 64}, {"time": 216, "pitch": 73, "duration": 6, "velocity": 64}, {"time": 222, "pitch": 73, "duration": 18, "velocity": 64}, {"time": 240, "pitch": 73, "duration": 6, "velocity": 64}, {"time": 246, "pitch": 76, "duration": 6, "velocity": 64}, {"time": 252, "pitch": 78, "duration": 6, "velocity": 64}, {"time": 258, "pitch": 76, "duration": 6, "velocity": 64}, {"time": 264, "pitch": 73, "duration": 6, "velocity": 64}, {"time": 270, "pitch": 76, "duration": 6, "velocity": 64}, {"time": 288, "pitch": 66, "duration": 6, "velocity": 64}, {"time": 294, "pitch": 81, "duration": 12, "velocity": 64}, {"time": 306, "pitch": 78, "duration": 6, "velocity": 64}, {"time": 312, "pitch": 73, "duration": 6, "velocity": 64}, {"time": 318, "pitch": 73, "duration": 12, "velocity": 64}, {"time": 330, "pitch": 76, "duration": 6, "velocity": 64}, {"time": 336, "pitch": 73, "duration": 6, "velocity": 64}, {"time": 342, "pitch": 76, "duration": 6, "velocity": 64}, {"time": 348, "pitch": 73, "duration": 6, "velocity": 64}, {"time": 354, "pitch": 71, "duration": 6, "velocity": 64}, {"time": 360, "pitch": 78, "duration": 6, "velocity": 64}, {"time": 366, "pitch": 73, "duration": 18, "velocity": 64}, {"time": 384, "pitch": 66, "duration": 24, "velocity": 64}, {"time": 408, "pitch": 81, "duration": 6, "velocity": 64}, {"time": 414, "pitch": 78, "duration": 6, "velocity": 64}, {"time": 420, "pitch": 76, "duration": 3, "velocity": 64}, {"time": 423, "pitch": 78, "duration": 9, "velocity": 64}, {"time": 432, "pitch": 81, "duration": 6, "velocity": 64}, {"time": 438, "pitch": 78, "duration": 18, "velocity": 64}, {"time": 456, "pitch": 81, "duration": 6, "velocity": 64}, {"time": 462, "pitch": 78, "duration": 6, "velocity": 64}, {"time": 468, "pitch": 76, "duration": 3, "velocity": 64}, {"time": 471, "pitch": 78, "duration": 3, "velocity": 64}, {"time": 474, "pitch": 76, "duration": 6, "velocity": 64}, {"time": 480, "pitch": 73, "duration": 6, "velocity": 64}, {"time": 486, "pitch": 76, "duration": 6, "velocity": 64}, {"time": 492, "pitch": 71, "duration": 12, "velocity": 64}, {"time": 504, "pitch": 73, "duration": 18, "velocity": 64}, {"time": 522, "pitch": 71, "duration": 6, "velocity": 64}, {"time": 528, "pitch": 69, "duration": 6, "velocity": 64}, {"time": 534, "pitch": 66, "duration": 6, "velocity": 64}, {"time": 552, "pitch": 73, "duration": 18, "velocity": 64}, {"time": 570, "pitch": 71, "duration": 6, "velocity": 64}, {"time": 576, "pitch": 69, "duration": 6, "velocity": 64}, {"time": 582, "pitch": 66, "duration": 6, "velocity": 64}, {"time": 600, "pitch": 73, "duration": 18, "velocity": 64}, {"time": 618, "pitch": 71, "duration": 6, "velocity": 64}, {"time": 624, "pitch": 69, "duration": 6, "velocity": 64}, {"time": 630, "pitch": 66, "duration": 18, "velocity": 64}, {"time": 648, "pitch": 71, "duration": 6, "velocity": 64}, {"time": 654, "pitch": 69, "duration": 6, "velocity": 64}, {"time": 660, "pitch": 66, "duration": 12, "velocity": 64}, {"time": 672, "pitch": 66, "duration": 24, "velocity": 64}]}]}