{"metadata": {"schema_version": "0.1", "title": "Xiashui bannaon haozi", "source_format": "abc"}, "resolution": 24, "tempos": [{"time": 0, "qpm": 120.0}], "key_signatures": [{"time": 0, "root": 9, "mode": "major", "fifths": 3}], "time_signatures": [{"time": 0, "numerator": 4, "denominator": 4}], "beats": [{"time": 0, "is_downbeat": true}, {"time": 24, "is_downbeat": false}, {"time": 48, "is_downbeat": false}, {"time": 72, "is_downbeat": false}, {"time": 84, "is_downbeat": true}, {"time": 108, "is_downbeat": false}, {"time": 132, "is_downbeat": false}, {"time": 156, "is_downbeat": false}, {"time": 180, "is_downbeat": true}, {"time": 204, "is_downbeat": false}, {"time": 228, "is_downbeat": false}, {"time": 252, "is_downbeat": false}, {"time": 264, "is_downbeat": true}, {"time": 288, "is_downbeat": false}, {"time": 312, "is_downbeat": false}, {"time": 336, "is_downbeat": false}, {"time": 360, "is_downbeat": true}, {"time": 384, "is_downbeat": false}, {"time": 408, "is_downbeat": false}, {"time": 432, "is_downbeat": false}, {"time": 456, "is_downbeat": true}, {"time": 480, "is_downbeat": false}, {"time": 504, "is_downbeat": false}, {"time": 528, "is_downbeat": false}, {"time": 552, "is_downbeat": true}, {"time": 576, "is_downbeat": false}, {"time": 600, "is_downbeat": false}, {"time": 624, "is_downbeat": false}, {"time": 636, "is_downbeat": true}, {"time": 660, "is_downbeat": false}, {"time": 684, "is_downbeat": true}, {"time": 708, "is_downbeat": false}, {"time": 732, "is_downbeat": false}, {"time": 756, "is_downbeat": false}], "tracks": [{"program": 0, "is_drum": false, "notes": [{"time": 0, "pitch": 73, "duration": 6, "velocity": 64}, {"time": 6, "pitch": 71, "duration": 30, "velocity": 64}, {"time": 36, "pitch": 73, "duration": 9, "velocity": 64}, {"time": 45, "pitch": 71, "duration": 3, "velocity": 64}, {"time": 48, "pitch": 69, "duration": 36, "velocity": 64}, {"time": 84, "pitch": 69, "duration": 48, "velocity": 64}, {"time": 132, "pitch": 66, "duration": 48, "velocity": 64}, {"time": 180, "pitch": 73, "duration": 6, "velocity": 64}, {"time": 186, "pitch": 71, "duration": 30, "velocity": 64}, {"time": 216, "pitch": 73, "duration": 9, "velocity": 64}, {"time": 225, "pitch": 71, "duration": 3, "velocity": 64}, {"time": 228, "pitch": 69, "duration": 36, "velocity": 64}, {"time": 264, "pitch": 69, "duration": 48, "velocity": 64}, {"time": 312, "pitch": 66, "duration": 48, "velocity": 64}, {"time": 360, "pitch": 66, "duration": 12, "velocity": 64}, {"time": 372, "pitch": 71, "duration": 9, "velocity": 64}, {"time": 381, "pitch": 73, "duration": 3, "velocity": 64}, {"time": 384, "pitch": 71, "duration": 9, "velocity": 64}, {"time": 393, "pitch": 69, "duration": 3, "velocity": 64}, {"time": 396, "pitch": 66, "duration": 2, "velocity": 64}, {"time": 398, "pitch": 69, "duration": 2, "velocity": 64}, {"time": 400, "pitch": 66, "duration": 2, "velocity": 64}, {"time": 402, "pitch": 64, "duration": 12, "velocity": 64}, {"time": 414, "pitch": 66, "duration": 12, "velocity": 64}, {"time": 432, "pitch": 66, "duration": 6, "velocity": 64}, {"time": 438, "pitch": 71, "duration": 24, "velocity": 64}, {"time": 462, "pitch": 66, "duration": 24, "velocity": 64}, {"time": 486, "pitch": 73, "duration": 9, "velocity": 64}, {"time": 495, "pitch": 71, "duration": 3, "velocity": 64}, {"time": 498, "pitch": 69, "duration": 3, "velocity": 64}, {"time": 501, "pitch": 71, "duration": 3, "velocity": 64}, {"time": 504, "pitch": 73, "duration": 12, "velocity": 64}, {"time": 516, "pitch": 66, "duration": 24, "velocity": 64}, {"time": 540, "pitch": 69, "duration": 9, "velocity": 64}, {"time": 549, "pitch": 66, "duration": 3, "velocity": 64}, {"time": 552, "pitch": 64, "duration": 3, "velocity": 64}, {"time": 555, "pitch": 66, "duration": 3, "velocity": 64}, {"time": 558, "pitch": 71, "duration": 6, "velocity": 64}, {"time": 564, "pitch": 66, "duration": 24, "velocity": 64}, {"time": 612, "pitch": 69, "duration": 3, "velocity": 64}, {"time": 615, "pitch": 66, "duration": 3, "velocity": 64}, {"time": 618, "pitch": 69, "duration": 6, "velocity": 64}, {"time": 636, "pitch": 69, "duration": 48, "velocity": 64}, {"time": 684, "pitch": 66, "duration": 48, "velocity": 64}]}]}