{"metadata": {"schema_version": "0.1", "title": "Xiashui bannao haozi", "source_format": "abc"}, "resolution": 24, "tempos": [{"time": 0, "qpm": 120.0}], "key_signatures": [{"time": 0, "root": 9, "mode": "major", "fifths": 3}], "time_signatures": [{"time": 0, "numerator": 4, "denominator": 4}], "beats": [{"time": 0, "is_downbeat": true}, {"time": 24, "is_downbeat": false}, {"time": 48, "is_downbeat": false}, {"time": 72, "is_downbeat": false}, {"time": 96, "is_downbeat": true}, {"time": 120, "is_downbeat": false}, {"time": 144, "is_downbeat": false}, {"time": 168, "is_downbeat": false}, {"time": 192, "is_downbeat": true}, {"time": 216, "is_downbeat": false}, {"time": 240, "is_downbeat": false}, {"time": 264, "is_downbeat": false}, {"time": 288, "is_downbeat": true}, {"time": 312, "is_downbeat": false}, {"time": 336, "is_downbeat": false}, {"time": 360, "is_downbeat": false}, {"time": 384, "is_downbeat": true}, {"time": 408, "is_downbeat": false}, {"time": 432, "is_downbeat": false}, {"time": 456, "is_downbeat": true}, {"time": 480, "is_downbeat": false}, {"time": 504, "is_downbeat": true}, {"time": 528, "is_downbeat": false}, {"time": 552, "is_downbeat": false}, {"time": 576, "is_downbeat": false}, {"time": 600, "is_downbeat": true}, {"time": 624, "is_downbeat": false}, {"time": 648, "is_downbeat": false}, {"time": 672, "is_downbeat": true}, {"time": 696, "is_downbeat": false}, {"time": 720, "is_downbeat": false}, {"time": 744, "is_downbeat": false}, {"time": 768, "is_downbeat": true}, {"time": 792, "is_downbeat": false}, {"time": 816, "is_downbeat": false}, {"time": 840, "is_downbeat": false}, {"time": 864, "is_downbeat": true}, {"time": 888, "is_downbeat": false}, {"time": 912, "is_downbeat": false}, {"time": 936, "is_downbeat": false}, {"time": 960, "is_downbeat": true}, {"time": 984, "is_downbeat": false}, {"time": 996, "is_downbeat": true}, {"time": 1020, "is_downbeat": false}, {"time": 1044, "is_downbeat": false}, {"time": 1068, "is_downbeat": false}, {"time": 1092, "is_downbeat": true}, {"time": 1116, "is_downbeat": false}, {"time": 1140, "is_downbeat": false}, {"time": 1164, "is_downbeat": true}, {"time": 1188, "is_downbeat": false}, {"time": 1212, "is_downbeat": false}, {"time": 1236, "is_downbeat": false}, {"time": 1260, "is_downbeat": true}, {"time": 1284, "is_downbeat": false}, {"time": 1308, "is_downbeat": false}, {"time": 1332, "is_downbeat": false}, {"time": 1356, "is_downbeat": true}, {"time": 1380, "is_downbeat": false}, {"time": 1404, "is_downbeat": false}, {"time": 1428, "is_downbeat": false}, {"time": 1440, "is_downbeat": true}, {"time": 1464, "is_downbeat": false}, {"time": 1488, "is_downbeat": false}, {"time": 1512, "is_downbeat": false}, {"time": 1536, "is_downbeat": true}, {"time": 1560, "is_downbeat": false}, {"time": 1584, "is_downbeat": false}, {"time": 1608, "is_downbeat": false}, {"time": 1632, "is_downbeat": true}, {"time": 1656, "is_downbeat": false}, {"time": 1680, "is_downbeat": false}, {"time": 1704, "is_downbeat": true}, {"time": 1728, "is_downbeat": false}, {"time": 1752, "is_downbeat": false}, {"time": 1776, "is_downbeat": false}, {"time": 1800, "is_downbeat": true}, {"time": 1824, "is_downbeat": false}, {"time": 1848, "is_downbeat": false}, {"time": 1872, "is_downbeat": false}, {"time": 1896, "is_downbeat": true}, {"time": 1920, "is_downbeat": true}, {"time": 1944, "is_downbeat": false}, {"time": 1968, "is_downbeat": false}, {"time": 1992, "is_downbeat": false}], "tracks": [{"program": 0, "is_drum": false, "notes": [{"time": 0, "pitch": 66, "duration": 48, "velocity": 64}, {"time": 48, "pitch": 66, "duration": 12, "velocity": 64}, {"time": 60, "pitch": 69, "duration": 36, "velocity": 64}, {"time": 96, "pitch": 66, "duration": 48, "velocity": 64}, {"time": 144, "pitch": 69, "duration": 48, "velocity": 64}, {"time": 192, "pitch": 81, "duration": 12, "velocity": 64}, {"time": 204, "pitch": 81, "duration": 12, "velocity": 64}, {"time": 216, "pitch": 78, "duration": 12, "velocity": 64}, {"time": 228, "pitch": 81, "duration": 12, "velocity": 64}, {"time": 240, "pitch": 78, "duration": 6, "velocity": 64}, {"time": 246, "pitch": 76, "duration": 6, "velocity": 64}, {"time": 252, "pitch": 73, "duration": 36, "velocity": 64}, {"time": 288, "pitch": 78, "duration": 12, "velocity": 64}, {"time": 300, "pitch": 73, "duration": 6, "velocity": 64}, {"time": 306, "pitch": 76, "duration": 6, "velocity": 64}, {"time": 312, "pitch": 76, "duration": 6, "velocity": 64}, {"time": 318, "pitch": 73, "duration": 6, "velocity": 64}, {"time": 324, "pitch": 71, "duration": 6, "velocity": 64}, {"time": 330, "pitch": 69, "duration": 6, "velocity": 64}, {"time": 336, "pitch": 66, "duration": 12, "velocity": 64}, {"time": 384, "pitch": 81, "duration": 3, "velocity": 64}, {"time": 387, "pitch": 78, "duration": 3, "velocity": 64}, {"time": 390, "pitch": 76, "duration": 9, "velocity": 64}, {"time": 399, "pitch": 78, "duration": 3, "velocity": 64}, {"time": 402, "pitch": 81, "duration": 6, "velocity": 64}, {"time": 408, "pitch": 78, "duration": 6, "velocity": 64}, {"time": 414, "pitch": 76, "duration": 6, "velocity": 64}, {"time": 420, "pitch": 73, "duration": 6, "velocity": 64}, {"time": 426, "pitch": 76, "duration": 6, "velocity": 64}, {"time": 432, "pitch": 73, "duration": 12, "velocity": 64}, {"time": 444, "pitch": 73, "duration": 6, "velocity": 64}, {"time": 450, "pitch": 76, "duration": 6, "velocity": 64}, {"time": 456, "pitch": 71, "duration": 6, "velocity": 64}, {"time": 462, "pitch": 73, "duration": 3, "velocity": 64}, {"time": 465, "pitch": 78, "duration": 3, "velocity": 64}, {"time": 468, "pitch": 78, "duration": 18, "velocity": 64}, {"time": 486, "pitch": 76, "duration": 6, "velocity": 64}, {"time": 492, "pitch": 73, "duration": 6, "velocity": 64}, {"time": 498, "pitch": 71, "duration": 6, "velocity": 64}, {"time": 504, "pitch": 73, "duration": 36, "velocity": 64}, {"time": 540, "pitch": 76, "duration": 12, "velocity": 64}, {"time": 552, "pitch": 71, "duration": 6, "velocity": 64}, {"time": 558, "pitch": 69, "duration": 6, "velocity": 64}, {"time": 576, "pitch": 66, "duration": 48, "velocity": 64}, {"time": 624, "pitch": 69, "duration": 42, "velocity": 64}, {"time": 666, "pitch": 81, "duration": 6, "velocity": 64}, {"time": 672, "pitch": 76, "duration": 18, "velocity": 64}, {"time": 690, "pitch": 78, "duration": 6, "velocity": 64}, {"time": 696, "pitch": 76, "duration": 18, "velocity": 64}, {"time": 714, "pitch": 78, "duration": 6, "velocity": 64}, {"time": 720, "pitch": 81, "duration": 12, "velocity": 64}, {"time": 732, "pitch": 78, "duration": 6, "velocity": 64}, {"time": 738, "pitch": 76, "duration": 6, "velocity": 64}, {"time": 744, "pitch": 73, "duration": 18, "velocity": 64}, {"time": 762, "pitch": 76, "duration": 6, "velocity": 64}, {"time": 768, "pitch": 71, "duration": 12, "velocity": 64}, {"time": 780, "pitch": 73, "duration": 12, "velocity": 64}, {"time": 792, "pitch": 78, "duration": 12, "velocity": 64}, {"time": 804, "pitch": 76, "duration": 12, "velocity": 64}, {"time": 816, "pitch": 73, "duration": 6, "velocity": 64}, {"time": 822, "pitch": 71, "duration": 3, "velocity": 64}, {"time": 825, "pitch": 69, "duration": 3, "velocity": 64}, {"time": 828, "pitch": 66, "duration": 12, "velocity": 64}, {"time": 870, "pitch": 81, "duration": 3, "velocity": 64}, {"time": 873, "pitch": 78, "duration": 3, "velocity": 64}, {"time": 876, "pitch": 76, "duration": 9, "velocity": 64}, {"time": 885, "pitch": 78, "duration": 3, "velocity": 64}, {"time": 888, "pitch": 81, "duration": 6, "velocity": 64}, {"time": 894, "pitch": 78, "duration": 6, "velocity": 64}, {"time": 900, "pitch": 73, "duration": 12, "velocity": 64}, {"time": 912, "pitch": 81, "duration": 12, "velocity": 64}, {"time": 924, "pitch": 81, "duration": 12, "velocity": 64}, {"time": 936, "pitch": 76, "duration": 12, "velocity": 64}, {"time": 948, "pitch": 78, "duration": 12, "velocity": 64}, {"time": 960, "pitch": 81, "duration": 12, "velocity": 64}, {"time": 972, "pitch": 76, "duration": 6, "velocity": 64}, {"time": 978, "pitch": 73, "duration": 6, "velocity": 64}, {"time": 984, "pitch": 71, "duration": 9, "velocity": 64}, {"time": 993, "pitch": 73, "duration": 3, "velocity": 64}, {"time": 996, "pitch": 76, "duration": 18, "velocity": 64}, {"time": 1014, "pitch": 73, "duration": 6, "velocity": 64}, {"time": 1020, "pitch": 71, "duration": 36, "velocity": 64}, {"time": 1056, "pitch": 69, "duration": 6, "velocity": 64}, {"time": 1068, "pitch": 66, "duration": 48, "velocity": 64}, {"time": 1116, "pitch": 69, "duration": 42, "velocity": 64}, {"time": 1158, "pitch": 76, "duration": 6, "velocity": 64}, {"time": 1164, "pitch": 66, "duration": 6, "velocity": 64}, {"time": 1170, "pitch": 81, "duration": 12, "velocity": 64}, {"time": 1182, "pitch": 78, "duration": 6, "velocity": 64}, {"time": 1188, "pitch": 81, "duration": 12, "velocity": 64}, {"time": 1200, "pitch": 81, "duration": 12, "velocity": 64}, {"time": 1212, "pitch": 78, "duration": 6, "velocity": 64}, {"time": 1218, "pitch": 76, "duration": 6, "velocity": 64}, {"time": 1224, "pitch": 73, "duration": 24, "velocity": 64}, {"time": 1248, "pitch": 76, "duration": 12, "velocity": 64}, {"time": 1260, "pitch": 73, "duration": 6, "velocity": 64}, {"time": 1266, "pitch": 76, "duration": 6, "velocity": 64}, {"time": 1272, "pitch": 76, "duration": 12, "velocity": 64}, {"time": 1284, "pitch": 78, "duration": 12, "velocity": 64}, {"time": 1296, "pitch": 76, "duration": 18, "velocity": 64}, {"time": 1314, "pitch": 73, "duration": 6, "velocity": 64}, {"time": 1320, "pitch": 71, "duration": 3, "velocity": 64}, {"time": 1323, "pitch": 69, "duration": 3, "velocity": 64}, {"time": 1326, "pitch": 66, "duration": 6, "velocity": 64}, {"time": 1350, "pitch": 81, "duration": 3, "velocity": 64}, {"time": 1353, "pitch": 78, "duration": 3, "velocity": 64}, {"time": 1356, "pitch": 76, "duration": 9, "velocity": 64}, {"time": 1365, "pitch": 78, "duration": 3, "velocity": 64}, {"time": 1368, "pitch": 81, "duration": 2, "velocity": 64}, {"time": 1370, "pitch": 78, "duration": 2, "velocity": 64}, {"time": 1372, "pitch": 76, "duration": 2, "velocity": 64}, {"time": 1374, "pitch": 73, "duration": 12, "velocity": 64}, {"time": 1386, "pitch": 76, "duration": 6, "velocity": 64}, {"time": 1392, "pitch": 73, "duration": 4, "velocity": 64}, {"time": 1396, "pitch": 71, "duration": 4, "velocity": 64}, {"time": 1400, "pitch": 73, "duration": 4, "velocity": 64}, {"time": 1404, "pitch": 76, "duration": 4, "velocity": 64}, {"time": 1408, "pitch": 81, "duration": 4, "velocity": 64}, {"time": 1412, "pitch": 78, "duration": 4, "velocity": 64}, {"time": 1416, "pitch": 78, "duration": 9, "velocity": 64}, {"time": 1425, "pitch": 76, "duration": 3, "velocity": 64}, {"time": 1428, "pitch": 73, "duration": 6, "velocity": 64}, {"time": 1434, "pitch": 71, "duration": 6, "velocity": 64}, {"time": 1440, "pitch": 73, "duration": 36, "velocity": 64}, {"time": 1476, "pitch": 76, "duration": 12, "velocity": 64}, {"time": 1488, "pitch": 71, "duration": 6, "velocity": 64}, {"time": 1494, "pitch": 69, "duration": 6, "velocity": 64}, {"time": 1512, "pitch": 66, "duration": 48, "velocity": 64}, {"time": 1560, "pitch": 69, "duration": 48, "velocity": 64}, {"time": 1608, "pitch": 81, "duration": 18, "velocity": 64}, {"time": 1626, "pitch": 76, "duration": 6, "velocity": 64}, {"time": 1632, "pitch": 73, "duration": 18, "velocity": 64}, {"time": 1650, "pitch": 76, "duration": 6, "velocity": 64}, {"time": 1656, "pitch": 81, "duration": 4, "velocity": 64}, {"time": 1660, "pitch": 78, "duration": 4, "velocity": 64}, {"time": 1664, "pitch": 76, "duration": 4, "velocity": 64}, {"time": 1668, "pitch": 73, "duration": 30, "velocity": 64}, {"time": 1698, "pitch": 76, "duration": 6, "velocity": 64}, {"time": 1704, "pitch": 78, "duration": 12, "velocity": 64}, {"time": 1716, "pitch": 76, "duration": 12, "velocity": 64}, {"time": 1728, "pitch": 76, "duration": 6, "velocity": 64}, {"time": 1734, "pitch": 73, "duration": 6, "velocity": 64}, {"time": 1740, "pitch": 71, "duration": 6, "velocity": 64}, {"time": 1746, "pitch": 69, "duration": 6, "velocity": 64}, {"time": 1752, "pitch": 66, "duration": 12, "velocity": 64}, {"time": 1782, "pitch": 81, "duration": 3, "velocity": 64}, {"time": 1785, "pitch": 78, "duration": 3, "velocity": 64}, {"time": 1788, "pitch": 76, "duration": 9, "velocity": 64}, {"time": 1797, "pitch": 78, "duration": 3, "velocity": 64}, {"time": 1800, "pitch": 81, "duration": 2, "velocity": 64}, {"time": 1802, "pitch": 78, "duration": 2, "velocity": 64}, {"time": 1804, "pitch": 76, "duration": 2, "velocity": 64}, {"time": 1806, "pitch": 73, "duration": 18, "velocity": 64}, {"time": 1824, "pitch": 81, "duration": 18, "velocity": 64}, {"time": 1842, "pitch": 78, "duration": 6, "velocity": 64}, {"time": 1848, "pitch": 73, "duration": 6, "velocity": 64}, {"time": 1854, "pitch": 78, "duration": 6, "velocity": 64}, {"time": 1860, "pitch": 81, "duration": 6, "velocity": 64}, {"time": 1866, "pitch": 78, "duration": 6, "velocity": 64}, {"time": 1872, "pitch": 78, "duration": 18, "velocity": 64}, {"time": 1890, "pitch": 76, "duration": 6, "velocity": 64}, {"time": 1896, "pitch": 73, "duration": 6, "velocity": 64}, {"time": 1902, "pitch": 71, "duration": 12, "velocity": 64}, {"time": 1914, "pitch": 73, "duration": 6, "velocity": 64}, {"time": 1920, "pitch": 76, "duration": 12, "velocity": 64}, {"time": 1932, "pitch": 73, "duration": 12, "velocity": 64}, {"time": 1944, "pitch": 71, "duration": 36, "velocity": 64}, {"time": 1980, "pitch": 69, "duration": 6, "velocity": 64}, {"time": 1992, "pitch": 66, "duration": 48, "velocity": 64}, {"time": 2040, "pitch": 69, "duration": 48, "velocity": 64}]}]}