{"metadata": {"schema_version": "0.1", "title": "Bugao buai haorencai", "source_format": "abc"}, "resolution": 24, "tempos": [{"time": 0, "qpm": 120.0}], "key_signatures": [{"time": 0, "root": 7, "mode": "major", "fifths": 1}], "time_signatures": [{"time": 0, "numerator": 2, "denominator": 4}], "beats": [{"time": 0, "is_downbeat": true}, {"time": 24, "is_downbeat": false}, {"time": 48, "is_downbeat": true}, {"time": 72, "is_downbeat": false}, {"time": 96, "is_downbeat": true}, {"time": 120, "is_downbeat": false}, {"time": 144, "is_downbeat": true}, {"time": 168, "is_downbeat": false}, {"time": 192, "is_downbeat": true}, {"time": 216, "is_downbeat": false}, {"time": 240, "is_downbeat": true}, {"time": 264, "is_downbeat": false}, {"time": 288, "is_downbeat": true}, {"time": 312, "is_downbeat": false}, {"time": 336, "is_downbeat": true}, {"time": 360, "is_downbeat": false}], "tracks": [{"program": 0, "is_drum": false, "notes": [{"time": 0, "pitch": 71, "duration": 12, "velocity": 64}, {"time": 12, "pitch": 76, "duration": 3, "velocity": 64}, {"time": 15, "pitch": 71, "duration": 3, "velocity": 64}, {"time": 18, "pitch": 76, "duration": 3, "velocity": 64}, {"time": 21, "pitch": 76, "duration": 3, "velocity": 64}, {"time": 24, "pitch": 71, "duration": 8, "velocity": 64}, {"time": 32, "pitch": 76, "duration": 8, "velocity": 64}, {"time": 40, "pitch": 71, "duration": 8, "velocity": 64}, {"time": 48, "pitch": 79, "duration": 48, "velocity": 64}, {"time": 96, "pitch": 76, "duration": 12, "velocity": 64}, {"time": 108, "pitch": 76, "duration": 12, "velocity": 64}, {"time": 120, "pitch": 76, "duration": 12, "velocity": 64}, {"time": 132, "pitch": 71, "duration": 36, "velocity": 64}, {"time": 168, "pitch": 76, "duration": 8, "velocity": 64}, {"time": 176, "pitch": 71, "duration": 8, "velocity": 64}, {"time": 184, "pitch": 76, "duration": 8, "velocity": 64}, {"time": 192, "pitch": 76, "duration": 12, "velocity": 64}, {"time": 204, "pitch": 79, "duration": 6, "velocity": 64}, {"time": 210, "pitch": 81, "duration": 6, "velocity": 64}, {"time": 216, "pitch": 83, "duration": 6, "velocity": 64}, {"time": 222, "pitch": 80, "duration": 6, "velocity": 64}, {"time": 228, "pitch": 81, "duration": 6, "velocity": 64}, {"time": 234, "pitch": 79, "duration": 6, "velocity": 64}, {"time": 240, "pitch": 76, "duration": 48, "velocity": 64}, {"time": 288, "pitch": 83, "duration": 48, "velocity": 64}, {"time": 336, "pitch": 76, "duration": 12, "velocity": 64}, {"time": 348, "pitch": 79, "duration": 36, "velocity": 64}]}]}