{"metadata": {"schema_version": "0.1", "title": "Xiashui bannao haozi", "source_format": "abc"}, "resolution": 24, "tempos": [{"time": 0, "qpm": 120.0}], "key_signatures": [{"time": 0, "root": 9, "mode": "major", "fifths": 3}], "time_signatures": [{"time": 0, "numerator": 2, "denominator": 4}], "beats": [{"time": 0, "is_downbeat": true}, {"time": 24, "is_downbeat": false}, {"time": 48, "is_downbeat": true}, {"time": 72, "is_downbeat": false}, {"time": 96, "is_downbeat": true}, {"time": 120, "is_downbeat": false}, {"time": 144, "is_downbeat": true}, {"time": 168, "is_downbeat": false}, {"time": 192, "is_downbeat": true}, {"time": 216, "is_downbeat": false}, {"time": 240, "is_downbeat": true}, {"time": 264, "is_downbeat": false}, {"time": 288, "is_downbeat": true}, {"time": 312, "is_downbeat": false}, {"time": 336, "is_downbeat": true}, {"time": 360, "is_downbeat": false}, {"time": 384, "is_downbeat": true}, {"time": 408, "is_downbeat": false}, {"time": 432, "is_downbeat": true}, {"time": 456, "is_downbeat": false}, {"time": 480, "is_downbeat": true}, {"time": 504, "is_downbeat": false}, {"time": 528, "is_downbeat": true}, {"time": 552, "is_downbeat": false}, {"time": 576, "is_downbeat": true}, {"time": 600, "is_downbeat": false}, {"time": 624, "is_downbeat": true}, {"time": 648, "is_downbeat": false}, {"time": 672, "is_downbeat": true}, {"time": 696, "is_downbeat": false}, {"time": 720, "is_downbeat": true}, {"time": 744, "is_downbeat": false}], "tracks": [{"program": 0, "is_drum": false, "notes": [{"time": 0, "pitch": 73, "duration": 12, "velocity": 64}, {"time": 12, "pitch": 73, "duration": 6, "velocity": 64}, {"time": 18, "pitch": 71, "duration": 6, "velocity": 64}, {"time": 24, "pitch": 69, "duration": 6, "velocity": 64}, {"time": 30, "pitch": 66, "duration": 6, "velocity": 64}, {"time": 36, "pitch": 66, "duration": 12, "velocity": 64}, {"time": 48, "pitch": 73, "duration": 18, "velocity": 64}, {"time": 66, "pitch": 69, "duration": 6, "velocity": 64}, {"time": 72, "pitch": 71, "duration": 12, "velocity": 64}, {"time": 84, "pitch": 78, "duration": 4, "velocity": 64}, {"time": 88, "pitch": 76, "duration": 4, "velocity": 64}, {"time": 92, "pitch": 73, "duration": 4, "velocity": 64}, {"time": 96, "pitch": 69, "duration": 6, "velocity": 64}, {"time": 102, "pitch": 66, "duration": 6, "velocity": 64}, {"time": 108, "pitch": 69, "duration": 6, "velocity": 64}, {"time": 114, "pitch": 66, "duration": 6, "velocity": 64}, {"time": 120, "pitch": 73, "duration": 9, "velocity": 64}, {"time": 129, "pitch": 76, "duration": 3, "velocity": 64}, {"time": 132, "pitch": 71, "duration": 3, "velocity": 64}, {"time": 135, "pitch": 69, "duration": 3, "velocity": 64}, {"time": 138, "pitch": 66, "duration": 6, "velocity": 64}, {"time": 144, "pitch": 66, "duration": 24, "velocity": 64}, {"time": 168, "pitch": 69, "duration": 18, "velocity": 64}, {"time": 186, "pitch": 71, "duration": 6, "velocity": 64}, {"time": 192, "pitch": 69, "duration": 12, "velocity": 64}, {"time": 204, "pitch": 69, "duration": 3, "velocity": 64}, {"time": 207, "pitch": 71, "duration": 9, "velocity": 64}, {"time": 216, "pitch": 73, "duration": 12, "velocity": 64}, {"time": 228, "pitch": 73, "duration": 6, "velocity": 64}, {"time": 234, "pitch": 71, "duration": 6, "velocity": 64}, {"time": 240, "pitch": 73, "duration": 18, "velocity": 64}, {"time": 258, "pitch": 69, "duration": 6, "velocity": 64}, {"time": 264, "pitch": 71, "duration": 12, "velocity": 64}, {"time": 276, "pitch": 78, "duration": 4, "velocity": 64}, {"time": 280, "pitch": 76, "duration": 4, "velocity": 64}, {"time": 284, "pitch": 73, "duration": 4, "velocity": 64}, {"time": 288, "pitch": 73, "duration": 18, "velocity": 64}, {"time": 306, "pitch": 76, "duration": 6, "velocity": 64}, {"time": 312, "pitch": 71, "duration": 9, "velocity": 64}, {"time": 321, "pitch": 66, "duration": 3, "velocity": 64}, {"time": 324, "pitch": 69, "duration": 9, "velocity": 64}, {"time": 333, "pitch": 66, "duration": 3, "velocity": 64}, {"time": 336, "pitch": 66, "duration": 24, "velocity": 64}, {"time": 360, "pitch": 69, "duration": 24, "velocity": 64}, {"time": 384, "pitch": 73, "duration": 12, "velocity": 64}, {"time": 396, "pitch": 69, "duration": 6, "velocity": 64}, {"time": 402, "pitch": 71, "duration": 6, "velocity": 64}, {"time": 408, "pitch": 66, "duration": 12, "velocity": 64}, {"time": 420, "pitch": 73, "duration": 6, "velocity": 64}, {"time": 426, "pitch": 73, "duration": 6, "velocity": 64}, {"time": 432, "pitch": 73, "duration": 18, "velocity": 64}, {"time": 450, "pitch": 69, "duration": 6, "velocity": 64}, {"time": 456, "pitch": 71, "duration": 12, "velocity": 64}, {"time": 468, "pitch": 78, "duration": 4, "velocity": 64}, {"time": 472, "pitch": 76, "duration": 4, "velocity": 64}, {"time": 476, "pitch": 73, "duration": 4, "velocity": 64}, {"time": 480, "pitch": 73, "duration": 18, "velocity": 64}, {"time": 498, "pitch": 76, "duration": 6, "velocity": 64}, {"time": 504, "pitch": 73, "duration": 9, "velocity": 64}, {"time": 513, "pitch": 76, "duration": 3, "velocity": 64}, {"time": 516, "pitch": 71, "duration": 3, "velocity": 64}, {"time": 519, "pitch": 69, "duration": 3, "velocity": 64}, {"time": 522, "pitch": 66, "duration": 6, "velocity": 64}, {"time": 528, "pitch": 66, "duration": 24, "velocity": 64}, {"time": 552, "pitch": 69, "duration": 24, "velocity": 64}, {"time": 576, "pitch": 76, "duration": 12, "velocity": 64}, {"time": 588, "pitch": 73, "duration": 6, "velocity": 64}, {"time": 594, "pitch": 73, "duration": 6, "velocity": 64}, {"time": 600, "pitch": 69, "duration": 6, "velocity": 64}, {"time": 606, "pitch": 66, "duration": 6, "velocity": 64}, {"time": 612, "pitch": 69, "duration": 6, "velocity": 64}, {"time": 618, "pitch": 66, "duration": 6, "velocity": 64}, {"time": 624, "pitch": 73, "duration": 18, "velocity": 64}, {"time": 642, "pitch": 69, "duration": 6, "velocity": 64}, {"time": 648, "pitch": 71, "duration": 12, "velocity": 64}, {"time": 660, "pitch": 78, "duration": 4, "velocity": 64}, {"time": 664, "pitch": 76, "duration": 4, "velocity": 64}, {"time": 668, "pitch": 73, "duration": 4, "velocity": 64}, {"time": 672, "pitch": 66, "duration": 18, "velocity": 64}, {"time": 690, "pitch": 66, "duration": 6, "velocity": 64}, {"time": 696, "pitch": 76, "duration": 9, "velocity": 64}, {"time": 705, "pitch": 73, "duration": 3, "velocity": 64}, {"time": 708, "pitch": 71, "duration": 3, "velocity": 64}, {"time": 711, "pitch": 69, "duration": 3, "velocity": 64}, {"time": 714, "pitch": 66, "duration": 6, "velocity": 64}, {"time": 720, "pitch": 66, "duration": 24, "velocity": 64}, {"time": 744, "pitch": 69, "duration": 24, "velocity": 64}]}]}