{"metadata": {"schema_version": "0.1", "title": "Xindian shige haodifang", "source_format": "abc"}, "resolution": 24, "tempos": [{"time": 0, "qpm": 120.0}], "key_signatures": [{"time": 0, "root": 3, "mode": "major", "fifths": -3}], "time_signatures": [{"time": 0, "numerator": 2, "denominator": 4}], "beats": [{"time": 0, "is_downbeat": true}, {"time": 24, "is_downbeat": false}, {"time": 48, "is_downbeat": true}, {"time": 72, "is_downbeat": false}, {"time": 96, "is_downbeat": true}, {"time": 120, "is_downbeat": false}, {"time": 144, "is_downbeat": true}, {"time": 168, "is_downbeat": false}, {"time": 192, "is_downbeat": true}, {"time": 216, "is_downbeat": false}, {"time": 240, "is_downbeat": true}, {"time": 264, "is_downbeat": false}, {"time": 288, "is_downbeat": true}, {"time": 312, "is_downbeat": false}, {"time": 336, "is_downbeat": true}, {"time": 360, "is_downbeat": false}, {"time": 384, "is_downbeat": true}, {"time": 408, "is_downbeat": false}, {"time": 432, "is_downbeat": true}, {"time": 456, "is_downbeat": false}, {"time": 480, "is_downbeat": true}, {"time": 504, "is_downbeat": false}, {"time": 528, "is_downbeat": true}, {"time": 552, "is_downbeat": false}, {"time": 576, "is_downbeat": true}, {"time": 600, "is_downbeat": false}, {"time": 624, "is_downbeat": true}, {"time": 648, "is_downbeat": false}, {"time": 672, "is_downbeat": true}, {"time": 696, "is_downbeat": false}, {"time": 720, "is_downbeat": true}, {"time": 744, "is_downbeat": false}, {"time": 768, "is_downbeat": true}, {"time": 792, "is_downbeat": false}, {"time": 816, "is_downbeat": true}, {"time": 840, "is_downbeat": false}, {"time": 864, "is_downbeat": true}, {"time": 888, "is_downbeat": false}, {"time": 912, "is_downbeat": true}, {"time": 936, "is_downbeat": false}, {"time": 960, "is_downbeat": true}, {"time": 984, "is_downbeat": false}, {"time": 1008, "is_downbeat": true}, {"time": 1032, "is_downbeat": false}, {"time": 1056, "is_downbeat": true}, {"time": 1080, "is_downbeat": false}, {"time": 1104, "is_downbeat": true}, {"time": 1128, "is_downbeat": false}, {"time": 1152, "is_downbeat": true}, {"time": 1176, "is_downbeat": false}, {"time": 1200, "is_downbeat": true}, {"time": 1224, "is_downbeat": false}, {"time": 1248, "is_downbeat": true}, {"time": 1272, "is_downbeat": false}, {"time": 1296, "is_downbeat": true}, {"time": 1320, "is_downbeat": false}, {"time": 1344, "is_downbeat": true}, {"time": 1368, "is_downbeat": false}], "tracks": [{"program": 0, "is_drum": false, "notes": [{"time": 0, "pitch": 75, "duration": 12, "velocity": 64}, {"time": 12, "pitch": 77, "duration": 12, "velocity": 64}, {"time": 24, "pitch": 79, "duration": 6, "velocity": 64}, {"time": 30, "pitch": 82, "duration": 6, "velocity": 64}, {"time": 36, "pitch": 79, "duration": 108, "velocity": 64}, {"time": 144, "pitch": 75, "duration": 36, "velocity": 64}, {"time": 192, "pitch": 79, "duration": 6, "velocity": 64}, {"time": 198, "pitch": 77, "duration": 6, "velocity": 64}, {"time": 204, "pitch": 79, "duration": 12, "velocity": 64}, {"time": 216, "pitch": 75, "duration": 12, "velocity": 64}, {"time": 228, "pitch": 77, "duration": 12, "velocity": 64}, {"time": 240, "pitch": 79, "duration": 96, "velocity": 64}, {"time": 336, "pitch": 75, "duration": 18, "velocity": 64}, {"time": 354, "pitch": 77, "duration": 6, "velocity": 64}, {"time": 360, "pitch": 79, "duration": 24, "velocity": 64}, {"time": 384, "pitch": 75, "duration": 96, "velocity": 64}, {"time": 480, "pitch": 75, "duration": 12, "velocity": 64}, {"time": 492, "pitch": 77, "duration": 12, "velocity": 64}, {"time": 504, "pitch": 82, "duration": 6, "velocity": 64}, {"time": 510, "pitch": 82, "duration": 6, "velocity": 64}, {"time": 516, "pitch": 79, "duration": 108, "velocity": 64}, {"time": 624, "pitch": 75, "duration": 36, "velocity": 64}, {"time": 672, "pitch": 79, "duration": 6, "velocity": 64}, {"time": 678, "pitch": 77, "duration": 6, "velocity": 64}, {"time": 684, "pitch": 79, "duration": 12, "velocity": 64}, {"time": 696, "pitch": 75, "duration": 12, "velocity": 64}, {"time": 708, "pitch": 77, "duration": 12, "velocity": 64}, {"time": 720, "pitch": 79, "duration": 48, "velocity": 64}, {"time": 768, "pitch": 75, "duration": 96, "velocity": 64}, {"time": 864, "pitch": 75, "duration": 12, "velocity": 64}, {"time": 876, "pitch": 77, "duration": 12, "velocity": 64}, {"time": 888, "pitch": 82, "duration": 6, "velocity": 64}, {"time": 894, "pitch": 82, "duration": 6, "velocity": 64}, {"time": 900, "pitch": 79, "duration": 84, "velocity": 64}, {"time": 984, "pitch": 77, "duration": 6, "velocity": 64}, {"time": 990, "pitch": 75, "duration": 18, "velocity": 64}, {"time": 1008, "pitch": 79, "duration": 6, "velocity": 64}, {"time": 1014, "pitch": 77, "duration": 6, "velocity": 64}, {"time": 1020, "pitch": 79, "duration": 12, "velocity": 64}, {"time": 1032, "pitch": 75, "duration": 12, "velocity": 64}, {"time": 1044, "pitch": 77, "duration": 6, "velocity": 64}, {"time": 1050, "pitch": 79, "duration": 6, "velocity": 64}, {"time": 1056, "pitch": 72, "duration": 66, "velocity": 64}, {"time": 1128, "pitch": 77, "duration": 6, "velocity": 64}, {"time": 1134, "pitch": 79, "duration": 3, "velocity": 64}, {"time": 1137, "pitch": 77, "duration": 3, "velocity": 64}, {"time": 1140, "pitch": 75, "duration": 6, "velocity": 64}, {"time": 1146, "pitch": 77, "duration": 6, "velocity": 64}, {"time": 1152, "pitch": 79, "duration": 48, "velocity": 64}, {"time": 1200, "pitch": 79, "duration": 6, "velocity": 64}, {"time": 1206, "pitch": 79, "duration": 6, "velocity": 64}, {"time": 1212, "pitch": 79, "duration": 6, "velocity": 64}, {"time": 1218, "pitch": 79, "duration": 6, "velocity": 64}, {"time": 1224, "pitch": 75, "duration": 24, "velocity": 64}, {"time": 1248, "pitch": 79, "duration": 6, "velocity": 64}, {"time": 1254, "pitch": 77, "duration": 6, "velocity": 64}, {"time": 1260, "pitch": 79, "duration": 12, "velocity": 64}, {"time": 1272, "pitch": 75, "duration": 6, "velocity": 64}, {"time": 1278, "pitch": 77, "duration": 6, "velocity": 64}, {"time": 1284, "pitch": 79, "duration": 12, "velocity": 64}, {"time": 1296, "pitch": 75, "duration": 96, "velocity": 64}]}]}