{"metadata": {"schema_version": "0.1", "title": "Laogongji", "source_format": "abc"}, "resolution": 24, "tempos": [{"time": 0, "qpm": 120.0}], "key_signatures": [{"time": 0, "root": 4, "mode": "major", "fifths": 4}], "time_signatures": [{"time": 0, "numerator": 4, "denominator": 4}], "tracks": [{"program": 0, "is_drum": false, "notes": [{"time": 0, "pitch": 76, "duration": 6, "velocity": 64}, {"time": 6, "pitch": 73, "duration": 18, "velocity": 64}, {"time": 24, "pitch": 76, "duration": 12, "velocity": 64}, {"time": 36, "pitch": 76, "duration": 12, "velocity": 64}, {"time": 48, "pitch": 73, "duration": 24, "velocity": 64}, {"time": 72, "pitch": 76, "duration": 12, "velocity": 64}, {"time": 84, "pitch": 73, "duration": 12, "velocity": 64}, {"time": 96, "pitch": 68, "duration": 24, "velocity": 64}, {"time": 120, "pitch": 76, "duration": 12, "velocity": 64}, {"time": 132, "pitch": 73, "duration": 12, "velocity": 64}, {"time": 144, "pitch": 73, "duration": 12, "velocity": 64}, {"time": 156, "pitch": 80, "duration": 12, "velocity": 64}, {"time": 168, "pitch": 76, "duration": 12, "velocity": 64}, {"time": 180, "pitch": 73, "duration": 12, "velocity": 64}, {"time": 192, "pitch": 73, "duration": 24, "velocity": 64}, {"time": 216, "pitch": 73, "duration": 12, "velocity": 64}, {"time": 228, "pitch": 73, "duration": 12, "velocity": 64}, {"time": 240, "pitch": 76, "duration": 6, "velocity": 64}, {"time": 246, "pitch": 76, "duration": 18, "velocity": 64}, {"time": 264, "pitch": 76, "duration": 12, "velocity": 64}, {"time": 276, "pitch": 73, "duration": 12, "velocity": 64}, {"time": 288, "pitch": 76, "duration": 24, "velocity": 64}, {"time": 312, "pitch": 80, "duration": 12, "velocity": 64}, {"time": 324, "pitch": 73, "duration": 12, "velocity": 64}, {"time": 336, "pitch": 73, "duration": 6, "velocity": 64}, {"time": 342, "pitch": 76, "duration": 18, "velocity": 64}, {"time": 360, "pitch": 73, "duration": 18, "velocity": 64}, {"time": 378, "pitch": 73, "duration": 6, "velocity": 64}, {"time": 384, "pitch": 73, "duration": 24, "velocity": 64}, {"time": 408, "pitch": 76, "duration": 12, "velocity": 64}, {"time": 420, "pitch": 76, "duration": 12, "velocity": 64}, {"time": 432, "pitch": 76, "duration": 12, "velocity": 64}, {"time": 444, "pitch": 73, "duration": 12, "velocity": 64}, {"time": 456, "pitch": 80, "duration": 12, "velocity": 64}, {"time": 468, "pitch": 73, "duration": 12, "velocity": 64}, {"time": 480, "pitch": 76, "duration": 24, "velocity": 64}, {"time": 504, "pitch": 73, "duration": 12, "velocity": 64}, {"time": 516, "pitch": 73, "duration": 12, "velocity": 64}, {"time": 528, "pitch": 73, "duration": 12, "velocity": 64}, {"time": 540, "pitch": 76, "duration": 12, "velocity": 64}, {"time": 552, "pitch": 73, "duration": 6, "velocity": 64}, {"time": 558, "pitch": 76, "duration": 12, "velocity": 64}, {"time": 570, "pitch": 73, "duration": 6, "velocity": 64}, {"time": 576, "pitch": 73, "duration": 24, "velocity": 64}, {"time": 600, "pitch": 76, "duration": 6, "velocity": 64}, {"time": 606, "pitch": 68, "duration": 6, "velocity": 64}, {"time": 612, "pitch": 73, "duration": 6, "velocity": 64}, {"time": 618, "pitch": 73, "duration": 6, "velocity": 64}, {"time": 624, "pitch": 68, "duration": 12, "velocity": 64}, {"time": 636, "pitch": 68, "duration": 12, "velocity": 64}, {"time": 648, "pitch": 73, "duration": 12, "velocity": 64}, {"time": 660, "pitch": 73, "duration": 6, "velocity": 64}, {"time": 666, "pitch": 76, "duration": 6, "velocity": 64}, {"time": 672, "pitch": 73, "duration": 24, "velocity": 64}, {"time": 708, "pitch": 76, "duration": 6, "velocity": 64}, {"time": 714, "pitch": 76, "duration": 6, "velocity": 64}, {"time": 720, "pitch": 73, "duration": 12, "velocity": 64}, {"time": 732, "pitch": 73, "duration": 12, "velocity": 64}, {"time": 744, "pitch": 68, "duration": 12, "velocity": 64}, {"time": 756, "pitch": 72, "duration": 12, "velocity": 64}, {"time": 768, "pitch": 73, "duration": 24, "velocity": 64}, {"time": 792, "pitch": 73, "duration": 24, "velocity": 64}]}]}