{"metadata": {"schema_version": "0.1", "title": "Zhouzongli yongyuan huozai women xinzhong", "source_format": "abc"}, "resolution": 24, "tempos": [{"time": 0, "qpm": 120.0}], "key_signatures": [{"time": 0, "root": 3, "mode": "major", "fifths": -3}], "time_signatures": [{"time": 0, "numerator": 4, "denominator": 4}, {"time": 96, "numerator": 1, "denominator": 4}, {"time": 408, "numerator": 3, "denominator": 2}, {"time": 552, "numerator": 4, "denominator": 4}], "beats": [{"time": 0, "is_downbeat": true}, {"time": 24, "is_downbeat": true}, {"time": 48, "is_downbeat": true}, {"time": 72, "is_downbeat": true}, {"time": 96, "is_downbeat": true}, {"time": 120, "is_downbeat": true}, {"time": 168, "is_downbeat": false}, {"time": 216, "is_downbeat": true}, {"time": 264, "is_downbeat": false}, {"time": 312, "is_downbeat": true}, {"time": 360, "is_downbeat": false}, {"time": 408, "is_downbeat": true}, {"time": 432, "is_downbeat": false}, {"time": 456, "is_downbeat": false}, {"time": 480, "is_downbeat": false}, {"time": 504, "is_downbeat": true}, {"time": 528, "is_downbeat": false}, {"time": 552, "is_downbeat": true}, {"time": 576, "is_downbeat": false}, {"time": 600, "is_downbeat": false}, {"time": 624, "is_downbeat": false}, {"time": 648, "is_downbeat": true}, {"time": 672, "is_downbeat": false}, {"time": 696, "is_downbeat": false}, {"time": 720, "is_downbeat": false}, {"time": 744, "is_downbeat": true}, {"time": 768, "is_downbeat": false}, {"time": 792, "is_downbeat": false}, {"time": 816, "is_downbeat": false}], "tracks": [{"program": 0, "is_drum": false, "notes": [{"time": 0, "pitch": 75, "duration": 24, "velocity": 64}, {"time": 24, "pitch": 77, "duration": 36, "velocity": 64}, {"time": 60, "pitch": 79, "duration": 12, "velocity": 64}, {"time": 72, "pitch": 79, "duration": 12, "velocity": 64}, {"time": 84, "pitch": 79, "duration": 12, "velocity": 64}, {"time": 96, "pitch": 77, "duration": 12, "velocity": 64}, {"time": 108, "pitch": 77, "duration": 12, "velocity": 64}, {"time": 120, "pitch": 75, "duration": 12, "velocity": 64}, {"time": 132, "pitch": 72, "duration": 12, "velocity": 64}, {"time": 144, "pitch": 75, "duration": 12, "velocity": 64}, {"time": 156, "pitch": 77, "duration": 12, "velocity": 64}, {"time": 168, "pitch": 77, "duration": 24, "velocity": 64}, {"time": 216, "pitch": 75, "duration": 24, "velocity": 64}, {"time": 240, "pitch": 77, "duration": 12, "velocity": 64}, {"time": 252, "pitch": 77, "duration": 12, "velocity": 64}, {"time": 264, "pitch": 77, "duration": 12, "velocity": 64}, {"time": 276, "pitch": 79, "duration": 6, "velocity": 64}, {"time": 282, "pitch": 77, "duration": 6, "velocity": 64}, {"time": 288, "pitch": 77, "duration": 12, "velocity": 64}, {"time": 300, "pitch": 77, "duration": 6, "velocity": 64}, {"time": 306, "pitch": 75, "duration": 6, "velocity": 64}, {"time": 312, "pitch": 77, "duration": 6, "velocity": 64}, {"time": 318, "pitch": 75, "duration": 6, "velocity": 64}, {"time": 324, "pitch": 72, "duration": 12, "velocity": 64}, {"time": 336, "pitch": 72, "duration": 12, "velocity": 64}, {"time": 348, "pitch": 75, "duration": 12, "velocity": 64}, {"time": 360, "pitch": 77, "duration": 72, "velocity": 64}, {"time": 432, "pitch": 72, "duration": 12, "velocity": 64}, {"time": 444, "pitch": 82, "duration": 12, "velocity": 64}, {"time": 456, "pitch": 75, "duration": 12, "velocity": 64}, {"time": 468, "pitch": 77, "duration": 6, "velocity": 64}, {"time": 474, "pitch": 75, "duration": 6, "velocity": 64}, {"time": 480, "pitch": 72, "duration": 12, "velocity": 64}, {"time": 492, "pitch": 72, "duration": 12, "velocity": 64}, {"time": 504, "pitch": 72, "duration": 6, "velocity": 64}, {"time": 510, "pitch": 70, "duration": 6, "velocity": 64}, {"time": 516, "pitch": 70, "duration": 24, "velocity": 64}, {"time": 540, "pitch": 72, "duration": 12, "velocity": 64}, {"time": 552, "pitch": 75, "duration": 12, "velocity": 64}, {"time": 564, "pitch": 77, "duration": 6, "velocity": 64}, {"time": 570, "pitch": 75, "duration": 6, "velocity": 64}, {"time": 576, "pitch": 72, "duration": 12, "velocity": 64}, {"time": 588, "pitch": 72, "duration": 12, "velocity": 64}, {"time": 600, "pitch": 70, "duration": 12, "velocity": 64}, {"time": 612, "pitch": 70, "duration": 12, "velocity": 64}, {"time": 624, "pitch": 72, "duration": 12, "velocity": 64}, {"time": 636, "pitch": 75, "duration": 12, "velocity": 64}, {"time": 648, "pitch": 77, "duration": 12, "velocity": 64}, {"time": 660, "pitch": 75, "duration": 12, "velocity": 64}, {"time": 672, "pitch": 72, "duration": 18, "velocity": 64}, {"time": 690, "pitch": 70, "duration": 6, "velocity": 64}, {"time": 696, "pitch": 70, "duration": 24, "velocity": 64}, {"time": 720, "pitch": 70, "duration": 96, "velocity": 64}]}]}