{"metadata": {"schema_version": "0.1", "title": "Dangzongyang ba lantian cajingle", "source_format": "abc"}, "resolution": 24, "tempos": [{"time": 0, "qpm": 120.0}], "key_signatures": [{"time": 0, "root": 3, "mode": "major", "fifths": -3}], "time_signatures": [{"time": 0, "numerator": 2, "denominator": 4}], "beats": [{"time": 0, "is_downbeat": true}, {"time": 12, "is_downbeat": true}, {"time": 36, "is_downbeat": false}, {"time": 60, "is_downbeat": true}, {"time": 84, "is_downbeat": false}, {"time": 108, "is_downbeat": true}, {"time": 132, "is_downbeat": false}, {"time": 156, "is_downbeat": true}, {"time": 180, "is_downbeat": false}, {"time": 204, "is_downbeat": true}, {"time": 228, "is_downbeat": false}, {"time": 252, "is_downbeat": true}, {"time": 276, "is_downbeat": false}, {"time": 300, "is_downbeat": true}, {"time": 324, "is_downbeat": false}, {"time": 348, "is_downbeat": true}, {"time": 372, "is_downbeat": false}, {"time": 396, "is_downbeat": true}, {"time": 420, "is_downbeat": false}, {"time": 444, "is_downbeat": true}, {"time": 468, "is_downbeat": false}, {"time": 492, "is_downbeat": true}, {"time": 516, "is_downbeat": false}, {"time": 540, "is_downbeat": true}, {"time": 564, "is_downbeat": false}, {"time": 588, "is_downbeat": true}, {"time": 612, "is_downbeat": false}, {"time": 636, "is_downbeat": true}, {"time": 660, "is_downbeat": false}, {"time": 684, "is_downbeat": true}, {"time": 708, "is_downbeat": false}, {"time": 732, "is_downbeat": true}, {"time": 756, "is_downbeat": false}, {"time": 780, "is_downbeat": true}, {"time": 804, "is_downbeat": false}, {"time": 828, "is_downbeat": true}, {"time": 852, "is_downbeat": false}, {"time": 876, "is_downbeat": true}, {"time": 900, "is_downbeat": false}], "tracks": [{"program": 0, "is_drum": false, "notes": [{"time": 0, "pitch": 79, "duration": 6, "velocity": 64}, {"time": 6, "pitch": 79, "duration": 6, "velocity": 64}, {"time": 12, "pitch": 79, "duration": 12, "velocity": 64}, {"time": 24, "pitch": 79, "duration": 12, "velocity": 64}, {"time": 36, "pitch": 79, "duration": 12, "velocity": 64}, {"time": 48, "pitch": 77, "duration": 6, "velocity": 64}, {"time": 54, "pitch": 79, "duration": 6, "velocity": 64}, {"time": 60, "pitch": 75, "duration": 6, "velocity": 64}, {"time": 66, "pitch": 77, "duration": 6, "velocity": 64}, {"time": 72, "pitch": 75, "duration": 6, "velocity": 64}, {"time": 78, "pitch": 72, "duration": 6, "velocity": 64}, {"time": 84, "pitch": 72, "duration": 24, "velocity": 64}, {"time": 108, "pitch": 70, "duration": 18, "velocity": 64}, {"time": 126, "pitch": 72, "duration": 6, "velocity": 64}, {"time": 132, "pitch": 75, "duration": 6, "velocity": 64}, {"time": 138, "pitch": 77, "duration": 6, "velocity": 64}, {"time": 144, "pitch": 79, "duration": 12, "velocity": 64}, {"time": 156, "pitch": 77, "duration": 72, "velocity": 64}, {"time": 228, "pitch": 79, "duration": 6, "velocity": 64}, {"time": 234, "pitch": 77, "duration": 6, "velocity": 64}, {"time": 240, "pitch": 79, "duration": 6, "velocity": 64}, {"time": 246, "pitch": 82, "duration": 6, "velocity": 64}, {"time": 252, "pitch": 82, "duration": 36, "velocity": 64}, {"time": 288, "pitch": 72, "duration": 12, "velocity": 64}, {"time": 300, "pitch": 75, "duration": 24, "velocity": 64}, {"time": 324, "pitch": 72, "duration": 24, "velocity": 64}, {"time": 348, "pitch": 79, "duration": 24, "velocity": 64}, {"time": 372, "pitch": 79, "duration": 12, "velocity": 64}, {"time": 384, "pitch": 82, "duration": 12, "velocity": 64}, {"time": 396, "pitch": 82, "duration": 48, "velocity": 64}, {"time": 444, "pitch": 82, "duration": 24, "velocity": 64}, {"time": 480, "pitch": 75, "duration": 6, "velocity": 64}, {"time": 486, "pitch": 75, "duration": 6, "velocity": 64}, {"time": 492, "pitch": 75, "duration": 12, "velocity": 64}, {"time": 504, "pitch": 75, "duration": 12, "velocity": 64}, {"time": 516, "pitch": 72, "duration": 12, "velocity": 64}, {"time": 528, "pitch": 70, "duration": 6, "velocity": 64}, {"time": 534, "pitch": 72, "duration": 6, "velocity": 64}, {"time": 540, "pitch": 79, "duration": 24, "velocity": 64}, {"time": 564, "pitch": 79, "duration": 12, "velocity": 64}, {"time": 576, "pitch": 82, "duration": 12, "velocity": 64}, {"time": 588, "pitch": 79, "duration": 12, "velocity": 64}, {"time": 600, "pitch": 79, "duration": 12, "velocity": 64}, {"time": 612, "pitch": 79, "duration": 24, "velocity": 64}, {"time": 636, "pitch": 77, "duration": 12, "velocity": 64}, {"time": 648, "pitch": 75, "duration": 12, "velocity": 64}, {"time": 660, "pitch": 72, "duration": 12, "velocity": 64}, {"time": 684, "pitch": 72, "duration": 12, "velocity": 64}, {"time": 696, "pitch": 75, "duration": 12, "velocity": 64}, {"time": 708, "pitch": 75, "duration": 6, "velocity": 64}, {"time": 714, "pitch": 77, "duration": 6, "velocity": 64}, {"time": 720, "pitch": 79, "duration": 12, "velocity": 64}, {"time": 732, "pitch": 77, "duration": 12, "velocity": 64}, {"time": 744, "pitch": 75, "duration": 12, "velocity": 64}, {"time": 756, "pitch": 72, "duration": 24, "velocity": 64}, {"time": 780, "pitch": 72, "duration": 12, "velocity": 64}, {"time": 792, "pitch": 70, "duration": 12, "velocity": 64}, {"time": 804, "pitch": 70, "duration": 24, "velocity": 64}, {"time": 828, "pitch": 70, "duration": 48, "velocity": 64}, {"time": 876, "pitch": 67, "duration": 24, "velocity": 64}]}]}