{"metadata": {"schema_version": "0.1", "title": "Sunan caoyuan hao fengguang", "source_format": "abc"}, "resolution": 24, "tempos": [{"time": 0, "qpm": 120.0}], "key_signatures": [{"time": 0, "root": 2, "mode": "major", "fifths": 2}], "time_signatures": [{"time": 0, "numerator": 4, "denominator": 4}], "beats": [{"time": 0, "is_downbeat": true}, {"time": 24, "is_downbeat": false}, {"time": 48, "is_downbeat": false}, {"time": 72, "is_downbeat": false}, {"time": 96, "is_downbeat": true}, {"time": 120, "is_downbeat": true}, {"time": 144, "is_downbeat": false}, {"time": 168, "is_downbeat": false}, {"time": 192, "is_downbeat": false}, {"time": 216, "is_downbeat": true}, {"time": 240, "is_downbeat": false}, {"time": 264, "is_downbeat": false}, {"time": 288, "is_downbeat": false}, {"time": 312, "is_downbeat": true}, {"time": 336, "is_downbeat": false}, {"time": 360, "is_downbeat": false}, {"time": 378, "is_downbeat": true}, {"time": 402, "is_downbeat": false}, {"time": 426, "is_downbeat": false}, {"time": 450, "is_downbeat": false}], "tracks": [{"program": 0, "is_drum": false, "notes": [{"time": 0, "pitch": 64, "duration": 48, "velocity": 64}, {"time": 48, "pitch": 71, "duration": 6, "velocity": 64}, {"time": 54, "pitch": 69, "duration": 6, "velocity": 64}, {"time": 60, "pitch": 71, "duration": 6, "velocity": 64}, {"time": 66, "pitch": 74, "duration": 6, "velocity": 64}, {"time": 72, "pitch": 76, "duration": 48, "velocity": 64}, {"time": 120, "pitch": 76, "duration": 6, "velocity": 64}, {"time": 126, "pitch": 76, "duration": 18, "velocity": 64}, {"time": 144, "pitch": 76, "duration": 24, "velocity": 64}, {"time": 168, "pitch": 71, "duration": 12, "velocity": 64}, {"time": 180, "pitch": 64, "duration": 6, "velocity": 64}, {"time": 186, "pitch": 67, "duration": 6, "velocity": 64}, {"time": 192, "pitch": 64, "duration": 6, "velocity": 64}, {"time": 198, "pitch": 67, "duration": 6, "velocity": 64}, {"time": 204, "pitch": 69, "duration": 36, "velocity": 64}, {"time": 252, "pitch": 64, "duration": 48, "velocity": 64}, {"time": 300, "pitch": 71, "duration": 12, "velocity": 64}, {"time": 312, "pitch": 74, "duration": 6, "velocity": 64}, {"time": 318, "pitch": 71, "duration": 6, "velocity": 64}, {"time": 324, "pitch": 74, "duration": 6, "velocity": 64}, {"time": 330, "pitch": 71, "duration": 6, "velocity": 64}, {"time": 336, "pitch": 74, "duration": 6, "velocity": 64}, {"time": 342, "pitch": 76, "duration": 36, "velocity": 64}, {"time": 378, "pitch": 74, "duration": 12, "velocity": 64}, {"time": 390, "pitch": 64, "duration": 12, "velocity": 64}, {"time": 402, "pitch": 69, "duration": 6, "velocity": 64}, {"time": 408, "pitch": 71, "duration": 6, "velocity": 64}, {"time": 414, "pitch": 69, "duration": 12, "velocity": 64}, {"time": 426, "pitch": 67, "duration": 6, "velocity": 64}, {"time": 432, "pitch": 64, "duration": 36, "velocity": 64}]}]}