{"metadata": {"schema_version": "0.1", "title": "Gongzhandang bi nianglaozi qin", "source_format": "abc"}, "resolution": 24, "tempos": [{"time": 0, "qpm": 120.0}], "key_signatures": [{"time": 0, "root": 10, "mode": "major", "fifths": -2}], "time_signatures": [{"time": 0, "numerator": 3, "denominator": 4}], "beats": [{"time": 0, "is_downbeat": true}, {"time": 24, "is_downbeat": false}, {"time": 48, "is_downbeat": false}, {"time": 72, "is_downbeat": true}, {"time": 96, "is_downbeat": false}, {"time": 120, "is_downbeat": true}, {"time": 144, "is_downbeat": false}, {"time": 168, "is_downbeat": true}, {"time": 192, "is_downbeat": false}, {"time": 216, "is_downbeat": true}, {"time": 240, "is_downbeat": false}, {"time": 264, "is_downbeat": false}, {"time": 288, "is_downbeat": true}, {"time": 312, "is_downbeat": false}, {"time": 336, "is_downbeat": false}, {"time": 360, "is_downbeat": true}, {"time": 384, "is_downbeat": false}, {"time": 408, "is_downbeat": true}, {"time": 432, "is_downbeat": false}, {"time": 456, "is_downbeat": false}, {"time": 480, "is_downbeat": true}, {"time": 504, "is_downbeat": false}, {"time": 528, "is_downbeat": true}, {"time": 552, "is_downbeat": false}, {"time": 576, "is_downbeat": true}, {"time": 600, "is_downbeat": false}, {"time": 624, "is_downbeat": false}], "tracks": [{"program": 0, "is_drum": false, "notes": [{"time": 0, "pitch": 77, "duration": 12, "velocity": 64}, {"time": 12, "pitch": 77, "duration": 6, "velocity": 64}, {"time": 18, "pitch": 74, "duration": 6, "velocity": 64}, {"time": 24, "pitch": 74, "duration": 48, "velocity": 64}, {"time": 72, "pitch": 77, "duration": 18, "velocity": 64}, {"time": 90, "pitch": 79, "duration": 6, "velocity": 64}, {"time": 96, "pitch": 82, "duration": 12, "velocity": 64}, {"time": 108, "pitch": 72, "duration": 6, "velocity": 64}, {"time": 114, "pitch": 74, "duration": 6, "velocity": 64}, {"time": 120, "pitch": 72, "duration": 48, "velocity": 64}, {"time": 168, "pitch": 74, "duration": 12, "velocity": 64}, {"time": 180, "pitch": 74, "duration": 12, "velocity": 64}, {"time": 192, "pitch": 77, "duration": 12, "velocity": 64}, {"time": 204, "pitch": 77, "duration": 6, "velocity": 64}, {"time": 210, "pitch": 79, "duration": 6, "velocity": 64}, {"time": 216, "pitch": 82, "duration": 12, "velocity": 64}, {"time": 228, "pitch": 72, "duration": 6, "velocity": 64}, {"time": 234, "pitch": 82, "duration": 6, "velocity": 64}, {"time": 240, "pitch": 79, "duration": 24, "velocity": 64}, {"time": 288, "pitch": 77, "duration": 12, "velocity": 64}, {"time": 300, "pitch": 77, "duration": 6, "velocity": 64}, {"time": 306, "pitch": 74, "duration": 6, "velocity": 64}, {"time": 312, "pitch": 74, "duration": 48, "velocity": 64}, {"time": 360, "pitch": 77, "duration": 18, "velocity": 64}, {"time": 378, "pitch": 79, "duration": 6, "velocity": 64}, {"time": 384, "pitch": 74, "duration": 12, "velocity": 64}, {"time": 396, "pitch": 74, "duration": 6, "velocity": 64}, {"time": 402, "pitch": 77, "duration": 6, "velocity": 64}, {"time": 408, "pitch": 74, "duration": 12, "velocity": 64}, {"time": 420, "pitch": 72, "duration": 6, "velocity": 64}, {"time": 426, "pitch": 82, "duration": 6, "velocity": 64}, {"time": 432, "pitch": 77, "duration": 6, "velocity": 64}, {"time": 438, "pitch": 79, "duration": 6, "velocity": 64}, {"time": 444, "pitch": 82, "duration": 36, "velocity": 64}, {"time": 480, "pitch": 74, "duration": 12, "velocity": 64}, {"time": 492, "pitch": 72, "duration": 6, "velocity": 64}, {"time": 498, "pitch": 82, "duration": 6, "velocity": 64}, {"time": 504, "pitch": 72, "duration": 6, "velocity": 64}, {"time": 510, "pitch": 82, "duration": 6, "velocity": 64}, {"time": 516, "pitch": 79, "duration": 12, "velocity": 64}, {"time": 528, "pitch": 77, "duration": 48, "velocity": 64}, {"time": 576, "pitch": 74, "duration": 24, "velocity": 64}]}]}