{"metadata": {"schema_version": "0.1", "title": "Zangzu renmin xizaixin", "source_format": "abc"}, "resolution": 24, "tempos": [{"time": 0, "qpm": 120.0}], "key_signatures": [{"time": 0, "root": 0, "mode": "major", "fifths": 0}], "time_signatures": [{"time": 0, "numerator": 4, "denominator": 4}, {"time": 36, "numerator": 1, "denominator": 8}, {"time": 84, "numerator": 1, "denominator": 8}, {"time": 312, "numerator": 1, "denominator": 8}, {"time": 360, "numerator": 1, "denominator": 8}, {"time": 408, "numerator": 1, "denominator": 8}, {"time": 456, "numerator": 1, "denominator": 8}, {"time": 468, "numerator": 3, "denominator": 8}], "beats": [{"time": 0, "is_downbeat": true}, {"time": 12, "is_downbeat": true}, {"time": 24, "is_downbeat": true}, {"time": 36, "is_downbeat": true}, {"time": 48, "is_downbeat": true}, {"time": 60, "is_downbeat": true}, {"time": 72, "is_downbeat": true}, {"time": 84, "is_downbeat": true}, {"time": 96, "is_downbeat": true}, {"time": 108, "is_downbeat": true}, {"time": 120, "is_downbeat": true}, {"time": 132, "is_downbeat": true}, {"time": 144, "is_downbeat": true}, {"time": 156, "is_downbeat": true}, {"time": 168, "is_downbeat": true}, {"time": 180, "is_downbeat": true}, {"time": 192, "is_downbeat": true}, {"time": 204, "is_downbeat": true}, {"time": 216, "is_downbeat": true}, {"time": 228, "is_downbeat": true}, {"time": 240, "is_downbeat": true}, {"time": 252, "is_downbeat": true}, {"time": 264, "is_downbeat": true}, {"time": 276, "is_downbeat": true}, {"time": 288, "is_downbeat": true}, {"time": 300, "is_downbeat": true}, {"time": 312, "is_downbeat": true}, {"time": 324, "is_downbeat": true}, {"time": 336, "is_downbeat": true}, {"time": 348, "is_downbeat": true}, {"time": 360, "is_downbeat": true}, {"time": 372, "is_downbeat": true}, {"time": 384, "is_downbeat": true}, {"time": 396, "is_downbeat": true}, {"time": 408, "is_downbeat": true}, {"time": 420, "is_downbeat": true}, {"time": 432, "is_downbeat": true}, {"time": 444, "is_downbeat": true}, {"time": 456, "is_downbeat": true}, {"time": 468, "is_downbeat": true}, {"time": 480, "is_downbeat": false}, {"time": 492, "is_downbeat": false}, {"time": 504, "is_downbeat": true}, {"time": 516, "is_downbeat": false}, {"time": 528, "is_downbeat": false}], "tracks": [{"program": 0, "is_drum": false, "notes": [{"time": 0, "pitch": 57, "duration": 12, "velocity": 64}, {"time": 12, "pitch": 57, "duration": 12, "velocity": 64}, {"time": 24, "pitch": 60, "duration": 6, "velocity": 64}, {"time": 30, "pitch": 62, "duration": 6, "velocity": 64}, {"time": 36, "pitch": 64, "duration": 6, "velocity": 64}, {"time": 42, "pitch": 67, "duration": 6, "velocity": 64}, {"time": 48, "pitch": 69, "duration": 48, "velocity": 64}, {"time": 96, "pitch": 74, "duration": 12, "velocity": 64}, {"time": 108, "pitch": 69, "duration": 6, "velocity": 64}, {"time": 114, "pitch": 72, "duration": 6, "velocity": 64}, {"time": 120, "pitch": 69, "duration": 6, "velocity": 64}, {"time": 126, "pitch": 67, "duration": 6, "velocity": 64}, {"time": 132, "pitch": 69, "duration": 6, "velocity": 64}, {"time": 138, "pitch": 67, "duration": 6, "velocity": 64}, {"time": 144, "pitch": 64, "duration": 6, "velocity": 64}, {"time": 150, "pitch": 62, "duration": 6, "velocity": 64}, {"time": 156, "pitch": 60, "duration": 6, "velocity": 64}, {"time": 162, "pitch": 62, "duration": 6, "velocity": 64}, {"time": 168, "pitch": 64, "duration": 6, "velocity": 64}, {"time": 174, "pitch": 67, "duration": 6, "velocity": 64}, {"time": 180, "pitch": 62, "duration": 6, "velocity": 64}, {"time": 186, "pitch": 64, "duration": 6, "velocity": 64}, {"time": 192, "pitch": 60, "duration": 6, "velocity": 64}, {"time": 198, "pitch": 62, "duration": 6, "velocity": 64}, {"time": 204, "pitch": 57, "duration": 6, "velocity": 64}, {"time": 210, "pitch": 55, "duration": 6, "velocity": 64}, {"time": 216, "pitch": 57, "duration": 60, "velocity": 64}, {"time": 276, "pitch": 57, "duration": 12, "velocity": 64}, {"time": 288, "pitch": 57, "duration": 12, "velocity": 64}, {"time": 300, "pitch": 60, "duration": 6, "velocity": 64}, {"time": 306, "pitch": 62, "duration": 6, "velocity": 64}, {"time": 312, "pitch": 64, "duration": 6, "velocity": 64}, {"time": 318, "pitch": 67, "duration": 6, "velocity": 64}, {"time": 324, "pitch": 69, "duration": 12, "velocity": 64}, {"time": 336, "pitch": 64, "duration": 6, "velocity": 64}, {"time": 342, "pitch": 67, "duration": 6, "velocity": 64}, {"time": 348, "pitch": 60, "duration": 6, "velocity": 64}, {"time": 354, "pitch": 62, "duration": 6, "velocity": 64}, {"time": 360, "pitch": 64, "duration": 6, "velocity": 64}, {"time": 366, "pitch": 67, "duration": 6, "velocity": 64}, {"time": 372, "pitch": 69, "duration": 12, "velocity": 64}, {"time": 384, "pitch": 64, "duration": 6, "velocity": 64}, {"time": 390, "pitch": 67, "duration": 6, "velocity": 64}, {"time": 396, "pitch": 64, "duration": 6, "velocity": 64}, {"time": 402, "pitch": 62, "duration": 6, "velocity": 64}, {"time": 408, "pitch": 60, "duration": 6, "velocity": 64}, {"time": 414, "pitch": 57, "duration": 6, "velocity": 64}, {"time": 420, "pitch": 57, "duration": 12, "velocity": 64}, {"time": 432, "pitch": 60, "duration": 12, "velocity": 64}, {"time": 444, "pitch": 62, "duration": 6, "velocity": 64}, {"time": 450, "pitch": 64, "duration": 6, "velocity": 64}, {"time": 456, "pitch": 60, "duration": 6, "velocity": 64}, {"time": 462, "pitch": 62, "duration": 6, "velocity": 64}, {"time": 468, "pitch": 57, "duration": 12, "velocity": 64}, {"time": 480, "pitch": 57, "duration": 60, "velocity": 64}]}]}