{"metadata": {"schema_version": "0.1", "title": "Renmin hainian zhouzongli", "source_format": "abc"}, "resolution": 24, "tempos": [{"time": 0, "qpm": 120.0}], "key_signatures": [{"time": 0, "root": 0, "mode": "major", "fifths": 0}], "time_signatures": [{"time": 0, "numerator": 4, "denominator": 4}, {"time": 72, "numerator": 1, "denominator": 4}, {"time": 168, "numerator": 5, "denominator": 4}, {"time": 432, "numerator": 5, "denominator": 4}, {"time": 696, "numerator": 1, "denominator": 4}, {"time": 792, "numerator": 1, "denominator": 4}, {"time": 888, "numerator": 1, "denominator": 4}, {"time": 912, "numerator": 3, "denominator": 4}, {"time": 984, "numerator": 1, "denominator": 4}], "beats": [{"time": 0, "is_downbeat": true}, {"time": 24, "is_downbeat": true}, {"time": 48, "is_downbeat": true}, {"time": 72, "is_downbeat": true}, {"time": 96, "is_downbeat": true}, {"time": 120, "is_downbeat": false}, {"time": 144, "is_downbeat": false}, {"time": 168, "is_downbeat": true}, {"time": 192, "is_downbeat": false}, {"time": 216, "is_downbeat": false}, {"time": 240, "is_downbeat": false}, {"time": 264, "is_downbeat": false}, {"time": 288, "is_downbeat": true}, {"time": 312, "is_downbeat": false}, {"time": 336, "is_downbeat": false}, {"time": 360, "is_downbeat": true}, {"time": 384, "is_downbeat": false}, {"time": 408, "is_downbeat": false}, {"time": 432, "is_downbeat": true}, {"time": 456, "is_downbeat": true}, {"time": 480, "is_downbeat": true}, {"time": 504, "is_downbeat": true}, {"time": 528, "is_downbeat": true}, {"time": 552, "is_downbeat": true}, {"time": 576, "is_downbeat": true}, {"time": 600, "is_downbeat": true}, {"time": 624, "is_downbeat": true}, {"time": 648, "is_downbeat": true}, {"time": 672, "is_downbeat": true}, {"time": 696, "is_downbeat": true}, {"time": 720, "is_downbeat": true}, {"time": 744, "is_downbeat": true}, {"time": 768, "is_downbeat": true}, {"time": 792, "is_downbeat": true}, {"time": 816, "is_downbeat": true}, {"time": 840, "is_downbeat": true}, {"time": 864, "is_downbeat": true}, {"time": 888, "is_downbeat": true}, {"time": 912, "is_downbeat": true}, {"time": 936, "is_downbeat": true}, {"time": 960, "is_downbeat": true}, {"time": 984, "is_downbeat": true}], "tracks": [{"program": 0, "is_drum": false, "notes": [{"time": 0, "pitch": 69, "duration": 24, "velocity": 64}, {"time": 24, "pitch": 62, "duration": 12, "velocity": 64}, {"time": 36, "pitch": 64, "duration": 12, "velocity": 64}, {"time": 48, "pitch": 62, "duration": 36, "velocity": 64}, {"time": 84, "pitch": 64, "duration": 12, "velocity": 64}, {"time": 96, "pitch": 67, "duration": 24, "velocity": 64}, {"time": 120, "pitch": 69, "duration": 12, "velocity": 64}, {"time": 132, "pitch": 72, "duration": 12, "velocity": 64}, {"time": 144, "pitch": 69, "duration": 48, "velocity": 64}, {"time": 192, "pitch": 69, "duration": 12, "velocity": 64}, {"time": 204, "pitch": 72, "duration": 4, "velocity": 64}, {"time": 208, "pitch": 69, "duration": 4, "velocity": 64}, {"time": 212, "pitch": 72, "duration": 4, "velocity": 64}, {"time": 216, "pitch": 74, "duration": 48, "velocity": 64}, {"time": 264, "pitch": 74, "duration": 6, "velocity": 64}, {"time": 270, "pitch": 76, "duration": 6, "velocity": 64}, {"time": 276, "pitch": 79, "duration": 6, "velocity": 64}, {"time": 282, "pitch": 81, "duration": 6, "velocity": 64}, {"time": 288, "pitch": 79, "duration": 12, "velocity": 64}, {"time": 300, "pitch": 69, "duration": 6, "velocity": 64}, {"time": 306, "pitch": 72, "duration": 6, "velocity": 64}, {"time": 312, "pitch": 69, "duration": 36, "velocity": 64}, {"time": 348, "pitch": 72, "duration": 12, "velocity": 64}, {"time": 360, "pitch": 69, "duration": 12, "velocity": 64}, {"time": 372, "pitch": 67, "duration": 84, "velocity": 64}, {"time": 456, "pitch": 62, "duration": 24, "velocity": 64}, {"time": 480, "pitch": 69, "duration": 24, "velocity": 64}, {"time": 504, "pitch": 72, "duration": 36, "velocity": 64}, {"time": 540, "pitch": 69, "duration": 6, "velocity": 64}, {"time": 546, "pitch": 72, "duration": 6, "velocity": 64}, {"time": 552, "pitch": 74, "duration": 12, "velocity": 64}, {"time": 564, "pitch": 72, "duration": 12, "velocity": 64}, {"time": 576, "pitch": 74, "duration": 12, "velocity": 64}, {"time": 588, "pitch": 79, "duration": 12, "velocity": 64}, {"time": 600, "pitch": 77, "duration": 6, "velocity": 64}, {"time": 606, "pitch": 79, "duration": 6, "velocity": 64}, {"time": 612, "pitch": 81, "duration": 12, "velocity": 64}, {"time": 624, "pitch": 69, "duration": 24, "velocity": 64}, {"time": 648, "pitch": 69, "duration": 12, "velocity": 64}, {"time": 660, "pitch": 72, "duration": 12, "velocity": 64}, {"time": 672, "pitch": 69, "duration": 36, "velocity": 64}, {"time": 708, "pitch": 72, "duration": 4, "velocity": 64}, {"time": 712, "pitch": 69, "duration": 4, "velocity": 64}, {"time": 716, "pitch": 72, "duration": 4, "velocity": 64}, {"time": 720, "pitch": 69, "duration": 18, "velocity": 64}, {"time": 738, "pitch": 67, "duration": 6, "velocity": 64}, {"time": 744, "pitch": 67, "duration": 72, "velocity": 64}, {"time": 816, "pitch": 62, "duration": 12, "velocity": 64}, {"time": 828, "pitch": 64, "duration": 12, "velocity": 64}, {"time": 840, "pitch": 67, "duration": 24, "velocity": 64}, {"time": 864, "pitch": 69, "duration": 12, "velocity": 64}, {"time": 876, "pitch": 72, "duration": 12, "velocity": 64}, {"time": 888, "pitch": 67, "duration": 24, "velocity": 64}, {"time": 912, "pitch": 67, "duration": 48, "velocity": 64}, {"time": 960, "pitch": 67, "duration": 24, "velocity": 64}]}]}