{"metadata": {"schema_version": "0.1", "title": "Diexin dehua yaodui dang jiang", "source_format": "abc"}, "resolution": 24, "tempos": [{"time": 0, "qpm": 120.0}], "key_signatures": [{"time": 0, "root": 9, "mode": "major", "fifths": 3}], "time_signatures": [{"time": 0, "numerator": 2, "denominator": 4}], "beats": [{"time": 0, "is_downbeat": true}, {"time": 24, "is_downbeat": true}, {"time": 48, "is_downbeat": false}, {"time": 72, "is_downbeat": true}, {"time": 96, "is_downbeat": false}, {"time": 120, "is_downbeat": true}, {"time": 144, "is_downbeat": false}, {"time": 168, "is_downbeat": true}, {"time": 192, "is_downbeat": false}, {"time": 216, "is_downbeat": true}, {"time": 240, "is_downbeat": false}, {"time": 264, "is_downbeat": true}, {"time": 288, "is_downbeat": false}, {"time": 312, "is_downbeat": true}, {"time": 336, "is_downbeat": false}, {"time": 360, "is_downbeat": true}, {"time": 384, "is_downbeat": false}, {"time": 408, "is_downbeat": true}, {"time": 432, "is_downbeat": false}, {"time": 456, "is_downbeat": true}, {"time": 480, "is_downbeat": false}, {"time": 504, "is_downbeat": true}, {"time": 528, "is_downbeat": false}, {"time": 552, "is_downbeat": true}, {"time": 576, "is_downbeat": false}, {"time": 600, "is_downbeat": true}, {"time": 624, "is_downbeat": false}, {"time": 648, "is_downbeat": true}, {"time": 672, "is_downbeat": false}, {"time": 696, "is_downbeat": true}, {"time": 720, "is_downbeat": false}, {"time": 744, "is_downbeat": true}, {"time": 768, "is_downbeat": false}, {"time": 792, "is_downbeat": true}, {"time": 816, "is_downbeat": false}, {"time": 840, "is_downbeat": true}, {"time": 864, "is_downbeat": false}], "tracks": [{"program": 0, "is_drum": false, "notes": [{"time": 0, "pitch": 66, "duration": 24, "velocity": 64}, {"time": 24, "pitch": 64, "duration": 12, "velocity": 64}, {"time": 36, "pitch": 64, "duration": 12, "velocity": 64}, {"time": 48, "pitch": 66, "duration": 12, "velocity": 64}, {"time": 60, "pitch": 69, "duration": 6, "velocity": 64}, {"time": 66, "pitch": 71, "duration": 6, "velocity": 64}, {"time": 72, "pitch": 71, "duration": 12, "velocity": 64}, {"time": 84, "pitch": 66, "duration": 6, "velocity": 64}, {"time": 90, "pitch": 69, "duration": 6, "velocity": 64}, {"time": 96, "pitch": 66, "duration": 12, "velocity": 64}, {"time": 108, "pitch": 64, "duration": 12, "velocity": 64}, {"time": 120, "pitch": 69, "duration": 12, "velocity": 64}, {"time": 132, "pitch": 66, "duration": 12, "velocity": 64}, {"time": 144, "pitch": 71, "duration": 12, "velocity": 64}, {"time": 156, "pitch": 71, "duration": 12, "velocity": 64}, {"time": 168, "pitch": 71, "duration": 48, "velocity": 64}, {"time": 216, "pitch": 71, "duration": 12, "velocity": 64}, {"time": 228, "pitch": 71, "duration": 6, "velocity": 64}, {"time": 234, "pitch": 76, "duration": 6, "velocity": 64}, {"time": 240, "pitch": 76, "duration": 12, "velocity": 64}, {"time": 252, "pitch": 78, "duration": 12, "velocity": 64}, {"time": 264, "pitch": 71, "duration": 6, "velocity": 64}, {"time": 270, "pitch": 76, "duration": 6, "velocity": 64}, {"time": 276, "pitch": 66, "duration": 6, "velocity": 64}, {"time": 282, "pitch": 69, "duration": 6, "velocity": 64}, {"time": 288, "pitch": 66, "duration": 6, "velocity": 64}, {"time": 300, "pitch": 69, "duration": 12, "velocity": 64}, {"time": 312, "pitch": 71, "duration": 12, "velocity": 64}, {"time": 324, "pitch": 71, "duration": 12, "velocity": 64}, {"time": 336, "pitch": 71, "duration": 18, "velocity": 64}, {"time": 354, "pitch": 78, "duration": 6, "velocity": 64}, {"time": 360, "pitch": 76, "duration": 48, "velocity": 64}, {"time": 408, "pitch": 76, "duration": 12, "velocity": 64}, {"time": 468, "pitch": 66, "duration": 6, "velocity": 64}, {"time": 474, "pitch": 64, "duration": 6, "velocity": 64}, {"time": 480, "pitch": 66, "duration": 12, "velocity": 64}, {"time": 492, "pitch": 69, "duration": 12, "velocity": 64}, {"time": 504, "pitch": 71, "duration": 12, "velocity": 64}, {"time": 516, "pitch": 71, "duration": 12, "velocity": 64}, {"time": 528, "pitch": 71, "duration": 24, "velocity": 64}, {"time": 552, "pitch": 71, "duration": 18, "velocity": 64}, {"time": 570, "pitch": 76, "duration": 6, "velocity": 64}, {"time": 576, "pitch": 76, "duration": 12, "velocity": 64}, {"time": 588, "pitch": 76, "duration": 6, "velocity": 64}, {"time": 594, "pitch": 78, "duration": 6, "velocity": 64}, {"time": 600, "pitch": 71, "duration": 12, "velocity": 64}, {"time": 612, "pitch": 71, "duration": 12, "velocity": 64}, {"time": 624, "pitch": 71, "duration": 6, "velocity": 64}, {"time": 630, "pitch": 76, "duration": 6, "velocity": 64}, {"time": 636, "pitch": 66, "duration": 6, "velocity": 64}, {"time": 642, "pitch": 69, "duration": 6, "velocity": 64}, {"time": 648, "pitch": 66, "duration": 12, "velocity": 64}, {"time": 660, "pitch": 69, "duration": 6, "velocity": 64}, {"time": 666, "pitch": 69, "duration": 6, "velocity": 64}, {"time": 672, "pitch": 69, "duration": 12, "velocity": 64}, {"time": 684, "pitch": 69, "duration": 12, "velocity": 64}, {"time": 696, "pitch": 66, "duration": 12, "velocity": 64}, {"time": 708, "pitch": 69, "duration": 12, "velocity": 64}, {"time": 720, "pitch": 71, "duration": 12, "velocity": 64}, {"time": 732, "pitch": 66, "duration": 6, "velocity": 64}, {"time": 738, "pitch": 69, "duration": 6, "velocity": 64}, {"time": 744, "pitch": 66, "duration": 24, "velocity": 64}, {"time": 768, "pitch": 66, "duration": 18, "velocity": 64}, {"time": 786, "pitch": 64, "duration": 6, "velocity": 64}, {"time": 792, "pitch": 64, "duration": 36, "velocity": 64}, {"time": 828, "pitch": 66, "duration": 12, "velocity": 64}, {"time": 840, "pitch": 64, "duration": 24, "velocity": 64}]}]}