{"metadata": {"schema_version": "0.1", "title": "Dongfang youyike liangmingxing", "source_format": "abc"}, "resolution": 24, "tempos": [{"time": 0, "qpm": 120.0}], "key_signatures": [{"time": 0, "root": 7, "mode": "major", "fifths": 1}], "time_signatures": [{"time": 0, "numerator": 4, "denominator": 4}], "tracks": [{"program": 0, "is_drum": false, "notes": [{"time": 0, "pitch": 76, "duration": 24, "velocity": 64}, {"time": 24, "pitch": 76, "duration": 18, "velocity": 64}, {"time": 42, "pitch": 74, "duration": 6, "velocity": 64}, {"time": 48, "pitch": 76, "duration": 24, "velocity": 64}, {"time": 72, "pitch": 76, "duration": 6, "velocity": 64}, {"time": 78, "pitch": 74, "duration": 6, "velocity": 64}, {"time": 84, "pitch": 71, "duration": 6, "velocity": 64}, {"time": 90, "pitch": 74, "duration": 6, "velocity": 64}, {"time": 96, "pitch": 76, "duration": 6, "velocity": 64}, {"time": 102, "pitch": 74, "duration": 6, "velocity": 64}, {"time": 108, "pitch": 71, "duration": 6, "velocity": 64}, {"time": 114, "pitch": 74, "duration": 6, "velocity": 64}, {"time": 120, "pitch": 76, "duration": 6, "velocity": 64}, {"time": 126, "pitch": 74, "duration": 6, "velocity": 64}, {"time": 132, "pitch": 71, "duration": 6, "velocity": 64}, {"time": 138, "pitch": 69, "duration": 12, "velocity": 64}, {"time": 186, "pitch": 71, "duration": 6, "velocity": 64}, {"time": 192, "pitch": 74, "duration": 6, "velocity": 64}, {"time": 198, "pitch": 71, "duration": 6, "velocity": 64}, {"time": 204, "pitch": 69, "duration": 6, "velocity": 64}, {"time": 210, "pitch": 67, "duration": 6, "velocity": 64}, {"time": 216, "pitch": 69, "duration": 12, "velocity": 64}, {"time": 234, "pitch": 64, "duration": 36, "velocity": 64}, {"time": 282, "pitch": 64, "duration": 6, "velocity": 64}, {"time": 288, "pitch": 67, "duration": 6, "velocity": 64}, {"time": 294, "pitch": 69, "duration": 6, "velocity": 64}, {"time": 300, "pitch": 71, "duration": 24, "velocity": 64}, {"time": 330, "pitch": 67, "duration": 6, "velocity": 64}, {"time": 336, "pitch": 69, "duration": 6, "velocity": 64}, {"time": 342, "pitch": 67, "duration": 6, "velocity": 64}, {"time": 348, "pitch": 64, "duration": 12, "velocity": 64}, {"time": 372, "pitch": 59, "duration": 12, "velocity": 64}, {"time": 438, "pitch": 62, "duration": 6, "velocity": 64}, {"time": 444, "pitch": 62, "duration": 12, "velocity": 64}, {"time": 480, "pitch": 62, "duration": 6, "velocity": 64}, {"time": 486, "pitch": 64, "duration": 12, "velocity": 64}, {"time": 498, "pitch": 62, "duration": 6, "velocity": 64}, {"time": 504, "pitch": 64, "duration": 18, "velocity": 64}, {"time": 522, "pitch": 64, "duration": 6, "velocity": 64}, {"time": 528, "pitch": 67, "duration": 6, "velocity": 64}, {"time": 534, "pitch": 69, "duration": 6, "velocity": 64}, {"time": 540, "pitch": 71, "duration": 6, "velocity": 64}, {"time": 552, "pitch": 74, "duration": 6, "velocity": 64}, {"time": 558, "pitch": 76, "duration": 6, "velocity": 64}, {"time": 564, "pitch": 74, "duration": 6, "velocity": 64}, {"time": 570, "pitch": 71, "duration": 6, "velocity": 64}, {"time": 576, "pitch": 74, "duration": 12, "velocity": 64}, {"time": 588, "pitch": 76, "duration": 18, "velocity": 64}, {"time": 606, "pitch": 76, "duration": 18, "velocity": 64}]}]}