{"metadata": {"schema_version": "0.1", "title": "Zhouzongli zai huazongzhong xiaole", "source_format": "abc"}, "resolution": 24, "tempos": [{"time": 0, "qpm": 120.0}], "key_signatures": [{"time": 0, "root": 9, "mode": "major", "fifths": 3}], "time_signatures": [{"time": 0, "numerator": 2, "denominator": 4}], "beats": [{"time": 0, "is_downbeat": true}, {"time": 24, "is_downbeat": false}, {"time": 48, "is_downbeat": true}, {"time": 72, "is_downbeat": false}, {"time": 96, "is_downbeat": true}, {"time": 120, "is_downbeat": false}, {"time": 144, "is_downbeat": true}, {"time": 168, "is_downbeat": false}, {"time": 192, "is_downbeat": true}, {"time": 216, "is_downbeat": false}, {"time": 240, "is_downbeat": true}, {"time": 264, "is_downbeat": false}, {"time": 288, "is_downbeat": true}, {"time": 312, "is_downbeat": false}, {"time": 336, "is_downbeat": true}, {"time": 360, "is_downbeat": false}, {"time": 384, "is_downbeat": true}, {"time": 408, "is_downbeat": false}, {"time": 432, "is_downbeat": true}, {"time": 456, "is_downbeat": false}, {"time": 480, "is_downbeat": true}, {"time": 504, "is_downbeat": false}, {"time": 528, "is_downbeat": true}, {"time": 552, "is_downbeat": false}, {"time": 576, "is_downbeat": true}, {"time": 600, "is_downbeat": false}, {"time": 624, "is_downbeat": true}, {"time": 648, "is_downbeat": false}, {"time": 672, "is_downbeat": true}, {"time": 696, "is_downbeat": false}, {"time": 720, "is_downbeat": true}, {"time": 744, "is_downbeat": false}, {"time": 768, "is_downbeat": true}, {"time": 792, "is_downbeat": false}, {"time": 816, "is_downbeat": true}, {"time": 840, "is_downbeat": false}], "tracks": [{"program": 0, "is_drum": false, "notes": [{"time": 0, "pitch": 73, "duration": 24, "velocity": 64}, {"time": 24, "pitch": 76, "duration": 18, "velocity": 64}, {"time": 42, "pitch": 73, "duration": 6, "velocity": 64}, {"time": 48, "pitch": 73, "duration": 12, "velocity": 64}, {"time": 60, "pitch": 71, "duration": 12, "velocity": 64}, {"time": 72, "pitch": 71, "duration": 72, "velocity": 64}, {"time": 144, "pitch": 73, "duration": 6, "velocity": 64}, {"time": 150, "pitch": 76, "duration": 6, "velocity": 64}, {"time": 156, "pitch": 73, "duration": 24, "velocity": 64}, {"time": 180, "pitch": 71, "duration": 6, "velocity": 64}, {"time": 186, "pitch": 73, "duration": 6, "velocity": 64}, {"time": 192, "pitch": 69, "duration": 24, "velocity": 64}, {"time": 216, "pitch": 71, "duration": 6, "velocity": 64}, {"time": 222, "pitch": 73, "duration": 6, "velocity": 64}, {"time": 228, "pitch": 71, "duration": 6, "velocity": 64}, {"time": 234, "pitch": 69, "duration": 6, "velocity": 64}, {"time": 240, "pitch": 66, "duration": 12, "velocity": 64}, {"time": 258, "pitch": 66, "duration": 6, "velocity": 64}, {"time": 264, "pitch": 69, "duration": 18, "velocity": 64}, {"time": 282, "pitch": 71, "duration": 6, "velocity": 64}, {"time": 288, "pitch": 71, "duration": 18, "velocity": 64}, {"time": 306, "pitch": 73, "duration": 6, "velocity": 64}, {"time": 312, "pitch": 71, "duration": 6, "velocity": 64}, {"time": 318, "pitch": 69, "duration": 6, "velocity": 64}, {"time": 324, "pitch": 66, "duration": 12, "velocity": 64}, {"time": 336, "pitch": 66, "duration": 12, "velocity": 64}, {"time": 348, "pitch": 64, "duration": 12, "velocity": 64}, {"time": 360, "pitch": 64, "duration": 72, "velocity": 64}, {"time": 432, "pitch": 66, "duration": 12, "velocity": 64}, {"time": 444, "pitch": 64, "duration": 6, "velocity": 64}, {"time": 450, "pitch": 66, "duration": 6, "velocity": 64}, {"time": 456, "pitch": 69, "duration": 24, "velocity": 64}, {"time": 480, "pitch": 73, "duration": 6, "velocity": 64}, {"time": 486, "pitch": 76, "duration": 6, "velocity": 64}, {"time": 492, "pitch": 73, "duration": 12, "velocity": 64}, {"time": 504, "pitch": 73, "duration": 12, "velocity": 64}, {"time": 516, "pitch": 71, "duration": 12, "velocity": 64}, {"time": 528, "pitch": 71, "duration": 96, "velocity": 64}, {"time": 624, "pitch": 73, "duration": 6, "velocity": 64}, {"time": 630, "pitch": 71, "duration": 6, "velocity": 64}, {"time": 636, "pitch": 69, "duration": 6, "velocity": 64}, {"time": 642, "pitch": 66, "duration": 6, "velocity": 64}, {"time": 648, "pitch": 64, "duration": 24, "velocity": 64}, {"time": 672, "pitch": 66, "duration": 6, "velocity": 64}, {"time": 678, "pitch": 69, "duration": 6, "velocity": 64}, {"time": 684, "pitch": 66, "duration": 6, "velocity": 64}, {"time": 690, "pitch": 64, "duration": 6, "velocity": 64}, {"time": 696, "pitch": 61, "duration": 12, "velocity": 64}, {"time": 714, "pitch": 59, "duration": 6, "velocity": 64}, {"time": 720, "pitch": 64, "duration": 18, "velocity": 64}, {"time": 738, "pitch": 66, "duration": 6, "velocity": 64}, {"time": 744, "pitch": 71, "duration": 18, "velocity": 64}, {"time": 762, "pitch": 73, "duration": 6, "velocity": 64}, {"time": 768, "pitch": 71, "duration": 6, "velocity": 64}, {"time": 774, "pitch": 69, "duration": 6, "velocity": 64}, {"time": 780, "pitch": 66, "duration": 12, "velocity": 64}, {"time": 792, "pitch": 66, "duration": 18, "velocity": 64}, {"time": 810, "pitch": 64, "duration": 6, "velocity": 64}, {"time": 816, "pitch": 64, "duration": 48, "velocity": 64}]}]}