{"metadata": {"schema_version": "0.1", "title": "Qiongren panwang laohongjun", "source_format": "abc"}, "resolution": 24, "tempos": [{"time": 0, "qpm": 120.0}], "key_signatures": [{"time": 0, "root": 7, "mode": "major", "fifths": 1}], "time_signatures": [{"time": 0, "numerator": 2, "denominator": 4}], "beats": [{"time": 0, "is_downbeat": true}, {"time": 24, "is_downbeat": false}, {"time": 48, "is_downbeat": true}, {"time": 72, "is_downbeat": false}, {"time": 96, "is_downbeat": true}, {"time": 120, "is_downbeat": false}, {"time": 144, "is_downbeat": true}, {"time": 168, "is_downbeat": false}, {"time": 192, "is_downbeat": true}, {"time": 216, "is_downbeat": false}, {"time": 240, "is_downbeat": true}, {"time": 264, "is_downbeat": false}, {"time": 288, "is_downbeat": true}, {"time": 312, "is_downbeat": false}, {"time": 336, "is_downbeat": true}, {"time": 360, "is_downbeat": false}, {"time": 384, "is_downbeat": true}, {"time": 408, "is_downbeat": false}, {"time": 432, "is_downbeat": true}, {"time": 456, "is_downbeat": false}, {"time": 480, "is_downbeat": true}, {"time": 504, "is_downbeat": false}, {"time": 528, "is_downbeat": true}, {"time": 552, "is_downbeat": false}, {"time": 576, "is_downbeat": true}, {"time": 600, "is_downbeat": false}, {"time": 624, "is_downbeat": true}, {"time": 648, "is_downbeat": false}, {"time": 672, "is_downbeat": true}, {"time": 696, "is_downbeat": false}, {"time": 720, "is_downbeat": true}, {"time": 744, "is_downbeat": false}, {"time": 768, "is_downbeat": true}, {"time": 792, "is_downbeat": false}, {"time": 816, "is_downbeat": true}, {"time": 840, "is_downbeat": false}, {"time": 864, "is_downbeat": true}, {"time": 888, "is_downbeat": false}, {"time": 912, "is_downbeat": true}, {"time": 936, "is_downbeat": false}], "tracks": [{"program": 0, "is_drum": false, "notes": [{"time": 0, "pitch": 71, "duration": 12, "velocity": 64}, {"time": 12, "pitch": 71, "duration": 12, "velocity": 64}, {"time": 24, "pitch": 71, "duration": 9, "velocity": 64}, {"time": 33, "pitch": 74, "duration": 3, "velocity": 64}, {"time": 36, "pitch": 71, "duration": 6, "velocity": 64}, {"time": 42, "pitch": 69, "duration": 3, "velocity": 64}, {"time": 45, "pitch": 71, "duration": 3, "velocity": 64}, {"time": 48, "pitch": 74, "duration": 48, "velocity": 64}, {"time": 96, "pitch": 74, "duration": 6, "velocity": 64}, {"time": 102, "pitch": 76, "duration": 6, "velocity": 64}, {"time": 108, "pitch": 79, "duration": 12, "velocity": 64}, {"time": 120, "pitch": 76, "duration": 6, "velocity": 64}, {"time": 126, "pitch": 74, "duration": 6, "velocity": 64}, {"time": 132, "pitch": 76, "duration": 6, "velocity": 64}, {"time": 138, "pitch": 79, "duration": 6, "velocity": 64}, {"time": 144, "pitch": 76, "duration": 12, "velocity": 64}, {"time": 156, "pitch": 74, "duration": 6, "velocity": 64}, {"time": 162, "pitch": 79, "duration": 6, "velocity": 64}, {"time": 168, "pitch": 76, "duration": 6, "velocity": 64}, {"time": 174, "pitch": 74, "duration": 6, "velocity": 64}, {"time": 180, "pitch": 71, "duration": 6, "velocity": 64}, {"time": 186, "pitch": 69, "duration": 6, "velocity": 64}, {"time": 192, "pitch": 67, "duration": 48, "velocity": 64}, {"time": 240, "pitch": 69, "duration": 18, "velocity": 64}, {"time": 258, "pitch": 71, "duration": 6, "velocity": 64}, {"time": 264, "pitch": 71, "duration": 6, "velocity": 64}, {"time": 270, "pitch": 69, "duration": 6, "velocity": 64}, {"time": 276, "pitch": 67, "duration": 6, "velocity": 64}, {"time": 282, "pitch": 64, "duration": 6, "velocity": 64}, {"time": 288, "pitch": 62, "duration": 48, "velocity": 64}, {"time": 336, "pitch": 71, "duration": 12, "velocity": 64}, {"time": 348, "pitch": 71, "duration": 12, "velocity": 64}, {"time": 360, "pitch": 71, "duration": 6, "velocity": 64}, {"time": 366, "pitch": 74, "duration": 6, "velocity": 64}, {"time": 372, "pitch": 76, "duration": 12, "velocity": 64}, {"time": 384, "pitch": 79, "duration": 12, "velocity": 64}, {"time": 396, "pitch": 76, "duration": 6, "velocity": 64}, {"time": 402, "pitch": 74, "duration": 6, "velocity": 64}, {"time": 408, "pitch": 76, "duration": 12, "velocity": 64}, {"time": 420, "pitch": 76, "duration": 6, "velocity": 64}, {"time": 426, "pitch": 79, "duration": 6, "velocity": 64}, {"time": 432, "pitch": 76, "duration": 12, "velocity": 64}, {"time": 444, "pitch": 76, "duration": 6, "velocity": 64}, {"time": 450, "pitch": 79, "duration": 6, "velocity": 64}, {"time": 456, "pitch": 76, "duration": 6, "velocity": 64}, {"time": 462, "pitch": 74, "duration": 6, "velocity": 64}, {"time": 468, "pitch": 71, "duration": 6, "velocity": 64}, {"time": 474, "pitch": 69, "duration": 6, "velocity": 64}, {"time": 480, "pitch": 67, "duration": 48, "velocity": 64}, {"time": 528, "pitch": 69, "duration": 12, "velocity": 64}, {"time": 540, "pitch": 69, "duration": 6, "velocity": 64}, {"time": 546, "pitch": 71, "duration": 6, "velocity": 64}, {"time": 552, "pitch": 71, "duration": 6, "velocity": 64}, {"time": 558, "pitch": 69, "duration": 6, "velocity": 64}, {"time": 564, "pitch": 67, "duration": 6, "velocity": 64}, {"time": 570, "pitch": 64, "duration": 6, "velocity": 64}, {"time": 576, "pitch": 62, "duration": 48, "velocity": 64}, {"time": 624, "pitch": 74, "duration": 12, "velocity": 64}, {"time": 636, "pitch": 71, "duration": 12, "velocity": 64}, {"time": 648, "pitch": 71, "duration": 6, "velocity": 64}, {"time": 654, "pitch": 74, "duration": 6, "velocity": 64}, {"time": 660, "pitch": 76, "duration": 12, "velocity": 64}, {"time": 672, "pitch": 76, "duration": 6, "velocity": 64}, {"time": 678, "pitch": 74, "duration": 6, "velocity": 64}, {"time": 684, "pitch": 76, "duration": 6, "velocity": 64}, {"time": 690, "pitch": 74, "duration": 6, "velocity": 64}, {"time": 696, "pitch": 76, "duration": 6, "velocity": 64}, {"time": 702, "pitch": 74, "duration": 6, "velocity": 64}, {"time": 708, "pitch": 74, "duration": 6, "velocity": 64}, {"time": 714, "pitch": 76, "duration": 6, "velocity": 64}, {"time": 720, "pitch": 79, "duration": 36, "velocity": 64}, {"time": 756, "pitch": 76, "duration": 12, "velocity": 64}, {"time": 768, "pitch": 74, "duration": 12, "velocity": 64}, {"time": 780, "pitch": 76, "duration": 6, "velocity": 64}, {"time": 786, "pitch": 79, "duration": 6, "velocity": 64}, {"time": 792, "pitch": 76, "duration": 6, "velocity": 64}, {"time": 798, "pitch": 74, "duration": 6, "velocity": 64}, {"time": 804, "pitch": 71, "duration": 6, "velocity": 64}, {"time": 810, "pitch": 69, "duration": 6, "velocity": 64}, {"time": 816, "pitch": 67, "duration": 48, "velocity": 64}, {"time": 864, "pitch": 74, "duration": 6, "velocity": 64}, {"time": 870, "pitch": 71, "duration": 6, "velocity": 64}, {"time": 876, "pitch": 69, "duration": 6, "velocity": 64}, {"time": 882, "pitch": 71, "duration": 6, "velocity": 64}, {"time": 888, "pitch": 69, "duration": 6, "velocity": 64}, {"time": 894, "pitch": 67, "duration": 6, "velocity": 64}, {"time": 900, "pitch": 64, "duration": 12, "velocity": 64}, {"time": 912, "pitch": 62, "duration": 48, "velocity": 64}]}]}