{"metadata": {"schema_version": "0.1", "title": "Wanren changqi fanshenge", "source_format": "abc"}, "resolution": 24, "tempos": [{"time": 0, "qpm": 120.0}], "key_signatures": [{"time": 0, "root": 7, "mode": "major", "fifths": 1}], "time_signatures": [{"time": 0, "numerator": 4, "denominator": 4}, {"time": 672, "numerator": 3, "denominator": 4}, {"time": 744, "numerator": 2, "denominator": 4}], "beats": [{"time": 0, "is_downbeat": true}, {"time": 24, "is_downbeat": false}, {"time": 48, "is_downbeat": true}, {"time": 72, "is_downbeat": false}, {"time": 96, "is_downbeat": true}, {"time": 120, "is_downbeat": false}, {"time": 144, "is_downbeat": true}, {"time": 168, "is_downbeat": false}, {"time": 192, "is_downbeat": true}, {"time": 216, "is_downbeat": false}, {"time": 240, "is_downbeat": true}, {"time": 264, "is_downbeat": false}, {"time": 288, "is_downbeat": true}, {"time": 312, "is_downbeat": false}, {"time": 336, "is_downbeat": true}, {"time": 360, "is_downbeat": false}, {"time": 384, "is_downbeat": true}, {"time": 408, "is_downbeat": false}, {"time": 432, "is_downbeat": true}, {"time": 456, "is_downbeat": false}, {"time": 480, "is_downbeat": true}, {"time": 504, "is_downbeat": false}, {"time": 528, "is_downbeat": true}, {"time": 552, "is_downbeat": false}, {"time": 576, "is_downbeat": true}, {"time": 600, "is_downbeat": false}, {"time": 624, "is_downbeat": true}, {"time": 648, "is_downbeat": false}, {"time": 672, "is_downbeat": true}, {"time": 696, "is_downbeat": false}, {"time": 720, "is_downbeat": true}, {"time": 744, "is_downbeat": true}, {"time": 768, "is_downbeat": false}, {"time": 792, "is_downbeat": true}, {"time": 816, "is_downbeat": false}, {"time": 840, "is_downbeat": true}, {"time": 864, "is_downbeat": false}, {"time": 888, "is_downbeat": true}, {"time": 912, "is_downbeat": false}, {"time": 936, "is_downbeat": true}, {"time": 960, "is_downbeat": false}, {"time": 984, "is_downbeat": true}, {"time": 1008, "is_downbeat": false}, {"time": 1032, "is_downbeat": true}, {"time": 1056, "is_downbeat": false}, {"time": 1080, "is_downbeat": true}, {"time": 1104, "is_downbeat": false}, {"time": 1128, "is_downbeat": true}, {"time": 1152, "is_downbeat": false}, {"time": 1176, "is_downbeat": true}, {"time": 1200, "is_downbeat": false}, {"time": 1224, "is_downbeat": true}, {"time": 1248, "is_downbeat": false}, {"time": 1272, "is_downbeat": true}, {"time": 1296, "is_downbeat": false}, {"time": 1320, "is_downbeat": true}, {"time": 1344, "is_downbeat": false}, {"time": 1368, "is_downbeat": true}, {"time": 1392, "is_downbeat": false}, {"time": 1416, "is_downbeat": true}, {"time": 1440, "is_downbeat": false}, {"time": 1464, "is_downbeat": true}, {"time": 1488, "is_downbeat": false}, {"time": 1512, "is_downbeat": true}, {"time": 1536, "is_downbeat": false}, {"time": 1560, "is_downbeat": true}, {"time": 1584, "is_downbeat": false}, {"time": 1608, "is_downbeat": true}, {"time": 1632, "is_downbeat": false}], "tracks": [{"program": 0, "is_drum": false, "notes": [{"time": 0, "pitch": 69, "duration": 6, "velocity": 64}, {"time": 6, "pitch": 69, "duration": 12, "velocity": 64}, {"time": 18, "pitch": 69, "duration": 6, "velocity": 64}, {"time": 24, "pitch": 71, "duration": 12, "velocity": 64}, {"time": 36, "pitch": 69, "duration": 12, "velocity": 64}, {"time": 48, "pitch": 69, "duration": 12, "velocity": 64}, {"time": 60, "pitch": 71, "duration": 12, "velocity": 64}, {"time": 72, "pitch": 69, "duration": 24, "velocity": 64}, {"time": 96, "pitch": 67, "duration": 12, "velocity": 64}, {"time": 108, "pitch": 69, "duration": 12, "velocity": 64}, {"time": 120, "pitch": 67, "duration": 12, "velocity": 64}, {"time": 132, "pitch": 64, "duration": 12, "velocity": 64}, {"time": 144, "pitch": 74, "duration": 18, "velocity": 64}, {"time": 162, "pitch": 71, "duration": 6, "velocity": 64}, {"time": 168, "pitch": 69, "duration": 24, "velocity": 64}, {"time": 192, "pitch": 74, "duration": 18, "velocity": 64}, {"time": 210, "pitch": 71, "duration": 6, "velocity": 64}, {"time": 216, "pitch": 69, "duration": 12, "velocity": 64}, {"time": 228, "pitch": 74, "duration": 12, "velocity": 64}, {"time": 240, "pitch": 71, "duration": 12, "velocity": 64}, {"time": 252, "pitch": 69, "duration": 12, "velocity": 64}, {"time": 264, "pitch": 67, "duration": 12, "velocity": 64}, {"time": 276, "pitch": 64, "duration": 12, "velocity": 64}, {"time": 288, "pitch": 74, "duration": 36, "velocity": 64}, {"time": 324, "pitch": 71, "duration": 12, "velocity": 64}, {"time": 336, "pitch": 69, "duration": 48, "velocity": 64}, {"time": 384, "pitch": 59, "duration": 6, "velocity": 64}, {"time": 390, "pitch": 62, "duration": 12, "velocity": 64}, {"time": 402, "pitch": 67, "duration": 6, "velocity": 64}, {"time": 408, "pitch": 64, "duration": 12, "velocity": 64}, {"time": 420, "pitch": 64, "duration": 6, "velocity": 64}, {"time": 426, "pitch": 67, "duration": 6, "velocity": 64}, {"time": 432, "pitch": 64, "duration": 6, "velocity": 64}, {"time": 438, "pitch": 67, "duration": 6, "velocity": 64}, {"time": 444, "pitch": 62, "duration": 6, "velocity": 64}, {"time": 450, "pitch": 64, "duration": 6, "velocity": 64}, {"time": 456, "pitch": 67, "duration": 24, "velocity": 64}, {"time": 480, "pitch": 69, "duration": 6, "velocity": 64}, {"time": 486, "pitch": 69, "duration": 12, "velocity": 64}, {"time": 498, "pitch": 71, "duration": 6, "velocity": 64}, {"time": 504, "pitch": 71, "duration": 6, "velocity": 64}, {"time": 510, "pitch": 69, "duration": 6, "velocity": 64}, {"time": 516, "pitch": 67, "duration": 12, "velocity": 64}, {"time": 528, "pitch": 67, "duration": 6, "velocity": 64}, {"time": 534, "pitch": 62, "duration": 6, "velocity": 64}, {"time": 540, "pitch": 67, "duration": 6, "velocity": 64}, {"time": 546, "pitch": 64, "duration": 6, "velocity": 64}, {"time": 552, "pitch": 62, "duration": 24, "velocity": 64}, {"time": 576, "pitch": 62, "duration": 6, "velocity": 64}, {"time": 582, "pitch": 62, "duration": 6, "velocity": 64}, {"time": 588, "pitch": 67, "duration": 6, "velocity": 64}, {"time": 594, "pitch": 64, "duration": 6, "velocity": 64}, {"time": 600, "pitch": 67, "duration": 24, "velocity": 64}, {"time": 624, "pitch": 67, "duration": 12, "velocity": 64}, {"time": 636, "pitch": 69, "duration": 12, "velocity": 64}, {"time": 648, "pitch": 64, "duration": 12, "velocity": 64}, {"time": 660, "pitch": 64, "duration": 12, "velocity": 64}, {"time": 672, "pitch": 62, "duration": 24, "velocity": 64}, {"time": 696, "pitch": 74, "duration": 18, "velocity": 64}, {"time": 714, "pitch": 79, "duration": 6, "velocity": 64}, {"time": 720, "pitch": 76, "duration": 12, "velocity": 64}, {"time": 732, "pitch": 79, "duration": 12, "velocity": 64}, {"time": 744, "pitch": 74, "duration": 96, "velocity": 64}, {"time": 840, "pitch": 67, "duration": 6, "velocity": 64}, {"time": 846, "pitch": 67, "duration": 12, "velocity": 64}, {"time": 858, "pitch": 71, "duration": 6, "velocity": 64}, {"time": 864, "pitch": 67, "duration": 12, "velocity": 64}, {"time": 876, "pitch": 69, "duration": 6, "velocity": 64}, {"time": 882, "pitch": 67, "duration": 6, "velocity": 64}, {"time": 888, "pitch": 71, "duration": 12, "velocity": 64}, {"time": 900, "pitch": 69, "duration": 6, "velocity": 64}, {"time": 906, "pitch": 71, "duration": 6, "velocity": 64}, {"time": 912, "pitch": 69, "duration": 24, "velocity": 64}, {"time": 936, "pitch": 67, "duration": 12, "velocity": 64}, {"time": 948, "pitch": 69, "duration": 12, "velocity": 64}, {"time": 960, "pitch": 67, "duration": 12, "velocity": 64}, {"time": 972, "pitch": 64, "duration": 12, "velocity": 64}, {"time": 984, "pitch": 74, "duration": 18, "velocity": 64}, {"time": 1002, "pitch": 71, "duration": 6, "velocity": 64}, {"time": 1008, "pitch": 69, "duration": 24, "velocity": 64}, {"time": 1032, "pitch": 74, "duration": 18, "velocity": 64}, {"time": 1050, "pitch": 71, "duration": 6, "velocity": 64}, {"time": 1056, "pitch": 69, "duration": 12, "velocity": 64}, {"time": 1068, "pitch": 74, "duration": 12, "velocity": 64}, {"time": 1080, "pitch": 71, "duration": 12, "velocity": 64}, {"time": 1092, "pitch": 69, "duration": 12, "velocity": 64}, {"time": 1104, "pitch": 67, "duration": 12, "velocity": 64}, {"time": 1116, "pitch": 64, "duration": 12, "velocity": 64}, {"time": 1128, "pitch": 74, "duration": 36, "velocity": 64}, {"time": 1164, "pitch": 71, "duration": 12, "velocity": 64}, {"time": 1176, "pitch": 69, "duration": 48, "velocity": 64}, {"time": 1224, "pitch": 67, "duration": 6, "velocity": 64}, {"time": 1230, "pitch": 67, "duration": 12, "velocity": 64}, {"time": 1242, "pitch": 62, "duration": 6, "velocity": 64}, {"time": 1248, "pitch": 64, "duration": 6, "velocity": 64}, {"time": 1254, "pitch": 64, "duration": 6, "velocity": 64}, {"time": 1260, "pitch": 67, "duration": 12, "velocity": 64}, {"time": 1272, "pitch": 64, "duration": 6, "velocity": 64}, {"time": 1278, "pitch": 67, "duration": 6, "velocity": 64}, {"time": 1284, "pitch": 62, "duration": 6, "velocity": 64}, {"time": 1290, "pitch": 64, "duration": 6, "velocity": 64}, {"time": 1296, "pitch": 67, "duration": 24, "velocity": 64}, {"time": 1320, "pitch": 71, "duration": 6, "velocity": 64}, {"time": 1326, "pitch": 71, "duration": 12, "velocity": 64}, {"time": 1338, "pitch": 71, "duration": 6, "velocity": 64}, {"time": 1344, "pitch": 71, "duration": 6, "velocity": 64}, {"time": 1350, "pitch": 69, "duration": 6, "velocity": 64}, {"time": 1356, "pitch": 67, "duration": 12, "velocity": 64}, {"time": 1368, "pitch": 67, "duration": 6, "velocity": 64}, {"time": 1374, "pitch": 62, "duration": 6, "velocity": 64}, {"time": 1380, "pitch": 67, "duration": 6, "velocity": 64}, {"time": 1386, "pitch": 64, "duration": 6, "velocity": 64}, {"time": 1392, "pitch": 62, "duration": 24, "velocity": 64}, {"time": 1416, "pitch": 62, "duration": 6, "velocity": 64}, {"time": 1422, "pitch": 62, "duration": 6, "velocity": 64}, {"time": 1428, "pitch": 67, "duration": 6, "velocity": 64}, {"time": 1434, "pitch": 64, "duration": 6, "velocity": 64}, {"time": 1440, "pitch": 67, "duration": 24, "velocity": 64}, {"time": 1464, "pitch": 67, "duration": 6, "velocity": 64}, {"time": 1470, "pitch": 69, "duration": 6, "velocity": 64}, {"time": 1476, "pitch": 67, "duration": 6, "velocity": 64}, {"time": 1482, "pitch": 64, "duration": 6, "velocity": 64}, {"time": 1488, "pitch": 62, "duration": 24, "velocity": 64}, {"time": 1512, "pitch": 74, "duration": 18, "velocity": 64}, {"time": 1530, "pitch": 79, "duration": 6, "velocity": 64}, {"time": 1536, "pitch": 76, "duration": 12, "velocity": 64}, {"time": 1548, "pitch": 79, "duration": 12, "velocity": 64}, {"time": 1560, "pitch": 74, "duration": 96, "velocity": 64}]}]}