{"metadata": {"schema_version": "0.1", "title": "Zhude siling daihongjun", "source_format": "abc"}, "resolution": 24, "tempos": [{"time": 0, "qpm": 120.0}], "key_signatures": [{"time": 0, "root": 0, "mode": "major", "fifths": 0}], "time_signatures": [{"time": 0, "numerator": 4, "denominator": 4}, {"time": 144, "numerator": 1, "denominator": 4}, {"time": 384, "numerator": 1, "denominator": 4}, {"time": 408, "numerator": 3, "denominator": 4}], "beats": [{"time": 0, "is_downbeat": true}, {"time": 24, "is_downbeat": true}, {"time": 48, "is_downbeat": true}, {"time": 72, "is_downbeat": true}, {"time": 96, "is_downbeat": true}, {"time": 120, "is_downbeat": true}, {"time": 144, "is_downbeat": true}, {"time": 168, "is_downbeat": true}, {"time": 192, "is_downbeat": true}, {"time": 216, "is_downbeat": true}, {"time": 240, "is_downbeat": true}, {"time": 264, "is_downbeat": true}, {"time": 288, "is_downbeat": true}, {"time": 312, "is_downbeat": true}, {"time": 336, "is_downbeat": true}, {"time": 360, "is_downbeat": true}, {"time": 384, "is_downbeat": true}, {"time": 408, "is_downbeat": true}, {"time": 432, "is_downbeat": false}, {"time": 456, "is_downbeat": false}], "tracks": [{"program": 0, "is_drum": false, "notes": [{"time": 0, "pitch": 74, "duration": 6, "velocity": 64}, {"time": 6, "pitch": 74, "duration": 18, "velocity": 64}, {"time": 24, "pitch": 76, "duration": 12, "velocity": 64}, {"time": 36, "pitch": 74, "duration": 6, "velocity": 64}, {"time": 42, "pitch": 72, "duration": 6, "velocity": 64}, {"time": 48, "pitch": 69, "duration": 24, "velocity": 64}, {"time": 72, "pitch": 76, "duration": 6, "velocity": 64}, {"time": 78, "pitch": 74, "duration": 6, "velocity": 64}, {"time": 84, "pitch": 72, "duration": 12, "velocity": 64}, {"time": 96, "pitch": 74, "duration": 24, "velocity": 64}, {"time": 120, "pitch": 74, "duration": 18, "velocity": 64}, {"time": 138, "pitch": 69, "duration": 6, "velocity": 64}, {"time": 144, "pitch": 72, "duration": 12, "velocity": 64}, {"time": 156, "pitch": 69, "duration": 6, "velocity": 64}, {"time": 162, "pitch": 67, "duration": 6, "velocity": 64}, {"time": 168, "pitch": 65, "duration": 12, "velocity": 64}, {"time": 180, "pitch": 67, "duration": 6, "velocity": 64}, {"time": 186, "pitch": 65, "duration": 6, "velocity": 64}, {"time": 192, "pitch": 62, "duration": 18, "velocity": 64}, {"time": 210, "pitch": 60, "duration": 6, "velocity": 64}, {"time": 216, "pitch": 62, "duration": 24, "velocity": 64}, {"time": 240, "pitch": 74, "duration": 6, "velocity": 64}, {"time": 246, "pitch": 74, "duration": 18, "velocity": 64}, {"time": 264, "pitch": 76, "duration": 12, "velocity": 64}, {"time": 276, "pitch": 74, "duration": 6, "velocity": 64}, {"time": 282, "pitch": 72, "duration": 6, "velocity": 64}, {"time": 288, "pitch": 69, "duration": 24, "velocity": 64}, {"time": 312, "pitch": 74, "duration": 12, "velocity": 64}, {"time": 324, "pitch": 76, "duration": 6, "velocity": 64}, {"time": 330, "pitch": 72, "duration": 6, "velocity": 64}, {"time": 336, "pitch": 74, "duration": 24, "velocity": 64}, {"time": 360, "pitch": 74, "duration": 18, "velocity": 64}, {"time": 378, "pitch": 74, "duration": 6, "velocity": 64}, {"time": 384, "pitch": 69, "duration": 6, "velocity": 64}, {"time": 390, "pitch": 72, "duration": 6, "velocity": 64}, {"time": 396, "pitch": 69, "duration": 6, "velocity": 64}, {"time": 402, "pitch": 67, "duration": 6, "velocity": 64}, {"time": 408, "pitch": 65, "duration": 12, "velocity": 64}, {"time": 420, "pitch": 67, "duration": 6, "velocity": 64}, {"time": 426, "pitch": 65, "duration": 6, "velocity": 64}, {"time": 432, "pitch": 62, "duration": 18, "velocity": 64}, {"time": 450, "pitch": 60, "duration": 6, "velocity": 64}, {"time": 456, "pitch": 62, "duration": 24, "velocity": 64}]}]}