{"metadata": {"schema_version": "0.1", "title": "Hongjun bujiu yaoguilai", "source_format": "abc"}, "resolution": 24, "tempos": [{"time": 0, "qpm": 120.0}], "key_signatures": [{"time": 0, "root": 7, "mode": "major", "fifths": 1}], "time_signatures": [{"time": 0, "numerator": 4, "denominator": 4}, {"time": 48, "numerator": 14, "denominator": 4}, {"time": 528, "numerator": 1, "denominator": 4}, {"time": 648, "numerator": 1, "denominator": 4}, {"time": 768, "numerator": 7, "denominator": 4}, {"time": 1032, "numerator": 5, "denominator": 4}, {"time": 1152, "numerator": 2, "denominator": 4}], "beats": [{"time": 0, "is_downbeat": true}, {"time": 24, "is_downbeat": false}, {"time": 48, "is_downbeat": true}, {"time": 72, "is_downbeat": true}, {"time": 96, "is_downbeat": true}, {"time": 120, "is_downbeat": true}, {"time": 144, "is_downbeat": true}, {"time": 168, "is_downbeat": true}, {"time": 192, "is_downbeat": true}, {"time": 216, "is_downbeat": true}, {"time": 240, "is_downbeat": true}, {"time": 264, "is_downbeat": true}, {"time": 288, "is_downbeat": true}, {"time": 312, "is_downbeat": true}, {"time": 336, "is_downbeat": true}, {"time": 360, "is_downbeat": true}, {"time": 384, "is_downbeat": true}, {"time": 408, "is_downbeat": true}, {"time": 432, "is_downbeat": true}, {"time": 456, "is_downbeat": true}, {"time": 480, "is_downbeat": true}, {"time": 504, "is_downbeat": true}, {"time": 528, "is_downbeat": true}, {"time": 552, "is_downbeat": true}, {"time": 576, "is_downbeat": true}, {"time": 600, "is_downbeat": true}, {"time": 624, "is_downbeat": true}, {"time": 648, "is_downbeat": true}, {"time": 672, "is_downbeat": true}, {"time": 696, "is_downbeat": false}, {"time": 720, "is_downbeat": true}, {"time": 744, "is_downbeat": false}, {"time": 768, "is_downbeat": true}, {"time": 792, "is_downbeat": false}, {"time": 816, "is_downbeat": false}, {"time": 840, "is_downbeat": false}, {"time": 864, "is_downbeat": false}, {"time": 888, "is_downbeat": true}, {"time": 912, "is_downbeat": false}, {"time": 936, "is_downbeat": true}, {"time": 960, "is_downbeat": false}, {"time": 984, "is_downbeat": true}, {"time": 1008, "is_downbeat": false}, {"time": 1032, "is_downbeat": true}, {"time": 1056, "is_downbeat": false}, {"time": 1080, "is_downbeat": true}, {"time": 1104, "is_downbeat": false}, {"time": 1128, "is_downbeat": true}, {"time": 1152, "is_downbeat": true}, {"time": 1176, "is_downbeat": false}, {"time": 1200, "is_downbeat": true}, {"time": 1224, "is_downbeat": false}, {"time": 1248, "is_downbeat": true}, {"time": 1272, "is_downbeat": false}], "tracks": [{"program": 0, "is_drum": false, "notes": [{"time": 0, "pitch": 64, "duration": 6, "velocity": 64}, {"time": 6, "pitch": 62, "duration": 6, "velocity": 64}, {"time": 12, "pitch": 60, "duration": 6, "velocity": 64}, {"time": 18, "pitch": 62, "duration": 6, "velocity": 64}, {"time": 24, "pitch": 64, "duration": 24, "velocity": 64}, {"time": 48, "pitch": 67, "duration": 6, "velocity": 64}, {"time": 54, "pitch": 67, "duration": 6, "velocity": 64}, {"time": 60, "pitch": 62, "duration": 6, "velocity": 64}, {"time": 66, "pitch": 67, "duration": 6, "velocity": 64}, {"time": 72, "pitch": 64, "duration": 24, "velocity": 64}, {"time": 96, "pitch": 67, "duration": 12, "velocity": 64}, {"time": 108, "pitch": 71, "duration": 6, "velocity": 64}, {"time": 114, "pitch": 67, "duration": 6, "velocity": 64}, {"time": 120, "pitch": 69, "duration": 12, "velocity": 64}, {"time": 132, "pitch": 71, "duration": 6, "velocity": 64}, {"time": 138, "pitch": 67, "duration": 6, "velocity": 64}, {"time": 144, "pitch": 69, "duration": 24, "velocity": 64}, {"time": 168, "pitch": 64, "duration": 6, "velocity": 64}, {"time": 174, "pitch": 67, "duration": 6, "velocity": 64}, {"time": 180, "pitch": 69, "duration": 6, "velocity": 64}, {"time": 186, "pitch": 67, "duration": 6, "velocity": 64}, {"time": 192, "pitch": 64, "duration": 24, "velocity": 64}, {"time": 216, "pitch": 62, "duration": 6, "velocity": 64}, {"time": 222, "pitch": 62, "duration": 6, "velocity": 64}, {"time": 228, "pitch": 62, "duration": 6, "velocity": 64}, {"time": 234, "pitch": 64, "duration": 6, "velocity": 64}, {"time": 240, "pitch": 67, "duration": 12, "velocity": 64}, {"time": 252, "pitch": 69, "duration": 6, "velocity": 64}, {"time": 258, "pitch": 71, "duration": 6, "velocity": 64}, {"time": 264, "pitch": 69, "duration": 24, "velocity": 64}, {"time": 288, "pitch": 64, "duration": 6, "velocity": 64}, {"time": 294, "pitch": 67, "duration": 6, "velocity": 64}, {"time": 300, "pitch": 69, "duration": 6, "velocity": 64}, {"time": 306, "pitch": 64, "duration": 6, "velocity": 64}, {"time": 312, "pitch": 67, "duration": 24, "velocity": 64}, {"time": 336, "pitch": 64, "duration": 6, "velocity": 64}, {"time": 342, "pitch": 67, "duration": 6, "velocity": 64}, {"time": 348, "pitch": 69, "duration": 12, "velocity": 64}, {"time": 360, "pitch": 64, "duration": 12, "velocity": 64}, {"time": 372, "pitch": 67, "duration": 12, "velocity": 64}, {"time": 384, "pitch": 64, "duration": 6, "velocity": 64}, {"time": 390, "pitch": 64, "duration": 6, "velocity": 64}, {"time": 396, "pitch": 67, "duration": 6, "velocity": 64}, {"time": 402, "pitch": 64, "duration": 6, "velocity": 64}, {"time": 408, "pitch": 62, "duration": 24, "velocity": 64}, {"time": 432, "pitch": 71, "duration": 6, "velocity": 64}, {"time": 438, "pitch": 67, "duration": 6, "velocity": 64}, {"time": 444, "pitch": 69, "duration": 6, "velocity": 64}, {"time": 450, "pitch": 71, "duration": 6, "velocity": 64}, {"time": 456, "pitch": 67, "duration": 6, "velocity": 64}, {"time": 462, "pitch": 69, "duration": 6, "velocity": 64}, {"time": 468, "pitch": 71, "duration": 12, "velocity": 64}, {"time": 480, "pitch": 67, "duration": 12, "velocity": 64}, {"time": 492, "pitch": 69, "duration": 6, "velocity": 64}, {"time": 498, "pitch": 71, "duration": 6, "velocity": 64}, {"time": 504, "pitch": 69, "duration": 6, "velocity": 64}, {"time": 510, "pitch": 71, "duration": 6, "velocity": 64}, {"time": 516, "pitch": 69, "duration": 36, "velocity": 64}, {"time": 552, "pitch": 67, "duration": 48, "velocity": 64}, {"time": 600, "pitch": 71, "duration": 6, "velocity": 64}, {"time": 606, "pitch": 71, "duration": 6, "velocity": 64}, {"time": 612, "pitch": 69, "duration": 6, "velocity": 64}, {"time": 618, "pitch": 67, "duration": 6, "velocity": 64}, {"time": 624, "pitch": 69, "duration": 12, "velocity": 64}, {"time": 636, "pitch": 67, "duration": 6, "velocity": 64}, {"time": 642, "pitch": 71, "duration": 6, "velocity": 64}, {"time": 648, "pitch": 69, "duration": 18, "velocity": 64}, {"time": 666, "pitch": 67, "duration": 6, "velocity": 64}, {"time": 672, "pitch": 64, "duration": 6, "velocity": 64}, {"time": 678, "pitch": 67, "duration": 6, "velocity": 64}, {"time": 684, "pitch": 69, "duration": 6, "velocity": 64}, {"time": 690, "pitch": 64, "duration": 6, "velocity": 64}, {"time": 696, "pitch": 67, "duration": 18, "velocity": 64}, {"time": 714, "pitch": 64, "duration": 6, "velocity": 64}, {"time": 720, "pitch": 69, "duration": 6, "velocity": 64}, {"time": 726, "pitch": 67, "duration": 12, "velocity": 64}, {"time": 738, "pitch": 67, "duration": 6, "velocity": 64}, {"time": 744, "pitch": 69, "duration": 12, "velocity": 64}, {"time": 756, "pitch": 64, "duration": 12, "velocity": 64}, {"time": 768, "pitch": 62, "duration": 24, "velocity": 64}, {"time": 792, "pitch": 64, "duration": 6, "velocity": 64}, {"time": 798, "pitch": 62, "duration": 6, "velocity": 64}, {"time": 804, "pitch": 59, "duration": 6, "velocity": 64}, {"time": 810, "pitch": 62, "duration": 6, "velocity": 64}, {"time": 816, "pitch": 59, "duration": 6, "velocity": 64}, {"time": 822, "pitch": 62, "duration": 6, "velocity": 64}, {"time": 828, "pitch": 64, "duration": 12, "velocity": 64}, {"time": 840, "pitch": 59, "duration": 6, "velocity": 64}, {"time": 846, "pitch": 62, "duration": 6, "velocity": 64}, {"time": 852, "pitch": 59, "duration": 6, "velocity": 64}, {"time": 858, "pitch": 62, "duration": 6, "velocity": 64}, {"time": 864, "pitch": 64, "duration": 6, "velocity": 64}, {"time": 870, "pitch": 67, "duration": 6, "velocity": 64}, {"time": 876, "pitch": 64, "duration": 12, "velocity": 64}, {"time": 888, "pitch": 67, "duration": 18, "velocity": 64}, {"time": 906, "pitch": 64, "duration": 6, "velocity": 64}, {"time": 912, "pitch": 62, "duration": 6, "velocity": 64}, {"time": 918, "pitch": 64, "duration": 6, "velocity": 64}, {"time": 924, "pitch": 67, "duration": 12, "velocity": 64}, {"time": 936, "pitch": 67, "duration": 12, "velocity": 64}, {"time": 948, "pitch": 69, "duration": 6, "velocity": 64}, {"time": 954, "pitch": 71, "duration": 6, "velocity": 64}, {"time": 960, "pitch": 69, "duration": 6, "velocity": 64}, {"time": 966, "pitch": 71, "duration": 6, "velocity": 64}, {"time": 972, "pitch": 67, "duration": 12, "velocity": 64}, {"time": 984, "pitch": 67, "duration": 6, "velocity": 64}, {"time": 990, "pitch": 67, "duration": 6, "velocity": 64}, {"time": 996, "pitch": 64, "duration": 6, "velocity": 64}, {"time": 1002, "pitch": 62, "duration": 6, "velocity": 64}, {"time": 1008, "pitch": 71, "duration": 6, "velocity": 64}, {"time": 1014, "pitch": 69, "duration": 6, "velocity": 64}, {"time": 1020, "pitch": 67, "duration": 6, "velocity": 64}, {"time": 1026, "pitch": 71, "duration": 6, "velocity": 64}, {"time": 1032, "pitch": 69, "duration": 24, "velocity": 64}, {"time": 1056, "pitch": 64, "duration": 6, "velocity": 64}, {"time": 1062, "pitch": 67, "duration": 6, "velocity": 64}, {"time": 1068, "pitch": 69, "duration": 6, "velocity": 64}, {"time": 1074, "pitch": 64, "duration": 6, "velocity": 64}, {"time": 1080, "pitch": 67, "duration": 24, "velocity": 64}, {"time": 1104, "pitch": 72, "duration": 12, "velocity": 64}, {"time": 1116, "pitch": 69, "duration": 12, "velocity": 64}, {"time": 1128, "pitch": 67, "duration": 6, "velocity": 64}, {"time": 1134, "pitch": 69, "duration": 6, "velocity": 64}, {"time": 1140, "pitch": 72, "duration": 12, "velocity": 64}, {"time": 1152, "pitch": 69, "duration": 6, "velocity": 64}, {"time": 1158, "pitch": 72, "duration": 6, "velocity": 64}, {"time": 1164, "pitch": 72, "duration": 6, "velocity": 64}, {"time": 1170, "pitch": 64, "duration": 6, "velocity": 64}, {"time": 1176, "pitch": 67, "duration": 24, "velocity": 64}, {"time": 1200, "pitch": 69, "duration": 6, "velocity": 64}, {"time": 1206, "pitch": 67, "duration": 12, "velocity": 64}, {"time": 1218, "pitch": 67, "duration": 6, "velocity": 64}, {"time": 1224, "pitch": 69, "duration": 12, "velocity": 64}, {"time": 1236, "pitch": 64, "duration": 12, "velocity": 64}, {"time": 1248, "pitch": 62, "duration": 48, "velocity": 64}]}]}