{"metadata": {"schema_version": "0.1", "title": "Tuolaji yikai xizaizanxintao", "source_format": "abc"}, "resolution": 24, "tempos": [{"time": 0, "qpm": 120.0}], "key_signatures": [{"time": 0, "root": 4, "mode": "major", "fifths": 4}], "time_signatures": [{"time": 0, "numerator": 2, "denominator": 4}], "beats": [{"time": 0, "is_downbeat": true}, {"time": 24, "is_downbeat": false}, {"time": 48, "is_downbeat": true}, {"time": 72, "is_downbeat": false}, {"time": 96, "is_downbeat": true}, {"time": 120, "is_downbeat": false}, {"time": 144, "is_downbeat": true}, {"time": 168, "is_downbeat": false}, {"time": 192, "is_downbeat": true}, {"time": 216, "is_downbeat": false}, {"time": 240, "is_downbeat": true}, {"time": 264, "is_downbeat": false}, {"time": 288, "is_downbeat": true}, {"time": 312, "is_downbeat": false}, {"time": 336, "is_downbeat": true}, {"time": 360, "is_downbeat": false}, {"time": 384, "is_downbeat": true}, {"time": 408, "is_downbeat": false}], "tracks": [{"program": 0, "is_drum": false, "notes": [{"time": 0, "pitch": 68, "duration": 12, "velocity": 64}, {"time": 12, "pitch": 71, "duration": 12, "velocity": 64}, {"time": 24, "pitch": 76, "duration": 12, "velocity": 64}, {"time": 36, "pitch": 76, "duration": 6, "velocity": 64}, {"time": 42, "pitch": 73, "duration": 6, "velocity": 64}, {"time": 48, "pitch": 68, "duration": 18, "velocity": 64}, {"time": 66, "pitch": 76, "duration": 6, "velocity": 64}, {"time": 72, "pitch": 71, "duration": 6, "velocity": 64}, {"time": 78, "pitch": 73, "duration": 6, "velocity": 64}, {"time": 84, "pitch": 71, "duration": 6, "velocity": 64}, {"time": 90, "pitch": 68, "duration": 6, "velocity": 64}, {"time": 96, "pitch": 66, "duration": 6, "velocity": 64}, {"time": 102, "pitch": 68, "duration": 6, "velocity": 64}, {"time": 108, "pitch": 71, "duration": 12, "velocity": 64}, {"time": 120, "pitch": 73, "duration": 6, "velocity": 64}, {"time": 126, "pitch": 71, "duration": 6, "velocity": 64}, {"time": 132, "pitch": 68, "duration": 6, "velocity": 64}, {"time": 138, "pitch": 66, "duration": 6, "velocity": 64}, {"time": 144, "pitch": 64, "duration": 48, "velocity": 64}, {"time": 192, "pitch": 68, "duration": 18, "velocity": 64}, {"time": 210, "pitch": 71, "duration": 6, "velocity": 64}, {"time": 216, "pitch": 73, "duration": 12, "velocity": 64}, {"time": 228, "pitch": 73, "duration": 6, "velocity": 64}, {"time": 234, "pitch": 71, "duration": 6, "velocity": 64}, {"time": 240, "pitch": 63, "duration": 18, "velocity": 64}, {"time": 258, "pitch": 66, "duration": 6, "velocity": 64}, {"time": 264, "pitch": 68, "duration": 6, "velocity": 64}, {"time": 270, "pitch": 68, "duration": 6, "velocity": 64}, {"time": 276, "pitch": 68, "duration": 6, "velocity": 64}, {"time": 282, "pitch": 71, "duration": 6, "velocity": 64}, {"time": 288, "pitch": 63, "duration": 18, "velocity": 64}, {"time": 306, "pitch": 61, "duration": 6, "velocity": 64}, {"time": 312, "pitch": 59, "duration": 24, "velocity": 64}, {"time": 336, "pitch": 61, "duration": 12, "velocity": 64}, {"time": 348, "pitch": 61, "duration": 12, "velocity": 64}, {"time": 360, "pitch": 63, "duration": 12, "velocity": 64}, {"time": 372, "pitch": 61, "duration": 12, "velocity": 64}, {"time": 384, "pitch": 59, "duration": 48, "velocity": 64}]}]}