{"metadata": {"schema_version": "0.1", "title": "Beifaqu", "source_format": "abc"}, "resolution": 24, "tempos": [{"time": 0, "qpm": 120.0}], "key_signatures": [{"time": 0, "root": 7, "mode": "major", "fifths": 1}], "time_signatures": [{"time": 0, "numerator": 2, "denominator": 4}], "beats": [{"time": 0, "is_downbeat": true}, {"time": 24, "is_downbeat": false}, {"time": 48, "is_downbeat": true}, {"time": 72, "is_downbeat": false}, {"time": 96, "is_downbeat": true}, {"time": 120, "is_downbeat": false}, {"time": 144, "is_downbeat": true}, {"time": 168, "is_downbeat": false}, {"time": 192, "is_downbeat": true}, {"time": 216, "is_downbeat": false}, {"time": 240, "is_downbeat": true}, {"time": 264, "is_downbeat": false}, {"time": 288, "is_downbeat": true}, {"time": 312, "is_downbeat": false}, {"time": 336, "is_downbeat": true}, {"time": 360, "is_downbeat": false}, {"time": 384, "is_downbeat": true}, {"time": 408, "is_downbeat": false}, {"time": 432, "is_downbeat": true}, {"time": 456, "is_downbeat": false}, {"time": 480, "is_downbeat": true}, {"time": 504, "is_downbeat": false}, {"time": 528, "is_downbeat": true}, {"time": 552, "is_downbeat": false}, {"time": 576, "is_downbeat": true}, {"time": 600, "is_downbeat": false}, {"time": 624, "is_downbeat": true}, {"time": 648, "is_downbeat": false}, {"time": 672, "is_downbeat": true}, {"time": 696, "is_downbeat": false}, {"time": 720, "is_downbeat": true}, {"time": 744, "is_downbeat": false}, {"time": 768, "is_downbeat": true}, {"time": 792, "is_downbeat": false}, {"time": 816, "is_downbeat": true}, {"time": 840, "is_downbeat": false}, {"time": 864, "is_downbeat": true}, {"time": 888, "is_downbeat": false}, {"time": 912, "is_downbeat": true}, {"time": 936, "is_downbeat": false}, {"time": 960, "is_downbeat": true}, {"time": 984, "is_downbeat": false}, {"time": 1008, "is_downbeat": true}, {"time": 1032, "is_downbeat": false}, {"time": 1056, "is_downbeat": true}, {"time": 1080, "is_downbeat": false}, {"time": 1104, "is_downbeat": true}, {"time": 1128, "is_downbeat": false}, {"time": 1152, "is_downbeat": true}, {"time": 1176, "is_downbeat": false}, {"time": 1200, "is_downbeat": true}, {"time": 1224, "is_downbeat": false}, {"time": 1248, "is_downbeat": true}, {"time": 1272, "is_downbeat": false}, {"time": 1296, "is_downbeat": true}, {"time": 1320, "is_downbeat": false}, {"time": 1344, "is_downbeat": true}, {"time": 1368, "is_downbeat": false}, {"time": 1392, "is_downbeat": true}, {"time": 1416, "is_downbeat": false}, {"time": 1440, "is_downbeat": true}, {"time": 1464, "is_downbeat": false}, {"time": 1488, "is_downbeat": true}, {"time": 1512, "is_downbeat": false}, {"time": 1536, "is_downbeat": true}, {"time": 1560, "is_downbeat": false}, {"time": 1584, "is_downbeat": true}, {"time": 1608, "is_downbeat": false}, {"time": 1632, "is_downbeat": true}, {"time": 1656, "is_downbeat": false}, {"time": 1680, "is_downbeat": true}, {"time": 1704, "is_downbeat": false}, {"time": 1728, "is_downbeat": true}, {"time": 1752, "is_downbeat": false}, {"time": 1776, "is_downbeat": true}, {"time": 1800, "is_downbeat": false}, {"time": 1824, "is_downbeat": true}, {"time": 1848, "is_downbeat": false}, {"time": 1872, "is_downbeat": true}, {"time": 1896, "is_downbeat": false}, {"time": 1920, "is_downbeat": true}, {"time": 1944, "is_downbeat": false}, {"time": 1968, "is_downbeat": true}, {"time": 1992, "is_downbeat": false}, {"time": 2016, "is_downbeat": true}, {"time": 2040, "is_downbeat": false}, {"time": 2064, "is_downbeat": true}, {"time": 2088, "is_downbeat": false}, {"time": 2112, "is_downbeat": true}, {"time": 2136, "is_downbeat": false}, {"time": 2160, "is_downbeat": true}, {"time": 2184, "is_downbeat": false}, {"time": 2208, "is_downbeat": true}, {"time": 2232, "is_downbeat": false}, {"time": 2256, "is_downbeat": true}, {"time": 2280, "is_downbeat": false}, {"time": 2304, "is_downbeat": true}, {"time": 2328, "is_downbeat": false}, {"time": 2352, "is_downbeat": true}, {"time": 2376, "is_downbeat": false}, {"time": 2400, "is_downbeat": true}, {"time": 2424, "is_downbeat": false}, {"time": 2448, "is_downbeat": true}, {"time": 2472, "is_downbeat": false}, {"time": 2496, "is_downbeat": true}, {"time": 2520, "is_downbeat": false}, {"time": 2544, "is_downbeat": true}, {"time": 2568, "is_downbeat": false}, {"time": 2592, "is_downbeat": true}, {"time": 2616, "is_downbeat": false}, {"time": 2640, "is_downbeat": true}, {"time": 2664, "is_downbeat": false}, {"time": 2688, "is_downbeat": true}, {"time": 2712, "is_downbeat": false}, {"time": 2736, "is_downbeat": true}, {"time": 2760, "is_downbeat": false}, {"time": 2784, "is_downbeat": true}, {"time": 2808, "is_downbeat": false}, {"time": 2832, "is_downbeat": true}, {"time": 2856, "is_downbeat": false}, {"time": 2880, "is_downbeat": true}, {"time": 2904, "is_downbeat": false}, {"time": 2928, "is_downbeat": true}, {"time": 2952, "is_downbeat": false}, {"time": 2976, "is_downbeat": true}, {"time": 3000, "is_downbeat": false}, {"time": 3024, "is_downbeat": true}, {"time": 3048, "is_downbeat": false}, {"time": 3072, "is_downbeat": true}, {"time": 3096, "is_downbeat": false}, {"time": 3120, "is_downbeat": true}, {"time": 3144, "is_downbeat": false}, {"time": 3168, "is_downbeat": true}, {"time": 3192, "is_downbeat": false}, {"time": 3216, "is_downbeat": true}, {"time": 3240, "is_downbeat": false}, {"time": 3264, "is_downbeat": true}, {"time": 3288, "is_downbeat": false}, {"time": 3312, "is_downbeat": true}, {"time": 3336, "is_downbeat": false}, {"time": 3360, "is_downbeat": true}, {"time": 3384, "is_downbeat": false}, {"time": 3408, "is_downbeat": true}, {"time": 3432, "is_downbeat": false}, {"time": 3456, "is_downbeat": true}, {"time": 3480, "is_downbeat": false}, {"time": 3504, "is_downbeat": true}, {"time": 3528, "is_downbeat": false}, {"time": 3552, "is_downbeat": true}, {"time": 3576, "is_downbeat": false}, {"time": 3600, "is_downbeat": true}, {"time": 3624, "is_downbeat": false}, {"time": 3648, "is_downbeat": true}, {"time": 3672, "is_downbeat": false}, {"time": 3696, "is_downbeat": true}, {"time": 3720, "is_downbeat": false}, {"time": 3744, "is_downbeat": true}, {"time": 3768, "is_downbeat": false}, {"time": 3792, "is_downbeat": true}, {"time": 3816, "is_downbeat": false}, {"time": 3840, "is_downbeat": true}, {"time": 3864, "is_downbeat": false}, {"time": 3888, "is_downbeat": true}, {"time": 3912, "is_downbeat": false}, {"time": 3936, "is_downbeat": true}, {"time": 3960, "is_downbeat": false}, {"time": 3984, "is_downbeat": true}, {"time": 4008, "is_downbeat": false}, {"time": 4032, "is_downbeat": true}, {"time": 4056, "is_downbeat": false}, {"time": 4080, "is_downbeat": true}, {"time": 4104, "is_downbeat": false}], "tracks": [{"program": 0, "is_drum": false, "notes": [{"time": 0, "pitch": 74, "duration": 24, "velocity": 64}, {"time": 24, "pitch": 71, "duration": 48, "velocity": 64}, {"time": 72, "pitch": 67, "duration": 36, "velocity": 64}, {"time": 108, "pitch": 69, "duration": 12, "velocity": 64}, {"time": 120, "pitch": 71, "duration": 24, "velocity": 64}, {"time": 144, "pitch": 69, "duration": 12, "velocity": 64}, {"time": 156, "pitch": 71, "duration": 6, "velocity": 64}, {"time": 162, "pitch": 74, "duration": 6, "velocity": 64}, {"time": 168, "pitch": 71, "duration": 6, "velocity": 64}, {"time": 174, "pitch": 69, "duration": 6, "velocity": 64}, {"time": 180, "pitch": 66, "duration": 12, "velocity": 64}, {"time": 192, "pitch": 64, "duration": 18, "velocity": 64}, {"time": 210, "pitch": 69, "duration": 6, "velocity": 64}, {"time": 216, "pitch": 66, "duration": 12, "velocity": 64}, {"time": 228, "pitch": 64, "duration": 12, "velocity": 64}, {"time": 240, "pitch": 62, "duration": 18, "velocity": 64}, {"time": 258, "pitch": 71, "duration": 6, "velocity": 64}, {"time": 264, "pitch": 69, "duration": 12, "velocity": 64}, {"time": 276, "pitch": 66, "duration": 12, "velocity": 64}, {"time": 288, "pitch": 64, "duration": 12, "velocity": 64}, {"time": 300, "pitch": 62, "duration": 12, "velocity": 64}, {"time": 312, "pitch": 64, "duration": 12, "velocity": 64}, {"time": 324, "pitch": 67, "duration": 12, "velocity": 64}, {"time": 336, "pitch": 69, "duration": 12, "velocity": 64}, {"time": 348, "pitch": 74, "duration": 12, "velocity": 64}, {"time": 360, "pitch": 71, "duration": 24, "velocity": 64}, {"time": 384, "pitch": 69, "duration": 12, "velocity": 64}, {"time": 396, "pitch": 67, "duration": 36, "velocity": 64}, {"time": 432, "pitch": 64, "duration": 12, "velocity": 64}, {"time": 444, "pitch": 62, "duration": 12, "velocity": 64}, {"time": 456, "pitch": 64, "duration": 12, "velocity": 64}, {"time": 468, "pitch": 67, "duration": 12, "velocity": 64}, {"time": 480, "pitch": 71, "duration": 24, "velocity": 64}, {"time": 504, "pitch": 67, "duration": 24, "velocity": 64}, {"time": 528, "pitch": 66, "duration": 24, "velocity": 64}, {"time": 552, "pitch": 64, "duration": 24, "velocity": 64}, {"time": 576, "pitch": 71, "duration": 12, "velocity": 64}, {"time": 588, "pitch": 69, "duration": 12, "velocity": 64}, {"time": 600, "pitch": 71, "duration": 12, "velocity": 64}, {"time": 612, "pitch": 74, "duration": 12, "velocity": 64}, {"time": 624, "pitch": 69, "duration": 12, "velocity": 64}, {"time": 636, "pitch": 71, "duration": 12, "velocity": 64}, {"time": 648, "pitch": 69, "duration": 12, "velocity": 64}, {"time": 660, "pitch": 66, "duration": 12, "velocity": 64}, {"time": 672, "pitch": 64, "duration": 12, "velocity": 64}, {"time": 684, "pitch": 62, "duration": 12, "velocity": 64}, {"time": 696, "pitch": 66, "duration": 12, "velocity": 64}, {"time": 708, "pitch": 64, "duration": 12, "velocity": 64}, {"time": 720, "pitch": 62, "duration": 48, "velocity": 64}, {"time": 768, "pitch": 64, "duration": 18, "velocity": 64}, {"time": 786, "pitch": 69, "duration": 6, "velocity": 64}, {"time": 792, "pitch": 66, "duration": 12, "velocity": 64}, {"time": 804, "pitch": 64, "duration": 12, "velocity": 64}, {"time": 816, "pitch": 62, "duration": 18, "velocity": 64}, {"time": 834, "pitch": 71, "duration": 6, "velocity": 64}, {"time": 840, "pitch": 69, "duration": 12, "velocity": 64}, {"time": 852, "pitch": 66, "duration": 12, "velocity": 64}, {"time": 864, "pitch": 64, "duration": 12, "velocity": 64}, {"time": 876, "pitch": 62, "duration": 12, "velocity": 64}, {"time": 888, "pitch": 64, "duration": 12, "velocity": 64}, {"time": 900, "pitch": 67, "duration": 12, "velocity": 64}, {"time": 912, "pitch": 69, "duration": 12, "velocity": 64}, {"time": 924, "pitch": 74, "duration": 12, "velocity": 64}, {"time": 936, "pitch": 71, "duration": 12, "velocity": 64}, {"time": 948, "pitch": 69, "duration": 12, "velocity": 64}, {"time": 960, "pitch": 67, "duration": 36, "velocity": 64}, {"time": 996, "pitch": 66, "duration": 12, "velocity": 64}, {"time": 1008, "pitch": 64, "duration": 24, "velocity": 64}, {"time": 1032, "pitch": 71, "duration": 24, "velocity": 64}, {"time": 1056, "pitch": 76, "duration": 12, "velocity": 64}, {"time": 1068, "pitch": 74, "duration": 12, "velocity": 64}, {"time": 1080, "pitch": 76, "duration": 12, "velocity": 64}, {"time": 1092, "pitch": 79, "duration": 12, "velocity": 64}, {"time": 1104, "pitch": 74, "duration": 12, "velocity": 64}, {"time": 1116, "pitch": 76, "duration": 12, "velocity": 64}, {"time": 1128, "pitch": 72, "duration": 12, "velocity": 64}, {"time": 1140, "pitch": 71, "duration": 12, "velocity": 64}, {"time": 1152, "pitch": 69, "duration": 18, "velocity": 64}, {"time": 1170, "pitch": 71, "duration": 6, "velocity": 64}, {"time": 1176, "pitch": 69, "duration": 6, "velocity": 64}, {"time": 1182, "pitch": 71, "duration": 6, "velocity": 64}, {"time": 1188, "pitch": 72, "duration": 6, "velocity": 64}, {"time": 1194, "pitch": 74, "duration": 6, "velocity": 64}, {"time": 1200, "pitch": 71, "duration": 36, "velocity": 64}, {"time": 1248, "pitch": 64, "duration": 12, "velocity": 64}, {"time": 1260, "pitch": 62, "duration": 12, "velocity": 64}, {"time": 1272, "pitch": 64, "duration": 12, "velocity": 64}, {"time": 1284, "pitch": 67, "duration": 12, "velocity": 64}, {"time": 1296, "pitch": 71, "duration": 36, "velocity": 64}, {"time": 1332, "pitch": 74, "duration": 12, "velocity": 64}, {"time": 1344, "pitch": 71, "duration": 12, "velocity": 64}, {"time": 1356, "pitch": 74, "duration": 12, "velocity": 64}, {"time": 1368, "pitch": 71, "duration": 12, "velocity": 64}, {"time": 1380, "pitch": 69, "duration": 12, "velocity": 64}, {"time": 1392, "pitch": 67, "duration": 24, "velocity": 64}, {"time": 1416, "pitch": 67, "duration": 12, "velocity": 64}, {"time": 1428, "pitch": 69, "duration": 12, "velocity": 64}, {"time": 1440, "pitch": 69, "duration": 24, "velocity": 64}, {"time": 1464, "pitch": 69, "duration": 12, "velocity": 64}, {"time": 1476, "pitch": 66, "duration": 12, "velocity": 64}, {"time": 1488, "pitch": 64, "duration": 12, "velocity": 64}, {"time": 1500, "pitch": 62, "duration": 12, "velocity": 64}, {"time": 1512, "pitch": 66, "duration": 12, "velocity": 64}, {"time": 1524, "pitch": 64, "duration": 12, "velocity": 64}, {"time": 1536, "pitch": 62, "duration": 48, "velocity": 64}, {"time": 1584, "pitch": 69, "duration": 12, "velocity": 64}, {"time": 1596, "pitch": 71, "duration": 6, "velocity": 64}, {"time": 1602, "pitch": 74, "duration": 6, "velocity": 64}, {"time": 1608, "pitch": 71, "duration": 6, "velocity": 64}, {"time": 1614, "pitch": 69, "duration": 6, "velocity": 64}, {"time": 1620, "pitch": 66, "duration": 12, "velocity": 64}, {"time": 1632, "pitch": 64, "duration": 36, "velocity": 64}, {"time": 1668, "pitch": 66, "duration": 12, "velocity": 64}, {"time": 1680, "pitch": 64, "duration": 12, "velocity": 64}, {"time": 1692, "pitch": 67, "duration": 12, "velocity": 64}, {"time": 1704, "pitch": 69, "duration": 12, "velocity": 64}, {"time": 1716, "pitch": 71, "duration": 12, "velocity": 64}, {"time": 1728, "pitch": 67, "duration": 36, "velocity": 64}, {"time": 1776, "pitch": 71, "duration": 36, "velocity": 64}, {"time": 1812, "pitch": 71, "duration": 6, "velocity": 64}, {"time": 1818, "pitch": 74, "duration": 6, "velocity": 64}, {"time": 1824, "pitch": 69, "duration": 12, "velocity": 64}, {"time": 1836, "pitch": 71, "duration": 12, "velocity": 64}, {"time": 1848, "pitch": 67, "duration": 12, "velocity": 64}, {"time": 1860, "pitch": 69, "duration": 12, "velocity": 64}, {"time": 1872, "pitch": 71, "duration": 36, "velocity": 64}, {"time": 1908, "pitch": 74, "duration": 12, "velocity": 64}, {"time": 1920, "pitch": 71, "duration": 12, "velocity": 64}, {"time": 1932, "pitch": 74, "duration": 12, "velocity": 64}, {"time": 1944, "pitch": 71, "duration": 12, "velocity": 64}, {"time": 1956, "pitch": 69, "duration": 12, "velocity": 64}, {"time": 1968, "pitch": 66, "duration": 12, "velocity": 64}, {"time": 1980, "pitch": 64, "duration": 12, "velocity": 64}, {"time": 1992, "pitch": 66, "duration": 12, "velocity": 64}, {"time": 2004, "pitch": 71, "duration": 12, "velocity": 64}, {"time": 2016, "pitch": 64, "duration": 12, "velocity": 64}, {"time": 2028, "pitch": 62, "duration": 12, "velocity": 64}, {"time": 2040, "pitch": 66, "duration": 12, "velocity": 64}, {"time": 2052, "pitch": 64, "duration": 12, "velocity": 64}, {"time": 2064, "pitch": 62, "duration": 36, "velocity": 64}, {"time": 2112, "pitch": 67, "duration": 12, "velocity": 64}, {"time": 2124, "pitch": 69, "duration": 12, "velocity": 64}, {"time": 2136, "pitch": 71, "duration": 24, "velocity": 64}, {"time": 2160, "pitch": 67, "duration": 18, "velocity": 64}, {"time": 2178, "pitch": 71, "duration": 6, "velocity": 64}, {"time": 2184, "pitch": 69, "duration": 12, "velocity": 64}, {"time": 2196, "pitch": 66, "duration": 12, "velocity": 64}, {"time": 2208, "pitch": 64, "duration": 12, "velocity": 64}, {"time": 2220, "pitch": 62, "duration": 12, "velocity": 64}, {"time": 2232, "pitch": 67, "duration": 24, "velocity": 64}, {"time": 2256, "pitch": 76, "duration": 12, "velocity": 64}, {"time": 2268, "pitch": 74, "duration": 12, "velocity": 64}, {"time": 2280, "pitch": 76, "duration": 12, "velocity": 64}, {"time": 2292, "pitch": 79, "duration": 12, "velocity": 64}, {"time": 2304, "pitch": 74, "duration": 12, "velocity": 64}, {"time": 2316, "pitch": 76, "duration": 12, "velocity": 64}, {"time": 2328, "pitch": 72, "duration": 12, "velocity": 64}, {"time": 2340, "pitch": 71, "duration": 12, "velocity": 64}, {"time": 2352, "pitch": 69, "duration": 18, "velocity": 64}, {"time": 2370, "pitch": 71, "duration": 6, "velocity": 64}, {"time": 2376, "pitch": 69, "duration": 6, "velocity": 64}, {"time": 2382, "pitch": 71, "duration": 6, "velocity": 64}, {"time": 2388, "pitch": 72, "duration": 6, "velocity": 64}, {"time": 2394, "pitch": 74, "duration": 6, "velocity": 64}, {"time": 2400, "pitch": 71, "duration": 36, "velocity": 64}, {"time": 2448, "pitch": 71, "duration": 12, "velocity": 64}, {"time": 2460, "pitch": 67, "duration": 12, "velocity": 64}, {"time": 2472, "pitch": 67, "duration": 12, "velocity": 64}, {"time": 2484, "pitch": 71, "duration": 12, "velocity": 64}, {"time": 2496, "pitch": 69, "duration": 12, "velocity": 64}, {"time": 2508, "pitch": 71, "duration": 6, "velocity": 64}, {"time": 2514, "pitch": 74, "duration": 6, "velocity": 64}, {"time": 2520, "pitch": 67, "duration": 12, "velocity": 64}, {"time": 2532, "pitch": 69, "duration": 12, "velocity": 64}, {"time": 2544, "pitch": 71, "duration": 24, "velocity": 64}, {"time": 2568, "pitch": 69, "duration": 18, "velocity": 64}, {"time": 2586, "pitch": 66, "duration": 6, "velocity": 64}, {"time": 2592, "pitch": 64, "duration": 12, "velocity": 64}, {"time": 2604, "pitch": 71, "duration": 12, "velocity": 64}, {"time": 2616, "pitch": 62, "duration": 12, "velocity": 64}, {"time": 2628, "pitch": 64, "duration": 12, "velocity": 64}, {"time": 2640, "pitch": 67, "duration": 18, "velocity": 64}, {"time": 2658, "pitch": 71, "duration": 6, "velocity": 64}, {"time": 2664, "pitch": 66, "duration": 12, "velocity": 64}, {"time": 2676, "pitch": 64, "duration": 12, "velocity": 64}, {"time": 2688, "pitch": 62, "duration": 36, "velocity": 64}, {"time": 2736, "pitch": 67, "duration": 18, "velocity": 64}, {"time": 2754, "pitch": 71, "duration": 6, "velocity": 64}, {"time": 2760, "pitch": 71, "duration": 12, "velocity": 64}, {"time": 2772, "pitch": 71, "duration": 12, "velocity": 64}, {"time": 2784, "pitch": 69, "duration": 12, "velocity": 64}, {"time": 2796, "pitch": 71, "duration": 12, "velocity": 64}, {"time": 2808, "pitch": 66, "duration": 12, "velocity": 64}, {"time": 2820, "pitch": 64, "duration": 12, "velocity": 64}, {"time": 2832, "pitch": 62, "duration": 12, "velocity": 64}, {"time": 2844, "pitch": 64, "duration": 12, "velocity": 64}, {"time": 2856, "pitch": 66, "duration": 12, "velocity": 64}, {"time": 2868, "pitch": 71, "duration": 12, "velocity": 64}, {"time": 2880, "pitch": 64, "duration": 12, "velocity": 64}, {"time": 2892, "pitch": 67, "duration": 12, "velocity": 64}, {"time": 2904, "pitch": 69, "duration": 12, "velocity": 64}, {"time": 2916, "pitch": 71, "duration": 12, "velocity": 64}, {"time": 2928, "pitch": 67, "duration": 48, "velocity": 64}, {"time": 2976, "pitch": 64, "duration": 12, "velocity": 64}, {"time": 2988, "pitch": 62, "duration": 12, "velocity": 64}, {"time": 3000, "pitch": 64, "duration": 12, "velocity": 64}, {"time": 3012, "pitch": 67, "duration": 12, "velocity": 64}, {"time": 3024, "pitch": 71, "duration": 12, "velocity": 64}, {"time": 3036, "pitch": 74, "duration": 12, "velocity": 64}, {"time": 3048, "pitch": 71, "duration": 12, "velocity": 64}, {"time": 3060, "pitch": 69, "duration": 12, "velocity": 64}, {"time": 3072, "pitch": 66, "duration": 12, "velocity": 64}, {"time": 3084, "pitch": 64, "duration": 12, "velocity": 64}, {"time": 3096, "pitch": 66, "duration": 12, "velocity": 64}, {"time": 3108, "pitch": 71, "duration": 12, "velocity": 64}, {"time": 3120, "pitch": 64, "duration": 12, "velocity": 64}, {"time": 3132, "pitch": 62, "duration": 12, "velocity": 64}, {"time": 3144, "pitch": 66, "duration": 12, "velocity": 64}, {"time": 3156, "pitch": 64, "duration": 12, "velocity": 64}, {"time": 3168, "pitch": 62, "duration": 48, "velocity": 64}, {"time": 3216, "pitch": 64, "duration": 24, "velocity": 64}, {"time": 3240, "pitch": 71, "duration": 24, "velocity": 64}, {"time": 3264, "pitch": 69, "duration": 18, "velocity": 64}, {"time": 3282, "pitch": 71, "duration": 6, "velocity": 64}, {"time": 3288, "pitch": 69, "duration": 6, "velocity": 64}, {"time": 3294, "pitch": 71, "duration": 6, "velocity": 64}, {"time": 3300, "pitch": 72, "duration": 6, "velocity": 64}, {"time": 3306, "pitch": 74, "duration": 6, "velocity": 64}, {"time": 3312, "pitch": 71, "duration": 48, "velocity": 64}, {"time": 3360, "pitch": 71, "duration": 12, "velocity": 64}, {"time": 3372, "pitch": 74, "duration": 12, "velocity": 64}, {"time": 3384, "pitch": 71, "duration": 12, "velocity": 64}, {"time": 3396, "pitch": 66, "duration": 12, "velocity": 64}, {"time": 3408, "pitch": 64, "duration": 12, "velocity": 64}, {"time": 3420, "pitch": 62, "duration": 12, "velocity": 64}, {"time": 3432, "pitch": 64, "duration": 12, "velocity": 64}, {"time": 3444, "pitch": 71, "duration": 12, "velocity": 64}, {"time": 3456, "pitch": 62, "duration": 12, "velocity": 64}, {"time": 3468, "pitch": 59, "duration": 12, "velocity": 64}, {"time": 3480, "pitch": 62, "duration": 24, "velocity": 64}, {"time": 3504, "pitch": 64, "duration": 12, "velocity": 64}, {"time": 3516, "pitch": 67, "duration": 12, "velocity": 64}, {"time": 3528, "pitch": 69, "duration": 12, "velocity": 64}, {"time": 3540, "pitch": 71, "duration": 12, "velocity": 64}, {"time": 3552, "pitch": 67, "duration": 48, "velocity": 64}, {"time": 3600, "pitch": 71, "duration": 24, "velocity": 64}, {"time": 3624, "pitch": 67, "duration": 24, "velocity": 64}, {"time": 3648, "pitch": 62, "duration": 12, "velocity": 64}, {"time": 3660, "pitch": 59, "duration": 12, "velocity": 64}, {"time": 3672, "pitch": 62, "duration": 24, "velocity": 64}, {"time": 3696, "pitch": 71, "duration": 12, "velocity": 64}, {"time": 3708, "pitch": 74, "duration": 12, "velocity": 64}, {"time": 3720, "pitch": 71, "duration": 6, "velocity": 64}, {"time": 3726, "pitch": 69, "duration": 6, "velocity": 64}, {"time": 3732, "pitch": 66, "duration": 12, "velocity": 64}, {"time": 3744, "pitch": 64, "duration": 12, "velocity": 64}, {"time": 3756, "pitch": 67, "duration": 12, "velocity": 64}, {"time": 3768, "pitch": 69, "duration": 12, "velocity": 64}, {"time": 3780, "pitch": 71, "duration": 12, "velocity": 64}, {"time": 3792, "pitch": 67, "duration": 48, "velocity": 64}, {"time": 3840, "pitch": 71, "duration": 24, "velocity": 64}, {"time": 3864, "pitch": 64, "duration": 24, "velocity": 64}, {"time": 3888, "pitch": 67, "duration": 12, "velocity": 64}, {"time": 3900, "pitch": 69, "duration": 12, "velocity": 64}, {"time": 3912, "pitch": 71, "duration": 12, "velocity": 64}, {"time": 3924, "pitch": 74, "duration": 12, "velocity": 64}, {"time": 3936, "pitch": 69, "duration": 12, "velocity": 64}, {"time": 3948, "pitch": 71, "duration": 12, "velocity": 64}, {"time": 3960, "pitch": 69, "duration": 12, "velocity": 64}, {"time": 3972, "pitch": 66, "duration": 12, "velocity": 64}, {"time": 3984, "pitch": 64, "duration": 12, "velocity": 64}, {"time": 3996, "pitch": 62, "duration": 12, "velocity": 64}, {"time": 4008, "pitch": 67, "duration": 24, "velocity": 64}, {"time": 4032, "pitch": 64, "duration": 12, "velocity": 64}, {"time": 4044, "pitch": 62, "duration": 12, "velocity": 64}, {"time": 4056, "pitch": 66, "duration": 12, "velocity": 64}, {"time": 4068, "pitch": 64, "duration": 12, "velocity": 64}, {"time": 4080, "pitch": 62, "duration": 48, "velocity": 64}]}]}