{"metadata": {"schema_version": "0.1", "title": "Yidui xiaoyiangqe", "source_format": "abc"}, "resolution": 24, "tempos": [{"time": 0, "qpm": 120.0}], "key_signatures": [{"time": 0, "root": 0, "mode": "major", "fifths": 0}], "time_signatures": [{"time": 0, "numerator": 4, "denominator": 4}, {"time": 144, "numerator": 3, "denominator": 4}, {"time": 312, "numerator": 3, "denominator": 4}, {"time": 528, "numerator": 1, "denominator": 4}, {"time": 888, "numerator": 3, "denominator": 4}, {"time": 960, "numerator": 2, "denominator": 4}], "beats": [{"time": 0, "is_downbeat": true}, {"time": 24, "is_downbeat": false}, {"time": 48, "is_downbeat": true}, {"time": 72, "is_downbeat": false}, {"time": 96, "is_downbeat": true}, {"time": 120, "is_downbeat": false}, {"time": 144, "is_downbeat": true}, {"time": 168, "is_downbeat": false}, {"time": 192, "is_downbeat": false}, {"time": 216, "is_downbeat": true}, {"time": 240, "is_downbeat": false}, {"time": 264, "is_downbeat": true}, {"time": 288, "is_downbeat": false}, {"time": 312, "is_downbeat": true}, {"time": 336, "is_downbeat": true}, {"time": 360, "is_downbeat": true}, {"time": 384, "is_downbeat": true}, {"time": 408, "is_downbeat": true}, {"time": 432, "is_downbeat": true}, {"time": 456, "is_downbeat": true}, {"time": 480, "is_downbeat": true}, {"time": 504, "is_downbeat": true}, {"time": 528, "is_downbeat": true}, {"time": 552, "is_downbeat": true}, {"time": 576, "is_downbeat": false}, {"time": 600, "is_downbeat": true}, {"time": 624, "is_downbeat": false}, {"time": 648, "is_downbeat": true}, {"time": 672, "is_downbeat": false}, {"time": 696, "is_downbeat": true}, {"time": 720, "is_downbeat": false}, {"time": 744, "is_downbeat": true}, {"time": 768, "is_downbeat": false}, {"time": 792, "is_downbeat": true}, {"time": 816, "is_downbeat": false}, {"time": 840, "is_downbeat": true}, {"time": 864, "is_downbeat": false}, {"time": 888, "is_downbeat": true}, {"time": 912, "is_downbeat": false}, {"time": 936, "is_downbeat": true}, {"time": 960, "is_downbeat": true}, {"time": 984, "is_downbeat": false}, {"time": 1008, "is_downbeat": true}, {"time": 1032, "is_downbeat": false}], "tracks": [{"program": 0, "is_drum": false, "notes": [{"time": 0, "pitch": 64, "duration": 12, "velocity": 64}, {"time": 12, "pitch": 64, "duration": 6, "velocity": 64}, {"time": 18, "pitch": 62, "duration": 6, "velocity": 64}, {"time": 24, "pitch": 64, "duration": 12, "velocity": 64}, {"time": 36, "pitch": 60, "duration": 12, "velocity": 64}, {"time": 48, "pitch": 62, "duration": 48, "velocity": 64}, {"time": 96, "pitch": 62, "duration": 6, "velocity": 64}, {"time": 102, "pitch": 64, "duration": 6, "velocity": 64}, {"time": 108, "pitch": 62, "duration": 6, "velocity": 64}, {"time": 114, "pitch": 60, "duration": 6, "velocity": 64}, {"time": 120, "pitch": 60, "duration": 48, "velocity": 64}, {"time": 168, "pitch": 60, "duration": 12, "velocity": 64}, {"time": 180, "pitch": 60, "duration": 12, "velocity": 64}, {"time": 192, "pitch": 60, "duration": 12, "velocity": 64}, {"time": 204, "pitch": 60, "duration": 12, "velocity": 64}, {"time": 216, "pitch": 62, "duration": 48, "velocity": 64}, {"time": 264, "pitch": 62, "duration": 6, "velocity": 64}, {"time": 270, "pitch": 64, "duration": 6, "velocity": 64}, {"time": 276, "pitch": 62, "duration": 6, "velocity": 64}, {"time": 282, "pitch": 60, "duration": 6, "velocity": 64}, {"time": 288, "pitch": 60, "duration": 48, "velocity": 64}, {"time": 336, "pitch": 60, "duration": 12, "velocity": 64}, {"time": 348, "pitch": 62, "duration": 6, "velocity": 64}, {"time": 354, "pitch": 64, "duration": 6, "velocity": 64}, {"time": 360, "pitch": 60, "duration": 12, "velocity": 64}, {"time": 372, "pitch": 62, "duration": 6, "velocity": 64}, {"time": 378, "pitch": 64, "duration": 6, "velocity": 64}, {"time": 384, "pitch": 62, "duration": 6, "velocity": 64}, {"time": 390, "pitch": 60, "duration": 6, "velocity": 64}, {"time": 396, "pitch": 60, "duration": 6, "velocity": 64}, {"time": 402, "pitch": 57, "duration": 6, "velocity": 64}, {"time": 408, "pitch": 55, "duration": 24, "velocity": 64}, {"time": 432, "pitch": 62, "duration": 12, "velocity": 64}, {"time": 444, "pitch": 64, "duration": 12, "velocity": 64}, {"time": 456, "pitch": 62, "duration": 12, "velocity": 64}, {"time": 468, "pitch": 64, "duration": 12, "velocity": 64}, {"time": 480, "pitch": 62, "duration": 6, "velocity": 64}, {"time": 486, "pitch": 64, "duration": 6, "velocity": 64}, {"time": 492, "pitch": 62, "duration": 6, "velocity": 64}, {"time": 498, "pitch": 60, "duration": 6, "velocity": 64}, {"time": 504, "pitch": 62, "duration": 6, "velocity": 64}, {"time": 510, "pitch": 64, "duration": 6, "velocity": 64}, {"time": 516, "pitch": 62, "duration": 6, "velocity": 64}, {"time": 522, "pitch": 60, "duration": 6, "velocity": 64}, {"time": 528, "pitch": 57, "duration": 24, "velocity": 64}, {"time": 552, "pitch": 60, "duration": 12, "velocity": 64}, {"time": 564, "pitch": 62, "duration": 6, "velocity": 64}, {"time": 570, "pitch": 64, "duration": 6, "velocity": 64}, {"time": 576, "pitch": 62, "duration": 12, "velocity": 64}, {"time": 588, "pitch": 60, "duration": 12, "velocity": 64}, {"time": 600, "pitch": 57, "duration": 6, "velocity": 64}, {"time": 606, "pitch": 55, "duration": 6, "velocity": 64}, {"time": 612, "pitch": 60, "duration": 6, "velocity": 64}, {"time": 618, "pitch": 57, "duration": 6, "velocity": 64}, {"time": 624, "pitch": 55, "duration": 24, "velocity": 64}, {"time": 648, "pitch": 62, "duration": 6, "velocity": 64}, {"time": 654, "pitch": 62, "duration": 6, "velocity": 64}, {"time": 660, "pitch": 64, "duration": 6, "velocity": 64}, {"time": 666, "pitch": 62, "duration": 6, "velocity": 64}, {"time": 672, "pitch": 60, "duration": 24, "velocity": 64}, {"time": 696, "pitch": 62, "duration": 12, "velocity": 64}, {"time": 708, "pitch": 64, "duration": 6, "velocity": 64}, {"time": 714, "pitch": 62, "duration": 6, "velocity": 64}, {"time": 720, "pitch": 60, "duration": 24, "velocity": 64}, {"time": 744, "pitch": 64, "duration": 12, "velocity": 64}, {"time": 756, "pitch": 64, "duration": 6, "velocity": 64}, {"time": 762, "pitch": 62, "duration": 6, "velocity": 64}, {"time": 768, "pitch": 60, "duration": 12, "velocity": 64}, {"time": 780, "pitch": 60, "duration": 12, "velocity": 64}, {"time": 792, "pitch": 62, "duration": 48, "velocity": 64}, {"time": 840, "pitch": 62, "duration": 6, "velocity": 64}, {"time": 846, "pitch": 64, "duration": 6, "velocity": 64}, {"time": 852, "pitch": 62, "duration": 6, "velocity": 64}, {"time": 858, "pitch": 60, "duration": 6, "velocity": 64}, {"time": 864, "pitch": 60, "duration": 48, "velocity": 64}, {"time": 912, "pitch": 60, "duration": 12, "velocity": 64}, {"time": 924, "pitch": 62, "duration": 6, "velocity": 64}, {"time": 930, "pitch": 64, "duration": 6, "velocity": 64}, {"time": 936, "pitch": 62, "duration": 6, "velocity": 64}, {"time": 942, "pitch": 60, "duration": 6, "velocity": 64}, {"time": 948, "pitch": 60, "duration": 6, "velocity": 64}, {"time": 954, "pitch": 57, "duration": 6, "velocity": 64}, {"time": 960, "pitch": 55, "duration": 36, "velocity": 64}, {"time": 996, "pitch": 57, "duration": 12, "velocity": 64}, {"time": 1008, "pitch": 55, "duration": 24, "velocity": 64}]}]}