{"metadata": {"schema_version": "0.1", "title": "Jinnian niantou xiyiangayiang", "source_format": "abc"}, "resolution": 24, "tempos": [{"time": 0, "qpm": 120.0}], "key_signatures": [{"time": 0, "root": 4, "mode": "major", "fifths": 4}], "time_signatures": [{"time": 0, "numerator": 4, "denominator": 4}, {"time": 192, "numerator": 1, "denominator": 4}, {"time": 408, "numerator": 3, "denominator": 4}, {"time": 576, "numerator": 1, "denominator": 4}, {"time": 600, "numerator": 2, "denominator": 4}], "beats": [{"time": 0, "is_downbeat": true}, {"time": 24, "is_downbeat": true}, {"time": 48, "is_downbeat": true}, {"time": 72, "is_downbeat": true}, {"time": 96, "is_downbeat": true}, {"time": 120, "is_downbeat": true}, {"time": 144, "is_downbeat": true}, {"time": 168, "is_downbeat": true}, {"time": 192, "is_downbeat": true}, {"time": 216, "is_downbeat": true}, {"time": 240, "is_downbeat": false}, {"time": 264, "is_downbeat": true}, {"time": 288, "is_downbeat": false}, {"time": 312, "is_downbeat": true}, {"time": 336, "is_downbeat": false}, {"time": 360, "is_downbeat": true}, {"time": 384, "is_downbeat": false}, {"time": 408, "is_downbeat": true}, {"time": 432, "is_downbeat": true}, {"time": 456, "is_downbeat": true}, {"time": 480, "is_downbeat": true}, {"time": 504, "is_downbeat": true}, {"time": 528, "is_downbeat": true}, {"time": 552, "is_downbeat": true}, {"time": 576, "is_downbeat": true}, {"time": 600, "is_downbeat": true}, {"time": 624, "is_downbeat": false}, {"time": 648, "is_downbeat": true}, {"time": 672, "is_downbeat": false}, {"time": 696, "is_downbeat": true}, {"time": 720, "is_downbeat": false}, {"time": 744, "is_downbeat": true}, {"time": 768, "is_downbeat": false}, {"time": 792, "is_downbeat": true}, {"time": 816, "is_downbeat": false}, {"time": 840, "is_downbeat": true}, {"time": 864, "is_downbeat": false}, {"time": 888, "is_downbeat": true}, {"time": 912, "is_downbeat": false}, {"time": 936, "is_downbeat": true}, {"time": 960, "is_downbeat": false}, {"time": 984, "is_downbeat": true}, {"time": 1008, "is_downbeat": false}, {"time": 1032, "is_downbeat": true}, {"time": 1056, "is_downbeat": false}, {"time": 1080, "is_downbeat": true}, {"time": 1104, "is_downbeat": false}, {"time": 1128, "is_downbeat": true}, {"time": 1152, "is_downbeat": false}, {"time": 1176, "is_downbeat": true}, {"time": 1200, "is_downbeat": false}, {"time": 1224, "is_downbeat": true}, {"time": 1248, "is_downbeat": false}, {"time": 1272, "is_downbeat": true}, {"time": 1296, "is_downbeat": false}, {"time": 1320, "is_downbeat": true}, {"time": 1344, "is_downbeat": false}, {"time": 1368, "is_downbeat": true}, {"time": 1392, "is_downbeat": false}, {"time": 1416, "is_downbeat": true}, {"time": 1440, "is_downbeat": false}, {"time": 1464, "is_downbeat": true}, {"time": 1488, "is_downbeat": false}, {"time": 1512, "is_downbeat": true}, {"time": 1536, "is_downbeat": false}, {"time": 1560, "is_downbeat": true}, {"time": 1584, "is_downbeat": false}], "tracks": [{"program": 0, "is_drum": false, "notes": [{"time": 0, "pitch": 66, "duration": 36, "velocity": 64}, {"time": 36, "pitch": 61, "duration": 12, "velocity": 64}, {"time": 48, "pitch": 59, "duration": 12, "velocity": 64}, {"time": 60, "pitch": 61, "duration": 12, "velocity": 64}, {"time": 72, "pitch": 64, "duration": 12, "velocity": 64}, {"time": 84, "pitch": 66, "duration": 12, "velocity": 64}, {"time": 96, "pitch": 64, "duration": 48, "velocity": 64}, {"time": 144, "pitch": 64, "duration": 12, "velocity": 64}, {"time": 156, "pitch": 66, "duration": 12, "velocity": 64}, {"time": 168, "pitch": 68, "duration": 12, "velocity": 64}, {"time": 180, "pitch": 68, "duration": 12, "velocity": 64}, {"time": 192, "pitch": 71, "duration": 24, "velocity": 64}, {"time": 216, "pitch": 73, "duration": 12, "velocity": 64}, {"time": 228, "pitch": 73, "duration": 6, "velocity": 64}, {"time": 234, "pitch": 71, "duration": 6, "velocity": 64}, {"time": 240, "pitch": 68, "duration": 24, "velocity": 64}, {"time": 264, "pitch": 71, "duration": 24, "velocity": 64}, {"time": 288, "pitch": 73, "duration": 12, "velocity": 64}, {"time": 300, "pitch": 68, "duration": 12, "velocity": 64}, {"time": 312, "pitch": 66, "duration": 12, "velocity": 64}, {"time": 324, "pitch": 61, "duration": 12, "velocity": 64}, {"time": 336, "pitch": 64, "duration": 12, "velocity": 64}, {"time": 348, "pitch": 66, "duration": 12, "velocity": 64}, {"time": 360, "pitch": 64, "duration": 6, "velocity": 64}, {"time": 366, "pitch": 66, "duration": 6, "velocity": 64}, {"time": 372, "pitch": 61, "duration": 12, "velocity": 64}, {"time": 384, "pitch": 59, "duration": 48, "velocity": 64}, {"time": 432, "pitch": 59, "duration": 12, "velocity": 64}, {"time": 444, "pitch": 61, "duration": 12, "velocity": 64}, {"time": 456, "pitch": 64, "duration": 12, "velocity": 64}, {"time": 468, "pitch": 66, "duration": 12, "velocity": 64}, {"time": 480, "pitch": 64, "duration": 48, "velocity": 64}, {"time": 528, "pitch": 64, "duration": 12, "velocity": 64}, {"time": 540, "pitch": 66, "duration": 12, "velocity": 64}, {"time": 552, "pitch": 68, "duration": 12, "velocity": 64}, {"time": 564, "pitch": 68, "duration": 12, "velocity": 64}, {"time": 576, "pitch": 71, "duration": 24, "velocity": 64}, {"time": 600, "pitch": 73, "duration": 12, "velocity": 64}, {"time": 612, "pitch": 73, "duration": 6, "velocity": 64}, {"time": 618, "pitch": 71, "duration": 6, "velocity": 64}, {"time": 624, "pitch": 68, "duration": 24, "velocity": 64}, {"time": 648, "pitch": 71, "duration": 12, "velocity": 64}, {"time": 660, "pitch": 73, "duration": 12, "velocity": 64}, {"time": 672, "pitch": 64, "duration": 24, "velocity": 64}, {"time": 696, "pitch": 66, "duration": 24, "velocity": 64}, {"time": 720, "pitch": 68, "duration": 24, "velocity": 64}, {"time": 744, "pitch": 68, "duration": 12, "velocity": 64}, {"time": 756, "pitch": 66, "duration": 12, "velocity": 64}, {"time": 768, "pitch": 66, "duration": 48, "velocity": 64}, {"time": 816, "pitch": 68, "duration": 24, "velocity": 64}, {"time": 840, "pitch": 68, "duration": 12, "velocity": 64}, {"time": 852, "pitch": 66, "duration": 36, "velocity": 64}, {"time": 888, "pitch": 71, "duration": 24, "velocity": 64}, {"time": 912, "pitch": 76, "duration": 12, "velocity": 64}, {"time": 924, "pitch": 71, "duration": 12, "velocity": 64}, {"time": 936, "pitch": 73, "duration": 48, "velocity": 64}, {"time": 984, "pitch": 78, "duration": 24, "velocity": 64}, {"time": 1008, "pitch": 76, "duration": 12, "velocity": 64}, {"time": 1020, "pitch": 73, "duration": 12, "velocity": 64}, {"time": 1032, "pitch": 73, "duration": 12, "velocity": 64}, {"time": 1044, "pitch": 71, "duration": 12, "velocity": 64}, {"time": 1056, "pitch": 68, "duration": 24, "velocity": 64}, {"time": 1080, "pitch": 68, "duration": 12, "velocity": 64}, {"time": 1128, "pitch": 73, "duration": 24, "velocity": 64}, {"time": 1152, "pitch": 76, "duration": 12, "velocity": 64}, {"time": 1164, "pitch": 73, "duration": 12, "velocity": 64}, {"time": 1176, "pitch": 71, "duration": 48, "velocity": 64}, {"time": 1224, "pitch": 73, "duration": 24, "velocity": 64}, {"time": 1248, "pitch": 71, "duration": 12, "velocity": 64}, {"time": 1260, "pitch": 68, "duration": 12, "velocity": 64}, {"time": 1272, "pitch": 66, "duration": 48, "velocity": 64}, {"time": 1320, "pitch": 66, "duration": 12, "velocity": 64}, {"time": 1332, "pitch": 68, "duration": 12, "velocity": 64}, {"time": 1344, "pitch": 71, "duration": 12, "velocity": 64}, {"time": 1356, "pitch": 76, "duration": 12, "velocity": 64}, {"time": 1368, "pitch": 73, "duration": 12, "velocity": 64}, {"time": 1380, "pitch": 71, "duration": 12, "velocity": 64}, {"time": 1392, "pitch": 68, "duration": 24, "velocity": 64}, {"time": 1416, "pitch": 73, "duration": 24, "velocity": 64}, {"time": 1440, "pitch": 71, "duration": 12, "velocity": 64}, {"time": 1452, "pitch": 68, "duration": 12, "velocity": 64}, {"time": 1464, "pitch": 68, "duration": 12, "velocity": 64}, {"time": 1476, "pitch": 66, "duration": 12, "velocity": 64}, {"time": 1488, "pitch": 64, "duration": 48, "velocity": 64}, {"time": 1536, "pitch": 66, "duration": 24, "velocity": 64}, {"time": 1560, "pitch": 61, "duration": 24, "velocity": 64}]}]}