{"metadata": {"schema_version": "0.1", "title": "Siji Songhuaibei", "source_format": "abc"}, "resolution": 24, "tempos": [{"time": 0, "qpm": 120.0}], "key_signatures": [{"time": 0, "root": 2, "mode": "major", "fifths": 2}], "time_signatures": [{"time": 0, "numerator": 4, "denominator": 4}, {"time": 48, "numerator": 1, "denominator": 16}, {"time": 54, "numerator": 2, "denominator": 4}], "beats": [{"time": 0, "is_downbeat": true}, {"time": 6, "is_downbeat": true}, {"time": 12, "is_downbeat": true}, {"time": 18, "is_downbeat": true}, {"time": 24, "is_downbeat": true}, {"time": 30, "is_downbeat": true}, {"time": 36, "is_downbeat": true}, {"time": 42, "is_downbeat": true}, {"time": 48, "is_downbeat": true}, {"time": 54, "is_downbeat": true}, {"time": 78, "is_downbeat": false}, {"time": 102, "is_downbeat": true}, {"time": 126, "is_downbeat": false}, {"time": 150, "is_downbeat": true}, {"time": 174, "is_downbeat": false}, {"time": 198, "is_downbeat": true}, {"time": 222, "is_downbeat": false}, {"time": 246, "is_downbeat": true}, {"time": 270, "is_downbeat": false}, {"time": 294, "is_downbeat": true}, {"time": 318, "is_downbeat": false}, {"time": 342, "is_downbeat": true}, {"time": 366, "is_downbeat": false}, {"time": 390, "is_downbeat": true}, {"time": 414, "is_downbeat": false}, {"time": 438, "is_downbeat": true}, {"time": 462, "is_downbeat": false}, {"time": 486, "is_downbeat": true}, {"time": 510, "is_downbeat": false}, {"time": 534, "is_downbeat": true}, {"time": 558, "is_downbeat": false}, {"time": 582, "is_downbeat": true}, {"time": 606, "is_downbeat": false}, {"time": 630, "is_downbeat": true}, {"time": 654, "is_downbeat": false}, {"time": 678, "is_downbeat": true}, {"time": 702, "is_downbeat": false}, {"time": 726, "is_downbeat": true}, {"time": 750, "is_downbeat": false}, {"time": 774, "is_downbeat": true}, {"time": 798, "is_downbeat": false}, {"time": 822, "is_downbeat": true}, {"time": 846, "is_downbeat": false}, {"time": 870, "is_downbeat": true}, {"time": 894, "is_downbeat": false}, {"time": 918, "is_downbeat": true}, {"time": 942, "is_downbeat": false}, {"time": 966, "is_downbeat": true}, {"time": 990, "is_downbeat": false}, {"time": 1014, "is_downbeat": true}, {"time": 1038, "is_downbeat": false}, {"time": 1062, "is_downbeat": true}, {"time": 1086, "is_downbeat": false}], "tracks": [{"program": 0, "is_drum": false, "notes": [{"time": 0, "pitch": 76, "duration": 18, "velocity": 64}, {"time": 18, "pitch": 78, "duration": 6, "velocity": 64}, {"time": 24, "pitch": 74, "duration": 18, "velocity": 64}, {"time": 42, "pitch": 71, "duration": 12, "velocity": 64}, {"time": 54, "pitch": 76, "duration": 18, "velocity": 64}, {"time": 72, "pitch": 78, "duration": 6, "velocity": 64}, {"time": 78, "pitch": 76, "duration": 6, "velocity": 64}, {"time": 84, "pitch": 78, "duration": 6, "velocity": 64}, {"time": 90, "pitch": 71, "duration": 12, "velocity": 64}, {"time": 102, "pitch": 69, "duration": 18, "velocity": 64}, {"time": 120, "pitch": 66, "duration": 6, "velocity": 64}, {"time": 126, "pitch": 69, "duration": 12, "velocity": 64}, {"time": 138, "pitch": 71, "duration": 12, "velocity": 64}, {"time": 150, "pitch": 74, "duration": 36, "velocity": 64}, {"time": 186, "pitch": 71, "duration": 12, "velocity": 64}, {"time": 198, "pitch": 74, "duration": 12, "velocity": 64}, {"time": 210, "pitch": 76, "duration": 6, "velocity": 64}, {"time": 216, "pitch": 78, "duration": 6, "velocity": 64}, {"time": 222, "pitch": 71, "duration": 12, "velocity": 64}, {"time": 234, "pitch": 69, "duration": 12, "velocity": 64}, {"time": 246, "pitch": 66, "duration": 18, "velocity": 64}, {"time": 264, "pitch": 69, "duration": 6, "velocity": 64}, {"time": 270, "pitch": 64, "duration": 12, "velocity": 64}, {"time": 282, "pitch": 62, "duration": 12, "velocity": 64}, {"time": 294, "pitch": 69, "duration": 12, "velocity": 64}, {"time": 306, "pitch": 69, "duration": 6, "velocity": 64}, {"time": 312, "pitch": 66, "duration": 6, "velocity": 64}, {"time": 318, "pitch": 69, "duration": 12, "velocity": 64}, {"time": 330, "pitch": 71, "duration": 12, "velocity": 64}, {"time": 342, "pitch": 74, "duration": 48, "velocity": 64}, {"time": 390, "pitch": 76, "duration": 6, "velocity": 64}, {"time": 396, "pitch": 78, "duration": 6, "velocity": 64}, {"time": 402, "pitch": 76, "duration": 6, "velocity": 64}, {"time": 408, "pitch": 71, "duration": 6, "velocity": 64}, {"time": 414, "pitch": 74, "duration": 18, "velocity": 64}, {"time": 432, "pitch": 78, "duration": 6, "velocity": 64}, {"time": 438, "pitch": 76, "duration": 6, "velocity": 64}, {"time": 444, "pitch": 74, "duration": 6, "velocity": 64}, {"time": 450, "pitch": 71, "duration": 12, "velocity": 64}, {"time": 462, "pitch": 69, "duration": 24, "velocity": 64}, {"time": 486, "pitch": 69, "duration": 12, "velocity": 64}, {"time": 498, "pitch": 71, "duration": 6, "velocity": 64}, {"time": 504, "pitch": 74, "duration": 6, "velocity": 64}, {"time": 510, "pitch": 71, "duration": 6, "velocity": 64}, {"time": 516, "pitch": 69, "duration": 6, "velocity": 64}, {"time": 522, "pitch": 66, "duration": 6, "velocity": 64}, {"time": 528, "pitch": 69, "duration": 6, "velocity": 64}, {"time": 534, "pitch": 64, "duration": 18, "velocity": 64}, {"time": 552, "pitch": 62, "duration": 6, "velocity": 64}, {"time": 558, "pitch": 64, "duration": 18, "velocity": 64}, {"time": 576, "pitch": 66, "duration": 6, "velocity": 64}, {"time": 582, "pitch": 69, "duration": 12, "velocity": 64}, {"time": 594, "pitch": 71, "duration": 6, "velocity": 64}, {"time": 600, "pitch": 74, "duration": 6, "velocity": 64}, {"time": 606, "pitch": 71, "duration": 6, "velocity": 64}, {"time": 612, "pitch": 69, "duration": 6, "velocity": 64}, {"time": 618, "pitch": 66, "duration": 6, "velocity": 64}, {"time": 624, "pitch": 69, "duration": 6, "velocity": 64}, {"time": 630, "pitch": 64, "duration": 48, "velocity": 64}, {"time": 678, "pitch": 69, "duration": 18, "velocity": 64}, {"time": 696, "pitch": 71, "duration": 6, "velocity": 64}, {"time": 702, "pitch": 74, "duration": 18, "velocity": 64}, {"time": 720, "pitch": 78, "duration": 6, "velocity": 64}, {"time": 726, "pitch": 76, "duration": 12, "velocity": 64}, {"time": 738, "pitch": 74, "duration": 6, "velocity": 64}, {"time": 744, "pitch": 71, "duration": 6, "velocity": 64}, {"time": 750, "pitch": 69, "duration": 24, "velocity": 64}, {"time": 774, "pitch": 74, "duration": 12, "velocity": 64}, {"time": 786, "pitch": 76, "duration": 6, "velocity": 64}, {"time": 792, "pitch": 78, "duration": 6, "velocity": 64}, {"time": 798, "pitch": 76, "duration": 12, "velocity": 64}, {"time": 810, "pitch": 74, "duration": 12, "velocity": 64}, {"time": 822, "pitch": 71, "duration": 12, "velocity": 64}, {"time": 834, "pitch": 73, "duration": 12, "velocity": 64}, {"time": 846, "pitch": 71, "duration": 12, "velocity": 64}, {"time": 858, "pitch": 69, "duration": 12, "velocity": 64}, {"time": 870, "pitch": 64, "duration": 18, "velocity": 64}, {"time": 888, "pitch": 62, "duration": 6, "velocity": 64}, {"time": 894, "pitch": 64, "duration": 6, "velocity": 64}, {"time": 900, "pitch": 62, "duration": 6, "velocity": 64}, {"time": 906, "pitch": 64, "duration": 6, "velocity": 64}, {"time": 912, "pitch": 66, "duration": 6, "velocity": 64}, {"time": 918, "pitch": 69, "duration": 48, "velocity": 64}, {"time": 966, "pitch": 74, "duration": 12, "velocity": 64}, {"time": 978, "pitch": 76, "duration": 6, "velocity": 64}, {"time": 984, "pitch": 78, "duration": 6, "velocity": 64}, {"time": 990, "pitch": 76, "duration": 12, "velocity": 64}, {"time": 1002, "pitch": 74, "duration": 12, "velocity": 64}, {"time": 1014, "pitch": 71, "duration": 12, "velocity": 64}, {"time": 1026, "pitch": 69, "duration": 6, "velocity": 64}, {"time": 1032, "pitch": 71, "duration": 6, "velocity": 64}, {"time": 1038, "pitch": 74, "duration": 12, "velocity": 64}, {"time": 1050, "pitch": 69, "duration": 12, "velocity": 64}, {"time": 1062, "pitch": 71, "duration": 48, "velocity": 64}]}]}