{"metadata": {"schema_version": "0.1", "title": "Shuiben yangtian fanlanghua", "source_format": "abc"}, "resolution": 24, "tempos": [{"time": 0, "qpm": 120.0}], "key_signatures": [{"time": 0, "root": 9, "mode": "major", "fifths": 3}], "time_signatures": [{"time": 0, "numerator": 4, "denominator": 4}, {"time": 144, "numerator": 3, "denominator": 4}, {"time": 216, "numerator": 2, "denominator": 4}], "beats": [{"time": 0, "is_downbeat": true}, {"time": 24, "is_downbeat": false}, {"time": 48, "is_downbeat": true}, {"time": 72, "is_downbeat": false}, {"time": 96, "is_downbeat": true}, {"time": 120, "is_downbeat": false}, {"time": 144, "is_downbeat": true}, {"time": 168, "is_downbeat": false}, {"time": 192, "is_downbeat": true}, {"time": 216, "is_downbeat": true}, {"time": 240, "is_downbeat": false}, {"time": 264, "is_downbeat": true}, {"time": 288, "is_downbeat": false}, {"time": 312, "is_downbeat": true}, {"time": 336, "is_downbeat": false}, {"time": 360, "is_downbeat": true}, {"time": 384, "is_downbeat": false}, {"time": 408, "is_downbeat": true}, {"time": 432, "is_downbeat": false}, {"time": 456, "is_downbeat": true}, {"time": 480, "is_downbeat": false}, {"time": 504, "is_downbeat": true}, {"time": 528, "is_downbeat": false}, {"time": 552, "is_downbeat": true}, {"time": 576, "is_downbeat": false}, {"time": 600, "is_downbeat": true}, {"time": 624, "is_downbeat": false}, {"time": 648, "is_downbeat": true}, {"time": 672, "is_downbeat": false}, {"time": 696, "is_downbeat": true}, {"time": 720, "is_downbeat": false}, {"time": 744, "is_downbeat": true}, {"time": 768, "is_downbeat": false}, {"time": 792, "is_downbeat": true}, {"time": 816, "is_downbeat": false}, {"time": 840, "is_downbeat": true}, {"time": 864, "is_downbeat": false}, {"time": 888, "is_downbeat": true}, {"time": 912, "is_downbeat": false}, {"time": 936, "is_downbeat": true}, {"time": 960, "is_downbeat": false}], "tracks": [{"program": 0, "is_drum": false, "notes": [{"time": 0, "pitch": 81, "duration": 12, "velocity": 64}, {"time": 12, "pitch": 83, "duration": 12, "velocity": 64}, {"time": 24, "pitch": 81, "duration": 12, "velocity": 64}, {"time": 36, "pitch": 83, "duration": 12, "velocity": 64}, {"time": 48, "pitch": 73, "duration": 12, "velocity": 64}, {"time": 60, "pitch": 83, "duration": 12, "velocity": 64}, {"time": 72, "pitch": 73, "duration": 24, "velocity": 64}, {"time": 96, "pitch": 73, "duration": 18, "velocity": 64}, {"time": 114, "pitch": 83, "duration": 6, "velocity": 64}, {"time": 120, "pitch": 81, "duration": 48, "velocity": 64}, {"time": 168, "pitch": 81, "duration": 12, "velocity": 64}, {"time": 180, "pitch": 83, "duration": 12, "velocity": 64}, {"time": 192, "pitch": 73, "duration": 24, "velocity": 64}, {"time": 216, "pitch": 76, "duration": 12, "velocity": 64}, {"time": 228, "pitch": 73, "duration": 24, "velocity": 64}, {"time": 252, "pitch": 83, "duration": 12, "velocity": 64}, {"time": 264, "pitch": 81, "duration": 48, "velocity": 64}, {"time": 324, "pitch": 73, "duration": 12, "velocity": 64}, {"time": 336, "pitch": 73, "duration": 24, "velocity": 64}, {"time": 360, "pitch": 83, "duration": 24, "velocity": 64}, {"time": 384, "pitch": 83, "duration": 24, "velocity": 64}, {"time": 408, "pitch": 83, "duration": 24, "velocity": 64}, {"time": 432, "pitch": 78, "duration": 12, "velocity": 64}, {"time": 444, "pitch": 81, "duration": 12, "velocity": 64}, {"time": 456, "pitch": 83, "duration": 18, "velocity": 64}, {"time": 474, "pitch": 73, "duration": 6, "velocity": 64}, {"time": 480, "pitch": 81, "duration": 24, "velocity": 64}, {"time": 504, "pitch": 85, "duration": 24, "velocity": 64}, {"time": 528, "pitch": 85, "duration": 24, "velocity": 64}, {"time": 552, "pitch": 85, "duration": 12, "velocity": 64}, {"time": 564, "pitch": 85, "duration": 12, "velocity": 64}, {"time": 576, "pitch": 85, "duration": 12, "velocity": 64}, {"time": 588, "pitch": 85, "duration": 12, "velocity": 64}, {"time": 600, "pitch": 85, "duration": 24, "velocity": 64}, {"time": 648, "pitch": 81, "duration": 12, "velocity": 64}, {"time": 660, "pitch": 83, "duration": 12, "velocity": 64}, {"time": 672, "pitch": 81, "duration": 12, "velocity": 64}, {"time": 684, "pitch": 83, "duration": 12, "velocity": 64}, {"time": 696, "pitch": 73, "duration": 12, "velocity": 64}, {"time": 708, "pitch": 83, "duration": 12, "velocity": 64}, {"time": 720, "pitch": 73, "duration": 24, "velocity": 64}, {"time": 744, "pitch": 83, "duration": 12, "velocity": 64}, {"time": 756, "pitch": 81, "duration": 12, "velocity": 64}, {"time": 768, "pitch": 83, "duration": 24, "velocity": 64}, {"time": 792, "pitch": 73, "duration": 12, "velocity": 64}, {"time": 804, "pitch": 76, "duration": 12, "velocity": 64}, {"time": 816, "pitch": 73, "duration": 12, "velocity": 64}, {"time": 828, "pitch": 83, "duration": 12, "velocity": 64}, {"time": 840, "pitch": 81, "duration": 48, "velocity": 64}, {"time": 888, "pitch": 78, "duration": 24, "velocity": 64}, {"time": 912, "pitch": 73, "duration": 24, "velocity": 64}, {"time": 936, "pitch": 83, "duration": 12, "velocity": 64}, {"time": 948, "pitch": 73, "duration": 6, "velocity": 64}, {"time": 954, "pitch": 83, "duration": 6, "velocity": 64}, {"time": 960, "pitch": 81, "duration": 24, "velocity": 64}]}]}