{"metadata": {"schema_version": "0.1", "title": "lilangge", "source_format": "abc"}, "resolution": 24, "tempos": [{"time": 0, "qpm": 120.0}], "key_signatures": [{"time": 0, "root": 2, "mode": "major", "fifths": 2}], "time_signatures": [{"time": 0, "numerator": 4, "denominator": 4}, {"time": 192, "numerator": 1, "denominator": 4}, {"time": 264, "numerator": 3, "denominator": 4}, {"time": 480, "numerator": 1, "denominator": 4}, {"time": 552, "numerator": 3, "denominator": 4}, {"time": 672, "numerator": 3, "denominator": 4}, {"time": 888, "numerator": 1, "denominator": 4}, {"time": 960, "numerator": 3, "denominator": 4}, {"time": 1080, "numerator": 3, "denominator": 4}, {"time": 1296, "numerator": 1, "denominator": 4}, {"time": 1368, "numerator": 3, "denominator": 4}, {"time": 1488, "numerator": 3, "denominator": 4}, {"time": 1752, "numerator": 1, "denominator": 4}, {"time": 1824, "numerator": 3, "denominator": 4}, {"time": 1896, "numerator": 2, "denominator": 4}], "beats": [{"time": 0, "is_downbeat": true}, {"time": 24, "is_downbeat": true}, {"time": 48, "is_downbeat": true}, {"time": 72, "is_downbeat": true}, {"time": 96, "is_downbeat": true}, {"time": 120, "is_downbeat": true}, {"time": 144, "is_downbeat": true}, {"time": 168, "is_downbeat": true}, {"time": 192, "is_downbeat": true}, {"time": 216, "is_downbeat": true}, {"time": 240, "is_downbeat": false}, {"time": 264, "is_downbeat": true}, {"time": 288, "is_downbeat": true}, {"time": 312, "is_downbeat": true}, {"time": 336, "is_downbeat": true}, {"time": 360, "is_downbeat": true}, {"time": 384, "is_downbeat": true}, {"time": 408, "is_downbeat": true}, {"time": 432, "is_downbeat": true}, {"time": 456, "is_downbeat": true}, {"time": 480, "is_downbeat": true}, {"time": 504, "is_downbeat": true}, {"time": 528, "is_downbeat": false}, {"time": 552, "is_downbeat": true}, {"time": 576, "is_downbeat": false}, {"time": 600, "is_downbeat": false}, {"time": 624, "is_downbeat": true}, {"time": 648, "is_downbeat": false}, {"time": 672, "is_downbeat": true}, {"time": 696, "is_downbeat": true}, {"time": 720, "is_downbeat": true}, {"time": 744, "is_downbeat": true}, {"time": 768, "is_downbeat": true}, {"time": 792, "is_downbeat": true}, {"time": 816, "is_downbeat": true}, {"time": 840, "is_downbeat": true}, {"time": 864, "is_downbeat": true}, {"time": 888, "is_downbeat": true}, {"time": 912, "is_downbeat": true}, {"time": 936, "is_downbeat": false}, {"time": 960, "is_downbeat": true}, {"time": 984, "is_downbeat": false}, {"time": 1008, "is_downbeat": false}, {"time": 1032, "is_downbeat": true}, {"time": 1056, "is_downbeat": false}, {"time": 1080, "is_downbeat": true}, {"time": 1104, "is_downbeat": true}, {"time": 1128, "is_downbeat": true}, {"time": 1152, "is_downbeat": true}, {"time": 1176, "is_downbeat": true}, {"time": 1200, "is_downbeat": true}, {"time": 1224, "is_downbeat": true}, {"time": 1248, "is_downbeat": true}, {"time": 1272, "is_downbeat": true}, {"time": 1296, "is_downbeat": true}, {"time": 1320, "is_downbeat": true}, {"time": 1344, "is_downbeat": false}, {"time": 1368, "is_downbeat": true}, {"time": 1392, "is_downbeat": false}, {"time": 1416, "is_downbeat": false}, {"time": 1440, "is_downbeat": true}, {"time": 1464, "is_downbeat": false}, {"time": 1488, "is_downbeat": true}, {"time": 1512, "is_downbeat": true}, {"time": 1536, "is_downbeat": true}, {"time": 1560, "is_downbeat": true}, {"time": 1584, "is_downbeat": true}, {"time": 1608, "is_downbeat": true}, {"time": 1632, "is_downbeat": true}, {"time": 1656, "is_downbeat": true}, {"time": 1680, "is_downbeat": true}, {"time": 1704, "is_downbeat": true}, {"time": 1728, "is_downbeat": true}, {"time": 1752, "is_downbeat": true}, {"time": 1776, "is_downbeat": true}, {"time": 1800, "is_downbeat": false}, {"time": 1824, "is_downbeat": true}, {"time": 1848, "is_downbeat": false}, {"time": 1872, "is_downbeat": true}, {"time": 1896, "is_downbeat": true}, {"time": 1920, "is_downbeat": false}, {"time": 1944, "is_downbeat": true}, {"time": 1968, "is_downbeat": false}], "tracks": [{"program": 0, "is_drum": false, "notes": [{"time": 0, "pitch": 71, "duration": 6, "velocity": 64}, {"time": 6, "pitch": 71, "duration": 12, "velocity": 64}, {"time": 18, "pitch": 69, "duration": 6, "velocity": 64}, {"time": 24, "pitch": 71, "duration": 24, "velocity": 64}, {"time": 48, "pitch": 69, "duration": 6, "velocity": 64}, {"time": 54, "pitch": 71, "duration": 6, "velocity": 64}, {"time": 60, "pitch": 74, "duration": 12, "velocity": 64}, {"time": 72, "pitch": 71, "duration": 6, "velocity": 64}, {"time": 78, "pitch": 74, "duration": 6, "velocity": 64}, {"time": 84, "pitch": 71, "duration": 6, "velocity": 64}, {"time": 90, "pitch": 69, "duration": 6, "velocity": 64}, {"time": 96, "pitch": 66, "duration": 18, "velocity": 64}, {"time": 114, "pitch": 64, "duration": 6, "velocity": 64}, {"time": 120, "pitch": 66, "duration": 24, "velocity": 64}, {"time": 144, "pitch": 69, "duration": 12, "velocity": 64}, {"time": 156, "pitch": 66, "duration": 6, "velocity": 64}, {"time": 162, "pitch": 69, "duration": 6, "velocity": 64}, {"time": 168, "pitch": 71, "duration": 12, "velocity": 64}, {"time": 180, "pitch": 69, "duration": 6, "velocity": 64}, {"time": 186, "pitch": 66, "duration": 6, "velocity": 64}, {"time": 192, "pitch": 64, "duration": 24, "velocity": 64}, {"time": 216, "pitch": 62, "duration": 12, "velocity": 64}, {"time": 228, "pitch": 64, "duration": 6, "velocity": 64}, {"time": 234, "pitch": 62, "duration": 6, "velocity": 64}, {"time": 240, "pitch": 59, "duration": 18, "velocity": 64}, {"time": 258, "pitch": 57, "duration": 6, "velocity": 64}, {"time": 264, "pitch": 59, "duration": 24, "velocity": 64}, {"time": 288, "pitch": 74, "duration": 12, "velocity": 64}, {"time": 300, "pitch": 71, "duration": 6, "velocity": 64}, {"time": 306, "pitch": 69, "duration": 6, "velocity": 64}, {"time": 312, "pitch": 71, "duration": 24, "velocity": 64}, {"time": 336, "pitch": 69, "duration": 6, "velocity": 64}, {"time": 342, "pitch": 71, "duration": 6, "velocity": 64}, {"time": 348, "pitch": 74, "duration": 12, "velocity": 64}, {"time": 360, "pitch": 71, "duration": 6, "velocity": 64}, {"time": 366, "pitch": 74, "duration": 6, "velocity": 64}, {"time": 372, "pitch": 71, "duration": 6, "velocity": 64}, {"time": 378, "pitch": 69, "duration": 6, "velocity": 64}, {"time": 384, "pitch": 66, "duration": 18, "velocity": 64}, {"time": 402, "pitch": 64, "duration": 6, "velocity": 64}, {"time": 408, "pitch": 66, "duration": 24, "velocity": 64}, {"time": 432, "pitch": 69, "duration": 6, "velocity": 64}, {"time": 438, "pitch": 66, "duration": 6, "velocity": 64}, {"time": 444, "pitch": 69, "duration": 6, "velocity": 64}, {"time": 450, "pitch": 74, "duration": 6, "velocity": 64}, {"time": 456, "pitch": 71, "duration": 12, "velocity": 64}, {"time": 468, "pitch": 69, "duration": 6, "velocity": 64}, {"time": 474, "pitch": 66, "duration": 6, "velocity": 64}, {"time": 480, "pitch": 64, "duration": 18, "velocity": 64}, {"time": 498, "pitch": 66, "duration": 6, "velocity": 64}, {"time": 504, "pitch": 69, "duration": 12, "velocity": 64}, {"time": 516, "pitch": 66, "duration": 6, "velocity": 64}, {"time": 522, "pitch": 69, "duration": 6, "velocity": 64}, {"time": 528, "pitch": 64, "duration": 18, "velocity": 64}, {"time": 546, "pitch": 62, "duration": 6, "velocity": 64}, {"time": 552, "pitch": 59, "duration": 24, "velocity": 64}, {"time": 576, "pitch": 62, "duration": 6, "velocity": 64}, {"time": 582, "pitch": 62, "duration": 12, "velocity": 64}, {"time": 594, "pitch": 66, "duration": 6, "velocity": 64}, {"time": 600, "pitch": 64, "duration": 24, "velocity": 64}, {"time": 624, "pitch": 62, "duration": 12, "velocity": 64}, {"time": 636, "pitch": 64, "duration": 6, "velocity": 64}, {"time": 642, "pitch": 62, "duration": 6, "velocity": 64}, {"time": 648, "pitch": 59, "duration": 18, "velocity": 64}, {"time": 666, "pitch": 57, "duration": 6, "velocity": 64}, {"time": 672, "pitch": 59, "duration": 24, "velocity": 64}, {"time": 696, "pitch": 71, "duration": 12, "velocity": 64}, {"time": 708, "pitch": 71, "duration": 6, "velocity": 64}, {"time": 714, "pitch": 69, "duration": 6, "velocity": 64}, {"time": 720, "pitch": 71, "duration": 12, "velocity": 64}, {"time": 732, "pitch": 71, "duration": 12, "velocity": 64}, {"time": 744, "pitch": 69, "duration": 6, "velocity": 64}, {"time": 750, "pitch": 71, "duration": 6, "velocity": 64}, {"time": 756, "pitch": 74, "duration": 6, "velocity": 64}, {"time": 762, "pitch": 74, "duration": 6, "velocity": 64}, {"time": 768, "pitch": 71, "duration": 6, "velocity": 64}, {"time": 774, "pitch": 74, "duration": 6, "velocity": 64}, {"time": 780, "pitch": 71, "duration": 6, "velocity": 64}, {"time": 786, "pitch": 69, "duration": 6, "velocity": 64}, {"time": 792, "pitch": 66, "duration": 18, "velocity": 64}, {"time": 810, "pitch": 64, "duration": 6, "velocity": 64}, {"time": 816, "pitch": 66, "duration": 24, "velocity": 64}, {"time": 840, "pitch": 69, "duration": 6, "velocity": 64}, {"time": 846, "pitch": 66, "duration": 6, "velocity": 64}, {"time": 852, "pitch": 69, "duration": 6, "velocity": 64}, {"time": 858, "pitch": 74, "duration": 6, "velocity": 64}, {"time": 864, "pitch": 71, "duration": 12, "velocity": 64}, {"time": 876, "pitch": 69, "duration": 6, "velocity": 64}, {"time": 882, "pitch": 66, "duration": 6, "velocity": 64}, {"time": 888, "pitch": 64, "duration": 18, "velocity": 64}, {"time": 906, "pitch": 66, "duration": 6, "velocity": 64}, {"time": 912, "pitch": 69, "duration": 12, "velocity": 64}, {"time": 924, "pitch": 66, "duration": 6, "velocity": 64}, {"time": 930, "pitch": 69, "duration": 6, "velocity": 64}, {"time": 936, "pitch": 64, "duration": 18, "velocity": 64}, {"time": 954, "pitch": 62, "duration": 6, "velocity": 64}, {"time": 960, "pitch": 59, "duration": 24, "velocity": 64}, {"time": 984, "pitch": 62, "duration": 6, "velocity": 64}, {"time": 990, "pitch": 62, "duration": 12, "velocity": 64}, {"time": 1002, "pitch": 66, "duration": 6, "velocity": 64}, {"time": 1008, "pitch": 64, "duration": 24, "velocity": 64}, {"time": 1032, "pitch": 62, "duration": 12, "velocity": 64}, {"time": 1044, "pitch": 64, "duration": 6, "velocity": 64}, {"time": 1050, "pitch": 62, "duration": 6, "velocity": 64}, {"time": 1056, "pitch": 59, "duration": 18, "velocity": 64}, {"time": 1074, "pitch": 57, "duration": 6, "velocity": 64}, {"time": 1080, "pitch": 59, "duration": 24, "velocity": 64}, {"time": 1104, "pitch": 74, "duration": 12, "velocity": 64}, {"time": 1116, "pitch": 71, "duration": 6, "velocity": 64}, {"time": 1122, "pitch": 69, "duration": 6, "velocity": 64}, {"time": 1128, "pitch": 71, "duration": 24, "velocity": 64}, {"time": 1152, "pitch": 69, "duration": 6, "velocity": 64}, {"time": 1158, "pitch": 71, "duration": 6, "velocity": 64}, {"time": 1164, "pitch": 74, "duration": 12, "velocity": 64}, {"time": 1176, "pitch": 71, "duration": 6, "velocity": 64}, {"time": 1182, "pitch": 74, "duration": 6, "velocity": 64}, {"time": 1188, "pitch": 71, "duration": 6, "velocity": 64}, {"time": 1194, "pitch": 69, "duration": 6, "velocity": 64}, {"time": 1200, "pitch": 66, "duration": 18, "velocity": 64}, {"time": 1218, "pitch": 64, "duration": 6, "velocity": 64}, {"time": 1224, "pitch": 66, "duration": 24, "velocity": 64}, {"time": 1248, "pitch": 69, "duration": 6, "velocity": 64}, {"time": 1254, "pitch": 66, "duration": 6, "velocity": 64}, {"time": 1260, "pitch": 69, "duration": 6, "velocity": 64}, {"time": 1266, "pitch": 74, "duration": 6, "velocity": 64}, {"time": 1272, "pitch": 71, "duration": 12, "velocity": 64}, {"time": 1284, "pitch": 69, "duration": 6, "velocity": 64}, {"time": 1290, "pitch": 66, "duration": 6, "velocity": 64}, {"time": 1296, "pitch": 64, "duration": 18, "velocity": 64}, {"time": 1314, "pitch": 66, "duration": 6, "velocity": 64}, {"time": 1320, "pitch": 69, "duration": 12, "velocity": 64}, {"time": 1332, "pitch": 66, "duration": 6, "velocity": 64}, {"time": 1338, "pitch": 69, "duration": 6, "velocity": 64}, {"time": 1344, "pitch": 64, "duration": 18, "velocity": 64}, {"time": 1362, "pitch": 62, "duration": 6, "velocity": 64}, {"time": 1368, "pitch": 59, "duration": 24, "velocity": 64}, {"time": 1392, "pitch": 62, "duration": 6, "velocity": 64}, {"time": 1398, "pitch": 62, "duration": 12, "velocity": 64}, {"time": 1410, "pitch": 66, "duration": 6, "velocity": 64}, {"time": 1416, "pitch": 64, "duration": 24, "velocity": 64}, {"time": 1440, "pitch": 62, "duration": 12, "velocity": 64}, {"time": 1452, "pitch": 64, "duration": 6, "velocity": 64}, {"time": 1458, "pitch": 62, "duration": 6, "velocity": 64}, {"time": 1464, "pitch": 59, "duration": 18, "velocity": 64}, {"time": 1482, "pitch": 57, "duration": 6, "velocity": 64}, {"time": 1488, "pitch": 59, "duration": 24, "velocity": 64}, {"time": 1512, "pitch": 74, "duration": 12, "velocity": 64}, {"time": 1524, "pitch": 71, "duration": 6, "velocity": 64}, {"time": 1530, "pitch": 69, "duration": 6, "velocity": 64}, {"time": 1536, "pitch": 71, "duration": 12, "velocity": 64}, {"time": 1548, "pitch": 71, "duration": 12, "velocity": 64}, {"time": 1560, "pitch": 69, "duration": 6, "velocity": 64}, {"time": 1566, "pitch": 71, "duration": 6, "velocity": 64}, {"time": 1572, "pitch": 74, "duration": 6, "velocity": 64}, {"time": 1578, "pitch": 74, "duration": 6, "velocity": 64}, {"time": 1584, "pitch": 71, "duration": 6, "velocity": 64}, {"time": 1590, "pitch": 74, "duration": 6, "velocity": 64}, {"time": 1596, "pitch": 71, "duration": 6, "velocity": 64}, {"time": 1602, "pitch": 69, "duration": 6, "velocity": 64}, {"time": 1608, "pitch": 74, "duration": 18, "velocity": 64}, {"time": 1626, "pitch": 76, "duration": 6, "velocity": 64}, {"time": 1632, "pitch": 78, "duration": 72, "velocity": 64}, {"time": 1704, "pitch": 69, "duration": 6, "velocity": 64}, {"time": 1710, "pitch": 66, "duration": 6, "velocity": 64}, {"time": 1716, "pitch": 69, "duration": 6, "velocity": 64}, {"time": 1722, "pitch": 74, "duration": 6, "velocity": 64}, {"time": 1728, "pitch": 71, "duration": 12, "velocity": 64}, {"time": 1740, "pitch": 69, "duration": 6, "velocity": 64}, {"time": 1746, "pitch": 66, "duration": 6, "velocity": 64}, {"time": 1752, "pitch": 64, "duration": 18, "velocity": 64}, {"time": 1770, "pitch": 66, "duration": 6, "velocity": 64}, {"time": 1776, "pitch": 69, "duration": 6, "velocity": 64}, {"time": 1782, "pitch": 71, "duration": 6, "velocity": 64}, {"time": 1788, "pitch": 74, "duration": 6, "velocity": 64}, {"time": 1794, "pitch": 78, "duration": 6, "velocity": 64}, {"time": 1800, "pitch": 76, "duration": 18, "velocity": 64}, {"time": 1818, "pitch": 74, "duration": 6, "velocity": 64}, {"time": 1824, "pitch": 71, "duration": 24, "velocity": 64}, {"time": 1848, "pitch": 74, "duration": 6, "velocity": 64}, {"time": 1854, "pitch": 74, "duration": 12, "velocity": 64}, {"time": 1866, "pitch": 78, "duration": 6, "velocity": 64}, {"time": 1872, "pitch": 76, "duration": 24, "velocity": 64}, {"time": 1896, "pitch": 74, "duration": 12, "velocity": 64}, {"time": 1908, "pitch": 76, "duration": 6, "velocity": 64}, {"time": 1914, "pitch": 78, "duration": 6, "velocity": 64}, {"time": 1920, "pitch": 71, "duration": 18, "velocity": 64}, {"time": 1938, "pitch": 69, "duration": 6, "velocity": 64}, {"time": 1944, "pitch": 71, "duration": 48, "velocity": 64}]}]}