{"metadata": {"schema_version": "0.1", "title": "Alan he ahua", "source_format": "abc"}, "resolution": 24, "tempos": [{"time": 0, "qpm": 120.0}], "key_signatures": [{"time": 0, "root": 0, "mode": "major", "fifths": 0}], "time_signatures": [{"time": 0, "numerator": 4, "denominator": 4}, {"time": 96, "numerator": 1, "denominator": 4}, {"time": 456, "numerator": 6, "denominator": 8}, {"time": 528, "numerator": 2, "denominator": 4}, {"time": 912, "numerator": 1, "denominator": 4}], "beats": [{"time": 0, "is_downbeat": true}, {"time": 24, "is_downbeat": true}, {"time": 48, "is_downbeat": true}, {"time": 72, "is_downbeat": true}, {"time": 96, "is_downbeat": true}, {"time": 108, "is_downbeat": false}, {"time": 120, "is_downbeat": true}, {"time": 132, "is_downbeat": false}, {"time": 144, "is_downbeat": false}, {"time": 156, "is_downbeat": false}, {"time": 168, "is_downbeat": true}, {"time": 180, "is_downbeat": false}, {"time": 192, "is_downbeat": false}, {"time": 204, "is_downbeat": false}, {"time": 216, "is_downbeat": true}, {"time": 228, "is_downbeat": false}, {"time": 240, "is_downbeat": false}, {"time": 252, "is_downbeat": false}, {"time": 264, "is_downbeat": true}, {"time": 276, "is_downbeat": false}, {"time": 288, "is_downbeat": false}, {"time": 300, "is_downbeat": false}, {"time": 312, "is_downbeat": true}, {"time": 324, "is_downbeat": false}, {"time": 336, "is_downbeat": false}, {"time": 348, "is_downbeat": false}, {"time": 360, "is_downbeat": true}, {"time": 372, "is_downbeat": false}, {"time": 384, "is_downbeat": false}, {"time": 396, "is_downbeat": false}, {"time": 408, "is_downbeat": true}, {"time": 420, "is_downbeat": false}, {"time": 432, "is_downbeat": false}, {"time": 444, "is_downbeat": false}, {"time": 456, "is_downbeat": true}, {"time": 480, "is_downbeat": false}, {"time": 504, "is_downbeat": true}, {"time": 528, "is_downbeat": true}, {"time": 552, "is_downbeat": true}, {"time": 576, "is_downbeat": true}, {"time": 600, "is_downbeat": true}, {"time": 624, "is_downbeat": true}, {"time": 648, "is_downbeat": true}, {"time": 672, "is_downbeat": true}, {"time": 696, "is_downbeat": true}, {"time": 720, "is_downbeat": true}, {"time": 744, "is_downbeat": true}, {"time": 768, "is_downbeat": true}, {"time": 792, "is_downbeat": true}, {"time": 816, "is_downbeat": true}, {"time": 840, "is_downbeat": true}, {"time": 864, "is_downbeat": true}, {"time": 888, "is_downbeat": true}, {"time": 912, "is_downbeat": true}], "tracks": [{"program": 0, "is_drum": false, "notes": [{"time": 0, "pitch": 64, "duration": 12, "velocity": 64}, {"time": 12, "pitch": 64, "duration": 24, "velocity": 64}, {"time": 36, "pitch": 67, "duration": 12, "velocity": 64}, {"time": 48, "pitch": 64, "duration": 12, "velocity": 64}, {"time": 60, "pitch": 62, "duration": 12, "velocity": 64}, {"time": 72, "pitch": 64, "duration": 48, "velocity": 64}, {"time": 120, "pitch": 64, "duration": 12, "velocity": 64}, {"time": 132, "pitch": 67, "duration": 24, "velocity": 64}, {"time": 156, "pitch": 62, "duration": 12, "velocity": 64}, {"time": 168, "pitch": 64, "duration": 48, "velocity": 64}, {"time": 216, "pitch": 57, "duration": 12, "velocity": 64}, {"time": 228, "pitch": 64, "duration": 24, "velocity": 64}, {"time": 252, "pitch": 62, "duration": 12, "velocity": 64}, {"time": 264, "pitch": 60, "duration": 24, "velocity": 64}, {"time": 288, "pitch": 62, "duration": 12, "velocity": 64}, {"time": 300, "pitch": 60, "duration": 12, "velocity": 64}, {"time": 312, "pitch": 57, "duration": 48, "velocity": 64}, {"time": 360, "pitch": 62, "duration": 12, "velocity": 64}, {"time": 372, "pitch": 64, "duration": 12, "velocity": 64}, {"time": 384, "pitch": 62, "duration": 12, "velocity": 64}, {"time": 396, "pitch": 60, "duration": 12, "velocity": 64}, {"time": 408, "pitch": 57, "duration": 12, "velocity": 64}, {"time": 420, "pitch": 60, "duration": 12, "velocity": 64}, {"time": 432, "pitch": 57, "duration": 48, "velocity": 64}, {"time": 480, "pitch": 64, "duration": 12, "velocity": 64}, {"time": 492, "pitch": 64, "duration": 24, "velocity": 64}, {"time": 516, "pitch": 67, "duration": 12, "velocity": 64}, {"time": 528, "pitch": 64, "duration": 12, "velocity": 64}, {"time": 540, "pitch": 62, "duration": 12, "velocity": 64}, {"time": 552, "pitch": 64, "duration": 12, "velocity": 64}, {"time": 564, "pitch": 64, "duration": 6, "velocity": 64}, {"time": 570, "pitch": 64, "duration": 6, "velocity": 64}, {"time": 576, "pitch": 64, "duration": 12, "velocity": 64}, {"time": 588, "pitch": 67, "duration": 24, "velocity": 64}, {"time": 612, "pitch": 62, "duration": 12, "velocity": 64}, {"time": 624, "pitch": 64, "duration": 48, "velocity": 64}, {"time": 672, "pitch": 57, "duration": 12, "velocity": 64}, {"time": 684, "pitch": 64, "duration": 24, "velocity": 64}, {"time": 708, "pitch": 62, "duration": 12, "velocity": 64}, {"time": 720, "pitch": 60, "duration": 24, "velocity": 64}, {"time": 744, "pitch": 62, "duration": 12, "velocity": 64}, {"time": 756, "pitch": 60, "duration": 12, "velocity": 64}, {"time": 768, "pitch": 57, "duration": 48, "velocity": 64}, {"time": 816, "pitch": 62, "duration": 12, "velocity": 64}, {"time": 828, "pitch": 64, "duration": 12, "velocity": 64}, {"time": 840, "pitch": 62, "duration": 12, "velocity": 64}, {"time": 852, "pitch": 60, "duration": 12, "velocity": 64}, {"time": 864, "pitch": 57, "duration": 12, "velocity": 64}, {"time": 876, "pitch": 60, "duration": 12, "velocity": 64}, {"time": 888, "pitch": 57, "duration": 48, "velocity": 64}]}]}