{"metadata": {"schema_version": "0.1", "title": "ChangHuar,yaochang xinlihua", "source_format": "abc"}, "resolution": 24, "tempos": [{"time": 0, "qpm": 120.0}], "key_signatures": [{"time": 0, "root": 3, "mode": "major", "fifths": -3}], "time_signatures": [{"time": 0, "numerator": 4, "denominator": 4}, {"time": 648, "numerator": 1, "denominator": 4}, {"time": 744, "numerator": 1, "denominator": 4}, {"time": 840, "numerator": 2, "denominator": 4}, {"time": 1128, "numerator": 1, "denominator": 4}, {"time": 1224, "numerator": 1, "denominator": 4}, {"time": 1248, "numerator": 3, "denominator": 4}, {"time": 1320, "numerator": 1, "denominator": 4}], "beats": [{"time": 0, "is_downbeat": true}, {"time": 24, "is_downbeat": true}, {"time": 48, "is_downbeat": true}, {"time": 72, "is_downbeat": true}, {"time": 96, "is_downbeat": true}, {"time": 120, "is_downbeat": true}, {"time": 144, "is_downbeat": true}, {"time": 168, "is_downbeat": true}, {"time": 192, "is_downbeat": true}, {"time": 216, "is_downbeat": true}, {"time": 240, "is_downbeat": true}, {"time": 264, "is_downbeat": true}, {"time": 288, "is_downbeat": true}, {"time": 312, "is_downbeat": true}, {"time": 336, "is_downbeat": true}, {"time": 360, "is_downbeat": true}, {"time": 384, "is_downbeat": true}, {"time": 408, "is_downbeat": true}, {"time": 432, "is_downbeat": true}, {"time": 456, "is_downbeat": true}, {"time": 480, "is_downbeat": true}, {"time": 504, "is_downbeat": true}, {"time": 528, "is_downbeat": true}, {"time": 552, "is_downbeat": true}, {"time": 576, "is_downbeat": true}, {"time": 600, "is_downbeat": true}, {"time": 624, "is_downbeat": true}, {"time": 648, "is_downbeat": true}, {"time": 672, "is_downbeat": true}, {"time": 696, "is_downbeat": true}, {"time": 720, "is_downbeat": true}, {"time": 744, "is_downbeat": true}, {"time": 768, "is_downbeat": true}, {"time": 792, "is_downbeat": false}, {"time": 816, "is_downbeat": true}, {"time": 840, "is_downbeat": true}, {"time": 864, "is_downbeat": true}, {"time": 888, "is_downbeat": true}, {"time": 912, "is_downbeat": true}, {"time": 936, "is_downbeat": true}, {"time": 960, "is_downbeat": true}, {"time": 984, "is_downbeat": true}, {"time": 1008, "is_downbeat": true}, {"time": 1032, "is_downbeat": true}, {"time": 1056, "is_downbeat": true}, {"time": 1080, "is_downbeat": true}, {"time": 1104, "is_downbeat": true}, {"time": 1128, "is_downbeat": true}, {"time": 1152, "is_downbeat": true}, {"time": 1176, "is_downbeat": true}, {"time": 1200, "is_downbeat": true}, {"time": 1224, "is_downbeat": true}, {"time": 1248, "is_downbeat": true}, {"time": 1272, "is_downbeat": true}, {"time": 1296, "is_downbeat": true}, {"time": 1320, "is_downbeat": true}], "tracks": [{"program": 0, "is_drum": false, "notes": [{"time": 0, "pitch": 70, "duration": 24, "velocity": 64}, {"time": 24, "pitch": 68, "duration": 24, "velocity": 64}, {"time": 48, "pitch": 65, "duration": 24, "velocity": 64}, {"time": 72, "pitch": 70, "duration": 24, "velocity": 64}, {"time": 96, "pitch": 72, "duration": 12, "velocity": 64}, {"time": 108, "pitch": 75, "duration": 12, "velocity": 64}, {"time": 120, "pitch": 72, "duration": 24, "velocity": 64}, {"time": 144, "pitch": 77, "duration": 144, "velocity": 64}, {"time": 288, "pitch": 77, "duration": 24, "velocity": 64}, {"time": 312, "pitch": 75, "duration": 12, "velocity": 64}, {"time": 324, "pitch": 74, "duration": 12, "velocity": 64}, {"time": 336, "pitch": 72, "duration": 24, "velocity": 64}, {"time": 360, "pitch": 77, "duration": 24, "velocity": 64}, {"time": 384, "pitch": 75, "duration": 12, "velocity": 64}, {"time": 396, "pitch": 74, "duration": 12, "velocity": 64}, {"time": 408, "pitch": 72, "duration": 24, "velocity": 64}, {"time": 432, "pitch": 70, "duration": 24, "velocity": 64}, {"time": 456, "pitch": 68, "duration": 24, "velocity": 64}, {"time": 480, "pitch": 65, "duration": 72, "velocity": 64}, {"time": 564, "pitch": 65, "duration": 6, "velocity": 64}, {"time": 570, "pitch": 65, "duration": 6, "velocity": 64}, {"time": 576, "pitch": 70, "duration": 24, "velocity": 64}, {"time": 600, "pitch": 68, "duration": 48, "velocity": 64}, {"time": 648, "pitch": 70, "duration": 24, "velocity": 64}, {"time": 672, "pitch": 72, "duration": 48, "velocity": 64}, {"time": 720, "pitch": 77, "duration": 12, "velocity": 64}, {"time": 732, "pitch": 79, "duration": 12, "velocity": 64}, {"time": 744, "pitch": 72, "duration": 24, "velocity": 64}, {"time": 768, "pitch": 70, "duration": 12, "velocity": 64}, {"time": 780, "pitch": 70, "duration": 36, "velocity": 64}, {"time": 816, "pitch": 70, "duration": 12, "velocity": 64}, {"time": 828, "pitch": 70, "duration": 12, "velocity": 64}, {"time": 840, "pitch": 68, "duration": 24, "velocity": 64}, {"time": 864, "pitch": 65, "duration": 24, "velocity": 64}, {"time": 888, "pitch": 70, "duration": 24, "velocity": 64}, {"time": 912, "pitch": 72, "duration": 12, "velocity": 64}, {"time": 924, "pitch": 75, "duration": 12, "velocity": 64}, {"time": 936, "pitch": 72, "duration": 36, "velocity": 64}, {"time": 972, "pitch": 75, "duration": 12, "velocity": 64}, {"time": 984, "pitch": 77, "duration": 24, "velocity": 64}, {"time": 1008, "pitch": 75, "duration": 24, "velocity": 64}, {"time": 1032, "pitch": 77, "duration": 24, "velocity": 64}, {"time": 1056, "pitch": 75, "duration": 12, "velocity": 64}, {"time": 1068, "pitch": 74, "duration": 12, "velocity": 64}, {"time": 1080, "pitch": 72, "duration": 12, "velocity": 64}, {"time": 1104, "pitch": 77, "duration": 12, "velocity": 64}, {"time": 1116, "pitch": 77, "duration": 12, "velocity": 64}, {"time": 1128, "pitch": 77, "duration": 12, "velocity": 64}, {"time": 1140, "pitch": 75, "duration": 12, "velocity": 64}, {"time": 1152, "pitch": 72, "duration": 24, "velocity": 64}, {"time": 1176, "pitch": 75, "duration": 12, "velocity": 64}, {"time": 1188, "pitch": 77, "duration": 12, "velocity": 64}, {"time": 1200, "pitch": 72, "duration": 48, "velocity": 64}, {"time": 1248, "pitch": 72, "duration": 12, "velocity": 64}, {"time": 1260, "pitch": 70, "duration": 12, "velocity": 64}, {"time": 1272, "pitch": 70, "duration": 72, "velocity": 64}]}]}