{"metadata": {"schema_version": "0.1", "title": "Yidui gezi xukongli fei", "source_format": "abc"}, "resolution": 24, "tempos": [{"time": 0, "qpm": 120.0}], "key_signatures": [{"time": 0, "root": 9, "mode": "major", "fifths": 3}], "time_signatures": [{"time": 0, "numerator": 2, "denominator": 4}], "beats": [{"time": 0, "is_downbeat": true}, {"time": 24, "is_downbeat": true}, {"time": 48, "is_downbeat": true}, {"time": 72, "is_downbeat": true}, {"time": 96, "is_downbeat": true}, {"time": 120, "is_downbeat": true}, {"time": 144, "is_downbeat": true}, {"time": 168, "is_downbeat": true}, {"time": 192, "is_downbeat": true}, {"time": 216, "is_downbeat": true}, {"time": 240, "is_downbeat": true}, {"time": 264, "is_downbeat": true}, {"time": 288, "is_downbeat": true}, {"time": 312, "is_downbeat": true}, {"time": 336, "is_downbeat": true}, {"time": 360, "is_downbeat": true}, {"time": 384, "is_downbeat": false}], "tracks": [{"program": 0, "is_drum": false, "notes": [{"time": 0, "pitch": 69, "duration": 6, "velocity": 64}, {"time": 6, "pitch": 68, "duration": 6, "velocity": 64}, {"time": 12, "pitch": 69, "duration": 12, "velocity": 64}, {"time": 24, "pitch": 68, "duration": 6, "velocity": 64}, {"time": 30, "pitch": 69, "duration": 6, "velocity": 64}, {"time": 36, "pitch": 68, "duration": 6, "velocity": 64}, {"time": 42, "pitch": 69, "duration": 6, "velocity": 64}, {"time": 48, "pitch": 73, "duration": 9, "velocity": 64}, {"time": 57, "pitch": 74, "duration": 3, "velocity": 64}, {"time": 60, "pitch": 78, "duration": 9, "velocity": 64}, {"time": 69, "pitch": 80, "duration": 3, "velocity": 64}, {"time": 72, "pitch": 74, "duration": 6, "velocity": 64}, {"time": 78, "pitch": 73, "duration": 36, "velocity": 64}, {"time": 114, "pitch": 74, "duration": 6, "velocity": 64}, {"time": 120, "pitch": 73, "duration": 9, "velocity": 64}, {"time": 129, "pitch": 74, "duration": 3, "velocity": 64}, {"time": 132, "pitch": 78, "duration": 9, "velocity": 64}, {"time": 141, "pitch": 80, "duration": 3, "velocity": 64}, {"time": 144, "pitch": 68, "duration": 6, "velocity": 64}, {"time": 150, "pitch": 69, "duration": 42, "velocity": 64}, {"time": 192, "pitch": 69, "duration": 6, "velocity": 64}, {"time": 198, "pitch": 68, "duration": 6, "velocity": 64}, {"time": 204, "pitch": 69, "duration": 12, "velocity": 64}, {"time": 216, "pitch": 68, "duration": 6, "velocity": 64}, {"time": 222, "pitch": 69, "duration": 6, "velocity": 64}, {"time": 228, "pitch": 68, "duration": 6, "velocity": 64}, {"time": 234, "pitch": 69, "duration": 6, "velocity": 64}, {"time": 240, "pitch": 73, "duration": 9, "velocity": 64}, {"time": 249, "pitch": 74, "duration": 3, "velocity": 64}, {"time": 252, "pitch": 78, "duration": 6, "velocity": 64}, {"time": 258, "pitch": 80, "duration": 3, "velocity": 64}, {"time": 261, "pitch": 81, "duration": 3, "velocity": 64}, {"time": 264, "pitch": 74, "duration": 6, "velocity": 64}, {"time": 270, "pitch": 73, "duration": 6, "velocity": 64}, {"time": 276, "pitch": 73, "duration": 6, "velocity": 64}, {"time": 282, "pitch": 74, "duration": 6, "velocity": 64}, {"time": 288, "pitch": 66, "duration": 12, "velocity": 64}, {"time": 300, "pitch": 68, "duration": 9, "velocity": 64}, {"time": 309, "pitch": 66, "duration": 3, "velocity": 64}, {"time": 312, "pitch": 62, "duration": 18, "velocity": 64}, {"time": 330, "pitch": 61, "duration": 6, "velocity": 64}, {"time": 336, "pitch": 66, "duration": 6, "velocity": 64}, {"time": 342, "pitch": 68, "duration": 6, "velocity": 64}, {"time": 348, "pitch": 71, "duration": 6, "velocity": 64}, {"time": 354, "pitch": 68, "duration": 6, "velocity": 64}, {"time": 360, "pitch": 66, "duration": 24, "velocity": 64}]}]}