{"metadata": {"schema_version": "0.1", "title": "Hong mudan kaizai baihuayuan", "source_format": "abc"}, "resolution": 24, "tempos": [{"time": 0, "qpm": 120.0}], "key_signatures": [{"time": 0, "root": 10, "mode": "major", "fifths": -2}], "time_signatures": [{"time": 0, "numerator": 3, "denominator": 8}], "beats": [{"time": 0, "is_downbeat": true}, {"time": 12, "is_downbeat": true}, {"time": 24, "is_downbeat": false}, {"time": 36, "is_downbeat": false}, {"time": 48, "is_downbeat": true}, {"time": 60, "is_downbeat": false}, {"time": 72, "is_downbeat": false}, {"time": 84, "is_downbeat": true}, {"time": 96, "is_downbeat": false}, {"time": 108, "is_downbeat": false}, {"time": 120, "is_downbeat": true}, {"time": 132, "is_downbeat": false}, {"time": 144, "is_downbeat": false}, {"time": 156, "is_downbeat": true}, {"time": 168, "is_downbeat": false}, {"time": 180, "is_downbeat": false}, {"time": 192, "is_downbeat": true}, {"time": 204, "is_downbeat": false}, {"time": 216, "is_downbeat": false}, {"time": 228, "is_downbeat": true}, {"time": 240, "is_downbeat": false}, {"time": 252, "is_downbeat": false}, {"time": 264, "is_downbeat": true}, {"time": 276, "is_downbeat": false}, {"time": 288, "is_downbeat": false}, {"time": 300, "is_downbeat": true}, {"time": 312, "is_downbeat": false}, {"time": 324, "is_downbeat": false}, {"time": 336, "is_downbeat": true}, {"time": 348, "is_downbeat": false}, {"time": 360, "is_downbeat": false}, {"time": 372, "is_downbeat": true}, {"time": 384, "is_downbeat": false}, {"time": 396, "is_downbeat": false}, {"time": 408, "is_downbeat": true}, {"time": 420, "is_downbeat": false}, {"time": 432, "is_downbeat": false}, {"time": 444, "is_downbeat": true}, {"time": 456, "is_downbeat": false}, {"time": 468, "is_downbeat": false}, {"time": 480, "is_downbeat": true}, {"time": 492, "is_downbeat": false}, {"time": 504, "is_downbeat": false}, {"time": 516, "is_downbeat": true}, {"time": 528, "is_downbeat": false}, {"time": 540, "is_downbeat": false}, {"time": 552, "is_downbeat": true}, {"time": 564, "is_downbeat": false}, {"time": 576, "is_downbeat": false}], "tracks": [{"program": 0, "is_drum": false, "notes": [{"time": 0, "pitch": 82, "duration": 12, "velocity": 64}, {"time": 12, "pitch": 77, "duration": 12, "velocity": 64}, {"time": 24, "pitch": 79, "duration": 12, "velocity": 64}, {"time": 36, "pitch": 77, "duration": 12, "velocity": 64}, {"time": 48, "pitch": 74, "duration": 12, "velocity": 64}, {"time": 60, "pitch": 77, "duration": 12, "velocity": 64}, {"time": 72, "pitch": 77, "duration": 6, "velocity": 64}, {"time": 78, "pitch": 79, "duration": 6, "velocity": 64}, {"time": 84, "pitch": 77, "duration": 6, "velocity": 64}, {"time": 90, "pitch": 79, "duration": 6, "velocity": 64}, {"time": 96, "pitch": 82, "duration": 6, "velocity": 64}, {"time": 102, "pitch": 72, "duration": 6, "velocity": 64}, {"time": 108, "pitch": 74, "duration": 12, "velocity": 64}, {"time": 120, "pitch": 72, "duration": 60, "velocity": 64}, {"time": 180, "pitch": 74, "duration": 4, "velocity": 64}, {"time": 184, "pitch": 77, "duration": 4, "velocity": 64}, {"time": 188, "pitch": 79, "duration": 4, "velocity": 64}, {"time": 192, "pitch": 79, "duration": 12, "velocity": 64}, {"time": 204, "pitch": 77, "duration": 18, "velocity": 64}, {"time": 222, "pitch": 79, "duration": 6, "velocity": 64}, {"time": 228, "pitch": 77, "duration": 6, "velocity": 64}, {"time": 234, "pitch": 79, "duration": 6, "velocity": 64}, {"time": 240, "pitch": 82, "duration": 6, "velocity": 64}, {"time": 246, "pitch": 72, "duration": 6, "velocity": 64}, {"time": 252, "pitch": 74, "duration": 12, "velocity": 64}, {"time": 264, "pitch": 82, "duration": 60, "velocity": 64}, {"time": 336, "pitch": 74, "duration": 12, "velocity": 64}, {"time": 348, "pitch": 77, "duration": 12, "velocity": 64}, {"time": 360, "pitch": 79, "duration": 6, "velocity": 64}, {"time": 366, "pitch": 82, "duration": 6, "velocity": 64}, {"time": 372, "pitch": 77, "duration": 6, "velocity": 64}, {"time": 378, "pitch": 79, "duration": 6, "velocity": 64}, {"time": 384, "pitch": 82, "duration": 6, "velocity": 64}, {"time": 390, "pitch": 72, "duration": 6, "velocity": 64}, {"time": 396, "pitch": 74, "duration": 6, "velocity": 64}, {"time": 402, "pitch": 77, "duration": 6, "velocity": 64}, {"time": 408, "pitch": 79, "duration": 12, "velocity": 64}, {"time": 420, "pitch": 77, "duration": 18, "velocity": 64}, {"time": 438, "pitch": 79, "duration": 6, "velocity": 64}, {"time": 444, "pitch": 77, "duration": 6, "velocity": 64}, {"time": 450, "pitch": 79, "duration": 6, "velocity": 64}, {"time": 456, "pitch": 82, "duration": 6, "velocity": 64}, {"time": 462, "pitch": 72, "duration": 6, "velocity": 64}, {"time": 468, "pitch": 74, "duration": 12, "velocity": 64}, {"time": 480, "pitch": 82, "duration": 12, "velocity": 64}, {"time": 492, "pitch": 79, "duration": 24, "velocity": 64}, {"time": 516, "pitch": 77, "duration": 60, "velocity": 64}]}]}