{"metadata": {"schema_version": "0.1", "title": "Alima", "source_format": "abc"}, "resolution": 24, "tempos": [{"time": 0, "qpm": 120.0}], "key_signatures": [{"time": 0, "root": 3, "mode": "major", "fifths": -3}], "time_signatures": [{"time": 0, "numerator": 4, "denominator": 4}, {"time": 36, "numerator": 1, "denominator": 4}, {"time": 96, "numerator": 2, "denominator": 4}, {"time": 576, "numerator": 1, "denominator": 4}, {"time": 600, "numerator": 3, "denominator": 8}], "beats": [{"time": 0, "is_downbeat": true}, {"time": 24, "is_downbeat": true}, {"time": 36, "is_downbeat": true}, {"time": 60, "is_downbeat": true}, {"time": 84, "is_downbeat": false}, {"time": 96, "is_downbeat": true}, {"time": 120, "is_downbeat": true}, {"time": 144, "is_downbeat": true}, {"time": 168, "is_downbeat": true}, {"time": 180, "is_downbeat": true}, {"time": 204, "is_downbeat": true}, {"time": 216, "is_downbeat": true}, {"time": 240, "is_downbeat": true}, {"time": 252, "is_downbeat": true}, {"time": 276, "is_downbeat": true}, {"time": 288, "is_downbeat": true}, {"time": 312, "is_downbeat": true}, {"time": 324, "is_downbeat": true}, {"time": 348, "is_downbeat": true}, {"time": 360, "is_downbeat": true}, {"time": 384, "is_downbeat": true}, {"time": 396, "is_downbeat": true}, {"time": 420, "is_downbeat": true}, {"time": 432, "is_downbeat": true}, {"time": 456, "is_downbeat": true}, {"time": 468, "is_downbeat": true}, {"time": 492, "is_downbeat": true}, {"time": 504, "is_downbeat": true}, {"time": 528, "is_downbeat": true}, {"time": 540, "is_downbeat": true}, {"time": 564, "is_downbeat": true}, {"time": 576, "is_downbeat": true}, {"time": 588, "is_downbeat": false}, {"time": 600, "is_downbeat": true}, {"time": 612, "is_downbeat": false}, {"time": 624, "is_downbeat": false}, {"time": 636, "is_downbeat": true}, {"time": 648, "is_downbeat": false}, {"time": 660, "is_downbeat": false}, {"time": 672, "is_downbeat": true}, {"time": 684, "is_downbeat": false}, {"time": 696, "is_downbeat": false}, {"time": 708, "is_downbeat": true}, {"time": 720, "is_downbeat": false}, {"time": 732, "is_downbeat": false}, {"time": 744, "is_downbeat": true}, {"time": 756, "is_downbeat": false}, {"time": 768, "is_downbeat": false}, {"time": 780, "is_downbeat": true}, {"time": 792, "is_downbeat": false}, {"time": 804, "is_downbeat": false}, {"time": 816, "is_downbeat": true}, {"time": 828, "is_downbeat": false}, {"time": 840, "is_downbeat": false}, {"time": 852, "is_downbeat": true}, {"time": 864, "is_downbeat": false}, {"time": 876, "is_downbeat": false}, {"time": 888, "is_downbeat": true}, {"time": 900, "is_downbeat": false}, {"time": 912, "is_downbeat": false}, {"time": 924, "is_downbeat": true}, {"time": 936, "is_downbeat": false}, {"time": 948, "is_downbeat": false}, {"time": 960, "is_downbeat": true}, {"time": 972, "is_downbeat": false}, {"time": 984, "is_downbeat": false}, {"time": 996, "is_downbeat": true}, {"time": 1008, "is_downbeat": false}, {"time": 1020, "is_downbeat": false}, {"time": 1032, "is_downbeat": true}, {"time": 1044, "is_downbeat": false}, {"time": 1056, "is_downbeat": false}, {"time": 1068, "is_downbeat": true}, {"time": 1080, "is_downbeat": false}, {"time": 1092, "is_downbeat": false}, {"time": 1104, "is_downbeat": true}, {"time": 1116, "is_downbeat": false}, {"time": 1128, "is_downbeat": false}, {"time": 1140, "is_downbeat": true}, {"time": 1152, "is_downbeat": false}, {"time": 1164, "is_downbeat": false}, {"time": 1176, "is_downbeat": true}, {"time": 1188, "is_downbeat": false}, {"time": 1200, "is_downbeat": false}, {"time": 1212, "is_downbeat": true}, {"time": 1224, "is_downbeat": false}, {"time": 1236, "is_downbeat": false}], "tracks": [{"program": 0, "is_drum": false, "notes": [{"time": 0, "pitch": 70, "duration": 12, "velocity": 64}, {"time": 12, "pitch": 72, "duration": 12, "velocity": 64}, {"time": 24, "pitch": 75, "duration": 6, "velocity": 64}, {"time": 30, "pitch": 77, "duration": 6, "velocity": 64}, {"time": 36, "pitch": 75, "duration": 6, "velocity": 64}, {"time": 42, "pitch": 72, "duration": 6, "velocity": 64}, {"time": 48, "pitch": 75, "duration": 6, "velocity": 64}, {"time": 54, "pitch": 77, "duration": 42, "velocity": 64}, {"time": 96, "pitch": 72, "duration": 12, "velocity": 64}, {"time": 108, "pitch": 70, "duration": 12, "velocity": 64}, {"time": 120, "pitch": 72, "duration": 12, "velocity": 64}, {"time": 132, "pitch": 75, "duration": 12, "velocity": 64}, {"time": 144, "pitch": 75, "duration": 24, "velocity": 64}, {"time": 168, "pitch": 77, "duration": 6, "velocity": 64}, {"time": 174, "pitch": 75, "duration": 6, "velocity": 64}, {"time": 180, "pitch": 72, "duration": 12, "velocity": 64}, {"time": 216, "pitch": 72, "duration": 18, "velocity": 64}, {"time": 234, "pitch": 75, "duration": 6, "velocity": 64}, {"time": 240, "pitch": 67, "duration": 12, "velocity": 64}, {"time": 252, "pitch": 65, "duration": 24, "velocity": 64}, {"time": 276, "pitch": 65, "duration": 12, "velocity": 64}, {"time": 288, "pitch": 70, "duration": 24, "velocity": 64}, {"time": 312, "pitch": 72, "duration": 12, "velocity": 64}, {"time": 324, "pitch": 70, "duration": 60, "velocity": 64}, {"time": 384, "pitch": 72, "duration": 12, "velocity": 64}, {"time": 396, "pitch": 70, "duration": 12, "velocity": 64}, {"time": 408, "pitch": 72, "duration": 12, "velocity": 64}, {"time": 420, "pitch": 72, "duration": 12, "velocity": 64}, {"time": 432, "pitch": 75, "duration": 24, "velocity": 64}, {"time": 456, "pitch": 77, "duration": 6, "velocity": 64}, {"time": 462, "pitch": 75, "duration": 6, "velocity": 64}, {"time": 468, "pitch": 72, "duration": 12, "velocity": 64}, {"time": 480, "pitch": 77, "duration": 12, "velocity": 64}, {"time": 492, "pitch": 79, "duration": 12, "velocity": 64}, {"time": 504, "pitch": 72, "duration": 18, "velocity": 64}, {"time": 522, "pitch": 75, "duration": 6, "velocity": 64}, {"time": 528, "pitch": 67, "duration": 6, "velocity": 64}, {"time": 534, "pitch": 67, "duration": 6, "velocity": 64}, {"time": 540, "pitch": 65, "duration": 6, "velocity": 64}, {"time": 546, "pitch": 65, "duration": 6, "velocity": 64}, {"time": 552, "pitch": 65, "duration": 12, "velocity": 64}, {"time": 564, "pitch": 65, "duration": 12, "velocity": 64}, {"time": 576, "pitch": 65, "duration": 12, "velocity": 64}, {"time": 588, "pitch": 65, "duration": 12, "velocity": 64}, {"time": 600, "pitch": 70, "duration": 24, "velocity": 64}, {"time": 624, "pitch": 72, "duration": 12, "velocity": 64}, {"time": 636, "pitch": 70, "duration": 60, "velocity": 64}, {"time": 696, "pitch": 72, "duration": 12, "velocity": 64}, {"time": 708, "pitch": 70, "duration": 12, "velocity": 64}, {"time": 720, "pitch": 72, "duration": 12, "velocity": 64}, {"time": 732, "pitch": 72, "duration": 12, "velocity": 64}, {"time": 744, "pitch": 75, "duration": 24, "velocity": 64}, {"time": 768, "pitch": 77, "duration": 12, "velocity": 64}, {"time": 780, "pitch": 72, "duration": 12, "velocity": 64}, {"time": 792, "pitch": 77, "duration": 12, "velocity": 64}, {"time": 804, "pitch": 79, "duration": 12, "velocity": 64}, {"time": 816, "pitch": 72, "duration": 18, "velocity": 64}, {"time": 834, "pitch": 75, "duration": 6, "velocity": 64}, {"time": 840, "pitch": 67, "duration": 12, "velocity": 64}, {"time": 852, "pitch": 65, "duration": 36, "velocity": 64}, {"time": 888, "pitch": 70, "duration": 24, "velocity": 64}, {"time": 912, "pitch": 72, "duration": 6, "velocity": 64}, {"time": 918, "pitch": 75, "duration": 6, "velocity": 64}, {"time": 924, "pitch": 70, "duration": 24, "velocity": 64}, {"time": 954, "pitch": 70, "duration": 6, "velocity": 64}, {"time": 960, "pitch": 72, "duration": 36, "velocity": 64}, {"time": 1020, "pitch": 72, "duration": 4, "velocity": 64}, {"time": 1024, "pitch": 72, "duration": 4, "velocity": 64}, {"time": 1028, "pitch": 72, "duration": 4, "velocity": 64}, {"time": 1032, "pitch": 72, "duration": 18, "velocity": 64}, {"time": 1050, "pitch": 75, "duration": 6, "velocity": 64}, {"time": 1056, "pitch": 67, "duration": 12, "velocity": 64}, {"time": 1068, "pitch": 65, "duration": 24, "velocity": 64}, {"time": 1098, "pitch": 65, "duration": 6, "velocity": 64}, {"time": 1104, "pitch": 70, "duration": 12, "velocity": 64}, {"time": 1116, "pitch": 68, "duration": 12, "velocity": 64}, {"time": 1128, "pitch": 70, "duration": 12, "velocity": 64}, {"time": 1140, "pitch": 70, "duration": 24, "velocity": 64}, {"time": 1164, "pitch": 72, "duration": 12, "velocity": 64}, {"time": 1176, "pitch": 70, "duration": 72, "velocity": 64}]}]}