{"metadata": {"schema_version": "0.1", "title": "Shounan de huaer jiefang", "source_format": "abc"}, "resolution": 24, "tempos": [{"time": 0, "qpm": 120.0}], "key_signatures": [{"time": 0, "root": 0, "mode": "major", "fifths": 0}], "time_signatures": [{"time": 0, "numerator": 3, "denominator": 4}], "beats": [{"time": 0, "is_downbeat": true}, {"time": 24, "is_downbeat": false}, {"time": 48, "is_downbeat": false}, {"time": 72, "is_downbeat": true}, {"time": 96, "is_downbeat": false}, {"time": 120, "is_downbeat": true}, {"time": 144, "is_downbeat": false}, {"time": 168, "is_downbeat": true}, {"time": 192, "is_downbeat": false}, {"time": 216, "is_downbeat": true}, {"time": 240, "is_downbeat": false}, {"time": 264, "is_downbeat": true}, {"time": 288, "is_downbeat": false}, {"time": 312, "is_downbeat": true}, {"time": 336, "is_downbeat": false}, {"time": 360, "is_downbeat": true}, {"time": 384, "is_downbeat": false}, {"time": 408, "is_downbeat": true}, {"time": 432, "is_downbeat": false}, {"time": 456, "is_downbeat": true}, {"time": 480, "is_downbeat": false}, {"time": 504, "is_downbeat": false}], "tracks": [{"program": 0, "is_drum": false, "notes": [{"time": 0, "pitch": 62, "duration": 6, "velocity": 64}, {"time": 6, "pitch": 64, "duration": 6, "velocity": 64}, {"time": 12, "pitch": 67, "duration": 6, "velocity": 64}, {"time": 18, "pitch": 69, "duration": 6, "velocity": 64}, {"time": 24, "pitch": 64, "duration": 48, "velocity": 64}, {"time": 72, "pitch": 62, "duration": 6, "velocity": 64}, {"time": 78, "pitch": 64, "duration": 6, "velocity": 64}, {"time": 84, "pitch": 67, "duration": 12, "velocity": 64}, {"time": 96, "pitch": 69, "duration": 6, "velocity": 64}, {"time": 102, "pitch": 72, "duration": 6, "velocity": 64}, {"time": 108, "pitch": 74, "duration": 6, "velocity": 64}, {"time": 114, "pitch": 76, "duration": 6, "velocity": 64}, {"time": 120, "pitch": 74, "duration": 36, "velocity": 64}, {"time": 156, "pitch": 76, "duration": 6, "velocity": 64}, {"time": 162, "pitch": 79, "duration": 6, "velocity": 64}, {"time": 168, "pitch": 76, "duration": 12, "velocity": 64}, {"time": 180, "pitch": 67, "duration": 6, "velocity": 64}, {"time": 186, "pitch": 67, "duration": 6, "velocity": 64}, {"time": 192, "pitch": 69, "duration": 6, "velocity": 64}, {"time": 198, "pitch": 72, "duration": 6, "velocity": 64}, {"time": 204, "pitch": 74, "duration": 6, "velocity": 64}, {"time": 210, "pitch": 76, "duration": 6, "velocity": 64}, {"time": 216, "pitch": 72, "duration": 24, "velocity": 64}, {"time": 252, "pitch": 64, "duration": 6, "velocity": 64}, {"time": 258, "pitch": 64, "duration": 6, "velocity": 64}, {"time": 264, "pitch": 62, "duration": 6, "velocity": 64}, {"time": 270, "pitch": 64, "duration": 6, "velocity": 64}, {"time": 276, "pitch": 67, "duration": 6, "velocity": 64}, {"time": 282, "pitch": 69, "duration": 6, "velocity": 64}, {"time": 288, "pitch": 64, "duration": 24, "velocity": 64}, {"time": 312, "pitch": 62, "duration": 6, "velocity": 64}, {"time": 318, "pitch": 64, "duration": 6, "velocity": 64}, {"time": 324, "pitch": 67, "duration": 12, "velocity": 64}, {"time": 336, "pitch": 69, "duration": 6, "velocity": 64}, {"time": 342, "pitch": 72, "duration": 6, "velocity": 64}, {"time": 348, "pitch": 74, "duration": 6, "velocity": 64}, {"time": 354, "pitch": 76, "duration": 6, "velocity": 64}, {"time": 360, "pitch": 79, "duration": 12, "velocity": 64}, {"time": 372, "pitch": 76, "duration": 12, "velocity": 64}, {"time": 384, "pitch": 67, "duration": 6, "velocity": 64}, {"time": 390, "pitch": 69, "duration": 6, "velocity": 64}, {"time": 396, "pitch": 72, "duration": 6, "velocity": 64}, {"time": 402, "pitch": 74, "duration": 6, "velocity": 64}, {"time": 408, "pitch": 72, "duration": 6, "velocity": 64}, {"time": 414, "pitch": 74, "duration": 6, "velocity": 64}, {"time": 420, "pitch": 72, "duration": 6, "velocity": 64}, {"time": 426, "pitch": 69, "duration": 6, "velocity": 64}, {"time": 432, "pitch": 67, "duration": 12, "velocity": 64}, {"time": 444, "pitch": 67, "duration": 48, "velocity": 64}, {"time": 492, "pitch": 64, "duration": 12, "velocity": 64}]}]}