{"metadata": {"schema_version": "0.1", "title": "Ding ding luo gege luo", "source_format": "abc"}, "resolution": 24, "tempos": [{"time": 0, "qpm": 120.0}], "key_signatures": [{"time": 0, "root": 5, "mode": "major", "fifths": -1}], "time_signatures": [{"time": 0, "numerator": 4, "denominator": 4}, {"time": 288, "numerator": 6, "denominator": 8}, {"time": 360, "numerator": 2, "denominator": 4}], "beats": [{"time": 0, "is_downbeat": true}, {"time": 12, "is_downbeat": false}, {"time": 24, "is_downbeat": false}, {"time": 36, "is_downbeat": false}, {"time": 48, "is_downbeat": true}, {"time": 60, "is_downbeat": false}, {"time": 72, "is_downbeat": false}, {"time": 84, "is_downbeat": false}, {"time": 96, "is_downbeat": true}, {"time": 108, "is_downbeat": false}, {"time": 120, "is_downbeat": false}, {"time": 132, "is_downbeat": false}, {"time": 144, "is_downbeat": true}, {"time": 156, "is_downbeat": false}, {"time": 168, "is_downbeat": false}, {"time": 180, "is_downbeat": false}, {"time": 192, "is_downbeat": true}, {"time": 204, "is_downbeat": false}, {"time": 216, "is_downbeat": false}, {"time": 228, "is_downbeat": false}, {"time": 240, "is_downbeat": true}, {"time": 252, "is_downbeat": false}, {"time": 264, "is_downbeat": false}, {"time": 276, "is_downbeat": false}, {"time": 288, "is_downbeat": true}, {"time": 312, "is_downbeat": false}, {"time": 336, "is_downbeat": true}, {"time": 360, "is_downbeat": true}, {"time": 384, "is_downbeat": false}, {"time": 408, "is_downbeat": true}, {"time": 432, "is_downbeat": false}, {"time": 456, "is_downbeat": true}, {"time": 480, "is_downbeat": false}, {"time": 504, "is_downbeat": true}, {"time": 528, "is_downbeat": false}, {"time": 552, "is_downbeat": true}, {"time": 576, "is_downbeat": false}, {"time": 600, "is_downbeat": true}, {"time": 624, "is_downbeat": false}], "tracks": [{"program": 0, "is_drum": false, "notes": [{"time": 0, "pitch": 74, "duration": 12, "velocity": 64}, {"time": 12, "pitch": 74, "duration": 12, "velocity": 64}, {"time": 24, "pitch": 72, "duration": 24, "velocity": 64}, {"time": 48, "pitch": 74, "duration": 12, "velocity": 64}, {"time": 60, "pitch": 74, "duration": 12, "velocity": 64}, {"time": 72, "pitch": 72, "duration": 24, "velocity": 64}, {"time": 96, "pitch": 79, "duration": 12, "velocity": 64}, {"time": 120, "pitch": 77, "duration": 24, "velocity": 64}, {"time": 144, "pitch": 74, "duration": 12, "velocity": 64}, {"time": 156, "pitch": 72, "duration": 6, "velocity": 64}, {"time": 162, "pitch": 74, "duration": 6, "velocity": 64}, {"time": 168, "pitch": 77, "duration": 12, "velocity": 64}, {"time": 180, "pitch": 79, "duration": 12, "velocity": 64}, {"time": 192, "pitch": 77, "duration": 12, "velocity": 64}, {"time": 204, "pitch": 74, "duration": 12, "velocity": 64}, {"time": 216, "pitch": 72, "duration": 24, "velocity": 64}, {"time": 240, "pitch": 74, "duration": 72, "velocity": 64}, {"time": 324, "pitch": 77, "duration": 12, "velocity": 64}, {"time": 336, "pitch": 74, "duration": 12, "velocity": 64}, {"time": 360, "pitch": 72, "duration": 12, "velocity": 64}, {"time": 372, "pitch": 74, "duration": 12, "velocity": 64}, {"time": 384, "pitch": 77, "duration": 12, "velocity": 64}, {"time": 396, "pitch": 79, "duration": 6, "velocity": 64}, {"time": 402, "pitch": 79, "duration": 6, "velocity": 64}, {"time": 408, "pitch": 77, "duration": 12, "velocity": 64}, {"time": 420, "pitch": 77, "duration": 6, "velocity": 64}, {"time": 426, "pitch": 79, "duration": 6, "velocity": 64}, {"time": 432, "pitch": 74, "duration": 24, "velocity": 64}, {"time": 456, "pitch": 72, "duration": 12, "velocity": 64}, {"time": 468, "pitch": 74, "duration": 12, "velocity": 64}, {"time": 480, "pitch": 77, "duration": 12, "velocity": 64}, {"time": 492, "pitch": 79, "duration": 6, "velocity": 64}, {"time": 498, "pitch": 79, "duration": 6, "velocity": 64}, {"time": 504, "pitch": 74, "duration": 12, "velocity": 64}, {"time": 516, "pitch": 74, "duration": 6, "velocity": 64}, {"time": 522, "pitch": 77, "duration": 6, "velocity": 64}, {"time": 528, "pitch": 72, "duration": 24, "velocity": 64}, {"time": 552, "pitch": 74, "duration": 24, "velocity": 64}, {"time": 576, "pitch": 74, "duration": 12, "velocity": 64}, {"time": 588, "pitch": 77, "duration": 12, "velocity": 64}, {"time": 600, "pitch": 74, "duration": 24, "velocity": 64}]}]}