{"metadata": {"schema_version": "0.1", "title": "Lanchanggong", "source_format": "abc"}, "resolution": 24, "tempos": [{"time": 0, "qpm": 120.0}], "key_signatures": [{"time": 0, "root": 7, "mode": "major", "fifths": 1}], "time_signatures": [{"time": 0, "numerator": 2, "denominator": 4}], "beats": [{"time": 0, "is_downbeat": true}, {"time": 24, "is_downbeat": false}, {"time": 48, "is_downbeat": true}, {"time": 72, "is_downbeat": false}, {"time": 96, "is_downbeat": true}, {"time": 120, "is_downbeat": false}, {"time": 144, "is_downbeat": true}, {"time": 168, "is_downbeat": false}, {"time": 192, "is_downbeat": true}, {"time": 216, "is_downbeat": false}, {"time": 240, "is_downbeat": true}, {"time": 264, "is_downbeat": false}, {"time": 288, "is_downbeat": true}, {"time": 312, "is_downbeat": false}, {"time": 336, "is_downbeat": true}, {"time": 360, "is_downbeat": false}], "tracks": [{"program": 0, "is_drum": false, "notes": [{"time": 0, "pitch": 81, "duration": 6, "velocity": 64}, {"time": 6, "pitch": 81, "duration": 6, "velocity": 64}, {"time": 12, "pitch": 81, "duration": 6, "velocity": 64}, {"time": 18, "pitch": 83, "duration": 6, "velocity": 64}, {"time": 24, "pitch": 81, "duration": 6, "velocity": 64}, {"time": 30, "pitch": 79, "duration": 6, "velocity": 64}, {"time": 36, "pitch": 76, "duration": 12, "velocity": 64}, {"time": 48, "pitch": 79, "duration": 24, "velocity": 64}, {"time": 72, "pitch": 79, "duration": 12, "velocity": 64}, {"time": 84, "pitch": 76, "duration": 12, "velocity": 64}, {"time": 96, "pitch": 81, "duration": 6, "velocity": 64}, {"time": 102, "pitch": 81, "duration": 6, "velocity": 64}, {"time": 108, "pitch": 81, "duration": 6, "velocity": 64}, {"time": 114, "pitch": 83, "duration": 6, "velocity": 64}, {"time": 120, "pitch": 81, "duration": 6, "velocity": 64}, {"time": 126, "pitch": 79, "duration": 6, "velocity": 64}, {"time": 132, "pitch": 76, "duration": 12, "velocity": 64}, {"time": 144, "pitch": 79, "duration": 24, "velocity": 64}, {"time": 168, "pitch": 76, "duration": 24, "velocity": 64}, {"time": 192, "pitch": 81, "duration": 12, "velocity": 64}, {"time": 204, "pitch": 81, "duration": 6, "velocity": 64}, {"time": 210, "pitch": 83, "duration": 6, "velocity": 64}, {"time": 216, "pitch": 74, "duration": 24, "velocity": 64}, {"time": 240, "pitch": 74, "duration": 6, "velocity": 64}, {"time": 246, "pitch": 83, "duration": 6, "velocity": 64}, {"time": 252, "pitch": 83, "duration": 6, "velocity": 64}, {"time": 258, "pitch": 81, "duration": 6, "velocity": 64}, {"time": 264, "pitch": 74, "duration": 12, "velocity": 64}, {"time": 276, "pitch": 79, "duration": 6, "velocity": 64}, {"time": 282, "pitch": 79, "duration": 6, "velocity": 64}, {"time": 288, "pitch": 76, "duration": 6, "velocity": 64}, {"time": 294, "pitch": 79, "duration": 6, "velocity": 64}, {"time": 300, "pitch": 76, "duration": 6, "velocity": 64}, {"time": 306, "pitch": 74, "duration": 6, "velocity": 64}, {"time": 312, "pitch": 76, "duration": 6, "velocity": 64}, {"time": 318, "pitch": 74, "duration": 6, "velocity": 64}, {"time": 324, "pitch": 71, "duration": 12, "velocity": 64}, {"time": 336, "pitch": 74, "duration": 48, "velocity": 64}]}]}