{"metadata": {"schema_version": "0.1", "title": "Geming yiding neng chenggong", "source_format": "abc"}, "resolution": 24, "tempos": [{"time": 0, "qpm": 120.0}], "key_signatures": [{"time": 0, "root": 9, "mode": "major", "fifths": 3}], "time_signatures": [{"time": 0, "numerator": 4, "denominator": 4}, {"time": 96, "numerator": 3, "denominator": 4}, {"time": 168, "numerator": 2, "denominator": 4}], "beats": [{"time": 0, "is_downbeat": true}, {"time": 24, "is_downbeat": false}, {"time": 48, "is_downbeat": true}, {"time": 72, "is_downbeat": false}, {"time": 96, "is_downbeat": true}, {"time": 120, "is_downbeat": false}, {"time": 144, "is_downbeat": true}, {"time": 168, "is_downbeat": true}, {"time": 192, "is_downbeat": false}, {"time": 216, "is_downbeat": true}, {"time": 240, "is_downbeat": false}, {"time": 264, "is_downbeat": true}, {"time": 288, "is_downbeat": false}, {"time": 312, "is_downbeat": true}, {"time": 336, "is_downbeat": false}, {"time": 360, "is_downbeat": true}, {"time": 384, "is_downbeat": false}, {"time": 408, "is_downbeat": true}, {"time": 432, "is_downbeat": false}], "tracks": [{"program": 0, "is_drum": false, "notes": [{"time": 0, "pitch": 69, "duration": 6, "velocity": 64}, {"time": 6, "pitch": 71, "duration": 6, "velocity": 64}, {"time": 12, "pitch": 73, "duration": 6, "velocity": 64}, {"time": 18, "pitch": 76, "duration": 6, "velocity": 64}, {"time": 24, "pitch": 71, "duration": 24, "velocity": 64}, {"time": 48, "pitch": 73, "duration": 12, "velocity": 64}, {"time": 60, "pitch": 73, "duration": 6, "velocity": 64}, {"time": 66, "pitch": 71, "duration": 6, "velocity": 64}, {"time": 72, "pitch": 73, "duration": 6, "velocity": 64}, {"time": 78, "pitch": 76, "duration": 6, "velocity": 64}, {"time": 84, "pitch": 73, "duration": 6, "velocity": 64}, {"time": 90, "pitch": 71, "duration": 6, "velocity": 64}, {"time": 96, "pitch": 69, "duration": 24, "velocity": 64}, {"time": 120, "pitch": 76, "duration": 12, "velocity": 64}, {"time": 132, "pitch": 76, "duration": 12, "velocity": 64}, {"time": 144, "pitch": 78, "duration": 12, "velocity": 64}, {"time": 156, "pitch": 78, "duration": 6, "velocity": 64}, {"time": 162, "pitch": 76, "duration": 6, "velocity": 64}, {"time": 168, "pitch": 76, "duration": 12, "velocity": 64}, {"time": 180, "pitch": 76, "duration": 6, "velocity": 64}, {"time": 186, "pitch": 73, "duration": 6, "velocity": 64}, {"time": 192, "pitch": 71, "duration": 24, "velocity": 64}, {"time": 216, "pitch": 73, "duration": 12, "velocity": 64}, {"time": 228, "pitch": 73, "duration": 6, "velocity": 64}, {"time": 234, "pitch": 71, "duration": 6, "velocity": 64}, {"time": 240, "pitch": 73, "duration": 12, "velocity": 64}, {"time": 252, "pitch": 73, "duration": 6, "velocity": 64}, {"time": 258, "pitch": 71, "duration": 6, "velocity": 64}, {"time": 264, "pitch": 73, "duration": 6, "velocity": 64}, {"time": 270, "pitch": 71, "duration": 6, "velocity": 64}, {"time": 276, "pitch": 73, "duration": 6, "velocity": 64}, {"time": 282, "pitch": 76, "duration": 6, "velocity": 64}, {"time": 288, "pitch": 69, "duration": 24, "velocity": 64}, {"time": 312, "pitch": 69, "duration": 12, "velocity": 64}, {"time": 324, "pitch": 66, "duration": 12, "velocity": 64}, {"time": 336, "pitch": 64, "duration": 24, "velocity": 64}, {"time": 360, "pitch": 76, "duration": 12, "velocity": 64}, {"time": 372, "pitch": 71, "duration": 12, "velocity": 64}, {"time": 384, "pitch": 76, "duration": 24, "velocity": 64}, {"time": 408, "pitch": 71, "duration": 6, "velocity": 64}, {"time": 414, "pitch": 69, "duration": 6, "velocity": 64}, {"time": 420, "pitch": 66, "duration": 12, "velocity": 64}, {"time": 432, "pitch": 64, "duration": 24, "velocity": 64}]}]}