{"metadata": {"schema_version": "0.1", "title": "Xinniange", "source_format": "abc"}, "resolution": 24, "tempos": [{"time": 0, "qpm": 120.0}], "key_signatures": [{"time": 0, "root": 0, "mode": "major", "fifths": 0}], "time_signatures": [{"time": 0, "numerator": 4, "denominator": 4}, {"time": 1872, "numerator": 13, "denominator": 4}, {"time": 2184, "numerator": 2, "denominator": 4}], "beats": [{"time": 0, "is_downbeat": true}, {"time": 24, "is_downbeat": false}, {"time": 48, "is_downbeat": true}, {"time": 72, "is_downbeat": false}, {"time": 96, "is_downbeat": true}, {"time": 120, "is_downbeat": false}, {"time": 144, "is_downbeat": true}, {"time": 168, "is_downbeat": false}, {"time": 192, "is_downbeat": true}, {"time": 216, "is_downbeat": false}, {"time": 240, "is_downbeat": true}, {"time": 264, "is_downbeat": false}, {"time": 288, "is_downbeat": true}, {"time": 312, "is_downbeat": false}, {"time": 336, "is_downbeat": true}, {"time": 360, "is_downbeat": false}, {"time": 384, "is_downbeat": true}, {"time": 408, "is_downbeat": false}, {"time": 432, "is_downbeat": true}, {"time": 456, "is_downbeat": false}, {"time": 480, "is_downbeat": true}, {"time": 504, "is_downbeat": false}, {"time": 528, "is_downbeat": true}, {"time": 552, "is_downbeat": false}, {"time": 576, "is_downbeat": true}, {"time": 600, "is_downbeat": false}, {"time": 624, "is_downbeat": true}, {"time": 648, "is_downbeat": false}, {"time": 672, "is_downbeat": true}, {"time": 696, "is_downbeat": false}, {"time": 720, "is_downbeat": true}, {"time": 744, "is_downbeat": false}, {"time": 768, "is_downbeat": true}, {"time": 792, "is_downbeat": false}, {"time": 816, "is_downbeat": true}, {"time": 840, "is_downbeat": false}, {"time": 864, "is_downbeat": true}, {"time": 888, "is_downbeat": false}, {"time": 912, "is_downbeat": true}, {"time": 936, "is_downbeat": false}, {"time": 960, "is_downbeat": true}, {"time": 984, "is_downbeat": false}, {"time": 1008, "is_downbeat": true}, {"time": 1032, "is_downbeat": false}, {"time": 1056, "is_downbeat": true}, {"time": 1080, "is_downbeat": false}, {"time": 1104, "is_downbeat": true}, {"time": 1128, "is_downbeat": false}, {"time": 1152, "is_downbeat": true}, {"time": 1176, "is_downbeat": false}, {"time": 1200, "is_downbeat": true}, {"time": 1224, "is_downbeat": false}, {"time": 1248, "is_downbeat": true}, {"time": 1272, "is_downbeat": false}, {"time": 1296, "is_downbeat": true}, {"time": 1320, "is_downbeat": false}, {"time": 1344, "is_downbeat": true}, {"time": 1368, "is_downbeat": false}, {"time": 1392, "is_downbeat": true}, {"time": 1416, "is_downbeat": false}, {"time": 1440, "is_downbeat": true}, {"time": 1464, "is_downbeat": false}, {"time": 1488, "is_downbeat": true}, {"time": 1512, "is_downbeat": false}, {"time": 1536, "is_downbeat": true}, {"time": 1560, "is_downbeat": false}, {"time": 1584, "is_downbeat": true}, {"time": 1608, "is_downbeat": false}, {"time": 1632, "is_downbeat": true}, {"time": 1656, "is_downbeat": false}, {"time": 1680, "is_downbeat": true}, {"time": 1704, "is_downbeat": false}, {"time": 1728, "is_downbeat": true}, {"time": 1752, "is_downbeat": false}, {"time": 1776, "is_downbeat": true}, {"time": 1800, "is_downbeat": false}, {"time": 1824, "is_downbeat": true}, {"time": 1848, "is_downbeat": false}, {"time": 1872, "is_downbeat": true}, {"time": 1896, "is_downbeat": false}, {"time": 1920, "is_downbeat": true}, {"time": 1944, "is_downbeat": false}, {"time": 1968, "is_downbeat": true}, {"time": 1992, "is_downbeat": false}, {"time": 2016, "is_downbeat": true}, {"time": 2040, "is_downbeat": false}, {"time": 2064, "is_downbeat": true}, {"time": 2088, "is_downbeat": false}, {"time": 2112, "is_downbeat": true}, {"time": 2136, "is_downbeat": false}, {"time": 2160, "is_downbeat": true}, {"time": 2184, "is_downbeat": true}, {"time": 2208, "is_downbeat": false}, {"time": 2232, "is_downbeat": true}, {"time": 2256, "is_downbeat": false}, {"time": 2280, "is_downbeat": true}, {"time": 2304, "is_downbeat": false}, {"time": 2328, "is_downbeat": true}, {"time": 2352, "is_downbeat": false}], "tracks": [{"program": 0, "is_drum": false, "notes": [{"time": 0, "pitch": 72, "duration": 12, "velocity": 64}, {"time": 12, "pitch": 69, "duration": 12, "velocity": 64}, {"time": 24, "pitch": 72, "duration": 12, "velocity": 64}, {"time": 36, "pitch": 74, "duration": 12, "velocity": 64}, {"time": 48, "pitch": 64, "duration": 12, "velocity": 64}, {"time": 60, "pitch": 64, "duration": 24, "velocity": 64}, {"time": 84, "pitch": 62, "duration": 12, "velocity": 64}, {"time": 96, "pitch": 72, "duration": 12, "velocity": 64}, {"time": 108, "pitch": 69, "duration": 12, "velocity": 64}, {"time": 120, "pitch": 72, "duration": 6, "velocity": 64}, {"time": 126, "pitch": 74, "duration": 6, "velocity": 64}, {"time": 132, "pitch": 76, "duration": 12, "velocity": 64}, {"time": 144, "pitch": 74, "duration": 48, "velocity": 64}, {"time": 192, "pitch": 69, "duration": 12, "velocity": 64}, {"time": 204, "pitch": 72, "duration": 12, "velocity": 64}, {"time": 216, "pitch": 74, "duration": 12, "velocity": 64}, {"time": 228, "pitch": 74, "duration": 6, "velocity": 64}, {"time": 234, "pitch": 74, "duration": 6, "velocity": 64}, {"time": 240, "pitch": 72, "duration": 18, "velocity": 64}, {"time": 258, "pitch": 76, "duration": 6, "velocity": 64}, {"time": 264, "pitch": 74, "duration": 18, "velocity": 64}, {"time": 282, "pitch": 72, "duration": 6, "velocity": 64}, {"time": 288, "pitch": 69, "duration": 6, "velocity": 64}, {"time": 294, "pitch": 72, "duration": 6, "velocity": 64}, {"time": 300, "pitch": 67, "duration": 6, "velocity": 64}, {"time": 306, "pitch": 69, "duration": 6, "velocity": 64}, {"time": 312, "pitch": 74, "duration": 6, "velocity": 64}, {"time": 318, "pitch": 72, "duration": 6, "velocity": 64}, {"time": 324, "pitch": 69, "duration": 6, "velocity": 64}, {"time": 330, "pitch": 72, "duration": 6, "velocity": 64}, {"time": 336, "pitch": 67, "duration": 48, "velocity": 64}, {"time": 384, "pitch": 64, "duration": 12, "velocity": 64}, {"time": 396, "pitch": 64, "duration": 24, "velocity": 64}, {"time": 420, "pitch": 64, "duration": 6, "velocity": 64}, {"time": 426, "pitch": 67, "duration": 6, "velocity": 64}, {"time": 432, "pitch": 69, "duration": 12, "velocity": 64}, {"time": 444, "pitch": 67, "duration": 12, "velocity": 64}, {"time": 456, "pitch": 72, "duration": 24, "velocity": 64}, {"time": 480, "pitch": 69, "duration": 12, "velocity": 64}, {"time": 492, "pitch": 67, "duration": 12, "velocity": 64}, {"time": 504, "pitch": 69, "duration": 6, "velocity": 64}, {"time": 510, "pitch": 72, "duration": 6, "velocity": 64}, {"time": 516, "pitch": 69, "duration": 6, "velocity": 64}, {"time": 522, "pitch": 67, "duration": 6, "velocity": 64}, {"time": 528, "pitch": 64, "duration": 12, "velocity": 64}, {"time": 540, "pitch": 64, "duration": 36, "velocity": 64}, {"time": 576, "pitch": 64, "duration": 6, "velocity": 64}, {"time": 582, "pitch": 67, "duration": 6, "velocity": 64}, {"time": 588, "pitch": 64, "duration": 24, "velocity": 64}, {"time": 612, "pitch": 64, "duration": 12, "velocity": 64}, {"time": 624, "pitch": 69, "duration": 12, "velocity": 64}, {"time": 636, "pitch": 67, "duration": 12, "velocity": 64}, {"time": 648, "pitch": 72, "duration": 18, "velocity": 64}, {"time": 666, "pitch": 74, "duration": 6, "velocity": 64}, {"time": 672, "pitch": 69, "duration": 6, "velocity": 64}, {"time": 678, "pitch": 72, "duration": 6, "velocity": 64}, {"time": 684, "pitch": 67, "duration": 6, "velocity": 64}, {"time": 690, "pitch": 69, "duration": 6, "velocity": 64}, {"time": 696, "pitch": 74, "duration": 6, "velocity": 64}, {"time": 702, "pitch": 72, "duration": 6, "velocity": 64}, {"time": 708, "pitch": 69, "duration": 6, "velocity": 64}, {"time": 714, "pitch": 72, "duration": 6, "velocity": 64}, {"time": 720, "pitch": 67, "duration": 48, "velocity": 64}, {"time": 768, "pitch": 76, "duration": 12, "velocity": 64}, {"time": 780, "pitch": 76, "duration": 12, "velocity": 64}, {"time": 792, "pitch": 74, "duration": 6, "velocity": 64}, {"time": 798, "pitch": 76, "duration": 6, "velocity": 64}, {"time": 804, "pitch": 69, "duration": 6, "velocity": 64}, {"time": 810, "pitch": 72, "duration": 6, "velocity": 64}, {"time": 816, "pitch": 74, "duration": 48, "velocity": 64}, {"time": 864, "pitch": 76, "duration": 24, "velocity": 64}, {"time": 888, "pitch": 67, "duration": 24, "velocity": 64}, {"time": 912, "pitch": 69, "duration": 48, "velocity": 64}, {"time": 960, "pitch": 72, "duration": 12, "velocity": 64}, {"time": 972, "pitch": 72, "duration": 12, "velocity": 64}, {"time": 984, "pitch": 69, "duration": 6, "velocity": 64}, {"time": 990, "pitch": 72, "duration": 6, "velocity": 64}, {"time": 996, "pitch": 69, "duration": 6, "velocity": 64}, {"time": 1002, "pitch": 67, "duration": 6, "velocity": 64}, {"time": 1008, "pitch": 64, "duration": 12, "velocity": 64}, {"time": 1020, "pitch": 64, "duration": 24, "velocity": 64}, {"time": 1044, "pitch": 67, "duration": 12, "velocity": 64}, {"time": 1056, "pitch": 69, "duration": 12, "velocity": 64}, {"time": 1068, "pitch": 67, "duration": 12, "velocity": 64}, {"time": 1080, "pitch": 69, "duration": 6, "velocity": 64}, {"time": 1086, "pitch": 72, "duration": 6, "velocity": 64}, {"time": 1092, "pitch": 69, "duration": 6, "velocity": 64}, {"time": 1098, "pitch": 67, "duration": 6, "velocity": 64}, {"time": 1104, "pitch": 64, "duration": 48, "velocity": 64}, {"time": 1152, "pitch": 72, "duration": 12, "velocity": 64}, {"time": 1164, "pitch": 69, "duration": 12, "velocity": 64}, {"time": 1176, "pitch": 72, "duration": 6, "velocity": 64}, {"time": 1182, "pitch": 69, "duration": 6, "velocity": 64}, {"time": 1188, "pitch": 72, "duration": 6, "velocity": 64}, {"time": 1194, "pitch": 74, "duration": 6, "velocity": 64}, {"time": 1200, "pitch": 67, "duration": 18, "velocity": 64}, {"time": 1218, "pitch": 69, "duration": 6, "velocity": 64}, {"time": 1224, "pitch": 72, "duration": 24, "velocity": 64}, {"time": 1248, "pitch": 72, "duration": 6, "velocity": 64}, {"time": 1254, "pitch": 72, "duration": 6, "velocity": 64}, {"time": 1260, "pitch": 72, "duration": 6, "velocity": 64}, {"time": 1266, "pitch": 69, "duration": 6, "velocity": 64}, {"time": 1272, "pitch": 72, "duration": 6, "velocity": 64}, {"time": 1278, "pitch": 74, "duration": 6, "velocity": 64}, {"time": 1284, "pitch": 76, "duration": 12, "velocity": 64}, {"time": 1296, "pitch": 74, "duration": 48, "velocity": 64}, {"time": 1344, "pitch": 69, "duration": 12, "velocity": 64}, {"time": 1356, "pitch": 69, "duration": 12, "velocity": 64}, {"time": 1368, "pitch": 67, "duration": 18, "velocity": 64}, {"time": 1386, "pitch": 69, "duration": 6, "velocity": 64}, {"time": 1392, "pitch": 72, "duration": 48, "velocity": 64}, {"time": 1440, "pitch": 69, "duration": 12, "velocity": 64}, {"time": 1452, "pitch": 69, "duration": 12, "velocity": 64}, {"time": 1464, "pitch": 74, "duration": 6, "velocity": 64}, {"time": 1470, "pitch": 76, "duration": 6, "velocity": 64}, {"time": 1476, "pitch": 69, "duration": 12, "velocity": 64}, {"time": 1488, "pitch": 72, "duration": 36, "velocity": 64}, {"time": 1524, "pitch": 74, "duration": 12, "velocity": 64}, {"time": 1536, "pitch": 64, "duration": 12, "velocity": 64}, {"time": 1548, "pitch": 64, "duration": 6, "velocity": 64}, {"time": 1554, "pitch": 67, "duration": 6, "velocity": 64}, {"time": 1560, "pitch": 69, "duration": 6, "velocity": 64}, {"time": 1566, "pitch": 67, "duration": 6, "velocity": 64}, {"time": 1572, "pitch": 69, "duration": 6, "velocity": 64}, {"time": 1578, "pitch": 72, "duration": 6, "velocity": 64}, {"time": 1584, "pitch": 67, "duration": 48, "velocity": 64}, {"time": 1632, "pitch": 69, "duration": 12, "velocity": 64}, {"time": 1644, "pitch": 69, "duration": 12, "velocity": 64}, {"time": 1656, "pitch": 76, "duration": 24, "velocity": 64}, {"time": 1680, "pitch": 76, "duration": 12, "velocity": 64}, {"time": 1692, "pitch": 69, "duration": 12, "velocity": 64}, {"time": 1704, "pitch": 76, "duration": 24, "velocity": 64}, {"time": 1728, "pitch": 72, "duration": 12, "velocity": 64}, {"time": 1740, "pitch": 72, "duration": 6, "velocity": 64}, {"time": 1746, "pitch": 69, "duration": 6, "velocity": 64}, {"time": 1752, "pitch": 67, "duration": 18, "velocity": 64}, {"time": 1770, "pitch": 69, "duration": 6, "velocity": 64}, {"time": 1776, "pitch": 72, "duration": 48, "velocity": 64}, {"time": 1824, "pitch": 72, "duration": 12, "velocity": 64}, {"time": 1836, "pitch": 72, "duration": 6, "velocity": 64}, {"time": 1842, "pitch": 69, "duration": 6, "velocity": 64}, {"time": 1848, "pitch": 67, "duration": 18, "velocity": 64}, {"time": 1866, "pitch": 69, "duration": 6, "velocity": 64}, {"time": 1872, "pitch": 72, "duration": 24, "velocity": 64}, {"time": 1896, "pitch": 72, "duration": 12, "velocity": 64}, {"time": 1908, "pitch": 67, "duration": 24, "velocity": 64}, {"time": 1932, "pitch": 69, "duration": 12, "velocity": 64}, {"time": 1944, "pitch": 72, "duration": 24, "velocity": 64}, {"time": 1968, "pitch": 72, "duration": 12, "velocity": 64}, {"time": 1980, "pitch": 67, "duration": 24, "velocity": 64}, {"time": 2004, "pitch": 69, "duration": 12, "velocity": 64}, {"time": 2016, "pitch": 72, "duration": 24, "velocity": 64}, {"time": 2040, "pitch": 72, "duration": 12, "velocity": 64}, {"time": 2052, "pitch": 69, "duration": 12, "velocity": 64}, {"time": 2064, "pitch": 72, "duration": 24, "velocity": 64}, {"time": 2088, "pitch": 72, "duration": 12, "velocity": 64}, {"time": 2100, "pitch": 69, "duration": 12, "velocity": 64}, {"time": 2112, "pitch": 72, "duration": 24, "velocity": 64}, {"time": 2136, "pitch": 72, "duration": 12, "velocity": 64}, {"time": 2148, "pitch": 72, "duration": 12, "velocity": 64}, {"time": 2160, "pitch": 64, "duration": 12, "velocity": 64}, {"time": 2172, "pitch": 67, "duration": 12, "velocity": 64}, {"time": 2184, "pitch": 64, "duration": 12, "velocity": 64}, {"time": 2196, "pitch": 67, "duration": 12, "velocity": 64}, {"time": 2208, "pitch": 72, "duration": 12, "velocity": 64}, {"time": 2220, "pitch": 72, "duration": 12, "velocity": 64}, {"time": 2232, "pitch": 64, "duration": 12, "velocity": 64}, {"time": 2244, "pitch": 64, "duration": 6, "velocity": 64}, {"time": 2250, "pitch": 67, "duration": 6, "velocity": 64}, {"time": 2256, "pitch": 69, "duration": 6, "velocity": 64}, {"time": 2262, "pitch": 67, "duration": 6, "velocity": 64}, {"time": 2268, "pitch": 64, "duration": 12, "velocity": 64}, {"time": 2280, "pitch": 62, "duration": 18, "velocity": 64}, {"time": 2298, "pitch": 64, "duration": 6, "velocity": 64}, {"time": 2304, "pitch": 67, "duration": 12, "velocity": 64}, {"time": 2316, "pitch": 64, "duration": 12, "velocity": 64}, {"time": 2328, "pitch": 69, "duration": 12, "velocity": 64}, {"time": 2340, "pitch": 67, "duration": 36, "velocity": 64}]}]}