{"metadata": {"schema_version": "0.1", "title": "Jiangnan chaoyuan yangchengqun", "source_format": "abc"}, "resolution": 24, "tempos": [{"time": 0, "qpm": 120.0}], "key_signatures": [{"time": 0, "root": 2, "mode": "major", "fifths": 2}], "time_signatures": [{"time": 0, "numerator": 4, "denominator": 4}, {"time": 96, "numerator": 1, "denominator": 4}, {"time": 168, "numerator": 1, "denominator": 4}, {"time": 336, "numerator": 1, "denominator": 4}, {"time": 408, "numerator": 1, "denominator": 4}, {"time": 576, "numerator": 1, "denominator": 4}, {"time": 648, "numerator": 1, "denominator": 4}, {"time": 816, "numerator": 1, "denominator": 4}, {"time": 888, "numerator": 1, "denominator": 4}, {"time": 912, "numerator": 2, "denominator": 4}], "beats": [{"time": 0, "is_downbeat": true}, {"time": 24, "is_downbeat": true}, {"time": 48, "is_downbeat": true}, {"time": 72, "is_downbeat": true}, {"time": 96, "is_downbeat": true}, {"time": 120, "is_downbeat": true}, {"time": 144, "is_downbeat": true}, {"time": 168, "is_downbeat": true}, {"time": 192, "is_downbeat": true}, {"time": 216, "is_downbeat": true}, {"time": 240, "is_downbeat": true}, {"time": 264, "is_downbeat": true}, {"time": 288, "is_downbeat": true}, {"time": 312, "is_downbeat": true}, {"time": 336, "is_downbeat": true}, {"time": 360, "is_downbeat": true}, {"time": 384, "is_downbeat": true}, {"time": 408, "is_downbeat": true}, {"time": 432, "is_downbeat": true}, {"time": 456, "is_downbeat": true}, {"time": 480, "is_downbeat": true}, {"time": 504, "is_downbeat": true}, {"time": 528, "is_downbeat": true}, {"time": 552, "is_downbeat": true}, {"time": 576, "is_downbeat": true}, {"time": 600, "is_downbeat": true}, {"time": 624, "is_downbeat": true}, {"time": 648, "is_downbeat": true}, {"time": 672, "is_downbeat": true}, {"time": 696, "is_downbeat": true}, {"time": 720, "is_downbeat": true}, {"time": 744, "is_downbeat": true}, {"time": 768, "is_downbeat": true}, {"time": 792, "is_downbeat": true}, {"time": 816, "is_downbeat": true}, {"time": 840, "is_downbeat": true}, {"time": 864, "is_downbeat": true}, {"time": 888, "is_downbeat": true}, {"time": 912, "is_downbeat": true}, {"time": 936, "is_downbeat": false}], "tracks": [{"program": 0, "is_drum": false, "notes": [{"time": 0, "pitch": 71, "duration": 6, "velocity": 64}, {"time": 6, "pitch": 74, "duration": 6, "velocity": 64}, {"time": 12, "pitch": 71, "duration": 36, "velocity": 64}, {"time": 48, "pitch": 76, "duration": 12, "velocity": 64}, {"time": 60, "pitch": 76, "duration": 6, "velocity": 64}, {"time": 66, "pitch": 74, "duration": 6, "velocity": 64}, {"time": 72, "pitch": 78, "duration": 48, "velocity": 64}, {"time": 120, "pitch": 74, "duration": 12, "velocity": 64}, {"time": 132, "pitch": 78, "duration": 12, "velocity": 64}, {"time": 144, "pitch": 71, "duration": 48, "velocity": 64}, {"time": 192, "pitch": 71, "duration": 6, "velocity": 64}, {"time": 198, "pitch": 74, "duration": 6, "velocity": 64}, {"time": 204, "pitch": 71, "duration": 12, "velocity": 64}, {"time": 240, "pitch": 71, "duration": 6, "velocity": 64}, {"time": 246, "pitch": 74, "duration": 6, "velocity": 64}, {"time": 252, "pitch": 71, "duration": 36, "velocity": 64}, {"time": 288, "pitch": 74, "duration": 12, "velocity": 64}, {"time": 300, "pitch": 78, "duration": 12, "velocity": 64}, {"time": 312, "pitch": 76, "duration": 6, "velocity": 64}, {"time": 318, "pitch": 78, "duration": 6, "velocity": 64}, {"time": 324, "pitch": 76, "duration": 6, "velocity": 64}, {"time": 330, "pitch": 74, "duration": 6, "velocity": 64}, {"time": 336, "pitch": 76, "duration": 24, "velocity": 64}, {"time": 360, "pitch": 76, "duration": 12, "velocity": 64}, {"time": 372, "pitch": 71, "duration": 12, "velocity": 64}, {"time": 384, "pitch": 71, "duration": 48, "velocity": 64}, {"time": 432, "pitch": 71, "duration": 24, "velocity": 64}, {"time": 480, "pitch": 71, "duration": 6, "velocity": 64}, {"time": 486, "pitch": 74, "duration": 6, "velocity": 64}, {"time": 492, "pitch": 71, "duration": 6, "velocity": 64}, {"time": 498, "pitch": 71, "duration": 30, "velocity": 64}, {"time": 528, "pitch": 74, "duration": 12, "velocity": 64}, {"time": 540, "pitch": 78, "duration": 12, "velocity": 64}, {"time": 552, "pitch": 76, "duration": 6, "velocity": 64}, {"time": 558, "pitch": 74, "duration": 6, "velocity": 64}, {"time": 564, "pitch": 76, "duration": 36, "velocity": 64}, {"time": 600, "pitch": 74, "duration": 12, "velocity": 64}, {"time": 612, "pitch": 78, "duration": 12, "velocity": 64}, {"time": 624, "pitch": 76, "duration": 48, "velocity": 64}, {"time": 672, "pitch": 76, "duration": 6, "velocity": 64}, {"time": 678, "pitch": 74, "duration": 6, "velocity": 64}, {"time": 684, "pitch": 71, "duration": 12, "velocity": 64}, {"time": 720, "pitch": 71, "duration": 6, "velocity": 64}, {"time": 726, "pitch": 74, "duration": 6, "velocity": 64}, {"time": 732, "pitch": 71, "duration": 36, "velocity": 64}, {"time": 768, "pitch": 74, "duration": 12, "velocity": 64}, {"time": 780, "pitch": 78, "duration": 12, "velocity": 64}, {"time": 792, "pitch": 76, "duration": 48, "velocity": 64}, {"time": 840, "pitch": 78, "duration": 12, "velocity": 64}, {"time": 852, "pitch": 76, "duration": 6, "velocity": 64}, {"time": 858, "pitch": 74, "duration": 6, "velocity": 64}, {"time": 864, "pitch": 71, "duration": 48, "velocity": 64}, {"time": 912, "pitch": 71, "duration": 6, "velocity": 64}, {"time": 918, "pitch": 74, "duration": 6, "velocity": 64}, {"time": 924, "pitch": 71, "duration": 24, "velocity": 64}]}]}