{"metadata": {"schema_version": "0.1", "title": "Pengbai chuzai hailufeng", "source_format": "abc"}, "resolution": 24, "tempos": [{"time": 0, "qpm": 120.0}], "key_signatures": [{"time": 0, "root": 9, "mode": "major", "fifths": 3}], "time_signatures": [{"time": 0, "numerator": 4, "denominator": 4}, {"time": 384, "numerator": 1, "denominator": 4}, {"time": 408, "numerator": 2, "denominator": 4}], "beats": [{"time": 0, "is_downbeat": true}, {"time": 24, "is_downbeat": true}, {"time": 48, "is_downbeat": true}, {"time": 72, "is_downbeat": true}, {"time": 96, "is_downbeat": true}, {"time": 120, "is_downbeat": true}, {"time": 144, "is_downbeat": true}, {"time": 168, "is_downbeat": true}, {"time": 192, "is_downbeat": true}, {"time": 216, "is_downbeat": true}, {"time": 240, "is_downbeat": true}, {"time": 264, "is_downbeat": true}, {"time": 288, "is_downbeat": true}, {"time": 312, "is_downbeat": true}, {"time": 336, "is_downbeat": true}, {"time": 360, "is_downbeat": true}, {"time": 384, "is_downbeat": true}, {"time": 408, "is_downbeat": true}, {"time": 432, "is_downbeat": false}, {"time": 456, "is_downbeat": true}, {"time": 480, "is_downbeat": false}, {"time": 504, "is_downbeat": true}, {"time": 528, "is_downbeat": false}, {"time": 552, "is_downbeat": true}, {"time": 576, "is_downbeat": false}, {"time": 600, "is_downbeat": true}, {"time": 624, "is_downbeat": false}, {"time": 648, "is_downbeat": true}, {"time": 672, "is_downbeat": false}, {"time": 696, "is_downbeat": true}, {"time": 720, "is_downbeat": false}], "tracks": [{"program": 0, "is_drum": false, "notes": [{"time": 0, "pitch": 73, "duration": 6, "velocity": 64}, {"time": 6, "pitch": 74, "duration": 6, "velocity": 64}, {"time": 12, "pitch": 73, "duration": 6, "velocity": 64}, {"time": 18, "pitch": 71, "duration": 6, "velocity": 64}, {"time": 24, "pitch": 69, "duration": 12, "velocity": 64}, {"time": 36, "pitch": 69, "duration": 6, "velocity": 64}, {"time": 42, "pitch": 71, "duration": 6, "velocity": 64}, {"time": 48, "pitch": 73, "duration": 12, "velocity": 64}, {"time": 60, "pitch": 73, "duration": 6, "velocity": 64}, {"time": 66, "pitch": 71, "duration": 6, "velocity": 64}, {"time": 72, "pitch": 69, "duration": 12, "velocity": 64}, {"time": 84, "pitch": 76, "duration": 12, "velocity": 64}, {"time": 96, "pitch": 73, "duration": 6, "velocity": 64}, {"time": 102, "pitch": 71, "duration": 6, "velocity": 64}, {"time": 108, "pitch": 69, "duration": 12, "velocity": 64}, {"time": 120, "pitch": 73, "duration": 6, "velocity": 64}, {"time": 126, "pitch": 74, "duration": 6, "velocity": 64}, {"time": 132, "pitch": 73, "duration": 6, "velocity": 64}, {"time": 138, "pitch": 71, "duration": 6, "velocity": 64}, {"time": 144, "pitch": 73, "duration": 12, "velocity": 64}, {"time": 156, "pitch": 73, "duration": 6, "velocity": 64}, {"time": 162, "pitch": 71, "duration": 6, "velocity": 64}, {"time": 168, "pitch": 68, "duration": 12, "velocity": 64}, {"time": 180, "pitch": 66, "duration": 12, "velocity": 64}, {"time": 192, "pitch": 64, "duration": 24, "velocity": 64}, {"time": 216, "pitch": 61, "duration": 6, "velocity": 64}, {"time": 222, "pitch": 64, "duration": 6, "velocity": 64}, {"time": 228, "pitch": 66, "duration": 12, "velocity": 64}, {"time": 252, "pitch": 68, "duration": 12, "velocity": 64}, {"time": 264, "pitch": 66, "duration": 6, "velocity": 64}, {"time": 270, "pitch": 68, "duration": 6, "velocity": 64}, {"time": 276, "pitch": 71, "duration": 12, "velocity": 64}, {"time": 288, "pitch": 64, "duration": 48, "velocity": 64}, {"time": 336, "pitch": 71, "duration": 6, "velocity": 64}, {"time": 342, "pitch": 73, "duration": 6, "velocity": 64}, {"time": 348, "pitch": 76, "duration": 12, "velocity": 64}, {"time": 360, "pitch": 76, "duration": 12, "velocity": 64}, {"time": 372, "pitch": 71, "duration": 6, "velocity": 64}, {"time": 378, "pitch": 73, "duration": 6, "velocity": 64}, {"time": 384, "pitch": 76, "duration": 12, "velocity": 64}, {"time": 396, "pitch": 74, "duration": 12, "velocity": 64}, {"time": 408, "pitch": 73, "duration": 6, "velocity": 64}, {"time": 414, "pitch": 74, "duration": 6, "velocity": 64}, {"time": 420, "pitch": 73, "duration": 6, "velocity": 64}, {"time": 426, "pitch": 71, "duration": 6, "velocity": 64}, {"time": 432, "pitch": 69, "duration": 12, "velocity": 64}, {"time": 444, "pitch": 69, "duration": 6, "velocity": 64}, {"time": 450, "pitch": 71, "duration": 6, "velocity": 64}, {"time": 456, "pitch": 73, "duration": 12, "velocity": 64}, {"time": 468, "pitch": 73, "duration": 6, "velocity": 64}, {"time": 474, "pitch": 71, "duration": 6, "velocity": 64}, {"time": 480, "pitch": 69, "duration": 12, "velocity": 64}, {"time": 492, "pitch": 76, "duration": 12, "velocity": 64}, {"time": 504, "pitch": 73, "duration": 6, "velocity": 64}, {"time": 510, "pitch": 71, "duration": 6, "velocity": 64}, {"time": 516, "pitch": 69, "duration": 12, "velocity": 64}, {"time": 528, "pitch": 73, "duration": 6, "velocity": 64}, {"time": 534, "pitch": 74, "duration": 6, "velocity": 64}, {"time": 540, "pitch": 73, "duration": 6, "velocity": 64}, {"time": 546, "pitch": 71, "duration": 6, "velocity": 64}, {"time": 552, "pitch": 73, "duration": 12, "velocity": 64}, {"time": 564, "pitch": 73, "duration": 6, "velocity": 64}, {"time": 570, "pitch": 71, "duration": 6, "velocity": 64}, {"time": 576, "pitch": 68, "duration": 12, "velocity": 64}, {"time": 588, "pitch": 66, "duration": 12, "velocity": 64}, {"time": 600, "pitch": 64, "duration": 24, "velocity": 64}, {"time": 624, "pitch": 61, "duration": 6, "velocity": 64}, {"time": 630, "pitch": 64, "duration": 6, "velocity": 64}, {"time": 636, "pitch": 66, "duration": 12, "velocity": 64}, {"time": 660, "pitch": 68, "duration": 12, "velocity": 64}, {"time": 672, "pitch": 66, "duration": 6, "velocity": 64}, {"time": 678, "pitch": 68, "duration": 6, "velocity": 64}, {"time": 684, "pitch": 71, "duration": 12, "velocity": 64}, {"time": 696, "pitch": 64, "duration": 48, "velocity": 64}]}]}