{"metadata": {"schema_version": "0.1", "title": "Yitiao dalu quwanwan", "source_format": "abc"}, "resolution": 24, "tempos": [{"time": 0, "qpm": 120.0}], "key_signatures": [{"time": 0, "root": 10, "mode": "major", "fifths": -2}], "time_signatures": [{"time": 0, "numerator": 2, "denominator": 4}], "beats": [{"time": 0, "is_downbeat": true}, {"time": 24, "is_downbeat": false}, {"time": 48, "is_downbeat": true}, {"time": 72, "is_downbeat": false}, {"time": 96, "is_downbeat": true}, {"time": 120, "is_downbeat": false}, {"time": 144, "is_downbeat": true}, {"time": 168, "is_downbeat": false}, {"time": 192, "is_downbeat": true}, {"time": 216, "is_downbeat": false}], "tracks": [{"program": 0, "is_drum": false, "notes": [{"time": 0, "pitch": 67, "duration": 6, "velocity": 64}, {"time": 6, "pitch": 70, "duration": 6, "velocity": 64}, {"time": 12, "pitch": 72, "duration": 12, "velocity": 64}, {"time": 24, "pitch": 72, "duration": 12, "velocity": 64}, {"time": 36, "pitch": 72, "duration": 12, "velocity": 64}, {"time": 48, "pitch": 70, "duration": 6, "velocity": 64}, {"time": 54, "pitch": 72, "duration": 6, "velocity": 64}, {"time": 60, "pitch": 72, "duration": 12, "velocity": 64}, {"time": 72, "pitch": 72, "duration": 6, "velocity": 64}, {"time": 78, "pitch": 70, "duration": 6, "velocity": 64}, {"time": 84, "pitch": 67, "duration": 12, "velocity": 64}, {"time": 96, "pitch": 67, "duration": 6, "velocity": 64}, {"time": 102, "pitch": 70, "duration": 6, "velocity": 64}, {"time": 108, "pitch": 72, "duration": 12, "velocity": 64}, {"time": 120, "pitch": 72, "duration": 12, "velocity": 64}, {"time": 132, "pitch": 72, "duration": 6, "velocity": 64}, {"time": 138, "pitch": 70, "duration": 6, "velocity": 64}, {"time": 144, "pitch": 70, "duration": 18, "velocity": 64}, {"time": 162, "pitch": 72, "duration": 6, "velocity": 64}, {"time": 168, "pitch": 70, "duration": 6, "velocity": 64}, {"time": 174, "pitch": 67, "duration": 6, "velocity": 64}, {"time": 180, "pitch": 67, "duration": 12, "velocity": 64}, {"time": 192, "pitch": 67, "duration": 48, "velocity": 64}]}]}