{"metadata": {"schema_version": "0.1", "title": "Yingxiong mofan peichengshuang", "source_format": "abc"}, "resolution": 24, "tempos": [{"time": 0, "qpm": 120.0}], "key_signatures": [{"time": 0, "root": 9, "mode": "major", "fifths": 3}], "time_signatures": [{"time": 0, "numerator": 4, "denominator": 4}, {"time": 192, "numerator": 1, "denominator": 8}, {"time": 252, "numerator": 1, "denominator": 8}, {"time": 360, "numerator": 1, "denominator": 4}, {"time": 432, "numerator": 3, "denominator": 4}, {"time": 600, "numerator": 1, "denominator": 8}, {"time": 660, "numerator": 1, "denominator": 8}, {"time": 768, "numerator": 1, "denominator": 4}, {"time": 840, "numerator": 3, "denominator": 4}, {"time": 1008, "numerator": 1, "denominator": 8}, {"time": 1068, "numerator": 1, "denominator": 8}, {"time": 1080, "numerator": 4, "denominator": 8}, {"time": 1128, "numerator": 1, "denominator": 4}], "beats": [{"time": 0, "is_downbeat": true}, {"time": 12, "is_downbeat": true}, {"time": 24, "is_downbeat": true}, {"time": 36, "is_downbeat": true}, {"time": 48, "is_downbeat": true}, {"time": 60, "is_downbeat": true}, {"time": 72, "is_downbeat": true}, {"time": 84, "is_downbeat": true}, {"time": 96, "is_downbeat": true}, {"time": 108, "is_downbeat": true}, {"time": 120, "is_downbeat": true}, {"time": 132, "is_downbeat": true}, {"time": 144, "is_downbeat": true}, {"time": 156, "is_downbeat": true}, {"time": 168, "is_downbeat": true}, {"time": 180, "is_downbeat": true}, {"time": 192, "is_downbeat": true}, {"time": 204, "is_downbeat": true}, {"time": 216, "is_downbeat": true}, {"time": 228, "is_downbeat": true}, {"time": 240, "is_downbeat": true}, {"time": 252, "is_downbeat": true}, {"time": 264, "is_downbeat": true}, {"time": 288, "is_downbeat": true}, {"time": 312, "is_downbeat": true}, {"time": 336, "is_downbeat": true}, {"time": 360, "is_downbeat": true}, {"time": 384, "is_downbeat": true}, {"time": 408, "is_downbeat": false}, {"time": 432, "is_downbeat": true}, {"time": 444, "is_downbeat": true}, {"time": 456, "is_downbeat": true}, {"time": 468, "is_downbeat": true}, {"time": 480, "is_downbeat": true}, {"time": 492, "is_downbeat": true}, {"time": 504, "is_downbeat": true}, {"time": 516, "is_downbeat": true}, {"time": 528, "is_downbeat": true}, {"time": 540, "is_downbeat": true}, {"time": 552, "is_downbeat": true}, {"time": 564, "is_downbeat": true}, {"time": 576, "is_downbeat": true}, {"time": 588, "is_downbeat": true}, {"time": 600, "is_downbeat": true}, {"time": 612, "is_downbeat": true}, {"time": 624, "is_downbeat": true}, {"time": 636, "is_downbeat": true}, {"time": 648, "is_downbeat": true}, {"time": 660, "is_downbeat": true}, {"time": 672, "is_downbeat": true}, {"time": 696, "is_downbeat": true}, {"time": 720, "is_downbeat": true}, {"time": 744, "is_downbeat": true}, {"time": 768, "is_downbeat": true}, {"time": 792, "is_downbeat": true}, {"time": 816, "is_downbeat": false}, {"time": 840, "is_downbeat": true}, {"time": 852, "is_downbeat": true}, {"time": 864, "is_downbeat": true}, {"time": 876, "is_downbeat": true}, {"time": 888, "is_downbeat": true}, {"time": 900, "is_downbeat": true}, {"time": 912, "is_downbeat": true}, {"time": 924, "is_downbeat": true}, {"time": 936, "is_downbeat": true}, {"time": 948, "is_downbeat": true}, {"time": 960, "is_downbeat": true}, {"time": 972, "is_downbeat": true}, {"time": 984, "is_downbeat": true}, {"time": 996, "is_downbeat": true}, {"time": 1008, "is_downbeat": true}, {"time": 1020, "is_downbeat": true}, {"time": 1032, "is_downbeat": true}, {"time": 1044, "is_downbeat": true}, {"time": 1056, "is_downbeat": true}, {"time": 1068, "is_downbeat": true}, {"time": 1080, "is_downbeat": true}, {"time": 1104, "is_downbeat": true}, {"time": 1128, "is_downbeat": true}], "tracks": [{"program": 0, "is_drum": false, "notes": [{"time": 0, "pitch": 71, "duration": 12, "velocity": 64}, {"time": 12, "pitch": 71, "duration": 12, "velocity": 64}, {"time": 24, "pitch": 69, "duration": 12, "velocity": 64}, {"time": 36, "pitch": 71, "duration": 12, "velocity": 64}, {"time": 48, "pitch": 76, "duration": 12, "velocity": 64}, {"time": 60, "pitch": 73, "duration": 12, "velocity": 64}, {"time": 72, "pitch": 73, "duration": 12, "velocity": 64}, {"time": 84, "pitch": 71, "duration": 12, "velocity": 64}, {"time": 96, "pitch": 69, "duration": 6, "velocity": 64}, {"time": 102, "pitch": 66, "duration": 6, "velocity": 64}, {"time": 108, "pitch": 66, "duration": 24, "velocity": 64}, {"time": 132, "pitch": 69, "duration": 12, "velocity": 64}, {"time": 144, "pitch": 71, "duration": 12, "velocity": 64}, {"time": 156, "pitch": 71, "duration": 12, "velocity": 64}, {"time": 168, "pitch": 71, "duration": 12, "velocity": 64}, {"time": 180, "pitch": 66, "duration": 6, "velocity": 64}, {"time": 186, "pitch": 69, "duration": 6, "velocity": 64}, {"time": 192, "pitch": 66, "duration": 6, "velocity": 64}, {"time": 198, "pitch": 64, "duration": 6, "velocity": 64}, {"time": 204, "pitch": 61, "duration": 24, "velocity": 64}, {"time": 228, "pitch": 64, "duration": 12, "velocity": 64}, {"time": 240, "pitch": 66, "duration": 6, "velocity": 64}, {"time": 246, "pitch": 69, "duration": 6, "velocity": 64}, {"time": 252, "pitch": 66, "duration": 6, "velocity": 64}, {"time": 258, "pitch": 64, "duration": 6, "velocity": 64}, {"time": 264, "pitch": 66, "duration": 36, "velocity": 64}, {"time": 300, "pitch": 71, "duration": 6, "velocity": 64}, {"time": 306, "pitch": 69, "duration": 6, "velocity": 64}, {"time": 312, "pitch": 66, "duration": 36, "velocity": 64}, {"time": 348, "pitch": 69, "duration": 12, "velocity": 64}, {"time": 360, "pitch": 66, "duration": 12, "velocity": 64}, {"time": 372, "pitch": 69, "duration": 12, "velocity": 64}, {"time": 384, "pitch": 73, "duration": 36, "velocity": 64}, {"time": 420, "pitch": 71, "duration": 6, "velocity": 64}, {"time": 426, "pitch": 69, "duration": 6, "velocity": 64}, {"time": 432, "pitch": 66, "duration": 24, "velocity": 64}, {"time": 456, "pitch": 71, "duration": 12, "velocity": 64}, {"time": 468, "pitch": 71, "duration": 12, "velocity": 64}, {"time": 480, "pitch": 69, "duration": 12, "velocity": 64}, {"time": 492, "pitch": 71, "duration": 12, "velocity": 64}, {"time": 504, "pitch": 76, "duration": 12, "velocity": 64}, {"time": 516, "pitch": 73, "duration": 24, "velocity": 64}, {"time": 540, "pitch": 76, "duration": 12, "velocity": 64}, {"time": 552, "pitch": 71, "duration": 12, "velocity": 64}, {"time": 564, "pitch": 71, "duration": 12, "velocity": 64}, {"time": 576, "pitch": 71, "duration": 12, "velocity": 64}, {"time": 588, "pitch": 66, "duration": 6, "velocity": 64}, {"time": 594, "pitch": 69, "duration": 6, "velocity": 64}, {"time": 600, "pitch": 66, "duration": 6, "velocity": 64}, {"time": 606, "pitch": 64, "duration": 6, "velocity": 64}, {"time": 612, "pitch": 61, "duration": 24, "velocity": 64}, {"time": 636, "pitch": 64, "duration": 12, "velocity": 64}, {"time": 648, "pitch": 66, "duration": 6, "velocity": 64}, {"time": 654, "pitch": 69, "duration": 6, "velocity": 64}, {"time": 660, "pitch": 66, "duration": 6, "velocity": 64}, {"time": 666, "pitch": 64, "duration": 6, "velocity": 64}, {"time": 672, "pitch": 66, "duration": 36, "velocity": 64}, {"time": 708, "pitch": 71, "duration": 6, "velocity": 64}, {"time": 714, "pitch": 69, "duration": 6, "velocity": 64}, {"time": 720, "pitch": 66, "duration": 36, "velocity": 64}, {"time": 756, "pitch": 69, "duration": 12, "velocity": 64}, {"time": 768, "pitch": 66, "duration": 12, "velocity": 64}, {"time": 780, "pitch": 69, "duration": 12, "velocity": 64}, {"time": 792, "pitch": 73, "duration": 36, "velocity": 64}, {"time": 828, "pitch": 71, "duration": 6, "velocity": 64}, {"time": 834, "pitch": 69, "duration": 6, "velocity": 64}, {"time": 840, "pitch": 66, "duration": 24, "velocity": 64}, {"time": 864, "pitch": 71, "duration": 12, "velocity": 64}, {"time": 876, "pitch": 71, "duration": 12, "velocity": 64}, {"time": 888, "pitch": 69, "duration": 12, "velocity": 64}, {"time": 900, "pitch": 71, "duration": 12, "velocity": 64}, {"time": 912, "pitch": 73, "duration": 12, "velocity": 64}, {"time": 924, "pitch": 73, "duration": 24, "velocity": 64}, {"time": 948, "pitch": 76, "duration": 12, "velocity": 64}, {"time": 960, "pitch": 69, "duration": 12, "velocity": 64}, {"time": 972, "pitch": 71, "duration": 12, "velocity": 64}, {"time": 984, "pitch": 71, "duration": 12, "velocity": 64}, {"time": 996, "pitch": 66, "duration": 6, "velocity": 64}, {"time": 1002, "pitch": 69, "duration": 6, "velocity": 64}, {"time": 1008, "pitch": 66, "duration": 6, "velocity": 64}, {"time": 1014, "pitch": 64, "duration": 6, "velocity": 64}, {"time": 1020, "pitch": 61, "duration": 24, "velocity": 64}, {"time": 1044, "pitch": 64, "duration": 12, "velocity": 64}, {"time": 1056, "pitch": 66, "duration": 6, "velocity": 64}, {"time": 1062, "pitch": 69, "duration": 6, "velocity": 64}, {"time": 1068, "pitch": 66, "duration": 6, "velocity": 64}, {"time": 1074, "pitch": 64, "duration": 6, "velocity": 64}, {"time": 1080, "pitch": 66, "duration": 24, "velocity": 64}, {"time": 1104, "pitch": 71, "duration": 6, "velocity": 64}, {"time": 1110, "pitch": 69, "duration": 6, "velocity": 64}, {"time": 1116, "pitch": 66, "duration": 36, "velocity": 64}]}]}