{"metadata": {"schema_version": "0.1", "title": "Sisifangfang yipanqi", "source_format": "abc"}, "resolution": 24, "tempos": [{"time": 0, "qpm": 120.0}], "key_signatures": [{"time": 0, "root": 9, "mode": "major", "fifths": 3}], "time_signatures": [{"time": 0, "numerator": 4, "denominator": 4}, {"time": 96, "numerator": 1, "denominator": 4}, {"time": 216, "numerator": 3, "denominator": 2}, {"time": 456, "numerator": 1, "denominator": 4}, {"time": 672, "numerator": 1, "denominator": 4}, {"time": 792, "numerator": 3, "denominator": 2}, {"time": 1032, "numerator": 1, "denominator": 4}, {"time": 1248, "numerator": 1, "denominator": 4}, {"time": 1368, "numerator": 3, "denominator": 2}, {"time": 1608, "numerator": 1, "denominator": 4}, {"time": 1824, "numerator": 1, "denominator": 4}, {"time": 1944, "numerator": 3, "denominator": 2}, {"time": 2184, "numerator": 1, "denominator": 4}, {"time": 2208, "numerator": 4, "denominator": 4}], "beats": [{"time": 0, "is_downbeat": true}, {"time": 24, "is_downbeat": true}, {"time": 48, "is_downbeat": true}, {"time": 72, "is_downbeat": true}, {"time": 96, "is_downbeat": true}, {"time": 120, "is_downbeat": true}, {"time": 168, "is_downbeat": false}, {"time": 216, "is_downbeat": true}, {"time": 240, "is_downbeat": true}, {"time": 264, "is_downbeat": true}, {"time": 288, "is_downbeat": true}, {"time": 312, "is_downbeat": true}, {"time": 336, "is_downbeat": true}, {"time": 360, "is_downbeat": true}, {"time": 384, "is_downbeat": true}, {"time": 408, "is_downbeat": true}, {"time": 432, "is_downbeat": true}, {"time": 456, "is_downbeat": true}, {"time": 480, "is_downbeat": true}, {"time": 504, "is_downbeat": true}, {"time": 528, "is_downbeat": true}, {"time": 552, "is_downbeat": true}, {"time": 576, "is_downbeat": true}, {"time": 600, "is_downbeat": true}, {"time": 624, "is_downbeat": true}, {"time": 648, "is_downbeat": true}, {"time": 672, "is_downbeat": true}, {"time": 696, "is_downbeat": true}, {"time": 744, "is_downbeat": false}, {"time": 792, "is_downbeat": true}, {"time": 816, "is_downbeat": true}, {"time": 840, "is_downbeat": true}, {"time": 864, "is_downbeat": true}, {"time": 888, "is_downbeat": true}, {"time": 912, "is_downbeat": true}, {"time": 936, "is_downbeat": true}, {"time": 960, "is_downbeat": true}, {"time": 984, "is_downbeat": true}, {"time": 1008, "is_downbeat": true}, {"time": 1032, "is_downbeat": true}, {"time": 1056, "is_downbeat": true}, {"time": 1080, "is_downbeat": true}, {"time": 1104, "is_downbeat": true}, {"time": 1128, "is_downbeat": true}, {"time": 1152, "is_downbeat": true}, {"time": 1176, "is_downbeat": true}, {"time": 1200, "is_downbeat": true}, {"time": 1224, "is_downbeat": true}, {"time": 1248, "is_downbeat": true}, {"time": 1272, "is_downbeat": true}, {"time": 1320, "is_downbeat": false}, {"time": 1368, "is_downbeat": true}, {"time": 1392, "is_downbeat": true}, {"time": 1416, "is_downbeat": true}, {"time": 1440, "is_downbeat": true}, {"time": 1464, "is_downbeat": true}, {"time": 1488, "is_downbeat": true}, {"time": 1512, "is_downbeat": true}, {"time": 1536, "is_downbeat": true}, {"time": 1560, "is_downbeat": true}, {"time": 1584, "is_downbeat": true}, {"time": 1608, "is_downbeat": true}, {"time": 1632, "is_downbeat": true}, {"time": 1656, "is_downbeat": true}, {"time": 1680, "is_downbeat": true}, {"time": 1704, "is_downbeat": true}, {"time": 1728, "is_downbeat": true}, {"time": 1752, "is_downbeat": true}, {"time": 1776, "is_downbeat": true}, {"time": 1800, "is_downbeat": true}, {"time": 1824, "is_downbeat": true}, {"time": 1848, "is_downbeat": true}, {"time": 1896, "is_downbeat": false}, {"time": 1944, "is_downbeat": true}, {"time": 1968, "is_downbeat": true}, {"time": 1992, "is_downbeat": true}, {"time": 2016, "is_downbeat": true}, {"time": 2040, "is_downbeat": true}, {"time": 2064, "is_downbeat": true}, {"time": 2088, "is_downbeat": true}, {"time": 2112, "is_downbeat": true}, {"time": 2136, "is_downbeat": true}, {"time": 2160, "is_downbeat": true}, {"time": 2184, "is_downbeat": true}, {"time": 2208, "is_downbeat": true}, {"time": 2232, "is_downbeat": false}, {"time": 2256, "is_downbeat": false}, {"time": 2280, "is_downbeat": false}], "tracks": [{"program": 0, "is_drum": false, "notes": [{"time": 0, "pitch": 73, "duration": 24, "velocity": 64}, {"time": 24, "pitch": 73, "duration": 24, "velocity": 64}, {"time": 48, "pitch": 71, "duration": 12, "velocity": 64}, {"time": 60, "pitch": 73, "duration": 12, "velocity": 64}, {"time": 72, "pitch": 73, "duration": 48, "velocity": 64}, {"time": 120, "pitch": 71, "duration": 24, "velocity": 64}, {"time": 144, "pitch": 66, "duration": 24, "velocity": 64}, {"time": 168, "pitch": 73, "duration": 48, "velocity": 64}, {"time": 216, "pitch": 76, "duration": 12, "velocity": 64}, {"time": 240, "pitch": 73, "duration": 24, "velocity": 64}, {"time": 264, "pitch": 69, "duration": 12, "velocity": 64}, {"time": 276, "pitch": 73, "duration": 12, "velocity": 64}, {"time": 288, "pitch": 69, "duration": 24, "velocity": 64}, {"time": 312, "pitch": 66, "duration": 36, "velocity": 64}, {"time": 348, "pitch": 69, "duration": 12, "velocity": 64}, {"time": 360, "pitch": 66, "duration": 24, "velocity": 64}, {"time": 384, "pitch": 66, "duration": 24, "velocity": 64}, {"time": 408, "pitch": 69, "duration": 24, "velocity": 64}, {"time": 432, "pitch": 73, "duration": 36, "velocity": 64}, {"time": 468, "pitch": 69, "duration": 12, "velocity": 64}, {"time": 480, "pitch": 66, "duration": 96, "velocity": 64}, {"time": 576, "pitch": 73, "duration": 24, "velocity": 64}, {"time": 600, "pitch": 73, "duration": 24, "velocity": 64}, {"time": 624, "pitch": 71, "duration": 12, "velocity": 64}, {"time": 636, "pitch": 73, "duration": 12, "velocity": 64}, {"time": 648, "pitch": 73, "duration": 48, "velocity": 64}, {"time": 696, "pitch": 71, "duration": 12, "velocity": 64}, {"time": 708, "pitch": 69, "duration": 12, "velocity": 64}, {"time": 720, "pitch": 66, "duration": 12, "velocity": 64}, {"time": 732, "pitch": 73, "duration": 12, "velocity": 64}, {"time": 744, "pitch": 71, "duration": 12, "velocity": 64}, {"time": 756, "pitch": 73, "duration": 36, "velocity": 64}, {"time": 792, "pitch": 76, "duration": 12, "velocity": 64}, {"time": 816, "pitch": 73, "duration": 24, "velocity": 64}, {"time": 840, "pitch": 69, "duration": 12, "velocity": 64}, {"time": 852, "pitch": 66, "duration": 12, "velocity": 64}, {"time": 864, "pitch": 73, "duration": 24, "velocity": 64}, {"time": 888, "pitch": 66, "duration": 36, "velocity": 64}, {"time": 924, "pitch": 69, "duration": 12, "velocity": 64}, {"time": 936, "pitch": 66, "duration": 24, "velocity": 64}, {"time": 960, "pitch": 66, "duration": 24, "velocity": 64}, {"time": 984, "pitch": 71, "duration": 24, "velocity": 64}, {"time": 1008, "pitch": 73, "duration": 36, "velocity": 64}, {"time": 1044, "pitch": 69, "duration": 12, "velocity": 64}, {"time": 1056, "pitch": 66, "duration": 96, "velocity": 64}, {"time": 1152, "pitch": 66, "duration": 24, "velocity": 64}, {"time": 1176, "pitch": 71, "duration": 24, "velocity": 64}, {"time": 1200, "pitch": 69, "duration": 24, "velocity": 64}, {"time": 1224, "pitch": 69, "duration": 12, "velocity": 64}, {"time": 1236, "pitch": 66, "duration": 36, "velocity": 64}, {"time": 1272, "pitch": 71, "duration": 24, "velocity": 64}, {"time": 1296, "pitch": 66, "duration": 24, "velocity": 64}, {"time": 1320, "pitch": 71, "duration": 12, "velocity": 64}, {"time": 1332, "pitch": 73, "duration": 36, "velocity": 64}, {"time": 1368, "pitch": 76, "duration": 12, "velocity": 64}, {"time": 1392, "pitch": 73, "duration": 24, "velocity": 64}, {"time": 1416, "pitch": 69, "duration": 12, "velocity": 64}, {"time": 1428, "pitch": 73, "duration": 12, "velocity": 64}, {"time": 1440, "pitch": 69, "duration": 24, "velocity": 64}, {"time": 1464, "pitch": 66, "duration": 36, "velocity": 64}, {"time": 1500, "pitch": 69, "duration": 12, "velocity": 64}, {"time": 1512, "pitch": 66, "duration": 24, "velocity": 64}, {"time": 1536, "pitch": 66, "duration": 24, "velocity": 64}, {"time": 1560, "pitch": 69, "duration": 24, "velocity": 64}, {"time": 1584, "pitch": 73, "duration": 36, "velocity": 64}, {"time": 1620, "pitch": 69, "duration": 12, "velocity": 64}, {"time": 1632, "pitch": 66, "duration": 96, "velocity": 64}, {"time": 1728, "pitch": 73, "duration": 24, "velocity": 64}, {"time": 1752, "pitch": 73, "duration": 24, "velocity": 64}, {"time": 1776, "pitch": 71, "duration": 12, "velocity": 64}, {"time": 1788, "pitch": 73, "duration": 12, "velocity": 64}, {"time": 1800, "pitch": 73, "duration": 24, "velocity": 64}, {"time": 1824, "pitch": 71, "duration": 12, "velocity": 64}, {"time": 1836, "pitch": 66, "duration": 12, "velocity": 64}, {"time": 1848, "pitch": 69, "duration": 12, "velocity": 64}, {"time": 1860, "pitch": 71, "duration": 12, "velocity": 64}, {"time": 1872, "pitch": 66, "duration": 12, "velocity": 64}, {"time": 1884, "pitch": 73, "duration": 12, "velocity": 64}, {"time": 1896, "pitch": 71, "duration": 12, "velocity": 64}, {"time": 1908, "pitch": 73, "duration": 36, "velocity": 64}, {"time": 1944, "pitch": 76, "duration": 12, "velocity": 64}, {"time": 1968, "pitch": 73, "duration": 24, "velocity": 64}, {"time": 1992, "pitch": 69, "duration": 12, "velocity": 64}, {"time": 2004, "pitch": 66, "duration": 12, "velocity": 64}, {"time": 2016, "pitch": 73, "duration": 24, "velocity": 64}, {"time": 2040, "pitch": 66, "duration": 36, "velocity": 64}, {"time": 2076, "pitch": 69, "duration": 12, "velocity": 64}, {"time": 2088, "pitch": 66, "duration": 24, "velocity": 64}, {"time": 2112, "pitch": 66, "duration": 24, "velocity": 64}, {"time": 2136, "pitch": 71, "duration": 24, "velocity": 64}, {"time": 2160, "pitch": 73, "duration": 36, "velocity": 64}, {"time": 2196, "pitch": 69, "duration": 12, "velocity": 64}, {"time": 2208, "pitch": 66, "duration": 96, "velocity": 64}]}]}