{"metadata": {"schema_version": "0.1", "title": "Yaoshang shanling bupagao", "source_format": "abc"}, "resolution": 24, "tempos": [{"time": 0, "qpm": 120.0}], "key_signatures": [{"time": 0, "root": 4, "mode": "major", "fifths": 4}], "time_signatures": [{"time": 0, "numerator": 4, "denominator": 4}, {"time": 192, "numerator": 3, "denominator": 4}, {"time": 264, "numerator": 2, "denominator": 4}], "beats": [{"time": 0, "is_downbeat": true}, {"time": 24, "is_downbeat": false}, {"time": 48, "is_downbeat": true}, {"time": 72, "is_downbeat": false}, {"time": 96, "is_downbeat": true}, {"time": 120, "is_downbeat": false}, {"time": 144, "is_downbeat": true}, {"time": 168, "is_downbeat": false}, {"time": 192, "is_downbeat": true}, {"time": 216, "is_downbeat": false}, {"time": 240, "is_downbeat": true}, {"time": 264, "is_downbeat": true}, {"time": 288, "is_downbeat": false}, {"time": 312, "is_downbeat": true}, {"time": 336, "is_downbeat": false}, {"time": 360, "is_downbeat": true}, {"time": 384, "is_downbeat": false}, {"time": 408, "is_downbeat": true}, {"time": 432, "is_downbeat": false}, {"time": 456, "is_downbeat": true}, {"time": 480, "is_downbeat": false}, {"time": 504, "is_downbeat": true}, {"time": 528, "is_downbeat": false}, {"time": 552, "is_downbeat": true}, {"time": 576, "is_downbeat": false}, {"time": 600, "is_downbeat": true}, {"time": 624, "is_downbeat": false}, {"time": 648, "is_downbeat": true}, {"time": 672, "is_downbeat": false}, {"time": 696, "is_downbeat": true}, {"time": 720, "is_downbeat": false}, {"time": 744, "is_downbeat": true}, {"time": 768, "is_downbeat": false}, {"time": 792, "is_downbeat": true}, {"time": 816, "is_downbeat": false}, {"time": 840, "is_downbeat": true}, {"time": 864, "is_downbeat": false}, {"time": 888, "is_downbeat": true}, {"time": 912, "is_downbeat": false}], "tracks": [{"program": 0, "is_drum": false, "notes": [{"time": 0, "pitch": 71, "duration": 12, "velocity": 64}, {"time": 12, "pitch": 71, "duration": 24, "velocity": 64}, {"time": 36, "pitch": 71, "duration": 6, "velocity": 64}, {"time": 42, "pitch": 76, "duration": 6, "velocity": 64}, {"time": 48, "pitch": 78, "duration": 96, "velocity": 64}, {"time": 144, "pitch": 78, "duration": 12, "velocity": 64}, {"time": 156, "pitch": 76, "duration": 6, "velocity": 64}, {"time": 162, "pitch": 78, "duration": 6, "velocity": 64}, {"time": 168, "pitch": 76, "duration": 6, "velocity": 64}, {"time": 174, "pitch": 73, "duration": 6, "velocity": 64}, {"time": 180, "pitch": 71, "duration": 36, "velocity": 64}, {"time": 216, "pitch": 78, "duration": 12, "velocity": 64}, {"time": 228, "pitch": 76, "duration": 6, "velocity": 64}, {"time": 234, "pitch": 78, "duration": 6, "velocity": 64}, {"time": 240, "pitch": 76, "duration": 12, "velocity": 64}, {"time": 252, "pitch": 73, "duration": 6, "velocity": 64}, {"time": 258, "pitch": 71, "duration": 6, "velocity": 64}, {"time": 264, "pitch": 73, "duration": 96, "velocity": 64}, {"time": 360, "pitch": 76, "duration": 12, "velocity": 64}, {"time": 372, "pitch": 73, "duration": 6, "velocity": 64}, {"time": 378, "pitch": 76, "duration": 6, "velocity": 64}, {"time": 384, "pitch": 73, "duration": 12, "velocity": 64}, {"time": 396, "pitch": 71, "duration": 12, "velocity": 64}, {"time": 408, "pitch": 71, "duration": 72, "velocity": 64}, {"time": 504, "pitch": 68, "duration": 12, "velocity": 64}, {"time": 516, "pitch": 71, "duration": 24, "velocity": 64}, {"time": 540, "pitch": 68, "duration": 12, "velocity": 64}, {"time": 552, "pitch": 71, "duration": 24, "velocity": 64}, {"time": 576, "pitch": 71, "duration": 12, "velocity": 64}, {"time": 588, "pitch": 71, "duration": 12, "velocity": 64}, {"time": 600, "pitch": 71, "duration": 48, "velocity": 64}, {"time": 648, "pitch": 78, "duration": 12, "velocity": 64}, {"time": 660, "pitch": 73, "duration": 6, "velocity": 64}, {"time": 666, "pitch": 76, "duration": 6, "velocity": 64}, {"time": 672, "pitch": 73, "duration": 12, "velocity": 64}, {"time": 684, "pitch": 71, "duration": 12, "velocity": 64}, {"time": 696, "pitch": 73, "duration": 60, "velocity": 64}, {"time": 756, "pitch": 78, "duration": 12, "velocity": 64}, {"time": 768, "pitch": 73, "duration": 12, "velocity": 64}, {"time": 780, "pitch": 71, "duration": 12, "velocity": 64}, {"time": 792, "pitch": 71, "duration": 18, "velocity": 64}, {"time": 810, "pitch": 71, "duration": 6, "velocity": 64}, {"time": 816, "pitch": 73, "duration": 6, "velocity": 64}, {"time": 822, "pitch": 76, "duration": 6, "velocity": 64}, {"time": 828, "pitch": 73, "duration": 12, "velocity": 64}, {"time": 840, "pitch": 71, "duration": 72, "velocity": 64}]}]}