{"metadata": {"schema_version": "0.1", "title": "Wulongjiangbian qixiangxin", "source_format": "abc"}, "resolution": 24, "tempos": [{"time": 0, "qpm": 120.0}], "key_signatures": [{"time": 0, "root": 0, "mode": "major", "fifths": 0}], "time_signatures": [{"time": 0, "numerator": 4, "denominator": 4}], "tracks": [{"program": 0, "is_drum": false, "notes": [{"time": 0, "pitch": 69, "duration": 12, "velocity": 64}, {"time": 12, "pitch": 72, "duration": 12, "velocity": 64}, {"time": 24, "pitch": 72, "duration": 12, "velocity": 64}, {"time": 36, "pitch": 72, "duration": 6, "velocity": 64}, {"time": 42, "pitch": 69, "duration": 6, "velocity": 64}, {"time": 48, "pitch": 67, "duration": 48, "velocity": 64}, {"time": 96, "pitch": 69, "duration": 12, "velocity": 64}, {"time": 108, "pitch": 72, "duration": 12, "velocity": 64}, {"time": 120, "pitch": 74, "duration": 12, "velocity": 64}, {"time": 132, "pitch": 74, "duration": 60, "velocity": 64}, {"time": 192, "pitch": 74, "duration": 12, "velocity": 64}, {"time": 204, "pitch": 74, "duration": 12, "velocity": 64}, {"time": 216, "pitch": 72, "duration": 12, "velocity": 64}, {"time": 228, "pitch": 72, "duration": 12, "velocity": 64}, {"time": 240, "pitch": 69, "duration": 48, "velocity": 64}, {"time": 288, "pitch": 69, "duration": 18, "velocity": 64}, {"time": 306, "pitch": 72, "duration": 6, "velocity": 64}, {"time": 312, "pitch": 72, "duration": 12, "velocity": 64}, {"time": 324, "pitch": 69, "duration": 12, "velocity": 64}, {"time": 336, "pitch": 67, "duration": 48, "velocity": 64}]}]}