{"metadata": {"schema_version": "0.1", "title": "Xiangnian hongjun", "source_format": "abc"}, "resolution": 24, "tempos": [{"time": 0, "qpm": 120.0}], "key_signatures": [{"time": 0, "root": 7, "mode": "major", "fifths": 1}], "time_signatures": [{"time": 0, "numerator": 5, "denominator": 8}], "tracks": [{"program": 0, "is_drum": false, "notes": [{"time": 0, "pitch": 81, "duration": 12, "velocity": 64}, {"time": 12, "pitch": 79, "duration": 12, "velocity": 64}, {"time": 24, "pitch": 81, "duration": 12, "velocity": 64}, {"time": 36, "pitch": 81, "duration": 24, "velocity": 64}, {"time": 60, "pitch": 81, "duration": 12, "velocity": 64}, {"time": 72, "pitch": 79, "duration": 12, "velocity": 64}, {"time": 84, "pitch": 81, "duration": 12, "velocity": 64}, {"time": 96, "pitch": 76, "duration": 24, "velocity": 64}, {"time": 120, "pitch": 76, "duration": 12, "velocity": 64}, {"time": 132, "pitch": 81, "duration": 12, "velocity": 64}, {"time": 144, "pitch": 81, "duration": 12, "velocity": 64}, {"time": 156, "pitch": 79, "duration": 24, "velocity": 64}, {"time": 180, "pitch": 76, "duration": 12, "velocity": 64}, {"time": 192, "pitch": 81, "duration": 6, "velocity": 64}, {"time": 198, "pitch": 79, "duration": 6, "velocity": 64}, {"time": 204, "pitch": 76, "duration": 36, "velocity": 64}, {"time": 240, "pitch": 81, "duration": 12, "velocity": 64}, {"time": 252, "pitch": 79, "duration": 6, "velocity": 64}, {"time": 258, "pitch": 81, "duration": 6, "velocity": 64}, {"time": 264, "pitch": 83, "duration": 12, "velocity": 64}, {"time": 276, "pitch": 83, "duration": 24, "velocity": 64}, {"time": 300, "pitch": 81, "duration": 12, "velocity": 64}, {"time": 312, "pitch": 79, "duration": 6, "velocity": 64}, {"time": 318, "pitch": 81, "duration": 6, "velocity": 64}, {"time": 324, "pitch": 79, "duration": 12, "velocity": 64}, {"time": 336, "pitch": 76, "duration": 24, "velocity": 64}, {"time": 360, "pitch": 76, "duration": 12, "velocity": 64}, {"time": 372, "pitch": 81, "duration": 6, "velocity": 64}, {"time": 378, "pitch": 79, "duration": 6, "velocity": 64}, {"time": 384, "pitch": 76, "duration": 12, "velocity": 64}, {"time": 396, "pitch": 79, "duration": 24, "velocity": 64}, {"time": 420, "pitch": 79, "duration": 12, "velocity": 64}, {"time": 432, "pitch": 81, "duration": 6, "velocity": 64}, {"time": 438, "pitch": 79, "duration": 6, "velocity": 64}, {"time": 444, "pitch": 76, "duration": 12, "velocity": 64}, {"time": 456, "pitch": 76, "duration": 24, "velocity": 64}]}]}