{"metadata": {"schema_version": "0.1", "title": "Yueliang yueguangguang", "source_format": "abc"}, "resolution": 24, "tempos": [{"time": 0, "qpm": 120.0}], "key_signatures": [{"time": 0, "root": 5, "mode": "major", "fifths": -1}], "time_signatures": [{"time": 0, "numerator": 4, "denominator": 4}, {"time": 240, "numerator": 4, "denominator": 4}, {"time": 384, "numerator": 1, "denominator": 4}, {"time": 456, "numerator": 1, "denominator": 4}, {"time": 720, "numerator": 1, "denominator": 4}, {"time": 792, "numerator": 1, "denominator": 4}, {"time": 1728, "numerator": 1, "denominator": 4}, {"time": 1800, "numerator": 1, "denominator": 4}, {"time": 1824, "numerator": 2, "denominator": 4}], "beats": [{"time": 0, "is_downbeat": true}, {"time": 24, "is_downbeat": false}, {"time": 48, "is_downbeat": true}, {"time": 72, "is_downbeat": false}, {"time": 96, "is_downbeat": true}, {"time": 120, "is_downbeat": false}, {"time": 144, "is_downbeat": true}, {"time": 168, "is_downbeat": false}, {"time": 192, "is_downbeat": true}, {"time": 216, "is_downbeat": false}, {"time": 240, "is_downbeat": true}, {"time": 264, "is_downbeat": true}, {"time": 288, "is_downbeat": true}, {"time": 312, "is_downbeat": true}, {"time": 336, "is_downbeat": true}, {"time": 360, "is_downbeat": true}, {"time": 384, "is_downbeat": true}, {"time": 408, "is_downbeat": true}, {"time": 432, "is_downbeat": true}, {"time": 456, "is_downbeat": true}, {"time": 480, "is_downbeat": true}, {"time": 504, "is_downbeat": true}, {"time": 528, "is_downbeat": true}, {"time": 552, "is_downbeat": true}, {"time": 576, "is_downbeat": true}, {"time": 600, "is_downbeat": true}, {"time": 624, "is_downbeat": true}, {"time": 648, "is_downbeat": true}, {"time": 672, "is_downbeat": true}, {"time": 696, "is_downbeat": true}, {"time": 720, "is_downbeat": true}, {"time": 744, "is_downbeat": true}, {"time": 768, "is_downbeat": true}, {"time": 792, "is_downbeat": true}, {"time": 816, "is_downbeat": true}, {"time": 840, "is_downbeat": true}, {"time": 864, "is_downbeat": true}, {"time": 888, "is_downbeat": true}, {"time": 912, "is_downbeat": true}, {"time": 936, "is_downbeat": true}, {"time": 960, "is_downbeat": true}, {"time": 984, "is_downbeat": true}, {"time": 1008, "is_downbeat": true}, {"time": 1032, "is_downbeat": true}, {"time": 1056, "is_downbeat": true}, {"time": 1080, "is_downbeat": true}, {"time": 1104, "is_downbeat": true}, {"time": 1128, "is_downbeat": true}, {"time": 1152, "is_downbeat": true}, {"time": 1176, "is_downbeat": true}, {"time": 1200, "is_downbeat": true}, {"time": 1224, "is_downbeat": true}, {"time": 1248, "is_downbeat": true}, {"time": 1272, "is_downbeat": true}, {"time": 1296, "is_downbeat": true}, {"time": 1320, "is_downbeat": true}, {"time": 1344, "is_downbeat": true}, {"time": 1368, "is_downbeat": true}, {"time": 1392, "is_downbeat": true}, {"time": 1416, "is_downbeat": true}, {"time": 1440, "is_downbeat": true}, {"time": 1464, "is_downbeat": true}, {"time": 1488, "is_downbeat": true}, {"time": 1512, "is_downbeat": true}, {"time": 1536, "is_downbeat": true}, {"time": 1560, "is_downbeat": true}, {"time": 1584, "is_downbeat": true}, {"time": 1608, "is_downbeat": true}, {"time": 1632, "is_downbeat": true}, {"time": 1656, "is_downbeat": true}, {"time": 1680, "is_downbeat": true}, {"time": 1704, "is_downbeat": true}, {"time": 1728, "is_downbeat": true}, {"time": 1752, "is_downbeat": true}, {"time": 1776, "is_downbeat": true}, {"time": 1800, "is_downbeat": true}, {"time": 1824, "is_downbeat": true}, {"time": 1848, "is_downbeat": false}, {"time": 1872, "is_downbeat": true}, {"time": 1896, "is_downbeat": false}, {"time": 1920, "is_downbeat": true}, {"time": 1944, "is_downbeat": false}, {"time": 1968, "is_downbeat": true}, {"time": 1992, "is_downbeat": false}, {"time": 2016, "is_downbeat": true}, {"time": 2040, "is_downbeat": false}], "tracks": [{"program": 0, "is_drum": false, "notes": [{"time": 0, "pitch": 69, "duration": 12, "velocity": 64}, {"time": 12, "pitch": 69, "duration": 12, "velocity": 64}, {"time": 24, "pitch": 72, "duration": 12, "velocity": 64}, {"time": 36, "pitch": 69, "duration": 12, "velocity": 64}, {"time": 48, "pitch": 65, "duration": 12, "velocity": 64}, {"time": 60, "pitch": 65, "duration": 12, "velocity": 64}, {"time": 72, "pitch": 69, "duration": 12, "velocity": 64}, {"time": 96, "pitch": 69, "duration": 12, "velocity": 64}, {"time": 108, "pitch": 69, "duration": 12, "velocity": 64}, {"time": 120, "pitch": 72, "duration": 12, "velocity": 64}, {"time": 132, "pitch": 69, "duration": 12, "velocity": 64}, {"time": 144, "pitch": 65, "duration": 12, "velocity": 64}, {"time": 156, "pitch": 65, "duration": 12, "velocity": 64}, {"time": 168, "pitch": 69, "duration": 12, "velocity": 64}, {"time": 192, "pitch": 65, "duration": 12, "velocity": 64}, {"time": 204, "pitch": 65, "duration": 12, "velocity": 64}, {"time": 216, "pitch": 69, "duration": 12, "velocity": 64}, {"time": 240, "pitch": 65, "duration": 12, "velocity": 64}, {"time": 252, "pitch": 65, "duration": 12, "velocity": 64}, {"time": 264, "pitch": 69, "duration": 12, "velocity": 64}, {"time": 288, "pitch": 60, "duration": 12, "velocity": 64}, {"time": 300, "pitch": 67, "duration": 12, "velocity": 64}, {"time": 312, "pitch": 60, "duration": 12, "velocity": 64}, {"time": 324, "pitch": 63, "duration": 12, "velocity": 64}, {"time": 336, "pitch": 63, "duration": 12, "velocity": 64}, {"time": 360, "pitch": 60, "duration": 12, "velocity": 64}, {"time": 372, "pitch": 64, "duration": 12, "velocity": 64}, {"time": 384, "pitch": 60, "duration": 12, "velocity": 64}, {"time": 396, "pitch": 60, "duration": 12, "velocity": 64}, {"time": 408, "pitch": 63, "duration": 12, "velocity": 64}, {"time": 432, "pitch": 64, "duration": 12, "velocity": 64}, {"time": 444, "pitch": 67, "duration": 12, "velocity": 64}, {"time": 456, "pitch": 67, "duration": 12, "velocity": 64}, {"time": 468, "pitch": 65, "duration": 12, "velocity": 64}, {"time": 480, "pitch": 67, "duration": 12, "velocity": 64}, {"time": 492, "pitch": 60, "duration": 12, "velocity": 64}, {"time": 504, "pitch": 67, "duration": 12, "velocity": 64}, {"time": 528, "pitch": 65, "duration": 12, "velocity": 64}, {"time": 540, "pitch": 67, "duration": 12, "velocity": 64}, {"time": 552, "pitch": 60, "duration": 12, "velocity": 64}, {"time": 564, "pitch": 63, "duration": 12, "velocity": 64}, {"time": 576, "pitch": 60, "duration": 12, "velocity": 64}, {"time": 588, "pitch": 60, "duration": 12, "velocity": 64}, {"time": 600, "pitch": 63, "duration": 12, "velocity": 64}, {"time": 624, "pitch": 65, "duration": 12, "velocity": 64}, {"time": 636, "pitch": 64, "duration": 12, "velocity": 64}, {"time": 648, "pitch": 65, "duration": 12, "velocity": 64}, {"time": 660, "pitch": 64, "duration": 12, "velocity": 64}, {"time": 672, "pitch": 63, "duration": 12, "velocity": 64}, {"time": 696, "pitch": 65, "duration": 12, "velocity": 64}, {"time": 708, "pitch": 67, "duration": 12, "velocity": 64}, {"time": 720, "pitch": 65, "duration": 12, "velocity": 64}, {"time": 732, "pitch": 64, "duration": 12, "velocity": 64}, {"time": 744, "pitch": 63, "duration": 12, "velocity": 64}, {"time": 768, "pitch": 65, "duration": 12, "velocity": 64}, {"time": 780, "pitch": 67, "duration": 12, "velocity": 64}, {"time": 792, "pitch": 67, "duration": 12, "velocity": 64}, {"time": 804, "pitch": 64, "duration": 12, "velocity": 64}, {"time": 816, "pitch": 60, "duration": 12, "velocity": 64}, {"time": 828, "pitch": 63, "duration": 12, "velocity": 64}, {"time": 840, "pitch": 64, "duration": 12, "velocity": 64}, {"time": 864, "pitch": 65, "duration": 12, "velocity": 64}, {"time": 876, "pitch": 67, "duration": 12, "velocity": 64}, {"time": 888, "pitch": 65, "duration": 12, "velocity": 64}, {"time": 900, "pitch": 67, "duration": 12, "velocity": 64}, {"time": 912, "pitch": 67, "duration": 12, "velocity": 64}, {"time": 924, "pitch": 63, "duration": 12, "velocity": 64}, {"time": 936, "pitch": 64, "duration": 12, "velocity": 64}, {"time": 960, "pitch": 65, "duration": 12, "velocity": 64}, {"time": 972, "pitch": 65, "duration": 12, "velocity": 64}, {"time": 984, "pitch": 65, "duration": 12, "velocity": 64}, {"time": 996, "pitch": 60, "duration": 12, "velocity": 64}, {"time": 1008, "pitch": 67, "duration": 12, "velocity": 64}, {"time": 1020, "pitch": 60, "duration": 12, "velocity": 64}, {"time": 1032, "pitch": 63, "duration": 12, "velocity": 64}, {"time": 1056, "pitch": 65, "duration": 12, "velocity": 64}, {"time": 1068, "pitch": 60, "duration": 12, "velocity": 64}, {"time": 1080, "pitch": 60, "duration": 12, "velocity": 64}, {"time": 1092, "pitch": 64, "duration": 12, "velocity": 64}, {"time": 1104, "pitch": 65, "duration": 12, "velocity": 64}, {"time": 1116, "pitch": 60, "duration": 12, "velocity": 64}, {"time": 1128, "pitch": 65, "duration": 12, "velocity": 64}, {"time": 1152, "pitch": 60, "duration": 12, "velocity": 64}, {"time": 1164, "pitch": 65, "duration": 12, "velocity": 64}, {"time": 1176, "pitch": 60, "duration": 12, "velocity": 64}, {"time": 1188, "pitch": 63, "duration": 12, "velocity": 64}, {"time": 1200, "pitch": 65, "duration": 12, "velocity": 64}, {"time": 1212, "pitch": 60, "duration": 12, "velocity": 64}, {"time": 1224, "pitch": 63, "duration": 12, "velocity": 64}, {"time": 1248, "pitch": 65, "duration": 12, "velocity": 64}, {"time": 1260, "pitch": 60, "duration": 12, "velocity": 64}, {"time": 1272, "pitch": 65, "duration": 12, "velocity": 64}, {"time": 1284, "pitch": 65, "duration": 12, "velocity": 64}, {"time": 1296, "pitch": 65, "duration": 12, "velocity": 64}, {"time": 1308, "pitch": 60, "duration": 12, "velocity": 64}, {"time": 1320, "pitch": 65, "duration": 12, "velocity": 64}, {"time": 1344, "pitch": 65, "duration": 12, "velocity": 64}, {"time": 1356, "pitch": 63, "duration": 12, "velocity": 64}, {"time": 1368, "pitch": 65, "duration": 12, "velocity": 64}, {"time": 1380, "pitch": 64, "duration": 12, "velocity": 64}, {"time": 1392, "pitch": 63, "duration": 24, "velocity": 64}, {"time": 1416, "pitch": 65, "duration": 24, "velocity": 64}, {"time": 1440, "pitch": 67, "duration": 24, "velocity": 64}, {"time": 1488, "pitch": 65, "duration": 12, "velocity": 64}, {"time": 1500, "pitch": 60, "duration": 12, "velocity": 64}, {"time": 1512, "pitch": 65, "duration": 12, "velocity": 64}, {"time": 1524, "pitch": 60, "duration": 12, "velocity": 64}, {"time": 1536, "pitch": 60, "duration": 12, "velocity": 64}, {"time": 1548, "pitch": 63, "duration": 12, "velocity": 64}, {"time": 1560, "pitch": 65, "duration": 12, "velocity": 64}, {"time": 1584, "pitch": 60, "duration": 12, "velocity": 64}, {"time": 1596, "pitch": 65, "duration": 12, "velocity": 64}, {"time": 1608, "pitch": 64, "duration": 12, "velocity": 64}, {"time": 1620, "pitch": 60, "duration": 12, "velocity": 64}, {"time": 1632, "pitch": 65, "duration": 12, "velocity": 64}, {"time": 1644, "pitch": 67, "duration": 12, "velocity": 64}, {"time": 1656, "pitch": 67, "duration": 12, "velocity": 64}, {"time": 1668, "pitch": 67, "duration": 12, "velocity": 64}, {"time": 1680, "pitch": 67, "duration": 12, "velocity": 64}, {"time": 1704, "pitch": 67, "duration": 12, "velocity": 64}, {"time": 1716, "pitch": 60, "duration": 12, "velocity": 64}, {"time": 1728, "pitch": 60, "duration": 12, "velocity": 64}, {"time": 1740, "pitch": 65, "duration": 12, "velocity": 64}, {"time": 1752, "pitch": 63, "duration": 12, "velocity": 64}, {"time": 1776, "pitch": 60, "duration": 12, "velocity": 64}, {"time": 1788, "pitch": 65, "duration": 12, "velocity": 64}, {"time": 1800, "pitch": 65, "duration": 12, "velocity": 64}, {"time": 1824, "pitch": 60, "duration": 12, "velocity": 64}, {"time": 1836, "pitch": 65, "duration": 12, "velocity": 64}, {"time": 1848, "pitch": 65, "duration": 12, "velocity": 64}, {"time": 1872, "pitch": 65, "duration": 12, "velocity": 64}, {"time": 1884, "pitch": 60, "duration": 12, "velocity": 64}, {"time": 1896, "pitch": 60, "duration": 12, "velocity": 64}, {"time": 1908, "pitch": 65, "duration": 12, "velocity": 64}, {"time": 1920, "pitch": 65, "duration": 12, "velocity": 64}, {"time": 1932, "pitch": 60, "duration": 12, "velocity": 64}, {"time": 1944, "pitch": 65, "duration": 12, "velocity": 64}, {"time": 1956, "pitch": 60, "duration": 12, "velocity": 64}, {"time": 1968, "pitch": 65, "duration": 12, "velocity": 64}, {"time": 1980, "pitch": 63, "duration": 12, "velocity": 64}, {"time": 1992, "pitch": 65, "duration": 12, "velocity": 64}, {"time": 2004, "pitch": 60, "duration": 12, "velocity": 64}, {"time": 2016, "pitch": 65, "duration": 12, "velocity": 64}]}]}