{"metadata": {"schema_version": "0.1", "title": "Yaoqiu jiefang xu geming", "source_format": "abc"}, "resolution": 24, "tempos": [{"time": 0, "qpm": 120.0}], "key_signatures": [{"time": 0, "root": 2, "mode": "major", "fifths": 2}], "time_signatures": [{"time": 0, "numerator": 4, "denominator": 4}, {"time": 48, "numerator": 1, "denominator": 4}, {"time": 120, "numerator": 6, "denominator": 8}, {"time": 528, "numerator": 1, "denominator": 4}, {"time": 552, "numerator": 2, "denominator": 4}], "beats": [{"time": 0, "is_downbeat": true}, {"time": 24, "is_downbeat": true}, {"time": 48, "is_downbeat": true}, {"time": 60, "is_downbeat": false}, {"time": 72, "is_downbeat": true}, {"time": 84, "is_downbeat": false}, {"time": 96, "is_downbeat": false}, {"time": 108, "is_downbeat": false}, {"time": 120, "is_downbeat": true}, {"time": 144, "is_downbeat": true}, {"time": 168, "is_downbeat": true}, {"time": 192, "is_downbeat": true}, {"time": 216, "is_downbeat": true}, {"time": 240, "is_downbeat": true}, {"time": 264, "is_downbeat": true}, {"time": 288, "is_downbeat": true}, {"time": 312, "is_downbeat": true}, {"time": 336, "is_downbeat": true}, {"time": 360, "is_downbeat": true}, {"time": 384, "is_downbeat": true}, {"time": 408, "is_downbeat": true}, {"time": 432, "is_downbeat": true}, {"time": 456, "is_downbeat": true}, {"time": 480, "is_downbeat": true}, {"time": 504, "is_downbeat": true}, {"time": 528, "is_downbeat": true}, {"time": 552, "is_downbeat": true}, {"time": 576, "is_downbeat": false}, {"time": 600, "is_downbeat": true}, {"time": 624, "is_downbeat": false}, {"time": 648, "is_downbeat": true}, {"time": 672, "is_downbeat": false}, {"time": 696, "is_downbeat": true}, {"time": 720, "is_downbeat": false}, {"time": 744, "is_downbeat": true}, {"time": 768, "is_downbeat": false}, {"time": 792, "is_downbeat": true}, {"time": 816, "is_downbeat": false}], "tracks": [{"program": 0, "is_drum": false, "notes": [{"time": 0, "pitch": 78, "duration": 12, "velocity": 64}, {"time": 12, "pitch": 78, "duration": 12, "velocity": 64}, {"time": 24, "pitch": 76, "duration": 6, "velocity": 64}, {"time": 30, "pitch": 78, "duration": 6, "velocity": 64}, {"time": 36, "pitch": 76, "duration": 24, "velocity": 64}, {"time": 60, "pitch": 78, "duration": 6, "velocity": 64}, {"time": 66, "pitch": 76, "duration": 6, "velocity": 64}, {"time": 72, "pitch": 74, "duration": 12, "velocity": 64}, {"time": 84, "pitch": 76, "duration": 6, "velocity": 64}, {"time": 90, "pitch": 78, "duration": 6, "velocity": 64}, {"time": 96, "pitch": 76, "duration": 6, "velocity": 64}, {"time": 102, "pitch": 74, "duration": 6, "velocity": 64}, {"time": 108, "pitch": 71, "duration": 36, "velocity": 64}, {"time": 144, "pitch": 74, "duration": 12, "velocity": 64}, {"time": 156, "pitch": 76, "duration": 24, "velocity": 64}, {"time": 180, "pitch": 76, "duration": 6, "velocity": 64}, {"time": 186, "pitch": 76, "duration": 6, "velocity": 64}, {"time": 192, "pitch": 74, "duration": 12, "velocity": 64}, {"time": 204, "pitch": 76, "duration": 6, "velocity": 64}, {"time": 210, "pitch": 78, "duration": 6, "velocity": 64}, {"time": 216, "pitch": 76, "duration": 6, "velocity": 64}, {"time": 222, "pitch": 78, "duration": 6, "velocity": 64}, {"time": 228, "pitch": 76, "duration": 6, "velocity": 64}, {"time": 234, "pitch": 74, "duration": 6, "velocity": 64}, {"time": 240, "pitch": 71, "duration": 48, "velocity": 64}, {"time": 288, "pitch": 74, "duration": 12, "velocity": 64}, {"time": 300, "pitch": 76, "duration": 6, "velocity": 64}, {"time": 306, "pitch": 78, "duration": 6, "velocity": 64}, {"time": 312, "pitch": 76, "duration": 24, "velocity": 64}, {"time": 336, "pitch": 71, "duration": 12, "velocity": 64}, {"time": 348, "pitch": 74, "duration": 6, "velocity": 64}, {"time": 354, "pitch": 76, "duration": 6, "velocity": 64}, {"time": 360, "pitch": 74, "duration": 24, "velocity": 64}, {"time": 384, "pitch": 71, "duration": 12, "velocity": 64}, {"time": 396, "pitch": 71, "duration": 12, "velocity": 64}, {"time": 408, "pitch": 74, "duration": 12, "velocity": 64}, {"time": 420, "pitch": 71, "duration": 6, "velocity": 64}, {"time": 426, "pitch": 74, "duration": 6, "velocity": 64}, {"time": 432, "pitch": 76, "duration": 36, "velocity": 64}, {"time": 468, "pitch": 78, "duration": 6, "velocity": 64}, {"time": 474, "pitch": 76, "duration": 6, "velocity": 64}, {"time": 480, "pitch": 74, "duration": 12, "velocity": 64}, {"time": 492, "pitch": 76, "duration": 6, "velocity": 64}, {"time": 498, "pitch": 78, "duration": 6, "velocity": 64}, {"time": 504, "pitch": 76, "duration": 6, "velocity": 64}, {"time": 510, "pitch": 74, "duration": 6, "velocity": 64}, {"time": 516, "pitch": 71, "duration": 36, "velocity": 64}, {"time": 552, "pitch": 74, "duration": 6, "velocity": 64}, {"time": 558, "pitch": 71, "duration": 6, "velocity": 64}, {"time": 564, "pitch": 76, "duration": 36, "velocity": 64}, {"time": 600, "pitch": 74, "duration": 48, "velocity": 64}, {"time": 648, "pitch": 71, "duration": 12, "velocity": 64}, {"time": 660, "pitch": 71, "duration": 12, "velocity": 64}, {"time": 672, "pitch": 74, "duration": 12, "velocity": 64}, {"time": 684, "pitch": 71, "duration": 6, "velocity": 64}, {"time": 690, "pitch": 74, "duration": 6, "velocity": 64}, {"time": 696, "pitch": 76, "duration": 36, "velocity": 64}, {"time": 732, "pitch": 78, "duration": 6, "velocity": 64}, {"time": 738, "pitch": 76, "duration": 6, "velocity": 64}, {"time": 744, "pitch": 74, "duration": 12, "velocity": 64}, {"time": 756, "pitch": 76, "duration": 6, "velocity": 64}, {"time": 762, "pitch": 78, "duration": 6, "velocity": 64}, {"time": 768, "pitch": 76, "duration": 6, "velocity": 64}, {"time": 774, "pitch": 74, "duration": 6, "velocity": 64}, {"time": 780, "pitch": 71, "duration": 6, "velocity": 64}, {"time": 786, "pitch": 69, "duration": 6, "velocity": 64}, {"time": 792, "pitch": 71, "duration": 48, "velocity": 64}]}]}