{"metadata": {"schema_version": "0.1", "title": "Lingxiu jiubie huiguxiang", "source_format": "abc"}, "resolution": 24, "tempos": [{"time": 0, "qpm": 120.0}], "key_signatures": [{"time": 0, "root": 7, "mode": "major", "fifths": 1}], "time_signatures": [{"time": 0, "numerator": 4, "denominator": 4}, {"time": 168, "numerator": 1, "denominator": 4}, {"time": 432, "numerator": 1, "denominator": 4}, {"time": 648, "numerator": 1, "denominator": 4}, {"time": 720, "numerator": 1, "denominator": 4}, {"time": 792, "numerator": 6, "denominator": 8}, {"time": 960, "numerator": 1, "denominator": 4}, {"time": 1080, "numerator": 1, "denominator": 4}, {"time": 1200, "numerator": 1, "denominator": 4}, {"time": 1224, "numerator": 2, "denominator": 4}], "beats": [{"time": 0, "is_downbeat": true}, {"time": 24, "is_downbeat": true}, {"time": 48, "is_downbeat": true}, {"time": 72, "is_downbeat": true}, {"time": 96, "is_downbeat": true}, {"time": 120, "is_downbeat": true}, {"time": 144, "is_downbeat": true}, {"time": 168, "is_downbeat": true}, {"time": 192, "is_downbeat": true}, {"time": 216, "is_downbeat": true}, {"time": 240, "is_downbeat": true}, {"time": 264, "is_downbeat": true}, {"time": 288, "is_downbeat": true}, {"time": 312, "is_downbeat": true}, {"time": 336, "is_downbeat": true}, {"time": 360, "is_downbeat": true}, {"time": 384, "is_downbeat": true}, {"time": 408, "is_downbeat": true}, {"time": 432, "is_downbeat": true}, {"time": 456, "is_downbeat": true}, {"time": 480, "is_downbeat": true}, {"time": 504, "is_downbeat": true}, {"time": 528, "is_downbeat": true}, {"time": 552, "is_downbeat": true}, {"time": 576, "is_downbeat": true}, {"time": 600, "is_downbeat": true}, {"time": 624, "is_downbeat": true}, {"time": 648, "is_downbeat": true}, {"time": 672, "is_downbeat": true}, {"time": 696, "is_downbeat": true}, {"time": 720, "is_downbeat": true}, {"time": 732, "is_downbeat": false}, {"time": 744, "is_downbeat": true}, {"time": 756, "is_downbeat": false}, {"time": 768, "is_downbeat": false}, {"time": 780, "is_downbeat": false}, {"time": 792, "is_downbeat": true}, {"time": 816, "is_downbeat": true}, {"time": 840, "is_downbeat": true}, {"time": 864, "is_downbeat": true}, {"time": 888, "is_downbeat": true}, {"time": 912, "is_downbeat": true}, {"time": 936, "is_downbeat": true}, {"time": 960, "is_downbeat": true}, {"time": 984, "is_downbeat": true}, {"time": 1008, "is_downbeat": true}, {"time": 1032, "is_downbeat": true}, {"time": 1056, "is_downbeat": true}, {"time": 1080, "is_downbeat": true}, {"time": 1104, "is_downbeat": true}, {"time": 1128, "is_downbeat": true}, {"time": 1152, "is_downbeat": true}, {"time": 1176, "is_downbeat": true}, {"time": 1200, "is_downbeat": true}, {"time": 1224, "is_downbeat": true}, {"time": 1248, "is_downbeat": false}, {"time": 1272, "is_downbeat": true}, {"time": 1296, "is_downbeat": false}], "tracks": [{"program": 0, "is_drum": false, "notes": [{"time": 0, "pitch": 74, "duration": 8, "velocity": 64}, {"time": 8, "pitch": 74, "duration": 8, "velocity": 64}, {"time": 16, "pitch": 76, "duration": 8, "velocity": 64}, {"time": 24, "pitch": 79, "duration": 24, "velocity": 64}, {"time": 48, "pitch": 76, "duration": 8, "velocity": 64}, {"time": 56, "pitch": 79, "duration": 8, "velocity": 64}, {"time": 64, "pitch": 76, "duration": 8, "velocity": 64}, {"time": 72, "pitch": 74, "duration": 48, "velocity": 64}, {"time": 120, "pitch": 81, "duration": 6, "velocity": 64}, {"time": 126, "pitch": 81, "duration": 6, "velocity": 64}, {"time": 132, "pitch": 79, "duration": 24, "velocity": 64}, {"time": 156, "pitch": 79, "duration": 36, "velocity": 64}, {"time": 192, "pitch": 76, "duration": 12, "velocity": 64}, {"time": 204, "pitch": 79, "duration": 36, "velocity": 64}, {"time": 264, "pitch": 74, "duration": 8, "velocity": 64}, {"time": 272, "pitch": 74, "duration": 8, "velocity": 64}, {"time": 280, "pitch": 76, "duration": 8, "velocity": 64}, {"time": 288, "pitch": 81, "duration": 12, "velocity": 64}, {"time": 300, "pitch": 79, "duration": 24, "velocity": 64}, {"time": 324, "pitch": 76, "duration": 12, "velocity": 64}, {"time": 336, "pitch": 74, "duration": 48, "velocity": 64}, {"time": 384, "pitch": 79, "duration": 12, "velocity": 64}, {"time": 396, "pitch": 79, "duration": 60, "velocity": 64}, {"time": 456, "pitch": 76, "duration": 12, "velocity": 64}, {"time": 468, "pitch": 81, "duration": 12, "velocity": 64}, {"time": 480, "pitch": 76, "duration": 24, "velocity": 64}, {"time": 504, "pitch": 74, "duration": 48, "velocity": 64}, {"time": 552, "pitch": 74, "duration": 12, "velocity": 64}, {"time": 564, "pitch": 74, "duration": 12, "velocity": 64}, {"time": 576, "pitch": 76, "duration": 12, "velocity": 64}, {"time": 588, "pitch": 74, "duration": 12, "velocity": 64}, {"time": 600, "pitch": 79, "duration": 12, "velocity": 64}, {"time": 612, "pitch": 76, "duration": 12, "velocity": 64}, {"time": 624, "pitch": 79, "duration": 48, "velocity": 64}, {"time": 672, "pitch": 76, "duration": 6, "velocity": 64}, {"time": 678, "pitch": 76, "duration": 6, "velocity": 64}, {"time": 684, "pitch": 79, "duration": 36, "velocity": 64}, {"time": 720, "pitch": 76, "duration": 12, "velocity": 64}, {"time": 732, "pitch": 76, "duration": 12, "velocity": 64}, {"time": 744, "pitch": 74, "duration": 24, "velocity": 64}, {"time": 768, "pitch": 79, "duration": 48, "velocity": 64}, {"time": 828, "pitch": 74, "duration": 6, "velocity": 64}, {"time": 834, "pitch": 74, "duration": 6, "velocity": 64}, {"time": 840, "pitch": 74, "duration": 12, "velocity": 64}, {"time": 852, "pitch": 76, "duration": 12, "velocity": 64}, {"time": 864, "pitch": 74, "duration": 48, "velocity": 64}, {"time": 912, "pitch": 76, "duration": 12, "velocity": 64}, {"time": 924, "pitch": 76, "duration": 12, "velocity": 64}, {"time": 936, "pitch": 79, "duration": 48, "velocity": 64}, {"time": 984, "pitch": 76, "duration": 12, "velocity": 64}, {"time": 996, "pitch": 79, "duration": 36, "velocity": 64}, {"time": 1032, "pitch": 81, "duration": 12, "velocity": 64}, {"time": 1044, "pitch": 74, "duration": 12, "velocity": 64}, {"time": 1056, "pitch": 76, "duration": 12, "velocity": 64}, {"time": 1068, "pitch": 79, "duration": 36, "velocity": 64}, {"time": 1104, "pitch": 76, "duration": 12, "velocity": 64}, {"time": 1116, "pitch": 74, "duration": 36, "velocity": 64}, {"time": 1152, "pitch": 76, "duration": 12, "velocity": 64}, {"time": 1164, "pitch": 79, "duration": 60, "velocity": 64}, {"time": 1224, "pitch": 81, "duration": 12, "velocity": 64}, {"time": 1236, "pitch": 74, "duration": 12, "velocity": 64}, {"time": 1248, "pitch": 76, "duration": 24, "velocity": 64}, {"time": 1272, "pitch": 74, "duration": 48, "velocity": 64}]}]}