{"metadata": {"schema_version": "0.1", "title": "Kuoda tiehongjun", "source_format": "abc"}, "resolution": 24, "tempos": [{"time": 0, "qpm": 120.0}], "key_signatures": [{"time": 0, "root": 9, "mode": "major", "fifths": 3}], "time_signatures": [{"time": 0, "numerator": 4, "denominator": 4}, {"time": 432, "numerator": 1, "denominator": 4}, {"time": 456, "numerator": 2, "denominator": 4}], "beats": [{"time": 0, "is_downbeat": true}, {"time": 24, "is_downbeat": true}, {"time": 48, "is_downbeat": true}, {"time": 72, "is_downbeat": true}, {"time": 96, "is_downbeat": true}, {"time": 120, "is_downbeat": true}, {"time": 144, "is_downbeat": true}, {"time": 168, "is_downbeat": true}, {"time": 192, "is_downbeat": true}, {"time": 216, "is_downbeat": true}, {"time": 240, "is_downbeat": true}, {"time": 264, "is_downbeat": true}, {"time": 288, "is_downbeat": true}, {"time": 312, "is_downbeat": true}, {"time": 336, "is_downbeat": true}, {"time": 360, "is_downbeat": true}, {"time": 384, "is_downbeat": true}, {"time": 408, "is_downbeat": true}, {"time": 432, "is_downbeat": true}, {"time": 456, "is_downbeat": true}, {"time": 480, "is_downbeat": false}, {"time": 504, "is_downbeat": true}, {"time": 528, "is_downbeat": false}, {"time": 552, "is_downbeat": true}, {"time": 576, "is_downbeat": false}, {"time": 600, "is_downbeat": true}, {"time": 624, "is_downbeat": false}, {"time": 648, "is_downbeat": true}, {"time": 672, "is_downbeat": false}, {"time": 696, "is_downbeat": true}, {"time": 720, "is_downbeat": false}], "tracks": [{"program": 0, "is_drum": false, "notes": [{"time": 0, "pitch": 71, "duration": 12, "velocity": 64}, {"time": 12, "pitch": 71, "duration": 24, "velocity": 64}, {"time": 36, "pitch": 73, "duration": 12, "velocity": 64}, {"time": 48, "pitch": 71, "duration": 6, "velocity": 64}, {"time": 54, "pitch": 73, "duration": 6, "velocity": 64}, {"time": 60, "pitch": 71, "duration": 6, "velocity": 64}, {"time": 66, "pitch": 69, "duration": 6, "velocity": 64}, {"time": 72, "pitch": 66, "duration": 24, "velocity": 64}, {"time": 96, "pitch": 71, "duration": 12, "velocity": 64}, {"time": 108, "pitch": 71, "duration": 24, "velocity": 64}, {"time": 132, "pitch": 73, "duration": 12, "velocity": 64}, {"time": 144, "pitch": 76, "duration": 18, "velocity": 64}, {"time": 162, "pitch": 78, "duration": 6, "velocity": 64}, {"time": 168, "pitch": 76, "duration": 12, "velocity": 64}, {"time": 180, "pitch": 73, "duration": 12, "velocity": 64}, {"time": 192, "pitch": 71, "duration": 12, "velocity": 64}, {"time": 204, "pitch": 76, "duration": 12, "velocity": 64}, {"time": 216, "pitch": 73, "duration": 12, "velocity": 64}, {"time": 228, "pitch": 71, "duration": 12, "velocity": 64}, {"time": 240, "pitch": 69, "duration": 6, "velocity": 64}, {"time": 246, "pitch": 71, "duration": 6, "velocity": 64}, {"time": 252, "pitch": 69, "duration": 36, "velocity": 64}, {"time": 288, "pitch": 71, "duration": 12, "velocity": 64}, {"time": 300, "pitch": 71, "duration": 24, "velocity": 64}, {"time": 324, "pitch": 73, "duration": 12, "velocity": 64}, {"time": 336, "pitch": 71, "duration": 6, "velocity": 64}, {"time": 342, "pitch": 73, "duration": 6, "velocity": 64}, {"time": 348, "pitch": 71, "duration": 6, "velocity": 64}, {"time": 354, "pitch": 69, "duration": 6, "velocity": 64}, {"time": 360, "pitch": 66, "duration": 24, "velocity": 64}, {"time": 384, "pitch": 71, "duration": 6, "velocity": 64}, {"time": 390, "pitch": 73, "duration": 6, "velocity": 64}, {"time": 396, "pitch": 71, "duration": 6, "velocity": 64}, {"time": 402, "pitch": 69, "duration": 6, "velocity": 64}, {"time": 408, "pitch": 66, "duration": 12, "velocity": 64}, {"time": 420, "pitch": 71, "duration": 12, "velocity": 64}, {"time": 432, "pitch": 69, "duration": 12, "velocity": 64}, {"time": 444, "pitch": 69, "duration": 12, "velocity": 64}, {"time": 456, "pitch": 66, "duration": 12, "velocity": 64}, {"time": 468, "pitch": 66, "duration": 24, "velocity": 64}, {"time": 492, "pitch": 71, "duration": 12, "velocity": 64}, {"time": 504, "pitch": 69, "duration": 12, "velocity": 64}, {"time": 516, "pitch": 69, "duration": 12, "velocity": 64}, {"time": 528, "pitch": 66, "duration": 6, "velocity": 64}, {"time": 534, "pitch": 64, "duration": 6, "velocity": 64}, {"time": 540, "pitch": 66, "duration": 6, "velocity": 64}, {"time": 546, "pitch": 69, "duration": 6, "velocity": 64}, {"time": 552, "pitch": 64, "duration": 48, "velocity": 64}, {"time": 600, "pitch": 73, "duration": 12, "velocity": 64}, {"time": 612, "pitch": 76, "duration": 12, "velocity": 64}, {"time": 624, "pitch": 73, "duration": 6, "velocity": 64}, {"time": 630, "pitch": 71, "duration": 6, "velocity": 64}, {"time": 636, "pitch": 69, "duration": 12, "velocity": 64}, {"time": 648, "pitch": 71, "duration": 12, "velocity": 64}, {"time": 660, "pitch": 71, "duration": 12, "velocity": 64}, {"time": 672, "pitch": 69, "duration": 6, "velocity": 64}, {"time": 678, "pitch": 71, "duration": 6, "velocity": 64}, {"time": 684, "pitch": 73, "duration": 6, "velocity": 64}, {"time": 690, "pitch": 76, "duration": 6, "velocity": 64}, {"time": 696, "pitch": 71, "duration": 6, "velocity": 64}, {"time": 702, "pitch": 73, "duration": 6, "velocity": 64}, {"time": 708, "pitch": 71, "duration": 36, "velocity": 64}]}]}