{"metadata": {"schema_version": "0.1", "title": "Green Grow the Rashes", "source_format": "abc"}, "resolution": 24, "tempos": [{"time": 0, "qpm": 120.0}], "key_signatures": [{"time": 0, "root": 2, "mode": "minor", "fifths": -1}], "time_signatures": [{"time": 0, "numerator": 2, "denominator": 2}], "beats": [{"time": 0, "is_downbeat": true}, {"time": 12, "is_downbeat": true}, {"time": 60, "is_downbeat": false}, {"time": 108, "is_downbeat": true}, {"time": 156, "is_downbeat": false}, {"time": 204, "is_downbeat": true}, {"time": 252, "is_downbeat": false}, {"time": 300, "is_downbeat": true}, {"time": 348, "is_downbeat": false}, {"time": 396, "is_downbeat": true}, {"time": 444, "is_downbeat": false}, {"time": 492, "is_downbeat": true}, {"time": 540, "is_downbeat": false}, {"time": 588, "is_downbeat": true}, {"time": 636, "is_downbeat": false}, {"time": 684, "is_downbeat": true}, {"time": 732, "is_downbeat": false}], "tracks": [{"program": 0, "is_drum": false, "notes": [{"time": 0, "pitch": 69, "duration": 12, "velocity": 64}, {"time": 12, "pitch": 65, "duration": 18, "velocity": 64}, {"time": 30, "pitch": 65, "duration": 6, "velocity": 64}, {"time": 36, "pitch": 69, "duration": 18, "velocity": 64}, {"time": 54, "pitch": 67, "duration": 6, "velocity": 64}, {"time": 60, "pitch": 69, "duration": 6, "velocity": 64}, {"time": 66, "pitch": 65, "duration": 18, "velocity": 64}, {"time": 84, "pitch": 65, "duration": 12, "velocity": 64}, {"time": 96, "pitch": 69, "duration": 12, "velocity": 64}, {"time": 108, "pitch": 67, "duration": 6, "velocity": 64}, {"time": 114, "pitch": 67, "duration": 18, "velocity": 64}, {"time": 132, "pitch": 74, "duration": 18, "velocity": 64}, {"time": 150, "pitch": 72, "duration": 6, "velocity": 64}, {"time": 156, "pitch": 74, "duration": 12, "velocity": 64}, {"time": 168, "pitch": 67, "duration": 12, "velocity": 64}, {"time": 198, "pitch": 69, "duration": 6, "velocity": 64}, {"time": 204, "pitch": 70, "duration": 18, "velocity": 64}, {"time": 222, "pitch": 72, "duration": 6, "velocity": 64}, {"time": 228, "pitch": 70, "duration": 12, "velocity": 64}, {"time": 240, "pitch": 74, "duration": 12, "velocity": 64}, {"time": 252, "pitch": 72, "duration": 12, "velocity": 64}, {"time": 264, "pitch": 69, "duration": 12, "velocity": 64}, {"time": 276, "pitch": 65, "duration": 12, "velocity": 64}, {"time": 288, "pitch": 69, "duration": 12, "velocity": 64}, {"time": 300, "pitch": 67, "duration": 18, "velocity": 64}, {"time": 318, "pitch": 70, "duration": 6, "velocity": 64}, {"time": 324, "pitch": 69, "duration": 12, "velocity": 64}, {"time": 336, "pitch": 67, "duration": 12, "velocity": 64}, {"time": 348, "pitch": 65, "duration": 12, "velocity": 64}, {"time": 360, "pitch": 62, "duration": 12, "velocity": 64}, {"time": 396, "pitch": 72, "duration": 24, "velocity": 64}, {"time": 420, "pitch": 77, "duration": 18, "velocity": 64}, {"time": 438, "pitch": 64, "duration": 6, "velocity": 64}, {"time": 444, "pitch": 65, "duration": 6, "velocity": 64}, {"time": 450, "pitch": 72, "duration": 18, "velocity": 64}, {"time": 468, "pitch": 72, "duration": 24, "velocity": 64}, {"time": 492, "pitch": 74, "duration": 24, "velocity": 64}, {"time": 516, "pitch": 79, "duration": 18, "velocity": 64}, {"time": 534, "pitch": 78, "duration": 6, "velocity": 64}, {"time": 540, "pitch": 79, "duration": 12, "velocity": 64}, {"time": 552, "pitch": 74, "duration": 12, "velocity": 64}, {"time": 564, "pitch": 74, "duration": 18, "velocity": 64}, {"time": 582, "pitch": 76, "duration": 6, "velocity": 64}, {"time": 588, "pitch": 77, "duration": 18, "velocity": 64}, {"time": 606, "pitch": 79, "duration": 6, "velocity": 64}, {"time": 612, "pitch": 77, "duration": 12, "velocity": 64}, {"time": 624, "pitch": 74, "duration": 12, "velocity": 64}, {"time": 636, "pitch": 72, "duration": 12, "velocity": 64}, {"time": 648, "pitch": 69, "duration": 12, "velocity": 64}, {"time": 660, "pitch": 65, "duration": 18, "velocity": 64}, {"time": 678, "pitch": 69, "duration": 6, "velocity": 64}, {"time": 684, "pitch": 64, "duration": 18, "velocity": 64}, {"time": 702, "pitch": 70, "duration": 6, "velocity": 64}, {"time": 708, "pitch": 69, "duration": 18, "velocity": 64}, {"time": 726, "pitch": 67, "duration": 6, "velocity": 64}, {"time": 732, "pitch": 65, "duration": 6, "velocity": 64}, {"time": 738, "pitch": 62, "duration": 18, "velocity": 64}, {"time": 756, "pitch": 62, "duration": 12, "velocity": 64}]}]}