{"metadata": {"schema_version": "0.1", "title": "Fy Gar Rub Her O'er Wi' Strae", "source_format": "abc"}, "resolution": 24, "tempos": [{"time": 0, "qpm": 120.0}], "key_signatures": [{"time": 0, "root": 4, "mode": "minor", "fifths": 1}], "time_signatures": [{"time": 0, "numerator": 2, "denominator": 2}], "beats": [{"time": 0, "is_downbeat": true}, {"time": 12, "is_downbeat": true}, {"time": 60, "is_downbeat": false}, {"time": 108, "is_downbeat": true}, {"time": 156, "is_downbeat": false}, {"time": 204, "is_downbeat": true}, {"time": 252, "is_downbeat": false}, {"time": 300, "is_downbeat": true}, {"time": 348, "is_downbeat": false}, {"time": 396, "is_downbeat": true}, {"time": 444, "is_downbeat": false}, {"time": 492, "is_downbeat": true}, {"time": 540, "is_downbeat": false}, {"time": 588, "is_downbeat": true}, {"time": 636, "is_downbeat": false}, {"time": 684, "is_downbeat": true}, {"time": 732, "is_downbeat": false}, {"time": 780, "is_downbeat": true}, {"time": 828, "is_downbeat": false}, {"time": 876, "is_downbeat": true}, {"time": 924, "is_downbeat": false}, {"time": 972, "is_downbeat": true}, {"time": 1020, "is_downbeat": false}, {"time": 1068, "is_downbeat": true}, {"time": 1116, "is_downbeat": false}, {"time": 1164, "is_downbeat": true}, {"time": 1212, "is_downbeat": false}, {"time": 1260, "is_downbeat": true}, {"time": 1308, "is_downbeat": false}, {"time": 1356, "is_downbeat": true}, {"time": 1404, "is_downbeat": false}, {"time": 1452, "is_downbeat": true}, {"time": 1500, "is_downbeat": false}], "tracks": [{"program": 0, "is_drum": false, "notes": [{"time": 0, "pitch": 66, "duration": 12, "velocity": 64}, {"time": 12, "pitch": 67, "duration": 36, "velocity": 64}, {"time": 48, "pitch": 66, "duration": 12, "velocity": 64}, {"time": 60, "pitch": 64, "duration": 24, "velocity": 64}, {"time": 84, "pitch": 71, "duration": 24, "velocity": 64}, {"time": 108, "pitch": 69, "duration": 12, "velocity": 64}, {"time": 120, "pitch": 71, "duration": 12, "velocity": 64}, {"time": 132, "pitch": 67, "duration": 12, "velocity": 64}, {"time": 144, "pitch": 69, "duration": 12, "velocity": 64}, {"time": 156, "pitch": 66, "duration": 24, "velocity": 64}, {"time": 180, "pitch": 64, "duration": 12, "velocity": 64}, {"time": 192, "pitch": 62, "duration": 12, "velocity": 64}, {"time": 204, "pitch": 67, "duration": 36, "velocity": 64}, {"time": 240, "pitch": 69, "duration": 12, "velocity": 64}, {"time": 252, "pitch": 71, "duration": 24, "velocity": 64}, {"time": 276, "pitch": 74, "duration": 24, "velocity": 64}, {"time": 300, "pitch": 71, "duration": 12, "velocity": 64}, {"time": 312, "pitch": 69, "duration": 12, "velocity": 64}, {"time": 324, "pitch": 67, "duration": 12, "velocity": 64}, {"time": 336, "pitch": 66, "duration": 12, "velocity": 64}, {"time": 348, "pitch": 64, "duration": 36, "velocity": 64}, {"time": 384, "pitch": 66, "duration": 12, "velocity": 64}, {"time": 396, "pitch": 67, "duration": 36, "velocity": 64}, {"time": 432, "pitch": 66, "duration": 12, "velocity": 64}, {"time": 444, "pitch": 64, "duration": 24, "velocity": 64}, {"time": 468, "pitch": 71, "duration": 24, "velocity": 64}, {"time": 492, "pitch": 69, "duration": 12, "velocity": 64}, {"time": 504, "pitch": 71, "duration": 12, "velocity": 64}, {"time": 516, "pitch": 67, "duration": 12, "velocity": 64}, {"time": 528, "pitch": 69, "duration": 12, "velocity": 64}, {"time": 540, "pitch": 66, "duration": 24, "velocity": 64}, {"time": 564, "pitch": 64, "duration": 12, "velocity": 64}, {"time": 576, "pitch": 62, "duration": 12, "velocity": 64}, {"time": 588, "pitch": 67, "duration": 36, "velocity": 64}, {"time": 624, "pitch": 69, "duration": 12, "velocity": 64}, {"time": 636, "pitch": 71, "duration": 24, "velocity": 64}, {"time": 660, "pitch": 74, "duration": 24, "velocity": 64}, {"time": 684, "pitch": 71, "duration": 12, "velocity": 64}, {"time": 696, "pitch": 69, "duration": 12, "velocity": 64}, {"time": 708, "pitch": 67, "duration": 12, "velocity": 64}, {"time": 720, "pitch": 66, "duration": 12, "velocity": 64}, {"time": 732, "pitch": 64, "duration": 36, "velocity": 64}, {"time": 768, "pitch": 76, "duration": 12, "velocity": 64}, {"time": 780, "pitch": 74, "duration": 24, "velocity": 64}, {"time": 804, "pitch": 71, "duration": 24, "velocity": 64}, {"time": 828, "pitch": 71, "duration": 24, "velocity": 64}, {"time": 852, "pitch": 69, "duration": 12, "velocity": 64}, {"time": 864, "pitch": 67, "duration": 12, "velocity": 64}, {"time": 876, "pitch": 66, "duration": 12, "velocity": 64}, {"time": 888, "pitch": 67, "duration": 12, "velocity": 64}, {"time": 900, "pitch": 69, "duration": 12, "velocity": 64}, {"time": 912, "pitch": 67, "duration": 12, "velocity": 64}, {"time": 924, "pitch": 67, "duration": 12, "velocity": 64}, {"time": 936, "pitch": 66, "duration": 12, "velocity": 64}, {"time": 948, "pitch": 64, "duration": 12, "velocity": 64}, {"time": 960, "pitch": 62, "duration": 12, "velocity": 64}, {"time": 972, "pitch": 74, "duration": 24, "velocity": 64}, {"time": 996, "pitch": 71, "duration": 24, "velocity": 64}, {"time": 1020, "pitch": 71, "duration": 24, "velocity": 64}, {"time": 1044, "pitch": 74, "duration": 24, "velocity": 64}, {"time": 1068, "pitch": 76, "duration": 12, "velocity": 64}, {"time": 1080, "pitch": 74, "duration": 12, "velocity": 64}, {"time": 1092, "pitch": 71, "duration": 12, "velocity": 64}, {"time": 1104, "pitch": 74, "duration": 12, "velocity": 64}, {"time": 1116, "pitch": 76, "duration": 36, "velocity": 64}, {"time": 1152, "pitch": 79, "duration": 12, "velocity": 64}, {"time": 1164, "pitch": 74, "duration": 24, "velocity": 64}, {"time": 1188, "pitch": 71, "duration": 24, "velocity": 64}, {"time": 1212, "pitch": 71, "duration": 24, "velocity": 64}, {"time": 1236, "pitch": 69, "duration": 12, "velocity": 64}, {"time": 1248, "pitch": 67, "duration": 12, "velocity": 64}, {"time": 1260, "pitch": 66, "duration": 12, "velocity": 64}, {"time": 1272, "pitch": 67, "duration": 12, "velocity": 64}, {"time": 1284, "pitch": 69, "duration": 12, "velocity": 64}, {"time": 1296, "pitch": 67, "duration": 12, "velocity": 64}, {"time": 1308, "pitch": 67, "duration": 12, "velocity": 64}, {"time": 1320, "pitch": 66, "duration": 12, "velocity": 64}, {"time": 1332, "pitch": 64, "duration": 12, "velocity": 64}, {"time": 1344, "pitch": 62, "duration": 12, "velocity": 64}, {"time": 1356, "pitch": 67, "duration": 36, "velocity": 64}, {"time": 1392, "pitch": 69, "duration": 12, "velocity": 64}, {"time": 1404, "pitch": 71, "duration": 24, "velocity": 64}, {"time": 1428, "pitch": 76, "duration": 24, "velocity": 64}, {"time": 1452, "pitch": 71, "duration": 12, "velocity": 64}, {"time": 1464, "pitch": 69, "duration": 12, "velocity": 64}, {"time": 1476, "pitch": 67, "duration": 12, "velocity": 64}, {"time": 1488, "pitch": 66, "duration": 12, "velocity": 64}, {"time": 1500, "pitch": 64, "duration": 36, "velocity": 64}]}]}