{"metadata": {"schema_version": "0.1", "title": "This Is no Mine Ain House", "source_format": "abc"}, "resolution": 24, "tempos": [{"time": 0, "qpm": 120.0}], "key_signatures": [{"time": 0, "root": 10, "mode": "major", "fifths": -2}], "time_signatures": [{"time": 0, "numerator": 2, "denominator": 2}], "beats": [{"time": 0, "is_downbeat": true}, {"time": 12, "is_downbeat": true}, {"time": 60, "is_downbeat": false}, {"time": 108, "is_downbeat": true}, {"time": 156, "is_downbeat": false}, {"time": 204, "is_downbeat": true}, {"time": 252, "is_downbeat": false}, {"time": 300, "is_downbeat": true}, {"time": 348, "is_downbeat": false}, {"time": 396, "is_downbeat": true}, {"time": 444, "is_downbeat": false}, {"time": 492, "is_downbeat": true}, {"time": 540, "is_downbeat": false}, {"time": 588, "is_downbeat": true}, {"time": 636, "is_downbeat": false}, {"time": 684, "is_downbeat": true}, {"time": 732, "is_downbeat": false}], "tracks": [{"program": 0, "is_drum": false, "notes": [{"time": 0, "pitch": 77, "duration": 12, "velocity": 64}, {"time": 12, "pitch": 74, "duration": 12, "velocity": 64}, {"time": 24, "pitch": 77, "duration": 12, "velocity": 64}, {"time": 36, "pitch": 77, "duration": 12, "velocity": 64}, {"time": 48, "pitch": 77, "duration": 12, "velocity": 64}, {"time": 60, "pitch": 74, "duration": 24, "velocity": 64}, {"time": 84, "pitch": 72, "duration": 12, "velocity": 64}, {"time": 96, "pitch": 82, "duration": 12, "velocity": 64}, {"time": 108, "pitch": 79, "duration": 6, "velocity": 64}, {"time": 114, "pitch": 81, "duration": 6, "velocity": 64}, {"time": 120, "pitch": 82, "duration": 12, "velocity": 64}, {"time": 132, "pitch": 77, "duration": 12, "velocity": 64}, {"time": 144, "pitch": 74, "duration": 12, "velocity": 64}, {"time": 156, "pitch": 75, "duration": 12, "velocity": 64}, {"time": 168, "pitch": 72, "duration": 12, "velocity": 64}, {"time": 180, "pitch": 72, "duration": 12, "velocity": 64}, {"time": 192, "pitch": 77, "duration": 12, "velocity": 64}, {"time": 204, "pitch": 74, "duration": 12, "velocity": 64}, {"time": 216, "pitch": 77, "duration": 12, "velocity": 64}, {"time": 228, "pitch": 77, "duration": 12, "velocity": 64}, {"time": 240, "pitch": 77, "duration": 12, "velocity": 64}, {"time": 252, "pitch": 74, "duration": 24, "velocity": 64}, {"time": 276, "pitch": 72, "duration": 12, "velocity": 64}, {"time": 288, "pitch": 82, "duration": 12, "velocity": 64}, {"time": 300, "pitch": 79, "duration": 6, "velocity": 64}, {"time": 306, "pitch": 81, "duration": 6, "velocity": 64}, {"time": 312, "pitch": 82, "duration": 12, "velocity": 64}, {"time": 324, "pitch": 77, "duration": 18, "velocity": 64}, {"time": 342, "pitch": 75, "duration": 6, "velocity": 64}, {"time": 348, "pitch": 74, "duration": 12, "velocity": 64}, {"time": 360, "pitch": 70, "duration": 12, "velocity": 64}, {"time": 372, "pitch": 70, "duration": 12, "velocity": 64}, {"time": 384, "pitch": 77, "duration": 12, "velocity": 64}, {"time": 396, "pitch": 74, "duration": 12, "velocity": 64}, {"time": 408, "pitch": 77, "duration": 12, "velocity": 64}, {"time": 420, "pitch": 77, "duration": 12, "velocity": 64}, {"time": 432, "pitch": 82, "duration": 12, "velocity": 64}, {"time": 444, "pitch": 79, "duration": 12, "velocity": 64}, {"time": 456, "pitch": 82, "duration": 12, "velocity": 64}, {"time": 468, "pitch": 77, "duration": 12, "velocity": 64}, {"time": 480, "pitch": 74, "duration": 12, "velocity": 64}, {"time": 492, "pitch": 75, "duration": 12, "velocity": 64}, {"time": 504, "pitch": 79, "duration": 12, "velocity": 64}, {"time": 516, "pitch": 77, "duration": 12, "velocity": 64}, {"time": 528, "pitch": 74, "duration": 12, "velocity": 64}, {"time": 540, "pitch": 79, "duration": 12, "velocity": 64}, {"time": 552, "pitch": 72, "duration": 12, "velocity": 64}, {"time": 564, "pitch": 72, "duration": 12, "velocity": 64}, {"time": 576, "pitch": 77, "duration": 12, "velocity": 64}, {"time": 588, "pitch": 74, "duration": 12, "velocity": 64}, {"time": 600, "pitch": 77, "duration": 12, "velocity": 64}, {"time": 612, "pitch": 77, "duration": 12, "velocity": 64}, {"time": 624, "pitch": 82, "duration": 12, "velocity": 64}, {"time": 636, "pitch": 79, "duration": 12, "velocity": 64}, {"time": 648, "pitch": 82, "duration": 12, "velocity": 64}, {"time": 660, "pitch": 77, "duration": 12, "velocity": 64}, {"time": 672, "pitch": 74, "duration": 12, "velocity": 64}, {"time": 684, "pitch": 75, "duration": 18, "velocity": 64}, {"time": 702, "pitch": 79, "duration": 6, "velocity": 64}, {"time": 708, "pitch": 77, "duration": 12, "velocity": 64}, {"time": 720, "pitch": 75, "duration": 12, "velocity": 64}, {"time": 732, "pitch": 74, "duration": 12, "velocity": 64}, {"time": 744, "pitch": 70, "duration": 12, "velocity": 64}, {"time": 756, "pitch": 70, "duration": 12, "velocity": 64}]}]}