{"metadata": {"schema_version": "0.1", "title": "The Ploughman", "source_format": "abc"}, "resolution": 24, "tempos": [{"time": 0, "qpm": 120.0}], "key_signatures": [{"time": 0, "root": 2, "mode": "major", "fifths": 2}], "time_signatures": [{"time": 0, "numerator": 2, "denominator": 2}], "beats": [{"time": 0, "is_downbeat": true}, {"time": 12, "is_downbeat": true}, {"time": 60, "is_downbeat": false}, {"time": 108, "is_downbeat": true}, {"time": 156, "is_downbeat": false}, {"time": 204, "is_downbeat": true}, {"time": 252, "is_downbeat": false}, {"time": 300, "is_downbeat": true}, {"time": 348, "is_downbeat": false}, {"time": 396, "is_downbeat": true}, {"time": 444, "is_downbeat": false}, {"time": 492, "is_downbeat": true}, {"time": 540, "is_downbeat": false}, {"time": 588, "is_downbeat": true}, {"time": 636, "is_downbeat": false}], "tracks": [{"program": 0, "is_drum": false, "notes": [{"time": 0, "pitch": 62, "duration": 12, "velocity": 64}, {"time": 12, "pitch": 66, "duration": 12, "velocity": 64}, {"time": 24, "pitch": 69, "duration": 12, "velocity": 64}, {"time": 36, "pitch": 69, "duration": 18, "velocity": 64}, {"time": 54, "pitch": 71, "duration": 6, "velocity": 64}, {"time": 60, "pitch": 69, "duration": 12, "velocity": 64}, {"time": 72, "pitch": 66, "duration": 12, "velocity": 64}, {"time": 84, "pitch": 64, "duration": 18, "velocity": 64}, {"time": 102, "pitch": 62, "duration": 6, "velocity": 64}, {"time": 108, "pitch": 66, "duration": 12, "velocity": 64}, {"time": 120, "pitch": 69, "duration": 12, "velocity": 64}, {"time": 132, "pitch": 69, "duration": 12, "velocity": 64}, {"time": 144, "pitch": 71, "duration": 6, "velocity": 64}, {"time": 150, "pitch": 73, "duration": 6, "velocity": 64}, {"time": 156, "pitch": 74, "duration": 24, "velocity": 64}, {"time": 180, "pitch": 69, "duration": 18, "velocity": 64}, {"time": 198, "pitch": 74, "duration": 6, "velocity": 64}, {"time": 204, "pitch": 71, "duration": 18, "velocity": 64}, {"time": 222, "pitch": 69, "duration": 6, "velocity": 64}, {"time": 228, "pitch": 71, "duration": 12, "velocity": 64}, {"time": 240, "pitch": 74, "duration": 12, "velocity": 64}, {"time": 252, "pitch": 76, "duration": 12, "velocity": 64}, {"time": 264, "pitch": 78, "duration": 6, "velocity": 64}, {"time": 270, "pitch": 64, "duration": 18, "velocity": 64}, {"time": 288, "pitch": 62, "duration": 12, "velocity": 64}, {"time": 300, "pitch": 66, "duration": 12, "velocity": 64}, {"time": 312, "pitch": 69, "duration": 12, "velocity": 64}, {"time": 324, "pitch": 69, "duration": 18, "velocity": 64}, {"time": 342, "pitch": 71, "duration": 6, "velocity": 64}, {"time": 348, "pitch": 69, "duration": 12, "velocity": 64}, {"time": 360, "pitch": 66, "duration": 12, "velocity": 64}, {"time": 372, "pitch": 64, "duration": 18, "velocity": 64}, {"time": 390, "pitch": 62, "duration": 6, "velocity": 64}, {"time": 396, "pitch": 66, "duration": 12, "velocity": 64}, {"time": 408, "pitch": 69, "duration": 12, "velocity": 64}, {"time": 420, "pitch": 69, "duration": 12, "velocity": 64}, {"time": 432, "pitch": 71, "duration": 6, "velocity": 64}, {"time": 438, "pitch": 73, "duration": 6, "velocity": 64}, {"time": 444, "pitch": 74, "duration": 24, "velocity": 64}, {"time": 468, "pitch": 69, "duration": 18, "velocity": 64}, {"time": 486, "pitch": 69, "duration": 6, "velocity": 64}, {"time": 492, "pitch": 71, "duration": 18, "velocity": 64}, {"time": 510, "pitch": 69, "duration": 6, "velocity": 64}, {"time": 516, "pitch": 71, "duration": 12, "velocity": 64}, {"time": 528, "pitch": 74, "duration": 12, "velocity": 64}, {"time": 540, "pitch": 76, "duration": 12, "velocity": 64}, {"time": 552, "pitch": 78, "duration": 12, "velocity": 64}, {"time": 564, "pitch": 64, "duration": 18, "velocity": 64}, {"time": 582, "pitch": 62, "duration": 6, "velocity": 64}, {"time": 588, "pitch": 66, "duration": 12, "velocity": 64}, {"time": 600, "pitch": 69, "duration": 12, "velocity": 64}, {"time": 612, "pitch": 69, "duration": 18, "velocity": 64}, {"time": 630, "pitch": 71, "duration": 6, "velocity": 64}, {"time": 636, "pitch": 69, "duration": 24, "velocity": 64}, {"time": 660, "pitch": 62, "duration": 12, "velocity": 64}]}]}