{"metadata": {"schema_version": "0.1", "title": "My Boy Tammy", "source_format": "abc"}, "resolution": 24, "tempos": [{"time": 0, "qpm": 120.0}], "key_signatures": [{"time": 0, "root": 2, "mode": "minor", "fifths": -1}], "time_signatures": [{"time": 0, "numerator": 4, "denominator": 4}, {"time": 96, "numerator": 12, "denominator": 4}, {"time": 384, "numerator": 2, "denominator": 2}, {"time": 576, "numerator": 8, "denominator": 4}], "beats": [{"time": 0, "is_downbeat": true}, {"time": 24, "is_downbeat": false}, {"time": 48, "is_downbeat": false}, {"time": 72, "is_downbeat": false}, {"time": 96, "is_downbeat": true}, {"time": 144, "is_downbeat": false}, {"time": 192, "is_downbeat": true}, {"time": 240, "is_downbeat": false}, {"time": 288, "is_downbeat": true}, {"time": 336, "is_downbeat": false}, {"time": 384, "is_downbeat": true}, {"time": 408, "is_downbeat": false}, {"time": 432, "is_downbeat": false}, {"time": 456, "is_downbeat": false}, {"time": 480, "is_downbeat": true}, {"time": 504, "is_downbeat": false}, {"time": 528, "is_downbeat": false}, {"time": 552, "is_downbeat": false}, {"time": 576, "is_downbeat": true}, {"time": 600, "is_downbeat": false}, {"time": 624, "is_downbeat": false}, {"time": 648, "is_downbeat": false}, {"time": 672, "is_downbeat": false}, {"time": 696, "is_downbeat": false}, {"time": 720, "is_downbeat": false}, {"time": 744, "is_downbeat": false}], "tracks": [{"program": 0, "is_drum": false, "notes": [{"time": 0, "pitch": 62, "duration": 18, "velocity": 64}, {"time": 18, "pitch": 64, "duration": 6, "velocity": 64}, {"time": 24, "pitch": 65, "duration": 18, "velocity": 64}, {"time": 42, "pitch": 67, "duration": 6, "velocity": 64}, {"time": 48, "pitch": 69, "duration": 18, "velocity": 64}, {"time": 66, "pitch": 70, "duration": 6, "velocity": 64}, {"time": 72, "pitch": 72, "duration": 24, "velocity": 64}, {"time": 96, "pitch": 67, "duration": 18, "velocity": 64}, {"time": 114, "pitch": 69, "duration": 6, "velocity": 64}, {"time": 120, "pitch": 67, "duration": 18, "velocity": 64}, {"time": 138, "pitch": 65, "duration": 6, "velocity": 64}, {"time": 144, "pitch": 64, "duration": 6, "velocity": 64}, {"time": 150, "pitch": 60, "duration": 18, "velocity": 64}, {"time": 168, "pitch": 60, "duration": 24, "velocity": 64}, {"time": 192, "pitch": 62, "duration": 18, "velocity": 64}, {"time": 210, "pitch": 64, "duration": 6, "velocity": 64}, {"time": 216, "pitch": 65, "duration": 18, "velocity": 64}, {"time": 234, "pitch": 67, "duration": 6, "velocity": 64}, {"time": 240, "pitch": 69, "duration": 24, "velocity": 64}, {"time": 264, "pitch": 72, "duration": 24, "velocity": 64}, {"time": 288, "pitch": 69, "duration": 6, "velocity": 64}, {"time": 294, "pitch": 77, "duration": 18, "velocity": 64}, {"time": 312, "pitch": 76, "duration": 18, "velocity": 64}, {"time": 330, "pitch": 74, "duration": 6, "velocity": 64}, {"time": 336, "pitch": 69, "duration": 12, "velocity": 64}, {"time": 348, "pitch": 74, "duration": 24, "velocity": 64}, {"time": 372, "pitch": 74, "duration": 12, "velocity": 64}, {"time": 384, "pitch": 74, "duration": 18, "velocity": 64}, {"time": 402, "pitch": 76, "duration": 6, "velocity": 64}, {"time": 408, "pitch": 77, "duration": 18, "velocity": 64}, {"time": 426, "pitch": 74, "duration": 6, "velocity": 64}, {"time": 432, "pitch": 72, "duration": 18, "velocity": 64}, {"time": 450, "pitch": 70, "duration": 6, "velocity": 64}, {"time": 456, "pitch": 69, "duration": 24, "velocity": 64}, {"time": 480, "pitch": 65, "duration": 18, "velocity": 64}, {"time": 498, "pitch": 69, "duration": 6, "velocity": 64}, {"time": 504, "pitch": 72, "duration": 18, "velocity": 64}, {"time": 522, "pitch": 69, "duration": 6, "velocity": 64}, {"time": 528, "pitch": 67, "duration": 18, "velocity": 64}, {"time": 546, "pitch": 64, "duration": 6, "velocity": 64}, {"time": 552, "pitch": 60, "duration": 24, "velocity": 64}, {"time": 576, "pitch": 74, "duration": 18, "velocity": 64}, {"time": 594, "pitch": 77, "duration": 6, "velocity": 64}, {"time": 600, "pitch": 76, "duration": 18, "velocity": 64}, {"time": 618, "pitch": 77, "duration": 6, "velocity": 64}, {"time": 624, "pitch": 74, "duration": 24, "velocity": 64}, {"time": 648, "pitch": 69, "duration": 24, "velocity": 64}, {"time": 672, "pitch": 65, "duration": 18, "velocity": 64}, {"time": 690, "pitch": 67, "duration": 6, "velocity": 64}, {"time": 696, "pitch": 69, "duration": 18, "velocity": 64}, {"time": 714, "pitch": 67, "duration": 6, "velocity": 64}, {"time": 720, "pitch": 65, "duration": 12, "velocity": 64}, {"time": 732, "pitch": 62, "duration": 36, "velocity": 64}]}]}