{"metadata": {"schema_version": "0.1", "title": "John of Badenyon", "source_format": "abc"}, "resolution": 24, "tempos": [{"time": 0, "qpm": 120.0}], "key_signatures": [{"time": 0, "root": 7, "mode": "minor", "fifths": -2}], "time_signatures": [{"time": 0, "numerator": 4, "denominator": 4}], "beats": [{"time": 0, "is_downbeat": true}, {"time": 12, "is_downbeat": true}, {"time": 36, "is_downbeat": false}, {"time": 60, "is_downbeat": false}, {"time": 84, "is_downbeat": false}, {"time": 108, "is_downbeat": true}, {"time": 132, "is_downbeat": false}, {"time": 156, "is_downbeat": false}, {"time": 180, "is_downbeat": false}, {"time": 204, "is_downbeat": true}, {"time": 228, "is_downbeat": false}, {"time": 252, "is_downbeat": false}, {"time": 276, "is_downbeat": false}, {"time": 300, "is_downbeat": true}, {"time": 324, "is_downbeat": false}, {"time": 348, "is_downbeat": false}, {"time": 372, "is_downbeat": false}, {"time": 396, "is_downbeat": true}, {"time": 420, "is_downbeat": false}, {"time": 444, "is_downbeat": false}, {"time": 468, "is_downbeat": false}, {"time": 492, "is_downbeat": true}, {"time": 516, "is_downbeat": false}, {"time": 540, "is_downbeat": false}, {"time": 564, "is_downbeat": false}, {"time": 588, "is_downbeat": true}, {"time": 612, "is_downbeat": false}, {"time": 636, "is_downbeat": false}, {"time": 660, "is_downbeat": false}, {"time": 684, "is_downbeat": true}, {"time": 708, "is_downbeat": false}, {"time": 732, "is_downbeat": false}, {"time": 756, "is_downbeat": false}, {"time": 780, "is_downbeat": true}, {"time": 804, "is_downbeat": false}, {"time": 828, "is_downbeat": false}, {"time": 852, "is_downbeat": false}, {"time": 876, "is_downbeat": true}, {"time": 900, "is_downbeat": false}, {"time": 924, "is_downbeat": false}, {"time": 948, "is_downbeat": false}, {"time": 972, "is_downbeat": true}, {"time": 996, "is_downbeat": false}, {"time": 1020, "is_downbeat": false}, {"time": 1044, "is_downbeat": false}, {"time": 1068, "is_downbeat": true}, {"time": 1092, "is_downbeat": false}, {"time": 1116, "is_downbeat": false}, {"time": 1140, "is_downbeat": false}, {"time": 1164, "is_downbeat": true}, {"time": 1188, "is_downbeat": false}, {"time": 1212, "is_downbeat": false}, {"time": 1236, "is_downbeat": false}, {"time": 1260, "is_downbeat": true}, {"time": 1284, "is_downbeat": false}, {"time": 1308, "is_downbeat": false}, {"time": 1332, "is_downbeat": false}, {"time": 1356, "is_downbeat": true}, {"time": 1380, "is_downbeat": false}, {"time": 1404, "is_downbeat": false}, {"time": 1428, "is_downbeat": false}, {"time": 1452, "is_downbeat": true}, {"time": 1476, "is_downbeat": false}, {"time": 1500, "is_downbeat": false}, {"time": 1524, "is_downbeat": false}], "tracks": [{"program": 0, "is_drum": false, "notes": [{"time": 0, "pitch": 69, "duration": 12, "velocity": 64}, {"time": 12, "pitch": 67, "duration": 18, "velocity": 64}, {"time": 30, "pitch": 64, "duration": 6, "velocity": 64}, {"time": 36, "pitch": 62, "duration": 18, "velocity": 64}, {"time": 54, "pitch": 65, "duration": 6, "velocity": 64}, {"time": 60, "pitch": 67, "duration": 18, "velocity": 64}, {"time": 78, "pitch": 65, "duration": 6, "velocity": 64}, {"time": 84, "pitch": 62, "duration": 18, "velocity": 64}, {"time": 102, "pitch": 69, "duration": 6, "velocity": 64}, {"time": 108, "pitch": 70, "duration": 18, "velocity": 64}, {"time": 126, "pitch": 72, "duration": 6, "velocity": 64}, {"time": 132, "pitch": 70, "duration": 18, "velocity": 64}, {"time": 150, "pitch": 67, "duration": 6, "velocity": 64}, {"time": 156, "pitch": 64, "duration": 36, "velocity": 64}, {"time": 192, "pitch": 70, "duration": 12, "velocity": 64}, {"time": 204, "pitch": 67, "duration": 18, "velocity": 64}, {"time": 222, "pitch": 67, "duration": 6, "velocity": 64}, {"time": 228, "pitch": 70, "duration": 18, "velocity": 64}, {"time": 246, "pitch": 72, "duration": 6, "velocity": 64}, {"time": 252, "pitch": 74, "duration": 18, "velocity": 64}, {"time": 270, "pitch": 72, "duration": 6, "velocity": 64}, {"time": 276, "pitch": 70, "duration": 18, "velocity": 64}, {"time": 294, "pitch": 64, "duration": 6, "velocity": 64}, {"time": 300, "pitch": 67, "duration": 18, "velocity": 64}, {"time": 318, "pitch": 67, "duration": 6, "velocity": 64}, {"time": 324, "pitch": 70, "duration": 18, "velocity": 64}, {"time": 342, "pitch": 72, "duration": 6, "velocity": 64}, {"time": 348, "pitch": 74, "duration": 36, "velocity": 64}, {"time": 384, "pitch": 76, "duration": 12, "velocity": 64}, {"time": 396, "pitch": 79, "duration": 18, "velocity": 64}, {"time": 414, "pitch": 74, "duration": 6, "velocity": 64}, {"time": 420, "pitch": 76, "duration": 18, "velocity": 64}, {"time": 438, "pitch": 72, "duration": 6, "velocity": 64}, {"time": 444, "pitch": 74, "duration": 18, "velocity": 64}, {"time": 462, "pitch": 70, "duration": 6, "velocity": 64}, {"time": 468, "pitch": 72, "duration": 12, "velocity": 64}, {"time": 480, "pitch": 74, "duration": 12, "velocity": 64}, {"time": 492, "pitch": 70, "duration": 6, "velocity": 64}, {"time": 498, "pitch": 67, "duration": 18, "velocity": 64}, {"time": 516, "pitch": 64, "duration": 18, "velocity": 64}, {"time": 534, "pitch": 62, "duration": 6, "velocity": 64}, {"time": 540, "pitch": 70, "duration": 36, "velocity": 64}, {"time": 576, "pitch": 72, "duration": 12, "velocity": 64}, {"time": 588, "pitch": 74, "duration": 18, "velocity": 64}, {"time": 606, "pitch": 70, "duration": 6, "velocity": 64}, {"time": 612, "pitch": 72, "duration": 18, "velocity": 64}, {"time": 630, "pitch": 67, "duration": 6, "velocity": 64}, {"time": 636, "pitch": 70, "duration": 6, "velocity": 64}, {"time": 642, "pitch": 67, "duration": 18, "velocity": 64}, {"time": 660, "pitch": 64, "duration": 18, "velocity": 64}, {"time": 678, "pitch": 62, "duration": 6, "velocity": 64}, {"time": 684, "pitch": 60, "duration": 6, "velocity": 64}, {"time": 690, "pitch": 60, "duration": 18, "velocity": 64}, {"time": 708, "pitch": 62, "duration": 18, "velocity": 64}, {"time": 726, "pitch": 65, "duration": 6, "velocity": 64}, {"time": 732, "pitch": 67, "duration": 36, "velocity": 64}, {"time": 768, "pitch": 76, "duration": 12, "velocity": 64}, {"time": 780, "pitch": 79, "duration": 18, "velocity": 64}, {"time": 798, "pitch": 76, "duration": 6, "velocity": 64}, {"time": 804, "pitch": 74, "duration": 18, "velocity": 64}, {"time": 822, "pitch": 77, "duration": 6, "velocity": 64}, {"time": 828, "pitch": 79, "duration": 18, "velocity": 64}, {"time": 846, "pitch": 77, "duration": 6, "velocity": 64}, {"time": 852, "pitch": 74, "duration": 18, "velocity": 64}, {"time": 870, "pitch": 79, "duration": 6, "velocity": 64}, {"time": 876, "pitch": 64, "duration": 6, "velocity": 64}, {"time": 882, "pitch": 74, "duration": 18, "velocity": 64}, {"time": 900, "pitch": 72, "duration": 18, "velocity": 64}, {"time": 918, "pitch": 74, "duration": 6, "velocity": 64}, {"time": 924, "pitch": 77, "duration": 36, "velocity": 64}, {"time": 960, "pitch": 74, "duration": 12, "velocity": 64}, {"time": 972, "pitch": 79, "duration": 18, "velocity": 64}, {"time": 990, "pitch": 76, "duration": 6, "velocity": 64}, {"time": 996, "pitch": 74, "duration": 18, "velocity": 64}, {"time": 1014, "pitch": 77, "duration": 6, "velocity": 64}, {"time": 1020, "pitch": 79, "duration": 18, "velocity": 64}, {"time": 1038, "pitch": 77, "duration": 6, "velocity": 64}, {"time": 1044, "pitch": 74, "duration": 18, "velocity": 64}, {"time": 1062, "pitch": 70, "duration": 6, "velocity": 64}, {"time": 1068, "pitch": 67, "duration": 18, "velocity": 64}, {"time": 1086, "pitch": 67, "duration": 6, "velocity": 64}, {"time": 1092, "pitch": 70, "duration": 18, "velocity": 64}, {"time": 1110, "pitch": 72, "duration": 6, "velocity": 64}, {"time": 1116, "pitch": 74, "duration": 36, "velocity": 64}, {"time": 1152, "pitch": 76, "duration": 12, "velocity": 64}, {"time": 1164, "pitch": 79, "duration": 18, "velocity": 64}, {"time": 1182, "pitch": 74, "duration": 6, "velocity": 64}, {"time": 1188, "pitch": 76, "duration": 18, "velocity": 64}, {"time": 1206, "pitch": 72, "duration": 6, "velocity": 64}, {"time": 1212, "pitch": 74, "duration": 18, "velocity": 64}, {"time": 1230, "pitch": 70, "duration": 6, "velocity": 64}, {"time": 1236, "pitch": 72, "duration": 12, "velocity": 64}, {"time": 1248, "pitch": 74, "duration": 12, "velocity": 64}, {"time": 1260, "pitch": 70, "duration": 6, "velocity": 64}, {"time": 1266, "pitch": 67, "duration": 18, "velocity": 64}, {"time": 1284, "pitch": 64, "duration": 18, "velocity": 64}, {"time": 1302, "pitch": 62, "duration": 6, "velocity": 64}, {"time": 1308, "pitch": 70, "duration": 36, "velocity": 64}, {"time": 1344, "pitch": 72, "duration": 12, "velocity": 64}, {"time": 1356, "pitch": 74, "duration": 18, "velocity": 64}, {"time": 1374, "pitch": 70, "duration": 6, "velocity": 64}, {"time": 1380, "pitch": 72, "duration": 18, "velocity": 64}, {"time": 1398, "pitch": 67, "duration": 6, "velocity": 64}, {"time": 1404, "pitch": 70, "duration": 6, "velocity": 64}, {"time": 1410, "pitch": 67, "duration": 18, "velocity": 64}, {"time": 1428, "pitch": 64, "duration": 18, "velocity": 64}, {"time": 1446, "pitch": 62, "duration": 6, "velocity": 64}, {"time": 1452, "pitch": 60, "duration": 6, "velocity": 64}, {"time": 1458, "pitch": 60, "duration": 18, "velocity": 64}, {"time": 1476, "pitch": 62, "duration": 18, "velocity": 64}, {"time": 1494, "pitch": 64, "duration": 6, "velocity": 64}, {"time": 1500, "pitch": 67, "duration": 36, "velocity": 64}]}]}