{"metadata": {"schema_version": "0.1", "title": "The Lass of Livingston", "source_format": "abc"}, "resolution": 24, "tempos": [{"time": 0, "qpm": 120.0}], "key_signatures": [{"time": 0, "root": 0, "mode": "minor", "fifths": -3}], "time_signatures": [{"time": 0, "numerator": 2, "denominator": 2}], "beats": [{"time": 0, "is_downbeat": true}, {"time": 24, "is_downbeat": true}, {"time": 72, "is_downbeat": false}, {"time": 120, "is_downbeat": true}, {"time": 168, "is_downbeat": false}, {"time": 216, "is_downbeat": true}, {"time": 264, "is_downbeat": false}, {"time": 312, "is_downbeat": true}, {"time": 360, "is_downbeat": false}, {"time": 408, "is_downbeat": true}, {"time": 456, "is_downbeat": false}, {"time": 504, "is_downbeat": true}, {"time": 552, "is_downbeat": false}, {"time": 600, "is_downbeat": true}, {"time": 648, "is_downbeat": false}, {"time": 696, "is_downbeat": true}, {"time": 744, "is_downbeat": false}, {"time": 792, "is_downbeat": true}, {"time": 840, "is_downbeat": false}, {"time": 888, "is_downbeat": true}, {"time": 936, "is_downbeat": false}, {"time": 984, "is_downbeat": true}, {"time": 1032, "is_downbeat": false}, {"time": 1080, "is_downbeat": true}, {"time": 1128, "is_downbeat": false}, {"time": 1176, "is_downbeat": true}, {"time": 1224, "is_downbeat": false}, {"time": 1272, "is_downbeat": true}, {"time": 1320, "is_downbeat": false}, {"time": 1368, "is_downbeat": true}, {"time": 1416, "is_downbeat": false}, {"time": 1464, "is_downbeat": true}, {"time": 1512, "is_downbeat": false}], "tracks": [{"program": 0, "is_drum": false, "notes": [{"time": 0, "pitch": 58, "duration": 12, "velocity": 64}, {"time": 12, "pitch": 60, "duration": 12, "velocity": 64}, {"time": 24, "pitch": 63, "duration": 36, "velocity": 64}, {"time": 60, "pitch": 65, "duration": 12, "velocity": 64}, {"time": 72, "pitch": 67, "duration": 24, "velocity": 64}, {"time": 96, "pitch": 72, "duration": 24, "velocity": 64}, {"time": 120, "pitch": 70, "duration": 12, "velocity": 64}, {"time": 132, "pitch": 67, "duration": 12, "velocity": 64}, {"time": 144, "pitch": 71, "duration": 12, "velocity": 64}, {"time": 156, "pitch": 72, "duration": 12, "velocity": 64}, {"time": 168, "pitch": 70, "duration": 12, "velocity": 64}, {"time": 180, "pitch": 67, "duration": 12, "velocity": 64}, {"time": 192, "pitch": 65, "duration": 12, "velocity": 64}, {"time": 204, "pitch": 63, "duration": 12, "velocity": 64}, {"time": 216, "pitch": 67, "duration": 24, "velocity": 64}, {"time": 240, "pitch": 65, "duration": 24, "velocity": 64}, {"time": 264, "pitch": 65, "duration": 24, "velocity": 64}, {"time": 288, "pitch": 63, "duration": 12, "velocity": 64}, {"time": 300, "pitch": 65, "duration": 12, "velocity": 64}, {"time": 312, "pitch": 67, "duration": 24, "velocity": 64}, {"time": 336, "pitch": 65, "duration": 24, "velocity": 64}, {"time": 360, "pitch": 65, "duration": 24, "velocity": 64}, {"time": 384, "pitch": 63, "duration": 12, "velocity": 64}, {"time": 396, "pitch": 60, "duration": 12, "velocity": 64}, {"time": 408, "pitch": 58, "duration": 12, "velocity": 64}, {"time": 420, "pitch": 60, "duration": 12, "velocity": 64}, {"time": 432, "pitch": 63, "duration": 12, "velocity": 64}, {"time": 444, "pitch": 65, "duration": 12, "velocity": 64}, {"time": 456, "pitch": 67, "duration": 36, "velocity": 64}, {"time": 492, "pitch": 72, "duration": 12, "velocity": 64}, {"time": 504, "pitch": 70, "duration": 6, "velocity": 64}, {"time": 510, "pitch": 67, "duration": 18, "velocity": 64}, {"time": 528, "pitch": 65, "duration": 12, "velocity": 64}, {"time": 540, "pitch": 63, "duration": 12, "velocity": 64}, {"time": 552, "pitch": 65, "duration": 24, "velocity": 64}, {"time": 576, "pitch": 67, "duration": 12, "velocity": 64}, {"time": 588, "pitch": 71, "duration": 12, "velocity": 64}, {"time": 600, "pitch": 72, "duration": 24, "velocity": 64}, {"time": 624, "pitch": 60, "duration": 24, "velocity": 64}, {"time": 648, "pitch": 60, "duration": 24, "velocity": 64}, {"time": 672, "pitch": 58, "duration": 12, "velocity": 64}, {"time": 684, "pitch": 60, "duration": 12, "velocity": 64}, {"time": 696, "pitch": 63, "duration": 24, "velocity": 64}, {"time": 720, "pitch": 60, "duration": 24, "velocity": 64}, {"time": 744, "pitch": 60, "duration": 24, "velocity": 64}, {"time": 768, "pitch": 70, "duration": 12, "velocity": 64}, {"time": 780, "pitch": 72, "duration": 12, "velocity": 64}, {"time": 792, "pitch": 75, "duration": 36, "velocity": 64}, {"time": 828, "pitch": 77, "duration": 12, "velocity": 64}, {"time": 840, "pitch": 75, "duration": 12, "velocity": 64}, {"time": 852, "pitch": 77, "duration": 12, "velocity": 64}, {"time": 864, "pitch": 79, "duration": 12, "velocity": 64}, {"time": 876, "pitch": 77, "duration": 12, "velocity": 64}, {"time": 888, "pitch": 75, "duration": 12, "velocity": 64}, {"time": 900, "pitch": 70, "duration": 12, "velocity": 64}, {"time": 912, "pitch": 72, "duration": 12, "velocity": 64}, {"time": 924, "pitch": 75, "duration": 12, "velocity": 64}, {"time": 936, "pitch": 70, "duration": 12, "velocity": 64}, {"time": 948, "pitch": 67, "duration": 12, "velocity": 64}, {"time": 960, "pitch": 65, "duration": 12, "velocity": 64}, {"time": 972, "pitch": 63, "duration": 12, "velocity": 64}, {"time": 984, "pitch": 67, "duration": 24, "velocity": 64}, {"time": 1008, "pitch": 65, "duration": 24, "velocity": 64}, {"time": 1032, "pitch": 65, "duration": 24, "velocity": 64}, {"time": 1056, "pitch": 63, "duration": 12, "velocity": 64}, {"time": 1068, "pitch": 65, "duration": 12, "velocity": 64}, {"time": 1080, "pitch": 67, "duration": 24, "velocity": 64}, {"time": 1104, "pitch": 65, "duration": 24, "velocity": 64}, {"time": 1128, "pitch": 65, "duration": 24, "velocity": 64}, {"time": 1152, "pitch": 75, "duration": 12, "velocity": 64}, {"time": 1164, "pitch": 77, "duration": 12, "velocity": 64}, {"time": 1176, "pitch": 79, "duration": 12, "velocity": 64}, {"time": 1188, "pitch": 75, "duration": 12, "velocity": 64}, {"time": 1200, "pitch": 77, "duration": 12, "velocity": 64}, {"time": 1212, "pitch": 79, "duration": 12, "velocity": 64}, {"time": 1224, "pitch": 75, "duration": 12, "velocity": 64}, {"time": 1236, "pitch": 70, "duration": 12, "velocity": 64}, {"time": 1248, "pitch": 72, "duration": 12, "velocity": 64}, {"time": 1260, "pitch": 75, "duration": 12, "velocity": 64}, {"time": 1272, "pitch": 70, "duration": 12, "velocity": 64}, {"time": 1284, "pitch": 67, "duration": 12, "velocity": 64}, {"time": 1296, "pitch": 65, "duration": 12, "velocity": 64}, {"time": 1308, "pitch": 63, "duration": 12, "velocity": 64}, {"time": 1320, "pitch": 65, "duration": 12, "velocity": 64}, {"time": 1332, "pitch": 67, "duration": 12, "velocity": 64}, {"time": 1344, "pitch": 68, "duration": 12, "velocity": 64}, {"time": 1356, "pitch": 70, "duration": 12, "velocity": 64}, {"time": 1368, "pitch": 72, "duration": 24, "velocity": 64}, {"time": 1392, "pitch": 60, "duration": 24, "velocity": 64}, {"time": 1416, "pitch": 60, "duration": 24, "velocity": 64}, {"time": 1440, "pitch": 58, "duration": 12, "velocity": 64}, {"time": 1452, "pitch": 60, "duration": 12, "velocity": 64}, {"time": 1464, "pitch": 63, "duration": 24, "velocity": 64}, {"time": 1488, "pitch": 60, "duration": 24, "velocity": 64}, {"time": 1512, "pitch": 60, "duration": 24, "velocity": 64}]}]}