{"metadata": {"schema_version": "0.1", "title": "Duncan Davison", "source_format": "abc"}, "resolution": 24, "tempos": [{"time": 0, "qpm": 120.0}], "key_signatures": [{"time": 0, "root": 0, "mode": "major", "fifths": 0}], "time_signatures": [{"time": 0, "numerator": 2, "denominator": 2}], "beats": [{"time": 0, "is_downbeat": true}, {"time": 6, "is_downbeat": true}, {"time": 54, "is_downbeat": false}, {"time": 102, "is_downbeat": true}, {"time": 150, "is_downbeat": false}, {"time": 198, "is_downbeat": true}, {"time": 246, "is_downbeat": false}, {"time": 294, "is_downbeat": true}, {"time": 342, "is_downbeat": false}, {"time": 390, "is_downbeat": true}, {"time": 438, "is_downbeat": false}, {"time": 486, "is_downbeat": true}, {"time": 534, "is_downbeat": false}, {"time": 582, "is_downbeat": true}, {"time": 630, "is_downbeat": false}, {"time": 678, "is_downbeat": true}, {"time": 726, "is_downbeat": false}], "tracks": [{"program": 0, "is_drum": false, "notes": [{"time": 0, "pitch": 60, "duration": 6, "velocity": 64}, {"time": 6, "pitch": 60, "duration": 18, "velocity": 64}, {"time": 24, "pitch": 64, "duration": 6, "velocity": 64}, {"time": 30, "pitch": 67, "duration": 18, "velocity": 64}, {"time": 48, "pitch": 69, "duration": 6, "velocity": 64}, {"time": 54, "pitch": 67, "duration": 18, "velocity": 64}, {"time": 72, "pitch": 64, "duration": 6, "velocity": 64}, {"time": 78, "pitch": 67, "duration": 18, "velocity": 64}, {"time": 96, "pitch": 69, "duration": 6, "velocity": 64}, {"time": 102, "pitch": 60, "duration": 18, "velocity": 64}, {"time": 120, "pitch": 64, "duration": 6, "velocity": 64}, {"time": 126, "pitch": 72, "duration": 18, "velocity": 64}, {"time": 144, "pitch": 69, "duration": 6, "velocity": 64}, {"time": 150, "pitch": 67, "duration": 18, "velocity": 64}, {"time": 168, "pitch": 64, "duration": 6, "velocity": 64}, {"time": 174, "pitch": 62, "duration": 18, "velocity": 64}, {"time": 192, "pitch": 64, "duration": 6, "velocity": 64}, {"time": 198, "pitch": 60, "duration": 18, "velocity": 64}, {"time": 216, "pitch": 64, "duration": 6, "velocity": 64}, {"time": 222, "pitch": 67, "duration": 18, "velocity": 64}, {"time": 240, "pitch": 69, "duration": 6, "velocity": 64}, {"time": 246, "pitch": 67, "duration": 18, "velocity": 64}, {"time": 264, "pitch": 64, "duration": 6, "velocity": 64}, {"time": 270, "pitch": 67, "duration": 18, "velocity": 64}, {"time": 288, "pitch": 76, "duration": 6, "velocity": 64}, {"time": 294, "pitch": 74, "duration": 18, "velocity": 64}, {"time": 312, "pitch": 72, "duration": 6, "velocity": 64}, {"time": 318, "pitch": 74, "duration": 12, "velocity": 64}, {"time": 330, "pitch": 76, "duration": 12, "velocity": 64}, {"time": 342, "pitch": 72, "duration": 18, "velocity": 64}, {"time": 360, "pitch": 72, "duration": 6, "velocity": 64}, {"time": 366, "pitch": 72, "duration": 18, "velocity": 64}, {"time": 384, "pitch": 77, "duration": 6, "velocity": 64}, {"time": 390, "pitch": 76, "duration": 18, "velocity": 64}, {"time": 408, "pitch": 74, "duration": 6, "velocity": 64}, {"time": 414, "pitch": 72, "duration": 6, "velocity": 64}, {"time": 420, "pitch": 74, "duration": 6, "velocity": 64}, {"time": 426, "pitch": 76, "duration": 6, "velocity": 64}, {"time": 432, "pitch": 77, "duration": 6, "velocity": 64}, {"time": 438, "pitch": 79, "duration": 12, "velocity": 64}, {"time": 450, "pitch": 76, "duration": 12, "velocity": 64}, {"time": 462, "pitch": 74, "duration": 12, "velocity": 64}, {"time": 474, "pitch": 72, "duration": 12, "velocity": 64}, {"time": 486, "pitch": 71, "duration": 12, "velocity": 64}, {"time": 498, "pitch": 67, "duration": 12, "velocity": 64}, {"time": 510, "pitch": 74, "duration": 12, "velocity": 64}, {"time": 522, "pitch": 67, "duration": 12, "velocity": 64}, {"time": 534, "pitch": 71, "duration": 18, "velocity": 64}, {"time": 552, "pitch": 72, "duration": 6, "velocity": 64}, {"time": 558, "pitch": 74, "duration": 12, "velocity": 64}, {"time": 570, "pitch": 77, "duration": 12, "velocity": 64}, {"time": 582, "pitch": 76, "duration": 18, "velocity": 64}, {"time": 600, "pitch": 74, "duration": 6, "velocity": 64}, {"time": 606, "pitch": 72, "duration": 6, "velocity": 64}, {"time": 612, "pitch": 74, "duration": 6, "velocity": 64}, {"time": 618, "pitch": 76, "duration": 6, "velocity": 64}, {"time": 624, "pitch": 77, "duration": 6, "velocity": 64}, {"time": 630, "pitch": 79, "duration": 12, "velocity": 64}, {"time": 642, "pitch": 76, "duration": 12, "velocity": 64}, {"time": 654, "pitch": 74, "duration": 12, "velocity": 64}, {"time": 666, "pitch": 72, "duration": 12, "velocity": 64}, {"time": 678, "pitch": 67, "duration": 18, "velocity": 64}, {"time": 696, "pitch": 72, "duration": 6, "velocity": 64}, {"time": 702, "pitch": 74, "duration": 18, "velocity": 64}, {"time": 720, "pitch": 76, "duration": 6, "velocity": 64}, {"time": 726, "pitch": 72, "duration": 18, "velocity": 64}, {"time": 744, "pitch": 72, "duration": 6, "velocity": 64}, {"time": 750, "pitch": 72, "duration": 18, "velocity": 64}]}]}