{"metadata": {"schema_version": "0.1", "title": "My Ain Kind Deary", "source_format": "abc"}, "resolution": 24, "tempos": [{"time": 0, "qpm": 120.0}], "key_signatures": [{"time": 0, "root": 5, "mode": "major", "fifths": -1}], "time_signatures": [{"time": 0, "numerator": 2, "denominator": 2}], "beats": [{"time": 0, "is_downbeat": true}, {"time": 12, "is_downbeat": true}, {"time": 60, "is_downbeat": false}, {"time": 108, "is_downbeat": true}, {"time": 156, "is_downbeat": false}, {"time": 204, "is_downbeat": true}, {"time": 252, "is_downbeat": false}, {"time": 300, "is_downbeat": true}, {"time": 348, "is_downbeat": false}, {"time": 396, "is_downbeat": true}, {"time": 444, "is_downbeat": false}, {"time": 492, "is_downbeat": true}, {"time": 540, "is_downbeat": false}, {"time": 588, "is_downbeat": true}, {"time": 636, "is_downbeat": false}, {"time": 684, "is_downbeat": true}, {"time": 732, "is_downbeat": false}], "tracks": [{"program": 0, "is_drum": false, "notes": [{"time": 0, "pitch": 69, "duration": 9, "velocity": 64}, {"time": 9, "pitch": 67, "duration": 3, "velocity": 64}, {"time": 12, "pitch": 69, "duration": 12, "velocity": 64}, {"time": 24, "pitch": 60, "duration": 12, "velocity": 64}, {"time": 36, "pitch": 60, "duration": 12, "velocity": 64}, {"time": 48, "pitch": 62, "duration": 12, "velocity": 64}, {"time": 60, "pitch": 65, "duration": 18, "velocity": 64}, {"time": 78, "pitch": 67, "duration": 6, "velocity": 64}, {"time": 84, "pitch": 65, "duration": 12, "velocity": 64}, {"time": 96, "pitch": 69, "duration": 12, "velocity": 64}, {"time": 108, "pitch": 67, "duration": 18, "velocity": 64}, {"time": 126, "pitch": 69, "duration": 6, "velocity": 64}, {"time": 132, "pitch": 70, "duration": 6, "velocity": 64}, {"time": 138, "pitch": 69, "duration": 6, "velocity": 64}, {"time": 144, "pitch": 67, "duration": 6, "velocity": 64}, {"time": 150, "pitch": 65, "duration": 6, "velocity": 64}, {"time": 156, "pitch": 69, "duration": 12, "velocity": 64}, {"time": 168, "pitch": 62, "duration": 12, "velocity": 64}, {"time": 180, "pitch": 62, "duration": 12, "velocity": 64}, {"time": 192, "pitch": 69, "duration": 9, "velocity": 64}, {"time": 201, "pitch": 67, "duration": 3, "velocity": 64}, {"time": 204, "pitch": 69, "duration": 12, "velocity": 64}, {"time": 216, "pitch": 60, "duration": 12, "velocity": 64}, {"time": 228, "pitch": 60, "duration": 12, "velocity": 64}, {"time": 240, "pitch": 62, "duration": 12, "velocity": 64}, {"time": 252, "pitch": 65, "duration": 18, "velocity": 64}, {"time": 270, "pitch": 67, "duration": 6, "velocity": 64}, {"time": 276, "pitch": 65, "duration": 12, "velocity": 64}, {"time": 288, "pitch": 77, "duration": 6, "velocity": 64}, {"time": 294, "pitch": 76, "duration": 6, "velocity": 64}, {"time": 300, "pitch": 74, "duration": 18, "velocity": 64}, {"time": 318, "pitch": 72, "duration": 6, "velocity": 64}, {"time": 324, "pitch": 74, "duration": 6, "velocity": 64}, {"time": 330, "pitch": 76, "duration": 6, "velocity": 64}, {"time": 336, "pitch": 77, "duration": 6, "velocity": 64}, {"time": 342, "pitch": 72, "duration": 6, "velocity": 64}, {"time": 348, "pitch": 69, "duration": 12, "velocity": 64}, {"time": 360, "pitch": 65, "duration": 12, "velocity": 64}, {"time": 372, "pitch": 65, "duration": 12, "velocity": 64}, {"time": 384, "pitch": 72, "duration": 12, "velocity": 64}, {"time": 396, "pitch": 74, "duration": 6, "velocity": 64}, {"time": 402, "pitch": 72, "duration": 6, "velocity": 64}, {"time": 408, "pitch": 74, "duration": 6, "velocity": 64}, {"time": 414, "pitch": 76, "duration": 6, "velocity": 64}, {"time": 420, "pitch": 77, "duration": 18, "velocity": 64}, {"time": 438, "pitch": 69, "duration": 6, "velocity": 64}, {"time": 444, "pitch": 70, "duration": 6, "velocity": 64}, {"time": 450, "pitch": 69, "duration": 6, "velocity": 64}, {"time": 456, "pitch": 70, "duration": 6, "velocity": 64}, {"time": 462, "pitch": 72, "duration": 6, "velocity": 64}, {"time": 468, "pitch": 74, "duration": 18, "velocity": 64}, {"time": 486, "pitch": 65, "duration": 6, "velocity": 64}, {"time": 492, "pitch": 67, "duration": 6, "velocity": 64}, {"time": 498, "pitch": 65, "duration": 6, "velocity": 64}, {"time": 504, "pitch": 67, "duration": 6, "velocity": 64}, {"time": 510, "pitch": 69, "duration": 6, "velocity": 64}, {"time": 516, "pitch": 70, "duration": 6, "velocity": 64}, {"time": 522, "pitch": 69, "duration": 6, "velocity": 64}, {"time": 528, "pitch": 67, "duration": 6, "velocity": 64}, {"time": 534, "pitch": 65, "duration": 6, "velocity": 64}, {"time": 540, "pitch": 69, "duration": 12, "velocity": 64}, {"time": 552, "pitch": 62, "duration": 12, "velocity": 64}, {"time": 564, "pitch": 62, "duration": 12, "velocity": 64}, {"time": 576, "pitch": 69, "duration": 9, "velocity": 64}, {"time": 585, "pitch": 67, "duration": 3, "velocity": 64}, {"time": 588, "pitch": 69, "duration": 12, "velocity": 64}, {"time": 600, "pitch": 60, "duration": 12, "velocity": 64}, {"time": 612, "pitch": 60, "duration": 12, "velocity": 64}, {"time": 624, "pitch": 62, "duration": 12, "velocity": 64}, {"time": 636, "pitch": 65, "duration": 18, "velocity": 64}, {"time": 654, "pitch": 67, "duration": 6, "velocity": 64}, {"time": 660, "pitch": 65, "duration": 12, "velocity": 64}, {"time": 672, "pitch": 77, "duration": 6, "velocity": 64}, {"time": 678, "pitch": 76, "duration": 6, "velocity": 64}, {"time": 684, "pitch": 74, "duration": 18, "velocity": 64}, {"time": 702, "pitch": 72, "duration": 6, "velocity": 64}, {"time": 708, "pitch": 74, "duration": 6, "velocity": 64}, {"time": 714, "pitch": 76, "duration": 6, "velocity": 64}, {"time": 720, "pitch": 77, "duration": 6, "velocity": 64}, {"time": 726, "pitch": 72, "duration": 6, "velocity": 64}, {"time": 732, "pitch": 69, "duration": 12, "velocity": 64}, {"time": 744, "pitch": 65, "duration": 12, "velocity": 64}, {"time": 756, "pitch": 65, "duration": 12, "velocity": 64}]}]}