{"metadata": {"schema_version": "0.1", "title": "Maggy Lauder", "source_format": "abc"}, "resolution": 24, "tempos": [{"time": 0, "qpm": 120.0}], "key_signatures": [{"time": 0, "root": 10, "mode": "major", "fifths": -2}], "time_signatures": [{"time": 0, "numerator": 2, "denominator": 2}], "beats": [{"time": 0, "is_downbeat": true}, {"time": 48, "is_downbeat": false}, {"time": 96, "is_downbeat": true}, {"time": 144, "is_downbeat": false}, {"time": 192, "is_downbeat": true}, {"time": 240, "is_downbeat": false}, {"time": 288, "is_downbeat": true}, {"time": 336, "is_downbeat": false}, {"time": 384, "is_downbeat": true}, {"time": 432, "is_downbeat": false}, {"time": 480, "is_downbeat": true}, {"time": 528, "is_downbeat": false}, {"time": 576, "is_downbeat": true}, {"time": 624, "is_downbeat": false}, {"time": 672, "is_downbeat": true}, {"time": 720, "is_downbeat": false}, {"time": 768, "is_downbeat": true}, {"time": 816, "is_downbeat": false}, {"time": 864, "is_downbeat": true}, {"time": 912, "is_downbeat": false}, {"time": 960, "is_downbeat": true}, {"time": 1008, "is_downbeat": false}, {"time": 1056, "is_downbeat": true}, {"time": 1104, "is_downbeat": false}, {"time": 1152, "is_downbeat": true}, {"time": 1200, "is_downbeat": false}, {"time": 1248, "is_downbeat": true}, {"time": 1296, "is_downbeat": false}, {"time": 1344, "is_downbeat": true}, {"time": 1392, "is_downbeat": false}, {"time": 1440, "is_downbeat": true}, {"time": 1488, "is_downbeat": false}], "tracks": [{"program": 0, "is_drum": false, "notes": [{"time": 0, "pitch": 82, "duration": 18, "velocity": 64}, {"time": 18, "pitch": 72, "duration": 6, "velocity": 64}, {"time": 24, "pitch": 82, "duration": 12, "velocity": 64}, {"time": 36, "pitch": 72, "duration": 12, "velocity": 64}, {"time": 48, "pitch": 82, "duration": 18, "velocity": 64}, {"time": 66, "pitch": 72, "duration": 6, "velocity": 64}, {"time": 72, "pitch": 82, "duration": 12, "velocity": 64}, {"time": 84, "pitch": 74, "duration": 12, "velocity": 64}, {"time": 96, "pitch": 72, "duration": 18, "velocity": 64}, {"time": 114, "pitch": 74, "duration": 6, "velocity": 64}, {"time": 120, "pitch": 75, "duration": 6, "velocity": 64}, {"time": 126, "pitch": 74, "duration": 6, "velocity": 64}, {"time": 132, "pitch": 72, "duration": 6, "velocity": 64}, {"time": 138, "pitch": 82, "duration": 6, "velocity": 64}, {"time": 144, "pitch": 81, "duration": 24, "velocity": 64}, {"time": 168, "pitch": 72, "duration": 18, "velocity": 64}, {"time": 186, "pitch": 75, "duration": 6, "velocity": 64}, {"time": 192, "pitch": 74, "duration": 12, "velocity": 64}, {"time": 204, "pitch": 82, "duration": 12, "velocity": 64}, {"time": 216, "pitch": 82, "duration": 12, "velocity": 64}, {"time": 228, "pitch": 77, "duration": 12, "velocity": 64}, {"time": 240, "pitch": 82, "duration": 18, "velocity": 64}, {"time": 258, "pitch": 72, "duration": 6, "velocity": 64}, {"time": 264, "pitch": 82, "duration": 12, "velocity": 64}, {"time": 276, "pitch": 74, "duration": 12, "velocity": 64}, {"time": 288, "pitch": 77, "duration": 18, "velocity": 64}, {"time": 306, "pitch": 79, "duration": 6, "velocity": 64}, {"time": 312, "pitch": 77, "duration": 12, "velocity": 64}, {"time": 324, "pitch": 75, "duration": 12, "velocity": 64}, {"time": 336, "pitch": 74, "duration": 24, "velocity": 64}, {"time": 360, "pitch": 77, "duration": 18, "velocity": 64}, {"time": 378, "pitch": 77, "duration": 6, "velocity": 64}, {"time": 384, "pitch": 75, "duration": 18, "velocity": 64}, {"time": 402, "pitch": 77, "duration": 6, "velocity": 64}, {"time": 408, "pitch": 75, "duration": 12, "velocity": 64}, {"time": 420, "pitch": 79, "duration": 12, "velocity": 64}, {"time": 432, "pitch": 74, "duration": 18, "velocity": 64}, {"time": 450, "pitch": 75, "duration": 6, "velocity": 64}, {"time": 456, "pitch": 74, "duration": 12, "velocity": 64}, {"time": 468, "pitch": 77, "duration": 12, "velocity": 64}, {"time": 480, "pitch": 72, "duration": 18, "velocity": 64}, {"time": 498, "pitch": 74, "duration": 6, "velocity": 64}, {"time": 504, "pitch": 75, "duration": 6, "velocity": 64}, {"time": 510, "pitch": 74, "duration": 6, "velocity": 64}, {"time": 516, "pitch": 72, "duration": 6, "velocity": 64}, {"time": 522, "pitch": 82, "duration": 6, "velocity": 64}, {"time": 528, "pitch": 81, "duration": 24, "velocity": 64}, {"time": 552, "pitch": 72, "duration": 12, "velocity": 64}, {"time": 564, "pitch": 72, "duration": 12, "velocity": 64}, {"time": 576, "pitch": 82, "duration": 6, "velocity": 64}, {"time": 582, "pitch": 81, "duration": 6, "velocity": 64}, {"time": 588, "pitch": 79, "duration": 6, "velocity": 64}, {"time": 594, "pitch": 77, "duration": 6, "velocity": 64}, {"time": 600, "pitch": 79, "duration": 6, "velocity": 64}, {"time": 606, "pitch": 77, "duration": 6, "velocity": 64}, {"time": 612, "pitch": 75, "duration": 6, "velocity": 64}, {"time": 618, "pitch": 74, "duration": 6, "velocity": 64}, {"time": 624, "pitch": 75, "duration": 6, "velocity": 64}, {"time": 630, "pitch": 74, "duration": 6, "velocity": 64}, {"time": 636, "pitch": 72, "duration": 6, "velocity": 64}, {"time": 642, "pitch": 70, "duration": 6, "velocity": 64}, {"time": 648, "pitch": 72, "duration": 18, "velocity": 64}, {"time": 666, "pitch": 75, "duration": 6, "velocity": 64}, {"time": 672, "pitch": 74, "duration": 6, "velocity": 64}, {"time": 678, "pitch": 75, "duration": 6, "velocity": 64}, {"time": 684, "pitch": 77, "duration": 12, "velocity": 64}, {"time": 696, "pitch": 72, "duration": 18, "velocity": 64}, {"time": 714, "pitch": 74, "duration": 6, "velocity": 64}, {"time": 720, "pitch": 82, "duration": 24, "velocity": 64}, {"time": 744, "pitch": 70, "duration": 24, "velocity": 64}, {"time": 768, "pitch": 74, "duration": 6, "velocity": 64}, {"time": 774, "pitch": 75, "duration": 6, "velocity": 64}, {"time": 780, "pitch": 77, "duration": 12, "velocity": 64}, {"time": 792, "pitch": 82, "duration": 12, "velocity": 64}, {"time": 804, "pitch": 75, "duration": 12, "velocity": 64}, {"time": 816, "pitch": 74, "duration": 6, "velocity": 64}, {"time": 822, "pitch": 75, "duration": 6, "velocity": 64}, {"time": 828, "pitch": 77, "duration": 6, "velocity": 64}, {"time": 834, "pitch": 74, "duration": 6, "velocity": 64}, {"time": 840, "pitch": 82, "duration": 12, "velocity": 64}, {"time": 852, "pitch": 74, "duration": 12, "velocity": 64}, {"time": 864, "pitch": 72, "duration": 18, "velocity": 64}, {"time": 882, "pitch": 74, "duration": 6, "velocity": 64}, {"time": 888, "pitch": 75, "duration": 6, "velocity": 64}, {"time": 894, "pitch": 74, "duration": 6, "velocity": 64}, {"time": 900, "pitch": 72, "duration": 6, "velocity": 64}, {"time": 906, "pitch": 82, "duration": 6, "velocity": 64}, {"time": 912, "pitch": 81, "duration": 24, "velocity": 64}, {"time": 936, "pitch": 72, "duration": 18, "velocity": 64}, {"time": 954, "pitch": 72, "duration": 6, "velocity": 64}, {"time": 960, "pitch": 74, "duration": 6, "velocity": 64}, {"time": 966, "pitch": 75, "duration": 6, "velocity": 64}, {"time": 972, "pitch": 77, "duration": 12, "velocity": 64}, {"time": 984, "pitch": 82, "duration": 12, "velocity": 64}, {"time": 996, "pitch": 75, "duration": 12, "velocity": 64}, {"time": 1008, "pitch": 74, "duration": 6, "velocity": 64}, {"time": 1014, "pitch": 75, "duration": 6, "velocity": 64}, {"time": 1020, "pitch": 77, "duration": 12, "velocity": 64}, {"time": 1032, "pitch": 82, "duration": 18, "velocity": 64}, {"time": 1050, "pitch": 74, "duration": 6, "velocity": 64}, {"time": 1056, "pitch": 77, "duration": 18, "velocity": 64}, {"time": 1074, "pitch": 79, "duration": 6, "velocity": 64}, {"time": 1080, "pitch": 77, "duration": 6, "velocity": 64}, {"time": 1086, "pitch": 79, "duration": 6, "velocity": 64}, {"time": 1092, "pitch": 77, "duration": 6, "velocity": 64}, {"time": 1098, "pitch": 75, "duration": 6, "velocity": 64}, {"time": 1104, "pitch": 74, "duration": 24, "velocity": 64}, {"time": 1128, "pitch": 77, "duration": 18, "velocity": 64}, {"time": 1146, "pitch": 77, "duration": 6, "velocity": 64}, {"time": 1152, "pitch": 75, "duration": 18, "velocity": 64}, {"time": 1170, "pitch": 77, "duration": 6, "velocity": 64}, {"time": 1176, "pitch": 75, "duration": 12, "velocity": 64}, {"time": 1188, "pitch": 79, "duration": 12, "velocity": 64}, {"time": 1200, "pitch": 74, "duration": 18, "velocity": 64}, {"time": 1218, "pitch": 75, "duration": 6, "velocity": 64}, {"time": 1224, "pitch": 74, "duration": 12, "velocity": 64}, {"time": 1236, "pitch": 77, "duration": 12, "velocity": 64}, {"time": 1248, "pitch": 72, "duration": 18, "velocity": 64}, {"time": 1266, "pitch": 74, "duration": 6, "velocity": 64}, {"time": 1272, "pitch": 75, "duration": 6, "velocity": 64}, {"time": 1278, "pitch": 74, "duration": 6, "velocity": 64}, {"time": 1284, "pitch": 72, "duration": 6, "velocity": 64}, {"time": 1290, "pitch": 82, "duration": 6, "velocity": 64}, {"time": 1296, "pitch": 81, "duration": 24, "velocity": 64}, {"time": 1320, "pitch": 72, "duration": 18, "velocity": 64}, {"time": 1338, "pitch": 72, "duration": 6, "velocity": 64}, {"time": 1344, "pitch": 82, "duration": 6, "velocity": 64}, {"time": 1350, "pitch": 81, "duration": 6, "velocity": 64}, {"time": 1356, "pitch": 79, "duration": 6, "velocity": 64}, {"time": 1362, "pitch": 77, "duration": 6, "velocity": 64}, {"time": 1368, "pitch": 79, "duration": 6, "velocity": 64}, {"time": 1374, "pitch": 77, "duration": 6, "velocity": 64}, {"time": 1380, "pitch": 75, "duration": 6, "velocity": 64}, {"time": 1386, "pitch": 74, "duration": 6, "velocity": 64}, {"time": 1392, "pitch": 75, "duration": 6, "velocity": 64}, {"time": 1398, "pitch": 74, "duration": 6, "velocity": 64}, {"time": 1404, "pitch": 72, "duration": 6, "velocity": 64}, {"time": 1410, "pitch": 70, "duration": 6, "velocity": 64}, {"time": 1416, "pitch": 72, "duration": 18, "velocity": 64}, {"time": 1434, "pitch": 75, "duration": 6, "velocity": 64}, {"time": 1440, "pitch": 74, "duration": 6, "velocity": 64}, {"time": 1446, "pitch": 75, "duration": 6, "velocity": 64}, {"time": 1452, "pitch": 77, "duration": 12, "velocity": 64}, {"time": 1464, "pitch": 72, "duration": 18, "velocity": 64}, {"time": 1482, "pitch": 74, "duration": 6, "velocity": 64}, {"time": 1488, "pitch": 82, "duration": 24, "velocity": 64}, {"time": 1512, "pitch": 70, "duration": 24, "velocity": 64}]}]}