{"metadata": {"schema_version": "0.1", "title": "Nanny O", "source_format": "abc"}, "resolution": 24, "tempos": [{"time": 0, "qpm": 120.0}], "key_signatures": [{"time": 0, "root": 7, "mode": "minor", "fifths": -2}], "time_signatures": [{"time": 0, "numerator": 4, "denominator": 4}], "beats": [{"time": 0, "is_downbeat": true}, {"time": 24, "is_downbeat": true}, {"time": 48, "is_downbeat": false}, {"time": 72, "is_downbeat": false}, {"time": 96, "is_downbeat": false}, {"time": 120, "is_downbeat": true}, {"time": 144, "is_downbeat": false}, {"time": 168, "is_downbeat": false}, {"time": 192, "is_downbeat": false}, {"time": 216, "is_downbeat": true}, {"time": 240, "is_downbeat": false}, {"time": 264, "is_downbeat": false}, {"time": 288, "is_downbeat": false}, {"time": 312, "is_downbeat": true}, {"time": 336, "is_downbeat": false}, {"time": 360, "is_downbeat": false}, {"time": 384, "is_downbeat": false}, {"time": 408, "is_downbeat": true}, {"time": 432, "is_downbeat": false}, {"time": 456, "is_downbeat": false}, {"time": 480, "is_downbeat": false}, {"time": 504, "is_downbeat": true}, {"time": 528, "is_downbeat": false}, {"time": 552, "is_downbeat": false}, {"time": 576, "is_downbeat": false}, {"time": 600, "is_downbeat": true}, {"time": 624, "is_downbeat": false}, {"time": 648, "is_downbeat": false}, {"time": 672, "is_downbeat": false}, {"time": 696, "is_downbeat": true}, {"time": 720, "is_downbeat": false}, {"time": 744, "is_downbeat": false}, {"time": 768, "is_downbeat": false}, {"time": 792, "is_downbeat": true}, {"time": 816, "is_downbeat": false}, {"time": 840, "is_downbeat": false}, {"time": 864, "is_downbeat": false}, {"time": 888, "is_downbeat": true}, {"time": 912, "is_downbeat": false}, {"time": 936, "is_downbeat": false}, {"time": 960, "is_downbeat": false}, {"time": 984, "is_downbeat": true}, {"time": 1008, "is_downbeat": false}, {"time": 1032, "is_downbeat": false}, {"time": 1056, "is_downbeat": false}, {"time": 1080, "is_downbeat": true}, {"time": 1104, "is_downbeat": false}, {"time": 1128, "is_downbeat": false}, {"time": 1152, "is_downbeat": false}, {"time": 1176, "is_downbeat": true}, {"time": 1200, "is_downbeat": false}, {"time": 1224, "is_downbeat": false}, {"time": 1248, "is_downbeat": false}, {"time": 1272, "is_downbeat": true}, {"time": 1296, "is_downbeat": false}, {"time": 1320, "is_downbeat": false}, {"time": 1344, "is_downbeat": false}, {"time": 1368, "is_downbeat": true}, {"time": 1392, "is_downbeat": false}, {"time": 1416, "is_downbeat": false}, {"time": 1440, "is_downbeat": false}, {"time": 1464, "is_downbeat": true}, {"time": 1488, "is_downbeat": false}, {"time": 1512, "is_downbeat": false}, {"time": 1536, "is_downbeat": false}], "tracks": [{"program": 0, "is_drum": false, "notes": [{"time": 0, "pitch": 70, "duration": 12, "velocity": 64}, {"time": 12, "pitch": 72, "duration": 12, "velocity": 64}, {"time": 24, "pitch": 74, "duration": 24, "velocity": 64}, {"time": 48, "pitch": 67, "duration": 24, "velocity": 64}, {"time": 72, "pitch": 74, "duration": 36, "velocity": 64}, {"time": 108, "pitch": 72, "duration": 12, "velocity": 64}, {"time": 120, "pitch": 70, "duration": 24, "velocity": 64}, {"time": 144, "pitch": 69, "duration": 18, "velocity": 64}, {"time": 162, "pitch": 67, "duration": 6, "velocity": 64}, {"time": 168, "pitch": 67, "duration": 24, "velocity": 64}, {"time": 192, "pitch": 64, "duration": 12, "velocity": 64}, {"time": 204, "pitch": 67, "duration": 12, "velocity": 64}, {"time": 216, "pitch": 70, "duration": 36, "velocity": 64}, {"time": 252, "pitch": 72, "duration": 12, "velocity": 64}, {"time": 264, "pitch": 74, "duration": 12, "velocity": 64}, {"time": 276, "pitch": 72, "duration": 12, "velocity": 64}, {"time": 288, "pitch": 74, "duration": 12, "velocity": 64}, {"time": 300, "pitch": 76, "duration": 12, "velocity": 64}, {"time": 312, "pitch": 79, "duration": 24, "velocity": 64}, {"time": 336, "pitch": 72, "duration": 18, "velocity": 64}, {"time": 354, "pitch": 74, "duration": 6, "velocity": 64}, {"time": 360, "pitch": 72, "duration": 24, "velocity": 64}, {"time": 384, "pitch": 70, "duration": 12, "velocity": 64}, {"time": 396, "pitch": 72, "duration": 12, "velocity": 64}, {"time": 408, "pitch": 74, "duration": 24, "velocity": 64}, {"time": 432, "pitch": 77, "duration": 24, "velocity": 64}, {"time": 456, "pitch": 75, "duration": 12, "velocity": 64}, {"time": 468, "pitch": 74, "duration": 12, "velocity": 64}, {"time": 480, "pitch": 72, "duration": 12, "velocity": 64}, {"time": 492, "pitch": 70, "duration": 12, "velocity": 64}, {"time": 504, "pitch": 72, "duration": 24, "velocity": 64}, {"time": 528, "pitch": 74, "duration": 24, "velocity": 64}, {"time": 552, "pitch": 82, "duration": 36, "velocity": 64}, {"time": 588, "pitch": 81, "duration": 12, "velocity": 64}, {"time": 600, "pitch": 79, "duration": 18, "velocity": 64}, {"time": 618, "pitch": 82, "duration": 6, "velocity": 64}, {"time": 624, "pitch": 79, "duration": 12, "velocity": 64}, {"time": 636, "pitch": 76, "duration": 12, "velocity": 64}, {"time": 648, "pitch": 74, "duration": 18, "velocity": 64}, {"time": 666, "pitch": 72, "duration": 6, "velocity": 64}, {"time": 672, "pitch": 74, "duration": 12, "velocity": 64}, {"time": 684, "pitch": 77, "duration": 12, "velocity": 64}, {"time": 696, "pitch": 79, "duration": 24, "velocity": 64}, {"time": 720, "pitch": 67, "duration": 18, "velocity": 64}, {"time": 738, "pitch": 69, "duration": 6, "velocity": 64}, {"time": 744, "pitch": 67, "duration": 24, "velocity": 64}, {"time": 768, "pitch": 74, "duration": 18, "velocity": 64}, {"time": 786, "pitch": 75, "duration": 6, "velocity": 64}, {"time": 792, "pitch": 76, "duration": 36, "velocity": 64}, {"time": 828, "pitch": 79, "duration": 12, "velocity": 64}, {"time": 840, "pitch": 77, "duration": 24, "velocity": 64}, {"time": 864, "pitch": 75, "duration": 12, "velocity": 64}, {"time": 876, "pitch": 74, "duration": 12, "velocity": 64}, {"time": 888, "pitch": 82, "duration": 24, "velocity": 64}, {"time": 912, "pitch": 76, "duration": 18, "velocity": 64}, {"time": 930, "pitch": 79, "duration": 6, "velocity": 64}, {"time": 936, "pitch": 77, "duration": 24, "velocity": 64}, {"time": 960, "pitch": 82, "duration": 12, "velocity": 64}, {"time": 972, "pitch": 81, "duration": 12, "velocity": 64}, {"time": 984, "pitch": 79, "duration": 24, "velocity": 64}, {"time": 1008, "pitch": 79, "duration": 12, "velocity": 64}, {"time": 1020, "pitch": 81, "duration": 12, "velocity": 64}, {"time": 1032, "pitch": 82, "duration": 12, "velocity": 64}, {"time": 1044, "pitch": 81, "duration": 12, "velocity": 64}, {"time": 1056, "pitch": 82, "duration": 12, "velocity": 64}, {"time": 1068, "pitch": 72, "duration": 12, "velocity": 64}, {"time": 1080, "pitch": 74, "duration": 24, "velocity": 64}, {"time": 1104, "pitch": 79, "duration": 18, "velocity": 64}, {"time": 1122, "pitch": 81, "duration": 6, "velocity": 64}, {"time": 1128, "pitch": 79, "duration": 24, "velocity": 64}, {"time": 1152, "pitch": 76, "duration": 18, "velocity": 64}, {"time": 1170, "pitch": 75, "duration": 6, "velocity": 64}, {"time": 1176, "pitch": 74, "duration": 24, "velocity": 64}, {"time": 1200, "pitch": 82, "duration": 24, "velocity": 64}, {"time": 1224, "pitch": 76, "duration": 6, "velocity": 64}, {"time": 1230, "pitch": 74, "duration": 18, "velocity": 64}, {"time": 1248, "pitch": 72, "duration": 12, "velocity": 64}, {"time": 1260, "pitch": 70, "duration": 12, "velocity": 64}, {"time": 1272, "pitch": 72, "duration": 24, "velocity": 64}, {"time": 1296, "pitch": 74, "duration": 24, "velocity": 64}, {"time": 1320, "pitch": 82, "duration": 36, "velocity": 64}, {"time": 1356, "pitch": 81, "duration": 12, "velocity": 64}, {"time": 1368, "pitch": 79, "duration": 18, "velocity": 64}, {"time": 1386, "pitch": 82, "duration": 6, "velocity": 64}, {"time": 1392, "pitch": 79, "duration": 12, "velocity": 64}, {"time": 1404, "pitch": 76, "duration": 12, "velocity": 64}, {"time": 1416, "pitch": 74, "duration": 18, "velocity": 64}, {"time": 1434, "pitch": 72, "duration": 6, "velocity": 64}, {"time": 1440, "pitch": 74, "duration": 12, "velocity": 64}, {"time": 1452, "pitch": 77, "duration": 12, "velocity": 64}, {"time": 1464, "pitch": 79, "duration": 24, "velocity": 64}, {"time": 1488, "pitch": 67, "duration": 18, "velocity": 64}, {"time": 1506, "pitch": 69, "duration": 6, "velocity": 64}, {"time": 1512, "pitch": 67, "duration": 24, "velocity": 64}]}]}