{"metadata": {"schema_version": "0.1", "title": "As I roved out, S. 42", "source_format": "abc"}, "resolution": 24, "tempos": [{"time": 0, "qpm": 120.0}], "key_signatures": [{"time": 0, "root": 2, "mode": "major", "fifths": 2}], "time_signatures": [{"time": 0, "numerator": 4, "denominator": 4}, {"time": 480, "numerator": 1, "denominator": 4}, {"time": 504, "numerator": 3, "denominator": 4}], "beats": [{"time": 0, "is_downbeat": true}, {"time": 24, "is_downbeat": true}, {"time": 48, "is_downbeat": true}, {"time": 72, "is_downbeat": true}, {"time": 96, "is_downbeat": true}, {"time": 120, "is_downbeat": true}, {"time": 144, "is_downbeat": true}, {"time": 168, "is_downbeat": true}, {"time": 192, "is_downbeat": true}, {"time": 216, "is_downbeat": true}, {"time": 240, "is_downbeat": true}, {"time": 264, "is_downbeat": true}, {"time": 288, "is_downbeat": true}, {"time": 312, "is_downbeat": true}, {"time": 336, "is_downbeat": true}, {"time": 360, "is_downbeat": true}, {"time": 384, "is_downbeat": true}, {"time": 408, "is_downbeat": true}, {"time": 432, "is_downbeat": true}, {"time": 456, "is_downbeat": true}, {"time": 480, "is_downbeat": true}, {"time": 504, "is_downbeat": true}, {"time": 528, "is_downbeat": false}, {"time": 552, "is_downbeat": false}, {"time": 576, "is_downbeat": true}, {"time": 600, "is_downbeat": false}, {"time": 624, "is_downbeat": false}], "tracks": [{"program": 0, "is_drum": false, "notes": [{"time": 0, "pitch": 57, "duration": 12, "velocity": 64}, {"time": 12, "pitch": 60, "duration": 12, "velocity": 64}, {"time": 24, "pitch": 62, "duration": 12, "velocity": 64}, {"time": 36, "pitch": 64, "duration": 12, "velocity": 64}, {"time": 48, "pitch": 62, "duration": 18, "velocity": 64}, {"time": 66, "pitch": 60, "duration": 6, "velocity": 64}, {"time": 72, "pitch": 57, "duration": 12, "velocity": 64}, {"time": 84, "pitch": 59, "duration": 12, "velocity": 64}, {"time": 96, "pitch": 61, "duration": 12, "velocity": 64}, {"time": 108, "pitch": 62, "duration": 12, "velocity": 64}, {"time": 120, "pitch": 64, "duration": 18, "velocity": 64}, {"time": 138, "pitch": 62, "duration": 6, "velocity": 64}, {"time": 144, "pitch": 60, "duration": 12, "velocity": 64}, {"time": 156, "pitch": 62, "duration": 12, "velocity": 64}, {"time": 168, "pitch": 64, "duration": 12, "velocity": 64}, {"time": 180, "pitch": 73, "duration": 12, "velocity": 64}, {"time": 192, "pitch": 69, "duration": 18, "velocity": 64}, {"time": 210, "pitch": 67, "duration": 6, "velocity": 64}, {"time": 216, "pitch": 69, "duration": 6, "velocity": 64}, {"time": 222, "pitch": 67, "duration": 6, "velocity": 64}, {"time": 228, "pitch": 64, "duration": 12, "velocity": 64}, {"time": 240, "pitch": 62, "duration": 12, "velocity": 64}, {"time": 252, "pitch": 64, "duration": 6, "velocity": 64}, {"time": 258, "pitch": 66, "duration": 6, "velocity": 64}, {"time": 264, "pitch": 67, "duration": 24, "velocity": 64}, {"time": 288, "pitch": 64, "duration": 8, "velocity": 64}, {"time": 296, "pitch": 66, "duration": 8, "velocity": 64}, {"time": 304, "pitch": 67, "duration": 8, "velocity": 64}, {"time": 312, "pitch": 69, "duration": 12, "velocity": 64}, {"time": 324, "pitch": 71, "duration": 12, "velocity": 64}, {"time": 336, "pitch": 69, "duration": 18, "velocity": 64}, {"time": 354, "pitch": 67, "duration": 6, "velocity": 64}, {"time": 360, "pitch": 64, "duration": 12, "velocity": 64}, {"time": 372, "pitch": 60, "duration": 12, "velocity": 64}, {"time": 384, "pitch": 62, "duration": 12, "velocity": 64}, {"time": 396, "pitch": 64, "duration": 12, "velocity": 64}, {"time": 408, "pitch": 62, "duration": 36, "velocity": 64}, {"time": 444, "pitch": 60, "duration": 12, "velocity": 64}, {"time": 456, "pitch": 69, "duration": 12, "velocity": 64}, {"time": 468, "pitch": 57, "duration": 12, "velocity": 64}, {"time": 480, "pitch": 67, "duration": 8, "velocity": 64}, {"time": 488, "pitch": 69, "duration": 8, "velocity": 64}, {"time": 496, "pitch": 71, "duration": 8, "velocity": 64}, {"time": 504, "pitch": 69, "duration": 18, "velocity": 64}, {"time": 522, "pitch": 67, "duration": 6, "velocity": 64}, {"time": 528, "pitch": 69, "duration": 8, "velocity": 64}, {"time": 536, "pitch": 67, "duration": 8, "velocity": 64}, {"time": 544, "pitch": 64, "duration": 8, "velocity": 64}, {"time": 552, "pitch": 62, "duration": 6, "velocity": 64}, {"time": 558, "pitch": 62, "duration": 18, "velocity": 64}, {"time": 576, "pitch": 62, "duration": 24, "velocity": 64}]}]}