{"metadata": {"schema_version": "0.1", "title": "Cumbernauld House", "source_format": "abc"}, "resolution": 24, "tempos": [{"time": 0, "qpm": 120.0}], "key_signatures": [{"time": 0, "root": 3, "mode": "major", "fifths": -3}], "time_signatures": [{"time": 0, "numerator": 2, "denominator": 2}], "beats": [{"time": 0, "is_downbeat": true}, {"time": 24, "is_downbeat": true}, {"time": 72, "is_downbeat": false}, {"time": 120, "is_downbeat": true}, {"time": 168, "is_downbeat": false}, {"time": 216, "is_downbeat": true}, {"time": 264, "is_downbeat": false}, {"time": 312, "is_downbeat": true}, {"time": 360, "is_downbeat": false}, {"time": 408, "is_downbeat": true}, {"time": 456, "is_downbeat": false}, {"time": 504, "is_downbeat": true}, {"time": 552, "is_downbeat": false}, {"time": 600, "is_downbeat": true}, {"time": 648, "is_downbeat": false}, {"time": 696, "is_downbeat": true}, {"time": 744, "is_downbeat": false}, {"time": 792, "is_downbeat": true}, {"time": 840, "is_downbeat": false}, {"time": 888, "is_downbeat": true}, {"time": 936, "is_downbeat": false}, {"time": 984, "is_downbeat": true}, {"time": 1032, "is_downbeat": false}, {"time": 1080, "is_downbeat": true}, {"time": 1128, "is_downbeat": false}, {"time": 1176, "is_downbeat": true}, {"time": 1224, "is_downbeat": false}, {"time": 1272, "is_downbeat": true}, {"time": 1320, "is_downbeat": false}, {"time": 1368, "is_downbeat": true}, {"time": 1416, "is_downbeat": false}, {"time": 1464, "is_downbeat": true}, {"time": 1512, "is_downbeat": false}], "tracks": [{"program": 0, "is_drum": false, "notes": [{"time": 0, "pitch": 63, "duration": 18, "velocity": 64}, {"time": 18, "pitch": 65, "duration": 6, "velocity": 64}, {"time": 24, "pitch": 67, "duration": 18, "velocity": 64}, {"time": 42, "pitch": 65, "duration": 6, "velocity": 64}, {"time": 48, "pitch": 67, "duration": 18, "velocity": 64}, {"time": 66, "pitch": 68, "duration": 6, "velocity": 64}, {"time": 72, "pitch": 67, "duration": 24, "velocity": 64}, {"time": 96, "pitch": 65, "duration": 18, "velocity": 64}, {"time": 114, "pitch": 63, "duration": 6, "velocity": 64}, {"time": 120, "pitch": 60, "duration": 18, "velocity": 64}, {"time": 138, "pitch": 58, "duration": 6, "velocity": 64}, {"time": 144, "pitch": 60, "duration": 12, "velocity": 64}, {"time": 156, "pitch": 63, "duration": 12, "velocity": 64}, {"time": 168, "pitch": 65, "duration": 24, "velocity": 64}, {"time": 192, "pitch": 67, "duration": 12, "velocity": 64}, {"time": 204, "pitch": 70, "duration": 12, "velocity": 64}, {"time": 216, "pitch": 72, "duration": 24, "velocity": 64}, {"time": 240, "pitch": 75, "duration": 12, "velocity": 64}, {"time": 252, "pitch": 72, "duration": 12, "velocity": 64}, {"time": 264, "pitch": 70, "duration": 6, "velocity": 64}, {"time": 270, "pitch": 67, "duration": 18, "velocity": 64}, {"time": 288, "pitch": 65, "duration": 18, "velocity": 64}, {"time": 306, "pitch": 63, "duration": 6, "velocity": 64}, {"time": 312, "pitch": 60, "duration": 24, "velocity": 64}, {"time": 336, "pitch": 63, "duration": 18, "velocity": 64}, {"time": 354, "pitch": 65, "duration": 6, "velocity": 64}, {"time": 360, "pitch": 63, "duration": 36, "velocity": 64}, {"time": 396, "pitch": 65, "duration": 12, "velocity": 64}, {"time": 408, "pitch": 67, "duration": 18, "velocity": 64}, {"time": 426, "pitch": 65, "duration": 6, "velocity": 64}, {"time": 432, "pitch": 67, "duration": 12, "velocity": 64}, {"time": 444, "pitch": 70, "duration": 12, "velocity": 64}, {"time": 456, "pitch": 67, "duration": 24, "velocity": 64}, {"time": 480, "pitch": 65, "duration": 12, "velocity": 64}, {"time": 492, "pitch": 63, "duration": 12, "velocity": 64}, {"time": 504, "pitch": 60, "duration": 18, "velocity": 64}, {"time": 522, "pitch": 58, "duration": 6, "velocity": 64}, {"time": 528, "pitch": 60, "duration": 12, "velocity": 64}, {"time": 540, "pitch": 63, "duration": 12, "velocity": 64}, {"time": 552, "pitch": 65, "duration": 24, "velocity": 64}, {"time": 576, "pitch": 67, "duration": 12, "velocity": 64}, {"time": 588, "pitch": 70, "duration": 12, "velocity": 64}, {"time": 600, "pitch": 72, "duration": 18, "velocity": 64}, {"time": 618, "pitch": 70, "duration": 6, "velocity": 64}, {"time": 624, "pitch": 72, "duration": 6, "velocity": 64}, {"time": 630, "pitch": 75, "duration": 18, "velocity": 64}, {"time": 648, "pitch": 70, "duration": 6, "velocity": 64}, {"time": 654, "pitch": 67, "duration": 18, "velocity": 64}, {"time": 672, "pitch": 65, "duration": 18, "velocity": 64}, {"time": 690, "pitch": 63, "duration": 6, "velocity": 64}, {"time": 696, "pitch": 60, "duration": 24, "velocity": 64}, {"time": 720, "pitch": 63, "duration": 18, "velocity": 64}, {"time": 738, "pitch": 65, "duration": 6, "velocity": 64}, {"time": 744, "pitch": 63, "duration": 24, "velocity": 64}, {"time": 768, "pitch": 67, "duration": 18, "velocity": 64}, {"time": 786, "pitch": 65, "duration": 6, "velocity": 64}, {"time": 792, "pitch": 63, "duration": 18, "velocity": 64}, {"time": 810, "pitch": 65, "duration": 6, "velocity": 64}, {"time": 816, "pitch": 67, "duration": 18, "velocity": 64}, {"time": 834, "pitch": 68, "duration": 6, "velocity": 64}, {"time": 840, "pitch": 70, "duration": 36, "velocity": 64}, {"time": 876, "pitch": 72, "duration": 12, "velocity": 64}, {"time": 888, "pitch": 70, "duration": 6, "velocity": 64}, {"time": 894, "pitch": 67, "duration": 18, "velocity": 64}, {"time": 912, "pitch": 65, "duration": 18, "velocity": 64}, {"time": 930, "pitch": 63, "duration": 6, "velocity": 64}, {"time": 936, "pitch": 70, "duration": 24, "velocity": 64}, {"time": 960, "pitch": 75, "duration": 12, "velocity": 64}, {"time": 972, "pitch": 74, "duration": 12, "velocity": 64}, {"time": 984, "pitch": 72, "duration": 18, "velocity": 64}, {"time": 1002, "pitch": 74, "duration": 6, "velocity": 64}, {"time": 1008, "pitch": 75, "duration": 12, "velocity": 64}, {"time": 1020, "pitch": 77, "duration": 12, "velocity": 64}, {"time": 1032, "pitch": 74, "duration": 24, "velocity": 64}, {"time": 1056, "pitch": 72, "duration": 12, "velocity": 64}, {"time": 1068, "pitch": 70, "duration": 12, "velocity": 64}, {"time": 1080, "pitch": 67, "duration": 24, "velocity": 64}, {"time": 1104, "pitch": 72, "duration": 18, "velocity": 64}, {"time": 1122, "pitch": 74, "duration": 6, "velocity": 64}, {"time": 1128, "pitch": 72, "duration": 36, "velocity": 64}, {"time": 1164, "pitch": 72, "duration": 12, "velocity": 64}, {"time": 1176, "pitch": 74, "duration": 12, "velocity": 64}, {"time": 1188, "pitch": 72, "duration": 12, "velocity": 64}, {"time": 1200, "pitch": 70, "duration": 12, "velocity": 64}, {"time": 1212, "pitch": 68, "duration": 12, "velocity": 64}, {"time": 1224, "pitch": 67, "duration": 24, "velocity": 64}, {"time": 1248, "pitch": 72, "duration": 24, "velocity": 64}, {"time": 1272, "pitch": 70, "duration": 6, "velocity": 64}, {"time": 1278, "pitch": 67, "duration": 18, "velocity": 64}, {"time": 1296, "pitch": 65, "duration": 12, "velocity": 64}, {"time": 1308, "pitch": 63, "duration": 12, "velocity": 64}, {"time": 1320, "pitch": 65, "duration": 24, "velocity": 64}, {"time": 1344, "pitch": 67, "duration": 12, "velocity": 64}, {"time": 1356, "pitch": 70, "duration": 12, "velocity": 64}, {"time": 1368, "pitch": 72, "duration": 12, "velocity": 64}, {"time": 1380, "pitch": 70, "duration": 12, "velocity": 64}, {"time": 1392, "pitch": 72, "duration": 12, "velocity": 64}, {"time": 1404, "pitch": 75, "duration": 12, "velocity": 64}, {"time": 1416, "pitch": 70, "duration": 12, "velocity": 64}, {"time": 1428, "pitch": 67, "duration": 12, "velocity": 64}, {"time": 1440, "pitch": 65, "duration": 12, "velocity": 64}, {"time": 1452, "pitch": 63, "duration": 12, "velocity": 64}, {"time": 1464, "pitch": 60, "duration": 24, "velocity": 64}, {"time": 1488, "pitch": 63, "duration": 18, "velocity": 64}, {"time": 1506, "pitch": 65, "duration": 6, "velocity": 64}, {"time": 1512, "pitch": 63, "duration": 24, "velocity": 64}]}]}