{"metadata": {"schema_version": "0.1", "title": "Esternowe, S. 60", "source_format": "abc"}, "resolution": 24, "tempos": [{"time": 0, "qpm": 120.0}], "key_signatures": [{"time": 0, "root": 0, "mode": "major", "fifths": 0}], "time_signatures": [{"time": 0, "numerator": 4, "denominator": 4}, {"time": 360, "numerator": 5, "denominator": 8}, {"time": 708, "numerator": 11, "denominator": 16}, {"time": 774, "numerator": 4, "denominator": 4}], "beats": [{"time": 0, "is_downbeat": true}, {"time": 12, "is_downbeat": false}, {"time": 24, "is_downbeat": false}, {"time": 36, "is_downbeat": false}, {"time": 48, "is_downbeat": false}, {"time": 60, "is_downbeat": true}, {"time": 72, "is_downbeat": true}, {"time": 84, "is_downbeat": false}, {"time": 96, "is_downbeat": false}, {"time": 108, "is_downbeat": false}, {"time": 120, "is_downbeat": false}, {"time": 132, "is_downbeat": true}, {"time": 144, "is_downbeat": false}, {"time": 156, "is_downbeat": false}, {"time": 168, "is_downbeat": true}, {"time": 180, "is_downbeat": false}, {"time": 192, "is_downbeat": false}, {"time": 204, "is_downbeat": false}, {"time": 216, "is_downbeat": false}, {"time": 228, "is_downbeat": true}, {"time": 240, "is_downbeat": false}, {"time": 252, "is_downbeat": false}, {"time": 264, "is_downbeat": true}, {"time": 276, "is_downbeat": false}, {"time": 288, "is_downbeat": false}, {"time": 300, "is_downbeat": false}, {"time": 312, "is_downbeat": false}, {"time": 324, "is_downbeat": true}, {"time": 336, "is_downbeat": false}, {"time": 348, "is_downbeat": false}, {"time": 360, "is_downbeat": true}, {"time": 366, "is_downbeat": false}, {"time": 372, "is_downbeat": false}, {"time": 378, "is_downbeat": false}, {"time": 384, "is_downbeat": false}, {"time": 390, "is_downbeat": false}, {"time": 396, "is_downbeat": false}, {"time": 402, "is_downbeat": false}, {"time": 408, "is_downbeat": false}, {"time": 414, "is_downbeat": false}, {"time": 420, "is_downbeat": true}, {"time": 426, "is_downbeat": false}, {"time": 432, "is_downbeat": false}, {"time": 438, "is_downbeat": false}, {"time": 444, "is_downbeat": false}, {"time": 450, "is_downbeat": false}, {"time": 456, "is_downbeat": false}, {"time": 462, "is_downbeat": false}, {"time": 468, "is_downbeat": false}, {"time": 474, "is_downbeat": false}, {"time": 480, "is_downbeat": false}, {"time": 486, "is_downbeat": true}, {"time": 492, "is_downbeat": false}, {"time": 498, "is_downbeat": false}, {"time": 504, "is_downbeat": false}, {"time": 510, "is_downbeat": false}, {"time": 516, "is_downbeat": true}, {"time": 522, "is_downbeat": false}, {"time": 528, "is_downbeat": false}, {"time": 534, "is_downbeat": false}, {"time": 540, "is_downbeat": false}, {"time": 546, "is_downbeat": false}, {"time": 552, "is_downbeat": false}, {"time": 558, "is_downbeat": false}, {"time": 564, "is_downbeat": false}, {"time": 570, "is_downbeat": false}, {"time": 576, "is_downbeat": false}, {"time": 582, "is_downbeat": true}, {"time": 588, "is_downbeat": false}, {"time": 594, "is_downbeat": false}, {"time": 600, "is_downbeat": false}, {"time": 606, "is_downbeat": false}, {"time": 612, "is_downbeat": true}, {"time": 618, "is_downbeat": false}, {"time": 624, "is_downbeat": false}, {"time": 630, "is_downbeat": false}, {"time": 636, "is_downbeat": false}, {"time": 642, "is_downbeat": false}, {"time": 648, "is_downbeat": false}, {"time": 654, "is_downbeat": false}, {"time": 660, "is_downbeat": false}, {"time": 666, "is_downbeat": false}, {"time": 672, "is_downbeat": false}, {"time": 678, "is_downbeat": true}, {"time": 684, "is_downbeat": false}, {"time": 690, "is_downbeat": false}, {"time": 696, "is_downbeat": false}, {"time": 702, "is_downbeat": false}, {"time": 708, "is_downbeat": true}, {"time": 732, "is_downbeat": false}, {"time": 756, "is_downbeat": false}, {"time": 774, "is_downbeat": true}, {"time": 798, "is_downbeat": false}, {"time": 822, "is_downbeat": false}, {"time": 846, "is_downbeat": false}, {"time": 870, "is_downbeat": true}, {"time": 894, "is_downbeat": false}, {"time": 918, "is_downbeat": false}, {"time": 942, "is_downbeat": false}, {"time": 966, "is_downbeat": true}, {"time": 990, "is_downbeat": false}, {"time": 1014, "is_downbeat": false}, {"time": 1038, "is_downbeat": false}, {"time": 1062, "is_downbeat": true}, {"time": 1086, "is_downbeat": false}, {"time": 1110, "is_downbeat": false}, {"time": 1134, "is_downbeat": true}, {"time": 1158, "is_downbeat": false}, {"time": 1182, "is_downbeat": false}, {"time": 1206, "is_downbeat": false}, {"time": 1230, "is_downbeat": true}, {"time": 1254, "is_downbeat": false}, {"time": 1278, "is_downbeat": false}, {"time": 1302, "is_downbeat": false}, {"time": 1326, "is_downbeat": true}, {"time": 1350, "is_downbeat": false}, {"time": 1374, "is_downbeat": false}, {"time": 1398, "is_downbeat": false}, {"time": 1422, "is_downbeat": true}, {"time": 1446, "is_downbeat": false}, {"time": 1470, "is_downbeat": false}, {"time": 1494, "is_downbeat": false}], "tracks": [{"program": 0, "is_drum": false, "notes": [{"time": 0, "pitch": 74, "duration": 12, "velocity": 64}, {"time": 12, "pitch": 72, "duration": 12, "velocity": 64}, {"time": 24, "pitch": 69, "duration": 24, "velocity": 64}, {"time": 48, "pitch": 67, "duration": 24, "velocity": 64}, {"time": 72, "pitch": 72, "duration": 24, "velocity": 64}, {"time": 96, "pitch": 69, "duration": 8, "velocity": 64}, {"time": 104, "pitch": 67, "duration": 8, "velocity": 64}, {"time": 112, "pitch": 64, "duration": 8, "velocity": 64}, {"time": 120, "pitch": 67, "duration": 36, "velocity": 64}, {"time": 156, "pitch": 64, "duration": 12, "velocity": 64}, {"time": 168, "pitch": 60, "duration": 24, "velocity": 64}, {"time": 192, "pitch": 67, "duration": 8, "velocity": 64}, {"time": 200, "pitch": 69, "duration": 8, "velocity": 64}, {"time": 208, "pitch": 71, "duration": 8, "velocity": 64}, {"time": 216, "pitch": 72, "duration": 24, "velocity": 64}, {"time": 240, "pitch": 67, "duration": 12, "velocity": 64}, {"time": 252, "pitch": 71, "duration": 12, "velocity": 64}, {"time": 264, "pitch": 69, "duration": 12, "velocity": 64}, {"time": 276, "pitch": 67, "duration": 12, "velocity": 64}, {"time": 288, "pitch": 64, "duration": 12, "velocity": 64}, {"time": 300, "pitch": 60, "duration": 12, "velocity": 64}, {"time": 312, "pitch": 62, "duration": 36, "velocity": 64}, {"time": 348, "pitch": 60, "duration": 12, "velocity": 64}, {"time": 360, "pitch": 64, "duration": 12, "velocity": 64}, {"time": 372, "pitch": 67, "duration": 24, "velocity": 64}, {"time": 396, "pitch": 67, "duration": 12, "velocity": 64}, {"time": 408, "pitch": 64, "duration": 12, "velocity": 64}, {"time": 420, "pitch": 67, "duration": 12, "velocity": 64}, {"time": 432, "pitch": 69, "duration": 12, "velocity": 64}, {"time": 444, "pitch": 72, "duration": 24, "velocity": 64}, {"time": 468, "pitch": 74, "duration": 24, "velocity": 64}, {"time": 492, "pitch": 76, "duration": 12, "velocity": 64}, {"time": 504, "pitch": 72, "duration": 6, "velocity": 64}, {"time": 510, "pitch": 74, "duration": 6, "velocity": 64}, {"time": 516, "pitch": 76, "duration": 24, "velocity": 64}, {"time": 540, "pitch": 76, "duration": 12, "velocity": 64}, {"time": 552, "pitch": 74, "duration": 12, "velocity": 64}, {"time": 564, "pitch": 72, "duration": 24, "velocity": 64}, {"time": 588, "pitch": 67, "duration": 24, "velocity": 64}, {"time": 612, "pitch": 69, "duration": 12, "velocity": 64}, {"time": 624, "pitch": 67, "duration": 12, "velocity": 64}, {"time": 636, "pitch": 64, "duration": 24, "velocity": 64}, {"time": 660, "pitch": 67, "duration": 24, "velocity": 64}, {"time": 684, "pitch": 69, "duration": 12, "velocity": 64}, {"time": 696, "pitch": 72, "duration": 6, "velocity": 64}, {"time": 702, "pitch": 60, "duration": 12, "velocity": 64}, {"time": 714, "pitch": 64, "duration": 12, "velocity": 64}, {"time": 726, "pitch": 67, "duration": 24, "velocity": 64}, {"time": 750, "pitch": 67, "duration": 12, "velocity": 64}, {"time": 762, "pitch": 64, "duration": 12, "velocity": 64}, {"time": 774, "pitch": 67, "duration": 12, "velocity": 64}, {"time": 786, "pitch": 69, "duration": 12, "velocity": 64}, {"time": 798, "pitch": 72, "duration": 24, "velocity": 64}, {"time": 822, "pitch": 74, "duration": 24, "velocity": 64}, {"time": 846, "pitch": 72, "duration": 12, "velocity": 64}, {"time": 858, "pitch": 74, "duration": 12, "velocity": 64}, {"time": 870, "pitch": 76, "duration": 24, "velocity": 64}, {"time": 894, "pitch": 76, "duration": 12, "velocity": 64}, {"time": 906, "pitch": 74, "duration": 12, "velocity": 64}, {"time": 918, "pitch": 72, "duration": 24, "velocity": 64}, {"time": 942, "pitch": 67, "duration": 24, "velocity": 64}, {"time": 966, "pitch": 69, "duration": 12, "velocity": 64}, {"time": 978, "pitch": 67, "duration": 12, "velocity": 64}, {"time": 990, "pitch": 64, "duration": 24, "velocity": 64}, {"time": 1014, "pitch": 67, "duration": 24, "velocity": 64}, {"time": 1038, "pitch": 69, "duration": 12, "velocity": 64}, {"time": 1050, "pitch": 72, "duration": 12, "velocity": 64}, {"time": 1062, "pitch": 74, "duration": 12, "velocity": 64}, {"time": 1074, "pitch": 72, "duration": 12, "velocity": 64}, {"time": 1086, "pitch": 69, "duration": 24, "velocity": 64}, {"time": 1110, "pitch": 67, "duration": 24, "velocity": 64}, {"time": 1134, "pitch": 72, "duration": 24, "velocity": 64}, {"time": 1158, "pitch": 69, "duration": 8, "velocity": 64}, {"time": 1166, "pitch": 67, "duration": 8, "velocity": 64}, {"time": 1174, "pitch": 64, "duration": 8, "velocity": 64}, {"time": 1182, "pitch": 67, "duration": 36, "velocity": 64}, {"time": 1218, "pitch": 64, "duration": 12, "velocity": 64}, {"time": 1230, "pitch": 60, "duration": 24, "velocity": 64}, {"time": 1254, "pitch": 67, "duration": 8, "velocity": 64}, {"time": 1262, "pitch": 69, "duration": 8, "velocity": 64}, {"time": 1270, "pitch": 71, "duration": 8, "velocity": 64}, {"time": 1278, "pitch": 72, "duration": 24, "velocity": 64}, {"time": 1302, "pitch": 67, "duration": 12, "velocity": 64}, {"time": 1314, "pitch": 71, "duration": 12, "velocity": 64}, {"time": 1326, "pitch": 69, "duration": 12, "velocity": 64}, {"time": 1338, "pitch": 67, "duration": 12, "velocity": 64}, {"time": 1350, "pitch": 64, "duration": 12, "velocity": 64}, {"time": 1362, "pitch": 60, "duration": 12, "velocity": 64}, {"time": 1374, "pitch": 62, "duration": 36, "velocity": 64}, {"time": 1410, "pitch": 60, "duration": 12, "velocity": 64}, {"time": 1422, "pitch": 60, "duration": 24, "velocity": 64}]}]}