{"metadata": {"schema_version": "0.1", "title": "Old Arboe", "source_format": "abc"}, "resolution": 24, "tempos": [{"time": 0, "qpm": 120.0}], "key_signatures": [{"time": 0, "root": 10, "mode": "major", "fifths": -2}], "time_signatures": [{"time": 0, "numerator": 6, "denominator": 4}], "beats": [{"time": 0, "is_downbeat": true}, {"time": 24, "is_downbeat": false}, {"time": 48, "is_downbeat": false}, {"time": 72, "is_downbeat": true}, {"time": 96, "is_downbeat": false}, {"time": 120, "is_downbeat": false}, {"time": 144, "is_downbeat": false}, {"time": 168, "is_downbeat": false}, {"time": 192, "is_downbeat": false}, {"time": 216, "is_downbeat": true}, {"time": 240, "is_downbeat": false}, {"time": 264, "is_downbeat": false}, {"time": 288, "is_downbeat": false}, {"time": 312, "is_downbeat": false}, {"time": 336, "is_downbeat": false}, {"time": 360, "is_downbeat": true}, {"time": 384, "is_downbeat": false}, {"time": 408, "is_downbeat": false}, {"time": 432, "is_downbeat": false}, {"time": 456, "is_downbeat": false}, {"time": 480, "is_downbeat": false}, {"time": 504, "is_downbeat": true}, {"time": 528, "is_downbeat": false}, {"time": 552, "is_downbeat": false}, {"time": 576, "is_downbeat": false}, {"time": 600, "is_downbeat": false}, {"time": 624, "is_downbeat": false}, {"time": 648, "is_downbeat": true}, {"time": 672, "is_downbeat": false}, {"time": 696, "is_downbeat": false}, {"time": 720, "is_downbeat": false}, {"time": 744, "is_downbeat": false}, {"time": 768, "is_downbeat": false}, {"time": 792, "is_downbeat": true}, {"time": 816, "is_downbeat": false}, {"time": 840, "is_downbeat": false}, {"time": 864, "is_downbeat": false}, {"time": 888, "is_downbeat": false}, {"time": 912, "is_downbeat": false}, {"time": 936, "is_downbeat": true}, {"time": 960, "is_downbeat": false}, {"time": 984, "is_downbeat": false}, {"time": 1008, "is_downbeat": false}, {"time": 1032, "is_downbeat": false}, {"time": 1056, "is_downbeat": false}, {"time": 1080, "is_downbeat": true}, {"time": 1104, "is_downbeat": false}, {"time": 1128, "is_downbeat": false}, {"time": 1152, "is_downbeat": false}, {"time": 1176, "is_downbeat": false}, {"time": 1200, "is_downbeat": false}, {"time": 1224, "is_downbeat": true}, {"time": 1248, "is_downbeat": false}, {"time": 1272, "is_downbeat": false}, {"time": 1296, "is_downbeat": false}, {"time": 1320, "is_downbeat": false}, {"time": 1344, "is_downbeat": false}, {"time": 1368, "is_downbeat": true}, {"time": 1392, "is_downbeat": false}, {"time": 1416, "is_downbeat": false}, {"time": 1440, "is_downbeat": false}, {"time": 1464, "is_downbeat": false}, {"time": 1488, "is_downbeat": false}, {"time": 1512, "is_downbeat": true}, {"time": 1536, "is_downbeat": false}, {"time": 1560, "is_downbeat": false}, {"time": 1584, "is_downbeat": false}, {"time": 1608, "is_downbeat": false}, {"time": 1632, "is_downbeat": false}, {"time": 1656, "is_downbeat": true}, {"time": 1680, "is_downbeat": false}, {"time": 1704, "is_downbeat": false}, {"time": 1728, "is_downbeat": false}, {"time": 1752, "is_downbeat": false}, {"time": 1776, "is_downbeat": false}, {"time": 1800, "is_downbeat": true}, {"time": 1824, "is_downbeat": false}, {"time": 1848, "is_downbeat": false}, {"time": 1872, "is_downbeat": false}, {"time": 1896, "is_downbeat": false}, {"time": 1920, "is_downbeat": false}, {"time": 1944, "is_downbeat": true}, {"time": 1968, "is_downbeat": false}, {"time": 1992, "is_downbeat": false}, {"time": 2016, "is_downbeat": false}, {"time": 2040, "is_downbeat": false}, {"time": 2064, "is_downbeat": false}, {"time": 2088, "is_downbeat": true}, {"time": 2112, "is_downbeat": false}, {"time": 2136, "is_downbeat": false}, {"time": 2160, "is_downbeat": false}, {"time": 2184, "is_downbeat": false}, {"time": 2208, "is_downbeat": false}, {"time": 2232, "is_downbeat": true}, {"time": 2256, "is_downbeat": false}, {"time": 2280, "is_downbeat": false}, {"time": 2304, "is_downbeat": false}, {"time": 2328, "is_downbeat": false}, {"time": 2352, "is_downbeat": false}], "tracks": [{"program": 0, "is_drum": false, "notes": [{"time": 0, "pitch": 65, "duration": 12, "velocity": 64}, {"time": 12, "pitch": 62, "duration": 12, "velocity": 64}, {"time": 24, "pitch": 58, "duration": 24, "velocity": 64}, {"time": 48, "pitch": 62, "duration": 12, "velocity": 64}, {"time": 60, "pitch": 63, "duration": 12, "velocity": 64}, {"time": 72, "pitch": 65, "duration": 36, "velocity": 64}, {"time": 108, "pitch": 67, "duration": 12, "velocity": 64}, {"time": 120, "pitch": 69, "duration": 24, "velocity": 64}, {"time": 144, "pitch": 70, "duration": 24, "velocity": 64}, {"time": 168, "pitch": 62, "duration": 24, "velocity": 64}, {"time": 192, "pitch": 58, "duration": 24, "velocity": 64}, {"time": 216, "pitch": 63, "duration": 36, "velocity": 64}, {"time": 252, "pitch": 60, "duration": 12, "velocity": 64}, {"time": 264, "pitch": 68, "duration": 24, "velocity": 64}, {"time": 288, "pitch": 58, "duration": 12, "velocity": 64}, {"time": 300, "pitch": 60, "duration": 12, "velocity": 64}, {"time": 312, "pitch": 62, "duration": 36, "velocity": 64}, {"time": 348, "pitch": 63, "duration": 12, "velocity": 64}, {"time": 360, "pitch": 65, "duration": 36, "velocity": 64}, {"time": 396, "pitch": 64, "duration": 12, "velocity": 64}, {"time": 408, "pitch": 67, "duration": 12, "velocity": 64}, {"time": 420, "pitch": 65, "duration": 12, "velocity": 64}, {"time": 432, "pitch": 63, "duration": 12, "velocity": 64}, {"time": 444, "pitch": 60, "duration": 12, "velocity": 64}, {"time": 456, "pitch": 58, "duration": 36, "velocity": 64}, {"time": 492, "pitch": 58, "duration": 12, "velocity": 64}, {"time": 504, "pitch": 58, "duration": 72, "velocity": 64}, {"time": 576, "pitch": 65, "duration": 12, "velocity": 64}, {"time": 588, "pitch": 62, "duration": 12, "velocity": 64}, {"time": 600, "pitch": 58, "duration": 24, "velocity": 64}, {"time": 624, "pitch": 62, "duration": 12, "velocity": 64}, {"time": 636, "pitch": 63, "duration": 12, "velocity": 64}, {"time": 648, "pitch": 65, "duration": 36, "velocity": 64}, {"time": 684, "pitch": 67, "duration": 12, "velocity": 64}, {"time": 696, "pitch": 69, "duration": 24, "velocity": 64}, {"time": 720, "pitch": 70, "duration": 24, "velocity": 64}, {"time": 744, "pitch": 62, "duration": 24, "velocity": 64}, {"time": 768, "pitch": 58, "duration": 24, "velocity": 64}, {"time": 792, "pitch": 63, "duration": 36, "velocity": 64}, {"time": 828, "pitch": 60, "duration": 12, "velocity": 64}, {"time": 840, "pitch": 68, "duration": 24, "velocity": 64}, {"time": 864, "pitch": 58, "duration": 12, "velocity": 64}, {"time": 876, "pitch": 60, "duration": 12, "velocity": 64}, {"time": 888, "pitch": 62, "duration": 36, "velocity": 64}, {"time": 924, "pitch": 63, "duration": 12, "velocity": 64}, {"time": 936, "pitch": 65, "duration": 36, "velocity": 64}, {"time": 972, "pitch": 64, "duration": 12, "velocity": 64}, {"time": 984, "pitch": 67, "duration": 12, "velocity": 64}, {"time": 996, "pitch": 65, "duration": 12, "velocity": 64}, {"time": 1008, "pitch": 63, "duration": 12, "velocity": 64}, {"time": 1020, "pitch": 60, "duration": 12, "velocity": 64}, {"time": 1032, "pitch": 58, "duration": 36, "velocity": 64}, {"time": 1068, "pitch": 58, "duration": 12, "velocity": 64}, {"time": 1080, "pitch": 58, "duration": 72, "velocity": 64}, {"time": 1152, "pitch": 65, "duration": 24, "velocity": 64}, {"time": 1176, "pitch": 70, "duration": 24, "velocity": 64}, {"time": 1200, "pitch": 72, "duration": 24, "velocity": 64}, {"time": 1224, "pitch": 74, "duration": 48, "velocity": 64}, {"time": 1272, "pitch": 75, "duration": 12, "velocity": 64}, {"time": 1284, "pitch": 74, "duration": 12, "velocity": 64}, {"time": 1296, "pitch": 72, "duration": 12, "velocity": 64}, {"time": 1308, "pitch": 69, "duration": 12, "velocity": 64}, {"time": 1320, "pitch": 65, "duration": 24, "velocity": 64}, {"time": 1344, "pitch": 67, "duration": 12, "velocity": 64}, {"time": 1356, "pitch": 69, "duration": 12, "velocity": 64}, {"time": 1368, "pitch": 70, "duration": 36, "velocity": 64}, {"time": 1404, "pitch": 69, "duration": 12, "velocity": 64}, {"time": 1416, "pitch": 65, "duration": 36, "velocity": 64}, {"time": 1452, "pitch": 65, "duration": 12, "velocity": 64}, {"time": 1464, "pitch": 70, "duration": 24, "velocity": 64}, {"time": 1488, "pitch": 72, "duration": 24, "velocity": 64}, {"time": 1512, "pitch": 74, "duration": 48, "velocity": 64}, {"time": 1560, "pitch": 75, "duration": 12, "velocity": 64}, {"time": 1572, "pitch": 74, "duration": 12, "velocity": 64}, {"time": 1584, "pitch": 72, "duration": 12, "velocity": 64}, {"time": 1596, "pitch": 69, "duration": 12, "velocity": 64}, {"time": 1608, "pitch": 65, "duration": 24, "velocity": 64}, {"time": 1632, "pitch": 67, "duration": 12, "velocity": 64}, {"time": 1644, "pitch": 69, "duration": 12, "velocity": 64}, {"time": 1656, "pitch": 70, "duration": 72, "velocity": 64}, {"time": 1728, "pitch": 69, "duration": 12, "velocity": 64}, {"time": 1740, "pitch": 70, "duration": 12, "velocity": 64}, {"time": 1752, "pitch": 72, "duration": 24, "velocity": 64}, {"time": 1776, "pitch": 65, "duration": 24, "velocity": 64}, {"time": 1800, "pitch": 70, "duration": 24, "velocity": 64}, {"time": 1824, "pitch": 68, "duration": 48, "velocity": 64}, {"time": 1872, "pitch": 65, "duration": 12, "velocity": 64}, {"time": 1884, "pitch": 63, "duration": 12, "velocity": 64}, {"time": 1896, "pitch": 62, "duration": 24, "velocity": 64}, {"time": 1920, "pitch": 58, "duration": 24, "velocity": 64}, {"time": 1944, "pitch": 63, "duration": 36, "velocity": 64}, {"time": 1980, "pitch": 60, "duration": 12, "velocity": 64}, {"time": 1992, "pitch": 68, "duration": 24, "velocity": 64}, {"time": 2016, "pitch": 58, "duration": 12, "velocity": 64}, {"time": 2028, "pitch": 60, "duration": 12, "velocity": 64}, {"time": 2040, "pitch": 62, "duration": 36, "velocity": 64}, {"time": 2076, "pitch": 63, "duration": 12, "velocity": 64}, {"time": 2088, "pitch": 65, "duration": 36, "velocity": 64}, {"time": 2124, "pitch": 64, "duration": 12, "velocity": 64}, {"time": 2136, "pitch": 67, "duration": 12, "velocity": 64}, {"time": 2148, "pitch": 65, "duration": 12, "velocity": 64}, {"time": 2160, "pitch": 63, "duration": 12, "velocity": 64}, {"time": 2172, "pitch": 60, "duration": 12, "velocity": 64}, {"time": 2184, "pitch": 58, "duration": 36, "velocity": 64}, {"time": 2220, "pitch": 58, "duration": 12, "velocity": 64}, {"time": 2232, "pitch": 58, "duration": 72, "velocity": 64}]}]}