{"metadata": {"schema_version": "0.1", "title": "What brought the blood?, S. 90", "source_format": "abc"}, "resolution": 24, "tempos": [{"time": 0, "qpm": 120.0}], "key_signatures": [{"time": 0, "root": 7, "mode": "major", "fifths": 1}], "time_signatures": [{"time": 0, "numerator": 4, "denominator": 4}], "beats": [{"time": 0, "is_downbeat": true}, {"time": 24, "is_downbeat": false}, {"time": 48, "is_downbeat": false}, {"time": 72, "is_downbeat": false}, {"time": 96, "is_downbeat": true}, {"time": 120, "is_downbeat": false}, {"time": 144, "is_downbeat": false}, {"time": 168, "is_downbeat": false}, {"time": 192, "is_downbeat": true}, {"time": 216, "is_downbeat": false}, {"time": 240, "is_downbeat": false}, {"time": 264, "is_downbeat": false}, {"time": 288, "is_downbeat": true}, {"time": 312, "is_downbeat": false}, {"time": 336, "is_downbeat": false}, {"time": 360, "is_downbeat": false}, {"time": 384, "is_downbeat": true}, {"time": 408, "is_downbeat": false}, {"time": 432, "is_downbeat": false}, {"time": 456, "is_downbeat": false}, {"time": 480, "is_downbeat": true}, {"time": 504, "is_downbeat": false}, {"time": 528, "is_downbeat": false}, {"time": 552, "is_downbeat": false}, {"time": 576, "is_downbeat": true}, {"time": 600, "is_downbeat": false}, {"time": 624, "is_downbeat": false}, {"time": 648, "is_downbeat": false}, {"time": 672, "is_downbeat": true}, {"time": 696, "is_downbeat": false}, {"time": 720, "is_downbeat": false}, {"time": 744, "is_downbeat": false}, {"time": 768, "is_downbeat": true}, {"time": 792, "is_downbeat": false}, {"time": 816, "is_downbeat": false}, {"time": 840, "is_downbeat": false}, {"time": 864, "is_downbeat": true}, {"time": 888, "is_downbeat": false}, {"time": 912, "is_downbeat": false}, {"time": 936, "is_downbeat": false}], "tracks": [{"program": 0, "is_drum": false, "notes": [{"time": 0, "pitch": 67, "duration": 24, "velocity": 64}, {"time": 24, "pitch": 67, "duration": 18, "velocity": 64}, {"time": 42, "pitch": 65, "duration": 6, "velocity": 64}, {"time": 48, "pitch": 67, "duration": 18, "velocity": 64}, {"time": 66, "pitch": 69, "duration": 6, "velocity": 64}, {"time": 72, "pitch": 70, "duration": 18, "velocity": 64}, {"time": 90, "pitch": 67, "duration": 6, "velocity": 64}, {"time": 96, "pitch": 69, "duration": 18, "velocity": 64}, {"time": 114, "pitch": 65, "duration": 6, "velocity": 64}, {"time": 120, "pitch": 62, "duration": 18, "velocity": 64}, {"time": 138, "pitch": 64, "duration": 6, "velocity": 64}, {"time": 144, "pitch": 66, "duration": 48, "velocity": 64}, {"time": 192, "pitch": 74, "duration": 36, "velocity": 64}, {"time": 228, "pitch": 74, "duration": 12, "velocity": 64}, {"time": 240, "pitch": 72, "duration": 6, "velocity": 64}, {"time": 246, "pitch": 69, "duration": 18, "velocity": 64}, {"time": 264, "pitch": 66, "duration": 18, "velocity": 64}, {"time": 282, "pitch": 69, "duration": 6, "velocity": 64}, {"time": 288, "pitch": 72, "duration": 72, "velocity": 64}, {"time": 360, "pitch": 70, "duration": 12, "velocity": 64}, {"time": 372, "pitch": 72, "duration": 12, "velocity": 64}, {"time": 384, "pitch": 74, "duration": 24, "velocity": 64}, {"time": 408, "pitch": 74, "duration": 18, "velocity": 64}, {"time": 426, "pitch": 74, "duration": 6, "velocity": 64}, {"time": 432, "pitch": 72, "duration": 24, "velocity": 64}, {"time": 456, "pitch": 74, "duration": 12, "velocity": 64}, {"time": 468, "pitch": 74, "duration": 12, "velocity": 64}, {"time": 480, "pitch": 67, "duration": 24, "velocity": 64}, {"time": 504, "pitch": 67, "duration": 6, "velocity": 64}, {"time": 510, "pitch": 69, "duration": 6, "velocity": 64}, {"time": 516, "pitch": 67, "duration": 6, "velocity": 64}, {"time": 522, "pitch": 65, "duration": 6, "velocity": 64}, {"time": 528, "pitch": 62, "duration": 18, "velocity": 64}, {"time": 546, "pitch": 60, "duration": 6, "velocity": 64}, {"time": 552, "pitch": 62, "duration": 12, "velocity": 64}, {"time": 564, "pitch": 66, "duration": 12, "velocity": 64}, {"time": 576, "pitch": 67, "duration": 24, "velocity": 64}, {"time": 600, "pitch": 67, "duration": 24, "velocity": 64}, {"time": 624, "pitch": 65, "duration": 24, "velocity": 64}, {"time": 648, "pitch": 72, "duration": 24, "velocity": 64}, {"time": 672, "pitch": 70, "duration": 30, "velocity": 64}, {"time": 696, "pitch": 71, "duration": 6, "velocity": 64}, {"time": 702, "pitch": 72, "duration": 6, "velocity": 64}, {"time": 714, "pitch": 67, "duration": 12, "velocity": 64}, {"time": 726, "pitch": 69, "duration": 18, "velocity": 64}, {"time": 744, "pitch": 71, "duration": 18, "velocity": 64}, {"time": 762, "pitch": 69, "duration": 6, "velocity": 64}, {"time": 768, "pitch": 67, "duration": 24, "velocity": 64}, {"time": 792, "pitch": 67, "duration": 18, "velocity": 64}, {"time": 810, "pitch": 65, "duration": 6, "velocity": 64}, {"time": 816, "pitch": 62, "duration": 12, "velocity": 64}, {"time": 828, "pitch": 60, "duration": 12, "velocity": 64}, {"time": 840, "pitch": 62, "duration": 12, "velocity": 64}, {"time": 852, "pitch": 66, "duration": 12, "velocity": 64}, {"time": 864, "pitch": 67, "duration": 72, "velocity": 64}]}]}