{"metadata": {"schema_version": "0.1", "title": "The Rambling Boys of Pleasure, S. 84", "source_format": "abc"}, "resolution": 24, "tempos": [{"time": 0, "qpm": 120.0}], "key_signatures": [{"time": 0, "root": 2, "mode": "major", "fifths": 2}], "time_signatures": [{"time": 0, "numerator": 4, "denominator": 4}], "beats": [{"time": 0, "is_downbeat": true}, {"time": 24, "is_downbeat": true}, {"time": 48, "is_downbeat": false}, {"time": 72, "is_downbeat": false}, {"time": 96, "is_downbeat": false}, {"time": 120, "is_downbeat": true}, {"time": 144, "is_downbeat": false}, {"time": 168, "is_downbeat": false}, {"time": 192, "is_downbeat": false}, {"time": 216, "is_downbeat": true}, {"time": 240, "is_downbeat": false}, {"time": 264, "is_downbeat": false}, {"time": 288, "is_downbeat": false}, {"time": 312, "is_downbeat": true}, {"time": 336, "is_downbeat": false}, {"time": 360, "is_downbeat": false}, {"time": 384, "is_downbeat": false}, {"time": 408, "is_downbeat": true}, {"time": 432, "is_downbeat": false}, {"time": 456, "is_downbeat": false}, {"time": 480, "is_downbeat": false}, {"time": 504, "is_downbeat": true}, {"time": 528, "is_downbeat": false}, {"time": 552, "is_downbeat": false}, {"time": 576, "is_downbeat": false}, {"time": 600, "is_downbeat": true}, {"time": 624, "is_downbeat": false}, {"time": 648, "is_downbeat": false}, {"time": 672, "is_downbeat": false}, {"time": 696, "is_downbeat": true}, {"time": 720, "is_downbeat": false}, {"time": 744, "is_downbeat": false}, {"time": 756, "is_downbeat": true}, {"time": 780, "is_downbeat": false}, {"time": 804, "is_downbeat": false}, {"time": 828, "is_downbeat": false}, {"time": 852, "is_downbeat": true}, {"time": 876, "is_downbeat": false}, {"time": 900, "is_downbeat": false}, {"time": 924, "is_downbeat": false}, {"time": 948, "is_downbeat": true}, {"time": 972, "is_downbeat": false}, {"time": 996, "is_downbeat": false}, {"time": 1020, "is_downbeat": false}, {"time": 1044, "is_downbeat": true}, {"time": 1068, "is_downbeat": false}, {"time": 1092, "is_downbeat": false}, {"time": 1116, "is_downbeat": false}, {"time": 1122, "is_downbeat": true}, {"time": 1146, "is_downbeat": false}, {"time": 1170, "is_downbeat": false}, {"time": 1194, "is_downbeat": false}, {"time": 1218, "is_downbeat": true}, {"time": 1242, "is_downbeat": false}, {"time": 1266, "is_downbeat": false}, {"time": 1290, "is_downbeat": false}, {"time": 1314, "is_downbeat": true}, {"time": 1338, "is_downbeat": false}, {"time": 1362, "is_downbeat": false}, {"time": 1386, "is_downbeat": false}, {"time": 1410, "is_downbeat": true}, {"time": 1434, "is_downbeat": false}, {"time": 1458, "is_downbeat": false}, {"time": 1482, "is_downbeat": false}], "tracks": [{"program": 0, "is_drum": false, "notes": [{"time": 0, "pitch": 69, "duration": 12, "velocity": 64}, {"time": 12, "pitch": 66, "duration": 12, "velocity": 64}, {"time": 24, "pitch": 62, "duration": 36, "velocity": 64}, {"time": 60, "pitch": 62, "duration": 12, "velocity": 64}, {"time": 72, "pitch": 62, "duration": 12, "velocity": 64}, {"time": 84, "pitch": 66, "duration": 12, "velocity": 64}, {"time": 96, "pitch": 69, "duration": 24, "velocity": 64}, {"time": 120, "pitch": 74, "duration": 36, "velocity": 64}, {"time": 156, "pitch": 69, "duration": 12, "velocity": 64}, {"time": 168, "pitch": 67, "duration": 36, "velocity": 64}, {"time": 204, "pitch": 69, "duration": 12, "velocity": 64}, {"time": 216, "pitch": 66, "duration": 36, "velocity": 64}, {"time": 252, "pitch": 69, "duration": 12, "velocity": 64}, {"time": 264, "pitch": 67, "duration": 12, "velocity": 64}, {"time": 276, "pitch": 64, "duration": 12, "velocity": 64}, {"time": 288, "pitch": 62, "duration": 12, "velocity": 64}, {"time": 300, "pitch": 61, "duration": 12, "velocity": 64}, {"time": 312, "pitch": 62, "duration": 36, "velocity": 64}, {"time": 348, "pitch": 62, "duration": 12, "velocity": 64}, {"time": 360, "pitch": 62, "duration": 24, "velocity": 64}, {"time": 384, "pitch": 73, "duration": 12, "velocity": 64}, {"time": 396, "pitch": 74, "duration": 12, "velocity": 64}, {"time": 408, "pitch": 76, "duration": 36, "velocity": 64}, {"time": 444, "pitch": 73, "duration": 12, "velocity": 64}, {"time": 456, "pitch": 69, "duration": 24, "velocity": 64}, {"time": 480, "pitch": 73, "duration": 12, "velocity": 64}, {"time": 492, "pitch": 76, "duration": 12, "velocity": 64}, {"time": 504, "pitch": 74, "duration": 36, "velocity": 64}, {"time": 540, "pitch": 76, "duration": 12, "velocity": 64}, {"time": 552, "pitch": 73, "duration": 12, "velocity": 64}, {"time": 564, "pitch": 69, "duration": 12, "velocity": 64}, {"time": 576, "pitch": 66, "duration": 12, "velocity": 64}, {"time": 588, "pitch": 69, "duration": 12, "velocity": 64}, {"time": 600, "pitch": 71, "duration": 36, "velocity": 64}, {"time": 636, "pitch": 73, "duration": 12, "velocity": 64}, {"time": 648, "pitch": 74, "duration": 12, "velocity": 64}, {"time": 660, "pitch": 71, "duration": 12, "velocity": 64}, {"time": 672, "pitch": 69, "duration": 12, "velocity": 64}, {"time": 684, "pitch": 66, "duration": 12, "velocity": 64}, {"time": 696, "pitch": 69, "duration": 24, "velocity": 64}, {"time": 720, "pitch": 71, "duration": 12, "velocity": 64}, {"time": 732, "pitch": 74, "duration": 12, "velocity": 64}, {"time": 744, "pitch": 74, "duration": 12, "velocity": 64}, {"time": 756, "pitch": 76, "duration": 36, "velocity": 64}, {"time": 792, "pitch": 73, "duration": 12, "velocity": 64}, {"time": 804, "pitch": 69, "duration": 24, "velocity": 64}, {"time": 828, "pitch": 73, "duration": 12, "velocity": 64}, {"time": 840, "pitch": 76, "duration": 12, "velocity": 64}, {"time": 852, "pitch": 74, "duration": 36, "velocity": 64}, {"time": 888, "pitch": 76, "duration": 12, "velocity": 64}, {"time": 900, "pitch": 73, "duration": 12, "velocity": 64}, {"time": 912, "pitch": 69, "duration": 12, "velocity": 64}, {"time": 924, "pitch": 66, "duration": 12, "velocity": 64}, {"time": 936, "pitch": 69, "duration": 12, "velocity": 64}, {"time": 948, "pitch": 71, "duration": 36, "velocity": 64}, {"time": 984, "pitch": 73, "duration": 12, "velocity": 64}, {"time": 996, "pitch": 74, "duration": 12, "velocity": 64}, {"time": 1008, "pitch": 71, "duration": 12, "velocity": 64}, {"time": 1020, "pitch": 69, "duration": 12, "velocity": 64}, {"time": 1032, "pitch": 66, "duration": 12, "velocity": 64}, {"time": 1044, "pitch": 69, "duration": 24, "velocity": 64}, {"time": 1068, "pitch": 71, "duration": 12, "velocity": 64}, {"time": 1080, "pitch": 74, "duration": 12, "velocity": 64}, {"time": 1092, "pitch": 74, "duration": 6, "velocity": 64}, {"time": 1098, "pitch": 66, "duration": 12, "velocity": 64}, {"time": 1110, "pitch": 64, "duration": 12, "velocity": 64}, {"time": 1122, "pitch": 62, "duration": 36, "velocity": 64}, {"time": 1158, "pitch": 62, "duration": 12, "velocity": 64}, {"time": 1170, "pitch": 62, "duration": 12, "velocity": 64}, {"time": 1182, "pitch": 66, "duration": 12, "velocity": 64}, {"time": 1194, "pitch": 69, "duration": 24, "velocity": 64}, {"time": 1218, "pitch": 74, "duration": 36, "velocity": 64}, {"time": 1254, "pitch": 69, "duration": 12, "velocity": 64}, {"time": 1266, "pitch": 67, "duration": 36, "velocity": 64}, {"time": 1302, "pitch": 69, "duration": 6, "velocity": 64}, {"time": 1308, "pitch": 67, "duration": 6, "velocity": 64}, {"time": 1314, "pitch": 66, "duration": 36, "velocity": 64}, {"time": 1350, "pitch": 69, "duration": 12, "velocity": 64}, {"time": 1362, "pitch": 67, "duration": 12, "velocity": 64}, {"time": 1374, "pitch": 64, "duration": 12, "velocity": 64}, {"time": 1386, "pitch": 62, "duration": 12, "velocity": 64}, {"time": 1398, "pitch": 61, "duration": 12, "velocity": 64}, {"time": 1410, "pitch": 62, "duration": 36, "velocity": 64}, {"time": 1446, "pitch": 62, "duration": 12, "velocity": 64}, {"time": 1458, "pitch": 62, "duration": 24, "velocity": 64}]}]}