{"metadata": {"schema_version": "0.1", "title": "Éamonn an chnuic, S.150", "source_format": "abc"}, "resolution": 24, "tempos": [{"time": 0, "qpm": 120.0}], "key_signatures": [{"time": 0, "root": 4, "mode": "major", "fifths": 4}], "time_signatures": [{"time": 0, "numerator": 4, "denominator": 4}], "beats": [{"time": 0, "is_downbeat": true}, {"time": 24, "is_downbeat": true}, {"time": 48, "is_downbeat": false}, {"time": 72, "is_downbeat": false}, {"time": 96, "is_downbeat": false}, {"time": 120, "is_downbeat": true}, {"time": 144, "is_downbeat": false}, {"time": 168, "is_downbeat": false}, {"time": 192, "is_downbeat": false}, {"time": 216, "is_downbeat": true}, {"time": 240, "is_downbeat": false}, {"time": 264, "is_downbeat": false}, {"time": 288, "is_downbeat": false}, {"time": 312, "is_downbeat": true}, {"time": 336, "is_downbeat": false}, {"time": 360, "is_downbeat": false}, {"time": 384, "is_downbeat": false}, {"time": 408, "is_downbeat": true}, {"time": 432, "is_downbeat": false}, {"time": 456, "is_downbeat": false}, {"time": 480, "is_downbeat": false}, {"time": 504, "is_downbeat": true}, {"time": 528, "is_downbeat": false}, {"time": 552, "is_downbeat": false}, {"time": 576, "is_downbeat": false}, {"time": 600, "is_downbeat": true}, {"time": 624, "is_downbeat": false}, {"time": 648, "is_downbeat": false}, {"time": 672, "is_downbeat": false}, {"time": 696, "is_downbeat": true}, {"time": 720, "is_downbeat": false}, {"time": 744, "is_downbeat": false}, {"time": 768, "is_downbeat": false}, {"time": 792, "is_downbeat": true}, {"time": 816, "is_downbeat": false}, {"time": 840, "is_downbeat": false}, {"time": 864, "is_downbeat": false}, {"time": 888, "is_downbeat": true}, {"time": 912, "is_downbeat": false}, {"time": 936, "is_downbeat": false}, {"time": 960, "is_downbeat": false}, {"time": 984, "is_downbeat": true}, {"time": 1008, "is_downbeat": false}, {"time": 1032, "is_downbeat": false}, {"time": 1056, "is_downbeat": false}, {"time": 1080, "is_downbeat": true}, {"time": 1104, "is_downbeat": false}, {"time": 1110, "is_downbeat": true}, {"time": 1134, "is_downbeat": false}, {"time": 1158, "is_downbeat": false}, {"time": 1182, "is_downbeat": false}, {"time": 1206, "is_downbeat": true}, {"time": 1230, "is_downbeat": false}, {"time": 1254, "is_downbeat": false}, {"time": 1278, "is_downbeat": false}, {"time": 1302, "is_downbeat": true}, {"time": 1326, "is_downbeat": false}, {"time": 1350, "is_downbeat": false}, {"time": 1374, "is_downbeat": false}, {"time": 1398, "is_downbeat": true}, {"time": 1422, "is_downbeat": false}, {"time": 1446, "is_downbeat": false}, {"time": 1470, "is_downbeat": false}], "tracks": [{"program": 0, "is_drum": false, "notes": [{"time": 0, "pitch": 59, "duration": 12, "velocity": 64}, {"time": 12, "pitch": 61, "duration": 12, "velocity": 64}, {"time": 24, "pitch": 64, "duration": 18, "velocity": 64}, {"time": 42, "pitch": 66, "duration": 6, "velocity": 64}, {"time": 48, "pitch": 68, "duration": 12, "velocity": 64}, {"time": 60, "pitch": 66, "duration": 12, "velocity": 64}, {"time": 72, "pitch": 64, "duration": 24, "velocity": 64}, {"time": 96, "pitch": 64, "duration": 12, "velocity": 64}, {"time": 108, "pitch": 66, "duration": 12, "velocity": 64}, {"time": 120, "pitch": 68, "duration": 12, "velocity": 64}, {"time": 132, "pitch": 76, "duration": 12, "velocity": 64}, {"time": 144, "pitch": 75, "duration": 12, "velocity": 64}, {"time": 156, "pitch": 71, "duration": 12, "velocity": 64}, {"time": 168, "pitch": 73, "duration": 24, "velocity": 64}, {"time": 192, "pitch": 71, "duration": 12, "velocity": 64}, {"time": 204, "pitch": 68, "duration": 12, "velocity": 64}, {"time": 216, "pitch": 66, "duration": 24, "velocity": 64}, {"time": 240, "pitch": 68, "duration": 12, "velocity": 64}, {"time": 252, "pitch": 64, "duration": 12, "velocity": 64}, {"time": 264, "pitch": 66, "duration": 36, "velocity": 64}, {"time": 300, "pitch": 64, "duration": 12, "velocity": 64}, {"time": 312, "pitch": 64, "duration": 48, "velocity": 64}, {"time": 360, "pitch": 64, "duration": 24, "velocity": 64}, {"time": 384, "pitch": 59, "duration": 18, "velocity": 64}, {"time": 402, "pitch": 61, "duration": 6, "velocity": 64}, {"time": 408, "pitch": 64, "duration": 18, "velocity": 64}, {"time": 426, "pitch": 66, "duration": 6, "velocity": 64}, {"time": 432, "pitch": 68, "duration": 12, "velocity": 64}, {"time": 444, "pitch": 66, "duration": 12, "velocity": 64}, {"time": 456, "pitch": 64, "duration": 36, "velocity": 64}, {"time": 492, "pitch": 66, "duration": 12, "velocity": 64}, {"time": 504, "pitch": 68, "duration": 12, "velocity": 64}, {"time": 516, "pitch": 76, "duration": 12, "velocity": 64}, {"time": 528, "pitch": 75, "duration": 12, "velocity": 64}, {"time": 540, "pitch": 71, "duration": 12, "velocity": 64}, {"time": 552, "pitch": 73, "duration": 24, "velocity": 64}, {"time": 576, "pitch": 71, "duration": 12, "velocity": 64}, {"time": 588, "pitch": 68, "duration": 12, "velocity": 64}, {"time": 600, "pitch": 66, "duration": 18, "velocity": 64}, {"time": 618, "pitch": 68, "duration": 6, "velocity": 64}, {"time": 624, "pitch": 71, "duration": 18, "velocity": 64}, {"time": 642, "pitch": 68, "duration": 6, "velocity": 64}, {"time": 648, "pitch": 66, "duration": 36, "velocity": 64}, {"time": 684, "pitch": 64, "duration": 12, "velocity": 64}, {"time": 696, "pitch": 64, "duration": 48, "velocity": 64}, {"time": 744, "pitch": 64, "duration": 24, "velocity": 64}, {"time": 768, "pitch": 71, "duration": 8, "velocity": 64}, {"time": 776, "pitch": 73, "duration": 8, "velocity": 64}, {"time": 784, "pitch": 75, "duration": 8, "velocity": 64}, {"time": 792, "pitch": 76, "duration": 18, "velocity": 64}, {"time": 810, "pitch": 75, "duration": 6, "velocity": 64}, {"time": 816, "pitch": 73, "duration": 12, "velocity": 64}, {"time": 828, "pitch": 71, "duration": 12, "velocity": 64}, {"time": 840, "pitch": 78, "duration": 24, "velocity": 64}, {"time": 864, "pitch": 76, "duration": 12, "velocity": 64}, {"time": 876, "pitch": 76, "duration": 12, "velocity": 64}, {"time": 888, "pitch": 75, "duration": 24, "velocity": 64}, {"time": 912, "pitch": 73, "duration": 18, "velocity": 64}, {"time": 930, "pitch": 71, "duration": 6, "velocity": 64}, {"time": 936, "pitch": 71, "duration": 24, "velocity": 64}, {"time": 960, "pitch": 76, "duration": 12, "velocity": 64}, {"time": 972, "pitch": 75, "duration": 12, "velocity": 64}, {"time": 984, "pitch": 73, "duration": 12, "velocity": 64}, {"time": 996, "pitch": 71, "duration": 12, "velocity": 64}, {"time": 1008, "pitch": 68, "duration": 12, "velocity": 64}, {"time": 1020, "pitch": 66, "duration": 12, "velocity": 64}, {"time": 1032, "pitch": 64, "duration": 18, "velocity": 64}, {"time": 1050, "pitch": 66, "duration": 6, "velocity": 64}, {"time": 1056, "pitch": 68, "duration": 12, "velocity": 64}, {"time": 1068, "pitch": 71, "duration": 12, "velocity": 64}, {"time": 1080, "pitch": 73, "duration": 6, "velocity": 64}, {"time": 1086, "pitch": 59, "duration": 12, "velocity": 64}, {"time": 1098, "pitch": 61, "duration": 12, "velocity": 64}, {"time": 1110, "pitch": 64, "duration": 18, "velocity": 64}, {"time": 1128, "pitch": 66, "duration": 6, "velocity": 64}, {"time": 1134, "pitch": 68, "duration": 12, "velocity": 64}, {"time": 1146, "pitch": 66, "duration": 12, "velocity": 64}, {"time": 1158, "pitch": 64, "duration": 24, "velocity": 64}, {"time": 1182, "pitch": 64, "duration": 12, "velocity": 64}, {"time": 1194, "pitch": 66, "duration": 12, "velocity": 64}, {"time": 1206, "pitch": 68, "duration": 12, "velocity": 64}, {"time": 1218, "pitch": 76, "duration": 12, "velocity": 64}, {"time": 1230, "pitch": 75, "duration": 12, "velocity": 64}, {"time": 1242, "pitch": 71, "duration": 12, "velocity": 64}, {"time": 1254, "pitch": 73, "duration": 24, "velocity": 64}, {"time": 1278, "pitch": 71, "duration": 12, "velocity": 64}, {"time": 1290, "pitch": 68, "duration": 12, "velocity": 64}, {"time": 1302, "pitch": 66, "duration": 18, "velocity": 64}, {"time": 1320, "pitch": 68, "duration": 6, "velocity": 64}, {"time": 1326, "pitch": 71, "duration": 12, "velocity": 64}, {"time": 1338, "pitch": 68, "duration": 12, "velocity": 64}, {"time": 1350, "pitch": 66, "duration": 36, "velocity": 64}, {"time": 1386, "pitch": 64, "duration": 12, "velocity": 64}, {"time": 1398, "pitch": 64, "duration": 48, "velocity": 64}, {"time": 1446, "pitch": 64, "duration": 24, "velocity": 64}]}]}