{"metadata": {"schema_version": "0.1", "title": "Die Flucht nach gypten (Band 1), S. 23", "source_format": "abc"}, "resolution": 24, "tempos": [{"time": 0, "qpm": 120.0}], "key_signatures": [{"time": 0, "root": 9, "mode": "major", "fifths": 3}], "time_signatures": [{"time": 0, "numerator": 4, "denominator": 4}], "tracks": [{"program": 0, "is_drum": false, "notes": [{"time": 0, "pitch": 64, "duration": 12, "velocity": 64}, {"time": 12, "pitch": 69, "duration": 12, "velocity": 64}, {"time": 24, "pitch": 67, "duration": 12, "velocity": 64}, {"time": 36, "pitch": 69, "duration": 12, "velocity": 64}, {"time": 48, "pitch": 71, "duration": 12, "velocity": 64}, {"time": 60, "pitch": 72, "duration": 24, "velocity": 64}, {"time": 84, "pitch": 73, "duration": 12, "velocity": 64}, {"time": 96, "pitch": 71, "duration": 12, "velocity": 64}, {"time": 108, "pitch": 69, "duration": 12, "velocity": 64}, {"time": 120, "pitch": 69, "duration": 6, "velocity": 64}, {"time": 126, "pitch": 68, "duration": 6, "velocity": 64}, {"time": 132, "pitch": 68, "duration": 6, "velocity": 64}, {"time": 138, "pitch": 69, "duration": 12, "velocity": 64}, {"time": 150, "pitch": 71, "duration": 12, "velocity": 64}, {"time": 162, "pitch": 73, "duration": 24, "velocity": 64}, {"time": 186, "pitch": 73, "duration": 12, "velocity": 64}, {"time": 198, "pitch": 73, "duration": 12, "velocity": 64}, {"time": 210, "pitch": 76, "duration": 12, "velocity": 64}, {"time": 222, "pitch": 74, "duration": 12, "velocity": 64}, {"time": 234, "pitch": 74, "duration": 12, "velocity": 64}, {"time": 246, "pitch": 76, "duration": 12, "velocity": 64}, {"time": 258, "pitch": 74, "duration": 12, "velocity": 64}, {"time": 270, "pitch": 73, "duration": 24, "velocity": 64}, {"time": 294, "pitch": 73, "duration": 12, "velocity": 64}, {"time": 306, "pitch": 76, "duration": 24, "velocity": 64}, {"time": 330, "pitch": 74, "duration": 24, "velocity": 64}, {"time": 354, "pitch": 76, "duration": 24, "velocity": 64}, {"time": 378, "pitch": 74, "duration": 12, "velocity": 64}, {"time": 390, "pitch": 73, "duration": 12, "velocity": 64}, {"time": 402, "pitch": 71, "duration": 12, "velocity": 64}, {"time": 414, "pitch": 69, "duration": 12, "velocity": 64}, {"time": 426, "pitch": 74, "duration": 12, "velocity": 64}, {"time": 438, "pitch": 73, "duration": 12, "velocity": 64}, {"time": 450, "pitch": 71, "duration": 12, "velocity": 64}, {"time": 462, "pitch": 69, "duration": 6, "velocity": 64}, {"time": 468, "pitch": 68, "duration": 6, "velocity": 64}, {"time": 474, "pitch": 69, "duration": 24, "velocity": 64}, {"time": 498, "pitch": 64, "duration": 12, "velocity": 64}, {"time": 510, "pitch": 69, "duration": 12, "velocity": 64}, {"time": 522, "pitch": 67, "duration": 12, "velocity": 64}, {"time": 534, "pitch": 69, "duration": 12, "velocity": 64}, {"time": 546, "pitch": 71, "duration": 12, "velocity": 64}, {"time": 558, "pitch": 73, "duration": 12, "velocity": 64}, {"time": 570, "pitch": 74, "duration": 12, "velocity": 64}, {"time": 582, "pitch": 76, "duration": 12, "velocity": 64}, {"time": 606, "pitch": 74, "duration": 12, "velocity": 64}, {"time": 618, "pitch": 73, "duration": 12, "velocity": 64}, {"time": 630, "pitch": 71, "duration": 12, "velocity": 64}, {"time": 642, "pitch": 69, "duration": 12, "velocity": 64}, {"time": 654, "pitch": 68, "duration": 12, "velocity": 64}, {"time": 666, "pitch": 69, "duration": 24, "velocity": 64}]}]}