{"metadata": {"schema_version": "0.1", "title": "Es wollt ein Mdchen frh aufstehn", "source_format": "abc"}, "resolution": 24, "tempos": [{"time": 0, "qpm": 120.0}], "key_signatures": [{"time": 0, "root": 4, "mode": "major", "fifths": 4}], "time_signatures": [{"time": 0, "numerator": 4, "denominator": 4}], "tracks": [{"program": 0, "is_drum": false, "notes": [{"time": 0, "pitch": 64, "duration": 12, "velocity": 64}, {"time": 12, "pitch": 64, "duration": 12, "velocity": 64}, {"time": 24, "pitch": 66, "duration": 12, "velocity": 64}, {"time": 36, "pitch": 64, "duration": 24, "velocity": 64}, {"time": 60, "pitch": 62, "duration": 24, "velocity": 64}, {"time": 84, "pitch": 64, "duration": 12, "velocity": 64}, {"time": 96, "pitch": 66, "duration": 12, "velocity": 64}, {"time": 108, "pitch": 67, "duration": 24, "velocity": 64}, {"time": 144, "pitch": 68, "duration": 12, "velocity": 64}, {"time": 156, "pitch": 68, "duration": 12, "velocity": 64}, {"time": 168, "pitch": 69, "duration": 12, "velocity": 64}, {"time": 180, "pitch": 71, "duration": 24, "velocity": 64}, {"time": 204, "pitch": 71, "duration": 24, "velocity": 64}, {"time": 228, "pitch": 71, "duration": 12, "velocity": 64}, {"time": 240, "pitch": 69, "duration": 12, "velocity": 64}, {"time": 252, "pitch": 71, "duration": 24, "velocity": 64}, {"time": 300, "pitch": 69, "duration": 12, "velocity": 64}, {"time": 312, "pitch": 68, "duration": 12, "velocity": 64}, {"time": 324, "pitch": 66, "duration": 12, "velocity": 64}, {"time": 336, "pitch": 68, "duration": 24, "velocity": 64}, {"time": 360, "pitch": 69, "duration": 24, "velocity": 64}, {"time": 384, "pitch": 68, "duration": 12, "velocity": 64}, {"time": 396, "pitch": 66, "duration": 12, "velocity": 64}, {"time": 408, "pitch": 64, "duration": 24, "velocity": 64}, {"time": 456, "pitch": 64, "duration": 12, "velocity": 64}, {"time": 468, "pitch": 64, "duration": 12, "velocity": 64}, {"time": 480, "pitch": 66, "duration": 12, "velocity": 64}, {"time": 492, "pitch": 64, "duration": 24, "velocity": 64}, {"time": 516, "pitch": 63, "duration": 24, "velocity": 64}, {"time": 540, "pitch": 64, "duration": 12, "velocity": 64}, {"time": 552, "pitch": 66, "duration": 12, "velocity": 64}, {"time": 564, "pitch": 68, "duration": 24, "velocity": 64}, {"time": 612, "pitch": 68, "duration": 12, "velocity": 64}, {"time": 624, "pitch": 68, "duration": 12, "velocity": 64}, {"time": 636, "pitch": 69, "duration": 12, "velocity": 64}, {"time": 648, "pitch": 71, "duration": 24, "velocity": 64}, {"time": 672, "pitch": 71, "duration": 24, "velocity": 64}, {"time": 696, "pitch": 71, "duration": 12, "velocity": 64}, {"time": 708, "pitch": 69, "duration": 12, "velocity": 64}, {"time": 720, "pitch": 71, "duration": 24, "velocity": 64}, {"time": 768, "pitch": 69, "duration": 12, "velocity": 64}, {"time": 780, "pitch": 68, "duration": 12, "velocity": 64}, {"time": 792, "pitch": 66, "duration": 12, "velocity": 64}, {"time": 804, "pitch": 64, "duration": 24, "velocity": 64}, {"time": 828, "pitch": 69, "duration": 24, "velocity": 64}, {"time": 852, "pitch": 68, "duration": 12, "velocity": 64}, {"time": 864, "pitch": 66, "duration": 12, "velocity": 64}, {"time": 876, "pitch": 64, "duration": 24, "velocity": 64}]}]}