{"metadata": {"schema_version": "0.1", "title": "Graf Backewill (Band 1), S.  81", "source_format": "abc"}, "resolution": 24, "tempos": [{"time": 0, "qpm": 120.0}], "key_signatures": [{"time": 0, "root": 5, "mode": "major", "fifths": -1}], "time_signatures": [{"time": 0, "numerator": 4, "denominator": 4}], "tracks": [{"program": 0, "is_drum": false, "notes": [{"time": 0, "pitch": 60, "duration": 12, "velocity": 64}, {"time": 12, "pitch": 65, "duration": 12, "velocity": 64}, {"time": 24, "pitch": 67, "duration": 12, "velocity": 64}, {"time": 36, "pitch": 68, "duration": 18, "velocity": 64}, {"time": 54, "pitch": 65, "duration": 6, "velocity": 64}, {"time": 60, "pitch": 67, "duration": 12, "velocity": 64}, {"time": 72, "pitch": 64, "duration": 12, "velocity": 64}, {"time": 84, "pitch": 65, "duration": 24, "velocity": 64}, {"time": 108, "pitch": 67, "duration": 12, "velocity": 64}, {"time": 120, "pitch": 69, "duration": 6, "velocity": 64}, {"time": 126, "pitch": 69, "duration": 12, "velocity": 64}, {"time": 138, "pitch": 70, "duration": 12, "velocity": 64}, {"time": 150, "pitch": 72, "duration": 24, "velocity": 64}, {"time": 174, "pitch": 72, "duration": 12, "velocity": 64}, {"time": 186, "pitch": 72, "duration": 24, "velocity": 64}, {"time": 210, "pitch": 70, "duration": 24, "velocity": 64}, {"time": 234, "pitch": 72, "duration": 24, "velocity": 64}, {"time": 258, "pitch": 69, "duration": 6, "velocity": 64}, {"time": 264, "pitch": 67, "duration": 24, "velocity": 64}, {"time": 288, "pitch": 72, "duration": 24, "velocity": 64}, {"time": 312, "pitch": 70, "duration": 12, "velocity": 64}, {"time": 324, "pitch": 69, "duration": 12, "velocity": 64}, {"time": 336, "pitch": 67, "duration": 24, "velocity": 64}, {"time": 360, "pitch": 65, "duration": 24, "velocity": 64}, {"time": 384, "pitch": 60, "duration": 24, "velocity": 64}, {"time": 408, "pitch": 69, "duration": 24, "velocity": 64}, {"time": 432, "pitch": 67, "duration": 24, "velocity": 64}, {"time": 456, "pitch": 65, "duration": 24, "velocity": 64}, {"time": 480, "pitch": 67, "duration": 36, "velocity": 64}, {"time": 516, "pitch": 65, "duration": 12, "velocity": 64}, {"time": 528, "pitch": 64, "duration": 12, "velocity": 64}, {"time": 540, "pitch": 62, "duration": 12, "velocity": 64}, {"time": 552, "pitch": 60, "duration": 24, "velocity": 64}, {"time": 576, "pitch": 62, "duration": 6, "velocity": 64}, {"time": 582, "pitch": 60, "duration": 12, "velocity": 64}, {"time": 594, "pitch": 60, "duration": 12, "velocity": 64}, {"time": 606, "pitch": 65, "duration": 36, "velocity": 64}, {"time": 642, "pitch": 67, "duration": 12, "velocity": 64}, {"time": 654, "pitch": 69, "duration": 18, "velocity": 64}, {"time": 672, "pitch": 65, "duration": 6, "velocity": 64}, {"time": 678, "pitch": 67, "duration": 24, "velocity": 64}, {"time": 702, "pitch": 70, "duration": 24, "velocity": 64}, {"time": 726, "pitch": 68, "duration": 24, "velocity": 64}, {"time": 750, "pitch": 67, "duration": 12, "velocity": 64}, {"time": 762, "pitch": 67, "duration": 12, "velocity": 64}, {"time": 774, "pitch": 65, "duration": 24, "velocity": 64}, {"time": 798, "pitch": 60, "duration": 24, "velocity": 64}, {"time": 822, "pitch": 65, "duration": 24, "velocity": 64}, {"time": 846, "pitch": 69, "duration": 24, "velocity": 64}, {"time": 870, "pitch": 67, "duration": 24, "velocity": 64}, {"time": 894, "pitch": 65, "duration": 24, "velocity": 64}]}]}