{"metadata": {"schema_version": "0.1", "title": "Ich ging des Nachts (Band 1), S. 197", "source_format": "abc"}, "resolution": 24, "tempos": [{"time": 0, "qpm": 120.0}], "key_signatures": [{"time": 0, "root": 2, "mode": "major", "fifths": 2}], "time_signatures": [{"time": 0, "numerator": 4, "denominator": 4}], "tracks": [{"program": 0, "is_drum": false, "notes": [{"time": 0, "pitch": 62, "duration": 12, "velocity": 64}, {"time": 12, "pitch": 62, "duration": 12, "velocity": 64}, {"time": 24, "pitch": 62, "duration": 12, "velocity": 64}, {"time": 36, "pitch": 69, "duration": 24, "velocity": 64}, {"time": 60, "pitch": 67, "duration": 24, "velocity": 64}, {"time": 84, "pitch": 72, "duration": 6, "velocity": 64}, {"time": 90, "pitch": 73, "duration": 6, "velocity": 64}, {"time": 96, "pitch": 71, "duration": 12, "velocity": 64}, {"time": 108, "pitch": 69, "duration": 12, "velocity": 64}, {"time": 120, "pitch": 67, "duration": 24, "velocity": 64}, {"time": 144, "pitch": 73, "duration": 12, "velocity": 64}, {"time": 156, "pitch": 71, "duration": 12, "velocity": 64}, {"time": 168, "pitch": 69, "duration": 12, "velocity": 64}, {"time": 180, "pitch": 67, "duration": 12, "velocity": 64}, {"time": 192, "pitch": 69, "duration": 24, "velocity": 64}, {"time": 216, "pitch": 67, "duration": 18, "velocity": 64}, {"time": 234, "pitch": 64, "duration": 6, "velocity": 64}, {"time": 240, "pitch": 64, "duration": 24, "velocity": 64}, {"time": 264, "pitch": 69, "duration": 24, "velocity": 64}, {"time": 288, "pitch": 69, "duration": 12, "velocity": 64}, {"time": 300, "pitch": 69, "duration": 12, "velocity": 64}, {"time": 312, "pitch": 62, "duration": 24, "velocity": 64}, {"time": 336, "pitch": 64, "duration": 24, "velocity": 64}, {"time": 360, "pitch": 69, "duration": 12, "velocity": 64}, {"time": 372, "pitch": 65, "duration": 12, "velocity": 64}, {"time": 384, "pitch": 62, "duration": 24, "velocity": 64}, {"time": 408, "pitch": 61, "duration": 12, "velocity": 64}, {"time": 420, "pitch": 57, "duration": 12, "velocity": 64}, {"time": 432, "pitch": 62, "duration": 12, "velocity": 64}, {"time": 444, "pitch": 64, "duration": 12, "velocity": 64}, {"time": 456, "pitch": 66, "duration": 12, "velocity": 64}, {"time": 468, "pitch": 69, "duration": 12, "velocity": 64}, {"time": 480, "pitch": 67, "duration": 12, "velocity": 64}, {"time": 492, "pitch": 64, "duration": 12, "velocity": 64}, {"time": 504, "pitch": 66, "duration": 12, "velocity": 64}, {"time": 516, "pitch": 64, "duration": 12, "velocity": 64}, {"time": 528, "pitch": 62, "duration": 24, "velocity": 64}]}]}