{"metadata": {"schema_version": "0.1", "title": "Hscher des Herodes (2-4) S. 19", "source_format": "abc"}, "resolution": 24, "tempos": [{"time": 0, "qpm": 120.0}], "key_signatures": [{"time": 0, "root": 5, "mode": "major", "fifths": -1}], "time_signatures": [{"time": 0, "numerator": 4, "denominator": 4}], "tracks": [{"program": 0, "is_drum": false, "notes": [{"time": 0, "pitch": 62, "duration": 24, "velocity": 64}, {"time": 24, "pitch": 70, "duration": 24, "velocity": 64}, {"time": 48, "pitch": 70, "duration": 24, "velocity": 64}, {"time": 72, "pitch": 70, "duration": 24, "velocity": 64}, {"time": 96, "pitch": 70, "duration": 24, "velocity": 64}, {"time": 120, "pitch": 70, "duration": 24, "velocity": 64}, {"time": 144, "pitch": 69, "duration": 24, "velocity": 64}, {"time": 168, "pitch": 67, "duration": 24, "velocity": 64}, {"time": 192, "pitch": 69, "duration": 24, "velocity": 64}, {"time": 216, "pitch": 67, "duration": 48, "velocity": 64}, {"time": 264, "pitch": 67, "duration": 24, "velocity": 64}, {"time": 288, "pitch": 67, "duration": 24, "velocity": 64}, {"time": 312, "pitch": 67, "duration": 24, "velocity": 64}, {"time": 336, "pitch": 65, "duration": 24, "velocity": 64}, {"time": 360, "pitch": 65, "duration": 24, "velocity": 64}, {"time": 384, "pitch": 67, "duration": 24, "velocity": 64}, {"time": 408, "pitch": 69, "duration": 24, "velocity": 64}, {"time": 432, "pitch": 67, "duration": 24, "velocity": 64}, {"time": 456, "pitch": 65, "duration": 24, "velocity": 64}, {"time": 480, "pitch": 65, "duration": 24, "velocity": 64}]}]}