{"metadata": {"schema_version": "0.1", "title": "Der gute Hirt (2-7) S. 31f", "source_format": "abc"}, "resolution": 24, "tempos": [{"time": 0, "qpm": 120.0}], "key_signatures": [{"time": 0, "root": 4, "mode": "major", "fifths": 4}], "time_signatures": [{"time": 0, "numerator": 4, "denominator": 4}, {"time": 504, "numerator": 1, "denominator": 4}, {"time": 1104, "numerator": 1, "denominator": 4}, {"time": 1200, "numerator": 4, "denominator": 4}, {"time": 1464, "numerator": 1, "denominator": 4}, {"time": 1824, "numerator": 1, "denominator": 4}, {"time": 2184, "numerator": 1, "denominator": 4}, {"time": 2544, "numerator": 1, "denominator": 4}, {"time": 2712, "numerator": 1, "denominator": 4}, {"time": 2904, "numerator": 1, "denominator": 4}, {"time": 2928, "numerator": 3, "denominator": 4}, {"time": 3168, "numerator": 1, "denominator": 4}], "beats": [{"time": 0, "is_downbeat": true}, {"time": 24, "is_downbeat": true}, {"time": 48, "is_downbeat": true}, {"time": 72, "is_downbeat": true}, {"time": 96, "is_downbeat": true}, {"time": 120, "is_downbeat": true}, {"time": 144, "is_downbeat": true}, {"time": 168, "is_downbeat": true}, {"time": 192, "is_downbeat": true}, {"time": 216, "is_downbeat": true}, {"time": 240, "is_downbeat": true}, {"time": 264, "is_downbeat": true}, {"time": 288, "is_downbeat": true}, {"time": 312, "is_downbeat": true}, {"time": 336, "is_downbeat": true}, {"time": 360, "is_downbeat": true}, {"time": 384, "is_downbeat": true}, {"time": 408, "is_downbeat": true}, {"time": 432, "is_downbeat": true}, {"time": 456, "is_downbeat": true}, {"time": 480, "is_downbeat": true}, {"time": 504, "is_downbeat": true}, {"time": 528, "is_downbeat": true}, {"time": 552, "is_downbeat": true}, {"time": 576, "is_downbeat": true}, {"time": 600, "is_downbeat": true}, {"time": 624, "is_downbeat": true}, {"time": 648, "is_downbeat": true}, {"time": 672, "is_downbeat": true}, {"time": 696, "is_downbeat": true}, {"time": 720, "is_downbeat": true}, {"time": 744, "is_downbeat": true}, {"time": 768, "is_downbeat": true}, {"time": 792, "is_downbeat": true}, {"time": 816, "is_downbeat": true}, {"time": 840, "is_downbeat": true}, {"time": 864, "is_downbeat": true}, {"time": 888, "is_downbeat": true}, {"time": 912, "is_downbeat": true}, {"time": 936, "is_downbeat": true}, {"time": 960, "is_downbeat": true}, {"time": 984, "is_downbeat": true}, {"time": 1008, "is_downbeat": true}, {"time": 1032, "is_downbeat": true}, {"time": 1056, "is_downbeat": true}, {"time": 1080, "is_downbeat": true}, {"time": 1104, "is_downbeat": true}, {"time": 1128, "is_downbeat": true}, {"time": 1152, "is_downbeat": false}, {"time": 1176, "is_downbeat": false}, {"time": 1200, "is_downbeat": true}, {"time": 1224, "is_downbeat": true}, {"time": 1248, "is_downbeat": true}, {"time": 1272, "is_downbeat": true}, {"time": 1296, "is_downbeat": true}, {"time": 1320, "is_downbeat": true}, {"time": 1344, "is_downbeat": true}, {"time": 1368, "is_downbeat": true}, {"time": 1392, "is_downbeat": true}, {"time": 1416, "is_downbeat": true}, {"time": 1440, "is_downbeat": true}, {"time": 1464, "is_downbeat": true}, {"time": 1488, "is_downbeat": true}, {"time": 1512, "is_downbeat": true}, {"time": 1536, "is_downbeat": true}, {"time": 1560, "is_downbeat": true}, {"time": 1584, "is_downbeat": true}, {"time": 1608, "is_downbeat": true}, {"time": 1632, "is_downbeat": true}, {"time": 1656, "is_downbeat": true}, {"time": 1680, "is_downbeat": true}, {"time": 1704, "is_downbeat": true}, {"time": 1728, "is_downbeat": true}, {"time": 1752, "is_downbeat": true}, {"time": 1776, "is_downbeat": true}, {"time": 1800, "is_downbeat": true}, {"time": 1824, "is_downbeat": true}, {"time": 1848, "is_downbeat": true}, {"time": 1872, "is_downbeat": true}, {"time": 1896, "is_downbeat": true}, {"time": 1920, "is_downbeat": true}, {"time": 1944, "is_downbeat": true}, {"time": 1968, "is_downbeat": true}, {"time": 1992, "is_downbeat": true}, {"time": 2016, "is_downbeat": true}, {"time": 2040, "is_downbeat": true}, {"time": 2064, "is_downbeat": true}, {"time": 2088, "is_downbeat": true}, {"time": 2112, "is_downbeat": true}, {"time": 2136, "is_downbeat": true}, {"time": 2160, "is_downbeat": true}, {"time": 2184, "is_downbeat": true}, {"time": 2208, "is_downbeat": true}, {"time": 2232, "is_downbeat": true}, {"time": 2256, "is_downbeat": true}, {"time": 2280, "is_downbeat": true}, {"time": 2304, "is_downbeat": true}, {"time": 2328, "is_downbeat": true}, {"time": 2352, "is_downbeat": true}, {"time": 2376, "is_downbeat": true}, {"time": 2400, "is_downbeat": true}, {"time": 2424, "is_downbeat": true}, {"time": 2448, "is_downbeat": true}, {"time": 2472, "is_downbeat": true}, {"time": 2496, "is_downbeat": true}, {"time": 2520, "is_downbeat": true}, {"time": 2544, "is_downbeat": true}, {"time": 2568, "is_downbeat": true}, {"time": 2592, "is_downbeat": true}, {"time": 2616, "is_downbeat": true}, {"time": 2640, "is_downbeat": true}, {"time": 2664, "is_downbeat": true}, {"time": 2688, "is_downbeat": true}, {"time": 2712, "is_downbeat": true}, {"time": 2736, "is_downbeat": true}, {"time": 2760, "is_downbeat": true}, {"time": 2784, "is_downbeat": true}, {"time": 2808, "is_downbeat": true}, {"time": 2832, "is_downbeat": true}, {"time": 2856, "is_downbeat": true}, {"time": 2880, "is_downbeat": true}, {"time": 2904, "is_downbeat": true}, {"time": 2928, "is_downbeat": true}, {"time": 2952, "is_downbeat": true}, {"time": 2976, "is_downbeat": true}, {"time": 3000, "is_downbeat": true}, {"time": 3024, "is_downbeat": true}, {"time": 3048, "is_downbeat": true}, {"time": 3072, "is_downbeat": true}, {"time": 3096, "is_downbeat": true}, {"time": 3120, "is_downbeat": true}, {"time": 3144, "is_downbeat": true}, {"time": 3168, "is_downbeat": true}], "tracks": [{"program": 0, "is_drum": false, "notes": [{"time": 0, "pitch": 62, "duration": 24, "velocity": 64}, {"time": 24, "pitch": 64, "duration": 24, "velocity": 64}, {"time": 48, "pitch": 69, "duration": 24, "velocity": 64}, {"time": 72, "pitch": 67, "duration": 36, "velocity": 64}, {"time": 108, "pitch": 65, "duration": 12, "velocity": 64}, {"time": 120, "pitch": 64, "duration": 24, "velocity": 64}, {"time": 144, "pitch": 68, "duration": 24, "velocity": 64}, {"time": 168, "pitch": 68, "duration": 36, "velocity": 64}, {"time": 204, "pitch": 64, "duration": 6, "velocity": 64}, {"time": 210, "pitch": 62, "duration": 6, "velocity": 64}, {"time": 216, "pitch": 60, "duration": 36, "velocity": 64}, {"time": 252, "pitch": 62, "duration": 12, "velocity": 64}, {"time": 264, "pitch": 64, "duration": 24, "velocity": 64}, {"time": 288, "pitch": 64, "duration": 12, "velocity": 64}, {"time": 300, "pitch": 63, "duration": 12, "velocity": 64}, {"time": 312, "pitch": 64, "duration": 24, "velocity": 64}, {"time": 336, "pitch": 69, "duration": 24, "velocity": 64}, {"time": 360, "pitch": 67, "duration": 36, "velocity": 64}, {"time": 396, "pitch": 65, "duration": 12, "velocity": 64}, {"time": 408, "pitch": 64, "duration": 24, "velocity": 64}, {"time": 432, "pitch": 72, "duration": 36, "velocity": 64}, {"time": 468, "pitch": 74, "duration": 6, "velocity": 64}, {"time": 474, "pitch": 73, "duration": 6, "velocity": 64}, {"time": 480, "pitch": 71, "duration": 36, "velocity": 64}, {"time": 516, "pitch": 73, "duration": 6, "velocity": 64}, {"time": 522, "pitch": 71, "duration": 6, "velocity": 64}, {"time": 528, "pitch": 69, "duration": 24, "velocity": 64}, {"time": 552, "pitch": 68, "duration": 24, "velocity": 64}, {"time": 576, "pitch": 69, "duration": 24, "velocity": 64}, {"time": 600, "pitch": 71, "duration": 12, "velocity": 64}, {"time": 612, "pitch": 69, "duration": 12, "velocity": 64}, {"time": 624, "pitch": 71, "duration": 24, "velocity": 64}, {"time": 648, "pitch": 76, "duration": 24, "velocity": 64}, {"time": 672, "pitch": 74, "duration": 36, "velocity": 64}, {"time": 708, "pitch": 72, "duration": 12, "velocity": 64}, {"time": 720, "pitch": 71, "duration": 24, "velocity": 64}, {"time": 744, "pitch": 72, "duration": 12, "velocity": 64}, {"time": 756, "pitch": 71, "duration": 12, "velocity": 64}, {"time": 768, "pitch": 69, "duration": 24, "velocity": 64}, {"time": 792, "pitch": 71, "duration": 24, "velocity": 64}, {"time": 816, "pitch": 71, "duration": 12, "velocity": 64}, {"time": 828, "pitch": 69, "duration": 12, "velocity": 64}, {"time": 840, "pitch": 71, "duration": 24, "velocity": 64}, {"time": 864, "pitch": 76, "duration": 24, "velocity": 64}, {"time": 888, "pitch": 74, "duration": 36, "velocity": 64}, {"time": 924, "pitch": 72, "duration": 12, "velocity": 64}, {"time": 936, "pitch": 71, "duration": 24, "velocity": 64}, {"time": 960, "pitch": 72, "duration": 12, "velocity": 64}, {"time": 972, "pitch": 71, "duration": 12, "velocity": 64}, {"time": 984, "pitch": 69, "duration": 24, "velocity": 64}, {"time": 1008, "pitch": 71, "duration": 24, "velocity": 64}, {"time": 1032, "pitch": 79, "duration": 36, "velocity": 64}, {"time": 1068, "pitch": 74, "duration": 12, "velocity": 64}, {"time": 1080, "pitch": 75, "duration": 48, "velocity": 64}, {"time": 1128, "pitch": 76, "duration": 36, "velocity": 64}, {"time": 1164, "pitch": 72, "duration": 12, "velocity": 64}, {"time": 1176, "pitch": 71, "duration": 48, "velocity": 64}, {"time": 1224, "pitch": 74, "duration": 24, "velocity": 64}, {"time": 1248, "pitch": 75, "duration": 24, "velocity": 64}, {"time": 1272, "pitch": 71, "duration": 12, "velocity": 64}, {"time": 1284, "pitch": 69, "duration": 12, "velocity": 64}, {"time": 1296, "pitch": 67, "duration": 24, "velocity": 64}, {"time": 1320, "pitch": 69, "duration": 24, "velocity": 64}, {"time": 1344, "pitch": 71, "duration": 24, "velocity": 64}, {"time": 1368, "pitch": 71, "duration": 24, "velocity": 64}, {"time": 1392, "pitch": 69, "duration": 36, "velocity": 64}, {"time": 1428, "pitch": 67, "duration": 12, "velocity": 64}, {"time": 1440, "pitch": 66, "duration": 24, "velocity": 64}, {"time": 1464, "pitch": 69, "duration": 24, "velocity": 64}, {"time": 1488, "pitch": 67, "duration": 24, "velocity": 64}, {"time": 1512, "pitch": 66, "duration": 24, "velocity": 64}, {"time": 1536, "pitch": 64, "duration": 24, "velocity": 64}, {"time": 1560, "pitch": 68, "duration": 8, "velocity": 64}, {"time": 1568, "pitch": 69, "duration": 8, "velocity": 64}, {"time": 1576, "pitch": 68, "duration": 8, "velocity": 64}, {"time": 1584, "pitch": 66, "duration": 24, "velocity": 64}, {"time": 1608, "pitch": 64, "duration": 24, "velocity": 64}, {"time": 1632, "pitch": 66, "duration": 8, "velocity": 64}, {"time": 1640, "pitch": 64, "duration": 8, "velocity": 64}, {"time": 1648, "pitch": 63, "duration": 8, "velocity": 64}, {"time": 1656, "pitch": 64, "duration": 48, "velocity": 64}, {"time": 1728, "pitch": 79, "duration": 12, "velocity": 64}, {"time": 1740, "pitch": 66, "duration": 12, "velocity": 64}, {"time": 1752, "pitch": 64, "duration": 24, "velocity": 64}, {"time": 1776, "pitch": 59, "duration": 24, "velocity": 64}, {"time": 1800, "pitch": 64, "duration": 24, "velocity": 64}, {"time": 1824, "pitch": 66, "duration": 24, "velocity": 64}, {"time": 1848, "pitch": 67, "duration": 12, "velocity": 64}, {"time": 1860, "pitch": 71, "duration": 12, "velocity": 64}, {"time": 1872, "pitch": 69, "duration": 12, "velocity": 64}, {"time": 1884, "pitch": 68, "duration": 12, "velocity": 64}, {"time": 1896, "pitch": 66, "duration": 24, "velocity": 64}, {"time": 1920, "pitch": 78, "duration": 12, "velocity": 64}, {"time": 1932, "pitch": 67, "duration": 12, "velocity": 64}, {"time": 1944, "pitch": 69, "duration": 36, "velocity": 64}, {"time": 1980, "pitch": 71, "duration": 6, "velocity": 64}, {"time": 1986, "pitch": 69, "duration": 6, "velocity": 64}, {"time": 1992, "pitch": 67, "duration": 12, "velocity": 64}, {"time": 2004, "pitch": 66, "duration": 12, "velocity": 64}, {"time": 2016, "pitch": 64, "duration": 24, "velocity": 64}, {"time": 2040, "pitch": 63, "duration": 8, "velocity": 64}, {"time": 2048, "pitch": 64, "duration": 8, "velocity": 64}, {"time": 2056, "pitch": 66, "duration": 8, "velocity": 64}, {"time": 2064, "pitch": 64, "duration": 24, "velocity": 64}, {"time": 2088, "pitch": 79, "duration": 12, "velocity": 64}, {"time": 2100, "pitch": 66, "duration": 12, "velocity": 64}, {"time": 2112, "pitch": 64, "duration": 24, "velocity": 64}, {"time": 2136, "pitch": 59, "duration": 24, "velocity": 64}, {"time": 2160, "pitch": 64, "duration": 24, "velocity": 64}, {"time": 2184, "pitch": 66, "duration": 24, "velocity": 64}, {"time": 2208, "pitch": 67, "duration": 12, "velocity": 64}, {"time": 2220, "pitch": 71, "duration": 12, "velocity": 64}, {"time": 2232, "pitch": 69, "duration": 12, "velocity": 64}, {"time": 2244, "pitch": 68, "duration": 12, "velocity": 64}, {"time": 2256, "pitch": 66, "duration": 24, "velocity": 64}, {"time": 2280, "pitch": 78, "duration": 12, "velocity": 64}, {"time": 2292, "pitch": 67, "duration": 12, "velocity": 64}, {"time": 2304, "pitch": 69, "duration": 36, "velocity": 64}, {"time": 2340, "pitch": 71, "duration": 6, "velocity": 64}, {"time": 2346, "pitch": 69, "duration": 6, "velocity": 64}, {"time": 2352, "pitch": 67, "duration": 12, "velocity": 64}, {"time": 2364, "pitch": 66, "duration": 12, "velocity": 64}, {"time": 2376, "pitch": 64, "duration": 24, "velocity": 64}, {"time": 2400, "pitch": 63, "duration": 8, "velocity": 64}, {"time": 2408, "pitch": 64, "duration": 8, "velocity": 64}, {"time": 2416, "pitch": 66, "duration": 8, "velocity": 64}, {"time": 2424, "pitch": 64, "duration": 24, "velocity": 64}, {"time": 2448, "pitch": 79, "duration": 12, "velocity": 64}, {"time": 2460, "pitch": 69, "duration": 12, "velocity": 64}, {"time": 2472, "pitch": 71, "duration": 24, "velocity": 64}, {"time": 2496, "pitch": 71, "duration": 24, "velocity": 64}, {"time": 2520, "pitch": 71, "duration": 18, "velocity": 64}, {"time": 2538, "pitch": 69, "duration": 6, "velocity": 64}, {"time": 2544, "pitch": 67, "duration": 12, "velocity": 64}, {"time": 2556, "pitch": 69, "duration": 12, "velocity": 64}, {"time": 2568, "pitch": 69, "duration": 24, "velocity": 64}, {"time": 2592, "pitch": 69, "duration": 24, "velocity": 64}, {"time": 2616, "pitch": 79, "duration": 12, "velocity": 64}, {"time": 2628, "pitch": 71, "duration": 12, "velocity": 64}, {"time": 2640, "pitch": 71, "duration": 24, "velocity": 64}, {"time": 2664, "pitch": 71, "duration": 24, "velocity": 64}, {"time": 2688, "pitch": 71, "duration": 18, "velocity": 64}, {"time": 2706, "pitch": 69, "duration": 6, "velocity": 64}, {"time": 2712, "pitch": 67, "duration": 12, "velocity": 64}, {"time": 2724, "pitch": 71, "duration": 12, "velocity": 64}, {"time": 2736, "pitch": 71, "duration": 24, "velocity": 64}, {"time": 2760, "pitch": 71, "duration": 48, "velocity": 64}, {"time": 2808, "pitch": 79, "duration": 12, "velocity": 64}, {"time": 2820, "pitch": 66, "duration": 12, "velocity": 64}, {"time": 2832, "pitch": 64, "duration": 24, "velocity": 64}, {"time": 2856, "pitch": 59, "duration": 24, "velocity": 64}, {"time": 2880, "pitch": 64, "duration": 24, "velocity": 64}, {"time": 2904, "pitch": 66, "duration": 24, "velocity": 64}, {"time": 2928, "pitch": 67, "duration": 12, "velocity": 64}, {"time": 2940, "pitch": 71, "duration": 12, "velocity": 64}, {"time": 2952, "pitch": 69, "duration": 12, "velocity": 64}, {"time": 2964, "pitch": 68, "duration": 12, "velocity": 64}, {"time": 2976, "pitch": 66, "duration": 24, "velocity": 64}, {"time": 3000, "pitch": 78, "duration": 12, "velocity": 64}, {"time": 3012, "pitch": 67, "duration": 12, "velocity": 64}, {"time": 3024, "pitch": 69, "duration": 36, "velocity": 64}, {"time": 3060, "pitch": 71, "duration": 6, "velocity": 64}, {"time": 3066, "pitch": 69, "duration": 6, "velocity": 64}, {"time": 3072, "pitch": 67, "duration": 12, "velocity": 64}, {"time": 3084, "pitch": 66, "duration": 12, "velocity": 64}, {"time": 3096, "pitch": 64, "duration": 24, "velocity": 64}, {"time": 3120, "pitch": 63, "duration": 8, "velocity": 64}, {"time": 3128, "pitch": 64, "duration": 8, "velocity": 64}, {"time": 3136, "pitch": 66, "duration": 8, "velocity": 64}, {"time": 3144, "pitch": 64, "duration": 48, "velocity": 64}]}]}