{"metadata": {"schema_version": "0.1", "title": "Ich ging des Abends wohl spazieren (2-76) S. 228", "source_format": "abc"}, "resolution": 24, "tempos": [{"time": 0, "qpm": 120.0}], "key_signatures": [{"time": 0, "root": 4, "mode": "major", "fifths": 4}], "time_signatures": [{"time": 0, "numerator": 4, "denominator": 4}], "tracks": [{"program": 0, "is_drum": false, "notes": [{"time": 0, "pitch": 67, "duration": 12, "velocity": 64}, {"time": 12, "pitch": 68, "duration": 36, "velocity": 64}, {"time": 48, "pitch": 66, "duration": 12, "velocity": 64}, {"time": 60, "pitch": 64, "duration": 12, "velocity": 64}, {"time": 72, "pitch": 64, "duration": 12, "velocity": 64}, {"time": 84, "pitch": 69, "duration": 36, "velocity": 64}, {"time": 120, "pitch": 68, "duration": 12, "velocity": 64}, {"time": 132, "pitch": 66, "duration": 12, "velocity": 64}, {"time": 144, "pitch": 64, "duration": 12, "velocity": 64}, {"time": 156, "pitch": 62, "duration": 24, "velocity": 64}, {"time": 180, "pitch": 68, "duration": 36, "velocity": 64}, {"time": 216, "pitch": 66, "duration": 12, "velocity": 64}, {"time": 228, "pitch": 64, "duration": 24, "velocity": 64}, {"time": 252, "pitch": 69, "duration": 24, "velocity": 64}, {"time": 276, "pitch": 69, "duration": 12, "velocity": 64}, {"time": 288, "pitch": 66, "duration": 12, "velocity": 64}, {"time": 300, "pitch": 64, "duration": 12, "velocity": 64}, {"time": 312, "pitch": 68, "duration": 12, "velocity": 64}, {"time": 324, "pitch": 66, "duration": 12, "velocity": 64}, {"time": 336, "pitch": 64, "duration": 12, "velocity": 64}, {"time": 348, "pitch": 63, "duration": 24, "velocity": 64}, {"time": 372, "pitch": 68, "duration": 12, "velocity": 64}, {"time": 384, "pitch": 68, "duration": 24, "velocity": 64}, {"time": 408, "pitch": 68, "duration": 12, "velocity": 64}, {"time": 420, "pitch": 69, "duration": 12, "velocity": 64}, {"time": 432, "pitch": 68, "duration": 24, "velocity": 64}, {"time": 456, "pitch": 63, "duration": 24, "velocity": 64}, {"time": 480, "pitch": 68, "duration": 24, "velocity": 64}, {"time": 504, "pitch": 69, "duration": 24, "velocity": 64}, {"time": 528, "pitch": 71, "duration": 12, "velocity": 64}, {"time": 540, "pitch": 75, "duration": 12, "velocity": 64}, {"time": 552, "pitch": 72, "duration": 12, "velocity": 64}, {"time": 564, "pitch": 71, "duration": 12, "velocity": 64}, {"time": 576, "pitch": 69, "duration": 12, "velocity": 64}, {"time": 588, "pitch": 71, "duration": 12, "velocity": 64}, {"time": 600, "pitch": 68, "duration": 12, "velocity": 64}, {"time": 612, "pitch": 66, "duration": 12, "velocity": 64}, {"time": 624, "pitch": 64, "duration": 24, "velocity": 64}, {"time": 648, "pitch": 63, "duration": 12, "velocity": 64}, {"time": 660, "pitch": 64, "duration": 12, "velocity": 64}, {"time": 672, "pitch": 66, "duration": 24, "velocity": 64}, {"time": 696, "pitch": 64, "duration": 24, "velocity": 64}, {"time": 720, "pitch": 68, "duration": 12, "velocity": 64}, {"time": 732, "pitch": 68, "duration": 24, "velocity": 64}, {"time": 756, "pitch": 68, "duration": 12, "velocity": 64}, {"time": 768, "pitch": 69, "duration": 12, "velocity": 64}, {"time": 780, "pitch": 68, "duration": 24, "velocity": 64}, {"time": 804, "pitch": 63, "duration": 24, "velocity": 64}, {"time": 828, "pitch": 68, "duration": 24, "velocity": 64}, {"time": 852, "pitch": 69, "duration": 24, "velocity": 64}, {"time": 876, "pitch": 71, "duration": 12, "velocity": 64}, {"time": 888, "pitch": 75, "duration": 12, "velocity": 64}, {"time": 900, "pitch": 73, "duration": 12, "velocity": 64}, {"time": 912, "pitch": 71, "duration": 12, "velocity": 64}, {"time": 924, "pitch": 69, "duration": 12, "velocity": 64}, {"time": 936, "pitch": 71, "duration": 12, "velocity": 64}, {"time": 948, "pitch": 68, "duration": 12, "velocity": 64}, {"time": 960, "pitch": 66, "duration": 12, "velocity": 64}, {"time": 972, "pitch": 64, "duration": 24, "velocity": 64}, {"time": 996, "pitch": 63, "duration": 12, "velocity": 64}, {"time": 1008, "pitch": 64, "duration": 12, "velocity": 64}, {"time": 1020, "pitch": 66, "duration": 24, "velocity": 64}, {"time": 1044, "pitch": 64, "duration": 24, "velocity": 64}]}]}