{"metadata": {"schema_version": "0.1", "title": "Lamentation (2-91) S. 265", "source_format": "abc"}, "resolution": 24, "tempos": [{"time": 0, "qpm": 120.0}], "key_signatures": [{"time": 0, "root": 7, "mode": "major", "fifths": 1}], "time_signatures": [{"time": 0, "numerator": 4, "denominator": 4}], "tracks": [{"program": 0, "is_drum": false, "notes": [{"time": 0, "pitch": 67, "duration": 24, "velocity": 64}, {"time": 24, "pitch": 69, "duration": 24, "velocity": 64}, {"time": 48, "pitch": 71, "duration": 24, "velocity": 64}, {"time": 72, "pitch": 71, "duration": 24, "velocity": 64}, {"time": 96, "pitch": 72, "duration": 24, "velocity": 64}, {"time": 120, "pitch": 71, "duration": 24, "velocity": 64}, {"time": 144, "pitch": 71, "duration": 24, "velocity": 64}, {"time": 168, "pitch": 71, "duration": 24, "velocity": 64}, {"time": 192, "pitch": 71, "duration": 24, "velocity": 64}, {"time": 216, "pitch": 71, "duration": 24, "velocity": 64}, {"time": 240, "pitch": 71, "duration": 24, "velocity": 64}, {"time": 264, "pitch": 69, "duration": 24, "velocity": 64}, {"time": 288, "pitch": 69, "duration": 24, "velocity": 64}, {"time": 312, "pitch": 69, "duration": 24, "velocity": 64}, {"time": 336, "pitch": 69, "duration": 24, "velocity": 64}, {"time": 360, "pitch": 69, "duration": 24, "velocity": 64}, {"time": 384, "pitch": 72, "duration": 24, "velocity": 64}, {"time": 408, "pitch": 71, "duration": 24, "velocity": 64}, {"time": 432, "pitch": 71, "duration": 24, "velocity": 64}, {"time": 456, "pitch": 71, "duration": 24, "velocity": 64}, {"time": 480, "pitch": 71, "duration": 24, "velocity": 64}, {"time": 504, "pitch": 71, "duration": 24, "velocity": 64}, {"time": 528, "pitch": 71, "duration": 24, "velocity": 64}, {"time": 552, "pitch": 71, "duration": 24, "velocity": 64}, {"time": 576, "pitch": 71, "duration": 24, "velocity": 64}, {"time": 600, "pitch": 71, "duration": 24, "velocity": 64}, {"time": 624, "pitch": 71, "duration": 24, "velocity": 64}, {"time": 648, "pitch": 71, "duration": 24, "velocity": 64}, {"time": 672, "pitch": 71, "duration": 24, "velocity": 64}, {"time": 696, "pitch": 71, "duration": 24, "velocity": 64}, {"time": 720, "pitch": 71, "duration": 24, "velocity": 64}, {"time": 744, "pitch": 71, "duration": 24, "velocity": 64}, {"time": 768, "pitch": 71, "duration": 24, "velocity": 64}, {"time": 792, "pitch": 69, "duration": 24, "velocity": 64}, {"time": 816, "pitch": 71, "duration": 24, "velocity": 64}, {"time": 840, "pitch": 72, "duration": 24, "velocity": 64}, {"time": 864, "pitch": 72, "duration": 24, "velocity": 64}, {"time": 888, "pitch": 72, "duration": 24, "velocity": 64}, {"time": 912, "pitch": 72, "duration": 24, "velocity": 64}, {"time": 936, "pitch": 69, "duration": 24, "velocity": 64}, {"time": 960, "pitch": 71, "duration": 24, "velocity": 64}, {"time": 984, "pitch": 72, "duration": 24, "velocity": 64}, {"time": 1008, "pitch": 71, "duration": 24, "velocity": 64}, {"time": 1032, "pitch": 71, "duration": 24, "velocity": 64}, {"time": 1056, "pitch": 71, "duration": 24, "velocity": 64}, {"time": 1080, "pitch": 69, "duration": 24, "velocity": 64}, {"time": 1104, "pitch": 67, "duration": 24, "velocity": 64}, {"time": 1128, "pitch": 66, "duration": 24, "velocity": 64}, {"time": 1152, "pitch": 67, "duration": 24, "velocity": 64}, {"time": 1176, "pitch": 69, "duration": 24, "velocity": 64}, {"time": 1200, "pitch": 71, "duration": 24, "velocity": 64}, {"time": 1224, "pitch": 69, "duration": 24, "velocity": 64}, {"time": 1248, "pitch": 69, "duration": 24, "velocity": 64}, {"time": 1272, "pitch": 72, "duration": 24, "velocity": 64}, {"time": 1296, "pitch": 71, "duration": 24, "velocity": 64}, {"time": 1320, "pitch": 71, "duration": 24, "velocity": 64}, {"time": 1344, "pitch": 69, "duration": 24, "velocity": 64}, {"time": 1368, "pitch": 67, "duration": 24, "velocity": 64}, {"time": 1392, "pitch": 67, "duration": 24, "velocity": 64}]}]}