{"metadata": {"schema_version": "0.1", "title": "Jesus und Seele (3-8), S. 31", "source_format": "abc"}, "resolution": 24, "tempos": [{"time": 0, "qpm": 120.0}], "key_signatures": [{"time": 0, "root": 2, "mode": "major", "fifths": 2}], "time_signatures": [{"time": 0, "numerator": 4, "denominator": 4}, {"time": 1800, "numerator": 3, "denominator": 2}, {"time": 1944, "numerator": 2, "denominator": 4}, {"time": 2088, "numerator": 1, "denominator": 4}], "beats": [{"time": 0, "is_downbeat": true}, {"time": 24, "is_downbeat": true}, {"time": 72, "is_downbeat": true}, {"time": 120, "is_downbeat": true}, {"time": 168, "is_downbeat": true}, {"time": 216, "is_downbeat": true}, {"time": 264, "is_downbeat": true}, {"time": 312, "is_downbeat": true}, {"time": 360, "is_downbeat": true}, {"time": 408, "is_downbeat": true}, {"time": 456, "is_downbeat": true}, {"time": 504, "is_downbeat": true}, {"time": 552, "is_downbeat": true}, {"time": 600, "is_downbeat": true}, {"time": 648, "is_downbeat": true}, {"time": 696, "is_downbeat": true}, {"time": 744, "is_downbeat": true}, {"time": 792, "is_downbeat": true}, {"time": 840, "is_downbeat": true}, {"time": 888, "is_downbeat": true}, {"time": 936, "is_downbeat": true}, {"time": 984, "is_downbeat": true}, {"time": 1032, "is_downbeat": true}, {"time": 1080, "is_downbeat": true}, {"time": 1128, "is_downbeat": true}, {"time": 1176, "is_downbeat": true}, {"time": 1224, "is_downbeat": true}, {"time": 1272, "is_downbeat": true}, {"time": 1320, "is_downbeat": true}, {"time": 1368, "is_downbeat": true}, {"time": 1416, "is_downbeat": true}, {"time": 1464, "is_downbeat": true}, {"time": 1512, "is_downbeat": true}, {"time": 1560, "is_downbeat": true}, {"time": 1608, "is_downbeat": true}, {"time": 1656, "is_downbeat": true}, {"time": 1704, "is_downbeat": true}, {"time": 1752, "is_downbeat": true}, {"time": 1800, "is_downbeat": true}, {"time": 1824, "is_downbeat": false}, {"time": 1848, "is_downbeat": true}, {"time": 1872, "is_downbeat": false}, {"time": 1896, "is_downbeat": true}, {"time": 1920, "is_downbeat": false}, {"time": 1944, "is_downbeat": true}, {"time": 1968, "is_downbeat": true}, {"time": 1992, "is_downbeat": true}, {"time": 2016, "is_downbeat": true}, {"time": 2040, "is_downbeat": true}, {"time": 2064, "is_downbeat": true}, {"time": 2088, "is_downbeat": true}], "tracks": [{"program": 0, "is_drum": false, "notes": [{"time": 0, "pitch": 62, "duration": 24, "velocity": 64}, {"time": 24, "pitch": 67, "duration": 24, "velocity": 64}, {"time": 48, "pitch": 66, "duration": 24, "velocity": 64}, {"time": 72, "pitch": 67, "duration": 48, "velocity": 64}, {"time": 120, "pitch": 69, "duration": 24, "velocity": 64}, {"time": 144, "pitch": 71, "duration": 24, "velocity": 64}, {"time": 168, "pitch": 67, "duration": 24, "velocity": 64}, {"time": 192, "pitch": 66, "duration": 24, "velocity": 64}, {"time": 216, "pitch": 67, "duration": 48, "velocity": 64}, {"time": 288, "pitch": 69, "duration": 24, "velocity": 64}, {"time": 312, "pitch": 70, "duration": 24, "velocity": 64}, {"time": 336, "pitch": 72, "duration": 24, "velocity": 64}, {"time": 360, "pitch": 69, "duration": 48, "velocity": 64}, {"time": 408, "pitch": 67, "duration": 24, "velocity": 64}, {"time": 432, "pitch": 70, "duration": 24, "velocity": 64}, {"time": 456, "pitch": 69, "duration": 48, "velocity": 64}, {"time": 576, "pitch": 62, "duration": 24, "velocity": 64}, {"time": 600, "pitch": 67, "duration": 24, "velocity": 64}, {"time": 624, "pitch": 66, "duration": 24, "velocity": 64}, {"time": 648, "pitch": 67, "duration": 48, "velocity": 64}, {"time": 696, "pitch": 69, "duration": 24, "velocity": 64}, {"time": 720, "pitch": 71, "duration": 24, "velocity": 64}, {"time": 744, "pitch": 67, "duration": 24, "velocity": 64}, {"time": 768, "pitch": 67, "duration": 12, "velocity": 64}, {"time": 780, "pitch": 66, "duration": 12, "velocity": 64}, {"time": 792, "pitch": 67, "duration": 48, "velocity": 64}, {"time": 864, "pitch": 69, "duration": 24, "velocity": 64}, {"time": 888, "pitch": 70, "duration": 12, "velocity": 64}, {"time": 900, "pitch": 71, "duration": 12, "velocity": 64}, {"time": 912, "pitch": 72, "duration": 24, "velocity": 64}, {"time": 936, "pitch": 69, "duration": 48, "velocity": 64}, {"time": 984, "pitch": 67, "duration": 24, "velocity": 64}, {"time": 1008, "pitch": 71, "duration": 24, "velocity": 64}, {"time": 1032, "pitch": 69, "duration": 48, "velocity": 64}, {"time": 1080, "pitch": 70, "duration": 24, "velocity": 64}, {"time": 1104, "pitch": 69, "duration": 24, "velocity": 64}, {"time": 1128, "pitch": 67, "duration": 24, "velocity": 64}, {"time": 1152, "pitch": 69, "duration": 24, "velocity": 64}, {"time": 1176, "pitch": 70, "duration": 48, "velocity": 64}, {"time": 1224, "pitch": 71, "duration": 24, "velocity": 64}, {"time": 1248, "pitch": 69, "duration": 24, "velocity": 64}, {"time": 1272, "pitch": 67, "duration": 48, "velocity": 64}, {"time": 1320, "pitch": 65, "duration": 24, "velocity": 64}, {"time": 1344, "pitch": 64, "duration": 24, "velocity": 64}, {"time": 1368, "pitch": 65, "duration": 48, "velocity": 64}, {"time": 1440, "pitch": 69, "duration": 24, "velocity": 64}, {"time": 1464, "pitch": 67, "duration": 48, "velocity": 64}, {"time": 1512, "pitch": 65, "duration": 24, "velocity": 64}, {"time": 1536, "pitch": 64, "duration": 24, "velocity": 64}, {"time": 1560, "pitch": 62, "duration": 24, "velocity": 64}, {"time": 1584, "pitch": 62, "duration": 24, "velocity": 64}, {"time": 1608, "pitch": 62, "duration": 48, "velocity": 64}, {"time": 1656, "pitch": 69, "duration": 72, "velocity": 64}, {"time": 1728, "pitch": 70, "duration": 24, "velocity": 64}, {"time": 1752, "pitch": 69, "duration": 48, "velocity": 64}, {"time": 1848, "pitch": 69, "duration": 48, "velocity": 64}, {"time": 1896, "pitch": 62, "duration": 24, "velocity": 64}, {"time": 1920, "pitch": 64, "duration": 24, "velocity": 64}, {"time": 1944, "pitch": 65, "duration": 48, "velocity": 64}, {"time": 1992, "pitch": 64, "duration": 48, "velocity": 64}, {"time": 2040, "pitch": 62, "duration": 48, "velocity": 64}]}]}