{"metadata": {"schema_version": "0.1", "title": "Wer wohl ein reicher Bauer will sein (3-47), S. 138", "source_format": "abc"}, "resolution": 24, "tempos": [{"time": 0, "qpm": 120.0}], "key_signatures": [{"time": 0, "root": 7, "mode": "major", "fifths": 1}], "time_signatures": [{"time": 0, "numerator": 2, "denominator": 2}], "beats": [{"time": 0, "is_downbeat": true}, {"time": 24, "is_downbeat": true}, {"time": 72, "is_downbeat": false}, {"time": 120, "is_downbeat": true}, {"time": 168, "is_downbeat": false}, {"time": 216, "is_downbeat": true}, {"time": 264, "is_downbeat": false}, {"time": 312, "is_downbeat": true}, {"time": 360, "is_downbeat": false}, {"time": 408, "is_downbeat": true}, {"time": 456, "is_downbeat": false}, {"time": 504, "is_downbeat": true}, {"time": 552, "is_downbeat": false}, {"time": 600, "is_downbeat": true}, {"time": 648, "is_downbeat": false}, {"time": 696, "is_downbeat": true}, {"time": 744, "is_downbeat": false}, {"time": 792, "is_downbeat": true}, {"time": 840, "is_downbeat": false}, {"time": 888, "is_downbeat": true}, {"time": 936, "is_downbeat": false}, {"time": 984, "is_downbeat": true}, {"time": 1032, "is_downbeat": false}], "tracks": [{"program": 0, "is_drum": false, "notes": [{"time": 0, "pitch": 65, "duration": 24, "velocity": 64}, {"time": 24, "pitch": 70, "duration": 24, "velocity": 64}, {"time": 48, "pitch": 71, "duration": 24, "velocity": 64}, {"time": 72, "pitch": 71, "duration": 24, "velocity": 64}, {"time": 96, "pitch": 65, "duration": 24, "velocity": 64}, {"time": 120, "pitch": 70, "duration": 12, "velocity": 64}, {"time": 132, "pitch": 71, "duration": 12, "velocity": 64}, {"time": 144, "pitch": 71, "duration": 24, "velocity": 64}, {"time": 168, "pitch": 71, "duration": 24, "velocity": 64}, {"time": 192, "pitch": 65, "duration": 24, "velocity": 64}, {"time": 216, "pitch": 70, "duration": 12, "velocity": 64}, {"time": 228, "pitch": 71, "duration": 12, "velocity": 64}, {"time": 240, "pitch": 72, "duration": 24, "velocity": 64}, {"time": 264, "pitch": 74, "duration": 12, "velocity": 64}, {"time": 276, "pitch": 74, "duration": 12, "velocity": 64}, {"time": 288, "pitch": 72, "duration": 24, "velocity": 64}, {"time": 312, "pitch": 65, "duration": 24, "velocity": 64}, {"time": 336, "pitch": 69, "duration": 24, "velocity": 64}, {"time": 360, "pitch": 70, "duration": 48, "velocity": 64}, {"time": 456, "pitch": 70, "duration": 48, "velocity": 64}, {"time": 504, "pitch": 74, "duration": 24, "velocity": 64}, {"time": 528, "pitch": 72, "duration": 24, "velocity": 64}, {"time": 552, "pitch": 70, "duration": 12, "velocity": 64}, {"time": 564, "pitch": 71, "duration": 12, "velocity": 64}, {"time": 576, "pitch": 74, "duration": 24, "velocity": 64}, {"time": 600, "pitch": 72, "duration": 48, "velocity": 64}, {"time": 648, "pitch": 67, "duration": 24, "velocity": 64}, {"time": 672, "pitch": 67, "duration": 24, "velocity": 64}, {"time": 696, "pitch": 63, "duration": 24, "velocity": 64}, {"time": 720, "pitch": 65, "duration": 24, "velocity": 64}, {"time": 744, "pitch": 67, "duration": 24, "velocity": 64}, {"time": 768, "pitch": 64, "duration": 24, "velocity": 64}, {"time": 792, "pitch": 67, "duration": 24, "velocity": 64}, {"time": 816, "pitch": 67, "duration": 24, "velocity": 64}, {"time": 840, "pitch": 67, "duration": 24, "velocity": 64}, {"time": 864, "pitch": 65, "duration": 24, "velocity": 64}, {"time": 888, "pitch": 70, "duration": 24, "velocity": 64}, {"time": 912, "pitch": 71, "duration": 24, "velocity": 64}, {"time": 936, "pitch": 67, "duration": 12, "velocity": 64}, {"time": 948, "pitch": 67, "duration": 12, "velocity": 64}, {"time": 960, "pitch": 65, "duration": 24, "velocity": 64}, {"time": 984, "pitch": 67, "duration": 48, "velocity": 64}, {"time": 1032, "pitch": 67, "duration": 24, "velocity": 64}]}]}