{"metadata": {"schema_version": "0.1", "title": "Grne Reben auf hohen Bergen (3-60), S. 173", "source_format": "abc"}, "resolution": 24, "tempos": [{"time": 0, "qpm": 120.0}], "key_signatures": [{"time": 0, "root": 7, "mode": "major", "fifths": 1}], "time_signatures": [{"time": 0, "numerator": 4, "denominator": 4}, {"time": 72, "numerator": 1, "denominator": 4}, {"time": 216, "numerator": 1, "denominator": 4}, {"time": 384, "numerator": 1, "denominator": 4}, {"time": 456, "numerator": 1, "denominator": 4}, {"time": 528, "numerator": 1, "denominator": 4}, {"time": 672, "numerator": 1, "denominator": 4}, {"time": 696, "numerator": 2, "denominator": 4}], "beats": [{"time": 0, "is_downbeat": true}, {"time": 24, "is_downbeat": true}, {"time": 48, "is_downbeat": true}, {"time": 72, "is_downbeat": true}, {"time": 96, "is_downbeat": true}, {"time": 120, "is_downbeat": true}, {"time": 144, "is_downbeat": true}, {"time": 168, "is_downbeat": true}, {"time": 192, "is_downbeat": true}, {"time": 216, "is_downbeat": true}, {"time": 240, "is_downbeat": true}, {"time": 264, "is_downbeat": true}, {"time": 288, "is_downbeat": true}, {"time": 312, "is_downbeat": true}, {"time": 336, "is_downbeat": true}, {"time": 360, "is_downbeat": true}, {"time": 384, "is_downbeat": true}, {"time": 408, "is_downbeat": true}, {"time": 432, "is_downbeat": true}, {"time": 456, "is_downbeat": true}, {"time": 480, "is_downbeat": true}, {"time": 504, "is_downbeat": true}, {"time": 528, "is_downbeat": true}, {"time": 552, "is_downbeat": true}, {"time": 576, "is_downbeat": true}, {"time": 600, "is_downbeat": true}, {"time": 624, "is_downbeat": true}, {"time": 648, "is_downbeat": true}, {"time": 672, "is_downbeat": true}, {"time": 696, "is_downbeat": true}, {"time": 720, "is_downbeat": false}], "tracks": [{"program": 0, "is_drum": false, "notes": [{"time": 0, "pitch": 62, "duration": 18, "velocity": 64}, {"time": 18, "pitch": 67, "duration": 6, "velocity": 64}, {"time": 24, "pitch": 67, "duration": 12, "velocity": 64}, {"time": 36, "pitch": 62, "duration": 12, "velocity": 64}, {"time": 48, "pitch": 62, "duration": 12, "velocity": 64}, {"time": 60, "pitch": 62, "duration": 12, "velocity": 64}, {"time": 72, "pitch": 67, "duration": 12, "velocity": 64}, {"time": 84, "pitch": 69, "duration": 12, "velocity": 64}, {"time": 96, "pitch": 71, "duration": 12, "velocity": 64}, {"time": 108, "pitch": 69, "duration": 12, "velocity": 64}, {"time": 120, "pitch": 67, "duration": 24, "velocity": 64}, {"time": 144, "pitch": 71, "duration": 18, "velocity": 64}, {"time": 162, "pitch": 72, "duration": 6, "velocity": 64}, {"time": 168, "pitch": 74, "duration": 24, "velocity": 64}, {"time": 192, "pitch": 72, "duration": 12, "velocity": 64}, {"time": 204, "pitch": 71, "duration": 12, "velocity": 64}, {"time": 216, "pitch": 67, "duration": 8, "velocity": 64}, {"time": 224, "pitch": 69, "duration": 8, "velocity": 64}, {"time": 232, "pitch": 71, "duration": 8, "velocity": 64}, {"time": 240, "pitch": 69, "duration": 24, "velocity": 64}, {"time": 288, "pitch": 67, "duration": 24, "velocity": 64}, {"time": 312, "pitch": 69, "duration": 12, "velocity": 64}, {"time": 324, "pitch": 71, "duration": 12, "velocity": 64}, {"time": 336, "pitch": 71, "duration": 18, "velocity": 64}, {"time": 354, "pitch": 71, "duration": 6, "velocity": 64}, {"time": 360, "pitch": 71, "duration": 18, "velocity": 64}, {"time": 378, "pitch": 74, "duration": 6, "velocity": 64}, {"time": 384, "pitch": 74, "duration": 8, "velocity": 64}, {"time": 392, "pitch": 72, "duration": 8, "velocity": 64}, {"time": 400, "pitch": 71, "duration": 8, "velocity": 64}, {"time": 408, "pitch": 71, "duration": 8, "velocity": 64}, {"time": 416, "pitch": 69, "duration": 8, "velocity": 64}, {"time": 424, "pitch": 71, "duration": 8, "velocity": 64}, {"time": 432, "pitch": 69, "duration": 24, "velocity": 64}, {"time": 456, "pitch": 71, "duration": 18, "velocity": 64}, {"time": 474, "pitch": 69, "duration": 6, "velocity": 64}, {"time": 480, "pitch": 67, "duration": 24, "velocity": 64}, {"time": 504, "pitch": 67, "duration": 18, "velocity": 64}, {"time": 522, "pitch": 69, "duration": 6, "velocity": 64}, {"time": 528, "pitch": 67, "duration": 8, "velocity": 64}, {"time": 536, "pitch": 66, "duration": 8, "velocity": 64}, {"time": 544, "pitch": 64, "duration": 8, "velocity": 64}, {"time": 552, "pitch": 62, "duration": 18, "velocity": 64}, {"time": 570, "pitch": 69, "duration": 6, "velocity": 64}, {"time": 576, "pitch": 69, "duration": 24, "velocity": 64}, {"time": 600, "pitch": 71, "duration": 18, "velocity": 64}, {"time": 618, "pitch": 69, "duration": 6, "velocity": 64}, {"time": 624, "pitch": 67, "duration": 12, "velocity": 64}, {"time": 636, "pitch": 69, "duration": 12, "velocity": 64}, {"time": 648, "pitch": 71, "duration": 12, "velocity": 64}, {"time": 660, "pitch": 69, "duration": 12, "velocity": 64}, {"time": 672, "pitch": 67, "duration": 18, "velocity": 64}, {"time": 690, "pitch": 66, "duration": 6, "velocity": 64}, {"time": 696, "pitch": 67, "duration": 24, "velocity": 64}]}]}