{"metadata": {"schema_version": "0.1", "title": "Zwischen Basel und dem Rheinstrom (3-85), S.235", "source_format": "abc"}, "resolution": 24, "tempos": [{"time": 0, "qpm": 120.0}], "key_signatures": [{"time": 0, "root": 7, "mode": "major", "fifths": 1}], "time_signatures": [{"time": 0, "numerator": 3, "denominator": 4}], "beats": [{"time": 0, "is_downbeat": true}, {"time": 24, "is_downbeat": true}, {"time": 48, "is_downbeat": false}, {"time": 72, "is_downbeat": false}, {"time": 96, "is_downbeat": true}, {"time": 120, "is_downbeat": false}, {"time": 144, "is_downbeat": false}, {"time": 168, "is_downbeat": true}, {"time": 192, "is_downbeat": false}, {"time": 216, "is_downbeat": false}, {"time": 240, "is_downbeat": true}, {"time": 264, "is_downbeat": false}, {"time": 288, "is_downbeat": false}, {"time": 312, "is_downbeat": true}, {"time": 336, "is_downbeat": false}, {"time": 360, "is_downbeat": false}, {"time": 384, "is_downbeat": true}, {"time": 408, "is_downbeat": false}, {"time": 432, "is_downbeat": false}, {"time": 456, "is_downbeat": true}, {"time": 480, "is_downbeat": false}, {"time": 504, "is_downbeat": false}, {"time": 528, "is_downbeat": true}, {"time": 552, "is_downbeat": false}, {"time": 576, "is_downbeat": false}, {"time": 600, "is_downbeat": true}, {"time": 624, "is_downbeat": false}, {"time": 648, "is_downbeat": false}, {"time": 672, "is_downbeat": true}, {"time": 696, "is_downbeat": false}, {"time": 720, "is_downbeat": false}, {"time": 744, "is_downbeat": true}, {"time": 768, "is_downbeat": false}, {"time": 792, "is_downbeat": false}, {"time": 816, "is_downbeat": true}, {"time": 840, "is_downbeat": false}, {"time": 864, "is_downbeat": false}, {"time": 888, "is_downbeat": true}, {"time": 912, "is_downbeat": false}, {"time": 936, "is_downbeat": false}, {"time": 960, "is_downbeat": true}, {"time": 984, "is_downbeat": false}, {"time": 1008, "is_downbeat": false}], "tracks": [{"program": 0, "is_drum": false, "notes": [{"time": 0, "pitch": 62, "duration": 18, "velocity": 64}, {"time": 18, "pitch": 62, "duration": 6, "velocity": 64}, {"time": 24, "pitch": 67, "duration": 24, "velocity": 64}, {"time": 48, "pitch": 67, "duration": 24, "velocity": 64}, {"time": 72, "pitch": 69, "duration": 18, "velocity": 64}, {"time": 90, "pitch": 69, "duration": 6, "velocity": 64}, {"time": 96, "pitch": 71, "duration": 24, "velocity": 64}, {"time": 120, "pitch": 71, "duration": 24, "velocity": 64}, {"time": 144, "pitch": 67, "duration": 18, "velocity": 64}, {"time": 162, "pitch": 69, "duration": 6, "velocity": 64}, {"time": 168, "pitch": 71, "duration": 24, "velocity": 64}, {"time": 192, "pitch": 74, "duration": 24, "velocity": 64}, {"time": 216, "pitch": 72, "duration": 12, "velocity": 64}, {"time": 228, "pitch": 76, "duration": 12, "velocity": 64}, {"time": 240, "pitch": 74, "duration": 48, "velocity": 64}, {"time": 312, "pitch": 74, "duration": 48, "velocity": 64}, {"time": 372, "pitch": 74, "duration": 12, "velocity": 64}, {"time": 384, "pitch": 76, "duration": 18, "velocity": 64}, {"time": 402, "pitch": 72, "duration": 6, "velocity": 64}, {"time": 408, "pitch": 72, "duration": 24, "velocity": 64}, {"time": 432, "pitch": 76, "duration": 24, "velocity": 64}, {"time": 456, "pitch": 74, "duration": 24, "velocity": 64}, {"time": 480, "pitch": 67, "duration": 24, "velocity": 64}, {"time": 504, "pitch": 67, "duration": 18, "velocity": 64}, {"time": 522, "pitch": 71, "duration": 6, "velocity": 64}, {"time": 528, "pitch": 74, "duration": 24, "velocity": 64}, {"time": 552, "pitch": 74, "duration": 24, "velocity": 64}, {"time": 576, "pitch": 72, "duration": 12, "velocity": 64}, {"time": 588, "pitch": 69, "duration": 12, "velocity": 64}, {"time": 600, "pitch": 71, "duration": 24, "velocity": 64}, {"time": 624, "pitch": 74, "duration": 24, "velocity": 64}, {"time": 672, "pitch": 74, "duration": 48, "velocity": 64}, {"time": 732, "pitch": 79, "duration": 12, "velocity": 64}, {"time": 744, "pitch": 76, "duration": 18, "velocity": 64}, {"time": 762, "pitch": 72, "duration": 6, "velocity": 64}, {"time": 768, "pitch": 72, "duration": 24, "velocity": 64}, {"time": 792, "pitch": 76, "duration": 24, "velocity": 64}, {"time": 816, "pitch": 74, "duration": 24, "velocity": 64}, {"time": 840, "pitch": 67, "duration": 24, "velocity": 64}, {"time": 864, "pitch": 67, "duration": 18, "velocity": 64}, {"time": 882, "pitch": 71, "duration": 6, "velocity": 64}, {"time": 888, "pitch": 74, "duration": 24, "velocity": 64}, {"time": 912, "pitch": 74, "duration": 24, "velocity": 64}, {"time": 936, "pitch": 72, "duration": 24, "velocity": 64}, {"time": 960, "pitch": 71, "duration": 48, "velocity": 64}]}]}