{"metadata": {"schema_version": "0.1", "title": "Der himmlische Jger  (4-1), S. 4", "source_format": "abc"}, "resolution": 24, "tempos": [{"time": 0, "qpm": 120.0}], "key_signatures": [{"time": 0, "root": 5, "mode": "major", "fifths": -1}], "time_signatures": [{"time": 0, "numerator": 4, "denominator": 4}], "beats": [{"time": 0, "is_downbeat": true}, {"time": 24, "is_downbeat": false}, {"time": 48, "is_downbeat": false}, {"time": 72, "is_downbeat": true}, {"time": 96, "is_downbeat": false}, {"time": 120, "is_downbeat": false}, {"time": 144, "is_downbeat": false}, {"time": 148, "is_downbeat": true}, {"time": 172, "is_downbeat": true}, {"time": 196, "is_downbeat": false}, {"time": 220, "is_downbeat": false}, {"time": 244, "is_downbeat": false}, {"time": 268, "is_downbeat": true}, {"time": 292, "is_downbeat": false}, {"time": 316, "is_downbeat": false}, {"time": 340, "is_downbeat": false}, {"time": 364, "is_downbeat": true}, {"time": 388, "is_downbeat": false}, {"time": 412, "is_downbeat": false}, {"time": 436, "is_downbeat": false}, {"time": 460, "is_downbeat": true}, {"time": 484, "is_downbeat": false}, {"time": 508, "is_downbeat": false}, {"time": 532, "is_downbeat": false}, {"time": 556, "is_downbeat": true}, {"time": 580, "is_downbeat": false}, {"time": 604, "is_downbeat": false}, {"time": 628, "is_downbeat": false}, {"time": 652, "is_downbeat": true}, {"time": 676, "is_downbeat": false}, {"time": 700, "is_downbeat": false}, {"time": 724, "is_downbeat": false}], "tracks": [{"program": 0, "is_drum": false, "notes": [{"time": 0, "pitch": 60, "duration": 24, "velocity": 64}, {"time": 24, "pitch": 65, "duration": 24, "velocity": 64}, {"time": 48, "pitch": 67, "duration": 12, "velocity": 64}, {"time": 60, "pitch": 69, "duration": 12, "velocity": 64}, {"time": 72, "pitch": 65, "duration": 24, "velocity": 64}, {"time": 96, "pitch": 65, "duration": 8, "velocity": 64}, {"time": 104, "pitch": 69, "duration": 8, "velocity": 64}, {"time": 112, "pitch": 70, "duration": 12, "velocity": 64}, {"time": 124, "pitch": 72, "duration": 24, "velocity": 64}, {"time": 148, "pitch": 65, "duration": 12, "velocity": 64}, {"time": 160, "pitch": 69, "duration": 12, "velocity": 64}, {"time": 172, "pitch": 72, "duration": 24, "velocity": 64}, {"time": 196, "pitch": 74, "duration": 8, "velocity": 64}, {"time": 204, "pitch": 72, "duration": 16, "velocity": 64}, {"time": 220, "pitch": 65, "duration": 12, "velocity": 64}, {"time": 232, "pitch": 69, "duration": 12, "velocity": 64}, {"time": 244, "pitch": 67, "duration": 24, "velocity": 64}, {"time": 268, "pitch": 69, "duration": 24, "velocity": 64}, {"time": 340, "pitch": 65, "duration": 12, "velocity": 64}, {"time": 352, "pitch": 69, "duration": 12, "velocity": 64}, {"time": 364, "pitch": 72, "duration": 36, "velocity": 64}, {"time": 400, "pitch": 72, "duration": 12, "velocity": 64}, {"time": 412, "pitch": 72, "duration": 24, "velocity": 64}, {"time": 436, "pitch": 69, "duration": 12, "velocity": 64}, {"time": 448, "pitch": 67, "duration": 12, "velocity": 64}, {"time": 460, "pitch": 65, "duration": 18, "velocity": 64}, {"time": 478, "pitch": 67, "duration": 6, "velocity": 64}, {"time": 484, "pitch": 69, "duration": 12, "velocity": 64}, {"time": 496, "pitch": 72, "duration": 12, "velocity": 64}, {"time": 508, "pitch": 67, "duration": 24, "velocity": 64}, {"time": 532, "pitch": 72, "duration": 18, "velocity": 64}, {"time": 550, "pitch": 74, "duration": 6, "velocity": 64}, {"time": 556, "pitch": 72, "duration": 24, "velocity": 64}, {"time": 580, "pitch": 72, "duration": 12, "velocity": 64}, {"time": 592, "pitch": 70, "duration": 12, "velocity": 64}, {"time": 604, "pitch": 69, "duration": 24, "velocity": 64}, {"time": 628, "pitch": 67, "duration": 24, "velocity": 64}, {"time": 652, "pitch": 65, "duration": 24, "velocity": 64}]}]}