{"metadata": {"schema_version": "0.1", "title": "Herr und Knecht (4-18), S. 27", "source_format": "abc"}, "resolution": 24, "tempos": [{"time": 0, "qpm": 120.0}], "key_signatures": [{"time": 0, "root": 4, "mode": "major", "fifths": 4}], "time_signatures": [{"time": 0, "numerator": 3, "denominator": 4}], "beats": [{"time": 0, "is_downbeat": true}, {"time": 24, "is_downbeat": false}, {"time": 36, "is_downbeat": true}, {"time": 60, "is_downbeat": false}, {"time": 84, "is_downbeat": false}, {"time": 108, "is_downbeat": true}, {"time": 132, "is_downbeat": false}, {"time": 156, "is_downbeat": false}, {"time": 180, "is_downbeat": true}, {"time": 204, "is_downbeat": false}, {"time": 228, "is_downbeat": false}, {"time": 252, "is_downbeat": true}, {"time": 276, "is_downbeat": false}, {"time": 300, "is_downbeat": false}, {"time": 324, "is_downbeat": true}, {"time": 348, "is_downbeat": false}, {"time": 372, "is_downbeat": false}, {"time": 396, "is_downbeat": true}, {"time": 420, "is_downbeat": false}, {"time": 444, "is_downbeat": false}], "tracks": [{"program": 0, "is_drum": false, "notes": [{"time": 0, "pitch": 59, "duration": 12, "velocity": 64}, {"time": 12, "pitch": 64, "duration": 12, "velocity": 64}, {"time": 24, "pitch": 66, "duration": 12, "velocity": 64}, {"time": 36, "pitch": 68, "duration": 24, "velocity": 64}, {"time": 60, "pitch": 66, "duration": 24, "velocity": 64}, {"time": 84, "pitch": 64, "duration": 12, "velocity": 64}, {"time": 96, "pitch": 68, "duration": 12, "velocity": 64}, {"time": 108, "pitch": 66, "duration": 24, "velocity": 64}, {"time": 144, "pitch": 64, "duration": 12, "velocity": 64}, {"time": 156, "pitch": 64, "duration": 12, "velocity": 64}, {"time": 168, "pitch": 68, "duration": 6, "velocity": 64}, {"time": 174, "pitch": 71, "duration": 6, "velocity": 64}, {"time": 180, "pitch": 71, "duration": 24, "velocity": 64}, {"time": 204, "pitch": 71, "duration": 12, "velocity": 64}, {"time": 216, "pitch": 76, "duration": 12, "velocity": 64}, {"time": 228, "pitch": 73, "duration": 12, "velocity": 64}, {"time": 240, "pitch": 71, "duration": 12, "velocity": 64}, {"time": 252, "pitch": 69, "duration": 36, "velocity": 64}, {"time": 288, "pitch": 68, "duration": 12, "velocity": 64}, {"time": 300, "pitch": 66, "duration": 8, "velocity": 64}, {"time": 308, "pitch": 68, "duration": 8, "velocity": 64}, {"time": 316, "pitch": 66, "duration": 8, "velocity": 64}, {"time": 324, "pitch": 69, "duration": 24, "velocity": 64}, {"time": 348, "pitch": 71, "duration": 24, "velocity": 64}, {"time": 372, "pitch": 66, "duration": 8, "velocity": 64}, {"time": 380, "pitch": 68, "duration": 8, "velocity": 64}, {"time": 388, "pitch": 66, "duration": 8, "velocity": 64}, {"time": 396, "pitch": 64, "duration": 36, "velocity": 64}]}]}