{"metadata": {"schema_version": "0.1", "title": "Ach, wie scheint der Mond so schn (4-54), S. 72", "source_format": "abc"}, "resolution": 24, "tempos": [{"time": 0, "qpm": 120.0}], "key_signatures": [{"time": 0, "root": 7, "mode": "major", "fifths": 1}], "time_signatures": [{"time": 0, "numerator": 4, "denominator": 4}, {"time": 288, "numerator": 1, "denominator": 4}, {"time": 360, "numerator": 1, "denominator": 4}, {"time": 432, "numerator": 4, "denominator": 4}, {"time": 576, "numerator": 4, "denominator": 4}, {"time": 672, "numerator": 2, "denominator": 4}], "beats": [{"time": 0, "is_downbeat": true}, {"time": 24, "is_downbeat": true}, {"time": 48, "is_downbeat": true}, {"time": 72, "is_downbeat": true}, {"time": 96, "is_downbeat": true}, {"time": 120, "is_downbeat": true}, {"time": 144, "is_downbeat": true}, {"time": 168, "is_downbeat": true}, {"time": 192, "is_downbeat": true}, {"time": 216, "is_downbeat": true}, {"time": 240, "is_downbeat": true}, {"time": 264, "is_downbeat": true}, {"time": 288, "is_downbeat": true}, {"time": 312, "is_downbeat": true}, {"time": 336, "is_downbeat": true}, {"time": 360, "is_downbeat": true}, {"time": 384, "is_downbeat": true}, {"time": 408, "is_downbeat": false}, {"time": 432, "is_downbeat": true}, {"time": 456, "is_downbeat": false}, {"time": 480, "is_downbeat": false}, {"time": 504, "is_downbeat": false}, {"time": 528, "is_downbeat": true}, {"time": 552, "is_downbeat": false}, {"time": 576, "is_downbeat": true}, {"time": 600, "is_downbeat": false}, {"time": 624, "is_downbeat": true}, {"time": 648, "is_downbeat": false}, {"time": 672, "is_downbeat": true}, {"time": 696, "is_downbeat": false}], "tracks": [{"program": 0, "is_drum": false, "notes": [{"time": 0, "pitch": 74, "duration": 18, "velocity": 64}, {"time": 18, "pitch": 72, "duration": 6, "velocity": 64}, {"time": 24, "pitch": 74, "duration": 18, "velocity": 64}, {"time": 42, "pitch": 72, "duration": 6, "velocity": 64}, {"time": 48, "pitch": 74, "duration": 12, "velocity": 64}, {"time": 60, "pitch": 74, "duration": 12, "velocity": 64}, {"time": 72, "pitch": 67, "duration": 24, "velocity": 64}, {"time": 96, "pitch": 67, "duration": 24, "velocity": 64}, {"time": 120, "pitch": 71, "duration": 18, "velocity": 64}, {"time": 138, "pitch": 69, "duration": 6, "velocity": 64}, {"time": 144, "pitch": 66, "duration": 12, "velocity": 64}, {"time": 156, "pitch": 67, "duration": 12, "velocity": 64}, {"time": 168, "pitch": 69, "duration": 24, "velocity": 64}, {"time": 192, "pitch": 74, "duration": 12, "velocity": 64}, {"time": 204, "pitch": 74, "duration": 6, "velocity": 64}, {"time": 210, "pitch": 74, "duration": 6, "velocity": 64}, {"time": 216, "pitch": 76, "duration": 12, "velocity": 64}, {"time": 228, "pitch": 71, "duration": 12, "velocity": 64}, {"time": 240, "pitch": 66, "duration": 12, "velocity": 64}, {"time": 252, "pitch": 67, "duration": 6, "velocity": 64}, {"time": 258, "pitch": 67, "duration": 6, "velocity": 64}, {"time": 264, "pitch": 69, "duration": 12, "velocity": 64}, {"time": 276, "pitch": 69, "duration": 12, "velocity": 64}, {"time": 288, "pitch": 69, "duration": 12, "velocity": 64}, {"time": 300, "pitch": 67, "duration": 12, "velocity": 64}, {"time": 312, "pitch": 66, "duration": 12, "velocity": 64}, {"time": 324, "pitch": 69, "duration": 12, "velocity": 64}, {"time": 336, "pitch": 62, "duration": 12, "velocity": 64}, {"time": 348, "pitch": 62, "duration": 12, "velocity": 64}, {"time": 360, "pitch": 69, "duration": 12, "velocity": 64}, {"time": 372, "pitch": 67, "duration": 12, "velocity": 64}, {"time": 384, "pitch": 66, "duration": 24, "velocity": 64}, {"time": 408, "pitch": 69, "duration": 24, "velocity": 64}, {"time": 432, "pitch": 62, "duration": 24, "velocity": 64}, {"time": 456, "pitch": 74, "duration": 18, "velocity": 64}, {"time": 474, "pitch": 72, "duration": 6, "velocity": 64}, {"time": 480, "pitch": 71, "duration": 12, "velocity": 64}, {"time": 492, "pitch": 74, "duration": 12, "velocity": 64}, {"time": 504, "pitch": 67, "duration": 24, "velocity": 64}, {"time": 528, "pitch": 69, "duration": 18, "velocity": 64}, {"time": 546, "pitch": 67, "duration": 6, "velocity": 64}, {"time": 552, "pitch": 66, "duration": 12, "velocity": 64}, {"time": 564, "pitch": 67, "duration": 12, "velocity": 64}, {"time": 576, "pitch": 69, "duration": 24, "velocity": 64}, {"time": 600, "pitch": 74, "duration": 18, "velocity": 64}, {"time": 618, "pitch": 72, "duration": 6, "velocity": 64}, {"time": 624, "pitch": 78, "duration": 12, "velocity": 64}, {"time": 636, "pitch": 76, "duration": 12, "velocity": 64}, {"time": 648, "pitch": 74, "duration": 8, "velocity": 64}, {"time": 656, "pitch": 72, "duration": 8, "velocity": 64}, {"time": 664, "pitch": 66, "duration": 8, "velocity": 64}, {"time": 672, "pitch": 67, "duration": 48, "velocity": 64}]}]}