{"metadata": {"schema_version": "0.1", "title": "Jud und Pfarrer (4-94), S. 123", "source_format": "abc"}, "resolution": 24, "tempos": [{"time": 0, "qpm": 120.0}], "key_signatures": [{"time": 0, "root": 7, "mode": "major", "fifths": 1}], "time_signatures": [{"time": 0, "numerator": 4, "denominator": 4}], "tracks": [{"program": 0, "is_drum": false, "notes": [{"time": 0, "pitch": 62, "duration": 24, "velocity": 64}, {"time": 24, "pitch": 62, "duration": 36, "velocity": 64}, {"time": 60, "pitch": 67, "duration": 12, "velocity": 64}, {"time": 72, "pitch": 67, "duration": 24, "velocity": 64}, {"time": 96, "pitch": 67, "duration": 24, "velocity": 64}, {"time": 120, "pitch": 64, "duration": 24, "velocity": 64}, {"time": 144, "pitch": 67, "duration": 24, "velocity": 64}, {"time": 168, "pitch": 69, "duration": 36, "velocity": 64}, {"time": 204, "pitch": 67, "duration": 12, "velocity": 64}, {"time": 216, "pitch": 72, "duration": 24, "velocity": 64}, {"time": 240, "pitch": 71, "duration": 24, "velocity": 64}, {"time": 264, "pitch": 69, "duration": 24, "velocity": 64}, {"time": 288, "pitch": 67, "duration": 24, "velocity": 64}, {"time": 312, "pitch": 69, "duration": 48, "velocity": 64}, {"time": 360, "pitch": 62, "duration": 24, "velocity": 64}, {"time": 384, "pitch": 62, "duration": 24, "velocity": 64}, {"time": 408, "pitch": 67, "duration": 24, "velocity": 64}, {"time": 432, "pitch": 67, "duration": 12, "velocity": 64}, {"time": 444, "pitch": 67, "duration": 12, "velocity": 64}, {"time": 456, "pitch": 67, "duration": 24, "velocity": 64}, {"time": 480, "pitch": 64, "duration": 24, "velocity": 64}, {"time": 504, "pitch": 67, "duration": 24, "velocity": 64}, {"time": 528, "pitch": 69, "duration": 48, "velocity": 64}, {"time": 576, "pitch": 62, "duration": 24, "velocity": 64}, {"time": 600, "pitch": 62, "duration": 24, "velocity": 64}, {"time": 624, "pitch": 62, "duration": 24, "velocity": 64}, {"time": 648, "pitch": 67, "duration": 24, "velocity": 64}, {"time": 672, "pitch": 67, "duration": 24, "velocity": 64}, {"time": 696, "pitch": 64, "duration": 24, "velocity": 64}, {"time": 720, "pitch": 67, "duration": 24, "velocity": 64}, {"time": 744, "pitch": 69, "duration": 36, "velocity": 64}, {"time": 780, "pitch": 67, "duration": 12, "velocity": 64}, {"time": 792, "pitch": 72, "duration": 24, "velocity": 64}, {"time": 816, "pitch": 71, "duration": 24, "velocity": 64}, {"time": 840, "pitch": 69, "duration": 24, "velocity": 64}, {"time": 864, "pitch": 67, "duration": 24, "velocity": 64}, {"time": 888, "pitch": 69, "duration": 24, "velocity": 64}]}]}