{"metadata": {"schema_version": "0.1", "title": "Judenvesper (4-95), S. 126", "source_format": "abc"}, "resolution": 24, "tempos": [{"time": 0, "qpm": 120.0}], "key_signatures": [{"time": 0, "root": 5, "mode": "major", "fifths": -1}], "time_signatures": [{"time": 0, "numerator": 2, "denominator": 4}], "beats": [{"time": 0, "is_downbeat": true}, {"time": 24, "is_downbeat": true}, {"time": 48, "is_downbeat": false}, {"time": 72, "is_downbeat": true}, {"time": 96, "is_downbeat": false}, {"time": 120, "is_downbeat": true}, {"time": 144, "is_downbeat": false}, {"time": 168, "is_downbeat": true}, {"time": 192, "is_downbeat": false}, {"time": 216, "is_downbeat": true}, {"time": 240, "is_downbeat": false}, {"time": 264, "is_downbeat": true}, {"time": 288, "is_downbeat": false}, {"time": 312, "is_downbeat": true}, {"time": 336, "is_downbeat": false}, {"time": 360, "is_downbeat": true}, {"time": 384, "is_downbeat": false}, {"time": 408, "is_downbeat": true}, {"time": 432, "is_downbeat": false}, {"time": 456, "is_downbeat": true}, {"time": 480, "is_downbeat": false}, {"time": 504, "is_downbeat": true}, {"time": 528, "is_downbeat": false}, {"time": 552, "is_downbeat": true}, {"time": 576, "is_downbeat": false}, {"time": 600, "is_downbeat": true}, {"time": 624, "is_downbeat": false}, {"time": 648, "is_downbeat": true}, {"time": 672, "is_downbeat": false}, {"time": 696, "is_downbeat": true}, {"time": 720, "is_downbeat": false}, {"time": 744, "is_downbeat": true}, {"time": 768, "is_downbeat": false}], "tracks": [{"program": 0, "is_drum": false, "notes": [{"time": 0, "pitch": 60, "duration": 24, "velocity": 64}, {"time": 24, "pitch": 65, "duration": 24, "velocity": 64}, {"time": 48, "pitch": 65, "duration": 24, "velocity": 64}, {"time": 72, "pitch": 64, "duration": 24, "velocity": 64}, {"time": 96, "pitch": 64, "duration": 24, "velocity": 64}, {"time": 120, "pitch": 62, "duration": 24, "velocity": 64}, {"time": 144, "pitch": 62, "duration": 24, "velocity": 64}, {"time": 168, "pitch": 60, "duration": 24, "velocity": 64}, {"time": 216, "pitch": 62, "duration": 48, "velocity": 64}, {"time": 264, "pitch": 60, "duration": 12, "velocity": 64}, {"time": 276, "pitch": 60, "duration": 12, "velocity": 64}, {"time": 288, "pitch": 60, "duration": 24, "velocity": 64}, {"time": 312, "pitch": 58, "duration": 12, "velocity": 64}, {"time": 324, "pitch": 58, "duration": 12, "velocity": 64}, {"time": 336, "pitch": 58, "duration": 24, "velocity": 64}, {"time": 360, "pitch": 57, "duration": 36, "velocity": 64}, {"time": 408, "pitch": 65, "duration": 16, "velocity": 64}, {"time": 424, "pitch": 65, "duration": 16, "velocity": 64}, {"time": 440, "pitch": 65, "duration": 16, "velocity": 64}, {"time": 456, "pitch": 67, "duration": 16, "velocity": 64}, {"time": 472, "pitch": 67, "duration": 16, "velocity": 64}, {"time": 488, "pitch": 67, "duration": 16, "velocity": 64}, {"time": 504, "pitch": 69, "duration": 24, "velocity": 64}, {"time": 528, "pitch": 69, "duration": 24, "velocity": 64}, {"time": 552, "pitch": 72, "duration": 36, "velocity": 64}, {"time": 600, "pitch": 65, "duration": 48, "velocity": 64}, {"time": 648, "pitch": 67, "duration": 16, "velocity": 64}, {"time": 664, "pitch": 67, "duration": 16, "velocity": 64}, {"time": 680, "pitch": 67, "duration": 16, "velocity": 64}, {"time": 696, "pitch": 64, "duration": 12, "velocity": 64}, {"time": 708, "pitch": 64, "duration": 12, "velocity": 64}, {"time": 720, "pitch": 64, "duration": 24, "velocity": 64}, {"time": 744, "pitch": 65, "duration": 24, "velocity": 64}]}]}