{"metadata": {"schema_version": "0.1", "title": "Der Rwelmann (4-100), S. 136", "source_format": "abc"}, "resolution": 24, "tempos": [{"time": 0, "qpm": 120.0}], "key_signatures": [{"time": 0, "root": 7, "mode": "major", "fifths": 1}], "time_signatures": [{"time": 0, "numerator": 2, "denominator": 2}], "beats": [{"time": 0, "is_downbeat": true}, {"time": 24, "is_downbeat": true}, {"time": 72, "is_downbeat": false}, {"time": 120, "is_downbeat": true}, {"time": 168, "is_downbeat": false}, {"time": 216, "is_downbeat": true}, {"time": 264, "is_downbeat": false}, {"time": 312, "is_downbeat": true}, {"time": 360, "is_downbeat": false}, {"time": 408, "is_downbeat": true}, {"time": 456, "is_downbeat": false}, {"time": 504, "is_downbeat": true}, {"time": 552, "is_downbeat": false}, {"time": 600, "is_downbeat": true}, {"time": 648, "is_downbeat": false}, {"time": 696, "is_downbeat": true}, {"time": 744, "is_downbeat": false}, {"time": 792, "is_downbeat": true}, {"time": 840, "is_downbeat": false}, {"time": 888, "is_downbeat": true}, {"time": 936, "is_downbeat": false}, {"time": 984, "is_downbeat": true}, {"time": 1032, "is_downbeat": false}, {"time": 1080, "is_downbeat": true}, {"time": 1128, "is_downbeat": false}, {"time": 1176, "is_downbeat": true}, {"time": 1224, "is_downbeat": false}, {"time": 1272, "is_downbeat": true}, {"time": 1320, "is_downbeat": false}, {"time": 1368, "is_downbeat": true}, {"time": 1416, "is_downbeat": false}, {"time": 1464, "is_downbeat": true}, {"time": 1512, "is_downbeat": false}, {"time": 1560, "is_downbeat": true}, {"time": 1608, "is_downbeat": false}, {"time": 1656, "is_downbeat": true}, {"time": 1704, "is_downbeat": false}, {"time": 1752, "is_downbeat": true}, {"time": 1800, "is_downbeat": false}, {"time": 1848, "is_downbeat": true}, {"time": 1896, "is_downbeat": false}, {"time": 1920, "is_downbeat": true}, {"time": 1944, "is_downbeat": true}, {"time": 1992, "is_downbeat": false}, {"time": 2040, "is_downbeat": true}, {"time": 2088, "is_downbeat": false}, {"time": 2136, "is_downbeat": true}, {"time": 2184, "is_downbeat": false}, {"time": 2232, "is_downbeat": true}, {"time": 2280, "is_downbeat": false}, {"time": 2304, "is_downbeat": true}, {"time": 2328, "is_downbeat": true}, {"time": 2376, "is_downbeat": false}, {"time": 2424, "is_downbeat": true}, {"time": 2472, "is_downbeat": false}], "tracks": [{"program": 0, "is_drum": false, "notes": [{"time": 0, "pitch": 62, "duration": 24, "velocity": 64}, {"time": 24, "pitch": 67, "duration": 12, "velocity": 64}, {"time": 36, "pitch": 67, "duration": 12, "velocity": 64}, {"time": 48, "pitch": 67, "duration": 24, "velocity": 64}, {"time": 72, "pitch": 67, "duration": 24, "velocity": 64}, {"time": 96, "pitch": 67, "duration": 24, "velocity": 64}, {"time": 120, "pitch": 67, "duration": 24, "velocity": 64}, {"time": 144, "pitch": 64, "duration": 24, "velocity": 64}, {"time": 168, "pitch": 62, "duration": 24, "velocity": 64}, {"time": 192, "pitch": 62, "duration": 24, "velocity": 64}, {"time": 216, "pitch": 64, "duration": 24, "velocity": 64}, {"time": 240, "pitch": 64, "duration": 24, "velocity": 64}, {"time": 264, "pitch": 64, "duration": 24, "velocity": 64}, {"time": 288, "pitch": 64, "duration": 24, "velocity": 64}, {"time": 312, "pitch": 62, "duration": 48, "velocity": 64}, {"time": 360, "pitch": 59, "duration": 24, "velocity": 64}, {"time": 384, "pitch": 62, "duration": 12, "velocity": 64}, {"time": 396, "pitch": 62, "duration": 12, "velocity": 64}, {"time": 408, "pitch": 67, "duration": 48, "velocity": 64}, {"time": 456, "pitch": 67, "duration": 24, "velocity": 64}, {"time": 480, "pitch": 67, "duration": 24, "velocity": 64}, {"time": 504, "pitch": 67, "duration": 48, "velocity": 64}, {"time": 552, "pitch": 66, "duration": 24, "velocity": 64}, {"time": 576, "pitch": 64, "duration": 24, "velocity": 64}, {"time": 600, "pitch": 64, "duration": 24, "velocity": 64}, {"time": 624, "pitch": 62, "duration": 24, "velocity": 64}, {"time": 648, "pitch": 64, "duration": 24, "velocity": 64}, {"time": 672, "pitch": 66, "duration": 24, "velocity": 64}, {"time": 696, "pitch": 67, "duration": 48, "velocity": 64}, {"time": 744, "pitch": 67, "duration": 24, "velocity": 64}, {"time": 768, "pitch": 62, "duration": 12, "velocity": 64}, {"time": 780, "pitch": 62, "duration": 12, "velocity": 64}, {"time": 792, "pitch": 67, "duration": 48, "velocity": 64}, {"time": 840, "pitch": 67, "duration": 24, "velocity": 64}, {"time": 864, "pitch": 67, "duration": 24, "velocity": 64}, {"time": 888, "pitch": 67, "duration": 48, "velocity": 64}, {"time": 936, "pitch": 66, "duration": 24, "velocity": 64}, {"time": 960, "pitch": 66, "duration": 24, "velocity": 64}, {"time": 984, "pitch": 66, "duration": 24, "velocity": 64}, {"time": 1008, "pitch": 62, "duration": 24, "velocity": 64}, {"time": 1032, "pitch": 64, "duration": 24, "velocity": 64}, {"time": 1056, "pitch": 66, "duration": 24, "velocity": 64}, {"time": 1080, "pitch": 67, "duration": 48, "velocity": 64}, {"time": 1128, "pitch": 67, "duration": 24, "velocity": 64}, {"time": 1152, "pitch": 62, "duration": 24, "velocity": 64}, {"time": 1176, "pitch": 62, "duration": 24, "velocity": 64}, {"time": 1200, "pitch": 67, "duration": 24, "velocity": 64}, {"time": 1224, "pitch": 67, "duration": 24, "velocity": 64}, {"time": 1248, "pitch": 67, "duration": 24, "velocity": 64}, {"time": 1272, "pitch": 67, "duration": 24, "velocity": 64}, {"time": 1296, "pitch": 64, "duration": 24, "velocity": 64}, {"time": 1320, "pitch": 62, "duration": 24, "velocity": 64}, {"time": 1344, "pitch": 62, "duration": 24, "velocity": 64}, {"time": 1368, "pitch": 67, "duration": 24, "velocity": 64}, {"time": 1392, "pitch": 62, "duration": 24, "velocity": 64}, {"time": 1416, "pitch": 67, "duration": 12, "velocity": 64}, {"time": 1428, "pitch": 67, "duration": 12, "velocity": 64}, {"time": 1440, "pitch": 62, "duration": 24, "velocity": 64}, {"time": 1464, "pitch": 67, "duration": 24, "velocity": 64}, {"time": 1488, "pitch": 71, "duration": 24, "velocity": 64}, {"time": 1512, "pitch": 74, "duration": 24, "velocity": 64}, {"time": 1536, "pitch": 72, "duration": 24, "velocity": 64}, {"time": 1560, "pitch": 71, "duration": 24, "velocity": 64}, {"time": 1584, "pitch": 71, "duration": 24, "velocity": 64}, {"time": 1608, "pitch": 69, "duration": 24, "velocity": 64}, {"time": 1632, "pitch": 69, "duration": 24, "velocity": 64}, {"time": 1656, "pitch": 67, "duration": 48, "velocity": 64}, {"time": 1728, "pitch": 67, "duration": 24, "velocity": 64}, {"time": 1752, "pitch": 66, "duration": 24, "velocity": 64}, {"time": 1776, "pitch": 67, "duration": 24, "velocity": 64}, {"time": 1800, "pitch": 69, "duration": 12, "velocity": 64}, {"time": 1812, "pitch": 69, "duration": 12, "velocity": 64}, {"time": 1824, "pitch": 66, "duration": 24, "velocity": 64}, {"time": 1848, "pitch": 67, "duration": 24, "velocity": 64}, {"time": 1872, "pitch": 71, "duration": 24, "velocity": 64}, {"time": 1896, "pitch": 74, "duration": 24, "velocity": 64}, {"time": 1920, "pitch": 79, "duration": 24, "velocity": 64}, {"time": 1944, "pitch": 66, "duration": 24, "velocity": 64}, {"time": 1968, "pitch": 69, "duration": 24, "velocity": 64}, {"time": 1992, "pitch": 72, "duration": 12, "velocity": 64}, {"time": 2004, "pitch": 72, "duration": 12, "velocity": 64}, {"time": 2016, "pitch": 66, "duration": 24, "velocity": 64}, {"time": 2040, "pitch": 67, "duration": 12, "velocity": 64}, {"time": 2052, "pitch": 67, "duration": 12, "velocity": 64}, {"time": 2064, "pitch": 71, "duration": 24, "velocity": 64}, {"time": 2088, "pitch": 74, "duration": 24, "velocity": 64}, {"time": 2136, "pitch": 79, "duration": 48, "velocity": 64}, {"time": 2184, "pitch": 76, "duration": 48, "velocity": 64}, {"time": 2232, "pitch": 74, "duration": 48, "velocity": 64}, {"time": 2304, "pitch": 72, "duration": 24, "velocity": 64}, {"time": 2328, "pitch": 71, "duration": 24, "velocity": 64}, {"time": 2352, "pitch": 71, "duration": 24, "velocity": 64}, {"time": 2376, "pitch": 69, "duration": 24, "velocity": 64}, {"time": 2400, "pitch": 69, "duration": 24, "velocity": 64}, {"time": 2424, "pitch": 67, "duration": 48, "velocity": 64}]}]}