{"metadata": {"schema_version": "0.1", "title": "Regina wollt' in den Garten gehn (5-19), S. 38", "source_format": "abc"}, "resolution": 24, "tempos": [{"time": 0, "qpm": 120.0}], "key_signatures": [{"time": 0, "root": 4, "mode": "major", "fifths": 4}], "time_signatures": [{"time": 0, "numerator": 4, "denominator": 4}], "beats": [{"time": 0, "is_downbeat": true}, {"time": 24, "is_downbeat": true}, {"time": 48, "is_downbeat": false}, {"time": 72, "is_downbeat": false}, {"time": 96, "is_downbeat": false}, {"time": 120, "is_downbeat": true}, {"time": 144, "is_downbeat": false}, {"time": 168, "is_downbeat": false}, {"time": 192, "is_downbeat": false}, {"time": 216, "is_downbeat": true}, {"time": 240, "is_downbeat": false}, {"time": 264, "is_downbeat": false}, {"time": 288, "is_downbeat": false}, {"time": 312, "is_downbeat": true}, {"time": 336, "is_downbeat": false}, {"time": 360, "is_downbeat": false}, {"time": 384, "is_downbeat": false}, {"time": 408, "is_downbeat": true}, {"time": 432, "is_downbeat": false}, {"time": 456, "is_downbeat": false}, {"time": 480, "is_downbeat": false}, {"time": 488, "is_downbeat": true}, {"time": 512, "is_downbeat": false}, {"time": 536, "is_downbeat": false}, {"time": 560, "is_downbeat": false}, {"time": 584, "is_downbeat": true}, {"time": 608, "is_downbeat": false}, {"time": 632, "is_downbeat": false}, {"time": 656, "is_downbeat": false}, {"time": 680, "is_downbeat": true}, {"time": 704, "is_downbeat": false}, {"time": 728, "is_downbeat": false}, {"time": 752, "is_downbeat": false}, {"time": 776, "is_downbeat": true}, {"time": 800, "is_downbeat": false}, {"time": 824, "is_downbeat": false}, {"time": 848, "is_downbeat": false}], "tracks": [{"program": 0, "is_drum": false, "notes": [{"time": 0, "pitch": 67, "duration": 12, "velocity": 64}, {"time": 12, "pitch": 66, "duration": 12, "velocity": 64}, {"time": 24, "pitch": 64, "duration": 12, "velocity": 64}, {"time": 36, "pitch": 62, "duration": 12, "velocity": 64}, {"time": 48, "pitch": 64, "duration": 24, "velocity": 64}, {"time": 72, "pitch": 71, "duration": 24, "velocity": 64}, {"time": 96, "pitch": 69, "duration": 12, "velocity": 64}, {"time": 108, "pitch": 72, "duration": 12, "velocity": 64}, {"time": 120, "pitch": 71, "duration": 24, "velocity": 64}, {"time": 144, "pitch": 69, "duration": 12, "velocity": 64}, {"time": 156, "pitch": 67, "duration": 12, "velocity": 64}, {"time": 168, "pitch": 66, "duration": 24, "velocity": 64}, {"time": 192, "pitch": 66, "duration": 12, "velocity": 64}, {"time": 204, "pitch": 68, "duration": 12, "velocity": 64}, {"time": 216, "pitch": 69, "duration": 24, "velocity": 64}, {"time": 240, "pitch": 71, "duration": 12, "velocity": 64}, {"time": 252, "pitch": 69, "duration": 12, "velocity": 64}, {"time": 264, "pitch": 67, "duration": 24, "velocity": 64}, {"time": 288, "pitch": 66, "duration": 24, "velocity": 64}, {"time": 312, "pitch": 64, "duration": 72, "velocity": 64}, {"time": 408, "pitch": 67, "duration": 16, "velocity": 64}, {"time": 424, "pitch": 66, "duration": 8, "velocity": 64}, {"time": 432, "pitch": 64, "duration": 16, "velocity": 64}, {"time": 448, "pitch": 62, "duration": 8, "velocity": 64}, {"time": 456, "pitch": 64, "duration": 32, "velocity": 64}, {"time": 488, "pitch": 71, "duration": 12, "velocity": 64}, {"time": 500, "pitch": 69, "duration": 12, "velocity": 64}, {"time": 512, "pitch": 69, "duration": 12, "velocity": 64}, {"time": 524, "pitch": 72, "duration": 12, "velocity": 64}, {"time": 536, "pitch": 71, "duration": 24, "velocity": 64}, {"time": 560, "pitch": 69, "duration": 12, "velocity": 64}, {"time": 572, "pitch": 67, "duration": 12, "velocity": 64}, {"time": 584, "pitch": 66, "duration": 72, "velocity": 64}, {"time": 656, "pitch": 66, "duration": 12, "velocity": 64}, {"time": 668, "pitch": 67, "duration": 12, "velocity": 64}, {"time": 680, "pitch": 69, "duration": 24, "velocity": 64}, {"time": 704, "pitch": 71, "duration": 12, "velocity": 64}, {"time": 716, "pitch": 69, "duration": 12, "velocity": 64}, {"time": 728, "pitch": 67, "duration": 24, "velocity": 64}, {"time": 752, "pitch": 66, "duration": 24, "velocity": 64}, {"time": 776, "pitch": 64, "duration": 24, "velocity": 64}]}]}