{"metadata": {"schema_version": "0.1", "title": "Kommt herab, ihr Himmelsgeister (5-72), S. 72f", "source_format": "abc"}, "resolution": 24, "tempos": [{"time": 0, "qpm": 120.0}], "key_signatures": [{"time": 0, "root": 7, "mode": "major", "fifths": 1}], "time_signatures": [{"time": 0, "numerator": 2, "denominator": 2}], "beats": [{"time": 0, "is_downbeat": true}, {"time": 48, "is_downbeat": false}, {"time": 96, "is_downbeat": true}, {"time": 144, "is_downbeat": false}, {"time": 192, "is_downbeat": true}, {"time": 240, "is_downbeat": false}, {"time": 288, "is_downbeat": true}, {"time": 336, "is_downbeat": false}, {"time": 384, "is_downbeat": true}, {"time": 432, "is_downbeat": false}, {"time": 480, "is_downbeat": true}, {"time": 528, "is_downbeat": false}, {"time": 576, "is_downbeat": true}, {"time": 624, "is_downbeat": false}, {"time": 672, "is_downbeat": true}, {"time": 720, "is_downbeat": false}, {"time": 768, "is_downbeat": true}, {"time": 816, "is_downbeat": false}, {"time": 864, "is_downbeat": true}, {"time": 912, "is_downbeat": false}, {"time": 960, "is_downbeat": true}, {"time": 1008, "is_downbeat": false}, {"time": 1056, "is_downbeat": true}, {"time": 1104, "is_downbeat": false}, {"time": 1152, "is_downbeat": true}, {"time": 1200, "is_downbeat": false}, {"time": 1248, "is_downbeat": true}, {"time": 1296, "is_downbeat": false}, {"time": 1344, "is_downbeat": true}, {"time": 1392, "is_downbeat": false}, {"time": 1440, "is_downbeat": true}, {"time": 1488, "is_downbeat": false}, {"time": 1536, "is_downbeat": true}, {"time": 1584, "is_downbeat": false}, {"time": 1632, "is_downbeat": true}, {"time": 1680, "is_downbeat": false}, {"time": 1728, "is_downbeat": true}, {"time": 1776, "is_downbeat": false}, {"time": 1824, "is_downbeat": true}, {"time": 1872, "is_downbeat": false}, {"time": 1920, "is_downbeat": true}, {"time": 1968, "is_downbeat": false}, {"time": 2016, "is_downbeat": true}, {"time": 2064, "is_downbeat": false}, {"time": 2112, "is_downbeat": true}, {"time": 2160, "is_downbeat": false}, {"time": 2208, "is_downbeat": true}, {"time": 2256, "is_downbeat": false}, {"time": 2304, "is_downbeat": true}, {"time": 2352, "is_downbeat": false}, {"time": 2400, "is_downbeat": true}, {"time": 2448, "is_downbeat": false}, {"time": 2496, "is_downbeat": true}, {"time": 2544, "is_downbeat": false}, {"time": 2592, "is_downbeat": true}, {"time": 2640, "is_downbeat": false}], "tracks": [{"program": 0, "is_drum": false, "notes": [{"time": 0, "pitch": 67, "duration": 36, "velocity": 64}, {"time": 36, "pitch": 66, "duration": 12, "velocity": 64}, {"time": 48, "pitch": 67, "duration": 24, "velocity": 64}, {"time": 72, "pitch": 69, "duration": 12, "velocity": 64}, {"time": 84, "pitch": 72, "duration": 12, "velocity": 64}, {"time": 96, "pitch": 71, "duration": 48, "velocity": 64}, {"time": 144, "pitch": 71, "duration": 48, "velocity": 64}, {"time": 192, "pitch": 69, "duration": 36, "velocity": 64}, {"time": 228, "pitch": 67, "duration": 12, "velocity": 64}, {"time": 240, "pitch": 69, "duration": 24, "velocity": 64}, {"time": 264, "pitch": 71, "duration": 12, "velocity": 64}, {"time": 276, "pitch": 69, "duration": 12, "velocity": 64}, {"time": 288, "pitch": 67, "duration": 24, "velocity": 64}, {"time": 312, "pitch": 62, "duration": 24, "velocity": 64}, {"time": 336, "pitch": 59, "duration": 24, "velocity": 64}, {"time": 360, "pitch": 62, "duration": 12, "velocity": 64}, {"time": 372, "pitch": 67, "duration": 12, "velocity": 64}, {"time": 384, "pitch": 67, "duration": 36, "velocity": 64}, {"time": 420, "pitch": 66, "duration": 12, "velocity": 64}, {"time": 432, "pitch": 67, "duration": 24, "velocity": 64}, {"time": 456, "pitch": 69, "duration": 12, "velocity": 64}, {"time": 468, "pitch": 72, "duration": 12, "velocity": 64}, {"time": 480, "pitch": 71, "duration": 48, "velocity": 64}, {"time": 528, "pitch": 71, "duration": 48, "velocity": 64}, {"time": 576, "pitch": 69, "duration": 36, "velocity": 64}, {"time": 612, "pitch": 67, "duration": 12, "velocity": 64}, {"time": 624, "pitch": 69, "duration": 24, "velocity": 64}, {"time": 648, "pitch": 71, "duration": 12, "velocity": 64}, {"time": 660, "pitch": 69, "duration": 12, "velocity": 64}, {"time": 672, "pitch": 67, "duration": 72, "velocity": 64}, {"time": 768, "pitch": 67, "duration": 36, "velocity": 64}, {"time": 804, "pitch": 66, "duration": 12, "velocity": 64}, {"time": 816, "pitch": 67, "duration": 24, "velocity": 64}, {"time": 840, "pitch": 69, "duration": 12, "velocity": 64}, {"time": 852, "pitch": 72, "duration": 12, "velocity": 64}, {"time": 864, "pitch": 71, "duration": 48, "velocity": 64}, {"time": 912, "pitch": 71, "duration": 48, "velocity": 64}, {"time": 960, "pitch": 69, "duration": 36, "velocity": 64}, {"time": 996, "pitch": 67, "duration": 12, "velocity": 64}, {"time": 1008, "pitch": 69, "duration": 24, "velocity": 64}, {"time": 1032, "pitch": 71, "duration": 12, "velocity": 64}, {"time": 1044, "pitch": 69, "duration": 12, "velocity": 64}, {"time": 1056, "pitch": 67, "duration": 24, "velocity": 64}, {"time": 1080, "pitch": 62, "duration": 24, "velocity": 64}, {"time": 1104, "pitch": 59, "duration": 24, "velocity": 64}, {"time": 1128, "pitch": 62, "duration": 12, "velocity": 64}, {"time": 1140, "pitch": 67, "duration": 12, "velocity": 64}, {"time": 1152, "pitch": 67, "duration": 36, "velocity": 64}, {"time": 1188, "pitch": 66, "duration": 12, "velocity": 64}, {"time": 1200, "pitch": 67, "duration": 24, "velocity": 64}, {"time": 1224, "pitch": 69, "duration": 12, "velocity": 64}, {"time": 1236, "pitch": 72, "duration": 12, "velocity": 64}, {"time": 1248, "pitch": 71, "duration": 48, "velocity": 64}, {"time": 1296, "pitch": 71, "duration": 48, "velocity": 64}, {"time": 1344, "pitch": 69, "duration": 36, "velocity": 64}, {"time": 1380, "pitch": 67, "duration": 12, "velocity": 64}, {"time": 1392, "pitch": 69, "duration": 24, "velocity": 64}, {"time": 1416, "pitch": 71, "duration": 12, "velocity": 64}, {"time": 1428, "pitch": 69, "duration": 12, "velocity": 64}, {"time": 1440, "pitch": 67, "duration": 72, "velocity": 64}, {"time": 1536, "pitch": 69, "duration": 24, "velocity": 64}, {"time": 1560, "pitch": 69, "duration": 24, "velocity": 64}, {"time": 1584, "pitch": 71, "duration": 24, "velocity": 64}, {"time": 1608, "pitch": 71, "duration": 24, "velocity": 64}, {"time": 1632, "pitch": 72, "duration": 24, "velocity": 64}, {"time": 1656, "pitch": 72, "duration": 24, "velocity": 64}, {"time": 1680, "pitch": 71, "duration": 24, "velocity": 64}, {"time": 1704, "pitch": 71, "duration": 24, "velocity": 64}, {"time": 1728, "pitch": 69, "duration": 24, "velocity": 64}, {"time": 1752, "pitch": 69, "duration": 24, "velocity": 64}, {"time": 1776, "pitch": 71, "duration": 24, "velocity": 64}, {"time": 1800, "pitch": 71, "duration": 24, "velocity": 64}, {"time": 1824, "pitch": 72, "duration": 24, "velocity": 64}, {"time": 1848, "pitch": 72, "duration": 24, "velocity": 64}, {"time": 1872, "pitch": 71, "duration": 24, "velocity": 64}, {"time": 1896, "pitch": 69, "duration": 24, "velocity": 64}, {"time": 1920, "pitch": 67, "duration": 36, "velocity": 64}, {"time": 1956, "pitch": 66, "duration": 12, "velocity": 64}, {"time": 1968, "pitch": 67, "duration": 24, "velocity": 64}, {"time": 1992, "pitch": 69, "duration": 12, "velocity": 64}, {"time": 2004, "pitch": 72, "duration": 12, "velocity": 64}, {"time": 2016, "pitch": 71, "duration": 48, "velocity": 64}, {"time": 2064, "pitch": 71, "duration": 48, "velocity": 64}, {"time": 2112, "pitch": 69, "duration": 36, "velocity": 64}, {"time": 2148, "pitch": 67, "duration": 12, "velocity": 64}, {"time": 2160, "pitch": 69, "duration": 24, "velocity": 64}, {"time": 2184, "pitch": 71, "duration": 12, "velocity": 64}, {"time": 2196, "pitch": 69, "duration": 12, "velocity": 64}, {"time": 2208, "pitch": 67, "duration": 24, "velocity": 64}, {"time": 2232, "pitch": 62, "duration": 24, "velocity": 64}, {"time": 2256, "pitch": 59, "duration": 24, "velocity": 64}, {"time": 2280, "pitch": 62, "duration": 12, "velocity": 64}, {"time": 2292, "pitch": 67, "duration": 12, "velocity": 64}, {"time": 2304, "pitch": 67, "duration": 36, "velocity": 64}, {"time": 2340, "pitch": 66, "duration": 12, "velocity": 64}, {"time": 2352, "pitch": 67, "duration": 24, "velocity": 64}, {"time": 2376, "pitch": 69, "duration": 12, "velocity": 64}, {"time": 2388, "pitch": 72, "duration": 12, "velocity": 64}, {"time": 2400, "pitch": 71, "duration": 48, "velocity": 64}, {"time": 2448, "pitch": 71, "duration": 48, "velocity": 64}, {"time": 2496, "pitch": 69, "duration": 36, "velocity": 64}, {"time": 2532, "pitch": 67, "duration": 12, "velocity": 64}, {"time": 2544, "pitch": 69, "duration": 24, "velocity": 64}, {"time": 2568, "pitch": 71, "duration": 12, "velocity": 64}, {"time": 2580, "pitch": 69, "duration": 12, "velocity": 64}, {"time": 2592, "pitch": 67, "duration": 72, "velocity": 64}]}]}