{"metadata": {"schema_version": "0.1", "title": "Ach Mutter, herzliebste Mutter (5-57), S. 95", "source_format": "abc"}, "resolution": 24, "tempos": [{"time": 0, "qpm": 120.0}], "key_signatures": [{"time": 0, "root": 5, "mode": "major", "fifths": -1}], "time_signatures": [{"time": 0, "numerator": 3, "denominator": 8}, {"time": 804, "numerator": 1, "denominator": 4}], "beats": [{"time": 0, "is_downbeat": true}, {"time": 12, "is_downbeat": true}, {"time": 36, "is_downbeat": true}, {"time": 48, "is_downbeat": true}, {"time": 72, "is_downbeat": true}, {"time": 84, "is_downbeat": true}, {"time": 108, "is_downbeat": true}, {"time": 120, "is_downbeat": true}, {"time": 144, "is_downbeat": true}, {"time": 156, "is_downbeat": true}, {"time": 180, "is_downbeat": true}, {"time": 192, "is_downbeat": true}, {"time": 216, "is_downbeat": true}, {"time": 228, "is_downbeat": true}, {"time": 252, "is_downbeat": true}, {"time": 264, "is_downbeat": true}, {"time": 288, "is_downbeat": true}, {"time": 300, "is_downbeat": true}, {"time": 324, "is_downbeat": true}, {"time": 336, "is_downbeat": true}, {"time": 360, "is_downbeat": true}, {"time": 372, "is_downbeat": true}, {"time": 396, "is_downbeat": true}, {"time": 408, "is_downbeat": true}, {"time": 432, "is_downbeat": true}, {"time": 444, "is_downbeat": true}, {"time": 468, "is_downbeat": true}, {"time": 480, "is_downbeat": true}, {"time": 504, "is_downbeat": true}, {"time": 516, "is_downbeat": true}, {"time": 540, "is_downbeat": true}, {"time": 552, "is_downbeat": true}, {"time": 576, "is_downbeat": true}, {"time": 588, "is_downbeat": true}, {"time": 612, "is_downbeat": true}, {"time": 624, "is_downbeat": true}, {"time": 648, "is_downbeat": true}, {"time": 660, "is_downbeat": true}, {"time": 684, "is_downbeat": true}, {"time": 696, "is_downbeat": true}, {"time": 720, "is_downbeat": true}, {"time": 732, "is_downbeat": true}, {"time": 756, "is_downbeat": true}, {"time": 768, "is_downbeat": true}, {"time": 792, "is_downbeat": true}, {"time": 804, "is_downbeat": true}], "tracks": [{"program": 0, "is_drum": false, "notes": [{"time": 0, "pitch": 60, "duration": 12, "velocity": 64}, {"time": 12, "pitch": 65, "duration": 12, "velocity": 64}, {"time": 24, "pitch": 65, "duration": 12, "velocity": 64}, {"time": 36, "pitch": 65, "duration": 12, "velocity": 64}, {"time": 48, "pitch": 65, "duration": 24, "velocity": 64}, {"time": 72, "pitch": 69, "duration": 12, "velocity": 64}, {"time": 84, "pitch": 67, "duration": 24, "velocity": 64}, {"time": 108, "pitch": 64, "duration": 12, "velocity": 64}, {"time": 120, "pitch": 60, "duration": 24, "velocity": 64}, {"time": 144, "pitch": 60, "duration": 12, "velocity": 64}, {"time": 156, "pitch": 65, "duration": 24, "velocity": 64}, {"time": 180, "pitch": 65, "duration": 12, "velocity": 64}, {"time": 192, "pitch": 65, "duration": 12, "velocity": 64}, {"time": 204, "pitch": 67, "duration": 12, "velocity": 64}, {"time": 216, "pitch": 69, "duration": 12, "velocity": 64}, {"time": 228, "pitch": 67, "duration": 24, "velocity": 64}, {"time": 252, "pitch": 67, "duration": 12, "velocity": 64}, {"time": 264, "pitch": 70, "duration": 24, "velocity": 64}, {"time": 288, "pitch": 70, "duration": 12, "velocity": 64}, {"time": 300, "pitch": 70, "duration": 12, "velocity": 64}, {"time": 312, "pitch": 69, "duration": 12, "velocity": 64}, {"time": 324, "pitch": 67, "duration": 12, "velocity": 64}, {"time": 336, "pitch": 69, "duration": 24, "velocity": 64}, {"time": 360, "pitch": 72, "duration": 12, "velocity": 64}, {"time": 372, "pitch": 69, "duration": 24, "velocity": 64}, {"time": 396, "pitch": 65, "duration": 12, "velocity": 64}, {"time": 408, "pitch": 67, "duration": 24, "velocity": 64}, {"time": 432, "pitch": 70, "duration": 12, "velocity": 64}, {"time": 444, "pitch": 67, "duration": 24, "velocity": 64}, {"time": 468, "pitch": 64, "duration": 12, "velocity": 64}, {"time": 480, "pitch": 65, "duration": 24, "velocity": 64}, {"time": 504, "pitch": 69, "duration": 12, "velocity": 64}, {"time": 516, "pitch": 72, "duration": 24, "velocity": 64}, {"time": 540, "pitch": 67, "duration": 12, "velocity": 64}, {"time": 552, "pitch": 70, "duration": 24, "velocity": 64}, {"time": 576, "pitch": 70, "duration": 12, "velocity": 64}, {"time": 588, "pitch": 70, "duration": 12, "velocity": 64}, {"time": 600, "pitch": 69, "duration": 12, "velocity": 64}, {"time": 612, "pitch": 67, "duration": 12, "velocity": 64}, {"time": 624, "pitch": 69, "duration": 24, "velocity": 64}, {"time": 648, "pitch": 72, "duration": 12, "velocity": 64}, {"time": 660, "pitch": 69, "duration": 24, "velocity": 64}, {"time": 684, "pitch": 65, "duration": 12, "velocity": 64}, {"time": 696, "pitch": 67, "duration": 24, "velocity": 64}, {"time": 720, "pitch": 67, "duration": 12, "velocity": 64}, {"time": 732, "pitch": 60, "duration": 24, "velocity": 64}, {"time": 756, "pitch": 60, "duration": 12, "velocity": 64}, {"time": 768, "pitch": 65, "duration": 36, "velocity": 64}]}]}