{"metadata": {"schema_version": "0.1", "title": "Helft Leutchen mir (5-84), S. 134", "source_format": "abc"}, "resolution": 24, "tempos": [{"time": 0, "qpm": 120.0}], "key_signatures": [{"time": 0, "root": 7, "mode": "major", "fifths": 1}], "time_signatures": [{"time": 0, "numerator": 4, "denominator": 4}, {"time": 72, "numerator": 1, "denominator": 4}, {"time": 144, "numerator": 1, "denominator": 4}, {"time": 216, "numerator": 1, "denominator": 4}, {"time": 360, "numerator": 1, "denominator": 4}, {"time": 432, "numerator": 1, "denominator": 4}, {"time": 504, "numerator": 1, "denominator": 4}, {"time": 648, "numerator": 1, "denominator": 4}, {"time": 888, "numerator": 1, "denominator": 4}, {"time": 960, "numerator": 1, "denominator": 4}, {"time": 1032, "numerator": 1, "denominator": 4}, {"time": 1176, "numerator": 1, "denominator": 4}, {"time": 1320, "numerator": 1, "denominator": 4}, {"time": 1464, "numerator": 1, "denominator": 4}, {"time": 1608, "numerator": 1, "denominator": 4}, {"time": 1632, "numerator": 2, "denominator": 4}], "beats": [{"time": 0, "is_downbeat": true}, {"time": 24, "is_downbeat": true}, {"time": 48, "is_downbeat": true}, {"time": 72, "is_downbeat": true}, {"time": 96, "is_downbeat": true}, {"time": 120, "is_downbeat": true}, {"time": 144, "is_downbeat": true}, {"time": 168, "is_downbeat": true}, {"time": 192, "is_downbeat": true}, {"time": 216, "is_downbeat": true}, {"time": 240, "is_downbeat": true}, {"time": 264, "is_downbeat": true}, {"time": 288, "is_downbeat": true}, {"time": 312, "is_downbeat": true}, {"time": 336, "is_downbeat": true}, {"time": 360, "is_downbeat": true}, {"time": 384, "is_downbeat": true}, {"time": 408, "is_downbeat": true}, {"time": 432, "is_downbeat": true}, {"time": 456, "is_downbeat": true}, {"time": 480, "is_downbeat": true}, {"time": 504, "is_downbeat": true}, {"time": 528, "is_downbeat": true}, {"time": 552, "is_downbeat": true}, {"time": 576, "is_downbeat": true}, {"time": 600, "is_downbeat": true}, {"time": 624, "is_downbeat": true}, {"time": 648, "is_downbeat": true}, {"time": 672, "is_downbeat": true}, {"time": 696, "is_downbeat": true}, {"time": 720, "is_downbeat": true}, {"time": 744, "is_downbeat": true}, {"time": 768, "is_downbeat": true}, {"time": 792, "is_downbeat": true}, {"time": 816, "is_downbeat": true}, {"time": 840, "is_downbeat": true}, {"time": 864, "is_downbeat": true}, {"time": 888, "is_downbeat": true}, {"time": 912, "is_downbeat": true}, {"time": 936, "is_downbeat": true}, {"time": 960, "is_downbeat": true}, {"time": 984, "is_downbeat": true}, {"time": 1008, "is_downbeat": true}, {"time": 1032, "is_downbeat": true}, {"time": 1056, "is_downbeat": true}, {"time": 1080, "is_downbeat": true}, {"time": 1104, "is_downbeat": true}, {"time": 1128, "is_downbeat": true}, {"time": 1152, "is_downbeat": true}, {"time": 1176, "is_downbeat": true}, {"time": 1200, "is_downbeat": true}, {"time": 1224, "is_downbeat": true}, {"time": 1248, "is_downbeat": true}, {"time": 1272, "is_downbeat": true}, {"time": 1296, "is_downbeat": true}, {"time": 1320, "is_downbeat": true}, {"time": 1344, "is_downbeat": true}, {"time": 1368, "is_downbeat": true}, {"time": 1392, "is_downbeat": true}, {"time": 1416, "is_downbeat": true}, {"time": 1440, "is_downbeat": true}, {"time": 1464, "is_downbeat": true}, {"time": 1488, "is_downbeat": true}, {"time": 1512, "is_downbeat": true}, {"time": 1536, "is_downbeat": true}, {"time": 1560, "is_downbeat": true}, {"time": 1584, "is_downbeat": true}, {"time": 1608, "is_downbeat": true}, {"time": 1632, "is_downbeat": true}, {"time": 1656, "is_downbeat": false}], "tracks": [{"program": 0, "is_drum": false, "notes": [{"time": 0, "pitch": 62, "duration": 24, "velocity": 64}, {"time": 24, "pitch": 71, "duration": 18, "velocity": 64}, {"time": 42, "pitch": 71, "duration": 6, "velocity": 64}, {"time": 48, "pitch": 67, "duration": 36, "velocity": 64}, {"time": 84, "pitch": 76, "duration": 12, "velocity": 64}, {"time": 96, "pitch": 76, "duration": 12, "velocity": 64}, {"time": 108, "pitch": 74, "duration": 12, "velocity": 64}, {"time": 120, "pitch": 74, "duration": 36, "velocity": 64}, {"time": 156, "pitch": 71, "duration": 12, "velocity": 64}, {"time": 168, "pitch": 74, "duration": 12, "velocity": 64}, {"time": 180, "pitch": 72, "duration": 12, "velocity": 64}, {"time": 192, "pitch": 69, "duration": 24, "velocity": 64}, {"time": 216, "pitch": 71, "duration": 24, "velocity": 64}, {"time": 240, "pitch": 67, "duration": 48, "velocity": 64}, {"time": 288, "pitch": 71, "duration": 24, "velocity": 64}, {"time": 312, "pitch": 71, "duration": 18, "velocity": 64}, {"time": 330, "pitch": 71, "duration": 6, "velocity": 64}, {"time": 336, "pitch": 67, "duration": 36, "velocity": 64}, {"time": 372, "pitch": 76, "duration": 12, "velocity": 64}, {"time": 384, "pitch": 76, "duration": 18, "velocity": 64}, {"time": 402, "pitch": 76, "duration": 6, "velocity": 64}, {"time": 408, "pitch": 74, "duration": 36, "velocity": 64}, {"time": 444, "pitch": 71, "duration": 12, "velocity": 64}, {"time": 456, "pitch": 74, "duration": 12, "velocity": 64}, {"time": 468, "pitch": 74, "duration": 6, "velocity": 64}, {"time": 474, "pitch": 72, "duration": 6, "velocity": 64}, {"time": 480, "pitch": 69, "duration": 24, "velocity": 64}, {"time": 504, "pitch": 71, "duration": 24, "velocity": 64}, {"time": 528, "pitch": 67, "duration": 48, "velocity": 64}, {"time": 576, "pitch": 74, "duration": 24, "velocity": 64}, {"time": 600, "pitch": 74, "duration": 12, "velocity": 64}, {"time": 612, "pitch": 72, "duration": 12, "velocity": 64}, {"time": 624, "pitch": 69, "duration": 36, "velocity": 64}, {"time": 660, "pitch": 76, "duration": 12, "velocity": 64}, {"time": 672, "pitch": 76, "duration": 12, "velocity": 64}, {"time": 684, "pitch": 74, "duration": 12, "velocity": 64}, {"time": 696, "pitch": 71, "duration": 24, "velocity": 64}, {"time": 720, "pitch": 74, "duration": 24, "velocity": 64}, {"time": 744, "pitch": 74, "duration": 12, "velocity": 64}, {"time": 756, "pitch": 69, "duration": 12, "velocity": 64}, {"time": 768, "pitch": 71, "duration": 12, "velocity": 64}, {"time": 780, "pitch": 72, "duration": 12, "velocity": 64}, {"time": 792, "pitch": 74, "duration": 24, "velocity": 64}, {"time": 816, "pitch": 72, "duration": 24, "velocity": 64}, {"time": 840, "pitch": 71, "duration": 18, "velocity": 64}, {"time": 858, "pitch": 69, "duration": 6, "velocity": 64}, {"time": 864, "pitch": 67, "duration": 36, "velocity": 64}, {"time": 900, "pitch": 76, "duration": 12, "velocity": 64}, {"time": 912, "pitch": 76, "duration": 18, "velocity": 64}, {"time": 930, "pitch": 71, "duration": 6, "velocity": 64}, {"time": 936, "pitch": 74, "duration": 36, "velocity": 64}, {"time": 972, "pitch": 71, "duration": 12, "velocity": 64}, {"time": 984, "pitch": 74, "duration": 12, "velocity": 64}, {"time": 996, "pitch": 74, "duration": 6, "velocity": 64}, {"time": 1002, "pitch": 72, "duration": 12, "velocity": 64}, {"time": 1014, "pitch": 69, "duration": 18, "velocity": 64}, {"time": 1032, "pitch": 71, "duration": 24, "velocity": 64}, {"time": 1056, "pitch": 67, "duration": 48, "velocity": 64}, {"time": 1104, "pitch": 74, "duration": 24, "velocity": 64}, {"time": 1128, "pitch": 79, "duration": 12, "velocity": 64}, {"time": 1140, "pitch": 71, "duration": 12, "velocity": 64}, {"time": 1152, "pitch": 71, "duration": 24, "velocity": 64}, {"time": 1176, "pitch": 72, "duration": 12, "velocity": 64}, {"time": 1188, "pitch": 76, "duration": 12, "velocity": 64}, {"time": 1200, "pitch": 76, "duration": 12, "velocity": 64}, {"time": 1212, "pitch": 69, "duration": 12, "velocity": 64}, {"time": 1224, "pitch": 69, "duration": 24, "velocity": 64}, {"time": 1248, "pitch": 74, "duration": 24, "velocity": 64}, {"time": 1272, "pitch": 78, "duration": 12, "velocity": 64}, {"time": 1284, "pitch": 76, "duration": 12, "velocity": 64}, {"time": 1296, "pitch": 74, "duration": 24, "velocity": 64}, {"time": 1320, "pitch": 72, "duration": 12, "velocity": 64}, {"time": 1332, "pitch": 66, "duration": 12, "velocity": 64}, {"time": 1344, "pitch": 67, "duration": 48, "velocity": 64}, {"time": 1392, "pitch": 74, "duration": 24, "velocity": 64}, {"time": 1416, "pitch": 79, "duration": 12, "velocity": 64}, {"time": 1428, "pitch": 71, "duration": 12, "velocity": 64}, {"time": 1440, "pitch": 71, "duration": 24, "velocity": 64}, {"time": 1464, "pitch": 72, "duration": 12, "velocity": 64}, {"time": 1476, "pitch": 76, "duration": 12, "velocity": 64}, {"time": 1488, "pitch": 76, "duration": 12, "velocity": 64}, {"time": 1500, "pitch": 69, "duration": 12, "velocity": 64}, {"time": 1512, "pitch": 69, "duration": 24, "velocity": 64}, {"time": 1536, "pitch": 74, "duration": 24, "velocity": 64}, {"time": 1560, "pitch": 78, "duration": 12, "velocity": 64}, {"time": 1572, "pitch": 76, "duration": 12, "velocity": 64}, {"time": 1584, "pitch": 74, "duration": 24, "velocity": 64}, {"time": 1608, "pitch": 72, "duration": 12, "velocity": 64}, {"time": 1620, "pitch": 66, "duration": 12, "velocity": 64}, {"time": 1632, "pitch": 67, "duration": 48, "velocity": 64}]}]}