{"metadata": {"schema_version": "0.1", "title": "Ich bin der Panneflicker (5-85), S. 137", "source_format": "abc"}, "resolution": 24, "tempos": [{"time": 0, "qpm": 120.0}], "key_signatures": [{"time": 0, "root": 3, "mode": "major", "fifths": -3}], "time_signatures": [{"time": 0, "numerator": 4, "denominator": 4}, {"time": 204, "numerator": 1, "denominator": 4}, {"time": 468, "numerator": 1, "denominator": 4}, {"time": 540, "numerator": 1, "denominator": 4}, {"time": 612, "numerator": 1, "denominator": 4}, {"time": 636, "numerator": 2, "denominator": 4}, {"time": 684, "numerator": 1, "denominator": 8}], "beats": [{"time": 0, "is_downbeat": true}, {"time": 12, "is_downbeat": true}, {"time": 36, "is_downbeat": true}, {"time": 60, "is_downbeat": true}, {"time": 84, "is_downbeat": true}, {"time": 108, "is_downbeat": true}, {"time": 132, "is_downbeat": true}, {"time": 156, "is_downbeat": true}, {"time": 180, "is_downbeat": true}, {"time": 204, "is_downbeat": true}, {"time": 228, "is_downbeat": true}, {"time": 252, "is_downbeat": true}, {"time": 276, "is_downbeat": true}, {"time": 300, "is_downbeat": true}, {"time": 324, "is_downbeat": true}, {"time": 348, "is_downbeat": true}, {"time": 372, "is_downbeat": true}, {"time": 396, "is_downbeat": true}, {"time": 420, "is_downbeat": true}, {"time": 444, "is_downbeat": true}, {"time": 468, "is_downbeat": true}, {"time": 492, "is_downbeat": true}, {"time": 516, "is_downbeat": true}, {"time": 540, "is_downbeat": true}, {"time": 564, "is_downbeat": true}, {"time": 588, "is_downbeat": true}, {"time": 612, "is_downbeat": true}, {"time": 636, "is_downbeat": true}, {"time": 648, "is_downbeat": true}, {"time": 660, "is_downbeat": true}, {"time": 672, "is_downbeat": true}, {"time": 684, "is_downbeat": true}], "tracks": [{"program": 0, "is_drum": false, "notes": [{"time": 0, "pitch": 58, "duration": 12, "velocity": 64}, {"time": 12, "pitch": 63, "duration": 12, "velocity": 64}, {"time": 24, "pitch": 63, "duration": 12, "velocity": 64}, {"time": 36, "pitch": 58, "duration": 6, "velocity": 64}, {"time": 42, "pitch": 58, "duration": 6, "velocity": 64}, {"time": 48, "pitch": 58, "duration": 6, "velocity": 64}, {"time": 54, "pitch": 58, "duration": 6, "velocity": 64}, {"time": 60, "pitch": 60, "duration": 12, "velocity": 64}, {"time": 72, "pitch": 60, "duration": 12, "velocity": 64}, {"time": 84, "pitch": 58, "duration": 12, "velocity": 64}, {"time": 96, "pitch": 58, "duration": 12, "velocity": 64}, {"time": 108, "pitch": 58, "duration": 12, "velocity": 64}, {"time": 120, "pitch": 58, "duration": 12, "velocity": 64}, {"time": 132, "pitch": 60, "duration": 12, "velocity": 64}, {"time": 144, "pitch": 62, "duration": 12, "velocity": 64}, {"time": 156, "pitch": 63, "duration": 48, "velocity": 64}, {"time": 216, "pitch": 58, "duration": 12, "velocity": 64}, {"time": 228, "pitch": 63, "duration": 12, "velocity": 64}, {"time": 240, "pitch": 63, "duration": 12, "velocity": 64}, {"time": 252, "pitch": 58, "duration": 6, "velocity": 64}, {"time": 258, "pitch": 58, "duration": 6, "velocity": 64}, {"time": 264, "pitch": 58, "duration": 6, "velocity": 64}, {"time": 270, "pitch": 58, "duration": 6, "velocity": 64}, {"time": 276, "pitch": 60, "duration": 12, "velocity": 64}, {"time": 288, "pitch": 60, "duration": 12, "velocity": 64}, {"time": 300, "pitch": 58, "duration": 12, "velocity": 64}, {"time": 312, "pitch": 58, "duration": 12, "velocity": 64}, {"time": 324, "pitch": 58, "duration": 12, "velocity": 64}, {"time": 336, "pitch": 58, "duration": 12, "velocity": 64}, {"time": 348, "pitch": 60, "duration": 12, "velocity": 64}, {"time": 360, "pitch": 62, "duration": 12, "velocity": 64}, {"time": 372, "pitch": 63, "duration": 24, "velocity": 64}, {"time": 408, "pitch": 58, "duration": 12, "velocity": 64}, {"time": 420, "pitch": 63, "duration": 12, "velocity": 64}, {"time": 432, "pitch": 65, "duration": 12, "velocity": 64}, {"time": 444, "pitch": 67, "duration": 24, "velocity": 64}, {"time": 468, "pitch": 63, "duration": 24, "velocity": 64}, {"time": 492, "pitch": 72, "duration": 12, "velocity": 64}, {"time": 504, "pitch": 72, "duration": 12, "velocity": 64}, {"time": 516, "pitch": 70, "duration": 36, "velocity": 64}, {"time": 552, "pitch": 67, "duration": 12, "velocity": 64}, {"time": 564, "pitch": 65, "duration": 12, "velocity": 64}, {"time": 576, "pitch": 70, "duration": 6, "velocity": 64}, {"time": 582, "pitch": 70, "duration": 6, "velocity": 64}, {"time": 588, "pitch": 68, "duration": 12, "velocity": 64}, {"time": 600, "pitch": 68, "duration": 12, "velocity": 64}, {"time": 612, "pitch": 68, "duration": 12, "velocity": 64}, {"time": 624, "pitch": 68, "duration": 12, "velocity": 64}, {"time": 636, "pitch": 60, "duration": 12, "velocity": 64}, {"time": 648, "pitch": 62, "duration": 12, "velocity": 64}, {"time": 660, "pitch": 63, "duration": 24, "velocity": 64}]}]}