{"metadata": {"schema_version": "0.1", "title": "Feder-die-Gans", "source_format": "abc"}, "resolution": 24, "tempos": [{"time": 0, "qpm": 120.0}], "key_signatures": [{"time": 0, "root": 7, "mode": "major", "fifths": 1}], "time_signatures": [{"time": 0, "numerator": 4, "denominator": 4}, {"time": 252, "numerator": 4, "denominator": 4}, {"time": 348, "numerator": 3, "denominator": 4}], "beats": [{"time": 0, "is_downbeat": true}, {"time": 24, "is_downbeat": false}, {"time": 36, "is_downbeat": true}, {"time": 60, "is_downbeat": false}, {"time": 84, "is_downbeat": false}, {"time": 108, "is_downbeat": true}, {"time": 132, "is_downbeat": false}, {"time": 156, "is_downbeat": false}, {"time": 180, "is_downbeat": true}, {"time": 204, "is_downbeat": false}, {"time": 228, "is_downbeat": false}, {"time": 252, "is_downbeat": true}, {"time": 276, "is_downbeat": false}, {"time": 300, "is_downbeat": false}, {"time": 324, "is_downbeat": true}, {"time": 348, "is_downbeat": true}, {"time": 372, "is_downbeat": false}, {"time": 396, "is_downbeat": false}, {"time": 420, "is_downbeat": true}, {"time": 444, "is_downbeat": false}, {"time": 468, "is_downbeat": false}, {"time": 492, "is_downbeat": true}, {"time": 516, "is_downbeat": false}, {"time": 540, "is_downbeat": false}, {"time": 564, "is_downbeat": true}, {"time": 588, "is_downbeat": false}, {"time": 612, "is_downbeat": false}, {"time": 636, "is_downbeat": true}, {"time": 660, "is_downbeat": false}, {"time": 684, "is_downbeat": false}, {"time": 708, "is_downbeat": true}, {"time": 732, "is_downbeat": false}, {"time": 756, "is_downbeat": false}, {"time": 780, "is_downbeat": true}, {"time": 804, "is_downbeat": false}, {"time": 828, "is_downbeat": false}, {"time": 852, "is_downbeat": true}, {"time": 876, "is_downbeat": false}, {"time": 900, "is_downbeat": true}, {"time": 924, "is_downbeat": false}, {"time": 948, "is_downbeat": true}, {"time": 972, "is_downbeat": false}, {"time": 996, "is_downbeat": true}, {"time": 1020, "is_downbeat": false}, {"time": 1044, "is_downbeat": true}, {"time": 1068, "is_downbeat": false}, {"time": 1092, "is_downbeat": true}, {"time": 1116, "is_downbeat": false}, {"time": 1140, "is_downbeat": true}, {"time": 1164, "is_downbeat": false}, {"time": 1188, "is_downbeat": true}, {"time": 1212, "is_downbeat": false}, {"time": 1236, "is_downbeat": true}, {"time": 1260, "is_downbeat": false}, {"time": 1284, "is_downbeat": false}], "tracks": [{"program": 0, "is_drum": false, "notes": [{"time": 0, "pitch": 62, "duration": 12, "velocity": 64}, {"time": 12, "pitch": 62, "duration": 12, "velocity": 64}, {"time": 24, "pitch": 67, "duration": 12, "velocity": 64}, {"time": 36, "pitch": 67, "duration": 24, "velocity": 64}, {"time": 60, "pitch": 67, "duration": 24, "velocity": 64}, {"time": 84, "pitch": 69, "duration": 12, "velocity": 64}, {"time": 96, "pitch": 67, "duration": 12, "velocity": 64}, {"time": 108, "pitch": 66, "duration": 12, "velocity": 64}, {"time": 120, "pitch": 69, "duration": 12, "velocity": 64}, {"time": 132, "pitch": 62, "duration": 24, "velocity": 64}, {"time": 180, "pitch": 72, "duration": 24, "velocity": 64}, {"time": 204, "pitch": 72, "duration": 12, "velocity": 64}, {"time": 216, "pitch": 71, "duration": 12, "velocity": 64}, {"time": 228, "pitch": 69, "duration": 24, "velocity": 64}, {"time": 276, "pitch": 74, "duration": 24, "velocity": 64}, {"time": 300, "pitch": 71, "duration": 24, "velocity": 64}, {"time": 324, "pitch": 72, "duration": 12, "velocity": 64}, {"time": 336, "pitch": 74, "duration": 12, "velocity": 64}, {"time": 348, "pitch": 74, "duration": 12, "velocity": 64}, {"time": 360, "pitch": 76, "duration": 12, "velocity": 64}, {"time": 372, "pitch": 72, "duration": 12, "velocity": 64}, {"time": 384, "pitch": 69, "duration": 12, "velocity": 64}, {"time": 396, "pitch": 69, "duration": 12, "velocity": 64}, {"time": 408, "pitch": 71, "duration": 12, "velocity": 64}, {"time": 420, "pitch": 72, "duration": 24, "velocity": 64}, {"time": 444, "pitch": 72, "duration": 24, "velocity": 64}, {"time": 468, "pitch": 74, "duration": 12, "velocity": 64}, {"time": 480, "pitch": 72, "duration": 12, "velocity": 64}, {"time": 492, "pitch": 71, "duration": 12, "velocity": 64}, {"time": 504, "pitch": 74, "duration": 12, "velocity": 64}, {"time": 516, "pitch": 67, "duration": 24, "velocity": 64}, {"time": 552, "pitch": 67, "duration": 12, "velocity": 64}, {"time": 564, "pitch": 67, "duration": 24, "velocity": 64}, {"time": 588, "pitch": 62, "duration": 24, "velocity": 64}, {"time": 612, "pitch": 64, "duration": 12, "velocity": 64}, {"time": 624, "pitch": 66, "duration": 12, "velocity": 64}, {"time": 636, "pitch": 67, "duration": 24, "velocity": 64}, {"time": 696, "pitch": 67, "duration": 12, "velocity": 64}, {"time": 708, "pitch": 67, "duration": 24, "velocity": 64}, {"time": 732, "pitch": 62, "duration": 24, "velocity": 64}, {"time": 756, "pitch": 64, "duration": 12, "velocity": 64}, {"time": 768, "pitch": 66, "duration": 12, "velocity": 64}, {"time": 780, "pitch": 67, "duration": 24, "velocity": 64}, {"time": 828, "pitch": 67, "duration": 12, "velocity": 64}, {"time": 840, "pitch": 67, "duration": 12, "velocity": 64}, {"time": 852, "pitch": 72, "duration": 24, "velocity": 64}, {"time": 876, "pitch": 72, "duration": 12, "velocity": 64}, {"time": 888, "pitch": 72, "duration": 12, "velocity": 64}, {"time": 900, "pitch": 71, "duration": 24, "velocity": 64}, {"time": 924, "pitch": 71, "duration": 12, "velocity": 64}, {"time": 936, "pitch": 71, "duration": 12, "velocity": 64}, {"time": 948, "pitch": 69, "duration": 24, "velocity": 64}, {"time": 972, "pitch": 69, "duration": 12, "velocity": 64}, {"time": 984, "pitch": 69, "duration": 12, "velocity": 64}, {"time": 996, "pitch": 67, "duration": 24, "velocity": 64}, {"time": 1020, "pitch": 71, "duration": 24, "velocity": 64}, {"time": 1044, "pitch": 74, "duration": 24, "velocity": 64}, {"time": 1068, "pitch": 74, "duration": 12, "velocity": 64}, {"time": 1080, "pitch": 74, "duration": 12, "velocity": 64}, {"time": 1092, "pitch": 72, "duration": 12, "velocity": 64}, {"time": 1104, "pitch": 76, "duration": 12, "velocity": 64}, {"time": 1116, "pitch": 74, "duration": 12, "velocity": 64}, {"time": 1128, "pitch": 72, "duration": 12, "velocity": 64}, {"time": 1140, "pitch": 71, "duration": 12, "velocity": 64}, {"time": 1152, "pitch": 74, "duration": 12, "velocity": 64}, {"time": 1164, "pitch": 72, "duration": 12, "velocity": 64}, {"time": 1176, "pitch": 71, "duration": 12, "velocity": 64}, {"time": 1188, "pitch": 69, "duration": 12, "velocity": 64}, {"time": 1200, "pitch": 72, "duration": 12, "velocity": 64}, {"time": 1212, "pitch": 71, "duration": 12, "velocity": 64}, {"time": 1224, "pitch": 69, "duration": 12, "velocity": 64}, {"time": 1236, "pitch": 67, "duration": 24, "velocity": 64}]}]}