{"metadata": {"schema_version": "0.1", "title": "Schn ist die Jugend, S.66", "source_format": "abc"}, "resolution": 24, "tempos": [{"time": 0, "qpm": 120.0}], "key_signatures": [{"time": 0, "root": 10, "mode": "major", "fifths": -2}], "time_signatures": [{"time": 0, "numerator": 4, "denominator": 4}, {"time": 684, "numerator": 1, "denominator": 4}, {"time": 780, "numerator": 1, "denominator": 4}, {"time": 876, "numerator": 1, "denominator": 4}, {"time": 972, "numerator": 1, "denominator": 4}, {"time": 1068, "numerator": 1, "denominator": 4}, {"time": 1164, "numerator": 1, "denominator": 4}, {"time": 1260, "numerator": 1, "denominator": 4}, {"time": 1284, "numerator": 3, "denominator": 4}], "beats": [{"time": 0, "is_downbeat": true}, {"time": 24, "is_downbeat": true}, {"time": 36, "is_downbeat": true}, {"time": 60, "is_downbeat": true}, {"time": 84, "is_downbeat": true}, {"time": 108, "is_downbeat": true}, {"time": 132, "is_downbeat": true}, {"time": 156, "is_downbeat": true}, {"time": 180, "is_downbeat": true}, {"time": 204, "is_downbeat": true}, {"time": 228, "is_downbeat": true}, {"time": 252, "is_downbeat": true}, {"time": 276, "is_downbeat": true}, {"time": 300, "is_downbeat": true}, {"time": 324, "is_downbeat": true}, {"time": 348, "is_downbeat": true}, {"time": 372, "is_downbeat": true}, {"time": 396, "is_downbeat": true}, {"time": 420, "is_downbeat": true}, {"time": 444, "is_downbeat": true}, {"time": 468, "is_downbeat": true}, {"time": 492, "is_downbeat": true}, {"time": 516, "is_downbeat": true}, {"time": 540, "is_downbeat": true}, {"time": 564, "is_downbeat": true}, {"time": 588, "is_downbeat": true}, {"time": 612, "is_downbeat": true}, {"time": 636, "is_downbeat": true}, {"time": 660, "is_downbeat": true}, {"time": 684, "is_downbeat": true}, {"time": 708, "is_downbeat": true}, {"time": 732, "is_downbeat": true}, {"time": 756, "is_downbeat": true}, {"time": 780, "is_downbeat": true}, {"time": 804, "is_downbeat": true}, {"time": 828, "is_downbeat": true}, {"time": 852, "is_downbeat": true}, {"time": 876, "is_downbeat": true}, {"time": 900, "is_downbeat": true}, {"time": 924, "is_downbeat": true}, {"time": 948, "is_downbeat": true}, {"time": 972, "is_downbeat": true}, {"time": 996, "is_downbeat": true}, {"time": 1020, "is_downbeat": true}, {"time": 1044, "is_downbeat": true}, {"time": 1068, "is_downbeat": true}, {"time": 1092, "is_downbeat": true}, {"time": 1116, "is_downbeat": true}, {"time": 1140, "is_downbeat": true}, {"time": 1164, "is_downbeat": true}, {"time": 1188, "is_downbeat": true}, {"time": 1212, "is_downbeat": true}, {"time": 1236, "is_downbeat": true}, {"time": 1260, "is_downbeat": true}, {"time": 1284, "is_downbeat": true}, {"time": 1308, "is_downbeat": false}, {"time": 1332, "is_downbeat": false}], "tracks": [{"program": 0, "is_drum": false, "notes": [{"time": 0, "pitch": 65, "duration": 12, "velocity": 64}, {"time": 12, "pitch": 67, "duration": 12, "velocity": 64}, {"time": 24, "pitch": 65, "duration": 12, "velocity": 64}, {"time": 36, "pitch": 65, "duration": 12, "velocity": 64}, {"time": 48, "pitch": 74, "duration": 12, "velocity": 64}, {"time": 60, "pitch": 74, "duration": 12, "velocity": 64}, {"time": 72, "pitch": 72, "duration": 12, "velocity": 64}, {"time": 84, "pitch": 70, "duration": 12, "velocity": 64}, {"time": 96, "pitch": 67, "duration": 12, "velocity": 64}, {"time": 108, "pitch": 65, "duration": 12, "velocity": 64}, {"time": 120, "pitch": 70, "duration": 12, "velocity": 64}, {"time": 132, "pitch": 70, "duration": 12, "velocity": 64}, {"time": 144, "pitch": 70, "duration": 12, "velocity": 64}, {"time": 156, "pitch": 69, "duration": 12, "velocity": 64}, {"time": 168, "pitch": 70, "duration": 12, "velocity": 64}, {"time": 180, "pitch": 72, "duration": 24, "velocity": 64}, {"time": 204, "pitch": 65, "duration": 12, "velocity": 64}, {"time": 216, "pitch": 65, "duration": 12, "velocity": 64}, {"time": 228, "pitch": 67, "duration": 12, "velocity": 64}, {"time": 240, "pitch": 69, "duration": 12, "velocity": 64}, {"time": 252, "pitch": 70, "duration": 24, "velocity": 64}, {"time": 288, "pitch": 65, "duration": 12, "velocity": 64}, {"time": 300, "pitch": 67, "duration": 12, "velocity": 64}, {"time": 312, "pitch": 65, "duration": 12, "velocity": 64}, {"time": 324, "pitch": 65, "duration": 12, "velocity": 64}, {"time": 336, "pitch": 74, "duration": 12, "velocity": 64}, {"time": 348, "pitch": 74, "duration": 12, "velocity": 64}, {"time": 360, "pitch": 72, "duration": 12, "velocity": 64}, {"time": 372, "pitch": 70, "duration": 12, "velocity": 64}, {"time": 384, "pitch": 67, "duration": 12, "velocity": 64}, {"time": 396, "pitch": 65, "duration": 12, "velocity": 64}, {"time": 408, "pitch": 70, "duration": 12, "velocity": 64}, {"time": 420, "pitch": 70, "duration": 12, "velocity": 64}, {"time": 432, "pitch": 70, "duration": 12, "velocity": 64}, {"time": 444, "pitch": 69, "duration": 12, "velocity": 64}, {"time": 456, "pitch": 70, "duration": 12, "velocity": 64}, {"time": 468, "pitch": 72, "duration": 24, "velocity": 64}, {"time": 492, "pitch": 65, "duration": 12, "velocity": 64}, {"time": 504, "pitch": 65, "duration": 12, "velocity": 64}, {"time": 516, "pitch": 67, "duration": 12, "velocity": 64}, {"time": 528, "pitch": 69, "duration": 12, "velocity": 64}, {"time": 540, "pitch": 70, "duration": 24, "velocity": 64}, {"time": 576, "pitch": 65, "duration": 12, "velocity": 64}, {"time": 588, "pitch": 67, "duration": 12, "velocity": 64}, {"time": 600, "pitch": 65, "duration": 12, "velocity": 64}, {"time": 612, "pitch": 72, "duration": 18, "velocity": 64}, {"time": 630, "pitch": 72, "duration": 6, "velocity": 64}, {"time": 636, "pitch": 72, "duration": 24, "velocity": 64}, {"time": 672, "pitch": 75, "duration": 12, "velocity": 64}, {"time": 684, "pitch": 74, "duration": 12, "velocity": 64}, {"time": 696, "pitch": 72, "duration": 12, "velocity": 64}, {"time": 708, "pitch": 74, "duration": 18, "velocity": 64}, {"time": 726, "pitch": 74, "duration": 6, "velocity": 64}, {"time": 732, "pitch": 74, "duration": 24, "velocity": 64}, {"time": 768, "pitch": 65, "duration": 12, "velocity": 64}, {"time": 780, "pitch": 67, "duration": 12, "velocity": 64}, {"time": 792, "pitch": 65, "duration": 12, "velocity": 64}, {"time": 804, "pitch": 65, "duration": 12, "velocity": 64}, {"time": 816, "pitch": 75, "duration": 12, "velocity": 64}, {"time": 828, "pitch": 74, "duration": 12, "velocity": 64}, {"time": 840, "pitch": 72, "duration": 12, "velocity": 64}, {"time": 852, "pitch": 70, "duration": 24, "velocity": 64}, {"time": 876, "pitch": 69, "duration": 24, "velocity": 64}, {"time": 900, "pitch": 70, "duration": 48, "velocity": 64}, {"time": 960, "pitch": 65, "duration": 12, "velocity": 64}, {"time": 972, "pitch": 67, "duration": 12, "velocity": 64}, {"time": 984, "pitch": 65, "duration": 12, "velocity": 64}, {"time": 996, "pitch": 72, "duration": 18, "velocity": 64}, {"time": 1014, "pitch": 72, "duration": 6, "velocity": 64}, {"time": 1020, "pitch": 72, "duration": 24, "velocity": 64}, {"time": 1056, "pitch": 75, "duration": 12, "velocity": 64}, {"time": 1068, "pitch": 74, "duration": 12, "velocity": 64}, {"time": 1080, "pitch": 72, "duration": 12, "velocity": 64}, {"time": 1092, "pitch": 74, "duration": 18, "velocity": 64}, {"time": 1110, "pitch": 74, "duration": 6, "velocity": 64}, {"time": 1116, "pitch": 74, "duration": 24, "velocity": 64}, {"time": 1152, "pitch": 77, "duration": 12, "velocity": 64}, {"time": 1164, "pitch": 75, "duration": 12, "velocity": 64}, {"time": 1176, "pitch": 74, "duration": 12, "velocity": 64}, {"time": 1188, "pitch": 74, "duration": 12, "velocity": 64}, {"time": 1200, "pitch": 72, "duration": 12, "velocity": 64}, {"time": 1212, "pitch": 75, "duration": 12, "velocity": 64}, {"time": 1224, "pitch": 72, "duration": 12, "velocity": 64}, {"time": 1236, "pitch": 70, "duration": 18, "velocity": 64}, {"time": 1254, "pitch": 69, "duration": 6, "velocity": 64}, {"time": 1260, "pitch": 67, "duration": 12, "velocity": 64}, {"time": 1272, "pitch": 69, "duration": 12, "velocity": 64}, {"time": 1284, "pitch": 70, "duration": 48, "velocity": 64}]}]}