{"metadata": {"schema_version": "0.1", "title": "Mari Geburt, S.21f", "source_format": "abc"}, "resolution": 24, "tempos": [{"time": 0, "qpm": 120.0}], "key_signatures": [{"time": 0, "root": 7, "mode": "major", "fifths": 1}], "time_signatures": [{"time": 0, "numerator": 4, "denominator": 4}, {"time": 1080, "numerator": 2, "denominator": 4}, {"time": 1368, "numerator": 2, "denominator": 4}, {"time": 1656, "numerator": 2, "denominator": 4}, {"time": 2232, "numerator": 2, "denominator": 4}, {"time": 2520, "numerator": 2, "denominator": 4}, {"time": 2808, "numerator": 2, "denominator": 4}, {"time": 2856, "numerator": 4, "denominator": 4}], "beats": [{"time": 0, "is_downbeat": true}, {"time": 24, "is_downbeat": true}, {"time": 48, "is_downbeat": false}, {"time": 72, "is_downbeat": true}, {"time": 96, "is_downbeat": false}, {"time": 120, "is_downbeat": true}, {"time": 144, "is_downbeat": false}, {"time": 168, "is_downbeat": true}, {"time": 192, "is_downbeat": false}, {"time": 204, "is_downbeat": true}, {"time": 216, "is_downbeat": true}, {"time": 240, "is_downbeat": false}, {"time": 264, "is_downbeat": true}, {"time": 288, "is_downbeat": false}, {"time": 312, "is_downbeat": true}, {"time": 336, "is_downbeat": false}, {"time": 360, "is_downbeat": true}, {"time": 384, "is_downbeat": false}, {"time": 408, "is_downbeat": true}, {"time": 432, "is_downbeat": false}, {"time": 456, "is_downbeat": true}, {"time": 480, "is_downbeat": false}, {"time": 504, "is_downbeat": true}, {"time": 528, "is_downbeat": false}, {"time": 552, "is_downbeat": true}, {"time": 576, "is_downbeat": false}, {"time": 588, "is_downbeat": true}, {"time": 600, "is_downbeat": true}, {"time": 624, "is_downbeat": false}, {"time": 648, "is_downbeat": true}, {"time": 672, "is_downbeat": false}, {"time": 696, "is_downbeat": true}, {"time": 720, "is_downbeat": false}, {"time": 744, "is_downbeat": true}, {"time": 768, "is_downbeat": true}, {"time": 792, "is_downbeat": false}, {"time": 816, "is_downbeat": true}, {"time": 840, "is_downbeat": true}, {"time": 864, "is_downbeat": false}, {"time": 888, "is_downbeat": true}, {"time": 912, "is_downbeat": true}, {"time": 936, "is_downbeat": false}, {"time": 960, "is_downbeat": true}, {"time": 984, "is_downbeat": true}, {"time": 1008, "is_downbeat": false}, {"time": 1032, "is_downbeat": true}, {"time": 1056, "is_downbeat": false}, {"time": 1080, "is_downbeat": true}, {"time": 1104, "is_downbeat": false}, {"time": 1128, "is_downbeat": true}, {"time": 1152, "is_downbeat": false}, {"time": 1176, "is_downbeat": true}, {"time": 1200, "is_downbeat": true}, {"time": 1224, "is_downbeat": false}, {"time": 1248, "is_downbeat": true}, {"time": 1272, "is_downbeat": true}, {"time": 1296, "is_downbeat": false}, {"time": 1320, "is_downbeat": true}, {"time": 1344, "is_downbeat": false}, {"time": 1368, "is_downbeat": true}, {"time": 1392, "is_downbeat": false}, {"time": 1416, "is_downbeat": true}, {"time": 1440, "is_downbeat": false}, {"time": 1464, "is_downbeat": true}, {"time": 1488, "is_downbeat": true}, {"time": 1512, "is_downbeat": false}, {"time": 1536, "is_downbeat": true}, {"time": 1560, "is_downbeat": true}, {"time": 1584, "is_downbeat": false}, {"time": 1608, "is_downbeat": true}, {"time": 1632, "is_downbeat": false}, {"time": 1656, "is_downbeat": true}, {"time": 1680, "is_downbeat": false}, {"time": 1704, "is_downbeat": true}, {"time": 1728, "is_downbeat": false}, {"time": 1752, "is_downbeat": true}, {"time": 1776, "is_downbeat": true}, {"time": 1800, "is_downbeat": false}, {"time": 1824, "is_downbeat": true}, {"time": 1848, "is_downbeat": true}, {"time": 1872, "is_downbeat": false}, {"time": 1896, "is_downbeat": true}, {"time": 1920, "is_downbeat": true}, {"time": 1944, "is_downbeat": false}, {"time": 1968, "is_downbeat": true}, {"time": 1992, "is_downbeat": true}, {"time": 2016, "is_downbeat": false}, {"time": 2040, "is_downbeat": true}, {"time": 2064, "is_downbeat": true}, {"time": 2088, "is_downbeat": false}, {"time": 2112, "is_downbeat": true}, {"time": 2136, "is_downbeat": true}, {"time": 2160, "is_downbeat": false}, {"time": 2184, "is_downbeat": true}, {"time": 2208, "is_downbeat": false}, {"time": 2232, "is_downbeat": true}, {"time": 2256, "is_downbeat": false}, {"time": 2280, "is_downbeat": true}, {"time": 2304, "is_downbeat": false}, {"time": 2328, "is_downbeat": true}, {"time": 2352, "is_downbeat": true}, {"time": 2376, "is_downbeat": false}, {"time": 2400, "is_downbeat": true}, {"time": 2424, "is_downbeat": true}, {"time": 2448, "is_downbeat": false}, {"time": 2472, "is_downbeat": true}, {"time": 2496, "is_downbeat": false}, {"time": 2520, "is_downbeat": true}, {"time": 2544, "is_downbeat": false}, {"time": 2568, "is_downbeat": true}, {"time": 2592, "is_downbeat": false}, {"time": 2616, "is_downbeat": true}, {"time": 2640, "is_downbeat": true}, {"time": 2664, "is_downbeat": false}, {"time": 2688, "is_downbeat": true}, {"time": 2712, "is_downbeat": true}, {"time": 2736, "is_downbeat": false}, {"time": 2760, "is_downbeat": true}, {"time": 2784, "is_downbeat": false}, {"time": 2808, "is_downbeat": true}, {"time": 2832, "is_downbeat": false}, {"time": 2856, "is_downbeat": true}, {"time": 2880, "is_downbeat": false}, {"time": 2904, "is_downbeat": false}, {"time": 2928, "is_downbeat": true}, {"time": 2952, "is_downbeat": false}, {"time": 2976, "is_downbeat": false}, {"time": 3000, "is_downbeat": true}, {"time": 3024, "is_downbeat": false}, {"time": 3048, "is_downbeat": false}, {"time": 3072, "is_downbeat": false}], "tracks": [{"program": 0, "is_drum": false, "notes": [{"time": 0, "pitch": 62, "duration": 24, "velocity": 64}, {"time": 24, "pitch": 67, "duration": 36, "velocity": 64}, {"time": 60, "pitch": 67, "duration": 12, "velocity": 64}, {"time": 72, "pitch": 71, "duration": 12, "velocity": 64}, {"time": 84, "pitch": 69, "duration": 12, "velocity": 64}, {"time": 96, "pitch": 67, "duration": 12, "velocity": 64}, {"time": 108, "pitch": 69, "duration": 12, "velocity": 64}, {"time": 120, "pitch": 71, "duration": 24, "velocity": 64}, {"time": 144, "pitch": 69, "duration": 8, "velocity": 64}, {"time": 152, "pitch": 71, "duration": 8, "velocity": 64}, {"time": 160, "pitch": 72, "duration": 8, "velocity": 64}, {"time": 168, "pitch": 71, "duration": 24, "velocity": 64}, {"time": 204, "pitch": 62, "duration": 12, "velocity": 64}, {"time": 216, "pitch": 67, "duration": 36, "velocity": 64}, {"time": 252, "pitch": 67, "duration": 12, "velocity": 64}, {"time": 264, "pitch": 71, "duration": 12, "velocity": 64}, {"time": 276, "pitch": 69, "duration": 24, "velocity": 64}, {"time": 300, "pitch": 66, "duration": 12, "velocity": 64}, {"time": 312, "pitch": 67, "duration": 48, "velocity": 64}, {"time": 384, "pitch": 62, "duration": 24, "velocity": 64}, {"time": 408, "pitch": 67, "duration": 36, "velocity": 64}, {"time": 444, "pitch": 67, "duration": 12, "velocity": 64}, {"time": 456, "pitch": 71, "duration": 12, "velocity": 64}, {"time": 468, "pitch": 69, "duration": 12, "velocity": 64}, {"time": 480, "pitch": 67, "duration": 12, "velocity": 64}, {"time": 492, "pitch": 69, "duration": 12, "velocity": 64}, {"time": 504, "pitch": 71, "duration": 24, "velocity": 64}, {"time": 528, "pitch": 69, "duration": 8, "velocity": 64}, {"time": 536, "pitch": 71, "duration": 8, "velocity": 64}, {"time": 544, "pitch": 72, "duration": 8, "velocity": 64}, {"time": 552, "pitch": 71, "duration": 24, "velocity": 64}, {"time": 588, "pitch": 62, "duration": 12, "velocity": 64}, {"time": 600, "pitch": 67, "duration": 36, "velocity": 64}, {"time": 636, "pitch": 67, "duration": 12, "velocity": 64}, {"time": 648, "pitch": 71, "duration": 12, "velocity": 64}, {"time": 660, "pitch": 69, "duration": 24, "velocity": 64}, {"time": 684, "pitch": 66, "duration": 12, "velocity": 64}, {"time": 696, "pitch": 67, "duration": 48, "velocity": 64}, {"time": 768, "pitch": 74, "duration": 48, "velocity": 64}, {"time": 816, "pitch": 72, "duration": 24, "velocity": 64}, {"time": 840, "pitch": 71, "duration": 36, "velocity": 64}, {"time": 876, "pitch": 69, "duration": 12, "velocity": 64}, {"time": 888, "pitch": 67, "duration": 12, "velocity": 64}, {"time": 900, "pitch": 72, "duration": 12, "velocity": 64}, {"time": 912, "pitch": 72, "duration": 48, "velocity": 64}, {"time": 960, "pitch": 71, "duration": 24, "velocity": 64}, {"time": 984, "pitch": 69, "duration": 48, "velocity": 64}, {"time": 1056, "pitch": 71, "duration": 48, "velocity": 64}, {"time": 1104, "pitch": 69, "duration": 24, "velocity": 64}, {"time": 1128, "pitch": 67, "duration": 36, "velocity": 64}, {"time": 1164, "pitch": 66, "duration": 12, "velocity": 64}, {"time": 1176, "pitch": 67, "duration": 12, "velocity": 64}, {"time": 1188, "pitch": 71, "duration": 12, "velocity": 64}, {"time": 1200, "pitch": 69, "duration": 48, "velocity": 64}, {"time": 1248, "pitch": 67, "duration": 24, "velocity": 64}, {"time": 1272, "pitch": 66, "duration": 48, "velocity": 64}, {"time": 1344, "pitch": 67, "duration": 48, "velocity": 64}, {"time": 1392, "pitch": 66, "duration": 24, "velocity": 64}, {"time": 1416, "pitch": 64, "duration": 48, "velocity": 64}, {"time": 1488, "pitch": 66, "duration": 48, "velocity": 64}, {"time": 1536, "pitch": 64, "duration": 24, "velocity": 64}, {"time": 1560, "pitch": 62, "duration": 48, "velocity": 64}, {"time": 1632, "pitch": 67, "duration": 24, "velocity": 64}, {"time": 1656, "pitch": 69, "duration": 24, "velocity": 64}, {"time": 1680, "pitch": 71, "duration": 24, "velocity": 64}, {"time": 1704, "pitch": 72, "duration": 12, "velocity": 64}, {"time": 1716, "pitch": 71, "duration": 12, "velocity": 64}, {"time": 1728, "pitch": 71, "duration": 12, "velocity": 64}, {"time": 1740, "pitch": 69, "duration": 24, "velocity": 64}, {"time": 1764, "pitch": 66, "duration": 12, "velocity": 64}, {"time": 1776, "pitch": 67, "duration": 96, "velocity": 64}, {"time": 1920, "pitch": 74, "duration": 48, "velocity": 64}, {"time": 1968, "pitch": 72, "duration": 24, "velocity": 64}, {"time": 1992, "pitch": 71, "duration": 36, "velocity": 64}, {"time": 2028, "pitch": 69, "duration": 12, "velocity": 64}, {"time": 2040, "pitch": 67, "duration": 12, "velocity": 64}, {"time": 2052, "pitch": 72, "duration": 12, "velocity": 64}, {"time": 2064, "pitch": 72, "duration": 48, "velocity": 64}, {"time": 2112, "pitch": 71, "duration": 24, "velocity": 64}, {"time": 2136, "pitch": 69, "duration": 48, "velocity": 64}, {"time": 2208, "pitch": 71, "duration": 48, "velocity": 64}, {"time": 2256, "pitch": 69, "duration": 24, "velocity": 64}, {"time": 2280, "pitch": 67, "duration": 36, "velocity": 64}, {"time": 2316, "pitch": 66, "duration": 12, "velocity": 64}, {"time": 2328, "pitch": 67, "duration": 12, "velocity": 64}, {"time": 2340, "pitch": 71, "duration": 12, "velocity": 64}, {"time": 2352, "pitch": 69, "duration": 48, "velocity": 64}, {"time": 2400, "pitch": 67, "duration": 24, "velocity": 64}, {"time": 2424, "pitch": 66, "duration": 48, "velocity": 64}, {"time": 2496, "pitch": 67, "duration": 48, "velocity": 64}, {"time": 2544, "pitch": 66, "duration": 24, "velocity": 64}, {"time": 2568, "pitch": 64, "duration": 48, "velocity": 64}, {"time": 2640, "pitch": 66, "duration": 48, "velocity": 64}, {"time": 2688, "pitch": 64, "duration": 24, "velocity": 64}, {"time": 2712, "pitch": 62, "duration": 48, "velocity": 64}, {"time": 2784, "pitch": 67, "duration": 24, "velocity": 64}, {"time": 2808, "pitch": 69, "duration": 24, "velocity": 64}, {"time": 2832, "pitch": 71, "duration": 24, "velocity": 64}, {"time": 2856, "pitch": 72, "duration": 12, "velocity": 64}, {"time": 2868, "pitch": 71, "duration": 12, "velocity": 64}, {"time": 2880, "pitch": 71, "duration": 12, "velocity": 64}, {"time": 2892, "pitch": 69, "duration": 24, "velocity": 64}, {"time": 2916, "pitch": 66, "duration": 12, "velocity": 64}, {"time": 2928, "pitch": 67, "duration": 96, "velocity": 64}]}]}