{"metadata": {"schema_version": "0.1", "title": "Ich schieá den Hirsch im wilden Forst (2-28), S. 73f", "source_format": "abc"}, "resolution": 24, "tempos": [{"time": 0, "qpm": 120.0}], "key_signatures": [{"time": 0, "root": 7, "mode": "major", "fifths": 1}], "time_signatures": [{"time": 0, "numerator": 4, "denominator": 4}, {"time": 684, "numerator": 1, "denominator": 4}, {"time": 756, "numerator": 1, "denominator": 4}, {"time": 828, "numerator": 1, "denominator": 4}, {"time": 900, "numerator": 1, "denominator": 4}, {"time": 972, "numerator": 1, "denominator": 4}, {"time": 1044, "numerator": 1, "denominator": 4}, {"time": 1116, "numerator": 1, "denominator": 4}, {"time": 1140, "numerator": 2, "denominator": 4}, {"time": 1188, "numerator": 1, "denominator": 8}], "beats": [{"time": 0, "is_downbeat": true}, {"time": 12, "is_downbeat": true}, {"time": 36, "is_downbeat": true}, {"time": 60, "is_downbeat": true}, {"time": 84, "is_downbeat": true}, {"time": 108, "is_downbeat": true}, {"time": 132, "is_downbeat": true}, {"time": 156, "is_downbeat": true}, {"time": 180, "is_downbeat": true}, {"time": 204, "is_downbeat": true}, {"time": 228, "is_downbeat": true}, {"time": 252, "is_downbeat": true}, {"time": 276, "is_downbeat": true}, {"time": 300, "is_downbeat": true}, {"time": 324, "is_downbeat": true}, {"time": 348, "is_downbeat": true}, {"time": 372, "is_downbeat": true}, {"time": 396, "is_downbeat": true}, {"time": 420, "is_downbeat": true}, {"time": 444, "is_downbeat": true}, {"time": 468, "is_downbeat": true}, {"time": 492, "is_downbeat": true}, {"time": 516, "is_downbeat": true}, {"time": 540, "is_downbeat": true}, {"time": 564, "is_downbeat": true}, {"time": 588, "is_downbeat": true}, {"time": 612, "is_downbeat": true}, {"time": 636, "is_downbeat": true}, {"time": 660, "is_downbeat": true}, {"time": 684, "is_downbeat": true}, {"time": 708, "is_downbeat": true}, {"time": 732, "is_downbeat": true}, {"time": 756, "is_downbeat": true}, {"time": 780, "is_downbeat": true}, {"time": 804, "is_downbeat": true}, {"time": 828, "is_downbeat": true}, {"time": 852, "is_downbeat": true}, {"time": 876, "is_downbeat": true}, {"time": 900, "is_downbeat": true}, {"time": 924, "is_downbeat": true}, {"time": 948, "is_downbeat": true}, {"time": 972, "is_downbeat": true}, {"time": 996, "is_downbeat": true}, {"time": 1020, "is_downbeat": true}, {"time": 1044, "is_downbeat": true}, {"time": 1068, "is_downbeat": true}, {"time": 1092, "is_downbeat": true}, {"time": 1116, "is_downbeat": true}, {"time": 1140, "is_downbeat": true}, {"time": 1152, "is_downbeat": true}, {"time": 1164, "is_downbeat": true}, {"time": 1176, "is_downbeat": true}, {"time": 1188, "is_downbeat": true}], "tracks": [{"program": 0, "is_drum": false, "notes": [{"time": 0, "pitch": 71, "duration": 12, "velocity": 64}, {"time": 12, "pitch": 71, "duration": 18, "velocity": 64}, {"time": 30, "pitch": 64, "duration": 6, "velocity": 64}, {"time": 36, "pitch": 64, "duration": 18, "velocity": 64}, {"time": 54, "pitch": 64, "duration": 6, "velocity": 64}, {"time": 60, "pitch": 64, "duration": 18, "velocity": 64}, {"time": 78, "pitch": 64, "duration": 6, "velocity": 64}, {"time": 84, "pitch": 64, "duration": 18, "velocity": 64}, {"time": 102, "pitch": 59, "duration": 6, "velocity": 64}, {"time": 108, "pitch": 64, "duration": 18, "velocity": 64}, {"time": 126, "pitch": 66, "duration": 6, "velocity": 64}, {"time": 132, "pitch": 67, "duration": 18, "velocity": 64}, {"time": 150, "pitch": 66, "duration": 6, "velocity": 64}, {"time": 156, "pitch": 64, "duration": 24, "velocity": 64}, {"time": 192, "pitch": 71, "duration": 12, "velocity": 64}, {"time": 204, "pitch": 71, "duration": 18, "velocity": 64}, {"time": 222, "pitch": 64, "duration": 6, "velocity": 64}, {"time": 228, "pitch": 64, "duration": 18, "velocity": 64}, {"time": 246, "pitch": 64, "duration": 6, "velocity": 64}, {"time": 252, "pitch": 64, "duration": 18, "velocity": 64}, {"time": 270, "pitch": 64, "duration": 6, "velocity": 64}, {"time": 276, "pitch": 64, "duration": 18, "velocity": 64}, {"time": 294, "pitch": 64, "duration": 6, "velocity": 64}, {"time": 300, "pitch": 62, "duration": 18, "velocity": 64}, {"time": 318, "pitch": 62, "duration": 6, "velocity": 64}, {"time": 324, "pitch": 71, "duration": 18, "velocity": 64}, {"time": 342, "pitch": 69, "duration": 6, "velocity": 64}, {"time": 348, "pitch": 67, "duration": 24, "velocity": 64}, {"time": 384, "pitch": 71, "duration": 12, "velocity": 64}, {"time": 396, "pitch": 71, "duration": 18, "velocity": 64}, {"time": 414, "pitch": 67, "duration": 6, "velocity": 64}, {"time": 420, "pitch": 76, "duration": 18, "velocity": 64}, {"time": 438, "pitch": 72, "duration": 6, "velocity": 64}, {"time": 444, "pitch": 71, "duration": 18, "velocity": 64}, {"time": 462, "pitch": 67, "duration": 6, "velocity": 64}, {"time": 468, "pitch": 64, "duration": 18, "velocity": 64}, {"time": 486, "pitch": 71, "duration": 6, "velocity": 64}, {"time": 492, "pitch": 71, "duration": 18, "velocity": 64}, {"time": 510, "pitch": 67, "duration": 6, "velocity": 64}, {"time": 516, "pitch": 76, "duration": 18, "velocity": 64}, {"time": 534, "pitch": 72, "duration": 6, "velocity": 64}, {"time": 540, "pitch": 71, "duration": 24, "velocity": 64}, {"time": 564, "pitch": 74, "duration": 24, "velocity": 64}, {"time": 588, "pitch": 71, "duration": 24, "velocity": 64}, {"time": 624, "pitch": 62, "duration": 12, "velocity": 64}, {"time": 636, "pitch": 67, "duration": 24, "velocity": 64}, {"time": 660, "pitch": 69, "duration": 12, "velocity": 64}, {"time": 672, "pitch": 71, "duration": 24, "velocity": 64}, {"time": 696, "pitch": 72, "duration": 12, "velocity": 64}, {"time": 708, "pitch": 76, "duration": 24, "velocity": 64}, {"time": 732, "pitch": 72, "duration": 12, "velocity": 64}, {"time": 744, "pitch": 71, "duration": 24, "velocity": 64}, {"time": 768, "pitch": 71, "duration": 12, "velocity": 64}, {"time": 780, "pitch": 71, "duration": 24, "velocity": 64}, {"time": 804, "pitch": 69, "duration": 12, "velocity": 64}, {"time": 816, "pitch": 72, "duration": 24, "velocity": 64}, {"time": 840, "pitch": 71, "duration": 12, "velocity": 64}, {"time": 852, "pitch": 67, "duration": 36, "velocity": 64}, {"time": 912, "pitch": 62, "duration": 12, "velocity": 64}, {"time": 924, "pitch": 67, "duration": 24, "velocity": 64}, {"time": 948, "pitch": 69, "duration": 12, "velocity": 64}, {"time": 960, "pitch": 71, "duration": 24, "velocity": 64}, {"time": 984, "pitch": 72, "duration": 12, "velocity": 64}, {"time": 996, "pitch": 76, "duration": 24, "velocity": 64}, {"time": 1020, "pitch": 74, "duration": 12, "velocity": 64}, {"time": 1032, "pitch": 71, "duration": 24, "velocity": 64}, {"time": 1056, "pitch": 71, "duration": 12, "velocity": 64}, {"time": 1068, "pitch": 71, "duration": 24, "velocity": 64}, {"time": 1092, "pitch": 69, "duration": 12, "velocity": 64}, {"time": 1104, "pitch": 72, "duration": 24, "velocity": 64}, {"time": 1128, "pitch": 71, "duration": 12, "velocity": 64}, {"time": 1140, "pitch": 67, "duration": 36, "velocity": 64}]}]}