{"metadata": {"schema_version": "0.1", "title": "Der Sngerbund (2-43), S. 116f", "source_format": "abc"}, "resolution": 24, "tempos": [{"time": 0, "qpm": 120.0}], "key_signatures": [{"time": 0, "root": 5, "mode": "major", "fifths": -1}], "time_signatures": [{"time": 0, "numerator": 4, "denominator": 4}], "beats": [{"time": 0, "is_downbeat": true}, {"time": 24, "is_downbeat": false}, {"time": 36, "is_downbeat": true}, {"time": 60, "is_downbeat": false}, {"time": 84, "is_downbeat": false}, {"time": 108, "is_downbeat": false}, {"time": 132, "is_downbeat": true}, {"time": 156, "is_downbeat": false}, {"time": 180, "is_downbeat": false}, {"time": 204, "is_downbeat": false}, {"time": 228, "is_downbeat": true}, {"time": 252, "is_downbeat": false}, {"time": 276, "is_downbeat": false}, {"time": 300, "is_downbeat": false}, {"time": 324, "is_downbeat": true}, {"time": 348, "is_downbeat": false}, {"time": 372, "is_downbeat": false}, {"time": 396, "is_downbeat": false}, {"time": 420, "is_downbeat": true}, {"time": 444, "is_downbeat": false}, {"time": 468, "is_downbeat": false}, {"time": 492, "is_downbeat": false}, {"time": 516, "is_downbeat": true}, {"time": 540, "is_downbeat": false}, {"time": 564, "is_downbeat": false}, {"time": 588, "is_downbeat": false}, {"time": 612, "is_downbeat": true}, {"time": 636, "is_downbeat": false}, {"time": 660, "is_downbeat": false}, {"time": 684, "is_downbeat": false}, {"time": 708, "is_downbeat": true}, {"time": 732, "is_downbeat": false}, {"time": 756, "is_downbeat": false}, {"time": 780, "is_downbeat": false}, {"time": 804, "is_downbeat": true}, {"time": 828, "is_downbeat": false}, {"time": 852, "is_downbeat": false}, {"time": 876, "is_downbeat": false}, {"time": 900, "is_downbeat": true}, {"time": 924, "is_downbeat": false}, {"time": 948, "is_downbeat": false}, {"time": 972, "is_downbeat": false}, {"time": 996, "is_downbeat": true}, {"time": 1020, "is_downbeat": false}, {"time": 1044, "is_downbeat": false}, {"time": 1068, "is_downbeat": false}, {"time": 1092, "is_downbeat": true}, {"time": 1116, "is_downbeat": false}, {"time": 1140, "is_downbeat": false}, {"time": 1164, "is_downbeat": false}, {"time": 1188, "is_downbeat": true}, {"time": 1212, "is_downbeat": false}, {"time": 1236, "is_downbeat": false}, {"time": 1260, "is_downbeat": false}, {"time": 1284, "is_downbeat": true}, {"time": 1308, "is_downbeat": false}, {"time": 1332, "is_downbeat": false}, {"time": 1356, "is_downbeat": false}, {"time": 1380, "is_downbeat": true}, {"time": 1404, "is_downbeat": false}, {"time": 1428, "is_downbeat": false}, {"time": 1452, "is_downbeat": false}, {"time": 1476, "is_downbeat": true}, {"time": 1500, "is_downbeat": false}, {"time": 1524, "is_downbeat": false}, {"time": 1548, "is_downbeat": false}, {"time": 1572, "is_downbeat": true}, {"time": 1596, "is_downbeat": false}, {"time": 1620, "is_downbeat": false}, {"time": 1644, "is_downbeat": false}, {"time": 1668, "is_downbeat": true}, {"time": 1692, "is_downbeat": false}, {"time": 1716, "is_downbeat": false}, {"time": 1740, "is_downbeat": false}, {"time": 1764, "is_downbeat": true}, {"time": 1788, "is_downbeat": false}, {"time": 1812, "is_downbeat": false}, {"time": 1836, "is_downbeat": false}, {"time": 1860, "is_downbeat": true}, {"time": 1884, "is_downbeat": false}, {"time": 1908, "is_downbeat": false}, {"time": 1932, "is_downbeat": false}], "tracks": [{"program": 0, "is_drum": false, "notes": [{"time": 0, "pitch": 60, "duration": 12, "velocity": 64}, {"time": 12, "pitch": 62, "duration": 12, "velocity": 64}, {"time": 24, "pitch": 64, "duration": 12, "velocity": 64}, {"time": 36, "pitch": 65, "duration": 36, "velocity": 64}, {"time": 72, "pitch": 60, "duration": 12, "velocity": 64}, {"time": 84, "pitch": 65, "duration": 18, "velocity": 64}, {"time": 102, "pitch": 67, "duration": 6, "velocity": 64}, {"time": 108, "pitch": 69, "duration": 18, "velocity": 64}, {"time": 126, "pitch": 70, "duration": 6, "velocity": 64}, {"time": 132, "pitch": 72, "duration": 48, "velocity": 64}, {"time": 192, "pitch": 72, "duration": 12, "velocity": 64}, {"time": 204, "pitch": 74, "duration": 12, "velocity": 64}, {"time": 216, "pitch": 72, "duration": 12, "velocity": 64}, {"time": 228, "pitch": 70, "duration": 36, "velocity": 64}, {"time": 264, "pitch": 70, "duration": 12, "velocity": 64}, {"time": 276, "pitch": 69, "duration": 12, "velocity": 64}, {"time": 288, "pitch": 65, "duration": 12, "velocity": 64}, {"time": 300, "pitch": 72, "duration": 18, "velocity": 64}, {"time": 318, "pitch": 69, "duration": 6, "velocity": 64}, {"time": 324, "pitch": 67, "duration": 18, "velocity": 64}, {"time": 342, "pitch": 69, "duration": 6, "velocity": 64}, {"time": 348, "pitch": 67, "duration": 24, "velocity": 64}, {"time": 384, "pitch": 60, "duration": 12, "velocity": 64}, {"time": 396, "pitch": 62, "duration": 12, "velocity": 64}, {"time": 408, "pitch": 64, "duration": 12, "velocity": 64}, {"time": 420, "pitch": 65, "duration": 36, "velocity": 64}, {"time": 456, "pitch": 60, "duration": 12, "velocity": 64}, {"time": 468, "pitch": 65, "duration": 18, "velocity": 64}, {"time": 486, "pitch": 67, "duration": 6, "velocity": 64}, {"time": 492, "pitch": 69, "duration": 18, "velocity": 64}, {"time": 510, "pitch": 71, "duration": 6, "velocity": 64}, {"time": 516, "pitch": 72, "duration": 48, "velocity": 64}, {"time": 576, "pitch": 67, "duration": 12, "velocity": 64}, {"time": 588, "pitch": 67, "duration": 12, "velocity": 64}, {"time": 600, "pitch": 67, "duration": 12, "velocity": 64}, {"time": 612, "pitch": 76, "duration": 24, "velocity": 64}, {"time": 636, "pitch": 72, "duration": 24, "velocity": 64}, {"time": 660, "pitch": 67, "duration": 18, "velocity": 64}, {"time": 678, "pitch": 67, "duration": 6, "velocity": 64}, {"time": 684, "pitch": 69, "duration": 18, "velocity": 64}, {"time": 702, "pitch": 71, "duration": 6, "velocity": 64}, {"time": 708, "pitch": 74, "duration": 24, "velocity": 64}, {"time": 732, "pitch": 72, "duration": 24, "velocity": 64}, {"time": 768, "pitch": 72, "duration": 12, "velocity": 64}, {"time": 780, "pitch": 74, "duration": 12, "velocity": 64}, {"time": 792, "pitch": 72, "duration": 12, "velocity": 64}, {"time": 804, "pitch": 70, "duration": 36, "velocity": 64}, {"time": 840, "pitch": 70, "duration": 12, "velocity": 64}, {"time": 852, "pitch": 69, "duration": 18, "velocity": 64}, {"time": 870, "pitch": 65, "duration": 6, "velocity": 64}, {"time": 876, "pitch": 72, "duration": 18, "velocity": 64}, {"time": 894, "pitch": 69, "duration": 6, "velocity": 64}, {"time": 900, "pitch": 67, "duration": 48, "velocity": 64}, {"time": 960, "pitch": 72, "duration": 12, "velocity": 64}, {"time": 972, "pitch": 74, "duration": 12, "velocity": 64}, {"time": 984, "pitch": 72, "duration": 12, "velocity": 64}, {"time": 996, "pitch": 70, "duration": 36, "velocity": 64}, {"time": 1032, "pitch": 70, "duration": 12, "velocity": 64}, {"time": 1044, "pitch": 69, "duration": 12, "velocity": 64}, {"time": 1056, "pitch": 65, "duration": 12, "velocity": 64}, {"time": 1068, "pitch": 72, "duration": 18, "velocity": 64}, {"time": 1086, "pitch": 69, "duration": 6, "velocity": 64}, {"time": 1092, "pitch": 67, "duration": 18, "velocity": 64}, {"time": 1110, "pitch": 69, "duration": 6, "velocity": 64}, {"time": 1116, "pitch": 67, "duration": 24, "velocity": 64}, {"time": 1152, "pitch": 60, "duration": 12, "velocity": 64}, {"time": 1164, "pitch": 69, "duration": 12, "velocity": 64}, {"time": 1176, "pitch": 67, "duration": 12, "velocity": 64}, {"time": 1188, "pitch": 65, "duration": 12, "velocity": 64}, {"time": 1200, "pitch": 67, "duration": 12, "velocity": 64}, {"time": 1212, "pitch": 69, "duration": 18, "velocity": 64}, {"time": 1230, "pitch": 67, "duration": 6, "velocity": 64}, {"time": 1236, "pitch": 65, "duration": 18, "velocity": 64}, {"time": 1254, "pitch": 69, "duration": 6, "velocity": 64}, {"time": 1260, "pitch": 74, "duration": 18, "velocity": 64}, {"time": 1278, "pitch": 72, "duration": 6, "velocity": 64}, {"time": 1284, "pitch": 72, "duration": 36, "velocity": 64}, {"time": 1320, "pitch": 70, "duration": 12, "velocity": 64}, {"time": 1332, "pitch": 67, "duration": 12, "velocity": 64}, {"time": 1344, "pitch": 72, "duration": 12, "velocity": 64}, {"time": 1356, "pitch": 72, "duration": 12, "velocity": 64}, {"time": 1368, "pitch": 70, "duration": 12, "velocity": 64}, {"time": 1380, "pitch": 69, "duration": 36, "velocity": 64}, {"time": 1416, "pitch": 69, "duration": 12, "velocity": 64}, {"time": 1428, "pitch": 67, "duration": 18, "velocity": 64}, {"time": 1446, "pitch": 65, "duration": 6, "velocity": 64}, {"time": 1452, "pitch": 67, "duration": 18, "velocity": 64}, {"time": 1470, "pitch": 69, "duration": 6, "velocity": 64}, {"time": 1476, "pitch": 65, "duration": 48, "velocity": 64}, {"time": 1536, "pitch": 60, "duration": 12, "velocity": 64}, {"time": 1548, "pitch": 69, "duration": 12, "velocity": 64}, {"time": 1560, "pitch": 67, "duration": 12, "velocity": 64}, {"time": 1572, "pitch": 65, "duration": 12, "velocity": 64}, {"time": 1584, "pitch": 67, "duration": 12, "velocity": 64}, {"time": 1596, "pitch": 69, "duration": 18, "velocity": 64}, {"time": 1614, "pitch": 67, "duration": 6, "velocity": 64}, {"time": 1620, "pitch": 65, "duration": 18, "velocity": 64}, {"time": 1638, "pitch": 69, "duration": 6, "velocity": 64}, {"time": 1644, "pitch": 74, "duration": 18, "velocity": 64}, {"time": 1662, "pitch": 72, "duration": 6, "velocity": 64}, {"time": 1668, "pitch": 72, "duration": 36, "velocity": 64}, {"time": 1704, "pitch": 70, "duration": 12, "velocity": 64}, {"time": 1716, "pitch": 67, "duration": 12, "velocity": 64}, {"time": 1728, "pitch": 72, "duration": 12, "velocity": 64}, {"time": 1740, "pitch": 72, "duration": 12, "velocity": 64}, {"time": 1752, "pitch": 70, "duration": 12, "velocity": 64}, {"time": 1764, "pitch": 69, "duration": 36, "velocity": 64}, {"time": 1800, "pitch": 69, "duration": 12, "velocity": 64}, {"time": 1812, "pitch": 67, "duration": 18, "velocity": 64}, {"time": 1830, "pitch": 65, "duration": 6, "velocity": 64}, {"time": 1836, "pitch": 67, "duration": 18, "velocity": 64}, {"time": 1854, "pitch": 69, "duration": 6, "velocity": 64}, {"time": 1860, "pitch": 65, "duration": 48, "velocity": 64}]}]}