{"metadata": {"schema_version": "0.1", "title": "Ein lust'ger Musikant (3-17), S. 45f", "source_format": "abc"}, "resolution": 24, "tempos": [{"time": 0, "qpm": 120.0}], "key_signatures": [{"time": 0, "root": 7, "mode": "major", "fifths": 1}], "time_signatures": [{"time": 0, "numerator": 2, "denominator": 4}], "beats": [{"time": 0, "is_downbeat": true}, {"time": 12, "is_downbeat": true}, {"time": 36, "is_downbeat": false}, {"time": 60, "is_downbeat": true}, {"time": 84, "is_downbeat": false}, {"time": 108, "is_downbeat": true}, {"time": 132, "is_downbeat": false}, {"time": 156, "is_downbeat": true}, {"time": 180, "is_downbeat": false}, {"time": 204, "is_downbeat": true}, {"time": 228, "is_downbeat": false}, {"time": 252, "is_downbeat": true}, {"time": 276, "is_downbeat": false}, {"time": 300, "is_downbeat": true}, {"time": 324, "is_downbeat": false}, {"time": 348, "is_downbeat": true}, {"time": 372, "is_downbeat": false}, {"time": 396, "is_downbeat": true}, {"time": 420, "is_downbeat": false}, {"time": 444, "is_downbeat": true}, {"time": 468, "is_downbeat": false}, {"time": 492, "is_downbeat": true}, {"time": 516, "is_downbeat": false}, {"time": 540, "is_downbeat": true}, {"time": 564, "is_downbeat": false}, {"time": 588, "is_downbeat": true}, {"time": 612, "is_downbeat": false}, {"time": 636, "is_downbeat": true}, {"time": 660, "is_downbeat": false}, {"time": 684, "is_downbeat": true}, {"time": 708, "is_downbeat": false}, {"time": 732, "is_downbeat": true}, {"time": 756, "is_downbeat": false}, {"time": 780, "is_downbeat": true}, {"time": 804, "is_downbeat": false}, {"time": 828, "is_downbeat": true}, {"time": 852, "is_downbeat": false}, {"time": 876, "is_downbeat": true}, {"time": 900, "is_downbeat": false}, {"time": 924, "is_downbeat": true}, {"time": 948, "is_downbeat": false}, {"time": 972, "is_downbeat": true}, {"time": 996, "is_downbeat": false}, {"time": 1020, "is_downbeat": true}, {"time": 1044, "is_downbeat": false}, {"time": 1068, "is_downbeat": true}, {"time": 1092, "is_downbeat": false}, {"time": 1116, "is_downbeat": true}, {"time": 1140, "is_downbeat": false}, {"time": 1164, "is_downbeat": true}, {"time": 1188, "is_downbeat": false}, {"time": 1212, "is_downbeat": true}, {"time": 1236, "is_downbeat": false}, {"time": 1260, "is_downbeat": true}, {"time": 1284, "is_downbeat": false}, {"time": 1308, "is_downbeat": true}, {"time": 1332, "is_downbeat": false}, {"time": 1356, "is_downbeat": true}, {"time": 1380, "is_downbeat": false}, {"time": 1404, "is_downbeat": true}, {"time": 1428, "is_downbeat": false}, {"time": 1452, "is_downbeat": true}, {"time": 1476, "is_downbeat": false}], "tracks": [{"program": 0, "is_drum": false, "notes": [{"time": 0, "pitch": 62, "duration": 12, "velocity": 64}, {"time": 12, "pitch": 67, "duration": 18, "velocity": 64}, {"time": 30, "pitch": 66, "duration": 6, "velocity": 64}, {"time": 36, "pitch": 67, "duration": 12, "velocity": 64}, {"time": 48, "pitch": 69, "duration": 12, "velocity": 64}, {"time": 60, "pitch": 67, "duration": 12, "velocity": 64}, {"time": 72, "pitch": 66, "duration": 12, "velocity": 64}, {"time": 84, "pitch": 64, "duration": 12, "velocity": 64}, {"time": 96, "pitch": 62, "duration": 12, "velocity": 64}, {"time": 108, "pitch": 67, "duration": 18, "velocity": 64}, {"time": 126, "pitch": 66, "duration": 12, "velocity": 64}, {"time": 138, "pitch": 67, "duration": 6, "velocity": 64}, {"time": 144, "pitch": 71, "duration": 12, "velocity": 64}, {"time": 156, "pitch": 69, "duration": 24, "velocity": 64}, {"time": 192, "pitch": 62, "duration": 12, "velocity": 64}, {"time": 204, "pitch": 67, "duration": 18, "velocity": 64}, {"time": 222, "pitch": 66, "duration": 6, "velocity": 64}, {"time": 228, "pitch": 64, "duration": 12, "velocity": 64}, {"time": 240, "pitch": 69, "duration": 12, "velocity": 64}, {"time": 252, "pitch": 67, "duration": 24, "velocity": 64}, {"time": 276, "pitch": 66, "duration": 24, "velocity": 64}, {"time": 300, "pitch": 67, "duration": 24, "velocity": 64}, {"time": 336, "pitch": 71, "duration": 12, "velocity": 64}, {"time": 348, "pitch": 71, "duration": 18, "velocity": 64}, {"time": 366, "pitch": 71, "duration": 6, "velocity": 64}, {"time": 372, "pitch": 71, "duration": 12, "velocity": 64}, {"time": 384, "pitch": 71, "duration": 12, "velocity": 64}, {"time": 396, "pitch": 72, "duration": 24, "velocity": 64}, {"time": 420, "pitch": 72, "duration": 12, "velocity": 64}, {"time": 432, "pitch": 71, "duration": 12, "velocity": 64}, {"time": 444, "pitch": 69, "duration": 18, "velocity": 64}, {"time": 462, "pitch": 69, "duration": 6, "velocity": 64}, {"time": 468, "pitch": 69, "duration": 12, "velocity": 64}, {"time": 480, "pitch": 69, "duration": 12, "velocity": 64}, {"time": 492, "pitch": 74, "duration": 36, "velocity": 64}, {"time": 528, "pitch": 71, "duration": 12, "velocity": 64}, {"time": 540, "pitch": 71, "duration": 24, "velocity": 64}, {"time": 564, "pitch": 71, "duration": 6, "velocity": 64}, {"time": 570, "pitch": 71, "duration": 6, "velocity": 64}, {"time": 576, "pitch": 71, "duration": 12, "velocity": 64}, {"time": 588, "pitch": 72, "duration": 36, "velocity": 64}, {"time": 624, "pitch": 71, "duration": 12, "velocity": 64}, {"time": 636, "pitch": 69, "duration": 18, "velocity": 64}, {"time": 654, "pitch": 69, "duration": 6, "velocity": 64}, {"time": 660, "pitch": 69, "duration": 12, "velocity": 64}, {"time": 672, "pitch": 69, "duration": 12, "velocity": 64}, {"time": 684, "pitch": 74, "duration": 36, "velocity": 64}, {"time": 720, "pitch": 67, "duration": 12, "velocity": 64}, {"time": 732, "pitch": 67, "duration": 18, "velocity": 64}, {"time": 750, "pitch": 67, "duration": 6, "velocity": 64}, {"time": 756, "pitch": 67, "duration": 12, "velocity": 64}, {"time": 768, "pitch": 66, "duration": 12, "velocity": 64}, {"time": 780, "pitch": 64, "duration": 12, "velocity": 64}, {"time": 792, "pitch": 72, "duration": 12, "velocity": 64}, {"time": 804, "pitch": 71, "duration": 12, "velocity": 64}, {"time": 816, "pitch": 69, "duration": 12, "velocity": 64}, {"time": 828, "pitch": 71, "duration": 24, "velocity": 64}, {"time": 852, "pitch": 69, "duration": 24, "velocity": 64}, {"time": 876, "pitch": 67, "duration": 36, "velocity": 64}, {"time": 912, "pitch": 71, "duration": 12, "velocity": 64}, {"time": 924, "pitch": 71, "duration": 18, "velocity": 64}, {"time": 942, "pitch": 71, "duration": 6, "velocity": 64}, {"time": 948, "pitch": 71, "duration": 12, "velocity": 64}, {"time": 960, "pitch": 71, "duration": 12, "velocity": 64}, {"time": 972, "pitch": 72, "duration": 24, "velocity": 64}, {"time": 996, "pitch": 72, "duration": 12, "velocity": 64}, {"time": 1008, "pitch": 71, "duration": 12, "velocity": 64}, {"time": 1020, "pitch": 69, "duration": 18, "velocity": 64}, {"time": 1038, "pitch": 69, "duration": 6, "velocity": 64}, {"time": 1044, "pitch": 69, "duration": 12, "velocity": 64}, {"time": 1056, "pitch": 69, "duration": 12, "velocity": 64}, {"time": 1068, "pitch": 74, "duration": 36, "velocity": 64}, {"time": 1104, "pitch": 71, "duration": 12, "velocity": 64}, {"time": 1116, "pitch": 71, "duration": 24, "velocity": 64}, {"time": 1140, "pitch": 71, "duration": 6, "velocity": 64}, {"time": 1146, "pitch": 71, "duration": 6, "velocity": 64}, {"time": 1152, "pitch": 71, "duration": 12, "velocity": 64}, {"time": 1164, "pitch": 72, "duration": 36, "velocity": 64}, {"time": 1200, "pitch": 71, "duration": 12, "velocity": 64}, {"time": 1212, "pitch": 69, "duration": 18, "velocity": 64}, {"time": 1230, "pitch": 69, "duration": 6, "velocity": 64}, {"time": 1236, "pitch": 69, "duration": 12, "velocity": 64}, {"time": 1248, "pitch": 69, "duration": 12, "velocity": 64}, {"time": 1260, "pitch": 74, "duration": 36, "velocity": 64}, {"time": 1296, "pitch": 67, "duration": 12, "velocity": 64}, {"time": 1308, "pitch": 67, "duration": 18, "velocity": 64}, {"time": 1326, "pitch": 67, "duration": 6, "velocity": 64}, {"time": 1332, "pitch": 67, "duration": 12, "velocity": 64}, {"time": 1344, "pitch": 66, "duration": 12, "velocity": 64}, {"time": 1356, "pitch": 64, "duration": 12, "velocity": 64}, {"time": 1368, "pitch": 72, "duration": 12, "velocity": 64}, {"time": 1380, "pitch": 71, "duration": 12, "velocity": 64}, {"time": 1392, "pitch": 69, "duration": 12, "velocity": 64}, {"time": 1404, "pitch": 71, "duration": 24, "velocity": 64}, {"time": 1428, "pitch": 69, "duration": 24, "velocity": 64}, {"time": 1452, "pitch": 67, "duration": 36, "velocity": 64}]}]}