{"metadata": {"schema_version": "0.1", "title": "Es stand ein Schloá in sterreich (13b), S. 59", "source_format": "abc"}, "resolution": 24, "tempos": [{"time": 0, "qpm": 120.0}], "key_signatures": [{"time": 0, "root": 0, "mode": "major", "fifths": 0}], "time_signatures": [{"time": 0, "numerator": 3, "denominator": 4}], "beats": [{"time": 0, "is_downbeat": true}, {"time": 12, "is_downbeat": true}, {"time": 36, "is_downbeat": false}, {"time": 60, "is_downbeat": false}, {"time": 84, "is_downbeat": true}, {"time": 108, "is_downbeat": false}, {"time": 132, "is_downbeat": false}, {"time": 156, "is_downbeat": true}, {"time": 180, "is_downbeat": false}, {"time": 204, "is_downbeat": false}, {"time": 228, "is_downbeat": true}, {"time": 252, "is_downbeat": false}, {"time": 276, "is_downbeat": false}, {"time": 300, "is_downbeat": true}, {"time": 324, "is_downbeat": false}, {"time": 348, "is_downbeat": false}, {"time": 372, "is_downbeat": true}, {"time": 396, "is_downbeat": false}, {"time": 420, "is_downbeat": false}, {"time": 444, "is_downbeat": true}, {"time": 468, "is_downbeat": false}, {"time": 492, "is_downbeat": false}, {"time": 516, "is_downbeat": true}, {"time": 540, "is_downbeat": false}, {"time": 564, "is_downbeat": false}, {"time": 588, "is_downbeat": true}, {"time": 612, "is_downbeat": false}, {"time": 636, "is_downbeat": false}, {"time": 660, "is_downbeat": true}, {"time": 684, "is_downbeat": false}, {"time": 708, "is_downbeat": false}, {"time": 732, "is_downbeat": true}, {"time": 756, "is_downbeat": false}, {"time": 780, "is_downbeat": false}, {"time": 804, "is_downbeat": true}, {"time": 828, "is_downbeat": false}, {"time": 852, "is_downbeat": false}], "tracks": [{"program": 0, "is_drum": false, "notes": [{"time": 0, "pitch": 67, "duration": 12, "velocity": 64}, {"time": 12, "pitch": 67, "duration": 12, "velocity": 64}, {"time": 24, "pitch": 72, "duration": 12, "velocity": 64}, {"time": 36, "pitch": 64, "duration": 36, "velocity": 64}, {"time": 72, "pitch": 64, "duration": 12, "velocity": 64}, {"time": 84, "pitch": 62, "duration": 12, "velocity": 64}, {"time": 96, "pitch": 67, "duration": 12, "velocity": 64}, {"time": 108, "pitch": 65, "duration": 36, "velocity": 64}, {"time": 144, "pitch": 67, "duration": 12, "velocity": 64}, {"time": 156, "pitch": 67, "duration": 12, "velocity": 64}, {"time": 168, "pitch": 69, "duration": 12, "velocity": 64}, {"time": 180, "pitch": 69, "duration": 36, "velocity": 64}, {"time": 216, "pitch": 65, "duration": 12, "velocity": 64}, {"time": 228, "pitch": 65, "duration": 12, "velocity": 64}, {"time": 240, "pitch": 64, "duration": 12, "velocity": 64}, {"time": 288, "pitch": 67, "duration": 12, "velocity": 64}, {"time": 300, "pitch": 67, "duration": 12, "velocity": 64}, {"time": 312, "pitch": 71, "duration": 12, "velocity": 64}, {"time": 324, "pitch": 74, "duration": 36, "velocity": 64}, {"time": 360, "pitch": 65, "duration": 12, "velocity": 64}, {"time": 372, "pitch": 64, "duration": 12, "velocity": 64}, {"time": 384, "pitch": 67, "duration": 12, "velocity": 64}, {"time": 396, "pitch": 72, "duration": 24, "velocity": 64}, {"time": 420, "pitch": 76, "duration": 24, "velocity": 64}, {"time": 444, "pitch": 74, "duration": 6, "velocity": 64}, {"time": 450, "pitch": 72, "duration": 6, "velocity": 64}, {"time": 456, "pitch": 71, "duration": 6, "velocity": 64}, {"time": 462, "pitch": 69, "duration": 6, "velocity": 64}, {"time": 468, "pitch": 67, "duration": 36, "velocity": 64}, {"time": 504, "pitch": 65, "duration": 12, "velocity": 64}, {"time": 516, "pitch": 69, "duration": 12, "velocity": 64}, {"time": 528, "pitch": 67, "duration": 12, "velocity": 64}, {"time": 576, "pitch": 67, "duration": 12, "velocity": 64}, {"time": 588, "pitch": 67, "duration": 12, "velocity": 64}, {"time": 600, "pitch": 71, "duration": 12, "velocity": 64}, {"time": 612, "pitch": 74, "duration": 36, "velocity": 64}, {"time": 648, "pitch": 65, "duration": 12, "velocity": 64}, {"time": 660, "pitch": 64, "duration": 12, "velocity": 64}, {"time": 672, "pitch": 67, "duration": 12, "velocity": 64}, {"time": 684, "pitch": 72, "duration": 24, "velocity": 64}, {"time": 708, "pitch": 76, "duration": 24, "velocity": 64}, {"time": 732, "pitch": 74, "duration": 6, "velocity": 64}, {"time": 738, "pitch": 72, "duration": 6, "velocity": 64}, {"time": 744, "pitch": 71, "duration": 6, "velocity": 64}, {"time": 750, "pitch": 69, "duration": 6, "velocity": 64}, {"time": 756, "pitch": 67, "duration": 36, "velocity": 64}, {"time": 792, "pitch": 65, "duration": 12, "velocity": 64}, {"time": 804, "pitch": 65, "duration": 12, "velocity": 64}, {"time": 816, "pitch": 64, "duration": 12, "velocity": 64}]}]}