{"metadata": {"schema_version": "0.1", "title": "Waldabenteuer (69), S. 202", "source_format": "abc"}, "resolution": 24, "tempos": [{"time": 0, "qpm": 120.0}], "key_signatures": [{"time": 0, "root": 5, "mode": "major", "fifths": -1}], "time_signatures": [{"time": 0, "numerator": 4, "denominator": 4}], "tracks": [{"program": 0, "is_drum": false, "notes": [{"time": 0, "pitch": 69, "duration": 48, "velocity": 64}, {"time": 48, "pitch": 69, "duration": 48, "velocity": 64}, {"time": 96, "pitch": 69, "duration": 48, "velocity": 64}, {"time": 144, "pitch": 69, "duration": 48, "velocity": 64}, {"time": 192, "pitch": 69, "duration": 48, "velocity": 64}, {"time": 240, "pitch": 69, "duration": 48, "velocity": 64}, {"time": 288, "pitch": 69, "duration": 48, "velocity": 64}, {"time": 336, "pitch": 69, "duration": 48, "velocity": 64}, {"time": 384, "pitch": 69, "duration": 48, "velocity": 64}, {"time": 432, "pitch": 69, "duration": 48, "velocity": 64}, {"time": 480, "pitch": 69, "duration": 48, "velocity": 64}, {"time": 528, "pitch": 72, "duration": 48, "velocity": 64}, {"time": 576, "pitch": 70, "duration": 48, "velocity": 64}, {"time": 624, "pitch": 69, "duration": 24, "velocity": 64}, {"time": 648, "pitch": 67, "duration": 24, "velocity": 64}, {"time": 672, "pitch": 67, "duration": 48, "velocity": 64}, {"time": 720, "pitch": 67, "duration": 48, "velocity": 64}, {"time": 768, "pitch": 67, "duration": 48, "velocity": 64}, {"time": 816, "pitch": 67, "duration": 48, "velocity": 64}, {"time": 864, "pitch": 67, "duration": 48, "velocity": 64}, {"time": 912, "pitch": 67, "duration": 48, "velocity": 64}, {"time": 960, "pitch": 67, "duration": 48, "velocity": 64}, {"time": 1008, "pitch": 67, "duration": 48, "velocity": 64}, {"time": 1056, "pitch": 67, "duration": 48, "velocity": 64}, {"time": 1104, "pitch": 67, "duration": 48, "velocity": 64}, {"time": 1152, "pitch": 67, "duration": 48, "velocity": 64}, {"time": 1200, "pitch": 67, "duration": 48, "velocity": 64}, {"time": 1248, "pitch": 67, "duration": 48, "velocity": 64}, {"time": 1296, "pitch": 69, "duration": 48, "velocity": 64}, {"time": 1344, "pitch": 70, "duration": 48, "velocity": 64}, {"time": 1392, "pitch": 69, "duration": 48, "velocity": 64}, {"time": 1440, "pitch": 67, "duration": 48, "velocity": 64}, {"time": 1488, "pitch": 65, "duration": 24, "velocity": 64}, {"time": 1512, "pitch": 65, "duration": 48, "velocity": 64}]}]}