{"metadata": {"schema_version": "0.1", "title": "La jeune marie (201), S. 437f", "source_format": "abc"}, "resolution": 24, "tempos": [{"time": 0, "qpm": 120.0}], "key_signatures": [{"time": 0, "root": 7, "mode": "major", "fifths": 1}], "time_signatures": [{"time": 0, "numerator": 4, "denominator": 4}, {"time": 348, "numerator": 1, "denominator": 6}, {"time": 496, "numerator": 1, "denominator": 6}, {"time": 500, "numerator": 2, "denominator": 4}], "beats": [{"time": 0, "is_downbeat": true}, {"time": 12, "is_downbeat": true}, {"time": 28, "is_downbeat": true}, {"time": 44, "is_downbeat": true}, {"time": 60, "is_downbeat": true}, {"time": 76, "is_downbeat": true}, {"time": 92, "is_downbeat": true}, {"time": 108, "is_downbeat": true}, {"time": 124, "is_downbeat": true}, {"time": 140, "is_downbeat": true}, {"time": 156, "is_downbeat": true}, {"time": 172, "is_downbeat": true}, {"time": 188, "is_downbeat": true}, {"time": 204, "is_downbeat": true}, {"time": 220, "is_downbeat": true}, {"time": 236, "is_downbeat": true}, {"time": 252, "is_downbeat": true}, {"time": 268, "is_downbeat": true}, {"time": 284, "is_downbeat": true}, {"time": 300, "is_downbeat": true}, {"time": 316, "is_downbeat": true}, {"time": 332, "is_downbeat": true}, {"time": 348, "is_downbeat": true}, {"time": 352, "is_downbeat": true}, {"time": 368, "is_downbeat": true}, {"time": 384, "is_downbeat": true}, {"time": 400, "is_downbeat": true}, {"time": 416, "is_downbeat": true}, {"time": 432, "is_downbeat": true}, {"time": 448, "is_downbeat": true}, {"time": 464, "is_downbeat": true}, {"time": 480, "is_downbeat": true}, {"time": 496, "is_downbeat": true}, {"time": 500, "is_downbeat": true}, {"time": 524, "is_downbeat": false}], "tracks": [{"program": 0, "is_drum": false, "notes": [{"time": 0, "pitch": 62, "duration": 12, "velocity": 64}, {"time": 12, "pitch": 67, "duration": 24, "velocity": 64}, {"time": 36, "pitch": 71, "duration": 12, "velocity": 64}, {"time": 48, "pitch": 74, "duration": 12, "velocity": 64}, {"time": 60, "pitch": 71, "duration": 24, "velocity": 64}, {"time": 84, "pitch": 69, "duration": 12, "velocity": 64}, {"time": 96, "pitch": 69, "duration": 6, "velocity": 64}, {"time": 102, "pitch": 69, "duration": 6, "velocity": 64}, {"time": 108, "pitch": 69, "duration": 12, "velocity": 64}, {"time": 120, "pitch": 67, "duration": 12, "velocity": 64}, {"time": 132, "pitch": 62, "duration": 12, "velocity": 64}, {"time": 144, "pitch": 69, "duration": 6, "velocity": 64}, {"time": 150, "pitch": 69, "duration": 6, "velocity": 64}, {"time": 156, "pitch": 69, "duration": 12, "velocity": 64}, {"time": 168, "pitch": 67, "duration": 12, "velocity": 64}, {"time": 180, "pitch": 62, "duration": 12, "velocity": 64}, {"time": 192, "pitch": 62, "duration": 12, "velocity": 64}, {"time": 204, "pitch": 67, "duration": 24, "velocity": 64}, {"time": 228, "pitch": 71, "duration": 12, "velocity": 64}, {"time": 240, "pitch": 74, "duration": 12, "velocity": 64}, {"time": 252, "pitch": 71, "duration": 24, "velocity": 64}, {"time": 276, "pitch": 69, "duration": 12, "velocity": 64}, {"time": 288, "pitch": 76, "duration": 12, "velocity": 64}, {"time": 300, "pitch": 74, "duration": 12, "velocity": 64}, {"time": 312, "pitch": 74, "duration": 6, "velocity": 64}, {"time": 318, "pitch": 74, "duration": 6, "velocity": 64}, {"time": 324, "pitch": 72, "duration": 4, "velocity": 64}, {"time": 328, "pitch": 72, "duration": 4, "velocity": 64}, {"time": 332, "pitch": 64, "duration": 8, "velocity": 64}, {"time": 340, "pitch": 66, "duration": 12, "velocity": 64}, {"time": 352, "pitch": 67, "duration": 24, "velocity": 64}, {"time": 388, "pitch": 71, "duration": 12, "velocity": 64}, {"time": 400, "pitch": 67, "duration": 12, "velocity": 64}, {"time": 412, "pitch": 71, "duration": 12, "velocity": 64}, {"time": 424, "pitch": 67, "duration": 12, "velocity": 64}, {"time": 436, "pitch": 72, "duration": 12, "velocity": 64}, {"time": 448, "pitch": 71, "duration": 12, "velocity": 64}, {"time": 460, "pitch": 71, "duration": 6, "velocity": 64}, {"time": 466, "pitch": 71, "duration": 6, "velocity": 64}, {"time": 472, "pitch": 69, "duration": 4, "velocity": 64}, {"time": 476, "pitch": 69, "duration": 4, "velocity": 64}, {"time": 480, "pitch": 64, "duration": 8, "velocity": 64}, {"time": 488, "pitch": 66, "duration": 12, "velocity": 64}, {"time": 500, "pitch": 67, "duration": 24, "velocity": 64}]}]}