{"metadata": {"schema_version": "0.1", "title": "Der Postknecht (227), S. 489", "source_format": "abc"}, "resolution": 24, "tempos": [{"time": 0, "qpm": 120.0}], "key_signatures": [{"time": 0, "root": 5, "mode": "major", "fifths": -1}], "time_signatures": [{"time": 0, "numerator": 4, "denominator": 4}], "beats": [{"time": 0, "is_downbeat": true}, {"time": 12, "is_downbeat": true}, {"time": 36, "is_downbeat": false}, {"time": 60, "is_downbeat": false}, {"time": 84, "is_downbeat": true}, {"time": 108, "is_downbeat": false}, {"time": 132, "is_downbeat": false}, {"time": 156, "is_downbeat": true}, {"time": 180, "is_downbeat": false}, {"time": 204, "is_downbeat": false}, {"time": 228, "is_downbeat": true}, {"time": 252, "is_downbeat": false}, {"time": 276, "is_downbeat": false}, {"time": 300, "is_downbeat": true}, {"time": 324, "is_downbeat": false}, {"time": 348, "is_downbeat": false}, {"time": 372, "is_downbeat": false}, {"time": 396, "is_downbeat": true}, {"time": 420, "is_downbeat": false}, {"time": 444, "is_downbeat": true}, {"time": 468, "is_downbeat": false}, {"time": 492, "is_downbeat": false}, {"time": 516, "is_downbeat": true}, {"time": 540, "is_downbeat": false}, {"time": 564, "is_downbeat": false}, {"time": 588, "is_downbeat": true}, {"time": 612, "is_downbeat": false}, {"time": 636, "is_downbeat": false}, {"time": 660, "is_downbeat": true}, {"time": 684, "is_downbeat": false}, {"time": 708, "is_downbeat": false}, {"time": 732, "is_downbeat": true}, {"time": 756, "is_downbeat": false}, {"time": 780, "is_downbeat": false}, {"time": 804, "is_downbeat": true}, {"time": 828, "is_downbeat": false}, {"time": 852, "is_downbeat": false}, {"time": 876, "is_downbeat": true}, {"time": 900, "is_downbeat": false}, {"time": 924, "is_downbeat": false}, {"time": 936, "is_downbeat": true}, {"time": 960, "is_downbeat": false}, {"time": 984, "is_downbeat": false}, {"time": 996, "is_downbeat": true}, {"time": 1020, "is_downbeat": false}, {"time": 1044, "is_downbeat": false}, {"time": 1068, "is_downbeat": true}, {"time": 1092, "is_downbeat": false}, {"time": 1116, "is_downbeat": false}, {"time": 1140, "is_downbeat": true}, {"time": 1164, "is_downbeat": false}, {"time": 1188, "is_downbeat": false}, {"time": 1212, "is_downbeat": true}, {"time": 1236, "is_downbeat": false}, {"time": 1260, "is_downbeat": false}, {"time": 1284, "is_downbeat": false}, {"time": 1296, "is_downbeat": true}, {"time": 1320, "is_downbeat": true}, {"time": 1344, "is_downbeat": true}, {"time": 1368, "is_downbeat": false}, {"time": 1392, "is_downbeat": true}, {"time": 1416, "is_downbeat": true}, {"time": 1440, "is_downbeat": true}, {"time": 1464, "is_downbeat": false}, {"time": 1488, "is_downbeat": false}, {"time": 1512, "is_downbeat": false}], "tracks": [{"program": 0, "is_drum": false, "notes": [{"time": 0, "pitch": 60, "duration": 12, "velocity": 64}, {"time": 12, "pitch": 65, "duration": 18, "velocity": 64}, {"time": 30, "pitch": 65, "duration": 6, "velocity": 64}, {"time": 36, "pitch": 65, "duration": 36, "velocity": 64}, {"time": 72, "pitch": 67, "duration": 12, "velocity": 64}, {"time": 84, "pitch": 69, "duration": 18, "velocity": 64}, {"time": 102, "pitch": 69, "duration": 6, "velocity": 64}, {"time": 108, "pitch": 69, "duration": 36, "velocity": 64}, {"time": 144, "pitch": 69, "duration": 12, "velocity": 64}, {"time": 156, "pitch": 67, "duration": 12, "velocity": 64}, {"time": 168, "pitch": 69, "duration": 12, "velocity": 64}, {"time": 180, "pitch": 70, "duration": 36, "velocity": 64}, {"time": 216, "pitch": 64, "duration": 12, "velocity": 64}, {"time": 228, "pitch": 67, "duration": 12, "velocity": 64}, {"time": 240, "pitch": 65, "duration": 12, "velocity": 64}, {"time": 288, "pitch": 60, "duration": 12, "velocity": 64}, {"time": 300, "pitch": 65, "duration": 18, "velocity": 64}, {"time": 318, "pitch": 65, "duration": 6, "velocity": 64}, {"time": 324, "pitch": 65, "duration": 36, "velocity": 64}, {"time": 360, "pitch": 67, "duration": 12, "velocity": 64}, {"time": 372, "pitch": 69, "duration": 18, "velocity": 64}, {"time": 390, "pitch": 69, "duration": 6, "velocity": 64}, {"time": 396, "pitch": 69, "duration": 36, "velocity": 64}, {"time": 432, "pitch": 69, "duration": 12, "velocity": 64}, {"time": 444, "pitch": 67, "duration": 12, "velocity": 64}, {"time": 456, "pitch": 69, "duration": 12, "velocity": 64}, {"time": 468, "pitch": 70, "duration": 36, "velocity": 64}, {"time": 504, "pitch": 64, "duration": 12, "velocity": 64}, {"time": 516, "pitch": 67, "duration": 12, "velocity": 64}, {"time": 528, "pitch": 65, "duration": 12, "velocity": 64}, {"time": 576, "pitch": 72, "duration": 12, "velocity": 64}, {"time": 588, "pitch": 72, "duration": 12, "velocity": 64}, {"time": 600, "pitch": 77, "duration": 12, "velocity": 64}, {"time": 612, "pitch": 72, "duration": 36, "velocity": 64}, {"time": 648, "pitch": 70, "duration": 12, "velocity": 64}, {"time": 660, "pitch": 69, "duration": 12, "velocity": 64}, {"time": 672, "pitch": 72, "duration": 12, "velocity": 64}, {"time": 684, "pitch": 65, "duration": 24, "velocity": 64}, {"time": 720, "pitch": 72, "duration": 12, "velocity": 64}, {"time": 732, "pitch": 72, "duration": 12, "velocity": 64}, {"time": 744, "pitch": 77, "duration": 12, "velocity": 64}, {"time": 756, "pitch": 72, "duration": 36, "velocity": 64}, {"time": 792, "pitch": 70, "duration": 12, "velocity": 64}, {"time": 804, "pitch": 69, "duration": 12, "velocity": 64}, {"time": 816, "pitch": 72, "duration": 12, "velocity": 64}, {"time": 828, "pitch": 65, "duration": 24, "velocity": 64}, {"time": 864, "pitch": 72, "duration": 12, "velocity": 64}, {"time": 876, "pitch": 72, "duration": 12, "velocity": 64}, {"time": 888, "pitch": 77, "duration": 12, "velocity": 64}, {"time": 900, "pitch": 69, "duration": 12, "velocity": 64}, {"time": 924, "pitch": 72, "duration": 12, "velocity": 64}, {"time": 936, "pitch": 72, "duration": 12, "velocity": 64}, {"time": 948, "pitch": 77, "duration": 12, "velocity": 64}, {"time": 960, "pitch": 69, "duration": 12, "velocity": 64}, {"time": 984, "pitch": 60, "duration": 12, "velocity": 64}, {"time": 996, "pitch": 65, "duration": 12, "velocity": 64}, {"time": 1008, "pitch": 65, "duration": 12, "velocity": 64}, {"time": 1020, "pitch": 69, "duration": 6, "velocity": 64}, {"time": 1026, "pitch": 69, "duration": 6, "velocity": 64}, {"time": 1032, "pitch": 72, "duration": 12, "velocity": 64}, {"time": 1044, "pitch": 77, "duration": 12, "velocity": 64}, {"time": 1056, "pitch": 69, "duration": 6, "velocity": 64}, {"time": 1062, "pitch": 69, "duration": 6, "velocity": 64}, {"time": 1068, "pitch": 67, "duration": 12, "velocity": 64}, {"time": 1080, "pitch": 69, "duration": 12, "velocity": 64}, {"time": 1092, "pitch": 67, "duration": 6, "velocity": 64}, {"time": 1098, "pitch": 67, "duration": 6, "velocity": 64}, {"time": 1104, "pitch": 65, "duration": 12, "velocity": 64}, {"time": 1116, "pitch": 65, "duration": 12, "velocity": 64}, {"time": 1128, "pitch": 60, "duration": 12, "velocity": 64}, {"time": 1140, "pitch": 65, "duration": 12, "velocity": 64}, {"time": 1152, "pitch": 65, "duration": 12, "velocity": 64}, {"time": 1164, "pitch": 69, "duration": 6, "velocity": 64}, {"time": 1170, "pitch": 69, "duration": 6, "velocity": 64}, {"time": 1176, "pitch": 72, "duration": 12, "velocity": 64}, {"time": 1188, "pitch": 77, "duration": 12, "velocity": 64}, {"time": 1200, "pitch": 69, "duration": 6, "velocity": 64}, {"time": 1206, "pitch": 69, "duration": 6, "velocity": 64}, {"time": 1212, "pitch": 67, "duration": 12, "velocity": 64}, {"time": 1224, "pitch": 69, "duration": 12, "velocity": 64}, {"time": 1236, "pitch": 67, "duration": 6, "velocity": 64}, {"time": 1242, "pitch": 67, "duration": 6, "velocity": 64}, {"time": 1248, "pitch": 65, "duration": 12, "velocity": 64}, {"time": 1272, "pitch": 72, "duration": 6, "velocity": 64}, {"time": 1278, "pitch": 72, "duration": 6, "velocity": 64}, {"time": 1284, "pitch": 72, "duration": 6, "velocity": 64}, {"time": 1290, "pitch": 72, "duration": 6, "velocity": 64}, {"time": 1296, "pitch": 77, "duration": 6, "velocity": 64}, {"time": 1302, "pitch": 69, "duration": 6, "velocity": 64}, {"time": 1308, "pitch": 69, "duration": 6, "velocity": 64}, {"time": 1314, "pitch": 69, "duration": 6, "velocity": 64}, {"time": 1320, "pitch": 67, "duration": 6, "velocity": 64}, {"time": 1326, "pitch": 67, "duration": 6, "velocity": 64}, {"time": 1332, "pitch": 69, "duration": 6, "velocity": 64}, {"time": 1338, "pitch": 69, "duration": 6, "velocity": 64}, {"time": 1344, "pitch": 65, "duration": 6, "velocity": 64}, {"time": 1350, "pitch": 65, "duration": 6, "velocity": 64}, {"time": 1356, "pitch": 65, "duration": 6, "velocity": 64}, {"time": 1362, "pitch": 65, "duration": 6, "velocity": 64}, {"time": 1368, "pitch": 72, "duration": 6, "velocity": 64}, {"time": 1374, "pitch": 72, "duration": 6, "velocity": 64}, {"time": 1380, "pitch": 72, "duration": 6, "velocity": 64}, {"time": 1386, "pitch": 72, "duration": 6, "velocity": 64}, {"time": 1392, "pitch": 77, "duration": 6, "velocity": 64}, {"time": 1398, "pitch": 69, "duration": 6, "velocity": 64}, {"time": 1404, "pitch": 69, "duration": 6, "velocity": 64}, {"time": 1410, "pitch": 69, "duration": 6, "velocity": 64}, {"time": 1416, "pitch": 69, "duration": 6, "velocity": 64}, {"time": 1422, "pitch": 69, "duration": 6, "velocity": 64}, {"time": 1428, "pitch": 67, "duration": 6, "velocity": 64}, {"time": 1434, "pitch": 69, "duration": 6, "velocity": 64}, {"time": 1440, "pitch": 67, "duration": 6, "velocity": 64}, {"time": 1446, "pitch": 67, "duration": 6, "velocity": 64}, {"time": 1452, "pitch": 65, "duration": 12, "velocity": 64}]}]}