{"metadata": {"schema_version": "0.1", "title": "Die schne Buerin (238a), S. 510f", "source_format": "abc"}, "resolution": 24, "tempos": [{"time": 0, "qpm": 120.0}], "key_signatures": [{"time": 0, "root": 2, "mode": "major", "fifths": 2}], "time_signatures": [{"time": 0, "numerator": 4, "denominator": 4}], "beats": [{"time": 0, "is_downbeat": true}, {"time": 24, "is_downbeat": true}, {"time": 48, "is_downbeat": false}, {"time": 72, "is_downbeat": false}, {"time": 96, "is_downbeat": false}, {"time": 120, "is_downbeat": true}, {"time": 144, "is_downbeat": false}, {"time": 168, "is_downbeat": false}, {"time": 192, "is_downbeat": false}, {"time": 216, "is_downbeat": true}, {"time": 240, "is_downbeat": false}, {"time": 264, "is_downbeat": false}, {"time": 288, "is_downbeat": false}, {"time": 312, "is_downbeat": true}, {"time": 336, "is_downbeat": false}, {"time": 360, "is_downbeat": false}, {"time": 384, "is_downbeat": false}, {"time": 408, "is_downbeat": true}, {"time": 432, "is_downbeat": false}, {"time": 456, "is_downbeat": false}, {"time": 480, "is_downbeat": false}, {"time": 504, "is_downbeat": true}, {"time": 528, "is_downbeat": false}, {"time": 552, "is_downbeat": false}, {"time": 576, "is_downbeat": false}, {"time": 600, "is_downbeat": true}, {"time": 624, "is_downbeat": false}, {"time": 648, "is_downbeat": false}, {"time": 672, "is_downbeat": false}, {"time": 696, "is_downbeat": true}, {"time": 720, "is_downbeat": false}, {"time": 744, "is_downbeat": false}, {"time": 768, "is_downbeat": false}, {"time": 792, "is_downbeat": true}, {"time": 816, "is_downbeat": false}, {"time": 840, "is_downbeat": false}, {"time": 864, "is_downbeat": false}, {"time": 888, "is_downbeat": true}, {"time": 912, "is_downbeat": false}, {"time": 936, "is_downbeat": false}, {"time": 960, "is_downbeat": false}, {"time": 984, "is_downbeat": true}, {"time": 1008, "is_downbeat": false}, {"time": 1032, "is_downbeat": false}, {"time": 1056, "is_downbeat": false}, {"time": 1080, "is_downbeat": true}, {"time": 1104, "is_downbeat": false}, {"time": 1128, "is_downbeat": false}, {"time": 1152, "is_downbeat": false}, {"time": 1176, "is_downbeat": true}, {"time": 1200, "is_downbeat": false}, {"time": 1224, "is_downbeat": false}, {"time": 1248, "is_downbeat": false}, {"time": 1272, "is_downbeat": true}, {"time": 1296, "is_downbeat": false}, {"time": 1320, "is_downbeat": false}, {"time": 1344, "is_downbeat": false}, {"time": 1368, "is_downbeat": true}, {"time": 1392, "is_downbeat": false}, {"time": 1416, "is_downbeat": false}, {"time": 1440, "is_downbeat": false}, {"time": 1464, "is_downbeat": true}, {"time": 1488, "is_downbeat": false}, {"time": 1512, "is_downbeat": false}, {"time": 1536, "is_downbeat": false}, {"time": 1560, "is_downbeat": true}, {"time": 1584, "is_downbeat": false}, {"time": 1608, "is_downbeat": false}, {"time": 1632, "is_downbeat": false}, {"time": 1656, "is_downbeat": true}, {"time": 1680, "is_downbeat": false}, {"time": 1704, "is_downbeat": false}, {"time": 1728, "is_downbeat": false}, {"time": 1752, "is_downbeat": true}, {"time": 1776, "is_downbeat": false}, {"time": 1800, "is_downbeat": false}, {"time": 1824, "is_downbeat": false}, {"time": 1848, "is_downbeat": true}, {"time": 1872, "is_downbeat": false}, {"time": 1896, "is_downbeat": false}, {"time": 1920, "is_downbeat": false}, {"time": 1944, "is_downbeat": true}, {"time": 1968, "is_downbeat": false}, {"time": 1992, "is_downbeat": false}, {"time": 2016, "is_downbeat": false}, {"time": 2040, "is_downbeat": true}, {"time": 2064, "is_downbeat": false}, {"time": 2088, "is_downbeat": false}, {"time": 2112, "is_downbeat": false}, {"time": 2136, "is_downbeat": true}, {"time": 2160, "is_downbeat": false}, {"time": 2184, "is_downbeat": false}, {"time": 2208, "is_downbeat": false}, {"time": 2232, "is_downbeat": true}, {"time": 2256, "is_downbeat": false}, {"time": 2280, "is_downbeat": false}, {"time": 2304, "is_downbeat": false}, {"time": 2328, "is_downbeat": true}, {"time": 2352, "is_downbeat": false}, {"time": 2376, "is_downbeat": false}, {"time": 2400, "is_downbeat": false}, {"time": 2424, "is_downbeat": true}, {"time": 2448, "is_downbeat": false}, {"time": 2472, "is_downbeat": false}, {"time": 2496, "is_downbeat": false}, {"time": 2520, "is_downbeat": true}, {"time": 2544, "is_downbeat": false}, {"time": 2568, "is_downbeat": false}, {"time": 2592, "is_downbeat": false}, {"time": 2616, "is_downbeat": true}, {"time": 2640, "is_downbeat": false}, {"time": 2664, "is_downbeat": false}, {"time": 2688, "is_downbeat": false}, {"time": 2712, "is_downbeat": true}, {"time": 2736, "is_downbeat": false}, {"time": 2760, "is_downbeat": false}, {"time": 2784, "is_downbeat": false}, {"time": 2808, "is_downbeat": true}, {"time": 2832, "is_downbeat": false}, {"time": 2856, "is_downbeat": false}, {"time": 2880, "is_downbeat": false}], "tracks": [{"program": 0, "is_drum": false, "notes": [{"time": 0, "pitch": 62, "duration": 24, "velocity": 64}, {"time": 24, "pitch": 62, "duration": 12, "velocity": 64}, {"time": 36, "pitch": 66, "duration": 6, "velocity": 64}, {"time": 42, "pitch": 69, "duration": 6, "velocity": 64}, {"time": 48, "pitch": 69, "duration": 36, "velocity": 64}, {"time": 84, "pitch": 69, "duration": 12, "velocity": 64}, {"time": 96, "pitch": 71, "duration": 12, "velocity": 64}, {"time": 108, "pitch": 74, "duration": 12, "velocity": 64}, {"time": 120, "pitch": 74, "duration": 12, "velocity": 64}, {"time": 132, "pitch": 66, "duration": 12, "velocity": 64}, {"time": 144, "pitch": 66, "duration": 24, "velocity": 64}, {"time": 192, "pitch": 66, "duration": 24, "velocity": 64}, {"time": 216, "pitch": 64, "duration": 12, "velocity": 64}, {"time": 228, "pitch": 66, "duration": 6, "velocity": 64}, {"time": 234, "pitch": 71, "duration": 6, "velocity": 64}, {"time": 240, "pitch": 71, "duration": 36, "velocity": 64}, {"time": 276, "pitch": 69, "duration": 12, "velocity": 64}, {"time": 288, "pitch": 67, "duration": 12, "velocity": 64}, {"time": 300, "pitch": 61, "duration": 12, "velocity": 64}, {"time": 312, "pitch": 62, "duration": 24, "velocity": 64}, {"time": 384, "pitch": 62, "duration": 24, "velocity": 64}, {"time": 408, "pitch": 62, "duration": 12, "velocity": 64}, {"time": 420, "pitch": 66, "duration": 6, "velocity": 64}, {"time": 426, "pitch": 69, "duration": 6, "velocity": 64}, {"time": 432, "pitch": 69, "duration": 36, "velocity": 64}, {"time": 468, "pitch": 69, "duration": 12, "velocity": 64}, {"time": 480, "pitch": 71, "duration": 12, "velocity": 64}, {"time": 492, "pitch": 74, "duration": 12, "velocity": 64}, {"time": 504, "pitch": 74, "duration": 12, "velocity": 64}, {"time": 516, "pitch": 66, "duration": 12, "velocity": 64}, {"time": 528, "pitch": 66, "duration": 24, "velocity": 64}, {"time": 576, "pitch": 66, "duration": 24, "velocity": 64}, {"time": 600, "pitch": 64, "duration": 12, "velocity": 64}, {"time": 612, "pitch": 66, "duration": 6, "velocity": 64}, {"time": 618, "pitch": 71, "duration": 6, "velocity": 64}, {"time": 624, "pitch": 71, "duration": 36, "velocity": 64}, {"time": 660, "pitch": 69, "duration": 12, "velocity": 64}, {"time": 672, "pitch": 67, "duration": 12, "velocity": 64}, {"time": 684, "pitch": 61, "duration": 12, "velocity": 64}, {"time": 696, "pitch": 62, "duration": 24, "velocity": 64}, {"time": 768, "pitch": 69, "duration": 24, "velocity": 64}, {"time": 792, "pitch": 71, "duration": 12, "velocity": 64}, {"time": 804, "pitch": 69, "duration": 12, "velocity": 64}, {"time": 816, "pitch": 67, "duration": 12, "velocity": 64}, {"time": 828, "pitch": 64, "duration": 12, "velocity": 64}, {"time": 840, "pitch": 64, "duration": 36, "velocity": 64}, {"time": 876, "pitch": 73, "duration": 12, "velocity": 64}, {"time": 888, "pitch": 73, "duration": 12, "velocity": 64}, {"time": 900, "pitch": 73, "duration": 12, "velocity": 64}, {"time": 912, "pitch": 74, "duration": 12, "velocity": 64}, {"time": 924, "pitch": 69, "duration": 12, "velocity": 64}, {"time": 936, "pitch": 69, "duration": 36, "velocity": 64}, {"time": 972, "pitch": 69, "duration": 12, "velocity": 64}, {"time": 984, "pitch": 71, "duration": 12, "velocity": 64}, {"time": 996, "pitch": 69, "duration": 12, "velocity": 64}, {"time": 1008, "pitch": 67, "duration": 12, "velocity": 64}, {"time": 1020, "pitch": 64, "duration": 12, "velocity": 64}, {"time": 1032, "pitch": 64, "duration": 36, "velocity": 64}, {"time": 1068, "pitch": 73, "duration": 12, "velocity": 64}, {"time": 1080, "pitch": 69, "duration": 12, "velocity": 64}, {"time": 1092, "pitch": 73, "duration": 12, "velocity": 64}, {"time": 1104, "pitch": 74, "duration": 48, "velocity": 64}, {"time": 1164, "pitch": 62, "duration": 12, "velocity": 64}, {"time": 1176, "pitch": 62, "duration": 12, "velocity": 64}, {"time": 1188, "pitch": 66, "duration": 6, "velocity": 64}, {"time": 1194, "pitch": 69, "duration": 6, "velocity": 64}, {"time": 1200, "pitch": 69, "duration": 36, "velocity": 64}, {"time": 1236, "pitch": 69, "duration": 12, "velocity": 64}, {"time": 1248, "pitch": 69, "duration": 12, "velocity": 64}, {"time": 1260, "pitch": 74, "duration": 12, "velocity": 64}, {"time": 1272, "pitch": 73, "duration": 48, "velocity": 64}, {"time": 1356, "pitch": 74, "duration": 12, "velocity": 64}, {"time": 1368, "pitch": 73, "duration": 12, "velocity": 64}, {"time": 1380, "pitch": 71, "duration": 12, "velocity": 64}, {"time": 1392, "pitch": 69, "duration": 24, "velocity": 64}, {"time": 1416, "pitch": 71, "duration": 12, "velocity": 64}, {"time": 1428, "pitch": 69, "duration": 12, "velocity": 64}, {"time": 1440, "pitch": 67, "duration": 12, "velocity": 64}, {"time": 1452, "pitch": 61, "duration": 12, "velocity": 64}, {"time": 1464, "pitch": 62, "duration": 24, "velocity": 64}, {"time": 1536, "pitch": 69, "duration": 24, "velocity": 64}, {"time": 1560, "pitch": 71, "duration": 24, "velocity": 64}, {"time": 1584, "pitch": 69, "duration": 24, "velocity": 64}, {"time": 1608, "pitch": 67, "duration": 12, "velocity": 64}, {"time": 1620, "pitch": 67, "duration": 12, "velocity": 64}, {"time": 1632, "pitch": 67, "duration": 12, "velocity": 64}, {"time": 1644, "pitch": 67, "duration": 12, "velocity": 64}, {"time": 1656, "pitch": 62, "duration": 24, "velocity": 64}, {"time": 1728, "pitch": 74, "duration": 24, "velocity": 64}, {"time": 1752, "pitch": 74, "duration": 24, "velocity": 64}, {"time": 1776, "pitch": 74, "duration": 24, "velocity": 64}, {"time": 1800, "pitch": 74, "duration": 12, "velocity": 64}, {"time": 1812, "pitch": 74, "duration": 12, "velocity": 64}, {"time": 1824, "pitch": 74, "duration": 12, "velocity": 64}, {"time": 1836, "pitch": 76, "duration": 12, "velocity": 64}, {"time": 1848, "pitch": 78, "duration": 24, "velocity": 64}, {"time": 1920, "pitch": 69, "duration": 24, "velocity": 64}, {"time": 1944, "pitch": 71, "duration": 24, "velocity": 64}, {"time": 1968, "pitch": 69, "duration": 24, "velocity": 64}, {"time": 1992, "pitch": 67, "duration": 12, "velocity": 64}, {"time": 2004, "pitch": 67, "duration": 12, "velocity": 64}, {"time": 2016, "pitch": 67, "duration": 12, "velocity": 64}, {"time": 2028, "pitch": 67, "duration": 12, "velocity": 64}, {"time": 2040, "pitch": 62, "duration": 24, "velocity": 64}, {"time": 2064, "pitch": 74, "duration": 24, "velocity": 64}, {"time": 2088, "pitch": 69, "duration": 24, "velocity": 64}, {"time": 2112, "pitch": 73, "duration": 24, "velocity": 64}, {"time": 2136, "pitch": 74, "duration": 24, "velocity": 64}, {"time": 2208, "pitch": 69, "duration": 24, "velocity": 64}, {"time": 2232, "pitch": 71, "duration": 24, "velocity": 64}, {"time": 2256, "pitch": 69, "duration": 24, "velocity": 64}, {"time": 2280, "pitch": 67, "duration": 12, "velocity": 64}, {"time": 2292, "pitch": 67, "duration": 12, "velocity": 64}, {"time": 2304, "pitch": 67, "duration": 12, "velocity": 64}, {"time": 2316, "pitch": 67, "duration": 12, "velocity": 64}, {"time": 2328, "pitch": 62, "duration": 24, "velocity": 64}, {"time": 2400, "pitch": 74, "duration": 24, "velocity": 64}, {"time": 2424, "pitch": 74, "duration": 24, "velocity": 64}, {"time": 2448, "pitch": 74, "duration": 24, "velocity": 64}, {"time": 2472, "pitch": 74, "duration": 12, "velocity": 64}, {"time": 2484, "pitch": 74, "duration": 12, "velocity": 64}, {"time": 2496, "pitch": 74, "duration": 12, "velocity": 64}, {"time": 2508, "pitch": 76, "duration": 12, "velocity": 64}, {"time": 2520, "pitch": 78, "duration": 24, "velocity": 64}, {"time": 2592, "pitch": 69, "duration": 24, "velocity": 64}, {"time": 2616, "pitch": 71, "duration": 24, "velocity": 64}, {"time": 2640, "pitch": 69, "duration": 24, "velocity": 64}, {"time": 2664, "pitch": 67, "duration": 12, "velocity": 64}, {"time": 2676, "pitch": 67, "duration": 12, "velocity": 64}, {"time": 2688, "pitch": 67, "duration": 12, "velocity": 64}, {"time": 2700, "pitch": 67, "duration": 12, "velocity": 64}, {"time": 2712, "pitch": 62, "duration": 24, "velocity": 64}, {"time": 2736, "pitch": 74, "duration": 24, "velocity": 64}, {"time": 2760, "pitch": 69, "duration": 24, "velocity": 64}, {"time": 2784, "pitch": 73, "duration": 24, "velocity": 64}, {"time": 2808, "pitch": 74, "duration": 24, "velocity": 64}]}]}