{"metadata": {"schema_version": "0.1", "title": "Das Vesperlein (255b), S. 548", "source_format": "abc"}, "resolution": 24, "tempos": [{"time": 0, "qpm": 120.0}], "key_signatures": [{"time": 0, "root": 5, "mode": "major", "fifths": -1}], "time_signatures": [{"time": 0, "numerator": 4, "denominator": 4}], "tracks": [{"program": 0, "is_drum": false, "notes": [{"time": 0, "pitch": 69, "duration": 12, "velocity": 64}, {"time": 12, "pitch": 69, "duration": 12, "velocity": 64}, {"time": 24, "pitch": 69, "duration": 12, "velocity": 64}, {"time": 36, "pitch": 69, "duration": 12, "velocity": 64}, {"time": 48, "pitch": 69, "duration": 12, "velocity": 64}, {"time": 60, "pitch": 69, "duration": 12, "velocity": 64}, {"time": 72, "pitch": 69, "duration": 12, "velocity": 64}, {"time": 84, "pitch": 69, "duration": 12, "velocity": 64}, {"time": 96, "pitch": 72, "duration": 36, "velocity": 64}, {"time": 132, "pitch": 70, "duration": 12, "velocity": 64}, {"time": 144, "pitch": 69, "duration": 12, "velocity": 64}, {"time": 156, "pitch": 69, "duration": 12, "velocity": 64}, {"time": 168, "pitch": 69, "duration": 24, "velocity": 64}, {"time": 192, "pitch": 67, "duration": 24, "velocity": 64}, {"time": 216, "pitch": 67, "duration": 12, "velocity": 64}, {"time": 228, "pitch": 67, "duration": 12, "velocity": 64}, {"time": 240, "pitch": 67, "duration": 12, "velocity": 64}, {"time": 252, "pitch": 67, "duration": 12, "velocity": 64}, {"time": 264, "pitch": 67, "duration": 12, "velocity": 64}, {"time": 276, "pitch": 67, "duration": 12, "velocity": 64}, {"time": 288, "pitch": 67, "duration": 12, "velocity": 64}, {"time": 300, "pitch": 67, "duration": 12, "velocity": 64}, {"time": 312, "pitch": 67, "duration": 12, "velocity": 64}, {"time": 324, "pitch": 67, "duration": 12, "velocity": 64}, {"time": 336, "pitch": 67, "duration": 12, "velocity": 64}, {"time": 348, "pitch": 67, "duration": 12, "velocity": 64}, {"time": 360, "pitch": 67, "duration": 12, "velocity": 64}, {"time": 372, "pitch": 69, "duration": 12, "velocity": 64}, {"time": 384, "pitch": 70, "duration": 36, "velocity": 64}, {"time": 420, "pitch": 69, "duration": 12, "velocity": 64}, {"time": 432, "pitch": 67, "duration": 12, "velocity": 64}, {"time": 444, "pitch": 65, "duration": 12, "velocity": 64}, {"time": 456, "pitch": 65, "duration": 24, "velocity": 64}, {"time": 480, "pitch": 69, "duration": 12, "velocity": 64}, {"time": 492, "pitch": 69, "duration": 12, "velocity": 64}, {"time": 504, "pitch": 69, "duration": 12, "velocity": 64}, {"time": 516, "pitch": 69, "duration": 12, "velocity": 64}, {"time": 528, "pitch": 72, "duration": 36, "velocity": 64}, {"time": 564, "pitch": 70, "duration": 12, "velocity": 64}, {"time": 576, "pitch": 69, "duration": 12, "velocity": 64}, {"time": 588, "pitch": 69, "duration": 12, "velocity": 64}, {"time": 600, "pitch": 67, "duration": 12, "velocity": 64}, {"time": 612, "pitch": 67, "duration": 24, "velocity": 64}, {"time": 636, "pitch": 67, "duration": 12, "velocity": 64}, {"time": 648, "pitch": 67, "duration": 12, "velocity": 64}, {"time": 660, "pitch": 67, "duration": 12, "velocity": 64}, {"time": 672, "pitch": 67, "duration": 12, "velocity": 64}, {"time": 684, "pitch": 67, "duration": 12, "velocity": 64}, {"time": 696, "pitch": 67, "duration": 12, "velocity": 64}, {"time": 708, "pitch": 67, "duration": 12, "velocity": 64}, {"time": 720, "pitch": 67, "duration": 12, "velocity": 64}, {"time": 732, "pitch": 69, "duration": 12, "velocity": 64}, {"time": 744, "pitch": 70, "duration": 36, "velocity": 64}, {"time": 780, "pitch": 69, "duration": 12, "velocity": 64}, {"time": 792, "pitch": 67, "duration": 12, "velocity": 64}, {"time": 804, "pitch": 67, "duration": 12, "velocity": 64}, {"time": 816, "pitch": 65, "duration": 12, "velocity": 64}, {"time": 828, "pitch": 65, "duration": 24, "velocity": 64}]}]}