{"metadata": {"schema_version": "0.1", "title": "Was die Gans hat (283), S. 597", "source_format": "abc"}, "resolution": 24, "tempos": [{"time": 0, "qpm": 120.0}], "key_signatures": [{"time": 0, "root": 7, "mode": "major", "fifths": 1}], "time_signatures": [{"time": 0, "numerator": 2, "denominator": 4}], "beats": [{"time": 0, "is_downbeat": true}, {"time": 12, "is_downbeat": true}, {"time": 36, "is_downbeat": false}, {"time": 60, "is_downbeat": true}, {"time": 84, "is_downbeat": false}, {"time": 108, "is_downbeat": true}, {"time": 132, "is_downbeat": false}, {"time": 156, "is_downbeat": true}, {"time": 180, "is_downbeat": false}, {"time": 204, "is_downbeat": true}, {"time": 228, "is_downbeat": false}, {"time": 252, "is_downbeat": true}, {"time": 276, "is_downbeat": false}, {"time": 300, "is_downbeat": true}, {"time": 324, "is_downbeat": false}, {"time": 348, "is_downbeat": true}, {"time": 372, "is_downbeat": false}, {"time": 396, "is_downbeat": true}, {"time": 420, "is_downbeat": false}, {"time": 444, "is_downbeat": true}, {"time": 468, "is_downbeat": false}, {"time": 492, "is_downbeat": true}, {"time": 516, "is_downbeat": false}, {"time": 540, "is_downbeat": true}, {"time": 564, "is_downbeat": false}, {"time": 588, "is_downbeat": true}, {"time": 612, "is_downbeat": false}, {"time": 636, "is_downbeat": true}, {"time": 660, "is_downbeat": false}, {"time": 684, "is_downbeat": true}, {"time": 708, "is_downbeat": false}, {"time": 732, "is_downbeat": true}, {"time": 756, "is_downbeat": false}, {"time": 780, "is_downbeat": true}, {"time": 804, "is_downbeat": false}, {"time": 828, "is_downbeat": true}, {"time": 852, "is_downbeat": false}, {"time": 876, "is_downbeat": true}, {"time": 900, "is_downbeat": false}, {"time": 924, "is_downbeat": true}, {"time": 948, "is_downbeat": false}, {"time": 972, "is_downbeat": true}, {"time": 996, "is_downbeat": false}], "tracks": [{"program": 0, "is_drum": false, "notes": [{"time": 0, "pitch": 62, "duration": 12, "velocity": 64}, {"time": 12, "pitch": 67, "duration": 12, "velocity": 64}, {"time": 24, "pitch": 67, "duration": 12, "velocity": 64}, {"time": 36, "pitch": 67, "duration": 12, "velocity": 64}, {"time": 48, "pitch": 67, "duration": 12, "velocity": 64}, {"time": 60, "pitch": 67, "duration": 12, "velocity": 64}, {"time": 72, "pitch": 66, "duration": 6, "velocity": 64}, {"time": 78, "pitch": 67, "duration": 6, "velocity": 64}, {"time": 84, "pitch": 69, "duration": 12, "velocity": 64}, {"time": 96, "pitch": 62, "duration": 12, "velocity": 64}, {"time": 108, "pitch": 71, "duration": 24, "velocity": 64}, {"time": 132, "pitch": 71, "duration": 24, "velocity": 64}, {"time": 156, "pitch": 69, "duration": 24, "velocity": 64}, {"time": 204, "pitch": 74, "duration": 12, "velocity": 64}, {"time": 216, "pitch": 74, "duration": 12, "velocity": 64}, {"time": 228, "pitch": 74, "duration": 12, "velocity": 64}, {"time": 240, "pitch": 74, "duration": 12, "velocity": 64}, {"time": 252, "pitch": 74, "duration": 12, "velocity": 64}, {"time": 264, "pitch": 76, "duration": 12, "velocity": 64}, {"time": 276, "pitch": 69, "duration": 12, "velocity": 64}, {"time": 288, "pitch": 69, "duration": 6, "velocity": 64}, {"time": 294, "pitch": 71, "duration": 6, "velocity": 64}, {"time": 300, "pitch": 72, "duration": 12, "velocity": 64}, {"time": 312, "pitch": 72, "duration": 12, "velocity": 64}, {"time": 324, "pitch": 72, "duration": 12, "velocity": 64}, {"time": 336, "pitch": 72, "duration": 12, "velocity": 64}, {"time": 348, "pitch": 71, "duration": 12, "velocity": 64}, {"time": 360, "pitch": 74, "duration": 12, "velocity": 64}, {"time": 372, "pitch": 67, "duration": 12, "velocity": 64}, {"time": 384, "pitch": 67, "duration": 12, "velocity": 64}, {"time": 396, "pitch": 67, "duration": 12, "velocity": 64}, {"time": 408, "pitch": 62, "duration": 12, "velocity": 64}, {"time": 420, "pitch": 64, "duration": 12, "velocity": 64}, {"time": 432, "pitch": 66, "duration": 12, "velocity": 64}, {"time": 444, "pitch": 67, "duration": 24, "velocity": 64}, {"time": 480, "pitch": 67, "duration": 12, "velocity": 64}, {"time": 492, "pitch": 67, "duration": 12, "velocity": 64}, {"time": 504, "pitch": 62, "duration": 12, "velocity": 64}, {"time": 516, "pitch": 64, "duration": 12, "velocity": 64}, {"time": 528, "pitch": 66, "duration": 12, "velocity": 64}, {"time": 540, "pitch": 67, "duration": 24, "velocity": 64}, {"time": 576, "pitch": 67, "duration": 6, "velocity": 64}, {"time": 582, "pitch": 67, "duration": 6, "velocity": 64}, {"time": 588, "pitch": 72, "duration": 24, "velocity": 64}, {"time": 612, "pitch": 72, "duration": 12, "velocity": 64}, {"time": 624, "pitch": 72, "duration": 12, "velocity": 64}, {"time": 636, "pitch": 71, "duration": 24, "velocity": 64}, {"time": 660, "pitch": 71, "duration": 12, "velocity": 64}, {"time": 672, "pitch": 71, "duration": 12, "velocity": 64}, {"time": 684, "pitch": 69, "duration": 24, "velocity": 64}, {"time": 708, "pitch": 71, "duration": 12, "velocity": 64}, {"time": 720, "pitch": 69, "duration": 12, "velocity": 64}, {"time": 732, "pitch": 67, "duration": 24, "velocity": 64}, {"time": 756, "pitch": 71, "duration": 24, "velocity": 64}, {"time": 780, "pitch": 74, "duration": 24, "velocity": 64}, {"time": 816, "pitch": 71, "duration": 6, "velocity": 64}, {"time": 822, "pitch": 74, "duration": 6, "velocity": 64}, {"time": 828, "pitch": 72, "duration": 24, "velocity": 64}, {"time": 852, "pitch": 72, "duration": 12, "velocity": 64}, {"time": 864, "pitch": 72, "duration": 12, "velocity": 64}, {"time": 876, "pitch": 71, "duration": 24, "velocity": 64}, {"time": 900, "pitch": 71, "duration": 12, "velocity": 64}, {"time": 912, "pitch": 71, "duration": 12, "velocity": 64}, {"time": 924, "pitch": 69, "duration": 24, "velocity": 64}, {"time": 948, "pitch": 71, "duration": 12, "velocity": 64}, {"time": 960, "pitch": 69, "duration": 12, "velocity": 64}, {"time": 972, "pitch": 67, "duration": 24, "velocity": 64}]}]}