{"metadata": {"schema_version": "0.1", "title": "De schwaarze Pe'tchen (294), S. 610", "source_format": "abc"}, "resolution": 24, "tempos": [{"time": 0, "qpm": 120.0}], "key_signatures": [{"time": 0, "root": 10, "mode": "major", "fifths": -2}], "time_signatures": [{"time": 0, "numerator": 4, "denominator": 4}], "tracks": [{"program": 0, "is_drum": false, "notes": [{"time": 0, "pitch": 70, "duration": 24, "velocity": 64}, {"time": 24, "pitch": 70, "duration": 24, "velocity": 64}, {"time": 48, "pitch": 70, "duration": 24, "velocity": 64}, {"time": 72, "pitch": 70, "duration": 24, "velocity": 64}, {"time": 96, "pitch": 70, "duration": 24, "velocity": 64}, {"time": 120, "pitch": 70, "duration": 24, "velocity": 64}, {"time": 144, "pitch": 70, "duration": 24, "velocity": 64}, {"time": 168, "pitch": 65, "duration": 24, "velocity": 64}, {"time": 192, "pitch": 65, "duration": 24, "velocity": 64}, {"time": 216, "pitch": 74, "duration": 24, "velocity": 64}, {"time": 240, "pitch": 70, "duration": 48, "velocity": 64}, {"time": 288, "pitch": 74, "duration": 24, "velocity": 64}, {"time": 312, "pitch": 74, "duration": 24, "velocity": 64}, {"time": 336, "pitch": 74, "duration": 24, "velocity": 64}, {"time": 360, "pitch": 74, "duration": 24, "velocity": 64}, {"time": 384, "pitch": 74, "duration": 24, "velocity": 64}, {"time": 408, "pitch": 74, "duration": 24, "velocity": 64}, {"time": 432, "pitch": 75, "duration": 24, "velocity": 64}, {"time": 456, "pitch": 74, "duration": 24, "velocity": 64}, {"time": 480, "pitch": 72, "duration": 48, "velocity": 64}, {"time": 528, "pitch": 72, "duration": 24, "velocity": 64}, {"time": 552, "pitch": 72, "duration": 24, "velocity": 64}, {"time": 576, "pitch": 72, "duration": 24, "velocity": 64}, {"time": 600, "pitch": 72, "duration": 24, "velocity": 64}, {"time": 624, "pitch": 72, "duration": 24, "velocity": 64}, {"time": 648, "pitch": 72, "duration": 24, "velocity": 64}, {"time": 672, "pitch": 74, "duration": 24, "velocity": 64}, {"time": 696, "pitch": 72, "duration": 24, "velocity": 64}, {"time": 720, "pitch": 70, "duration": 48, "velocity": 64}, {"time": 768, "pitch": 70, "duration": 24, "velocity": 64}, {"time": 792, "pitch": 70, "duration": 48, "velocity": 64}, {"time": 840, "pitch": 70, "duration": 24, "velocity": 64}, {"time": 864, "pitch": 72, "duration": 24, "velocity": 64}, {"time": 888, "pitch": 70, "duration": 24, "velocity": 64}, {"time": 912, "pitch": 70, "duration": 24, "velocity": 64}, {"time": 936, "pitch": 69, "duration": 24, "velocity": 64}, {"time": 960, "pitch": 70, "duration": 48, "velocity": 64}]}]}