{"metadata": {"schema_version": "0.1", "title": "Ritter und Herzogstochter", "source_format": "abc"}, "resolution": 24, "tempos": [{"time": 0, "qpm": 120.0}], "key_signatures": [{"time": 0, "root": 9, "mode": "major", "fifths": 3}], "time_signatures": [{"time": 0, "numerator": 3, "denominator": 1}], "beats": [{"time": 0, "is_downbeat": true}, {"time": 48, "is_downbeat": true}, {"time": 144, "is_downbeat": false}, {"time": 240, "is_downbeat": false}, {"time": 336, "is_downbeat": true}, {"time": 432, "is_downbeat": false}, {"time": 528, "is_downbeat": false}, {"time": 624, "is_downbeat": true}, {"time": 720, "is_downbeat": false}, {"time": 816, "is_downbeat": false}, {"time": 912, "is_downbeat": true}, {"time": 1008, "is_downbeat": false}, {"time": 1104, "is_downbeat": false}, {"time": 1200, "is_downbeat": true}, {"time": 1296, "is_downbeat": false}, {"time": 1392, "is_downbeat": false}, {"time": 1488, "is_downbeat": true}, {"time": 1584, "is_downbeat": false}, {"time": 1680, "is_downbeat": false}, {"time": 1776, "is_downbeat": true}, {"time": 1872, "is_downbeat": false}, {"time": 1968, "is_downbeat": false}, {"time": 2064, "is_downbeat": true}, {"time": 2160, "is_downbeat": false}, {"time": 2256, "is_downbeat": false}, {"time": 2352, "is_downbeat": true}, {"time": 2448, "is_downbeat": false}, {"time": 2544, "is_downbeat": false}, {"time": 2640, "is_downbeat": true}, {"time": 2736, "is_downbeat": false}, {"time": 2832, "is_downbeat": false}, {"time": 2928, "is_downbeat": true}, {"time": 3024, "is_downbeat": false}, {"time": 3120, "is_downbeat": false}, {"time": 3216, "is_downbeat": true}, {"time": 3312, "is_downbeat": false}, {"time": 3408, "is_downbeat": false}, {"time": 3504, "is_downbeat": true}, {"time": 3600, "is_downbeat": false}, {"time": 3696, "is_downbeat": false}, {"time": 3792, "is_downbeat": true}, {"time": 3888, "is_downbeat": false}, {"time": 3984, "is_downbeat": false}], "tracks": [{"program": 0, "is_drum": false, "notes": [{"time": 0, "pitch": 69, "duration": 48, "velocity": 64}, {"time": 48, "pitch": 72, "duration": 96, "velocity": 64}, {"time": 144, "pitch": 73, "duration": 48, "velocity": 64}, {"time": 192, "pitch": 74, "duration": 96, "velocity": 64}, {"time": 288, "pitch": 74, "duration": 48, "velocity": 64}, {"time": 336, "pitch": 76, "duration": 96, "velocity": 64}, {"time": 432, "pitch": 76, "duration": 96, "velocity": 64}, {"time": 528, "pitch": 76, "duration": 96, "velocity": 64}, {"time": 624, "pitch": 79, "duration": 96, "velocity": 64}, {"time": 720, "pitch": 80, "duration": 48, "velocity": 64}, {"time": 768, "pitch": 77, "duration": 96, "velocity": 64}, {"time": 864, "pitch": 74, "duration": 48, "velocity": 64}, {"time": 912, "pitch": 76, "duration": 96, "velocity": 64}, {"time": 1008, "pitch": 74, "duration": 96, "velocity": 64}, {"time": 1152, "pitch": 74, "duration": 48, "velocity": 64}, {"time": 1200, "pitch": 76, "duration": 96, "velocity": 64}, {"time": 1296, "pitch": 76, "duration": 48, "velocity": 64}, {"time": 1344, "pitch": 76, "duration": 96, "velocity": 64}, {"time": 1440, "pitch": 79, "duration": 48, "velocity": 64}, {"time": 1488, "pitch": 77, "duration": 96, "velocity": 64}, {"time": 1584, "pitch": 76, "duration": 96, "velocity": 64}, {"time": 1680, "pitch": 76, "duration": 96, "velocity": 64}, {"time": 1776, "pitch": 74, "duration": 96, "velocity": 64}, {"time": 1872, "pitch": 72, "duration": 48, "velocity": 64}, {"time": 1920, "pitch": 76, "duration": 96, "velocity": 64}, {"time": 2016, "pitch": 73, "duration": 48, "velocity": 64}, {"time": 2064, "pitch": 71, "duration": 96, "velocity": 64}, {"time": 2160, "pitch": 69, "duration": 96, "velocity": 64}, {"time": 2304, "pitch": 76, "duration": 48, "velocity": 64}, {"time": 2352, "pitch": 74, "duration": 96, "velocity": 64}, {"time": 2448, "pitch": 74, "duration": 48, "velocity": 64}, {"time": 2496, "pitch": 72, "duration": 96, "velocity": 64}, {"time": 2592, "pitch": 69, "duration": 48, "velocity": 64}, {"time": 2640, "pitch": 71, "duration": 48, "velocity": 64}, {"time": 2688, "pitch": 72, "duration": 48, "velocity": 64}, {"time": 2736, "pitch": 74, "duration": 96, "velocity": 64}, {"time": 2832, "pitch": 74, "duration": 96, "velocity": 64}, {"time": 2928, "pitch": 74, "duration": 96, "velocity": 64}, {"time": 3024, "pitch": 74, "duration": 48, "velocity": 64}, {"time": 3072, "pitch": 74, "duration": 96, "velocity": 64}, {"time": 3168, "pitch": 76, "duration": 48, "velocity": 64}, {"time": 3216, "pitch": 77, "duration": 96, "velocity": 64}, {"time": 3312, "pitch": 76, "duration": 96, "velocity": 64}, {"time": 3408, "pitch": 76, "duration": 96, "velocity": 64}, {"time": 3504, "pitch": 74, "duration": 96, "velocity": 64}, {"time": 3600, "pitch": 72, "duration": 48, "velocity": 64}, {"time": 3648, "pitch": 76, "duration": 96, "velocity": 64}, {"time": 3744, "pitch": 73, "duration": 48, "velocity": 64}, {"time": 3792, "pitch": 71, "duration": 96, "velocity": 64}, {"time": 3888, "pitch": 69, "duration": 96, "velocity": 64}]}]}