{"metadata": {"schema_version": "0.1", "title": "Graserin und Ritter", "source_format": "abc"}, "resolution": 24, "tempos": [{"time": 0, "qpm": 120.0}], "key_signatures": [{"time": 0, "root": 4, "mode": "major", "fifths": 4}], "time_signatures": [{"time": 0, "numerator": 4, "denominator": 2}], "beats": [{"time": 0, "is_downbeat": true}, {"time": 48, "is_downbeat": true}, {"time": 96, "is_downbeat": false}, {"time": 144, "is_downbeat": false}, {"time": 192, "is_downbeat": false}, {"time": 240, "is_downbeat": true}, {"time": 288, "is_downbeat": false}, {"time": 336, "is_downbeat": false}, {"time": 384, "is_downbeat": false}, {"time": 432, "is_downbeat": true}, {"time": 480, "is_downbeat": false}, {"time": 528, "is_downbeat": false}, {"time": 576, "is_downbeat": false}, {"time": 624, "is_downbeat": true}, {"time": 672, "is_downbeat": false}, {"time": 720, "is_downbeat": false}, {"time": 768, "is_downbeat": false}, {"time": 816, "is_downbeat": true}, {"time": 864, "is_downbeat": false}, {"time": 912, "is_downbeat": false}, {"time": 960, "is_downbeat": false}, {"time": 1008, "is_downbeat": true}, {"time": 1056, "is_downbeat": false}, {"time": 1104, "is_downbeat": false}, {"time": 1152, "is_downbeat": false}, {"time": 1200, "is_downbeat": true}, {"time": 1248, "is_downbeat": false}, {"time": 1296, "is_downbeat": false}, {"time": 1344, "is_downbeat": false}, {"time": 1392, "is_downbeat": true}, {"time": 1440, "is_downbeat": false}, {"time": 1488, "is_downbeat": false}, {"time": 1536, "is_downbeat": false}, {"time": 1584, "is_downbeat": true}, {"time": 1632, "is_downbeat": false}, {"time": 1680, "is_downbeat": false}, {"time": 1728, "is_downbeat": false}, {"time": 1776, "is_downbeat": true}, {"time": 1824, "is_downbeat": false}, {"time": 1872, "is_downbeat": false}, {"time": 1920, "is_downbeat": false}, {"time": 1968, "is_downbeat": true}, {"time": 2016, "is_downbeat": false}, {"time": 2064, "is_downbeat": false}, {"time": 2112, "is_downbeat": false}], "tracks": [{"program": 0, "is_drum": false, "notes": [{"time": 0, "pitch": 71, "duration": 48, "velocity": 64}, {"time": 48, "pitch": 72, "duration": 48, "velocity": 64}, {"time": 96, "pitch": 73, "duration": 48, "velocity": 64}, {"time": 144, "pitch": 71, "duration": 48, "velocity": 64}, {"time": 192, "pitch": 76, "duration": 48, "velocity": 64}, {"time": 240, "pitch": 74, "duration": 48, "velocity": 64}, {"time": 288, "pitch": 75, "duration": 48, "velocity": 64}, {"time": 336, "pitch": 72, "duration": 96, "velocity": 64}, {"time": 480, "pitch": 71, "duration": 48, "velocity": 64}, {"time": 528, "pitch": 72, "duration": 48, "velocity": 64}, {"time": 576, "pitch": 74, "duration": 48, "velocity": 64}, {"time": 624, "pitch": 76, "duration": 48, "velocity": 64}, {"time": 672, "pitch": 74, "duration": 24, "velocity": 64}, {"time": 696, "pitch": 72, "duration": 24, "velocity": 64}, {"time": 720, "pitch": 71, "duration": 48, "velocity": 64}, {"time": 768, "pitch": 69, "duration": 48, "velocity": 64}, {"time": 816, "pitch": 67, "duration": 96, "velocity": 64}, {"time": 960, "pitch": 68, "duration": 48, "velocity": 64}, {"time": 1008, "pitch": 72, "duration": 48, "velocity": 64}, {"time": 1056, "pitch": 71, "duration": 24, "velocity": 64}, {"time": 1080, "pitch": 69, "duration": 24, "velocity": 64}, {"time": 1104, "pitch": 67, "duration": 48, "velocity": 64}, {"time": 1152, "pitch": 73, "duration": 48, "velocity": 64}, {"time": 1200, "pitch": 67, "duration": 96, "velocity": 64}, {"time": 1296, "pitch": 64, "duration": 48, "velocity": 64}, {"time": 1344, "pitch": 68, "duration": 48, "velocity": 64}, {"time": 1392, "pitch": 72, "duration": 48, "velocity": 64}, {"time": 1440, "pitch": 71, "duration": 24, "velocity": 64}, {"time": 1464, "pitch": 69, "duration": 24, "velocity": 64}, {"time": 1488, "pitch": 67, "duration": 48, "velocity": 64}, {"time": 1536, "pitch": 65, "duration": 48, "velocity": 64}, {"time": 1584, "pitch": 64, "duration": 96, "velocity": 64}, {"time": 1680, "pitch": 67, "duration": 48, "velocity": 64}, {"time": 1728, "pitch": 72, "duration": 48, "velocity": 64}, {"time": 1776, "pitch": 71, "duration": 48, "velocity": 64}, {"time": 1824, "pitch": 69, "duration": 48, "velocity": 64}, {"time": 1872, "pitch": 67, "duration": 72, "velocity": 64}, {"time": 1944, "pitch": 65, "duration": 24, "velocity": 64}, {"time": 1968, "pitch": 64, "duration": 144, "velocity": 64}]}]}