{"metadata": {"schema_version": "0.1", "title": "Der Schwanendreher", "source_format": "abc"}, "resolution": 24, "tempos": [{"time": 0, "qpm": 120.0}], "key_signatures": [{"time": 0, "root": 9, "mode": "major", "fifths": 3}], "time_signatures": [{"time": 0, "numerator": 4, "denominator": 2}], "beats": [{"time": 0, "is_downbeat": true}, {"time": 48, "is_downbeat": false}, {"time": 96, "is_downbeat": false}, {"time": 144, "is_downbeat": false}, {"time": 192, "is_downbeat": true}, {"time": 240, "is_downbeat": false}, {"time": 288, "is_downbeat": false}, {"time": 336, "is_downbeat": false}, {"time": 384, "is_downbeat": true}, {"time": 432, "is_downbeat": false}, {"time": 480, "is_downbeat": false}, {"time": 528, "is_downbeat": false}, {"time": 576, "is_downbeat": true}, {"time": 624, "is_downbeat": false}, {"time": 672, "is_downbeat": false}, {"time": 720, "is_downbeat": false}, {"time": 768, "is_downbeat": true}, {"time": 816, "is_downbeat": false}, {"time": 864, "is_downbeat": false}, {"time": 912, "is_downbeat": false}, {"time": 960, "is_downbeat": true}, {"time": 1008, "is_downbeat": false}, {"time": 1056, "is_downbeat": false}, {"time": 1104, "is_downbeat": false}, {"time": 1152, "is_downbeat": true}, {"time": 1200, "is_downbeat": false}, {"time": 1248, "is_downbeat": false}, {"time": 1296, "is_downbeat": false}, {"time": 1344, "is_downbeat": true}, {"time": 1392, "is_downbeat": false}, {"time": 1440, "is_downbeat": false}, {"time": 1488, "is_downbeat": false}, {"time": 1536, "is_downbeat": true}, {"time": 1584, "is_downbeat": false}, {"time": 1632, "is_downbeat": false}, {"time": 1680, "is_downbeat": false}, {"time": 1728, "is_downbeat": true}, {"time": 1776, "is_downbeat": false}, {"time": 1824, "is_downbeat": false}, {"time": 1872, "is_downbeat": false}, {"time": 1920, "is_downbeat": true}, {"time": 1968, "is_downbeat": false}, {"time": 2016, "is_downbeat": false}, {"time": 2064, "is_downbeat": false}, {"time": 2112, "is_downbeat": true}, {"time": 2160, "is_downbeat": false}, {"time": 2208, "is_downbeat": false}, {"time": 2256, "is_downbeat": false}, {"time": 2304, "is_downbeat": true}, {"time": 2352, "is_downbeat": false}, {"time": 2400, "is_downbeat": false}, {"time": 2448, "is_downbeat": false}, {"time": 2496, "is_downbeat": true}, {"time": 2544, "is_downbeat": false}, {"time": 2592, "is_downbeat": false}, {"time": 2640, "is_downbeat": false}, {"time": 2688, "is_downbeat": true}, {"time": 2736, "is_downbeat": false}, {"time": 2784, "is_downbeat": false}, {"time": 2832, "is_downbeat": false}, {"time": 2880, "is_downbeat": true}, {"time": 2928, "is_downbeat": false}, {"time": 2976, "is_downbeat": false}, {"time": 3024, "is_downbeat": false}, {"time": 3072, "is_downbeat": true}, {"time": 3120, "is_downbeat": false}, {"time": 3168, "is_downbeat": false}, {"time": 3216, "is_downbeat": false}, {"time": 3264, "is_downbeat": true}, {"time": 3312, "is_downbeat": false}, {"time": 3360, "is_downbeat": false}, {"time": 3408, "is_downbeat": false}, {"time": 3456, "is_downbeat": true}, {"time": 3504, "is_downbeat": false}, {"time": 3552, "is_downbeat": false}, {"time": 3600, "is_downbeat": false}, {"time": 3648, "is_downbeat": true}, {"time": 3696, "is_downbeat": false}, {"time": 3744, "is_downbeat": false}, {"time": 3792, "is_downbeat": false}], "tracks": [{"program": 0, "is_drum": false, "notes": [{"time": 0, "pitch": 71, "duration": 24, "velocity": 64}, {"time": 24, "pitch": 69, "duration": 24, "velocity": 64}, {"time": 48, "pitch": 68, "duration": 24, "velocity": 64}, {"time": 72, "pitch": 66, "duration": 24, "velocity": 64}, {"time": 96, "pitch": 64, "duration": 48, "velocity": 64}, {"time": 144, "pitch": 66, "duration": 48, "velocity": 64}, {"time": 192, "pitch": 68, "duration": 48, "velocity": 64}, {"time": 240, "pitch": 68, "duration": 48, "velocity": 64}, {"time": 288, "pitch": 66, "duration": 48, "velocity": 64}, {"time": 336, "pitch": 66, "duration": 48, "velocity": 64}, {"time": 384, "pitch": 68, "duration": 48, "velocity": 64}, {"time": 432, "pitch": 69, "duration": 48, "velocity": 64}, {"time": 480, "pitch": 71, "duration": 48, "velocity": 64}, {"time": 528, "pitch": 71, "duration": 48, "velocity": 64}, {"time": 576, "pitch": 73, "duration": 72, "velocity": 64}, {"time": 648, "pitch": 71, "duration": 24, "velocity": 64}, {"time": 672, "pitch": 69, "duration": 48, "velocity": 64}, {"time": 720, "pitch": 71, "duration": 24, "velocity": 64}, {"time": 744, "pitch": 73, "duration": 24, "velocity": 64}, {"time": 768, "pitch": 74, "duration": 48, "velocity": 64}, {"time": 816, "pitch": 71, "duration": 48, "velocity": 64}, {"time": 864, "pitch": 73, "duration": 48, "velocity": 64}, {"time": 912, "pitch": 73, "duration": 48, "velocity": 64}, {"time": 960, "pitch": 71, "duration": 72, "velocity": 64}, {"time": 1032, "pitch": 64, "duration": 24, "velocity": 64}, {"time": 1056, "pitch": 71, "duration": 96, "velocity": 64}, {"time": 1152, "pitch": 74, "duration": 96, "velocity": 64}, {"time": 1248, "pitch": 74, "duration": 48, "velocity": 64}, {"time": 1296, "pitch": 73, "duration": 48, "velocity": 64}, {"time": 1344, "pitch": 71, "duration": 48, "velocity": 64}, {"time": 1392, "pitch": 69, "duration": 24, "velocity": 64}, {"time": 1416, "pitch": 67, "duration": 24, "velocity": 64}, {"time": 1440, "pitch": 66, "duration": 96, "velocity": 64}, {"time": 1536, "pitch": 74, "duration": 96, "velocity": 64}, {"time": 1632, "pitch": 74, "duration": 48, "velocity": 64}, {"time": 1680, "pitch": 73, "duration": 48, "velocity": 64}, {"time": 1728, "pitch": 71, "duration": 48, "velocity": 64}, {"time": 1776, "pitch": 69, "duration": 24, "velocity": 64}, {"time": 1800, "pitch": 67, "duration": 24, "velocity": 64}, {"time": 1824, "pitch": 66, "duration": 48, "velocity": 64}, {"time": 1872, "pitch": 66, "duration": 48, "velocity": 64}, {"time": 1920, "pitch": 71, "duration": 96, "velocity": 64}, {"time": 2016, "pitch": 69, "duration": 96, "velocity": 64}, {"time": 2112, "pitch": 68, "duration": 72, "velocity": 64}, {"time": 2184, "pitch": 66, "duration": 24, "velocity": 64}, {"time": 2208, "pitch": 64, "duration": 48, "velocity": 64}, {"time": 2256, "pitch": 71, "duration": 48, "velocity": 64}, {"time": 2304, "pitch": 73, "duration": 48, "velocity": 64}, {"time": 2352, "pitch": 71, "duration": 48, "velocity": 64}, {"time": 2400, "pitch": 73, "duration": 48, "velocity": 64}, {"time": 2448, "pitch": 74, "duration": 48, "velocity": 64}, {"time": 2496, "pitch": 76, "duration": 48, "velocity": 64}, {"time": 2544, "pitch": 74, "duration": 24, "velocity": 64}, {"time": 2568, "pitch": 73, "duration": 24, "velocity": 64}, {"time": 2592, "pitch": 71, "duration": 48, "velocity": 64}, {"time": 2640, "pitch": 69, "duration": 48, "velocity": 64}, {"time": 2688, "pitch": 68, "duration": 48, "velocity": 64}, {"time": 2736, "pitch": 66, "duration": 48, "velocity": 64}, {"time": 2784, "pitch": 68, "duration": 48, "velocity": 64}, {"time": 2832, "pitch": 69, "duration": 48, "velocity": 64}, {"time": 2880, "pitch": 71, "duration": 48, "velocity": 64}, {"time": 2928, "pitch": 69, "duration": 24, "velocity": 64}, {"time": 2952, "pitch": 68, "duration": 24, "velocity": 64}, {"time": 2976, "pitch": 66, "duration": 48, "velocity": 64}, {"time": 3024, "pitch": 71, "duration": 48, "velocity": 64}, {"time": 3072, "pitch": 73, "duration": 96, "velocity": 64}, {"time": 3168, "pitch": 71, "duration": 96, "velocity": 64}, {"time": 3264, "pitch": 68, "duration": 72, "velocity": 64}, {"time": 3336, "pitch": 66, "duration": 24, "velocity": 64}, {"time": 3360, "pitch": 64, "duration": 48, "velocity": 64}, {"time": 3408, "pitch": 64, "duration": 48, "velocity": 64}, {"time": 3456, "pitch": 73, "duration": 96, "velocity": 64}, {"time": 3552, "pitch": 71, "duration": 96, "velocity": 64}, {"time": 3648, "pitch": 69, "duration": 72, "velocity": 64}, {"time": 3720, "pitch": 66, "duration": 24, "velocity": 64}, {"time": 3744, "pitch": 69, "duration": 96, "velocity": 64}]}]}