{"metadata": {"schema_version": "0.1", "title": "Martinsgans", "source_format": "abc"}, "resolution": 24, "tempos": [{"time": 0, "qpm": 120.0}], "key_signatures": [{"time": 0, "root": 5, "mode": "major", "fifths": -1}], "time_signatures": [{"time": 0, "numerator": 4, "denominator": 2}], "beats": [{"time": 0, "is_downbeat": true}, {"time": 48, "is_downbeat": false}, {"time": 96, "is_downbeat": true}, {"time": 144, "is_downbeat": false}, {"time": 192, "is_downbeat": false}, {"time": 240, "is_downbeat": false}, {"time": 288, "is_downbeat": true}, {"time": 336, "is_downbeat": false}, {"time": 384, "is_downbeat": false}, {"time": 432, "is_downbeat": false}, {"time": 480, "is_downbeat": true}, {"time": 528, "is_downbeat": false}, {"time": 576, "is_downbeat": false}, {"time": 624, "is_downbeat": false}, {"time": 672, "is_downbeat": true}, {"time": 720, "is_downbeat": false}, {"time": 768, "is_downbeat": false}, {"time": 816, "is_downbeat": false}, {"time": 864, "is_downbeat": true}, {"time": 912, "is_downbeat": false}, {"time": 960, "is_downbeat": false}, {"time": 1008, "is_downbeat": false}, {"time": 1056, "is_downbeat": true}, {"time": 1104, "is_downbeat": false}, {"time": 1152, "is_downbeat": false}, {"time": 1200, "is_downbeat": false}, {"time": 1248, "is_downbeat": true}, {"time": 1296, "is_downbeat": false}, {"time": 1344, "is_downbeat": false}, {"time": 1392, "is_downbeat": false}, {"time": 1440, "is_downbeat": true}, {"time": 1488, "is_downbeat": false}, {"time": 1536, "is_downbeat": false}, {"time": 1584, "is_downbeat": false}, {"time": 1632, "is_downbeat": true}, {"time": 1680, "is_downbeat": false}, {"time": 1728, "is_downbeat": false}, {"time": 1776, "is_downbeat": false}, {"time": 1824, "is_downbeat": true}, {"time": 1872, "is_downbeat": false}, {"time": 1920, "is_downbeat": false}, {"time": 1968, "is_downbeat": false}, {"time": 2016, "is_downbeat": true}, {"time": 2064, "is_downbeat": false}, {"time": 2112, "is_downbeat": false}, {"time": 2160, "is_downbeat": false}, {"time": 2208, "is_downbeat": true}, {"time": 2256, "is_downbeat": false}, {"time": 2304, "is_downbeat": false}, {"time": 2352, "is_downbeat": false}, {"time": 2400, "is_downbeat": true}, {"time": 2448, "is_downbeat": false}, {"time": 2496, "is_downbeat": false}, {"time": 2544, "is_downbeat": false}, {"time": 2592, "is_downbeat": true}, {"time": 2640, "is_downbeat": false}, {"time": 2688, "is_downbeat": false}, {"time": 2736, "is_downbeat": false}, {"time": 2784, "is_downbeat": true}, {"time": 2832, "is_downbeat": false}, {"time": 2880, "is_downbeat": false}, {"time": 2928, "is_downbeat": false}, {"time": 2976, "is_downbeat": true}, {"time": 3024, "is_downbeat": false}, {"time": 3072, "is_downbeat": false}, {"time": 3120, "is_downbeat": false}, {"time": 3168, "is_downbeat": true}, {"time": 3216, "is_downbeat": false}, {"time": 3264, "is_downbeat": false}, {"time": 3312, "is_downbeat": false}, {"time": 3360, "is_downbeat": true}, {"time": 3408, "is_downbeat": false}, {"time": 3456, "is_downbeat": false}, {"time": 3504, "is_downbeat": false}, {"time": 3552, "is_downbeat": true}, {"time": 3600, "is_downbeat": false}, {"time": 3648, "is_downbeat": false}, {"time": 3696, "is_downbeat": false}, {"time": 3744, "is_downbeat": true}, {"time": 3792, "is_downbeat": false}, {"time": 3840, "is_downbeat": false}, {"time": 3888, "is_downbeat": false}, {"time": 3936, "is_downbeat": true}, {"time": 3984, "is_downbeat": false}, {"time": 4032, "is_downbeat": false}, {"time": 4080, "is_downbeat": false}, {"time": 4128, "is_downbeat": true}, {"time": 4176, "is_downbeat": false}, {"time": 4224, "is_downbeat": false}, {"time": 4272, "is_downbeat": false}, {"time": 4320, "is_downbeat": true}, {"time": 4368, "is_downbeat": false}, {"time": 4416, "is_downbeat": false}, {"time": 4464, "is_downbeat": false}, {"time": 4512, "is_downbeat": true}, {"time": 4560, "is_downbeat": false}, {"time": 4608, "is_downbeat": false}, {"time": 4656, "is_downbeat": false}, {"time": 4704, "is_downbeat": true}, {"time": 4752, "is_downbeat": false}, {"time": 4800, "is_downbeat": false}, {"time": 4848, "is_downbeat": false}], "tracks": [{"program": 0, "is_drum": false, "notes": [{"time": 0, "pitch": 77, "duration": 96, "velocity": 64}, {"time": 96, "pitch": 76, "duration": 96, "velocity": 64}, {"time": 192, "pitch": 77, "duration": 48, "velocity": 64}, {"time": 240, "pitch": 74, "duration": 48, "velocity": 64}, {"time": 288, "pitch": 72, "duration": 96, "velocity": 64}, {"time": 432, "pitch": 72, "duration": 48, "velocity": 64}, {"time": 480, "pitch": 69, "duration": 48, "velocity": 64}, {"time": 528, "pitch": 70, "duration": 48, "velocity": 64}, {"time": 576, "pitch": 72, "duration": 96, "velocity": 64}, {"time": 720, "pitch": 72, "duration": 48, "velocity": 64}, {"time": 768, "pitch": 74, "duration": 48, "velocity": 64}, {"time": 816, "pitch": 74, "duration": 48, "velocity": 64}, {"time": 864, "pitch": 72, "duration": 72, "velocity": 64}, {"time": 936, "pitch": 70, "duration": 24, "velocity": 64}, {"time": 960, "pitch": 69, "duration": 48, "velocity": 64}, {"time": 1008, "pitch": 67, "duration": 48, "velocity": 64}, {"time": 1056, "pitch": 69, "duration": 48, "velocity": 64}, {"time": 1104, "pitch": 70, "duration": 48, "velocity": 64}, {"time": 1152, "pitch": 67, "duration": 96, "velocity": 64}, {"time": 1248, "pitch": 65, "duration": 96, "velocity": 64}, {"time": 1344, "pitch": 77, "duration": 96, "velocity": 64}, {"time": 1440, "pitch": 76, "duration": 96, "velocity": 64}, {"time": 1536, "pitch": 77, "duration": 48, "velocity": 64}, {"time": 1584, "pitch": 74, "duration": 48, "velocity": 64}, {"time": 1632, "pitch": 72, "duration": 96, "velocity": 64}, {"time": 1776, "pitch": 72, "duration": 48, "velocity": 64}, {"time": 1824, "pitch": 69, "duration": 48, "velocity": 64}, {"time": 1872, "pitch": 70, "duration": 48, "velocity": 64}, {"time": 1920, "pitch": 72, "duration": 96, "velocity": 64}, {"time": 2064, "pitch": 72, "duration": 48, "velocity": 64}, {"time": 2112, "pitch": 74, "duration": 48, "velocity": 64}, {"time": 2160, "pitch": 74, "duration": 48, "velocity": 64}, {"time": 2208, "pitch": 72, "duration": 72, "velocity": 64}, {"time": 2280, "pitch": 70, "duration": 24, "velocity": 64}, {"time": 2304, "pitch": 69, "duration": 48, "velocity": 64}, {"time": 2352, "pitch": 67, "duration": 48, "velocity": 64}, {"time": 2400, "pitch": 69, "duration": 48, "velocity": 64}, {"time": 2448, "pitch": 70, "duration": 48, "velocity": 64}, {"time": 2496, "pitch": 67, "duration": 96, "velocity": 64}, {"time": 2592, "pitch": 65, "duration": 96, "velocity": 64}, {"time": 2736, "pitch": 65, "duration": 48, "velocity": 64}, {"time": 2784, "pitch": 69, "duration": 72, "velocity": 64}, {"time": 2856, "pitch": 70, "duration": 24, "velocity": 64}, {"time": 2880, "pitch": 72, "duration": 48, "velocity": 64}, {"time": 2928, "pitch": 65, "duration": 48, "velocity": 64}, {"time": 2976, "pitch": 69, "duration": 72, "velocity": 64}, {"time": 3048, "pitch": 70, "duration": 24, "velocity": 64}, {"time": 3072, "pitch": 72, "duration": 48, "velocity": 64}, {"time": 3120, "pitch": 72, "duration": 48, "velocity": 64}, {"time": 3168, "pitch": 74, "duration": 48, "velocity": 64}, {"time": 3216, "pitch": 76, "duration": 48, "velocity": 64}, {"time": 3264, "pitch": 77, "duration": 72, "velocity": 64}, {"time": 3336, "pitch": 76, "duration": 24, "velocity": 64}, {"time": 3360, "pitch": 74, "duration": 48, "velocity": 64}, {"time": 3408, "pitch": 72, "duration": 48, "velocity": 64}, {"time": 3456, "pitch": 74, "duration": 96, "velocity": 64}, {"time": 3552, "pitch": 72, "duration": 96, "velocity": 64}, {"time": 3696, "pitch": 72, "duration": 48, "velocity": 64}, {"time": 3744, "pitch": 72, "duration": 48, "velocity": 64}, {"time": 3792, "pitch": 72, "duration": 48, "velocity": 64}, {"time": 3840, "pitch": 69, "duration": 48, "velocity": 64}, {"time": 3888, "pitch": 65, "duration": 48, "velocity": 64}, {"time": 3936, "pitch": 72, "duration": 48, "velocity": 64}, {"time": 3984, "pitch": 74, "duration": 48, "velocity": 64}, {"time": 4032, "pitch": 70, "duration": 96, "velocity": 64}, {"time": 4128, "pitch": 69, "duration": 96, "velocity": 64}, {"time": 4272, "pitch": 69, "duration": 48, "velocity": 64}, {"time": 4320, "pitch": 74, "duration": 48, "velocity": 64}, {"time": 4368, "pitch": 74, "duration": 48, "velocity": 64}, {"time": 4416, "pitch": 72, "duration": 72, "velocity": 64}, {"time": 4488, "pitch": 70, "duration": 24, "velocity": 64}, {"time": 4512, "pitch": 69, "duration": 48, "velocity": 64}, {"time": 4560, "pitch": 70, "duration": 48, "velocity": 64}, {"time": 4608, "pitch": 67, "duration": 96, "velocity": 64}, {"time": 4704, "pitch": 65, "duration": 96, "velocity": 64}]}]}