{"metadata": {"schema_version": "0.1", "title": "Landsknecht als Schlemmer", "source_format": "abc"}, "resolution": 24, "tempos": [{"time": 0, "qpm": 120.0}], "key_signatures": [{"time": 0, "root": 7, "mode": "major", "fifths": 1}], "time_signatures": [{"time": 0, "numerator": 4, "denominator": 4}], "beats": [{"time": 0, "is_downbeat": true}, {"time": 24, "is_downbeat": true}, {"time": 48, "is_downbeat": false}, {"time": 72, "is_downbeat": false}, {"time": 96, "is_downbeat": false}, {"time": 120, "is_downbeat": true}, {"time": 144, "is_downbeat": false}, {"time": 168, "is_downbeat": false}, {"time": 192, "is_downbeat": false}, {"time": 216, "is_downbeat": true}, {"time": 240, "is_downbeat": false}, {"time": 264, "is_downbeat": false}, {"time": 288, "is_downbeat": false}, {"time": 312, "is_downbeat": true}, {"time": 336, "is_downbeat": false}, {"time": 360, "is_downbeat": false}, {"time": 384, "is_downbeat": false}, {"time": 408, "is_downbeat": true}, {"time": 432, "is_downbeat": false}, {"time": 456, "is_downbeat": false}, {"time": 480, "is_downbeat": false}, {"time": 504, "is_downbeat": true}, {"time": 528, "is_downbeat": false}, {"time": 552, "is_downbeat": false}, {"time": 576, "is_downbeat": false}, {"time": 600, "is_downbeat": true}, {"time": 624, "is_downbeat": false}, {"time": 648, "is_downbeat": false}, {"time": 672, "is_downbeat": false}, {"time": 696, "is_downbeat": true}, {"time": 720, "is_downbeat": false}, {"time": 744, "is_downbeat": false}, {"time": 768, "is_downbeat": false}, {"time": 792, "is_downbeat": true}, {"time": 816, "is_downbeat": false}, {"time": 840, "is_downbeat": false}, {"time": 864, "is_downbeat": false}, {"time": 888, "is_downbeat": true}, {"time": 912, "is_downbeat": false}, {"time": 936, "is_downbeat": false}, {"time": 960, "is_downbeat": false}, {"time": 984, "is_downbeat": true}, {"time": 1008, "is_downbeat": false}, {"time": 1032, "is_downbeat": false}, {"time": 1056, "is_downbeat": false}, {"time": 1080, "is_downbeat": true}, {"time": 1104, "is_downbeat": false}, {"time": 1128, "is_downbeat": false}, {"time": 1152, "is_downbeat": false}, {"time": 1176, "is_downbeat": true}, {"time": 1200, "is_downbeat": false}, {"time": 1224, "is_downbeat": false}, {"time": 1248, "is_downbeat": false}, {"time": 1272, "is_downbeat": true}, {"time": 1296, "is_downbeat": false}, {"time": 1320, "is_downbeat": false}, {"time": 1344, "is_downbeat": false}, {"time": 1368, "is_downbeat": true}, {"time": 1392, "is_downbeat": false}, {"time": 1416, "is_downbeat": false}, {"time": 1440, "is_downbeat": false}, {"time": 1464, "is_downbeat": true}, {"time": 1488, "is_downbeat": false}, {"time": 1512, "is_downbeat": false}, {"time": 1536, "is_downbeat": false}, {"time": 1560, "is_downbeat": true}, {"time": 1584, "is_downbeat": false}, {"time": 1608, "is_downbeat": false}, {"time": 1632, "is_downbeat": false}, {"time": 1656, "is_downbeat": true}, {"time": 1680, "is_downbeat": false}, {"time": 1704, "is_downbeat": false}, {"time": 1728, "is_downbeat": false}, {"time": 1752, "is_downbeat": true}, {"time": 1776, "is_downbeat": false}, {"time": 1800, "is_downbeat": false}, {"time": 1824, "is_downbeat": false}, {"time": 1848, "is_downbeat": true}, {"time": 1872, "is_downbeat": false}, {"time": 1896, "is_downbeat": false}, {"time": 1920, "is_downbeat": false}, {"time": 1944, "is_downbeat": true}, {"time": 1968, "is_downbeat": false}, {"time": 1992, "is_downbeat": false}, {"time": 2016, "is_downbeat": false}, {"time": 2040, "is_downbeat": true}, {"time": 2064, "is_downbeat": false}, {"time": 2088, "is_downbeat": false}, {"time": 2112, "is_downbeat": false}, {"time": 2136, "is_downbeat": true}, {"time": 2160, "is_downbeat": false}, {"time": 2184, "is_downbeat": false}, {"time": 2208, "is_downbeat": false}, {"time": 2232, "is_downbeat": true}, {"time": 2256, "is_downbeat": false}, {"time": 2280, "is_downbeat": false}, {"time": 2304, "is_downbeat": false}, {"time": 2328, "is_downbeat": true}, {"time": 2352, "is_downbeat": false}, {"time": 2376, "is_downbeat": false}, {"time": 2400, "is_downbeat": false}, {"time": 2424, "is_downbeat": true}, {"time": 2448, "is_downbeat": false}, {"time": 2472, "is_downbeat": false}, {"time": 2496, "is_downbeat": false}, {"time": 2520, "is_downbeat": true}, {"time": 2544, "is_downbeat": false}, {"time": 2568, "is_downbeat": false}, {"time": 2592, "is_downbeat": false}, {"time": 2616, "is_downbeat": true}, {"time": 2640, "is_downbeat": false}, {"time": 2664, "is_downbeat": false}, {"time": 2688, "is_downbeat": false}, {"time": 2712, "is_downbeat": true}, {"time": 2736, "is_downbeat": false}, {"time": 2760, "is_downbeat": false}, {"time": 2784, "is_downbeat": false}, {"time": 2808, "is_downbeat": true}, {"time": 2832, "is_downbeat": false}, {"time": 2856, "is_downbeat": false}, {"time": 2880, "is_downbeat": false}, {"time": 2904, "is_downbeat": true}, {"time": 2928, "is_downbeat": false}, {"time": 2952, "is_downbeat": false}, {"time": 2976, "is_downbeat": false}, {"time": 3000, "is_downbeat": true}, {"time": 3024, "is_downbeat": false}, {"time": 3048, "is_downbeat": false}, {"time": 3072, "is_downbeat": false}, {"time": 3096, "is_downbeat": true}, {"time": 3120, "is_downbeat": false}, {"time": 3144, "is_downbeat": false}, {"time": 3168, "is_downbeat": false}, {"time": 3192, "is_downbeat": true}, {"time": 3216, "is_downbeat": false}, {"time": 3240, "is_downbeat": false}, {"time": 3264, "is_downbeat": false}, {"time": 3288, "is_downbeat": true}, {"time": 3312, "is_downbeat": false}, {"time": 3336, "is_downbeat": false}, {"time": 3360, "is_downbeat": false}, {"time": 3384, "is_downbeat": true}, {"time": 3408, "is_downbeat": false}, {"time": 3432, "is_downbeat": false}, {"time": 3456, "is_downbeat": false}, {"time": 3480, "is_downbeat": true}, {"time": 3504, "is_downbeat": false}, {"time": 3528, "is_downbeat": false}, {"time": 3552, "is_downbeat": false}, {"time": 3576, "is_downbeat": true}, {"time": 3600, "is_downbeat": false}, {"time": 3624, "is_downbeat": false}, {"time": 3648, "is_downbeat": false}, {"time": 3672, "is_downbeat": true}, {"time": 3696, "is_downbeat": false}, {"time": 3720, "is_downbeat": false}, {"time": 3744, "is_downbeat": false}, {"time": 3768, "is_downbeat": true}, {"time": 3792, "is_downbeat": false}, {"time": 3816, "is_downbeat": false}, {"time": 3840, "is_downbeat": false}, {"time": 3864, "is_downbeat": true}, {"time": 3888, "is_downbeat": false}, {"time": 3912, "is_downbeat": false}, {"time": 3936, "is_downbeat": false}, {"time": 3960, "is_downbeat": true}, {"time": 3984, "is_downbeat": false}, {"time": 4008, "is_downbeat": false}, {"time": 4032, "is_downbeat": false}, {"time": 4056, "is_downbeat": true}, {"time": 4080, "is_downbeat": false}, {"time": 4104, "is_downbeat": false}, {"time": 4128, "is_downbeat": false}, {"time": 4152, "is_downbeat": true}, {"time": 4176, "is_downbeat": false}, {"time": 4200, "is_downbeat": false}, {"time": 4224, "is_downbeat": false}, {"time": 4248, "is_downbeat": true}, {"time": 4272, "is_downbeat": false}, {"time": 4296, "is_downbeat": false}, {"time": 4320, "is_downbeat": false}, {"time": 4344, "is_downbeat": true}, {"time": 4368, "is_downbeat": false}, {"time": 4392, "is_downbeat": false}, {"time": 4416, "is_downbeat": false}, {"time": 4440, "is_downbeat": true}, {"time": 4464, "is_downbeat": false}, {"time": 4488, "is_downbeat": false}, {"time": 4512, "is_downbeat": false}, {"time": 4536, "is_downbeat": true}, {"time": 4560, "is_downbeat": false}, {"time": 4584, "is_downbeat": false}, {"time": 4608, "is_downbeat": false}], "tracks": [{"program": 0, "is_drum": false, "notes": [{"time": 0, "pitch": 67, "duration": 24, "velocity": 64}, {"time": 24, "pitch": 70, "duration": 24, "velocity": 64}, {"time": 48, "pitch": 71, "duration": 24, "velocity": 64}, {"time": 72, "pitch": 72, "duration": 24, "velocity": 64}, {"time": 96, "pitch": 72, "duration": 24, "velocity": 64}, {"time": 120, "pitch": 74, "duration": 24, "velocity": 64}, {"time": 144, "pitch": 74, "duration": 24, "velocity": 64}, {"time": 168, "pitch": 74, "duration": 24, "velocity": 64}, {"time": 192, "pitch": 77, "duration": 48, "velocity": 64}, {"time": 216, "pitch": 78, "duration": 24, "velocity": 64}, {"time": 240, "pitch": 76, "duration": 12, "velocity": 64}, {"time": 252, "pitch": 74, "duration": 12, "velocity": 64}, {"time": 264, "pitch": 76, "duration": 24, "velocity": 64}, {"time": 288, "pitch": 76, "duration": 24, "velocity": 64}, {"time": 312, "pitch": 74, "duration": 48, "velocity": 64}, {"time": 384, "pitch": 70, "duration": 24, "velocity": 64}, {"time": 408, "pitch": 69, "duration": 24, "velocity": 64}, {"time": 432, "pitch": 70, "duration": 24, "velocity": 64}, {"time": 456, "pitch": 69, "duration": 24, "velocity": 64}, {"time": 480, "pitch": 69, "duration": 24, "velocity": 64}, {"time": 504, "pitch": 67, "duration": 72, "velocity": 64}, {"time": 576, "pitch": 79, "duration": 24, "velocity": 64}, {"time": 600, "pitch": 79, "duration": 24, "velocity": 64}, {"time": 648, "pitch": 76, "duration": 24, "velocity": 64}, {"time": 672, "pitch": 76, "duration": 24, "velocity": 64}, {"time": 696, "pitch": 74, "duration": 48, "velocity": 64}, {"time": 768, "pitch": 74, "duration": 24, "velocity": 64}, {"time": 792, "pitch": 79, "duration": 48, "velocity": 64}, {"time": 840, "pitch": 79, "duration": 48, "velocity": 64}, {"time": 888, "pitch": 77, "duration": 48, "velocity": 64}, {"time": 936, "pitch": 74, "duration": 48, "velocity": 64}, {"time": 984, "pitch": 77, "duration": 48, "velocity": 64}, {"time": 1032, "pitch": 75, "duration": 48, "velocity": 64}, {"time": 1080, "pitch": 74, "duration": 48, "velocity": 64}, {"time": 1152, "pitch": 77, "duration": 24, "velocity": 64}, {"time": 1176, "pitch": 74, "duration": 24, "velocity": 64}, {"time": 1200, "pitch": 74, "duration": 24, "velocity": 64}, {"time": 1224, "pitch": 74, "duration": 24, "velocity": 64}, {"time": 1248, "pitch": 70, "duration": 24, "velocity": 64}, {"time": 1272, "pitch": 74, "duration": 24, "velocity": 64}, {"time": 1296, "pitch": 74, "duration": 24, "velocity": 64}, {"time": 1320, "pitch": 74, "duration": 24, "velocity": 64}, {"time": 1344, "pitch": 67, "duration": 24, "velocity": 64}, {"time": 1368, "pitch": 72, "duration": 24, "velocity": 64}, {"time": 1392, "pitch": 70, "duration": 24, "velocity": 64}, {"time": 1416, "pitch": 69, "duration": 24, "velocity": 64}, {"time": 1440, "pitch": 69, "duration": 24, "velocity": 64}, {"time": 1464, "pitch": 67, "duration": 48, "velocity": 64}, {"time": 1536, "pitch": 67, "duration": 24, "velocity": 64}, {"time": 1560, "pitch": 70, "duration": 24, "velocity": 64}, {"time": 1584, "pitch": 71, "duration": 24, "velocity": 64}, {"time": 1608, "pitch": 72, "duration": 24, "velocity": 64}, {"time": 1632, "pitch": 72, "duration": 24, "velocity": 64}, {"time": 1656, "pitch": 74, "duration": 24, "velocity": 64}, {"time": 1680, "pitch": 74, "duration": 24, "velocity": 64}, {"time": 1704, "pitch": 74, "duration": 24, "velocity": 64}, {"time": 1728, "pitch": 77, "duration": 48, "velocity": 64}, {"time": 1752, "pitch": 78, "duration": 24, "velocity": 64}, {"time": 1776, "pitch": 76, "duration": 12, "velocity": 64}, {"time": 1788, "pitch": 74, "duration": 12, "velocity": 64}, {"time": 1800, "pitch": 76, "duration": 24, "velocity": 64}, {"time": 1824, "pitch": 76, "duration": 24, "velocity": 64}, {"time": 1848, "pitch": 74, "duration": 48, "velocity": 64}, {"time": 1920, "pitch": 70, "duration": 24, "velocity": 64}, {"time": 1944, "pitch": 69, "duration": 24, "velocity": 64}, {"time": 1968, "pitch": 70, "duration": 24, "velocity": 64}, {"time": 1992, "pitch": 69, "duration": 24, "velocity": 64}, {"time": 2016, "pitch": 69, "duration": 24, "velocity": 64}, {"time": 2040, "pitch": 67, "duration": 72, "velocity": 64}, {"time": 2112, "pitch": 79, "duration": 24, "velocity": 64}, {"time": 2136, "pitch": 79, "duration": 24, "velocity": 64}, {"time": 2184, "pitch": 76, "duration": 24, "velocity": 64}, {"time": 2208, "pitch": 76, "duration": 24, "velocity": 64}, {"time": 2232, "pitch": 74, "duration": 48, "velocity": 64}, {"time": 2304, "pitch": 74, "duration": 24, "velocity": 64}, {"time": 2328, "pitch": 79, "duration": 48, "velocity": 64}, {"time": 2376, "pitch": 79, "duration": 48, "velocity": 64}, {"time": 2424, "pitch": 77, "duration": 48, "velocity": 64}, {"time": 2472, "pitch": 74, "duration": 48, "velocity": 64}, {"time": 2520, "pitch": 77, "duration": 48, "velocity": 64}, {"time": 2568, "pitch": 75, "duration": 48, "velocity": 64}, {"time": 2616, "pitch": 74, "duration": 48, "velocity": 64}, {"time": 2688, "pitch": 77, "duration": 24, "velocity": 64}, {"time": 2712, "pitch": 74, "duration": 24, "velocity": 64}, {"time": 2736, "pitch": 74, "duration": 24, "velocity": 64}, {"time": 2760, "pitch": 74, "duration": 24, "velocity": 64}, {"time": 2784, "pitch": 70, "duration": 24, "velocity": 64}, {"time": 2808, "pitch": 74, "duration": 24, "velocity": 64}, {"time": 2832, "pitch": 74, "duration": 24, "velocity": 64}, {"time": 2856, "pitch": 74, "duration": 24, "velocity": 64}, {"time": 2880, "pitch": 67, "duration": 24, "velocity": 64}, {"time": 2904, "pitch": 72, "duration": 24, "velocity": 64}, {"time": 2928, "pitch": 70, "duration": 24, "velocity": 64}, {"time": 2952, "pitch": 69, "duration": 24, "velocity": 64}, {"time": 2976, "pitch": 69, "duration": 24, "velocity": 64}, {"time": 3000, "pitch": 67, "duration": 48, "velocity": 64}, {"time": 3096, "pitch": 79, "duration": 48, "velocity": 64}, {"time": 3144, "pitch": 79, "duration": 24, "velocity": 64}, {"time": 3168, "pitch": 79, "duration": 24, "velocity": 64}, {"time": 3192, "pitch": 77, "duration": 48, "velocity": 64}, {"time": 3240, "pitch": 75, "duration": 48, "velocity": 64}, {"time": 3288, "pitch": 74, "duration": 24, "velocity": 64}, {"time": 3312, "pitch": 74, "duration": 24, "velocity": 64}, {"time": 3336, "pitch": 74, "duration": 48, "velocity": 64}, {"time": 3384, "pitch": 72, "duration": 24, "velocity": 64}, {"time": 3408, "pitch": 72, "duration": 24, "velocity": 64}, {"time": 3432, "pitch": 72, "duration": 48, "velocity": 64}, {"time": 3480, "pitch": 70, "duration": 48, "velocity": 64}, {"time": 3528, "pitch": 71, "duration": 48, "velocity": 64}, {"time": 3576, "pitch": 77, "duration": 24, "velocity": 64}, {"time": 3600, "pitch": 78, "duration": 24, "velocity": 64}, {"time": 3624, "pitch": 78, "duration": 48, "velocity": 64}, {"time": 3672, "pitch": 74, "duration": 48, "velocity": 64}, {"time": 3720, "pitch": 74, "duration": 24, "velocity": 64}, {"time": 3744, "pitch": 74, "duration": 24, "velocity": 64}, {"time": 3768, "pitch": 72, "duration": 24, "velocity": 64}, {"time": 3792, "pitch": 72, "duration": 24, "velocity": 64}, {"time": 3816, "pitch": 72, "duration": 48, "velocity": 64}, {"time": 3864, "pitch": 70, "duration": 24, "velocity": 64}, {"time": 3888, "pitch": 71, "duration": 24, "velocity": 64}, {"time": 3912, "pitch": 71, "duration": 24, "velocity": 64}, {"time": 3936, "pitch": 71, "duration": 24, "velocity": 64}, {"time": 3960, "pitch": 72, "duration": 24, "velocity": 64}, {"time": 3984, "pitch": 70, "duration": 24, "velocity": 64}, {"time": 4008, "pitch": 69, "duration": 24, "velocity": 64}, {"time": 4032, "pitch": 69, "duration": 24, "velocity": 64}, {"time": 4056, "pitch": 67, "duration": 48, "velocity": 64}, {"time": 4104, "pitch": 70, "duration": 48, "velocity": 64}, {"time": 4152, "pitch": 72, "duration": 36, "velocity": 64}, {"time": 4188, "pitch": 72, "duration": 12, "velocity": 64}, {"time": 4200, "pitch": 67, "duration": 24, "velocity": 64}, {"time": 4224, "pitch": 69, "duration": 24, "velocity": 64}, {"time": 4248, "pitch": 70, "duration": 36, "velocity": 64}, {"time": 4284, "pitch": 72, "duration": 12, "velocity": 64}, {"time": 4296, "pitch": 74, "duration": 36, "velocity": 64}, {"time": 4332, "pitch": 75, "duration": 12, "velocity": 64}, {"time": 4344, "pitch": 77, "duration": 72, "velocity": 64}, {"time": 4416, "pitch": 75, "duration": 24, "velocity": 64}, {"time": 4440, "pitch": 74, "duration": 24, "velocity": 64}, {"time": 4464, "pitch": 72, "duration": 24, "velocity": 64}, {"time": 4488, "pitch": 70, "duration": 24, "velocity": 64}, {"time": 4512, "pitch": 69, "duration": 24, "velocity": 64}, {"time": 4536, "pitch": 67, "duration": 72, "velocity": 64}]}]}