{"metadata": {"schema_version": "0.1", "title": "Luthers Lied auf die zwei Maertyrer von Bruessel", "source_format": "abc"}, "resolution": 24, "tempos": [{"time": 0, "qpm": 120.0}], "key_signatures": [{"time": 0, "root": 5, "mode": "major", "fifths": -1}], "time_signatures": [{"time": 0, "numerator": 4, "denominator": 1}], "beats": [{"time": 0, "is_downbeat": true}, {"time": 48, "is_downbeat": true}, {"time": 144, "is_downbeat": false}, {"time": 240, "is_downbeat": false}, {"time": 336, "is_downbeat": false}, {"time": 432, "is_downbeat": true}, {"time": 528, "is_downbeat": false}, {"time": 624, "is_downbeat": false}, {"time": 720, "is_downbeat": false}, {"time": 816, "is_downbeat": true}, {"time": 912, "is_downbeat": false}, {"time": 1008, "is_downbeat": false}, {"time": 1104, "is_downbeat": false}, {"time": 1200, "is_downbeat": true}, {"time": 1296, "is_downbeat": false}, {"time": 1392, "is_downbeat": false}, {"time": 1488, "is_downbeat": false}, {"time": 1584, "is_downbeat": true}, {"time": 1680, "is_downbeat": false}, {"time": 1776, "is_downbeat": false}, {"time": 1872, "is_downbeat": false}, {"time": 1968, "is_downbeat": true}, {"time": 2064, "is_downbeat": false}, {"time": 2160, "is_downbeat": false}, {"time": 2256, "is_downbeat": false}, {"time": 2352, "is_downbeat": true}, {"time": 2448, "is_downbeat": false}, {"time": 2544, "is_downbeat": false}, {"time": 2640, "is_downbeat": false}, {"time": 2736, "is_downbeat": true}, {"time": 2832, "is_downbeat": false}, {"time": 2928, "is_downbeat": false}, {"time": 3024, "is_downbeat": false}, {"time": 3120, "is_downbeat": true}, {"time": 3216, "is_downbeat": false}, {"time": 3312, "is_downbeat": false}, {"time": 3408, "is_downbeat": false}, {"time": 3504, "is_downbeat": true}, {"time": 3600, "is_downbeat": false}, {"time": 3696, "is_downbeat": false}, {"time": 3792, "is_downbeat": false}, {"time": 3888, "is_downbeat": true}, {"time": 3984, "is_downbeat": false}, {"time": 4080, "is_downbeat": false}, {"time": 4176, "is_downbeat": false}, {"time": 4272, "is_downbeat": true}, {"time": 4368, "is_downbeat": false}, {"time": 4464, "is_downbeat": false}, {"time": 4560, "is_downbeat": false}, {"time": 4656, "is_downbeat": true}, {"time": 4752, "is_downbeat": false}, {"time": 4848, "is_downbeat": false}, {"time": 4944, "is_downbeat": false}, {"time": 5040, "is_downbeat": true}, {"time": 5136, "is_downbeat": false}, {"time": 5232, "is_downbeat": false}, {"time": 5328, "is_downbeat": false}, {"time": 5424, "is_downbeat": true}, {"time": 5520, "is_downbeat": false}, {"time": 5616, "is_downbeat": false}, {"time": 5712, "is_downbeat": false}, {"time": 5808, "is_downbeat": true}, {"time": 5904, "is_downbeat": false}, {"time": 6000, "is_downbeat": false}, {"time": 6096, "is_downbeat": false}, {"time": 6192, "is_downbeat": true}, {"time": 6288, "is_downbeat": false}, {"time": 6384, "is_downbeat": false}, {"time": 6480, "is_downbeat": false}, {"time": 6576, "is_downbeat": true}, {"time": 6672, "is_downbeat": false}, {"time": 6768, "is_downbeat": false}, {"time": 6864, "is_downbeat": false}], "tracks": [{"program": 0, "is_drum": false, "notes": [{"time": 0, "pitch": 77, "duration": 48, "velocity": 64}, {"time": 48, "pitch": 77, "duration": 96, "velocity": 64}, {"time": 144, "pitch": 77, "duration": 96, "velocity": 64}, {"time": 240, "pitch": 76, "duration": 96, "velocity": 64}, {"time": 336, "pitch": 74, "duration": 96, "velocity": 64}, {"time": 432, "pitch": 77, "duration": 96, "velocity": 64}, {"time": 528, "pitch": 74, "duration": 96, "velocity": 64}, {"time": 624, "pitch": 72, "duration": 96, "velocity": 64}, {"time": 768, "pitch": 69, "duration": 48, "velocity": 64}, {"time": 816, "pitch": 72, "duration": 96, "velocity": 64}, {"time": 912, "pitch": 74, "duration": 96, "velocity": 64}, {"time": 1008, "pitch": 72, "duration": 96, "velocity": 64}, {"time": 1104, "pitch": 65, "duration": 96, "velocity": 64}, {"time": 1200, "pitch": 69, "duration": 96, "velocity": 64}, {"time": 1296, "pitch": 67, "duration": 96, "velocity": 64}, {"time": 1392, "pitch": 65, "duration": 96, "velocity": 64}, {"time": 1536, "pitch": 77, "duration": 48, "velocity": 64}, {"time": 1584, "pitch": 77, "duration": 96, "velocity": 64}, {"time": 1680, "pitch": 77, "duration": 96, "velocity": 64}, {"time": 1776, "pitch": 76, "duration": 96, "velocity": 64}, {"time": 1872, "pitch": 74, "duration": 96, "velocity": 64}, {"time": 1968, "pitch": 77, "duration": 96, "velocity": 64}, {"time": 2064, "pitch": 74, "duration": 96, "velocity": 64}, {"time": 2160, "pitch": 72, "duration": 96, "velocity": 64}, {"time": 2304, "pitch": 69, "duration": 48, "velocity": 64}, {"time": 2352, "pitch": 72, "duration": 96, "velocity": 64}, {"time": 2448, "pitch": 74, "duration": 96, "velocity": 64}, {"time": 2544, "pitch": 72, "duration": 96, "velocity": 64}, {"time": 2640, "pitch": 65, "duration": 96, "velocity": 64}, {"time": 2736, "pitch": 69, "duration": 96, "velocity": 64}, {"time": 2832, "pitch": 67, "duration": 96, "velocity": 64}, {"time": 2928, "pitch": 65, "duration": 96, "velocity": 64}, {"time": 3072, "pitch": 69, "duration": 48, "velocity": 64}, {"time": 3120, "pitch": 69, "duration": 96, "velocity": 64}, {"time": 3216, "pitch": 69, "duration": 96, "velocity": 64}, {"time": 3312, "pitch": 70, "duration": 96, "velocity": 64}, {"time": 3408, "pitch": 69, "duration": 96, "velocity": 64}, {"time": 3504, "pitch": 69, "duration": 96, "velocity": 64}, {"time": 3600, "pitch": 69, "duration": 96, "velocity": 64}, {"time": 3696, "pitch": 65, "duration": 96, "velocity": 64}, {"time": 3840, "pitch": 72, "duration": 48, "velocity": 64}, {"time": 3888, "pitch": 76, "duration": 96, "velocity": 64}, {"time": 3984, "pitch": 77, "duration": 96, "velocity": 64}, {"time": 4080, "pitch": 79, "duration": 96, "velocity": 64}, {"time": 4176, "pitch": 77, "duration": 48, "velocity": 64}, {"time": 4224, "pitch": 76, "duration": 48, "velocity": 64}, {"time": 4272, "pitch": 76, "duration": 48, "velocity": 64}, {"time": 4320, "pitch": 74, "duration": 24, "velocity": 64}, {"time": 4344, "pitch": 72, "duration": 24, "velocity": 64}, {"time": 4368, "pitch": 74, "duration": 96, "velocity": 64}, {"time": 4464, "pitch": 72, "duration": 96, "velocity": 64}, {"time": 4608, "pitch": 72, "duration": 48, "velocity": 64}, {"time": 4656, "pitch": 76, "duration": 96, "velocity": 64}, {"time": 4752, "pitch": 72, "duration": 96, "velocity": 64}, {"time": 4848, "pitch": 74, "duration": 96, "velocity": 64}, {"time": 4944, "pitch": 72, "duration": 96, "velocity": 64}, {"time": 5040, "pitch": 72, "duration": 96, "velocity": 64}, {"time": 5136, "pitch": 72, "duration": 96, "velocity": 64}, {"time": 5232, "pitch": 69, "duration": 96, "velocity": 64}, {"time": 5376, "pitch": 65, "duration": 48, "velocity": 64}, {"time": 5424, "pitch": 69, "duration": 96, "velocity": 64}, {"time": 5520, "pitch": 70, "duration": 96, "velocity": 64}, {"time": 5616, "pitch": 72, "duration": 96, "velocity": 64}, {"time": 5712, "pitch": 70, "duration": 48, "velocity": 64}, {"time": 5760, "pitch": 69, "duration": 48, "velocity": 64}, {"time": 5808, "pitch": 69, "duration": 48, "velocity": 64}, {"time": 5856, "pitch": 67, "duration": 24, "velocity": 64}, {"time": 5880, "pitch": 65, "duration": 24, "velocity": 64}, {"time": 5904, "pitch": 67, "duration": 96, "velocity": 64}, {"time": 6000, "pitch": 65, "duration": 96, "velocity": 64}, {"time": 6144, "pitch": 72, "duration": 48, "velocity": 64}, {"time": 6192, "pitch": 72, "duration": 48, "velocity": 64}, {"time": 6240, "pitch": 72, "duration": 48, "velocity": 64}, {"time": 6288, "pitch": 74, "duration": 48, "velocity": 64}, {"time": 6336, "pitch": 76, "duration": 48, "velocity": 64}, {"time": 6384, "pitch": 77, "duration": 192, "velocity": 64}, {"time": 6576, "pitch": 79, "duration": 96, "velocity": 64}, {"time": 6672, "pitch": 65, "duration": 192, "velocity": 64}]}]}