{"metadata": {"schema_version": "0.1", "title": "Reiters Trostlied", "source_format": "abc"}, "resolution": 24, "tempos": [{"time": 0, "qpm": 120.0}], "key_signatures": [{"time": 0, "root": 7, "mode": "major", "fifths": 1}], "time_signatures": [{"time": 0, "numerator": 4, "denominator": 2}], "beats": [{"time": 0, "is_downbeat": true}, {"time": 48, "is_downbeat": false}, {"time": 96, "is_downbeat": false}, {"time": 144, "is_downbeat": true}, {"time": 192, "is_downbeat": false}, {"time": 240, "is_downbeat": false}, {"time": 288, "is_downbeat": false}, {"time": 336, "is_downbeat": true}, {"time": 384, "is_downbeat": false}, {"time": 432, "is_downbeat": false}, {"time": 480, "is_downbeat": false}, {"time": 528, "is_downbeat": true}, {"time": 576, "is_downbeat": false}, {"time": 624, "is_downbeat": false}, {"time": 672, "is_downbeat": false}, {"time": 720, "is_downbeat": true}, {"time": 768, "is_downbeat": false}, {"time": 816, "is_downbeat": false}, {"time": 864, "is_downbeat": false}, {"time": 912, "is_downbeat": true}, {"time": 960, "is_downbeat": false}, {"time": 1008, "is_downbeat": false}, {"time": 1056, "is_downbeat": false}, {"time": 1104, "is_downbeat": true}, {"time": 1152, "is_downbeat": false}, {"time": 1200, "is_downbeat": false}, {"time": 1248, "is_downbeat": false}, {"time": 1296, "is_downbeat": true}, {"time": 1344, "is_downbeat": false}, {"time": 1392, "is_downbeat": false}, {"time": 1440, "is_downbeat": false}, {"time": 1488, "is_downbeat": true}, {"time": 1536, "is_downbeat": false}, {"time": 1584, "is_downbeat": false}, {"time": 1632, "is_downbeat": false}, {"time": 1680, "is_downbeat": true}, {"time": 1728, "is_downbeat": false}, {"time": 1776, "is_downbeat": false}, {"time": 1824, "is_downbeat": false}, {"time": 1872, "is_downbeat": true}, {"time": 1920, "is_downbeat": false}, {"time": 1968, "is_downbeat": false}, {"time": 2016, "is_downbeat": false}, {"time": 2064, "is_downbeat": true}, {"time": 2112, "is_downbeat": false}, {"time": 2160, "is_downbeat": false}, {"time": 2208, "is_downbeat": false}, {"time": 2256, "is_downbeat": true}, {"time": 2304, "is_downbeat": false}, {"time": 2352, "is_downbeat": false}, {"time": 2400, "is_downbeat": false}, {"time": 2448, "is_downbeat": true}, {"time": 2496, "is_downbeat": false}, {"time": 2544, "is_downbeat": false}, {"time": 2592, "is_downbeat": false}, {"time": 2640, "is_downbeat": true}, {"time": 2688, "is_downbeat": false}, {"time": 2736, "is_downbeat": false}, {"time": 2784, "is_downbeat": false}, {"time": 2832, "is_downbeat": true}, {"time": 2880, "is_downbeat": false}, {"time": 2928, "is_downbeat": false}, {"time": 2976, "is_downbeat": false}, {"time": 3024, "is_downbeat": true}, {"time": 3072, "is_downbeat": false}, {"time": 3120, "is_downbeat": false}, {"time": 3168, "is_downbeat": false}], "tracks": [{"program": 0, "is_drum": false, "notes": [{"time": 0, "pitch": 67, "duration": 48, "velocity": 64}, {"time": 48, "pitch": 67, "duration": 48, "velocity": 64}, {"time": 96, "pitch": 67, "duration": 48, "velocity": 64}, {"time": 144, "pitch": 74, "duration": 48, "velocity": 64}, {"time": 192, "pitch": 74, "duration": 48, "velocity": 64}, {"time": 240, "pitch": 77, "duration": 48, "velocity": 64}, {"time": 288, "pitch": 76, "duration": 48, "velocity": 64}, {"time": 336, "pitch": 74, "duration": 96, "velocity": 64}, {"time": 480, "pitch": 74, "duration": 48, "velocity": 64}, {"time": 528, "pitch": 74, "duration": 48, "velocity": 64}, {"time": 576, "pitch": 74, "duration": 48, "velocity": 64}, {"time": 624, "pitch": 77, "duration": 48, "velocity": 64}, {"time": 672, "pitch": 74, "duration": 48, "velocity": 64}, {"time": 720, "pitch": 74, "duration": 144, "velocity": 64}, {"time": 864, "pitch": 72, "duration": 24, "velocity": 64}, {"time": 888, "pitch": 70, "duration": 24, "velocity": 64}, {"time": 912, "pitch": 72, "duration": 48, "velocity": 64}, {"time": 960, "pitch": 72, "duration": 48, "velocity": 64}, {"time": 1008, "pitch": 70, "duration": 96, "velocity": 64}, {"time": 1152, "pitch": 74, "duration": 48, "velocity": 64}, {"time": 1200, "pitch": 74, "duration": 48, "velocity": 64}, {"time": 1248, "pitch": 74, "duration": 48, "velocity": 64}, {"time": 1296, "pitch": 72, "duration": 48, "velocity": 64}, {"time": 1344, "pitch": 72, "duration": 48, "velocity": 64}, {"time": 1392, "pitch": 70, "duration": 24, "velocity": 64}, {"time": 1416, "pitch": 69, "duration": 24, "velocity": 64}, {"time": 1440, "pitch": 67, "duration": 48, "velocity": 64}, {"time": 1488, "pitch": 65, "duration": 96, "velocity": 64}, {"time": 1632, "pitch": 66, "duration": 48, "velocity": 64}, {"time": 1680, "pitch": 67, "duration": 48, "velocity": 64}, {"time": 1728, "pitch": 69, "duration": 48, "velocity": 64}, {"time": 1776, "pitch": 70, "duration": 48, "velocity": 64}, {"time": 1824, "pitch": 74, "duration": 48, "velocity": 64}, {"time": 1872, "pitch": 72, "duration": 48, "velocity": 64}, {"time": 1920, "pitch": 72, "duration": 48, "velocity": 64}, {"time": 1968, "pitch": 70, "duration": 96, "velocity": 64}, {"time": 2112, "pitch": 70, "duration": 48, "velocity": 64}, {"time": 2160, "pitch": 74, "duration": 48, "velocity": 64}, {"time": 2208, "pitch": 75, "duration": 48, "velocity": 64}, {"time": 2256, "pitch": 77, "duration": 48, "velocity": 64}, {"time": 2304, "pitch": 75, "duration": 48, "velocity": 64}, {"time": 2352, "pitch": 74, "duration": 24, "velocity": 64}, {"time": 2376, "pitch": 76, "duration": 24, "velocity": 64}, {"time": 2400, "pitch": 78, "duration": 24, "velocity": 64}, {"time": 2424, "pitch": 76, "duration": 24, "velocity": 64}, {"time": 2448, "pitch": 74, "duration": 144, "velocity": 64}, {"time": 2592, "pitch": 72, "duration": 24, "velocity": 64}, {"time": 2616, "pitch": 70, "duration": 24, "velocity": 64}, {"time": 2640, "pitch": 69, "duration": 48, "velocity": 64}, {"time": 2688, "pitch": 67, "duration": 48, "velocity": 64}, {"time": 2736, "pitch": 69, "duration": 96, "velocity": 64}, {"time": 2832, "pitch": 67, "duration": 192, "velocity": 64}]}]}