{"metadata": {"schema_version": "0.1", "title": "Reiters Abschied", "source_format": "abc"}, "resolution": 24, "tempos": [{"time": 0, "qpm": 120.0}], "key_signatures": [{"time": 0, "root": 0, "mode": "major", "fifths": 0}], "time_signatures": [{"time": 0, "numerator": 4, "denominator": 2}], "beats": [{"time": 0, "is_downbeat": true}, {"time": 48, "is_downbeat": true}, {"time": 96, "is_downbeat": false}, {"time": 144, "is_downbeat": false}, {"time": 192, "is_downbeat": false}, {"time": 240, "is_downbeat": true}, {"time": 288, "is_downbeat": false}, {"time": 336, "is_downbeat": false}, {"time": 384, "is_downbeat": false}, {"time": 432, "is_downbeat": true}, {"time": 480, "is_downbeat": false}, {"time": 528, "is_downbeat": false}, {"time": 576, "is_downbeat": false}, {"time": 624, "is_downbeat": true}, {"time": 672, "is_downbeat": false}, {"time": 720, "is_downbeat": false}, {"time": 768, "is_downbeat": false}, {"time": 816, "is_downbeat": true}, {"time": 864, "is_downbeat": false}, {"time": 912, "is_downbeat": false}, {"time": 960, "is_downbeat": false}, {"time": 1008, "is_downbeat": true}, {"time": 1056, "is_downbeat": false}, {"time": 1104, "is_downbeat": false}, {"time": 1152, "is_downbeat": false}, {"time": 1200, "is_downbeat": true}, {"time": 1248, "is_downbeat": false}, {"time": 1296, "is_downbeat": false}, {"time": 1344, "is_downbeat": false}, {"time": 1392, "is_downbeat": true}, {"time": 1440, "is_downbeat": false}, {"time": 1488, "is_downbeat": false}, {"time": 1536, "is_downbeat": false}, {"time": 1584, "is_downbeat": true}, {"time": 1632, "is_downbeat": false}, {"time": 1680, "is_downbeat": false}, {"time": 1728, "is_downbeat": false}, {"time": 1776, "is_downbeat": true}, {"time": 1824, "is_downbeat": false}, {"time": 1872, "is_downbeat": false}, {"time": 1920, "is_downbeat": false}, {"time": 1968, "is_downbeat": true}, {"time": 2016, "is_downbeat": false}, {"time": 2064, "is_downbeat": false}, {"time": 2112, "is_downbeat": false}, {"time": 2160, "is_downbeat": true}, {"time": 2208, "is_downbeat": false}, {"time": 2256, "is_downbeat": false}, {"time": 2304, "is_downbeat": false}, {"time": 2352, "is_downbeat": true}, {"time": 2400, "is_downbeat": false}, {"time": 2448, "is_downbeat": false}, {"time": 2496, "is_downbeat": false}, {"time": 2544, "is_downbeat": true}, {"time": 2592, "is_downbeat": false}, {"time": 2640, "is_downbeat": false}, {"time": 2688, "is_downbeat": false}, {"time": 2736, "is_downbeat": true}, {"time": 2784, "is_downbeat": false}, {"time": 2832, "is_downbeat": false}, {"time": 2880, "is_downbeat": false}, {"time": 2928, "is_downbeat": true}, {"time": 2976, "is_downbeat": false}, {"time": 3024, "is_downbeat": false}, {"time": 3072, "is_downbeat": false}, {"time": 3120, "is_downbeat": true}, {"time": 3168, "is_downbeat": false}, {"time": 3216, "is_downbeat": false}, {"time": 3264, "is_downbeat": false}, {"time": 3312, "is_downbeat": true}, {"time": 3360, "is_downbeat": false}, {"time": 3408, "is_downbeat": false}, {"time": 3456, "is_downbeat": false}], "tracks": [{"program": 0, "is_drum": false, "notes": [{"time": 0, "pitch": 60, "duration": 48, "velocity": 64}, {"time": 48, "pitch": 60, "duration": 48, "velocity": 64}, {"time": 96, "pitch": 55, "duration": 48, "velocity": 64}, {"time": 144, "pitch": 60, "duration": 48, "velocity": 64}, {"time": 192, "pitch": 62, "duration": 48, "velocity": 64}, {"time": 240, "pitch": 64, "duration": 72, "velocity": 64}, {"time": 312, "pitch": 62, "duration": 12, "velocity": 64}, {"time": 324, "pitch": 60, "duration": 12, "velocity": 64}, {"time": 336, "pitch": 62, "duration": 48, "velocity": 64}, {"time": 384, "pitch": 62, "duration": 48, "velocity": 64}, {"time": 432, "pitch": 60, "duration": 192, "velocity": 64}, {"time": 672, "pitch": 64, "duration": 48, "velocity": 64}, {"time": 720, "pitch": 64, "duration": 48, "velocity": 64}, {"time": 768, "pitch": 64, "duration": 48, "velocity": 64}, {"time": 816, "pitch": 62, "duration": 24, "velocity": 64}, {"time": 840, "pitch": 60, "duration": 24, "velocity": 64}, {"time": 864, "pitch": 59, "duration": 24, "velocity": 64}, {"time": 888, "pitch": 57, "duration": 24, "velocity": 64}, {"time": 912, "pitch": 55, "duration": 48, "velocity": 64}, {"time": 960, "pitch": 60, "duration": 48, "velocity": 64}, {"time": 1008, "pitch": 62, "duration": 96, "velocity": 64}, {"time": 1104, "pitch": 60, "duration": 48, "velocity": 64}, {"time": 1152, "pitch": 60, "duration": 48, "velocity": 64}, {"time": 1200, "pitch": 60, "duration": 48, "velocity": 64}, {"time": 1248, "pitch": 55, "duration": 48, "velocity": 64}, {"time": 1296, "pitch": 60, "duration": 48, "velocity": 64}, {"time": 1344, "pitch": 62, "duration": 48, "velocity": 64}, {"time": 1392, "pitch": 64, "duration": 72, "velocity": 64}, {"time": 1464, "pitch": 62, "duration": 12, "velocity": 64}, {"time": 1476, "pitch": 60, "duration": 12, "velocity": 64}, {"time": 1488, "pitch": 62, "duration": 48, "velocity": 64}, {"time": 1536, "pitch": 62, "duration": 48, "velocity": 64}, {"time": 1584, "pitch": 60, "duration": 192, "velocity": 64}, {"time": 1824, "pitch": 64, "duration": 48, "velocity": 64}, {"time": 1872, "pitch": 64, "duration": 48, "velocity": 64}, {"time": 1920, "pitch": 64, "duration": 48, "velocity": 64}, {"time": 1968, "pitch": 62, "duration": 24, "velocity": 64}, {"time": 1992, "pitch": 60, "duration": 24, "velocity": 64}, {"time": 2016, "pitch": 59, "duration": 24, "velocity": 64}, {"time": 2040, "pitch": 57, "duration": 24, "velocity": 64}, {"time": 2064, "pitch": 55, "duration": 48, "velocity": 64}, {"time": 2112, "pitch": 60, "duration": 48, "velocity": 64}, {"time": 2160, "pitch": 62, "duration": 96, "velocity": 64}, {"time": 2256, "pitch": 60, "duration": 96, "velocity": 64}, {"time": 2400, "pitch": 64, "duration": 48, "velocity": 64}, {"time": 2448, "pitch": 64, "duration": 48, "velocity": 64}, {"time": 2496, "pitch": 62, "duration": 48, "velocity": 64}, {"time": 2544, "pitch": 64, "duration": 96, "velocity": 64}, {"time": 2688, "pitch": 67, "duration": 48, "velocity": 64}, {"time": 2736, "pitch": 65, "duration": 48, "velocity": 64}, {"time": 2784, "pitch": 62, "duration": 48, "velocity": 64}, {"time": 2832, "pitch": 64, "duration": 96, "velocity": 64}, {"time": 2976, "pitch": 60, "duration": 48, "velocity": 64}, {"time": 3024, "pitch": 60, "duration": 48, "velocity": 64}, {"time": 3072, "pitch": 64, "duration": 48, "velocity": 64}, {"time": 3120, "pitch": 62, "duration": 24, "velocity": 64}, {"time": 3144, "pitch": 60, "duration": 24, "velocity": 64}, {"time": 3168, "pitch": 59, "duration": 24, "velocity": 64}, {"time": 3192, "pitch": 57, "duration": 24, "velocity": 64}, {"time": 3216, "pitch": 55, "duration": 48, "velocity": 64}, {"time": 3264, "pitch": 60, "duration": 48, "velocity": 64}, {"time": 3312, "pitch": 62, "duration": 96, "velocity": 64}, {"time": 3408, "pitch": 60, "duration": 48, "velocity": 64}]}]}