{"metadata": {"schema_version": "0.1", "title": "Ansingelied zum Neujahre", "source_format": "abc"}, "resolution": 24, "tempos": [{"time": 0, "qpm": 120.0}], "key_signatures": [{"time": 0, "root": 0, "mode": "major", "fifths": 0}], "time_signatures": [{"time": 0, "numerator": 3, "denominator": 1}], "beats": [{"time": 0, "is_downbeat": true}, {"time": 96, "is_downbeat": true}, {"time": 192, "is_downbeat": false}, {"time": 288, "is_downbeat": false}, {"time": 384, "is_downbeat": true}, {"time": 480, "is_downbeat": false}, {"time": 576, "is_downbeat": false}, {"time": 672, "is_downbeat": true}, {"time": 768, "is_downbeat": false}, {"time": 864, "is_downbeat": false}, {"time": 960, "is_downbeat": true}, {"time": 1056, "is_downbeat": false}, {"time": 1152, "is_downbeat": false}, {"time": 1248, "is_downbeat": true}, {"time": 1344, "is_downbeat": false}, {"time": 1440, "is_downbeat": false}, {"time": 1536, "is_downbeat": true}, {"time": 1632, "is_downbeat": false}, {"time": 1728, "is_downbeat": false}, {"time": 1824, "is_downbeat": true}, {"time": 1920, "is_downbeat": false}, {"time": 2016, "is_downbeat": false}, {"time": 2112, "is_downbeat": true}, {"time": 2208, "is_downbeat": false}, {"time": 2304, "is_downbeat": false}], "tracks": [{"program": 0, "is_drum": false, "notes": [{"time": 0, "pitch": 60, "duration": 96, "velocity": 64}, {"time": 96, "pitch": 55, "duration": 48, "velocity": 64}, {"time": 144, "pitch": 57, "duration": 48, "velocity": 64}, {"time": 192, "pitch": 60, "duration": 96, "velocity": 64}, {"time": 288, "pitch": 62, "duration": 96, "velocity": 64}, {"time": 384, "pitch": 60, "duration": 48, "velocity": 64}, {"time": 432, "pitch": 62, "duration": 48, "velocity": 64}, {"time": 480, "pitch": 60, "duration": 96, "velocity": 64}, {"time": 576, "pitch": 64, "duration": 96, "velocity": 64}, {"time": 672, "pitch": 65, "duration": 48, "velocity": 64}, {"time": 720, "pitch": 64, "duration": 48, "velocity": 64}, {"time": 768, "pitch": 62, "duration": 96, "velocity": 64}, {"time": 864, "pitch": 55, "duration": 96, "velocity": 64}, {"time": 960, "pitch": 57, "duration": 48, "velocity": 64}, {"time": 1008, "pitch": 59, "duration": 48, "velocity": 64}, {"time": 1056, "pitch": 60, "duration": 96, "velocity": 64}, {"time": 1200, "pitch": 62, "duration": 48, "velocity": 64}, {"time": 1248, "pitch": 62, "duration": 48, "velocity": 64}, {"time": 1296, "pitch": 62, "duration": 48, "velocity": 64}, {"time": 1344, "pitch": 64, "duration": 96, "velocity": 64}, {"time": 1440, "pitch": 62, "duration": 96, "velocity": 64}, {"time": 1536, "pitch": 60, "duration": 48, "velocity": 64}, {"time": 1584, "pitch": 57, "duration": 48, "velocity": 64}, {"time": 1632, "pitch": 55, "duration": 96, "velocity": 64}, {"time": 1728, "pitch": 67, "duration": 96, "velocity": 64}, {"time": 1824, "pitch": 65, "duration": 48, "velocity": 64}, {"time": 1872, "pitch": 64, "duration": 48, "velocity": 64}, {"time": 1920, "pitch": 62, "duration": 96, "velocity": 64}, {"time": 2016, "pitch": 60, "duration": 96, "velocity": 64}, {"time": 2112, "pitch": 60, "duration": 48, "velocity": 64}, {"time": 2160, "pitch": 59, "duration": 48, "velocity": 64}, {"time": 2208, "pitch": 60, "duration": 96, "velocity": 64}]}]}