{"metadata": {"schema_version": "0.1", "title": "Passionslied", "source_format": "abc"}, "resolution": 24, "tempos": [{"time": 0, "qpm": 120.0}], "key_signatures": [{"time": 0, "root": 2, "mode": "major", "fifths": 2}], "time_signatures": [{"time": 0, "numerator": 4, "denominator": 2}], "beats": [{"time": 0, "is_downbeat": true}, {"time": 24, "is_downbeat": true}, {"time": 72, "is_downbeat": false}, {"time": 120, "is_downbeat": false}, {"time": 168, "is_downbeat": false}, {"time": 216, "is_downbeat": true}, {"time": 264, "is_downbeat": false}, {"time": 312, "is_downbeat": false}, {"time": 360, "is_downbeat": false}, {"time": 408, "is_downbeat": true}, {"time": 456, "is_downbeat": false}, {"time": 504, "is_downbeat": false}, {"time": 552, "is_downbeat": false}, {"time": 600, "is_downbeat": true}, {"time": 648, "is_downbeat": false}, {"time": 696, "is_downbeat": false}, {"time": 744, "is_downbeat": false}, {"time": 792, "is_downbeat": true}, {"time": 840, "is_downbeat": false}, {"time": 888, "is_downbeat": false}, {"time": 936, "is_downbeat": false}, {"time": 984, "is_downbeat": true}, {"time": 1032, "is_downbeat": false}, {"time": 1080, "is_downbeat": false}, {"time": 1128, "is_downbeat": false}, {"time": 1176, "is_downbeat": true}, {"time": 1224, "is_downbeat": false}, {"time": 1272, "is_downbeat": false}, {"time": 1320, "is_downbeat": false}, {"time": 1368, "is_downbeat": true}, {"time": 1416, "is_downbeat": false}, {"time": 1464, "is_downbeat": false}, {"time": 1512, "is_downbeat": false}, {"time": 1560, "is_downbeat": true}, {"time": 1608, "is_downbeat": false}, {"time": 1656, "is_downbeat": false}, {"time": 1704, "is_downbeat": false}, {"time": 1752, "is_downbeat": true}, {"time": 1800, "is_downbeat": false}, {"time": 1848, "is_downbeat": false}, {"time": 1896, "is_downbeat": false}, {"time": 1944, "is_downbeat": true}, {"time": 1992, "is_downbeat": false}, {"time": 2040, "is_downbeat": false}, {"time": 2088, "is_downbeat": false}, {"time": 2136, "is_downbeat": true}, {"time": 2184, "is_downbeat": false}, {"time": 2232, "is_downbeat": false}, {"time": 2280, "is_downbeat": false}], "tracks": [{"program": 0, "is_drum": false, "notes": [{"time": 0, "pitch": 62, "duration": 24, "velocity": 64}, {"time": 24, "pitch": 62, "duration": 48, "velocity": 64}, {"time": 72, "pitch": 69, "duration": 48, "velocity": 64}, {"time": 120, "pitch": 64, "duration": 24, "velocity": 64}, {"time": 144, "pitch": 65, "duration": 24, "velocity": 64}, {"time": 168, "pitch": 67, "duration": 24, "velocity": 64}, {"time": 192, "pitch": 69, "duration": 24, "velocity": 64}, {"time": 216, "pitch": 65, "duration": 48, "velocity": 64}, {"time": 264, "pitch": 64, "duration": 48, "velocity": 64}, {"time": 312, "pitch": 62, "duration": 48, "velocity": 64}, {"time": 384, "pitch": 62, "duration": 24, "velocity": 64}, {"time": 408, "pitch": 69, "duration": 48, "velocity": 64}, {"time": 456, "pitch": 71, "duration": 48, "velocity": 64}, {"time": 504, "pitch": 72, "duration": 48, "velocity": 64}, {"time": 552, "pitch": 71, "duration": 48, "velocity": 64}, {"time": 600, "pitch": 69, "duration": 48, "velocity": 64}, {"time": 648, "pitch": 68, "duration": 48, "velocity": 64}, {"time": 696, "pitch": 69, "duration": 48, "velocity": 64}, {"time": 768, "pitch": 69, "duration": 24, "velocity": 64}, {"time": 792, "pitch": 74, "duration": 48, "velocity": 64}, {"time": 840, "pitch": 71, "duration": 48, "velocity": 64}, {"time": 888, "pitch": 72, "duration": 48, "velocity": 64}, {"time": 936, "pitch": 69, "duration": 48, "velocity": 64}, {"time": 984, "pitch": 67, "duration": 48, "velocity": 64}, {"time": 1032, "pitch": 65, "duration": 48, "velocity": 64}, {"time": 1080, "pitch": 64, "duration": 48, "velocity": 64}, {"time": 1152, "pitch": 64, "duration": 24, "velocity": 64}, {"time": 1176, "pitch": 62, "duration": 48, "velocity": 64}, {"time": 1224, "pitch": 69, "duration": 48, "velocity": 64}, {"time": 1272, "pitch": 64, "duration": 24, "velocity": 64}, {"time": 1296, "pitch": 65, "duration": 24, "velocity": 64}, {"time": 1320, "pitch": 67, "duration": 24, "velocity": 64}, {"time": 1344, "pitch": 69, "duration": 24, "velocity": 64}, {"time": 1368, "pitch": 65, "duration": 48, "velocity": 64}, {"time": 1416, "pitch": 64, "duration": 48, "velocity": 64}, {"time": 1464, "pitch": 62, "duration": 48, "velocity": 64}, {"time": 1536, "pitch": 62, "duration": 24, "velocity": 64}, {"time": 1560, "pitch": 61, "duration": 48, "velocity": 64}, {"time": 1608, "pitch": 62, "duration": 48, "velocity": 64}, {"time": 1656, "pitch": 64, "duration": 48, "velocity": 64}, {"time": 1728, "pitch": 65, "duration": 24, "velocity": 64}, {"time": 1752, "pitch": 69, "duration": 24, "velocity": 64}, {"time": 1776, "pitch": 67, "duration": 24, "velocity": 64}, {"time": 1800, "pitch": 65, "duration": 24, "velocity": 64}, {"time": 1824, "pitch": 64, "duration": 24, "velocity": 64}, {"time": 1848, "pitch": 62, "duration": 48, "velocity": 64}, {"time": 1920, "pitch": 69, "duration": 24, "velocity": 64}, {"time": 1944, "pitch": 69, "duration": 48, "velocity": 64}, {"time": 1992, "pitch": 69, "duration": 48, "velocity": 64}, {"time": 2040, "pitch": 67, "duration": 48, "velocity": 64}, {"time": 2088, "pitch": 69, "duration": 48, "velocity": 64}, {"time": 2136, "pitch": 65, "duration": 48, "velocity": 64}, {"time": 2184, "pitch": 64, "duration": 48, "velocity": 64}, {"time": 2232, "pitch": 62, "duration": 48, "velocity": 64}]}]}