{"metadata": {"schema_version": "0.1", "title": "Bittfahrtslied", "source_format": "abc"}, "resolution": 24, "tempos": [{"time": 0, "qpm": 120.0}], "key_signatures": [{"time": 0, "root": 7, "mode": "major", "fifths": 1}], "time_signatures": [{"time": 0, "numerator": 2, "denominator": 1}], "beats": [{"time": 0, "is_downbeat": true}, {"time": 48, "is_downbeat": true}, {"time": 144, "is_downbeat": false}, {"time": 240, "is_downbeat": true}, {"time": 336, "is_downbeat": false}, {"time": 432, "is_downbeat": true}, {"time": 528, "is_downbeat": false}, {"time": 624, "is_downbeat": true}, {"time": 720, "is_downbeat": false}, {"time": 816, "is_downbeat": true}, {"time": 912, "is_downbeat": false}, {"time": 1008, "is_downbeat": true}, {"time": 1104, "is_downbeat": false}, {"time": 1200, "is_downbeat": true}, {"time": 1296, "is_downbeat": false}, {"time": 1392, "is_downbeat": true}, {"time": 1488, "is_downbeat": false}, {"time": 1584, "is_downbeat": true}, {"time": 1680, "is_downbeat": false}, {"time": 1776, "is_downbeat": true}, {"time": 1872, "is_downbeat": false}, {"time": 1968, "is_downbeat": true}, {"time": 2064, "is_downbeat": false}, {"time": 2160, "is_downbeat": true}, {"time": 2256, "is_downbeat": false}, {"time": 2352, "is_downbeat": true}, {"time": 2448, "is_downbeat": false}, {"time": 2544, "is_downbeat": true}, {"time": 2640, "is_downbeat": false}, {"time": 2736, "is_downbeat": true}, {"time": 2832, "is_downbeat": false}, {"time": 2928, "is_downbeat": true}, {"time": 3024, "is_downbeat": false}, {"time": 3120, "is_downbeat": true}, {"time": 3216, "is_downbeat": false}, {"time": 3312, "is_downbeat": true}, {"time": 3408, "is_downbeat": false}, {"time": 3504, "is_downbeat": true}, {"time": 3600, "is_downbeat": false}], "tracks": [{"program": 0, "is_drum": false, "notes": [{"time": 0, "pitch": 67, "duration": 48, "velocity": 64}, {"time": 48, "pitch": 67, "duration": 96, "velocity": 64}, {"time": 144, "pitch": 67, "duration": 96, "velocity": 64}, {"time": 240, "pitch": 67, "duration": 96, "velocity": 64}, {"time": 336, "pitch": 67, "duration": 96, "velocity": 64}, {"time": 432, "pitch": 67, "duration": 48, "velocity": 64}, {"time": 480, "pitch": 69, "duration": 48, "velocity": 64}, {"time": 528, "pitch": 70, "duration": 96, "velocity": 64}, {"time": 624, "pitch": 72, "duration": 192, "velocity": 64}, {"time": 816, "pitch": 74, "duration": 96, "velocity": 64}, {"time": 912, "pitch": 74, "duration": 96, "velocity": 64}, {"time": 1008, "pitch": 72, "duration": 96, "velocity": 64}, {"time": 1104, "pitch": 67, "duration": 48, "velocity": 64}, {"time": 1152, "pitch": 67, "duration": 48, "velocity": 64}, {"time": 1200, "pitch": 67, "duration": 48, "velocity": 64}, {"time": 1248, "pitch": 69, "duration": 48, "velocity": 64}, {"time": 1296, "pitch": 70, "duration": 96, "velocity": 64}, {"time": 1392, "pitch": 72, "duration": 96, "velocity": 64}, {"time": 1536, "pitch": 72, "duration": 48, "velocity": 64}, {"time": 1584, "pitch": 74, "duration": 96, "velocity": 64}, {"time": 1680, "pitch": 74, "duration": 96, "velocity": 64}, {"time": 1776, "pitch": 72, "duration": 96, "velocity": 64}, {"time": 1872, "pitch": 67, "duration": 96, "velocity": 64}, {"time": 1968, "pitch": 69, "duration": 96, "velocity": 64}, {"time": 2064, "pitch": 67, "duration": 96, "velocity": 64}, {"time": 2160, "pitch": 65, "duration": 96, "velocity": 64}, {"time": 2304, "pitch": 66, "duration": 48, "velocity": 64}, {"time": 2352, "pitch": 69, "duration": 96, "velocity": 64}, {"time": 2448, "pitch": 70, "duration": 96, "velocity": 64}, {"time": 2544, "pitch": 72, "duration": 96, "velocity": 64}, {"time": 2640, "pitch": 72, "duration": 96, "velocity": 64}, {"time": 2736, "pitch": 70, "duration": 96, "velocity": 64}, {"time": 2832, "pitch": 67, "duration": 96, "velocity": 64}, {"time": 2928, "pitch": 70, "duration": 192, "velocity": 64}, {"time": 3120, "pitch": 69, "duration": 96, "velocity": 64}, {"time": 3216, "pitch": 67, "duration": 96, "velocity": 64}, {"time": 3312, "pitch": 67, "duration": 96, "velocity": 64}, {"time": 3408, "pitch": 65, "duration": 96, "velocity": 64}, {"time": 3504, "pitch": 67, "duration": 144, "velocity": 64}]}]}