{"metadata": {"schema_version": "0.1", "title": "Ein Lied vom Glauben", "source_format": "abc"}, "resolution": 24, "tempos": [{"time": 0, "qpm": 120.0}], "key_signatures": [{"time": 0, "root": 2, "mode": "major", "fifths": 2}], "time_signatures": [{"time": 0, "numerator": 3, "denominator": 1}], "beats": [{"time": 0, "is_downbeat": true}, {"time": 96, "is_downbeat": false}, {"time": 144, "is_downbeat": true}, {"time": 240, "is_downbeat": false}, {"time": 336, "is_downbeat": false}, {"time": 432, "is_downbeat": true}, {"time": 528, "is_downbeat": false}, {"time": 624, "is_downbeat": false}, {"time": 720, "is_downbeat": true}, {"time": 816, "is_downbeat": false}, {"time": 912, "is_downbeat": false}, {"time": 1008, "is_downbeat": true}, {"time": 1104, "is_downbeat": false}, {"time": 1200, "is_downbeat": true}, {"time": 1296, "is_downbeat": false}, {"time": 1392, "is_downbeat": true}, {"time": 1488, "is_downbeat": false}, {"time": 1584, "is_downbeat": true}, {"time": 1680, "is_downbeat": false}, {"time": 1776, "is_downbeat": true}, {"time": 1872, "is_downbeat": false}, {"time": 1968, "is_downbeat": true}, {"time": 2064, "is_downbeat": false}, {"time": 2160, "is_downbeat": true}, {"time": 2256, "is_downbeat": false}, {"time": 2352, "is_downbeat": true}, {"time": 2448, "is_downbeat": false}, {"time": 2544, "is_downbeat": false}, {"time": 2640, "is_downbeat": true}, {"time": 2736, "is_downbeat": false}, {"time": 2832, "is_downbeat": false}, {"time": 2928, "is_downbeat": true}, {"time": 3024, "is_downbeat": false}, {"time": 3120, "is_downbeat": true}, {"time": 3216, "is_downbeat": false}, {"time": 3312, "is_downbeat": false}], "tracks": [{"program": 0, "is_drum": false, "notes": [{"time": 0, "pitch": 62, "duration": 48, "velocity": 64}, {"time": 48, "pitch": 62, "duration": 48, "velocity": 64}, {"time": 96, "pitch": 62, "duration": 48, "velocity": 64}, {"time": 144, "pitch": 69, "duration": 96, "velocity": 64}, {"time": 240, "pitch": 67, "duration": 48, "velocity": 64}, {"time": 288, "pitch": 69, "duration": 48, "velocity": 64}, {"time": 336, "pitch": 71, "duration": 96, "velocity": 64}, {"time": 432, "pitch": 69, "duration": 96, "velocity": 64}, {"time": 576, "pitch": 74, "duration": 48, "velocity": 64}, {"time": 624, "pitch": 72, "duration": 48, "velocity": 64}, {"time": 672, "pitch": 74, "duration": 48, "velocity": 64}, {"time": 720, "pitch": 76, "duration": 72, "velocity": 64}, {"time": 792, "pitch": 77, "duration": 24, "velocity": 64}, {"time": 816, "pitch": 79, "duration": 48, "velocity": 64}, {"time": 864, "pitch": 78, "duration": 48, "velocity": 64}, {"time": 912, "pitch": 76, "duration": 96, "velocity": 64}, {"time": 1008, "pitch": 74, "duration": 96, "velocity": 64}, {"time": 1152, "pitch": 74, "duration": 48, "velocity": 64}, {"time": 1200, "pitch": 72, "duration": 48, "velocity": 64}, {"time": 1248, "pitch": 74, "duration": 48, "velocity": 64}, {"time": 1296, "pitch": 76, "duration": 72, "velocity": 64}, {"time": 1368, "pitch": 74, "duration": 24, "velocity": 64}, {"time": 1392, "pitch": 76, "duration": 96, "velocity": 64}, {"time": 1488, "pitch": 74, "duration": 48, "velocity": 64}, {"time": 1536, "pitch": 76, "duration": 48, "velocity": 64}, {"time": 1584, "pitch": 71, "duration": 96, "velocity": 64}, {"time": 1728, "pitch": 71, "duration": 48, "velocity": 64}, {"time": 1776, "pitch": 72, "duration": 48, "velocity": 64}, {"time": 1824, "pitch": 74, "duration": 48, "velocity": 64}, {"time": 1872, "pitch": 71, "duration": 48, "velocity": 64}, {"time": 1920, "pitch": 69, "duration": 48, "velocity": 64}, {"time": 1968, "pitch": 72, "duration": 48, "velocity": 64}, {"time": 2016, "pitch": 74, "duration": 48, "velocity": 64}, {"time": 2064, "pitch": 76, "duration": 96, "velocity": 64}, {"time": 2208, "pitch": 74, "duration": 48, "velocity": 64}, {"time": 2256, "pitch": 72, "duration": 72, "velocity": 64}, {"time": 2328, "pitch": 74, "duration": 24, "velocity": 64}, {"time": 2352, "pitch": 76, "duration": 48, "velocity": 64}, {"time": 2400, "pitch": 77, "duration": 48, "velocity": 64}, {"time": 2448, "pitch": 76, "duration": 48, "velocity": 64}, {"time": 2496, "pitch": 74, "duration": 96, "velocity": 64}, {"time": 2592, "pitch": 76, "duration": 48, "velocity": 64}, {"time": 2640, "pitch": 77, "duration": 48, "velocity": 64}, {"time": 2688, "pitch": 79, "duration": 72, "velocity": 64}, {"time": 2760, "pitch": 78, "duration": 24, "velocity": 64}, {"time": 2784, "pitch": 76, "duration": 48, "velocity": 64}, {"time": 2832, "pitch": 74, "duration": 72, "velocity": 64}, {"time": 2904, "pitch": 73, "duration": 24, "velocity": 64}, {"time": 2928, "pitch": 74, "duration": 192, "velocity": 64}]}]}