{"metadata": {"schema_version": "0.1", "title": "Trostlied", "source_format": "abc"}, "resolution": 24, "tempos": [{"time": 0, "qpm": 120.0}], "key_signatures": [{"time": 0, "root": 4, "mode": "major", "fifths": 4}], "time_signatures": [{"time": 0, "numerator": 4, "denominator": 1}], "beats": [{"time": 0, "is_downbeat": true}, {"time": 96, "is_downbeat": false}, {"time": 192, "is_downbeat": false}, {"time": 288, "is_downbeat": false}, {"time": 384, "is_downbeat": true}, {"time": 480, "is_downbeat": false}, {"time": 576, "is_downbeat": false}, {"time": 672, "is_downbeat": false}, {"time": 768, "is_downbeat": true}, {"time": 864, "is_downbeat": false}, {"time": 960, "is_downbeat": false}, {"time": 1056, "is_downbeat": false}, {"time": 1152, "is_downbeat": true}, {"time": 1248, "is_downbeat": false}, {"time": 1344, "is_downbeat": false}, {"time": 1440, "is_downbeat": false}, {"time": 1536, "is_downbeat": true}, {"time": 1632, "is_downbeat": false}, {"time": 1728, "is_downbeat": false}, {"time": 1824, "is_downbeat": false}, {"time": 1920, "is_downbeat": true}, {"time": 2016, "is_downbeat": false}, {"time": 2112, "is_downbeat": false}, {"time": 2208, "is_downbeat": false}, {"time": 2304, "is_downbeat": true}, {"time": 2400, "is_downbeat": false}, {"time": 2496, "is_downbeat": false}, {"time": 2592, "is_downbeat": false}, {"time": 2688, "is_downbeat": true}, {"time": 2784, "is_downbeat": false}, {"time": 2880, "is_downbeat": false}, {"time": 2976, "is_downbeat": false}, {"time": 3072, "is_downbeat": true}, {"time": 3168, "is_downbeat": false}, {"time": 3264, "is_downbeat": false}, {"time": 3360, "is_downbeat": false}, {"time": 3456, "is_downbeat": true}, {"time": 3552, "is_downbeat": false}, {"time": 3648, "is_downbeat": false}, {"time": 3744, "is_downbeat": false}, {"time": 3840, "is_downbeat": true}, {"time": 3936, "is_downbeat": false}, {"time": 4032, "is_downbeat": false}, {"time": 4128, "is_downbeat": false}, {"time": 4224, "is_downbeat": true}, {"time": 4320, "is_downbeat": false}, {"time": 4416, "is_downbeat": false}, {"time": 4512, "is_downbeat": false}, {"time": 4608, "is_downbeat": true}, {"time": 4704, "is_downbeat": false}, {"time": 4800, "is_downbeat": false}, {"time": 4896, "is_downbeat": false}, {"time": 4992, "is_downbeat": true}, {"time": 5088, "is_downbeat": false}, {"time": 5184, "is_downbeat": false}, {"time": 5280, "is_downbeat": false}, {"time": 5376, "is_downbeat": true}, {"time": 5472, "is_downbeat": false}, {"time": 5568, "is_downbeat": false}, {"time": 5664, "is_downbeat": false}, {"time": 5760, "is_downbeat": true}, {"time": 5856, "is_downbeat": false}, {"time": 5952, "is_downbeat": false}, {"time": 6048, "is_downbeat": false}, {"time": 6144, "is_downbeat": true}, {"time": 6240, "is_downbeat": false}, {"time": 6336, "is_downbeat": false}, {"time": 6432, "is_downbeat": false}, {"time": 6528, "is_downbeat": true}, {"time": 6624, "is_downbeat": false}, {"time": 6720, "is_downbeat": false}, {"time": 6816, "is_downbeat": false}, {"time": 6912, "is_downbeat": true}, {"time": 7008, "is_downbeat": false}, {"time": 7104, "is_downbeat": false}, {"time": 7200, "is_downbeat": false}, {"time": 7296, "is_downbeat": true}, {"time": 7392, "is_downbeat": false}, {"time": 7488, "is_downbeat": false}, {"time": 7584, "is_downbeat": false}, {"time": 7680, "is_downbeat": true}, {"time": 7776, "is_downbeat": false}, {"time": 7872, "is_downbeat": false}, {"time": 7968, "is_downbeat": false}, {"time": 8064, "is_downbeat": true}, {"time": 8160, "is_downbeat": false}, {"time": 8256, "is_downbeat": false}, {"time": 8352, "is_downbeat": false}], "tracks": [{"program": 0, "is_drum": false, "notes": [{"time": 0, "pitch": 64, "duration": 192, "velocity": 64}, {"time": 192, "pitch": 67, "duration": 96, "velocity": 64}, {"time": 288, "pitch": 68, "duration": 96, "velocity": 64}, {"time": 384, "pitch": 69, "duration": 96, "velocity": 64}, {"time": 480, "pitch": 72, "duration": 96, "velocity": 64}, {"time": 576, "pitch": 71, "duration": 96, "velocity": 64}, {"time": 672, "pitch": 71, "duration": 96, "velocity": 64}, {"time": 768, "pitch": 69, "duration": 192, "velocity": 64}, {"time": 1056, "pitch": 76, "duration": 96, "velocity": 64}, {"time": 1152, "pitch": 74, "duration": 96, "velocity": 64}, {"time": 1248, "pitch": 72, "duration": 96, "velocity": 64}, {"time": 1344, "pitch": 71, "duration": 192, "velocity": 64}, {"time": 1632, "pitch": 72, "duration": 96, "velocity": 64}, {"time": 1728, "pitch": 71, "duration": 96, "velocity": 64}, {"time": 1824, "pitch": 69, "duration": 96, "velocity": 64}, {"time": 1920, "pitch": 67, "duration": 96, "velocity": 64}, {"time": 2016, "pitch": 64, "duration": 48, "velocity": 64}, {"time": 2064, "pitch": 65, "duration": 48, "velocity": 64}, {"time": 2112, "pitch": 68, "duration": 48, "velocity": 64}, {"time": 2160, "pitch": 69, "duration": 48, "velocity": 64}, {"time": 2208, "pitch": 66, "duration": 96, "velocity": 64}, {"time": 2304, "pitch": 64, "duration": 384, "velocity": 64}, {"time": 2688, "pitch": 64, "duration": 192, "velocity": 64}, {"time": 2880, "pitch": 67, "duration": 96, "velocity": 64}, {"time": 2976, "pitch": 68, "duration": 96, "velocity": 64}, {"time": 3072, "pitch": 69, "duration": 96, "velocity": 64}, {"time": 3168, "pitch": 72, "duration": 96, "velocity": 64}, {"time": 3264, "pitch": 71, "duration": 96, "velocity": 64}, {"time": 3360, "pitch": 71, "duration": 96, "velocity": 64}, {"time": 3456, "pitch": 69, "duration": 192, "velocity": 64}, {"time": 3744, "pitch": 76, "duration": 96, "velocity": 64}, {"time": 3840, "pitch": 74, "duration": 96, "velocity": 64}, {"time": 3936, "pitch": 72, "duration": 96, "velocity": 64}, {"time": 4032, "pitch": 71, "duration": 192, "velocity": 64}, {"time": 4320, "pitch": 72, "duration": 96, "velocity": 64}, {"time": 4416, "pitch": 71, "duration": 96, "velocity": 64}, {"time": 4512, "pitch": 69, "duration": 96, "velocity": 64}, {"time": 4608, "pitch": 67, "duration": 96, "velocity": 64}, {"time": 4704, "pitch": 64, "duration": 48, "velocity": 64}, {"time": 4752, "pitch": 65, "duration": 48, "velocity": 64}, {"time": 4800, "pitch": 68, "duration": 48, "velocity": 64}, {"time": 4848, "pitch": 69, "duration": 48, "velocity": 64}, {"time": 4896, "pitch": 66, "duration": 96, "velocity": 64}, {"time": 4992, "pitch": 64, "duration": 384, "velocity": 64}, {"time": 5568, "pitch": 67, "duration": 192, "velocity": 64}, {"time": 5760, "pitch": 69, "duration": 48, "velocity": 64}, {"time": 5808, "pitch": 72, "duration": 96, "velocity": 64}, {"time": 5904, "pitch": 71, "duration": 48, "velocity": 64}, {"time": 5952, "pitch": 73, "duration": 96, "velocity": 64}, {"time": 6048, "pitch": 76, "duration": 96, "velocity": 64}, {"time": 6144, "pitch": 74, "duration": 96, "velocity": 64}, {"time": 6240, "pitch": 75, "duration": 96, "velocity": 64}, {"time": 6336, "pitch": 72, "duration": 192, "velocity": 64}, {"time": 6624, "pitch": 76, "duration": 96, "velocity": 64}, {"time": 6720, "pitch": 72, "duration": 96, "velocity": 64}, {"time": 6816, "pitch": 73, "duration": 96, "velocity": 64}, {"time": 6912, "pitch": 69, "duration": 96, "velocity": 64}, {"time": 7008, "pitch": 74, "duration": 96, "velocity": 64}, {"time": 7104, "pitch": 71, "duration": 96, "velocity": 64}, {"time": 7200, "pitch": 71, "duration": 96, "velocity": 64}, {"time": 7296, "pitch": 67, "duration": 192, "velocity": 64}, {"time": 7584, "pitch": 68, "duration": 96, "velocity": 64}, {"time": 7680, "pitch": 71, "duration": 96, "velocity": 64}, {"time": 7776, "pitch": 72, "duration": 96, "velocity": 64}, {"time": 7872, "pitch": 74, "duration": 96, "velocity": 64}, {"time": 7968, "pitch": 69, "duration": 96, "velocity": 64}, {"time": 8064, "pitch": 71, "duration": 192, "velocity": 64}, {"time": 8256, "pitch": 69, "duration": 192, "velocity": 64}]}]}