{"metadata": {"schema_version": "0.1", "title": "Morgenlied", "source_format": "abc"}, "resolution": 24, "tempos": [{"time": 0, "qpm": 120.0}], "key_signatures": [{"time": 0, "root": 0, "mode": "major", "fifths": 0}], "time_signatures": [{"time": 0, "numerator": 3, "denominator": 1}], "beats": [{"time": 0, "is_downbeat": true}, {"time": 96, "is_downbeat": true}, {"time": 192, "is_downbeat": false}, {"time": 288, "is_downbeat": false}, {"time": 384, "is_downbeat": true}, {"time": 480, "is_downbeat": false}, {"time": 576, "is_downbeat": false}, {"time": 672, "is_downbeat": true}, {"time": 768, "is_downbeat": false}, {"time": 864, "is_downbeat": false}, {"time": 960, "is_downbeat": true}, {"time": 1056, "is_downbeat": false}, {"time": 1152, "is_downbeat": true}, {"time": 1248, "is_downbeat": false}, {"time": 1344, "is_downbeat": false}, {"time": 1440, "is_downbeat": true}, {"time": 1536, "is_downbeat": false}, {"time": 1632, "is_downbeat": false}, {"time": 1728, "is_downbeat": true}, {"time": 1824, "is_downbeat": false}, {"time": 1920, "is_downbeat": false}, {"time": 2016, "is_downbeat": true}, {"time": 2112, "is_downbeat": false}, {"time": 2208, "is_downbeat": false}, {"time": 2304, "is_downbeat": true}, {"time": 2400, "is_downbeat": false}, {"time": 2496, "is_downbeat": true}, {"time": 2592, "is_downbeat": false}, {"time": 2688, "is_downbeat": true}, {"time": 2784, "is_downbeat": false}, {"time": 2880, "is_downbeat": true}, {"time": 2976, "is_downbeat": false}, {"time": 3072, "is_downbeat": false}, {"time": 3168, "is_downbeat": true}, {"time": 3264, "is_downbeat": false}, {"time": 3360, "is_downbeat": false}, {"time": 3456, "is_downbeat": true}, {"time": 3552, "is_downbeat": false}, {"time": 3648, "is_downbeat": false}, {"time": 3744, "is_downbeat": true}, {"time": 3840, "is_downbeat": false}, {"time": 3936, "is_downbeat": true}, {"time": 4032, "is_downbeat": false}, {"time": 4128, "is_downbeat": true}, {"time": 4224, "is_downbeat": false}, {"time": 4320, "is_downbeat": false}, {"time": 4416, "is_downbeat": true}, {"time": 4512, "is_downbeat": false}, {"time": 4608, "is_downbeat": false}, {"time": 4704, "is_downbeat": true}, {"time": 4800, "is_downbeat": false}, {"time": 4896, "is_downbeat": true}, {"time": 4992, "is_downbeat": false}, {"time": 5088, "is_downbeat": false}], "tracks": [{"program": 0, "is_drum": false, "notes": [{"time": 0, "pitch": 60, "duration": 96, "velocity": 64}, {"time": 96, "pitch": 60, "duration": 96, "velocity": 64}, {"time": 192, "pitch": 59, "duration": 48, "velocity": 64}, {"time": 240, "pitch": 60, "duration": 96, "velocity": 64}, {"time": 336, "pitch": 62, "duration": 48, "velocity": 64}, {"time": 384, "pitch": 59, "duration": 72, "velocity": 64}, {"time": 456, "pitch": 57, "duration": 24, "velocity": 64}, {"time": 480, "pitch": 55, "duration": 96, "velocity": 64}, {"time": 576, "pitch": 62, "duration": 96, "velocity": 64}, {"time": 672, "pitch": 64, "duration": 96, "velocity": 64}, {"time": 768, "pitch": 62, "duration": 48, "velocity": 64}, {"time": 816, "pitch": 60, "duration": 96, "velocity": 64}, {"time": 912, "pitch": 59, "duration": 24, "velocity": 64}, {"time": 936, "pitch": 57, "duration": 24, "velocity": 64}, {"time": 960, "pitch": 59, "duration": 48, "velocity": 64}, {"time": 1008, "pitch": 60, "duration": 48, "velocity": 64}, {"time": 1056, "pitch": 57, "duration": 96, "velocity": 64}, {"time": 1152, "pitch": 55, "duration": 192, "velocity": 64}, {"time": 1344, "pitch": 60, "duration": 96, "velocity": 64}, {"time": 1440, "pitch": 60, "duration": 96, "velocity": 64}, {"time": 1536, "pitch": 59, "duration": 48, "velocity": 64}, {"time": 1584, "pitch": 60, "duration": 96, "velocity": 64}, {"time": 1680, "pitch": 62, "duration": 48, "velocity": 64}, {"time": 1728, "pitch": 59, "duration": 72, "velocity": 64}, {"time": 1800, "pitch": 57, "duration": 24, "velocity": 64}, {"time": 1824, "pitch": 55, "duration": 96, "velocity": 64}, {"time": 1920, "pitch": 62, "duration": 96, "velocity": 64}, {"time": 2016, "pitch": 64, "duration": 96, "velocity": 64}, {"time": 2112, "pitch": 62, "duration": 48, "velocity": 64}, {"time": 2160, "pitch": 60, "duration": 96, "velocity": 64}, {"time": 2256, "pitch": 59, "duration": 24, "velocity": 64}, {"time": 2280, "pitch": 57, "duration": 24, "velocity": 64}, {"time": 2304, "pitch": 59, "duration": 48, "velocity": 64}, {"time": 2352, "pitch": 60, "duration": 48, "velocity": 64}, {"time": 2400, "pitch": 57, "duration": 96, "velocity": 64}, {"time": 2496, "pitch": 55, "duration": 192, "velocity": 64}, {"time": 2736, "pitch": 67, "duration": 48, "velocity": 64}, {"time": 2784, "pitch": 65, "duration": 48, "velocity": 64}, {"time": 2832, "pitch": 64, "duration": 48, "velocity": 64}, {"time": 2880, "pitch": 62, "duration": 96, "velocity": 64}, {"time": 2976, "pitch": 60, "duration": 48, "velocity": 64}, {"time": 3024, "pitch": 65, "duration": 96, "velocity": 64}, {"time": 3120, "pitch": 64, "duration": 24, "velocity": 64}, {"time": 3144, "pitch": 62, "duration": 24, "velocity": 64}, {"time": 3168, "pitch": 64, "duration": 96, "velocity": 64}, {"time": 3264, "pitch": 62, "duration": 96, "velocity": 64}, {"time": 3360, "pitch": 67, "duration": 96, "velocity": 64}, {"time": 3456, "pitch": 65, "duration": 48, "velocity": 64}, {"time": 3504, "pitch": 64, "duration": 96, "velocity": 64}, {"time": 3600, "pitch": 62, "duration": 96, "velocity": 64}, {"time": 3696, "pitch": 60, "duration": 48, "velocity": 64}, {"time": 3744, "pitch": 62, "duration": 96, "velocity": 64}, {"time": 3888, "pitch": 55, "duration": 48, "velocity": 64}, {"time": 3936, "pitch": 60, "duration": 48, "velocity": 64}, {"time": 3984, "pitch": 62, "duration": 48, "velocity": 64}, {"time": 4032, "pitch": 64, "duration": 48, "velocity": 64}, {"time": 4080, "pitch": 65, "duration": 48, "velocity": 64}, {"time": 4128, "pitch": 67, "duration": 96, "velocity": 64}, {"time": 4224, "pitch": 62, "duration": 96, "velocity": 64}, {"time": 4320, "pitch": 65, "duration": 96, "velocity": 64}, {"time": 4416, "pitch": 64, "duration": 96, "velocity": 64}, {"time": 4512, "pitch": 62, "duration": 48, "velocity": 64}, {"time": 4560, "pitch": 67, "duration": 96, "velocity": 64}, {"time": 4656, "pitch": 65, "duration": 24, "velocity": 64}, {"time": 4680, "pitch": 64, "duration": 24, "velocity": 64}, {"time": 4704, "pitch": 65, "duration": 24, "velocity": 64}, {"time": 4728, "pitch": 64, "duration": 24, "velocity": 64}, {"time": 4752, "pitch": 62, "duration": 24, "velocity": 64}, {"time": 4776, "pitch": 60, "duration": 24, "velocity": 64}, {"time": 4800, "pitch": 62, "duration": 48, "velocity": 64}, {"time": 4848, "pitch": 62, "duration": 48, "velocity": 64}, {"time": 4896, "pitch": 60, "duration": 96, "velocity": 64}]}]}