{"metadata": {"schema_version": "0.1", "title": "Media vita", "source_format": "abc"}, "resolution": 24, "tempos": [{"time": 0, "qpm": 120.0}], "key_signatures": [{"time": 0, "root": 4, "mode": "major", "fifths": 4}], "time_signatures": [{"time": 0, "numerator": 4, "denominator": 1}], "beats": [{"time": 0, "is_downbeat": true}, {"time": 48, "is_downbeat": true}, {"time": 144, "is_downbeat": false}, {"time": 240, "is_downbeat": false}, {"time": 336, "is_downbeat": false}, {"time": 432, "is_downbeat": true}, {"time": 528, "is_downbeat": false}, {"time": 624, "is_downbeat": false}, {"time": 720, "is_downbeat": false}, {"time": 816, "is_downbeat": true}, {"time": 912, "is_downbeat": false}, {"time": 1008, "is_downbeat": false}, {"time": 1104, "is_downbeat": false}, {"time": 1200, "is_downbeat": true}, {"time": 1296, "is_downbeat": false}, {"time": 1392, "is_downbeat": false}, {"time": 1488, "is_downbeat": false}, {"time": 1584, "is_downbeat": true}, {"time": 1680, "is_downbeat": false}, {"time": 1776, "is_downbeat": false}, {"time": 1872, "is_downbeat": false}, {"time": 1968, "is_downbeat": true}, {"time": 2064, "is_downbeat": false}, {"time": 2160, "is_downbeat": false}, {"time": 2256, "is_downbeat": false}, {"time": 2352, "is_downbeat": true}, {"time": 2448, "is_downbeat": false}, {"time": 2544, "is_downbeat": false}, {"time": 2640, "is_downbeat": false}, {"time": 2736, "is_downbeat": true}, {"time": 2832, "is_downbeat": false}, {"time": 2928, "is_downbeat": false}, {"time": 3024, "is_downbeat": false}, {"time": 3120, "is_downbeat": true}, {"time": 3216, "is_downbeat": false}, {"time": 3312, "is_downbeat": false}, {"time": 3408, "is_downbeat": false}, {"time": 3504, "is_downbeat": true}, {"time": 3600, "is_downbeat": false}, {"time": 3696, "is_downbeat": false}, {"time": 3792, "is_downbeat": false}, {"time": 3888, "is_downbeat": true}, {"time": 3984, "is_downbeat": false}, {"time": 4080, "is_downbeat": false}, {"time": 4176, "is_downbeat": false}, {"time": 4272, "is_downbeat": true}, {"time": 4368, "is_downbeat": false}, {"time": 4464, "is_downbeat": false}, {"time": 4560, "is_downbeat": false}, {"time": 4656, "is_downbeat": true}, {"time": 4752, "is_downbeat": false}, {"time": 4848, "is_downbeat": false}, {"time": 4944, "is_downbeat": false}, {"time": 5040, "is_downbeat": true}, {"time": 5136, "is_downbeat": false}, {"time": 5232, "is_downbeat": false}, {"time": 5328, "is_downbeat": false}, {"time": 5424, "is_downbeat": true}, {"time": 5520, "is_downbeat": false}, {"time": 5616, "is_downbeat": false}, {"time": 5712, "is_downbeat": false}, {"time": 5808, "is_downbeat": true}, {"time": 5904, "is_downbeat": false}, {"time": 6000, "is_downbeat": false}, {"time": 6096, "is_downbeat": false}, {"time": 6192, "is_downbeat": true}, {"time": 6288, "is_downbeat": false}, {"time": 6384, "is_downbeat": false}, {"time": 6480, "is_downbeat": false}, {"time": 6576, "is_downbeat": true}, {"time": 6672, "is_downbeat": false}, {"time": 6768, "is_downbeat": false}, {"time": 6864, "is_downbeat": false}, {"time": 6960, "is_downbeat": true}, {"time": 7056, "is_downbeat": false}, {"time": 7152, "is_downbeat": false}, {"time": 7248, "is_downbeat": false}, {"time": 7344, "is_downbeat": true}, {"time": 7440, "is_downbeat": false}, {"time": 7536, "is_downbeat": false}, {"time": 7632, "is_downbeat": false}, {"time": 7728, "is_downbeat": true}, {"time": 7824, "is_downbeat": false}, {"time": 7920, "is_downbeat": false}, {"time": 8016, "is_downbeat": false}, {"time": 8112, "is_downbeat": true}, {"time": 8208, "is_downbeat": false}, {"time": 8304, "is_downbeat": false}, {"time": 8400, "is_downbeat": false}, {"time": 8496, "is_downbeat": true}, {"time": 8592, "is_downbeat": false}, {"time": 8688, "is_downbeat": false}, {"time": 8784, "is_downbeat": false}, {"time": 8880, "is_downbeat": true}, {"time": 8976, "is_downbeat": false}, {"time": 9072, "is_downbeat": false}, {"time": 9168, "is_downbeat": false}, {"time": 9264, "is_downbeat": true}, {"time": 9360, "is_downbeat": false}, {"time": 9456, "is_downbeat": false}, {"time": 9552, "is_downbeat": false}, {"time": 9648, "is_downbeat": true}, {"time": 9744, "is_downbeat": false}, {"time": 9840, "is_downbeat": false}, {"time": 9936, "is_downbeat": false}, {"time": 10032, "is_downbeat": true}, {"time": 10128, "is_downbeat": false}, {"time": 10224, "is_downbeat": false}, {"time": 10320, "is_downbeat": false}, {"time": 10416, "is_downbeat": true}, {"time": 10512, "is_downbeat": false}, {"time": 10608, "is_downbeat": false}, {"time": 10704, "is_downbeat": false}, {"time": 10800, "is_downbeat": true}, {"time": 10896, "is_downbeat": false}, {"time": 10992, "is_downbeat": false}, {"time": 11088, "is_downbeat": false}, {"time": 11184, "is_downbeat": true}, {"time": 11280, "is_downbeat": false}, {"time": 11376, "is_downbeat": false}, {"time": 11472, "is_downbeat": false}], "tracks": [{"program": 0, "is_drum": false, "notes": [{"time": 0, "pitch": 69, "duration": 48, "velocity": 64}, {"time": 48, "pitch": 69, "duration": 96, "velocity": 64}, {"time": 144, "pitch": 71, "duration": 96, "velocity": 64}, {"time": 240, "pitch": 67, "duration": 96, "velocity": 64}, {"time": 336, "pitch": 69, "duration": 96, "velocity": 64}, {"time": 432, "pitch": 71, "duration": 192, "velocity": 64}, {"time": 624, "pitch": 72, "duration": 192, "velocity": 64}, {"time": 816, "pitch": 71, "duration": 192, "velocity": 64}, {"time": 1008, "pitch": 69, "duration": 96, "velocity": 64}, {"time": 1104, "pitch": 71, "duration": 96, "velocity": 64}, {"time": 1200, "pitch": 72, "duration": 96, "velocity": 64}, {"time": 1296, "pitch": 71, "duration": 96, "velocity": 64}, {"time": 1392, "pitch": 73, "duration": 96, "velocity": 64}, {"time": 1488, "pitch": 69, "duration": 96, "velocity": 64}, {"time": 1584, "pitch": 67, "duration": 96, "velocity": 64}, {"time": 1680, "pitch": 69, "duration": 96, "velocity": 64}, {"time": 1776, "pitch": 68, "duration": 96, "velocity": 64}, {"time": 1872, "pitch": 65, "duration": 96, "velocity": 64}, {"time": 1968, "pitch": 64, "duration": 192, "velocity": 64}, {"time": 2304, "pitch": 69, "duration": 48, "velocity": 64}, {"time": 2352, "pitch": 69, "duration": 96, "velocity": 64}, {"time": 2448, "pitch": 71, "duration": 96, "velocity": 64}, {"time": 2544, "pitch": 67, "duration": 96, "velocity": 64}, {"time": 2640, "pitch": 69, "duration": 96, "velocity": 64}, {"time": 2736, "pitch": 71, "duration": 192, "velocity": 64}, {"time": 2928, "pitch": 72, "duration": 192, "velocity": 64}, {"time": 3120, "pitch": 71, "duration": 192, "velocity": 64}, {"time": 3312, "pitch": 69, "duration": 96, "velocity": 64}, {"time": 3408, "pitch": 71, "duration": 96, "velocity": 64}, {"time": 3504, "pitch": 72, "duration": 96, "velocity": 64}, {"time": 3600, "pitch": 71, "duration": 96, "velocity": 64}, {"time": 3696, "pitch": 73, "duration": 96, "velocity": 64}, {"time": 3792, "pitch": 69, "duration": 96, "velocity": 64}, {"time": 3888, "pitch": 67, "duration": 96, "velocity": 64}, {"time": 3984, "pitch": 69, "duration": 96, "velocity": 64}, {"time": 4080, "pitch": 68, "duration": 96, "velocity": 64}, {"time": 4176, "pitch": 65, "duration": 96, "velocity": 64}, {"time": 4272, "pitch": 64, "duration": 192, "velocity": 64}, {"time": 4656, "pitch": 62, "duration": 96, "velocity": 64}, {"time": 4752, "pitch": 64, "duration": 96, "velocity": 64}, {"time": 4848, "pitch": 67, "duration": 96, "velocity": 64}, {"time": 4944, "pitch": 69, "duration": 96, "velocity": 64}, {"time": 5040, "pitch": 65, "duration": 48, "velocity": 64}, {"time": 5088, "pitch": 62, "duration": 48, "velocity": 64}, {"time": 5136, "pitch": 64, "duration": 96, "velocity": 64}, {"time": 5232, "pitch": 63, "duration": 96, "velocity": 64}, {"time": 5328, "pitch": 60, "duration": 48, "velocity": 64}, {"time": 5376, "pitch": 63, "duration": 48, "velocity": 64}, {"time": 5424, "pitch": 69, "duration": 96, "velocity": 64}, {"time": 5520, "pitch": 67, "duration": 96, "velocity": 64}, {"time": 5616, "pitch": 69, "duration": 96, "velocity": 64}, {"time": 5712, "pitch": 71, "duration": 96, "velocity": 64}, {"time": 5808, "pitch": 72, "duration": 96, "velocity": 64}, {"time": 5904, "pitch": 73, "duration": 96, "velocity": 64}, {"time": 6000, "pitch": 71, "duration": 96, "velocity": 64}, {"time": 6096, "pitch": 69, "duration": 96, "velocity": 64}, {"time": 6192, "pitch": 67, "duration": 96, "velocity": 64}, {"time": 6288, "pitch": 64, "duration": 96, "velocity": 64}, {"time": 6384, "pitch": 65, "duration": 96, "velocity": 64}, {"time": 6480, "pitch": 68, "duration": 96, "velocity": 64}, {"time": 6576, "pitch": 64, "duration": 384, "velocity": 64}, {"time": 6960, "pitch": 69, "duration": 192, "velocity": 64}, {"time": 7152, "pitch": 67, "duration": 96, "velocity": 64}, {"time": 7248, "pitch": 64, "duration": 96, "velocity": 64}, {"time": 7344, "pitch": 65, "duration": 96, "velocity": 64}, {"time": 7440, "pitch": 67, "duration": 96, "velocity": 64}, {"time": 7536, "pitch": 64, "duration": 96, "velocity": 64}, {"time": 7728, "pitch": 69, "duration": 192, "velocity": 64}, {"time": 7920, "pitch": 68, "duration": 96, "velocity": 64}, {"time": 8016, "pitch": 64, "duration": 96, "velocity": 64}, {"time": 8112, "pitch": 65, "duration": 96, "velocity": 64}, {"time": 8208, "pitch": 67, "duration": 96, "velocity": 64}, {"time": 8304, "pitch": 64, "duration": 96, "velocity": 64}, {"time": 8496, "pitch": 69, "duration": 96, "velocity": 64}, {"time": 8592, "pitch": 68, "duration": 96, "velocity": 64}, {"time": 8688, "pitch": 69, "duration": 96, "velocity": 64}, {"time": 8784, "pitch": 71, "duration": 96, "velocity": 64}, {"time": 8880, "pitch": 72, "duration": 192, "velocity": 64}, {"time": 9072, "pitch": 71, "duration": 96, "velocity": 64}, {"time": 9168, "pitch": 69, "duration": 96, "velocity": 64}, {"time": 9264, "pitch": 67, "duration": 96, "velocity": 64}, {"time": 9360, "pitch": 64, "duration": 96, "velocity": 64}, {"time": 9456, "pitch": 65, "duration": 96, "velocity": 64}, {"time": 9552, "pitch": 69, "duration": 96, "velocity": 64}, {"time": 9648, "pitch": 65, "duration": 96, "velocity": 64}, {"time": 9744, "pitch": 64, "duration": 96, "velocity": 64}, {"time": 9840, "pitch": 62, "duration": 96, "velocity": 64}, {"time": 10032, "pitch": 69, "duration": 96, "velocity": 64}, {"time": 10128, "pitch": 67, "duration": 96, "velocity": 64}, {"time": 10224, "pitch": 69, "duration": 96, "velocity": 64}, {"time": 10320, "pitch": 71, "duration": 96, "velocity": 64}, {"time": 10416, "pitch": 72, "duration": 192, "velocity": 64}, {"time": 10608, "pitch": 71, "duration": 96, "velocity": 64}, {"time": 10704, "pitch": 69, "duration": 96, "velocity": 64}, {"time": 10800, "pitch": 67, "duration": 96, "velocity": 64}, {"time": 10896, "pitch": 64, "duration": 96, "velocity": 64}, {"time": 10992, "pitch": 65, "duration": 96, "velocity": 64}, {"time": 11088, "pitch": 68, "duration": 96, "velocity": 64}, {"time": 11184, "pitch": 64, "duration": 192, "velocity": 64}]}]}