{"metadata": {"schema_version": "0.1", "title": "Vom juengsten Tag", "source_format": "abc"}, "resolution": 24, "tempos": [{"time": 0, "qpm": 120.0}], "key_signatures": [{"time": 0, "root": 9, "mode": "major", "fifths": 3}], "time_signatures": [{"time": 0, "numerator": 4, "denominator": 1}], "beats": [{"time": 0, "is_downbeat": true}, {"time": 96, "is_downbeat": true}, {"time": 192, "is_downbeat": false}, {"time": 288, "is_downbeat": false}, {"time": 384, "is_downbeat": false}, {"time": 480, "is_downbeat": true}, {"time": 576, "is_downbeat": false}, {"time": 672, "is_downbeat": false}, {"time": 768, "is_downbeat": false}, {"time": 864, "is_downbeat": true}, {"time": 960, "is_downbeat": false}, {"time": 1056, "is_downbeat": false}, {"time": 1152, "is_downbeat": false}, {"time": 1248, "is_downbeat": true}, {"time": 1344, "is_downbeat": false}, {"time": 1440, "is_downbeat": false}, {"time": 1536, "is_downbeat": false}, {"time": 1632, "is_downbeat": true}, {"time": 1728, "is_downbeat": false}, {"time": 1824, "is_downbeat": false}, {"time": 1920, "is_downbeat": false}, {"time": 2016, "is_downbeat": true}, {"time": 2112, "is_downbeat": false}, {"time": 2208, "is_downbeat": false}, {"time": 2304, "is_downbeat": false}, {"time": 2400, "is_downbeat": true}, {"time": 2496, "is_downbeat": false}, {"time": 2592, "is_downbeat": false}, {"time": 2688, "is_downbeat": false}, {"time": 2784, "is_downbeat": true}, {"time": 2880, "is_downbeat": false}, {"time": 2976, "is_downbeat": false}, {"time": 3072, "is_downbeat": false}, {"time": 3168, "is_downbeat": true}, {"time": 3264, "is_downbeat": false}, {"time": 3360, "is_downbeat": false}, {"time": 3456, "is_downbeat": false}, {"time": 3552, "is_downbeat": true}, {"time": 3648, "is_downbeat": false}, {"time": 3744, "is_downbeat": false}, {"time": 3840, "is_downbeat": false}], "tracks": [{"program": 0, "is_drum": false, "notes": [{"time": 0, "pitch": 69, "duration": 96, "velocity": 64}, {"time": 96, "pitch": 69, "duration": 96, "velocity": 64}, {"time": 192, "pitch": 69, "duration": 96, "velocity": 64}, {"time": 288, "pitch": 72, "duration": 96, "velocity": 64}, {"time": 384, "pitch": 69, "duration": 96, "velocity": 64}, {"time": 480, "pitch": 65, "duration": 96, "velocity": 64}, {"time": 576, "pitch": 69, "duration": 96, "velocity": 64}, {"time": 672, "pitch": 66, "duration": 96, "velocity": 64}, {"time": 816, "pitch": 69, "duration": 48, "velocity": 64}, {"time": 864, "pitch": 69, "duration": 96, "velocity": 64}, {"time": 960, "pitch": 69, "duration": 96, "velocity": 64}, {"time": 1056, "pitch": 72, "duration": 96, "velocity": 64}, {"time": 1152, "pitch": 69, "duration": 96, "velocity": 64}, {"time": 1248, "pitch": 65, "duration": 96, "velocity": 64}, {"time": 1344, "pitch": 69, "duration": 96, "velocity": 64}, {"time": 1440, "pitch": 66, "duration": 96, "velocity": 64}, {"time": 1584, "pitch": 66, "duration": 48, "velocity": 64}, {"time": 1632, "pitch": 70, "duration": 96, "velocity": 64}, {"time": 1728, "pitch": 69, "duration": 96, "velocity": 64}, {"time": 1824, "pitch": 67, "duration": 96, "velocity": 64}, {"time": 1920, "pitch": 71, "duration": 96, "velocity": 64}, {"time": 2016, "pitch": 69, "duration": 96, "velocity": 64}, {"time": 2112, "pitch": 65, "duration": 96, "velocity": 64}, {"time": 2208, "pitch": 62, "duration": 96, "velocity": 64}, {"time": 2352, "pitch": 69, "duration": 48, "velocity": 64}, {"time": 2400, "pitch": 70, "duration": 96, "velocity": 64}, {"time": 2496, "pitch": 69, "duration": 96, "velocity": 64}, {"time": 2592, "pitch": 67, "duration": 96, "velocity": 64}, {"time": 2688, "pitch": 71, "duration": 96, "velocity": 64}, {"time": 2784, "pitch": 69, "duration": 96, "velocity": 64}, {"time": 2880, "pitch": 65, "duration": 96, "velocity": 64}, {"time": 2976, "pitch": 62, "duration": 96, "velocity": 64}, {"time": 3120, "pitch": 70, "duration": 48, "velocity": 64}, {"time": 3168, "pitch": 69, "duration": 96, "velocity": 64}, {"time": 3264, "pitch": 67, "duration": 96, "velocity": 64}, {"time": 3360, "pitch": 65, "duration": 96, "velocity": 64}, {"time": 3456, "pitch": 62, "duration": 96, "velocity": 64}, {"time": 3552, "pitch": 65, "duration": 48, "velocity": 64}, {"time": 3600, "pitch": 66, "duration": 48, "velocity": 64}, {"time": 3648, "pitch": 67, "duration": 48, "velocity": 64}, {"time": 3696, "pitch": 68, "duration": 48, "velocity": 64}, {"time": 3744, "pitch": 69, "duration": 96, "velocity": 64}]}]}