{"metadata": {"schema_version": "0.1", "title": "Herzog Ernst", "source_format": "abc"}, "resolution": 24, "tempos": [{"time": 0, "qpm": 120.0}], "key_signatures": [{"time": 0, "root": 4, "mode": "major", "fifths": 4}], "time_signatures": [{"time": 0, "numerator": 4, "denominator": 4}], "tracks": [{"program": 0, "is_drum": false, "notes": [{"time": 0, "pitch": 69, "duration": 24, "velocity": 64}, {"time": 24, "pitch": 69, "duration": 24, "velocity": 64}, {"time": 48, "pitch": 69, "duration": 24, "velocity": 64}, {"time": 72, "pitch": 69, "duration": 24, "velocity": 64}, {"time": 96, "pitch": 71, "duration": 24, "velocity": 64}, {"time": 120, "pitch": 72, "duration": 24, "velocity": 64}, {"time": 144, "pitch": 69, "duration": 24, "velocity": 64}, {"time": 168, "pitch": 69, "duration": 48, "velocity": 64}, {"time": 240, "pitch": 73, "duration": 24, "velocity": 64}, {"time": 264, "pitch": 73, "duration": 24, "velocity": 64}, {"time": 288, "pitch": 73, "duration": 24, "velocity": 64}, {"time": 312, "pitch": 71, "duration": 48, "velocity": 64}, {"time": 360, "pitch": 69, "duration": 24, "velocity": 64}, {"time": 384, "pitch": 71, "duration": 24, "velocity": 64}, {"time": 408, "pitch": 69, "duration": 24, "velocity": 64}, {"time": 432, "pitch": 69, "duration": 48, "velocity": 64}, {"time": 480, "pitch": 69, "duration": 24, "velocity": 64}, {"time": 504, "pitch": 71, "duration": 48, "velocity": 64}, {"time": 552, "pitch": 69, "duration": 24, "velocity": 64}, {"time": 576, "pitch": 67, "duration": 24, "velocity": 64}, {"time": 600, "pitch": 65, "duration": 24, "velocity": 64}, {"time": 624, "pitch": 64, "duration": 24, "velocity": 64}, {"time": 648, "pitch": 64, "duration": 48, "velocity": 64}, {"time": 720, "pitch": 69, "duration": 24, "velocity": 64}, {"time": 744, "pitch": 69, "duration": 24, "velocity": 64}, {"time": 768, "pitch": 69, "duration": 24, "velocity": 64}, {"time": 792, "pitch": 69, "duration": 24, "velocity": 64}, {"time": 816, "pitch": 71, "duration": 24, "velocity": 64}, {"time": 840, "pitch": 73, "duration": 24, "velocity": 64}, {"time": 864, "pitch": 69, "duration": 24, "velocity": 64}, {"time": 888, "pitch": 69, "duration": 48, "velocity": 64}, {"time": 960, "pitch": 73, "duration": 24, "velocity": 64}, {"time": 984, "pitch": 73, "duration": 24, "velocity": 64}, {"time": 1008, "pitch": 73, "duration": 24, "velocity": 64}, {"time": 1032, "pitch": 71, "duration": 48, "velocity": 64}, {"time": 1080, "pitch": 69, "duration": 24, "velocity": 64}, {"time": 1104, "pitch": 71, "duration": 24, "velocity": 64}, {"time": 1128, "pitch": 69, "duration": 24, "velocity": 64}, {"time": 1152, "pitch": 69, "duration": 48, "velocity": 64}, {"time": 1200, "pitch": 69, "duration": 24, "velocity": 64}, {"time": 1224, "pitch": 71, "duration": 48, "velocity": 64}, {"time": 1272, "pitch": 69, "duration": 24, "velocity": 64}, {"time": 1296, "pitch": 68, "duration": 24, "velocity": 64}, {"time": 1320, "pitch": 66, "duration": 24, "velocity": 64}, {"time": 1344, "pitch": 64, "duration": 24, "velocity": 64}, {"time": 1368, "pitch": 64, "duration": 48, "velocity": 64}, {"time": 1440, "pitch": 64, "duration": 24, "velocity": 64}, {"time": 1464, "pitch": 64, "duration": 24, "velocity": 64}, {"time": 1488, "pitch": 64, "duration": 24, "velocity": 64}, {"time": 1512, "pitch": 68, "duration": 24, "velocity": 64}, {"time": 1536, "pitch": 68, "duration": 24, "velocity": 64}, {"time": 1560, "pitch": 69, "duration": 24, "velocity": 64}, {"time": 1584, "pitch": 69, "duration": 12, "velocity": 64}, {"time": 1596, "pitch": 69, "duration": 12, "velocity": 64}, {"time": 1608, "pitch": 69, "duration": 24, "velocity": 64}, {"time": 1632, "pitch": 69, "duration": 24, "velocity": 64}, {"time": 1656, "pitch": 69, "duration": 24, "velocity": 64}, {"time": 1680, "pitch": 69, "duration": 24, "velocity": 64}, {"time": 1704, "pitch": 68, "duration": 24, "velocity": 64}, {"time": 1728, "pitch": 66, "duration": 24, "velocity": 64}, {"time": 1752, "pitch": 64, "duration": 24, "velocity": 64}, {"time": 1776, "pitch": 61, "duration": 24, "velocity": 64}, {"time": 1824, "pitch": 61, "duration": 24, "velocity": 64}, {"time": 1848, "pitch": 68, "duration": 24, "velocity": 64}, {"time": 1872, "pitch": 68, "duration": 24, "velocity": 64}, {"time": 1896, "pitch": 68, "duration": 24, "velocity": 64}, {"time": 1920, "pitch": 68, "duration": 24, "velocity": 64}, {"time": 1944, "pitch": 69, "duration": 24, "velocity": 64}, {"time": 1968, "pitch": 69, "duration": 24, "velocity": 64}, {"time": 1992, "pitch": 69, "duration": 48, "velocity": 64}, {"time": 2040, "pitch": 69, "duration": 24, "velocity": 64}, {"time": 2064, "pitch": 69, "duration": 24, "velocity": 64}, {"time": 2088, "pitch": 69, "duration": 24, "velocity": 64}, {"time": 2112, "pitch": 68, "duration": 24, "velocity": 64}, {"time": 2136, "pitch": 66, "duration": 24, "velocity": 64}, {"time": 2160, "pitch": 64, "duration": 24, "velocity": 64}, {"time": 2184, "pitch": 64, "duration": 48, "velocity": 64}, {"time": 2256, "pitch": 64, "duration": 24, "velocity": 64}, {"time": 2280, "pitch": 64, "duration": 24, "velocity": 64}, {"time": 2304, "pitch": 64, "duration": 24, "velocity": 64}, {"time": 2328, "pitch": 68, "duration": 24, "velocity": 64}, {"time": 2352, "pitch": 68, "duration": 24, "velocity": 64}, {"time": 2376, "pitch": 64, "duration": 24, "velocity": 64}, {"time": 2400, "pitch": 62, "duration": 24, "velocity": 64}, {"time": 2424, "pitch": 61, "duration": 48, "velocity": 64}, {"time": 2496, "pitch": 61, "duration": 24, "velocity": 64}, {"time": 2520, "pitch": 68, "duration": 24, "velocity": 64}, {"time": 2544, "pitch": 68, "duration": 24, "velocity": 64}, {"time": 2568, "pitch": 69, "duration": 24, "velocity": 64}, {"time": 2592, "pitch": 71, "duration": 24, "velocity": 64}, {"time": 2616, "pitch": 73, "duration": 48, "velocity": 64}, {"time": 2664, "pitch": 71, "duration": 24, "velocity": 64}, {"time": 2688, "pitch": 69, "duration": 48, "velocity": 64}, {"time": 2736, "pitch": 68, "duration": 12, "velocity": 64}, {"time": 2748, "pitch": 66, "duration": 12, "velocity": 64}, {"time": 2760, "pitch": 64, "duration": 48, "velocity": 64}, {"time": 2808, "pitch": 69, "duration": 24, "velocity": 64}, {"time": 2832, "pitch": 71, "duration": 48, "velocity": 64}, {"time": 2880, "pitch": 69, "duration": 24, "velocity": 64}, {"time": 2904, "pitch": 68, "duration": 48, "velocity": 64}, {"time": 2952, "pitch": 66, "duration": 24, "velocity": 64}, {"time": 2976, "pitch": 64, "duration": 48, "velocity": 64}, {"time": 3024, "pitch": 61, "duration": 24, "velocity": 64}, {"time": 3048, "pitch": 63, "duration": 48, "velocity": 64}, {"time": 3096, "pitch": 64, "duration": 96, "velocity": 64}]}]}