{"metadata": {"schema_version": "0.1", "title": "Heimkehr des Ehemannes", "source_format": "abc"}, "resolution": 24, "tempos": [{"time": 0, "qpm": 120.0}], "key_signatures": [{"time": 0, "root": 0, "mode": "major", "fifths": 0}], "time_signatures": [{"time": 0, "numerator": 2, "denominator": 2}], "beats": [{"time": 0, "is_downbeat": true}, {"time": 24, "is_downbeat": true}, {"time": 72, "is_downbeat": false}, {"time": 120, "is_downbeat": true}, {"time": 168, "is_downbeat": false}, {"time": 216, "is_downbeat": true}, {"time": 264, "is_downbeat": false}, {"time": 312, "is_downbeat": true}, {"time": 360, "is_downbeat": false}, {"time": 408, "is_downbeat": true}, {"time": 456, "is_downbeat": false}, {"time": 504, "is_downbeat": true}, {"time": 552, "is_downbeat": false}, {"time": 600, "is_downbeat": true}, {"time": 648, "is_downbeat": false}, {"time": 696, "is_downbeat": true}, {"time": 744, "is_downbeat": false}], "tracks": [{"program": 0, "is_drum": false, "notes": [{"time": 0, "pitch": 55, "duration": 24, "velocity": 64}, {"time": 24, "pitch": 60, "duration": 24, "velocity": 64}, {"time": 48, "pitch": 60, "duration": 24, "velocity": 64}, {"time": 72, "pitch": 60, "duration": 24, "velocity": 64}, {"time": 96, "pitch": 62, "duration": 24, "velocity": 64}, {"time": 120, "pitch": 59, "duration": 24, "velocity": 64}, {"time": 144, "pitch": 57, "duration": 24, "velocity": 64}, {"time": 168, "pitch": 55, "duration": 48, "velocity": 64}, {"time": 216, "pitch": 59, "duration": 48, "velocity": 64}, {"time": 264, "pitch": 60, "duration": 48, "velocity": 64}, {"time": 312, "pitch": 62, "duration": 72, "velocity": 64}, {"time": 384, "pitch": 60, "duration": 24, "velocity": 64}, {"time": 408, "pitch": 64, "duration": 24, "velocity": 64}, {"time": 432, "pitch": 64, "duration": 24, "velocity": 64}, {"time": 456, "pitch": 64, "duration": 24, "velocity": 64}, {"time": 480, "pitch": 65, "duration": 24, "velocity": 64}, {"time": 504, "pitch": 64, "duration": 24, "velocity": 64}, {"time": 528, "pitch": 62, "duration": 24, "velocity": 64}, {"time": 552, "pitch": 60, "duration": 48, "velocity": 64}, {"time": 600, "pitch": 64, "duration": 48, "velocity": 64}, {"time": 648, "pitch": 62, "duration": 48, "velocity": 64}, {"time": 696, "pitch": 60, "duration": 12, "velocity": 64}, {"time": 708, "pitch": 60, "duration": 12, "velocity": 64}, {"time": 720, "pitch": 59, "duration": 12, "velocity": 64}, {"time": 732, "pitch": 59, "duration": 12, "velocity": 64}, {"time": 744, "pitch": 60, "duration": 24, "velocity": 64}]}]}