{"metadata": {"schema_version": "0.1", "title": "Herzog Ernst", "source_format": "abc"}, "resolution": 24, "tempos": [{"time": 0, "qpm": 120.0}], "key_signatures": [{"time": 0, "root": 4, "mode": "major", "fifths": 4}], "time_signatures": [{"time": 0, "numerator": 4, "denominator": 4}], "tracks": [{"program": 0, "is_drum": false, "notes": [{"time": 0, "pitch": 69, "duration": 48, "velocity": 64}, {"time": 48, "pitch": 69, "duration": 24, "velocity": 64}, {"time": 72, "pitch": 64, "duration": 24, "velocity": 64}, {"time": 96, "pitch": 69, "duration": 24, "velocity": 64}, {"time": 120, "pitch": 69, "duration": 24, "velocity": 64}, {"time": 144, "pitch": 69, "duration": 24, "velocity": 64}, {"time": 168, "pitch": 71, "duration": 24, "velocity": 64}, {"time": 192, "pitch": 72, "duration": 24, "velocity": 64}, {"time": 216, "pitch": 73, "duration": 24, "velocity": 64}, {"time": 240, "pitch": 71, "duration": 24, "velocity": 64}, {"time": 264, "pitch": 69, "duration": 24, "velocity": 64}, {"time": 288, "pitch": 73, "duration": 24, "velocity": 64}, {"time": 312, "pitch": 73, "duration": 12, "velocity": 64}, {"time": 324, "pitch": 73, "duration": 12, "velocity": 64}, {"time": 336, "pitch": 73, "duration": 24, "velocity": 64}, {"time": 360, "pitch": 73, "duration": 24, "velocity": 64}, {"time": 384, "pitch": 73, "duration": 24, "velocity": 64}, {"time": 408, "pitch": 74, "duration": 24, "velocity": 64}, {"time": 432, "pitch": 73, "duration": 24, "velocity": 64}, {"time": 456, "pitch": 71, "duration": 24, "velocity": 64}, {"time": 480, "pitch": 69, "duration": 24, "velocity": 64}, {"time": 504, "pitch": 73, "duration": 12, "velocity": 64}, {"time": 516, "pitch": 73, "duration": 12, "velocity": 64}, {"time": 528, "pitch": 71, "duration": 24, "velocity": 64}, {"time": 552, "pitch": 69, "duration": 24, "velocity": 64}, {"time": 576, "pitch": 69, "duration": 24, "velocity": 64}, {"time": 600, "pitch": 64, "duration": 24, "velocity": 64}, {"time": 624, "pitch": 64, "duration": 24, "velocity": 64}, {"time": 648, "pitch": 69, "duration": 48, "velocity": 64}, {"time": 696, "pitch": 69, "duration": 24, "velocity": 64}, {"time": 720, "pitch": 64, "duration": 24, "velocity": 64}, {"time": 744, "pitch": 69, "duration": 24, "velocity": 64}, {"time": 768, "pitch": 69, "duration": 24, "velocity": 64}, {"time": 792, "pitch": 69, "duration": 24, "velocity": 64}, {"time": 816, "pitch": 71, "duration": 24, "velocity": 64}, {"time": 840, "pitch": 73, "duration": 24, "velocity": 64}, {"time": 864, "pitch": 73, "duration": 24, "velocity": 64}, {"time": 888, "pitch": 71, "duration": 24, "velocity": 64}, {"time": 912, "pitch": 69, "duration": 24, "velocity": 64}, {"time": 936, "pitch": 73, "duration": 24, "velocity": 64}, {"time": 960, "pitch": 73, "duration": 48, "velocity": 64}, {"time": 1008, "pitch": 73, "duration": 24, "velocity": 64}, {"time": 1032, "pitch": 73, "duration": 24, "velocity": 64}, {"time": 1056, "pitch": 75, "duration": 24, "velocity": 64}, {"time": 1080, "pitch": 73, "duration": 24, "velocity": 64}, {"time": 1104, "pitch": 71, "duration": 24, "velocity": 64}, {"time": 1128, "pitch": 69, "duration": 24, "velocity": 64}, {"time": 1152, "pitch": 73, "duration": 24, "velocity": 64}, {"time": 1176, "pitch": 71, "duration": 24, "velocity": 64}, {"time": 1200, "pitch": 69, "duration": 24, "velocity": 64}, {"time": 1224, "pitch": 69, "duration": 24, "velocity": 64}, {"time": 1248, "pitch": 64, "duration": 24, "velocity": 64}, {"time": 1272, "pitch": 64, "duration": 24, "velocity": 64}, {"time": 1320, "pitch": 71, "duration": 24, "velocity": 64}, {"time": 1344, "pitch": 75, "duration": 24, "velocity": 64}, {"time": 1368, "pitch": 73, "duration": 24, "velocity": 64}, {"time": 1392, "pitch": 71, "duration": 24, "velocity": 64}, {"time": 1416, "pitch": 69, "duration": 24, "velocity": 64}, {"time": 1440, "pitch": 67, "duration": 24, "velocity": 64}, {"time": 1464, "pitch": 68, "duration": 24, "velocity": 64}, {"time": 1488, "pitch": 68, "duration": 24, "velocity": 64}, {"time": 1512, "pitch": 64, "duration": 24, "velocity": 64}, {"time": 1536, "pitch": 61, "duration": 24, "velocity": 64}, {"time": 1560, "pitch": 64, "duration": 24, "velocity": 64}, {"time": 1584, "pitch": 68, "duration": 12, "velocity": 64}, {"time": 1596, "pitch": 68, "duration": 12, "velocity": 64}, {"time": 1608, "pitch": 68, "duration": 24, "velocity": 64}, {"time": 1632, "pitch": 68, "duration": 24, "velocity": 64}, {"time": 1656, "pitch": 68, "duration": 24, "velocity": 64}, {"time": 1680, "pitch": 69, "duration": 24, "velocity": 64}, {"time": 1704, "pitch": 68, "duration": 24, "velocity": 64}, {"time": 1728, "pitch": 69, "duration": 24, "velocity": 64}, {"time": 1752, "pitch": 71, "duration": 24, "velocity": 64}, {"time": 1776, "pitch": 73, "duration": 24, "velocity": 64}, {"time": 1800, "pitch": 71, "duration": 24, "velocity": 64}, {"time": 1824, "pitch": 69, "duration": 24, "velocity": 64}, {"time": 1848, "pitch": 68, "duration": 24, "velocity": 64}, {"time": 1872, "pitch": 69, "duration": 24, "velocity": 64}, {"time": 1896, "pitch": 64, "duration": 24, "velocity": 64}, {"time": 1920, "pitch": 65, "duration": 24, "velocity": 64}, {"time": 1944, "pitch": 64, "duration": 96, "velocity": 64}]}]}