{"metadata": {"schema_version": "0.1", "title": "Der Tannhaeuser", "source_format": "abc"}, "resolution": 24, "tempos": [{"time": 0, "qpm": 120.0}], "key_signatures": [{"time": 0, "root": 10, "mode": "major", "fifths": -2}], "time_signatures": [{"time": 0, "numerator": 4, "denominator": 4}, {"time": 108, "numerator": 1, "denominator": 4}, {"time": 228, "numerator": 1, "denominator": 4}, {"time": 348, "numerator": 1, "denominator": 4}, {"time": 420, "numerator": 1, "denominator": 4}, {"time": 492, "numerator": 1, "denominator": 4}, {"time": 564, "numerator": 1, "denominator": 4}, {"time": 636, "numerator": 4, "denominator": 4}, {"time": 780, "numerator": 1, "denominator": 4}, {"time": 852, "numerator": 1, "denominator": 4}, {"time": 924, "numerator": 1, "denominator": 4}, {"time": 996, "numerator": 1, "denominator": 4}, {"time": 1020, "numerator": 2, "denominator": 4}, {"time": 1068, "numerator": 1, "denominator": 8}], "beats": [{"time": 0, "is_downbeat": true}, {"time": 12, "is_downbeat": true}, {"time": 36, "is_downbeat": true}, {"time": 60, "is_downbeat": true}, {"time": 84, "is_downbeat": true}, {"time": 108, "is_downbeat": true}, {"time": 132, "is_downbeat": true}, {"time": 156, "is_downbeat": true}, {"time": 180, "is_downbeat": true}, {"time": 204, "is_downbeat": true}, {"time": 228, "is_downbeat": true}, {"time": 252, "is_downbeat": true}, {"time": 276, "is_downbeat": true}, {"time": 300, "is_downbeat": true}, {"time": 324, "is_downbeat": true}, {"time": 348, "is_downbeat": true}, {"time": 372, "is_downbeat": true}, {"time": 396, "is_downbeat": true}, {"time": 420, "is_downbeat": true}, {"time": 444, "is_downbeat": true}, {"time": 468, "is_downbeat": true}, {"time": 492, "is_downbeat": true}, {"time": 516, "is_downbeat": true}, {"time": 540, "is_downbeat": true}, {"time": 564, "is_downbeat": true}, {"time": 588, "is_downbeat": true}, {"time": 612, "is_downbeat": false}, {"time": 636, "is_downbeat": true}, {"time": 660, "is_downbeat": true}, {"time": 684, "is_downbeat": true}, {"time": 708, "is_downbeat": true}, {"time": 732, "is_downbeat": true}, {"time": 756, "is_downbeat": true}, {"time": 780, "is_downbeat": true}, {"time": 804, "is_downbeat": true}, {"time": 828, "is_downbeat": true}, {"time": 852, "is_downbeat": true}, {"time": 876, "is_downbeat": true}, {"time": 900, "is_downbeat": true}, {"time": 924, "is_downbeat": true}, {"time": 948, "is_downbeat": true}, {"time": 972, "is_downbeat": true}, {"time": 996, "is_downbeat": true}, {"time": 1020, "is_downbeat": true}, {"time": 1032, "is_downbeat": true}, {"time": 1044, "is_downbeat": true}, {"time": 1056, "is_downbeat": true}, {"time": 1068, "is_downbeat": true}], "tracks": [{"program": 0, "is_drum": false, "notes": [{"time": 0, "pitch": 65, "duration": 12, "velocity": 64}, {"time": 12, "pitch": 65, "duration": 18, "velocity": 64}, {"time": 30, "pitch": 67, "duration": 6, "velocity": 64}, {"time": 36, "pitch": 67, "duration": 18, "velocity": 64}, {"time": 54, "pitch": 65, "duration": 6, "velocity": 64}, {"time": 60, "pitch": 65, "duration": 12, "velocity": 64}, {"time": 72, "pitch": 70, "duration": 6, "velocity": 64}, {"time": 78, "pitch": 70, "duration": 6, "velocity": 64}, {"time": 84, "pitch": 70, "duration": 36, "velocity": 64}, {"time": 120, "pitch": 69, "duration": 12, "velocity": 64}, {"time": 132, "pitch": 70, "duration": 12, "velocity": 64}, {"time": 144, "pitch": 72, "duration": 12, "velocity": 64}, {"time": 156, "pitch": 74, "duration": 12, "velocity": 64}, {"time": 168, "pitch": 74, "duration": 4, "velocity": 64}, {"time": 172, "pitch": 75, "duration": 8, "velocity": 64}, {"time": 180, "pitch": 74, "duration": 12, "velocity": 64}, {"time": 192, "pitch": 72, "duration": 12, "velocity": 64}, {"time": 204, "pitch": 70, "duration": 24, "velocity": 64}, {"time": 240, "pitch": 65, "duration": 12, "velocity": 64}, {"time": 252, "pitch": 65, "duration": 18, "velocity": 64}, {"time": 270, "pitch": 67, "duration": 6, "velocity": 64}, {"time": 276, "pitch": 67, "duration": 12, "velocity": 64}, {"time": 288, "pitch": 65, "duration": 6, "velocity": 64}, {"time": 294, "pitch": 65, "duration": 6, "velocity": 64}, {"time": 300, "pitch": 65, "duration": 18, "velocity": 64}, {"time": 318, "pitch": 70, "duration": 6, "velocity": 64}, {"time": 324, "pitch": 70, "duration": 36, "velocity": 64}, {"time": 360, "pitch": 69, "duration": 12, "velocity": 64}, {"time": 372, "pitch": 70, "duration": 12, "velocity": 64}, {"time": 384, "pitch": 70, "duration": 12, "velocity": 64}, {"time": 396, "pitch": 72, "duration": 12, "velocity": 64}, {"time": 408, "pitch": 74, "duration": 18, "velocity": 64}, {"time": 426, "pitch": 74, "duration": 6, "velocity": 64}, {"time": 432, "pitch": 75, "duration": 12, "velocity": 64}, {"time": 444, "pitch": 74, "duration": 12, "velocity": 64}, {"time": 456, "pitch": 72, "duration": 12, "velocity": 64}, {"time": 468, "pitch": 70, "duration": 24, "velocity": 64}, {"time": 504, "pitch": 69, "duration": 12, "velocity": 64}, {"time": 516, "pitch": 70, "duration": 12, "velocity": 64}, {"time": 528, "pitch": 72, "duration": 12, "velocity": 64}, {"time": 540, "pitch": 74, "duration": 36, "velocity": 64}, {"time": 576, "pitch": 72, "duration": 12, "velocity": 64}, {"time": 588, "pitch": 70, "duration": 12, "velocity": 64}, {"time": 600, "pitch": 69, "duration": 6, "velocity": 64}, {"time": 606, "pitch": 69, "duration": 6, "velocity": 64}, {"time": 612, "pitch": 67, "duration": 24, "velocity": 64}, {"time": 660, "pitch": 72, "duration": 36, "velocity": 64}, {"time": 696, "pitch": 74, "duration": 6, "velocity": 64}, {"time": 702, "pitch": 74, "duration": 6, "velocity": 64}, {"time": 708, "pitch": 72, "duration": 6, "velocity": 64}, {"time": 714, "pitch": 72, "duration": 6, "velocity": 64}, {"time": 720, "pitch": 70, "duration": 12, "velocity": 64}, {"time": 732, "pitch": 69, "duration": 12, "velocity": 64}, {"time": 744, "pitch": 67, "duration": 12, "velocity": 64}, {"time": 756, "pitch": 65, "duration": 24, "velocity": 64}, {"time": 792, "pitch": 69, "duration": 12, "velocity": 64}, {"time": 804, "pitch": 70, "duration": 12, "velocity": 64}, {"time": 816, "pitch": 72, "duration": 6, "velocity": 64}, {"time": 822, "pitch": 72, "duration": 6, "velocity": 64}, {"time": 828, "pitch": 74, "duration": 36, "velocity": 64}, {"time": 864, "pitch": 72, "duration": 12, "velocity": 64}, {"time": 876, "pitch": 70, "duration": 12, "velocity": 64}, {"time": 888, "pitch": 69, "duration": 12, "velocity": 64}, {"time": 900, "pitch": 67, "duration": 24, "velocity": 64}, {"time": 936, "pitch": 72, "duration": 12, "velocity": 64}, {"time": 948, "pitch": 72, "duration": 36, "velocity": 64}, {"time": 984, "pitch": 77, "duration": 6, "velocity": 64}, {"time": 990, "pitch": 77, "duration": 6, "velocity": 64}, {"time": 996, "pitch": 75, "duration": 6, "velocity": 64}, {"time": 1002, "pitch": 75, "duration": 6, "velocity": 64}, {"time": 1008, "pitch": 72, "duration": 12, "velocity": 64}, {"time": 1020, "pitch": 70, "duration": 12, "velocity": 64}, {"time": 1032, "pitch": 69, "duration": 12, "velocity": 64}, {"time": 1044, "pitch": 70, "duration": 24, "velocity": 64}]}]}