{"metadata": {"schema_version": "0.1", "title": "Schloss in Oesterreich", "source_format": "abc"}, "resolution": 24, "tempos": [{"time": 0, "qpm": 120.0}], "key_signatures": [{"time": 0, "root": 5, "mode": "major", "fifths": -1}], "time_signatures": [{"time": 0, "numerator": 4, "denominator": 4}], "tracks": [{"program": 0, "is_drum": false, "notes": [{"time": 0, "pitch": 65, "duration": 24, "velocity": 64}, {"time": 24, "pitch": 67, "duration": 24, "velocity": 64}, {"time": 48, "pitch": 67, "duration": 24, "velocity": 64}, {"time": 72, "pitch": 69, "duration": 48, "velocity": 64}, {"time": 120, "pitch": 70, "duration": 24, "velocity": 64}, {"time": 144, "pitch": 72, "duration": 48, "velocity": 64}, {"time": 192, "pitch": 69, "duration": 24, "velocity": 64}, {"time": 216, "pitch": 65, "duration": 96, "velocity": 64}, {"time": 384, "pitch": 77, "duration": 48, "velocity": 64}, {"time": 432, "pitch": 77, "duration": 24, "velocity": 64}, {"time": 456, "pitch": 77, "duration": 24, "velocity": 64}, {"time": 480, "pitch": 77, "duration": 24, "velocity": 64}, {"time": 504, "pitch": 76, "duration": 24, "velocity": 64}, {"time": 528, "pitch": 72, "duration": 24, "velocity": 64}, {"time": 552, "pitch": 74, "duration": 48, "velocity": 64}, {"time": 600, "pitch": 72, "duration": 144, "velocity": 64}, {"time": 936, "pitch": 65, "duration": 24, "velocity": 64}, {"time": 960, "pitch": 72, "duration": 48, "velocity": 64}, {"time": 1008, "pitch": 77, "duration": 24, "velocity": 64}, {"time": 1032, "pitch": 76, "duration": 24, "velocity": 64}, {"time": 1056, "pitch": 72, "duration": 24, "velocity": 64}, {"time": 1080, "pitch": 74, "duration": 24, "velocity": 64}, {"time": 1104, "pitch": 72, "duration": 48, "velocity": 64}, {"time": 1152, "pitch": 72, "duration": 24, "velocity": 64}, {"time": 1176, "pitch": 69, "duration": 24, "velocity": 64}, {"time": 1200, "pitch": 74, "duration": 24, "velocity": 64}, {"time": 1224, "pitch": 72, "duration": 36, "velocity": 64}, {"time": 1260, "pitch": 70, "duration": 12, "velocity": 64}, {"time": 1272, "pitch": 69, "duration": 24, "velocity": 64}, {"time": 1296, "pitch": 67, "duration": 24, "velocity": 64}, {"time": 1320, "pitch": 65, "duration": 24, "velocity": 64}, {"time": 1344, "pitch": 64, "duration": 24, "velocity": 64}, {"time": 1368, "pitch": 62, "duration": 48, "velocity": 64}, {"time": 1416, "pitch": 60, "duration": 24, "velocity": 64}, {"time": 1440, "pitch": 60, "duration": 24, "velocity": 64}, {"time": 1464, "pitch": 65, "duration": 36, "velocity": 64}, {"time": 1500, "pitch": 67, "duration": 12, "velocity": 64}, {"time": 1512, "pitch": 69, "duration": 12, "velocity": 64}, {"time": 1524, "pitch": 70, "duration": 12, "velocity": 64}, {"time": 1536, "pitch": 72, "duration": 48, "velocity": 64}, {"time": 1584, "pitch": 70, "duration": 12, "velocity": 64}, {"time": 1596, "pitch": 69, "duration": 12, "velocity": 64}, {"time": 1608, "pitch": 67, "duration": 48, "velocity": 64}, {"time": 1656, "pitch": 65, "duration": 96, "velocity": 64}]}]}