{"metadata": {"schema_version": "0.1", "title": "Herr und Schildknecht", "source_format": "abc"}, "resolution": 24, "tempos": [{"time": 0, "qpm": 120.0}], "key_signatures": [{"time": 0, "root": 2, "mode": "major", "fifths": 2}], "time_signatures": [{"time": 0, "numerator": 4, "denominator": 4}, {"time": 180, "numerator": 1, "denominator": 4}, {"time": 372, "numerator": 1, "denominator": 4}, {"time": 396, "numerator": 2, "denominator": 4}, {"time": 756, "numerator": 1, "denominator": 8}], "beats": [{"time": 0, "is_downbeat": true}, {"time": 12, "is_downbeat": true}, {"time": 36, "is_downbeat": true}, {"time": 60, "is_downbeat": true}, {"time": 84, "is_downbeat": true}, {"time": 108, "is_downbeat": true}, {"time": 132, "is_downbeat": true}, {"time": 156, "is_downbeat": true}, {"time": 180, "is_downbeat": true}, {"time": 204, "is_downbeat": true}, {"time": 228, "is_downbeat": true}, {"time": 252, "is_downbeat": true}, {"time": 276, "is_downbeat": true}, {"time": 300, "is_downbeat": true}, {"time": 324, "is_downbeat": true}, {"time": 348, "is_downbeat": true}, {"time": 372, "is_downbeat": true}, {"time": 396, "is_downbeat": true}, {"time": 408, "is_downbeat": true}, {"time": 420, "is_downbeat": true}, {"time": 432, "is_downbeat": true}, {"time": 444, "is_downbeat": true}, {"time": 456, "is_downbeat": true}, {"time": 468, "is_downbeat": true}, {"time": 480, "is_downbeat": true}, {"time": 492, "is_downbeat": true}, {"time": 504, "is_downbeat": true}, {"time": 516, "is_downbeat": true}, {"time": 528, "is_downbeat": true}, {"time": 540, "is_downbeat": true}, {"time": 552, "is_downbeat": true}, {"time": 564, "is_downbeat": true}, {"time": 576, "is_downbeat": true}, {"time": 588, "is_downbeat": true}, {"time": 600, "is_downbeat": true}, {"time": 612, "is_downbeat": true}, {"time": 624, "is_downbeat": true}, {"time": 636, "is_downbeat": true}, {"time": 648, "is_downbeat": true}, {"time": 660, "is_downbeat": true}, {"time": 672, "is_downbeat": true}, {"time": 684, "is_downbeat": true}, {"time": 696, "is_downbeat": true}, {"time": 708, "is_downbeat": true}, {"time": 720, "is_downbeat": true}, {"time": 732, "is_downbeat": true}, {"time": 744, "is_downbeat": true}, {"time": 756, "is_downbeat": true}], "tracks": [{"program": 0, "is_drum": false, "notes": [{"time": 0, "pitch": 62, "duration": 12, "velocity": 64}, {"time": 12, "pitch": 62, "duration": 12, "velocity": 64}, {"time": 24, "pitch": 69, "duration": 12, "velocity": 64}, {"time": 36, "pitch": 69, "duration": 12, "velocity": 64}, {"time": 48, "pitch": 69, "duration": 12, "velocity": 64}, {"time": 60, "pitch": 71, "duration": 12, "velocity": 64}, {"time": 72, "pitch": 69, "duration": 12, "velocity": 64}, {"time": 84, "pitch": 67, "duration": 24, "velocity": 64}, {"time": 108, "pitch": 69, "duration": 8, "velocity": 64}, {"time": 116, "pitch": 71, "duration": 8, "velocity": 64}, {"time": 124, "pitch": 73, "duration": 8, "velocity": 64}, {"time": 132, "pitch": 74, "duration": 24, "velocity": 64}, {"time": 156, "pitch": 69, "duration": 24, "velocity": 64}, {"time": 192, "pitch": 62, "duration": 12, "velocity": 64}, {"time": 204, "pitch": 62, "duration": 12, "velocity": 64}, {"time": 216, "pitch": 69, "duration": 12, "velocity": 64}, {"time": 228, "pitch": 69, "duration": 12, "velocity": 64}, {"time": 240, "pitch": 69, "duration": 12, "velocity": 64}, {"time": 252, "pitch": 71, "duration": 12, "velocity": 64}, {"time": 264, "pitch": 69, "duration": 12, "velocity": 64}, {"time": 276, "pitch": 67, "duration": 24, "velocity": 64}, {"time": 300, "pitch": 69, "duration": 8, "velocity": 64}, {"time": 308, "pitch": 71, "duration": 8, "velocity": 64}, {"time": 316, "pitch": 73, "duration": 8, "velocity": 64}, {"time": 324, "pitch": 74, "duration": 24, "velocity": 64}, {"time": 348, "pitch": 69, "duration": 24, "velocity": 64}, {"time": 384, "pitch": 69, "duration": 6, "velocity": 64}, {"time": 390, "pitch": 69, "duration": 6, "velocity": 64}, {"time": 396, "pitch": 74, "duration": 8, "velocity": 64}, {"time": 404, "pitch": 74, "duration": 8, "velocity": 64}, {"time": 412, "pitch": 74, "duration": 8, "velocity": 64}, {"time": 420, "pitch": 72, "duration": 12, "velocity": 64}, {"time": 432, "pitch": 69, "duration": 12, "velocity": 64}, {"time": 444, "pitch": 72, "duration": 12, "velocity": 64}, {"time": 456, "pitch": 73, "duration": 12, "velocity": 64}, {"time": 468, "pitch": 65, "duration": 24, "velocity": 64}, {"time": 492, "pitch": 67, "duration": 8, "velocity": 64}, {"time": 500, "pitch": 67, "duration": 8, "velocity": 64}, {"time": 508, "pitch": 67, "duration": 8, "velocity": 64}, {"time": 516, "pitch": 69, "duration": 8, "velocity": 64}, {"time": 524, "pitch": 69, "duration": 8, "velocity": 64}, {"time": 532, "pitch": 69, "duration": 8, "velocity": 64}, {"time": 540, "pitch": 70, "duration": 12, "velocity": 64}, {"time": 552, "pitch": 67, "duration": 12, "velocity": 64}, {"time": 564, "pitch": 69, "duration": 24, "velocity": 64}, {"time": 588, "pitch": 67, "duration": 12, "velocity": 64}, {"time": 600, "pitch": 64, "duration": 12, "velocity": 64}, {"time": 612, "pitch": 65, "duration": 12, "velocity": 64}, {"time": 624, "pitch": 62, "duration": 12, "velocity": 64}, {"time": 636, "pitch": 64, "duration": 12, "velocity": 64}, {"time": 648, "pitch": 64, "duration": 12, "velocity": 64}, {"time": 660, "pitch": 62, "duration": 24, "velocity": 64}, {"time": 684, "pitch": 69, "duration": 8, "velocity": 64}, {"time": 692, "pitch": 69, "duration": 8, "velocity": 64}, {"time": 700, "pitch": 69, "duration": 8, "velocity": 64}, {"time": 708, "pitch": 74, "duration": 24, "velocity": 64}, {"time": 732, "pitch": 69, "duration": 24, "velocity": 64}]}]}