{"metadata": {"schema_version": "0.1", "title": "Der Maedchenmoerder (Halewijn - Ulinger)", "source_format": "abc"}, "resolution": 24, "tempos": [{"time": 0, "qpm": 120.0}], "key_signatures": [{"time": 0, "root": 7, "mode": "major", "fifths": 1}], "time_signatures": [{"time": 0, "numerator": 3, "denominator": 2}], "beats": [{"time": 0, "is_downbeat": true}, {"time": 36, "is_downbeat": true}, {"time": 84, "is_downbeat": false}, {"time": 132, "is_downbeat": false}, {"time": 180, "is_downbeat": true}, {"time": 228, "is_downbeat": false}, {"time": 276, "is_downbeat": false}, {"time": 324, "is_downbeat": true}, {"time": 372, "is_downbeat": false}, {"time": 420, "is_downbeat": false}, {"time": 468, "is_downbeat": true}, {"time": 516, "is_downbeat": false}, {"time": 564, "is_downbeat": false}, {"time": 612, "is_downbeat": true}, {"time": 660, "is_downbeat": false}, {"time": 708, "is_downbeat": false}, {"time": 756, "is_downbeat": true}, {"time": 804, "is_downbeat": false}, {"time": 852, "is_downbeat": false}, {"time": 900, "is_downbeat": true}, {"time": 948, "is_downbeat": false}, {"time": 996, "is_downbeat": false}, {"time": 1044, "is_downbeat": true}, {"time": 1092, "is_downbeat": false}, {"time": 1140, "is_downbeat": false}, {"time": 1188, "is_downbeat": true}, {"time": 1236, "is_downbeat": false}, {"time": 1284, "is_downbeat": false}, {"time": 1332, "is_downbeat": true}, {"time": 1380, "is_downbeat": false}, {"time": 1428, "is_downbeat": false}, {"time": 1476, "is_downbeat": true}, {"time": 1524, "is_downbeat": false}, {"time": 1572, "is_downbeat": false}, {"time": 1620, "is_downbeat": true}, {"time": 1668, "is_downbeat": false}, {"time": 1716, "is_downbeat": false}], "tracks": [{"program": 0, "is_drum": false, "notes": [{"time": 0, "pitch": 67, "duration": 12, "velocity": 64}, {"time": 12, "pitch": 67, "duration": 12, "velocity": 64}, {"time": 24, "pitch": 69, "duration": 12, "velocity": 64}, {"time": 36, "pitch": 71, "duration": 48, "velocity": 64}, {"time": 84, "pitch": 69, "duration": 48, "velocity": 64}, {"time": 132, "pitch": 71, "duration": 24, "velocity": 64}, {"time": 156, "pitch": 72, "duration": 12, "velocity": 64}, {"time": 168, "pitch": 71, "duration": 12, "velocity": 64}, {"time": 180, "pitch": 69, "duration": 48, "velocity": 64}, {"time": 252, "pitch": 71, "duration": 12, "velocity": 64}, {"time": 264, "pitch": 69, "duration": 12, "velocity": 64}, {"time": 276, "pitch": 67, "duration": 24, "velocity": 64}, {"time": 300, "pitch": 67, "duration": 12, "velocity": 64}, {"time": 312, "pitch": 66, "duration": 12, "velocity": 64}, {"time": 324, "pitch": 67, "duration": 48, "velocity": 64}, {"time": 372, "pitch": 71, "duration": 48, "velocity": 64}, {"time": 420, "pitch": 69, "duration": 24, "velocity": 64}, {"time": 444, "pitch": 71, "duration": 12, "velocity": 64}, {"time": 456, "pitch": 69, "duration": 12, "velocity": 64}, {"time": 468, "pitch": 67, "duration": 72, "velocity": 64}, {"time": 588, "pitch": 69, "duration": 24, "velocity": 64}, {"time": 612, "pitch": 66, "duration": 24, "velocity": 64}, {"time": 636, "pitch": 64, "duration": 24, "velocity": 64}, {"time": 660, "pitch": 66, "duration": 24, "velocity": 64}, {"time": 684, "pitch": 62, "duration": 24, "velocity": 64}, {"time": 708, "pitch": 64, "duration": 24, "velocity": 64}, {"time": 732, "pitch": 66, "duration": 24, "velocity": 64}, {"time": 756, "pitch": 67, "duration": 48, "velocity": 64}, {"time": 804, "pitch": 69, "duration": 12, "velocity": 64}, {"time": 816, "pitch": 71, "duration": 12, "velocity": 64}, {"time": 828, "pitch": 69, "duration": 48, "velocity": 64}, {"time": 876, "pitch": 71, "duration": 24, "velocity": 64}, {"time": 900, "pitch": 64, "duration": 48, "velocity": 64}, {"time": 948, "pitch": 64, "duration": 24, "velocity": 64}, {"time": 972, "pitch": 62, "duration": 36, "velocity": 64}, {"time": 1008, "pitch": 67, "duration": 12, "velocity": 64}, {"time": 1020, "pitch": 67, "duration": 24, "velocity": 64}, {"time": 1044, "pitch": 69, "duration": 72, "velocity": 64}, {"time": 1116, "pitch": 67, "duration": 48, "velocity": 64}, {"time": 1164, "pitch": 69, "duration": 24, "velocity": 64}, {"time": 1188, "pitch": 66, "duration": 24, "velocity": 64}, {"time": 1212, "pitch": 64, "duration": 24, "velocity": 64}, {"time": 1236, "pitch": 66, "duration": 24, "velocity": 64}, {"time": 1260, "pitch": 62, "duration": 24, "velocity": 64}, {"time": 1284, "pitch": 64, "duration": 24, "velocity": 64}, {"time": 1308, "pitch": 66, "duration": 24, "velocity": 64}, {"time": 1332, "pitch": 67, "duration": 48, "velocity": 64}, {"time": 1380, "pitch": 69, "duration": 12, "velocity": 64}, {"time": 1392, "pitch": 71, "duration": 12, "velocity": 64}, {"time": 1404, "pitch": 69, "duration": 48, "velocity": 64}, {"time": 1452, "pitch": 71, "duration": 24, "velocity": 64}, {"time": 1476, "pitch": 64, "duration": 48, "velocity": 64}, {"time": 1524, "pitch": 64, "duration": 24, "velocity": 64}, {"time": 1548, "pitch": 62, "duration": 36, "velocity": 64}, {"time": 1584, "pitch": 67, "duration": 12, "velocity": 64}, {"time": 1596, "pitch": 67, "duration": 24, "velocity": 64}, {"time": 1620, "pitch": 69, "duration": 72, "velocity": 64}, {"time": 1692, "pitch": 67, "duration": 36, "velocity": 64}]}]}