{"metadata": {"schema_version": "0.1", "title": "Der betruegerische Freier", "source_format": "abc"}, "resolution": 24, "tempos": [{"time": 0, "qpm": 120.0}], "key_signatures": [{"time": 0, "root": 9, "mode": "major", "fifths": 3}], "time_signatures": [{"time": 0, "numerator": 2, "denominator": 4}], "beats": [{"time": 0, "is_downbeat": true}, {"time": 6, "is_downbeat": true}, {"time": 30, "is_downbeat": false}, {"time": 54, "is_downbeat": true}, {"time": 78, "is_downbeat": false}, {"time": 102, "is_downbeat": true}, {"time": 126, "is_downbeat": false}, {"time": 150, "is_downbeat": true}, {"time": 174, "is_downbeat": false}, {"time": 198, "is_downbeat": true}, {"time": 222, "is_downbeat": false}, {"time": 246, "is_downbeat": true}, {"time": 270, "is_downbeat": false}, {"time": 294, "is_downbeat": true}, {"time": 318, "is_downbeat": false}, {"time": 342, "is_downbeat": true}, {"time": 366, "is_downbeat": false}, {"time": 390, "is_downbeat": true}, {"time": 414, "is_downbeat": false}, {"time": 438, "is_downbeat": true}, {"time": 462, "is_downbeat": false}, {"time": 486, "is_downbeat": true}, {"time": 510, "is_downbeat": false}, {"time": 534, "is_downbeat": true}, {"time": 558, "is_downbeat": false}], "tracks": [{"program": 0, "is_drum": false, "notes": [{"time": 0, "pitch": 67, "duration": 6, "velocity": 64}, {"time": 6, "pitch": 67, "duration": 18, "velocity": 64}, {"time": 24, "pitch": 72, "duration": 6, "velocity": 64}, {"time": 30, "pitch": 73, "duration": 12, "velocity": 64}, {"time": 42, "pitch": 69, "duration": 12, "velocity": 64}, {"time": 54, "pitch": 69, "duration": 18, "velocity": 64}, {"time": 72, "pitch": 67, "duration": 6, "velocity": 64}, {"time": 78, "pitch": 68, "duration": 12, "velocity": 64}, {"time": 96, "pitch": 68, "duration": 6, "velocity": 64}, {"time": 102, "pitch": 72, "duration": 18, "velocity": 64}, {"time": 120, "pitch": 73, "duration": 6, "velocity": 64}, {"time": 126, "pitch": 74, "duration": 18, "velocity": 64}, {"time": 144, "pitch": 74, "duration": 6, "velocity": 64}, {"time": 150, "pitch": 74, "duration": 24, "velocity": 64}, {"time": 174, "pitch": 76, "duration": 12, "velocity": 64}, {"time": 192, "pitch": 72, "duration": 6, "velocity": 64}, {"time": 198, "pitch": 71, "duration": 18, "velocity": 64}, {"time": 216, "pitch": 69, "duration": 6, "velocity": 64}, {"time": 222, "pitch": 71, "duration": 12, "velocity": 64}, {"time": 234, "pitch": 72, "duration": 12, "velocity": 64}, {"time": 246, "pitch": 74, "duration": 24, "velocity": 64}, {"time": 270, "pitch": 76, "duration": 24, "velocity": 64}, {"time": 294, "pitch": 69, "duration": 18, "velocity": 64}, {"time": 312, "pitch": 71, "duration": 6, "velocity": 64}, {"time": 318, "pitch": 72, "duration": 12, "velocity": 64}, {"time": 330, "pitch": 69, "duration": 12, "velocity": 64}, {"time": 342, "pitch": 71, "duration": 12, "velocity": 64}, {"time": 354, "pitch": 64, "duration": 12, "velocity": 64}, {"time": 366, "pitch": 64, "duration": 12, "velocity": 64}, {"time": 378, "pitch": 72, "duration": 12, "velocity": 64}, {"time": 390, "pitch": 71, "duration": 18, "velocity": 64}, {"time": 408, "pitch": 69, "duration": 6, "velocity": 64}, {"time": 414, "pitch": 71, "duration": 12, "velocity": 64}, {"time": 426, "pitch": 72, "duration": 12, "velocity": 64}, {"time": 438, "pitch": 74, "duration": 24, "velocity": 64}, {"time": 462, "pitch": 76, "duration": 12, "velocity": 64}, {"time": 480, "pitch": 74, "duration": 6, "velocity": 64}, {"time": 486, "pitch": 72, "duration": 12, "velocity": 64}, {"time": 498, "pitch": 69, "duration": 12, "velocity": 64}, {"time": 510, "pitch": 71, "duration": 12, "velocity": 64}, {"time": 522, "pitch": 68, "duration": 12, "velocity": 64}, {"time": 534, "pitch": 69, "duration": 24, "velocity": 64}]}]}