{"metadata": {"schema_version": "0.1", "title": "Graf Friedrich", "source_format": "abc"}, "resolution": 24, "tempos": [{"time": 0, "qpm": 120.0}], "key_signatures": [{"time": 0, "root": 5, "mode": "major", "fifths": -1}], "time_signatures": [{"time": 0, "numerator": 4, "denominator": 4}], "beats": [{"time": 0, "is_downbeat": true}, {"time": 24, "is_downbeat": true}, {"time": 48, "is_downbeat": false}, {"time": 72, "is_downbeat": false}, {"time": 96, "is_downbeat": false}, {"time": 120, "is_downbeat": true}, {"time": 144, "is_downbeat": false}, {"time": 168, "is_downbeat": false}, {"time": 192, "is_downbeat": true}, {"time": 216, "is_downbeat": false}, {"time": 240, "is_downbeat": false}, {"time": 264, "is_downbeat": false}, {"time": 288, "is_downbeat": true}, {"time": 312, "is_downbeat": false}, {"time": 336, "is_downbeat": false}, {"time": 360, "is_downbeat": false}, {"time": 366, "is_downbeat": true}, {"time": 390, "is_downbeat": false}, {"time": 414, "is_downbeat": false}, {"time": 438, "is_downbeat": false}, {"time": 450, "is_downbeat": true}, {"time": 474, "is_downbeat": false}, {"time": 498, "is_downbeat": false}, {"time": 522, "is_downbeat": true}, {"time": 546, "is_downbeat": false}, {"time": 570, "is_downbeat": false}, {"time": 594, "is_downbeat": false}, {"time": 618, "is_downbeat": true}, {"time": 642, "is_downbeat": false}, {"time": 666, "is_downbeat": false}, {"time": 690, "is_downbeat": false}, {"time": 714, "is_downbeat": true}, {"time": 738, "is_downbeat": true}, {"time": 762, "is_downbeat": false}, {"time": 786, "is_downbeat": false}, {"time": 810, "is_downbeat": false}], "tracks": [{"program": 0, "is_drum": false, "notes": [{"time": 0, "pitch": 60, "duration": 24, "velocity": 64}, {"time": 24, "pitch": 65, "duration": 12, "velocity": 64}, {"time": 36, "pitch": 65, "duration": 12, "velocity": 64}, {"time": 48, "pitch": 65, "duration": 24, "velocity": 64}, {"time": 72, "pitch": 67, "duration": 36, "velocity": 64}, {"time": 108, "pitch": 69, "duration": 12, "velocity": 64}, {"time": 120, "pitch": 70, "duration": 12, "velocity": 64}, {"time": 132, "pitch": 69, "duration": 12, "velocity": 64}, {"time": 144, "pitch": 67, "duration": 24, "velocity": 64}, {"time": 168, "pitch": 69, "duration": 12, "velocity": 64}, {"time": 180, "pitch": 67, "duration": 12, "velocity": 64}, {"time": 192, "pitch": 65, "duration": 24, "velocity": 64}, {"time": 216, "pitch": 60, "duration": 24, "velocity": 64}, {"time": 240, "pitch": 65, "duration": 12, "velocity": 64}, {"time": 252, "pitch": 65, "duration": 12, "velocity": 64}, {"time": 264, "pitch": 67, "duration": 12, "velocity": 64}, {"time": 276, "pitch": 69, "duration": 12, "velocity": 64}, {"time": 288, "pitch": 70, "duration": 12, "velocity": 64}, {"time": 300, "pitch": 72, "duration": 12, "velocity": 64}, {"time": 312, "pitch": 67, "duration": 24, "velocity": 64}, {"time": 348, "pitch": 67, "duration": 18, "velocity": 64}, {"time": 366, "pitch": 65, "duration": 12, "velocity": 64}, {"time": 378, "pitch": 64, "duration": 12, "velocity": 64}, {"time": 390, "pitch": 62, "duration": 12, "velocity": 64}, {"time": 402, "pitch": 60, "duration": 18, "velocity": 64}, {"time": 420, "pitch": 62, "duration": 6, "velocity": 64}, {"time": 426, "pitch": 60, "duration": 12, "velocity": 64}, {"time": 438, "pitch": 60, "duration": 12, "velocity": 64}, {"time": 450, "pitch": 65, "duration": 24, "velocity": 64}, {"time": 474, "pitch": 67, "duration": 12, "velocity": 64}, {"time": 486, "pitch": 67, "duration": 12, "velocity": 64}, {"time": 498, "pitch": 69, "duration": 12, "velocity": 64}, {"time": 510, "pitch": 65, "duration": 12, "velocity": 64}, {"time": 522, "pitch": 67, "duration": 24, "velocity": 64}, {"time": 546, "pitch": 70, "duration": 12, "velocity": 64}, {"time": 558, "pitch": 70, "duration": 12, "velocity": 64}, {"time": 570, "pitch": 69, "duration": 24, "velocity": 64}, {"time": 594, "pitch": 67, "duration": 24, "velocity": 64}, {"time": 618, "pitch": 65, "duration": 24, "velocity": 64}, {"time": 642, "pitch": 60, "duration": 24, "velocity": 64}, {"time": 666, "pitch": 65, "duration": 12, "velocity": 64}, {"time": 678, "pitch": 67, "duration": 12, "velocity": 64}, {"time": 690, "pitch": 69, "duration": 12, "velocity": 64}, {"time": 702, "pitch": 69, "duration": 12, "velocity": 64}, {"time": 714, "pitch": 67, "duration": 24, "velocity": 64}, {"time": 738, "pitch": 65, "duration": 24, "velocity": 64}]}]}