{"metadata": {"schema_version": "0.1", "title": "Graf Friedrich", "source_format": "abc"}, "resolution": 24, "tempos": [{"time": 0, "qpm": 120.0}], "key_signatures": [{"time": 0, "root": 0, "mode": "major", "fifths": 0}], "time_signatures": [{"time": 0, "numerator": 2, "denominator": 4}], "beats": [{"time": 0, "is_downbeat": true}, {"time": 12, "is_downbeat": true}, {"time": 36, "is_downbeat": false}, {"time": 60, "is_downbeat": true}, {"time": 84, "is_downbeat": false}, {"time": 108, "is_downbeat": true}, {"time": 132, "is_downbeat": false}, {"time": 156, "is_downbeat": true}, {"time": 180, "is_downbeat": false}, {"time": 204, "is_downbeat": true}, {"time": 228, "is_downbeat": false}, {"time": 252, "is_downbeat": true}, {"time": 276, "is_downbeat": false}, {"time": 300, "is_downbeat": true}, {"time": 324, "is_downbeat": false}, {"time": 348, "is_downbeat": true}, {"time": 372, "is_downbeat": false}, {"time": 396, "is_downbeat": true}, {"time": 420, "is_downbeat": false}, {"time": 444, "is_downbeat": true}, {"time": 468, "is_downbeat": false}, {"time": 492, "is_downbeat": true}, {"time": 516, "is_downbeat": false}, {"time": 540, "is_downbeat": true}, {"time": 564, "is_downbeat": false}], "tracks": [{"program": 0, "is_drum": false, "notes": [{"time": 0, "pitch": 55, "duration": 12, "velocity": 64}, {"time": 12, "pitch": 60, "duration": 18, "velocity": 64}, {"time": 30, "pitch": 55, "duration": 6, "velocity": 64}, {"time": 36, "pitch": 57, "duration": 12, "velocity": 64}, {"time": 48, "pitch": 60, "duration": 6, "velocity": 64}, {"time": 54, "pitch": 57, "duration": 6, "velocity": 64}, {"time": 60, "pitch": 55, "duration": 18, "velocity": 64}, {"time": 78, "pitch": 53, "duration": 6, "velocity": 64}, {"time": 84, "pitch": 52, "duration": 12, "velocity": 64}, {"time": 96, "pitch": 55, "duration": 12, "velocity": 64}, {"time": 108, "pitch": 60, "duration": 18, "velocity": 64}, {"time": 126, "pitch": 55, "duration": 6, "velocity": 64}, {"time": 132, "pitch": 57, "duration": 12, "velocity": 64}, {"time": 144, "pitch": 60, "duration": 6, "velocity": 64}, {"time": 150, "pitch": 57, "duration": 6, "velocity": 64}, {"time": 156, "pitch": 55, "duration": 18, "velocity": 64}, {"time": 174, "pitch": 53, "duration": 6, "velocity": 64}, {"time": 180, "pitch": 52, "duration": 12, "velocity": 64}, {"time": 192, "pitch": 60, "duration": 12, "velocity": 64}, {"time": 204, "pitch": 62, "duration": 6, "velocity": 64}, {"time": 210, "pitch": 60, "duration": 6, "velocity": 64}, {"time": 216, "pitch": 59, "duration": 6, "velocity": 64}, {"time": 222, "pitch": 57, "duration": 6, "velocity": 64}, {"time": 228, "pitch": 55, "duration": 12, "velocity": 64}, {"time": 240, "pitch": 60, "duration": 12, "velocity": 64}, {"time": 252, "pitch": 64, "duration": 6, "velocity": 64}, {"time": 258, "pitch": 65, "duration": 6, "velocity": 64}, {"time": 264, "pitch": 64, "duration": 6, "velocity": 64}, {"time": 270, "pitch": 62, "duration": 6, "velocity": 64}, {"time": 276, "pitch": 64, "duration": 6, "velocity": 64}, {"time": 282, "pitch": 62, "duration": 6, "velocity": 64}, {"time": 288, "pitch": 60, "duration": 6, "velocity": 64}, {"time": 294, "pitch": 60, "duration": 6, "velocity": 64}, {"time": 300, "pitch": 62, "duration": 6, "velocity": 64}, {"time": 306, "pitch": 60, "duration": 6, "velocity": 64}, {"time": 312, "pitch": 59, "duration": 6, "velocity": 64}, {"time": 318, "pitch": 57, "duration": 6, "velocity": 64}, {"time": 324, "pitch": 55, "duration": 12, "velocity": 64}, {"time": 336, "pitch": 60, "duration": 12, "velocity": 64}, {"time": 348, "pitch": 64, "duration": 6, "velocity": 64}, {"time": 354, "pitch": 62, "duration": 6, "velocity": 64}, {"time": 360, "pitch": 62, "duration": 12, "velocity": 64}, {"time": 372, "pitch": 60, "duration": 12, "velocity": 64}, {"time": 384, "pitch": 60, "duration": 12, "velocity": 64}, {"time": 396, "pitch": 62, "duration": 6, "velocity": 64}, {"time": 402, "pitch": 60, "duration": 6, "velocity": 64}, {"time": 408, "pitch": 59, "duration": 6, "velocity": 64}, {"time": 414, "pitch": 57, "duration": 6, "velocity": 64}, {"time": 420, "pitch": 55, "duration": 12, "velocity": 64}, {"time": 432, "pitch": 60, "duration": 12, "velocity": 64}, {"time": 444, "pitch": 64, "duration": 6, "velocity": 64}, {"time": 450, "pitch": 65, "duration": 6, "velocity": 64}, {"time": 456, "pitch": 64, "duration": 6, "velocity": 64}, {"time": 462, "pitch": 62, "duration": 6, "velocity": 64}, {"time": 468, "pitch": 64, "duration": 6, "velocity": 64}, {"time": 474, "pitch": 62, "duration": 6, "velocity": 64}, {"time": 480, "pitch": 60, "duration": 6, "velocity": 64}, {"time": 486, "pitch": 60, "duration": 6, "velocity": 64}, {"time": 492, "pitch": 62, "duration": 6, "velocity": 64}, {"time": 498, "pitch": 60, "duration": 6, "velocity": 64}, {"time": 504, "pitch": 59, "duration": 6, "velocity": 64}, {"time": 510, "pitch": 57, "duration": 6, "velocity": 64}, {"time": 516, "pitch": 55, "duration": 12, "velocity": 64}, {"time": 528, "pitch": 60, "duration": 12, "velocity": 64}, {"time": 540, "pitch": 64, "duration": 6, "velocity": 64}, {"time": 546, "pitch": 62, "duration": 6, "velocity": 64}, {"time": 552, "pitch": 62, "duration": 12, "velocity": 64}, {"time": 564, "pitch": 60, "duration": 12, "velocity": 64}]}]}