{"metadata": {"schema_version": "0.1", "title": "Die elfjaehrige Markgraefin", "source_format": "abc"}, "resolution": 24, "tempos": [{"time": 0, "qpm": 120.0}], "key_signatures": [{"time": 0, "root": 5, "mode": "major", "fifths": -1}], "time_signatures": [{"time": 0, "numerator": 4, "denominator": 4}, {"time": 824, "numerator": 4, "denominator": 3}, {"time": 856, "numerator": 4, "denominator": 4}], "beats": [{"time": 0, "is_downbeat": true}, {"time": 32, "is_downbeat": false}, {"time": 60, "is_downbeat": true}, {"time": 92, "is_downbeat": false}, {"time": 124, "is_downbeat": false}, {"time": 156, "is_downbeat": true}, {"time": 188, "is_downbeat": false}, {"time": 220, "is_downbeat": false}, {"time": 252, "is_downbeat": true}, {"time": 284, "is_downbeat": false}, {"time": 316, "is_downbeat": false}, {"time": 348, "is_downbeat": true}, {"time": 380, "is_downbeat": false}, {"time": 412, "is_downbeat": false}, {"time": 444, "is_downbeat": true}, {"time": 476, "is_downbeat": false}, {"time": 508, "is_downbeat": false}, {"time": 540, "is_downbeat": true}, {"time": 572, "is_downbeat": false}, {"time": 604, "is_downbeat": false}, {"time": 632, "is_downbeat": true}, {"time": 664, "is_downbeat": false}, {"time": 696, "is_downbeat": false}, {"time": 728, "is_downbeat": true}, {"time": 760, "is_downbeat": false}, {"time": 792, "is_downbeat": false}, {"time": 824, "is_downbeat": true}, {"time": 848, "is_downbeat": false}, {"time": 856, "is_downbeat": true}, {"time": 880, "is_downbeat": false}, {"time": 904, "is_downbeat": false}, {"time": 928, "is_downbeat": false}, {"time": 952, "is_downbeat": true}, {"time": 976, "is_downbeat": false}, {"time": 1000, "is_downbeat": false}, {"time": 1024, "is_downbeat": false}], "tracks": [{"program": 0, "is_drum": false, "notes": [{"time": 0, "pitch": 65, "duration": 12, "velocity": 64}, {"time": 12, "pitch": 65, "duration": 24, "velocity": 64}, {"time": 36, "pitch": 72, "duration": 24, "velocity": 64}, {"time": 60, "pitch": 69, "duration": 24, "velocity": 64}, {"time": 84, "pitch": 65, "duration": 24, "velocity": 64}, {"time": 108, "pitch": 65, "duration": 24, "velocity": 64}, {"time": 132, "pitch": 67, "duration": 24, "velocity": 64}, {"time": 156, "pitch": 65, "duration": 24, "velocity": 64}, {"time": 180, "pitch": 65, "duration": 12, "velocity": 64}, {"time": 192, "pitch": 65, "duration": 12, "velocity": 64}, {"time": 204, "pitch": 69, "duration": 24, "velocity": 64}, {"time": 228, "pitch": 70, "duration": 24, "velocity": 64}, {"time": 252, "pitch": 72, "duration": 24, "velocity": 64}, {"time": 276, "pitch": 77, "duration": 24, "velocity": 64}, {"time": 300, "pitch": 76, "duration": 24, "velocity": 64}, {"time": 324, "pitch": 74, "duration": 24, "velocity": 64}, {"time": 348, "pitch": 72, "duration": 36, "velocity": 64}, {"time": 384, "pitch": 72, "duration": 12, "velocity": 64}, {"time": 396, "pitch": 77, "duration": 24, "velocity": 64}, {"time": 420, "pitch": 77, "duration": 24, "velocity": 64}, {"time": 444, "pitch": 72, "duration": 32, "velocity": 64}, {"time": 476, "pitch": 72, "duration": 16, "velocity": 64}, {"time": 492, "pitch": 72, "duration": 32, "velocity": 64}, {"time": 524, "pitch": 72, "duration": 16, "velocity": 64}, {"time": 540, "pitch": 69, "duration": 8, "velocity": 64}, {"time": 548, "pitch": 69, "duration": 12, "velocity": 64}, {"time": 584, "pitch": 72, "duration": 24, "velocity": 64}, {"time": 608, "pitch": 72, "duration": 24, "velocity": 64}, {"time": 632, "pitch": 65, "duration": 32, "velocity": 64}, {"time": 664, "pitch": 65, "duration": 16, "velocity": 64}, {"time": 680, "pitch": 69, "duration": 32, "velocity": 64}, {"time": 712, "pitch": 70, "duration": 16, "velocity": 64}, {"time": 728, "pitch": 69, "duration": 32, "velocity": 64}, {"time": 760, "pitch": 72, "duration": 48, "velocity": 64}, {"time": 808, "pitch": 69, "duration": 48, "velocity": 64}, {"time": 856, "pitch": 67, "duration": 48, "velocity": 64}, {"time": 904, "pitch": 65, "duration": 24, "velocity": 64}, {"time": 928, "pitch": 67, "duration": 24, "velocity": 64}, {"time": 952, "pitch": 65, "duration": 36, "velocity": 64}]}]}