{"metadata": {"schema_version": "0.1", "title": "Die elfjaehrige Markgraefin", "source_format": "abc"}, "resolution": 24, "tempos": [{"time": 0, "qpm": 120.0}], "key_signatures": [{"time": 0, "root": 5, "mode": "major", "fifths": -1}], "time_signatures": [{"time": 0, "numerator": 3, "denominator": 2}], "beats": [{"time": 0, "is_downbeat": true}, {"time": 48, "is_downbeat": false}, {"time": 96, "is_downbeat": true}, {"time": 144, "is_downbeat": false}, {"time": 192, "is_downbeat": false}, {"time": 240, "is_downbeat": true}, {"time": 288, "is_downbeat": false}, {"time": 336, "is_downbeat": false}, {"time": 384, "is_downbeat": true}, {"time": 432, "is_downbeat": false}, {"time": 480, "is_downbeat": false}, {"time": 528, "is_downbeat": true}, {"time": 576, "is_downbeat": false}, {"time": 624, "is_downbeat": true}, {"time": 672, "is_downbeat": false}, {"time": 720, "is_downbeat": true}, {"time": 768, "is_downbeat": false}, {"time": 816, "is_downbeat": true}, {"time": 864, "is_downbeat": false}, {"time": 912, "is_downbeat": false}, {"time": 960, "is_downbeat": true}, {"time": 1008, "is_downbeat": false}, {"time": 1056, "is_downbeat": true}, {"time": 1104, "is_downbeat": false}, {"time": 1152, "is_downbeat": false}, {"time": 1200, "is_downbeat": true}, {"time": 1248, "is_downbeat": false}, {"time": 1296, "is_downbeat": false}], "tracks": [{"program": 0, "is_drum": false, "notes": [{"time": 0, "pitch": 65, "duration": 48, "velocity": 64}, {"time": 48, "pitch": 67, "duration": 24, "velocity": 64}, {"time": 72, "pitch": 67, "duration": 24, "velocity": 64}, {"time": 96, "pitch": 69, "duration": 24, "velocity": 64}, {"time": 120, "pitch": 65, "duration": 24, "velocity": 64}, {"time": 144, "pitch": 72, "duration": 24, "velocity": 64}, {"time": 168, "pitch": 70, "duration": 12, "velocity": 64}, {"time": 180, "pitch": 69, "duration": 12, "velocity": 64}, {"time": 192, "pitch": 69, "duration": 24, "velocity": 64}, {"time": 216, "pitch": 67, "duration": 12, "velocity": 64}, {"time": 228, "pitch": 67, "duration": 12, "velocity": 64}, {"time": 240, "pitch": 65, "duration": 48, "velocity": 64}, {"time": 288, "pitch": 72, "duration": 48, "velocity": 64}, {"time": 336, "pitch": 74, "duration": 24, "velocity": 64}, {"time": 360, "pitch": 74, "duration": 24, "velocity": 64}, {"time": 384, "pitch": 72, "duration": 24, "velocity": 64}, {"time": 408, "pitch": 76, "duration": 24, "velocity": 64}, {"time": 432, "pitch": 77, "duration": 36, "velocity": 64}, {"time": 468, "pitch": 77, "duration": 12, "velocity": 64}, {"time": 480, "pitch": 76, "duration": 12, "velocity": 64}, {"time": 492, "pitch": 72, "duration": 12, "velocity": 64}, {"time": 504, "pitch": 74, "duration": 24, "velocity": 64}, {"time": 528, "pitch": 72, "duration": 24, "velocity": 64}, {"time": 564, "pitch": 72, "duration": 12, "velocity": 64}, {"time": 576, "pitch": 77, "duration": 36, "velocity": 64}, {"time": 612, "pitch": 76, "duration": 12, "velocity": 64}, {"time": 624, "pitch": 74, "duration": 36, "velocity": 64}, {"time": 660, "pitch": 74, "duration": 12, "velocity": 64}, {"time": 672, "pitch": 72, "duration": 12, "velocity": 64}, {"time": 684, "pitch": 69, "duration": 12, "velocity": 64}, {"time": 696, "pitch": 70, "duration": 24, "velocity": 64}, {"time": 720, "pitch": 69, "duration": 36, "velocity": 64}, {"time": 756, "pitch": 67, "duration": 12, "velocity": 64}, {"time": 768, "pitch": 65, "duration": 24, "velocity": 64}, {"time": 792, "pitch": 67, "duration": 24, "velocity": 64}, {"time": 816, "pitch": 69, "duration": 24, "velocity": 64}, {"time": 840, "pitch": 74, "duration": 24, "velocity": 64}, {"time": 864, "pitch": 72, "duration": 36, "velocity": 64}, {"time": 900, "pitch": 70, "duration": 12, "velocity": 64}, {"time": 912, "pitch": 69, "duration": 12, "velocity": 64}, {"time": 924, "pitch": 69, "duration": 12, "velocity": 64}, {"time": 936, "pitch": 67, "duration": 12, "velocity": 64}, {"time": 948, "pitch": 67, "duration": 12, "velocity": 64}, {"time": 960, "pitch": 65, "duration": 36, "velocity": 64}, {"time": 996, "pitch": 64, "duration": 12, "velocity": 64}, {"time": 1008, "pitch": 65, "duration": 24, "velocity": 64}, {"time": 1032, "pitch": 67, "duration": 24, "velocity": 64}, {"time": 1056, "pitch": 69, "duration": 24, "velocity": 64}, {"time": 1080, "pitch": 74, "duration": 24, "velocity": 64}, {"time": 1104, "pitch": 72, "duration": 36, "velocity": 64}, {"time": 1140, "pitch": 70, "duration": 12, "velocity": 64}, {"time": 1152, "pitch": 69, "duration": 12, "velocity": 64}, {"time": 1164, "pitch": 69, "duration": 12, "velocity": 64}, {"time": 1176, "pitch": 67, "duration": 12, "velocity": 64}, {"time": 1188, "pitch": 67, "duration": 12, "velocity": 64}, {"time": 1200, "pitch": 65, "duration": 48, "velocity": 64}]}]}