{"metadata": {"schema_version": "0.1", "title": "Ritter und Magd", "source_format": "abc"}, "resolution": 24, "tempos": [{"time": 0, "qpm": 120.0}], "key_signatures": [{"time": 0, "root": 7, "mode": "major", "fifths": 1}], "time_signatures": [{"time": 0, "numerator": 3, "denominator": 4}], "beats": [{"time": 0, "is_downbeat": true}, {"time": 24, "is_downbeat": false}, {"time": 36, "is_downbeat": true}, {"time": 60, "is_downbeat": false}, {"time": 84, "is_downbeat": false}, {"time": 108, "is_downbeat": true}, {"time": 132, "is_downbeat": false}, {"time": 156, "is_downbeat": false}, {"time": 180, "is_downbeat": true}, {"time": 204, "is_downbeat": false}, {"time": 228, "is_downbeat": true}, {"time": 252, "is_downbeat": false}, {"time": 276, "is_downbeat": true}, {"time": 300, "is_downbeat": false}, {"time": 324, "is_downbeat": true}, {"time": 348, "is_downbeat": false}, {"time": 372, "is_downbeat": false}, {"time": 396, "is_downbeat": true}, {"time": 420, "is_downbeat": false}, {"time": 444, "is_downbeat": true}, {"time": 468, "is_downbeat": false}, {"time": 492, "is_downbeat": true}, {"time": 516, "is_downbeat": false}, {"time": 540, "is_downbeat": true}, {"time": 564, "is_downbeat": false}, {"time": 588, "is_downbeat": true}, {"time": 612, "is_downbeat": false}, {"time": 636, "is_downbeat": false}, {"time": 660, "is_downbeat": true}, {"time": 684, "is_downbeat": false}, {"time": 708, "is_downbeat": true}, {"time": 732, "is_downbeat": false}, {"time": 756, "is_downbeat": true}, {"time": 780, "is_downbeat": false}, {"time": 804, "is_downbeat": true}, {"time": 828, "is_downbeat": false}, {"time": 852, "is_downbeat": false}], "tracks": [{"program": 0, "is_drum": false, "notes": [{"time": 0, "pitch": 69, "duration": 12, "velocity": 64}, {"time": 12, "pitch": 71, "duration": 8, "velocity": 64}, {"time": 20, "pitch": 71, "duration": 8, "velocity": 64}, {"time": 28, "pitch": 74, "duration": 8, "velocity": 64}, {"time": 36, "pitch": 71, "duration": 24, "velocity": 64}, {"time": 60, "pitch": 72, "duration": 24, "velocity": 64}, {"time": 84, "pitch": 74, "duration": 18, "velocity": 64}, {"time": 102, "pitch": 76, "duration": 6, "velocity": 64}, {"time": 108, "pitch": 74, "duration": 36, "velocity": 64}, {"time": 144, "pitch": 71, "duration": 12, "velocity": 64}, {"time": 156, "pitch": 72, "duration": 8, "velocity": 64}, {"time": 164, "pitch": 72, "duration": 8, "velocity": 64}, {"time": 172, "pitch": 74, "duration": 8, "velocity": 64}, {"time": 180, "pitch": 76, "duration": 8, "velocity": 64}, {"time": 188, "pitch": 76, "duration": 8, "velocity": 64}, {"time": 196, "pitch": 76, "duration": 8, "velocity": 64}, {"time": 204, "pitch": 76, "duration": 8, "velocity": 64}, {"time": 212, "pitch": 74, "duration": 8, "velocity": 64}, {"time": 220, "pitch": 76, "duration": 8, "velocity": 64}, {"time": 228, "pitch": 74, "duration": 24, "velocity": 64}, {"time": 252, "pitch": 71, "duration": 24, "velocity": 64}, {"time": 288, "pitch": 74, "duration": 12, "velocity": 64}, {"time": 300, "pitch": 76, "duration": 8, "velocity": 64}, {"time": 308, "pitch": 74, "duration": 8, "velocity": 64}, {"time": 316, "pitch": 76, "duration": 8, "velocity": 64}, {"time": 324, "pitch": 74, "duration": 24, "velocity": 64}, {"time": 348, "pitch": 74, "duration": 24, "velocity": 64}, {"time": 372, "pitch": 74, "duration": 8, "velocity": 64}, {"time": 380, "pitch": 72, "duration": 8, "velocity": 64}, {"time": 388, "pitch": 71, "duration": 8, "velocity": 64}, {"time": 396, "pitch": 72, "duration": 24, "velocity": 64}, {"time": 420, "pitch": 74, "duration": 18, "velocity": 64}, {"time": 438, "pitch": 72, "duration": 6, "velocity": 64}, {"time": 444, "pitch": 71, "duration": 8, "velocity": 64}, {"time": 452, "pitch": 69, "duration": 8, "velocity": 64}, {"time": 460, "pitch": 71, "duration": 8, "velocity": 64}, {"time": 468, "pitch": 74, "duration": 18, "velocity": 64}, {"time": 486, "pitch": 72, "duration": 6, "velocity": 64}, {"time": 492, "pitch": 69, "duration": 24, "velocity": 64}, {"time": 516, "pitch": 67, "duration": 24, "velocity": 64}, {"time": 552, "pitch": 74, "duration": 12, "velocity": 64}, {"time": 564, "pitch": 76, "duration": 8, "velocity": 64}, {"time": 572, "pitch": 78, "duration": 8, "velocity": 64}, {"time": 580, "pitch": 79, "duration": 8, "velocity": 64}, {"time": 588, "pitch": 74, "duration": 24, "velocity": 64}, {"time": 612, "pitch": 74, "duration": 18, "velocity": 64}, {"time": 630, "pitch": 76, "duration": 6, "velocity": 64}, {"time": 636, "pitch": 74, "duration": 8, "velocity": 64}, {"time": 644, "pitch": 72, "duration": 8, "velocity": 64}, {"time": 652, "pitch": 71, "duration": 8, "velocity": 64}, {"time": 660, "pitch": 72, "duration": 24, "velocity": 64}, {"time": 684, "pitch": 74, "duration": 18, "velocity": 64}, {"time": 702, "pitch": 72, "duration": 6, "velocity": 64}, {"time": 708, "pitch": 71, "duration": 8, "velocity": 64}, {"time": 716, "pitch": 69, "duration": 8, "velocity": 64}, {"time": 724, "pitch": 71, "duration": 8, "velocity": 64}, {"time": 732, "pitch": 74, "duration": 18, "velocity": 64}, {"time": 750, "pitch": 72, "duration": 6, "velocity": 64}, {"time": 756, "pitch": 69, "duration": 24, "velocity": 64}, {"time": 780, "pitch": 67, "duration": 24, "velocity": 64}]}]}