{"metadata": {"schema_version": "0.1", "title": "Ritter und Magd", "source_format": "abc"}, "resolution": 24, "tempos": [{"time": 0, "qpm": 120.0}], "key_signatures": [{"time": 0, "root": 10, "mode": "major", "fifths": -2}], "time_signatures": [{"time": 0, "numerator": 4, "denominator": 4}, {"time": 372, "numerator": 1, "denominator": 4}, {"time": 396, "numerator": 6, "denominator": 8}], "beats": [{"time": 0, "is_downbeat": true}, {"time": 12, "is_downbeat": true}, {"time": 36, "is_downbeat": true}, {"time": 60, "is_downbeat": true}, {"time": 84, "is_downbeat": true}, {"time": 108, "is_downbeat": true}, {"time": 132, "is_downbeat": true}, {"time": 156, "is_downbeat": true}, {"time": 180, "is_downbeat": true}, {"time": 204, "is_downbeat": true}, {"time": 228, "is_downbeat": true}, {"time": 252, "is_downbeat": true}, {"time": 276, "is_downbeat": true}, {"time": 300, "is_downbeat": true}, {"time": 324, "is_downbeat": true}, {"time": 348, "is_downbeat": true}, {"time": 372, "is_downbeat": true}, {"time": 384, "is_downbeat": false}, {"time": 396, "is_downbeat": true}, {"time": 408, "is_downbeat": false}, {"time": 420, "is_downbeat": false}, {"time": 432, "is_downbeat": false}, {"time": 444, "is_downbeat": false}, {"time": 456, "is_downbeat": false}, {"time": 468, "is_downbeat": true}, {"time": 480, "is_downbeat": false}, {"time": 492, "is_downbeat": true}, {"time": 504, "is_downbeat": false}, {"time": 516, "is_downbeat": false}, {"time": 528, "is_downbeat": false}, {"time": 540, "is_downbeat": false}, {"time": 552, "is_downbeat": false}, {"time": 564, "is_downbeat": true}, {"time": 576, "is_downbeat": false}, {"time": 588, "is_downbeat": false}, {"time": 600, "is_downbeat": false}, {"time": 612, "is_downbeat": false}, {"time": 624, "is_downbeat": false}], "tracks": [{"program": 0, "is_drum": false, "notes": [{"time": 0, "pitch": 70, "duration": 12, "velocity": 64}, {"time": 12, "pitch": 74, "duration": 18, "velocity": 64}, {"time": 30, "pitch": 70, "duration": 6, "velocity": 64}, {"time": 36, "pitch": 70, "duration": 12, "velocity": 64}, {"time": 48, "pitch": 70, "duration": 12, "velocity": 64}, {"time": 60, "pitch": 70, "duration": 12, "velocity": 64}, {"time": 72, "pitch": 70, "duration": 12, "velocity": 64}, {"time": 84, "pitch": 72, "duration": 24, "velocity": 64}, {"time": 108, "pitch": 72, "duration": 12, "velocity": 64}, {"time": 120, "pitch": 72, "duration": 24, "velocity": 64}, {"time": 144, "pitch": 72, "duration": 12, "velocity": 64}, {"time": 156, "pitch": 74, "duration": 12, "velocity": 64}, {"time": 168, "pitch": 70, "duration": 12, "velocity": 64}, {"time": 180, "pitch": 70, "duration": 6, "velocity": 64}, {"time": 186, "pitch": 70, "duration": 6, "velocity": 64}, {"time": 192, "pitch": 70, "duration": 12, "velocity": 64}, {"time": 204, "pitch": 69, "duration": 12, "velocity": 64}, {"time": 216, "pitch": 67, "duration": 12, "velocity": 64}, {"time": 228, "pitch": 67, "duration": 24, "velocity": 64}, {"time": 252, "pitch": 65, "duration": 12, "velocity": 64}, {"time": 264, "pitch": 65, "duration": 24, "velocity": 64}, {"time": 300, "pitch": 67, "duration": 24, "velocity": 64}, {"time": 324, "pitch": 67, "duration": 24, "velocity": 64}, {"time": 348, "pitch": 67, "duration": 24, "velocity": 64}, {"time": 372, "pitch": 70, "duration": 12, "velocity": 64}, {"time": 384, "pitch": 67, "duration": 12, "velocity": 64}, {"time": 396, "pitch": 65, "duration": 24, "velocity": 64}, {"time": 420, "pitch": 65, "duration": 24, "velocity": 64}, {"time": 444, "pitch": 65, "duration": 24, "velocity": 64}, {"time": 468, "pitch": 65, "duration": 24, "velocity": 64}, {"time": 492, "pitch": 70, "duration": 12, "velocity": 64}, {"time": 504, "pitch": 70, "duration": 12, "velocity": 64}, {"time": 516, "pitch": 70, "duration": 6, "velocity": 64}, {"time": 522, "pitch": 70, "duration": 6, "velocity": 64}, {"time": 528, "pitch": 72, "duration": 12, "velocity": 64}, {"time": 540, "pitch": 74, "duration": 12, "velocity": 64}, {"time": 552, "pitch": 75, "duration": 12, "velocity": 64}, {"time": 564, "pitch": 65, "duration": 24, "velocity": 64}, {"time": 588, "pitch": 69, "duration": 12, "velocity": 64}, {"time": 600, "pitch": 70, "duration": 24, "velocity": 64}]}]}