{"metadata": {"schema_version": "0.1", "title": "Ritter und Magd", "source_format": "abc"}, "resolution": 24, "tempos": [{"time": 0, "qpm": 120.0}], "key_signatures": [{"time": 0, "root": 7, "mode": "major", "fifths": 1}], "time_signatures": [{"time": 0, "numerator": 2, "denominator": 4}], "beats": [{"time": 0, "is_downbeat": true}, {"time": 6, "is_downbeat": true}, {"time": 30, "is_downbeat": false}, {"time": 54, "is_downbeat": true}, {"time": 78, "is_downbeat": false}, {"time": 102, "is_downbeat": true}, {"time": 126, "is_downbeat": false}, {"time": 150, "is_downbeat": true}, {"time": 174, "is_downbeat": false}, {"time": 198, "is_downbeat": true}, {"time": 222, "is_downbeat": false}, {"time": 246, "is_downbeat": true}, {"time": 270, "is_downbeat": false}, {"time": 294, "is_downbeat": true}, {"time": 318, "is_downbeat": false}, {"time": 342, "is_downbeat": true}, {"time": 366, "is_downbeat": false}, {"time": 390, "is_downbeat": true}, {"time": 414, "is_downbeat": false}, {"time": 438, "is_downbeat": true}, {"time": 462, "is_downbeat": false}, {"time": 486, "is_downbeat": true}, {"time": 510, "is_downbeat": false}, {"time": 534, "is_downbeat": true}, {"time": 558, "is_downbeat": false}, {"time": 582, "is_downbeat": true}, {"time": 606, "is_downbeat": false}, {"time": 630, "is_downbeat": true}, {"time": 654, "is_downbeat": false}, {"time": 678, "is_downbeat": true}, {"time": 702, "is_downbeat": false}, {"time": 726, "is_downbeat": true}, {"time": 750, "is_downbeat": false}], "tracks": [{"program": 0, "is_drum": false, "notes": [{"time": 0, "pitch": 67, "duration": 6, "velocity": 64}, {"time": 6, "pitch": 71, "duration": 24, "velocity": 64}, {"time": 30, "pitch": 67, "duration": 18, "velocity": 64}, {"time": 48, "pitch": 69, "duration": 6, "velocity": 64}, {"time": 54, "pitch": 71, "duration": 24, "velocity": 64}, {"time": 78, "pitch": 74, "duration": 12, "velocity": 64}, {"time": 90, "pitch": 71, "duration": 12, "velocity": 64}, {"time": 102, "pitch": 71, "duration": 12, "velocity": 64}, {"time": 114, "pitch": 69, "duration": 12, "velocity": 64}, {"time": 126, "pitch": 69, "duration": 12, "velocity": 64}, {"time": 138, "pitch": 67, "duration": 12, "velocity": 64}, {"time": 150, "pitch": 66, "duration": 24, "velocity": 64}, {"time": 192, "pitch": 67, "duration": 6, "velocity": 64}, {"time": 198, "pitch": 69, "duration": 24, "velocity": 64}, {"time": 222, "pitch": 66, "duration": 18, "velocity": 64}, {"time": 240, "pitch": 67, "duration": 6, "velocity": 64}, {"time": 246, "pitch": 69, "duration": 24, "velocity": 64}, {"time": 270, "pitch": 71, "duration": 12, "velocity": 64}, {"time": 282, "pitch": 67, "duration": 12, "velocity": 64}, {"time": 294, "pitch": 64, "duration": 48, "velocity": 64}, {"time": 342, "pitch": 62, "duration": 24, "velocity": 64}, {"time": 384, "pitch": 67, "duration": 6, "velocity": 64}, {"time": 390, "pitch": 67, "duration": 24, "velocity": 64}, {"time": 432, "pitch": 62, "duration": 6, "velocity": 64}, {"time": 438, "pitch": 62, "duration": 24, "velocity": 64}, {"time": 480, "pitch": 59, "duration": 6, "velocity": 64}, {"time": 486, "pitch": 64, "duration": 24, "velocity": 64}, {"time": 510, "pitch": 62, "duration": 18, "velocity": 64}, {"time": 528, "pitch": 60, "duration": 6, "velocity": 64}, {"time": 534, "pitch": 62, "duration": 24, "velocity": 64}, {"time": 576, "pitch": 62, "duration": 6, "velocity": 64}, {"time": 582, "pitch": 67, "duration": 18, "velocity": 64}, {"time": 600, "pitch": 66, "duration": 6, "velocity": 64}, {"time": 606, "pitch": 67, "duration": 18, "velocity": 64}, {"time": 624, "pitch": 69, "duration": 6, "velocity": 64}, {"time": 630, "pitch": 71, "duration": 24, "velocity": 64}, {"time": 654, "pitch": 74, "duration": 12, "velocity": 64}, {"time": 666, "pitch": 71, "duration": 12, "velocity": 64}, {"time": 678, "pitch": 69, "duration": 48, "velocity": 64}, {"time": 726, "pitch": 67, "duration": 24, "velocity": 64}]}]}