{"metadata": {"schema_version": "0.1", "title": "Die wiedergefundene Schwester (Suedeli - Ballade)", "source_format": "abc"}, "resolution": 24, "tempos": [{"time": 0, "qpm": 120.0}], "key_signatures": [{"time": 0, "root": 2, "mode": "major", "fifths": 2}], "time_signatures": [{"time": 0, "numerator": 4, "denominator": 4}], "beats": [{"time": 0, "is_downbeat": true}, {"time": 12, "is_downbeat": true}, {"time": 36, "is_downbeat": false}, {"time": 60, "is_downbeat": false}, {"time": 84, "is_downbeat": false}, {"time": 108, "is_downbeat": true}, {"time": 132, "is_downbeat": false}, {"time": 156, "is_downbeat": false}, {"time": 180, "is_downbeat": false}, {"time": 204, "is_downbeat": true}, {"time": 228, "is_downbeat": true}, {"time": 252, "is_downbeat": false}, {"time": 276, "is_downbeat": false}, {"time": 300, "is_downbeat": false}, {"time": 324, "is_downbeat": true}, {"time": 348, "is_downbeat": false}, {"time": 372, "is_downbeat": false}, {"time": 396, "is_downbeat": false}, {"time": 420, "is_downbeat": true}, {"time": 444, "is_downbeat": true}, {"time": 468, "is_downbeat": false}, {"time": 492, "is_downbeat": false}, {"time": 516, "is_downbeat": false}, {"time": 540, "is_downbeat": true}, {"time": 564, "is_downbeat": false}, {"time": 576, "is_downbeat": true}, {"time": 600, "is_downbeat": false}, {"time": 624, "is_downbeat": false}, {"time": 648, "is_downbeat": false}, {"time": 672, "is_downbeat": true}, {"time": 696, "is_downbeat": true}, {"time": 720, "is_downbeat": false}, {"time": 744, "is_downbeat": false}, {"time": 768, "is_downbeat": false}, {"time": 792, "is_downbeat": true}, {"time": 816, "is_downbeat": false}, {"time": 840, "is_downbeat": false}, {"time": 864, "is_downbeat": false}], "tracks": [{"program": 0, "is_drum": false, "notes": [{"time": 0, "pitch": 69, "duration": 12, "velocity": 64}, {"time": 12, "pitch": 69, "duration": 24, "velocity": 64}, {"time": 36, "pitch": 72, "duration": 24, "velocity": 64}, {"time": 60, "pitch": 71, "duration": 24, "velocity": 64}, {"time": 84, "pitch": 74, "duration": 24, "velocity": 64}, {"time": 108, "pitch": 74, "duration": 24, "velocity": 64}, {"time": 132, "pitch": 71, "duration": 24, "velocity": 64}, {"time": 156, "pitch": 69, "duration": 48, "velocity": 64}, {"time": 216, "pitch": 69, "duration": 12, "velocity": 64}, {"time": 228, "pitch": 74, "duration": 24, "velocity": 64}, {"time": 252, "pitch": 72, "duration": 24, "velocity": 64}, {"time": 276, "pitch": 73, "duration": 24, "velocity": 64}, {"time": 300, "pitch": 69, "duration": 24, "velocity": 64}, {"time": 324, "pitch": 69, "duration": 16, "velocity": 64}, {"time": 340, "pitch": 67, "duration": 16, "velocity": 64}, {"time": 356, "pitch": 65, "duration": 16, "velocity": 64}, {"time": 372, "pitch": 64, "duration": 48, "velocity": 64}, {"time": 432, "pitch": 62, "duration": 12, "velocity": 64}, {"time": 444, "pitch": 65, "duration": 24, "velocity": 64}, {"time": 468, "pitch": 67, "duration": 12, "velocity": 64}, {"time": 480, "pitch": 69, "duration": 24, "velocity": 64}, {"time": 504, "pitch": 69, "duration": 12, "velocity": 64}, {"time": 516, "pitch": 70, "duration": 24, "velocity": 64}, {"time": 540, "pitch": 67, "duration": 12, "velocity": 64}, {"time": 552, "pitch": 69, "duration": 24, "velocity": 64}, {"time": 576, "pitch": 69, "duration": 16, "velocity": 64}, {"time": 592, "pitch": 67, "duration": 16, "velocity": 64}, {"time": 608, "pitch": 65, "duration": 16, "velocity": 64}, {"time": 624, "pitch": 64, "duration": 48, "velocity": 64}, {"time": 684, "pitch": 64, "duration": 12, "velocity": 64}, {"time": 696, "pitch": 65, "duration": 12, "velocity": 64}, {"time": 708, "pitch": 66, "duration": 12, "velocity": 64}, {"time": 720, "pitch": 62, "duration": 24, "velocity": 64}, {"time": 744, "pitch": 64, "duration": 24, "velocity": 64}, {"time": 768, "pitch": 67, "duration": 24, "velocity": 64}, {"time": 792, "pitch": 67, "duration": 16, "velocity": 64}, {"time": 808, "pitch": 65, "duration": 16, "velocity": 64}, {"time": 824, "pitch": 64, "duration": 16, "velocity": 64}, {"time": 840, "pitch": 62, "duration": 48, "velocity": 64}]}]}