{"metadata": {"schema_version": "0.1", "title": "Die dienende Schwester", "source_format": "abc"}, "resolution": 24, "tempos": [{"time": 0, "qpm": 120.0}], "key_signatures": [{"time": 0, "root": 5, "mode": "major", "fifths": -1}], "time_signatures": [{"time": 0, "numerator": 2, "denominator": 4}], "beats": [{"time": 0, "is_downbeat": true}, {"time": 24, "is_downbeat": false}, {"time": 30, "is_downbeat": true}, {"time": 54, "is_downbeat": false}, {"time": 78, "is_downbeat": true}, {"time": 102, "is_downbeat": false}, {"time": 126, "is_downbeat": true}, {"time": 150, "is_downbeat": false}, {"time": 174, "is_downbeat": true}, {"time": 198, "is_downbeat": false}, {"time": 222, "is_downbeat": true}, {"time": 246, "is_downbeat": false}, {"time": 270, "is_downbeat": true}, {"time": 294, "is_downbeat": false}, {"time": 318, "is_downbeat": true}, {"time": 342, "is_downbeat": false}], "tracks": [{"program": 0, "is_drum": false, "notes": [{"time": 0, "pitch": 72, "duration": 6, "velocity": 64}, {"time": 6, "pitch": 72, "duration": 18, "velocity": 64}, {"time": 24, "pitch": 72, "duration": 6, "velocity": 64}, {"time": 30, "pitch": 72, "duration": 18, "velocity": 64}, {"time": 48, "pitch": 72, "duration": 6, "velocity": 64}, {"time": 54, "pitch": 74, "duration": 18, "velocity": 64}, {"time": 72, "pitch": 74, "duration": 6, "velocity": 64}, {"time": 78, "pitch": 67, "duration": 18, "velocity": 64}, {"time": 96, "pitch": 69, "duration": 6, "velocity": 64}, {"time": 102, "pitch": 70, "duration": 18, "velocity": 64}, {"time": 120, "pitch": 74, "duration": 6, "velocity": 64}, {"time": 126, "pitch": 74, "duration": 18, "velocity": 64}, {"time": 144, "pitch": 74, "duration": 6, "velocity": 64}, {"time": 150, "pitch": 72, "duration": 18, "velocity": 64}, {"time": 168, "pitch": 72, "duration": 6, "velocity": 64}, {"time": 174, "pitch": 69, "duration": 18, "velocity": 64}, {"time": 192, "pitch": 72, "duration": 6, "velocity": 64}, {"time": 198, "pitch": 72, "duration": 18, "velocity": 64}, {"time": 216, "pitch": 77, "duration": 6, "velocity": 64}, {"time": 222, "pitch": 77, "duration": 24, "velocity": 64}, {"time": 246, "pitch": 76, "duration": 18, "velocity": 64}, {"time": 264, "pitch": 74, "duration": 6, "velocity": 64}, {"time": 270, "pitch": 76, "duration": 24, "velocity": 64}, {"time": 294, "pitch": 74, "duration": 24, "velocity": 64}, {"time": 318, "pitch": 72, "duration": 24, "velocity": 64}]}]}