{"metadata": {"schema_version": "0.1", "title": "Der Vorwirt", "source_format": "abc"}, "resolution": 24, "tempos": [{"time": 0, "qpm": 120.0}], "key_signatures": [{"time": 0, "root": 7, "mode": "major", "fifths": 1}], "time_signatures": [{"time": 0, "numerator": 4, "denominator": 4}], "tracks": [{"program": 0, "is_drum": false, "notes": [{"time": 0, "pitch": 62, "duration": 12, "velocity": 64}, {"time": 12, "pitch": 62, "duration": 12, "velocity": 64}, {"time": 24, "pitch": 62, "duration": 12, "velocity": 64}, {"time": 36, "pitch": 67, "duration": 24, "velocity": 64}, {"time": 60, "pitch": 69, "duration": 12, "velocity": 64}, {"time": 72, "pitch": 67, "duration": 12, "velocity": 64}, {"time": 84, "pitch": 65, "duration": 24, "velocity": 64}, {"time": 108, "pitch": 67, "duration": 12, "velocity": 64}, {"time": 120, "pitch": 69, "duration": 12, "velocity": 64}, {"time": 132, "pitch": 70, "duration": 36, "velocity": 64}, {"time": 168, "pitch": 69, "duration": 16, "velocity": 64}, {"time": 184, "pitch": 69, "duration": 8, "velocity": 64}, {"time": 192, "pitch": 67, "duration": 8, "velocity": 64}, {"time": 200, "pitch": 69, "duration": 12, "velocity": 64}, {"time": 212, "pitch": 67, "duration": 12, "velocity": 64}, {"time": 224, "pitch": 62, "duration": 12, "velocity": 64}, {"time": 236, "pitch": 62, "duration": 24, "velocity": 64}, {"time": 260, "pitch": 62, "duration": 24, "velocity": 64}, {"time": 284, "pitch": 64, "duration": 12, "velocity": 64}, {"time": 296, "pitch": 66, "duration": 12, "velocity": 64}, {"time": 308, "pitch": 67, "duration": 48, "velocity": 64}, {"time": 380, "pitch": 71, "duration": 24, "velocity": 64}, {"time": 404, "pitch": 69, "duration": 12, "velocity": 64}, {"time": 416, "pitch": 71, "duration": 12, "velocity": 64}, {"time": 428, "pitch": 72, "duration": 12, "velocity": 64}, {"time": 440, "pitch": 74, "duration": 12, "velocity": 64}, {"time": 452, "pitch": 72, "duration": 24, "velocity": 64}, {"time": 476, "pitch": 71, "duration": 12, "velocity": 64}, {"time": 488, "pitch": 69, "duration": 12, "velocity": 64}, {"time": 500, "pitch": 69, "duration": 12, "velocity": 64}, {"time": 512, "pitch": 67, "duration": 12, "velocity": 64}, {"time": 524, "pitch": 67, "duration": 18, "velocity": 64}, {"time": 542, "pitch": 69, "duration": 6, "velocity": 64}, {"time": 548, "pitch": 67, "duration": 12, "velocity": 64}, {"time": 560, "pitch": 65, "duration": 12, "velocity": 64}, {"time": 572, "pitch": 66, "duration": 48, "velocity": 64}, {"time": 632, "pitch": 62, "duration": 24, "velocity": 64}, {"time": 656, "pitch": 62, "duration": 12, "velocity": 64}, {"time": 668, "pitch": 62, "duration": 12, "velocity": 64}, {"time": 680, "pitch": 67, "duration": 36, "velocity": 64}, {"time": 716, "pitch": 71, "duration": 12, "velocity": 64}, {"time": 728, "pitch": 69, "duration": 24, "velocity": 64}, {"time": 752, "pitch": 67, "duration": 12, "velocity": 64}, {"time": 764, "pitch": 66, "duration": 12, "velocity": 64}, {"time": 776, "pitch": 67, "duration": 48, "velocity": 64}]}]}