{"metadata": {"schema_version": "0.1", "title": "Die Geburt im Grabe", "source_format": "abc"}, "resolution": 24, "tempos": [{"time": 0, "qpm": 120.0}], "key_signatures": [{"time": 0, "root": 5, "mode": "major", "fifths": -1}], "time_signatures": [{"time": 0, "numerator": 4, "denominator": 4}], "tracks": [{"program": 0, "is_drum": false, "notes": [{"time": 0, "pitch": 65, "duration": 48, "velocity": 64}, {"time": 48, "pitch": 65, "duration": 48, "velocity": 64}, {"time": 96, "pitch": 64, "duration": 24, "velocity": 64}, {"time": 120, "pitch": 62, "duration": 48, "velocity": 64}, {"time": 168, "pitch": 65, "duration": 24, "velocity": 64}, {"time": 192, "pitch": 67, "duration": 48, "velocity": 64}, {"time": 240, "pitch": 65, "duration": 48, "velocity": 64}, {"time": 288, "pitch": 65, "duration": 48, "velocity": 64}, {"time": 336, "pitch": 65, "duration": 48, "velocity": 64}, {"time": 384, "pitch": 67, "duration": 24, "velocity": 64}, {"time": 408, "pitch": 64, "duration": 48, "velocity": 64}, {"time": 456, "pitch": 60, "duration": 24, "velocity": 64}, {"time": 480, "pitch": 65, "duration": 48, "velocity": 64}, {"time": 528, "pitch": 64, "duration": 48, "velocity": 64}, {"time": 576, "pitch": 64, "duration": 48, "velocity": 64}, {"time": 624, "pitch": 65, "duration": 48, "velocity": 64}, {"time": 672, "pitch": 65, "duration": 24, "velocity": 64}, {"time": 696, "pitch": 67, "duration": 48, "velocity": 64}, {"time": 744, "pitch": 69, "duration": 24, "velocity": 64}, {"time": 768, "pitch": 67, "duration": 48, "velocity": 64}, {"time": 816, "pitch": 67, "duration": 48, "velocity": 64}, {"time": 864, "pitch": 69, "duration": 48, "velocity": 64}, {"time": 912, "pitch": 70, "duration": 48, "velocity": 64}, {"time": 960, "pitch": 69, "duration": 24, "velocity": 64}, {"time": 984, "pitch": 67, "duration": 48, "velocity": 64}, {"time": 1032, "pitch": 65, "duration": 24, "velocity": 64}, {"time": 1056, "pitch": 67, "duration": 48, "velocity": 64}, {"time": 1104, "pitch": 65, "duration": 48, "velocity": 64}]}]}