{"metadata": {"schema_version": "0.1", "title": "Jerman Weizers Frau", "source_format": "abc"}, "resolution": 24, "tempos": [{"time": 0, "qpm": 120.0}], "key_signatures": [{"time": 0, "root": 7, "mode": "major", "fifths": 1}], "time_signatures": [{"time": 0, "numerator": 4, "denominator": 4}], "tracks": [{"program": 0, "is_drum": false, "notes": [{"time": 0, "pitch": 67, "duration": 48, "velocity": 64}, {"time": 48, "pitch": 67, "duration": 24, "velocity": 64}, {"time": 72, "pitch": 69, "duration": 24, "velocity": 64}, {"time": 96, "pitch": 71, "duration": 48, "velocity": 64}, {"time": 144, "pitch": 69, "duration": 48, "velocity": 64}, {"time": 192, "pitch": 67, "duration": 24, "velocity": 64}, {"time": 216, "pitch": 69, "duration": 24, "velocity": 64}, {"time": 240, "pitch": 71, "duration": 48, "velocity": 64}, {"time": 312, "pitch": 69, "duration": 24, "velocity": 64}, {"time": 336, "pitch": 71, "duration": 24, "velocity": 64}, {"time": 360, "pitch": 69, "duration": 24, "velocity": 64}, {"time": 384, "pitch": 72, "duration": 72, "velocity": 64}, {"time": 456, "pitch": 71, "duration": 24, "velocity": 64}, {"time": 480, "pitch": 69, "duration": 12, "velocity": 64}, {"time": 492, "pitch": 67, "duration": 12, "velocity": 64}, {"time": 504, "pitch": 67, "duration": 36, "velocity": 64}, {"time": 540, "pitch": 66, "duration": 6, "velocity": 64}, {"time": 546, "pitch": 64, "duration": 6, "velocity": 64}, {"time": 552, "pitch": 66, "duration": 24, "velocity": 64}, {"time": 576, "pitch": 67, "duration": 48, "velocity": 64}, {"time": 624, "pitch": 67, "duration": 48, "velocity": 64}, {"time": 672, "pitch": 67, "duration": 24, "velocity": 64}, {"time": 696, "pitch": 69, "duration": 24, "velocity": 64}, {"time": 720, "pitch": 71, "duration": 48, "velocity": 64}, {"time": 768, "pitch": 69, "duration": 48, "velocity": 64}, {"time": 816, "pitch": 67, "duration": 24, "velocity": 64}, {"time": 840, "pitch": 69, "duration": 24, "velocity": 64}, {"time": 864, "pitch": 71, "duration": 48, "velocity": 64}, {"time": 936, "pitch": 69, "duration": 24, "velocity": 64}, {"time": 960, "pitch": 71, "duration": 24, "velocity": 64}, {"time": 984, "pitch": 69, "duration": 24, "velocity": 64}, {"time": 1008, "pitch": 72, "duration": 72, "velocity": 64}, {"time": 1080, "pitch": 71, "duration": 24, "velocity": 64}, {"time": 1104, "pitch": 69, "duration": 12, "velocity": 64}, {"time": 1116, "pitch": 67, "duration": 12, "velocity": 64}, {"time": 1128, "pitch": 67, "duration": 36, "velocity": 64}, {"time": 1164, "pitch": 66, "duration": 6, "velocity": 64}, {"time": 1170, "pitch": 64, "duration": 6, "velocity": 64}, {"time": 1176, "pitch": 66, "duration": 24, "velocity": 64}, {"time": 1200, "pitch": 67, "duration": 48, "velocity": 64}, {"time": 1272, "pitch": 67, "duration": 24, "velocity": 64}, {"time": 1296, "pitch": 71, "duration": 72, "velocity": 64}, {"time": 1368, "pitch": 69, "duration": 24, "velocity": 64}, {"time": 1392, "pitch": 67, "duration": 24, "velocity": 64}, {"time": 1416, "pitch": 66, "duration": 48, "velocity": 64}, {"time": 1464, "pitch": 64, "duration": 48, "velocity": 64}, {"time": 1512, "pitch": 63, "duration": 24, "velocity": 64}, {"time": 1536, "pitch": 64, "duration": 48, "velocity": 64}, {"time": 1608, "pitch": 67, "duration": 24, "velocity": 64}, {"time": 1632, "pitch": 67, "duration": 24, "velocity": 64}, {"time": 1656, "pitch": 69, "duration": 24, "velocity": 64}, {"time": 1680, "pitch": 71, "duration": 24, "velocity": 64}, {"time": 1704, "pitch": 71, "duration": 24, "velocity": 64}, {"time": 1728, "pitch": 69, "duration": 24, "velocity": 64}, {"time": 1752, "pitch": 69, "duration": 36, "velocity": 64}, {"time": 1788, "pitch": 68, "duration": 6, "velocity": 64}, {"time": 1794, "pitch": 66, "duration": 6, "velocity": 64}, {"time": 1800, "pitch": 67, "duration": 24, "velocity": 64}, {"time": 1824, "pitch": 69, "duration": 48, "velocity": 64}, {"time": 1896, "pitch": 69, "duration": 24, "velocity": 64}, {"time": 1920, "pitch": 71, "duration": 24, "velocity": 64}, {"time": 1944, "pitch": 69, "duration": 24, "velocity": 64}, {"time": 1968, "pitch": 72, "duration": 72, "velocity": 64}, {"time": 2040, "pitch": 71, "duration": 24, "velocity": 64}, {"time": 2064, "pitch": 69, "duration": 12, "velocity": 64}, {"time": 2076, "pitch": 67, "duration": 12, "velocity": 64}, {"time": 2088, "pitch": 67, "duration": 36, "velocity": 64}, {"time": 2124, "pitch": 66, "duration": 6, "velocity": 64}, {"time": 2130, "pitch": 64, "duration": 6, "velocity": 64}, {"time": 2136, "pitch": 66, "duration": 24, "velocity": 64}, {"time": 2160, "pitch": 67, "duration": 48, "velocity": 64}]}]}