{"metadata": {"schema_version": "0.1", "title": "Die Rabenmutter", "source_format": "abc"}, "resolution": 24, "tempos": [{"time": 0, "qpm": 120.0}], "key_signatures": [{"time": 0, "root": 7, "mode": "major", "fifths": 1}], "time_signatures": [{"time": 0, "numerator": 4, "denominator": 4}], "beats": [{"time": 0, "is_downbeat": true}, {"time": 24, "is_downbeat": false}, {"time": 36, "is_downbeat": true}, {"time": 60, "is_downbeat": false}, {"time": 84, "is_downbeat": false}, {"time": 96, "is_downbeat": true}, {"time": 120, "is_downbeat": false}, {"time": 144, "is_downbeat": false}, {"time": 156, "is_downbeat": true}, {"time": 180, "is_downbeat": false}, {"time": 204, "is_downbeat": false}, {"time": 216, "is_downbeat": true}, {"time": 240, "is_downbeat": false}, {"time": 264, "is_downbeat": false}, {"time": 288, "is_downbeat": false}], "tracks": [{"program": 0, "is_drum": false, "notes": [{"time": 0, "pitch": 62, "duration": 12, "velocity": 64}, {"time": 12, "pitch": 67, "duration": 12, "velocity": 64}, {"time": 24, "pitch": 69, "duration": 12, "velocity": 64}, {"time": 36, "pitch": 71, "duration": 12, "velocity": 64}, {"time": 48, "pitch": 71, "duration": 12, "velocity": 64}, {"time": 60, "pitch": 71, "duration": 12, "velocity": 64}, {"time": 72, "pitch": 74, "duration": 12, "velocity": 64}, {"time": 84, "pitch": 76, "duration": 12, "velocity": 64}, {"time": 96, "pitch": 74, "duration": 12, "velocity": 64}, {"time": 108, "pitch": 72, "duration": 12, "velocity": 64}, {"time": 120, "pitch": 71, "duration": 12, "velocity": 64}, {"time": 132, "pitch": 69, "duration": 12, "velocity": 64}, {"time": 144, "pitch": 67, "duration": 12, "velocity": 64}, {"time": 156, "pitch": 69, "duration": 9, "velocity": 64}, {"time": 165, "pitch": 69, "duration": 3, "velocity": 64}, {"time": 168, "pitch": 69, "duration": 12, "velocity": 64}, {"time": 180, "pitch": 76, "duration": 12, "velocity": 64}, {"time": 192, "pitch": 74, "duration": 18, "velocity": 64}, {"time": 210, "pitch": 72, "duration": 6, "velocity": 64}, {"time": 216, "pitch": 72, "duration": 12, "velocity": 64}, {"time": 228, "pitch": 71, "duration": 12, "velocity": 64}]}]}