{"metadata": {"schema_version": "0.1", "title": "Sangeslohn", "source_format": "abc"}, "resolution": 24, "tempos": [{"time": 0, "qpm": 120.0}], "key_signatures": [{"time": 0, "root": 2, "mode": "major", "fifths": 2}], "time_signatures": [{"time": 0, "numerator": 4, "denominator": 4}], "tracks": [{"program": 0, "is_drum": false, "notes": [{"time": 0, "pitch": 62, "duration": 96, "velocity": 64}, {"time": 96, "pitch": 65, "duration": 48, "velocity": 64}, {"time": 144, "pitch": 67, "duration": 48, "velocity": 64}, {"time": 192, "pitch": 69, "duration": 48, "velocity": 64}, {"time": 240, "pitch": 74, "duration": 48, "velocity": 64}, {"time": 288, "pitch": 72, "duration": 48, "velocity": 64}, {"time": 336, "pitch": 71, "duration": 48, "velocity": 64}, {"time": 384, "pitch": 69, "duration": 48, "velocity": 64}, {"time": 432, "pitch": 69, "duration": 48, "velocity": 64}, {"time": 480, "pitch": 73, "duration": 96, "velocity": 64}, {"time": 576, "pitch": 69, "duration": 48, "velocity": 64}, {"time": 624, "pitch": 66, "duration": 96, "velocity": 64}, {"time": 720, "pitch": 69, "duration": 48, "velocity": 64}, {"time": 768, "pitch": 67, "duration": 48, "velocity": 64}, {"time": 816, "pitch": 67, "duration": 48, "velocity": 64}, {"time": 864, "pitch": 66, "duration": 48, "velocity": 64}, {"time": 912, "pitch": 67, "duration": 48, "velocity": 64}, {"time": 960, "pitch": 69, "duration": 96, "velocity": 64}, {"time": 1056, "pitch": 69, "duration": 48, "velocity": 64}, {"time": 1104, "pitch": 62, "duration": 96, "velocity": 64}, {"time": 1200, "pitch": 66, "duration": 48, "velocity": 64}, {"time": 1248, "pitch": 64, "duration": 48, "velocity": 64}, {"time": 1296, "pitch": 62, "duration": 48, "velocity": 64}, {"time": 1344, "pitch": 61, "duration": 48, "velocity": 64}, {"time": 1392, "pitch": 64, "duration": 48, "velocity": 64}, {"time": 1440, "pitch": 67, "duration": 96, "velocity": 64}, {"time": 1536, "pitch": 66, "duration": 48, "velocity": 64}, {"time": 1584, "pitch": 64, "duration": 96, "velocity": 64}, {"time": 1680, "pitch": 62, "duration": 48, "velocity": 64}, {"time": 1728, "pitch": 62, "duration": 48, "velocity": 64}, {"time": 1776, "pitch": 61, "duration": 96, "velocity": 64}, {"time": 1872, "pitch": 62, "duration": 192, "velocity": 64}]}]}