{"metadata": {"schema_version": "0.1", "title": "Gerstebinden", "source_format": "abc"}, "resolution": 24, "tempos": [{"time": 0, "qpm": 120.0}], "key_signatures": [{"time": 0, "root": 7, "mode": "major", "fifths": 1}], "time_signatures": [{"time": 0, "numerator": 2, "denominator": 2}], "beats": [{"time": 0, "is_downbeat": true}, {"time": 48, "is_downbeat": false}, {"time": 72, "is_downbeat": true}, {"time": 120, "is_downbeat": false}, {"time": 168, "is_downbeat": true}, {"time": 216, "is_downbeat": false}, {"time": 264, "is_downbeat": true}, {"time": 312, "is_downbeat": false}, {"time": 360, "is_downbeat": true}, {"time": 408, "is_downbeat": false}, {"time": 456, "is_downbeat": true}, {"time": 504, "is_downbeat": false}, {"time": 552, "is_downbeat": true}, {"time": 600, "is_downbeat": false}, {"time": 648, "is_downbeat": true}, {"time": 696, "is_downbeat": false}, {"time": 744, "is_downbeat": true}, {"time": 792, "is_downbeat": false}, {"time": 840, "is_downbeat": true}, {"time": 888, "is_downbeat": false}, {"time": 936, "is_downbeat": true}, {"time": 984, "is_downbeat": false}, {"time": 1032, "is_downbeat": true}, {"time": 1080, "is_downbeat": false}, {"time": 1128, "is_downbeat": true}, {"time": 1176, "is_downbeat": false}, {"time": 1224, "is_downbeat": true}, {"time": 1272, "is_downbeat": false}, {"time": 1320, "is_downbeat": true}, {"time": 1368, "is_downbeat": false}, {"time": 1416, "is_downbeat": true}, {"time": 1464, "is_downbeat": false}, {"time": 1512, "is_downbeat": true}, {"time": 1560, "is_downbeat": false}, {"time": 1608, "is_downbeat": true}, {"time": 1656, "is_downbeat": false}, {"time": 1704, "is_downbeat": true}, {"time": 1752, "is_downbeat": false}, {"time": 1800, "is_downbeat": true}, {"time": 1848, "is_downbeat": false}, {"time": 1896, "is_downbeat": true}, {"time": 1944, "is_downbeat": false}, {"time": 1992, "is_downbeat": true}, {"time": 2040, "is_downbeat": false}, {"time": 2088, "is_downbeat": true}, {"time": 2136, "is_downbeat": false}], "tracks": [{"program": 0, "is_drum": false, "notes": [{"time": 0, "pitch": 67, "duration": 24, "velocity": 64}, {"time": 24, "pitch": 67, "duration": 24, "velocity": 64}, {"time": 48, "pitch": 67, "duration": 24, "velocity": 64}, {"time": 72, "pitch": 67, "duration": 24, "velocity": 64}, {"time": 96, "pitch": 67, "duration": 24, "velocity": 64}, {"time": 120, "pitch": 69, "duration": 24, "velocity": 64}, {"time": 144, "pitch": 69, "duration": 24, "velocity": 64}, {"time": 168, "pitch": 69, "duration": 48, "velocity": 64}, {"time": 216, "pitch": 76, "duration": 48, "velocity": 64}, {"time": 264, "pitch": 77, "duration": 36, "velocity": 64}, {"time": 300, "pitch": 76, "duration": 12, "velocity": 64}, {"time": 312, "pitch": 74, "duration": 48, "velocity": 64}, {"time": 360, "pitch": 72, "duration": 48, "velocity": 64}, {"time": 408, "pitch": 74, "duration": 48, "velocity": 64}, {"time": 528, "pitch": 74, "duration": 24, "velocity": 64}, {"time": 552, "pitch": 76, "duration": 48, "velocity": 64}, {"time": 600, "pitch": 76, "duration": 24, "velocity": 64}, {"time": 624, "pitch": 76, "duration": 48, "velocity": 64}, {"time": 672, "pitch": 76, "duration": 24, "velocity": 64}, {"time": 696, "pitch": 77, "duration": 48, "velocity": 64}, {"time": 744, "pitch": 76, "duration": 96, "velocity": 64}, {"time": 840, "pitch": 74, "duration": 48, "velocity": 64}, {"time": 888, "pitch": 72, "duration": 24, "velocity": 64}, {"time": 912, "pitch": 69, "duration": 24, "velocity": 64}, {"time": 936, "pitch": 71, "duration": 36, "velocity": 64}, {"time": 972, "pitch": 72, "duration": 12, "velocity": 64}, {"time": 984, "pitch": 74, "duration": 48, "velocity": 64}, {"time": 1080, "pitch": 74, "duration": 48, "velocity": 64}, {"time": 1128, "pitch": 72, "duration": 24, "velocity": 64}, {"time": 1152, "pitch": 69, "duration": 24, "velocity": 64}, {"time": 1176, "pitch": 71, "duration": 36, "velocity": 64}, {"time": 1212, "pitch": 72, "duration": 12, "velocity": 64}, {"time": 1224, "pitch": 74, "duration": 48, "velocity": 64}, {"time": 1368, "pitch": 74, "duration": 24, "velocity": 64}, {"time": 1392, "pitch": 74, "duration": 24, "velocity": 64}, {"time": 1416, "pitch": 72, "duration": 24, "velocity": 64}, {"time": 1440, "pitch": 71, "duration": 24, "velocity": 64}, {"time": 1464, "pitch": 67, "duration": 48, "velocity": 64}, {"time": 1584, "pitch": 67, "duration": 24, "velocity": 64}, {"time": 1608, "pitch": 69, "duration": 36, "velocity": 64}, {"time": 1644, "pitch": 71, "duration": 12, "velocity": 64}, {"time": 1656, "pitch": 72, "duration": 24, "velocity": 64}, {"time": 1680, "pitch": 74, "duration": 48, "velocity": 64}, {"time": 1728, "pitch": 76, "duration": 24, "velocity": 64}, {"time": 1752, "pitch": 74, "duration": 24, "velocity": 64}, {"time": 1776, "pitch": 72, "duration": 48, "velocity": 64}, {"time": 1824, "pitch": 71, "duration": 24, "velocity": 64}, {"time": 1848, "pitch": 69, "duration": 48, "velocity": 64}, {"time": 1896, "pitch": 67, "duration": 48, "velocity": 64}, {"time": 1944, "pitch": 69, "duration": 24, "velocity": 64}, {"time": 1968, "pitch": 65, "duration": 24, "velocity": 64}, {"time": 1992, "pitch": 66, "duration": 24, "velocity": 64}, {"time": 2016, "pitch": 67, "duration": 24, "velocity": 64}, {"time": 2040, "pitch": 74, "duration": 48, "velocity": 64}, {"time": 2088, "pitch": 67, "duration": 96, "velocity": 64}]}]}