{"metadata": {"schema_version": "0.1", "title": "Maedchen und Hasel", "source_format": "abc"}, "resolution": 24, "tempos": [{"time": 0, "qpm": 120.0}], "key_signatures": [{"time": 0, "root": 7, "mode": "major", "fifths": 1}], "time_signatures": [{"time": 0, "numerator": 4, "denominator": 4}], "tracks": [{"program": 0, "is_drum": false, "notes": [{"time": 0, "pitch": 69, "duration": 24, "velocity": 64}, {"time": 24, "pitch": 69, "duration": 24, "velocity": 64}, {"time": 48, "pitch": 69, "duration": 24, "velocity": 64}, {"time": 72, "pitch": 74, "duration": 24, "velocity": 64}, {"time": 96, "pitch": 74, "duration": 24, "velocity": 64}, {"time": 120, "pitch": 77, "duration": 24, "velocity": 64}, {"time": 144, "pitch": 79, "duration": 24, "velocity": 64}, {"time": 168, "pitch": 78, "duration": 24, "velocity": 64}, {"time": 192, "pitch": 74, "duration": 24, "velocity": 64}, {"time": 216, "pitch": 72, "duration": 48, "velocity": 64}, {"time": 264, "pitch": 79, "duration": 48, "velocity": 64}, {"time": 312, "pitch": 79, "duration": 48, "velocity": 64}, {"time": 360, "pitch": 74, "duration": 48, "velocity": 64}, {"time": 408, "pitch": 78, "duration": 24, "velocity": 64}, {"time": 432, "pitch": 79, "duration": 24, "velocity": 64}, {"time": 456, "pitch": 76, "duration": 48, "velocity": 64}, {"time": 504, "pitch": 74, "duration": 48, "velocity": 64}, {"time": 576, "pitch": 72, "duration": 24, "velocity": 64}, {"time": 600, "pitch": 74, "duration": 24, "velocity": 64}, {"time": 624, "pitch": 78, "duration": 24, "velocity": 64}, {"time": 648, "pitch": 76, "duration": 24, "velocity": 64}, {"time": 672, "pitch": 74, "duration": 24, "velocity": 64}, {"time": 696, "pitch": 74, "duration": 24, "velocity": 64}, {"time": 720, "pitch": 71, "duration": 24, "velocity": 64}, {"time": 744, "pitch": 69, "duration": 24, "velocity": 64}, {"time": 768, "pitch": 67, "duration": 24, "velocity": 64}, {"time": 792, "pitch": 71, "duration": 48, "velocity": 64}, {"time": 840, "pitch": 67, "duration": 48, "velocity": 64}, {"time": 888, "pitch": 71, "duration": 36, "velocity": 64}, {"time": 924, "pitch": 72, "duration": 12, "velocity": 64}, {"time": 936, "pitch": 76, "duration": 48, "velocity": 64}, {"time": 984, "pitch": 74, "duration": 24, "velocity": 64}, {"time": 1008, "pitch": 71, "duration": 24, "velocity": 64}, {"time": 1032, "pitch": 69, "duration": 48, "velocity": 64}, {"time": 1080, "pitch": 67, "duration": 96, "velocity": 64}]}]}