{"metadata": {"schema_version": "0.1", "title": "Der Jaeger auf koeniglicher Heide", "source_format": "abc"}, "resolution": 24, "tempos": [{"time": 0, "qpm": 120.0}], "key_signatures": [{"time": 0, "root": 5, "mode": "major", "fifths": -1}], "time_signatures": [{"time": 0, "numerator": 4, "denominator": 4}, {"time": 48, "numerator": 1, "denominator": 8}, {"time": 144, "numerator": 1, "denominator": 8}, {"time": 240, "numerator": 1, "denominator": 8}, {"time": 336, "numerator": 1, "denominator": 8}, {"time": 384, "numerator": 1, "denominator": 8}, {"time": 588, "numerator": 1, "denominator": 8}, {"time": 636, "numerator": 1, "denominator": 8}, {"time": 840, "numerator": 1, "denominator": 8}, {"time": 852, "numerator": 3, "denominator": 8}], "beats": [{"time": 0, "is_downbeat": true}, {"time": 12, "is_downbeat": true}, {"time": 24, "is_downbeat": true}, {"time": 36, "is_downbeat": true}, {"time": 48, "is_downbeat": true}, {"time": 60, "is_downbeat": true}, {"time": 72, "is_downbeat": true}, {"time": 84, "is_downbeat": true}, {"time": 96, "is_downbeat": true}, {"time": 108, "is_downbeat": true}, {"time": 120, "is_downbeat": true}, {"time": 132, "is_downbeat": true}, {"time": 144, "is_downbeat": true}, {"time": 156, "is_downbeat": true}, {"time": 168, "is_downbeat": true}, {"time": 180, "is_downbeat": true}, {"time": 192, "is_downbeat": true}, {"time": 204, "is_downbeat": true}, {"time": 216, "is_downbeat": true}, {"time": 228, "is_downbeat": true}, {"time": 240, "is_downbeat": true}, {"time": 252, "is_downbeat": true}, {"time": 264, "is_downbeat": true}, {"time": 276, "is_downbeat": true}, {"time": 288, "is_downbeat": true}, {"time": 300, "is_downbeat": true}, {"time": 312, "is_downbeat": true}, {"time": 324, "is_downbeat": true}, {"time": 336, "is_downbeat": true}, {"time": 348, "is_downbeat": true}, {"time": 360, "is_downbeat": true}, {"time": 372, "is_downbeat": true}, {"time": 384, "is_downbeat": true}, {"time": 396, "is_downbeat": true}, {"time": 408, "is_downbeat": true}, {"time": 420, "is_downbeat": true}, {"time": 432, "is_downbeat": true}, {"time": 444, "is_downbeat": true}, {"time": 456, "is_downbeat": true}, {"time": 468, "is_downbeat": true}, {"time": 480, "is_downbeat": true}, {"time": 492, "is_downbeat": true}, {"time": 504, "is_downbeat": true}, {"time": 516, "is_downbeat": true}, {"time": 528, "is_downbeat": true}, {"time": 540, "is_downbeat": true}, {"time": 552, "is_downbeat": true}, {"time": 564, "is_downbeat": true}, {"time": 576, "is_downbeat": true}, {"time": 588, "is_downbeat": true}, {"time": 600, "is_downbeat": true}, {"time": 612, "is_downbeat": true}, {"time": 624, "is_downbeat": true}, {"time": 636, "is_downbeat": true}, {"time": 648, "is_downbeat": true}, {"time": 660, "is_downbeat": true}, {"time": 672, "is_downbeat": true}, {"time": 684, "is_downbeat": true}, {"time": 696, "is_downbeat": true}, {"time": 708, "is_downbeat": true}, {"time": 720, "is_downbeat": true}, {"time": 732, "is_downbeat": true}, {"time": 744, "is_downbeat": true}, {"time": 756, "is_downbeat": true}, {"time": 768, "is_downbeat": true}, {"time": 780, "is_downbeat": true}, {"time": 792, "is_downbeat": true}, {"time": 804, "is_downbeat": true}, {"time": 816, "is_downbeat": true}, {"time": 828, "is_downbeat": true}, {"time": 840, "is_downbeat": true}, {"time": 852, "is_downbeat": true}, {"time": 864, "is_downbeat": false}, {"time": 876, "is_downbeat": false}], "tracks": [{"program": 0, "is_drum": false, "notes": [{"time": 0, "pitch": 60, "duration": 12, "velocity": 64}, {"time": 12, "pitch": 65, "duration": 12, "velocity": 64}, {"time": 24, "pitch": 72, "duration": 12, "velocity": 64}, {"time": 36, "pitch": 69, "duration": 6, "velocity": 64}, {"time": 42, "pitch": 67, "duration": 6, "velocity": 64}, {"time": 48, "pitch": 69, "duration": 6, "velocity": 64}, {"time": 54, "pitch": 67, "duration": 6, "velocity": 64}, {"time": 60, "pitch": 65, "duration": 12, "velocity": 64}, {"time": 72, "pitch": 72, "duration": 12, "velocity": 64}, {"time": 84, "pitch": 69, "duration": 12, "velocity": 64}, {"time": 96, "pitch": 72, "duration": 6, "velocity": 64}, {"time": 102, "pitch": 72, "duration": 6, "velocity": 64}, {"time": 108, "pitch": 74, "duration": 6, "velocity": 64}, {"time": 114, "pitch": 74, "duration": 6, "velocity": 64}, {"time": 120, "pitch": 72, "duration": 6, "velocity": 64}, {"time": 126, "pitch": 72, "duration": 6, "velocity": 64}, {"time": 132, "pitch": 70, "duration": 6, "velocity": 64}, {"time": 138, "pitch": 70, "duration": 6, "velocity": 64}, {"time": 144, "pitch": 69, "duration": 6, "velocity": 64}, {"time": 150, "pitch": 69, "duration": 6, "velocity": 64}, {"time": 156, "pitch": 67, "duration": 24, "velocity": 64}, {"time": 192, "pitch": 60, "duration": 12, "velocity": 64}, {"time": 204, "pitch": 65, "duration": 12, "velocity": 64}, {"time": 216, "pitch": 72, "duration": 12, "velocity": 64}, {"time": 228, "pitch": 69, "duration": 6, "velocity": 64}, {"time": 234, "pitch": 67, "duration": 6, "velocity": 64}, {"time": 240, "pitch": 69, "duration": 6, "velocity": 64}, {"time": 246, "pitch": 67, "duration": 6, "velocity": 64}, {"time": 252, "pitch": 65, "duration": 12, "velocity": 64}, {"time": 264, "pitch": 72, "duration": 12, "velocity": 64}, {"time": 276, "pitch": 69, "duration": 12, "velocity": 64}, {"time": 288, "pitch": 72, "duration": 6, "velocity": 64}, {"time": 294, "pitch": 72, "duration": 6, "velocity": 64}, {"time": 300, "pitch": 74, "duration": 6, "velocity": 64}, {"time": 306, "pitch": 74, "duration": 6, "velocity": 64}, {"time": 312, "pitch": 72, "duration": 6, "velocity": 64}, {"time": 318, "pitch": 72, "duration": 6, "velocity": 64}, {"time": 324, "pitch": 70, "duration": 6, "velocity": 64}, {"time": 330, "pitch": 70, "duration": 6, "velocity": 64}, {"time": 336, "pitch": 69, "duration": 6, "velocity": 64}, {"time": 342, "pitch": 69, "duration": 6, "velocity": 64}, {"time": 348, "pitch": 67, "duration": 24, "velocity": 64}, {"time": 390, "pitch": 72, "duration": 6, "velocity": 64}, {"time": 396, "pitch": 72, "duration": 6, "velocity": 64}, {"time": 402, "pitch": 72, "duration": 6, "velocity": 64}, {"time": 408, "pitch": 72, "duration": 4, "velocity": 64}, {"time": 412, "pitch": 72, "duration": 4, "velocity": 64}, {"time": 416, "pitch": 72, "duration": 4, "velocity": 64}, {"time": 420, "pitch": 72, "duration": 6, "velocity": 64}, {"time": 426, "pitch": 72, "duration": 6, "velocity": 64}, {"time": 432, "pitch": 69, "duration": 6, "velocity": 64}, {"time": 438, "pitch": 72, "duration": 6, "velocity": 64}, {"time": 444, "pitch": 65, "duration": 12, "velocity": 64}, {"time": 462, "pitch": 65, "duration": 6, "velocity": 64}, {"time": 468, "pitch": 74, "duration": 6, "velocity": 64}, {"time": 474, "pitch": 74, "duration": 6, "velocity": 64}, {"time": 480, "pitch": 74, "duration": 4, "velocity": 64}, {"time": 484, "pitch": 74, "duration": 4, "velocity": 64}, {"time": 488, "pitch": 74, "duration": 4, "velocity": 64}, {"time": 492, "pitch": 74, "duration": 6, "velocity": 64}, {"time": 498, "pitch": 74, "duration": 6, "velocity": 64}, {"time": 504, "pitch": 72, "duration": 12, "velocity": 64}, {"time": 516, "pitch": 70, "duration": 12, "velocity": 64}, {"time": 528, "pitch": 69, "duration": 12, "velocity": 64}, {"time": 540, "pitch": 65, "duration": 12, "velocity": 64}, {"time": 552, "pitch": 67, "duration": 6, "velocity": 64}, {"time": 558, "pitch": 74, "duration": 6, "velocity": 64}, {"time": 564, "pitch": 72, "duration": 6, "velocity": 64}, {"time": 570, "pitch": 70, "duration": 6, "velocity": 64}, {"time": 576, "pitch": 69, "duration": 12, "velocity": 64}, {"time": 588, "pitch": 67, "duration": 12, "velocity": 64}, {"time": 600, "pitch": 65, "duration": 24, "velocity": 64}, {"time": 642, "pitch": 72, "duration": 6, "velocity": 64}, {"time": 648, "pitch": 72, "duration": 6, "velocity": 64}, {"time": 654, "pitch": 72, "duration": 6, "velocity": 64}, {"time": 660, "pitch": 72, "duration": 4, "velocity": 64}, {"time": 664, "pitch": 72, "duration": 4, "velocity": 64}, {"time": 668, "pitch": 72, "duration": 4, "velocity": 64}, {"time": 672, "pitch": 72, "duration": 6, "velocity": 64}, {"time": 678, "pitch": 72, "duration": 6, "velocity": 64}, {"time": 684, "pitch": 69, "duration": 6, "velocity": 64}, {"time": 690, "pitch": 72, "duration": 6, "velocity": 64}, {"time": 696, "pitch": 65, "duration": 12, "velocity": 64}, {"time": 714, "pitch": 65, "duration": 6, "velocity": 64}, {"time": 720, "pitch": 74, "duration": 6, "velocity": 64}, {"time": 726, "pitch": 74, "duration": 6, "velocity": 64}, {"time": 732, "pitch": 74, "duration": 4, "velocity": 64}, {"time": 736, "pitch": 74, "duration": 4, "velocity": 64}, {"time": 740, "pitch": 74, "duration": 4, "velocity": 64}, {"time": 744, "pitch": 74, "duration": 6, "velocity": 64}, {"time": 750, "pitch": 74, "duration": 6, "velocity": 64}, {"time": 756, "pitch": 72, "duration": 12, "velocity": 64}, {"time": 768, "pitch": 70, "duration": 12, "velocity": 64}, {"time": 780, "pitch": 69, "duration": 12, "velocity": 64}, {"time": 792, "pitch": 65, "duration": 12, "velocity": 64}, {"time": 804, "pitch": 67, "duration": 6, "velocity": 64}, {"time": 810, "pitch": 74, "duration": 6, "velocity": 64}, {"time": 816, "pitch": 72, "duration": 6, "velocity": 64}, {"time": 822, "pitch": 70, "duration": 6, "velocity": 64}, {"time": 828, "pitch": 69, "duration": 12, "velocity": 64}, {"time": 840, "pitch": 67, "duration": 12, "velocity": 64}, {"time": 852, "pitch": 65, "duration": 24, "velocity": 64}]}]}