{"metadata": {"schema_version": "0.1", "title": "GOTT SEI MIT DIR MEIN SACHSENLAND", "source_format": "abc"}, "resolution": 24, "tempos": [{"time": 0, "qpm": 120.0}], "key_signatures": [{"time": 0, "root": 10, "mode": "major", "fifths": -2}], "time_signatures": [{"time": 0, "numerator": 4, "denominator": 4}], "beats": [{"time": 0, "is_downbeat": true}, {"time": 24, "is_downbeat": false}, {"time": 30, "is_downbeat": true}, {"time": 54, "is_downbeat": false}, {"time": 78, "is_downbeat": false}, {"time": 102, "is_downbeat": false}, {"time": 126, "is_downbeat": true}, {"time": 150, "is_downbeat": false}, {"time": 174, "is_downbeat": false}, {"time": 198, "is_downbeat": false}, {"time": 222, "is_downbeat": true}, {"time": 246, "is_downbeat": false}, {"time": 270, "is_downbeat": false}, {"time": 294, "is_downbeat": false}, {"time": 318, "is_downbeat": true}, {"time": 342, "is_downbeat": false}, {"time": 366, "is_downbeat": false}, {"time": 390, "is_downbeat": false}, {"time": 414, "is_downbeat": true}, {"time": 438, "is_downbeat": false}, {"time": 462, "is_downbeat": false}, {"time": 486, "is_downbeat": false}, {"time": 510, "is_downbeat": true}, {"time": 534, "is_downbeat": false}, {"time": 558, "is_downbeat": false}, {"time": 582, "is_downbeat": false}, {"time": 606, "is_downbeat": true}, {"time": 630, "is_downbeat": false}, {"time": 654, "is_downbeat": false}, {"time": 678, "is_downbeat": false}, {"time": 702, "is_downbeat": true}, {"time": 726, "is_downbeat": false}, {"time": 750, "is_downbeat": false}, {"time": 774, "is_downbeat": false}, {"time": 798, "is_downbeat": true}, {"time": 822, "is_downbeat": false}, {"time": 846, "is_downbeat": false}, {"time": 870, "is_downbeat": false}, {"time": 894, "is_downbeat": true}, {"time": 918, "is_downbeat": false}, {"time": 942, "is_downbeat": false}, {"time": 966, "is_downbeat": false}, {"time": 990, "is_downbeat": true}, {"time": 1014, "is_downbeat": false}, {"time": 1038, "is_downbeat": false}, {"time": 1062, "is_downbeat": false}, {"time": 1086, "is_downbeat": true}, {"time": 1110, "is_downbeat": false}, {"time": 1134, "is_downbeat": false}, {"time": 1158, "is_downbeat": false}, {"time": 1182, "is_downbeat": true}, {"time": 1206, "is_downbeat": false}, {"time": 1230, "is_downbeat": false}, {"time": 1254, "is_downbeat": false}, {"time": 1278, "is_downbeat": true}, {"time": 1302, "is_downbeat": false}, {"time": 1326, "is_downbeat": false}, {"time": 1350, "is_downbeat": false}, {"time": 1374, "is_downbeat": true}, {"time": 1398, "is_downbeat": false}, {"time": 1422, "is_downbeat": false}, {"time": 1446, "is_downbeat": false}, {"time": 1470, "is_downbeat": true}, {"time": 1494, "is_downbeat": false}, {"time": 1518, "is_downbeat": false}, {"time": 1542, "is_downbeat": false}, {"time": 1566, "is_downbeat": true}, {"time": 1590, "is_downbeat": false}, {"time": 1614, "is_downbeat": false}, {"time": 1638, "is_downbeat": false}, {"time": 1662, "is_downbeat": true}, {"time": 1686, "is_downbeat": false}, {"time": 1710, "is_downbeat": false}, {"time": 1734, "is_downbeat": false}, {"time": 1758, "is_downbeat": true}, {"time": 1782, "is_downbeat": false}, {"time": 1806, "is_downbeat": false}, {"time": 1830, "is_downbeat": false}, {"time": 1854, "is_downbeat": true}, {"time": 1878, "is_downbeat": false}, {"time": 1902, "is_downbeat": false}, {"time": 1926, "is_downbeat": false}, {"time": 1950, "is_downbeat": true}, {"time": 1974, "is_downbeat": false}, {"time": 1998, "is_downbeat": false}, {"time": 2022, "is_downbeat": false}, {"time": 2046, "is_downbeat": true}, {"time": 2070, "is_downbeat": false}, {"time": 2094, "is_downbeat": false}, {"time": 2118, "is_downbeat": false}, {"time": 2142, "is_downbeat": true}, {"time": 2166, "is_downbeat": false}, {"time": 2190, "is_downbeat": false}, {"time": 2214, "is_downbeat": false}, {"time": 2238, "is_downbeat": true}, {"time": 2262, "is_downbeat": false}, {"time": 2286, "is_downbeat": false}, {"time": 2310, "is_downbeat": false}], "tracks": [{"program": 0, "is_drum": false, "notes": [{"time": 0, "pitch": 65, "duration": 6, "velocity": 64}, {"time": 6, "pitch": 70, "duration": 18, "velocity": 64}, {"time": 24, "pitch": 72, "duration": 6, "velocity": 64}, {"time": 30, "pitch": 74, "duration": 36, "velocity": 64}, {"time": 66, "pitch": 74, "duration": 12, "velocity": 64}, {"time": 78, "pitch": 72, "duration": 18, "velocity": 64}, {"time": 96, "pitch": 70, "duration": 6, "velocity": 64}, {"time": 102, "pitch": 72, "duration": 18, "velocity": 64}, {"time": 120, "pitch": 74, "duration": 6, "velocity": 64}, {"time": 126, "pitch": 70, "duration": 48, "velocity": 64}, {"time": 198, "pitch": 74, "duration": 24, "velocity": 64}, {"time": 222, "pitch": 72, "duration": 18, "velocity": 64}, {"time": 240, "pitch": 77, "duration": 6, "velocity": 64}, {"time": 246, "pitch": 76, "duration": 18, "velocity": 64}, {"time": 264, "pitch": 74, "duration": 6, "velocity": 64}, {"time": 270, "pitch": 72, "duration": 18, "velocity": 64}, {"time": 288, "pitch": 70, "duration": 6, "velocity": 64}, {"time": 294, "pitch": 67, "duration": 18, "velocity": 64}, {"time": 312, "pitch": 69, "duration": 6, "velocity": 64}, {"time": 318, "pitch": 70, "duration": 48, "velocity": 64}, {"time": 384, "pitch": 67, "duration": 6, "velocity": 64}, {"time": 390, "pitch": 72, "duration": 18, "velocity": 64}, {"time": 408, "pitch": 74, "duration": 6, "velocity": 64}, {"time": 414, "pitch": 75, "duration": 36, "velocity": 64}, {"time": 450, "pitch": 75, "duration": 12, "velocity": 64}, {"time": 462, "pitch": 74, "duration": 18, "velocity": 64}, {"time": 480, "pitch": 72, "duration": 6, "velocity": 64}, {"time": 486, "pitch": 74, "duration": 18, "velocity": 64}, {"time": 504, "pitch": 75, "duration": 6, "velocity": 64}, {"time": 510, "pitch": 72, "duration": 48, "velocity": 64}, {"time": 576, "pitch": 75, "duration": 6, "velocity": 64}, {"time": 582, "pitch": 74, "duration": 18, "velocity": 64}, {"time": 600, "pitch": 72, "duration": 6, "velocity": 64}, {"time": 606, "pitch": 70, "duration": 48, "velocity": 64}, {"time": 654, "pitch": 74, "duration": 48, "velocity": 64}, {"time": 702, "pitch": 72, "duration": 48, "velocity": 64}, {"time": 774, "pitch": 65, "duration": 24, "velocity": 64}, {"time": 798, "pitch": 72, "duration": 36, "velocity": 64}, {"time": 834, "pitch": 70, "duration": 12, "velocity": 64}, {"time": 846, "pitch": 69, "duration": 18, "velocity": 64}, {"time": 864, "pitch": 70, "duration": 6, "velocity": 64}, {"time": 870, "pitch": 72, "duration": 18, "velocity": 64}, {"time": 888, "pitch": 74, "duration": 6, "velocity": 64}, {"time": 894, "pitch": 75, "duration": 48, "velocity": 64}, {"time": 960, "pitch": 65, "duration": 6, "velocity": 64}, {"time": 966, "pitch": 65, "duration": 18, "velocity": 64}, {"time": 984, "pitch": 65, "duration": 6, "velocity": 64}, {"time": 990, "pitch": 74, "duration": 36, "velocity": 64}, {"time": 1026, "pitch": 72, "duration": 12, "velocity": 64}, {"time": 1038, "pitch": 70, "duration": 18, "velocity": 64}, {"time": 1056, "pitch": 72, "duration": 6, "velocity": 64}, {"time": 1062, "pitch": 74, "duration": 18, "velocity": 64}, {"time": 1080, "pitch": 75, "duration": 6, "velocity": 64}, {"time": 1086, "pitch": 72, "duration": 48, "velocity": 64}, {"time": 1152, "pitch": 65, "duration": 6, "velocity": 64}, {"time": 1158, "pitch": 62, "duration": 18, "velocity": 64}, {"time": 1176, "pitch": 65, "duration": 6, "velocity": 64}, {"time": 1182, "pitch": 70, "duration": 48, "velocity": 64}, {"time": 1248, "pitch": 70, "duration": 6, "velocity": 64}, {"time": 1254, "pitch": 65, "duration": 18, "velocity": 64}, {"time": 1272, "pitch": 70, "duration": 6, "velocity": 64}, {"time": 1278, "pitch": 74, "duration": 48, "velocity": 64}, {"time": 1344, "pitch": 65, "duration": 6, "velocity": 64}, {"time": 1350, "pitch": 70, "duration": 18, "velocity": 64}, {"time": 1368, "pitch": 74, "duration": 6, "velocity": 64}, {"time": 1374, "pitch": 77, "duration": 36, "velocity": 64}, {"time": 1410, "pitch": 74, "duration": 12, "velocity": 64}, {"time": 1422, "pitch": 77, "duration": 18, "velocity": 64}, {"time": 1440, "pitch": 75, "duration": 6, "velocity": 64}, {"time": 1446, "pitch": 74, "duration": 18, "velocity": 64}, {"time": 1464, "pitch": 72, "duration": 6, "velocity": 64}, {"time": 1470, "pitch": 70, "duration": 48, "velocity": 64}, {"time": 1542, "pitch": 65, "duration": 24, "velocity": 64}, {"time": 1566, "pitch": 72, "duration": 36, "velocity": 64}, {"time": 1602, "pitch": 70, "duration": 12, "velocity": 64}, {"time": 1614, "pitch": 69, "duration": 18, "velocity": 64}, {"time": 1632, "pitch": 70, "duration": 6, "velocity": 64}, {"time": 1638, "pitch": 72, "duration": 18, "velocity": 64}, {"time": 1656, "pitch": 74, "duration": 6, "velocity": 64}, {"time": 1662, "pitch": 75, "duration": 48, "velocity": 64}, {"time": 1728, "pitch": 65, "duration": 6, "velocity": 64}, {"time": 1734, "pitch": 65, "duration": 18, "velocity": 64}, {"time": 1752, "pitch": 65, "duration": 6, "velocity": 64}, {"time": 1758, "pitch": 74, "duration": 36, "velocity": 64}, {"time": 1794, "pitch": 72, "duration": 12, "velocity": 64}, {"time": 1806, "pitch": 70, "duration": 18, "velocity": 64}, {"time": 1824, "pitch": 72, "duration": 6, "velocity": 64}, {"time": 1830, "pitch": 74, "duration": 18, "velocity": 64}, {"time": 1848, "pitch": 75, "duration": 6, "velocity": 64}, {"time": 1854, "pitch": 72, "duration": 48, "velocity": 64}, {"time": 1920, "pitch": 65, "duration": 6, "velocity": 64}, {"time": 1926, "pitch": 62, "duration": 18, "velocity": 64}, {"time": 1944, "pitch": 65, "duration": 6, "velocity": 64}, {"time": 1950, "pitch": 70, "duration": 48, "velocity": 64}, {"time": 2016, "pitch": 70, "duration": 6, "velocity": 64}, {"time": 2022, "pitch": 65, "duration": 18, "velocity": 64}, {"time": 2040, "pitch": 70, "duration": 6, "velocity": 64}, {"time": 2046, "pitch": 74, "duration": 48, "velocity": 64}, {"time": 2112, "pitch": 65, "duration": 6, "velocity": 64}, {"time": 2118, "pitch": 70, "duration": 18, "velocity": 64}, {"time": 2136, "pitch": 74, "duration": 6, "velocity": 64}, {"time": 2142, "pitch": 77, "duration": 36, "velocity": 64}, {"time": 2178, "pitch": 74, "duration": 12, "velocity": 64}, {"time": 2190, "pitch": 77, "duration": 18, "velocity": 64}, {"time": 2208, "pitch": 75, "duration": 6, "velocity": 64}, {"time": 2214, "pitch": 74, "duration": 18, "velocity": 64}, {"time": 2232, "pitch": 72, "duration": 6, "velocity": 64}, {"time": 2238, "pitch": 70, "duration": 48, "velocity": 64}]}]}