{"metadata": {"schema_version": "0.1", "title": "WO IST DAS VOLK", "source_format": "abc"}, "resolution": 24, "tempos": [{"time": 0, "qpm": 120.0}], "key_signatures": [{"time": 0, "root": 7, "mode": "major", "fifths": 1}], "time_signatures": [{"time": 0, "numerator": 4, "denominator": 4}], "beats": [{"time": 0, "is_downbeat": true}, {"time": 24, "is_downbeat": false}, {"time": 30, "is_downbeat": true}, {"time": 54, "is_downbeat": false}, {"time": 78, "is_downbeat": false}, {"time": 102, "is_downbeat": false}, {"time": 126, "is_downbeat": true}, {"time": 150, "is_downbeat": false}, {"time": 174, "is_downbeat": false}, {"time": 198, "is_downbeat": false}, {"time": 222, "is_downbeat": true}, {"time": 246, "is_downbeat": false}, {"time": 270, "is_downbeat": false}, {"time": 294, "is_downbeat": false}, {"time": 318, "is_downbeat": true}, {"time": 342, "is_downbeat": false}, {"time": 366, "is_downbeat": false}, {"time": 390, "is_downbeat": false}, {"time": 414, "is_downbeat": true}, {"time": 438, "is_downbeat": false}, {"time": 462, "is_downbeat": false}, {"time": 486, "is_downbeat": false}, {"time": 510, "is_downbeat": true}, {"time": 534, "is_downbeat": false}, {"time": 558, "is_downbeat": false}, {"time": 582, "is_downbeat": false}, {"time": 606, "is_downbeat": true}, {"time": 630, "is_downbeat": false}, {"time": 654, "is_downbeat": false}, {"time": 678, "is_downbeat": false}, {"time": 702, "is_downbeat": true}, {"time": 726, "is_downbeat": false}, {"time": 750, "is_downbeat": false}, {"time": 774, "is_downbeat": false}, {"time": 798, "is_downbeat": true}, {"time": 822, "is_downbeat": false}, {"time": 846, "is_downbeat": false}, {"time": 870, "is_downbeat": false}, {"time": 894, "is_downbeat": true}, {"time": 918, "is_downbeat": false}, {"time": 942, "is_downbeat": false}, {"time": 966, "is_downbeat": false}, {"time": 990, "is_downbeat": true}, {"time": 1014, "is_downbeat": false}, {"time": 1038, "is_downbeat": false}, {"time": 1062, "is_downbeat": false}, {"time": 1086, "is_downbeat": true}, {"time": 1110, "is_downbeat": false}, {"time": 1134, "is_downbeat": false}, {"time": 1158, "is_downbeat": false}, {"time": 1182, "is_downbeat": true}, {"time": 1206, "is_downbeat": false}, {"time": 1230, "is_downbeat": false}, {"time": 1254, "is_downbeat": false}, {"time": 1278, "is_downbeat": true}, {"time": 1302, "is_downbeat": false}, {"time": 1326, "is_downbeat": false}, {"time": 1350, "is_downbeat": false}, {"time": 1374, "is_downbeat": true}, {"time": 1398, "is_downbeat": false}, {"time": 1422, "is_downbeat": false}, {"time": 1446, "is_downbeat": false}, {"time": 1470, "is_downbeat": true}, {"time": 1494, "is_downbeat": false}, {"time": 1518, "is_downbeat": false}, {"time": 1542, "is_downbeat": false}], "tracks": [{"program": 0, "is_drum": false, "notes": [{"time": 0, "pitch": 62, "duration": 6, "velocity": 64}, {"time": 6, "pitch": 67, "duration": 18, "velocity": 64}, {"time": 24, "pitch": 69, "duration": 6, "velocity": 64}, {"time": 30, "pitch": 71, "duration": 36, "velocity": 64}, {"time": 66, "pitch": 71, "duration": 12, "velocity": 64}, {"time": 78, "pitch": 74, "duration": 18, "velocity": 64}, {"time": 96, "pitch": 72, "duration": 6, "velocity": 64}, {"time": 102, "pitch": 71, "duration": 18, "velocity": 64}, {"time": 120, "pitch": 69, "duration": 6, "velocity": 64}, {"time": 126, "pitch": 67, "duration": 48, "velocity": 64}, {"time": 192, "pitch": 68, "duration": 6, "velocity": 64}, {"time": 198, "pitch": 69, "duration": 18, "velocity": 64}, {"time": 216, "pitch": 71, "duration": 6, "velocity": 64}, {"time": 222, "pitch": 72, "duration": 36, "velocity": 64}, {"time": 258, "pitch": 69, "duration": 12, "velocity": 64}, {"time": 270, "pitch": 68, "duration": 36, "velocity": 64}, {"time": 306, "pitch": 69, "duration": 6, "velocity": 64}, {"time": 312, "pitch": 71, "duration": 6, "velocity": 64}, {"time": 318, "pitch": 64, "duration": 48, "velocity": 64}, {"time": 384, "pitch": 64, "duration": 6, "velocity": 64}, {"time": 390, "pitch": 71, "duration": 18, "velocity": 64}, {"time": 408, "pitch": 69, "duration": 6, "velocity": 64}, {"time": 414, "pitch": 69, "duration": 18, "velocity": 64}, {"time": 432, "pitch": 71, "duration": 6, "velocity": 64}, {"time": 438, "pitch": 73, "duration": 18, "velocity": 64}, {"time": 456, "pitch": 74, "duration": 6, "velocity": 64}, {"time": 462, "pitch": 62, "duration": 24, "velocity": 64}, {"time": 486, "pitch": 66, "duration": 18, "velocity": 64}, {"time": 504, "pitch": 64, "duration": 6, "velocity": 64}, {"time": 510, "pitch": 62, "duration": 48, "velocity": 64}, {"time": 582, "pitch": 62, "duration": 24, "velocity": 64}, {"time": 606, "pitch": 72, "duration": 72, "velocity": 64}, {"time": 678, "pitch": 71, "duration": 18, "velocity": 64}, {"time": 696, "pitch": 69, "duration": 6, "velocity": 64}, {"time": 702, "pitch": 71, "duration": 72, "velocity": 64}, {"time": 774, "pitch": 67, "duration": 18, "velocity": 64}, {"time": 792, "pitch": 71, "duration": 6, "velocity": 64}, {"time": 798, "pitch": 74, "duration": 48, "velocity": 64}, {"time": 846, "pitch": 74, "duration": 18, "velocity": 64}, {"time": 864, "pitch": 71, "duration": 6, "velocity": 64}, {"time": 870, "pitch": 69, "duration": 18, "velocity": 64}, {"time": 888, "pitch": 67, "duration": 6, "velocity": 64}, {"time": 894, "pitch": 69, "duration": 48, "velocity": 64}, {"time": 960, "pitch": 74, "duration": 6, "velocity": 64}, {"time": 966, "pitch": 72, "duration": 18, "velocity": 64}, {"time": 984, "pitch": 69, "duration": 6, "velocity": 64}, {"time": 990, "pitch": 67, "duration": 24, "velocity": 64}, {"time": 1014, "pitch": 71, "duration": 24, "velocity": 64}, {"time": 1038, "pitch": 71, "duration": 18, "velocity": 64}, {"time": 1056, "pitch": 71, "duration": 6, "velocity": 64}, {"time": 1062, "pitch": 74, "duration": 18, "velocity": 64}, {"time": 1080, "pitch": 72, "duration": 6, "velocity": 64}, {"time": 1086, "pitch": 69, "duration": 48, "velocity": 64}, {"time": 1152, "pitch": 69, "duration": 6, "velocity": 64}, {"time": 1158, "pitch": 71, "duration": 18, "velocity": 64}, {"time": 1176, "pitch": 72, "duration": 6, "velocity": 64}, {"time": 1182, "pitch": 74, "duration": 36, "velocity": 64}, {"time": 1218, "pitch": 76, "duration": 12, "velocity": 64}, {"time": 1230, "pitch": 74, "duration": 18, "velocity": 64}, {"time": 1248, "pitch": 72, "duration": 6, "velocity": 64}, {"time": 1254, "pitch": 71, "duration": 18, "velocity": 64}, {"time": 1272, "pitch": 69, "duration": 6, "velocity": 64}, {"time": 1278, "pitch": 67, "duration": 24, "velocity": 64}, {"time": 1320, "pitch": 71, "duration": 6, "velocity": 64}, {"time": 1326, "pitch": 74, "duration": 36, "velocity": 64}, {"time": 1362, "pitch": 71, "duration": 6, "velocity": 64}, {"time": 1368, "pitch": 67, "duration": 6, "velocity": 64}, {"time": 1374, "pitch": 74, "duration": 36, "velocity": 64}, {"time": 1410, "pitch": 71, "duration": 6, "velocity": 64}, {"time": 1416, "pitch": 67, "duration": 6, "velocity": 64}, {"time": 1422, "pitch": 62, "duration": 36, "velocity": 64}, {"time": 1458, "pitch": 64, "duration": 6, "velocity": 64}, {"time": 1464, "pitch": 66, "duration": 6, "velocity": 64}, {"time": 1470, "pitch": 67, "duration": 48, "velocity": 64}]}]}