{"metadata": {"schema_version": "0.1", "title": "DORT WO DIE SCHNEEBERG STOLZ", "source_format": "abc"}, "resolution": 24, "tempos": [{"time": 0, "qpm": 120.0}], "key_signatures": [{"time": 0, "root": 0, "mode": "major", "fifths": 0}], "time_signatures": [{"time": 0, "numerator": 3, "denominator": 4}], "beats": [{"time": 0, "is_downbeat": true}, {"time": 24, "is_downbeat": false}, {"time": 36, "is_downbeat": true}, {"time": 60, "is_downbeat": false}, {"time": 84, "is_downbeat": false}, {"time": 108, "is_downbeat": true}, {"time": 132, "is_downbeat": false}, {"time": 156, "is_downbeat": false}, {"time": 180, "is_downbeat": true}, {"time": 204, "is_downbeat": false}, {"time": 228, "is_downbeat": false}, {"time": 252, "is_downbeat": true}, {"time": 276, "is_downbeat": false}, {"time": 300, "is_downbeat": false}, {"time": 324, "is_downbeat": true}, {"time": 348, "is_downbeat": false}, {"time": 372, "is_downbeat": false}, {"time": 396, "is_downbeat": true}, {"time": 420, "is_downbeat": false}, {"time": 444, "is_downbeat": false}, {"time": 468, "is_downbeat": true}, {"time": 492, "is_downbeat": false}, {"time": 516, "is_downbeat": false}, {"time": 540, "is_downbeat": true}, {"time": 564, "is_downbeat": false}, {"time": 588, "is_downbeat": false}, {"time": 612, "is_downbeat": true}, {"time": 636, "is_downbeat": false}, {"time": 660, "is_downbeat": false}, {"time": 684, "is_downbeat": true}, {"time": 708, "is_downbeat": false}, {"time": 732, "is_downbeat": false}, {"time": 756, "is_downbeat": true}, {"time": 780, "is_downbeat": false}, {"time": 804, "is_downbeat": false}, {"time": 828, "is_downbeat": true}, {"time": 852, "is_downbeat": false}, {"time": 876, "is_downbeat": false}, {"time": 900, "is_downbeat": true}, {"time": 924, "is_downbeat": false}, {"time": 948, "is_downbeat": false}, {"time": 972, "is_downbeat": true}, {"time": 996, "is_downbeat": false}, {"time": 1020, "is_downbeat": false}, {"time": 1044, "is_downbeat": true}, {"time": 1068, "is_downbeat": false}, {"time": 1092, "is_downbeat": false}, {"time": 1116, "is_downbeat": true}, {"time": 1140, "is_downbeat": false}, {"time": 1164, "is_downbeat": false}, {"time": 1188, "is_downbeat": true}, {"time": 1212, "is_downbeat": false}, {"time": 1236, "is_downbeat": false}, {"time": 1260, "is_downbeat": true}, {"time": 1284, "is_downbeat": false}, {"time": 1308, "is_downbeat": false}, {"time": 1332, "is_downbeat": true}, {"time": 1356, "is_downbeat": false}, {"time": 1380, "is_downbeat": false}, {"time": 1404, "is_downbeat": true}, {"time": 1428, "is_downbeat": false}, {"time": 1452, "is_downbeat": false}, {"time": 1476, "is_downbeat": true}, {"time": 1500, "is_downbeat": false}, {"time": 1524, "is_downbeat": false}, {"time": 1548, "is_downbeat": true}, {"time": 1572, "is_downbeat": false}, {"time": 1596, "is_downbeat": false}, {"time": 1620, "is_downbeat": true}, {"time": 1644, "is_downbeat": false}, {"time": 1668, "is_downbeat": false}, {"time": 1692, "is_downbeat": true}, {"time": 1716, "is_downbeat": false}, {"time": 1740, "is_downbeat": false}, {"time": 1764, "is_downbeat": true}, {"time": 1788, "is_downbeat": false}, {"time": 1812, "is_downbeat": false}, {"time": 1836, "is_downbeat": true}, {"time": 1860, "is_downbeat": false}, {"time": 1884, "is_downbeat": false}, {"time": 1908, "is_downbeat": true}, {"time": 1932, "is_downbeat": false}, {"time": 1956, "is_downbeat": false}, {"time": 1980, "is_downbeat": true}, {"time": 2004, "is_downbeat": false}, {"time": 2028, "is_downbeat": false}, {"time": 2052, "is_downbeat": true}, {"time": 2076, "is_downbeat": false}, {"time": 2100, "is_downbeat": false}, {"time": 2124, "is_downbeat": true}, {"time": 2148, "is_downbeat": false}, {"time": 2172, "is_downbeat": false}], "tracks": [{"program": 0, "is_drum": false, "notes": [{"time": 0, "pitch": 60, "duration": 12, "velocity": 64}, {"time": 12, "pitch": 62, "duration": 12, "velocity": 64}, {"time": 24, "pitch": 60, "duration": 12, "velocity": 64}, {"time": 36, "pitch": 60, "duration": 12, "velocity": 64}, {"time": 48, "pitch": 52, "duration": 12, "velocity": 64}, {"time": 60, "pitch": 55, "duration": 12, "velocity": 64}, {"time": 72, "pitch": 60, "duration": 12, "velocity": 64}, {"time": 84, "pitch": 62, "duration": 12, "velocity": 64}, {"time": 96, "pitch": 60, "duration": 12, "velocity": 64}, {"time": 108, "pitch": 59, "duration": 12, "velocity": 64}, {"time": 120, "pitch": 62, "duration": 12, "velocity": 64}, {"time": 132, "pitch": 53, "duration": 18, "velocity": 64}, {"time": 150, "pitch": 55, "duration": 6, "velocity": 64}, {"time": 156, "pitch": 64, "duration": 18, "velocity": 64}, {"time": 174, "pitch": 62, "duration": 6, "velocity": 64}, {"time": 180, "pitch": 60, "duration": 12, "velocity": 64}, {"time": 192, "pitch": 59, "duration": 12, "velocity": 64}, {"time": 204, "pitch": 53, "duration": 18, "velocity": 64}, {"time": 222, "pitch": 60, "duration": 6, "velocity": 64}, {"time": 228, "pitch": 59, "duration": 12, "velocity": 64}, {"time": 240, "pitch": 57, "duration": 12, "velocity": 64}, {"time": 252, "pitch": 55, "duration": 12, "velocity": 64}, {"time": 264, "pitch": 60, "duration": 12, "velocity": 64}, {"time": 276, "pitch": 52, "duration": 12, "velocity": 64}, {"time": 288, "pitch": 60, "duration": 12, "velocity": 64}, {"time": 300, "pitch": 62, "duration": 12, "velocity": 64}, {"time": 312, "pitch": 60, "duration": 12, "velocity": 64}, {"time": 324, "pitch": 60, "duration": 12, "velocity": 64}, {"time": 336, "pitch": 52, "duration": 12, "velocity": 64}, {"time": 348, "pitch": 55, "duration": 12, "velocity": 64}, {"time": 360, "pitch": 60, "duration": 12, "velocity": 64}, {"time": 372, "pitch": 62, "duration": 12, "velocity": 64}, {"time": 384, "pitch": 60, "duration": 12, "velocity": 64}, {"time": 396, "pitch": 59, "duration": 12, "velocity": 64}, {"time": 408, "pitch": 62, "duration": 12, "velocity": 64}, {"time": 420, "pitch": 53, "duration": 18, "velocity": 64}, {"time": 438, "pitch": 55, "duration": 6, "velocity": 64}, {"time": 444, "pitch": 64, "duration": 18, "velocity": 64}, {"time": 462, "pitch": 62, "duration": 6, "velocity": 64}, {"time": 468, "pitch": 60, "duration": 12, "velocity": 64}, {"time": 480, "pitch": 59, "duration": 12, "velocity": 64}, {"time": 492, "pitch": 53, "duration": 18, "velocity": 64}, {"time": 510, "pitch": 60, "duration": 6, "velocity": 64}, {"time": 516, "pitch": 59, "duration": 12, "velocity": 64}, {"time": 528, "pitch": 57, "duration": 12, "velocity": 64}, {"time": 540, "pitch": 55, "duration": 12, "velocity": 64}, {"time": 552, "pitch": 60, "duration": 12, "velocity": 64}, {"time": 564, "pitch": 52, "duration": 12, "velocity": 64}, {"time": 582, "pitch": 54, "duration": 6, "velocity": 64}, {"time": 588, "pitch": 55, "duration": 18, "velocity": 64}, {"time": 606, "pitch": 57, "duration": 6, "velocity": 64}, {"time": 612, "pitch": 59, "duration": 18, "velocity": 64}, {"time": 630, "pitch": 57, "duration": 6, "velocity": 64}, {"time": 636, "pitch": 55, "duration": 12, "velocity": 64}, {"time": 648, "pitch": 60, "duration": 12, "velocity": 64}, {"time": 660, "pitch": 59, "duration": 18, "velocity": 64}, {"time": 678, "pitch": 57, "duration": 6, "velocity": 64}, {"time": 684, "pitch": 59, "duration": 18, "velocity": 64}, {"time": 702, "pitch": 57, "duration": 6, "velocity": 64}, {"time": 708, "pitch": 55, "duration": 12, "velocity": 64}, {"time": 720, "pitch": 50, "duration": 12, "velocity": 64}, {"time": 732, "pitch": 55, "duration": 12, "velocity": 64}, {"time": 744, "pitch": 59, "duration": 12, "velocity": 64}, {"time": 756, "pitch": 62, "duration": 18, "velocity": 64}, {"time": 774, "pitch": 60, "duration": 6, "velocity": 64}, {"time": 780, "pitch": 59, "duration": 12, "velocity": 64}, {"time": 792, "pitch": 64, "duration": 12, "velocity": 64}, {"time": 804, "pitch": 62, "duration": 12, "velocity": 64}, {"time": 816, "pitch": 61, "duration": 12, "velocity": 64}, {"time": 828, "pitch": 62, "duration": 18, "velocity": 64}, {"time": 846, "pitch": 60, "duration": 6, "velocity": 64}, {"time": 852, "pitch": 59, "duration": 12, "velocity": 64}, {"time": 864, "pitch": 50, "duration": 12, "velocity": 64}, {"time": 876, "pitch": 55, "duration": 12, "velocity": 64}, {"time": 888, "pitch": 59, "duration": 12, "velocity": 64}, {"time": 900, "pitch": 62, "duration": 18, "velocity": 64}, {"time": 918, "pitch": 60, "duration": 6, "velocity": 64}, {"time": 924, "pitch": 59, "duration": 12, "velocity": 64}, {"time": 936, "pitch": 55, "duration": 12, "velocity": 64}, {"time": 948, "pitch": 59, "duration": 12, "velocity": 64}, {"time": 960, "pitch": 62, "duration": 12, "velocity": 64}, {"time": 972, "pitch": 65, "duration": 18, "velocity": 64}, {"time": 990, "pitch": 64, "duration": 6, "velocity": 64}, {"time": 996, "pitch": 62, "duration": 48, "velocity": 64}, {"time": 1044, "pitch": 64, "duration": 24, "velocity": 64}, {"time": 1068, "pitch": 62, "duration": 24, "velocity": 64}, {"time": 1092, "pitch": 60, "duration": 24, "velocity": 64}, {"time": 1116, "pitch": 59, "duration": 12, "velocity": 64}, {"time": 1128, "pitch": 50, "duration": 12, "velocity": 64}, {"time": 1140, "pitch": 53, "duration": 48, "velocity": 64}, {"time": 1188, "pitch": 60, "duration": 24, "velocity": 64}, {"time": 1212, "pitch": 59, "duration": 24, "velocity": 64}, {"time": 1236, "pitch": 57, "duration": 24, "velocity": 64}, {"time": 1260, "pitch": 55, "duration": 12, "velocity": 64}, {"time": 1272, "pitch": 48, "duration": 12, "velocity": 64}, {"time": 1284, "pitch": 52, "duration": 48, "velocity": 64}, {"time": 1332, "pitch": 52, "duration": 24, "velocity": 64}, {"time": 1356, "pitch": 55, "duration": 24, "velocity": 64}, {"time": 1380, "pitch": 60, "duration": 24, "velocity": 64}, {"time": 1404, "pitch": 64, "duration": 12, "velocity": 64}, {"time": 1416, "pitch": 55, "duration": 12, "velocity": 64}, {"time": 1428, "pitch": 65, "duration": 36, "velocity": 64}, {"time": 1464, "pitch": 64, "duration": 12, "velocity": 64}, {"time": 1476, "pitch": 64, "duration": 48, "velocity": 64}, {"time": 1524, "pitch": 62, "duration": 24, "velocity": 64}, {"time": 1548, "pitch": 60, "duration": 48, "velocity": 64}, {"time": 1620, "pitch": 64, "duration": 24, "velocity": 64}, {"time": 1644, "pitch": 62, "duration": 24, "velocity": 64}, {"time": 1668, "pitch": 60, "duration": 24, "velocity": 64}, {"time": 1692, "pitch": 59, "duration": 12, "velocity": 64}, {"time": 1704, "pitch": 50, "duration": 12, "velocity": 64}, {"time": 1716, "pitch": 53, "duration": 48, "velocity": 64}, {"time": 1764, "pitch": 60, "duration": 24, "velocity": 64}, {"time": 1788, "pitch": 59, "duration": 24, "velocity": 64}, {"time": 1812, "pitch": 57, "duration": 24, "velocity": 64}, {"time": 1836, "pitch": 55, "duration": 12, "velocity": 64}, {"time": 1848, "pitch": 48, "duration": 12, "velocity": 64}, {"time": 1860, "pitch": 52, "duration": 48, "velocity": 64}, {"time": 1908, "pitch": 52, "duration": 24, "velocity": 64}, {"time": 1932, "pitch": 55, "duration": 24, "velocity": 64}, {"time": 1956, "pitch": 60, "duration": 24, "velocity": 64}, {"time": 1980, "pitch": 64, "duration": 12, "velocity": 64}, {"time": 1992, "pitch": 55, "duration": 12, "velocity": 64}, {"time": 2004, "pitch": 65, "duration": 36, "velocity": 64}, {"time": 2040, "pitch": 64, "duration": 12, "velocity": 64}, {"time": 2052, "pitch": 64, "duration": 48, "velocity": 64}, {"time": 2100, "pitch": 62, "duration": 24, "velocity": 64}, {"time": 2124, "pitch": 60, "duration": 36, "velocity": 64}]}]}