{"metadata": {"schema_version": "0.1", "title": "DER HIMMEL UNSER HORT DIE FREIHEIT UNSER WORT", "source_format": "abc"}, "resolution": 24, "tempos": [{"time": 0, "qpm": 120.0}], "key_signatures": [{"time": 0, "root": 2, "mode": "major", "fifths": 2}], "time_signatures": [{"time": 0, "numerator": 2, "denominator": 2}], "beats": [{"time": 0, "is_downbeat": true}, {"time": 24, "is_downbeat": true}, {"time": 72, "is_downbeat": false}, {"time": 120, "is_downbeat": true}, {"time": 168, "is_downbeat": false}, {"time": 216, "is_downbeat": true}, {"time": 264, "is_downbeat": false}, {"time": 312, "is_downbeat": true}, {"time": 360, "is_downbeat": false}, {"time": 408, "is_downbeat": true}, {"time": 456, "is_downbeat": false}, {"time": 504, "is_downbeat": true}, {"time": 552, "is_downbeat": false}, {"time": 600, "is_downbeat": true}, {"time": 648, "is_downbeat": false}, {"time": 696, "is_downbeat": true}, {"time": 744, "is_downbeat": false}], "tracks": [{"program": 0, "is_drum": false, "notes": [{"time": 0, "pitch": 50, "duration": 24, "velocity": 64}, {"time": 24, "pitch": 54, "duration": 36, "velocity": 64}, {"time": 60, "pitch": 54, "duration": 12, "velocity": 64}, {"time": 72, "pitch": 57, "duration": 36, "velocity": 64}, {"time": 108, "pitch": 57, "duration": 12, "velocity": 64}, {"time": 120, "pitch": 62, "duration": 48, "velocity": 64}, {"time": 192, "pitch": 62, "duration": 18, "velocity": 64}, {"time": 210, "pitch": 61, "duration": 6, "velocity": 64}, {"time": 216, "pitch": 59, "duration": 24, "velocity": 64}, {"time": 240, "pitch": 61, "duration": 18, "velocity": 64}, {"time": 258, "pitch": 58, "duration": 6, "velocity": 64}, {"time": 264, "pitch": 59, "duration": 24, "velocity": 64}, {"time": 288, "pitch": 61, "duration": 18, "velocity": 64}, {"time": 306, "pitch": 57, "duration": 6, "velocity": 64}, {"time": 312, "pitch": 59, "duration": 48, "velocity": 64}, {"time": 384, "pitch": 61, "duration": 12, "velocity": 64}, {"time": 396, "pitch": 62, "duration": 12, "velocity": 64}, {"time": 408, "pitch": 64, "duration": 36, "velocity": 64}, {"time": 444, "pitch": 62, "duration": 12, "velocity": 64}, {"time": 456, "pitch": 61, "duration": 18, "velocity": 64}, {"time": 474, "pitch": 59, "duration": 6, "velocity": 64}, {"time": 480, "pitch": 57, "duration": 18, "velocity": 64}, {"time": 498, "pitch": 55, "duration": 6, "velocity": 64}, {"time": 504, "pitch": 54, "duration": 48, "velocity": 64}, {"time": 552, "pitch": 57, "duration": 48, "velocity": 64}, {"time": 600, "pitch": 59, "duration": 36, "velocity": 64}, {"time": 636, "pitch": 64, "duration": 12, "velocity": 64}, {"time": 648, "pitch": 62, "duration": 24, "velocity": 64}, {"time": 672, "pitch": 61, "duration": 24, "velocity": 64}, {"time": 696, "pitch": 62, "duration": 48, "velocity": 64}]}]}