{"metadata": {"schema_version": "0.1", "title": "DER STURM BRACH LOS ES ZUCKTEN RINGS DIE BLITZE", "source_format": "abc"}, "resolution": 24, "tempos": [{"time": 0, "qpm": 120.0}], "key_signatures": [{"time": 0, "root": 7, "mode": "major", "fifths": 1}], "time_signatures": [{"time": 0, "numerator": 4, "denominator": 4}, {"time": 1116, "numerator": 2, "denominator": 4}, {"time": 1404, "numerator": 2, "denominator": 4}, {"time": 1692, "numerator": 2, "denominator": 4}, {"time": 1740, "numerator": 4, "denominator": 4}], "beats": [{"time": 0, "is_downbeat": true}, {"time": 24, "is_downbeat": false}, {"time": 36, "is_downbeat": true}, {"time": 60, "is_downbeat": false}, {"time": 84, "is_downbeat": true}, {"time": 108, "is_downbeat": false}, {"time": 132, "is_downbeat": true}, {"time": 156, "is_downbeat": false}, {"time": 180, "is_downbeat": true}, {"time": 204, "is_downbeat": false}, {"time": 228, "is_downbeat": true}, {"time": 252, "is_downbeat": false}, {"time": 276, "is_downbeat": true}, {"time": 300, "is_downbeat": false}, {"time": 324, "is_downbeat": true}, {"time": 348, "is_downbeat": false}, {"time": 372, "is_downbeat": true}, {"time": 396, "is_downbeat": false}, {"time": 420, "is_downbeat": true}, {"time": 444, "is_downbeat": false}, {"time": 468, "is_downbeat": true}, {"time": 492, "is_downbeat": false}, {"time": 516, "is_downbeat": true}, {"time": 540, "is_downbeat": false}, {"time": 564, "is_downbeat": true}, {"time": 588, "is_downbeat": false}, {"time": 612, "is_downbeat": true}, {"time": 636, "is_downbeat": false}, {"time": 660, "is_downbeat": true}, {"time": 684, "is_downbeat": false}, {"time": 708, "is_downbeat": true}, {"time": 732, "is_downbeat": false}, {"time": 756, "is_downbeat": true}, {"time": 780, "is_downbeat": false}, {"time": 804, "is_downbeat": true}, {"time": 828, "is_downbeat": false}, {"time": 852, "is_downbeat": true}, {"time": 876, "is_downbeat": true}, {"time": 900, "is_downbeat": false}, {"time": 924, "is_downbeat": true}, {"time": 948, "is_downbeat": true}, {"time": 972, "is_downbeat": false}, {"time": 996, "is_downbeat": true}, {"time": 1020, "is_downbeat": true}, {"time": 1044, "is_downbeat": false}, {"time": 1068, "is_downbeat": true}, {"time": 1092, "is_downbeat": false}, {"time": 1116, "is_downbeat": true}, {"time": 1140, "is_downbeat": false}, {"time": 1164, "is_downbeat": true}, {"time": 1188, "is_downbeat": false}, {"time": 1212, "is_downbeat": true}, {"time": 1236, "is_downbeat": true}, {"time": 1260, "is_downbeat": false}, {"time": 1284, "is_downbeat": true}, {"time": 1308, "is_downbeat": true}, {"time": 1332, "is_downbeat": false}, {"time": 1356, "is_downbeat": true}, {"time": 1380, "is_downbeat": false}, {"time": 1404, "is_downbeat": true}, {"time": 1428, "is_downbeat": false}, {"time": 1452, "is_downbeat": true}, {"time": 1476, "is_downbeat": false}, {"time": 1500, "is_downbeat": true}, {"time": 1524, "is_downbeat": true}, {"time": 1548, "is_downbeat": false}, {"time": 1572, "is_downbeat": true}, {"time": 1596, "is_downbeat": true}, {"time": 1620, "is_downbeat": false}, {"time": 1644, "is_downbeat": true}, {"time": 1668, "is_downbeat": false}, {"time": 1692, "is_downbeat": true}, {"time": 1716, "is_downbeat": false}, {"time": 1740, "is_downbeat": true}, {"time": 1764, "is_downbeat": false}, {"time": 1788, "is_downbeat": false}, {"time": 1812, "is_downbeat": true}, {"time": 1836, "is_downbeat": false}, {"time": 1860, "is_downbeat": false}, {"time": 1884, "is_downbeat": true}, {"time": 1908, "is_downbeat": false}, {"time": 1932, "is_downbeat": false}, {"time": 1956, "is_downbeat": false}], "tracks": [{"program": 0, "is_drum": false, "notes": [{"time": 0, "pitch": 62, "duration": 12, "velocity": 64}, {"time": 12, "pitch": 64, "duration": 12, "velocity": 64}, {"time": 24, "pitch": 66, "duration": 12, "velocity": 64}, {"time": 36, "pitch": 67, "duration": 36, "velocity": 64}, {"time": 72, "pitch": 66, "duration": 12, "velocity": 64}, {"time": 84, "pitch": 64, "duration": 12, "velocity": 64}, {"time": 96, "pitch": 62, "duration": 12, "velocity": 64}, {"time": 108, "pitch": 60, "duration": 12, "velocity": 64}, {"time": 120, "pitch": 59, "duration": 12, "velocity": 64}, {"time": 132, "pitch": 64, "duration": 24, "velocity": 64}, {"time": 156, "pitch": 62, "duration": 24, "velocity": 64}, {"time": 192, "pitch": 71, "duration": 12, "velocity": 64}, {"time": 204, "pitch": 71, "duration": 12, "velocity": 64}, {"time": 216, "pitch": 71, "duration": 12, "velocity": 64}, {"time": 228, "pitch": 71, "duration": 12, "velocity": 64}, {"time": 240, "pitch": 69, "duration": 12, "velocity": 64}, {"time": 252, "pitch": 72, "duration": 12, "velocity": 64}, {"time": 264, "pitch": 69, "duration": 12, "velocity": 64}, {"time": 276, "pitch": 67, "duration": 24, "velocity": 64}, {"time": 300, "pitch": 66, "duration": 24, "velocity": 64}, {"time": 324, "pitch": 67, "duration": 48, "velocity": 64}, {"time": 384, "pitch": 62, "duration": 12, "velocity": 64}, {"time": 396, "pitch": 67, "duration": 12, "velocity": 64}, {"time": 408, "pitch": 71, "duration": 12, "velocity": 64}, {"time": 420, "pitch": 69, "duration": 36, "velocity": 64}, {"time": 456, "pitch": 66, "duration": 12, "velocity": 64}, {"time": 468, "pitch": 67, "duration": 18, "velocity": 64}, {"time": 486, "pitch": 66, "duration": 6, "velocity": 64}, {"time": 492, "pitch": 67, "duration": 12, "velocity": 64}, {"time": 504, "pitch": 64, "duration": 12, "velocity": 64}, {"time": 516, "pitch": 66, "duration": 12, "velocity": 64}, {"time": 528, "pitch": 67, "duration": 12, "velocity": 64}, {"time": 540, "pitch": 69, "duration": 36, "velocity": 64}, {"time": 576, "pitch": 62, "duration": 12, "velocity": 64}, {"time": 588, "pitch": 69, "duration": 12, "velocity": 64}, {"time": 600, "pitch": 74, "duration": 12, "velocity": 64}, {"time": 612, "pitch": 73, "duration": 12, "velocity": 64}, {"time": 624, "pitch": 71, "duration": 12, "velocity": 64}, {"time": 636, "pitch": 67, "duration": 12, "velocity": 64}, {"time": 648, "pitch": 64, "duration": 12, "velocity": 64}, {"time": 660, "pitch": 62, "duration": 24, "velocity": 64}, {"time": 684, "pitch": 66, "duration": 12, "velocity": 64}, {"time": 696, "pitch": 64, "duration": 12, "velocity": 64}, {"time": 708, "pitch": 62, "duration": 48, "velocity": 64}, {"time": 804, "pitch": 71, "duration": 36, "velocity": 64}, {"time": 840, "pitch": 69, "duration": 12, "velocity": 64}, {"time": 852, "pitch": 71, "duration": 24, "velocity": 64}, {"time": 876, "pitch": 67, "duration": 36, "velocity": 64}, {"time": 912, "pitch": 69, "duration": 12, "velocity": 64}, {"time": 924, "pitch": 71, "duration": 24, "velocity": 64}, {"time": 948, "pitch": 72, "duration": 36, "velocity": 64}, {"time": 984, "pitch": 71, "duration": 12, "velocity": 64}, {"time": 996, "pitch": 72, "duration": 24, "velocity": 64}, {"time": 1020, "pitch": 69, "duration": 48, "velocity": 64}, {"time": 1092, "pitch": 74, "duration": 24, "velocity": 64}, {"time": 1116, "pitch": 74, "duration": 24, "velocity": 64}, {"time": 1140, "pitch": 74, "duration": 24, "velocity": 64}, {"time": 1164, "pitch": 74, "duration": 36, "velocity": 64}, {"time": 1200, "pitch": 72, "duration": 12, "velocity": 64}, {"time": 1212, "pitch": 71, "duration": 24, "velocity": 64}, {"time": 1236, "pitch": 69, "duration": 24, "velocity": 64}, {"time": 1260, "pitch": 67, "duration": 24, "velocity": 64}, {"time": 1284, "pitch": 69, "duration": 24, "velocity": 64}, {"time": 1308, "pitch": 67, "duration": 48, "velocity": 64}, {"time": 1380, "pitch": 71, "duration": 36, "velocity": 64}, {"time": 1416, "pitch": 69, "duration": 12, "velocity": 64}, {"time": 1428, "pitch": 71, "duration": 24, "velocity": 64}, {"time": 1452, "pitch": 67, "duration": 36, "velocity": 64}, {"time": 1488, "pitch": 69, "duration": 12, "velocity": 64}, {"time": 1500, "pitch": 71, "duration": 24, "velocity": 64}, {"time": 1524, "pitch": 72, "duration": 36, "velocity": 64}, {"time": 1560, "pitch": 71, "duration": 12, "velocity": 64}, {"time": 1572, "pitch": 72, "duration": 24, "velocity": 64}, {"time": 1596, "pitch": 69, "duration": 48, "velocity": 64}, {"time": 1668, "pitch": 74, "duration": 24, "velocity": 64}, {"time": 1692, "pitch": 74, "duration": 24, "velocity": 64}, {"time": 1716, "pitch": 74, "duration": 24, "velocity": 64}, {"time": 1740, "pitch": 74, "duration": 36, "velocity": 64}, {"time": 1776, "pitch": 72, "duration": 12, "velocity": 64}, {"time": 1788, "pitch": 71, "duration": 24, "velocity": 64}, {"time": 1812, "pitch": 69, "duration": 24, "velocity": 64}, {"time": 1836, "pitch": 67, "duration": 24, "velocity": 64}, {"time": 1860, "pitch": 69, "duration": 24, "velocity": 64}, {"time": 1884, "pitch": 67, "duration": 48, "velocity": 64}]}]}