{"metadata": {"schema_version": "0.1", "title": "IN EINEM THAL BEI ARMEN HIRTEN", "source_format": "abc"}, "resolution": 24, "tempos": [{"time": 0, "qpm": 120.0}], "key_signatures": [{"time": 0, "root": 7, "mode": "major", "fifths": 1}], "time_signatures": [{"time": 0, "numerator": 2, "denominator": 4}], "beats": [{"time": 0, "is_downbeat": true}, {"time": 18, "is_downbeat": true}, {"time": 42, "is_downbeat": false}, {"time": 66, "is_downbeat": true}, {"time": 90, "is_downbeat": false}, {"time": 114, "is_downbeat": true}, {"time": 138, "is_downbeat": false}, {"time": 162, "is_downbeat": true}, {"time": 186, "is_downbeat": false}, {"time": 210, "is_downbeat": true}, {"time": 234, "is_downbeat": false}, {"time": 258, "is_downbeat": true}, {"time": 282, "is_downbeat": false}, {"time": 306, "is_downbeat": true}, {"time": 330, "is_downbeat": false}, {"time": 354, "is_downbeat": true}, {"time": 378, "is_downbeat": false}, {"time": 402, "is_downbeat": true}, {"time": 426, "is_downbeat": false}, {"time": 450, "is_downbeat": true}, {"time": 474, "is_downbeat": false}, {"time": 498, "is_downbeat": true}, {"time": 522, "is_downbeat": false}, {"time": 546, "is_downbeat": true}, {"time": 570, "is_downbeat": false}, {"time": 594, "is_downbeat": true}, {"time": 618, "is_downbeat": false}, {"time": 642, "is_downbeat": true}, {"time": 666, "is_downbeat": false}, {"time": 690, "is_downbeat": true}, {"time": 714, "is_downbeat": false}, {"time": 738, "is_downbeat": true}, {"time": 762, "is_downbeat": false}], "tracks": [{"program": 0, "is_drum": false, "notes": [{"time": 0, "pitch": 62, "duration": 6, "velocity": 64}, {"time": 6, "pitch": 62, "duration": 6, "velocity": 64}, {"time": 12, "pitch": 62, "duration": 6, "velocity": 64}, {"time": 18, "pitch": 67, "duration": 12, "velocity": 64}, {"time": 30, "pitch": 67, "duration": 12, "velocity": 64}, {"time": 42, "pitch": 71, "duration": 12, "velocity": 64}, {"time": 54, "pitch": 71, "duration": 12, "velocity": 64}, {"time": 66, "pitch": 74, "duration": 24, "velocity": 64}, {"time": 90, "pitch": 71, "duration": 6, "velocity": 64}, {"time": 96, "pitch": 62, "duration": 6, "velocity": 64}, {"time": 102, "pitch": 62, "duration": 6, "velocity": 64}, {"time": 108, "pitch": 62, "duration": 6, "velocity": 64}, {"time": 114, "pitch": 67, "duration": 12, "velocity": 64}, {"time": 126, "pitch": 71, "duration": 12, "velocity": 64}, {"time": 138, "pitch": 74, "duration": 12, "velocity": 64}, {"time": 150, "pitch": 71, "duration": 6, "velocity": 64}, {"time": 156, "pitch": 67, "duration": 6, "velocity": 64}, {"time": 162, "pitch": 62, "duration": 24, "velocity": 64}, {"time": 192, "pitch": 62, "duration": 6, "velocity": 64}, {"time": 198, "pitch": 62, "duration": 6, "velocity": 64}, {"time": 204, "pitch": 62, "duration": 6, "velocity": 64}, {"time": 210, "pitch": 67, "duration": 12, "velocity": 64}, {"time": 222, "pitch": 67, "duration": 12, "velocity": 64}, {"time": 234, "pitch": 71, "duration": 12, "velocity": 64}, {"time": 246, "pitch": 71, "duration": 12, "velocity": 64}, {"time": 258, "pitch": 74, "duration": 24, "velocity": 64}, {"time": 282, "pitch": 71, "duration": 6, "velocity": 64}, {"time": 288, "pitch": 62, "duration": 6, "velocity": 64}, {"time": 294, "pitch": 62, "duration": 6, "velocity": 64}, {"time": 300, "pitch": 62, "duration": 6, "velocity": 64}, {"time": 306, "pitch": 67, "duration": 12, "velocity": 64}, {"time": 318, "pitch": 71, "duration": 12, "velocity": 64}, {"time": 330, "pitch": 74, "duration": 12, "velocity": 64}, {"time": 342, "pitch": 71, "duration": 6, "velocity": 64}, {"time": 348, "pitch": 67, "duration": 6, "velocity": 64}, {"time": 354, "pitch": 62, "duration": 24, "velocity": 64}, {"time": 384, "pitch": 74, "duration": 6, "velocity": 64}, {"time": 390, "pitch": 74, "duration": 6, "velocity": 64}, {"time": 396, "pitch": 74, "duration": 6, "velocity": 64}, {"time": 402, "pitch": 74, "duration": 6, "velocity": 64}, {"time": 408, "pitch": 71, "duration": 6, "velocity": 64}, {"time": 414, "pitch": 71, "duration": 6, "velocity": 64}, {"time": 420, "pitch": 69, "duration": 6, "velocity": 64}, {"time": 426, "pitch": 67, "duration": 6, "velocity": 64}, {"time": 432, "pitch": 66, "duration": 6, "velocity": 64}, {"time": 438, "pitch": 64, "duration": 6, "velocity": 64}, {"time": 444, "pitch": 66, "duration": 6, "velocity": 64}, {"time": 450, "pitch": 67, "duration": 6, "velocity": 64}, {"time": 456, "pitch": 71, "duration": 6, "velocity": 64}, {"time": 462, "pitch": 62, "duration": 18, "velocity": 64}, {"time": 480, "pitch": 74, "duration": 6, "velocity": 64}, {"time": 486, "pitch": 74, "duration": 6, "velocity": 64}, {"time": 492, "pitch": 74, "duration": 6, "velocity": 64}, {"time": 498, "pitch": 72, "duration": 18, "velocity": 64}, {"time": 516, "pitch": 69, "duration": 6, "velocity": 64}, {"time": 522, "pitch": 72, "duration": 6, "velocity": 64}, {"time": 528, "pitch": 71, "duration": 6, "velocity": 64}, {"time": 534, "pitch": 69, "duration": 6, "velocity": 64}, {"time": 540, "pitch": 67, "duration": 6, "velocity": 64}, {"time": 546, "pitch": 74, "duration": 30, "velocity": 64}, {"time": 576, "pitch": 73, "duration": 6, "velocity": 64}, {"time": 582, "pitch": 72, "duration": 6, "velocity": 64}, {"time": 588, "pitch": 69, "duration": 6, "velocity": 64}, {"time": 594, "pitch": 67, "duration": 6, "velocity": 64}, {"time": 600, "pitch": 67, "duration": 6, "velocity": 64}, {"time": 606, "pitch": 67, "duration": 6, "velocity": 64}, {"time": 612, "pitch": 67, "duration": 6, "velocity": 64}, {"time": 618, "pitch": 71, "duration": 18, "velocity": 64}, {"time": 636, "pitch": 74, "duration": 6, "velocity": 64}, {"time": 642, "pitch": 74, "duration": 6, "velocity": 64}, {"time": 648, "pitch": 64, "duration": 6, "velocity": 64}, {"time": 654, "pitch": 64, "duration": 18, "velocity": 64}, {"time": 672, "pitch": 64, "duration": 6, "velocity": 64}, {"time": 678, "pitch": 72, "duration": 6, "velocity": 64}, {"time": 684, "pitch": 69, "duration": 6, "velocity": 64}, {"time": 690, "pitch": 67, "duration": 6, "velocity": 64}, {"time": 696, "pitch": 66, "duration": 6, "velocity": 64}, {"time": 702, "pitch": 67, "duration": 6, "velocity": 64}, {"time": 708, "pitch": 69, "duration": 6, "velocity": 64}, {"time": 714, "pitch": 71, "duration": 12, "velocity": 64}, {"time": 726, "pitch": 69, "duration": 12, "velocity": 64}, {"time": 738, "pitch": 67, "duration": 24, "velocity": 64}]}]}