{"metadata": {"schema_version": "0.1", "title": "IM TIEFEN WALD IM DORNENHAG", "source_format": "abc"}, "resolution": 24, "tempos": [{"time": 0, "qpm": 120.0}], "key_signatures": [{"time": 0, "root": 7, "mode": "major", "fifths": 1}], "time_signatures": [{"time": 0, "numerator": 2, "denominator": 4}], "beats": [{"time": 0, "is_downbeat": true}, {"time": 24, "is_downbeat": false}, {"time": 48, "is_downbeat": true}, {"time": 72, "is_downbeat": false}, {"time": 96, "is_downbeat": true}, {"time": 120, "is_downbeat": false}, {"time": 144, "is_downbeat": true}, {"time": 168, "is_downbeat": false}, {"time": 192, "is_downbeat": true}, {"time": 216, "is_downbeat": false}, {"time": 240, "is_downbeat": true}, {"time": 264, "is_downbeat": false}, {"time": 288, "is_downbeat": true}, {"time": 312, "is_downbeat": false}, {"time": 336, "is_downbeat": true}, {"time": 360, "is_downbeat": false}, {"time": 384, "is_downbeat": true}, {"time": 408, "is_downbeat": false}, {"time": 432, "is_downbeat": true}, {"time": 456, "is_downbeat": false}, {"time": 480, "is_downbeat": true}, {"time": 504, "is_downbeat": false}, {"time": 528, "is_downbeat": true}, {"time": 552, "is_downbeat": false}, {"time": 576, "is_downbeat": true}, {"time": 600, "is_downbeat": false}, {"time": 624, "is_downbeat": true}, {"time": 648, "is_downbeat": false}, {"time": 672, "is_downbeat": true}, {"time": 696, "is_downbeat": false}, {"time": 720, "is_downbeat": true}, {"time": 744, "is_downbeat": false}, {"time": 768, "is_downbeat": true}, {"time": 792, "is_downbeat": false}, {"time": 816, "is_downbeat": true}, {"time": 840, "is_downbeat": false}, {"time": 864, "is_downbeat": true}, {"time": 888, "is_downbeat": false}], "tracks": [{"program": 0, "is_drum": false, "notes": [{"time": 0, "pitch": 70, "duration": 24, "velocity": 64}, {"time": 24, "pitch": 69, "duration": 12, "velocity": 64}, {"time": 36, "pitch": 67, "duration": 12, "velocity": 64}, {"time": 48, "pitch": 65, "duration": 36, "velocity": 64}, {"time": 84, "pitch": 66, "duration": 12, "velocity": 64}, {"time": 96, "pitch": 67, "duration": 24, "velocity": 64}, {"time": 120, "pitch": 69, "duration": 24, "velocity": 64}, {"time": 144, "pitch": 70, "duration": 48, "velocity": 64}, {"time": 192, "pitch": 71, "duration": 24, "velocity": 64}, {"time": 216, "pitch": 69, "duration": 12, "velocity": 64}, {"time": 228, "pitch": 67, "duration": 12, "velocity": 64}, {"time": 240, "pitch": 65, "duration": 36, "velocity": 64}, {"time": 276, "pitch": 66, "duration": 12, "velocity": 64}, {"time": 288, "pitch": 67, "duration": 24, "velocity": 64}, {"time": 312, "pitch": 69, "duration": 24, "velocity": 64}, {"time": 336, "pitch": 70, "duration": 48, "velocity": 64}, {"time": 384, "pitch": 71, "duration": 24, "velocity": 64}, {"time": 408, "pitch": 69, "duration": 12, "velocity": 64}, {"time": 420, "pitch": 71, "duration": 12, "velocity": 64}, {"time": 432, "pitch": 67, "duration": 24, "velocity": 64}, {"time": 456, "pitch": 69, "duration": 12, "velocity": 64}, {"time": 468, "pitch": 66, "duration": 12, "velocity": 64}, {"time": 480, "pitch": 67, "duration": 24, "velocity": 64}, {"time": 528, "pitch": 70, "duration": 24, "velocity": 64}, {"time": 552, "pitch": 72, "duration": 24, "velocity": 64}, {"time": 576, "pitch": 74, "duration": 24, "velocity": 64}, {"time": 624, "pitch": 70, "duration": 24, "velocity": 64}, {"time": 648, "pitch": 72, "duration": 24, "velocity": 64}, {"time": 672, "pitch": 74, "duration": 24, "velocity": 64}, {"time": 720, "pitch": 74, "duration": 24, "velocity": 64}, {"time": 744, "pitch": 72, "duration": 12, "velocity": 64}, {"time": 756, "pitch": 70, "duration": 12, "velocity": 64}, {"time": 768, "pitch": 69, "duration": 24, "velocity": 64}, {"time": 792, "pitch": 67, "duration": 24, "velocity": 64}, {"time": 816, "pitch": 69, "duration": 24, "velocity": 64}, {"time": 840, "pitch": 67, "duration": 12, "velocity": 64}, {"time": 852, "pitch": 66, "duration": 12, "velocity": 64}, {"time": 864, "pitch": 67, "duration": 24, "velocity": 64}]}]}