{"metadata": {"schema_version": "0.1", "title": "WER SAGT MIR WO WEINSBERG LIEGT", "source_format": "abc"}, "resolution": 24, "tempos": [{"time": 0, "qpm": 120.0}], "key_signatures": [{"time": 0, "root": 0, "mode": "major", "fifths": 0}], "time_signatures": [{"time": 0, "numerator": 2, "denominator": 4}], "beats": [{"time": 0, "is_downbeat": true}, {"time": 6, "is_downbeat": true}, {"time": 30, "is_downbeat": false}, {"time": 54, "is_downbeat": true}, {"time": 78, "is_downbeat": false}, {"time": 102, "is_downbeat": true}, {"time": 126, "is_downbeat": false}, {"time": 150, "is_downbeat": true}, {"time": 174, "is_downbeat": false}, {"time": 198, "is_downbeat": true}, {"time": 222, "is_downbeat": false}, {"time": 246, "is_downbeat": true}, {"time": 270, "is_downbeat": false}, {"time": 294, "is_downbeat": true}, {"time": 318, "is_downbeat": false}, {"time": 342, "is_downbeat": true}, {"time": 366, "is_downbeat": false}, {"time": 390, "is_downbeat": true}, {"time": 414, "is_downbeat": false}, {"time": 438, "is_downbeat": true}, {"time": 462, "is_downbeat": false}, {"time": 486, "is_downbeat": true}, {"time": 510, "is_downbeat": false}, {"time": 534, "is_downbeat": true}, {"time": 558, "is_downbeat": false}], "tracks": [{"program": 0, "is_drum": false, "notes": [{"time": 0, "pitch": 55, "duration": 6, "velocity": 64}, {"time": 6, "pitch": 60, "duration": 12, "velocity": 64}, {"time": 18, "pitch": 60, "duration": 12, "velocity": 64}, {"time": 30, "pitch": 60, "duration": 18, "velocity": 64}, {"time": 48, "pitch": 64, "duration": 6, "velocity": 64}, {"time": 54, "pitch": 62, "duration": 12, "velocity": 64}, {"time": 66, "pitch": 55, "duration": 12, "velocity": 64}, {"time": 78, "pitch": 55, "duration": 12, "velocity": 64}, {"time": 96, "pitch": 55, "duration": 6, "velocity": 64}, {"time": 102, "pitch": 65, "duration": 12, "velocity": 64}, {"time": 114, "pitch": 64, "duration": 12, "velocity": 64}, {"time": 126, "pitch": 62, "duration": 12, "velocity": 64}, {"time": 138, "pitch": 60, "duration": 12, "velocity": 64}, {"time": 150, "pitch": 60, "duration": 12, "velocity": 64}, {"time": 162, "pitch": 59, "duration": 12, "velocity": 64}, {"time": 174, "pitch": 60, "duration": 12, "velocity": 64}, {"time": 192, "pitch": 55, "duration": 6, "velocity": 64}, {"time": 198, "pitch": 60, "duration": 12, "velocity": 64}, {"time": 210, "pitch": 60, "duration": 12, "velocity": 64}, {"time": 222, "pitch": 60, "duration": 18, "velocity": 64}, {"time": 240, "pitch": 64, "duration": 6, "velocity": 64}, {"time": 246, "pitch": 62, "duration": 12, "velocity": 64}, {"time": 258, "pitch": 55, "duration": 12, "velocity": 64}, {"time": 270, "pitch": 55, "duration": 12, "velocity": 64}, {"time": 288, "pitch": 55, "duration": 6, "velocity": 64}, {"time": 294, "pitch": 65, "duration": 12, "velocity": 64}, {"time": 306, "pitch": 64, "duration": 12, "velocity": 64}, {"time": 318, "pitch": 62, "duration": 12, "velocity": 64}, {"time": 330, "pitch": 60, "duration": 12, "velocity": 64}, {"time": 342, "pitch": 60, "duration": 12, "velocity": 64}, {"time": 354, "pitch": 59, "duration": 12, "velocity": 64}, {"time": 366, "pitch": 60, "duration": 12, "velocity": 64}, {"time": 384, "pitch": 64, "duration": 6, "velocity": 64}, {"time": 390, "pitch": 62, "duration": 18, "velocity": 64}, {"time": 408, "pitch": 60, "duration": 6, "velocity": 64}, {"time": 414, "pitch": 59, "duration": 12, "velocity": 64}, {"time": 426, "pitch": 60, "duration": 12, "velocity": 64}, {"time": 438, "pitch": 62, "duration": 18, "velocity": 64}, {"time": 456, "pitch": 59, "duration": 6, "velocity": 64}, {"time": 462, "pitch": 55, "duration": 12, "velocity": 64}, {"time": 474, "pitch": 67, "duration": 6, "velocity": 64}, {"time": 480, "pitch": 59, "duration": 6, "velocity": 64}, {"time": 486, "pitch": 60, "duration": 12, "velocity": 64}, {"time": 498, "pitch": 60, "duration": 12, "velocity": 64}, {"time": 510, "pitch": 60, "duration": 12, "velocity": 64}, {"time": 522, "pitch": 60, "duration": 12, "velocity": 64}, {"time": 534, "pitch": 62, "duration": 6, "velocity": 64}, {"time": 540, "pitch": 65, "duration": 6, "velocity": 64}, {"time": 546, "pitch": 59, "duration": 6, "velocity": 64}, {"time": 552, "pitch": 62, "duration": 6, "velocity": 64}, {"time": 558, "pitch": 60, "duration": 12, "velocity": 64}]}]}