{"metadata": {"schema_version": "0.1", "title": "ICH LEBTE EINST IM DEUTSCHEN VATERLANDE", "source_format": "abc"}, "resolution": 24, "tempos": [{"time": 0, "qpm": 120.0}], "key_signatures": [{"time": 0, "root": 0, "mode": "major", "fifths": 0}], "time_signatures": [{"time": 0, "numerator": 4, "denominator": 4}], "beats": [{"time": 0, "is_downbeat": true}, {"time": 24, "is_downbeat": false}, {"time": 36, "is_downbeat": true}, {"time": 60, "is_downbeat": false}, {"time": 84, "is_downbeat": false}, {"time": 108, "is_downbeat": false}, {"time": 132, "is_downbeat": true}, {"time": 156, "is_downbeat": false}, {"time": 180, "is_downbeat": false}, {"time": 204, "is_downbeat": false}, {"time": 228, "is_downbeat": true}, {"time": 252, "is_downbeat": false}, {"time": 276, "is_downbeat": false}, {"time": 300, "is_downbeat": false}, {"time": 324, "is_downbeat": true}, {"time": 348, "is_downbeat": false}, {"time": 372, "is_downbeat": false}, {"time": 396, "is_downbeat": false}, {"time": 420, "is_downbeat": true}, {"time": 444, "is_downbeat": false}, {"time": 468, "is_downbeat": false}, {"time": 492, "is_downbeat": false}, {"time": 516, "is_downbeat": true}, {"time": 540, "is_downbeat": false}, {"time": 564, "is_downbeat": false}, {"time": 588, "is_downbeat": false}, {"time": 612, "is_downbeat": true}, {"time": 636, "is_downbeat": false}, {"time": 660, "is_downbeat": false}, {"time": 684, "is_downbeat": false}, {"time": 708, "is_downbeat": true}, {"time": 732, "is_downbeat": false}, {"time": 756, "is_downbeat": false}, {"time": 780, "is_downbeat": false}], "tracks": [{"program": 0, "is_drum": false, "notes": [{"time": 0, "pitch": 55, "duration": 12, "velocity": 64}, {"time": 12, "pitch": 55, "duration": 12, "velocity": 64}, {"time": 24, "pitch": 55, "duration": 12, "velocity": 64}, {"time": 36, "pitch": 52, "duration": 36, "velocity": 64}, {"time": 72, "pitch": 55, "duration": 12, "velocity": 64}, {"time": 84, "pitch": 60, "duration": 12, "velocity": 64}, {"time": 96, "pitch": 59, "duration": 12, "velocity": 64}, {"time": 108, "pitch": 57, "duration": 12, "velocity": 64}, {"time": 120, "pitch": 55, "duration": 12, "velocity": 64}, {"time": 132, "pitch": 55, "duration": 12, "velocity": 64}, {"time": 144, "pitch": 53, "duration": 12, "velocity": 64}, {"time": 156, "pitch": 53, "duration": 36, "velocity": 64}, {"time": 192, "pitch": 53, "duration": 12, "velocity": 64}, {"time": 204, "pitch": 53, "duration": 12, "velocity": 64}, {"time": 216, "pitch": 50, "duration": 12, "velocity": 64}, {"time": 228, "pitch": 62, "duration": 36, "velocity": 64}, {"time": 264, "pitch": 60, "duration": 12, "velocity": 64}, {"time": 276, "pitch": 59, "duration": 12, "velocity": 64}, {"time": 288, "pitch": 57, "duration": 12, "velocity": 64}, {"time": 300, "pitch": 55, "duration": 12, "velocity": 64}, {"time": 312, "pitch": 53, "duration": 12, "velocity": 64}, {"time": 324, "pitch": 52, "duration": 48, "velocity": 64}, {"time": 384, "pitch": 60, "duration": 12, "velocity": 64}, {"time": 396, "pitch": 60, "duration": 12, "velocity": 64}, {"time": 408, "pitch": 60, "duration": 12, "velocity": 64}, {"time": 420, "pitch": 57, "duration": 36, "velocity": 64}, {"time": 456, "pitch": 59, "duration": 12, "velocity": 64}, {"time": 468, "pitch": 62, "duration": 12, "velocity": 64}, {"time": 480, "pitch": 60, "duration": 12, "velocity": 64}, {"time": 492, "pitch": 59, "duration": 12, "velocity": 64}, {"time": 504, "pitch": 57, "duration": 12, "velocity": 64}, {"time": 516, "pitch": 57, "duration": 12, "velocity": 64}, {"time": 528, "pitch": 55, "duration": 12, "velocity": 64}, {"time": 540, "pitch": 55, "duration": 36, "velocity": 64}, {"time": 576, "pitch": 60, "duration": 12, "velocity": 64}, {"time": 588, "pitch": 55, "duration": 12, "velocity": 64}, {"time": 600, "pitch": 52, "duration": 12, "velocity": 64}, {"time": 612, "pitch": 50, "duration": 36, "velocity": 64}, {"time": 648, "pitch": 48, "duration": 12, "velocity": 64}, {"time": 660, "pitch": 59, "duration": 12, "velocity": 64}, {"time": 672, "pitch": 55, "duration": 12, "velocity": 64}, {"time": 684, "pitch": 57, "duration": 12, "velocity": 64}, {"time": 696, "pitch": 55, "duration": 12, "velocity": 64}, {"time": 708, "pitch": 52, "duration": 48, "velocity": 64}]}]}