{"metadata": {"schema_version": "0.1", "title": "DU JUNGES GRUEN DU FRISCHES GRAS", "source_format": "abc"}, "resolution": 24, "tempos": [{"time": 0, "qpm": 120.0}], "key_signatures": [{"time": 0, "root": 0, "mode": "major", "fifths": 0}], "time_signatures": [{"time": 0, "numerator": 3, "denominator": 4}], "beats": [{"time": 0, "is_downbeat": true}, {"time": 12, "is_downbeat": true}, {"time": 36, "is_downbeat": false}, {"time": 60, "is_downbeat": false}, {"time": 84, "is_downbeat": true}, {"time": 108, "is_downbeat": false}, {"time": 132, "is_downbeat": false}, {"time": 156, "is_downbeat": true}, {"time": 180, "is_downbeat": false}, {"time": 204, "is_downbeat": false}, {"time": 228, "is_downbeat": true}, {"time": 252, "is_downbeat": false}, {"time": 276, "is_downbeat": false}, {"time": 300, "is_downbeat": true}, {"time": 324, "is_downbeat": false}, {"time": 348, "is_downbeat": false}, {"time": 372, "is_downbeat": true}, {"time": 396, "is_downbeat": false}, {"time": 420, "is_downbeat": false}, {"time": 444, "is_downbeat": true}, {"time": 468, "is_downbeat": false}, {"time": 492, "is_downbeat": false}, {"time": 516, "is_downbeat": true}, {"time": 540, "is_downbeat": false}, {"time": 564, "is_downbeat": false}, {"time": 588, "is_downbeat": true}, {"time": 612, "is_downbeat": false}, {"time": 636, "is_downbeat": false}], "tracks": [{"program": 0, "is_drum": false, "notes": [{"time": 0, "pitch": 67, "duration": 12, "velocity": 64}, {"time": 12, "pitch": 64, "duration": 18, "velocity": 64}, {"time": 30, "pitch": 65, "duration": 6, "velocity": 64}, {"time": 36, "pitch": 67, "duration": 36, "velocity": 64}, {"time": 72, "pitch": 69, "duration": 12, "velocity": 64}, {"time": 84, "pitch": 67, "duration": 18, "velocity": 64}, {"time": 102, "pitch": 64, "duration": 6, "velocity": 64}, {"time": 108, "pitch": 72, "duration": 24, "velocity": 64}, {"time": 144, "pitch": 67, "duration": 12, "velocity": 64}, {"time": 156, "pitch": 69, "duration": 18, "velocity": 64}, {"time": 174, "pitch": 67, "duration": 6, "velocity": 64}, {"time": 180, "pitch": 74, "duration": 36, "velocity": 64}, {"time": 216, "pitch": 74, "duration": 12, "velocity": 64}, {"time": 228, "pitch": 72, "duration": 18, "velocity": 64}, {"time": 246, "pitch": 74, "duration": 6, "velocity": 64}, {"time": 252, "pitch": 76, "duration": 24, "velocity": 64}, {"time": 288, "pitch": 76, "duration": 12, "velocity": 64}, {"time": 300, "pitch": 76, "duration": 18, "velocity": 64}, {"time": 318, "pitch": 71, "duration": 6, "velocity": 64}, {"time": 324, "pitch": 71, "duration": 24, "velocity": 64}, {"time": 348, "pitch": 76, "duration": 24, "velocity": 64}, {"time": 372, "pitch": 74, "duration": 18, "velocity": 64}, {"time": 390, "pitch": 72, "duration": 6, "velocity": 64}, {"time": 396, "pitch": 72, "duration": 24, "velocity": 64}, {"time": 432, "pitch": 69, "duration": 12, "velocity": 64}, {"time": 444, "pitch": 67, "duration": 18, "velocity": 64}, {"time": 462, "pitch": 67, "duration": 6, "velocity": 64}, {"time": 468, "pitch": 72, "duration": 24, "velocity": 64}, {"time": 492, "pitch": 64, "duration": 24, "velocity": 64}, {"time": 516, "pitch": 65, "duration": 48, "velocity": 64}, {"time": 564, "pitch": 62, "duration": 18, "velocity": 64}, {"time": 582, "pitch": 60, "duration": 6, "velocity": 64}, {"time": 588, "pitch": 60, "duration": 24, "velocity": 64}]}]}