{"metadata": {"schema_version": "0.1", "title": "IM WINDSGERAEUSCH IN STILLER NACHT", "source_format": "abc"}, "resolution": 24, "tempos": [{"time": 0, "qpm": 120.0}], "key_signatures": [{"time": 0, "root": 3, "mode": "major", "fifths": -3}], "time_signatures": [{"time": 0, "numerator": 3, "denominator": 4}], "beats": [{"time": 0, "is_downbeat": true}, {"time": 12, "is_downbeat": true}, {"time": 36, "is_downbeat": false}, {"time": 60, "is_downbeat": false}, {"time": 84, "is_downbeat": true}, {"time": 108, "is_downbeat": false}, {"time": 132, "is_downbeat": false}, {"time": 156, "is_downbeat": true}, {"time": 180, "is_downbeat": false}, {"time": 204, "is_downbeat": false}, {"time": 228, "is_downbeat": true}, {"time": 252, "is_downbeat": false}, {"time": 276, "is_downbeat": false}, {"time": 300, "is_downbeat": true}, {"time": 324, "is_downbeat": false}, {"time": 348, "is_downbeat": false}, {"time": 372, "is_downbeat": true}, {"time": 396, "is_downbeat": false}, {"time": 420, "is_downbeat": false}, {"time": 444, "is_downbeat": true}, {"time": 468, "is_downbeat": false}, {"time": 492, "is_downbeat": false}, {"time": 516, "is_downbeat": true}, {"time": 540, "is_downbeat": false}, {"time": 564, "is_downbeat": false}, {"time": 588, "is_downbeat": true}, {"time": 612, "is_downbeat": false}, {"time": 636, "is_downbeat": false}, {"time": 660, "is_downbeat": true}, {"time": 684, "is_downbeat": false}, {"time": 708, "is_downbeat": false}, {"time": 720, "is_downbeat": true}, {"time": 732, "is_downbeat": true}, {"time": 756, "is_downbeat": false}, {"time": 780, "is_downbeat": false}, {"time": 804, "is_downbeat": true}, {"time": 828, "is_downbeat": false}, {"time": 852, "is_downbeat": false}, {"time": 876, "is_downbeat": true}, {"time": 900, "is_downbeat": false}, {"time": 924, "is_downbeat": false}, {"time": 948, "is_downbeat": true}, {"time": 972, "is_downbeat": false}, {"time": 996, "is_downbeat": false}, {"time": 1020, "is_downbeat": true}, {"time": 1044, "is_downbeat": false}, {"time": 1068, "is_downbeat": false}, {"time": 1092, "is_downbeat": true}, {"time": 1116, "is_downbeat": false}, {"time": 1140, "is_downbeat": false}, {"time": 1164, "is_downbeat": true}, {"time": 1188, "is_downbeat": false}, {"time": 1212, "is_downbeat": false}, {"time": 1236, "is_downbeat": true}, {"time": 1260, "is_downbeat": false}, {"time": 1284, "is_downbeat": false}, {"time": 1308, "is_downbeat": true}, {"time": 1332, "is_downbeat": false}, {"time": 1356, "is_downbeat": false}, {"time": 1380, "is_downbeat": true}, {"time": 1404, "is_downbeat": false}, {"time": 1428, "is_downbeat": false}, {"time": 1452, "is_downbeat": true}, {"time": 1476, "is_downbeat": false}, {"time": 1500, "is_downbeat": false}, {"time": 1524, "is_downbeat": true}, {"time": 1548, "is_downbeat": false}, {"time": 1572, "is_downbeat": false}, {"time": 1596, "is_downbeat": true}, {"time": 1620, "is_downbeat": false}, {"time": 1644, "is_downbeat": false}, {"time": 1668, "is_downbeat": true}, {"time": 1692, "is_downbeat": false}, {"time": 1716, "is_downbeat": false}, {"time": 1740, "is_downbeat": true}, {"time": 1764, "is_downbeat": false}, {"time": 1788, "is_downbeat": false}], "tracks": [{"program": 0, "is_drum": false, "notes": [{"time": 0, "pitch": 58, "duration": 12, "velocity": 64}, {"time": 12, "pitch": 63, "duration": 18, "velocity": 64}, {"time": 30, "pitch": 63, "duration": 6, "velocity": 64}, {"time": 36, "pitch": 63, "duration": 36, "velocity": 64}, {"time": 72, "pitch": 58, "duration": 12, "velocity": 64}, {"time": 84, "pitch": 65, "duration": 18, "velocity": 64}, {"time": 102, "pitch": 65, "duration": 6, "velocity": 64}, {"time": 108, "pitch": 65, "duration": 36, "velocity": 64}, {"time": 144, "pitch": 65, "duration": 12, "velocity": 64}, {"time": 156, "pitch": 67, "duration": 12, "velocity": 64}, {"time": 168, "pitch": 63, "duration": 12, "velocity": 64}, {"time": 180, "pitch": 60, "duration": 24, "velocity": 64}, {"time": 204, "pitch": 62, "duration": 24, "velocity": 64}, {"time": 228, "pitch": 63, "duration": 48, "velocity": 64}, {"time": 288, "pitch": 67, "duration": 12, "velocity": 64}, {"time": 300, "pitch": 67, "duration": 18, "velocity": 64}, {"time": 318, "pitch": 65, "duration": 6, "velocity": 64}, {"time": 324, "pitch": 65, "duration": 36, "velocity": 64}, {"time": 360, "pitch": 65, "duration": 12, "velocity": 64}, {"time": 372, "pitch": 67, "duration": 18, "velocity": 64}, {"time": 390, "pitch": 65, "duration": 6, "velocity": 64}, {"time": 396, "pitch": 65, "duration": 36, "velocity": 64}, {"time": 432, "pitch": 65, "duration": 12, "velocity": 64}, {"time": 444, "pitch": 67, "duration": 12, "velocity": 64}, {"time": 456, "pitch": 63, "duration": 12, "velocity": 64}, {"time": 468, "pitch": 60, "duration": 24, "velocity": 64}, {"time": 492, "pitch": 65, "duration": 24, "velocity": 64}, {"time": 516, "pitch": 58, "duration": 48, "velocity": 64}, {"time": 576, "pitch": 70, "duration": 12, "velocity": 64}, {"time": 588, "pitch": 70, "duration": 8, "velocity": 64}, {"time": 596, "pitch": 68, "duration": 8, "velocity": 64}, {"time": 604, "pitch": 65, "duration": 8, "velocity": 64}, {"time": 612, "pitch": 65, "duration": 36, "velocity": 64}, {"time": 648, "pitch": 70, "duration": 12, "velocity": 64}, {"time": 660, "pitch": 72, "duration": 8, "velocity": 64}, {"time": 668, "pitch": 70, "duration": 8, "velocity": 64}, {"time": 676, "pitch": 67, "duration": 8, "velocity": 64}, {"time": 684, "pitch": 67, "duration": 24, "velocity": 64}, {"time": 720, "pitch": 75, "duration": 12, "velocity": 64}, {"time": 732, "pitch": 75, "duration": 36, "velocity": 64}, {"time": 768, "pitch": 74, "duration": 6, "velocity": 64}, {"time": 774, "pitch": 72, "duration": 6, "velocity": 64}, {"time": 780, "pitch": 72, "duration": 6, "velocity": 64}, {"time": 786, "pitch": 70, "duration": 6, "velocity": 64}, {"time": 792, "pitch": 70, "duration": 6, "velocity": 64}, {"time": 798, "pitch": 69, "duration": 6, "velocity": 64}, {"time": 804, "pitch": 70, "duration": 48, "velocity": 64}, {"time": 852, "pitch": 70, "duration": 24, "velocity": 64}, {"time": 876, "pitch": 70, "duration": 6, "velocity": 64}, {"time": 882, "pitch": 68, "duration": 6, "velocity": 64}, {"time": 888, "pitch": 67, "duration": 6, "velocity": 64}, {"time": 894, "pitch": 65, "duration": 6, "velocity": 64}, {"time": 900, "pitch": 65, "duration": 36, "velocity": 64}, {"time": 936, "pitch": 70, "duration": 12, "velocity": 64}, {"time": 948, "pitch": 72, "duration": 6, "velocity": 64}, {"time": 954, "pitch": 70, "duration": 6, "velocity": 64}, {"time": 960, "pitch": 68, "duration": 6, "velocity": 64}, {"time": 966, "pitch": 67, "duration": 6, "velocity": 64}, {"time": 972, "pitch": 67, "duration": 36, "velocity": 64}, {"time": 1008, "pitch": 75, "duration": 12, "velocity": 64}, {"time": 1020, "pitch": 75, "duration": 36, "velocity": 64}, {"time": 1056, "pitch": 74, "duration": 6, "velocity": 64}, {"time": 1062, "pitch": 72, "duration": 6, "velocity": 64}, {"time": 1068, "pitch": 72, "duration": 6, "velocity": 64}, {"time": 1074, "pitch": 70, "duration": 6, "velocity": 64}, {"time": 1080, "pitch": 70, "duration": 6, "velocity": 64}, {"time": 1086, "pitch": 69, "duration": 6, "velocity": 64}, {"time": 1092, "pitch": 70, "duration": 48, "velocity": 64}, {"time": 1140, "pitch": 70, "duration": 24, "velocity": 64}, {"time": 1164, "pitch": 72, "duration": 36, "velocity": 64}, {"time": 1200, "pitch": 72, "duration": 12, "velocity": 64}, {"time": 1212, "pitch": 72, "duration": 12, "velocity": 64}, {"time": 1224, "pitch": 62, "duration": 12, "velocity": 64}, {"time": 1236, "pitch": 65, "duration": 12, "velocity": 64}, {"time": 1248, "pitch": 63, "duration": 12, "velocity": 64}, {"time": 1260, "pitch": 63, "duration": 24, "velocity": 64}, {"time": 1296, "pitch": 70, "duration": 12, "velocity": 64}, {"time": 1308, "pitch": 72, "duration": 36, "velocity": 64}, {"time": 1344, "pitch": 72, "duration": 12, "velocity": 64}, {"time": 1356, "pitch": 72, "duration": 12, "velocity": 64}, {"time": 1368, "pitch": 62, "duration": 12, "velocity": 64}, {"time": 1380, "pitch": 65, "duration": 12, "velocity": 64}, {"time": 1392, "pitch": 63, "duration": 12, "velocity": 64}, {"time": 1404, "pitch": 63, "duration": 24, "velocity": 64}, {"time": 1452, "pitch": 75, "duration": 18, "velocity": 64}, {"time": 1470, "pitch": 74, "duration": 6, "velocity": 64}, {"time": 1476, "pitch": 74, "duration": 24, "velocity": 64}, {"time": 1524, "pitch": 77, "duration": 18, "velocity": 64}, {"time": 1542, "pitch": 75, "duration": 6, "velocity": 64}, {"time": 1548, "pitch": 75, "duration": 24, "velocity": 64}, {"time": 1584, "pitch": 75, "duration": 12, "velocity": 64}, {"time": 1596, "pitch": 75, "duration": 36, "velocity": 64}, {"time": 1632, "pitch": 74, "duration": 6, "velocity": 64}, {"time": 1638, "pitch": 72, "duration": 6, "velocity": 64}, {"time": 1644, "pitch": 70, "duration": 6, "velocity": 64}, {"time": 1650, "pitch": 68, "duration": 6, "velocity": 64}, {"time": 1656, "pitch": 67, "duration": 6, "velocity": 64}, {"time": 1662, "pitch": 65, "duration": 6, "velocity": 64}, {"time": 1668, "pitch": 63, "duration": 48, "velocity": 64}, {"time": 1716, "pitch": 65, "duration": 12, "velocity": 64}, {"time": 1728, "pitch": 63, "duration": 12, "velocity": 64}, {"time": 1740, "pitch": 63, "duration": 48, "velocity": 64}]}]}