{"metadata": {"schema_version": "0.1", "title": "FREUDE SCHOENER GOETTERFUNKEN", "source_format": "abc"}, "resolution": 24, "tempos": [{"time": 0, "qpm": 120.0}], "key_signatures": [{"time": 0, "root": 10, "mode": "major", "fifths": -2}], "time_signatures": [{"time": 0, "numerator": 4, "denominator": 4}], "beats": [{"time": 0, "is_downbeat": true}, {"time": 24, "is_downbeat": true}, {"time": 48, "is_downbeat": false}, {"time": 72, "is_downbeat": false}, {"time": 96, "is_downbeat": false}, {"time": 120, "is_downbeat": true}, {"time": 144, "is_downbeat": false}, {"time": 168, "is_downbeat": false}, {"time": 192, "is_downbeat": false}, {"time": 216, "is_downbeat": true}, {"time": 240, "is_downbeat": false}, {"time": 264, "is_downbeat": false}, {"time": 288, "is_downbeat": false}, {"time": 312, "is_downbeat": true}, {"time": 336, "is_downbeat": false}, {"time": 360, "is_downbeat": false}, {"time": 384, "is_downbeat": false}, {"time": 408, "is_downbeat": true}, {"time": 432, "is_downbeat": false}, {"time": 456, "is_downbeat": false}, {"time": 480, "is_downbeat": false}, {"time": 504, "is_downbeat": true}, {"time": 528, "is_downbeat": false}, {"time": 552, "is_downbeat": false}, {"time": 576, "is_downbeat": false}, {"time": 600, "is_downbeat": true}, {"time": 624, "is_downbeat": false}, {"time": 648, "is_downbeat": false}, {"time": 672, "is_downbeat": false}, {"time": 696, "is_downbeat": true}, {"time": 720, "is_downbeat": false}, {"time": 744, "is_downbeat": false}, {"time": 768, "is_downbeat": false}, {"time": 792, "is_downbeat": true}, {"time": 816, "is_downbeat": false}, {"time": 840, "is_downbeat": false}, {"time": 864, "is_downbeat": false}, {"time": 888, "is_downbeat": true}, {"time": 912, "is_downbeat": false}, {"time": 936, "is_downbeat": false}, {"time": 960, "is_downbeat": false}, {"time": 984, "is_downbeat": true}, {"time": 1008, "is_downbeat": false}, {"time": 1032, "is_downbeat": false}, {"time": 1056, "is_downbeat": false}, {"time": 1080, "is_downbeat": true}, {"time": 1104, "is_downbeat": false}, {"time": 1128, "is_downbeat": false}, {"time": 1152, "is_downbeat": false}, {"time": 1176, "is_downbeat": true}, {"time": 1200, "is_downbeat": false}, {"time": 1224, "is_downbeat": false}, {"time": 1248, "is_downbeat": false}, {"time": 1272, "is_downbeat": true}, {"time": 1296, "is_downbeat": false}, {"time": 1320, "is_downbeat": false}, {"time": 1344, "is_downbeat": false}, {"time": 1368, "is_downbeat": true}, {"time": 1392, "is_downbeat": false}, {"time": 1416, "is_downbeat": false}, {"time": 1440, "is_downbeat": false}, {"time": 1464, "is_downbeat": true}, {"time": 1488, "is_downbeat": false}, {"time": 1512, "is_downbeat": false}, {"time": 1536, "is_downbeat": false}, {"time": 1560, "is_downbeat": true}, {"time": 1584, "is_downbeat": false}, {"time": 1608, "is_downbeat": false}, {"time": 1632, "is_downbeat": false}, {"time": 1656, "is_downbeat": true}, {"time": 1680, "is_downbeat": false}, {"time": 1704, "is_downbeat": false}, {"time": 1728, "is_downbeat": false}, {"time": 1752, "is_downbeat": true}, {"time": 1776, "is_downbeat": false}, {"time": 1800, "is_downbeat": false}, {"time": 1824, "is_downbeat": false}, {"time": 1848, "is_downbeat": true}, {"time": 1872, "is_downbeat": false}, {"time": 1896, "is_downbeat": false}, {"time": 1920, "is_downbeat": false}, {"time": 1944, "is_downbeat": true}, {"time": 1968, "is_downbeat": false}, {"time": 1992, "is_downbeat": false}, {"time": 2016, "is_downbeat": false}, {"time": 2040, "is_downbeat": true}, {"time": 2064, "is_downbeat": false}, {"time": 2088, "is_downbeat": false}, {"time": 2112, "is_downbeat": false}, {"time": 2136, "is_downbeat": true}, {"time": 2160, "is_downbeat": false}, {"time": 2184, "is_downbeat": false}, {"time": 2208, "is_downbeat": false}, {"time": 2232, "is_downbeat": true}, {"time": 2256, "is_downbeat": false}, {"time": 2280, "is_downbeat": false}, {"time": 2304, "is_downbeat": false}, {"time": 2328, "is_downbeat": true}, {"time": 2352, "is_downbeat": false}, {"time": 2376, "is_downbeat": false}, {"time": 2400, "is_downbeat": false}, {"time": 2424, "is_downbeat": true}, {"time": 2448, "is_downbeat": false}, {"time": 2472, "is_downbeat": false}, {"time": 2496, "is_downbeat": false}], "tracks": [{"program": 0, "is_drum": false, "notes": [{"time": 0, "pitch": 65, "duration": 18, "velocity": 64}, {"time": 18, "pitch": 65, "duration": 6, "velocity": 64}, {"time": 24, "pitch": 70, "duration": 24, "velocity": 64}, {"time": 48, "pitch": 70, "duration": 24, "velocity": 64}, {"time": 72, "pitch": 72, "duration": 24, "velocity": 64}, {"time": 96, "pitch": 72, "duration": 24, "velocity": 64}, {"time": 120, "pitch": 74, "duration": 18, "velocity": 64}, {"time": 138, "pitch": 75, "duration": 6, "velocity": 64}, {"time": 144, "pitch": 77, "duration": 24, "velocity": 64}, {"time": 192, "pitch": 77, "duration": 18, "velocity": 64}, {"time": 210, "pitch": 74, "duration": 6, "velocity": 64}, {"time": 216, "pitch": 74, "duration": 12, "velocity": 64}, {"time": 228, "pitch": 72, "duration": 12, "velocity": 64}, {"time": 240, "pitch": 75, "duration": 12, "velocity": 64}, {"time": 252, "pitch": 72, "duration": 12, "velocity": 64}, {"time": 264, "pitch": 70, "duration": 24, "velocity": 64}, {"time": 288, "pitch": 69, "duration": 24, "velocity": 64}, {"time": 312, "pitch": 70, "duration": 48, "velocity": 64}, {"time": 384, "pitch": 65, "duration": 18, "velocity": 64}, {"time": 402, "pitch": 65, "duration": 6, "velocity": 64}, {"time": 408, "pitch": 70, "duration": 24, "velocity": 64}, {"time": 432, "pitch": 70, "duration": 24, "velocity": 64}, {"time": 456, "pitch": 72, "duration": 24, "velocity": 64}, {"time": 480, "pitch": 72, "duration": 24, "velocity": 64}, {"time": 504, "pitch": 74, "duration": 18, "velocity": 64}, {"time": 522, "pitch": 75, "duration": 6, "velocity": 64}, {"time": 528, "pitch": 77, "duration": 24, "velocity": 64}, {"time": 576, "pitch": 77, "duration": 18, "velocity": 64}, {"time": 594, "pitch": 74, "duration": 6, "velocity": 64}, {"time": 600, "pitch": 74, "duration": 12, "velocity": 64}, {"time": 612, "pitch": 72, "duration": 12, "velocity": 64}, {"time": 624, "pitch": 75, "duration": 12, "velocity": 64}, {"time": 636, "pitch": 72, "duration": 12, "velocity": 64}, {"time": 648, "pitch": 70, "duration": 24, "velocity": 64}, {"time": 672, "pitch": 69, "duration": 24, "velocity": 64}, {"time": 696, "pitch": 70, "duration": 48, "velocity": 64}, {"time": 768, "pitch": 69, "duration": 18, "velocity": 64}, {"time": 786, "pitch": 70, "duration": 6, "velocity": 64}, {"time": 792, "pitch": 72, "duration": 36, "velocity": 64}, {"time": 828, "pitch": 72, "duration": 12, "velocity": 64}, {"time": 840, "pitch": 74, "duration": 36, "velocity": 64}, {"time": 876, "pitch": 74, "duration": 12, "velocity": 64}, {"time": 888, "pitch": 75, "duration": 18, "velocity": 64}, {"time": 906, "pitch": 74, "duration": 6, "velocity": 64}, {"time": 912, "pitch": 75, "duration": 24, "velocity": 64}, {"time": 960, "pitch": 72, "duration": 18, "velocity": 64}, {"time": 978, "pitch": 72, "duration": 6, "velocity": 64}, {"time": 984, "pitch": 74, "duration": 36, "velocity": 64}, {"time": 1020, "pitch": 74, "duration": 12, "velocity": 64}, {"time": 1032, "pitch": 76, "duration": 36, "velocity": 64}, {"time": 1068, "pitch": 75, "duration": 12, "velocity": 64}, {"time": 1080, "pitch": 77, "duration": 48, "velocity": 64}, {"time": 1152, "pitch": 65, "duration": 18, "velocity": 64}, {"time": 1170, "pitch": 65, "duration": 6, "velocity": 64}, {"time": 1176, "pitch": 70, "duration": 24, "velocity": 64}, {"time": 1200, "pitch": 70, "duration": 24, "velocity": 64}, {"time": 1224, "pitch": 72, "duration": 24, "velocity": 64}, {"time": 1248, "pitch": 72, "duration": 24, "velocity": 64}, {"time": 1272, "pitch": 74, "duration": 18, "velocity": 64}, {"time": 1290, "pitch": 75, "duration": 6, "velocity": 64}, {"time": 1296, "pitch": 77, "duration": 24, "velocity": 64}, {"time": 1344, "pitch": 77, "duration": 18, "velocity": 64}, {"time": 1362, "pitch": 75, "duration": 6, "velocity": 64}, {"time": 1368, "pitch": 74, "duration": 12, "velocity": 64}, {"time": 1380, "pitch": 72, "duration": 12, "velocity": 64}, {"time": 1392, "pitch": 75, "duration": 12, "velocity": 64}, {"time": 1404, "pitch": 72, "duration": 12, "velocity": 64}, {"time": 1416, "pitch": 70, "duration": 24, "velocity": 64}, {"time": 1440, "pitch": 69, "duration": 24, "velocity": 64}, {"time": 1464, "pitch": 70, "duration": 48, "velocity": 64}, {"time": 1536, "pitch": 65, "duration": 18, "velocity": 64}, {"time": 1554, "pitch": 65, "duration": 6, "velocity": 64}, {"time": 1560, "pitch": 70, "duration": 36, "velocity": 64}, {"time": 1596, "pitch": 70, "duration": 12, "velocity": 64}, {"time": 1608, "pitch": 70, "duration": 36, "velocity": 64}, {"time": 1644, "pitch": 70, "duration": 12, "velocity": 64}, {"time": 1656, "pitch": 70, "duration": 18, "velocity": 64}, {"time": 1674, "pitch": 69, "duration": 6, "velocity": 64}, {"time": 1680, "pitch": 69, "duration": 24, "velocity": 64}, {"time": 1728, "pitch": 65, "duration": 18, "velocity": 64}, {"time": 1746, "pitch": 69, "duration": 6, "velocity": 64}, {"time": 1752, "pitch": 72, "duration": 36, "velocity": 64}, {"time": 1788, "pitch": 72, "duration": 12, "velocity": 64}, {"time": 1800, "pitch": 70, "duration": 36, "velocity": 64}, {"time": 1836, "pitch": 72, "duration": 12, "velocity": 64}, {"time": 1848, "pitch": 72, "duration": 24, "velocity": 64}, {"time": 1872, "pitch": 74, "duration": 24, "velocity": 64}, {"time": 1920, "pitch": 65, "duration": 18, "velocity": 64}, {"time": 1938, "pitch": 65, "duration": 6, "velocity": 64}, {"time": 1944, "pitch": 70, "duration": 36, "velocity": 64}, {"time": 1980, "pitch": 69, "duration": 12, "velocity": 64}, {"time": 1992, "pitch": 67, "duration": 12, "velocity": 64}, {"time": 2004, "pitch": 65, "duration": 12, "velocity": 64}, {"time": 2016, "pitch": 63, "duration": 12, "velocity": 64}, {"time": 2028, "pitch": 62, "duration": 12, "velocity": 64}, {"time": 2040, "pitch": 67, "duration": 48, "velocity": 64}, {"time": 2088, "pitch": 63, "duration": 24, "velocity": 64}, {"time": 2112, "pitch": 62, "duration": 24, "velocity": 64}, {"time": 2136, "pitch": 60, "duration": 36, "velocity": 64}, {"time": 2172, "pitch": 62, "duration": 6, "velocity": 64}, {"time": 2178, "pitch": 63, "duration": 6, "velocity": 64}, {"time": 2184, "pitch": 65, "duration": 36, "velocity": 64}, {"time": 2220, "pitch": 65, "duration": 12, "velocity": 64}, {"time": 2232, "pitch": 65, "duration": 24, "velocity": 64}, {"time": 2256, "pitch": 58, "duration": 24, "velocity": 64}, {"time": 2304, "pitch": 70, "duration": 18, "velocity": 64}, {"time": 2322, "pitch": 70, "duration": 6, "velocity": 64}, {"time": 2328, "pitch": 72, "duration": 36, "velocity": 64}, {"time": 2364, "pitch": 70, "duration": 12, "velocity": 64}, {"time": 2376, "pitch": 72, "duration": 36, "velocity": 64}, {"time": 2412, "pitch": 74, "duration": 12, "velocity": 64}, {"time": 2424, "pitch": 72, "duration": 18, "velocity": 64}, {"time": 2442, "pitch": 70, "duration": 6, "velocity": 64}, {"time": 2448, "pitch": 70, "duration": 24, "velocity": 64}]}]}