{"metadata": {"schema_version": "0.1", "title": "ICH TRINK UND TRINKEND FAELLT MIR BEI", "source_format": "abc"}, "resolution": 24, "tempos": [{"time": 0, "qpm": 120.0}], "key_signatures": [{"time": 0, "root": 5, "mode": "major", "fifths": -1}], "time_signatures": [{"time": 0, "numerator": 3, "denominator": 4}], "beats": [{"time": 0, "is_downbeat": true}, {"time": 12, "is_downbeat": true}, {"time": 36, "is_downbeat": false}, {"time": 60, "is_downbeat": false}, {"time": 84, "is_downbeat": true}, {"time": 108, "is_downbeat": false}, {"time": 132, "is_downbeat": false}, {"time": 156, "is_downbeat": true}, {"time": 180, "is_downbeat": false}, {"time": 204, "is_downbeat": false}, {"time": 228, "is_downbeat": true}, {"time": 252, "is_downbeat": false}, {"time": 276, "is_downbeat": false}, {"time": 300, "is_downbeat": true}, {"time": 324, "is_downbeat": false}, {"time": 348, "is_downbeat": false}, {"time": 372, "is_downbeat": true}, {"time": 396, "is_downbeat": false}, {"time": 420, "is_downbeat": false}, {"time": 444, "is_downbeat": true}, {"time": 468, "is_downbeat": false}, {"time": 492, "is_downbeat": false}, {"time": 516, "is_downbeat": true}, {"time": 540, "is_downbeat": false}, {"time": 564, "is_downbeat": false}, {"time": 588, "is_downbeat": true}, {"time": 612, "is_downbeat": false}, {"time": 636, "is_downbeat": false}, {"time": 660, "is_downbeat": true}, {"time": 684, "is_downbeat": false}, {"time": 708, "is_downbeat": false}, {"time": 732, "is_downbeat": true}, {"time": 756, "is_downbeat": false}, {"time": 780, "is_downbeat": false}, {"time": 804, "is_downbeat": true}, {"time": 828, "is_downbeat": false}, {"time": 852, "is_downbeat": false}, {"time": 876, "is_downbeat": true}, {"time": 900, "is_downbeat": false}, {"time": 924, "is_downbeat": false}, {"time": 948, "is_downbeat": true}, {"time": 972, "is_downbeat": false}, {"time": 996, "is_downbeat": false}, {"time": 1020, "is_downbeat": true}, {"time": 1044, "is_downbeat": false}, {"time": 1068, "is_downbeat": false}, {"time": 1092, "is_downbeat": true}, {"time": 1116, "is_downbeat": false}, {"time": 1140, "is_downbeat": false}, {"time": 1164, "is_downbeat": true}, {"time": 1188, "is_downbeat": false}, {"time": 1212, "is_downbeat": false}, {"time": 1236, "is_downbeat": true}, {"time": 1260, "is_downbeat": false}, {"time": 1284, "is_downbeat": false}, {"time": 1308, "is_downbeat": true}, {"time": 1332, "is_downbeat": false}, {"time": 1356, "is_downbeat": false}, {"time": 1380, "is_downbeat": true}, {"time": 1404, "is_downbeat": false}, {"time": 1428, "is_downbeat": false}, {"time": 1452, "is_downbeat": true}, {"time": 1476, "is_downbeat": false}, {"time": 1500, "is_downbeat": false}, {"time": 1524, "is_downbeat": true}, {"time": 1548, "is_downbeat": false}, {"time": 1572, "is_downbeat": false}], "tracks": [{"program": 0, "is_drum": false, "notes": [{"time": 0, "pitch": 60, "duration": 12, "velocity": 64}, {"time": 12, "pitch": 69, "duration": 18, "velocity": 64}, {"time": 30, "pitch": 67, "duration": 6, "velocity": 64}, {"time": 36, "pitch": 65, "duration": 36, "velocity": 64}, {"time": 72, "pitch": 60, "duration": 12, "velocity": 64}, {"time": 84, "pitch": 70, "duration": 18, "velocity": 64}, {"time": 102, "pitch": 69, "duration": 6, "velocity": 64}, {"time": 108, "pitch": 67, "duration": 24, "velocity": 64}, {"time": 144, "pitch": 72, "duration": 12, "velocity": 64}, {"time": 156, "pitch": 72, "duration": 18, "velocity": 64}, {"time": 174, "pitch": 72, "duration": 6, "velocity": 64}, {"time": 180, "pitch": 70, "duration": 12, "velocity": 64}, {"time": 192, "pitch": 69, "duration": 12, "velocity": 64}, {"time": 204, "pitch": 67, "duration": 12, "velocity": 64}, {"time": 216, "pitch": 65, "duration": 12, "velocity": 64}, {"time": 228, "pitch": 64, "duration": 12, "velocity": 64}, {"time": 240, "pitch": 65, "duration": 12, "velocity": 64}, {"time": 252, "pitch": 67, "duration": 24, "velocity": 64}, {"time": 288, "pitch": 67, "duration": 12, "velocity": 64}, {"time": 300, "pitch": 67, "duration": 18, "velocity": 64}, {"time": 318, "pitch": 67, "duration": 6, "velocity": 64}, {"time": 324, "pitch": 67, "duration": 12, "velocity": 64}, {"time": 336, "pitch": 67, "duration": 12, "velocity": 64}, {"time": 348, "pitch": 69, "duration": 12, "velocity": 64}, {"time": 360, "pitch": 71, "duration": 12, "velocity": 64}, {"time": 372, "pitch": 74, "duration": 24, "velocity": 64}, {"time": 396, "pitch": 72, "duration": 12, "velocity": 64}, {"time": 420, "pitch": 72, "duration": 24, "velocity": 64}, {"time": 444, "pitch": 77, "duration": 18, "velocity": 64}, {"time": 462, "pitch": 76, "duration": 6, "velocity": 64}, {"time": 468, "pitch": 74, "duration": 12, "velocity": 64}, {"time": 480, "pitch": 72, "duration": 12, "velocity": 64}, {"time": 492, "pitch": 71, "duration": 12, "velocity": 64}, {"time": 504, "pitch": 69, "duration": 12, "velocity": 64}, {"time": 516, "pitch": 67, "duration": 12, "velocity": 64}, {"time": 528, "pitch": 69, "duration": 6, "velocity": 64}, {"time": 534, "pitch": 71, "duration": 6, "velocity": 64}, {"time": 540, "pitch": 72, "duration": 36, "velocity": 64}, {"time": 576, "pitch": 60, "duration": 12, "velocity": 64}, {"time": 588, "pitch": 69, "duration": 18, "velocity": 64}, {"time": 606, "pitch": 67, "duration": 6, "velocity": 64}, {"time": 612, "pitch": 65, "duration": 36, "velocity": 64}, {"time": 648, "pitch": 60, "duration": 12, "velocity": 64}, {"time": 660, "pitch": 70, "duration": 18, "velocity": 64}, {"time": 678, "pitch": 69, "duration": 6, "velocity": 64}, {"time": 684, "pitch": 67, "duration": 24, "velocity": 64}, {"time": 720, "pitch": 72, "duration": 12, "velocity": 64}, {"time": 732, "pitch": 72, "duration": 18, "velocity": 64}, {"time": 750, "pitch": 72, "duration": 6, "velocity": 64}, {"time": 756, "pitch": 70, "duration": 12, "velocity": 64}, {"time": 768, "pitch": 69, "duration": 12, "velocity": 64}, {"time": 780, "pitch": 67, "duration": 12, "velocity": 64}, {"time": 792, "pitch": 65, "duration": 12, "velocity": 64}, {"time": 804, "pitch": 64, "duration": 12, "velocity": 64}, {"time": 816, "pitch": 65, "duration": 12, "velocity": 64}, {"time": 828, "pitch": 67, "duration": 36, "velocity": 64}, {"time": 864, "pitch": 60, "duration": 12, "velocity": 64}, {"time": 876, "pitch": 69, "duration": 18, "velocity": 64}, {"time": 894, "pitch": 67, "duration": 6, "velocity": 64}, {"time": 900, "pitch": 65, "duration": 36, "velocity": 64}, {"time": 936, "pitch": 65, "duration": 12, "velocity": 64}, {"time": 948, "pitch": 70, "duration": 18, "velocity": 64}, {"time": 966, "pitch": 69, "duration": 6, "velocity": 64}, {"time": 972, "pitch": 67, "duration": 24, "velocity": 64}, {"time": 1008, "pitch": 72, "duration": 12, "velocity": 64}, {"time": 1020, "pitch": 72, "duration": 12, "velocity": 64}, {"time": 1032, "pitch": 74, "duration": 6, "velocity": 64}, {"time": 1038, "pitch": 76, "duration": 6, "velocity": 64}, {"time": 1044, "pitch": 77, "duration": 18, "velocity": 64}, {"time": 1062, "pitch": 72, "duration": 6, "velocity": 64}, {"time": 1068, "pitch": 69, "duration": 12, "velocity": 64}, {"time": 1080, "pitch": 65, "duration": 12, "velocity": 64}, {"time": 1092, "pitch": 72, "duration": 48, "velocity": 64}, {"time": 1140, "pitch": 60, "duration": 24, "velocity": 64}, {"time": 1164, "pitch": 65, "duration": 24, "velocity": 64}, {"time": 1224, "pitch": 60, "duration": 12, "velocity": 64}, {"time": 1236, "pitch": 69, "duration": 18, "velocity": 64}, {"time": 1254, "pitch": 67, "duration": 6, "velocity": 64}, {"time": 1260, "pitch": 65, "duration": 36, "velocity": 64}, {"time": 1296, "pitch": 65, "duration": 12, "velocity": 64}, {"time": 1308, "pitch": 70, "duration": 18, "velocity": 64}, {"time": 1326, "pitch": 69, "duration": 6, "velocity": 64}, {"time": 1332, "pitch": 67, "duration": 24, "velocity": 64}, {"time": 1368, "pitch": 72, "duration": 12, "velocity": 64}, {"time": 1380, "pitch": 72, "duration": 12, "velocity": 64}, {"time": 1392, "pitch": 74, "duration": 6, "velocity": 64}, {"time": 1398, "pitch": 76, "duration": 6, "velocity": 64}, {"time": 1404, "pitch": 77, "duration": 18, "velocity": 64}, {"time": 1422, "pitch": 72, "duration": 6, "velocity": 64}, {"time": 1428, "pitch": 69, "duration": 12, "velocity": 64}, {"time": 1440, "pitch": 65, "duration": 12, "velocity": 64}, {"time": 1452, "pitch": 72, "duration": 48, "velocity": 64}, {"time": 1500, "pitch": 60, "duration": 24, "velocity": 64}, {"time": 1524, "pitch": 65, "duration": 24, "velocity": 64}]}]}