{"metadata": {"schema_version": "0.1", "title": "MAG AUCH HEISS DAS SCHEIDEN BRENNEN", "source_format": "abc"}, "resolution": 24, "tempos": [{"time": 0, "qpm": 120.0}], "key_signatures": [{"time": 0, "root": 3, "mode": "major", "fifths": -3}], "time_signatures": [{"time": 0, "numerator": 3, "denominator": 4}], "beats": [{"time": 0, "is_downbeat": true}, {"time": 24, "is_downbeat": true}, {"time": 48, "is_downbeat": false}, {"time": 72, "is_downbeat": false}, {"time": 96, "is_downbeat": true}, {"time": 120, "is_downbeat": false}, {"time": 144, "is_downbeat": false}, {"time": 168, "is_downbeat": true}, {"time": 192, "is_downbeat": false}, {"time": 216, "is_downbeat": false}, {"time": 240, "is_downbeat": true}, {"time": 264, "is_downbeat": false}, {"time": 288, "is_downbeat": false}, {"time": 312, "is_downbeat": true}, {"time": 336, "is_downbeat": false}, {"time": 360, "is_downbeat": false}, {"time": 384, "is_downbeat": true}, {"time": 408, "is_downbeat": false}, {"time": 432, "is_downbeat": false}, {"time": 456, "is_downbeat": true}, {"time": 480, "is_downbeat": false}, {"time": 504, "is_downbeat": false}, {"time": 528, "is_downbeat": true}, {"time": 552, "is_downbeat": false}, {"time": 576, "is_downbeat": false}, {"time": 600, "is_downbeat": true}, {"time": 624, "is_downbeat": false}, {"time": 648, "is_downbeat": false}, {"time": 672, "is_downbeat": true}, {"time": 696, "is_downbeat": false}, {"time": 720, "is_downbeat": false}, {"time": 744, "is_downbeat": true}, {"time": 768, "is_downbeat": false}, {"time": 792, "is_downbeat": false}, {"time": 816, "is_downbeat": true}, {"time": 840, "is_downbeat": false}, {"time": 864, "is_downbeat": false}], "tracks": [{"program": 0, "is_drum": false, "notes": [{"time": 0, "pitch": 70, "duration": 12, "velocity": 64}, {"time": 12, "pitch": 67, "duration": 12, "velocity": 64}, {"time": 24, "pitch": 72, "duration": 36, "velocity": 64}, {"time": 60, "pitch": 70, "duration": 12, "velocity": 64}, {"time": 72, "pitch": 68, "duration": 12, "velocity": 64}, {"time": 84, "pitch": 67, "duration": 12, "velocity": 64}, {"time": 96, "pitch": 65, "duration": 18, "velocity": 64}, {"time": 114, "pitch": 68, "duration": 6, "velocity": 64}, {"time": 120, "pitch": 67, "duration": 24, "velocity": 64}, {"time": 144, "pitch": 67, "duration": 12, "velocity": 64}, {"time": 156, "pitch": 70, "duration": 12, "velocity": 64}, {"time": 168, "pitch": 75, "duration": 18, "velocity": 64}, {"time": 186, "pitch": 72, "duration": 6, "velocity": 64}, {"time": 192, "pitch": 67, "duration": 24, "velocity": 64}, {"time": 216, "pitch": 69, "duration": 24, "velocity": 64}, {"time": 240, "pitch": 70, "duration": 48, "velocity": 64}, {"time": 288, "pitch": 70, "duration": 12, "velocity": 64}, {"time": 300, "pitch": 67, "duration": 12, "velocity": 64}, {"time": 312, "pitch": 72, "duration": 36, "velocity": 64}, {"time": 348, "pitch": 70, "duration": 12, "velocity": 64}, {"time": 360, "pitch": 68, "duration": 12, "velocity": 64}, {"time": 372, "pitch": 67, "duration": 12, "velocity": 64}, {"time": 384, "pitch": 65, "duration": 18, "velocity": 64}, {"time": 402, "pitch": 68, "duration": 6, "velocity": 64}, {"time": 408, "pitch": 67, "duration": 24, "velocity": 64}, {"time": 432, "pitch": 65, "duration": 12, "velocity": 64}, {"time": 444, "pitch": 70, "duration": 12, "velocity": 64}, {"time": 456, "pitch": 70, "duration": 12, "velocity": 64}, {"time": 468, "pitch": 69, "duration": 12, "velocity": 64}, {"time": 480, "pitch": 74, "duration": 36, "velocity": 64}, {"time": 516, "pitch": 72, "duration": 12, "velocity": 64}, {"time": 528, "pitch": 70, "duration": 48, "velocity": 64}, {"time": 576, "pitch": 74, "duration": 18, "velocity": 64}, {"time": 594, "pitch": 72, "duration": 6, "velocity": 64}, {"time": 600, "pitch": 70, "duration": 24, "velocity": 64}, {"time": 624, "pitch": 65, "duration": 24, "velocity": 64}, {"time": 648, "pitch": 67, "duration": 12, "velocity": 64}, {"time": 660, "pitch": 68, "duration": 12, "velocity": 64}, {"time": 672, "pitch": 72, "duration": 18, "velocity": 64}, {"time": 690, "pitch": 70, "duration": 6, "velocity": 64}, {"time": 696, "pitch": 70, "duration": 24, "velocity": 64}, {"time": 720, "pitch": 72, "duration": 12, "velocity": 64}, {"time": 732, "pitch": 70, "duration": 12, "velocity": 64}, {"time": 744, "pitch": 75, "duration": 18, "velocity": 64}, {"time": 762, "pitch": 67, "duration": 6, "velocity": 64}, {"time": 768, "pitch": 74, "duration": 24, "velocity": 64}, {"time": 792, "pitch": 72, "duration": 24, "velocity": 64}, {"time": 816, "pitch": 70, "duration": 18, "velocity": 64}, {"time": 834, "pitch": 68, "duration": 6, "velocity": 64}, {"time": 840, "pitch": 67, "duration": 24, "velocity": 64}]}]}