{"metadata": {"schema_version": "0.1", "title": "THRAENEN HAB ICH VIELE", "source_format": "abc"}, "resolution": 24, "tempos": [{"time": 0, "qpm": 120.0}], "key_signatures": [{"time": 0, "root": 2, "mode": "major", "fifths": 2}], "time_signatures": [{"time": 0, "numerator": 4, "denominator": 4}], "beats": [{"time": 0, "is_downbeat": true}, {"time": 24, "is_downbeat": true}, {"time": 48, "is_downbeat": false}, {"time": 72, "is_downbeat": false}, {"time": 96, "is_downbeat": false}, {"time": 120, "is_downbeat": true}, {"time": 144, "is_downbeat": false}, {"time": 168, "is_downbeat": false}, {"time": 192, "is_downbeat": false}, {"time": 216, "is_downbeat": true}, {"time": 240, "is_downbeat": false}, {"time": 264, "is_downbeat": false}, {"time": 288, "is_downbeat": false}, {"time": 312, "is_downbeat": true}, {"time": 336, "is_downbeat": false}, {"time": 360, "is_downbeat": false}, {"time": 384, "is_downbeat": false}, {"time": 408, "is_downbeat": true}, {"time": 432, "is_downbeat": false}, {"time": 456, "is_downbeat": false}, {"time": 480, "is_downbeat": false}, {"time": 504, "is_downbeat": true}, {"time": 528, "is_downbeat": false}, {"time": 552, "is_downbeat": false}, {"time": 576, "is_downbeat": false}, {"time": 600, "is_downbeat": true}, {"time": 624, "is_downbeat": false}, {"time": 648, "is_downbeat": false}, {"time": 672, "is_downbeat": false}, {"time": 696, "is_downbeat": true}, {"time": 720, "is_downbeat": false}, {"time": 744, "is_downbeat": false}, {"time": 768, "is_downbeat": false}, {"time": 792, "is_downbeat": true}, {"time": 816, "is_downbeat": false}, {"time": 840, "is_downbeat": false}, {"time": 864, "is_downbeat": false}, {"time": 888, "is_downbeat": true}, {"time": 912, "is_downbeat": false}, {"time": 936, "is_downbeat": false}, {"time": 960, "is_downbeat": false}, {"time": 984, "is_downbeat": true}, {"time": 1008, "is_downbeat": false}, {"time": 1032, "is_downbeat": false}, {"time": 1056, "is_downbeat": false}, {"time": 1080, "is_downbeat": true}, {"time": 1104, "is_downbeat": false}, {"time": 1128, "is_downbeat": false}, {"time": 1152, "is_downbeat": false}, {"time": 1176, "is_downbeat": true}, {"time": 1200, "is_downbeat": false}, {"time": 1224, "is_downbeat": false}, {"time": 1248, "is_downbeat": false}, {"time": 1272, "is_downbeat": true}, {"time": 1296, "is_downbeat": false}, {"time": 1320, "is_downbeat": false}, {"time": 1344, "is_downbeat": false}, {"time": 1368, "is_downbeat": true}, {"time": 1392, "is_downbeat": false}, {"time": 1416, "is_downbeat": false}, {"time": 1440, "is_downbeat": false}, {"time": 1464, "is_downbeat": true}, {"time": 1488, "is_downbeat": false}, {"time": 1512, "is_downbeat": false}, {"time": 1536, "is_downbeat": false}, {"time": 1560, "is_downbeat": true}, {"time": 1584, "is_downbeat": false}, {"time": 1608, "is_downbeat": false}, {"time": 1632, "is_downbeat": false}, {"time": 1656, "is_downbeat": true}, {"time": 1680, "is_downbeat": false}, {"time": 1704, "is_downbeat": false}, {"time": 1728, "is_downbeat": false}, {"time": 1752, "is_downbeat": true}, {"time": 1776, "is_downbeat": false}, {"time": 1800, "is_downbeat": false}, {"time": 1824, "is_downbeat": false}, {"time": 1848, "is_downbeat": true}, {"time": 1872, "is_downbeat": false}, {"time": 1896, "is_downbeat": false}, {"time": 1920, "is_downbeat": false}], "tracks": [{"program": 0, "is_drum": false, "notes": [{"time": 0, "pitch": 50, "duration": 12, "velocity": 64}, {"time": 12, "pitch": 54, "duration": 12, "velocity": 64}, {"time": 24, "pitch": 57, "duration": 24, "velocity": 64}, {"time": 48, "pitch": 57, "duration": 24, "velocity": 64}, {"time": 72, "pitch": 57, "duration": 24, "velocity": 64}, {"time": 96, "pitch": 59, "duration": 12, "velocity": 64}, {"time": 108, "pitch": 57, "duration": 12, "velocity": 64}, {"time": 120, "pitch": 57, "duration": 12, "velocity": 64}, {"time": 132, "pitch": 55, "duration": 12, "velocity": 64}, {"time": 144, "pitch": 55, "duration": 12, "velocity": 64}, {"time": 156, "pitch": 54, "duration": 12, "velocity": 64}, {"time": 168, "pitch": 55, "duration": 12, "velocity": 64}, {"time": 180, "pitch": 55, "duration": 12, "velocity": 64}, {"time": 192, "pitch": 57, "duration": 12, "velocity": 64}, {"time": 204, "pitch": 55, "duration": 12, "velocity": 64}, {"time": 216, "pitch": 54, "duration": 24, "velocity": 64}, {"time": 240, "pitch": 54, "duration": 24, "velocity": 64}, {"time": 264, "pitch": 57, "duration": 24, "velocity": 64}, {"time": 288, "pitch": 55, "duration": 12, "velocity": 64}, {"time": 300, "pitch": 54, "duration": 12, "velocity": 64}, {"time": 312, "pitch": 55, "duration": 48, "velocity": 64}, {"time": 384, "pitch": 50, "duration": 12, "velocity": 64}, {"time": 396, "pitch": 54, "duration": 12, "velocity": 64}, {"time": 408, "pitch": 57, "duration": 24, "velocity": 64}, {"time": 432, "pitch": 57, "duration": 24, "velocity": 64}, {"time": 456, "pitch": 57, "duration": 24, "velocity": 64}, {"time": 480, "pitch": 59, "duration": 12, "velocity": 64}, {"time": 492, "pitch": 57, "duration": 12, "velocity": 64}, {"time": 504, "pitch": 57, "duration": 12, "velocity": 64}, {"time": 516, "pitch": 55, "duration": 12, "velocity": 64}, {"time": 528, "pitch": 55, "duration": 12, "velocity": 64}, {"time": 540, "pitch": 54, "duration": 12, "velocity": 64}, {"time": 552, "pitch": 55, "duration": 12, "velocity": 64}, {"time": 564, "pitch": 55, "duration": 12, "velocity": 64}, {"time": 576, "pitch": 57, "duration": 12, "velocity": 64}, {"time": 588, "pitch": 55, "duration": 12, "velocity": 64}, {"time": 600, "pitch": 54, "duration": 24, "velocity": 64}, {"time": 624, "pitch": 54, "duration": 24, "velocity": 64}, {"time": 648, "pitch": 57, "duration": 24, "velocity": 64}, {"time": 672, "pitch": 55, "duration": 12, "velocity": 64}, {"time": 684, "pitch": 54, "duration": 12, "velocity": 64}, {"time": 696, "pitch": 55, "duration": 48, "velocity": 64}, {"time": 768, "pitch": 50, "duration": 12, "velocity": 64}, {"time": 780, "pitch": 50, "duration": 12, "velocity": 64}, {"time": 792, "pitch": 59, "duration": 12, "velocity": 64}, {"time": 804, "pitch": 59, "duration": 12, "velocity": 64}, {"time": 816, "pitch": 59, "duration": 12, "velocity": 64}, {"time": 828, "pitch": 59, "duration": 12, "velocity": 64}, {"time": 840, "pitch": 59, "duration": 24, "velocity": 64}, {"time": 864, "pitch": 62, "duration": 12, "velocity": 64}, {"time": 876, "pitch": 59, "duration": 12, "velocity": 64}, {"time": 888, "pitch": 59, "duration": 12, "velocity": 64}, {"time": 900, "pitch": 57, "duration": 12, "velocity": 64}, {"time": 912, "pitch": 57, "duration": 12, "velocity": 64}, {"time": 924, "pitch": 57, "duration": 12, "velocity": 64}, {"time": 936, "pitch": 62, "duration": 24, "velocity": 64}, {"time": 960, "pitch": 62, "duration": 12, "velocity": 64}, {"time": 972, "pitch": 62, "duration": 12, "velocity": 64}, {"time": 984, "pitch": 64, "duration": 24, "velocity": 64}, {"time": 1008, "pitch": 64, "duration": 24, "velocity": 64}, {"time": 1032, "pitch": 61, "duration": 24, "velocity": 64}, {"time": 1056, "pitch": 59, "duration": 12, "velocity": 64}, {"time": 1068, "pitch": 61, "duration": 12, "velocity": 64}, {"time": 1080, "pitch": 62, "duration": 48, "velocity": 64}, {"time": 1152, "pitch": 50, "duration": 12, "velocity": 64}, {"time": 1164, "pitch": 54, "duration": 12, "velocity": 64}, {"time": 1176, "pitch": 57, "duration": 12, "velocity": 64}, {"time": 1188, "pitch": 57, "duration": 12, "velocity": 64}, {"time": 1200, "pitch": 57, "duration": 12, "velocity": 64}, {"time": 1212, "pitch": 57, "duration": 12, "velocity": 64}, {"time": 1224, "pitch": 57, "duration": 24, "velocity": 64}, {"time": 1248, "pitch": 62, "duration": 12, "velocity": 64}, {"time": 1260, "pitch": 61, "duration": 12, "velocity": 64}, {"time": 1272, "pitch": 59, "duration": 12, "velocity": 64}, {"time": 1284, "pitch": 59, "duration": 12, "velocity": 64}, {"time": 1296, "pitch": 59, "duration": 12, "velocity": 64}, {"time": 1308, "pitch": 59, "duration": 12, "velocity": 64}, {"time": 1320, "pitch": 59, "duration": 24, "velocity": 64}, {"time": 1344, "pitch": 64, "duration": 12, "velocity": 64}, {"time": 1356, "pitch": 62, "duration": 12, "velocity": 64}, {"time": 1368, "pitch": 61, "duration": 24, "velocity": 64}, {"time": 1392, "pitch": 57, "duration": 24, "velocity": 64}, {"time": 1416, "pitch": 57, "duration": 24, "velocity": 64}, {"time": 1440, "pitch": 59, "duration": 12, "velocity": 64}, {"time": 1452, "pitch": 61, "duration": 12, "velocity": 64}, {"time": 1464, "pitch": 62, "duration": 48, "velocity": 64}, {"time": 1536, "pitch": 50, "duration": 12, "velocity": 64}, {"time": 1548, "pitch": 54, "duration": 12, "velocity": 64}, {"time": 1560, "pitch": 57, "duration": 12, "velocity": 64}, {"time": 1572, "pitch": 57, "duration": 12, "velocity": 64}, {"time": 1584, "pitch": 57, "duration": 12, "velocity": 64}, {"time": 1596, "pitch": 57, "duration": 12, "velocity": 64}, {"time": 1608, "pitch": 57, "duration": 24, "velocity": 64}, {"time": 1632, "pitch": 62, "duration": 12, "velocity": 64}, {"time": 1644, "pitch": 61, "duration": 12, "velocity": 64}, {"time": 1656, "pitch": 59, "duration": 12, "velocity": 64}, {"time": 1668, "pitch": 59, "duration": 12, "velocity": 64}, {"time": 1680, "pitch": 59, "duration": 12, "velocity": 64}, {"time": 1692, "pitch": 59, "duration": 12, "velocity": 64}, {"time": 1704, "pitch": 59, "duration": 24, "velocity": 64}, {"time": 1728, "pitch": 64, "duration": 12, "velocity": 64}, {"time": 1740, "pitch": 62, "duration": 12, "velocity": 64}, {"time": 1752, "pitch": 61, "duration": 24, "velocity": 64}, {"time": 1776, "pitch": 57, "duration": 24, "velocity": 64}, {"time": 1800, "pitch": 57, "duration": 24, "velocity": 64}, {"time": 1824, "pitch": 59, "duration": 12, "velocity": 64}, {"time": 1836, "pitch": 61, "duration": 12, "velocity": 64}, {"time": 1848, "pitch": 62, "duration": 48, "velocity": 64}]}]}