{"metadata": {"schema_version": "0.1", "title": "VON MEINEN BERGEN MUSS I SCHEIDE", "source_format": "abc"}, "resolution": 24, "tempos": [{"time": 0, "qpm": 120.0}], "key_signatures": [{"time": 0, "root": 5, "mode": "major", "fifths": -1}], "time_signatures": [{"time": 0, "numerator": 3, "denominator": 4}], "beats": [{"time": 0, "is_downbeat": true}, {"time": 24, "is_downbeat": false}, {"time": 36, "is_downbeat": true}, {"time": 60, "is_downbeat": false}, {"time": 84, "is_downbeat": false}, {"time": 108, "is_downbeat": true}, {"time": 132, "is_downbeat": false}, {"time": 156, "is_downbeat": false}, {"time": 180, "is_downbeat": true}, {"time": 204, "is_downbeat": false}, {"time": 228, "is_downbeat": false}, {"time": 252, "is_downbeat": true}, {"time": 276, "is_downbeat": false}, {"time": 300, "is_downbeat": false}, {"time": 324, "is_downbeat": true}, {"time": 348, "is_downbeat": false}, {"time": 372, "is_downbeat": false}, {"time": 396, "is_downbeat": true}, {"time": 420, "is_downbeat": false}, {"time": 444, "is_downbeat": false}, {"time": 468, "is_downbeat": true}, {"time": 492, "is_downbeat": false}, {"time": 516, "is_downbeat": false}, {"time": 540, "is_downbeat": true}, {"time": 564, "is_downbeat": false}, {"time": 588, "is_downbeat": false}, {"time": 612, "is_downbeat": true}, {"time": 636, "is_downbeat": false}, {"time": 660, "is_downbeat": false}, {"time": 684, "is_downbeat": true}, {"time": 708, "is_downbeat": false}, {"time": 732, "is_downbeat": false}, {"time": 756, "is_downbeat": true}, {"time": 780, "is_downbeat": false}, {"time": 804, "is_downbeat": false}, {"time": 828, "is_downbeat": true}, {"time": 852, "is_downbeat": false}, {"time": 876, "is_downbeat": false}, {"time": 900, "is_downbeat": true}, {"time": 924, "is_downbeat": false}, {"time": 948, "is_downbeat": false}, {"time": 972, "is_downbeat": true}, {"time": 996, "is_downbeat": false}, {"time": 1020, "is_downbeat": false}, {"time": 1044, "is_downbeat": true}, {"time": 1068, "is_downbeat": false}, {"time": 1092, "is_downbeat": false}, {"time": 1116, "is_downbeat": true}, {"time": 1140, "is_downbeat": false}, {"time": 1164, "is_downbeat": false}, {"time": 1188, "is_downbeat": true}, {"time": 1212, "is_downbeat": false}, {"time": 1236, "is_downbeat": false}, {"time": 1260, "is_downbeat": true}, {"time": 1284, "is_downbeat": false}, {"time": 1308, "is_downbeat": false}, {"time": 1332, "is_downbeat": true}, {"time": 1356, "is_downbeat": false}, {"time": 1380, "is_downbeat": false}, {"time": 1404, "is_downbeat": true}, {"time": 1428, "is_downbeat": false}, {"time": 1452, "is_downbeat": false}, {"time": 1476, "is_downbeat": true}, {"time": 1500, "is_downbeat": false}, {"time": 1524, "is_downbeat": false}, {"time": 1548, "is_downbeat": true}, {"time": 1572, "is_downbeat": false}, {"time": 1596, "is_downbeat": false}, {"time": 1620, "is_downbeat": true}, {"time": 1644, "is_downbeat": false}, {"time": 1668, "is_downbeat": false}, {"time": 1692, "is_downbeat": true}, {"time": 1716, "is_downbeat": false}, {"time": 1740, "is_downbeat": false}], "tracks": [{"program": 0, "is_drum": false, "notes": [{"time": 0, "pitch": 60, "duration": 12, "velocity": 64}, {"time": 12, "pitch": 65, "duration": 12, "velocity": 64}, {"time": 24, "pitch": 67, "duration": 12, "velocity": 64}, {"time": 36, "pitch": 69, "duration": 36, "velocity": 64}, {"time": 72, "pitch": 64, "duration": 12, "velocity": 64}, {"time": 84, "pitch": 67, "duration": 12, "velocity": 64}, {"time": 96, "pitch": 65, "duration": 12, "velocity": 64}, {"time": 108, "pitch": 64, "duration": 24, "velocity": 64}, {"time": 132, "pitch": 62, "duration": 12, "velocity": 64}, {"time": 144, "pitch": 62, "duration": 12, "velocity": 64}, {"time": 156, "pitch": 67, "duration": 12, "velocity": 64}, {"time": 168, "pitch": 69, "duration": 12, "velocity": 64}, {"time": 180, "pitch": 72, "duration": 36, "velocity": 64}, {"time": 216, "pitch": 70, "duration": 12, "velocity": 64}, {"time": 228, "pitch": 62, "duration": 12, "velocity": 64}, {"time": 240, "pitch": 64, "duration": 12, "velocity": 64}, {"time": 252, "pitch": 65, "duration": 24, "velocity": 64}, {"time": 288, "pitch": 60, "duration": 12, "velocity": 64}, {"time": 300, "pitch": 65, "duration": 12, "velocity": 64}, {"time": 312, "pitch": 67, "duration": 12, "velocity": 64}, {"time": 324, "pitch": 69, "duration": 36, "velocity": 64}, {"time": 360, "pitch": 64, "duration": 12, "velocity": 64}, {"time": 372, "pitch": 67, "duration": 12, "velocity": 64}, {"time": 384, "pitch": 65, "duration": 12, "velocity": 64}, {"time": 396, "pitch": 64, "duration": 24, "velocity": 64}, {"time": 420, "pitch": 62, "duration": 12, "velocity": 64}, {"time": 432, "pitch": 62, "duration": 12, "velocity": 64}, {"time": 444, "pitch": 67, "duration": 12, "velocity": 64}, {"time": 456, "pitch": 69, "duration": 12, "velocity": 64}, {"time": 468, "pitch": 72, "duration": 36, "velocity": 64}, {"time": 504, "pitch": 70, "duration": 12, "velocity": 64}, {"time": 516, "pitch": 62, "duration": 12, "velocity": 64}, {"time": 528, "pitch": 64, "duration": 12, "velocity": 64}, {"time": 540, "pitch": 65, "duration": 24, "velocity": 64}, {"time": 576, "pitch": 60, "duration": 12, "velocity": 64}, {"time": 588, "pitch": 65, "duration": 12, "velocity": 64}, {"time": 600, "pitch": 67, "duration": 12, "velocity": 64}, {"time": 612, "pitch": 69, "duration": 12, "velocity": 64}, {"time": 624, "pitch": 65, "duration": 12, "velocity": 64}, {"time": 636, "pitch": 74, "duration": 36, "velocity": 64}, {"time": 672, "pitch": 69, "duration": 12, "velocity": 64}, {"time": 684, "pitch": 72, "duration": 24, "velocity": 64}, {"time": 708, "pitch": 70, "duration": 12, "velocity": 64}, {"time": 720, "pitch": 60, "duration": 12, "velocity": 64}, {"time": 732, "pitch": 64, "duration": 12, "velocity": 64}, {"time": 744, "pitch": 67, "duration": 12, "velocity": 64}, {"time": 756, "pitch": 70, "duration": 12, "velocity": 64}, {"time": 768, "pitch": 67, "duration": 12, "velocity": 64}, {"time": 780, "pitch": 76, "duration": 36, "velocity": 64}, {"time": 816, "pitch": 70, "duration": 12, "velocity": 64}, {"time": 828, "pitch": 74, "duration": 24, "velocity": 64}, {"time": 852, "pitch": 72, "duration": 12, "velocity": 64}, {"time": 864, "pitch": 60, "duration": 12, "velocity": 64}, {"time": 876, "pitch": 65, "duration": 12, "velocity": 64}, {"time": 888, "pitch": 69, "duration": 12, "velocity": 64}, {"time": 900, "pitch": 72, "duration": 12, "velocity": 64}, {"time": 912, "pitch": 69, "duration": 12, "velocity": 64}, {"time": 924, "pitch": 81, "duration": 24, "velocity": 64}, {"time": 948, "pitch": 79, "duration": 12, "velocity": 64}, {"time": 960, "pitch": 77, "duration": 12, "velocity": 64}, {"time": 972, "pitch": 76, "duration": 24, "velocity": 64}, {"time": 996, "pitch": 74, "duration": 24, "velocity": 64}, {"time": 1020, "pitch": 70, "duration": 12, "velocity": 64}, {"time": 1032, "pitch": 67, "duration": 12, "velocity": 64}, {"time": 1044, "pitch": 65, "duration": 12, "velocity": 64}, {"time": 1056, "pitch": 64, "duration": 12, "velocity": 64}, {"time": 1068, "pitch": 74, "duration": 12, "velocity": 64}, {"time": 1080, "pitch": 72, "duration": 12, "velocity": 64}, {"time": 1092, "pitch": 70, "duration": 12, "velocity": 64}, {"time": 1104, "pitch": 67, "duration": 12, "velocity": 64}, {"time": 1116, "pitch": 65, "duration": 24, "velocity": 64}, {"time": 1188, "pitch": 67, "duration": 12, "velocity": 64}, {"time": 1200, "pitch": 67, "duration": 6, "velocity": 64}, {"time": 1206, "pitch": 69, "duration": 6, "velocity": 64}, {"time": 1212, "pitch": 67, "duration": 12, "velocity": 64}, {"time": 1224, "pitch": 67, "duration": 6, "velocity": 64}, {"time": 1230, "pitch": 69, "duration": 6, "velocity": 64}, {"time": 1236, "pitch": 67, "duration": 12, "velocity": 64}, {"time": 1248, "pitch": 67, "duration": 6, "velocity": 64}, {"time": 1254, "pitch": 69, "duration": 6, "velocity": 64}, {"time": 1260, "pitch": 67, "duration": 24, "velocity": 64}, {"time": 1284, "pitch": 76, "duration": 36, "velocity": 64}, {"time": 1320, "pitch": 77, "duration": 12, "velocity": 64}, {"time": 1332, "pitch": 76, "duration": 24, "velocity": 64}, {"time": 1356, "pitch": 74, "duration": 36, "velocity": 64}, {"time": 1392, "pitch": 71, "duration": 12, "velocity": 64}, {"time": 1404, "pitch": 74, "duration": 24, "velocity": 64}, {"time": 1428, "pitch": 72, "duration": 48, "velocity": 64}, {"time": 1476, "pitch": 70, "duration": 12, "velocity": 64}, {"time": 1488, "pitch": 69, "duration": 12, "velocity": 64}, {"time": 1500, "pitch": 67, "duration": 12, "velocity": 64}, {"time": 1512, "pitch": 69, "duration": 12, "velocity": 64}, {"time": 1524, "pitch": 70, "duration": 12, "velocity": 64}, {"time": 1536, "pitch": 71, "duration": 12, "velocity": 64}, {"time": 1548, "pitch": 72, "duration": 24, "velocity": 64}, {"time": 1572, "pitch": 81, "duration": 36, "velocity": 64}, {"time": 1608, "pitch": 82, "duration": 12, "velocity": 64}, {"time": 1620, "pitch": 81, "duration": 24, "velocity": 64}, {"time": 1644, "pitch": 79, "duration": 24, "velocity": 64}, {"time": 1668, "pitch": 81, "duration": 18, "velocity": 64}, {"time": 1686, "pitch": 79, "duration": 6, "velocity": 64}, {"time": 1692, "pitch": 77, "duration": 24, "velocity": 64}]}]}