{"metadata": {"schema_version": "0.1", "title": "WOHL AUF NOCH GETRUNKEN", "source_format": "abc"}, "resolution": 24, "tempos": [{"time": 0, "qpm": 120.0}], "key_signatures": [{"time": 0, "root": 0, "mode": "major", "fifths": 0}], "time_signatures": [{"time": 0, "numerator": 3, "denominator": 4}], "beats": [{"time": 0, "is_downbeat": true}, {"time": 24, "is_downbeat": true}, {"time": 48, "is_downbeat": false}, {"time": 72, "is_downbeat": false}, {"time": 96, "is_downbeat": true}, {"time": 120, "is_downbeat": false}, {"time": 144, "is_downbeat": false}, {"time": 168, "is_downbeat": true}, {"time": 192, "is_downbeat": false}, {"time": 216, "is_downbeat": false}, {"time": 240, "is_downbeat": true}, {"time": 264, "is_downbeat": false}, {"time": 288, "is_downbeat": false}, {"time": 312, "is_downbeat": true}, {"time": 336, "is_downbeat": false}, {"time": 360, "is_downbeat": false}, {"time": 384, "is_downbeat": true}, {"time": 408, "is_downbeat": false}, {"time": 432, "is_downbeat": false}, {"time": 456, "is_downbeat": true}, {"time": 480, "is_downbeat": false}, {"time": 504, "is_downbeat": false}, {"time": 528, "is_downbeat": true}, {"time": 552, "is_downbeat": false}, {"time": 576, "is_downbeat": false}, {"time": 600, "is_downbeat": true}, {"time": 624, "is_downbeat": false}, {"time": 648, "is_downbeat": false}, {"time": 672, "is_downbeat": true}, {"time": 696, "is_downbeat": false}, {"time": 720, "is_downbeat": false}, {"time": 744, "is_downbeat": true}, {"time": 768, "is_downbeat": false}, {"time": 792, "is_downbeat": false}, {"time": 816, "is_downbeat": true}, {"time": 840, "is_downbeat": false}, {"time": 864, "is_downbeat": false}, {"time": 888, "is_downbeat": true}, {"time": 912, "is_downbeat": false}, {"time": 936, "is_downbeat": false}, {"time": 960, "is_downbeat": true}, {"time": 984, "is_downbeat": false}, {"time": 1008, "is_downbeat": false}, {"time": 1032, "is_downbeat": true}, {"time": 1056, "is_downbeat": false}, {"time": 1080, "is_downbeat": false}, {"time": 1104, "is_downbeat": true}, {"time": 1128, "is_downbeat": false}, {"time": 1152, "is_downbeat": false}, {"time": 1176, "is_downbeat": true}, {"time": 1200, "is_downbeat": false}, {"time": 1224, "is_downbeat": false}, {"time": 1248, "is_downbeat": true}, {"time": 1272, "is_downbeat": false}, {"time": 1296, "is_downbeat": false}, {"time": 1320, "is_downbeat": true}, {"time": 1344, "is_downbeat": false}, {"time": 1368, "is_downbeat": false}, {"time": 1392, "is_downbeat": true}, {"time": 1416, "is_downbeat": false}, {"time": 1440, "is_downbeat": false}, {"time": 1464, "is_downbeat": true}, {"time": 1488, "is_downbeat": false}, {"time": 1512, "is_downbeat": false}, {"time": 1536, "is_downbeat": true}, {"time": 1560, "is_downbeat": false}, {"time": 1584, "is_downbeat": false}, {"time": 1608, "is_downbeat": true}, {"time": 1632, "is_downbeat": false}, {"time": 1656, "is_downbeat": false}, {"time": 1680, "is_downbeat": true}, {"time": 1704, "is_downbeat": false}, {"time": 1728, "is_downbeat": false}, {"time": 1752, "is_downbeat": true}, {"time": 1776, "is_downbeat": false}, {"time": 1800, "is_downbeat": false}, {"time": 1824, "is_downbeat": true}, {"time": 1848, "is_downbeat": false}, {"time": 1872, "is_downbeat": false}, {"time": 1896, "is_downbeat": true}, {"time": 1920, "is_downbeat": false}, {"time": 1944, "is_downbeat": false}, {"time": 1968, "is_downbeat": true}, {"time": 1992, "is_downbeat": false}, {"time": 2016, "is_downbeat": false}, {"time": 2040, "is_downbeat": true}, {"time": 2064, "is_downbeat": false}, {"time": 2088, "is_downbeat": false}, {"time": 2112, "is_downbeat": true}, {"time": 2136, "is_downbeat": false}, {"time": 2160, "is_downbeat": false}, {"time": 2184, "is_downbeat": true}, {"time": 2208, "is_downbeat": false}, {"time": 2232, "is_downbeat": false}, {"time": 2256, "is_downbeat": true}, {"time": 2280, "is_downbeat": false}, {"time": 2304, "is_downbeat": false}, {"time": 2328, "is_downbeat": true}, {"time": 2352, "is_downbeat": false}, {"time": 2376, "is_downbeat": false}, {"time": 2400, "is_downbeat": true}, {"time": 2424, "is_downbeat": false}, {"time": 2448, "is_downbeat": false}, {"time": 2472, "is_downbeat": true}, {"time": 2496, "is_downbeat": false}, {"time": 2520, "is_downbeat": false}, {"time": 2544, "is_downbeat": true}, {"time": 2568, "is_downbeat": false}, {"time": 2592, "is_downbeat": false}, {"time": 2616, "is_downbeat": true}, {"time": 2640, "is_downbeat": false}, {"time": 2664, "is_downbeat": false}, {"time": 2688, "is_downbeat": true}, {"time": 2712, "is_downbeat": false}, {"time": 2736, "is_downbeat": false}, {"time": 2760, "is_downbeat": true}, {"time": 2784, "is_downbeat": false}, {"time": 2808, "is_downbeat": false}, {"time": 2832, "is_downbeat": true}, {"time": 2856, "is_downbeat": false}, {"time": 2880, "is_downbeat": false}, {"time": 2904, "is_downbeat": true}, {"time": 2928, "is_downbeat": false}, {"time": 2952, "is_downbeat": false}], "tracks": [{"program": 0, "is_drum": false, "notes": [{"time": 0, "pitch": 48, "duration": 12, "velocity": 64}, {"time": 12, "pitch": 52, "duration": 12, "velocity": 64}, {"time": 24, "pitch": 55, "duration": 24, "velocity": 64}, {"time": 48, "pitch": 55, "duration": 24, "velocity": 64}, {"time": 72, "pitch": 57, "duration": 12, "velocity": 64}, {"time": 84, "pitch": 55, "duration": 12, "velocity": 64}, {"time": 96, "pitch": 52, "duration": 12, "velocity": 64}, {"time": 108, "pitch": 55, "duration": 12, "velocity": 64}, {"time": 120, "pitch": 60, "duration": 36, "velocity": 64}, {"time": 156, "pitch": 52, "duration": 12, "velocity": 64}, {"time": 168, "pitch": 55, "duration": 12, "velocity": 64}, {"time": 180, "pitch": 53, "duration": 12, "velocity": 64}, {"time": 192, "pitch": 53, "duration": 12, "velocity": 64}, {"time": 204, "pitch": 52, "duration": 12, "velocity": 64}, {"time": 216, "pitch": 53, "duration": 12, "velocity": 64}, {"time": 228, "pitch": 55, "duration": 12, "velocity": 64}, {"time": 240, "pitch": 52, "duration": 48, "velocity": 64}, {"time": 288, "pitch": 48, "duration": 12, "velocity": 64}, {"time": 300, "pitch": 52, "duration": 12, "velocity": 64}, {"time": 312, "pitch": 55, "duration": 24, "velocity": 64}, {"time": 336, "pitch": 55, "duration": 24, "velocity": 64}, {"time": 360, "pitch": 57, "duration": 12, "velocity": 64}, {"time": 372, "pitch": 55, "duration": 12, "velocity": 64}, {"time": 384, "pitch": 52, "duration": 12, "velocity": 64}, {"time": 396, "pitch": 55, "duration": 12, "velocity": 64}, {"time": 408, "pitch": 60, "duration": 36, "velocity": 64}, {"time": 444, "pitch": 52, "duration": 12, "velocity": 64}, {"time": 456, "pitch": 55, "duration": 12, "velocity": 64}, {"time": 468, "pitch": 53, "duration": 12, "velocity": 64}, {"time": 480, "pitch": 53, "duration": 12, "velocity": 64}, {"time": 492, "pitch": 52, "duration": 12, "velocity": 64}, {"time": 504, "pitch": 53, "duration": 12, "velocity": 64}, {"time": 516, "pitch": 55, "duration": 12, "velocity": 64}, {"time": 528, "pitch": 52, "duration": 48, "velocity": 64}, {"time": 576, "pitch": 52, "duration": 24, "velocity": 64}, {"time": 600, "pitch": 50, "duration": 12, "velocity": 64}, {"time": 612, "pitch": 59, "duration": 12, "velocity": 64}, {"time": 624, "pitch": 59, "duration": 36, "velocity": 64}, {"time": 660, "pitch": 59, "duration": 12, "velocity": 64}, {"time": 672, "pitch": 59, "duration": 12, "velocity": 64}, {"time": 684, "pitch": 57, "duration": 12, "velocity": 64}, {"time": 696, "pitch": 57, "duration": 36, "velocity": 64}, {"time": 732, "pitch": 57, "duration": 12, "velocity": 64}, {"time": 744, "pitch": 57, "duration": 12, "velocity": 64}, {"time": 756, "pitch": 59, "duration": 12, "velocity": 64}, {"time": 768, "pitch": 60, "duration": 24, "velocity": 64}, {"time": 792, "pitch": 54, "duration": 24, "velocity": 64}, {"time": 816, "pitch": 55, "duration": 48, "velocity": 64}, {"time": 864, "pitch": 52, "duration": 24, "velocity": 64}, {"time": 888, "pitch": 50, "duration": 12, "velocity": 64}, {"time": 900, "pitch": 59, "duration": 12, "velocity": 64}, {"time": 912, "pitch": 59, "duration": 36, "velocity": 64}, {"time": 948, "pitch": 59, "duration": 12, "velocity": 64}, {"time": 960, "pitch": 59, "duration": 12, "velocity": 64}, {"time": 972, "pitch": 57, "duration": 12, "velocity": 64}, {"time": 984, "pitch": 57, "duration": 36, "velocity": 64}, {"time": 1020, "pitch": 57, "duration": 12, "velocity": 64}, {"time": 1032, "pitch": 57, "duration": 12, "velocity": 64}, {"time": 1044, "pitch": 59, "duration": 12, "velocity": 64}, {"time": 1056, "pitch": 60, "duration": 24, "velocity": 64}, {"time": 1080, "pitch": 54, "duration": 24, "velocity": 64}, {"time": 1104, "pitch": 55, "duration": 48, "velocity": 64}, {"time": 1152, "pitch": 55, "duration": 24, "velocity": 64}, {"time": 1176, "pitch": 57, "duration": 12, "velocity": 64}, {"time": 1188, "pitch": 55, "duration": 12, "velocity": 64}, {"time": 1200, "pitch": 53, "duration": 36, "velocity": 64}, {"time": 1236, "pitch": 50, "duration": 12, "velocity": 64}, {"time": 1248, "pitch": 52, "duration": 12, "velocity": 64}, {"time": 1260, "pitch": 55, "duration": 12, "velocity": 64}, {"time": 1272, "pitch": 60, "duration": 36, "velocity": 64}, {"time": 1308, "pitch": 52, "duration": 12, "velocity": 64}, {"time": 1320, "pitch": 55, "duration": 12, "velocity": 64}, {"time": 1332, "pitch": 53, "duration": 12, "velocity": 64}, {"time": 1344, "pitch": 53, "duration": 12, "velocity": 64}, {"time": 1356, "pitch": 50, "duration": 12, "velocity": 64}, {"time": 1368, "pitch": 53, "duration": 12, "velocity": 64}, {"time": 1380, "pitch": 55, "duration": 12, "velocity": 64}, {"time": 1392, "pitch": 52, "duration": 48, "velocity": 64}, {"time": 1440, "pitch": 55, "duration": 24, "velocity": 64}, {"time": 1464, "pitch": 55, "duration": 12, "velocity": 64}, {"time": 1476, "pitch": 64, "duration": 12, "velocity": 64}, {"time": 1488, "pitch": 64, "duration": 36, "velocity": 64}, {"time": 1524, "pitch": 64, "duration": 12, "velocity": 64}, {"time": 1536, "pitch": 64, "duration": 12, "velocity": 64}, {"time": 1548, "pitch": 62, "duration": 12, "velocity": 64}, {"time": 1560, "pitch": 62, "duration": 36, "velocity": 64}, {"time": 1596, "pitch": 62, "duration": 12, "velocity": 64}, {"time": 1608, "pitch": 62, "duration": 12, "velocity": 64}, {"time": 1620, "pitch": 64, "duration": 12, "velocity": 64}, {"time": 1632, "pitch": 65, "duration": 24, "velocity": 64}, {"time": 1656, "pitch": 59, "duration": 24, "velocity": 64}, {"time": 1680, "pitch": 60, "duration": 48, "velocity": 64}, {"time": 1740, "pitch": 55, "duration": 12, "velocity": 64}, {"time": 1752, "pitch": 55, "duration": 12, "velocity": 64}, {"time": 1764, "pitch": 64, "duration": 12, "velocity": 64}, {"time": 1776, "pitch": 60, "duration": 24, "velocity": 64}, {"time": 1800, "pitch": 55, "duration": 18, "velocity": 64}, {"time": 1818, "pitch": 55, "duration": 6, "velocity": 64}, {"time": 1824, "pitch": 60, "duration": 18, "velocity": 64}, {"time": 1842, "pitch": 60, "duration": 6, "velocity": 64}, {"time": 1848, "pitch": 60, "duration": 24, "velocity": 64}, {"time": 1872, "pitch": 60, "duration": 18, "velocity": 64}, {"time": 1890, "pitch": 59, "duration": 6, "velocity": 64}, {"time": 1896, "pitch": 57, "duration": 18, "velocity": 64}, {"time": 1914, "pitch": 57, "duration": 6, "velocity": 64}, {"time": 1920, "pitch": 57, "duration": 24, "velocity": 64}, {"time": 1944, "pitch": 55, "duration": 18, "velocity": 64}, {"time": 1962, "pitch": 55, "duration": 6, "velocity": 64}, {"time": 1968, "pitch": 53, "duration": 18, "velocity": 64}, {"time": 1986, "pitch": 52, "duration": 6, "velocity": 64}, {"time": 1992, "pitch": 53, "duration": 18, "velocity": 64}, {"time": 2010, "pitch": 52, "duration": 6, "velocity": 64}, {"time": 2016, "pitch": 53, "duration": 18, "velocity": 64}, {"time": 2034, "pitch": 57, "duration": 6, "velocity": 64}, {"time": 2040, "pitch": 55, "duration": 48, "velocity": 64}, {"time": 2088, "pitch": 55, "duration": 18, "velocity": 64}, {"time": 2106, "pitch": 55, "duration": 6, "velocity": 64}, {"time": 2112, "pitch": 64, "duration": 18, "velocity": 64}, {"time": 2130, "pitch": 64, "duration": 6, "velocity": 64}, {"time": 2136, "pitch": 64, "duration": 24, "velocity": 64}, {"time": 2160, "pitch": 62, "duration": 18, "velocity": 64}, {"time": 2178, "pitch": 62, "duration": 6, "velocity": 64}, {"time": 2184, "pitch": 60, "duration": 18, "velocity": 64}, {"time": 2202, "pitch": 60, "duration": 6, "velocity": 64}, {"time": 2208, "pitch": 60, "duration": 24, "velocity": 64}, {"time": 2232, "pitch": 64, "duration": 12, "velocity": 64}, {"time": 2244, "pitch": 64, "duration": 12, "velocity": 64}, {"time": 2256, "pitch": 62, "duration": 18, "velocity": 64}, {"time": 2274, "pitch": 60, "duration": 6, "velocity": 64}, {"time": 2280, "pitch": 62, "duration": 18, "velocity": 64}, {"time": 2298, "pitch": 60, "duration": 6, "velocity": 64}, {"time": 2304, "pitch": 62, "duration": 18, "velocity": 64}, {"time": 2322, "pitch": 64, "duration": 6, "velocity": 64}, {"time": 2328, "pitch": 60, "duration": 48, "velocity": 64}, {"time": 2376, "pitch": 55, "duration": 18, "velocity": 64}, {"time": 2394, "pitch": 55, "duration": 6, "velocity": 64}, {"time": 2400, "pitch": 60, "duration": 18, "velocity": 64}, {"time": 2418, "pitch": 60, "duration": 6, "velocity": 64}, {"time": 2424, "pitch": 60, "duration": 24, "velocity": 64}, {"time": 2448, "pitch": 60, "duration": 18, "velocity": 64}, {"time": 2466, "pitch": 59, "duration": 6, "velocity": 64}, {"time": 2472, "pitch": 57, "duration": 18, "velocity": 64}, {"time": 2490, "pitch": 57, "duration": 6, "velocity": 64}, {"time": 2496, "pitch": 57, "duration": 24, "velocity": 64}, {"time": 2520, "pitch": 55, "duration": 18, "velocity": 64}, {"time": 2538, "pitch": 55, "duration": 6, "velocity": 64}, {"time": 2544, "pitch": 53, "duration": 18, "velocity": 64}, {"time": 2562, "pitch": 52, "duration": 6, "velocity": 64}, {"time": 2568, "pitch": 53, "duration": 18, "velocity": 64}, {"time": 2586, "pitch": 52, "duration": 6, "velocity": 64}, {"time": 2592, "pitch": 53, "duration": 18, "velocity": 64}, {"time": 2610, "pitch": 57, "duration": 6, "velocity": 64}, {"time": 2616, "pitch": 55, "duration": 48, "velocity": 64}, {"time": 2664, "pitch": 55, "duration": 18, "velocity": 64}, {"time": 2682, "pitch": 55, "duration": 6, "velocity": 64}, {"time": 2688, "pitch": 64, "duration": 18, "velocity": 64}, {"time": 2706, "pitch": 64, "duration": 6, "velocity": 64}, {"time": 2712, "pitch": 64, "duration": 24, "velocity": 64}, {"time": 2736, "pitch": 62, "duration": 18, "velocity": 64}, {"time": 2754, "pitch": 62, "duration": 6, "velocity": 64}, {"time": 2760, "pitch": 60, "duration": 18, "velocity": 64}, {"time": 2778, "pitch": 60, "duration": 6, "velocity": 64}, {"time": 2784, "pitch": 60, "duration": 24, "velocity": 64}, {"time": 2808, "pitch": 64, "duration": 12, "velocity": 64}, {"time": 2820, "pitch": 64, "duration": 12, "velocity": 64}, {"time": 2832, "pitch": 62, "duration": 18, "velocity": 64}, {"time": 2850, "pitch": 60, "duration": 6, "velocity": 64}, {"time": 2856, "pitch": 62, "duration": 18, "velocity": 64}, {"time": 2874, "pitch": 60, "duration": 6, "velocity": 64}, {"time": 2880, "pitch": 62, "duration": 18, "velocity": 64}, {"time": 2898, "pitch": 64, "duration": 6, "velocity": 64}, {"time": 2904, "pitch": 60, "duration": 48, "velocity": 64}]}]}