{"metadata": {"schema_version": "0.1", "title": "WEM GOTT WILL RECHTE GUNST ERWEISEN", "source_format": "abc"}, "resolution": 24, "tempos": [{"time": 0, "qpm": 120.0}], "key_signatures": [{"time": 0, "root": 2, "mode": "major", "fifths": 2}], "time_signatures": [{"time": 0, "numerator": 4, "denominator": 4}], "beats": [{"time": 0, "is_downbeat": true}, {"time": 24, "is_downbeat": true}, {"time": 48, "is_downbeat": false}, {"time": 72, "is_downbeat": false}, {"time": 96, "is_downbeat": false}, {"time": 120, "is_downbeat": true}, {"time": 144, "is_downbeat": false}, {"time": 168, "is_downbeat": false}, {"time": 192, "is_downbeat": false}, {"time": 216, "is_downbeat": true}, {"time": 240, "is_downbeat": false}, {"time": 264, "is_downbeat": false}, {"time": 288, "is_downbeat": false}, {"time": 312, "is_downbeat": true}, {"time": 336, "is_downbeat": false}, {"time": 360, "is_downbeat": false}, {"time": 384, "is_downbeat": false}, {"time": 408, "is_downbeat": true}, {"time": 432, "is_downbeat": false}, {"time": 456, "is_downbeat": false}, {"time": 480, "is_downbeat": false}, {"time": 504, "is_downbeat": true}, {"time": 528, "is_downbeat": false}, {"time": 552, "is_downbeat": false}, {"time": 576, "is_downbeat": false}, {"time": 600, "is_downbeat": true}, {"time": 624, "is_downbeat": false}, {"time": 648, "is_downbeat": false}, {"time": 672, "is_downbeat": false}, {"time": 696, "is_downbeat": true}, {"time": 720, "is_downbeat": false}, {"time": 744, "is_downbeat": false}, {"time": 768, "is_downbeat": false}], "tracks": [{"program": 0, "is_drum": false, "notes": [{"time": 0, "pitch": 50, "duration": 24, "velocity": 64}, {"time": 24, "pitch": 54, "duration": 24, "velocity": 64}, {"time": 48, "pitch": 57, "duration": 24, "velocity": 64}, {"time": 72, "pitch": 62, "duration": 18, "velocity": 64}, {"time": 90, "pitch": 61, "duration": 6, "velocity": 64}, {"time": 96, "pitch": 62, "duration": 12, "velocity": 64}, {"time": 108, "pitch": 59, "duration": 12, "velocity": 64}, {"time": 120, "pitch": 57, "duration": 48, "velocity": 64}, {"time": 168, "pitch": 54, "duration": 24, "velocity": 64}, {"time": 192, "pitch": 57, "duration": 24, "velocity": 64}, {"time": 216, "pitch": 55, "duration": 18, "velocity": 64}, {"time": 234, "pitch": 54, "duration": 6, "velocity": 64}, {"time": 240, "pitch": 55, "duration": 12, "velocity": 64}, {"time": 252, "pitch": 52, "duration": 12, "velocity": 64}, {"time": 264, "pitch": 54, "duration": 24, "velocity": 64}, {"time": 288, "pitch": 50, "duration": 24, "velocity": 64}, {"time": 312, "pitch": 52, "duration": 48, "velocity": 64}, {"time": 384, "pitch": 52, "duration": 12, "velocity": 64}, {"time": 396, "pitch": 54, "duration": 12, "velocity": 64}, {"time": 408, "pitch": 55, "duration": 36, "velocity": 64}, {"time": 444, "pitch": 55, "duration": 12, "velocity": 64}, {"time": 456, "pitch": 54, "duration": 18, "velocity": 64}, {"time": 474, "pitch": 54, "duration": 6, "velocity": 64}, {"time": 480, "pitch": 55, "duration": 12, "velocity": 64}, {"time": 492, "pitch": 57, "duration": 12, "velocity": 64}, {"time": 504, "pitch": 59, "duration": 48, "velocity": 64}, {"time": 552, "pitch": 57, "duration": 24, "velocity": 64}, {"time": 576, "pitch": 57, "duration": 24, "velocity": 64}, {"time": 600, "pitch": 62, "duration": 18, "velocity": 64}, {"time": 618, "pitch": 60, "duration": 6, "velocity": 64}, {"time": 624, "pitch": 62, "duration": 12, "velocity": 64}, {"time": 636, "pitch": 64, "duration": 12, "velocity": 64}, {"time": 648, "pitch": 66, "duration": 24, "velocity": 64}, {"time": 672, "pitch": 64, "duration": 24, "velocity": 64}, {"time": 696, "pitch": 62, "duration": 48, "velocity": 64}]}]}