{"metadata": {"schema_version": "0.1", "title": "WO MUTH UND KRAFT IN DEUTSCHER SEELE FLAMMEN", "source_format": "abc"}, "resolution": 24, "tempos": [{"time": 0, "qpm": 120.0}], "key_signatures": [{"time": 0, "root": 0, "mode": "major", "fifths": 0}], "time_signatures": [{"time": 0, "numerator": 4, "denominator": 4}], "beats": [{"time": 0, "is_downbeat": true}, {"time": 24, "is_downbeat": false}, {"time": 36, "is_downbeat": true}, {"time": 60, "is_downbeat": false}, {"time": 84, "is_downbeat": false}, {"time": 108, "is_downbeat": false}, {"time": 132, "is_downbeat": true}, {"time": 156, "is_downbeat": false}, {"time": 180, "is_downbeat": false}, {"time": 204, "is_downbeat": false}, {"time": 228, "is_downbeat": true}, {"time": 252, "is_downbeat": false}, {"time": 276, "is_downbeat": false}, {"time": 300, "is_downbeat": false}, {"time": 324, "is_downbeat": true}, {"time": 348, "is_downbeat": false}, {"time": 372, "is_downbeat": false}, {"time": 396, "is_downbeat": false}, {"time": 420, "is_downbeat": true}, {"time": 444, "is_downbeat": false}, {"time": 468, "is_downbeat": false}, {"time": 492, "is_downbeat": false}, {"time": 516, "is_downbeat": true}, {"time": 540, "is_downbeat": false}, {"time": 564, "is_downbeat": false}, {"time": 588, "is_downbeat": false}, {"time": 612, "is_downbeat": true}, {"time": 636, "is_downbeat": false}, {"time": 660, "is_downbeat": false}, {"time": 684, "is_downbeat": false}, {"time": 708, "is_downbeat": true}, {"time": 732, "is_downbeat": false}, {"time": 756, "is_downbeat": false}, {"time": 780, "is_downbeat": false}, {"time": 804, "is_downbeat": true}, {"time": 828, "is_downbeat": false}, {"time": 852, "is_downbeat": false}, {"time": 876, "is_downbeat": false}, {"time": 900, "is_downbeat": true}, {"time": 924, "is_downbeat": false}, {"time": 948, "is_downbeat": false}, {"time": 972, "is_downbeat": false}, {"time": 996, "is_downbeat": true}, {"time": 1020, "is_downbeat": false}, {"time": 1044, "is_downbeat": false}, {"time": 1068, "is_downbeat": false}, {"time": 1092, "is_downbeat": true}, {"time": 1116, "is_downbeat": false}, {"time": 1140, "is_downbeat": false}, {"time": 1164, "is_downbeat": false}, {"time": 1188, "is_downbeat": true}, {"time": 1212, "is_downbeat": false}, {"time": 1236, "is_downbeat": false}, {"time": 1260, "is_downbeat": false}, {"time": 1284, "is_downbeat": true}, {"time": 1308, "is_downbeat": false}, {"time": 1332, "is_downbeat": false}, {"time": 1356, "is_downbeat": false}, {"time": 1380, "is_downbeat": true}, {"time": 1404, "is_downbeat": false}, {"time": 1428, "is_downbeat": false}, {"time": 1452, "is_downbeat": false}, {"time": 1476, "is_downbeat": true}, {"time": 1500, "is_downbeat": false}, {"time": 1524, "is_downbeat": false}, {"time": 1548, "is_downbeat": false}], "tracks": [{"program": 0, "is_drum": false, "notes": [{"time": 0, "pitch": 55, "duration": 12, "velocity": 64}, {"time": 12, "pitch": 64, "duration": 18, "velocity": 64}, {"time": 30, "pitch": 60, "duration": 6, "velocity": 64}, {"time": 36, "pitch": 55, "duration": 36, "velocity": 64}, {"time": 72, "pitch": 55, "duration": 12, "velocity": 64}, {"time": 84, "pitch": 55, "duration": 18, "velocity": 64}, {"time": 102, "pitch": 55, "duration": 6, "velocity": 64}, {"time": 108, "pitch": 57, "duration": 18, "velocity": 64}, {"time": 126, "pitch": 55, "duration": 6, "velocity": 64}, {"time": 132, "pitch": 55, "duration": 18, "velocity": 64}, {"time": 150, "pitch": 53, "duration": 6, "velocity": 64}, {"time": 156, "pitch": 53, "duration": 24, "velocity": 64}, {"time": 198, "pitch": 53, "duration": 6, "velocity": 64}, {"time": 204, "pitch": 55, "duration": 18, "velocity": 64}, {"time": 222, "pitch": 53, "duration": 6, "velocity": 64}, {"time": 228, "pitch": 52, "duration": 36, "velocity": 64}, {"time": 264, "pitch": 55, "duration": 12, "velocity": 64}, {"time": 276, "pitch": 57, "duration": 18, "velocity": 64}, {"time": 294, "pitch": 57, "duration": 6, "velocity": 64}, {"time": 300, "pitch": 62, "duration": 18, "velocity": 64}, {"time": 318, "pitch": 60, "duration": 6, "velocity": 64}, {"time": 324, "pitch": 60, "duration": 24, "velocity": 64}, {"time": 348, "pitch": 59, "duration": 24, "velocity": 64}, {"time": 390, "pitch": 55, "duration": 6, "velocity": 64}, {"time": 396, "pitch": 64, "duration": 18, "velocity": 64}, {"time": 414, "pitch": 60, "duration": 6, "velocity": 64}, {"time": 420, "pitch": 55, "duration": 36, "velocity": 64}, {"time": 456, "pitch": 55, "duration": 12, "velocity": 64}, {"time": 468, "pitch": 55, "duration": 18, "velocity": 64}, {"time": 486, "pitch": 55, "duration": 6, "velocity": 64}, {"time": 492, "pitch": 57, "duration": 18, "velocity": 64}, {"time": 510, "pitch": 55, "duration": 6, "velocity": 64}, {"time": 516, "pitch": 54, "duration": 18, "velocity": 64}, {"time": 534, "pitch": 57, "duration": 6, "velocity": 64}, {"time": 540, "pitch": 62, "duration": 24, "velocity": 64}, {"time": 582, "pitch": 62, "duration": 6, "velocity": 64}, {"time": 588, "pitch": 62, "duration": 18, "velocity": 64}, {"time": 606, "pitch": 60, "duration": 6, "velocity": 64}, {"time": 612, "pitch": 59, "duration": 24, "velocity": 64}, {"time": 636, "pitch": 60, "duration": 18, "velocity": 64}, {"time": 654, "pitch": 57, "duration": 6, "velocity": 64}, {"time": 660, "pitch": 55, "duration": 18, "velocity": 64}, {"time": 678, "pitch": 55, "duration": 6, "velocity": 64}, {"time": 684, "pitch": 59, "duration": 18, "velocity": 64}, {"time": 702, "pitch": 57, "duration": 6, "velocity": 64}, {"time": 708, "pitch": 55, "duration": 48, "velocity": 64}, {"time": 780, "pitch": 55, "duration": 24, "velocity": 64}, {"time": 804, "pitch": 62, "duration": 36, "velocity": 64}, {"time": 840, "pitch": 59, "duration": 12, "velocity": 64}, {"time": 852, "pitch": 60, "duration": 18, "velocity": 64}, {"time": 870, "pitch": 59, "duration": 6, "velocity": 64}, {"time": 876, "pitch": 60, "duration": 12, "velocity": 64}, {"time": 888, "pitch": 64, "duration": 12, "velocity": 64}, {"time": 900, "pitch": 62, "duration": 24, "velocity": 64}, {"time": 924, "pitch": 55, "duration": 24, "velocity": 64}, {"time": 972, "pitch": 55, "duration": 24, "velocity": 64}, {"time": 996, "pitch": 64, "duration": 36, "velocity": 64}, {"time": 1032, "pitch": 62, "duration": 12, "velocity": 64}, {"time": 1044, "pitch": 60, "duration": 36, "velocity": 64}, {"time": 1080, "pitch": 64, "duration": 12, "velocity": 64}, {"time": 1092, "pitch": 62, "duration": 24, "velocity": 64}, {"time": 1116, "pitch": 55, "duration": 24, "velocity": 64}, {"time": 1152, "pitch": 55, "duration": 12, "velocity": 64}, {"time": 1164, "pitch": 57, "duration": 18, "velocity": 64}, {"time": 1182, "pitch": 59, "duration": 6, "velocity": 64}, {"time": 1188, "pitch": 60, "duration": 36, "velocity": 64}, {"time": 1224, "pitch": 62, "duration": 12, "velocity": 64}, {"time": 1236, "pitch": 64, "duration": 18, "velocity": 64}, {"time": 1254, "pitch": 62, "duration": 6, "velocity": 64}, {"time": 1260, "pitch": 60, "duration": 18, "velocity": 64}, {"time": 1278, "pitch": 59, "duration": 6, "velocity": 64}, {"time": 1284, "pitch": 57, "duration": 24, "velocity": 64}, {"time": 1308, "pitch": 65, "duration": 24, "velocity": 64}, {"time": 1344, "pitch": 65, "duration": 12, "velocity": 64}, {"time": 1356, "pitch": 64, "duration": 18, "velocity": 64}, {"time": 1374, "pitch": 62, "duration": 6, "velocity": 64}, {"time": 1380, "pitch": 60, "duration": 36, "velocity": 64}, {"time": 1416, "pitch": 60, "duration": 12, "velocity": 64}, {"time": 1428, "pitch": 62, "duration": 18, "velocity": 64}, {"time": 1446, "pitch": 60, "duration": 6, "velocity": 64}, {"time": 1452, "pitch": 62, "duration": 18, "velocity": 64}, {"time": 1470, "pitch": 64, "duration": 6, "velocity": 64}, {"time": 1476, "pitch": 60, "duration": 48, "velocity": 64}]}]}