{"metadata": {"schema_version": "0.1", "title": "VOLL ZAERTLICHKEIT WILL ICH DER DIRNE SAGEN", "source_format": "abc"}, "resolution": 24, "tempos": [{"time": 0, "qpm": 120.0}], "key_signatures": [{"time": 0, "root": 0, "mode": "major", "fifths": 0}], "time_signatures": [{"time": 0, "numerator": 4, "denominator": 4}], "beats": [{"time": 0, "is_downbeat": true}, {"time": 12, "is_downbeat": true}, {"time": 36, "is_downbeat": false}, {"time": 60, "is_downbeat": false}, {"time": 84, "is_downbeat": false}, {"time": 108, "is_downbeat": true}, {"time": 132, "is_downbeat": false}, {"time": 156, "is_downbeat": false}, {"time": 180, "is_downbeat": false}, {"time": 204, "is_downbeat": true}, {"time": 228, "is_downbeat": false}, {"time": 252, "is_downbeat": false}, {"time": 276, "is_downbeat": false}, {"time": 300, "is_downbeat": true}, {"time": 324, "is_downbeat": false}, {"time": 348, "is_downbeat": false}, {"time": 372, "is_downbeat": false}, {"time": 396, "is_downbeat": true}, {"time": 420, "is_downbeat": false}, {"time": 444, "is_downbeat": false}, {"time": 468, "is_downbeat": false}, {"time": 492, "is_downbeat": true}, {"time": 516, "is_downbeat": false}, {"time": 540, "is_downbeat": false}, {"time": 564, "is_downbeat": false}, {"time": 588, "is_downbeat": true}, {"time": 612, "is_downbeat": false}, {"time": 636, "is_downbeat": false}, {"time": 660, "is_downbeat": false}, {"time": 684, "is_downbeat": true}, {"time": 708, "is_downbeat": false}, {"time": 732, "is_downbeat": false}, {"time": 756, "is_downbeat": false}, {"time": 780, "is_downbeat": true}, {"time": 804, "is_downbeat": false}, {"time": 828, "is_downbeat": false}, {"time": 852, "is_downbeat": false}, {"time": 876, "is_downbeat": true}, {"time": 900, "is_downbeat": false}, {"time": 924, "is_downbeat": false}, {"time": 948, "is_downbeat": false}, {"time": 972, "is_downbeat": true}, {"time": 996, "is_downbeat": false}, {"time": 1020, "is_downbeat": false}, {"time": 1044, "is_downbeat": false}, {"time": 1068, "is_downbeat": true}, {"time": 1092, "is_downbeat": false}, {"time": 1116, "is_downbeat": false}, {"time": 1140, "is_downbeat": false}, {"time": 1164, "is_downbeat": true}, {"time": 1188, "is_downbeat": false}, {"time": 1212, "is_downbeat": false}, {"time": 1236, "is_downbeat": false}, {"time": 1260, "is_downbeat": true}, {"time": 1284, "is_downbeat": false}, {"time": 1308, "is_downbeat": false}, {"time": 1332, "is_downbeat": false}, {"time": 1356, "is_downbeat": true}, {"time": 1380, "is_downbeat": false}, {"time": 1404, "is_downbeat": false}, {"time": 1428, "is_downbeat": false}, {"time": 1452, "is_downbeat": true}, {"time": 1476, "is_downbeat": false}, {"time": 1500, "is_downbeat": false}, {"time": 1524, "is_downbeat": false}], "tracks": [{"program": 0, "is_drum": false, "notes": [{"time": 0, "pitch": 55, "duration": 12, "velocity": 64}, {"time": 12, "pitch": 60, "duration": 18, "velocity": 64}, {"time": 30, "pitch": 62, "duration": 6, "velocity": 64}, {"time": 36, "pitch": 64, "duration": 12, "velocity": 64}, {"time": 48, "pitch": 62, "duration": 12, "velocity": 64}, {"time": 60, "pitch": 60, "duration": 12, "velocity": 64}, {"time": 72, "pitch": 59, "duration": 12, "velocity": 64}, {"time": 84, "pitch": 60, "duration": 12, "velocity": 64}, {"time": 96, "pitch": 57, "duration": 12, "velocity": 64}, {"time": 108, "pitch": 55, "duration": 24, "velocity": 64}, {"time": 132, "pitch": 53, "duration": 24, "velocity": 64}, {"time": 156, "pitch": 52, "duration": 36, "velocity": 64}, {"time": 192, "pitch": 55, "duration": 12, "velocity": 64}, {"time": 204, "pitch": 57, "duration": 12, "velocity": 64}, {"time": 216, "pitch": 65, "duration": 12, "velocity": 64}, {"time": 228, "pitch": 64, "duration": 12, "velocity": 64}, {"time": 240, "pitch": 62, "duration": 12, "velocity": 64}, {"time": 252, "pitch": 64, "duration": 24, "velocity": 64}, {"time": 276, "pitch": 62, "duration": 24, "velocity": 64}, {"time": 300, "pitch": 60, "duration": 72, "velocity": 64}, {"time": 384, "pitch": 55, "duration": 12, "velocity": 64}, {"time": 396, "pitch": 60, "duration": 18, "velocity": 64}, {"time": 414, "pitch": 62, "duration": 6, "velocity": 64}, {"time": 420, "pitch": 64, "duration": 12, "velocity": 64}, {"time": 432, "pitch": 62, "duration": 12, "velocity": 64}, {"time": 444, "pitch": 60, "duration": 12, "velocity": 64}, {"time": 456, "pitch": 59, "duration": 12, "velocity": 64}, {"time": 468, "pitch": 60, "duration": 12, "velocity": 64}, {"time": 480, "pitch": 57, "duration": 12, "velocity": 64}, {"time": 492, "pitch": 55, "duration": 24, "velocity": 64}, {"time": 516, "pitch": 53, "duration": 24, "velocity": 64}, {"time": 540, "pitch": 52, "duration": 36, "velocity": 64}, {"time": 576, "pitch": 55, "duration": 12, "velocity": 64}, {"time": 588, "pitch": 57, "duration": 12, "velocity": 64}, {"time": 600, "pitch": 65, "duration": 12, "velocity": 64}, {"time": 612, "pitch": 64, "duration": 12, "velocity": 64}, {"time": 624, "pitch": 62, "duration": 12, "velocity": 64}, {"time": 636, "pitch": 64, "duration": 24, "velocity": 64}, {"time": 660, "pitch": 62, "duration": 24, "velocity": 64}, {"time": 684, "pitch": 60, "duration": 72, "velocity": 64}, {"time": 768, "pitch": 60, "duration": 12, "velocity": 64}, {"time": 780, "pitch": 59, "duration": 12, "velocity": 64}, {"time": 792, "pitch": 60, "duration": 12, "velocity": 64}, {"time": 804, "pitch": 62, "duration": 36, "velocity": 64}, {"time": 840, "pitch": 55, "duration": 12, "velocity": 64}, {"time": 852, "pitch": 57, "duration": 12, "velocity": 64}, {"time": 864, "pitch": 59, "duration": 12, "velocity": 64}, {"time": 876, "pitch": 60, "duration": 12, "velocity": 64}, {"time": 888, "pitch": 62, "duration": 12, "velocity": 64}, {"time": 900, "pitch": 64, "duration": 12, "velocity": 64}, {"time": 912, "pitch": 62, "duration": 12, "velocity": 64}, {"time": 924, "pitch": 60, "duration": 24, "velocity": 64}, {"time": 960, "pitch": 60, "duration": 12, "velocity": 64}, {"time": 972, "pitch": 59, "duration": 12, "velocity": 64}, {"time": 984, "pitch": 60, "duration": 12, "velocity": 64}, {"time": 996, "pitch": 62, "duration": 36, "velocity": 64}, {"time": 1032, "pitch": 55, "duration": 12, "velocity": 64}, {"time": 1044, "pitch": 57, "duration": 12, "velocity": 64}, {"time": 1056, "pitch": 59, "duration": 12, "velocity": 64}, {"time": 1068, "pitch": 60, "duration": 12, "velocity": 64}, {"time": 1080, "pitch": 62, "duration": 12, "velocity": 64}, {"time": 1092, "pitch": 64, "duration": 12, "velocity": 64}, {"time": 1104, "pitch": 62, "duration": 12, "velocity": 64}, {"time": 1116, "pitch": 60, "duration": 24, "velocity": 64}, {"time": 1152, "pitch": 55, "duration": 12, "velocity": 64}, {"time": 1164, "pitch": 60, "duration": 18, "velocity": 64}, {"time": 1182, "pitch": 62, "duration": 6, "velocity": 64}, {"time": 1188, "pitch": 64, "duration": 12, "velocity": 64}, {"time": 1200, "pitch": 62, "duration": 12, "velocity": 64}, {"time": 1212, "pitch": 60, "duration": 12, "velocity": 64}, {"time": 1224, "pitch": 59, "duration": 12, "velocity": 64}, {"time": 1236, "pitch": 60, "duration": 12, "velocity": 64}, {"time": 1248, "pitch": 57, "duration": 12, "velocity": 64}, {"time": 1260, "pitch": 55, "duration": 24, "velocity": 64}, {"time": 1284, "pitch": 53, "duration": 24, "velocity": 64}, {"time": 1308, "pitch": 52, "duration": 36, "velocity": 64}, {"time": 1344, "pitch": 55, "duration": 12, "velocity": 64}, {"time": 1356, "pitch": 57, "duration": 12, "velocity": 64}, {"time": 1368, "pitch": 65, "duration": 12, "velocity": 64}, {"time": 1380, "pitch": 64, "duration": 12, "velocity": 64}, {"time": 1392, "pitch": 62, "duration": 12, "velocity": 64}, {"time": 1404, "pitch": 64, "duration": 24, "velocity": 64}, {"time": 1428, "pitch": 62, "duration": 24, "velocity": 64}, {"time": 1452, "pitch": 60, "duration": 72, "velocity": 64}]}]}