{"metadata": {"schema_version": "0.1", "title": "DAS SCHOENSTE LEBEN", "source_format": "abc"}, "resolution": 24, "tempos": [{"time": 0, "qpm": 120.0}], "key_signatures": [{"time": 0, "root": 5, "mode": "major", "fifths": -1}], "time_signatures": [{"time": 0, "numerator": 4, "denominator": 4}, {"time": 948, "numerator": 1, "denominator": 4}, {"time": 1140, "numerator": 1, "denominator": 4}, {"time": 1332, "numerator": 1, "denominator": 4}, {"time": 1524, "numerator": 1, "denominator": 4}, {"time": 1548, "numerator": 3, "denominator": 4}, {"time": 1620, "numerator": 1, "denominator": 8}], "beats": [{"time": 0, "is_downbeat": true}, {"time": 12, "is_downbeat": true}, {"time": 36, "is_downbeat": true}, {"time": 60, "is_downbeat": true}, {"time": 84, "is_downbeat": true}, {"time": 108, "is_downbeat": true}, {"time": 132, "is_downbeat": true}, {"time": 156, "is_downbeat": true}, {"time": 180, "is_downbeat": true}, {"time": 204, "is_downbeat": true}, {"time": 228, "is_downbeat": true}, {"time": 252, "is_downbeat": true}, {"time": 276, "is_downbeat": true}, {"time": 300, "is_downbeat": true}, {"time": 324, "is_downbeat": true}, {"time": 348, "is_downbeat": true}, {"time": 372, "is_downbeat": true}, {"time": 396, "is_downbeat": true}, {"time": 420, "is_downbeat": true}, {"time": 444, "is_downbeat": true}, {"time": 468, "is_downbeat": true}, {"time": 492, "is_downbeat": true}, {"time": 516, "is_downbeat": true}, {"time": 540, "is_downbeat": true}, {"time": 564, "is_downbeat": true}, {"time": 588, "is_downbeat": true}, {"time": 612, "is_downbeat": true}, {"time": 636, "is_downbeat": true}, {"time": 660, "is_downbeat": true}, {"time": 684, "is_downbeat": true}, {"time": 708, "is_downbeat": true}, {"time": 732, "is_downbeat": true}, {"time": 756, "is_downbeat": true}, {"time": 780, "is_downbeat": true}, {"time": 804, "is_downbeat": true}, {"time": 828, "is_downbeat": true}, {"time": 852, "is_downbeat": true}, {"time": 876, "is_downbeat": true}, {"time": 900, "is_downbeat": true}, {"time": 924, "is_downbeat": true}, {"time": 948, "is_downbeat": true}, {"time": 972, "is_downbeat": true}, {"time": 996, "is_downbeat": true}, {"time": 1020, "is_downbeat": true}, {"time": 1044, "is_downbeat": true}, {"time": 1068, "is_downbeat": true}, {"time": 1092, "is_downbeat": true}, {"time": 1116, "is_downbeat": true}, {"time": 1140, "is_downbeat": true}, {"time": 1164, "is_downbeat": true}, {"time": 1188, "is_downbeat": true}, {"time": 1212, "is_downbeat": true}, {"time": 1236, "is_downbeat": true}, {"time": 1260, "is_downbeat": true}, {"time": 1284, "is_downbeat": true}, {"time": 1308, "is_downbeat": true}, {"time": 1332, "is_downbeat": true}, {"time": 1356, "is_downbeat": true}, {"time": 1380, "is_downbeat": true}, {"time": 1404, "is_downbeat": true}, {"time": 1428, "is_downbeat": true}, {"time": 1452, "is_downbeat": true}, {"time": 1476, "is_downbeat": true}, {"time": 1500, "is_downbeat": true}, {"time": 1524, "is_downbeat": true}, {"time": 1548, "is_downbeat": true}, {"time": 1560, "is_downbeat": true}, {"time": 1572, "is_downbeat": true}, {"time": 1584, "is_downbeat": true}, {"time": 1596, "is_downbeat": true}, {"time": 1608, "is_downbeat": true}, {"time": 1620, "is_downbeat": true}], "tracks": [{"program": 0, "is_drum": false, "notes": [{"time": 0, "pitch": 60, "duration": 12, "velocity": 64}, {"time": 12, "pitch": 65, "duration": 18, "velocity": 64}, {"time": 30, "pitch": 67, "duration": 6, "velocity": 64}, {"time": 36, "pitch": 69, "duration": 12, "velocity": 64}, {"time": 48, "pitch": 70, "duration": 12, "velocity": 64}, {"time": 60, "pitch": 72, "duration": 12, "velocity": 64}, {"time": 72, "pitch": 74, "duration": 12, "velocity": 64}, {"time": 84, "pitch": 72, "duration": 48, "velocity": 64}, {"time": 132, "pitch": 69, "duration": 24, "velocity": 64}, {"time": 156, "pitch": 72, "duration": 18, "velocity": 64}, {"time": 174, "pitch": 74, "duration": 6, "velocity": 64}, {"time": 180, "pitch": 72, "duration": 12, "velocity": 64}, {"time": 192, "pitch": 70, "duration": 12, "velocity": 64}, {"time": 204, "pitch": 69, "duration": 12, "velocity": 64}, {"time": 216, "pitch": 67, "duration": 12, "velocity": 64}, {"time": 228, "pitch": 65, "duration": 24, "velocity": 64}, {"time": 276, "pitch": 65, "duration": 24, "velocity": 64}, {"time": 300, "pitch": 62, "duration": 18, "velocity": 64}, {"time": 318, "pitch": 64, "duration": 6, "velocity": 64}, {"time": 324, "pitch": 65, "duration": 24, "velocity": 64}, {"time": 348, "pitch": 62, "duration": 24, "velocity": 64}, {"time": 372, "pitch": 64, "duration": 24, "velocity": 64}, {"time": 396, "pitch": 69, "duration": 24, "velocity": 64}, {"time": 432, "pitch": 67, "duration": 12, "velocity": 64}, {"time": 444, "pitch": 65, "duration": 18, "velocity": 64}, {"time": 462, "pitch": 67, "duration": 6, "velocity": 64}, {"time": 468, "pitch": 69, "duration": 24, "velocity": 64}, {"time": 492, "pitch": 65, "duration": 24, "velocity": 64}, {"time": 516, "pitch": 67, "duration": 24, "velocity": 64}, {"time": 540, "pitch": 72, "duration": 24, "velocity": 64}, {"time": 576, "pitch": 70, "duration": 12, "velocity": 64}, {"time": 588, "pitch": 69, "duration": 18, "velocity": 64}, {"time": 606, "pitch": 69, "duration": 6, "velocity": 64}, {"time": 612, "pitch": 69, "duration": 12, "velocity": 64}, {"time": 624, "pitch": 69, "duration": 12, "velocity": 64}, {"time": 636, "pitch": 67, "duration": 18, "velocity": 64}, {"time": 654, "pitch": 69, "duration": 6, "velocity": 64}, {"time": 660, "pitch": 70, "duration": 48, "velocity": 64}, {"time": 708, "pitch": 70, "duration": 24, "velocity": 64}, {"time": 732, "pitch": 71, "duration": 18, "velocity": 64}, {"time": 750, "pitch": 70, "duration": 6, "velocity": 64}, {"time": 756, "pitch": 70, "duration": 12, "velocity": 64}, {"time": 768, "pitch": 70, "duration": 12, "velocity": 64}, {"time": 780, "pitch": 69, "duration": 12, "velocity": 64}, {"time": 792, "pitch": 70, "duration": 12, "velocity": 64}, {"time": 804, "pitch": 72, "duration": 48, "velocity": 64}, {"time": 852, "pitch": 70, "duration": 24, "velocity": 64}, {"time": 876, "pitch": 69, "duration": 36, "velocity": 64}, {"time": 912, "pitch": 72, "duration": 12, "velocity": 64}, {"time": 924, "pitch": 69, "duration": 12, "velocity": 64}, {"time": 936, "pitch": 72, "duration": 12, "velocity": 64}, {"time": 948, "pitch": 77, "duration": 18, "velocity": 64}, {"time": 966, "pitch": 76, "duration": 6, "velocity": 64}, {"time": 972, "pitch": 76, "duration": 24, "velocity": 64}, {"time": 996, "pitch": 74, "duration": 24, "velocity": 64}, {"time": 1044, "pitch": 70, "duration": 24, "velocity": 64}, {"time": 1068, "pitch": 67, "duration": 36, "velocity": 64}, {"time": 1104, "pitch": 70, "duration": 12, "velocity": 64}, {"time": 1116, "pitch": 67, "duration": 12, "velocity": 64}, {"time": 1128, "pitch": 70, "duration": 12, "velocity": 64}, {"time": 1140, "pitch": 76, "duration": 12, "velocity": 64}, {"time": 1152, "pitch": 74, "duration": 12, "velocity": 64}, {"time": 1164, "pitch": 74, "duration": 24, "velocity": 64}, {"time": 1188, "pitch": 72, "duration": 24, "velocity": 64}, {"time": 1236, "pitch": 69, "duration": 24, "velocity": 64}, {"time": 1260, "pitch": 65, "duration": 36, "velocity": 64}, {"time": 1296, "pitch": 69, "duration": 12, "velocity": 64}, {"time": 1308, "pitch": 65, "duration": 12, "velocity": 64}, {"time": 1320, "pitch": 69, "duration": 12, "velocity": 64}, {"time": 1332, "pitch": 74, "duration": 18, "velocity": 64}, {"time": 1350, "pitch": 72, "duration": 6, "velocity": 64}, {"time": 1356, "pitch": 72, "duration": 24, "velocity": 64}, {"time": 1380, "pitch": 70, "duration": 24, "velocity": 64}, {"time": 1428, "pitch": 66, "duration": 24, "velocity": 64}, {"time": 1452, "pitch": 69, "duration": 24, "velocity": 64}, {"time": 1476, "pitch": 67, "duration": 24, "velocity": 64}, {"time": 1524, "pitch": 64, "duration": 24, "velocity": 64}, {"time": 1548, "pitch": 67, "duration": 24, "velocity": 64}, {"time": 1572, "pitch": 65, "duration": 24, "velocity": 64}]}]}