{"metadata": {"schema_version": "0.1", "title": "SONST SPIELT ICH MIT SCEPTER", "source_format": "abc"}, "resolution": 24, "tempos": [{"time": 0, "qpm": 120.0}], "key_signatures": [{"time": 0, "root": 3, "mode": "major", "fifths": -3}], "time_signatures": [{"time": 0, "numerator": 3, "denominator": 4}], "beats": [{"time": 0, "is_downbeat": true}, {"time": 12, "is_downbeat": true}, {"time": 36, "is_downbeat": false}, {"time": 60, "is_downbeat": false}, {"time": 84, "is_downbeat": true}, {"time": 108, "is_downbeat": false}, {"time": 132, "is_downbeat": false}, {"time": 156, "is_downbeat": true}, {"time": 180, "is_downbeat": false}, {"time": 204, "is_downbeat": false}, {"time": 228, "is_downbeat": true}, {"time": 252, "is_downbeat": false}, {"time": 276, "is_downbeat": false}, {"time": 300, "is_downbeat": true}, {"time": 324, "is_downbeat": false}, {"time": 348, "is_downbeat": false}, {"time": 372, "is_downbeat": true}, {"time": 396, "is_downbeat": false}, {"time": 420, "is_downbeat": false}, {"time": 444, "is_downbeat": true}, {"time": 468, "is_downbeat": false}, {"time": 492, "is_downbeat": false}, {"time": 516, "is_downbeat": true}, {"time": 540, "is_downbeat": false}, {"time": 564, "is_downbeat": false}, {"time": 588, "is_downbeat": true}, {"time": 612, "is_downbeat": false}, {"time": 636, "is_downbeat": false}, {"time": 660, "is_downbeat": true}, {"time": 684, "is_downbeat": false}, {"time": 708, "is_downbeat": false}, {"time": 732, "is_downbeat": true}, {"time": 756, "is_downbeat": false}, {"time": 780, "is_downbeat": false}, {"time": 804, "is_downbeat": true}, {"time": 828, "is_downbeat": false}, {"time": 852, "is_downbeat": false}, {"time": 876, "is_downbeat": true}, {"time": 900, "is_downbeat": false}, {"time": 924, "is_downbeat": false}, {"time": 948, "is_downbeat": true}, {"time": 972, "is_downbeat": false}, {"time": 996, "is_downbeat": false}, {"time": 1020, "is_downbeat": true}, {"time": 1044, "is_downbeat": false}, {"time": 1068, "is_downbeat": false}, {"time": 1092, "is_downbeat": true}, {"time": 1116, "is_downbeat": false}, {"time": 1140, "is_downbeat": false}, {"time": 1164, "is_downbeat": true}, {"time": 1188, "is_downbeat": false}, {"time": 1212, "is_downbeat": false}, {"time": 1236, "is_downbeat": true}, {"time": 1260, "is_downbeat": false}, {"time": 1284, "is_downbeat": false}, {"time": 1308, "is_downbeat": true}, {"time": 1332, "is_downbeat": false}, {"time": 1356, "is_downbeat": false}, {"time": 1380, "is_downbeat": true}, {"time": 1404, "is_downbeat": false}, {"time": 1428, "is_downbeat": false}, {"time": 1452, "is_downbeat": true}, {"time": 1476, "is_downbeat": false}, {"time": 1500, "is_downbeat": false}, {"time": 1524, "is_downbeat": true}, {"time": 1548, "is_downbeat": false}, {"time": 1572, "is_downbeat": false}, {"time": 1596, "is_downbeat": true}, {"time": 1620, "is_downbeat": false}, {"time": 1644, "is_downbeat": false}, {"time": 1668, "is_downbeat": true}, {"time": 1692, "is_downbeat": false}, {"time": 1716, "is_downbeat": false}, {"time": 1740, "is_downbeat": true}, {"time": 1764, "is_downbeat": false}, {"time": 1788, "is_downbeat": false}, {"time": 1812, "is_downbeat": true}, {"time": 1836, "is_downbeat": false}, {"time": 1860, "is_downbeat": false}, {"time": 1884, "is_downbeat": true}, {"time": 1908, "is_downbeat": false}, {"time": 1932, "is_downbeat": false}, {"time": 1956, "is_downbeat": true}, {"time": 1980, "is_downbeat": false}, {"time": 2004, "is_downbeat": false}], "tracks": [{"program": 0, "is_drum": false, "notes": [{"time": 0, "pitch": 67, "duration": 12, "velocity": 64}, {"time": 12, "pitch": 67, "duration": 24, "velocity": 64}, {"time": 36, "pitch": 63, "duration": 24, "velocity": 64}, {"time": 72, "pitch": 72, "duration": 12, "velocity": 64}, {"time": 84, "pitch": 72, "duration": 24, "velocity": 64}, {"time": 108, "pitch": 70, "duration": 24, "velocity": 64}, {"time": 144, "pitch": 72, "duration": 12, "velocity": 64}, {"time": 156, "pitch": 70, "duration": 24, "velocity": 64}, {"time": 180, "pitch": 67, "duration": 24, "velocity": 64}, {"time": 204, "pitch": 67, "duration": 12, "velocity": 64}, {"time": 216, "pitch": 75, "duration": 12, "velocity": 64}, {"time": 228, "pitch": 75, "duration": 48, "velocity": 64}, {"time": 276, "pitch": 75, "duration": 24, "velocity": 64}, {"time": 300, "pitch": 75, "duration": 12, "velocity": 64}, {"time": 312, "pitch": 74, "duration": 12, "velocity": 64}, {"time": 324, "pitch": 68, "duration": 36, "velocity": 64}, {"time": 360, "pitch": 72, "duration": 12, "velocity": 64}, {"time": 372, "pitch": 72, "duration": 12, "velocity": 64}, {"time": 384, "pitch": 70, "duration": 12, "velocity": 64}, {"time": 396, "pitch": 67, "duration": 36, "velocity": 64}, {"time": 432, "pitch": 70, "duration": 12, "velocity": 64}, {"time": 444, "pitch": 70, "duration": 24, "velocity": 64}, {"time": 468, "pitch": 68, "duration": 12, "velocity": 64}, {"time": 480, "pitch": 67, "duration": 12, "velocity": 64}, {"time": 492, "pitch": 65, "duration": 12, "velocity": 64}, {"time": 504, "pitch": 70, "duration": 12, "velocity": 64}, {"time": 516, "pitch": 63, "duration": 48, "velocity": 64}, {"time": 564, "pitch": 67, "duration": 24, "velocity": 64}, {"time": 588, "pitch": 67, "duration": 24, "velocity": 64}, {"time": 612, "pitch": 63, "duration": 24, "velocity": 64}, {"time": 636, "pitch": 72, "duration": 24, "velocity": 64}, {"time": 660, "pitch": 70, "duration": 12, "velocity": 64}, {"time": 672, "pitch": 72, "duration": 12, "velocity": 64}, {"time": 684, "pitch": 68, "duration": 36, "velocity": 64}, {"time": 720, "pitch": 68, "duration": 12, "velocity": 64}, {"time": 732, "pitch": 67, "duration": 24, "velocity": 64}, {"time": 756, "pitch": 75, "duration": 24, "velocity": 64}, {"time": 780, "pitch": 74, "duration": 12, "velocity": 64}, {"time": 792, "pitch": 72, "duration": 12, "velocity": 64}, {"time": 804, "pitch": 70, "duration": 24, "velocity": 64}, {"time": 828, "pitch": 68, "duration": 36, "velocity": 64}, {"time": 864, "pitch": 68, "duration": 12, "velocity": 64}, {"time": 876, "pitch": 67, "duration": 24, "velocity": 64}, {"time": 900, "pitch": 74, "duration": 24, "velocity": 64}, {"time": 924, "pitch": 69, "duration": 12, "velocity": 64}, {"time": 936, "pitch": 70, "duration": 12, "velocity": 64}, {"time": 948, "pitch": 67, "duration": 24, "velocity": 64}, {"time": 972, "pitch": 62, "duration": 24, "velocity": 64}, {"time": 996, "pitch": 69, "duration": 12, "velocity": 64}, {"time": 1008, "pitch": 70, "duration": 12, "velocity": 64}, {"time": 1020, "pitch": 67, "duration": 12, "velocity": 64}, {"time": 1032, "pitch": 74, "duration": 12, "velocity": 64}, {"time": 1044, "pitch": 75, "duration": 12, "velocity": 64}, {"time": 1056, "pitch": 74, "duration": 12, "velocity": 64}, {"time": 1068, "pitch": 69, "duration": 8, "velocity": 64}, {"time": 1076, "pitch": 72, "duration": 8, "velocity": 64}, {"time": 1084, "pitch": 70, "duration": 8, "velocity": 64}, {"time": 1092, "pitch": 67, "duration": 48, "velocity": 64}, {"time": 1140, "pitch": 70, "duration": 24, "velocity": 64}, {"time": 1164, "pitch": 72, "duration": 24, "velocity": 64}, {"time": 1188, "pitch": 70, "duration": 36, "velocity": 64}, {"time": 1224, "pitch": 70, "duration": 12, "velocity": 64}, {"time": 1236, "pitch": 72, "duration": 24, "velocity": 64}, {"time": 1260, "pitch": 70, "duration": 24, "velocity": 64}, {"time": 1284, "pitch": 70, "duration": 12, "velocity": 64}, {"time": 1296, "pitch": 75, "duration": 12, "velocity": 64}, {"time": 1308, "pitch": 75, "duration": 24, "velocity": 64}, {"time": 1332, "pitch": 74, "duration": 12, "velocity": 64}, {"time": 1344, "pitch": 72, "duration": 12, "velocity": 64}, {"time": 1356, "pitch": 68, "duration": 12, "velocity": 64}, {"time": 1368, "pitch": 72, "duration": 12, "velocity": 64}, {"time": 1380, "pitch": 70, "duration": 48, "velocity": 64}, {"time": 1428, "pitch": 75, "duration": 24, "velocity": 64}, {"time": 1452, "pitch": 77, "duration": 12, "velocity": 64}, {"time": 1464, "pitch": 75, "duration": 12, "velocity": 64}, {"time": 1476, "pitch": 71, "duration": 36, "velocity": 64}, {"time": 1512, "pitch": 72, "duration": 12, "velocity": 64}, {"time": 1524, "pitch": 74, "duration": 12, "velocity": 64}, {"time": 1536, "pitch": 72, "duration": 12, "velocity": 64}, {"time": 1548, "pitch": 69, "duration": 36, "velocity": 64}, {"time": 1584, "pitch": 70, "duration": 12, "velocity": 64}, {"time": 1596, "pitch": 72, "duration": 24, "velocity": 64}, {"time": 1620, "pitch": 70, "duration": 24, "velocity": 64}, {"time": 1644, "pitch": 68, "duration": 24, "velocity": 64}, {"time": 1668, "pitch": 67, "duration": 48, "velocity": 64}, {"time": 1716, "pitch": 70, "duration": 24, "velocity": 64}, {"time": 1740, "pitch": 70, "duration": 24, "velocity": 64}, {"time": 1764, "pitch": 74, "duration": 24, "velocity": 64}, {"time": 1788, "pitch": 75, "duration": 24, "velocity": 64}, {"time": 1812, "pitch": 77, "duration": 12, "velocity": 64}, {"time": 1824, "pitch": 75, "duration": 12, "velocity": 64}, {"time": 1836, "pitch": 74, "duration": 12, "velocity": 64}, {"time": 1848, "pitch": 72, "duration": 12, "velocity": 64}, {"time": 1860, "pitch": 74, "duration": 12, "velocity": 64}, {"time": 1872, "pitch": 72, "duration": 12, "velocity": 64}, {"time": 1884, "pitch": 72, "duration": 24, "velocity": 64}, {"time": 1908, "pitch": 70, "duration": 12, "velocity": 64}, {"time": 1920, "pitch": 68, "duration": 12, "velocity": 64}, {"time": 1932, "pitch": 67, "duration": 12, "velocity": 64}, {"time": 1944, "pitch": 65, "duration": 12, "velocity": 64}, {"time": 1956, "pitch": 63, "duration": 48, "velocity": 64}]}]}