{"metadata": {"schema_version": "0.1", "title": "SWAR EINER DEMS IN HERZEN GING", "source_format": "abc"}, "resolution": 24, "tempos": [{"time": 0, "qpm": 120.0}], "key_signatures": [{"time": 0, "root": 2, "mode": "major", "fifths": 2}], "time_signatures": [{"time": 0, "numerator": 2, "denominator": 4}], "beats": [{"time": 0, "is_downbeat": true}, {"time": 12, "is_downbeat": true}, {"time": 36, "is_downbeat": false}, {"time": 60, "is_downbeat": true}, {"time": 84, "is_downbeat": false}, {"time": 108, "is_downbeat": true}, {"time": 132, "is_downbeat": false}, {"time": 156, "is_downbeat": true}, {"time": 180, "is_downbeat": false}, {"time": 204, "is_downbeat": true}, {"time": 228, "is_downbeat": false}, {"time": 252, "is_downbeat": true}, {"time": 276, "is_downbeat": false}, {"time": 300, "is_downbeat": true}, {"time": 324, "is_downbeat": false}, {"time": 348, "is_downbeat": true}, {"time": 372, "is_downbeat": false}, {"time": 396, "is_downbeat": true}, {"time": 420, "is_downbeat": false}, {"time": 444, "is_downbeat": true}, {"time": 468, "is_downbeat": false}, {"time": 492, "is_downbeat": true}, {"time": 516, "is_downbeat": false}, {"time": 540, "is_downbeat": true}, {"time": 564, "is_downbeat": false}], "tracks": [{"program": 0, "is_drum": false, "notes": [{"time": 0, "pitch": 69, "duration": 12, "velocity": 64}, {"time": 12, "pitch": 74, "duration": 18, "velocity": 64}, {"time": 30, "pitch": 69, "duration": 6, "velocity": 64}, {"time": 36, "pitch": 69, "duration": 12, "velocity": 64}, {"time": 48, "pitch": 69, "duration": 12, "velocity": 64}, {"time": 60, "pitch": 71, "duration": 18, "velocity": 64}, {"time": 78, "pitch": 69, "duration": 6, "velocity": 64}, {"time": 84, "pitch": 69, "duration": 12, "velocity": 64}, {"time": 102, "pitch": 69, "duration": 6, "velocity": 64}, {"time": 108, "pitch": 71, "duration": 18, "velocity": 64}, {"time": 126, "pitch": 69, "duration": 6, "velocity": 64}, {"time": 132, "pitch": 69, "duration": 12, "velocity": 64}, {"time": 150, "pitch": 62, "duration": 6, "velocity": 64}, {"time": 156, "pitch": 62, "duration": 18, "velocity": 64}, {"time": 174, "pitch": 64, "duration": 6, "velocity": 64}, {"time": 180, "pitch": 66, "duration": 18, "velocity": 64}, {"time": 198, "pitch": 67, "duration": 6, "velocity": 64}, {"time": 204, "pitch": 66, "duration": 18, "velocity": 64}, {"time": 222, "pitch": 64, "duration": 6, "velocity": 64}, {"time": 228, "pitch": 64, "duration": 12, "velocity": 64}, {"time": 246, "pitch": 67, "duration": 6, "velocity": 64}, {"time": 252, "pitch": 66, "duration": 18, "velocity": 64}, {"time": 270, "pitch": 64, "duration": 6, "velocity": 64}, {"time": 276, "pitch": 64, "duration": 12, "velocity": 64}, {"time": 294, "pitch": 69, "duration": 6, "velocity": 64}, {"time": 300, "pitch": 71, "duration": 12, "velocity": 64}, {"time": 312, "pitch": 69, "duration": 12, "velocity": 64}, {"time": 324, "pitch": 67, "duration": 12, "velocity": 64}, {"time": 336, "pitch": 66, "duration": 12, "velocity": 64}, {"time": 348, "pitch": 64, "duration": 24, "velocity": 64}, {"time": 372, "pitch": 62, "duration": 12, "velocity": 64}, {"time": 390, "pitch": 62, "duration": 6, "velocity": 64}, {"time": 396, "pitch": 62, "duration": 18, "velocity": 64}, {"time": 414, "pitch": 66, "duration": 6, "velocity": 64}, {"time": 420, "pitch": 66, "duration": 18, "velocity": 64}, {"time": 438, "pitch": 69, "duration": 6, "velocity": 64}, {"time": 444, "pitch": 69, "duration": 18, "velocity": 64}, {"time": 462, "pitch": 74, "duration": 6, "velocity": 64}, {"time": 468, "pitch": 74, "duration": 12, "velocity": 64}, {"time": 486, "pitch": 69, "duration": 6, "velocity": 64}, {"time": 492, "pitch": 71, "duration": 12, "velocity": 64}, {"time": 504, "pitch": 69, "duration": 12, "velocity": 64}, {"time": 516, "pitch": 67, "duration": 12, "velocity": 64}, {"time": 528, "pitch": 66, "duration": 12, "velocity": 64}, {"time": 540, "pitch": 64, "duration": 24, "velocity": 64}, {"time": 564, "pitch": 62, "duration": 12, "velocity": 64}]}]}