{"metadata": {"schema_version": "0.1", "title": "DER RITTER MUSS ZUM BLUTGEN KAMPF", "source_format": "abc"}, "resolution": 24, "tempos": [{"time": 0, "qpm": 120.0}], "key_signatures": [{"time": 0, "root": 10, "mode": "major", "fifths": -2}], "time_signatures": [{"time": 0, "numerator": 4, "denominator": 4}], "beats": [{"time": 0, "is_downbeat": true}, {"time": 24, "is_downbeat": false}, {"time": 36, "is_downbeat": true}, {"time": 60, "is_downbeat": false}, {"time": 84, "is_downbeat": false}, {"time": 108, "is_downbeat": false}, {"time": 132, "is_downbeat": true}, {"time": 156, "is_downbeat": false}, {"time": 180, "is_downbeat": false}, {"time": 204, "is_downbeat": false}, {"time": 228, "is_downbeat": true}, {"time": 252, "is_downbeat": false}, {"time": 276, "is_downbeat": false}, {"time": 300, "is_downbeat": false}, {"time": 324, "is_downbeat": true}, {"time": 348, "is_downbeat": false}, {"time": 372, "is_downbeat": false}, {"time": 396, "is_downbeat": false}, {"time": 420, "is_downbeat": true}, {"time": 444, "is_downbeat": false}, {"time": 468, "is_downbeat": false}, {"time": 492, "is_downbeat": false}, {"time": 516, "is_downbeat": true}, {"time": 540, "is_downbeat": false}, {"time": 564, "is_downbeat": false}, {"time": 588, "is_downbeat": false}, {"time": 612, "is_downbeat": true}, {"time": 636, "is_downbeat": false}, {"time": 660, "is_downbeat": false}, {"time": 684, "is_downbeat": false}, {"time": 708, "is_downbeat": true}, {"time": 732, "is_downbeat": false}, {"time": 756, "is_downbeat": false}, {"time": 780, "is_downbeat": false}, {"time": 804, "is_downbeat": true}, {"time": 828, "is_downbeat": false}, {"time": 852, "is_downbeat": false}, {"time": 876, "is_downbeat": false}, {"time": 900, "is_downbeat": true}, {"time": 924, "is_downbeat": false}, {"time": 948, "is_downbeat": false}, {"time": 972, "is_downbeat": false}, {"time": 996, "is_downbeat": true}, {"time": 1020, "is_downbeat": false}, {"time": 1044, "is_downbeat": false}, {"time": 1068, "is_downbeat": false}, {"time": 1092, "is_downbeat": true}, {"time": 1116, "is_downbeat": false}, {"time": 1140, "is_downbeat": false}, {"time": 1164, "is_downbeat": false}, {"time": 1188, "is_downbeat": true}, {"time": 1212, "is_downbeat": false}, {"time": 1236, "is_downbeat": false}, {"time": 1260, "is_downbeat": false}, {"time": 1284, "is_downbeat": true}, {"time": 1308, "is_downbeat": false}, {"time": 1332, "is_downbeat": false}, {"time": 1356, "is_downbeat": false}, {"time": 1380, "is_downbeat": true}, {"time": 1404, "is_downbeat": false}, {"time": 1428, "is_downbeat": false}, {"time": 1452, "is_downbeat": false}, {"time": 1476, "is_downbeat": true}, {"time": 1500, "is_downbeat": false}, {"time": 1524, "is_downbeat": false}, {"time": 1548, "is_downbeat": false}, {"time": 1572, "is_downbeat": true}, {"time": 1596, "is_downbeat": false}, {"time": 1620, "is_downbeat": false}, {"time": 1644, "is_downbeat": false}, {"time": 1668, "is_downbeat": true}, {"time": 1692, "is_downbeat": false}, {"time": 1716, "is_downbeat": false}, {"time": 1740, "is_downbeat": false}, {"time": 1764, "is_downbeat": true}, {"time": 1788, "is_downbeat": false}, {"time": 1812, "is_downbeat": false}, {"time": 1836, "is_downbeat": false}, {"time": 1860, "is_downbeat": true}, {"time": 1884, "is_downbeat": false}, {"time": 1908, "is_downbeat": false}, {"time": 1932, "is_downbeat": false}, {"time": 1956, "is_downbeat": true}, {"time": 1980, "is_downbeat": false}, {"time": 2004, "is_downbeat": false}, {"time": 2028, "is_downbeat": false}], "tracks": [{"program": 0, "is_drum": false, "notes": [{"time": 0, "pitch": 70, "duration": 12, "velocity": 64}, {"time": 12, "pitch": 72, "duration": 18, "velocity": 64}, {"time": 30, "pitch": 74, "duration": 6, "velocity": 64}, {"time": 36, "pitch": 65, "duration": 36, "velocity": 64}, {"time": 72, "pitch": 67, "duration": 12, "velocity": 64}, {"time": 84, "pitch": 65, "duration": 18, "velocity": 64}, {"time": 102, "pitch": 63, "duration": 6, "velocity": 64}, {"time": 108, "pitch": 60, "duration": 18, "velocity": 64}, {"time": 126, "pitch": 62, "duration": 6, "velocity": 64}, {"time": 132, "pitch": 58, "duration": 48, "velocity": 64}, {"time": 192, "pitch": 65, "duration": 12, "velocity": 64}, {"time": 204, "pitch": 70, "duration": 18, "velocity": 64}, {"time": 222, "pitch": 70, "duration": 6, "velocity": 64}, {"time": 228, "pitch": 74, "duration": 36, "velocity": 64}, {"time": 264, "pitch": 72, "duration": 12, "velocity": 64}, {"time": 276, "pitch": 70, "duration": 18, "velocity": 64}, {"time": 294, "pitch": 72, "duration": 6, "velocity": 64}, {"time": 300, "pitch": 74, "duration": 18, "velocity": 64}, {"time": 318, "pitch": 75, "duration": 6, "velocity": 64}, {"time": 324, "pitch": 72, "duration": 24, "velocity": 64}, {"time": 348, "pitch": 65, "duration": 24, "velocity": 64}, {"time": 384, "pitch": 70, "duration": 12, "velocity": 64}, {"time": 396, "pitch": 72, "duration": 18, "velocity": 64}, {"time": 414, "pitch": 74, "duration": 6, "velocity": 64}, {"time": 420, "pitch": 64, "duration": 36, "velocity": 64}, {"time": 456, "pitch": 67, "duration": 12, "velocity": 64}, {"time": 468, "pitch": 65, "duration": 18, "velocity": 64}, {"time": 486, "pitch": 63, "duration": 6, "velocity": 64}, {"time": 492, "pitch": 62, "duration": 18, "velocity": 64}, {"time": 510, "pitch": 60, "duration": 6, "velocity": 64}, {"time": 516, "pitch": 65, "duration": 18, "velocity": 64}, {"time": 534, "pitch": 67, "duration": 6, "velocity": 64}, {"time": 540, "pitch": 69, "duration": 18, "velocity": 64}, {"time": 558, "pitch": 70, "duration": 6, "velocity": 64}, {"time": 564, "pitch": 72, "duration": 18, "velocity": 64}, {"time": 582, "pitch": 74, "duration": 6, "velocity": 64}, {"time": 588, "pitch": 72, "duration": 18, "velocity": 64}, {"time": 606, "pitch": 70, "duration": 6, "velocity": 64}, {"time": 612, "pitch": 69, "duration": 24, "velocity": 64}, {"time": 636, "pitch": 70, "duration": 12, "velocity": 64}, {"time": 648, "pitch": 67, "duration": 12, "velocity": 64}, {"time": 660, "pitch": 65, "duration": 24, "velocity": 64}, {"time": 684, "pitch": 69, "duration": 12, "velocity": 64}, {"time": 696, "pitch": 67, "duration": 12, "velocity": 64}, {"time": 708, "pitch": 65, "duration": 24, "velocity": 64}, {"time": 768, "pitch": 65, "duration": 12, "velocity": 64}, {"time": 780, "pitch": 72, "duration": 18, "velocity": 64}, {"time": 798, "pitch": 70, "duration": 6, "velocity": 64}, {"time": 804, "pitch": 69, "duration": 36, "velocity": 64}, {"time": 840, "pitch": 67, "duration": 12, "velocity": 64}, {"time": 852, "pitch": 65, "duration": 12, "velocity": 64}, {"time": 864, "pitch": 75, "duration": 12, "velocity": 64}, {"time": 876, "pitch": 74, "duration": 12, "velocity": 64}, {"time": 888, "pitch": 72, "duration": 12, "velocity": 64}, {"time": 900, "pitch": 70, "duration": 48, "velocity": 64}, {"time": 960, "pitch": 67, "duration": 12, "velocity": 64}, {"time": 972, "pitch": 74, "duration": 18, "velocity": 64}, {"time": 990, "pitch": 72, "duration": 6, "velocity": 64}, {"time": 996, "pitch": 70, "duration": 36, "velocity": 64}, {"time": 1032, "pitch": 70, "duration": 12, "velocity": 64}, {"time": 1044, "pitch": 72, "duration": 12, "velocity": 64}, {"time": 1056, "pitch": 74, "duration": 12, "velocity": 64}, {"time": 1068, "pitch": 72, "duration": 12, "velocity": 64}, {"time": 1080, "pitch": 70, "duration": 12, "velocity": 64}, {"time": 1092, "pitch": 72, "duration": 24, "velocity": 64}, {"time": 1116, "pitch": 65, "duration": 24, "velocity": 64}, {"time": 1188, "pitch": 74, "duration": 24, "velocity": 64}, {"time": 1212, "pitch": 75, "duration": 18, "velocity": 64}, {"time": 1230, "pitch": 74, "duration": 6, "velocity": 64}, {"time": 1236, "pitch": 72, "duration": 18, "velocity": 64}, {"time": 1254, "pitch": 72, "duration": 6, "velocity": 64}, {"time": 1260, "pitch": 77, "duration": 18, "velocity": 64}, {"time": 1278, "pitch": 69, "duration": 6, "velocity": 64}, {"time": 1284, "pitch": 70, "duration": 18, "velocity": 64}, {"time": 1302, "pitch": 70, "duration": 6, "velocity": 64}, {"time": 1308, "pitch": 72, "duration": 18, "velocity": 64}, {"time": 1326, "pitch": 70, "duration": 6, "velocity": 64}, {"time": 1332, "pitch": 69, "duration": 18, "velocity": 64}, {"time": 1350, "pitch": 69, "duration": 6, "velocity": 64}, {"time": 1356, "pitch": 74, "duration": 18, "velocity": 64}, {"time": 1374, "pitch": 66, "duration": 6, "velocity": 64}, {"time": 1380, "pitch": 67, "duration": 18, "velocity": 64}, {"time": 1398, "pitch": 70, "duration": 6, "velocity": 64}, {"time": 1404, "pitch": 69, "duration": 18, "velocity": 64}, {"time": 1422, "pitch": 67, "duration": 6, "velocity": 64}, {"time": 1428, "pitch": 65, "duration": 12, "velocity": 64}, {"time": 1440, "pitch": 70, "duration": 12, "velocity": 64}, {"time": 1452, "pitch": 69, "duration": 12, "velocity": 64}, {"time": 1464, "pitch": 70, "duration": 12, "velocity": 64}, {"time": 1476, "pitch": 72, "duration": 24, "velocity": 64}, {"time": 1500, "pitch": 65, "duration": 24, "velocity": 64}, {"time": 1524, "pitch": 74, "duration": 24, "velocity": 64}, {"time": 1572, "pitch": 74, "duration": 24, "velocity": 64}, {"time": 1596, "pitch": 75, "duration": 18, "velocity": 64}, {"time": 1614, "pitch": 74, "duration": 6, "velocity": 64}, {"time": 1620, "pitch": 72, "duration": 18, "velocity": 64}, {"time": 1638, "pitch": 72, "duration": 6, "velocity": 64}, {"time": 1644, "pitch": 77, "duration": 18, "velocity": 64}, {"time": 1662, "pitch": 69, "duration": 6, "velocity": 64}, {"time": 1668, "pitch": 70, "duration": 18, "velocity": 64}, {"time": 1686, "pitch": 70, "duration": 6, "velocity": 64}, {"time": 1692, "pitch": 72, "duration": 18, "velocity": 64}, {"time": 1710, "pitch": 70, "duration": 6, "velocity": 64}, {"time": 1716, "pitch": 69, "duration": 18, "velocity": 64}, {"time": 1734, "pitch": 69, "duration": 6, "velocity": 64}, {"time": 1740, "pitch": 74, "duration": 18, "velocity": 64}, {"time": 1758, "pitch": 66, "duration": 6, "velocity": 64}, {"time": 1764, "pitch": 67, "duration": 18, "velocity": 64}, {"time": 1782, "pitch": 70, "duration": 6, "velocity": 64}, {"time": 1788, "pitch": 69, "duration": 18, "velocity": 64}, {"time": 1806, "pitch": 67, "duration": 6, "velocity": 64}, {"time": 1812, "pitch": 65, "duration": 12, "velocity": 64}, {"time": 1824, "pitch": 70, "duration": 12, "velocity": 64}, {"time": 1836, "pitch": 69, "duration": 12, "velocity": 64}, {"time": 1848, "pitch": 70, "duration": 12, "velocity": 64}, {"time": 1860, "pitch": 72, "duration": 24, "velocity": 64}, {"time": 1884, "pitch": 69, "duration": 24, "velocity": 64}, {"time": 1908, "pitch": 74, "duration": 18, "velocity": 64}, {"time": 1926, "pitch": 75, "duration": 6, "velocity": 64}, {"time": 1932, "pitch": 67, "duration": 18, "velocity": 64}, {"time": 1950, "pitch": 72, "duration": 6, "velocity": 64}, {"time": 1956, "pitch": 70, "duration": 24, "velocity": 64}, {"time": 1980, "pitch": 74, "duration": 12, "velocity": 64}, {"time": 1992, "pitch": 72, "duration": 12, "velocity": 64}, {"time": 2004, "pitch": 70, "duration": 24, "velocity": 64}]}]}