{"metadata": {"schema_version": "0.1", "title": "ALLONS ENFANTS DE LA PATRIE", "source_format": "abc"}, "resolution": 24, "tempos": [{"time": 0, "qpm": 120.0}], "key_signatures": [{"time": 0, "root": 0, "mode": "major", "fifths": 0}], "time_signatures": [{"time": 0, "numerator": 4, "denominator": 4}], "beats": [{"time": 0, "is_downbeat": true}, {"time": 24, "is_downbeat": false}, {"time": 36, "is_downbeat": true}, {"time": 60, "is_downbeat": false}, {"time": 84, "is_downbeat": false}, {"time": 108, "is_downbeat": false}, {"time": 132, "is_downbeat": true}, {"time": 156, "is_downbeat": false}, {"time": 180, "is_downbeat": false}, {"time": 204, "is_downbeat": false}, {"time": 228, "is_downbeat": true}, {"time": 252, "is_downbeat": false}, {"time": 276, "is_downbeat": false}, {"time": 300, "is_downbeat": false}, {"time": 324, "is_downbeat": true}, {"time": 348, "is_downbeat": false}, {"time": 372, "is_downbeat": false}, {"time": 396, "is_downbeat": false}, {"time": 420, "is_downbeat": true}, {"time": 444, "is_downbeat": false}, {"time": 468, "is_downbeat": false}, {"time": 492, "is_downbeat": false}, {"time": 516, "is_downbeat": true}, {"time": 540, "is_downbeat": false}, {"time": 564, "is_downbeat": false}, {"time": 588, "is_downbeat": false}, {"time": 612, "is_downbeat": true}, {"time": 636, "is_downbeat": false}, {"time": 660, "is_downbeat": false}, {"time": 684, "is_downbeat": false}, {"time": 708, "is_downbeat": true}, {"time": 732, "is_downbeat": false}, {"time": 756, "is_downbeat": false}, {"time": 780, "is_downbeat": false}, {"time": 804, "is_downbeat": true}, {"time": 828, "is_downbeat": false}, {"time": 852, "is_downbeat": false}, {"time": 876, "is_downbeat": false}, {"time": 900, "is_downbeat": true}, {"time": 924, "is_downbeat": false}, {"time": 948, "is_downbeat": false}, {"time": 972, "is_downbeat": false}, {"time": 996, "is_downbeat": true}, {"time": 1020, "is_downbeat": false}, {"time": 1044, "is_downbeat": false}, {"time": 1068, "is_downbeat": false}, {"time": 1092, "is_downbeat": true}, {"time": 1116, "is_downbeat": false}, {"time": 1140, "is_downbeat": false}, {"time": 1164, "is_downbeat": false}, {"time": 1188, "is_downbeat": true}, {"time": 1212, "is_downbeat": false}, {"time": 1236, "is_downbeat": false}, {"time": 1260, "is_downbeat": false}, {"time": 1284, "is_downbeat": true}, {"time": 1308, "is_downbeat": false}, {"time": 1332, "is_downbeat": false}, {"time": 1356, "is_downbeat": false}, {"time": 1380, "is_downbeat": true}, {"time": 1404, "is_downbeat": false}, {"time": 1428, "is_downbeat": false}, {"time": 1452, "is_downbeat": false}, {"time": 1476, "is_downbeat": true}, {"time": 1500, "is_downbeat": false}, {"time": 1524, "is_downbeat": false}, {"time": 1548, "is_downbeat": false}, {"time": 1572, "is_downbeat": true}, {"time": 1596, "is_downbeat": false}, {"time": 1620, "is_downbeat": false}, {"time": 1644, "is_downbeat": false}, {"time": 1668, "is_downbeat": true}, {"time": 1692, "is_downbeat": false}, {"time": 1716, "is_downbeat": false}, {"time": 1740, "is_downbeat": false}, {"time": 1764, "is_downbeat": true}, {"time": 1788, "is_downbeat": false}, {"time": 1812, "is_downbeat": false}, {"time": 1836, "is_downbeat": false}, {"time": 1860, "is_downbeat": true}, {"time": 1884, "is_downbeat": false}, {"time": 1908, "is_downbeat": false}, {"time": 1932, "is_downbeat": false}, {"time": 1956, "is_downbeat": true}, {"time": 1980, "is_downbeat": false}, {"time": 2004, "is_downbeat": false}, {"time": 2028, "is_downbeat": false}, {"time": 2052, "is_downbeat": true}, {"time": 2076, "is_downbeat": false}, {"time": 2100, "is_downbeat": false}, {"time": 2124, "is_downbeat": false}, {"time": 2148, "is_downbeat": true}, {"time": 2172, "is_downbeat": false}, {"time": 2196, "is_downbeat": false}, {"time": 2220, "is_downbeat": false}, {"time": 2244, "is_downbeat": true}, {"time": 2268, "is_downbeat": false}, {"time": 2292, "is_downbeat": false}, {"time": 2316, "is_downbeat": false}, {"time": 2340, "is_downbeat": true}, {"time": 2364, "is_downbeat": false}, {"time": 2388, "is_downbeat": false}, {"time": 2412, "is_downbeat": false}, {"time": 2436, "is_downbeat": true}, {"time": 2460, "is_downbeat": false}, {"time": 2484, "is_downbeat": false}, {"time": 2508, "is_downbeat": false}, {"time": 2532, "is_downbeat": true}, {"time": 2556, "is_downbeat": false}, {"time": 2580, "is_downbeat": false}, {"time": 2604, "is_downbeat": false}, {"time": 2628, "is_downbeat": true}, {"time": 2652, "is_downbeat": false}, {"time": 2676, "is_downbeat": false}, {"time": 2700, "is_downbeat": false}, {"time": 2724, "is_downbeat": true}, {"time": 2748, "is_downbeat": false}, {"time": 2772, "is_downbeat": false}, {"time": 2796, "is_downbeat": false}, {"time": 2820, "is_downbeat": true}, {"time": 2844, "is_downbeat": false}, {"time": 2868, "is_downbeat": false}, {"time": 2892, "is_downbeat": false}, {"time": 2916, "is_downbeat": true}, {"time": 2940, "is_downbeat": false}, {"time": 2964, "is_downbeat": false}, {"time": 2988, "is_downbeat": false}, {"time": 3012, "is_downbeat": true}, {"time": 3036, "is_downbeat": false}, {"time": 3060, "is_downbeat": false}, {"time": 3084, "is_downbeat": false}, {"time": 3108, "is_downbeat": true}, {"time": 3132, "is_downbeat": false}, {"time": 3156, "is_downbeat": false}, {"time": 3180, "is_downbeat": false}, {"time": 3204, "is_downbeat": true}, {"time": 3228, "is_downbeat": false}, {"time": 3252, "is_downbeat": false}, {"time": 3276, "is_downbeat": false}], "tracks": [{"program": 0, "is_drum": false, "notes": [{"time": 0, "pitch": 55, "duration": 12, "velocity": 64}, {"time": 12, "pitch": 55, "duration": 12, "velocity": 64}, {"time": 24, "pitch": 55, "duration": 12, "velocity": 64}, {"time": 36, "pitch": 60, "duration": 24, "velocity": 64}, {"time": 60, "pitch": 60, "duration": 24, "velocity": 64}, {"time": 84, "pitch": 62, "duration": 24, "velocity": 64}, {"time": 108, "pitch": 62, "duration": 24, "velocity": 64}, {"time": 132, "pitch": 67, "duration": 36, "velocity": 64}, {"time": 168, "pitch": 64, "duration": 12, "velocity": 64}, {"time": 180, "pitch": 60, "duration": 12, "velocity": 64}, {"time": 192, "pitch": 60, "duration": 12, "velocity": 64}, {"time": 204, "pitch": 64, "duration": 12, "velocity": 64}, {"time": 216, "pitch": 60, "duration": 6, "velocity": 64}, {"time": 222, "pitch": 59, "duration": 6, "velocity": 64}, {"time": 228, "pitch": 57, "duration": 24, "velocity": 64}, {"time": 252, "pitch": 65, "duration": 36, "velocity": 64}, {"time": 288, "pitch": 65, "duration": 12, "velocity": 64}, {"time": 300, "pitch": 62, "duration": 12, "velocity": 64}, {"time": 312, "pitch": 59, "duration": 12, "velocity": 64}, {"time": 324, "pitch": 60, "duration": 48, "velocity": 64}, {"time": 396, "pitch": 60, "duration": 18, "velocity": 64}, {"time": 414, "pitch": 62, "duration": 6, "velocity": 64}, {"time": 420, "pitch": 64, "duration": 24, "velocity": 64}, {"time": 444, "pitch": 64, "duration": 24, "velocity": 64}, {"time": 468, "pitch": 64, "duration": 24, "velocity": 64}, {"time": 492, "pitch": 65, "duration": 12, "velocity": 64}, {"time": 504, "pitch": 64, "duration": 12, "velocity": 64}, {"time": 516, "pitch": 64, "duration": 12, "velocity": 64}, {"time": 528, "pitch": 62, "duration": 12, "velocity": 64}, {"time": 540, "pitch": 62, "duration": 24, "velocity": 64}, {"time": 588, "pitch": 62, "duration": 18, "velocity": 64}, {"time": 606, "pitch": 64, "duration": 6, "velocity": 64}, {"time": 612, "pitch": 65, "duration": 24, "velocity": 64}, {"time": 636, "pitch": 65, "duration": 24, "velocity": 64}, {"time": 660, "pitch": 65, "duration": 24, "velocity": 64}, {"time": 684, "pitch": 67, "duration": 18, "velocity": 64}, {"time": 702, "pitch": 65, "duration": 6, "velocity": 64}, {"time": 708, "pitch": 64, "duration": 48, "velocity": 64}, {"time": 780, "pitch": 67, "duration": 18, "velocity": 64}, {"time": 798, "pitch": 67, "duration": 6, "velocity": 64}, {"time": 804, "pitch": 67, "duration": 24, "velocity": 64}, {"time": 828, "pitch": 64, "duration": 12, "velocity": 64}, {"time": 840, "pitch": 60, "duration": 12, "velocity": 64}, {"time": 852, "pitch": 67, "duration": 24, "velocity": 64}, {"time": 876, "pitch": 64, "duration": 18, "velocity": 64}, {"time": 894, "pitch": 60, "duration": 6, "velocity": 64}, {"time": 900, "pitch": 55, "duration": 48, "velocity": 64}, {"time": 960, "pitch": 55, "duration": 12, "velocity": 64}, {"time": 972, "pitch": 55, "duration": 12, "velocity": 64}, {"time": 984, "pitch": 55, "duration": 12, "velocity": 64}, {"time": 996, "pitch": 62, "duration": 36, "velocity": 64}, {"time": 1032, "pitch": 64, "duration": 12, "velocity": 64}, {"time": 1044, "pitch": 65, "duration": 36, "velocity": 64}, {"time": 1080, "pitch": 62, "duration": 12, "velocity": 64}, {"time": 1092, "pitch": 60, "duration": 24, "velocity": 64}, {"time": 1116, "pitch": 60, "duration": 24, "velocity": 64}, {"time": 1140, "pitch": 58, "duration": 48, "velocity": 64}, {"time": 1188, "pitch": 57, "duration": 24, "velocity": 64}, {"time": 1212, "pitch": 60, "duration": 18, "velocity": 64}, {"time": 1230, "pitch": 60, "duration": 6, "velocity": 64}, {"time": 1236, "pitch": 60, "duration": 24, "velocity": 64}, {"time": 1260, "pitch": 59, "duration": 12, "velocity": 64}, {"time": 1272, "pitch": 60, "duration": 12, "velocity": 64}, {"time": 1284, "pitch": 62, "duration": 48, "velocity": 64}, {"time": 1356, "pitch": 62, "duration": 18, "velocity": 64}, {"time": 1374, "pitch": 62, "duration": 6, "velocity": 64}, {"time": 1380, "pitch": 63, "duration": 24, "velocity": 64}, {"time": 1404, "pitch": 64, "duration": 18, "velocity": 64}, {"time": 1422, "pitch": 64, "duration": 6, "velocity": 64}, {"time": 1428, "pitch": 62, "duration": 18, "velocity": 64}, {"time": 1446, "pitch": 64, "duration": 6, "velocity": 64}, {"time": 1452, "pitch": 65, "duration": 18, "velocity": 64}, {"time": 1470, "pitch": 64, "duration": 6, "velocity": 64}, {"time": 1476, "pitch": 62, "duration": 48, "velocity": 64}, {"time": 1548, "pitch": 63, "duration": 12, "velocity": 64}, {"time": 1560, "pitch": 62, "duration": 12, "velocity": 64}, {"time": 1572, "pitch": 60, "duration": 24, "velocity": 64}, {"time": 1596, "pitch": 60, "duration": 24, "velocity": 64}, {"time": 1620, "pitch": 60, "duration": 24, "velocity": 64}, {"time": 1644, "pitch": 62, "duration": 12, "velocity": 64}, {"time": 1656, "pitch": 60, "duration": 12, "velocity": 64}, {"time": 1668, "pitch": 60, "duration": 12, "velocity": 64}, {"time": 1680, "pitch": 59, "duration": 12, "velocity": 64}, {"time": 1692, "pitch": 59, "duration": 24, "velocity": 64}, {"time": 1740, "pitch": 67, "duration": 24, "velocity": 64}, {"time": 1764, "pitch": 67, "duration": 72, "velocity": 64}, {"time": 1836, "pitch": 63, "duration": 18, "velocity": 64}, {"time": 1854, "pitch": 60, "duration": 6, "velocity": 64}, {"time": 1860, "pitch": 62, "duration": 48, "velocity": 64}, {"time": 1932, "pitch": 67, "duration": 24, "velocity": 64}, {"time": 1956, "pitch": 67, "duration": 66, "velocity": 64}, {"time": 2022, "pitch": 67, "duration": 6, "velocity": 64}, {"time": 2028, "pitch": 63, "duration": 18, "velocity": 64}, {"time": 2046, "pitch": 60, "duration": 6, "velocity": 64}, {"time": 2052, "pitch": 62, "duration": 48, "velocity": 64}, {"time": 2124, "pitch": 55, "duration": 24, "velocity": 64}, {"time": 2148, "pitch": 60, "duration": 72, "velocity": 64}, {"time": 2220, "pitch": 60, "duration": 24, "velocity": 64}, {"time": 2244, "pitch": 64, "duration": 72, "velocity": 64}, {"time": 2340, "pitch": 65, "duration": 48, "velocity": 64}, {"time": 2388, "pitch": 67, "duration": 24, "velocity": 64}, {"time": 2412, "pitch": 69, "duration": 24, "velocity": 64}, {"time": 2436, "pitch": 62, "duration": 72, "velocity": 64}, {"time": 2508, "pitch": 69, "duration": 24, "velocity": 64}, {"time": 2532, "pitch": 67, "duration": 66, "velocity": 64}, {"time": 2598, "pitch": 64, "duration": 6, "velocity": 64}, {"time": 2604, "pitch": 65, "duration": 18, "velocity": 64}, {"time": 2622, "pitch": 62, "duration": 6, "velocity": 64}, {"time": 2628, "pitch": 60, "duration": 48, "velocity": 64}, {"time": 2700, "pitch": 55, "duration": 24, "velocity": 64}, {"time": 2724, "pitch": 60, "duration": 72, "velocity": 64}, {"time": 2796, "pitch": 60, "duration": 24, "velocity": 64}, {"time": 2820, "pitch": 64, "duration": 72, "velocity": 64}, {"time": 2916, "pitch": 65, "duration": 48, "velocity": 64}, {"time": 2964, "pitch": 67, "duration": 24, "velocity": 64}, {"time": 2988, "pitch": 69, "duration": 24, "velocity": 64}, {"time": 3012, "pitch": 62, "duration": 72, "velocity": 64}, {"time": 3084, "pitch": 69, "duration": 24, "velocity": 64}, {"time": 3108, "pitch": 67, "duration": 66, "velocity": 64}, {"time": 3174, "pitch": 64, "duration": 6, "velocity": 64}, {"time": 3180, "pitch": 65, "duration": 18, "velocity": 64}, {"time": 3198, "pitch": 62, "duration": 6, "velocity": 64}, {"time": 3204, "pitch": 60, "duration": 48, "velocity": 64}]}]}