{"metadata": {"schema_version": "0.1", "title": "Nun adje, jetzt muss ich fort", "source_format": "abc"}, "resolution": 24, "tempos": [{"time": 0, "qpm": 120.0}], "key_signatures": [{"time": 0, "root": 7, "mode": "major", "fifths": 1}], "time_signatures": [{"time": 0, "numerator": 3, "denominator": 2}], "beats": [{"time": 0, "is_downbeat": true}, {"time": 48, "is_downbeat": true}, {"time": 96, "is_downbeat": false}, {"time": 144, "is_downbeat": false}, {"time": 192, "is_downbeat": true}, {"time": 240, "is_downbeat": false}, {"time": 288, "is_downbeat": false}, {"time": 336, "is_downbeat": true}, {"time": 384, "is_downbeat": false}, {"time": 432, "is_downbeat": false}, {"time": 480, "is_downbeat": true}, {"time": 528, "is_downbeat": false}, {"time": 576, "is_downbeat": false}, {"time": 624, "is_downbeat": true}, {"time": 672, "is_downbeat": false}, {"time": 720, "is_downbeat": false}, {"time": 768, "is_downbeat": true}, {"time": 816, "is_downbeat": false}, {"time": 864, "is_downbeat": false}, {"time": 912, "is_downbeat": true}, {"time": 960, "is_downbeat": false}, {"time": 1008, "is_downbeat": false}, {"time": 1056, "is_downbeat": true}, {"time": 1104, "is_downbeat": false}, {"time": 1152, "is_downbeat": false}], "tracks": [{"program": 0, "is_drum": false, "notes": [{"time": 0, "pitch": 67, "duration": 24, "velocity": 64}, {"time": 24, "pitch": 62, "duration": 24, "velocity": 64}, {"time": 48, "pitch": 67, "duration": 36, "velocity": 64}, {"time": 84, "pitch": 69, "duration": 12, "velocity": 64}, {"time": 96, "pitch": 71, "duration": 48, "velocity": 64}, {"time": 144, "pitch": 69, "duration": 24, "velocity": 64}, {"time": 168, "pitch": 67, "duration": 12, "velocity": 64}, {"time": 180, "pitch": 71, "duration": 12, "velocity": 64}, {"time": 192, "pitch": 69, "duration": 48, "velocity": 64}, {"time": 288, "pitch": 67, "duration": 24, "velocity": 64}, {"time": 312, "pitch": 62, "duration": 24, "velocity": 64}, {"time": 336, "pitch": 67, "duration": 36, "velocity": 64}, {"time": 372, "pitch": 69, "duration": 12, "velocity": 64}, {"time": 384, "pitch": 71, "duration": 48, "velocity": 64}, {"time": 432, "pitch": 69, "duration": 24, "velocity": 64}, {"time": 456, "pitch": 67, "duration": 12, "velocity": 64}, {"time": 468, "pitch": 71, "duration": 12, "velocity": 64}, {"time": 480, "pitch": 69, "duration": 48, "velocity": 64}, {"time": 552, "pitch": 67, "duration": 12, "velocity": 64}, {"time": 564, "pitch": 69, "duration": 12, "velocity": 64}, {"time": 576, "pitch": 71, "duration": 24, "velocity": 64}, {"time": 600, "pitch": 67, "duration": 24, "velocity": 64}, {"time": 624, "pitch": 74, "duration": 36, "velocity": 64}, {"time": 660, "pitch": 76, "duration": 12, "velocity": 64}, {"time": 672, "pitch": 74, "duration": 24, "velocity": 64}, {"time": 696, "pitch": 72, "duration": 12, "velocity": 64}, {"time": 708, "pitch": 71, "duration": 12, "velocity": 64}, {"time": 720, "pitch": 69, "duration": 24, "velocity": 64}, {"time": 744, "pitch": 67, "duration": 24, "velocity": 64}, {"time": 768, "pitch": 72, "duration": 36, "velocity": 64}, {"time": 804, "pitch": 74, "duration": 12, "velocity": 64}, {"time": 816, "pitch": 71, "duration": 24, "velocity": 64}, {"time": 840, "pitch": 69, "duration": 12, "velocity": 64}, {"time": 852, "pitch": 72, "duration": 12, "velocity": 64}, {"time": 864, "pitch": 71, "duration": 24, "velocity": 64}, {"time": 888, "pitch": 69, "duration": 24, "velocity": 64}, {"time": 912, "pitch": 67, "duration": 36, "velocity": 64}, {"time": 948, "pitch": 69, "duration": 12, "velocity": 64}, {"time": 960, "pitch": 71, "duration": 24, "velocity": 64}, {"time": 984, "pitch": 72, "duration": 12, "velocity": 64}, {"time": 996, "pitch": 69, "duration": 12, "velocity": 64}, {"time": 1008, "pitch": 74, "duration": 24, "velocity": 64}, {"time": 1032, "pitch": 74, "duration": 18, "velocity": 64}, {"time": 1050, "pitch": 72, "duration": 6, "velocity": 64}, {"time": 1056, "pitch": 71, "duration": 48, "velocity": 64}]}]}