{"metadata": {"schema_version": "0.1", "title": "Jungknab auf Botschaft", "source_format": "abc"}, "resolution": 24, "tempos": [{"time": 0, "qpm": 120.0}], "key_signatures": [{"time": 0, "root": 4, "mode": "major", "fifths": 4}], "time_signatures": [{"time": 0, "numerator": 4, "denominator": 4}], "beats": [{"time": 0, "is_downbeat": true}, {"time": 24, "is_downbeat": false}, {"time": 36, "is_downbeat": true}, {"time": 60, "is_downbeat": false}, {"time": 84, "is_downbeat": false}, {"time": 108, "is_downbeat": false}, {"time": 132, "is_downbeat": true}, {"time": 156, "is_downbeat": false}, {"time": 180, "is_downbeat": false}, {"time": 204, "is_downbeat": false}, {"time": 228, "is_downbeat": true}, {"time": 252, "is_downbeat": false}, {"time": 276, "is_downbeat": false}, {"time": 300, "is_downbeat": false}, {"time": 324, "is_downbeat": true}, {"time": 348, "is_downbeat": false}, {"time": 372, "is_downbeat": false}, {"time": 396, "is_downbeat": true}, {"time": 420, "is_downbeat": false}, {"time": 444, "is_downbeat": false}, {"time": 468, "is_downbeat": false}, {"time": 492, "is_downbeat": true}, {"time": 516, "is_downbeat": false}, {"time": 540, "is_downbeat": false}, {"time": 564, "is_downbeat": true}, {"time": 588, "is_downbeat": false}, {"time": 612, "is_downbeat": false}, {"time": 636, "is_downbeat": true}, {"time": 660, "is_downbeat": false}, {"time": 684, "is_downbeat": false}, {"time": 708, "is_downbeat": false}, {"time": 732, "is_downbeat": true}, {"time": 756, "is_downbeat": false}, {"time": 780, "is_downbeat": false}, {"time": 804, "is_downbeat": true}, {"time": 828, "is_downbeat": false}, {"time": 852, "is_downbeat": false}, {"time": 876, "is_downbeat": true}, {"time": 900, "is_downbeat": false}, {"time": 924, "is_downbeat": false}, {"time": 948, "is_downbeat": true}, {"time": 972, "is_downbeat": false}, {"time": 996, "is_downbeat": false}, {"time": 1020, "is_downbeat": true}, {"time": 1044, "is_downbeat": false}, {"time": 1068, "is_downbeat": false}, {"time": 1092, "is_downbeat": true}, {"time": 1116, "is_downbeat": false}, {"time": 1140, "is_downbeat": false}, {"time": 1164, "is_downbeat": false}, {"time": 1188, "is_downbeat": true}, {"time": 1212, "is_downbeat": false}, {"time": 1236, "is_downbeat": false}, {"time": 1260, "is_downbeat": false}], "tracks": [{"program": 0, "is_drum": false, "notes": [{"time": 0, "pitch": 64, "duration": 12, "velocity": 64}, {"time": 12, "pitch": 64, "duration": 12, "velocity": 64}, {"time": 24, "pitch": 64, "duration": 12, "velocity": 64}, {"time": 36, "pitch": 71, "duration": 48, "velocity": 64}, {"time": 84, "pitch": 73, "duration": 24, "velocity": 64}, {"time": 108, "pitch": 74, "duration": 24, "velocity": 64}, {"time": 132, "pitch": 73, "duration": 24, "velocity": 64}, {"time": 156, "pitch": 71, "duration": 24, "velocity": 64}, {"time": 180, "pitch": 69, "duration": 72, "velocity": 64}, {"time": 252, "pitch": 69, "duration": 24, "velocity": 64}, {"time": 276, "pitch": 71, "duration": 24, "velocity": 64}, {"time": 300, "pitch": 71, "duration": 24, "velocity": 64}, {"time": 324, "pitch": 76, "duration": 36, "velocity": 64}, {"time": 360, "pitch": 78, "duration": 12, "velocity": 64}, {"time": 372, "pitch": 76, "duration": 24, "velocity": 64}, {"time": 396, "pitch": 74, "duration": 24, "velocity": 64}, {"time": 420, "pitch": 73, "duration": 24, "velocity": 64}, {"time": 444, "pitch": 71, "duration": 48, "velocity": 64}, {"time": 492, "pitch": 71, "duration": 12, "velocity": 64}, {"time": 504, "pitch": 69, "duration": 12, "velocity": 64}, {"time": 516, "pitch": 71, "duration": 24, "velocity": 64}, {"time": 540, "pitch": 76, "duration": 24, "velocity": 64}, {"time": 564, "pitch": 74, "duration": 24, "velocity": 64}, {"time": 588, "pitch": 73, "duration": 24, "velocity": 64}, {"time": 612, "pitch": 71, "duration": 24, "velocity": 64}, {"time": 636, "pitch": 74, "duration": 24, "velocity": 64}, {"time": 660, "pitch": 76, "duration": 24, "velocity": 64}, {"time": 684, "pitch": 71, "duration": 48, "velocity": 64}, {"time": 732, "pitch": 75, "duration": 24, "velocity": 64}, {"time": 756, "pitch": 73, "duration": 24, "velocity": 64}, {"time": 780, "pitch": 71, "duration": 24, "velocity": 64}, {"time": 804, "pitch": 69, "duration": 48, "velocity": 64}, {"time": 852, "pitch": 71, "duration": 24, "velocity": 64}, {"time": 876, "pitch": 67, "duration": 24, "velocity": 64}, {"time": 900, "pitch": 66, "duration": 24, "velocity": 64}, {"time": 924, "pitch": 64, "duration": 60, "velocity": 64}, {"time": 984, "pitch": 64, "duration": 12, "velocity": 64}, {"time": 996, "pitch": 64, "duration": 12, "velocity": 64}, {"time": 1008, "pitch": 64, "duration": 12, "velocity": 64}, {"time": 1020, "pitch": 71, "duration": 48, "velocity": 64}, {"time": 1068, "pitch": 69, "duration": 24, "velocity": 64}, {"time": 1092, "pitch": 71, "duration": 24, "velocity": 64}, {"time": 1116, "pitch": 72, "duration": 24, "velocity": 64}, {"time": 1140, "pitch": 71, "duration": 24, "velocity": 64}, {"time": 1164, "pitch": 67, "duration": 24, "velocity": 64}, {"time": 1188, "pitch": 66, "duration": 24, "velocity": 64}, {"time": 1212, "pitch": 64, "duration": 24, "velocity": 64}]}]}