{"metadata": {"schema_version": "0.1", "title": "Eleisonlied", "source_format": "abc"}, "resolution": 24, "tempos": [{"time": 0, "qpm": 120.0}], "key_signatures": [{"time": 0, "root": 7, "mode": "major", "fifths": 1}], "time_signatures": [{"time": 0, "numerator": 4, "denominator": 4}], "beats": [{"time": 0, "is_downbeat": true}, {"time": 24, "is_downbeat": false}, {"time": 36, "is_downbeat": true}, {"time": 60, "is_downbeat": false}, {"time": 84, "is_downbeat": false}, {"time": 96, "is_downbeat": true}, {"time": 120, "is_downbeat": false}, {"time": 144, "is_downbeat": false}, {"time": 156, "is_downbeat": true}, {"time": 180, "is_downbeat": false}, {"time": 204, "is_downbeat": false}, {"time": 228, "is_downbeat": false}, {"time": 252, "is_downbeat": true}, {"time": 276, "is_downbeat": true}, {"time": 300, "is_downbeat": false}, {"time": 324, "is_downbeat": false}, {"time": 348, "is_downbeat": true}, {"time": 372, "is_downbeat": false}, {"time": 396, "is_downbeat": true}, {"time": 420, "is_downbeat": false}, {"time": 444, "is_downbeat": true}, {"time": 468, "is_downbeat": false}, {"time": 492, "is_downbeat": false}, {"time": 516, "is_downbeat": false}], "tracks": [{"program": 0, "is_drum": false, "notes": [{"time": 0, "pitch": 72, "duration": 12, "velocity": 64}, {"time": 12, "pitch": 72, "duration": 12, "velocity": 64}, {"time": 24, "pitch": 72, "duration": 12, "velocity": 64}, {"time": 36, "pitch": 79, "duration": 36, "velocity": 64}, {"time": 72, "pitch": 77, "duration": 12, "velocity": 64}, {"time": 84, "pitch": 74, "duration": 12, "velocity": 64}, {"time": 96, "pitch": 75, "duration": 12, "velocity": 64}, {"time": 108, "pitch": 74, "duration": 12, "velocity": 64}, {"time": 120, "pitch": 72, "duration": 24, "velocity": 64}, {"time": 144, "pitch": 74, "duration": 12, "velocity": 64}, {"time": 156, "pitch": 79, "duration": 24, "velocity": 64}, {"time": 180, "pitch": 77, "duration": 12, "velocity": 64}, {"time": 192, "pitch": 79, "duration": 12, "velocity": 64}, {"time": 204, "pitch": 74, "duration": 24, "velocity": 64}, {"time": 240, "pitch": 74, "duration": 12, "velocity": 64}, {"time": 252, "pitch": 74, "duration": 9, "velocity": 64}, {"time": 261, "pitch": 74, "duration": 3, "velocity": 64}, {"time": 264, "pitch": 74, "duration": 9, "velocity": 64}, {"time": 273, "pitch": 74, "duration": 3, "velocity": 64}, {"time": 276, "pitch": 79, "duration": 24, "velocity": 64}, {"time": 300, "pitch": 77, "duration": 12, "velocity": 64}, {"time": 312, "pitch": 75, "duration": 24, "velocity": 64}, {"time": 336, "pitch": 72, "duration": 12, "velocity": 64}, {"time": 348, "pitch": 70, "duration": 24, "velocity": 64}, {"time": 372, "pitch": 72, "duration": 8, "velocity": 64}, {"time": 380, "pitch": 74, "duration": 8, "velocity": 64}, {"time": 388, "pitch": 75, "duration": 8, "velocity": 64}, {"time": 396, "pitch": 74, "duration": 24, "velocity": 64}, {"time": 420, "pitch": 67, "duration": 12, "velocity": 64}, {"time": 432, "pitch": 72, "duration": 12, "velocity": 64}, {"time": 444, "pitch": 70, "duration": 6, "velocity": 64}, {"time": 450, "pitch": 69, "duration": 6, "velocity": 64}, {"time": 456, "pitch": 67, "duration": 24, "velocity": 64}]}]}