{"metadata": {"schema_version": "0.1", "title": "Gemalte Rosen", "source_format": "abc"}, "resolution": 24, "tempos": [{"time": 0, "qpm": 120.0}], "key_signatures": [{"time": 0, "root": 2, "mode": "major", "fifths": 2}], "time_signatures": [{"time": 0, "numerator": 2, "denominator": 2}], "beats": [{"time": 0, "is_downbeat": true}, {"time": 24, "is_downbeat": true}, {"time": 72, "is_downbeat": false}, {"time": 120, "is_downbeat": true}, {"time": 168, "is_downbeat": false}, {"time": 216, "is_downbeat": true}, {"time": 264, "is_downbeat": false}, {"time": 312, "is_downbeat": true}, {"time": 360, "is_downbeat": false}, {"time": 408, "is_downbeat": true}, {"time": 456, "is_downbeat": false}, {"time": 504, "is_downbeat": true}, {"time": 552, "is_downbeat": false}, {"time": 600, "is_downbeat": true}, {"time": 648, "is_downbeat": false}, {"time": 696, "is_downbeat": true}, {"time": 744, "is_downbeat": false}, {"time": 792, "is_downbeat": true}, {"time": 840, "is_downbeat": false}, {"time": 888, "is_downbeat": true}, {"time": 936, "is_downbeat": false}], "tracks": [{"program": 0, "is_drum": false, "notes": [{"time": 0, "pitch": 69, "duration": 24, "velocity": 64}, {"time": 24, "pitch": 74, "duration": 24, "velocity": 64}, {"time": 48, "pitch": 69, "duration": 24, "velocity": 64}, {"time": 72, "pitch": 69, "duration": 24, "velocity": 64}, {"time": 96, "pitch": 69, "duration": 24, "velocity": 64}, {"time": 120, "pitch": 71, "duration": 24, "velocity": 64}, {"time": 144, "pitch": 69, "duration": 24, "velocity": 64}, {"time": 168, "pitch": 69, "duration": 24, "velocity": 64}, {"time": 192, "pitch": 69, "duration": 24, "velocity": 64}, {"time": 216, "pitch": 71, "duration": 36, "velocity": 64}, {"time": 252, "pitch": 67, "duration": 12, "velocity": 64}, {"time": 264, "pitch": 67, "duration": 24, "velocity": 64}, {"time": 288, "pitch": 66, "duration": 24, "velocity": 64}, {"time": 312, "pitch": 66, "duration": 48, "velocity": 64}, {"time": 360, "pitch": 64, "duration": 48, "velocity": 64}, {"time": 408, "pitch": 62, "duration": 48, "velocity": 64}, {"time": 456, "pitch": 66, "duration": 48, "velocity": 64}, {"time": 504, "pitch": 69, "duration": 72, "velocity": 64}, {"time": 600, "pitch": 69, "duration": 48, "velocity": 64}, {"time": 648, "pitch": 73, "duration": 48, "velocity": 64}, {"time": 696, "pitch": 76, "duration": 72, "velocity": 64}, {"time": 768, "pitch": 74, "duration": 24, "velocity": 64}, {"time": 792, "pitch": 73, "duration": 24, "velocity": 64}, {"time": 816, "pitch": 71, "duration": 24, "velocity": 64}, {"time": 840, "pitch": 69, "duration": 24, "velocity": 64}, {"time": 864, "pitch": 67, "duration": 24, "velocity": 64}, {"time": 888, "pitch": 67, "duration": 48, "velocity": 64}, {"time": 936, "pitch": 66, "duration": 24, "velocity": 64}]}]}