{"metadata": {"schema_version": "0.1", "title": "Die Lumpenbauern", "source_format": "abc"}, "resolution": 24, "tempos": [{"time": 0, "qpm": 120.0}], "key_signatures": [{"time": 0, "root": 7, "mode": "major", "fifths": 1}], "time_signatures": [{"time": 0, "numerator": 4, "denominator": 4}, {"time": 96, "numerator": 61, "denominator": 16}, {"time": 462, "numerator": 4, "denominator": 4}], "beats": [{"time": 0, "is_downbeat": true}, {"time": 6, "is_downbeat": false}, {"time": 12, "is_downbeat": false}, {"time": 18, "is_downbeat": false}, {"time": 24, "is_downbeat": false}, {"time": 30, "is_downbeat": false}, {"time": 36, "is_downbeat": false}, {"time": 42, "is_downbeat": false}, {"time": 48, "is_downbeat": false}, {"time": 54, "is_downbeat": false}, {"time": 60, "is_downbeat": false}, {"time": 66, "is_downbeat": false}, {"time": 72, "is_downbeat": false}, {"time": 78, "is_downbeat": false}, {"time": 84, "is_downbeat": false}, {"time": 90, "is_downbeat": false}, {"time": 96, "is_downbeat": true}, {"time": 120, "is_downbeat": false}, {"time": 144, "is_downbeat": false}, {"time": 168, "is_downbeat": false}, {"time": 192, "is_downbeat": true}, {"time": 216, "is_downbeat": false}, {"time": 240, "is_downbeat": false}, {"time": 264, "is_downbeat": false}, {"time": 288, "is_downbeat": true}, {"time": 312, "is_downbeat": false}, {"time": 336, "is_downbeat": false}, {"time": 360, "is_downbeat": false}, {"time": 384, "is_downbeat": true}, {"time": 408, "is_downbeat": false}, {"time": 432, "is_downbeat": false}, {"time": 456, "is_downbeat": false}, {"time": 462, "is_downbeat": true}, {"time": 486, "is_downbeat": false}, {"time": 510, "is_downbeat": false}, {"time": 534, "is_downbeat": false}, {"time": 558, "is_downbeat": true}, {"time": 582, "is_downbeat": false}, {"time": 606, "is_downbeat": false}, {"time": 630, "is_downbeat": false}, {"time": 654, "is_downbeat": true}, {"time": 678, "is_downbeat": false}, {"time": 702, "is_downbeat": false}, {"time": 726, "is_downbeat": false}, {"time": 750, "is_downbeat": true}, {"time": 774, "is_downbeat": false}, {"time": 798, "is_downbeat": false}, {"time": 822, "is_downbeat": false}, {"time": 846, "is_downbeat": true}, {"time": 870, "is_downbeat": false}, {"time": 894, "is_downbeat": false}, {"time": 918, "is_downbeat": false}, {"time": 942, "is_downbeat": true}, {"time": 966, "is_downbeat": false}, {"time": 990, "is_downbeat": false}, {"time": 1014, "is_downbeat": false}], "tracks": [{"program": 0, "is_drum": false, "notes": [{"time": 0, "pitch": 60, "duration": 12, "velocity": 64}, {"time": 12, "pitch": 67, "duration": 6, "velocity": 64}, {"time": 18, "pitch": 67, "duration": 6, "velocity": 64}, {"time": 24, "pitch": 67, "duration": 6, "velocity": 64}, {"time": 30, "pitch": 67, "duration": 6, "velocity": 64}, {"time": 36, "pitch": 67, "duration": 6, "velocity": 64}, {"time": 42, "pitch": 67, "duration": 6, "velocity": 64}, {"time": 48, "pitch": 67, "duration": 6, "velocity": 64}, {"time": 54, "pitch": 67, "duration": 6, "velocity": 64}, {"time": 60, "pitch": 67, "duration": 6, "velocity": 64}, {"time": 66, "pitch": 69, "duration": 12, "velocity": 64}, {"time": 78, "pitch": 67, "duration": 18, "velocity": 64}, {"time": 96, "pitch": 65, "duration": 6, "velocity": 64}, {"time": 102, "pitch": 66, "duration": 12, "velocity": 64}, {"time": 114, "pitch": 64, "duration": 12, "velocity": 64}, {"time": 126, "pitch": 64, "duration": 12, "velocity": 64}, {"time": 138, "pitch": 60, "duration": 12, "velocity": 64}, {"time": 150, "pitch": 67, "duration": 6, "velocity": 64}, {"time": 156, "pitch": 67, "duration": 6, "velocity": 64}, {"time": 162, "pitch": 67, "duration": 6, "velocity": 64}, {"time": 168, "pitch": 67, "duration": 6, "velocity": 64}, {"time": 174, "pitch": 67, "duration": 6, "velocity": 64}, {"time": 180, "pitch": 67, "duration": 6, "velocity": 64}, {"time": 186, "pitch": 67, "duration": 6, "velocity": 64}, {"time": 192, "pitch": 67, "duration": 6, "velocity": 64}, {"time": 198, "pitch": 69, "duration": 12, "velocity": 64}, {"time": 210, "pitch": 67, "duration": 18, "velocity": 64}, {"time": 228, "pitch": 66, "duration": 6, "velocity": 64}, {"time": 234, "pitch": 66, "duration": 12, "velocity": 64}, {"time": 246, "pitch": 64, "duration": 12, "velocity": 64}, {"time": 258, "pitch": 64, "duration": 12, "velocity": 64}, {"time": 270, "pitch": 60, "duration": 12, "velocity": 64}, {"time": 282, "pitch": 67, "duration": 6, "velocity": 64}, {"time": 288, "pitch": 67, "duration": 6, "velocity": 64}, {"time": 294, "pitch": 67, "duration": 6, "velocity": 64}, {"time": 300, "pitch": 67, "duration": 6, "velocity": 64}, {"time": 306, "pitch": 67, "duration": 6, "velocity": 64}, {"time": 312, "pitch": 67, "duration": 6, "velocity": 64}, {"time": 318, "pitch": 67, "duration": 6, "velocity": 64}, {"time": 324, "pitch": 67, "duration": 6, "velocity": 64}, {"time": 330, "pitch": 67, "duration": 6, "velocity": 64}, {"time": 336, "pitch": 67, "duration": 6, "velocity": 64}, {"time": 342, "pitch": 67, "duration": 6, "velocity": 64}, {"time": 348, "pitch": 67, "duration": 6, "velocity": 64}, {"time": 354, "pitch": 69, "duration": 12, "velocity": 64}, {"time": 366, "pitch": 67, "duration": 18, "velocity": 64}, {"time": 384, "pitch": 66, "duration": 6, "velocity": 64}, {"time": 390, "pitch": 66, "duration": 12, "velocity": 64}, {"time": 402, "pitch": 66, "duration": 12, "velocity": 64}, {"time": 414, "pitch": 64, "duration": 24, "velocity": 64}, {"time": 438, "pitch": 67, "duration": 24, "velocity": 64}, {"time": 462, "pitch": 67, "duration": 12, "velocity": 64}, {"time": 474, "pitch": 67, "duration": 12, "velocity": 64}, {"time": 486, "pitch": 67, "duration": 24, "velocity": 64}, {"time": 510, "pitch": 69, "duration": 24, "velocity": 64}, {"time": 534, "pitch": 69, "duration": 24, "velocity": 64}, {"time": 558, "pitch": 71, "duration": 36, "velocity": 64}, {"time": 594, "pitch": 71, "duration": 12, "velocity": 64}, {"time": 606, "pitch": 71, "duration": 24, "velocity": 64}, {"time": 630, "pitch": 69, "duration": 24, "velocity": 64}, {"time": 654, "pitch": 67, "duration": 12, "velocity": 64}, {"time": 666, "pitch": 67, "duration": 12, "velocity": 64}, {"time": 678, "pitch": 67, "duration": 24, "velocity": 64}, {"time": 702, "pitch": 69, "duration": 12, "velocity": 64}, {"time": 714, "pitch": 69, "duration": 12, "velocity": 64}, {"time": 726, "pitch": 69, "duration": 24, "velocity": 64}, {"time": 750, "pitch": 71, "duration": 36, "velocity": 64}, {"time": 786, "pitch": 71, "duration": 12, "velocity": 64}, {"time": 798, "pitch": 71, "duration": 24, "velocity": 64}, {"time": 846, "pitch": 74, "duration": 48, "velocity": 64}, {"time": 894, "pitch": 71, "duration": 24, "velocity": 64}, {"time": 918, "pitch": 67, "duration": 24, "velocity": 64}, {"time": 942, "pitch": 69, "duration": 24, "velocity": 64}, {"time": 966, "pitch": 69, "duration": 24, "velocity": 64}, {"time": 990, "pitch": 67, "duration": 24, "velocity": 64}]}]}