{"metadata": {"schema_version": "0.1", "title": "Andreas - Hofer - Lied", "source_format": "abc"}, "resolution": 24, "tempos": [{"time": 0, "qpm": 120.0}], "key_signatures": [{"time": 0, "root": 0, "mode": "major", "fifths": 0}], "time_signatures": [{"time": 0, "numerator": 2, "denominator": 2}], "beats": [{"time": 0, "is_downbeat": true}, {"time": 48, "is_downbeat": true}, {"time": 96, "is_downbeat": false}, {"time": 144, "is_downbeat": true}, {"time": 192, "is_downbeat": false}, {"time": 240, "is_downbeat": true}, {"time": 288, "is_downbeat": false}, {"time": 336, "is_downbeat": true}, {"time": 384, "is_downbeat": false}, {"time": 432, "is_downbeat": true}, {"time": 480, "is_downbeat": false}, {"time": 528, "is_downbeat": true}, {"time": 576, "is_downbeat": false}, {"time": 624, "is_downbeat": true}, {"time": 672, "is_downbeat": false}, {"time": 720, "is_downbeat": true}, {"time": 768, "is_downbeat": false}, {"time": 816, "is_downbeat": true}, {"time": 864, "is_downbeat": false}, {"time": 912, "is_downbeat": true}, {"time": 960, "is_downbeat": false}, {"time": 1008, "is_downbeat": true}, {"time": 1056, "is_downbeat": false}, {"time": 1104, "is_downbeat": true}, {"time": 1152, "is_downbeat": false}, {"time": 1200, "is_downbeat": true}, {"time": 1248, "is_downbeat": false}, {"time": 1296, "is_downbeat": true}, {"time": 1344, "is_downbeat": false}, {"time": 1392, "is_downbeat": true}, {"time": 1440, "is_downbeat": false}, {"time": 1488, "is_downbeat": true}, {"time": 1536, "is_downbeat": false}], "tracks": [{"program": 0, "is_drum": false, "notes": [{"time": 0, "pitch": 67, "duration": 48, "velocity": 64}, {"time": 48, "pitch": 64, "duration": 24, "velocity": 64}, {"time": 72, "pitch": 64, "duration": 24, "velocity": 64}, {"time": 96, "pitch": 64, "duration": 24, "velocity": 64}, {"time": 120, "pitch": 64, "duration": 24, "velocity": 64}, {"time": 144, "pitch": 64, "duration": 48, "velocity": 64}, {"time": 216, "pitch": 67, "duration": 24, "velocity": 64}, {"time": 240, "pitch": 69, "duration": 36, "velocity": 64}, {"time": 276, "pitch": 67, "duration": 12, "velocity": 64}, {"time": 288, "pitch": 65, "duration": 24, "velocity": 64}, {"time": 312, "pitch": 64, "duration": 24, "velocity": 64}, {"time": 336, "pitch": 64, "duration": 24, "velocity": 64}, {"time": 360, "pitch": 62, "duration": 24, "velocity": 64}, {"time": 408, "pitch": 67, "duration": 24, "velocity": 64}, {"time": 432, "pitch": 64, "duration": 24, "velocity": 64}, {"time": 456, "pitch": 64, "duration": 24, "velocity": 64}, {"time": 480, "pitch": 64, "duration": 24, "velocity": 64}, {"time": 504, "pitch": 64, "duration": 24, "velocity": 64}, {"time": 528, "pitch": 64, "duration": 48, "velocity": 64}, {"time": 600, "pitch": 67, "duration": 24, "velocity": 64}, {"time": 624, "pitch": 69, "duration": 36, "velocity": 64}, {"time": 660, "pitch": 67, "duration": 12, "velocity": 64}, {"time": 672, "pitch": 65, "duration": 24, "velocity": 64}, {"time": 696, "pitch": 64, "duration": 24, "velocity": 64}, {"time": 720, "pitch": 64, "duration": 24, "velocity": 64}, {"time": 744, "pitch": 62, "duration": 24, "velocity": 64}, {"time": 792, "pitch": 62, "duration": 12, "velocity": 64}, {"time": 804, "pitch": 64, "duration": 12, "velocity": 64}, {"time": 816, "pitch": 67, "duration": 24, "velocity": 64}, {"time": 840, "pitch": 62, "duration": 12, "velocity": 64}, {"time": 852, "pitch": 64, "duration": 12, "velocity": 64}, {"time": 864, "pitch": 65, "duration": 24, "velocity": 64}, {"time": 888, "pitch": 62, "duration": 12, "velocity": 64}, {"time": 900, "pitch": 64, "duration": 12, "velocity": 64}, {"time": 912, "pitch": 65, "duration": 48, "velocity": 64}, {"time": 984, "pitch": 64, "duration": 12, "velocity": 64}, {"time": 996, "pitch": 65, "duration": 12, "velocity": 64}, {"time": 1008, "pitch": 67, "duration": 24, "velocity": 64}, {"time": 1032, "pitch": 64, "duration": 12, "velocity": 64}, {"time": 1044, "pitch": 65, "duration": 12, "velocity": 64}, {"time": 1056, "pitch": 67, "duration": 24, "velocity": 64}, {"time": 1080, "pitch": 64, "duration": 12, "velocity": 64}, {"time": 1092, "pitch": 65, "duration": 12, "velocity": 64}, {"time": 1104, "pitch": 67, "duration": 48, "velocity": 64}, {"time": 1176, "pitch": 67, "duration": 12, "velocity": 64}, {"time": 1188, "pitch": 65, "duration": 12, "velocity": 64}, {"time": 1200, "pitch": 64, "duration": 24, "velocity": 64}, {"time": 1224, "pitch": 64, "duration": 24, "velocity": 64}, {"time": 1248, "pitch": 72, "duration": 24, "velocity": 64}, {"time": 1272, "pitch": 69, "duration": 24, "velocity": 64}, {"time": 1296, "pitch": 67, "duration": 48, "velocity": 64}, {"time": 1368, "pitch": 67, "duration": 12, "velocity": 64}, {"time": 1380, "pitch": 65, "duration": 12, "velocity": 64}, {"time": 1392, "pitch": 64, "duration": 24, "velocity": 64}, {"time": 1416, "pitch": 64, "duration": 12, "velocity": 64}, {"time": 1428, "pitch": 65, "duration": 12, "velocity": 64}, {"time": 1440, "pitch": 67, "duration": 24, "velocity": 64}, {"time": 1464, "pitch": 67, "duration": 12, "velocity": 64}, {"time": 1476, "pitch": 65, "duration": 12, "velocity": 64}, {"time": 1488, "pitch": 64, "duration": 48, "velocity": 64}]}]}