{"metadata": {"schema_version": "0.1", "title": "Seckauer Jodler", "source_format": "abc"}, "resolution": 24, "tempos": [{"time": 0, "qpm": 120.0}], "key_signatures": [{"time": 0, "root": 0, "mode": "major", "fifths": 0}], "time_signatures": [{"time": 0, "numerator": 3, "denominator": 4}], "beats": [{"time": 0, "is_downbeat": true}, {"time": 24, "is_downbeat": true}, {"time": 48, "is_downbeat": false}, {"time": 72, "is_downbeat": false}, {"time": 96, "is_downbeat": true}, {"time": 120, "is_downbeat": false}, {"time": 144, "is_downbeat": false}, {"time": 168, "is_downbeat": true}, {"time": 192, "is_downbeat": false}, {"time": 216, "is_downbeat": false}, {"time": 240, "is_downbeat": true}, {"time": 264, "is_downbeat": false}, {"time": 288, "is_downbeat": false}, {"time": 312, "is_downbeat": true}, {"time": 336, "is_downbeat": false}, {"time": 360, "is_downbeat": false}, {"time": 384, "is_downbeat": true}, {"time": 408, "is_downbeat": false}, {"time": 432, "is_downbeat": false}, {"time": 456, "is_downbeat": true}, {"time": 480, "is_downbeat": false}, {"time": 504, "is_downbeat": false}, {"time": 528, "is_downbeat": true}, {"time": 552, "is_downbeat": false}, {"time": 576, "is_downbeat": false}, {"time": 600, "is_downbeat": true}, {"time": 624, "is_downbeat": false}, {"time": 648, "is_downbeat": false}, {"time": 672, "is_downbeat": true}, {"time": 696, "is_downbeat": false}, {"time": 720, "is_downbeat": false}, {"time": 744, "is_downbeat": true}, {"time": 768, "is_downbeat": false}, {"time": 792, "is_downbeat": false}], "tracks": [{"program": 0, "is_drum": false, "notes": [{"time": 0, "pitch": 67, "duration": 18, "velocity": 64}, {"time": 18, "pitch": 64, "duration": 6, "velocity": 64}, {"time": 24, "pitch": 67, "duration": 18, "velocity": 64}, {"time": 42, "pitch": 76, "duration": 6, "velocity": 64}, {"time": 48, "pitch": 74, "duration": 12, "velocity": 64}, {"time": 60, "pitch": 74, "duration": 12, "velocity": 64}, {"time": 72, "pitch": 67, "duration": 18, "velocity": 64}, {"time": 90, "pitch": 67, "duration": 6, "velocity": 64}, {"time": 96, "pitch": 64, "duration": 12, "velocity": 64}, {"time": 108, "pitch": 67, "duration": 12, "velocity": 64}, {"time": 120, "pitch": 72, "duration": 24, "velocity": 64}, {"time": 162, "pitch": 64, "duration": 6, "velocity": 64}, {"time": 168, "pitch": 67, "duration": 18, "velocity": 64}, {"time": 186, "pitch": 76, "duration": 6, "velocity": 64}, {"time": 192, "pitch": 74, "duration": 12, "velocity": 64}, {"time": 204, "pitch": 74, "duration": 12, "velocity": 64}, {"time": 216, "pitch": 67, "duration": 18, "velocity": 64}, {"time": 234, "pitch": 67, "duration": 6, "velocity": 64}, {"time": 240, "pitch": 64, "duration": 12, "velocity": 64}, {"time": 252, "pitch": 67, "duration": 12, "velocity": 64}, {"time": 264, "pitch": 72, "duration": 24, "velocity": 64}, {"time": 306, "pitch": 64, "duration": 6, "velocity": 64}, {"time": 312, "pitch": 67, "duration": 18, "velocity": 64}, {"time": 330, "pitch": 76, "duration": 6, "velocity": 64}, {"time": 336, "pitch": 74, "duration": 12, "velocity": 64}, {"time": 348, "pitch": 74, "duration": 12, "velocity": 64}, {"time": 360, "pitch": 67, "duration": 18, "velocity": 64}, {"time": 378, "pitch": 67, "duration": 6, "velocity": 64}, {"time": 384, "pitch": 72, "duration": 18, "velocity": 64}, {"time": 402, "pitch": 79, "duration": 6, "velocity": 64}, {"time": 408, "pitch": 76, "duration": 12, "velocity": 64}, {"time": 420, "pitch": 76, "duration": 12, "velocity": 64}, {"time": 432, "pitch": 72, "duration": 18, "velocity": 64}, {"time": 450, "pitch": 72, "duration": 6, "velocity": 64}, {"time": 456, "pitch": 67, "duration": 18, "velocity": 64}, {"time": 474, "pitch": 76, "duration": 6, "velocity": 64}, {"time": 480, "pitch": 74, "duration": 12, "velocity": 64}, {"time": 492, "pitch": 74, "duration": 12, "velocity": 64}, {"time": 504, "pitch": 67, "duration": 18, "velocity": 64}, {"time": 522, "pitch": 67, "duration": 6, "velocity": 64}, {"time": 528, "pitch": 72, "duration": 18, "velocity": 64}, {"time": 546, "pitch": 79, "duration": 6, "velocity": 64}, {"time": 552, "pitch": 76, "duration": 12, "velocity": 64}, {"time": 564, "pitch": 76, "duration": 12, "velocity": 64}, {"time": 576, "pitch": 72, "duration": 18, "velocity": 64}, {"time": 594, "pitch": 72, "duration": 6, "velocity": 64}, {"time": 600, "pitch": 67, "duration": 18, "velocity": 64}, {"time": 618, "pitch": 76, "duration": 6, "velocity": 64}, {"time": 624, "pitch": 74, "duration": 12, "velocity": 64}, {"time": 636, "pitch": 74, "duration": 12, "velocity": 64}, {"time": 648, "pitch": 67, "duration": 18, "velocity": 64}, {"time": 666, "pitch": 67, "duration": 6, "velocity": 64}, {"time": 672, "pitch": 64, "duration": 18, "velocity": 64}, {"time": 690, "pitch": 67, "duration": 6, "velocity": 64}, {"time": 696, "pitch": 72, "duration": 18, "velocity": 64}, {"time": 714, "pitch": 74, "duration": 6, "velocity": 64}, {"time": 720, "pitch": 76, "duration": 18, "velocity": 64}, {"time": 738, "pitch": 74, "duration": 6, "velocity": 64}, {"time": 744, "pitch": 72, "duration": 48, "velocity": 64}]}]}