{"metadata": {"schema_version": "0.1", "title": "Des Morgens in der Fruehe", "source_format": "abc"}, "resolution": 24, "tempos": [{"time": 0, "qpm": 120.0}], "key_signatures": [{"time": 0, "root": 10, "mode": "major", "fifths": -2}], "time_signatures": [{"time": 0, "numerator": 4, "denominator": 4}, {"time": 1956, "numerator": 1, "denominator": 4}, {"time": 1980, "numerator": 3, "denominator": 4}], "beats": [{"time": 0, "is_downbeat": true}, {"time": 12, "is_downbeat": true}, {"time": 36, "is_downbeat": true}, {"time": 60, "is_downbeat": true}, {"time": 84, "is_downbeat": true}, {"time": 108, "is_downbeat": true}, {"time": 132, "is_downbeat": true}, {"time": 156, "is_downbeat": true}, {"time": 180, "is_downbeat": true}, {"time": 204, "is_downbeat": true}, {"time": 228, "is_downbeat": true}, {"time": 252, "is_downbeat": true}, {"time": 276, "is_downbeat": true}, {"time": 300, "is_downbeat": true}, {"time": 324, "is_downbeat": true}, {"time": 348, "is_downbeat": true}, {"time": 372, "is_downbeat": true}, {"time": 396, "is_downbeat": true}, {"time": 420, "is_downbeat": true}, {"time": 444, "is_downbeat": true}, {"time": 468, "is_downbeat": true}, {"time": 492, "is_downbeat": true}, {"time": 516, "is_downbeat": true}, {"time": 540, "is_downbeat": true}, {"time": 564, "is_downbeat": true}, {"time": 588, "is_downbeat": true}, {"time": 612, "is_downbeat": true}, {"time": 636, "is_downbeat": true}, {"time": 660, "is_downbeat": true}, {"time": 684, "is_downbeat": true}, {"time": 708, "is_downbeat": true}, {"time": 732, "is_downbeat": true}, {"time": 756, "is_downbeat": true}, {"time": 780, "is_downbeat": true}, {"time": 804, "is_downbeat": true}, {"time": 828, "is_downbeat": true}, {"time": 852, "is_downbeat": true}, {"time": 876, "is_downbeat": true}, {"time": 900, "is_downbeat": true}, {"time": 924, "is_downbeat": true}, {"time": 948, "is_downbeat": true}, {"time": 972, "is_downbeat": true}, {"time": 996, "is_downbeat": true}, {"time": 1020, "is_downbeat": true}, {"time": 1044, "is_downbeat": true}, {"time": 1068, "is_downbeat": true}, {"time": 1092, "is_downbeat": true}, {"time": 1116, "is_downbeat": true}, {"time": 1140, "is_downbeat": true}, {"time": 1164, "is_downbeat": true}, {"time": 1188, "is_downbeat": true}, {"time": 1212, "is_downbeat": true}, {"time": 1236, "is_downbeat": true}, {"time": 1260, "is_downbeat": true}, {"time": 1284, "is_downbeat": true}, {"time": 1308, "is_downbeat": true}, {"time": 1332, "is_downbeat": true}, {"time": 1356, "is_downbeat": true}, {"time": 1380, "is_downbeat": true}, {"time": 1404, "is_downbeat": true}, {"time": 1428, "is_downbeat": true}, {"time": 1452, "is_downbeat": true}, {"time": 1476, "is_downbeat": true}, {"time": 1500, "is_downbeat": true}, {"time": 1524, "is_downbeat": true}, {"time": 1548, "is_downbeat": true}, {"time": 1572, "is_downbeat": true}, {"time": 1596, "is_downbeat": true}, {"time": 1620, "is_downbeat": true}, {"time": 1644, "is_downbeat": true}, {"time": 1668, "is_downbeat": true}, {"time": 1692, "is_downbeat": true}, {"time": 1716, "is_downbeat": true}, {"time": 1740, "is_downbeat": true}, {"time": 1764, "is_downbeat": true}, {"time": 1788, "is_downbeat": true}, {"time": 1812, "is_downbeat": true}, {"time": 1836, "is_downbeat": true}, {"time": 1860, "is_downbeat": true}, {"time": 1884, "is_downbeat": true}, {"time": 1908, "is_downbeat": true}, {"time": 1932, "is_downbeat": true}, {"time": 1956, "is_downbeat": true}, {"time": 1980, "is_downbeat": true}, {"time": 2004, "is_downbeat": false}, {"time": 2028, "is_downbeat": false}], "tracks": [{"program": 0, "is_drum": false, "notes": [{"time": 0, "pitch": 65, "duration": 12, "velocity": 64}, {"time": 12, "pitch": 65, "duration": 36, "velocity": 64}, {"time": 48, "pitch": 62, "duration": 12, "velocity": 64}, {"time": 60, "pitch": 63, "duration": 12, "velocity": 64}, {"time": 72, "pitch": 67, "duration": 12, "velocity": 64}, {"time": 84, "pitch": 65, "duration": 12, "velocity": 64}, {"time": 96, "pitch": 74, "duration": 12, "velocity": 64}, {"time": 108, "pitch": 70, "duration": 12, "velocity": 64}, {"time": 126, "pitch": 65, "duration": 6, "velocity": 64}, {"time": 132, "pitch": 65, "duration": 8, "velocity": 64}, {"time": 140, "pitch": 69, "duration": 8, "velocity": 64}, {"time": 148, "pitch": 72, "duration": 8, "velocity": 64}, {"time": 156, "pitch": 77, "duration": 12, "velocity": 64}, {"time": 168, "pitch": 79, "duration": 24, "velocity": 64}, {"time": 192, "pitch": 77, "duration": 12, "velocity": 64}, {"time": 204, "pitch": 75, "duration": 8, "velocity": 64}, {"time": 212, "pitch": 65, "duration": 8, "velocity": 64}, {"time": 220, "pitch": 74, "duration": 8, "velocity": 64}, {"time": 228, "pitch": 70, "duration": 48, "velocity": 64}, {"time": 288, "pitch": 65, "duration": 12, "velocity": 64}, {"time": 300, "pitch": 65, "duration": 36, "velocity": 64}, {"time": 336, "pitch": 62, "duration": 12, "velocity": 64}, {"time": 348, "pitch": 63, "duration": 12, "velocity": 64}, {"time": 360, "pitch": 67, "duration": 12, "velocity": 64}, {"time": 372, "pitch": 65, "duration": 12, "velocity": 64}, {"time": 384, "pitch": 74, "duration": 12, "velocity": 64}, {"time": 396, "pitch": 70, "duration": 12, "velocity": 64}, {"time": 414, "pitch": 60, "duration": 6, "velocity": 64}, {"time": 420, "pitch": 60, "duration": 8, "velocity": 64}, {"time": 428, "pitch": 63, "duration": 8, "velocity": 64}, {"time": 436, "pitch": 67, "duration": 8, "velocity": 64}, {"time": 444, "pitch": 72, "duration": 12, "velocity": 64}, {"time": 456, "pitch": 74, "duration": 24, "velocity": 64}, {"time": 480, "pitch": 72, "duration": 12, "velocity": 64}, {"time": 492, "pitch": 70, "duration": 8, "velocity": 64}, {"time": 500, "pitch": 65, "duration": 8, "velocity": 64}, {"time": 508, "pitch": 69, "duration": 8, "velocity": 64}, {"time": 516, "pitch": 65, "duration": 48, "velocity": 64}, {"time": 576, "pitch": 65, "duration": 12, "velocity": 64}, {"time": 588, "pitch": 63, "duration": 12, "velocity": 64}, {"time": 600, "pitch": 72, "duration": 12, "velocity": 64}, {"time": 612, "pitch": 70, "duration": 24, "velocity": 64}, {"time": 636, "pitch": 69, "duration": 24, "velocity": 64}, {"time": 660, "pitch": 70, "duration": 24, "velocity": 64}, {"time": 684, "pitch": 65, "duration": 24, "velocity": 64}, {"time": 708, "pitch": 60, "duration": 12, "velocity": 64}, {"time": 720, "pitch": 62, "duration": 12, "velocity": 64}, {"time": 732, "pitch": 63, "duration": 12, "velocity": 64}, {"time": 744, "pitch": 72, "duration": 12, "velocity": 64}, {"time": 756, "pitch": 67, "duration": 24, "velocity": 64}, {"time": 780, "pitch": 69, "duration": 24, "velocity": 64}, {"time": 804, "pitch": 70, "duration": 48, "velocity": 64}, {"time": 864, "pitch": 70, "duration": 12, "velocity": 64}, {"time": 876, "pitch": 63, "duration": 36, "velocity": 64}, {"time": 912, "pitch": 67, "duration": 12, "velocity": 64}, {"time": 924, "pitch": 72, "duration": 6, "velocity": 64}, {"time": 930, "pitch": 70, "duration": 6, "velocity": 64}, {"time": 936, "pitch": 69, "duration": 6, "velocity": 64}, {"time": 942, "pitch": 67, "duration": 6, "velocity": 64}, {"time": 948, "pitch": 65, "duration": 12, "velocity": 64}, {"time": 960, "pitch": 70, "duration": 12, "velocity": 64}, {"time": 972, "pitch": 65, "duration": 24, "velocity": 64}, {"time": 1008, "pitch": 72, "duration": 12, "velocity": 64}, {"time": 1020, "pitch": 65, "duration": 18, "velocity": 64}, {"time": 1038, "pitch": 65, "duration": 6, "velocity": 64}, {"time": 1044, "pitch": 67, "duration": 24, "velocity": 64}, {"time": 1068, "pitch": 69, "duration": 24, "velocity": 64}, {"time": 1092, "pitch": 70, "duration": 12, "velocity": 64}, {"time": 1104, "pitch": 72, "duration": 12, "velocity": 64}, {"time": 1116, "pitch": 74, "duration": 12, "velocity": 64}, {"time": 1128, "pitch": 72, "duration": 12, "velocity": 64}, {"time": 1140, "pitch": 70, "duration": 18, "velocity": 64}, {"time": 1158, "pitch": 69, "duration": 6, "velocity": 64}, {"time": 1164, "pitch": 67, "duration": 36, "velocity": 64}, {"time": 1200, "pitch": 69, "duration": 12, "velocity": 64}, {"time": 1212, "pitch": 72, "duration": 6, "velocity": 64}, {"time": 1218, "pitch": 70, "duration": 6, "velocity": 64}, {"time": 1224, "pitch": 69, "duration": 6, "velocity": 64}, {"time": 1230, "pitch": 67, "duration": 6, "velocity": 64}, {"time": 1236, "pitch": 65, "duration": 12, "velocity": 64}, {"time": 1248, "pitch": 70, "duration": 12, "velocity": 64}, {"time": 1260, "pitch": 65, "duration": 24, "velocity": 64}, {"time": 1296, "pitch": 72, "duration": 12, "velocity": 64}, {"time": 1308, "pitch": 65, "duration": 18, "velocity": 64}, {"time": 1326, "pitch": 65, "duration": 6, "velocity": 64}, {"time": 1332, "pitch": 67, "duration": 24, "velocity": 64}, {"time": 1356, "pitch": 69, "duration": 24, "velocity": 64}, {"time": 1380, "pitch": 70, "duration": 36, "velocity": 64}, {"time": 1416, "pitch": 62, "duration": 12, "velocity": 64}, {"time": 1428, "pitch": 65, "duration": 12, "velocity": 64}, {"time": 1440, "pitch": 70, "duration": 12, "velocity": 64}, {"time": 1452, "pitch": 74, "duration": 18, "velocity": 64}, {"time": 1470, "pitch": 74, "duration": 6, "velocity": 64}, {"time": 1476, "pitch": 74, "duration": 12, "velocity": 64}, {"time": 1488, "pitch": 72, "duration": 12, "velocity": 64}, {"time": 1500, "pitch": 70, "duration": 12, "velocity": 64}, {"time": 1512, "pitch": 67, "duration": 12, "velocity": 64}, {"time": 1524, "pitch": 65, "duration": 18, "velocity": 64}, {"time": 1542, "pitch": 65, "duration": 6, "velocity": 64}, {"time": 1548, "pitch": 65, "duration": 12, "velocity": 64}, {"time": 1560, "pitch": 62, "duration": 12, "velocity": 64}, {"time": 1572, "pitch": 65, "duration": 12, "velocity": 64}, {"time": 1584, "pitch": 70, "duration": 12, "velocity": 64}, {"time": 1596, "pitch": 69, "duration": 18, "velocity": 64}, {"time": 1614, "pitch": 69, "duration": 6, "velocity": 64}, {"time": 1620, "pitch": 69, "duration": 12, "velocity": 64}, {"time": 1632, "pitch": 65, "duration": 12, "velocity": 64}, {"time": 1644, "pitch": 69, "duration": 12, "velocity": 64}, {"time": 1656, "pitch": 72, "duration": 12, "velocity": 64}, {"time": 1668, "pitch": 70, "duration": 18, "velocity": 64}, {"time": 1686, "pitch": 70, "duration": 6, "velocity": 64}, {"time": 1692, "pitch": 70, "duration": 12, "velocity": 64}, {"time": 1704, "pitch": 69, "duration": 12, "velocity": 64}, {"time": 1716, "pitch": 70, "duration": 12, "velocity": 64}, {"time": 1728, "pitch": 72, "duration": 12, "velocity": 64}, {"time": 1740, "pitch": 74, "duration": 18, "velocity": 64}, {"time": 1758, "pitch": 74, "duration": 6, "velocity": 64}, {"time": 1764, "pitch": 74, "duration": 12, "velocity": 64}, {"time": 1776, "pitch": 72, "duration": 12, "velocity": 64}, {"time": 1788, "pitch": 70, "duration": 12, "velocity": 64}, {"time": 1800, "pitch": 67, "duration": 12, "velocity": 64}, {"time": 1812, "pitch": 65, "duration": 18, "velocity": 64}, {"time": 1830, "pitch": 67, "duration": 6, "velocity": 64}, {"time": 1836, "pitch": 65, "duration": 12, "velocity": 64}, {"time": 1854, "pitch": 65, "duration": 6, "velocity": 64}, {"time": 1860, "pitch": 65, "duration": 18, "velocity": 64}, {"time": 1878, "pitch": 70, "duration": 6, "velocity": 64}, {"time": 1884, "pitch": 69, "duration": 12, "velocity": 64}, {"time": 1896, "pitch": 65, "duration": 12, "velocity": 64}, {"time": 1908, "pitch": 77, "duration": 12, "velocity": 64}, {"time": 1920, "pitch": 75, "duration": 12, "velocity": 64}, {"time": 1932, "pitch": 79, "duration": 12, "velocity": 64}, {"time": 1944, "pitch": 77, "duration": 12, "velocity": 64}, {"time": 1956, "pitch": 75, "duration": 12, "velocity": 64}, {"time": 1968, "pitch": 69, "duration": 12, "velocity": 64}, {"time": 1980, "pitch": 70, "duration": 48, "velocity": 64}]}]}