{"metadata": {"schema_version": "0.1", "title": "La Paloma", "source_format": "abc"}, "resolution": 24, "tempos": [{"time": 0, "qpm": 120.0}], "key_signatures": [{"time": 0, "root": 0, "mode": "major", "fifths": 0}], "time_signatures": [{"time": 0, "numerator": 2, "denominator": 4}], "beats": [{"time": 0, "is_downbeat": true}, {"time": 12, "is_downbeat": true}, {"time": 36, "is_downbeat": false}, {"time": 60, "is_downbeat": true}, {"time": 84, "is_downbeat": false}, {"time": 108, "is_downbeat": true}, {"time": 132, "is_downbeat": false}, {"time": 156, "is_downbeat": true}, {"time": 180, "is_downbeat": false}, {"time": 204, "is_downbeat": true}, {"time": 228, "is_downbeat": false}, {"time": 252, "is_downbeat": true}, {"time": 276, "is_downbeat": false}, {"time": 300, "is_downbeat": true}, {"time": 324, "is_downbeat": false}, {"time": 348, "is_downbeat": true}, {"time": 372, "is_downbeat": false}, {"time": 396, "is_downbeat": true}, {"time": 420, "is_downbeat": false}, {"time": 444, "is_downbeat": true}, {"time": 468, "is_downbeat": false}, {"time": 492, "is_downbeat": true}, {"time": 516, "is_downbeat": false}, {"time": 540, "is_downbeat": true}, {"time": 564, "is_downbeat": false}, {"time": 588, "is_downbeat": true}, {"time": 612, "is_downbeat": false}, {"time": 636, "is_downbeat": true}, {"time": 660, "is_downbeat": false}, {"time": 684, "is_downbeat": true}, {"time": 708, "is_downbeat": false}, {"time": 732, "is_downbeat": true}, {"time": 756, "is_downbeat": false}, {"time": 780, "is_downbeat": true}, {"time": 804, "is_downbeat": false}, {"time": 828, "is_downbeat": true}, {"time": 852, "is_downbeat": false}, {"time": 876, "is_downbeat": true}, {"time": 900, "is_downbeat": false}, {"time": 924, "is_downbeat": true}, {"time": 948, "is_downbeat": false}, {"time": 972, "is_downbeat": true}, {"time": 996, "is_downbeat": false}, {"time": 1020, "is_downbeat": true}, {"time": 1044, "is_downbeat": false}, {"time": 1068, "is_downbeat": true}, {"time": 1092, "is_downbeat": false}, {"time": 1116, "is_downbeat": true}, {"time": 1140, "is_downbeat": false}, {"time": 1164, "is_downbeat": true}, {"time": 1188, "is_downbeat": false}, {"time": 1212, "is_downbeat": true}, {"time": 1236, "is_downbeat": false}, {"time": 1260, "is_downbeat": true}, {"time": 1284, "is_downbeat": false}, {"time": 1308, "is_downbeat": true}, {"time": 1332, "is_downbeat": false}, {"time": 1356, "is_downbeat": true}, {"time": 1380, "is_downbeat": false}, {"time": 1404, "is_downbeat": true}, {"time": 1428, "is_downbeat": false}, {"time": 1452, "is_downbeat": true}, {"time": 1476, "is_downbeat": false}, {"time": 1500, "is_downbeat": true}, {"time": 1524, "is_downbeat": false}, {"time": 1548, "is_downbeat": true}, {"time": 1572, "is_downbeat": false}, {"time": 1596, "is_downbeat": true}, {"time": 1620, "is_downbeat": false}, {"time": 1644, "is_downbeat": true}, {"time": 1668, "is_downbeat": false}, {"time": 1692, "is_downbeat": true}, {"time": 1716, "is_downbeat": false}, {"time": 1740, "is_downbeat": true}, {"time": 1764, "is_downbeat": false}, {"time": 1788, "is_downbeat": true}, {"time": 1812, "is_downbeat": false}, {"time": 1836, "is_downbeat": true}, {"time": 1860, "is_downbeat": false}, {"time": 1884, "is_downbeat": true}, {"time": 1908, "is_downbeat": false}, {"time": 1932, "is_downbeat": true}, {"time": 1956, "is_downbeat": false}, {"time": 1980, "is_downbeat": true}, {"time": 2004, "is_downbeat": false}, {"time": 2028, "is_downbeat": true}, {"time": 2052, "is_downbeat": false}, {"time": 2076, "is_downbeat": true}, {"time": 2100, "is_downbeat": false}, {"time": 2124, "is_downbeat": true}, {"time": 2148, "is_downbeat": false}, {"time": 2172, "is_downbeat": true}, {"time": 2196, "is_downbeat": false}, {"time": 2220, "is_downbeat": true}, {"time": 2244, "is_downbeat": false}, {"time": 2268, "is_downbeat": true}, {"time": 2292, "is_downbeat": false}, {"time": 2316, "is_downbeat": true}, {"time": 2340, "is_downbeat": false}, {"time": 2364, "is_downbeat": true}, {"time": 2388, "is_downbeat": false}], "tracks": [{"program": 0, "is_drum": false, "notes": [{"time": 0, "pitch": 67, "duration": 12, "velocity": 64}, {"time": 12, "pitch": 67, "duration": 48, "velocity": 64}, {"time": 60, "pitch": 67, "duration": 6, "velocity": 64}, {"time": 66, "pitch": 64, "duration": 12, "velocity": 64}, {"time": 78, "pitch": 65, "duration": 6, "velocity": 64}, {"time": 84, "pitch": 67, "duration": 12, "velocity": 64}, {"time": 96, "pitch": 69, "duration": 12, "velocity": 64}, {"time": 108, "pitch": 71, "duration": 6, "velocity": 64}, {"time": 114, "pitch": 72, "duration": 12, "velocity": 64}, {"time": 126, "pitch": 69, "duration": 6, "velocity": 64}, {"time": 132, "pitch": 71, "duration": 12, "velocity": 64}, {"time": 144, "pitch": 67, "duration": 12, "velocity": 64}, {"time": 156, "pitch": 65, "duration": 72, "velocity": 64}, {"time": 240, "pitch": 67, "duration": 12, "velocity": 64}, {"time": 252, "pitch": 74, "duration": 60, "velocity": 64}, {"time": 312, "pitch": 76, "duration": 12, "velocity": 64}, {"time": 324, "pitch": 72, "duration": 6, "velocity": 64}, {"time": 330, "pitch": 74, "duration": 6, "velocity": 64}, {"time": 336, "pitch": 71, "duration": 12, "velocity": 64}, {"time": 348, "pitch": 72, "duration": 6, "velocity": 64}, {"time": 354, "pitch": 71, "duration": 12, "velocity": 64}, {"time": 366, "pitch": 69, "duration": 6, "velocity": 64}, {"time": 372, "pitch": 67, "duration": 12, "velocity": 64}, {"time": 384, "pitch": 65, "duration": 12, "velocity": 64}, {"time": 396, "pitch": 64, "duration": 72, "velocity": 64}, {"time": 480, "pitch": 67, "duration": 12, "velocity": 64}, {"time": 492, "pitch": 67, "duration": 54, "velocity": 64}, {"time": 546, "pitch": 64, "duration": 12, "velocity": 64}, {"time": 558, "pitch": 65, "duration": 6, "velocity": 64}, {"time": 564, "pitch": 67, "duration": 12, "velocity": 64}, {"time": 576, "pitch": 69, "duration": 12, "velocity": 64}, {"time": 588, "pitch": 71, "duration": 6, "velocity": 64}, {"time": 594, "pitch": 72, "duration": 12, "velocity": 64}, {"time": 606, "pitch": 69, "duration": 6, "velocity": 64}, {"time": 612, "pitch": 71, "duration": 12, "velocity": 64}, {"time": 624, "pitch": 67, "duration": 12, "velocity": 64}, {"time": 636, "pitch": 65, "duration": 72, "velocity": 64}, {"time": 720, "pitch": 67, "duration": 12, "velocity": 64}, {"time": 732, "pitch": 74, "duration": 54, "velocity": 64}, {"time": 786, "pitch": 76, "duration": 12, "velocity": 64}, {"time": 798, "pitch": 72, "duration": 6, "velocity": 64}, {"time": 804, "pitch": 74, "duration": 12, "velocity": 64}, {"time": 816, "pitch": 71, "duration": 12, "velocity": 64}, {"time": 828, "pitch": 72, "duration": 6, "velocity": 64}, {"time": 834, "pitch": 71, "duration": 12, "velocity": 64}, {"time": 846, "pitch": 69, "duration": 6, "velocity": 64}, {"time": 852, "pitch": 67, "duration": 12, "velocity": 64}, {"time": 864, "pitch": 65, "duration": 12, "velocity": 64}, {"time": 876, "pitch": 64, "duration": 48, "velocity": 64}, {"time": 924, "pitch": 72, "duration": 6, "velocity": 64}, {"time": 930, "pitch": 72, "duration": 12, "velocity": 64}, {"time": 942, "pitch": 72, "duration": 6, "velocity": 64}, {"time": 948, "pitch": 72, "duration": 12, "velocity": 64}, {"time": 960, "pitch": 71, "duration": 12, "velocity": 64}, {"time": 972, "pitch": 74, "duration": 6, "velocity": 64}, {"time": 978, "pitch": 74, "duration": 12, "velocity": 64}, {"time": 990, "pitch": 72, "duration": 6, "velocity": 64}, {"time": 996, "pitch": 71, "duration": 12, "velocity": 64}, {"time": 1008, "pitch": 69, "duration": 12, "velocity": 64}, {"time": 1020, "pitch": 69, "duration": 12, "velocity": 64}, {"time": 1032, "pitch": 67, "duration": 84, "velocity": 64}, {"time": 1116, "pitch": 71, "duration": 6, "velocity": 64}, {"time": 1122, "pitch": 71, "duration": 12, "velocity": 64}, {"time": 1134, "pitch": 71, "duration": 6, "velocity": 64}, {"time": 1140, "pitch": 71, "duration": 12, "velocity": 64}, {"time": 1152, "pitch": 69, "duration": 12, "velocity": 64}, {"time": 1164, "pitch": 69, "duration": 6, "velocity": 64}, {"time": 1170, "pitch": 67, "duration": 12, "velocity": 64}, {"time": 1182, "pitch": 67, "duration": 6, "velocity": 64}, {"time": 1188, "pitch": 67, "duration": 12, "velocity": 64}, {"time": 1200, "pitch": 69, "duration": 12, "velocity": 64}, {"time": 1212, "pitch": 67, "duration": 6, "velocity": 64}, {"time": 1218, "pitch": 65, "duration": 6, "velocity": 64}, {"time": 1224, "pitch": 64, "duration": 84, "velocity": 64}, {"time": 1308, "pitch": 72, "duration": 6, "velocity": 64}, {"time": 1314, "pitch": 72, "duration": 12, "velocity": 64}, {"time": 1326, "pitch": 72, "duration": 6, "velocity": 64}, {"time": 1332, "pitch": 72, "duration": 12, "velocity": 64}, {"time": 1344, "pitch": 71, "duration": 12, "velocity": 64}, {"time": 1356, "pitch": 74, "duration": 6, "velocity": 64}, {"time": 1362, "pitch": 74, "duration": 12, "velocity": 64}, {"time": 1374, "pitch": 72, "duration": 6, "velocity": 64}, {"time": 1380, "pitch": 71, "duration": 12, "velocity": 64}, {"time": 1392, "pitch": 69, "duration": 12, "velocity": 64}, {"time": 1404, "pitch": 69, "duration": 12, "velocity": 64}, {"time": 1416, "pitch": 67, "duration": 84, "velocity": 64}, {"time": 1500, "pitch": 71, "duration": 6, "velocity": 64}, {"time": 1506, "pitch": 71, "duration": 12, "velocity": 64}, {"time": 1518, "pitch": 71, "duration": 6, "velocity": 64}, {"time": 1524, "pitch": 71, "duration": 12, "velocity": 64}, {"time": 1536, "pitch": 69, "duration": 12, "velocity": 64}, {"time": 1548, "pitch": 69, "duration": 6, "velocity": 64}, {"time": 1554, "pitch": 67, "duration": 12, "velocity": 64}, {"time": 1566, "pitch": 67, "duration": 6, "velocity": 64}, {"time": 1572, "pitch": 67, "duration": 12, "velocity": 64}, {"time": 1584, "pitch": 69, "duration": 12, "velocity": 64}, {"time": 1596, "pitch": 67, "duration": 6, "velocity": 64}, {"time": 1602, "pitch": 65, "duration": 6, "velocity": 64}, {"time": 1608, "pitch": 64, "duration": 48, "velocity": 64}, {"time": 1656, "pitch": 67, "duration": 6, "velocity": 64}, {"time": 1662, "pitch": 67, "duration": 6, "velocity": 64}, {"time": 1668, "pitch": 67, "duration": 6, "velocity": 64}, {"time": 1674, "pitch": 69, "duration": 12, "velocity": 64}, {"time": 1686, "pitch": 66, "duration": 6, "velocity": 64}, {"time": 1692, "pitch": 67, "duration": 48, "velocity": 64}, {"time": 1752, "pitch": 67, "duration": 6, "velocity": 64}, {"time": 1758, "pitch": 67, "duration": 6, "velocity": 64}, {"time": 1764, "pitch": 67, "duration": 6, "velocity": 64}, {"time": 1770, "pitch": 67, "duration": 12, "velocity": 64}, {"time": 1782, "pitch": 69, "duration": 6, "velocity": 64}, {"time": 1788, "pitch": 71, "duration": 24, "velocity": 64}, {"time": 1812, "pitch": 74, "duration": 30, "velocity": 64}, {"time": 1842, "pitch": 76, "duration": 12, "velocity": 64}, {"time": 1854, "pitch": 72, "duration": 6, "velocity": 64}, {"time": 1860, "pitch": 74, "duration": 6, "velocity": 64}, {"time": 1866, "pitch": 71, "duration": 12, "velocity": 64}, {"time": 1878, "pitch": 72, "duration": 6, "velocity": 64}, {"time": 1884, "pitch": 69, "duration": 6, "velocity": 64}, {"time": 1890, "pitch": 71, "duration": 12, "velocity": 64}, {"time": 1902, "pitch": 72, "duration": 6, "velocity": 64}, {"time": 1908, "pitch": 76, "duration": 18, "velocity": 64}, {"time": 1926, "pitch": 74, "duration": 6, "velocity": 64}, {"time": 1932, "pitch": 62, "duration": 6, "velocity": 64}, {"time": 1938, "pitch": 64, "duration": 12, "velocity": 64}, {"time": 1950, "pitch": 65, "duration": 6, "velocity": 64}, {"time": 1956, "pitch": 69, "duration": 18, "velocity": 64}, {"time": 1974, "pitch": 67, "duration": 6, "velocity": 64}, {"time": 1980, "pitch": 64, "duration": 48, "velocity": 64}, {"time": 2040, "pitch": 67, "duration": 6, "velocity": 64}, {"time": 2046, "pitch": 67, "duration": 6, "velocity": 64}, {"time": 2052, "pitch": 67, "duration": 6, "velocity": 64}, {"time": 2058, "pitch": 69, "duration": 12, "velocity": 64}, {"time": 2070, "pitch": 66, "duration": 6, "velocity": 64}, {"time": 2076, "pitch": 67, "duration": 48, "velocity": 64}, {"time": 2136, "pitch": 67, "duration": 6, "velocity": 64}, {"time": 2142, "pitch": 67, "duration": 6, "velocity": 64}, {"time": 2148, "pitch": 67, "duration": 6, "velocity": 64}, {"time": 2154, "pitch": 67, "duration": 12, "velocity": 64}, {"time": 2166, "pitch": 69, "duration": 6, "velocity": 64}, {"time": 2172, "pitch": 71, "duration": 24, "velocity": 64}, {"time": 2196, "pitch": 74, "duration": 30, "velocity": 64}, {"time": 2226, "pitch": 77, "duration": 12, "velocity": 64}, {"time": 2238, "pitch": 76, "duration": 6, "velocity": 64}, {"time": 2244, "pitch": 74, "duration": 6, "velocity": 64}, {"time": 2250, "pitch": 76, "duration": 12, "velocity": 64}, {"time": 2262, "pitch": 72, "duration": 6, "velocity": 64}, {"time": 2268, "pitch": 74, "duration": 6, "velocity": 64}, {"time": 2274, "pitch": 71, "duration": 12, "velocity": 64}, {"time": 2286, "pitch": 72, "duration": 6, "velocity": 64}, {"time": 2292, "pitch": 76, "duration": 18, "velocity": 64}, {"time": 2310, "pitch": 74, "duration": 6, "velocity": 64}, {"time": 2316, "pitch": 62, "duration": 6, "velocity": 64}, {"time": 2322, "pitch": 64, "duration": 12, "velocity": 64}, {"time": 2334, "pitch": 65, "duration": 6, "velocity": 64}, {"time": 2340, "pitch": 69, "duration": 18, "velocity": 64}, {"time": 2358, "pitch": 67, "duration": 6, "velocity": 64}, {"time": 2364, "pitch": 72, "duration": 36, "velocity": 64}]}]}