{"metadata": {"schema_version": "0.1", "title": "Lied der Siegerlaender Hammerschmiede", "source_format": "abc"}, "resolution": 24, "tempos": [{"time": 0, "qpm": 120.0}], "key_signatures": [{"time": 0, "root": 7, "mode": "major", "fifths": 1}], "time_signatures": [{"time": 0, "numerator": 4, "denominator": 4}, {"time": 372, "numerator": 1, "denominator": 4}, {"time": 468, "numerator": 5, "denominator": 4}, {"time": 660, "numerator": 1, "denominator": 4}, {"time": 756, "numerator": 5, "denominator": 4}, {"time": 948, "numerator": 4, "denominator": 4}, {"time": 1044, "numerator": 6, "denominator": 8}], "beats": [{"time": 0, "is_downbeat": true}, {"time": 12, "is_downbeat": true}, {"time": 36, "is_downbeat": true}, {"time": 60, "is_downbeat": true}, {"time": 84, "is_downbeat": true}, {"time": 108, "is_downbeat": true}, {"time": 132, "is_downbeat": true}, {"time": 156, "is_downbeat": true}, {"time": 180, "is_downbeat": true}, {"time": 204, "is_downbeat": true}, {"time": 228, "is_downbeat": true}, {"time": 252, "is_downbeat": true}, {"time": 276, "is_downbeat": true}, {"time": 300, "is_downbeat": true}, {"time": 324, "is_downbeat": true}, {"time": 348, "is_downbeat": true}, {"time": 372, "is_downbeat": true}, {"time": 396, "is_downbeat": true}, {"time": 420, "is_downbeat": false}, {"time": 444, "is_downbeat": false}, {"time": 468, "is_downbeat": true}, {"time": 492, "is_downbeat": true}, {"time": 516, "is_downbeat": true}, {"time": 540, "is_downbeat": true}, {"time": 564, "is_downbeat": true}, {"time": 588, "is_downbeat": true}, {"time": 612, "is_downbeat": true}, {"time": 636, "is_downbeat": true}, {"time": 660, "is_downbeat": true}, {"time": 684, "is_downbeat": true}, {"time": 708, "is_downbeat": false}, {"time": 732, "is_downbeat": false}, {"time": 756, "is_downbeat": true}, {"time": 780, "is_downbeat": false}, {"time": 804, "is_downbeat": false}, {"time": 828, "is_downbeat": false}, {"time": 852, "is_downbeat": true}, {"time": 876, "is_downbeat": true}, {"time": 900, "is_downbeat": false}, {"time": 924, "is_downbeat": false}, {"time": 948, "is_downbeat": true}, {"time": 960, "is_downbeat": false}, {"time": 972, "is_downbeat": false}, {"time": 984, "is_downbeat": false}, {"time": 996, "is_downbeat": false}, {"time": 1008, "is_downbeat": false}, {"time": 1020, "is_downbeat": true}, {"time": 1032, "is_downbeat": false}, {"time": 1044, "is_downbeat": true}, {"time": 1056, "is_downbeat": false}, {"time": 1068, "is_downbeat": false}, {"time": 1080, "is_downbeat": false}, {"time": 1092, "is_downbeat": false}, {"time": 1104, "is_downbeat": false}, {"time": 1116, "is_downbeat": true}, {"time": 1128, "is_downbeat": false}, {"time": 1140, "is_downbeat": false}, {"time": 1152, "is_downbeat": false}, {"time": 1164, "is_downbeat": false}, {"time": 1176, "is_downbeat": false}, {"time": 1188, "is_downbeat": true}, {"time": 1200, "is_downbeat": false}, {"time": 1212, "is_downbeat": false}, {"time": 1224, "is_downbeat": false}, {"time": 1236, "is_downbeat": false}, {"time": 1248, "is_downbeat": false}, {"time": 1260, "is_downbeat": true}, {"time": 1272, "is_downbeat": false}, {"time": 1284, "is_downbeat": false}, {"time": 1296, "is_downbeat": false}, {"time": 1308, "is_downbeat": false}, {"time": 1320, "is_downbeat": false}, {"time": 1332, "is_downbeat": true}, {"time": 1344, "is_downbeat": false}, {"time": 1356, "is_downbeat": false}, {"time": 1368, "is_downbeat": false}, {"time": 1380, "is_downbeat": false}, {"time": 1392, "is_downbeat": false}, {"time": 1404, "is_downbeat": true}, {"time": 1416, "is_downbeat": false}, {"time": 1428, "is_downbeat": false}, {"time": 1440, "is_downbeat": false}, {"time": 1452, "is_downbeat": false}, {"time": 1464, "is_downbeat": false}, {"time": 1476, "is_downbeat": true}, {"time": 1488, "is_downbeat": false}, {"time": 1500, "is_downbeat": false}, {"time": 1512, "is_downbeat": false}, {"time": 1524, "is_downbeat": false}, {"time": 1536, "is_downbeat": false}], "tracks": [{"program": 0, "is_drum": false, "notes": [{"time": 0, "pitch": 62, "duration": 12, "velocity": 64}, {"time": 12, "pitch": 67, "duration": 24, "velocity": 64}, {"time": 36, "pitch": 67, "duration": 12, "velocity": 64}, {"time": 48, "pitch": 67, "duration": 12, "velocity": 64}, {"time": 60, "pitch": 66, "duration": 12, "velocity": 64}, {"time": 72, "pitch": 64, "duration": 12, "velocity": 64}, {"time": 84, "pitch": 62, "duration": 36, "velocity": 64}, {"time": 120, "pitch": 59, "duration": 24, "velocity": 64}, {"time": 144, "pitch": 62, "duration": 12, "velocity": 64}, {"time": 156, "pitch": 67, "duration": 12, "velocity": 64}, {"time": 168, "pitch": 67, "duration": 12, "velocity": 64}, {"time": 180, "pitch": 67, "duration": 12, "velocity": 64}, {"time": 192, "pitch": 67, "duration": 12, "velocity": 64}, {"time": 204, "pitch": 66, "duration": 12, "velocity": 64}, {"time": 216, "pitch": 64, "duration": 12, "velocity": 64}, {"time": 228, "pitch": 62, "duration": 36, "velocity": 64}, {"time": 264, "pitch": 59, "duration": 24, "velocity": 64}, {"time": 300, "pitch": 71, "duration": 24, "velocity": 64}, {"time": 324, "pitch": 71, "duration": 24, "velocity": 64}, {"time": 348, "pitch": 71, "duration": 12, "velocity": 64}, {"time": 360, "pitch": 71, "duration": 12, "velocity": 64}, {"time": 372, "pitch": 71, "duration": 24, "velocity": 64}, {"time": 396, "pitch": 71, "duration": 12, "velocity": 64}, {"time": 408, "pitch": 71, "duration": 12, "velocity": 64}, {"time": 420, "pitch": 76, "duration": 12, "velocity": 64}, {"time": 432, "pitch": 74, "duration": 12, "velocity": 64}, {"time": 444, "pitch": 74, "duration": 24, "velocity": 64}, {"time": 468, "pitch": 72, "duration": 24, "velocity": 64}, {"time": 492, "pitch": 69, "duration": 12, "velocity": 64}, {"time": 504, "pitch": 69, "duration": 12, "velocity": 64}, {"time": 516, "pitch": 69, "duration": 24, "velocity": 64}, {"time": 540, "pitch": 69, "duration": 12, "velocity": 64}, {"time": 552, "pitch": 69, "duration": 12, "velocity": 64}, {"time": 564, "pitch": 69, "duration": 12, "velocity": 64}, {"time": 576, "pitch": 69, "duration": 12, "velocity": 64}, {"time": 588, "pitch": 69, "duration": 12, "velocity": 64}, {"time": 600, "pitch": 69, "duration": 12, "velocity": 64}, {"time": 612, "pitch": 76, "duration": 12, "velocity": 64}, {"time": 624, "pitch": 74, "duration": 12, "velocity": 64}, {"time": 636, "pitch": 74, "duration": 24, "velocity": 64}, {"time": 660, "pitch": 72, "duration": 24, "velocity": 64}, {"time": 780, "pitch": 67, "duration": 24, "velocity": 64}, {"time": 804, "pitch": 67, "duration": 12, "velocity": 64}, {"time": 816, "pitch": 67, "duration": 12, "velocity": 64}, {"time": 828, "pitch": 67, "duration": 24, "velocity": 64}, {"time": 852, "pitch": 62, "duration": 24, "velocity": 64}, {"time": 876, "pitch": 74, "duration": 24, "velocity": 64}, {"time": 900, "pitch": 74, "duration": 12, "velocity": 64}, {"time": 912, "pitch": 74, "duration": 12, "velocity": 64}, {"time": 924, "pitch": 71, "duration": 24, "velocity": 64}, {"time": 972, "pitch": 71, "duration": 12, "velocity": 64}, {"time": 984, "pitch": 71, "duration": 12, "velocity": 64}, {"time": 996, "pitch": 71, "duration": 12, "velocity": 64}, {"time": 1008, "pitch": 71, "duration": 12, "velocity": 64}, {"time": 1020, "pitch": 71, "duration": 12, "velocity": 64}, {"time": 1032, "pitch": 71, "duration": 12, "velocity": 64}, {"time": 1044, "pitch": 71, "duration": 12, "velocity": 64}, {"time": 1056, "pitch": 69, "duration": 12, "velocity": 64}, {"time": 1068, "pitch": 71, "duration": 12, "velocity": 64}, {"time": 1080, "pitch": 74, "duration": 24, "velocity": 64}, {"time": 1104, "pitch": 72, "duration": 12, "velocity": 64}, {"time": 1116, "pitch": 69, "duration": 12, "velocity": 64}, {"time": 1128, "pitch": 69, "duration": 12, "velocity": 64}, {"time": 1140, "pitch": 69, "duration": 12, "velocity": 64}, {"time": 1152, "pitch": 69, "duration": 12, "velocity": 64}, {"time": 1164, "pitch": 69, "duration": 12, "velocity": 64}, {"time": 1176, "pitch": 69, "duration": 12, "velocity": 64}, {"time": 1188, "pitch": 69, "duration": 12, "velocity": 64}, {"time": 1200, "pitch": 67, "duration": 12, "velocity": 64}, {"time": 1212, "pitch": 69, "duration": 12, "velocity": 64}, {"time": 1224, "pitch": 71, "duration": 36, "velocity": 64}, {"time": 1260, "pitch": 71, "duration": 12, "velocity": 64}, {"time": 1272, "pitch": 71, "duration": 12, "velocity": 64}, {"time": 1284, "pitch": 71, "duration": 12, "velocity": 64}, {"time": 1296, "pitch": 71, "duration": 12, "velocity": 64}, {"time": 1308, "pitch": 71, "duration": 12, "velocity": 64}, {"time": 1320, "pitch": 71, "duration": 12, "velocity": 64}, {"time": 1332, "pitch": 71, "duration": 12, "velocity": 64}, {"time": 1344, "pitch": 69, "duration": 12, "velocity": 64}, {"time": 1356, "pitch": 71, "duration": 12, "velocity": 64}, {"time": 1368, "pitch": 74, "duration": 24, "velocity": 64}, {"time": 1392, "pitch": 72, "duration": 12, "velocity": 64}, {"time": 1404, "pitch": 69, "duration": 12, "velocity": 64}, {"time": 1416, "pitch": 69, "duration": 12, "velocity": 64}, {"time": 1428, "pitch": 69, "duration": 12, "velocity": 64}, {"time": 1440, "pitch": 69, "duration": 12, "velocity": 64}, {"time": 1452, "pitch": 69, "duration": 12, "velocity": 64}, {"time": 1464, "pitch": 69, "duration": 12, "velocity": 64}, {"time": 1476, "pitch": 69, "duration": 12, "velocity": 64}, {"time": 1488, "pitch": 67, "duration": 12, "velocity": 64}, {"time": 1500, "pitch": 69, "duration": 12, "velocity": 64}, {"time": 1512, "pitch": 67, "duration": 24, "velocity": 64}]}]}