{"metadata": {"schema_version": "0.1", "title": "Und's Deandl is wunderschoe, i muass's aufrichti sagn,", "source_format": "abc"}, "resolution": 24, "tempos": [{"time": 0, "qpm": 120.0}], "key_signatures": [{"time": 0, "root": 3, "mode": "major", "fifths": -3}], "time_signatures": [{"time": 0, "numerator": 3, "denominator": 4}], "beats": [{"time": 0, "is_downbeat": true}, {"time": 24, "is_downbeat": false}, {"time": 36, "is_downbeat": true}, {"time": 60, "is_downbeat": false}, {"time": 84, "is_downbeat": false}, {"time": 108, "is_downbeat": true}, {"time": 132, "is_downbeat": false}, {"time": 156, "is_downbeat": false}, {"time": 180, "is_downbeat": true}, {"time": 204, "is_downbeat": false}, {"time": 228, "is_downbeat": false}, {"time": 252, "is_downbeat": true}, {"time": 276, "is_downbeat": false}, {"time": 300, "is_downbeat": false}, {"time": 324, "is_downbeat": true}, {"time": 348, "is_downbeat": false}, {"time": 372, "is_downbeat": false}, {"time": 396, "is_downbeat": true}, {"time": 420, "is_downbeat": false}, {"time": 444, "is_downbeat": false}, {"time": 468, "is_downbeat": true}, {"time": 492, "is_downbeat": false}, {"time": 516, "is_downbeat": false}, {"time": 540, "is_downbeat": true}, {"time": 564, "is_downbeat": false}, {"time": 588, "is_downbeat": false}, {"time": 612, "is_downbeat": true}, {"time": 636, "is_downbeat": false}, {"time": 660, "is_downbeat": false}, {"time": 684, "is_downbeat": true}, {"time": 708, "is_downbeat": false}, {"time": 732, "is_downbeat": false}, {"time": 756, "is_downbeat": true}, {"time": 780, "is_downbeat": false}, {"time": 804, "is_downbeat": false}, {"time": 828, "is_downbeat": true}, {"time": 852, "is_downbeat": false}, {"time": 876, "is_downbeat": false}, {"time": 900, "is_downbeat": true}, {"time": 924, "is_downbeat": false}, {"time": 948, "is_downbeat": false}, {"time": 972, "is_downbeat": true}, {"time": 996, "is_downbeat": false}, {"time": 1020, "is_downbeat": false}, {"time": 1044, "is_downbeat": true}, {"time": 1068, "is_downbeat": false}, {"time": 1092, "is_downbeat": false}, {"time": 1116, "is_downbeat": true}, {"time": 1140, "is_downbeat": false}, {"time": 1164, "is_downbeat": false}, {"time": 1188, "is_downbeat": true}, {"time": 1212, "is_downbeat": false}, {"time": 1236, "is_downbeat": false}, {"time": 1260, "is_downbeat": true}, {"time": 1284, "is_downbeat": false}, {"time": 1308, "is_downbeat": false}, {"time": 1332, "is_downbeat": true}, {"time": 1356, "is_downbeat": false}, {"time": 1380, "is_downbeat": false}, {"time": 1404, "is_downbeat": true}, {"time": 1428, "is_downbeat": false}, {"time": 1452, "is_downbeat": false}], "tracks": [{"program": 0, "is_drum": false, "notes": [{"time": 0, "pitch": 75, "duration": 12, "velocity": 64}, {"time": 12, "pitch": 75, "duration": 12, "velocity": 64}, {"time": 24, "pitch": 75, "duration": 12, "velocity": 64}, {"time": 36, "pitch": 70, "duration": 18, "velocity": 64}, {"time": 54, "pitch": 70, "duration": 6, "velocity": 64}, {"time": 60, "pitch": 67, "duration": 12, "velocity": 64}, {"time": 78, "pitch": 67, "duration": 6, "velocity": 64}, {"time": 84, "pitch": 67, "duration": 12, "velocity": 64}, {"time": 96, "pitch": 67, "duration": 12, "velocity": 64}, {"time": 108, "pitch": 68, "duration": 18, "velocity": 64}, {"time": 126, "pitch": 68, "duration": 6, "velocity": 64}, {"time": 132, "pitch": 62, "duration": 12, "velocity": 64}, {"time": 144, "pitch": 74, "duration": 12, "velocity": 64}, {"time": 156, "pitch": 74, "duration": 18, "velocity": 64}, {"time": 174, "pitch": 74, "duration": 6, "velocity": 64}, {"time": 180, "pitch": 72, "duration": 18, "velocity": 64}, {"time": 198, "pitch": 72, "duration": 6, "velocity": 64}, {"time": 204, "pitch": 65, "duration": 12, "velocity": 64}, {"time": 216, "pitch": 62, "duration": 12, "velocity": 64}, {"time": 228, "pitch": 63, "duration": 12, "velocity": 64}, {"time": 240, "pitch": 62, "duration": 12, "velocity": 64}, {"time": 252, "pitch": 70, "duration": 18, "velocity": 64}, {"time": 270, "pitch": 70, "duration": 6, "velocity": 64}, {"time": 276, "pitch": 67, "duration": 12, "velocity": 64}, {"time": 288, "pitch": 75, "duration": 12, "velocity": 64}, {"time": 300, "pitch": 75, "duration": 12, "velocity": 64}, {"time": 312, "pitch": 75, "duration": 12, "velocity": 64}, {"time": 324, "pitch": 70, "duration": 18, "velocity": 64}, {"time": 342, "pitch": 70, "duration": 6, "velocity": 64}, {"time": 348, "pitch": 67, "duration": 12, "velocity": 64}, {"time": 366, "pitch": 67, "duration": 6, "velocity": 64}, {"time": 372, "pitch": 68, "duration": 12, "velocity": 64}, {"time": 384, "pitch": 70, "duration": 12, "velocity": 64}, {"time": 396, "pitch": 72, "duration": 12, "velocity": 64}, {"time": 408, "pitch": 75, "duration": 12, "velocity": 64}, {"time": 420, "pitch": 75, "duration": 12, "velocity": 64}, {"time": 432, "pitch": 75, "duration": 12, "velocity": 64}, {"time": 444, "pitch": 74, "duration": 12, "velocity": 64}, {"time": 456, "pitch": 72, "duration": 12, "velocity": 64}, {"time": 468, "pitch": 72, "duration": 12, "velocity": 64}, {"time": 480, "pitch": 70, "duration": 12, "velocity": 64}, {"time": 492, "pitch": 74, "duration": 12, "velocity": 64}, {"time": 504, "pitch": 72, "duration": 12, "velocity": 64}, {"time": 516, "pitch": 70, "duration": 12, "velocity": 64}, {"time": 528, "pitch": 68, "duration": 12, "velocity": 64}, {"time": 540, "pitch": 67, "duration": 24, "velocity": 64}, {"time": 612, "pitch": 67, "duration": 8, "velocity": 64}, {"time": 620, "pitch": 70, "duration": 8, "velocity": 64}, {"time": 628, "pitch": 75, "duration": 8, "velocity": 64}, {"time": 636, "pitch": 70, "duration": 12, "velocity": 64}, {"time": 648, "pitch": 68, "duration": 4, "velocity": 64}, {"time": 652, "pitch": 67, "duration": 8, "velocity": 64}, {"time": 660, "pitch": 75, "duration": 18, "velocity": 64}, {"time": 678, "pitch": 67, "duration": 6, "velocity": 64}, {"time": 684, "pitch": 65, "duration": 8, "velocity": 64}, {"time": 692, "pitch": 68, "duration": 8, "velocity": 64}, {"time": 700, "pitch": 74, "duration": 8, "velocity": 64}, {"time": 708, "pitch": 72, "duration": 12, "velocity": 64}, {"time": 720, "pitch": 65, "duration": 12, "velocity": 64}, {"time": 732, "pitch": 74, "duration": 24, "velocity": 64}, {"time": 756, "pitch": 65, "duration": 8, "velocity": 64}, {"time": 764, "pitch": 68, "duration": 8, "velocity": 64}, {"time": 772, "pitch": 74, "duration": 8, "velocity": 64}, {"time": 780, "pitch": 72, "duration": 12, "velocity": 64}, {"time": 792, "pitch": 65, "duration": 12, "velocity": 64}, {"time": 804, "pitch": 74, "duration": 12, "velocity": 64}, {"time": 816, "pitch": 68, "duration": 12, "velocity": 64}, {"time": 828, "pitch": 67, "duration": 24, "velocity": 64}, {"time": 852, "pitch": 70, "duration": 24, "velocity": 64}, {"time": 876, "pitch": 75, "duration": 24, "velocity": 64}, {"time": 900, "pitch": 63, "duration": 6, "velocity": 64}, {"time": 906, "pitch": 63, "duration": 6, "velocity": 64}, {"time": 912, "pitch": 63, "duration": 12, "velocity": 64}, {"time": 924, "pitch": 67, "duration": 6, "velocity": 64}, {"time": 930, "pitch": 67, "duration": 6, "velocity": 64}, {"time": 936, "pitch": 67, "duration": 12, "velocity": 64}, {"time": 948, "pitch": 70, "duration": 6, "velocity": 64}, {"time": 954, "pitch": 70, "duration": 6, "velocity": 64}, {"time": 960, "pitch": 70, "duration": 12, "velocity": 64}, {"time": 972, "pitch": 79, "duration": 24, "velocity": 64}, {"time": 996, "pitch": 80, "duration": 9, "velocity": 64}, {"time": 1005, "pitch": 79, "duration": 3, "velocity": 64}, {"time": 1008, "pitch": 77, "duration": 6, "velocity": 64}, {"time": 1014, "pitch": 75, "duration": 6, "velocity": 64}, {"time": 1020, "pitch": 74, "duration": 6, "velocity": 64}, {"time": 1026, "pitch": 77, "duration": 18, "velocity": 64}, {"time": 1044, "pitch": 70, "duration": 48, "velocity": 64}, {"time": 1116, "pitch": 67, "duration": 8, "velocity": 64}, {"time": 1124, "pitch": 70, "duration": 8, "velocity": 64}, {"time": 1132, "pitch": 75, "duration": 8, "velocity": 64}, {"time": 1140, "pitch": 70, "duration": 12, "velocity": 64}, {"time": 1152, "pitch": 68, "duration": 4, "velocity": 64}, {"time": 1156, "pitch": 67, "duration": 8, "velocity": 64}, {"time": 1164, "pitch": 75, "duration": 18, "velocity": 64}, {"time": 1182, "pitch": 67, "duration": 6, "velocity": 64}, {"time": 1188, "pitch": 65, "duration": 8, "velocity": 64}, {"time": 1196, "pitch": 68, "duration": 8, "velocity": 64}, {"time": 1204, "pitch": 74, "duration": 8, "velocity": 64}, {"time": 1212, "pitch": 72, "duration": 12, "velocity": 64}, {"time": 1224, "pitch": 65, "duration": 12, "velocity": 64}, {"time": 1236, "pitch": 74, "duration": 24, "velocity": 64}, {"time": 1260, "pitch": 65, "duration": 8, "velocity": 64}, {"time": 1268, "pitch": 68, "duration": 8, "velocity": 64}, {"time": 1276, "pitch": 74, "duration": 8, "velocity": 64}, {"time": 1284, "pitch": 72, "duration": 12, "velocity": 64}, {"time": 1296, "pitch": 65, "duration": 12, "velocity": 64}, {"time": 1308, "pitch": 74, "duration": 12, "velocity": 64}, {"time": 1320, "pitch": 68, "duration": 12, "velocity": 64}, {"time": 1332, "pitch": 67, "duration": 24, "velocity": 64}, {"time": 1356, "pitch": 70, "duration": 24, "velocity": 64}, {"time": 1380, "pitch": 75, "duration": 24, "velocity": 64}, {"time": 1404, "pitch": 79, "duration": 24, "velocity": 64}]}]}