{"metadata": {"schema_version": "0.1", "title": "Der Duwakwak, der Duwackelwak, der Duwak ist mein Leben,", "source_format": "abc"}, "resolution": 24, "tempos": [{"time": 0, "qpm": 120.0}], "key_signatures": [{"time": 0, "root": 7, "mode": "major", "fifths": 1}], "time_signatures": [{"time": 0, "numerator": 2, "denominator": 4}, {"time": 1560, "numerator": 1, "denominator": 4}], "beats": [{"time": 0, "is_downbeat": true}, {"time": 24, "is_downbeat": true}, {"time": 48, "is_downbeat": true}, {"time": 72, "is_downbeat": true}, {"time": 96, "is_downbeat": true}, {"time": 120, "is_downbeat": true}, {"time": 144, "is_downbeat": true}, {"time": 168, "is_downbeat": true}, {"time": 192, "is_downbeat": true}, {"time": 216, "is_downbeat": true}, {"time": 240, "is_downbeat": true}, {"time": 264, "is_downbeat": true}, {"time": 288, "is_downbeat": true}, {"time": 312, "is_downbeat": true}, {"time": 336, "is_downbeat": true}, {"time": 360, "is_downbeat": true}, {"time": 384, "is_downbeat": true}, {"time": 408, "is_downbeat": true}, {"time": 432, "is_downbeat": true}, {"time": 456, "is_downbeat": true}, {"time": 480, "is_downbeat": true}, {"time": 504, "is_downbeat": true}, {"time": 528, "is_downbeat": true}, {"time": 552, "is_downbeat": true}, {"time": 576, "is_downbeat": true}, {"time": 600, "is_downbeat": true}, {"time": 624, "is_downbeat": true}, {"time": 648, "is_downbeat": true}, {"time": 672, "is_downbeat": true}, {"time": 696, "is_downbeat": true}, {"time": 720, "is_downbeat": true}, {"time": 744, "is_downbeat": true}, {"time": 768, "is_downbeat": true}, {"time": 792, "is_downbeat": true}, {"time": 816, "is_downbeat": true}, {"time": 840, "is_downbeat": true}, {"time": 864, "is_downbeat": true}, {"time": 888, "is_downbeat": true}, {"time": 912, "is_downbeat": true}, {"time": 936, "is_downbeat": true}, {"time": 960, "is_downbeat": true}, {"time": 984, "is_downbeat": true}, {"time": 1008, "is_downbeat": true}, {"time": 1032, "is_downbeat": true}, {"time": 1056, "is_downbeat": true}, {"time": 1080, "is_downbeat": true}, {"time": 1104, "is_downbeat": true}, {"time": 1128, "is_downbeat": true}, {"time": 1152, "is_downbeat": true}, {"time": 1176, "is_downbeat": true}, {"time": 1200, "is_downbeat": true}, {"time": 1224, "is_downbeat": true}, {"time": 1248, "is_downbeat": true}, {"time": 1272, "is_downbeat": true}, {"time": 1296, "is_downbeat": true}, {"time": 1320, "is_downbeat": true}, {"time": 1344, "is_downbeat": true}, {"time": 1368, "is_downbeat": true}, {"time": 1392, "is_downbeat": true}, {"time": 1416, "is_downbeat": true}, {"time": 1440, "is_downbeat": true}, {"time": 1464, "is_downbeat": true}, {"time": 1488, "is_downbeat": true}, {"time": 1512, "is_downbeat": true}, {"time": 1536, "is_downbeat": true}, {"time": 1560, "is_downbeat": true}], "tracks": [{"program": 0, "is_drum": false, "notes": [{"time": 0, "pitch": 74, "duration": 24, "velocity": 64}, {"time": 24, "pitch": 71, "duration": 12, "velocity": 64}, {"time": 36, "pitch": 71, "duration": 12, "velocity": 64}, {"time": 48, "pitch": 71, "duration": 12, "velocity": 64}, {"time": 60, "pitch": 71, "duration": 12, "velocity": 64}, {"time": 72, "pitch": 71, "duration": 12, "velocity": 64}, {"time": 84, "pitch": 71, "duration": 6, "velocity": 64}, {"time": 90, "pitch": 71, "duration": 6, "velocity": 64}, {"time": 96, "pitch": 71, "duration": 12, "velocity": 64}, {"time": 108, "pitch": 71, "duration": 12, "velocity": 64}, {"time": 120, "pitch": 71, "duration": 12, "velocity": 64}, {"time": 132, "pitch": 71, "duration": 12, "velocity": 64}, {"time": 144, "pitch": 76, "duration": 12, "velocity": 64}, {"time": 156, "pitch": 71, "duration": 12, "velocity": 64}, {"time": 168, "pitch": 74, "duration": 24, "velocity": 64}, {"time": 192, "pitch": 72, "duration": 12, "velocity": 64}, {"time": 204, "pitch": 72, "duration": 12, "velocity": 64}, {"time": 216, "pitch": 69, "duration": 12, "velocity": 64}, {"time": 228, "pitch": 69, "duration": 12, "velocity": 64}, {"time": 240, "pitch": 69, "duration": 12, "velocity": 64}, {"time": 252, "pitch": 62, "duration": 12, "velocity": 64}, {"time": 264, "pitch": 69, "duration": 12, "velocity": 64}, {"time": 276, "pitch": 69, "duration": 12, "velocity": 64}, {"time": 288, "pitch": 69, "duration": 12, "velocity": 64}, {"time": 300, "pitch": 69, "duration": 12, "velocity": 64}, {"time": 312, "pitch": 74, "duration": 12, "velocity": 64}, {"time": 324, "pitch": 74, "duration": 12, "velocity": 64}, {"time": 336, "pitch": 74, "duration": 12, "velocity": 64}, {"time": 348, "pitch": 66, "duration": 12, "velocity": 64}, {"time": 360, "pitch": 67, "duration": 24, "velocity": 64}, {"time": 408, "pitch": 62, "duration": 12, "velocity": 64}, {"time": 420, "pitch": 62, "duration": 12, "velocity": 64}, {"time": 432, "pitch": 67, "duration": 12, "velocity": 64}, {"time": 444, "pitch": 69, "duration": 12, "velocity": 64}, {"time": 456, "pitch": 71, "duration": 18, "velocity": 64}, {"time": 474, "pitch": 69, "duration": 6, "velocity": 64}, {"time": 480, "pitch": 67, "duration": 12, "velocity": 64}, {"time": 492, "pitch": 67, "duration": 12, "velocity": 64}, {"time": 516, "pitch": 71, "duration": 12, "velocity": 64}, {"time": 528, "pitch": 76, "duration": 12, "velocity": 64}, {"time": 540, "pitch": 76, "duration": 12, "velocity": 64}, {"time": 552, "pitch": 74, "duration": 12, "velocity": 64}, {"time": 564, "pitch": 72, "duration": 12, "velocity": 64}, {"time": 576, "pitch": 66, "duration": 24, "velocity": 64}, {"time": 612, "pitch": 62, "duration": 12, "velocity": 64}, {"time": 624, "pitch": 66, "duration": 12, "velocity": 64}, {"time": 636, "pitch": 69, "duration": 12, "velocity": 64}, {"time": 648, "pitch": 74, "duration": 12, "velocity": 64}, {"time": 660, "pitch": 74, "duration": 12, "velocity": 64}, {"time": 672, "pitch": 74, "duration": 12, "velocity": 64}, {"time": 684, "pitch": 74, "duration": 12, "velocity": 64}, {"time": 708, "pitch": 72, "duration": 12, "velocity": 64}, {"time": 720, "pitch": 71, "duration": 12, "velocity": 64}, {"time": 732, "pitch": 69, "duration": 12, "velocity": 64}, {"time": 744, "pitch": 71, "duration": 18, "velocity": 64}, {"time": 762, "pitch": 69, "duration": 6, "velocity": 64}, {"time": 768, "pitch": 67, "duration": 24, "velocity": 64}, {"time": 804, "pitch": 62, "duration": 12, "velocity": 64}, {"time": 816, "pitch": 67, "duration": 12, "velocity": 64}, {"time": 828, "pitch": 69, "duration": 12, "velocity": 64}, {"time": 840, "pitch": 71, "duration": 18, "velocity": 64}, {"time": 858, "pitch": 69, "duration": 6, "velocity": 64}, {"time": 864, "pitch": 67, "duration": 36, "velocity": 64}, {"time": 900, "pitch": 76, "duration": 12, "velocity": 64}, {"time": 912, "pitch": 76, "duration": 12, "velocity": 64}, {"time": 924, "pitch": 71, "duration": 12, "velocity": 64}, {"time": 936, "pitch": 74, "duration": 12, "velocity": 64}, {"time": 948, "pitch": 72, "duration": 12, "velocity": 64}, {"time": 960, "pitch": 66, "duration": 36, "velocity": 64}, {"time": 996, "pitch": 62, "duration": 12, "velocity": 64}, {"time": 1008, "pitch": 66, "duration": 12, "velocity": 64}, {"time": 1020, "pitch": 69, "duration": 12, "velocity": 64}, {"time": 1032, "pitch": 74, "duration": 12, "velocity": 64}, {"time": 1044, "pitch": 74, "duration": 12, "velocity": 64}, {"time": 1056, "pitch": 74, "duration": 36, "velocity": 64}, {"time": 1092, "pitch": 74, "duration": 12, "velocity": 64}, {"time": 1104, "pitch": 72, "duration": 12, "velocity": 64}, {"time": 1116, "pitch": 66, "duration": 12, "velocity": 64}, {"time": 1128, "pitch": 67, "duration": 48, "velocity": 64}, {"time": 1188, "pitch": 62, "duration": 12, "velocity": 64}, {"time": 1200, "pitch": 67, "duration": 12, "velocity": 64}, {"time": 1212, "pitch": 69, "duration": 12, "velocity": 64}, {"time": 1224, "pitch": 71, "duration": 18, "velocity": 64}, {"time": 1242, "pitch": 69, "duration": 6, "velocity": 64}, {"time": 1248, "pitch": 67, "duration": 36, "velocity": 64}, {"time": 1284, "pitch": 76, "duration": 12, "velocity": 64}, {"time": 1296, "pitch": 76, "duration": 12, "velocity": 64}, {"time": 1308, "pitch": 71, "duration": 12, "velocity": 64}, {"time": 1320, "pitch": 74, "duration": 12, "velocity": 64}, {"time": 1332, "pitch": 72, "duration": 12, "velocity": 64}, {"time": 1344, "pitch": 66, "duration": 36, "velocity": 64}, {"time": 1380, "pitch": 62, "duration": 12, "velocity": 64}, {"time": 1392, "pitch": 66, "duration": 12, "velocity": 64}, {"time": 1404, "pitch": 69, "duration": 12, "velocity": 64}, {"time": 1416, "pitch": 74, "duration": 12, "velocity": 64}, {"time": 1428, "pitch": 74, "duration": 12, "velocity": 64}, {"time": 1440, "pitch": 74, "duration": 36, "velocity": 64}, {"time": 1476, "pitch": 74, "duration": 12, "velocity": 64}, {"time": 1488, "pitch": 72, "duration": 12, "velocity": 64}, {"time": 1500, "pitch": 66, "duration": 12, "velocity": 64}, {"time": 1512, "pitch": 67, "duration": 48, "velocity": 64}]}]}