{"metadata": {"schema_version": "0.1", "title": "A bissel sikkarisch, a bissl sakrisch,", "source_format": "abc"}, "resolution": 24, "tempos": [{"time": 0, "qpm": 120.0}], "key_signatures": [{"time": 0, "root": 7, "mode": "major", "fifths": 1}], "time_signatures": [{"time": 0, "numerator": 4, "denominator": 4}], "beats": [{"time": 0, "is_downbeat": true}, {"time": 24, "is_downbeat": false}, {"time": 48, "is_downbeat": false}, {"time": 72, "is_downbeat": true}, {"time": 96, "is_downbeat": false}, {"time": 120, "is_downbeat": false}, {"time": 144, "is_downbeat": false}, {"time": 168, "is_downbeat": true}, {"time": 192, "is_downbeat": true}, {"time": 216, "is_downbeat": false}, {"time": 240, "is_downbeat": false}, {"time": 264, "is_downbeat": true}, {"time": 288, "is_downbeat": false}, {"time": 312, "is_downbeat": false}, {"time": 336, "is_downbeat": true}, {"time": 360, "is_downbeat": false}, {"time": 384, "is_downbeat": false}, {"time": 408, "is_downbeat": true}, {"time": 432, "is_downbeat": false}, {"time": 456, "is_downbeat": false}, {"time": 480, "is_downbeat": false}, {"time": 504, "is_downbeat": true}, {"time": 528, "is_downbeat": false}, {"time": 552, "is_downbeat": false}, {"time": 576, "is_downbeat": false}, {"time": 600, "is_downbeat": true}, {"time": 624, "is_downbeat": false}, {"time": 648, "is_downbeat": false}, {"time": 672, "is_downbeat": true}, {"time": 696, "is_downbeat": false}, {"time": 720, "is_downbeat": false}, {"time": 744, "is_downbeat": true}, {"time": 768, "is_downbeat": false}, {"time": 792, "is_downbeat": false}, {"time": 816, "is_downbeat": false}, {"time": 840, "is_downbeat": true}, {"time": 864, "is_downbeat": false}, {"time": 888, "is_downbeat": false}, {"time": 912, "is_downbeat": false}, {"time": 936, "is_downbeat": true}, {"time": 960, "is_downbeat": false}, {"time": 984, "is_downbeat": false}, {"time": 1008, "is_downbeat": true}, {"time": 1032, "is_downbeat": false}, {"time": 1056, "is_downbeat": false}, {"time": 1080, "is_downbeat": false}, {"time": 1104, "is_downbeat": true}, {"time": 1116, "is_downbeat": true}, {"time": 1140, "is_downbeat": false}, {"time": 1164, "is_downbeat": false}, {"time": 1188, "is_downbeat": true}, {"time": 1212, "is_downbeat": false}, {"time": 1236, "is_downbeat": false}, {"time": 1260, "is_downbeat": true}, {"time": 1284, "is_downbeat": false}, {"time": 1308, "is_downbeat": false}, {"time": 1332, "is_downbeat": true}, {"time": 1356, "is_downbeat": false}, {"time": 1380, "is_downbeat": false}, {"time": 1404, "is_downbeat": false}, {"time": 1428, "is_downbeat": true}, {"time": 1452, "is_downbeat": false}, {"time": 1476, "is_downbeat": true}, {"time": 1500, "is_downbeat": false}, {"time": 1524, "is_downbeat": false}, {"time": 1548, "is_downbeat": false}, {"time": 1572, "is_downbeat": true}, {"time": 1596, "is_downbeat": false}, {"time": 1620, "is_downbeat": true}, {"time": 1644, "is_downbeat": false}, {"time": 1668, "is_downbeat": false}, {"time": 1692, "is_downbeat": false}, {"time": 1716, "is_downbeat": true}, {"time": 1740, "is_downbeat": false}, {"time": 1764, "is_downbeat": true}, {"time": 1788, "is_downbeat": false}, {"time": 1812, "is_downbeat": false}, {"time": 1836, "is_downbeat": false}], "tracks": [{"program": 0, "is_drum": false, "notes": [{"time": 0, "pitch": 62, "duration": 24, "velocity": 64}, {"time": 24, "pitch": 71, "duration": 24, "velocity": 64}, {"time": 48, "pitch": 67, "duration": 24, "velocity": 64}, {"time": 72, "pitch": 66, "duration": 24, "velocity": 64}, {"time": 96, "pitch": 69, "duration": 24, "velocity": 64}, {"time": 120, "pitch": 74, "duration": 36, "velocity": 64}, {"time": 156, "pitch": 62, "duration": 12, "velocity": 64}, {"time": 168, "pitch": 72, "duration": 12, "velocity": 64}, {"time": 180, "pitch": 66, "duration": 12, "velocity": 64}, {"time": 192, "pitch": 67, "duration": 12, "velocity": 64}, {"time": 204, "pitch": 67, "duration": 12, "velocity": 64}, {"time": 228, "pitch": 67, "duration": 12, "velocity": 64}, {"time": 240, "pitch": 66, "duration": 12, "velocity": 64}, {"time": 252, "pitch": 64, "duration": 12, "velocity": 64}, {"time": 264, "pitch": 62, "duration": 12, "velocity": 64}, {"time": 276, "pitch": 62, "duration": 12, "velocity": 64}, {"time": 312, "pitch": 60, "duration": 12, "velocity": 64}, {"time": 324, "pitch": 64, "duration": 12, "velocity": 64}, {"time": 336, "pitch": 74, "duration": 36, "velocity": 64}, {"time": 372, "pitch": 62, "duration": 12, "velocity": 64}, {"time": 384, "pitch": 71, "duration": 12, "velocity": 64}, {"time": 396, "pitch": 67, "duration": 12, "velocity": 64}, {"time": 408, "pitch": 66, "duration": 12, "velocity": 64}, {"time": 420, "pitch": 69, "duration": 12, "velocity": 64}, {"time": 432, "pitch": 74, "duration": 12, "velocity": 64}, {"time": 444, "pitch": 74, "duration": 12, "velocity": 64}, {"time": 480, "pitch": 78, "duration": 12, "velocity": 64}, {"time": 492, "pitch": 66, "duration": 12, "velocity": 64}, {"time": 504, "pitch": 67, "duration": 12, "velocity": 64}, {"time": 516, "pitch": 67, "duration": 12, "velocity": 64}, {"time": 528, "pitch": 67, "duration": 12, "velocity": 64}, {"time": 540, "pitch": 67, "duration": 12, "velocity": 64}, {"time": 576, "pitch": 66, "duration": 12, "velocity": 64}, {"time": 588, "pitch": 64, "duration": 12, "velocity": 64}, {"time": 600, "pitch": 62, "duration": 12, "velocity": 64}, {"time": 612, "pitch": 72, "duration": 12, "velocity": 64}, {"time": 624, "pitch": 64, "duration": 24, "velocity": 64}, {"time": 648, "pitch": 66, "duration": 12, "velocity": 64}, {"time": 660, "pitch": 62, "duration": 12, "velocity": 64}, {"time": 672, "pitch": 67, "duration": 36, "velocity": 64}, {"time": 708, "pitch": 62, "duration": 12, "velocity": 64}, {"time": 720, "pitch": 71, "duration": 12, "velocity": 64}, {"time": 732, "pitch": 67, "duration": 12, "velocity": 64}, {"time": 744, "pitch": 66, "duration": 12, "velocity": 64}, {"time": 756, "pitch": 69, "duration": 12, "velocity": 64}, {"time": 768, "pitch": 74, "duration": 12, "velocity": 64}, {"time": 780, "pitch": 74, "duration": 12, "velocity": 64}, {"time": 816, "pitch": 78, "duration": 12, "velocity": 64}, {"time": 828, "pitch": 66, "duration": 12, "velocity": 64}, {"time": 840, "pitch": 67, "duration": 12, "velocity": 64}, {"time": 852, "pitch": 67, "duration": 12, "velocity": 64}, {"time": 864, "pitch": 67, "duration": 12, "velocity": 64}, {"time": 876, "pitch": 67, "duration": 12, "velocity": 64}, {"time": 912, "pitch": 66, "duration": 12, "velocity": 64}, {"time": 924, "pitch": 64, "duration": 12, "velocity": 64}, {"time": 936, "pitch": 62, "duration": 12, "velocity": 64}, {"time": 948, "pitch": 72, "duration": 12, "velocity": 64}, {"time": 960, "pitch": 64, "duration": 24, "velocity": 64}, {"time": 984, "pitch": 66, "duration": 12, "velocity": 64}, {"time": 996, "pitch": 62, "duration": 12, "velocity": 64}, {"time": 1008, "pitch": 67, "duration": 36, "velocity": 64}, {"time": 1044, "pitch": 62, "duration": 72, "velocity": 64}, {"time": 1116, "pitch": 64, "duration": 72, "velocity": 64}, {"time": 1188, "pitch": 66, "duration": 72, "velocity": 64}, {"time": 1260, "pitch": 67, "duration": 12, "velocity": 64}, {"time": 1272, "pitch": 74, "duration": 12, "velocity": 64}, {"time": 1284, "pitch": 71, "duration": 12, "velocity": 64}, {"time": 1296, "pitch": 67, "duration": 12, "velocity": 64}, {"time": 1308, "pitch": 74, "duration": 12, "velocity": 64}, {"time": 1320, "pitch": 67, "duration": 12, "velocity": 64}, {"time": 1332, "pitch": 69, "duration": 12, "velocity": 64}, {"time": 1344, "pitch": 76, "duration": 12, "velocity": 64}, {"time": 1356, "pitch": 72, "duration": 12, "velocity": 64}, {"time": 1368, "pitch": 69, "duration": 12, "velocity": 64}, {"time": 1380, "pitch": 76, "duration": 24, "velocity": 64}, {"time": 1404, "pitch": 66, "duration": 12, "velocity": 64}, {"time": 1416, "pitch": 74, "duration": 12, "velocity": 64}, {"time": 1428, "pitch": 72, "duration": 12, "velocity": 64}, {"time": 1440, "pitch": 66, "duration": 12, "velocity": 64}, {"time": 1452, "pitch": 74, "duration": 12, "velocity": 64}, {"time": 1464, "pitch": 67, "duration": 12, "velocity": 64}, {"time": 1476, "pitch": 67, "duration": 12, "velocity": 64}, {"time": 1488, "pitch": 79, "duration": 12, "velocity": 64}, {"time": 1500, "pitch": 74, "duration": 12, "velocity": 64}, {"time": 1512, "pitch": 71, "duration": 12, "velocity": 64}, {"time": 1524, "pitch": 67, "duration": 24, "velocity": 64}, {"time": 1548, "pitch": 67, "duration": 12, "velocity": 64}, {"time": 1560, "pitch": 74, "duration": 12, "velocity": 64}, {"time": 1572, "pitch": 71, "duration": 12, "velocity": 64}, {"time": 1584, "pitch": 67, "duration": 12, "velocity": 64}, {"time": 1596, "pitch": 74, "duration": 12, "velocity": 64}, {"time": 1608, "pitch": 67, "duration": 12, "velocity": 64}, {"time": 1620, "pitch": 69, "duration": 12, "velocity": 64}, {"time": 1632, "pitch": 76, "duration": 12, "velocity": 64}, {"time": 1644, "pitch": 72, "duration": 12, "velocity": 64}, {"time": 1656, "pitch": 69, "duration": 12, "velocity": 64}, {"time": 1668, "pitch": 76, "duration": 24, "velocity": 64}, {"time": 1692, "pitch": 78, "duration": 36, "velocity": 64}, {"time": 1728, "pitch": 76, "duration": 12, "velocity": 64}, {"time": 1740, "pitch": 74, "duration": 12, "velocity": 64}, {"time": 1752, "pitch": 66, "duration": 12, "velocity": 64}, {"time": 1764, "pitch": 67, "duration": 72, "velocity": 64}]}]}