{"metadata": {"schema_version": "0.1", "title": "Pod jaworem lozenko", "source_format": "abc"}, "resolution": 24, "tempos": [{"time": 0, "qpm": 120.0}], "key_signatures": [{"time": 0, "root": 0, "mode": "major", "fifths": 0}], "time_signatures": [{"time": 0, "numerator": 3, "denominator": 4}], "beats": [{"time": 0, "is_downbeat": true}, {"time": 24, "is_downbeat": false}, {"time": 48, "is_downbeat": false}, {"time": 72, "is_downbeat": true}, {"time": 96, "is_downbeat": false}, {"time": 120, "is_downbeat": false}, {"time": 144, "is_downbeat": true}, {"time": 168, "is_downbeat": false}, {"time": 192, "is_downbeat": false}, {"time": 216, "is_downbeat": true}, {"time": 240, "is_downbeat": false}, {"time": 264, "is_downbeat": false}, {"time": 288, "is_downbeat": true}, {"time": 312, "is_downbeat": false}, {"time": 336, "is_downbeat": false}, {"time": 360, "is_downbeat": true}, {"time": 384, "is_downbeat": false}, {"time": 408, "is_downbeat": false}, {"time": 432, "is_downbeat": true}, {"time": 456, "is_downbeat": false}, {"time": 480, "is_downbeat": false}, {"time": 504, "is_downbeat": true}, {"time": 528, "is_downbeat": false}, {"time": 552, "is_downbeat": false}, {"time": 576, "is_downbeat": true}, {"time": 600, "is_downbeat": false}, {"time": 624, "is_downbeat": false}, {"time": 648, "is_downbeat": true}, {"time": 672, "is_downbeat": false}, {"time": 696, "is_downbeat": false}], "tracks": [{"program": 0, "is_drum": false, "notes": [{"time": 0, "pitch": 67, "duration": 8, "velocity": 64}, {"time": 8, "pitch": 69, "duration": 8, "velocity": 64}, {"time": 16, "pitch": 71, "duration": 8, "velocity": 64}, {"time": 24, "pitch": 72, "duration": 24, "velocity": 64}, {"time": 48, "pitch": 72, "duration": 24, "velocity": 64}, {"time": 72, "pitch": 71, "duration": 12, "velocity": 64}, {"time": 84, "pitch": 72, "duration": 12, "velocity": 64}, {"time": 96, "pitch": 74, "duration": 48, "velocity": 64}, {"time": 144, "pitch": 71, "duration": 8, "velocity": 64}, {"time": 152, "pitch": 72, "duration": 8, "velocity": 64}, {"time": 160, "pitch": 74, "duration": 8, "velocity": 64}, {"time": 168, "pitch": 76, "duration": 24, "velocity": 64}, {"time": 192, "pitch": 76, "duration": 24, "velocity": 64}, {"time": 216, "pitch": 74, "duration": 12, "velocity": 64}, {"time": 228, "pitch": 76, "duration": 12, "velocity": 64}, {"time": 240, "pitch": 77, "duration": 48, "velocity": 64}, {"time": 288, "pitch": 72, "duration": 8, "velocity": 64}, {"time": 296, "pitch": 74, "duration": 8, "velocity": 64}, {"time": 304, "pitch": 76, "duration": 8, "velocity": 64}, {"time": 312, "pitch": 76, "duration": 48, "velocity": 64}, {"time": 360, "pitch": 74, "duration": 48, "velocity": 64}, {"time": 408, "pitch": 72, "duration": 24, "velocity": 64}, {"time": 432, "pitch": 74, "duration": 12, "velocity": 64}, {"time": 444, "pitch": 76, "duration": 12, "velocity": 64}, {"time": 456, "pitch": 77, "duration": 48, "velocity": 64}, {"time": 504, "pitch": 72, "duration": 8, "velocity": 64}, {"time": 512, "pitch": 74, "duration": 8, "velocity": 64}, {"time": 520, "pitch": 76, "duration": 8, "velocity": 64}, {"time": 528, "pitch": 76, "duration": 48, "velocity": 64}, {"time": 576, "pitch": 74, "duration": 48, "velocity": 64}, {"time": 624, "pitch": 76, "duration": 12, "velocity": 64}, {"time": 636, "pitch": 72, "duration": 12, "velocity": 64}, {"time": 648, "pitch": 71, "duration": 12, "velocity": 64}, {"time": 660, "pitch": 74, "duration": 12, "velocity": 64}, {"time": 672, "pitch": 72, "duration": 48, "velocity": 64}]}]}