{"metadata": {"schema_version": "0.1", "title": "W kotly bebny uderzono", "source_format": "abc"}, "resolution": 24, "tempos": [{"time": 0, "qpm": 120.0}], "key_signatures": [{"time": 0, "root": 4, "mode": "major", "fifths": 4}], "time_signatures": [{"time": 0, "numerator": 4, "denominator": 4}, {"time": 48, "numerator": 1, "denominator": 4}, {"time": 216, "numerator": 4, "denominator": 4}, {"time": 360, "numerator": 4, "denominator": 4}, {"time": 456, "numerator": 2, "denominator": 4}, {"time": 504, "numerator": 1, "denominator": 4}], "beats": [{"time": 0, "is_downbeat": true}, {"time": 24, "is_downbeat": true}, {"time": 48, "is_downbeat": true}, {"time": 72, "is_downbeat": true}, {"time": 96, "is_downbeat": false}, {"time": 120, "is_downbeat": true}, {"time": 144, "is_downbeat": false}, {"time": 168, "is_downbeat": true}, {"time": 192, "is_downbeat": false}, {"time": 216, "is_downbeat": true}, {"time": 240, "is_downbeat": false}, {"time": 264, "is_downbeat": false}, {"time": 288, "is_downbeat": false}, {"time": 312, "is_downbeat": true}, {"time": 336, "is_downbeat": false}, {"time": 360, "is_downbeat": true}, {"time": 384, "is_downbeat": false}, {"time": 408, "is_downbeat": true}, {"time": 432, "is_downbeat": false}, {"time": 456, "is_downbeat": true}, {"time": 480, "is_downbeat": true}, {"time": 504, "is_downbeat": true}], "tracks": [{"program": 0, "is_drum": false, "notes": [{"time": 0, "pitch": 74, "duration": 36, "velocity": 64}, {"time": 36, "pitch": 76, "duration": 12, "velocity": 64}, {"time": 48, "pitch": 75, "duration": 12, "velocity": 64}, {"time": 60, "pitch": 69, "duration": 12, "velocity": 64}, {"time": 72, "pitch": 71, "duration": 12, "velocity": 64}, {"time": 84, "pitch": 74, "duration": 12, "velocity": 64}, {"time": 96, "pitch": 71, "duration": 12, "velocity": 64}, {"time": 108, "pitch": 67, "duration": 12, "velocity": 64}, {"time": 120, "pitch": 66, "duration": 12, "velocity": 64}, {"time": 132, "pitch": 69, "duration": 12, "velocity": 64}, {"time": 144, "pitch": 69, "duration": 12, "velocity": 64}, {"time": 156, "pitch": 72, "duration": 12, "velocity": 64}, {"time": 168, "pitch": 71, "duration": 36, "velocity": 64}, {"time": 204, "pitch": 69, "duration": 12, "velocity": 64}, {"time": 216, "pitch": 67, "duration": 6, "velocity": 64}, {"time": 222, "pitch": 66, "duration": 6, "velocity": 64}, {"time": 228, "pitch": 64, "duration": 12, "velocity": 64}, {"time": 240, "pitch": 62, "duration": 12, "velocity": 64}, {"time": 252, "pitch": 66, "duration": 12, "velocity": 64}, {"time": 264, "pitch": 69, "duration": 12, "velocity": 64}, {"time": 276, "pitch": 69, "duration": 12, "velocity": 64}, {"time": 288, "pitch": 66, "duration": 12, "velocity": 64}, {"time": 300, "pitch": 63, "duration": 12, "velocity": 64}, {"time": 312, "pitch": 64, "duration": 12, "velocity": 64}, {"time": 324, "pitch": 67, "duration": 12, "velocity": 64}, {"time": 336, "pitch": 71, "duration": 12, "velocity": 64}, {"time": 348, "pitch": 71, "duration": 12, "velocity": 64}, {"time": 360, "pitch": 69, "duration": 12, "velocity": 64}, {"time": 372, "pitch": 66, "duration": 12, "velocity": 64}, {"time": 384, "pitch": 62, "duration": 12, "velocity": 64}, {"time": 396, "pitch": 66, "duration": 12, "velocity": 64}, {"time": 408, "pitch": 69, "duration": 24, "velocity": 64}, {"time": 432, "pitch": 75, "duration": 24, "velocity": 64}, {"time": 456, "pitch": 71, "duration": 36, "velocity": 64}, {"time": 492, "pitch": 69, "duration": 12, "velocity": 64}, {"time": 504, "pitch": 67, "duration": 6, "velocity": 64}, {"time": 510, "pitch": 66, "duration": 6, "velocity": 64}, {"time": 516, "pitch": 64, "duration": 12, "velocity": 64}]}]}