{"metadata": {"schema_version": "0.1", "title": "A biedaz mi nad biedami", "source_format": "abc"}, "resolution": 24, "tempos": [{"time": 0, "qpm": 120.0}], "key_signatures": [{"time": 0, "root": 10, "mode": "major", "fifths": -2}], "time_signatures": [{"time": 0, "numerator": 3, "denominator": 4}], "beats": [{"time": 0, "is_downbeat": true}, {"time": 24, "is_downbeat": false}, {"time": 48, "is_downbeat": false}, {"time": 72, "is_downbeat": true}, {"time": 96, "is_downbeat": false}, {"time": 120, "is_downbeat": false}, {"time": 144, "is_downbeat": true}, {"time": 168, "is_downbeat": false}, {"time": 192, "is_downbeat": false}, {"time": 216, "is_downbeat": true}, {"time": 240, "is_downbeat": false}, {"time": 264, "is_downbeat": false}, {"time": 288, "is_downbeat": true}, {"time": 312, "is_downbeat": false}, {"time": 336, "is_downbeat": false}, {"time": 360, "is_downbeat": true}, {"time": 384, "is_downbeat": false}, {"time": 408, "is_downbeat": false}, {"time": 432, "is_downbeat": true}, {"time": 456, "is_downbeat": false}, {"time": 480, "is_downbeat": false}, {"time": 504, "is_downbeat": true}, {"time": 528, "is_downbeat": false}, {"time": 552, "is_downbeat": false}], "tracks": [{"program": 0, "is_drum": false, "notes": [{"time": 0, "pitch": 74, "duration": 8, "velocity": 64}, {"time": 8, "pitch": 72, "duration": 8, "velocity": 64}, {"time": 16, "pitch": 74, "duration": 8, "velocity": 64}, {"time": 24, "pitch": 77, "duration": 24, "velocity": 64}, {"time": 48, "pitch": 74, "duration": 24, "velocity": 64}, {"time": 72, "pitch": 75, "duration": 12, "velocity": 64}, {"time": 84, "pitch": 79, "duration": 12, "velocity": 64}, {"time": 96, "pitch": 79, "duration": 24, "velocity": 64}, {"time": 120, "pitch": 77, "duration": 24, "velocity": 64}, {"time": 144, "pitch": 74, "duration": 8, "velocity": 64}, {"time": 152, "pitch": 72, "duration": 8, "velocity": 64}, {"time": 160, "pitch": 74, "duration": 8, "velocity": 64}, {"time": 168, "pitch": 77, "duration": 24, "velocity": 64}, {"time": 192, "pitch": 74, "duration": 24, "velocity": 64}, {"time": 216, "pitch": 75, "duration": 12, "velocity": 64}, {"time": 228, "pitch": 72, "duration": 12, "velocity": 64}, {"time": 240, "pitch": 69, "duration": 24, "velocity": 64}, {"time": 264, "pitch": 70, "duration": 24, "velocity": 64}, {"time": 288, "pitch": 69, "duration": 8, "velocity": 64}, {"time": 296, "pitch": 67, "duration": 8, "velocity": 64}, {"time": 304, "pitch": 69, "duration": 8, "velocity": 64}, {"time": 312, "pitch": 72, "duration": 24, "velocity": 64}, {"time": 336, "pitch": 69, "duration": 24, "velocity": 64}, {"time": 360, "pitch": 70, "duration": 12, "velocity": 64}, {"time": 372, "pitch": 74, "duration": 12, "velocity": 64}, {"time": 384, "pitch": 74, "duration": 24, "velocity": 64}, {"time": 408, "pitch": 72, "duration": 24, "velocity": 64}, {"time": 432, "pitch": 69, "duration": 8, "velocity": 64}, {"time": 440, "pitch": 67, "duration": 8, "velocity": 64}, {"time": 448, "pitch": 69, "duration": 8, "velocity": 64}, {"time": 456, "pitch": 72, "duration": 24, "velocity": 64}, {"time": 480, "pitch": 74, "duration": 24, "velocity": 64}, {"time": 504, "pitch": 70, "duration": 12, "velocity": 64}, {"time": 516, "pitch": 67, "duration": 12, "velocity": 64}, {"time": 528, "pitch": 64, "duration": 24, "velocity": 64}, {"time": 552, "pitch": 65, "duration": 24, "velocity": 64}]}]}