{"metadata": {"schema_version": "0.1", "title": "Melodia instrumentalna", "source_format": "abc"}, "resolution": 24, "tempos": [{"time": 0, "qpm": 120.0}], "key_signatures": [{"time": 0, "root": 10, "mode": "major", "fifths": -2}], "time_signatures": [{"time": 0, "numerator": 4, "denominator": 4}, {"time": 792, "numerator": 3, "denominator": 2}, {"time": 936, "numerator": 3, "denominator": 4}], "beats": [{"time": 0, "is_downbeat": true}, {"time": 48, "is_downbeat": false}, {"time": 72, "is_downbeat": true}, {"time": 120, "is_downbeat": false}, {"time": 144, "is_downbeat": true}, {"time": 192, "is_downbeat": false}, {"time": 216, "is_downbeat": true}, {"time": 264, "is_downbeat": false}, {"time": 288, "is_downbeat": true}, {"time": 336, "is_downbeat": false}, {"time": 360, "is_downbeat": true}, {"time": 408, "is_downbeat": false}, {"time": 432, "is_downbeat": true}, {"time": 480, "is_downbeat": false}, {"time": 504, "is_downbeat": true}, {"time": 552, "is_downbeat": false}, {"time": 576, "is_downbeat": true}, {"time": 624, "is_downbeat": false}, {"time": 648, "is_downbeat": true}, {"time": 696, "is_downbeat": false}, {"time": 720, "is_downbeat": true}, {"time": 768, "is_downbeat": false}, {"time": 792, "is_downbeat": true}, {"time": 816, "is_downbeat": false}, {"time": 840, "is_downbeat": false}, {"time": 864, "is_downbeat": true}, {"time": 888, "is_downbeat": false}, {"time": 912, "is_downbeat": false}, {"time": 936, "is_downbeat": true}, {"time": 960, "is_downbeat": false}, {"time": 984, "is_downbeat": false}, {"time": 1008, "is_downbeat": true}, {"time": 1032, "is_downbeat": false}, {"time": 1056, "is_downbeat": false}, {"time": 1080, "is_downbeat": true}, {"time": 1104, "is_downbeat": false}, {"time": 1128, "is_downbeat": false}], "tracks": [{"program": 0, "is_drum": false, "notes": [{"time": 0, "pitch": 65, "duration": 18, "velocity": 64}, {"time": 18, "pitch": 70, "duration": 6, "velocity": 64}, {"time": 24, "pitch": 74, "duration": 24, "velocity": 64}, {"time": 48, "pitch": 74, "duration": 24, "velocity": 64}, {"time": 72, "pitch": 74, "duration": 8, "velocity": 64}, {"time": 80, "pitch": 72, "duration": 8, "velocity": 64}, {"time": 88, "pitch": 74, "duration": 8, "velocity": 64}, {"time": 96, "pitch": 75, "duration": 36, "velocity": 64}, {"time": 132, "pitch": 72, "duration": 12, "velocity": 64}, {"time": 144, "pitch": 72, "duration": 12, "velocity": 64}, {"time": 156, "pitch": 69, "duration": 12, "velocity": 64}, {"time": 168, "pitch": 65, "duration": 24, "velocity": 64}, {"time": 192, "pitch": 75, "duration": 12, "velocity": 64}, {"time": 204, "pitch": 69, "duration": 12, "velocity": 64}, {"time": 216, "pitch": 70, "duration": 12, "velocity": 64}, {"time": 228, "pitch": 72, "duration": 12, "velocity": 64}, {"time": 240, "pitch": 74, "duration": 24, "velocity": 64}, {"time": 264, "pitch": 70, "duration": 24, "velocity": 64}, {"time": 288, "pitch": 70, "duration": 12, "velocity": 64}, {"time": 300, "pitch": 74, "duration": 12, "velocity": 64}, {"time": 312, "pitch": 77, "duration": 24, "velocity": 64}, {"time": 336, "pitch": 77, "duration": 24, "velocity": 64}, {"time": 360, "pitch": 77, "duration": 8, "velocity": 64}, {"time": 368, "pitch": 76, "duration": 8, "velocity": 64}, {"time": 376, "pitch": 77, "duration": 8, "velocity": 64}, {"time": 384, "pitch": 79, "duration": 36, "velocity": 64}, {"time": 420, "pitch": 75, "duration": 12, "velocity": 64}, {"time": 432, "pitch": 72, "duration": 12, "velocity": 64}, {"time": 444, "pitch": 69, "duration": 12, "velocity": 64}, {"time": 456, "pitch": 65, "duration": 24, "velocity": 64}, {"time": 480, "pitch": 75, "duration": 12, "velocity": 64}, {"time": 492, "pitch": 69, "duration": 12, "velocity": 64}, {"time": 504, "pitch": 70, "duration": 12, "velocity": 64}, {"time": 516, "pitch": 72, "duration": 12, "velocity": 64}, {"time": 528, "pitch": 74, "duration": 24, "velocity": 64}, {"time": 552, "pitch": 70, "duration": 24, "velocity": 64}, {"time": 576, "pitch": 72, "duration": 12, "velocity": 64}, {"time": 588, "pitch": 69, "duration": 12, "velocity": 64}, {"time": 600, "pitch": 65, "duration": 24, "velocity": 64}, {"time": 624, "pitch": 75, "duration": 12, "velocity": 64}, {"time": 636, "pitch": 69, "duration": 12, "velocity": 64}, {"time": 648, "pitch": 70, "duration": 18, "velocity": 64}, {"time": 666, "pitch": 72, "duration": 6, "velocity": 64}, {"time": 672, "pitch": 74, "duration": 24, "velocity": 64}, {"time": 696, "pitch": 70, "duration": 24, "velocity": 64}, {"time": 720, "pitch": 72, "duration": 18, "velocity": 64}, {"time": 738, "pitch": 69, "duration": 6, "velocity": 64}, {"time": 744, "pitch": 65, "duration": 24, "velocity": 64}, {"time": 768, "pitch": 75, "duration": 12, "velocity": 64}, {"time": 780, "pitch": 69, "duration": 12, "velocity": 64}, {"time": 792, "pitch": 70, "duration": 18, "velocity": 64}, {"time": 810, "pitch": 72, "duration": 6, "velocity": 64}, {"time": 816, "pitch": 74, "duration": 24, "velocity": 64}, {"time": 840, "pitch": 70, "duration": 24, "velocity": 64}, {"time": 864, "pitch": 70, "duration": 12, "velocity": 64}, {"time": 876, "pitch": 74, "duration": 12, "velocity": 64}, {"time": 888, "pitch": 77, "duration": 24, "velocity": 64}, {"time": 912, "pitch": 77, "duration": 24, "velocity": 64}, {"time": 936, "pitch": 77, "duration": 12, "velocity": 64}, {"time": 948, "pitch": 82, "duration": 12, "velocity": 64}, {"time": 960, "pitch": 79, "duration": 36, "velocity": 64}, {"time": 996, "pitch": 75, "duration": 12, "velocity": 64}, {"time": 1008, "pitch": 72, "duration": 18, "velocity": 64}, {"time": 1026, "pitch": 69, "duration": 6, "velocity": 64}, {"time": 1032, "pitch": 65, "duration": 24, "velocity": 64}, {"time": 1056, "pitch": 75, "duration": 12, "velocity": 64}, {"time": 1068, "pitch": 69, "duration": 12, "velocity": 64}, {"time": 1080, "pitch": 70, "duration": 12, "velocity": 64}, {"time": 1092, "pitch": 72, "duration": 12, "velocity": 64}, {"time": 1104, "pitch": 74, "duration": 24, "velocity": 64}, {"time": 1128, "pitch": 70, "duration": 24, "velocity": 64}]}]}