{"metadata": {"schema_version": "0.1", "title": "Melodia instrumentalna", "source_format": "abc"}, "resolution": 24, "tempos": [{"time": 0, "qpm": 120.0}], "key_signatures": [{"time": 0, "root": 7, "mode": "major", "fifths": 1}], "time_signatures": [{"time": 0, "numerator": 3, "denominator": 4}], "beats": [{"time": 0, "is_downbeat": true}, {"time": 24, "is_downbeat": false}, {"time": 48, "is_downbeat": false}, {"time": 72, "is_downbeat": true}, {"time": 96, "is_downbeat": false}, {"time": 120, "is_downbeat": false}, {"time": 144, "is_downbeat": true}, {"time": 168, "is_downbeat": false}, {"time": 192, "is_downbeat": false}, {"time": 216, "is_downbeat": true}, {"time": 240, "is_downbeat": false}, {"time": 264, "is_downbeat": false}, {"time": 288, "is_downbeat": true}, {"time": 312, "is_downbeat": false}, {"time": 336, "is_downbeat": false}, {"time": 360, "is_downbeat": true}, {"time": 384, "is_downbeat": false}, {"time": 408, "is_downbeat": false}, {"time": 432, "is_downbeat": true}, {"time": 456, "is_downbeat": false}, {"time": 480, "is_downbeat": false}, {"time": 504, "is_downbeat": true}, {"time": 528, "is_downbeat": false}, {"time": 552, "is_downbeat": false}, {"time": 576, "is_downbeat": true}, {"time": 600, "is_downbeat": false}, {"time": 624, "is_downbeat": false}, {"time": 648, "is_downbeat": true}, {"time": 672, "is_downbeat": false}, {"time": 696, "is_downbeat": false}, {"time": 720, "is_downbeat": true}, {"time": 744, "is_downbeat": false}, {"time": 768, "is_downbeat": false}, {"time": 792, "is_downbeat": true}, {"time": 816, "is_downbeat": false}, {"time": 840, "is_downbeat": false}, {"time": 864, "is_downbeat": true}, {"time": 888, "is_downbeat": false}, {"time": 912, "is_downbeat": false}, {"time": 936, "is_downbeat": true}, {"time": 960, "is_downbeat": false}, {"time": 984, "is_downbeat": false}, {"time": 1008, "is_downbeat": true}, {"time": 1032, "is_downbeat": false}, {"time": 1056, "is_downbeat": false}, {"time": 1080, "is_downbeat": true}, {"time": 1104, "is_downbeat": false}, {"time": 1128, "is_downbeat": false}, {"time": 1152, "is_downbeat": true}, {"time": 1176, "is_downbeat": false}, {"time": 1200, "is_downbeat": false}, {"time": 1224, "is_downbeat": true}, {"time": 1248, "is_downbeat": false}, {"time": 1272, "is_downbeat": false}, {"time": 1296, "is_downbeat": true}, {"time": 1320, "is_downbeat": false}, {"time": 1344, "is_downbeat": false}, {"time": 1368, "is_downbeat": true}, {"time": 1392, "is_downbeat": false}, {"time": 1416, "is_downbeat": false}], "tracks": [{"program": 0, "is_drum": false, "notes": [{"time": 0, "pitch": 67, "duration": 24, "velocity": 64}, {"time": 24, "pitch": 79, "duration": 24, "velocity": 64}, {"time": 48, "pitch": 79, "duration": 12, "velocity": 64}, {"time": 60, "pitch": 78, "duration": 12, "velocity": 64}, {"time": 72, "pitch": 76, "duration": 12, "velocity": 64}, {"time": 84, "pitch": 74, "duration": 12, "velocity": 64}, {"time": 96, "pitch": 76, "duration": 12, "velocity": 64}, {"time": 108, "pitch": 78, "duration": 12, "velocity": 64}, {"time": 120, "pitch": 79, "duration": 12, "velocity": 64}, {"time": 132, "pitch": 76, "duration": 12, "velocity": 64}, {"time": 144, "pitch": 76, "duration": 12, "velocity": 64}, {"time": 156, "pitch": 74, "duration": 12, "velocity": 64}, {"time": 168, "pitch": 71, "duration": 48, "velocity": 64}, {"time": 216, "pitch": 67, "duration": 24, "velocity": 64}, {"time": 240, "pitch": 79, "duration": 24, "velocity": 64}, {"time": 264, "pitch": 79, "duration": 12, "velocity": 64}, {"time": 276, "pitch": 78, "duration": 12, "velocity": 64}, {"time": 288, "pitch": 76, "duration": 12, "velocity": 64}, {"time": 300, "pitch": 74, "duration": 12, "velocity": 64}, {"time": 312, "pitch": 76, "duration": 12, "velocity": 64}, {"time": 324, "pitch": 78, "duration": 12, "velocity": 64}, {"time": 336, "pitch": 79, "duration": 12, "velocity": 64}, {"time": 348, "pitch": 76, "duration": 12, "velocity": 64}, {"time": 360, "pitch": 76, "duration": 12, "velocity": 64}, {"time": 372, "pitch": 74, "duration": 12, "velocity": 64}, {"time": 384, "pitch": 71, "duration": 24, "velocity": 64}, {"time": 408, "pitch": 79, "duration": 12, "velocity": 64}, {"time": 420, "pitch": 78, "duration": 12, "velocity": 64}, {"time": 432, "pitch": 76, "duration": 12, "velocity": 64}, {"time": 444, "pitch": 74, "duration": 12, "velocity": 64}, {"time": 456, "pitch": 76, "duration": 12, "velocity": 64}, {"time": 468, "pitch": 78, "duration": 12, "velocity": 64}, {"time": 480, "pitch": 79, "duration": 12, "velocity": 64}, {"time": 492, "pitch": 76, "duration": 12, "velocity": 64}, {"time": 504, "pitch": 76, "duration": 12, "velocity": 64}, {"time": 516, "pitch": 74, "duration": 12, "velocity": 64}, {"time": 528, "pitch": 71, "duration": 12, "velocity": 64}, {"time": 540, "pitch": 74, "duration": 12, "velocity": 64}, {"time": 552, "pitch": 79, "duration": 12, "velocity": 64}, {"time": 564, "pitch": 78, "duration": 12, "velocity": 64}, {"time": 576, "pitch": 76, "duration": 12, "velocity": 64}, {"time": 588, "pitch": 74, "duration": 12, "velocity": 64}, {"time": 600, "pitch": 76, "duration": 12, "velocity": 64}, {"time": 612, "pitch": 78, "duration": 12, "velocity": 64}, {"time": 624, "pitch": 79, "duration": 12, "velocity": 64}, {"time": 636, "pitch": 76, "duration": 12, "velocity": 64}, {"time": 648, "pitch": 76, "duration": 12, "velocity": 64}, {"time": 660, "pitch": 74, "duration": 12, "velocity": 64}, {"time": 672, "pitch": 71, "duration": 48, "velocity": 64}, {"time": 720, "pitch": 67, "duration": 24, "velocity": 64}, {"time": 744, "pitch": 81, "duration": 24, "velocity": 64}, {"time": 768, "pitch": 81, "duration": 24, "velocity": 64}, {"time": 792, "pitch": 79, "duration": 12, "velocity": 64}, {"time": 804, "pitch": 76, "duration": 12, "velocity": 64}, {"time": 816, "pitch": 77, "duration": 24, "velocity": 64}, {"time": 840, "pitch": 74, "duration": 12, "velocity": 64}, {"time": 852, "pitch": 71, "duration": 12, "velocity": 64}, {"time": 864, "pitch": 67, "duration": 24, "velocity": 64}, {"time": 888, "pitch": 79, "duration": 24, "velocity": 64}, {"time": 912, "pitch": 79, "duration": 24, "velocity": 64}, {"time": 936, "pitch": 76, "duration": 36, "velocity": 64}, {"time": 972, "pitch": 72, "duration": 12, "velocity": 64}, {"time": 984, "pitch": 69, "duration": 12, "velocity": 64}, {"time": 996, "pitch": 66, "duration": 12, "velocity": 64}, {"time": 1008, "pitch": 67, "duration": 12, "velocity": 64}, {"time": 1020, "pitch": 71, "duration": 12, "velocity": 64}, {"time": 1032, "pitch": 71, "duration": 12, "velocity": 64}, {"time": 1044, "pitch": 67, "duration": 12, "velocity": 64}, {"time": 1056, "pitch": 71, "duration": 12, "velocity": 64}, {"time": 1068, "pitch": 74, "duration": 12, "velocity": 64}, {"time": 1080, "pitch": 74, "duration": 12, "velocity": 64}, {"time": 1092, "pitch": 76, "duration": 12, "velocity": 64}, {"time": 1104, "pitch": 72, "duration": 24, "velocity": 64}, {"time": 1128, "pitch": 69, "duration": 12, "velocity": 64}, {"time": 1140, "pitch": 66, "duration": 12, "velocity": 64}, {"time": 1152, "pitch": 67, "duration": 24, "velocity": 64}, {"time": 1176, "pitch": 79, "duration": 24, "velocity": 64}, {"time": 1200, "pitch": 79, "duration": 24, "velocity": 64}, {"time": 1224, "pitch": 76, "duration": 36, "velocity": 64}, {"time": 1260, "pitch": 72, "duration": 12, "velocity": 64}, {"time": 1272, "pitch": 69, "duration": 12, "velocity": 64}, {"time": 1284, "pitch": 66, "duration": 12, "velocity": 64}, {"time": 1296, "pitch": 67, "duration": 12, "velocity": 64}, {"time": 1308, "pitch": 71, "duration": 12, "velocity": 64}, {"time": 1320, "pitch": 71, "duration": 24, "velocity": 64}, {"time": 1344, "pitch": 71, "duration": 24, "velocity": 64}, {"time": 1368, "pitch": 74, "duration": 12, "velocity": 64}, {"time": 1380, "pitch": 76, "duration": 12, "velocity": 64}, {"time": 1392, "pitch": 72, "duration": 24, "velocity": 64}, {"time": 1416, "pitch": 69, "duration": 12, "velocity": 64}, {"time": 1428, "pitch": 66, "duration": 12, "velocity": 64}]}]}