{"metadata": {"schema_version": "0.1", "title": "Polski", "source_format": "abc"}, "resolution": 24, "tempos": [{"time": 0, "qpm": 120.0}], "key_signatures": [{"time": 0, "root": 0, "mode": "major", "fifths": 0}], "time_signatures": [{"time": 0, "numerator": 3, "denominator": 4}], "beats": [{"time": 0, "is_downbeat": true}, {"time": 24, "is_downbeat": false}, {"time": 48, "is_downbeat": false}, {"time": 72, "is_downbeat": true}, {"time": 96, "is_downbeat": false}, {"time": 120, "is_downbeat": false}, {"time": 144, "is_downbeat": true}, {"time": 168, "is_downbeat": false}, {"time": 192, "is_downbeat": false}, {"time": 216, "is_downbeat": true}, {"time": 240, "is_downbeat": false}, {"time": 264, "is_downbeat": false}, {"time": 288, "is_downbeat": true}, {"time": 312, "is_downbeat": false}, {"time": 336, "is_downbeat": false}, {"time": 360, "is_downbeat": true}, {"time": 384, "is_downbeat": false}, {"time": 408, "is_downbeat": false}, {"time": 432, "is_downbeat": true}, {"time": 456, "is_downbeat": false}, {"time": 480, "is_downbeat": false}, {"time": 504, "is_downbeat": true}, {"time": 528, "is_downbeat": false}, {"time": 552, "is_downbeat": false}, {"time": 576, "is_downbeat": true}, {"time": 600, "is_downbeat": false}, {"time": 624, "is_downbeat": false}, {"time": 648, "is_downbeat": true}, {"time": 672, "is_downbeat": false}, {"time": 696, "is_downbeat": false}, {"time": 720, "is_downbeat": true}, {"time": 744, "is_downbeat": false}, {"time": 768, "is_downbeat": false}, {"time": 792, "is_downbeat": true}, {"time": 816, "is_downbeat": false}, {"time": 840, "is_downbeat": false}, {"time": 864, "is_downbeat": true}, {"time": 888, "is_downbeat": false}, {"time": 912, "is_downbeat": false}, {"time": 936, "is_downbeat": true}, {"time": 960, "is_downbeat": false}, {"time": 984, "is_downbeat": false}], "tracks": [{"program": 0, "is_drum": false, "notes": [{"time": 0, "pitch": 67, "duration": 12, "velocity": 64}, {"time": 12, "pitch": 72, "duration": 24, "velocity": 64}, {"time": 36, "pitch": 71, "duration": 6, "velocity": 64}, {"time": 42, "pitch": 72, "duration": 6, "velocity": 64}, {"time": 48, "pitch": 74, "duration": 6, "velocity": 64}, {"time": 54, "pitch": 72, "duration": 6, "velocity": 64}, {"time": 60, "pitch": 71, "duration": 6, "velocity": 64}, {"time": 66, "pitch": 72, "duration": 6, "velocity": 64}, {"time": 72, "pitch": 74, "duration": 6, "velocity": 64}, {"time": 78, "pitch": 72, "duration": 6, "velocity": 64}, {"time": 84, "pitch": 71, "duration": 6, "velocity": 64}, {"time": 90, "pitch": 72, "duration": 6, "velocity": 64}, {"time": 96, "pitch": 74, "duration": 6, "velocity": 64}, {"time": 102, "pitch": 72, "duration": 6, "velocity": 64}, {"time": 108, "pitch": 71, "duration": 6, "velocity": 64}, {"time": 114, "pitch": 72, "duration": 6, "velocity": 64}, {"time": 120, "pitch": 74, "duration": 6, "velocity": 64}, {"time": 126, "pitch": 72, "duration": 6, "velocity": 64}, {"time": 132, "pitch": 71, "duration": 6, "velocity": 64}, {"time": 138, "pitch": 72, "duration": 6, "velocity": 64}, {"time": 144, "pitch": 67, "duration": 6, "velocity": 64}, {"time": 150, "pitch": 74, "duration": 6, "velocity": 64}, {"time": 156, "pitch": 74, "duration": 24, "velocity": 64}, {"time": 180, "pitch": 73, "duration": 6, "velocity": 64}, {"time": 186, "pitch": 74, "duration": 6, "velocity": 64}, {"time": 192, "pitch": 76, "duration": 6, "velocity": 64}, {"time": 198, "pitch": 74, "duration": 6, "velocity": 64}, {"time": 204, "pitch": 72, "duration": 6, "velocity": 64}, {"time": 210, "pitch": 74, "duration": 6, "velocity": 64}, {"time": 216, "pitch": 76, "duration": 6, "velocity": 64}, {"time": 222, "pitch": 74, "duration": 6, "velocity": 64}, {"time": 228, "pitch": 73, "duration": 6, "velocity": 64}, {"time": 234, "pitch": 74, "duration": 6, "velocity": 64}, {"time": 240, "pitch": 76, "duration": 6, "velocity": 64}, {"time": 246, "pitch": 74, "duration": 6, "velocity": 64}, {"time": 252, "pitch": 72, "duration": 6, "velocity": 64}, {"time": 258, "pitch": 74, "duration": 6, "velocity": 64}, {"time": 264, "pitch": 76, "duration": 6, "velocity": 64}, {"time": 270, "pitch": 74, "duration": 6, "velocity": 64}, {"time": 276, "pitch": 72, "duration": 6, "velocity": 64}, {"time": 282, "pitch": 74, "duration": 6, "velocity": 64}, {"time": 288, "pitch": 76, "duration": 12, "velocity": 64}, {"time": 300, "pitch": 76, "duration": 12, "velocity": 64}, {"time": 312, "pitch": 76, "duration": 12, "velocity": 64}, {"time": 324, "pitch": 79, "duration": 12, "velocity": 64}, {"time": 336, "pitch": 77, "duration": 6, "velocity": 64}, {"time": 342, "pitch": 76, "duration": 6, "velocity": 64}, {"time": 348, "pitch": 74, "duration": 6, "velocity": 64}, {"time": 354, "pitch": 72, "duration": 6, "velocity": 64}, {"time": 360, "pitch": 72, "duration": 12, "velocity": 64}, {"time": 372, "pitch": 67, "duration": 12, "velocity": 64}, {"time": 384, "pitch": 72, "duration": 12, "velocity": 64}, {"time": 396, "pitch": 74, "duration": 12, "velocity": 64}, {"time": 408, "pitch": 76, "duration": 12, "velocity": 64}, {"time": 420, "pitch": 77, "duration": 12, "velocity": 64}, {"time": 432, "pitch": 76, "duration": 12, "velocity": 64}, {"time": 444, "pitch": 79, "duration": 24, "velocity": 64}, {"time": 468, "pitch": 78, "duration": 6, "velocity": 64}, {"time": 474, "pitch": 79, "duration": 6, "velocity": 64}, {"time": 480, "pitch": 81, "duration": 6, "velocity": 64}, {"time": 486, "pitch": 79, "duration": 6, "velocity": 64}, {"time": 492, "pitch": 77, "duration": 6, "velocity": 64}, {"time": 498, "pitch": 79, "duration": 6, "velocity": 64}, {"time": 504, "pitch": 81, "duration": 6, "velocity": 64}, {"time": 510, "pitch": 79, "duration": 6, "velocity": 64}, {"time": 516, "pitch": 78, "duration": 6, "velocity": 64}, {"time": 522, "pitch": 79, "duration": 6, "velocity": 64}, {"time": 528, "pitch": 77, "duration": 36, "velocity": 64}, {"time": 564, "pitch": 74, "duration": 12, "velocity": 64}, {"time": 576, "pitch": 79, "duration": 12, "velocity": 64}, {"time": 588, "pitch": 79, "duration": 24, "velocity": 64}, {"time": 612, "pitch": 78, "duration": 6, "velocity": 64}, {"time": 618, "pitch": 79, "duration": 6, "velocity": 64}, {"time": 624, "pitch": 81, "duration": 6, "velocity": 64}, {"time": 630, "pitch": 79, "duration": 6, "velocity": 64}, {"time": 636, "pitch": 77, "duration": 6, "velocity": 64}, {"time": 642, "pitch": 79, "duration": 6, "velocity": 64}, {"time": 648, "pitch": 81, "duration": 6, "velocity": 64}, {"time": 654, "pitch": 79, "duration": 6, "velocity": 64}, {"time": 660, "pitch": 78, "duration": 6, "velocity": 64}, {"time": 666, "pitch": 79, "duration": 6, "velocity": 64}, {"time": 672, "pitch": 77, "duration": 36, "velocity": 64}, {"time": 708, "pitch": 74, "duration": 12, "velocity": 64}, {"time": 720, "pitch": 67, "duration": 12, "velocity": 64}, {"time": 732, "pitch": 72, "duration": 24, "velocity": 64}, {"time": 756, "pitch": 71, "duration": 6, "velocity": 64}, {"time": 762, "pitch": 72, "duration": 6, "velocity": 64}, {"time": 768, "pitch": 74, "duration": 6, "velocity": 64}, {"time": 774, "pitch": 72, "duration": 6, "velocity": 64}, {"time": 780, "pitch": 71, "duration": 6, "velocity": 64}, {"time": 786, "pitch": 72, "duration": 6, "velocity": 64}, {"time": 792, "pitch": 73, "duration": 6, "velocity": 64}, {"time": 798, "pitch": 74, "duration": 6, "velocity": 64}, {"time": 804, "pitch": 74, "duration": 24, "velocity": 64}, {"time": 828, "pitch": 72, "duration": 6, "velocity": 64}, {"time": 834, "pitch": 74, "duration": 6, "velocity": 64}, {"time": 840, "pitch": 76, "duration": 6, "velocity": 64}, {"time": 846, "pitch": 74, "duration": 6, "velocity": 64}, {"time": 852, "pitch": 72, "duration": 6, "velocity": 64}, {"time": 858, "pitch": 74, "duration": 6, "velocity": 64}, {"time": 864, "pitch": 76, "duration": 6, "velocity": 64}, {"time": 870, "pitch": 79, "duration": 6, "velocity": 64}, {"time": 876, "pitch": 72, "duration": 42, "velocity": 64}, {"time": 918, "pitch": 83, "duration": 6, "velocity": 64}, {"time": 924, "pitch": 81, "duration": 6, "velocity": 64}, {"time": 930, "pitch": 79, "duration": 6, "velocity": 64}, {"time": 936, "pitch": 79, "duration": 6, "velocity": 64}, {"time": 942, "pitch": 77, "duration": 6, "velocity": 64}, {"time": 948, "pitch": 74, "duration": 6, "velocity": 64}, {"time": 954, "pitch": 71, "duration": 6, "velocity": 64}, {"time": 960, "pitch": 74, "duration": 24, "velocity": 64}, {"time": 984, "pitch": 72, "duration": 24, "velocity": 64}]}]}