{"metadata": {"schema_version": "0.1", "title": "Melodia instrumentalna", "source_format": "abc"}, "resolution": 24, "tempos": [{"time": 0, "qpm": 120.0}], "key_signatures": [{"time": 0, "root": 7, "mode": "major", "fifths": 1}], "time_signatures": [{"time": 0, "numerator": 3, "denominator": 4}], "beats": [{"time": 0, "is_downbeat": true}, {"time": 24, "is_downbeat": false}, {"time": 48, "is_downbeat": false}, {"time": 72, "is_downbeat": true}, {"time": 96, "is_downbeat": false}, {"time": 120, "is_downbeat": false}, {"time": 144, "is_downbeat": true}, {"time": 168, "is_downbeat": false}, {"time": 192, "is_downbeat": false}, {"time": 216, "is_downbeat": true}, {"time": 240, "is_downbeat": false}, {"time": 264, "is_downbeat": false}, {"time": 288, "is_downbeat": true}, {"time": 312, "is_downbeat": false}, {"time": 336, "is_downbeat": false}, {"time": 360, "is_downbeat": true}, {"time": 384, "is_downbeat": false}, {"time": 408, "is_downbeat": false}, {"time": 432, "is_downbeat": true}, {"time": 456, "is_downbeat": false}, {"time": 480, "is_downbeat": false}, {"time": 492, "is_downbeat": true}, {"time": 516, "is_downbeat": false}, {"time": 540, "is_downbeat": false}, {"time": 564, "is_downbeat": true}, {"time": 588, "is_downbeat": false}, {"time": 612, "is_downbeat": false}, {"time": 636, "is_downbeat": true}, {"time": 660, "is_downbeat": false}, {"time": 684, "is_downbeat": false}, {"time": 708, "is_downbeat": true}, {"time": 732, "is_downbeat": false}, {"time": 756, "is_downbeat": false}, {"time": 780, "is_downbeat": true}, {"time": 804, "is_downbeat": false}, {"time": 828, "is_downbeat": false}, {"time": 852, "is_downbeat": true}, {"time": 876, "is_downbeat": false}, {"time": 900, "is_downbeat": false}, {"time": 924, "is_downbeat": true}, {"time": 948, "is_downbeat": false}, {"time": 972, "is_downbeat": false}, {"time": 996, "is_downbeat": true}, {"time": 1020, "is_downbeat": false}, {"time": 1044, "is_downbeat": false}, {"time": 1068, "is_downbeat": true}, {"time": 1092, "is_downbeat": false}, {"time": 1116, "is_downbeat": false}, {"time": 1140, "is_downbeat": true}, {"time": 1164, "is_downbeat": false}, {"time": 1188, "is_downbeat": false}, {"time": 1212, "is_downbeat": true}, {"time": 1236, "is_downbeat": false}, {"time": 1260, "is_downbeat": false}, {"time": 1284, "is_downbeat": true}, {"time": 1308, "is_downbeat": false}, {"time": 1332, "is_downbeat": false}, {"time": 1356, "is_downbeat": true}, {"time": 1380, "is_downbeat": false}, {"time": 1404, "is_downbeat": false}], "tracks": [{"program": 0, "is_drum": false, "notes": [{"time": 0, "pitch": 67, "duration": 12, "velocity": 64}, {"time": 12, "pitch": 69, "duration": 12, "velocity": 64}, {"time": 24, "pitch": 71, "duration": 12, "velocity": 64}, {"time": 36, "pitch": 72, "duration": 12, "velocity": 64}, {"time": 48, "pitch": 74, "duration": 12, "velocity": 64}, {"time": 60, "pitch": 76, "duration": 12, "velocity": 64}, {"time": 72, "pitch": 77, "duration": 18, "velocity": 64}, {"time": 90, "pitch": 78, "duration": 6, "velocity": 64}, {"time": 96, "pitch": 76, "duration": 24, "velocity": 64}, {"time": 120, "pitch": 76, "duration": 8, "velocity": 64}, {"time": 128, "pitch": 74, "duration": 8, "velocity": 64}, {"time": 136, "pitch": 72, "duration": 8, "velocity": 64}, {"time": 144, "pitch": 76, "duration": 8, "velocity": 64}, {"time": 152, "pitch": 77, "duration": 8, "velocity": 64}, {"time": 160, "pitch": 79, "duration": 8, "velocity": 64}, {"time": 168, "pitch": 78, "duration": 24, "velocity": 64}, {"time": 192, "pitch": 78, "duration": 8, "velocity": 64}, {"time": 200, "pitch": 76, "duration": 8, "velocity": 64}, {"time": 208, "pitch": 74, "duration": 8, "velocity": 64}, {"time": 216, "pitch": 76, "duration": 12, "velocity": 64}, {"time": 228, "pitch": 76, "duration": 12, "velocity": 64}, {"time": 240, "pitch": 72, "duration": 24, "velocity": 64}, {"time": 264, "pitch": 72, "duration": 8, "velocity": 64}, {"time": 272, "pitch": 71, "duration": 8, "velocity": 64}, {"time": 280, "pitch": 69, "duration": 8, "velocity": 64}, {"time": 288, "pitch": 67, "duration": 36, "velocity": 64}, {"time": 324, "pitch": 71, "duration": 12, "velocity": 64}, {"time": 336, "pitch": 74, "duration": 24, "velocity": 64}, {"time": 360, "pitch": 62, "duration": 8, "velocity": 64}, {"time": 368, "pitch": 66, "duration": 8, "velocity": 64}, {"time": 376, "pitch": 69, "duration": 8, "velocity": 64}, {"time": 384, "pitch": 67, "duration": 24, "velocity": 64}, {"time": 408, "pitch": 74, "duration": 24, "velocity": 64}, {"time": 432, "pitch": 67, "duration": 24, "velocity": 64}, {"time": 456, "pitch": 67, "duration": 12, "velocity": 64}, {"time": 468, "pitch": 71, "duration": 12, "velocity": 64}, {"time": 480, "pitch": 74, "duration": 12, "velocity": 64}, {"time": 492, "pitch": 62, "duration": 8, "velocity": 64}, {"time": 500, "pitch": 66, "duration": 8, "velocity": 64}, {"time": 508, "pitch": 69, "duration": 8, "velocity": 64}, {"time": 516, "pitch": 66, "duration": 24, "velocity": 64}, {"time": 540, "pitch": 67, "duration": 24, "velocity": 64}, {"time": 564, "pitch": 72, "duration": 12, "velocity": 64}, {"time": 576, "pitch": 74, "duration": 12, "velocity": 64}, {"time": 588, "pitch": 72, "duration": 12, "velocity": 64}, {"time": 600, "pitch": 71, "duration": 12, "velocity": 64}, {"time": 612, "pitch": 69, "duration": 12, "velocity": 64}, {"time": 624, "pitch": 67, "duration": 12, "velocity": 64}, {"time": 636, "pitch": 72, "duration": 12, "velocity": 64}, {"time": 648, "pitch": 74, "duration": 12, "velocity": 64}, {"time": 660, "pitch": 72, "duration": 12, "velocity": 64}, {"time": 672, "pitch": 71, "duration": 12, "velocity": 64}, {"time": 684, "pitch": 69, "duration": 12, "velocity": 64}, {"time": 696, "pitch": 67, "duration": 12, "velocity": 64}, {"time": 708, "pitch": 67, "duration": 12, "velocity": 64}, {"time": 720, "pitch": 71, "duration": 12, "velocity": 64}, {"time": 732, "pitch": 74, "duration": 12, "velocity": 64}, {"time": 744, "pitch": 73, "duration": 12, "velocity": 64}, {"time": 756, "pitch": 76, "duration": 12, "velocity": 64}, {"time": 768, "pitch": 74, "duration": 12, "velocity": 64}, {"time": 780, "pitch": 76, "duration": 12, "velocity": 64}, {"time": 792, "pitch": 74, "duration": 12, "velocity": 64}, {"time": 804, "pitch": 72, "duration": 12, "velocity": 64}, {"time": 816, "pitch": 71, "duration": 12, "velocity": 64}, {"time": 828, "pitch": 69, "duration": 12, "velocity": 64}, {"time": 840, "pitch": 67, "duration": 12, "velocity": 64}, {"time": 852, "pitch": 74, "duration": 12, "velocity": 64}, {"time": 864, "pitch": 72, "duration": 12, "velocity": 64}, {"time": 876, "pitch": 72, "duration": 24, "velocity": 64}, {"time": 900, "pitch": 72, "duration": 8, "velocity": 64}, {"time": 908, "pitch": 71, "duration": 8, "velocity": 64}, {"time": 916, "pitch": 69, "duration": 8, "velocity": 64}, {"time": 924, "pitch": 71, "duration": 8, "velocity": 64}, {"time": 932, "pitch": 72, "duration": 8, "velocity": 64}, {"time": 940, "pitch": 74, "duration": 8, "velocity": 64}, {"time": 948, "pitch": 67, "duration": 24, "velocity": 64}, {"time": 972, "pitch": 67, "duration": 8, "velocity": 64}, {"time": 980, "pitch": 66, "duration": 8, "velocity": 64}, {"time": 988, "pitch": 64, "duration": 8, "velocity": 64}, {"time": 996, "pitch": 62, "duration": 36, "velocity": 64}, {"time": 1032, "pitch": 66, "duration": 12, "velocity": 64}, {"time": 1044, "pitch": 69, "duration": 12, "velocity": 64}, {"time": 1056, "pitch": 66, "duration": 12, "velocity": 64}, {"time": 1068, "pitch": 67, "duration": 36, "velocity": 64}, {"time": 1104, "pitch": 71, "duration": 12, "velocity": 64}, {"time": 1116, "pitch": 74, "duration": 24, "velocity": 64}, {"time": 1140, "pitch": 69, "duration": 36, "velocity": 64}, {"time": 1176, "pitch": 76, "duration": 12, "velocity": 64}, {"time": 1188, "pitch": 72, "duration": 12, "velocity": 64}, {"time": 1200, "pitch": 69, "duration": 12, "velocity": 64}, {"time": 1212, "pitch": 71, "duration": 8, "velocity": 64}, {"time": 1220, "pitch": 72, "duration": 8, "velocity": 64}, {"time": 1228, "pitch": 74, "duration": 8, "velocity": 64}, {"time": 1236, "pitch": 67, "duration": 24, "velocity": 64}, {"time": 1260, "pitch": 67, "duration": 8, "velocity": 64}, {"time": 1268, "pitch": 66, "duration": 8, "velocity": 64}, {"time": 1276, "pitch": 64, "duration": 8, "velocity": 64}, {"time": 1284, "pitch": 62, "duration": 24, "velocity": 64}, {"time": 1308, "pitch": 62, "duration": 12, "velocity": 64}, {"time": 1320, "pitch": 66, "duration": 12, "velocity": 64}, {"time": 1332, "pitch": 69, "duration": 12, "velocity": 64}, {"time": 1344, "pitch": 72, "duration": 6, "velocity": 64}, {"time": 1350, "pitch": 71, "duration": 6, "velocity": 64}, {"time": 1356, "pitch": 67, "duration": 24, "velocity": 64}, {"time": 1380, "pitch": 67, "duration": 48, "velocity": 64}]}]}