{"metadata": {"schema_version": "0.1", "title": "Melodia instrumentalna", "source_format": "abc"}, "resolution": 24, "tempos": [{"time": 0, "qpm": 120.0}], "key_signatures": [{"time": 0, "root": 10, "mode": "major", "fifths": -2}], "time_signatures": [{"time": 0, "numerator": 3, "denominator": 4}], "beats": [{"time": 0, "is_downbeat": true}, {"time": 24, "is_downbeat": false}, {"time": 48, "is_downbeat": false}, {"time": 72, "is_downbeat": true}, {"time": 96, "is_downbeat": false}, {"time": 120, "is_downbeat": false}, {"time": 144, "is_downbeat": true}, {"time": 168, "is_downbeat": false}, {"time": 192, "is_downbeat": false}, {"time": 216, "is_downbeat": true}, {"time": 240, "is_downbeat": false}, {"time": 264, "is_downbeat": false}, {"time": 288, "is_downbeat": true}, {"time": 312, "is_downbeat": false}, {"time": 336, "is_downbeat": false}, {"time": 360, "is_downbeat": true}, {"time": 384, "is_downbeat": false}, {"time": 408, "is_downbeat": false}, {"time": 432, "is_downbeat": true}, {"time": 456, "is_downbeat": false}, {"time": 480, "is_downbeat": false}, {"time": 504, "is_downbeat": true}, {"time": 528, "is_downbeat": false}, {"time": 552, "is_downbeat": false}, {"time": 576, "is_downbeat": true}, {"time": 600, "is_downbeat": false}, {"time": 624, "is_downbeat": false}, {"time": 648, "is_downbeat": true}, {"time": 672, "is_downbeat": false}, {"time": 696, "is_downbeat": false}, {"time": 720, "is_downbeat": true}, {"time": 744, "is_downbeat": false}, {"time": 768, "is_downbeat": false}, {"time": 792, "is_downbeat": true}, {"time": 816, "is_downbeat": false}, {"time": 840, "is_downbeat": false}, {"time": 864, "is_downbeat": true}, {"time": 888, "is_downbeat": false}, {"time": 912, "is_downbeat": false}, {"time": 936, "is_downbeat": true}, {"time": 960, "is_downbeat": false}, {"time": 984, "is_downbeat": false}, {"time": 1008, "is_downbeat": true}, {"time": 1032, "is_downbeat": false}, {"time": 1056, "is_downbeat": false}, {"time": 1080, "is_downbeat": true}, {"time": 1104, "is_downbeat": false}, {"time": 1128, "is_downbeat": false}, {"time": 1152, "is_downbeat": true}, {"time": 1176, "is_downbeat": false}, {"time": 1200, "is_downbeat": false}, {"time": 1224, "is_downbeat": true}, {"time": 1248, "is_downbeat": false}, {"time": 1272, "is_downbeat": false}, {"time": 1296, "is_downbeat": true}, {"time": 1320, "is_downbeat": false}, {"time": 1344, "is_downbeat": false}, {"time": 1368, "is_downbeat": true}, {"time": 1392, "is_downbeat": false}, {"time": 1416, "is_downbeat": false}, {"time": 1440, "is_downbeat": true}, {"time": 1464, "is_downbeat": false}, {"time": 1488, "is_downbeat": false}, {"time": 1512, "is_downbeat": true}, {"time": 1536, "is_downbeat": false}, {"time": 1560, "is_downbeat": false}, {"time": 1584, "is_downbeat": true}, {"time": 1608, "is_downbeat": false}, {"time": 1632, "is_downbeat": false}, {"time": 1656, "is_downbeat": true}, {"time": 1680, "is_downbeat": false}, {"time": 1704, "is_downbeat": false}, {"time": 1728, "is_downbeat": true}, {"time": 1752, "is_downbeat": false}, {"time": 1776, "is_downbeat": false}, {"time": 1800, "is_downbeat": true}, {"time": 1824, "is_downbeat": false}, {"time": 1848, "is_downbeat": false}, {"time": 1872, "is_downbeat": true}, {"time": 1896, "is_downbeat": false}, {"time": 1920, "is_downbeat": false}, {"time": 1944, "is_downbeat": true}, {"time": 1968, "is_downbeat": false}, {"time": 1992, "is_downbeat": false}, {"time": 2016, "is_downbeat": true}, {"time": 2040, "is_downbeat": false}, {"time": 2064, "is_downbeat": false}, {"time": 2088, "is_downbeat": true}, {"time": 2112, "is_downbeat": false}, {"time": 2136, "is_downbeat": false}], "tracks": [{"program": 0, "is_drum": false, "notes": [{"time": 0, "pitch": 70, "duration": 12, "velocity": 64}, {"time": 12, "pitch": 74, "duration": 12, "velocity": 64}, {"time": 24, "pitch": 77, "duration": 12, "velocity": 64}, {"time": 36, "pitch": 79, "duration": 12, "velocity": 64}, {"time": 48, "pitch": 81, "duration": 12, "velocity": 64}, {"time": 60, "pitch": 79, "duration": 12, "velocity": 64}, {"time": 72, "pitch": 72, "duration": 12, "velocity": 64}, {"time": 84, "pitch": 75, "duration": 12, "velocity": 64}, {"time": 96, "pitch": 74, "duration": 48, "velocity": 64}, {"time": 144, "pitch": 70, "duration": 12, "velocity": 64}, {"time": 156, "pitch": 74, "duration": 12, "velocity": 64}, {"time": 168, "pitch": 77, "duration": 12, "velocity": 64}, {"time": 180, "pitch": 79, "duration": 12, "velocity": 64}, {"time": 192, "pitch": 81, "duration": 12, "velocity": 64}, {"time": 204, "pitch": 79, "duration": 12, "velocity": 64}, {"time": 216, "pitch": 72, "duration": 12, "velocity": 64}, {"time": 228, "pitch": 75, "duration": 12, "velocity": 64}, {"time": 240, "pitch": 74, "duration": 48, "velocity": 64}, {"time": 288, "pitch": 72, "duration": 12, "velocity": 64}, {"time": 300, "pitch": 69, "duration": 12, "velocity": 64}, {"time": 312, "pitch": 65, "duration": 36, "velocity": 64}, {"time": 348, "pitch": 69, "duration": 12, "velocity": 64}, {"time": 360, "pitch": 70, "duration": 12, "velocity": 64}, {"time": 372, "pitch": 74, "duration": 12, "velocity": 64}, {"time": 384, "pitch": 77, "duration": 12, "velocity": 64}, {"time": 396, "pitch": 79, "duration": 12, "velocity": 64}, {"time": 408, "pitch": 75, "duration": 12, "velocity": 64}, {"time": 420, "pitch": 74, "duration": 12, "velocity": 64}, {"time": 432, "pitch": 72, "duration": 12, "velocity": 64}, {"time": 444, "pitch": 69, "duration": 12, "velocity": 64}, {"time": 456, "pitch": 65, "duration": 36, "velocity": 64}, {"time": 492, "pitch": 69, "duration": 12, "velocity": 64}, {"time": 504, "pitch": 70, "duration": 12, "velocity": 64}, {"time": 516, "pitch": 74, "duration": 12, "velocity": 64}, {"time": 528, "pitch": 74, "duration": 12, "velocity": 64}, {"time": 540, "pitch": 72, "duration": 12, "velocity": 64}, {"time": 552, "pitch": 75, "duration": 12, "velocity": 64}, {"time": 564, "pitch": 74, "duration": 12, "velocity": 64}, {"time": 576, "pitch": 72, "duration": 12, "velocity": 64}, {"time": 588, "pitch": 69, "duration": 12, "velocity": 64}, {"time": 600, "pitch": 65, "duration": 36, "velocity": 64}, {"time": 636, "pitch": 69, "duration": 12, "velocity": 64}, {"time": 648, "pitch": 70, "duration": 12, "velocity": 64}, {"time": 660, "pitch": 74, "duration": 12, "velocity": 64}, {"time": 672, "pitch": 77, "duration": 12, "velocity": 64}, {"time": 684, "pitch": 79, "duration": 12, "velocity": 64}, {"time": 696, "pitch": 75, "duration": 12, "velocity": 64}, {"time": 708, "pitch": 74, "duration": 12, "velocity": 64}, {"time": 720, "pitch": 72, "duration": 12, "velocity": 64}, {"time": 732, "pitch": 69, "duration": 12, "velocity": 64}, {"time": 744, "pitch": 65, "duration": 36, "velocity": 64}, {"time": 780, "pitch": 69, "duration": 12, "velocity": 64}, {"time": 792, "pitch": 70, "duration": 12, "velocity": 64}, {"time": 804, "pitch": 74, "duration": 12, "velocity": 64}, {"time": 816, "pitch": 72, "duration": 12, "velocity": 64}, {"time": 828, "pitch": 69, "duration": 12, "velocity": 64}, {"time": 840, "pitch": 70, "duration": 24, "velocity": 64}, {"time": 864, "pitch": 74, "duration": 72, "velocity": 64}, {"time": 936, "pitch": 74, "duration": 72, "velocity": 64}, {"time": 1008, "pitch": 74, "duration": 12, "velocity": 64}, {"time": 1020, "pitch": 72, "duration": 12, "velocity": 64}, {"time": 1032, "pitch": 74, "duration": 12, "velocity": 64}, {"time": 1044, "pitch": 72, "duration": 12, "velocity": 64}, {"time": 1056, "pitch": 74, "duration": 12, "velocity": 64}, {"time": 1068, "pitch": 72, "duration": 12, "velocity": 64}, {"time": 1080, "pitch": 74, "duration": 12, "velocity": 64}, {"time": 1092, "pitch": 72, "duration": 12, "velocity": 64}, {"time": 1104, "pitch": 74, "duration": 12, "velocity": 64}, {"time": 1116, "pitch": 72, "duration": 12, "velocity": 64}, {"time": 1128, "pitch": 75, "duration": 12, "velocity": 64}, {"time": 1140, "pitch": 74, "duration": 12, "velocity": 64}, {"time": 1152, "pitch": 72, "duration": 12, "velocity": 64}, {"time": 1164, "pitch": 69, "duration": 12, "velocity": 64}, {"time": 1176, "pitch": 65, "duration": 36, "velocity": 64}, {"time": 1212, "pitch": 69, "duration": 12, "velocity": 64}, {"time": 1224, "pitch": 70, "duration": 12, "velocity": 64}, {"time": 1236, "pitch": 74, "duration": 12, "velocity": 64}, {"time": 1248, "pitch": 77, "duration": 12, "velocity": 64}, {"time": 1260, "pitch": 79, "duration": 12, "velocity": 64}, {"time": 1272, "pitch": 75, "duration": 12, "velocity": 64}, {"time": 1284, "pitch": 74, "duration": 12, "velocity": 64}, {"time": 1296, "pitch": 72, "duration": 12, "velocity": 64}, {"time": 1308, "pitch": 69, "duration": 12, "velocity": 64}, {"time": 1320, "pitch": 65, "duration": 24, "velocity": 64}, {"time": 1344, "pitch": 75, "duration": 24, "velocity": 64}, {"time": 1368, "pitch": 74, "duration": 12, "velocity": 64}, {"time": 1380, "pitch": 72, "duration": 12, "velocity": 64}, {"time": 1392, "pitch": 70, "duration": 24, "velocity": 64}, {"time": 1416, "pitch": 70, "duration": 24, "velocity": 64}, {"time": 1440, "pitch": 69, "duration": 12, "velocity": 64}, {"time": 1452, "pitch": 67, "duration": 12, "velocity": 64}, {"time": 1464, "pitch": 65, "duration": 24, "velocity": 64}, {"time": 1488, "pitch": 75, "duration": 24, "velocity": 64}, {"time": 1512, "pitch": 74, "duration": 12, "velocity": 64}, {"time": 1524, "pitch": 72, "duration": 12, "velocity": 64}, {"time": 1536, "pitch": 70, "duration": 24, "velocity": 64}, {"time": 1560, "pitch": 70, "duration": 24, "velocity": 64}, {"time": 1584, "pitch": 69, "duration": 12, "velocity": 64}, {"time": 1596, "pitch": 67, "duration": 12, "velocity": 64}, {"time": 1608, "pitch": 65, "duration": 36, "velocity": 64}, {"time": 1644, "pitch": 75, "duration": 12, "velocity": 64}, {"time": 1656, "pitch": 74, "duration": 12, "velocity": 64}, {"time": 1668, "pitch": 75, "duration": 12, "velocity": 64}, {"time": 1680, "pitch": 74, "duration": 12, "velocity": 64}, {"time": 1692, "pitch": 77, "duration": 12, "velocity": 64}, {"time": 1704, "pitch": 74, "duration": 12, "velocity": 64}, {"time": 1716, "pitch": 70, "duration": 12, "velocity": 64}, {"time": 1728, "pitch": 72, "duration": 12, "velocity": 64}, {"time": 1740, "pitch": 69, "duration": 12, "velocity": 64}, {"time": 1752, "pitch": 65, "duration": 36, "velocity": 64}, {"time": 1788, "pitch": 69, "duration": 12, "velocity": 64}, {"time": 1800, "pitch": 70, "duration": 12, "velocity": 64}, {"time": 1812, "pitch": 74, "duration": 12, "velocity": 64}, {"time": 1824, "pitch": 77, "duration": 12, "velocity": 64}, {"time": 1836, "pitch": 79, "duration": 12, "velocity": 64}, {"time": 1848, "pitch": 75, "duration": 12, "velocity": 64}, {"time": 1860, "pitch": 74, "duration": 12, "velocity": 64}, {"time": 1872, "pitch": 72, "duration": 12, "velocity": 64}, {"time": 1884, "pitch": 69, "duration": 12, "velocity": 64}, {"time": 1896, "pitch": 65, "duration": 36, "velocity": 64}, {"time": 1932, "pitch": 69, "duration": 12, "velocity": 64}, {"time": 1944, "pitch": 70, "duration": 12, "velocity": 64}, {"time": 1956, "pitch": 74, "duration": 12, "velocity": 64}, {"time": 1968, "pitch": 74, "duration": 12, "velocity": 64}, {"time": 1980, "pitch": 72, "duration": 12, "velocity": 64}, {"time": 1992, "pitch": 75, "duration": 12, "velocity": 64}, {"time": 2004, "pitch": 74, "duration": 12, "velocity": 64}, {"time": 2016, "pitch": 72, "duration": 12, "velocity": 64}, {"time": 2028, "pitch": 69, "duration": 12, "velocity": 64}, {"time": 2040, "pitch": 65, "duration": 36, "velocity": 64}, {"time": 2076, "pitch": 69, "duration": 12, "velocity": 64}, {"time": 2088, "pitch": 70, "duration": 12, "velocity": 64}, {"time": 2100, "pitch": 74, "duration": 12, "velocity": 64}, {"time": 2112, "pitch": 72, "duration": 12, "velocity": 64}, {"time": 2124, "pitch": 69, "duration": 12, "velocity": 64}, {"time": 2136, "pitch": 70, "duration": 24, "velocity": 64}]}]}