{"metadata": {"schema_version": "0.1", "title": "Bodaj umarl kto mi gani", "source_format": "abc"}, "resolution": 24, "tempos": [{"time": 0, "qpm": 120.0}], "key_signatures": [{"time": 0, "root": 0, "mode": "major", "fifths": 0}], "time_signatures": [{"time": 0, "numerator": 3, "denominator": 4}], "beats": [{"time": 0, "is_downbeat": true}, {"time": 24, "is_downbeat": false}, {"time": 48, "is_downbeat": false}, {"time": 72, "is_downbeat": true}, {"time": 96, "is_downbeat": false}, {"time": 120, "is_downbeat": false}, {"time": 144, "is_downbeat": true}, {"time": 168, "is_downbeat": false}, {"time": 192, "is_downbeat": false}, {"time": 212, "is_downbeat": true}, {"time": 236, "is_downbeat": false}, {"time": 260, "is_downbeat": false}, {"time": 284, "is_downbeat": true}, {"time": 308, "is_downbeat": false}, {"time": 332, "is_downbeat": false}, {"time": 356, "is_downbeat": true}, {"time": 380, "is_downbeat": false}, {"time": 404, "is_downbeat": false}, {"time": 428, "is_downbeat": true}, {"time": 452, "is_downbeat": false}, {"time": 476, "is_downbeat": false}, {"time": 500, "is_downbeat": true}, {"time": 524, "is_downbeat": false}, {"time": 548, "is_downbeat": false}], "tracks": [{"program": 0, "is_drum": false, "notes": [{"time": 0, "pitch": 72, "duration": 8, "velocity": 64}, {"time": 8, "pitch": 71, "duration": 8, "velocity": 64}, {"time": 16, "pitch": 69, "duration": 8, "velocity": 64}, {"time": 24, "pitch": 67, "duration": 24, "velocity": 64}, {"time": 48, "pitch": 69, "duration": 12, "velocity": 64}, {"time": 60, "pitch": 71, "duration": 12, "velocity": 64}, {"time": 72, "pitch": 72, "duration": 18, "velocity": 64}, {"time": 90, "pitch": 76, "duration": 6, "velocity": 64}, {"time": 96, "pitch": 79, "duration": 24, "velocity": 64}, {"time": 120, "pitch": 79, "duration": 24, "velocity": 64}, {"time": 144, "pitch": 72, "duration": 8, "velocity": 64}, {"time": 152, "pitch": 71, "duration": 8, "velocity": 64}, {"time": 160, "pitch": 69, "duration": 4, "velocity": 64}, {"time": 164, "pitch": 67, "duration": 24, "velocity": 64}, {"time": 188, "pitch": 71, "duration": 12, "velocity": 64}, {"time": 200, "pitch": 74, "duration": 12, "velocity": 64}, {"time": 212, "pitch": 74, "duration": 12, "velocity": 64}, {"time": 224, "pitch": 77, "duration": 12, "velocity": 64}, {"time": 236, "pitch": 77, "duration": 12, "velocity": 64}, {"time": 248, "pitch": 76, "duration": 12, "velocity": 64}, {"time": 260, "pitch": 72, "duration": 24, "velocity": 64}, {"time": 284, "pitch": 72, "duration": 12, "velocity": 64}, {"time": 296, "pitch": 74, "duration": 12, "velocity": 64}, {"time": 308, "pitch": 76, "duration": 12, "velocity": 64}, {"time": 320, "pitch": 71, "duration": 12, "velocity": 64}, {"time": 332, "pitch": 72, "duration": 12, "velocity": 64}, {"time": 344, "pitch": 69, "duration": 12, "velocity": 64}, {"time": 356, "pitch": 67, "duration": 12, "velocity": 64}, {"time": 368, "pitch": 71, "duration": 12, "velocity": 64}, {"time": 380, "pitch": 74, "duration": 24, "velocity": 64}, {"time": 404, "pitch": 74, "duration": 24, "velocity": 64}, {"time": 428, "pitch": 72, "duration": 12, "velocity": 64}, {"time": 440, "pitch": 74, "duration": 12, "velocity": 64}, {"time": 452, "pitch": 76, "duration": 12, "velocity": 64}, {"time": 464, "pitch": 72, "duration": 12, "velocity": 64}, {"time": 476, "pitch": 76, "duration": 12, "velocity": 64}, {"time": 488, "pitch": 79, "duration": 12, "velocity": 64}, {"time": 500, "pitch": 79, "duration": 12, "velocity": 64}, {"time": 512, "pitch": 77, "duration": 12, "velocity": 64}, {"time": 524, "pitch": 74, "duration": 12, "velocity": 64}, {"time": 536, "pitch": 71, "duration": 12, "velocity": 64}, {"time": 548, "pitch": 72, "duration": 24, "velocity": 64}]}]}