{"metadata": {"schema_version": "0.1", "title": "Melodia instrumentalna", "source_format": "abc"}, "resolution": 24, "tempos": [{"time": 0, "qpm": 120.0}], "key_signatures": [{"time": 0, "root": 0, "mode": "major", "fifths": 0}], "time_signatures": [{"time": 0, "numerator": 3, "denominator": 4}], "beats": [{"time": 0, "is_downbeat": true}, {"time": 24, "is_downbeat": false}, {"time": 48, "is_downbeat": false}, {"time": 72, "is_downbeat": true}, {"time": 96, "is_downbeat": false}, {"time": 120, "is_downbeat": false}, {"time": 144, "is_downbeat": true}, {"time": 168, "is_downbeat": false}, {"time": 192, "is_downbeat": false}, {"time": 216, "is_downbeat": true}, {"time": 240, "is_downbeat": false}, {"time": 264, "is_downbeat": false}, {"time": 288, "is_downbeat": true}, {"time": 312, "is_downbeat": false}, {"time": 336, "is_downbeat": false}, {"time": 360, "is_downbeat": true}, {"time": 384, "is_downbeat": false}, {"time": 408, "is_downbeat": false}, {"time": 432, "is_downbeat": true}, {"time": 456, "is_downbeat": false}, {"time": 480, "is_downbeat": false}, {"time": 504, "is_downbeat": true}, {"time": 528, "is_downbeat": false}, {"time": 552, "is_downbeat": false}, {"time": 576, "is_downbeat": true}, {"time": 600, "is_downbeat": false}, {"time": 624, "is_downbeat": false}, {"time": 648, "is_downbeat": true}, {"time": 672, "is_downbeat": false}, {"time": 696, "is_downbeat": false}, {"time": 720, "is_downbeat": true}, {"time": 744, "is_downbeat": false}, {"time": 768, "is_downbeat": false}, {"time": 792, "is_downbeat": true}, {"time": 816, "is_downbeat": false}, {"time": 840, "is_downbeat": false}, {"time": 864, "is_downbeat": true}, {"time": 888, "is_downbeat": false}, {"time": 912, "is_downbeat": false}, {"time": 936, "is_downbeat": true}, {"time": 960, "is_downbeat": false}, {"time": 984, "is_downbeat": false}, {"time": 1008, "is_downbeat": true}, {"time": 1032, "is_downbeat": false}, {"time": 1056, "is_downbeat": false}, {"time": 1080, "is_downbeat": true}, {"time": 1104, "is_downbeat": false}, {"time": 1128, "is_downbeat": false}, {"time": 1152, "is_downbeat": true}, {"time": 1176, "is_downbeat": false}, {"time": 1200, "is_downbeat": false}, {"time": 1224, "is_downbeat": true}, {"time": 1248, "is_downbeat": false}, {"time": 1272, "is_downbeat": false}, {"time": 1296, "is_downbeat": true}, {"time": 1320, "is_downbeat": false}, {"time": 1344, "is_downbeat": false}, {"time": 1368, "is_downbeat": true}, {"time": 1392, "is_downbeat": false}, {"time": 1416, "is_downbeat": false}], "tracks": [{"program": 0, "is_drum": false, "notes": [{"time": 0, "pitch": 67, "duration": 36, "velocity": 64}, {"time": 36, "pitch": 71, "duration": 12, "velocity": 64}, {"time": 48, "pitch": 74, "duration": 12, "velocity": 64}, {"time": 60, "pitch": 76, "duration": 12, "velocity": 64}, {"time": 72, "pitch": 77, "duration": 12, "velocity": 64}, {"time": 84, "pitch": 77, "duration": 12, "velocity": 64}, {"time": 96, "pitch": 76, "duration": 12, "velocity": 64}, {"time": 114, "pitch": 72, "duration": 6, "velocity": 64}, {"time": 120, "pitch": 76, "duration": 12, "velocity": 64}, {"time": 132, "pitch": 79, "duration": 12, "velocity": 64}, {"time": 144, "pitch": 67, "duration": 36, "velocity": 64}, {"time": 180, "pitch": 71, "duration": 12, "velocity": 64}, {"time": 192, "pitch": 74, "duration": 12, "velocity": 64}, {"time": 204, "pitch": 71, "duration": 12, "velocity": 64}, {"time": 216, "pitch": 72, "duration": 12, "velocity": 64}, {"time": 228, "pitch": 76, "duration": 12, "velocity": 64}, {"time": 240, "pitch": 72, "duration": 24, "velocity": 64}, {"time": 264, "pitch": 69, "duration": 12, "velocity": 64}, {"time": 276, "pitch": 66, "duration": 12, "velocity": 64}, {"time": 288, "pitch": 67, "duration": 36, "velocity": 64}, {"time": 324, "pitch": 71, "duration": 12, "velocity": 64}, {"time": 336, "pitch": 74, "duration": 24, "velocity": 64}, {"time": 360, "pitch": 62, "duration": 24, "velocity": 64}, {"time": 384, "pitch": 66, "duration": 12, "velocity": 64}, {"time": 396, "pitch": 69, "duration": 12, "velocity": 64}, {"time": 408, "pitch": 72, "duration": 12, "velocity": 64}, {"time": 420, "pitch": 71, "duration": 12, "velocity": 64}, {"time": 432, "pitch": 67, "duration": 36, "velocity": 64}, {"time": 468, "pitch": 71, "duration": 12, "velocity": 64}, {"time": 480, "pitch": 74, "duration": 24, "velocity": 64}, {"time": 504, "pitch": 74, "duration": 12, "velocity": 64}, {"time": 516, "pitch": 76, "duration": 12, "velocity": 64}, {"time": 528, "pitch": 72, "duration": 24, "velocity": 64}, {"time": 552, "pitch": 69, "duration": 12, "velocity": 64}, {"time": 564, "pitch": 66, "duration": 12, "velocity": 64}, {"time": 576, "pitch": 67, "duration": 36, "velocity": 64}, {"time": 612, "pitch": 71, "duration": 12, "velocity": 64}, {"time": 624, "pitch": 74, "duration": 24, "velocity": 64}, {"time": 648, "pitch": 62, "duration": 24, "velocity": 64}, {"time": 672, "pitch": 66, "duration": 12, "velocity": 64}, {"time": 684, "pitch": 69, "duration": 12, "velocity": 64}, {"time": 696, "pitch": 72, "duration": 12, "velocity": 64}, {"time": 708, "pitch": 71, "duration": 12, "velocity": 64}, {"time": 720, "pitch": 67, "duration": 36, "velocity": 64}, {"time": 756, "pitch": 71, "duration": 12, "velocity": 64}, {"time": 768, "pitch": 74, "duration": 12, "velocity": 64}, {"time": 780, "pitch": 77, "duration": 12, "velocity": 64}, {"time": 792, "pitch": 81, "duration": 12, "velocity": 64}, {"time": 804, "pitch": 81, "duration": 12, "velocity": 64}, {"time": 816, "pitch": 77, "duration": 24, "velocity": 64}, {"time": 840, "pitch": 74, "duration": 12, "velocity": 64}, {"time": 852, "pitch": 71, "duration": 12, "velocity": 64}, {"time": 864, "pitch": 67, "duration": 36, "velocity": 64}, {"time": 900, "pitch": 71, "duration": 12, "velocity": 64}, {"time": 912, "pitch": 74, "duration": 12, "velocity": 64}, {"time": 924, "pitch": 76, "duration": 12, "velocity": 64}, {"time": 936, "pitch": 77, "duration": 12, "velocity": 64}, {"time": 948, "pitch": 77, "duration": 12, "velocity": 64}, {"time": 960, "pitch": 76, "duration": 12, "velocity": 64}, {"time": 978, "pitch": 72, "duration": 12, "velocity": 64}, {"time": 990, "pitch": 76, "duration": 6, "velocity": 64}, {"time": 996, "pitch": 79, "duration": 12, "velocity": 64}, {"time": 1008, "pitch": 67, "duration": 36, "velocity": 64}, {"time": 1044, "pitch": 77, "duration": 12, "velocity": 64}, {"time": 1056, "pitch": 74, "duration": 12, "velocity": 64}, {"time": 1068, "pitch": 71, "duration": 12, "velocity": 64}, {"time": 1080, "pitch": 72, "duration": 12, "velocity": 64}, {"time": 1092, "pitch": 76, "duration": 12, "velocity": 64}, {"time": 1104, "pitch": 72, "duration": 24, "velocity": 64}, {"time": 1128, "pitch": 69, "duration": 12, "velocity": 64}, {"time": 1140, "pitch": 66, "duration": 12, "velocity": 64}, {"time": 1152, "pitch": 67, "duration": 36, "velocity": 64}, {"time": 1188, "pitch": 71, "duration": 12, "velocity": 64}, {"time": 1200, "pitch": 74, "duration": 12, "velocity": 64}, {"time": 1212, "pitch": 76, "duration": 12, "velocity": 64}, {"time": 1224, "pitch": 77, "duration": 12, "velocity": 64}, {"time": 1236, "pitch": 77, "duration": 12, "velocity": 64}, {"time": 1248, "pitch": 76, "duration": 12, "velocity": 64}, {"time": 1266, "pitch": 72, "duration": 12, "velocity": 64}, {"time": 1278, "pitch": 76, "duration": 6, "velocity": 64}, {"time": 1284, "pitch": 79, "duration": 12, "velocity": 64}, {"time": 1296, "pitch": 67, "duration": 36, "velocity": 64}, {"time": 1332, "pitch": 71, "duration": 12, "velocity": 64}, {"time": 1344, "pitch": 74, "duration": 12, "velocity": 64}, {"time": 1356, "pitch": 71, "duration": 12, "velocity": 64}, {"time": 1368, "pitch": 72, "duration": 12, "velocity": 64}, {"time": 1380, "pitch": 76, "duration": 12, "velocity": 64}, {"time": 1392, "pitch": 72, "duration": 24, "velocity": 64}]}]}