{"metadata": {"schema_version": "0.1", "title": "UND ALS ICH AUF GRUEN HEIDE KAM", "source_format": "abc"}, "resolution": 24, "tempos": [{"time": 0, "qpm": 120.0}], "key_signatures": [{"time": 0, "root": 5, "mode": "major", "fifths": -1}], "time_signatures": [{"time": 0, "numerator": 4, "denominator": 4}], "beats": [{"time": 0, "is_downbeat": true}, {"time": 12, "is_downbeat": true}, {"time": 36, "is_downbeat": false}, {"time": 60, "is_downbeat": false}, {"time": 84, "is_downbeat": false}, {"time": 108, "is_downbeat": true}, {"time": 132, "is_downbeat": false}, {"time": 156, "is_downbeat": false}, {"time": 180, "is_downbeat": false}, {"time": 204, "is_downbeat": true}, {"time": 228, "is_downbeat": false}, {"time": 252, "is_downbeat": false}, {"time": 276, "is_downbeat": false}, {"time": 300, "is_downbeat": true}, {"time": 324, "is_downbeat": false}, {"time": 348, "is_downbeat": false}, {"time": 372, "is_downbeat": false}, {"time": 396, "is_downbeat": true}, {"time": 420, "is_downbeat": false}, {"time": 444, "is_downbeat": false}, {"time": 468, "is_downbeat": false}, {"time": 492, "is_downbeat": true}, {"time": 516, "is_downbeat": false}, {"time": 540, "is_downbeat": false}, {"time": 564, "is_downbeat": false}, {"time": 588, "is_downbeat": true}, {"time": 612, "is_downbeat": false}, {"time": 636, "is_downbeat": false}, {"time": 660, "is_downbeat": false}, {"time": 684, "is_downbeat": true}, {"time": 708, "is_downbeat": false}, {"time": 732, "is_downbeat": false}, {"time": 756, "is_downbeat": false}, {"time": 780, "is_downbeat": true}, {"time": 804, "is_downbeat": false}, {"time": 828, "is_downbeat": false}, {"time": 852, "is_downbeat": false}, {"time": 876, "is_downbeat": true}, {"time": 900, "is_downbeat": false}, {"time": 924, "is_downbeat": false}, {"time": 948, "is_downbeat": false}, {"time": 972, "is_downbeat": true}, {"time": 996, "is_downbeat": false}, {"time": 1020, "is_downbeat": false}, {"time": 1044, "is_downbeat": false}, {"time": 1068, "is_downbeat": true}, {"time": 1092, "is_downbeat": false}, {"time": 1116, "is_downbeat": false}, {"time": 1140, "is_downbeat": false}], "tracks": [{"program": 0, "is_drum": false, "notes": [{"time": 0, "pitch": 63, "duration": 12, "velocity": 64}, {"time": 12, "pitch": 63, "duration": 36, "velocity": 64}, {"time": 48, "pitch": 68, "duration": 12, "velocity": 64}, {"time": 60, "pitch": 69, "duration": 24, "velocity": 64}, {"time": 84, "pitch": 65, "duration": 24, "velocity": 64}, {"time": 108, "pitch": 65, "duration": 36, "velocity": 64}, {"time": 144, "pitch": 63, "duration": 12, "velocity": 64}, {"time": 156, "pitch": 64, "duration": 24, "velocity": 64}, {"time": 192, "pitch": 64, "duration": 12, "velocity": 64}, {"time": 204, "pitch": 68, "duration": 36, "velocity": 64}, {"time": 240, "pitch": 69, "duration": 12, "velocity": 64}, {"time": 252, "pitch": 70, "duration": 36, "velocity": 64}, {"time": 288, "pitch": 70, "duration": 12, "velocity": 64}, {"time": 300, "pitch": 72, "duration": 72, "velocity": 64}, {"time": 384, "pitch": 68, "duration": 12, "velocity": 64}, {"time": 396, "pitch": 67, "duration": 36, "velocity": 64}, {"time": 432, "pitch": 65, "duration": 12, "velocity": 64}, {"time": 444, "pitch": 67, "duration": 24, "velocity": 64}, {"time": 468, "pitch": 68, "duration": 24, "velocity": 64}, {"time": 492, "pitch": 70, "duration": 48, "velocity": 64}, {"time": 540, "pitch": 72, "duration": 48, "velocity": 64}, {"time": 588, "pitch": 65, "duration": 36, "velocity": 64}, {"time": 624, "pitch": 67, "duration": 12, "velocity": 64}, {"time": 636, "pitch": 68, "duration": 24, "velocity": 64}, {"time": 660, "pitch": 65, "duration": 24, "velocity": 64}, {"time": 684, "pitch": 67, "duration": 24, "velocity": 64}, {"time": 708, "pitch": 60, "duration": 24, "velocity": 64}, {"time": 732, "pitch": 60, "duration": 24, "velocity": 64}, {"time": 756, "pitch": 68, "duration": 24, "velocity": 64}, {"time": 780, "pitch": 67, "duration": 36, "velocity": 64}, {"time": 816, "pitch": 65, "duration": 12, "velocity": 64}, {"time": 828, "pitch": 67, "duration": 24, "velocity": 64}, {"time": 852, "pitch": 68, "duration": 24, "velocity": 64}, {"time": 876, "pitch": 70, "duration": 48, "velocity": 64}, {"time": 924, "pitch": 72, "duration": 24, "velocity": 64}, {"time": 960, "pitch": 70, "duration": 12, "velocity": 64}, {"time": 972, "pitch": 68, "duration": 24, "velocity": 64}, {"time": 996, "pitch": 65, "duration": 24, "velocity": 64}, {"time": 1020, "pitch": 67, "duration": 24, "velocity": 64}, {"time": 1044, "pitch": 64, "duration": 24, "velocity": 64}, {"time": 1068, "pitch": 65, "duration": 48, "velocity": 64}]}]}