{"metadata": {"schema_version": "0.1", "title": "ES TRIEB EIN SCHAEFER DIE LAEMMELEIN AUS", "source_format": "abc"}, "resolution": 24, "tempos": [{"time": 0, "qpm": 120.0}], "key_signatures": [{"time": 0, "root": 0, "mode": "major", "fifths": 0}], "time_signatures": [{"time": 0, "numerator": 4, "denominator": 4}], "beats": [{"time": 0, "is_downbeat": true}, {"time": 24, "is_downbeat": true}, {"time": 48, "is_downbeat": false}, {"time": 72, "is_downbeat": false}, {"time": 96, "is_downbeat": false}, {"time": 120, "is_downbeat": true}, {"time": 144, "is_downbeat": false}, {"time": 168, "is_downbeat": false}, {"time": 192, "is_downbeat": false}, {"time": 216, "is_downbeat": true}, {"time": 240, "is_downbeat": false}, {"time": 264, "is_downbeat": false}, {"time": 288, "is_downbeat": false}, {"time": 312, "is_downbeat": true}, {"time": 336, "is_downbeat": false}, {"time": 360, "is_downbeat": false}, {"time": 384, "is_downbeat": false}, {"time": 408, "is_downbeat": true}, {"time": 432, "is_downbeat": false}, {"time": 456, "is_downbeat": false}, {"time": 480, "is_downbeat": false}, {"time": 504, "is_downbeat": true}, {"time": 528, "is_downbeat": false}, {"time": 552, "is_downbeat": false}, {"time": 576, "is_downbeat": false}, {"time": 600, "is_downbeat": true}, {"time": 624, "is_downbeat": false}, {"time": 648, "is_downbeat": false}, {"time": 672, "is_downbeat": false}], "tracks": [{"program": 0, "is_drum": false, "notes": [{"time": 0, "pitch": 55, "duration": 24, "velocity": 64}, {"time": 24, "pitch": 60, "duration": 24, "velocity": 64}, {"time": 48, "pitch": 60, "duration": 24, "velocity": 64}, {"time": 72, "pitch": 62, "duration": 12, "velocity": 64}, {"time": 84, "pitch": 60, "duration": 12, "velocity": 64}, {"time": 96, "pitch": 59, "duration": 12, "velocity": 64}, {"time": 108, "pitch": 57, "duration": 12, "velocity": 64}, {"time": 120, "pitch": 57, "duration": 12, "velocity": 64}, {"time": 132, "pitch": 55, "duration": 12, "velocity": 64}, {"time": 144, "pitch": 55, "duration": 12, "velocity": 64}, {"time": 156, "pitch": 55, "duration": 12, "velocity": 64}, {"time": 168, "pitch": 55, "duration": 36, "velocity": 64}, {"time": 204, "pitch": 60, "duration": 12, "velocity": 64}, {"time": 216, "pitch": 55, "duration": 12, "velocity": 64}, {"time": 228, "pitch": 53, "duration": 12, "velocity": 64}, {"time": 240, "pitch": 52, "duration": 12, "velocity": 64}, {"time": 252, "pitch": 53, "duration": 12, "velocity": 64}, {"time": 264, "pitch": 55, "duration": 12, "velocity": 64}, {"time": 276, "pitch": 53, "duration": 12, "velocity": 64}, {"time": 288, "pitch": 52, "duration": 12, "velocity": 64}, {"time": 300, "pitch": 50, "duration": 12, "velocity": 64}, {"time": 312, "pitch": 52, "duration": 24, "velocity": 64}, {"time": 336, "pitch": 48, "duration": 12, "velocity": 64}, {"time": 348, "pitch": 48, "duration": 12, "velocity": 64}, {"time": 360, "pitch": 48, "duration": 24, "velocity": 64}, {"time": 384, "pitch": 52, "duration": 12, "velocity": 64}, {"time": 396, "pitch": 55, "duration": 12, "velocity": 64}, {"time": 408, "pitch": 55, "duration": 12, "velocity": 64}, {"time": 420, "pitch": 53, "duration": 12, "velocity": 64}, {"time": 432, "pitch": 50, "duration": 12, "velocity": 64}, {"time": 444, "pitch": 53, "duration": 12, "velocity": 64}, {"time": 456, "pitch": 52, "duration": 24, "velocity": 64}, {"time": 480, "pitch": 55, "duration": 24, "velocity": 64}, {"time": 504, "pitch": 60, "duration": 24, "velocity": 64}, {"time": 528, "pitch": 60, "duration": 12, "velocity": 64}, {"time": 540, "pitch": 60, "duration": 12, "velocity": 64}, {"time": 552, "pitch": 62, "duration": 24, "velocity": 64}, {"time": 576, "pitch": 62, "duration": 24, "velocity": 64}, {"time": 600, "pitch": 59, "duration": 18, "velocity": 64}, {"time": 618, "pitch": 59, "duration": 6, "velocity": 64}, {"time": 624, "pitch": 59, "duration": 12, "velocity": 64}, {"time": 636, "pitch": 59, "duration": 12, "velocity": 64}, {"time": 648, "pitch": 60, "duration": 24, "velocity": 64}]}]}