{"metadata": {"schema_version": "0.1", "title": "A DIARNDL GEHT UM HOLZ IN WALD", "source_format": "abc"}, "resolution": 24, "tempos": [{"time": 0, "qpm": 120.0}], "key_signatures": [{"time": 0, "root": 2, "mode": "major", "fifths": 2}], "time_signatures": [{"time": 0, "numerator": 3, "denominator": 4}], "beats": [{"time": 0, "is_downbeat": true}, {"time": 12, "is_downbeat": true}, {"time": 36, "is_downbeat": false}, {"time": 60, "is_downbeat": false}, {"time": 84, "is_downbeat": true}, {"time": 108, "is_downbeat": false}, {"time": 132, "is_downbeat": false}, {"time": 156, "is_downbeat": true}, {"time": 180, "is_downbeat": false}, {"time": 204, "is_downbeat": false}, {"time": 228, "is_downbeat": true}, {"time": 252, "is_downbeat": false}, {"time": 276, "is_downbeat": false}, {"time": 300, "is_downbeat": true}, {"time": 324, "is_downbeat": false}, {"time": 348, "is_downbeat": false}, {"time": 372, "is_downbeat": true}, {"time": 396, "is_downbeat": false}, {"time": 420, "is_downbeat": false}, {"time": 444, "is_downbeat": true}, {"time": 468, "is_downbeat": false}, {"time": 492, "is_downbeat": false}, {"time": 516, "is_downbeat": true}, {"time": 540, "is_downbeat": false}, {"time": 564, "is_downbeat": false}, {"time": 588, "is_downbeat": true}, {"time": 612, "is_downbeat": false}, {"time": 636, "is_downbeat": false}, {"time": 660, "is_downbeat": true}, {"time": 684, "is_downbeat": false}, {"time": 708, "is_downbeat": false}, {"time": 732, "is_downbeat": true}, {"time": 756, "is_downbeat": false}, {"time": 780, "is_downbeat": false}, {"time": 804, "is_downbeat": true}, {"time": 828, "is_downbeat": false}, {"time": 852, "is_downbeat": false}, {"time": 876, "is_downbeat": true}, {"time": 900, "is_downbeat": false}, {"time": 924, "is_downbeat": false}, {"time": 948, "is_downbeat": true}, {"time": 972, "is_downbeat": false}, {"time": 996, "is_downbeat": false}, {"time": 1020, "is_downbeat": true}, {"time": 1044, "is_downbeat": false}, {"time": 1068, "is_downbeat": false}, {"time": 1092, "is_downbeat": true}, {"time": 1116, "is_downbeat": false}, {"time": 1140, "is_downbeat": false}, {"time": 1164, "is_downbeat": true}, {"time": 1188, "is_downbeat": false}, {"time": 1212, "is_downbeat": false}, {"time": 1236, "is_downbeat": true}, {"time": 1260, "is_downbeat": false}, {"time": 1284, "is_downbeat": false}, {"time": 1308, "is_downbeat": true}, {"time": 1332, "is_downbeat": false}, {"time": 1356, "is_downbeat": false}, {"time": 1380, "is_downbeat": true}, {"time": 1404, "is_downbeat": false}, {"time": 1428, "is_downbeat": false}, {"time": 1452, "is_downbeat": true}, {"time": 1476, "is_downbeat": false}, {"time": 1500, "is_downbeat": false}, {"time": 1524, "is_downbeat": true}, {"time": 1548, "is_downbeat": false}, {"time": 1572, "is_downbeat": false}, {"time": 1596, "is_downbeat": true}, {"time": 1620, "is_downbeat": false}, {"time": 1644, "is_downbeat": false}, {"time": 1668, "is_downbeat": true}, {"time": 1692, "is_downbeat": false}, {"time": 1716, "is_downbeat": false}], "tracks": [{"program": 0, "is_drum": false, "notes": [{"time": 0, "pitch": 57, "duration": 12, "velocity": 64}, {"time": 12, "pitch": 66, "duration": 18, "velocity": 64}, {"time": 30, "pitch": 66, "duration": 6, "velocity": 64}, {"time": 36, "pitch": 66, "duration": 36, "velocity": 64}, {"time": 72, "pitch": 66, "duration": 12, "velocity": 64}, {"time": 84, "pitch": 74, "duration": 12, "velocity": 64}, {"time": 96, "pitch": 73, "duration": 12, "velocity": 64}, {"time": 108, "pitch": 71, "duration": 24, "velocity": 64}, {"time": 144, "pitch": 62, "duration": 12, "velocity": 64}, {"time": 156, "pitch": 61, "duration": 18, "velocity": 64}, {"time": 174, "pitch": 71, "duration": 6, "velocity": 64}, {"time": 180, "pitch": 69, "duration": 24, "velocity": 64}, {"time": 204, "pitch": 64, "duration": 24, "velocity": 64}, {"time": 228, "pitch": 66, "duration": 12, "velocity": 64}, {"time": 240, "pitch": 74, "duration": 12, "velocity": 64}, {"time": 252, "pitch": 69, "duration": 24, "velocity": 64}, {"time": 288, "pitch": 66, "duration": 12, "velocity": 64}, {"time": 300, "pitch": 69, "duration": 18, "velocity": 64}, {"time": 318, "pitch": 78, "duration": 6, "velocity": 64}, {"time": 324, "pitch": 74, "duration": 36, "velocity": 64}, {"time": 360, "pitch": 66, "duration": 12, "velocity": 64}, {"time": 372, "pitch": 74, "duration": 12, "velocity": 64}, {"time": 384, "pitch": 73, "duration": 12, "velocity": 64}, {"time": 396, "pitch": 71, "duration": 24, "velocity": 64}, {"time": 432, "pitch": 62, "duration": 12, "velocity": 64}, {"time": 444, "pitch": 61, "duration": 18, "velocity": 64}, {"time": 462, "pitch": 71, "duration": 6, "velocity": 64}, {"time": 468, "pitch": 69, "duration": 24, "velocity": 64}, {"time": 492, "pitch": 67, "duration": 12, "velocity": 64}, {"time": 504, "pitch": 61, "duration": 12, "velocity": 64}, {"time": 516, "pitch": 62, "duration": 24, "velocity": 64}, {"time": 588, "pitch": 57, "duration": 24, "velocity": 64}, {"time": 612, "pitch": 61, "duration": 24, "velocity": 64}, {"time": 636, "pitch": 64, "duration": 24, "velocity": 64}, {"time": 660, "pitch": 69, "duration": 24, "velocity": 64}, {"time": 684, "pitch": 79, "duration": 36, "velocity": 64}, {"time": 720, "pitch": 73, "duration": 12, "velocity": 64}, {"time": 732, "pitch": 74, "duration": 24, "velocity": 64}, {"time": 756, "pitch": 66, "duration": 36, "velocity": 64}, {"time": 792, "pitch": 71, "duration": 12, "velocity": 64}, {"time": 804, "pitch": 69, "duration": 48, "velocity": 64}, {"time": 876, "pitch": 73, "duration": 24, "velocity": 64}, {"time": 900, "pitch": 67, "duration": 36, "velocity": 64}, {"time": 936, "pitch": 71, "duration": 12, "velocity": 64}, {"time": 948, "pitch": 69, "duration": 48, "velocity": 64}, {"time": 1020, "pitch": 74, "duration": 24, "velocity": 64}, {"time": 1044, "pitch": 66, "duration": 36, "velocity": 64}, {"time": 1080, "pitch": 71, "duration": 12, "velocity": 64}, {"time": 1092, "pitch": 69, "duration": 72, "velocity": 64}, {"time": 1164, "pitch": 57, "duration": 24, "velocity": 64}, {"time": 1188, "pitch": 61, "duration": 24, "velocity": 64}, {"time": 1212, "pitch": 64, "duration": 24, "velocity": 64}, {"time": 1236, "pitch": 69, "duration": 24, "velocity": 64}, {"time": 1260, "pitch": 79, "duration": 36, "velocity": 64}, {"time": 1296, "pitch": 73, "duration": 12, "velocity": 64}, {"time": 1308, "pitch": 74, "duration": 24, "velocity": 64}, {"time": 1332, "pitch": 66, "duration": 36, "velocity": 64}, {"time": 1368, "pitch": 71, "duration": 12, "velocity": 64}, {"time": 1380, "pitch": 69, "duration": 48, "velocity": 64}, {"time": 1452, "pitch": 73, "duration": 24, "velocity": 64}, {"time": 1476, "pitch": 67, "duration": 36, "velocity": 64}, {"time": 1512, "pitch": 71, "duration": 12, "velocity": 64}, {"time": 1524, "pitch": 69, "duration": 24, "velocity": 64}, {"time": 1548, "pitch": 67, "duration": 24, "velocity": 64}, {"time": 1572, "pitch": 64, "duration": 24, "velocity": 64}, {"time": 1596, "pitch": 62, "duration": 72, "velocity": 64}, {"time": 1668, "pitch": 62, "duration": 24, "velocity": 64}]}]}