{"metadata": {"schema_version": "0.1", "title": "ACH SCHIFFMANN DU FEIN GUETIGER MANN", "source_format": "abc"}, "resolution": 24, "tempos": [{"time": 0, "qpm": 120.0}], "key_signatures": [{"time": 0, "root": 0, "mode": "major", "fifths": 0}], "time_signatures": [{"time": 0, "numerator": 2, "denominator": 4}], "beats": [{"time": 0, "is_downbeat": true}, {"time": 12, "is_downbeat": true}, {"time": 36, "is_downbeat": false}, {"time": 60, "is_downbeat": true}, {"time": 84, "is_downbeat": false}, {"time": 108, "is_downbeat": true}, {"time": 132, "is_downbeat": false}, {"time": 156, "is_downbeat": true}, {"time": 180, "is_downbeat": false}, {"time": 204, "is_downbeat": true}, {"time": 228, "is_downbeat": false}, {"time": 252, "is_downbeat": true}, {"time": 276, "is_downbeat": false}, {"time": 300, "is_downbeat": true}, {"time": 324, "is_downbeat": false}, {"time": 348, "is_downbeat": true}, {"time": 372, "is_downbeat": false}, {"time": 396, "is_downbeat": true}, {"time": 420, "is_downbeat": false}, {"time": 444, "is_downbeat": true}, {"time": 468, "is_downbeat": false}, {"time": 492, "is_downbeat": true}, {"time": 516, "is_downbeat": false}, {"time": 540, "is_downbeat": true}, {"time": 564, "is_downbeat": false}, {"time": 588, "is_downbeat": true}, {"time": 612, "is_downbeat": false}, {"time": 636, "is_downbeat": true}, {"time": 660, "is_downbeat": false}, {"time": 684, "is_downbeat": true}, {"time": 708, "is_downbeat": false}, {"time": 732, "is_downbeat": true}, {"time": 756, "is_downbeat": false}, {"time": 780, "is_downbeat": true}, {"time": 804, "is_downbeat": false}, {"time": 828, "is_downbeat": true}, {"time": 852, "is_downbeat": false}, {"time": 876, "is_downbeat": true}, {"time": 900, "is_downbeat": false}, {"time": 924, "is_downbeat": true}, {"time": 948, "is_downbeat": false}, {"time": 972, "is_downbeat": true}, {"time": 996, "is_downbeat": false}, {"time": 1020, "is_downbeat": true}, {"time": 1044, "is_downbeat": false}, {"time": 1068, "is_downbeat": true}, {"time": 1092, "is_downbeat": false}, {"time": 1116, "is_downbeat": true}, {"time": 1140, "is_downbeat": false}, {"time": 1164, "is_downbeat": true}, {"time": 1188, "is_downbeat": false}, {"time": 1212, "is_downbeat": true}, {"time": 1236, "is_downbeat": false}, {"time": 1260, "is_downbeat": true}, {"time": 1284, "is_downbeat": false}, {"time": 1308, "is_downbeat": true}, {"time": 1332, "is_downbeat": false}, {"time": 1356, "is_downbeat": true}, {"time": 1380, "is_downbeat": false}, {"time": 1404, "is_downbeat": true}, {"time": 1428, "is_downbeat": false}], "tracks": [{"program": 0, "is_drum": false, "notes": [{"time": 0, "pitch": 64, "duration": 6, "velocity": 64}, {"time": 6, "pitch": 65, "duration": 6, "velocity": 64}, {"time": 12, "pitch": 67, "duration": 12, "velocity": 64}, {"time": 24, "pitch": 64, "duration": 12, "velocity": 64}, {"time": 36, "pitch": 67, "duration": 12, "velocity": 64}, {"time": 48, "pitch": 72, "duration": 12, "velocity": 64}, {"time": 60, "pitch": 67, "duration": 6, "velocity": 64}, {"time": 66, "pitch": 65, "duration": 6, "velocity": 64}, {"time": 72, "pitch": 64, "duration": 6, "velocity": 64}, {"time": 78, "pitch": 62, "duration": 6, "velocity": 64}, {"time": 84, "pitch": 60, "duration": 12, "velocity": 64}, {"time": 96, "pitch": 72, "duration": 12, "velocity": 64}, {"time": 108, "pitch": 74, "duration": 12, "velocity": 64}, {"time": 120, "pitch": 76, "duration": 12, "velocity": 64}, {"time": 132, "pitch": 74, "duration": 18, "velocity": 64}, {"time": 150, "pitch": 72, "duration": 6, "velocity": 64}, {"time": 156, "pitch": 71, "duration": 12, "velocity": 64}, {"time": 168, "pitch": 69, "duration": 12, "velocity": 64}, {"time": 180, "pitch": 67, "duration": 12, "velocity": 64}, {"time": 192, "pitch": 72, "duration": 12, "velocity": 64}, {"time": 204, "pitch": 69, "duration": 12, "velocity": 64}, {"time": 216, "pitch": 65, "duration": 6, "velocity": 64}, {"time": 222, "pitch": 65, "duration": 6, "velocity": 64}, {"time": 228, "pitch": 65, "duration": 12, "velocity": 64}, {"time": 240, "pitch": 74, "duration": 12, "velocity": 64}, {"time": 252, "pitch": 72, "duration": 6, "velocity": 64}, {"time": 258, "pitch": 71, "duration": 6, "velocity": 64}, {"time": 264, "pitch": 69, "duration": 6, "velocity": 64}, {"time": 270, "pitch": 71, "duration": 6, "velocity": 64}, {"time": 276, "pitch": 67, "duration": 12, "velocity": 64}, {"time": 288, "pitch": 72, "duration": 12, "velocity": 64}, {"time": 300, "pitch": 64, "duration": 18, "velocity": 64}, {"time": 318, "pitch": 65, "duration": 6, "velocity": 64}, {"time": 324, "pitch": 62, "duration": 18, "velocity": 64}, {"time": 342, "pitch": 64, "duration": 6, "velocity": 64}, {"time": 348, "pitch": 60, "duration": 24, "velocity": 64}, {"time": 384, "pitch": 65, "duration": 12, "velocity": 64}, {"time": 396, "pitch": 64, "duration": 6, "velocity": 64}, {"time": 402, "pitch": 67, "duration": 6, "velocity": 64}, {"time": 408, "pitch": 72, "duration": 12, "velocity": 64}, {"time": 420, "pitch": 64, "duration": 18, "velocity": 64}, {"time": 438, "pitch": 62, "duration": 6, "velocity": 64}, {"time": 444, "pitch": 60, "duration": 24, "velocity": 64}, {"time": 480, "pitch": 64, "duration": 6, "velocity": 64}, {"time": 486, "pitch": 65, "duration": 6, "velocity": 64}, {"time": 492, "pitch": 67, "duration": 12, "velocity": 64}, {"time": 504, "pitch": 64, "duration": 12, "velocity": 64}, {"time": 516, "pitch": 67, "duration": 12, "velocity": 64}, {"time": 528, "pitch": 72, "duration": 12, "velocity": 64}, {"time": 540, "pitch": 67, "duration": 6, "velocity": 64}, {"time": 546, "pitch": 65, "duration": 6, "velocity": 64}, {"time": 552, "pitch": 64, "duration": 6, "velocity": 64}, {"time": 558, "pitch": 62, "duration": 6, "velocity": 64}, {"time": 564, "pitch": 60, "duration": 12, "velocity": 64}, {"time": 576, "pitch": 72, "duration": 12, "velocity": 64}, {"time": 588, "pitch": 74, "duration": 12, "velocity": 64}, {"time": 600, "pitch": 76, "duration": 12, "velocity": 64}, {"time": 612, "pitch": 74, "duration": 18, "velocity": 64}, {"time": 630, "pitch": 72, "duration": 6, "velocity": 64}, {"time": 636, "pitch": 71, "duration": 12, "velocity": 64}, {"time": 648, "pitch": 69, "duration": 12, "velocity": 64}, {"time": 660, "pitch": 67, "duration": 12, "velocity": 64}, {"time": 672, "pitch": 72, "duration": 12, "velocity": 64}, {"time": 684, "pitch": 69, "duration": 12, "velocity": 64}, {"time": 696, "pitch": 65, "duration": 6, "velocity": 64}, {"time": 702, "pitch": 65, "duration": 6, "velocity": 64}, {"time": 708, "pitch": 65, "duration": 12, "velocity": 64}, {"time": 720, "pitch": 74, "duration": 12, "velocity": 64}, {"time": 732, "pitch": 72, "duration": 6, "velocity": 64}, {"time": 738, "pitch": 71, "duration": 6, "velocity": 64}, {"time": 744, "pitch": 69, "duration": 6, "velocity": 64}, {"time": 750, "pitch": 71, "duration": 6, "velocity": 64}, {"time": 756, "pitch": 67, "duration": 12, "velocity": 64}, {"time": 768, "pitch": 72, "duration": 12, "velocity": 64}, {"time": 780, "pitch": 64, "duration": 18, "velocity": 64}, {"time": 798, "pitch": 65, "duration": 6, "velocity": 64}, {"time": 804, "pitch": 62, "duration": 18, "velocity": 64}, {"time": 822, "pitch": 64, "duration": 6, "velocity": 64}, {"time": 828, "pitch": 60, "duration": 24, "velocity": 64}, {"time": 864, "pitch": 65, "duration": 12, "velocity": 64}, {"time": 876, "pitch": 64, "duration": 6, "velocity": 64}, {"time": 882, "pitch": 67, "duration": 6, "velocity": 64}, {"time": 888, "pitch": 72, "duration": 12, "velocity": 64}, {"time": 900, "pitch": 64, "duration": 18, "velocity": 64}, {"time": 918, "pitch": 62, "duration": 6, "velocity": 64}, {"time": 924, "pitch": 60, "duration": 24, "velocity": 64}, {"time": 960, "pitch": 64, "duration": 6, "velocity": 64}, {"time": 966, "pitch": 65, "duration": 6, "velocity": 64}, {"time": 972, "pitch": 67, "duration": 12, "velocity": 64}, {"time": 984, "pitch": 64, "duration": 12, "velocity": 64}, {"time": 996, "pitch": 67, "duration": 12, "velocity": 64}, {"time": 1008, "pitch": 72, "duration": 12, "velocity": 64}, {"time": 1020, "pitch": 67, "duration": 6, "velocity": 64}, {"time": 1026, "pitch": 65, "duration": 6, "velocity": 64}, {"time": 1032, "pitch": 64, "duration": 6, "velocity": 64}, {"time": 1038, "pitch": 62, "duration": 6, "velocity": 64}, {"time": 1044, "pitch": 60, "duration": 12, "velocity": 64}, {"time": 1056, "pitch": 72, "duration": 12, "velocity": 64}, {"time": 1068, "pitch": 74, "duration": 12, "velocity": 64}, {"time": 1080, "pitch": 76, "duration": 12, "velocity": 64}, {"time": 1092, "pitch": 74, "duration": 18, "velocity": 64}, {"time": 1110, "pitch": 72, "duration": 6, "velocity": 64}, {"time": 1116, "pitch": 71, "duration": 12, "velocity": 64}, {"time": 1128, "pitch": 69, "duration": 12, "velocity": 64}, {"time": 1140, "pitch": 67, "duration": 12, "velocity": 64}, {"time": 1152, "pitch": 67, "duration": 12, "velocity": 64}, {"time": 1164, "pitch": 69, "duration": 12, "velocity": 64}, {"time": 1176, "pitch": 67, "duration": 12, "velocity": 64}, {"time": 1188, "pitch": 69, "duration": 12, "velocity": 64}, {"time": 1200, "pitch": 71, "duration": 12, "velocity": 64}, {"time": 1212, "pitch": 72, "duration": 12, "velocity": 64}, {"time": 1224, "pitch": 71, "duration": 6, "velocity": 64}, {"time": 1230, "pitch": 69, "duration": 6, "velocity": 64}, {"time": 1236, "pitch": 67, "duration": 18, "velocity": 64}, {"time": 1254, "pitch": 72, "duration": 6, "velocity": 64}, {"time": 1260, "pitch": 64, "duration": 18, "velocity": 64}, {"time": 1278, "pitch": 65, "duration": 6, "velocity": 64}, {"time": 1284, "pitch": 62, "duration": 18, "velocity": 64}, {"time": 1302, "pitch": 64, "duration": 6, "velocity": 64}, {"time": 1308, "pitch": 60, "duration": 36, "velocity": 64}, {"time": 1344, "pitch": 65, "duration": 12, "velocity": 64}, {"time": 1356, "pitch": 64, "duration": 6, "velocity": 64}, {"time": 1362, "pitch": 67, "duration": 6, "velocity": 64}, {"time": 1368, "pitch": 72, "duration": 12, "velocity": 64}, {"time": 1380, "pitch": 64, "duration": 18, "velocity": 64}, {"time": 1398, "pitch": 62, "duration": 6, "velocity": 64}, {"time": 1404, "pitch": 60, "duration": 24, "velocity": 64}]}]}