{"metadata": {"schema_version": "0.1", "title": "ES WOHNT EIN MUELLER IN JENEM THAL", "source_format": "abc"}, "resolution": 24, "tempos": [{"time": 0, "qpm": 120.0}], "key_signatures": [{"time": 0, "root": 10, "mode": "major", "fifths": -2}], "time_signatures": [{"time": 0, "numerator": 4, "denominator": 4}, {"time": 516, "numerator": 1, "denominator": 4}, {"time": 708, "numerator": 1, "denominator": 4}, {"time": 900, "numerator": 1, "denominator": 4}, {"time": 1092, "numerator": 1, "denominator": 4}, {"time": 1116, "numerator": 6, "denominator": 8}, {"time": 1188, "numerator": 1, "denominator": 8}], "beats": [{"time": 0, "is_downbeat": true}, {"time": 12, "is_downbeat": true}, {"time": 36, "is_downbeat": true}, {"time": 60, "is_downbeat": true}, {"time": 84, "is_downbeat": true}, {"time": 108, "is_downbeat": true}, {"time": 132, "is_downbeat": true}, {"time": 156, "is_downbeat": true}, {"time": 180, "is_downbeat": true}, {"time": 204, "is_downbeat": true}, {"time": 228, "is_downbeat": true}, {"time": 252, "is_downbeat": true}, {"time": 276, "is_downbeat": true}, {"time": 300, "is_downbeat": true}, {"time": 324, "is_downbeat": true}, {"time": 348, "is_downbeat": true}, {"time": 372, "is_downbeat": true}, {"time": 396, "is_downbeat": true}, {"time": 420, "is_downbeat": true}, {"time": 444, "is_downbeat": true}, {"time": 468, "is_downbeat": true}, {"time": 492, "is_downbeat": true}, {"time": 516, "is_downbeat": true}, {"time": 540, "is_downbeat": true}, {"time": 564, "is_downbeat": true}, {"time": 588, "is_downbeat": true}, {"time": 612, "is_downbeat": true}, {"time": 636, "is_downbeat": true}, {"time": 660, "is_downbeat": true}, {"time": 684, "is_downbeat": true}, {"time": 708, "is_downbeat": true}, {"time": 732, "is_downbeat": true}, {"time": 756, "is_downbeat": true}, {"time": 780, "is_downbeat": true}, {"time": 804, "is_downbeat": true}, {"time": 828, "is_downbeat": true}, {"time": 852, "is_downbeat": true}, {"time": 876, "is_downbeat": true}, {"time": 900, "is_downbeat": true}, {"time": 924, "is_downbeat": true}, {"time": 948, "is_downbeat": true}, {"time": 972, "is_downbeat": true}, {"time": 996, "is_downbeat": true}, {"time": 1020, "is_downbeat": true}, {"time": 1044, "is_downbeat": true}, {"time": 1068, "is_downbeat": true}, {"time": 1092, "is_downbeat": true}, {"time": 1104, "is_downbeat": false}, {"time": 1116, "is_downbeat": true}, {"time": 1128, "is_downbeat": true}, {"time": 1140, "is_downbeat": true}, {"time": 1152, "is_downbeat": true}, {"time": 1164, "is_downbeat": true}, {"time": 1176, "is_downbeat": true}, {"time": 1188, "is_downbeat": true}], "tracks": [{"program": 0, "is_drum": false, "notes": [{"time": 0, "pitch": 65, "duration": 12, "velocity": 64}, {"time": 12, "pitch": 70, "duration": 24, "velocity": 64}, {"time": 36, "pitch": 70, "duration": 12, "velocity": 64}, {"time": 48, "pitch": 69, "duration": 12, "velocity": 64}, {"time": 60, "pitch": 69, "duration": 12, "velocity": 64}, {"time": 72, "pitch": 72, "duration": 12, "velocity": 64}, {"time": 84, "pitch": 70, "duration": 24, "velocity": 64}, {"time": 108, "pitch": 67, "duration": 12, "velocity": 64}, {"time": 120, "pitch": 65, "duration": 36, "velocity": 64}, {"time": 156, "pitch": 75, "duration": 36, "velocity": 64}, {"time": 192, "pitch": 74, "duration": 24, "velocity": 64}, {"time": 216, "pitch": 77, "duration": 12, "velocity": 64}, {"time": 228, "pitch": 72, "duration": 48, "velocity": 64}, {"time": 288, "pitch": 77, "duration": 12, "velocity": 64}, {"time": 300, "pitch": 72, "duration": 24, "velocity": 64}, {"time": 324, "pitch": 74, "duration": 12, "velocity": 64}, {"time": 336, "pitch": 72, "duration": 24, "velocity": 64}, {"time": 360, "pitch": 70, "duration": 12, "velocity": 64}, {"time": 372, "pitch": 69, "duration": 24, "velocity": 64}, {"time": 396, "pitch": 67, "duration": 12, "velocity": 64}, {"time": 408, "pitch": 65, "duration": 36, "velocity": 64}, {"time": 444, "pitch": 74, "duration": 24, "velocity": 64}, {"time": 468, "pitch": 74, "duration": 12, "velocity": 64}, {"time": 480, "pitch": 74, "duration": 12, "velocity": 64}, {"time": 492, "pitch": 74, "duration": 24, "velocity": 64}, {"time": 516, "pitch": 74, "duration": 12, "velocity": 64}, {"time": 528, "pitch": 74, "duration": 12, "velocity": 64}, {"time": 540, "pitch": 74, "duration": 24, "velocity": 64}, {"time": 564, "pitch": 74, "duration": 12, "velocity": 64}, {"time": 576, "pitch": 74, "duration": 12, "velocity": 64}, {"time": 588, "pitch": 74, "duration": 24, "velocity": 64}, {"time": 612, "pitch": 77, "duration": 24, "velocity": 64}, {"time": 636, "pitch": 72, "duration": 12, "velocity": 64}, {"time": 648, "pitch": 72, "duration": 12, "velocity": 64}, {"time": 660, "pitch": 72, "duration": 12, "velocity": 64}, {"time": 672, "pitch": 72, "duration": 12, "velocity": 64}, {"time": 684, "pitch": 72, "duration": 24, "velocity": 64}, {"time": 708, "pitch": 70, "duration": 12, "velocity": 64}, {"time": 720, "pitch": 70, "duration": 12, "velocity": 64}, {"time": 732, "pitch": 69, "duration": 24, "velocity": 64}, {"time": 756, "pitch": 67, "duration": 24, "velocity": 64}, {"time": 780, "pitch": 65, "duration": 24, "velocity": 64}, {"time": 804, "pitch": 65, "duration": 24, "velocity": 64}, {"time": 828, "pitch": 70, "duration": 24, "velocity": 64}, {"time": 852, "pitch": 70, "duration": 24, "velocity": 64}, {"time": 876, "pitch": 72, "duration": 24, "velocity": 64}, {"time": 900, "pitch": 72, "duration": 24, "velocity": 64}, {"time": 924, "pitch": 77, "duration": 72, "velocity": 64}, {"time": 996, "pitch": 75, "duration": 24, "velocity": 64}, {"time": 1020, "pitch": 74, "duration": 24, "velocity": 64}, {"time": 1044, "pitch": 74, "duration": 24, "velocity": 64}, {"time": 1068, "pitch": 72, "duration": 24, "velocity": 64}, {"time": 1092, "pitch": 72, "duration": 24, "velocity": 64}, {"time": 1116, "pitch": 70, "duration": 48, "velocity": 64}]}]}