{"metadata": {"schema_version": "0.1", "title": "WENN ZU MEIM SCHAETZEL KOMMST", "source_format": "abc"}, "resolution": 24, "tempos": [{"time": 0, "qpm": 120.0}], "key_signatures": [{"time": 0, "root": 7, "mode": "major", "fifths": 1}], "time_signatures": [{"time": 0, "numerator": 3, "denominator": 8}], "beats": [{"time": 0, "is_downbeat": true}, {"time": 12, "is_downbeat": false}, {"time": 24, "is_downbeat": false}, {"time": 36, "is_downbeat": true}, {"time": 48, "is_downbeat": false}, {"time": 60, "is_downbeat": false}, {"time": 72, "is_downbeat": true}, {"time": 84, "is_downbeat": false}, {"time": 96, "is_downbeat": false}, {"time": 108, "is_downbeat": true}, {"time": 120, "is_downbeat": false}, {"time": 132, "is_downbeat": false}, {"time": 144, "is_downbeat": true}, {"time": 156, "is_downbeat": false}, {"time": 168, "is_downbeat": false}, {"time": 180, "is_downbeat": true}, {"time": 192, "is_downbeat": false}, {"time": 204, "is_downbeat": false}, {"time": 216, "is_downbeat": true}, {"time": 228, "is_downbeat": false}, {"time": 240, "is_downbeat": false}, {"time": 252, "is_downbeat": true}, {"time": 264, "is_downbeat": false}, {"time": 276, "is_downbeat": false}, {"time": 288, "is_downbeat": true}, {"time": 300, "is_downbeat": false}, {"time": 312, "is_downbeat": false}, {"time": 324, "is_downbeat": true}, {"time": 336, "is_downbeat": false}, {"time": 348, "is_downbeat": false}, {"time": 360, "is_downbeat": true}, {"time": 372, "is_downbeat": false}, {"time": 384, "is_downbeat": false}, {"time": 396, "is_downbeat": true}, {"time": 408, "is_downbeat": false}, {"time": 420, "is_downbeat": false}, {"time": 432, "is_downbeat": true}, {"time": 444, "is_downbeat": false}, {"time": 456, "is_downbeat": false}, {"time": 468, "is_downbeat": true}, {"time": 480, "is_downbeat": false}, {"time": 492, "is_downbeat": false}, {"time": 504, "is_downbeat": true}, {"time": 516, "is_downbeat": false}, {"time": 528, "is_downbeat": false}, {"time": 540, "is_downbeat": true}, {"time": 552, "is_downbeat": false}, {"time": 564, "is_downbeat": false}, {"time": 576, "is_downbeat": true}, {"time": 588, "is_downbeat": false}, {"time": 600, "is_downbeat": false}, {"time": 612, "is_downbeat": true}, {"time": 624, "is_downbeat": false}, {"time": 636, "is_downbeat": false}, {"time": 648, "is_downbeat": true}, {"time": 660, "is_downbeat": false}, {"time": 672, "is_downbeat": false}, {"time": 684, "is_downbeat": true}, {"time": 696, "is_downbeat": false}, {"time": 708, "is_downbeat": false}, {"time": 720, "is_downbeat": true}, {"time": 732, "is_downbeat": false}, {"time": 744, "is_downbeat": false}, {"time": 756, "is_downbeat": true}, {"time": 768, "is_downbeat": false}, {"time": 780, "is_downbeat": false}, {"time": 792, "is_downbeat": true}, {"time": 804, "is_downbeat": false}, {"time": 816, "is_downbeat": false}, {"time": 828, "is_downbeat": true}, {"time": 840, "is_downbeat": false}, {"time": 852, "is_downbeat": false}, {"time": 864, "is_downbeat": true}, {"time": 876, "is_downbeat": false}, {"time": 888, "is_downbeat": false}, {"time": 900, "is_downbeat": true}, {"time": 912, "is_downbeat": false}, {"time": 924, "is_downbeat": false}, {"time": 936, "is_downbeat": true}, {"time": 948, "is_downbeat": false}, {"time": 960, "is_downbeat": false}, {"time": 972, "is_downbeat": true}, {"time": 984, "is_downbeat": false}, {"time": 996, "is_downbeat": false}, {"time": 1008, "is_downbeat": true}, {"time": 1020, "is_downbeat": false}, {"time": 1032, "is_downbeat": false}, {"time": 1044, "is_downbeat": true}, {"time": 1056, "is_downbeat": false}, {"time": 1068, "is_downbeat": false}], "tracks": [{"program": 0, "is_drum": false, "notes": [{"time": 0, "pitch": 71, "duration": 18, "velocity": 64}, {"time": 18, "pitch": 69, "duration": 6, "velocity": 64}, {"time": 24, "pitch": 71, "duration": 12, "velocity": 64}, {"time": 36, "pitch": 72, "duration": 12, "velocity": 64}, {"time": 48, "pitch": 72, "duration": 12, "velocity": 64}, {"time": 60, "pitch": 62, "duration": 12, "velocity": 64}, {"time": 72, "pitch": 72, "duration": 18, "velocity": 64}, {"time": 90, "pitch": 72, "duration": 6, "velocity": 64}, {"time": 96, "pitch": 76, "duration": 12, "velocity": 64}, {"time": 108, "pitch": 74, "duration": 24, "velocity": 64}, {"time": 132, "pitch": 71, "duration": 12, "velocity": 64}, {"time": 144, "pitch": 71, "duration": 18, "velocity": 64}, {"time": 162, "pitch": 69, "duration": 6, "velocity": 64}, {"time": 168, "pitch": 71, "duration": 12, "velocity": 64}, {"time": 180, "pitch": 72, "duration": 12, "velocity": 64}, {"time": 192, "pitch": 72, "duration": 12, "velocity": 64}, {"time": 204, "pitch": 62, "duration": 12, "velocity": 64}, {"time": 216, "pitch": 72, "duration": 18, "velocity": 64}, {"time": 234, "pitch": 72, "duration": 6, "velocity": 64}, {"time": 240, "pitch": 76, "duration": 12, "velocity": 64}, {"time": 252, "pitch": 74, "duration": 24, "velocity": 64}, {"time": 276, "pitch": 71, "duration": 12, "velocity": 64}, {"time": 288, "pitch": 69, "duration": 18, "velocity": 64}, {"time": 306, "pitch": 71, "duration": 6, "velocity": 64}, {"time": 312, "pitch": 69, "duration": 12, "velocity": 64}, {"time": 324, "pitch": 69, "duration": 18, "velocity": 64}, {"time": 342, "pitch": 71, "duration": 6, "velocity": 64}, {"time": 348, "pitch": 69, "duration": 12, "velocity": 64}, {"time": 360, "pitch": 69, "duration": 18, "velocity": 64}, {"time": 378, "pitch": 71, "duration": 6, "velocity": 64}, {"time": 384, "pitch": 69, "duration": 6, "velocity": 64}, {"time": 390, "pitch": 71, "duration": 6, "velocity": 64}, {"time": 396, "pitch": 72, "duration": 36, "velocity": 64}, {"time": 432, "pitch": 71, "duration": 36, "velocity": 64}, {"time": 468, "pitch": 69, "duration": 36, "velocity": 64}, {"time": 504, "pitch": 71, "duration": 12, "velocity": 64}, {"time": 516, "pitch": 71, "duration": 12, "velocity": 64}, {"time": 528, "pitch": 71, "duration": 12, "velocity": 64}, {"time": 540, "pitch": 71, "duration": 12, "velocity": 64}, {"time": 552, "pitch": 74, "duration": 24, "velocity": 64}, {"time": 576, "pitch": 74, "duration": 12, "velocity": 64}, {"time": 588, "pitch": 72, "duration": 6, "velocity": 64}, {"time": 594, "pitch": 71, "duration": 6, "velocity": 64}, {"time": 600, "pitch": 72, "duration": 6, "velocity": 64}, {"time": 606, "pitch": 69, "duration": 6, "velocity": 64}, {"time": 612, "pitch": 67, "duration": 12, "velocity": 64}, {"time": 624, "pitch": 79, "duration": 12, "velocity": 64}, {"time": 636, "pitch": 74, "duration": 12, "velocity": 64}, {"time": 648, "pitch": 71, "duration": 12, "velocity": 64}, {"time": 660, "pitch": 71, "duration": 12, "velocity": 64}, {"time": 672, "pitch": 71, "duration": 12, "velocity": 64}, {"time": 684, "pitch": 71, "duration": 12, "velocity": 64}, {"time": 696, "pitch": 74, "duration": 24, "velocity": 64}, {"time": 720, "pitch": 74, "duration": 12, "velocity": 64}, {"time": 732, "pitch": 72, "duration": 6, "velocity": 64}, {"time": 738, "pitch": 71, "duration": 6, "velocity": 64}, {"time": 744, "pitch": 72, "duration": 6, "velocity": 64}, {"time": 750, "pitch": 69, "duration": 6, "velocity": 64}, {"time": 756, "pitch": 67, "duration": 24, "velocity": 64}, {"time": 792, "pitch": 71, "duration": 12, "velocity": 64}, {"time": 804, "pitch": 71, "duration": 12, "velocity": 64}, {"time": 816, "pitch": 71, "duration": 12, "velocity": 64}, {"time": 828, "pitch": 71, "duration": 12, "velocity": 64}, {"time": 840, "pitch": 74, "duration": 24, "velocity": 64}, {"time": 864, "pitch": 74, "duration": 12, "velocity": 64}, {"time": 876, "pitch": 72, "duration": 6, "velocity": 64}, {"time": 882, "pitch": 71, "duration": 6, "velocity": 64}, {"time": 888, "pitch": 72, "duration": 6, "velocity": 64}, {"time": 894, "pitch": 69, "duration": 6, "velocity": 64}, {"time": 900, "pitch": 67, "duration": 12, "velocity": 64}, {"time": 912, "pitch": 79, "duration": 12, "velocity": 64}, {"time": 924, "pitch": 74, "duration": 12, "velocity": 64}, {"time": 936, "pitch": 71, "duration": 12, "velocity": 64}, {"time": 948, "pitch": 71, "duration": 12, "velocity": 64}, {"time": 960, "pitch": 71, "duration": 12, "velocity": 64}, {"time": 972, "pitch": 71, "duration": 12, "velocity": 64}, {"time": 984, "pitch": 74, "duration": 24, "velocity": 64}, {"time": 1008, "pitch": 74, "duration": 12, "velocity": 64}, {"time": 1020, "pitch": 72, "duration": 6, "velocity": 64}, {"time": 1026, "pitch": 71, "duration": 6, "velocity": 64}, {"time": 1032, "pitch": 72, "duration": 6, "velocity": 64}, {"time": 1038, "pitch": 69, "duration": 6, "velocity": 64}, {"time": 1044, "pitch": 67, "duration": 24, "velocity": 64}]}]}