{"metadata": {"schema_version": "0.1", "title": "NACHTIGALL ICH HOER DIR SINGEN", "source_format": "abc"}, "resolution": 24, "tempos": [{"time": 0, "qpm": 120.0}], "key_signatures": [{"time": 0, "root": 5, "mode": "major", "fifths": -1}], "time_signatures": [{"time": 0, "numerator": 3, "denominator": 4}], "beats": [{"time": 0, "is_downbeat": true}, {"time": 24, "is_downbeat": false}, {"time": 48, "is_downbeat": false}, {"time": 72, "is_downbeat": true}, {"time": 96, "is_downbeat": false}, {"time": 120, "is_downbeat": false}, {"time": 144, "is_downbeat": true}, {"time": 168, "is_downbeat": false}, {"time": 192, "is_downbeat": false}, {"time": 216, "is_downbeat": true}, {"time": 240, "is_downbeat": false}, {"time": 264, "is_downbeat": false}, {"time": 288, "is_downbeat": true}, {"time": 312, "is_downbeat": false}, {"time": 336, "is_downbeat": false}, {"time": 360, "is_downbeat": true}, {"time": 384, "is_downbeat": false}, {"time": 408, "is_downbeat": false}, {"time": 432, "is_downbeat": true}, {"time": 456, "is_downbeat": false}, {"time": 480, "is_downbeat": false}, {"time": 504, "is_downbeat": true}, {"time": 528, "is_downbeat": false}, {"time": 552, "is_downbeat": false}, {"time": 576, "is_downbeat": true}, {"time": 600, "is_downbeat": false}, {"time": 624, "is_downbeat": false}, {"time": 648, "is_downbeat": true}, {"time": 672, "is_downbeat": false}, {"time": 696, "is_downbeat": false}, {"time": 720, "is_downbeat": true}, {"time": 744, "is_downbeat": false}, {"time": 768, "is_downbeat": false}], "tracks": [{"program": 0, "is_drum": false, "notes": [{"time": 0, "pitch": 60, "duration": 18, "velocity": 64}, {"time": 18, "pitch": 60, "duration": 6, "velocity": 64}, {"time": 24, "pitch": 65, "duration": 24, "velocity": 64}, {"time": 48, "pitch": 69, "duration": 24, "velocity": 64}, {"time": 72, "pitch": 69, "duration": 12, "velocity": 64}, {"time": 84, "pitch": 67, "duration": 12, "velocity": 64}, {"time": 96, "pitch": 67, "duration": 12, "velocity": 64}, {"time": 108, "pitch": 65, "duration": 12, "velocity": 64}, {"time": 132, "pitch": 60, "duration": 12, "velocity": 64}, {"time": 144, "pitch": 65, "duration": 18, "velocity": 64}, {"time": 162, "pitch": 69, "duration": 6, "velocity": 64}, {"time": 168, "pitch": 69, "duration": 24, "velocity": 64}, {"time": 192, "pitch": 72, "duration": 24, "velocity": 64}, {"time": 216, "pitch": 72, "duration": 12, "velocity": 64}, {"time": 228, "pitch": 70, "duration": 12, "velocity": 64}, {"time": 240, "pitch": 70, "duration": 12, "velocity": 64}, {"time": 252, "pitch": 69, "duration": 12, "velocity": 64}, {"time": 288, "pitch": 69, "duration": 12, "velocity": 64}, {"time": 300, "pitch": 72, "duration": 6, "velocity": 64}, {"time": 306, "pitch": 69, "duration": 6, "velocity": 64}, {"time": 312, "pitch": 65, "duration": 24, "velocity": 64}, {"time": 336, "pitch": 72, "duration": 24, "velocity": 64}, {"time": 360, "pitch": 70, "duration": 6, "velocity": 64}, {"time": 366, "pitch": 72, "duration": 6, "velocity": 64}, {"time": 372, "pitch": 74, "duration": 6, "velocity": 64}, {"time": 378, "pitch": 70, "duration": 6, "velocity": 64}, {"time": 384, "pitch": 67, "duration": 24, "velocity": 64}, {"time": 432, "pitch": 60, "duration": 12, "velocity": 64}, {"time": 444, "pitch": 64, "duration": 12, "velocity": 64}, {"time": 456, "pitch": 67, "duration": 24, "velocity": 64}, {"time": 480, "pitch": 70, "duration": 24, "velocity": 64}, {"time": 504, "pitch": 69, "duration": 12, "velocity": 64}, {"time": 516, "pitch": 72, "duration": 6, "velocity": 64}, {"time": 522, "pitch": 69, "duration": 6, "velocity": 64}, {"time": 528, "pitch": 65, "duration": 36, "velocity": 64}, {"time": 564, "pitch": 64, "duration": 12, "velocity": 64}, {"time": 576, "pitch": 65, "duration": 18, "velocity": 64}, {"time": 594, "pitch": 69, "duration": 6, "velocity": 64}, {"time": 600, "pitch": 67, "duration": 18, "velocity": 64}, {"time": 618, "pitch": 70, "duration": 6, "velocity": 64}, {"time": 624, "pitch": 69, "duration": 24, "velocity": 64}, {"time": 648, "pitch": 70, "duration": 18, "velocity": 64}, {"time": 666, "pitch": 74, "duration": 6, "velocity": 64}, {"time": 672, "pitch": 72, "duration": 24, "velocity": 64}, {"time": 696, "pitch": 69, "duration": 24, "velocity": 64}, {"time": 720, "pitch": 72, "duration": 6, "velocity": 64}, {"time": 726, "pitch": 70, "duration": 6, "velocity": 64}, {"time": 732, "pitch": 69, "duration": 6, "velocity": 64}, {"time": 738, "pitch": 67, "duration": 6, "velocity": 64}, {"time": 744, "pitch": 67, "duration": 24, "velocity": 64}, {"time": 768, "pitch": 65, "duration": 12, "velocity": 64}]}]}