{"metadata": {"schema_version": "0.1", "title": "AFM WASSA BIN I GFOAHRN", "source_format": "abc"}, "resolution": 24, "tempos": [{"time": 0, "qpm": 120.0}], "key_signatures": [{"time": 0, "root": 7, "mode": "major", "fifths": 1}], "time_signatures": [{"time": 0, "numerator": 3, "denominator": 4}], "beats": [{"time": 0, "is_downbeat": true}, {"time": 24, "is_downbeat": true}, {"time": 48, "is_downbeat": false}, {"time": 72, "is_downbeat": false}, {"time": 96, "is_downbeat": true}, {"time": 120, "is_downbeat": false}, {"time": 144, "is_downbeat": false}, {"time": 168, "is_downbeat": true}, {"time": 192, "is_downbeat": false}, {"time": 216, "is_downbeat": false}, {"time": 240, "is_downbeat": true}, {"time": 264, "is_downbeat": false}, {"time": 288, "is_downbeat": false}, {"time": 312, "is_downbeat": true}, {"time": 336, "is_downbeat": false}, {"time": 360, "is_downbeat": false}, {"time": 384, "is_downbeat": true}, {"time": 408, "is_downbeat": false}, {"time": 432, "is_downbeat": false}, {"time": 456, "is_downbeat": true}, {"time": 480, "is_downbeat": false}, {"time": 504, "is_downbeat": false}, {"time": 528, "is_downbeat": true}, {"time": 552, "is_downbeat": false}, {"time": 576, "is_downbeat": false}], "tracks": [{"program": 0, "is_drum": false, "notes": [{"time": 0, "pitch": 67, "duration": 24, "velocity": 64}, {"time": 24, "pitch": 66, "duration": 24, "velocity": 64}, {"time": 48, "pitch": 69, "duration": 12, "velocity": 64}, {"time": 60, "pitch": 72, "duration": 12, "velocity": 64}, {"time": 72, "pitch": 78, "duration": 12, "velocity": 64}, {"time": 84, "pitch": 81, "duration": 12, "velocity": 64}, {"time": 96, "pitch": 83, "duration": 12, "velocity": 64}, {"time": 108, "pitch": 79, "duration": 12, "velocity": 64}, {"time": 120, "pitch": 74, "duration": 36, "velocity": 64}, {"time": 156, "pitch": 76, "duration": 12, "velocity": 64}, {"time": 168, "pitch": 74, "duration": 12, "velocity": 64}, {"time": 180, "pitch": 72, "duration": 12, "velocity": 64}, {"time": 192, "pitch": 72, "duration": 24, "velocity": 64}, {"time": 216, "pitch": 72, "duration": 12, "velocity": 64}, {"time": 228, "pitch": 66, "duration": 12, "velocity": 64}, {"time": 240, "pitch": 67, "duration": 24, "velocity": 64}, {"time": 264, "pitch": 71, "duration": 12, "velocity": 64}, {"time": 276, "pitch": 62, "duration": 12, "velocity": 64}, {"time": 288, "pitch": 67, "duration": 24, "velocity": 64}, {"time": 312, "pitch": 66, "duration": 24, "velocity": 64}, {"time": 336, "pitch": 69, "duration": 12, "velocity": 64}, {"time": 348, "pitch": 72, "duration": 12, "velocity": 64}, {"time": 360, "pitch": 78, "duration": 12, "velocity": 64}, {"time": 372, "pitch": 81, "duration": 12, "velocity": 64}, {"time": 384, "pitch": 83, "duration": 12, "velocity": 64}, {"time": 396, "pitch": 79, "duration": 12, "velocity": 64}, {"time": 408, "pitch": 74, "duration": 36, "velocity": 64}, {"time": 444, "pitch": 76, "duration": 12, "velocity": 64}, {"time": 456, "pitch": 74, "duration": 12, "velocity": 64}, {"time": 468, "pitch": 72, "duration": 12, "velocity": 64}, {"time": 480, "pitch": 72, "duration": 24, "velocity": 64}, {"time": 504, "pitch": 72, "duration": 12, "velocity": 64}, {"time": 516, "pitch": 66, "duration": 12, "velocity": 64}, {"time": 528, "pitch": 67, "duration": 48, "velocity": 64}]}]}