{"metadata": {"schema_version": "0.1", "title": "OFT MANCHER MUSS LEIDEN", "source_format": "abc"}, "resolution": 24, "tempos": [{"time": 0, "qpm": 120.0}], "key_signatures": [{"time": 0, "root": 10, "mode": "major", "fifths": -2}], "time_signatures": [{"time": 0, "numerator": 3, "denominator": 8}], "beats": [{"time": 0, "is_downbeat": true}, {"time": 12, "is_downbeat": true}, {"time": 24, "is_downbeat": false}, {"time": 36, "is_downbeat": false}, {"time": 48, "is_downbeat": true}, {"time": 60, "is_downbeat": false}, {"time": 72, "is_downbeat": false}, {"time": 84, "is_downbeat": true}, {"time": 96, "is_downbeat": false}, {"time": 108, "is_downbeat": false}, {"time": 120, "is_downbeat": true}, {"time": 132, "is_downbeat": false}, {"time": 144, "is_downbeat": false}, {"time": 156, "is_downbeat": true}, {"time": 168, "is_downbeat": false}, {"time": 180, "is_downbeat": false}, {"time": 192, "is_downbeat": true}, {"time": 204, "is_downbeat": false}, {"time": 216, "is_downbeat": false}, {"time": 228, "is_downbeat": true}, {"time": 240, "is_downbeat": false}, {"time": 252, "is_downbeat": false}, {"time": 264, "is_downbeat": true}, {"time": 276, "is_downbeat": false}, {"time": 288, "is_downbeat": false}], "tracks": [{"program": 0, "is_drum": false, "notes": [{"time": 0, "pitch": 65, "duration": 12, "velocity": 64}, {"time": 12, "pitch": 70, "duration": 12, "velocity": 64}, {"time": 24, "pitch": 62, "duration": 12, "velocity": 64}, {"time": 36, "pitch": 67, "duration": 12, "velocity": 64}, {"time": 48, "pitch": 67, "duration": 12, "velocity": 64}, {"time": 60, "pitch": 65, "duration": 12, "velocity": 64}, {"time": 72, "pitch": 70, "duration": 6, "velocity": 64}, {"time": 78, "pitch": 72, "duration": 6, "velocity": 64}, {"time": 84, "pitch": 74, "duration": 18, "velocity": 64}, {"time": 102, "pitch": 70, "duration": 6, "velocity": 64}, {"time": 108, "pitch": 74, "duration": 6, "velocity": 64}, {"time": 114, "pitch": 72, "duration": 6, "velocity": 64}, {"time": 120, "pitch": 72, "duration": 24, "velocity": 64}, {"time": 144, "pitch": 65, "duration": 12, "velocity": 64}, {"time": 156, "pitch": 75, "duration": 12, "velocity": 64}, {"time": 168, "pitch": 75, "duration": 12, "velocity": 64}, {"time": 180, "pitch": 72, "duration": 12, "velocity": 64}, {"time": 192, "pitch": 74, "duration": 12, "velocity": 64}, {"time": 204, "pitch": 74, "duration": 12, "velocity": 64}, {"time": 216, "pitch": 70, "duration": 12, "velocity": 64}, {"time": 228, "pitch": 72, "duration": 18, "velocity": 64}, {"time": 246, "pitch": 75, "duration": 6, "velocity": 64}, {"time": 252, "pitch": 69, "duration": 12, "velocity": 64}, {"time": 264, "pitch": 70, "duration": 24, "velocity": 64}]}]}