{"metadata": {"schema_version": "0.1", "title": "MORGEN WILL MEIN SCHATZ ABREISEN", "source_format": "abc"}, "resolution": 24, "tempos": [{"time": 0, "qpm": 120.0}], "key_signatures": [{"time": 0, "root": 2, "mode": "major", "fifths": 2}], "time_signatures": [{"time": 0, "numerator": 4, "denominator": 4}], "beats": [{"time": 0, "is_downbeat": true}, {"time": 24, "is_downbeat": false}, {"time": 48, "is_downbeat": false}, {"time": 72, "is_downbeat": false}, {"time": 96, "is_downbeat": true}, {"time": 120, "is_downbeat": false}, {"time": 144, "is_downbeat": false}, {"time": 168, "is_downbeat": false}, {"time": 192, "is_downbeat": true}, {"time": 216, "is_downbeat": false}, {"time": 240, "is_downbeat": false}, {"time": 264, "is_downbeat": false}, {"time": 288, "is_downbeat": true}, {"time": 312, "is_downbeat": false}, {"time": 336, "is_downbeat": false}, {"time": 360, "is_downbeat": false}, {"time": 384, "is_downbeat": true}, {"time": 408, "is_downbeat": false}, {"time": 432, "is_downbeat": false}, {"time": 456, "is_downbeat": false}, {"time": 480, "is_downbeat": true}, {"time": 504, "is_downbeat": false}, {"time": 528, "is_downbeat": false}, {"time": 552, "is_downbeat": false}, {"time": 576, "is_downbeat": true}, {"time": 600, "is_downbeat": false}, {"time": 624, "is_downbeat": false}, {"time": 648, "is_downbeat": false}, {"time": 672, "is_downbeat": true}, {"time": 696, "is_downbeat": false}, {"time": 720, "is_downbeat": false}, {"time": 744, "is_downbeat": false}, {"time": 768, "is_downbeat": true}, {"time": 792, "is_downbeat": false}, {"time": 816, "is_downbeat": false}, {"time": 840, "is_downbeat": false}, {"time": 864, "is_downbeat": true}, {"time": 888, "is_downbeat": false}, {"time": 912, "is_downbeat": false}, {"time": 936, "is_downbeat": false}, {"time": 960, "is_downbeat": true}, {"time": 984, "is_downbeat": false}, {"time": 1008, "is_downbeat": false}, {"time": 1032, "is_downbeat": false}, {"time": 1056, "is_downbeat": true}, {"time": 1080, "is_downbeat": false}, {"time": 1104, "is_downbeat": false}, {"time": 1128, "is_downbeat": false}, {"time": 1152, "is_downbeat": true}, {"time": 1176, "is_downbeat": false}, {"time": 1200, "is_downbeat": false}, {"time": 1224, "is_downbeat": false}, {"time": 1248, "is_downbeat": true}, {"time": 1272, "is_downbeat": false}, {"time": 1296, "is_downbeat": false}, {"time": 1320, "is_downbeat": false}, {"time": 1344, "is_downbeat": true}, {"time": 1368, "is_downbeat": false}, {"time": 1392, "is_downbeat": false}, {"time": 1416, "is_downbeat": false}, {"time": 1440, "is_downbeat": true}, {"time": 1464, "is_downbeat": false}, {"time": 1488, "is_downbeat": false}, {"time": 1512, "is_downbeat": false}], "tracks": [{"program": 0, "is_drum": false, "notes": [{"time": 0, "pitch": 57, "duration": 36, "velocity": 64}, {"time": 36, "pitch": 54, "duration": 12, "velocity": 64}, {"time": 48, "pitch": 50, "duration": 18, "velocity": 64}, {"time": 66, "pitch": 54, "duration": 6, "velocity": 64}, {"time": 72, "pitch": 59, "duration": 18, "velocity": 64}, {"time": 90, "pitch": 54, "duration": 6, "velocity": 64}, {"time": 96, "pitch": 57, "duration": 24, "velocity": 64}, {"time": 120, "pitch": 55, "duration": 24, "velocity": 64}, {"time": 192, "pitch": 57, "duration": 36, "velocity": 64}, {"time": 228, "pitch": 57, "duration": 12, "velocity": 64}, {"time": 240, "pitch": 61, "duration": 18, "velocity": 64}, {"time": 258, "pitch": 59, "duration": 6, "velocity": 64}, {"time": 264, "pitch": 57, "duration": 18, "velocity": 64}, {"time": 282, "pitch": 55, "duration": 6, "velocity": 64}, {"time": 288, "pitch": 54, "duration": 72, "velocity": 64}, {"time": 384, "pitch": 62, "duration": 36, "velocity": 64}, {"time": 420, "pitch": 61, "duration": 12, "velocity": 64}, {"time": 432, "pitch": 64, "duration": 18, "velocity": 64}, {"time": 450, "pitch": 62, "duration": 6, "velocity": 64}, {"time": 456, "pitch": 61, "duration": 18, "velocity": 64}, {"time": 474, "pitch": 62, "duration": 6, "velocity": 64}, {"time": 480, "pitch": 59, "duration": 24, "velocity": 64}, {"time": 504, "pitch": 59, "duration": 24, "velocity": 64}, {"time": 528, "pitch": 64, "duration": 18, "velocity": 64}, {"time": 546, "pitch": 62, "duration": 6, "velocity": 64}, {"time": 552, "pitch": 61, "duration": 18, "velocity": 64}, {"time": 570, "pitch": 62, "duration": 6, "velocity": 64}, {"time": 576, "pitch": 57, "duration": 12, "velocity": 64}, {"time": 588, "pitch": 57, "duration": 12, "velocity": 64}, {"time": 600, "pitch": 56, "duration": 12, "velocity": 64}, {"time": 612, "pitch": 57, "duration": 12, "velocity": 64}, {"time": 624, "pitch": 61, "duration": 18, "velocity": 64}, {"time": 642, "pitch": 59, "duration": 6, "velocity": 64}, {"time": 648, "pitch": 57, "duration": 18, "velocity": 64}, {"time": 666, "pitch": 55, "duration": 6, "velocity": 64}, {"time": 672, "pitch": 54, "duration": 48, "velocity": 64}, {"time": 744, "pitch": 57, "duration": 18, "velocity": 64}, {"time": 762, "pitch": 55, "duration": 6, "velocity": 64}, {"time": 768, "pitch": 54, "duration": 24, "velocity": 64}, {"time": 792, "pitch": 54, "duration": 18, "velocity": 64}, {"time": 810, "pitch": 54, "duration": 6, "velocity": 64}, {"time": 816, "pitch": 54, "duration": 24, "velocity": 64}, {"time": 840, "pitch": 59, "duration": 18, "velocity": 64}, {"time": 858, "pitch": 57, "duration": 6, "velocity": 64}, {"time": 864, "pitch": 57, "duration": 24, "velocity": 64}, {"time": 888, "pitch": 55, "duration": 18, "velocity": 64}, {"time": 906, "pitch": 54, "duration": 6, "velocity": 64}, {"time": 912, "pitch": 55, "duration": 24, "velocity": 64}, {"time": 936, "pitch": 57, "duration": 18, "velocity": 64}, {"time": 954, "pitch": 59, "duration": 6, "velocity": 64}, {"time": 960, "pitch": 61, "duration": 24, "velocity": 64}, {"time": 984, "pitch": 61, "duration": 18, "velocity": 64}, {"time": 1002, "pitch": 61, "duration": 6, "velocity": 64}, {"time": 1008, "pitch": 61, "duration": 24, "velocity": 64}, {"time": 1032, "pitch": 59, "duration": 18, "velocity": 64}, {"time": 1050, "pitch": 57, "duration": 6, "velocity": 64}, {"time": 1056, "pitch": 57, "duration": 12, "velocity": 64}, {"time": 1068, "pitch": 62, "duration": 12, "velocity": 64}, {"time": 1080, "pitch": 62, "duration": 12, "velocity": 64}, {"time": 1092, "pitch": 62, "duration": 12, "velocity": 64}, {"time": 1104, "pitch": 62, "duration": 24, "velocity": 64}, {"time": 1128, "pitch": 57, "duration": 18, "velocity": 64}, {"time": 1146, "pitch": 55, "duration": 6, "velocity": 64}, {"time": 1152, "pitch": 54, "duration": 24, "velocity": 64}, {"time": 1176, "pitch": 54, "duration": 18, "velocity": 64}, {"time": 1194, "pitch": 54, "duration": 6, "velocity": 64}, {"time": 1200, "pitch": 54, "duration": 24, "velocity": 64}, {"time": 1224, "pitch": 62, "duration": 18, "velocity": 64}, {"time": 1242, "pitch": 61, "duration": 6, "velocity": 64}, {"time": 1248, "pitch": 59, "duration": 24, "velocity": 64}, {"time": 1272, "pitch": 59, "duration": 18, "velocity": 64}, {"time": 1290, "pitch": 59, "duration": 6, "velocity": 64}, {"time": 1296, "pitch": 59, "duration": 24, "velocity": 64}, {"time": 1320, "pitch": 64, "duration": 18, "velocity": 64}, {"time": 1338, "pitch": 64, "duration": 6, "velocity": 64}, {"time": 1344, "pitch": 62, "duration": 36, "velocity": 64}, {"time": 1380, "pitch": 62, "duration": 12, "velocity": 64}, {"time": 1392, "pitch": 61, "duration": 36, "velocity": 64}, {"time": 1428, "pitch": 61, "duration": 12, "velocity": 64}, {"time": 1440, "pitch": 62, "duration": 48, "velocity": 64}]}]}