{"metadata": {"schema_version": "0.1", "title": "EIN JUNGER KNAB GASSATEN GING", "source_format": "abc"}, "resolution": 24, "tempos": [{"time": 0, "qpm": 120.0}], "key_signatures": [{"time": 0, "root": 7, "mode": "major", "fifths": 1}], "time_signatures": [{"time": 0, "numerator": 3, "denominator": 4}], "beats": [{"time": 0, "is_downbeat": true}, {"time": 24, "is_downbeat": true}, {"time": 48, "is_downbeat": false}, {"time": 72, "is_downbeat": false}, {"time": 96, "is_downbeat": true}, {"time": 120, "is_downbeat": false}, {"time": 144, "is_downbeat": false}, {"time": 168, "is_downbeat": true}, {"time": 192, "is_downbeat": false}, {"time": 216, "is_downbeat": false}, {"time": 240, "is_downbeat": true}, {"time": 264, "is_downbeat": false}, {"time": 288, "is_downbeat": false}, {"time": 312, "is_downbeat": true}, {"time": 336, "is_downbeat": false}, {"time": 360, "is_downbeat": false}, {"time": 384, "is_downbeat": true}, {"time": 408, "is_downbeat": false}, {"time": 432, "is_downbeat": false}, {"time": 456, "is_downbeat": true}, {"time": 480, "is_downbeat": false}, {"time": 504, "is_downbeat": false}, {"time": 528, "is_downbeat": true}, {"time": 552, "is_downbeat": false}, {"time": 576, "is_downbeat": false}, {"time": 600, "is_downbeat": true}, {"time": 624, "is_downbeat": false}, {"time": 648, "is_downbeat": false}, {"time": 672, "is_downbeat": true}, {"time": 696, "is_downbeat": false}, {"time": 720, "is_downbeat": false}, {"time": 744, "is_downbeat": true}, {"time": 768, "is_downbeat": false}, {"time": 792, "is_downbeat": false}, {"time": 816, "is_downbeat": true}, {"time": 840, "is_downbeat": false}, {"time": 864, "is_downbeat": false}, {"time": 888, "is_downbeat": true}, {"time": 912, "is_downbeat": false}, {"time": 936, "is_downbeat": false}, {"time": 960, "is_downbeat": true}, {"time": 984, "is_downbeat": false}, {"time": 1008, "is_downbeat": false}, {"time": 1032, "is_downbeat": true}, {"time": 1056, "is_downbeat": false}, {"time": 1080, "is_downbeat": false}, {"time": 1104, "is_downbeat": true}, {"time": 1128, "is_downbeat": false}, {"time": 1152, "is_downbeat": false}, {"time": 1176, "is_downbeat": true}, {"time": 1200, "is_downbeat": false}, {"time": 1224, "is_downbeat": false}, {"time": 1248, "is_downbeat": true}, {"time": 1272, "is_downbeat": false}, {"time": 1296, "is_downbeat": false}, {"time": 1320, "is_downbeat": true}, {"time": 1344, "is_downbeat": false}, {"time": 1368, "is_downbeat": false}, {"time": 1392, "is_downbeat": true}, {"time": 1416, "is_downbeat": false}, {"time": 1440, "is_downbeat": false}], "tracks": [{"program": 0, "is_drum": false, "notes": [{"time": 0, "pitch": 62, "duration": 24, "velocity": 64}, {"time": 24, "pitch": 67, "duration": 12, "velocity": 64}, {"time": 36, "pitch": 66, "duration": 12, "velocity": 64}, {"time": 48, "pitch": 67, "duration": 36, "velocity": 64}, {"time": 84, "pitch": 71, "duration": 12, "velocity": 64}, {"time": 96, "pitch": 69, "duration": 12, "velocity": 64}, {"time": 108, "pitch": 67, "duration": 12, "velocity": 64}, {"time": 120, "pitch": 69, "duration": 36, "velocity": 64}, {"time": 156, "pitch": 71, "duration": 12, "velocity": 64}, {"time": 168, "pitch": 72, "duration": 12, "velocity": 64}, {"time": 180, "pitch": 71, "duration": 12, "velocity": 64}, {"time": 192, "pitch": 72, "duration": 24, "velocity": 64}, {"time": 216, "pitch": 76, "duration": 24, "velocity": 64}, {"time": 240, "pitch": 71, "duration": 24, "velocity": 64}, {"time": 264, "pitch": 71, "duration": 24, "velocity": 64}, {"time": 288, "pitch": 62, "duration": 24, "velocity": 64}, {"time": 312, "pitch": 67, "duration": 12, "velocity": 64}, {"time": 324, "pitch": 66, "duration": 12, "velocity": 64}, {"time": 336, "pitch": 67, "duration": 36, "velocity": 64}, {"time": 372, "pitch": 71, "duration": 12, "velocity": 64}, {"time": 384, "pitch": 69, "duration": 12, "velocity": 64}, {"time": 396, "pitch": 67, "duration": 12, "velocity": 64}, {"time": 408, "pitch": 69, "duration": 36, "velocity": 64}, {"time": 444, "pitch": 71, "duration": 12, "velocity": 64}, {"time": 456, "pitch": 72, "duration": 12, "velocity": 64}, {"time": 468, "pitch": 71, "duration": 12, "velocity": 64}, {"time": 480, "pitch": 72, "duration": 24, "velocity": 64}, {"time": 504, "pitch": 76, "duration": 24, "velocity": 64}, {"time": 528, "pitch": 71, "duration": 24, "velocity": 64}, {"time": 552, "pitch": 71, "duration": 24, "velocity": 64}, {"time": 588, "pitch": 67, "duration": 12, "velocity": 64}, {"time": 600, "pitch": 71, "duration": 12, "velocity": 64}, {"time": 612, "pitch": 72, "duration": 12, "velocity": 64}, {"time": 624, "pitch": 74, "duration": 36, "velocity": 64}, {"time": 660, "pitch": 71, "duration": 12, "velocity": 64}, {"time": 672, "pitch": 72, "duration": 12, "velocity": 64}, {"time": 684, "pitch": 74, "duration": 12, "velocity": 64}, {"time": 696, "pitch": 76, "duration": 36, "velocity": 64}, {"time": 732, "pitch": 76, "duration": 12, "velocity": 64}, {"time": 744, "pitch": 74, "duration": 12, "velocity": 64}, {"time": 756, "pitch": 76, "duration": 12, "velocity": 64}, {"time": 768, "pitch": 74, "duration": 36, "velocity": 64}, {"time": 804, "pitch": 71, "duration": 12, "velocity": 64}, {"time": 816, "pitch": 69, "duration": 12, "velocity": 64}, {"time": 828, "pitch": 67, "duration": 12, "velocity": 64}, {"time": 840, "pitch": 69, "duration": 36, "velocity": 64}, {"time": 876, "pitch": 71, "duration": 12, "velocity": 64}, {"time": 888, "pitch": 72, "duration": 12, "velocity": 64}, {"time": 900, "pitch": 71, "duration": 12, "velocity": 64}, {"time": 912, "pitch": 72, "duration": 24, "velocity": 64}, {"time": 936, "pitch": 76, "duration": 24, "velocity": 64}, {"time": 960, "pitch": 71, "duration": 24, "velocity": 64}, {"time": 984, "pitch": 71, "duration": 36, "velocity": 64}, {"time": 1020, "pitch": 67, "duration": 12, "velocity": 64}, {"time": 1032, "pitch": 71, "duration": 12, "velocity": 64}, {"time": 1044, "pitch": 72, "duration": 12, "velocity": 64}, {"time": 1056, "pitch": 74, "duration": 36, "velocity": 64}, {"time": 1092, "pitch": 71, "duration": 12, "velocity": 64}, {"time": 1104, "pitch": 72, "duration": 12, "velocity": 64}, {"time": 1116, "pitch": 74, "duration": 12, "velocity": 64}, {"time": 1128, "pitch": 76, "duration": 36, "velocity": 64}, {"time": 1164, "pitch": 76, "duration": 12, "velocity": 64}, {"time": 1176, "pitch": 74, "duration": 12, "velocity": 64}, {"time": 1188, "pitch": 76, "duration": 12, "velocity": 64}, {"time": 1200, "pitch": 74, "duration": 36, "velocity": 64}, {"time": 1236, "pitch": 71, "duration": 12, "velocity": 64}, {"time": 1248, "pitch": 69, "duration": 12, "velocity": 64}, {"time": 1260, "pitch": 67, "duration": 12, "velocity": 64}, {"time": 1272, "pitch": 69, "duration": 36, "velocity": 64}, {"time": 1308, "pitch": 71, "duration": 12, "velocity": 64}, {"time": 1320, "pitch": 72, "duration": 12, "velocity": 64}, {"time": 1332, "pitch": 71, "duration": 12, "velocity": 64}, {"time": 1344, "pitch": 72, "duration": 24, "velocity": 64}, {"time": 1368, "pitch": 76, "duration": 24, "velocity": 64}, {"time": 1392, "pitch": 71, "duration": 24, "velocity": 64}, {"time": 1416, "pitch": 71, "duration": 24, "velocity": 64}]}]}