{"metadata": {"schema_version": "0.1", "title": "DE JAOR DAO WASKNE SINE BRUT", "source_format": "abc"}, "resolution": 24, "tempos": [{"time": 0, "qpm": 120.0}], "key_signatures": [{"time": 0, "root": 5, "mode": "major", "fifths": -1}], "time_signatures": [{"time": 0, "numerator": 2, "denominator": 4}], "beats": [{"time": 0, "is_downbeat": true}, {"time": 6, "is_downbeat": true}, {"time": 30, "is_downbeat": false}, {"time": 54, "is_downbeat": true}, {"time": 78, "is_downbeat": false}, {"time": 102, "is_downbeat": true}, {"time": 126, "is_downbeat": false}, {"time": 150, "is_downbeat": true}, {"time": 174, "is_downbeat": false}, {"time": 198, "is_downbeat": true}, {"time": 222, "is_downbeat": false}, {"time": 246, "is_downbeat": true}, {"time": 270, "is_downbeat": false}, {"time": 294, "is_downbeat": true}, {"time": 318, "is_downbeat": false}, {"time": 342, "is_downbeat": true}, {"time": 366, "is_downbeat": false}], "tracks": [{"program": 0, "is_drum": false, "notes": [{"time": 0, "pitch": 60, "duration": 6, "velocity": 64}, {"time": 6, "pitch": 60, "duration": 12, "velocity": 64}, {"time": 18, "pitch": 65, "duration": 12, "velocity": 64}, {"time": 30, "pitch": 65, "duration": 12, "velocity": 64}, {"time": 42, "pitch": 65, "duration": 12, "velocity": 64}, {"time": 54, "pitch": 64, "duration": 12, "velocity": 64}, {"time": 66, "pitch": 67, "duration": 12, "velocity": 64}, {"time": 78, "pitch": 65, "duration": 12, "velocity": 64}, {"time": 102, "pitch": 64, "duration": 12, "velocity": 64}, {"time": 114, "pitch": 67, "duration": 6, "velocity": 64}, {"time": 120, "pitch": 64, "duration": 6, "velocity": 64}, {"time": 126, "pitch": 65, "duration": 24, "velocity": 64}, {"time": 150, "pitch": 67, "duration": 12, "velocity": 64}, {"time": 162, "pitch": 67, "duration": 12, "velocity": 64}, {"time": 174, "pitch": 67, "duration": 12, "velocity": 64}, {"time": 186, "pitch": 67, "duration": 12, "velocity": 64}, {"time": 198, "pitch": 64, "duration": 12, "velocity": 64}, {"time": 210, "pitch": 62, "duration": 12, "velocity": 64}, {"time": 222, "pitch": 60, "duration": 12, "velocity": 64}, {"time": 246, "pitch": 62, "duration": 12, "velocity": 64}, {"time": 258, "pitch": 62, "duration": 6, "velocity": 64}, {"time": 264, "pitch": 64, "duration": 6, "velocity": 64}, {"time": 270, "pitch": 60, "duration": 12, "velocity": 64}, {"time": 294, "pitch": 62, "duration": 12, "velocity": 64}, {"time": 306, "pitch": 62, "duration": 6, "velocity": 64}, {"time": 312, "pitch": 64, "duration": 6, "velocity": 64}, {"time": 318, "pitch": 65, "duration": 12, "velocity": 64}, {"time": 330, "pitch": 62, "duration": 12, "velocity": 64}, {"time": 342, "pitch": 60, "duration": 12, "velocity": 64}, {"time": 354, "pitch": 64, "duration": 12, "velocity": 64}, {"time": 366, "pitch": 65, "duration": 12, "velocity": 64}]}]}