{"metadata": {"schema_version": "0.1", "title": "WAIB SOLLST HAM GEHN", "source_format": "abc"}, "resolution": 24, "tempos": [{"time": 0, "qpm": 120.0}], "key_signatures": [{"time": 0, "root": 7, "mode": "major", "fifths": 1}], "time_signatures": [{"time": 0, "numerator": 4, "denominator": 4}, {"time": 492, "numerator": 1, "denominator": 4}, {"time": 636, "numerator": 1, "denominator": 4}, {"time": 660, "numerator": 2, "denominator": 4}], "beats": [{"time": 0, "is_downbeat": true}, {"time": 24, "is_downbeat": true}, {"time": 48, "is_downbeat": true}, {"time": 72, "is_downbeat": true}, {"time": 96, "is_downbeat": true}, {"time": 120, "is_downbeat": true}, {"time": 144, "is_downbeat": true}, {"time": 168, "is_downbeat": true}, {"time": 192, "is_downbeat": true}, {"time": 216, "is_downbeat": true}, {"time": 228, "is_downbeat": true}, {"time": 252, "is_downbeat": true}, {"time": 264, "is_downbeat": true}, {"time": 288, "is_downbeat": true}, {"time": 300, "is_downbeat": true}, {"time": 324, "is_downbeat": true}, {"time": 336, "is_downbeat": true}, {"time": 360, "is_downbeat": true}, {"time": 372, "is_downbeat": true}, {"time": 396, "is_downbeat": true}, {"time": 408, "is_downbeat": true}, {"time": 432, "is_downbeat": true}, {"time": 444, "is_downbeat": true}, {"time": 468, "is_downbeat": true}, {"time": 492, "is_downbeat": true}, {"time": 516, "is_downbeat": true}, {"time": 540, "is_downbeat": true}, {"time": 552, "is_downbeat": true}, {"time": 576, "is_downbeat": true}, {"time": 588, "is_downbeat": true}, {"time": 612, "is_downbeat": true}, {"time": 636, "is_downbeat": true}, {"time": 660, "is_downbeat": true}, {"time": 684, "is_downbeat": false}, {"time": 696, "is_downbeat": true}, {"time": 720, "is_downbeat": false}, {"time": 732, "is_downbeat": true}, {"time": 756, "is_downbeat": false}], "tracks": [{"program": 0, "is_drum": false, "notes": [{"time": 0, "pitch": 62, "duration": 24, "velocity": 64}, {"time": 24, "pitch": 62, "duration": 12, "velocity": 64}, {"time": 36, "pitch": 62, "duration": 12, "velocity": 64}, {"time": 48, "pitch": 62, "duration": 24, "velocity": 64}, {"time": 72, "pitch": 62, "duration": 12, "velocity": 64}, {"time": 84, "pitch": 62, "duration": 12, "velocity": 64}, {"time": 96, "pitch": 64, "duration": 24, "velocity": 64}, {"time": 120, "pitch": 62, "duration": 12, "velocity": 64}, {"time": 132, "pitch": 61, "duration": 12, "velocity": 64}, {"time": 144, "pitch": 62, "duration": 36, "velocity": 64}, {"time": 192, "pitch": 74, "duration": 24, "velocity": 64}, {"time": 216, "pitch": 71, "duration": 6, "velocity": 64}, {"time": 222, "pitch": 67, "duration": 6, "velocity": 64}, {"time": 228, "pitch": 66, "duration": 24, "velocity": 64}, {"time": 252, "pitch": 69, "duration": 6, "velocity": 64}, {"time": 258, "pitch": 71, "duration": 6, "velocity": 64}, {"time": 264, "pitch": 72, "duration": 24, "velocity": 64}, {"time": 288, "pitch": 69, "duration": 6, "velocity": 64}, {"time": 294, "pitch": 66, "duration": 6, "velocity": 64}, {"time": 300, "pitch": 67, "duration": 24, "velocity": 64}, {"time": 324, "pitch": 71, "duration": 6, "velocity": 64}, {"time": 330, "pitch": 72, "duration": 6, "velocity": 64}, {"time": 336, "pitch": 74, "duration": 24, "velocity": 64}, {"time": 360, "pitch": 71, "duration": 6, "velocity": 64}, {"time": 366, "pitch": 67, "duration": 6, "velocity": 64}, {"time": 372, "pitch": 66, "duration": 24, "velocity": 64}, {"time": 396, "pitch": 69, "duration": 6, "velocity": 64}, {"time": 402, "pitch": 71, "duration": 6, "velocity": 64}, {"time": 408, "pitch": 72, "duration": 24, "velocity": 64}, {"time": 432, "pitch": 69, "duration": 6, "velocity": 64}, {"time": 438, "pitch": 66, "duration": 6, "velocity": 64}, {"time": 444, "pitch": 67, "duration": 24, "velocity": 64}, {"time": 480, "pitch": 67, "duration": 12, "velocity": 64}, {"time": 492, "pitch": 69, "duration": 12, "velocity": 64}, {"time": 504, "pitch": 71, "duration": 12, "velocity": 64}, {"time": 516, "pitch": 72, "duration": 12, "velocity": 64}, {"time": 528, "pitch": 74, "duration": 12, "velocity": 64}, {"time": 540, "pitch": 76, "duration": 12, "velocity": 64}, {"time": 552, "pitch": 74, "duration": 24, "velocity": 64}, {"time": 576, "pitch": 78, "duration": 12, "velocity": 64}, {"time": 588, "pitch": 79, "duration": 24, "velocity": 64}, {"time": 624, "pitch": 67, "duration": 12, "velocity": 64}, {"time": 636, "pitch": 69, "duration": 12, "velocity": 64}, {"time": 648, "pitch": 71, "duration": 12, "velocity": 64}, {"time": 660, "pitch": 72, "duration": 12, "velocity": 64}, {"time": 672, "pitch": 74, "duration": 12, "velocity": 64}, {"time": 684, "pitch": 76, "duration": 12, "velocity": 64}, {"time": 696, "pitch": 74, "duration": 24, "velocity": 64}, {"time": 720, "pitch": 66, "duration": 12, "velocity": 64}, {"time": 732, "pitch": 67, "duration": 24, "velocity": 64}]}]}