{"metadata": {"schema_version": "0.1", "title": "ROSENROTH IST MEINE NOTH", "source_format": "abc"}, "resolution": 24, "tempos": [{"time": 0, "qpm": 120.0}], "key_signatures": [{"time": 0, "root": 0, "mode": "major", "fifths": 0}], "time_signatures": [{"time": 0, "numerator": 4, "denominator": 4}, {"time": 828, "numerator": 1, "denominator": 4}, {"time": 852, "numerator": 2, "denominator": 4}], "beats": [{"time": 0, "is_downbeat": true}, {"time": 24, "is_downbeat": true}, {"time": 48, "is_downbeat": true}, {"time": 72, "is_downbeat": true}, {"time": 96, "is_downbeat": true}, {"time": 120, "is_downbeat": true}, {"time": 144, "is_downbeat": true}, {"time": 168, "is_downbeat": true}, {"time": 192, "is_downbeat": true}, {"time": 216, "is_downbeat": true}, {"time": 240, "is_downbeat": true}, {"time": 264, "is_downbeat": true}, {"time": 288, "is_downbeat": true}, {"time": 312, "is_downbeat": true}, {"time": 336, "is_downbeat": true}, {"time": 360, "is_downbeat": true}, {"time": 384, "is_downbeat": true}, {"time": 408, "is_downbeat": true}, {"time": 432, "is_downbeat": true}, {"time": 456, "is_downbeat": true}, {"time": 480, "is_downbeat": true}, {"time": 504, "is_downbeat": true}, {"time": 528, "is_downbeat": true}, {"time": 552, "is_downbeat": true}, {"time": 576, "is_downbeat": true}, {"time": 600, "is_downbeat": true}, {"time": 624, "is_downbeat": true}, {"time": 648, "is_downbeat": true}, {"time": 672, "is_downbeat": true}, {"time": 696, "is_downbeat": true}, {"time": 708, "is_downbeat": true}, {"time": 732, "is_downbeat": true}, {"time": 744, "is_downbeat": true}, {"time": 768, "is_downbeat": true}, {"time": 780, "is_downbeat": true}, {"time": 804, "is_downbeat": true}, {"time": 828, "is_downbeat": true}, {"time": 852, "is_downbeat": true}, {"time": 876, "is_downbeat": false}], "tracks": [{"program": 0, "is_drum": false, "notes": [{"time": 0, "pitch": 55, "duration": 12, "velocity": 64}, {"time": 12, "pitch": 55, "duration": 12, "velocity": 64}, {"time": 24, "pitch": 60, "duration": 12, "velocity": 64}, {"time": 36, "pitch": 55, "duration": 12, "velocity": 64}, {"time": 48, "pitch": 52, "duration": 12, "velocity": 64}, {"time": 60, "pitch": 53, "duration": 12, "velocity": 64}, {"time": 72, "pitch": 55, "duration": 24, "velocity": 64}, {"time": 96, "pitch": 55, "duration": 12, "velocity": 64}, {"time": 108, "pitch": 55, "duration": 12, "velocity": 64}, {"time": 120, "pitch": 60, "duration": 12, "velocity": 64}, {"time": 132, "pitch": 55, "duration": 12, "velocity": 64}, {"time": 144, "pitch": 52, "duration": 12, "velocity": 64}, {"time": 156, "pitch": 53, "duration": 12, "velocity": 64}, {"time": 168, "pitch": 55, "duration": 24, "velocity": 64}, {"time": 192, "pitch": 55, "duration": 24, "velocity": 64}, {"time": 216, "pitch": 57, "duration": 24, "velocity": 64}, {"time": 240, "pitch": 59, "duration": 24, "velocity": 64}, {"time": 288, "pitch": 55, "duration": 12, "velocity": 64}, {"time": 300, "pitch": 57, "duration": 12, "velocity": 64}, {"time": 312, "pitch": 59, "duration": 12, "velocity": 64}, {"time": 324, "pitch": 60, "duration": 12, "velocity": 64}, {"time": 336, "pitch": 62, "duration": 12, "velocity": 64}, {"time": 348, "pitch": 64, "duration": 12, "velocity": 64}, {"time": 360, "pitch": 62, "duration": 12, "velocity": 64}, {"time": 372, "pitch": 60, "duration": 12, "velocity": 64}, {"time": 384, "pitch": 59, "duration": 12, "velocity": 64}, {"time": 396, "pitch": 59, "duration": 12, "velocity": 64}, {"time": 408, "pitch": 57, "duration": 12, "velocity": 64}, {"time": 420, "pitch": 57, "duration": 12, "velocity": 64}, {"time": 432, "pitch": 55, "duration": 24, "velocity": 64}, {"time": 468, "pitch": 55, "duration": 12, "velocity": 64}, {"time": 480, "pitch": 60, "duration": 12, "velocity": 64}, {"time": 492, "pitch": 55, "duration": 12, "velocity": 64}, {"time": 504, "pitch": 55, "duration": 18, "velocity": 64}, {"time": 522, "pitch": 53, "duration": 6, "velocity": 64}, {"time": 528, "pitch": 52, "duration": 12, "velocity": 64}, {"time": 540, "pitch": 50, "duration": 12, "velocity": 64}, {"time": 552, "pitch": 48, "duration": 12, "velocity": 64}, {"time": 570, "pitch": 53, "duration": 6, "velocity": 64}, {"time": 576, "pitch": 52, "duration": 12, "velocity": 64}, {"time": 588, "pitch": 50, "duration": 12, "velocity": 64}, {"time": 600, "pitch": 52, "duration": 12, "velocity": 64}, {"time": 612, "pitch": 53, "duration": 12, "velocity": 64}, {"time": 624, "pitch": 55, "duration": 12, "velocity": 64}, {"time": 636, "pitch": 55, "duration": 12, "velocity": 64}, {"time": 660, "pitch": 55, "duration": 12, "velocity": 64}, {"time": 672, "pitch": 60, "duration": 12, "velocity": 64}, {"time": 684, "pitch": 55, "duration": 12, "velocity": 64}, {"time": 696, "pitch": 55, "duration": 12, "velocity": 64}, {"time": 708, "pitch": 55, "duration": 12, "velocity": 64}, {"time": 720, "pitch": 52, "duration": 12, "velocity": 64}, {"time": 732, "pitch": 55, "duration": 12, "velocity": 64}, {"time": 744, "pitch": 60, "duration": 12, "velocity": 64}, {"time": 756, "pitch": 55, "duration": 12, "velocity": 64}, {"time": 768, "pitch": 55, "duration": 12, "velocity": 64}, {"time": 780, "pitch": 55, "duration": 12, "velocity": 64}, {"time": 792, "pitch": 52, "duration": 12, "velocity": 64}, {"time": 816, "pitch": 60, "duration": 12, "velocity": 64}, {"time": 828, "pitch": 60, "duration": 12, "velocity": 64}, {"time": 840, "pitch": 60, "duration": 6, "velocity": 64}, {"time": 846, "pitch": 60, "duration": 6, "velocity": 64}, {"time": 852, "pitch": 60, "duration": 12, "velocity": 64}, {"time": 864, "pitch": 60, "duration": 12, "velocity": 64}]}]}