{"metadata": {"schema_version": "0.1", "title": "ACH WENN DOCH IMMER KIRMES WAER", "source_format": "abc"}, "resolution": 24, "tempos": [{"time": 0, "qpm": 120.0}], "key_signatures": [{"time": 0, "root": 5, "mode": "major", "fifths": -1}], "time_signatures": [{"time": 0, "numerator": 3, "denominator": 4}], "beats": [{"time": 0, "is_downbeat": true}, {"time": 24, "is_downbeat": false}, {"time": 36, "is_downbeat": true}, {"time": 60, "is_downbeat": false}, {"time": 84, "is_downbeat": false}, {"time": 108, "is_downbeat": true}, {"time": 132, "is_downbeat": false}, {"time": 156, "is_downbeat": false}, {"time": 180, "is_downbeat": true}, {"time": 204, "is_downbeat": false}, {"time": 228, "is_downbeat": false}, {"time": 252, "is_downbeat": true}, {"time": 276, "is_downbeat": false}, {"time": 300, "is_downbeat": false}, {"time": 324, "is_downbeat": true}, {"time": 348, "is_downbeat": false}, {"time": 372, "is_downbeat": false}, {"time": 396, "is_downbeat": true}, {"time": 420, "is_downbeat": false}, {"time": 444, "is_downbeat": false}, {"time": 468, "is_downbeat": true}, {"time": 492, "is_downbeat": false}, {"time": 516, "is_downbeat": false}, {"time": 540, "is_downbeat": true}, {"time": 564, "is_downbeat": false}, {"time": 588, "is_downbeat": false}, {"time": 612, "is_downbeat": true}, {"time": 636, "is_downbeat": false}, {"time": 660, "is_downbeat": false}, {"time": 684, "is_downbeat": true}, {"time": 708, "is_downbeat": false}, {"time": 732, "is_downbeat": false}, {"time": 756, "is_downbeat": true}, {"time": 780, "is_downbeat": false}, {"time": 804, "is_downbeat": false}, {"time": 828, "is_downbeat": true}, {"time": 852, "is_downbeat": false}, {"time": 876, "is_downbeat": false}, {"time": 900, "is_downbeat": true}, {"time": 924, "is_downbeat": false}, {"time": 948, "is_downbeat": false}, {"time": 972, "is_downbeat": true}, {"time": 996, "is_downbeat": false}, {"time": 1020, "is_downbeat": false}, {"time": 1044, "is_downbeat": true}, {"time": 1068, "is_downbeat": false}, {"time": 1092, "is_downbeat": false}, {"time": 1116, "is_downbeat": true}, {"time": 1140, "is_downbeat": false}, {"time": 1164, "is_downbeat": false}, {"time": 1188, "is_downbeat": true}, {"time": 1212, "is_downbeat": false}, {"time": 1236, "is_downbeat": false}, {"time": 1260, "is_downbeat": true}, {"time": 1284, "is_downbeat": false}, {"time": 1308, "is_downbeat": false}, {"time": 1332, "is_downbeat": true}, {"time": 1356, "is_downbeat": false}, {"time": 1380, "is_downbeat": false}, {"time": 1404, "is_downbeat": true}, {"time": 1428, "is_downbeat": false}, {"time": 1452, "is_downbeat": false}, {"time": 1476, "is_downbeat": true}, {"time": 1500, "is_downbeat": false}, {"time": 1524, "is_downbeat": false}, {"time": 1548, "is_downbeat": true}, {"time": 1572, "is_downbeat": false}, {"time": 1596, "is_downbeat": false}], "tracks": [{"program": 0, "is_drum": false, "notes": [{"time": 0, "pitch": 65, "duration": 12, "velocity": 64}, {"time": 12, "pitch": 65, "duration": 12, "velocity": 64}, {"time": 24, "pitch": 67, "duration": 12, "velocity": 64}, {"time": 36, "pitch": 69, "duration": 36, "velocity": 64}, {"time": 72, "pitch": 70, "duration": 12, "velocity": 64}, {"time": 84, "pitch": 67, "duration": 12, "velocity": 64}, {"time": 96, "pitch": 69, "duration": 12, "velocity": 64}, {"time": 108, "pitch": 65, "duration": 24, "velocity": 64}, {"time": 144, "pitch": 69, "duration": 12, "velocity": 64}, {"time": 156, "pitch": 69, "duration": 12, "velocity": 64}, {"time": 168, "pitch": 70, "duration": 12, "velocity": 64}, {"time": 180, "pitch": 72, "duration": 36, "velocity": 64}, {"time": 216, "pitch": 74, "duration": 12, "velocity": 64}, {"time": 228, "pitch": 70, "duration": 12, "velocity": 64}, {"time": 240, "pitch": 72, "duration": 12, "velocity": 64}, {"time": 252, "pitch": 69, "duration": 48, "velocity": 64}, {"time": 324, "pitch": 65, "duration": 12, "velocity": 64}, {"time": 336, "pitch": 69, "duration": 12, "velocity": 64}, {"time": 348, "pitch": 72, "duration": 24, "velocity": 64}, {"time": 372, "pitch": 72, "duration": 24, "velocity": 64}, {"time": 396, "pitch": 77, "duration": 12, "velocity": 64}, {"time": 408, "pitch": 74, "duration": 12, "velocity": 64}, {"time": 420, "pitch": 72, "duration": 24, "velocity": 64}, {"time": 444, "pitch": 72, "duration": 12, "velocity": 64}, {"time": 456, "pitch": 65, "duration": 12, "velocity": 64}, {"time": 468, "pitch": 65, "duration": 12, "velocity": 64}, {"time": 480, "pitch": 67, "duration": 12, "velocity": 64}, {"time": 492, "pitch": 69, "duration": 24, "velocity": 64}, {"time": 516, "pitch": 69, "duration": 24, "velocity": 64}, {"time": 540, "pitch": 67, "duration": 24, "velocity": 64}, {"time": 564, "pitch": 65, "duration": 24, "velocity": 64}, {"time": 612, "pitch": 65, "duration": 12, "velocity": 64}, {"time": 624, "pitch": 69, "duration": 12, "velocity": 64}, {"time": 636, "pitch": 72, "duration": 24, "velocity": 64}, {"time": 660, "pitch": 72, "duration": 24, "velocity": 64}, {"time": 684, "pitch": 77, "duration": 12, "velocity": 64}, {"time": 696, "pitch": 74, "duration": 12, "velocity": 64}, {"time": 708, "pitch": 72, "duration": 24, "velocity": 64}, {"time": 732, "pitch": 72, "duration": 12, "velocity": 64}, {"time": 744, "pitch": 65, "duration": 12, "velocity": 64}, {"time": 756, "pitch": 65, "duration": 12, "velocity": 64}, {"time": 768, "pitch": 67, "duration": 12, "velocity": 64}, {"time": 780, "pitch": 69, "duration": 24, "velocity": 64}, {"time": 804, "pitch": 69, "duration": 24, "velocity": 64}, {"time": 828, "pitch": 67, "duration": 24, "velocity": 64}, {"time": 852, "pitch": 65, "duration": 24, "velocity": 64}, {"time": 900, "pitch": 65, "duration": 24, "velocity": 64}, {"time": 924, "pitch": 65, "duration": 24, "velocity": 64}, {"time": 948, "pitch": 67, "duration": 24, "velocity": 64}, {"time": 972, "pitch": 69, "duration": 36, "velocity": 64}, {"time": 1008, "pitch": 67, "duration": 12, "velocity": 64}, {"time": 1020, "pitch": 65, "duration": 24, "velocity": 64}, {"time": 1044, "pitch": 69, "duration": 24, "velocity": 64}, {"time": 1068, "pitch": 69, "duration": 24, "velocity": 64}, {"time": 1092, "pitch": 70, "duration": 24, "velocity": 64}, {"time": 1116, "pitch": 72, "duration": 36, "velocity": 64}, {"time": 1152, "pitch": 70, "duration": 12, "velocity": 64}, {"time": 1164, "pitch": 69, "duration": 24, "velocity": 64}, {"time": 1188, "pitch": 65, "duration": 12, "velocity": 64}, {"time": 1200, "pitch": 69, "duration": 12, "velocity": 64}, {"time": 1212, "pitch": 72, "duration": 24, "velocity": 64}, {"time": 1236, "pitch": 72, "duration": 24, "velocity": 64}, {"time": 1260, "pitch": 77, "duration": 12, "velocity": 64}, {"time": 1272, "pitch": 74, "duration": 12, "velocity": 64}, {"time": 1284, "pitch": 72, "duration": 12, "velocity": 64}, {"time": 1296, "pitch": 70, "duration": 12, "velocity": 64}, {"time": 1308, "pitch": 72, "duration": 24, "velocity": 64}, {"time": 1332, "pitch": 65, "duration": 12, "velocity": 64}, {"time": 1344, "pitch": 69, "duration": 12, "velocity": 64}, {"time": 1356, "pitch": 72, "duration": 24, "velocity": 64}, {"time": 1380, "pitch": 72, "duration": 24, "velocity": 64}, {"time": 1404, "pitch": 77, "duration": 12, "velocity": 64}, {"time": 1416, "pitch": 74, "duration": 12, "velocity": 64}, {"time": 1428, "pitch": 72, "duration": 12, "velocity": 64}, {"time": 1440, "pitch": 70, "duration": 12, "velocity": 64}, {"time": 1452, "pitch": 72, "duration": 24, "velocity": 64}, {"time": 1476, "pitch": 65, "duration": 12, "velocity": 64}, {"time": 1488, "pitch": 67, "duration": 12, "velocity": 64}, {"time": 1500, "pitch": 69, "duration": 24, "velocity": 64}, {"time": 1524, "pitch": 69, "duration": 24, "velocity": 64}, {"time": 1548, "pitch": 67, "duration": 24, "velocity": 64}, {"time": 1572, "pitch": 65, "duration": 12, "velocity": 64}]}]}