{"metadata": {"schema_version": "0.1", "title": "SIST NO NIT LANG", "source_format": "abc"}, "resolution": 24, "tempos": [{"time": 0, "qpm": 120.0}], "key_signatures": [{"time": 0, "root": 5, "mode": "major", "fifths": -1}], "time_signatures": [{"time": 0, "numerator": 2, "denominator": 4}], "beats": [{"time": 0, "is_downbeat": true}, {"time": 12, "is_downbeat": true}, {"time": 36, "is_downbeat": false}, {"time": 60, "is_downbeat": true}, {"time": 84, "is_downbeat": false}, {"time": 108, "is_downbeat": true}, {"time": 132, "is_downbeat": false}, {"time": 156, "is_downbeat": true}, {"time": 180, "is_downbeat": false}, {"time": 204, "is_downbeat": true}, {"time": 228, "is_downbeat": false}, {"time": 252, "is_downbeat": true}, {"time": 276, "is_downbeat": false}, {"time": 300, "is_downbeat": true}, {"time": 324, "is_downbeat": false}, {"time": 348, "is_downbeat": true}, {"time": 372, "is_downbeat": false}], "tracks": [{"program": 0, "is_drum": false, "notes": [{"time": 0, "pitch": 65, "duration": 6, "velocity": 64}, {"time": 6, "pitch": 69, "duration": 6, "velocity": 64}, {"time": 12, "pitch": 72, "duration": 18, "velocity": 64}, {"time": 30, "pitch": 69, "duration": 6, "velocity": 64}, {"time": 36, "pitch": 70, "duration": 18, "velocity": 64}, {"time": 54, "pitch": 67, "duration": 6, "velocity": 64}, {"time": 60, "pitch": 69, "duration": 6, "velocity": 64}, {"time": 66, "pitch": 67, "duration": 6, "velocity": 64}, {"time": 72, "pitch": 69, "duration": 6, "velocity": 64}, {"time": 78, "pitch": 70, "duration": 6, "velocity": 64}, {"time": 84, "pitch": 69, "duration": 12, "velocity": 64}, {"time": 96, "pitch": 65, "duration": 6, "velocity": 64}, {"time": 102, "pitch": 69, "duration": 6, "velocity": 64}, {"time": 108, "pitch": 72, "duration": 18, "velocity": 64}, {"time": 126, "pitch": 69, "duration": 6, "velocity": 64}, {"time": 132, "pitch": 70, "duration": 18, "velocity": 64}, {"time": 150, "pitch": 67, "duration": 6, "velocity": 64}, {"time": 156, "pitch": 69, "duration": 24, "velocity": 64}, {"time": 192, "pitch": 69, "duration": 12, "velocity": 64}, {"time": 204, "pitch": 69, "duration": 18, "velocity": 64}, {"time": 222, "pitch": 67, "duration": 6, "velocity": 64}, {"time": 228, "pitch": 67, "duration": 12, "velocity": 64}, {"time": 240, "pitch": 70, "duration": 12, "velocity": 64}, {"time": 252, "pitch": 70, "duration": 18, "velocity": 64}, {"time": 270, "pitch": 69, "duration": 6, "velocity": 64}, {"time": 276, "pitch": 69, "duration": 12, "velocity": 64}, {"time": 288, "pitch": 72, "duration": 12, "velocity": 64}, {"time": 300, "pitch": 77, "duration": 6, "velocity": 64}, {"time": 306, "pitch": 72, "duration": 6, "velocity": 64}, {"time": 312, "pitch": 69, "duration": 6, "velocity": 64}, {"time": 318, "pitch": 65, "duration": 6, "velocity": 64}, {"time": 324, "pitch": 67, "duration": 6, "velocity": 64}, {"time": 330, "pitch": 70, "duration": 6, "velocity": 64}, {"time": 336, "pitch": 69, "duration": 6, "velocity": 64}, {"time": 342, "pitch": 67, "duration": 6, "velocity": 64}, {"time": 348, "pitch": 65, "duration": 24, "velocity": 64}]}]}