{"metadata": {"schema_version": "0.1", "title": "BLEIBT BEISAMMEN DENN ES DAUERT NET MEHR LANGE", "source_format": "abc"}, "resolution": 24, "tempos": [{"time": 0, "qpm": 120.0}], "key_signatures": [{"time": 0, "root": 2, "mode": "major", "fifths": 2}], "time_signatures": [{"time": 0, "numerator": 2, "denominator": 4}], "beats": [{"time": 0, "is_downbeat": true}, {"time": 24, "is_downbeat": true}, {"time": 48, "is_downbeat": false}, {"time": 72, "is_downbeat": true}, {"time": 96, "is_downbeat": false}, {"time": 120, "is_downbeat": true}, {"time": 144, "is_downbeat": false}, {"time": 168, "is_downbeat": true}, {"time": 192, "is_downbeat": false}, {"time": 216, "is_downbeat": true}, {"time": 240, "is_downbeat": false}, {"time": 264, "is_downbeat": true}, {"time": 288, "is_downbeat": false}, {"time": 312, "is_downbeat": true}, {"time": 336, "is_downbeat": false}, {"time": 360, "is_downbeat": true}, {"time": 384, "is_downbeat": false}], "tracks": [{"program": 0, "is_drum": false, "notes": [{"time": 0, "pitch": 54, "duration": 12, "velocity": 64}, {"time": 12, "pitch": 55, "duration": 12, "velocity": 64}, {"time": 24, "pitch": 57, "duration": 12, "velocity": 64}, {"time": 36, "pitch": 57, "duration": 12, "velocity": 64}, {"time": 48, "pitch": 57, "duration": 12, "velocity": 64}, {"time": 60, "pitch": 57, "duration": 12, "velocity": 64}, {"time": 72, "pitch": 57, "duration": 12, "velocity": 64}, {"time": 84, "pitch": 57, "duration": 12, "velocity": 64}, {"time": 96, "pitch": 62, "duration": 12, "velocity": 64}, {"time": 108, "pitch": 62, "duration": 12, "velocity": 64}, {"time": 120, "pitch": 59, "duration": 12, "velocity": 64}, {"time": 132, "pitch": 59, "duration": 12, "velocity": 64}, {"time": 144, "pitch": 59, "duration": 12, "velocity": 64}, {"time": 156, "pitch": 59, "duration": 12, "velocity": 64}, {"time": 168, "pitch": 59, "duration": 12, "velocity": 64}, {"time": 180, "pitch": 59, "duration": 12, "velocity": 64}, {"time": 192, "pitch": 64, "duration": 12, "velocity": 64}, {"time": 204, "pitch": 64, "duration": 12, "velocity": 64}, {"time": 216, "pitch": 61, "duration": 24, "velocity": 64}, {"time": 240, "pitch": 57, "duration": 12, "velocity": 64}, {"time": 252, "pitch": 57, "duration": 12, "velocity": 64}, {"time": 264, "pitch": 57, "duration": 24, "velocity": 64}, {"time": 288, "pitch": 59, "duration": 12, "velocity": 64}, {"time": 300, "pitch": 61, "duration": 12, "velocity": 64}, {"time": 312, "pitch": 62, "duration": 12, "velocity": 64}, {"time": 324, "pitch": 62, "duration": 12, "velocity": 64}, {"time": 336, "pitch": 62, "duration": 12, "velocity": 64}, {"time": 348, "pitch": 62, "duration": 12, "velocity": 64}, {"time": 360, "pitch": 62, "duration": 12, "velocity": 64}, {"time": 372, "pitch": 62, "duration": 12, "velocity": 64}]}]}