{"metadata": {"schema_version": "0.1", "title": "GEN ALMA GEH I AUFI", "source_format": "abc"}, "resolution": 24, "tempos": [{"time": 0, "qpm": 120.0}], "key_signatures": [{"time": 0, "root": 7, "mode": "major", "fifths": 1}], "time_signatures": [{"time": 0, "numerator": 2, "denominator": 4}], "beats": [{"time": 0, "is_downbeat": true}, {"time": 12, "is_downbeat": true}, {"time": 36, "is_downbeat": false}, {"time": 60, "is_downbeat": true}, {"time": 84, "is_downbeat": false}, {"time": 108, "is_downbeat": true}, {"time": 132, "is_downbeat": false}, {"time": 156, "is_downbeat": true}, {"time": 180, "is_downbeat": false}, {"time": 204, "is_downbeat": true}, {"time": 228, "is_downbeat": false}, {"time": 252, "is_downbeat": true}, {"time": 276, "is_downbeat": false}, {"time": 300, "is_downbeat": true}, {"time": 324, "is_downbeat": false}, {"time": 348, "is_downbeat": true}, {"time": 372, "is_downbeat": false}, {"time": 396, "is_downbeat": true}, {"time": 420, "is_downbeat": false}, {"time": 444, "is_downbeat": true}, {"time": 468, "is_downbeat": false}, {"time": 492, "is_downbeat": true}, {"time": 516, "is_downbeat": false}, {"time": 540, "is_downbeat": true}, {"time": 564, "is_downbeat": false}, {"time": 588, "is_downbeat": true}, {"time": 612, "is_downbeat": false}, {"time": 636, "is_downbeat": true}, {"time": 660, "is_downbeat": false}, {"time": 684, "is_downbeat": true}, {"time": 708, "is_downbeat": false}, {"time": 732, "is_downbeat": true}, {"time": 756, "is_downbeat": false}], "tracks": [{"program": 0, "is_drum": false, "notes": [{"time": 0, "pitch": 71, "duration": 12, "velocity": 64}, {"time": 12, "pitch": 74, "duration": 18, "velocity": 64}, {"time": 30, "pitch": 71, "duration": 6, "velocity": 64}, {"time": 36, "pitch": 74, "duration": 18, "velocity": 64}, {"time": 54, "pitch": 71, "duration": 6, "velocity": 64}, {"time": 60, "pitch": 67, "duration": 18, "velocity": 64}, {"time": 78, "pitch": 71, "duration": 6, "velocity": 64}, {"time": 84, "pitch": 67, "duration": 12, "velocity": 64}, {"time": 102, "pitch": 71, "duration": 6, "velocity": 64}, {"time": 108, "pitch": 69, "duration": 18, "velocity": 64}, {"time": 126, "pitch": 72, "duration": 6, "velocity": 64}, {"time": 132, "pitch": 66, "duration": 18, "velocity": 64}, {"time": 150, "pitch": 69, "duration": 6, "velocity": 64}, {"time": 156, "pitch": 67, "duration": 24, "velocity": 64}, {"time": 192, "pitch": 71, "duration": 12, "velocity": 64}, {"time": 204, "pitch": 74, "duration": 18, "velocity": 64}, {"time": 222, "pitch": 71, "duration": 6, "velocity": 64}, {"time": 228, "pitch": 74, "duration": 18, "velocity": 64}, {"time": 246, "pitch": 71, "duration": 6, "velocity": 64}, {"time": 252, "pitch": 67, "duration": 18, "velocity": 64}, {"time": 270, "pitch": 71, "duration": 6, "velocity": 64}, {"time": 276, "pitch": 67, "duration": 12, "velocity": 64}, {"time": 294, "pitch": 71, "duration": 6, "velocity": 64}, {"time": 300, "pitch": 69, "duration": 18, "velocity": 64}, {"time": 318, "pitch": 72, "duration": 6, "velocity": 64}, {"time": 324, "pitch": 66, "duration": 18, "velocity": 64}, {"time": 342, "pitch": 69, "duration": 6, "velocity": 64}, {"time": 348, "pitch": 67, "duration": 24, "velocity": 64}, {"time": 384, "pitch": 64, "duration": 12, "velocity": 64}, {"time": 396, "pitch": 64, "duration": 18, "velocity": 64}, {"time": 414, "pitch": 64, "duration": 6, "velocity": 64}, {"time": 420, "pitch": 64, "duration": 18, "velocity": 64}, {"time": 438, "pitch": 64, "duration": 6, "velocity": 64}, {"time": 444, "pitch": 72, "duration": 18, "velocity": 64}, {"time": 462, "pitch": 72, "duration": 6, "velocity": 64}, {"time": 468, "pitch": 72, "duration": 12, "velocity": 64}, {"time": 486, "pitch": 69, "duration": 6, "velocity": 64}, {"time": 492, "pitch": 69, "duration": 12, "velocity": 64}, {"time": 504, "pitch": 69, "duration": 12, "velocity": 64}, {"time": 516, "pitch": 69, "duration": 12, "velocity": 64}, {"time": 528, "pitch": 69, "duration": 12, "velocity": 64}, {"time": 540, "pitch": 74, "duration": 24, "velocity": 64}, {"time": 576, "pitch": 74, "duration": 12, "velocity": 64}, {"time": 588, "pitch": 79, "duration": 18, "velocity": 64}, {"time": 606, "pitch": 74, "duration": 6, "velocity": 64}, {"time": 612, "pitch": 79, "duration": 18, "velocity": 64}, {"time": 630, "pitch": 74, "duration": 6, "velocity": 64}, {"time": 636, "pitch": 71, "duration": 18, "velocity": 64}, {"time": 654, "pitch": 74, "duration": 6, "velocity": 64}, {"time": 660, "pitch": 67, "duration": 18, "velocity": 64}, {"time": 678, "pitch": 71, "duration": 6, "velocity": 64}, {"time": 684, "pitch": 69, "duration": 18, "velocity": 64}, {"time": 702, "pitch": 72, "duration": 6, "velocity": 64}, {"time": 708, "pitch": 66, "duration": 18, "velocity": 64}, {"time": 726, "pitch": 69, "duration": 6, "velocity": 64}, {"time": 732, "pitch": 67, "duration": 24, "velocity": 64}]}]}