{"metadata": {"schema_version": "0.1", "title": "SITZT EIN SCHOENS VOEGEL IM TANNENWALD", "source_format": "abc"}, "resolution": 24, "tempos": [{"time": 0, "qpm": 120.0}], "key_signatures": [{"time": 0, "root": 5, "mode": "major", "fifths": -1}], "time_signatures": [{"time": 0, "numerator": 3, "denominator": 4}], "beats": [{"time": 0, "is_downbeat": true}, {"time": 24, "is_downbeat": false}, {"time": 48, "is_downbeat": false}, {"time": 72, "is_downbeat": true}, {"time": 96, "is_downbeat": false}, {"time": 120, "is_downbeat": false}, {"time": 144, "is_downbeat": true}, {"time": 168, "is_downbeat": false}, {"time": 192, "is_downbeat": false}, {"time": 216, "is_downbeat": true}, {"time": 240, "is_downbeat": false}, {"time": 264, "is_downbeat": false}, {"time": 288, "is_downbeat": true}, {"time": 312, "is_downbeat": false}, {"time": 336, "is_downbeat": false}, {"time": 360, "is_downbeat": true}, {"time": 384, "is_downbeat": false}, {"time": 408, "is_downbeat": false}, {"time": 432, "is_downbeat": true}, {"time": 456, "is_downbeat": false}, {"time": 480, "is_downbeat": false}, {"time": 504, "is_downbeat": true}, {"time": 528, "is_downbeat": false}, {"time": 552, "is_downbeat": false}, {"time": 576, "is_downbeat": true}, {"time": 600, "is_downbeat": false}, {"time": 624, "is_downbeat": false}, {"time": 648, "is_downbeat": true}, {"time": 672, "is_downbeat": false}, {"time": 696, "is_downbeat": false}, {"time": 720, "is_downbeat": true}, {"time": 744, "is_downbeat": false}, {"time": 768, "is_downbeat": false}, {"time": 792, "is_downbeat": true}, {"time": 816, "is_downbeat": false}, {"time": 840, "is_downbeat": false}, {"time": 864, "is_downbeat": true}, {"time": 888, "is_downbeat": false}, {"time": 912, "is_downbeat": false}, {"time": 936, "is_downbeat": true}, {"time": 960, "is_downbeat": false}, {"time": 984, "is_downbeat": false}, {"time": 1008, "is_downbeat": true}, {"time": 1032, "is_downbeat": false}, {"time": 1056, "is_downbeat": false}, {"time": 1080, "is_downbeat": true}, {"time": 1104, "is_downbeat": false}, {"time": 1128, "is_downbeat": false}, {"time": 1152, "is_downbeat": true}, {"time": 1176, "is_downbeat": false}, {"time": 1200, "is_downbeat": false}, {"time": 1224, "is_downbeat": true}, {"time": 1248, "is_downbeat": false}, {"time": 1272, "is_downbeat": false}, {"time": 1296, "is_downbeat": true}, {"time": 1320, "is_downbeat": false}, {"time": 1344, "is_downbeat": false}, {"time": 1368, "is_downbeat": true}, {"time": 1392, "is_downbeat": false}, {"time": 1416, "is_downbeat": false}, {"time": 1440, "is_downbeat": true}, {"time": 1464, "is_downbeat": false}, {"time": 1488, "is_downbeat": false}, {"time": 1512, "is_downbeat": true}, {"time": 1536, "is_downbeat": false}, {"time": 1560, "is_downbeat": false}, {"time": 1584, "is_downbeat": true}, {"time": 1608, "is_downbeat": false}, {"time": 1632, "is_downbeat": false}, {"time": 1656, "is_downbeat": true}, {"time": 1680, "is_downbeat": false}, {"time": 1704, "is_downbeat": false}, {"time": 1728, "is_downbeat": true}, {"time": 1752, "is_downbeat": false}, {"time": 1776, "is_downbeat": false}, {"time": 1800, "is_downbeat": true}, {"time": 1824, "is_downbeat": false}, {"time": 1848, "is_downbeat": false}], "tracks": [{"program": 0, "is_drum": false, "notes": [{"time": 0, "pitch": 69, "duration": 24, "velocity": 64}, {"time": 24, "pitch": 69, "duration": 24, "velocity": 64}, {"time": 48, "pitch": 69, "duration": 24, "velocity": 64}, {"time": 72, "pitch": 72, "duration": 36, "velocity": 64}, {"time": 108, "pitch": 70, "duration": 12, "velocity": 64}, {"time": 120, "pitch": 69, "duration": 24, "velocity": 64}, {"time": 144, "pitch": 72, "duration": 24, "velocity": 64}, {"time": 168, "pitch": 77, "duration": 24, "velocity": 64}, {"time": 192, "pitch": 72, "duration": 24, "velocity": 64}, {"time": 216, "pitch": 69, "duration": 24, "velocity": 64}, {"time": 240, "pitch": 69, "duration": 24, "velocity": 64}, {"time": 264, "pitch": 69, "duration": 24, "velocity": 64}, {"time": 288, "pitch": 72, "duration": 36, "velocity": 64}, {"time": 324, "pitch": 70, "duration": 12, "velocity": 64}, {"time": 336, "pitch": 69, "duration": 24, "velocity": 64}, {"time": 360, "pitch": 72, "duration": 48, "velocity": 64}, {"time": 432, "pitch": 72, "duration": 24, "velocity": 64}, {"time": 456, "pitch": 77, "duration": 24, "velocity": 64}, {"time": 480, "pitch": 69, "duration": 24, "velocity": 64}, {"time": 504, "pitch": 72, "duration": 24, "velocity": 64}, {"time": 528, "pitch": 70, "duration": 24, "velocity": 64}, {"time": 552, "pitch": 70, "duration": 24, "velocity": 64}, {"time": 576, "pitch": 70, "duration": 24, "velocity": 64}, {"time": 600, "pitch": 74, "duration": 24, "velocity": 64}, {"time": 624, "pitch": 67, "duration": 24, "velocity": 64}, {"time": 648, "pitch": 70, "duration": 24, "velocity": 64}, {"time": 672, "pitch": 69, "duration": 24, "velocity": 64}, {"time": 696, "pitch": 69, "duration": 24, "velocity": 64}, {"time": 720, "pitch": 69, "duration": 24, "velocity": 64}, {"time": 744, "pitch": 69, "duration": 24, "velocity": 64}, {"time": 768, "pitch": 69, "duration": 24, "velocity": 64}, {"time": 792, "pitch": 72, "duration": 36, "velocity": 64}, {"time": 828, "pitch": 70, "duration": 12, "velocity": 64}, {"time": 840, "pitch": 69, "duration": 24, "velocity": 64}, {"time": 864, "pitch": 72, "duration": 24, "velocity": 64}, {"time": 888, "pitch": 77, "duration": 24, "velocity": 64}, {"time": 912, "pitch": 72, "duration": 24, "velocity": 64}, {"time": 936, "pitch": 69, "duration": 24, "velocity": 64}, {"time": 960, "pitch": 69, "duration": 24, "velocity": 64}, {"time": 984, "pitch": 69, "duration": 24, "velocity": 64}, {"time": 1008, "pitch": 72, "duration": 36, "velocity": 64}, {"time": 1044, "pitch": 70, "duration": 12, "velocity": 64}, {"time": 1056, "pitch": 70, "duration": 24, "velocity": 64}, {"time": 1080, "pitch": 69, "duration": 48, "velocity": 64}, {"time": 1152, "pitch": 72, "duration": 24, "velocity": 64}, {"time": 1176, "pitch": 77, "duration": 24, "velocity": 64}, {"time": 1200, "pitch": 69, "duration": 24, "velocity": 64}, {"time": 1224, "pitch": 72, "duration": 24, "velocity": 64}, {"time": 1248, "pitch": 70, "duration": 24, "velocity": 64}, {"time": 1272, "pitch": 70, "duration": 24, "velocity": 64}, {"time": 1296, "pitch": 70, "duration": 24, "velocity": 64}, {"time": 1320, "pitch": 74, "duration": 24, "velocity": 64}, {"time": 1344, "pitch": 67, "duration": 24, "velocity": 64}, {"time": 1368, "pitch": 70, "duration": 24, "velocity": 64}, {"time": 1392, "pitch": 69, "duration": 24, "velocity": 64}, {"time": 1416, "pitch": 69, "duration": 24, "velocity": 64}, {"time": 1440, "pitch": 69, "duration": 24, "velocity": 64}, {"time": 1464, "pitch": 69, "duration": 24, "velocity": 64}, {"time": 1488, "pitch": 69, "duration": 24, "velocity": 64}, {"time": 1512, "pitch": 72, "duration": 36, "velocity": 64}, {"time": 1548, "pitch": 70, "duration": 12, "velocity": 64}, {"time": 1560, "pitch": 69, "duration": 24, "velocity": 64}, {"time": 1584, "pitch": 72, "duration": 24, "velocity": 64}, {"time": 1608, "pitch": 77, "duration": 24, "velocity": 64}, {"time": 1632, "pitch": 72, "duration": 24, "velocity": 64}, {"time": 1656, "pitch": 69, "duration": 24, "velocity": 64}, {"time": 1680, "pitch": 69, "duration": 24, "velocity": 64}, {"time": 1704, "pitch": 69, "duration": 24, "velocity": 64}, {"time": 1728, "pitch": 72, "duration": 36, "velocity": 64}, {"time": 1764, "pitch": 70, "duration": 12, "velocity": 64}, {"time": 1776, "pitch": 70, "duration": 24, "velocity": 64}, {"time": 1800, "pitch": 69, "duration": 48, "velocity": 64}]}]}