{"metadata": {"schema_version": "0.1", "title": "UEBERALL BIN ICH ZUHAUSE", "source_format": "abc"}, "resolution": 24, "tempos": [{"time": 0, "qpm": 120.0}], "key_signatures": [{"time": 0, "root": 2, "mode": "major", "fifths": 2}], "time_signatures": [{"time": 0, "numerator": 2, "denominator": 4}], "beats": [{"time": 0, "is_downbeat": true}, {"time": 24, "is_downbeat": false}, {"time": 48, "is_downbeat": true}, {"time": 72, "is_downbeat": false}, {"time": 96, "is_downbeat": true}, {"time": 120, "is_downbeat": false}, {"time": 144, "is_downbeat": true}, {"time": 168, "is_downbeat": false}, {"time": 192, "is_downbeat": true}, {"time": 216, "is_downbeat": false}, {"time": 240, "is_downbeat": true}, {"time": 264, "is_downbeat": false}, {"time": 288, "is_downbeat": true}, {"time": 312, "is_downbeat": false}, {"time": 336, "is_downbeat": true}, {"time": 360, "is_downbeat": false}, {"time": 384, "is_downbeat": true}, {"time": 408, "is_downbeat": false}, {"time": 432, "is_downbeat": true}, {"time": 456, "is_downbeat": false}, {"time": 480, "is_downbeat": true}, {"time": 504, "is_downbeat": false}, {"time": 528, "is_downbeat": true}, {"time": 552, "is_downbeat": false}, {"time": 576, "is_downbeat": true}, {"time": 600, "is_downbeat": false}, {"time": 624, "is_downbeat": true}, {"time": 648, "is_downbeat": false}, {"time": 672, "is_downbeat": true}, {"time": 696, "is_downbeat": false}, {"time": 720, "is_downbeat": true}, {"time": 744, "is_downbeat": false}, {"time": 768, "is_downbeat": true}, {"time": 792, "is_downbeat": false}, {"time": 816, "is_downbeat": true}, {"time": 840, "is_downbeat": false}, {"time": 864, "is_downbeat": true}, {"time": 888, "is_downbeat": false}, {"time": 912, "is_downbeat": true}, {"time": 936, "is_downbeat": false}, {"time": 960, "is_downbeat": true}, {"time": 984, "is_downbeat": false}, {"time": 1008, "is_downbeat": true}, {"time": 1032, "is_downbeat": false}, {"time": 1056, "is_downbeat": true}, {"time": 1080, "is_downbeat": false}, {"time": 1104, "is_downbeat": true}, {"time": 1128, "is_downbeat": false}, {"time": 1152, "is_downbeat": true}, {"time": 1176, "is_downbeat": false}], "tracks": [{"program": 0, "is_drum": false, "notes": [{"time": 0, "pitch": 57, "duration": 18, "velocity": 64}, {"time": 18, "pitch": 57, "duration": 6, "velocity": 64}, {"time": 24, "pitch": 62, "duration": 12, "velocity": 64}, {"time": 36, "pitch": 57, "duration": 12, "velocity": 64}, {"time": 48, "pitch": 54, "duration": 12, "velocity": 64}, {"time": 60, "pitch": 54, "duration": 12, "velocity": 64}, {"time": 72, "pitch": 57, "duration": 18, "velocity": 64}, {"time": 90, "pitch": 54, "duration": 6, "velocity": 64}, {"time": 96, "pitch": 50, "duration": 12, "velocity": 64}, {"time": 108, "pitch": 52, "duration": 12, "velocity": 64}, {"time": 120, "pitch": 54, "duration": 12, "velocity": 64}, {"time": 132, "pitch": 55, "duration": 12, "velocity": 64}, {"time": 144, "pitch": 57, "duration": 12, "velocity": 64}, {"time": 156, "pitch": 57, "duration": 12, "velocity": 64}, {"time": 168, "pitch": 57, "duration": 24, "velocity": 64}, {"time": 192, "pitch": 57, "duration": 18, "velocity": 64}, {"time": 210, "pitch": 57, "duration": 6, "velocity": 64}, {"time": 216, "pitch": 62, "duration": 12, "velocity": 64}, {"time": 228, "pitch": 57, "duration": 12, "velocity": 64}, {"time": 240, "pitch": 54, "duration": 12, "velocity": 64}, {"time": 252, "pitch": 54, "duration": 12, "velocity": 64}, {"time": 264, "pitch": 57, "duration": 18, "velocity": 64}, {"time": 282, "pitch": 54, "duration": 6, "velocity": 64}, {"time": 288, "pitch": 50, "duration": 12, "velocity": 64}, {"time": 300, "pitch": 52, "duration": 12, "velocity": 64}, {"time": 312, "pitch": 54, "duration": 12, "velocity": 64}, {"time": 324, "pitch": 55, "duration": 12, "velocity": 64}, {"time": 336, "pitch": 57, "duration": 12, "velocity": 64}, {"time": 348, "pitch": 57, "duration": 12, "velocity": 64}, {"time": 360, "pitch": 57, "duration": 24, "velocity": 64}, {"time": 384, "pitch": 61, "duration": 12, "velocity": 64}, {"time": 396, "pitch": 62, "duration": 12, "velocity": 64}, {"time": 408, "pitch": 64, "duration": 18, "velocity": 64}, {"time": 426, "pitch": 62, "duration": 6, "velocity": 64}, {"time": 432, "pitch": 61, "duration": 12, "velocity": 64}, {"time": 444, "pitch": 62, "duration": 12, "velocity": 64}, {"time": 456, "pitch": 64, "duration": 18, "velocity": 64}, {"time": 474, "pitch": 62, "duration": 6, "velocity": 64}, {"time": 480, "pitch": 61, "duration": 12, "velocity": 64}, {"time": 492, "pitch": 62, "duration": 12, "velocity": 64}, {"time": 504, "pitch": 64, "duration": 18, "velocity": 64}, {"time": 522, "pitch": 62, "duration": 6, "velocity": 64}, {"time": 528, "pitch": 61, "duration": 24, "velocity": 64}, {"time": 552, "pitch": 59, "duration": 24, "velocity": 64}, {"time": 576, "pitch": 57, "duration": 48, "velocity": 64}, {"time": 624, "pitch": 57, "duration": 12, "velocity": 64}, {"time": 636, "pitch": 57, "duration": 12, "velocity": 64}, {"time": 648, "pitch": 61, "duration": 18, "velocity": 64}, {"time": 666, "pitch": 59, "duration": 6, "velocity": 64}, {"time": 672, "pitch": 57, "duration": 12, "velocity": 64}, {"time": 684, "pitch": 57, "duration": 12, "velocity": 64}, {"time": 696, "pitch": 62, "duration": 24, "velocity": 64}, {"time": 720, "pitch": 57, "duration": 12, "velocity": 64}, {"time": 732, "pitch": 57, "duration": 12, "velocity": 64}, {"time": 744, "pitch": 61, "duration": 18, "velocity": 64}, {"time": 762, "pitch": 59, "duration": 6, "velocity": 64}, {"time": 768, "pitch": 57, "duration": 12, "velocity": 64}, {"time": 780, "pitch": 57, "duration": 12, "velocity": 64}, {"time": 792, "pitch": 62, "duration": 24, "velocity": 64}, {"time": 816, "pitch": 57, "duration": 24, "velocity": 64}, {"time": 840, "pitch": 62, "duration": 24, "velocity": 64}, {"time": 864, "pitch": 59, "duration": 24, "velocity": 64}, {"time": 888, "pitch": 64, "duration": 24, "velocity": 64}, {"time": 912, "pitch": 61, "duration": 12, "velocity": 64}, {"time": 924, "pitch": 57, "duration": 12, "velocity": 64}, {"time": 936, "pitch": 57, "duration": 18, "velocity": 64}, {"time": 954, "pitch": 57, "duration": 6, "velocity": 64}, {"time": 960, "pitch": 66, "duration": 48, "velocity": 64}, {"time": 1008, "pitch": 57, "duration": 24, "velocity": 64}, {"time": 1032, "pitch": 62, "duration": 24, "velocity": 64}, {"time": 1056, "pitch": 59, "duration": 24, "velocity": 64}, {"time": 1080, "pitch": 64, "duration": 24, "velocity": 64}, {"time": 1104, "pitch": 61, "duration": 12, "velocity": 64}, {"time": 1116, "pitch": 57, "duration": 12, "velocity": 64}, {"time": 1128, "pitch": 59, "duration": 18, "velocity": 64}, {"time": 1146, "pitch": 61, "duration": 6, "velocity": 64}, {"time": 1152, "pitch": 62, "duration": 24, "velocity": 64}]}]}