{"metadata": {"schema_version": "0.1", "title": "DROBEN AUF GRUENER WALDHAID", "source_format": "abc"}, "resolution": 24, "tempos": [{"time": 0, "qpm": 120.0}], "key_signatures": [{"time": 0, "root": 5, "mode": "major", "fifths": -1}], "time_signatures": [{"time": 0, "numerator": 4, "denominator": 4}, {"time": 684, "numerator": 3, "denominator": 8}, {"time": 720, "numerator": 6, "denominator": 8}], "beats": [{"time": 0, "is_downbeat": true}, {"time": 12, "is_downbeat": false}, {"time": 24, "is_downbeat": false}, {"time": 36, "is_downbeat": true}, {"time": 48, "is_downbeat": false}, {"time": 60, "is_downbeat": false}, {"time": 72, "is_downbeat": true}, {"time": 84, "is_downbeat": false}, {"time": 96, "is_downbeat": false}, {"time": 108, "is_downbeat": true}, {"time": 120, "is_downbeat": false}, {"time": 132, "is_downbeat": false}, {"time": 144, "is_downbeat": true}, {"time": 156, "is_downbeat": false}, {"time": 168, "is_downbeat": false}, {"time": 180, "is_downbeat": true}, {"time": 192, "is_downbeat": false}, {"time": 204, "is_downbeat": false}, {"time": 216, "is_downbeat": true}, {"time": 228, "is_downbeat": false}, {"time": 240, "is_downbeat": false}, {"time": 252, "is_downbeat": true}, {"time": 264, "is_downbeat": false}, {"time": 276, "is_downbeat": false}, {"time": 288, "is_downbeat": true}, {"time": 300, "is_downbeat": false}, {"time": 312, "is_downbeat": false}, {"time": 324, "is_downbeat": true}, {"time": 336, "is_downbeat": false}, {"time": 348, "is_downbeat": false}, {"time": 360, "is_downbeat": true}, {"time": 372, "is_downbeat": false}, {"time": 384, "is_downbeat": false}, {"time": 396, "is_downbeat": true}, {"time": 408, "is_downbeat": false}, {"time": 420, "is_downbeat": false}, {"time": 432, "is_downbeat": true}, {"time": 444, "is_downbeat": false}, {"time": 456, "is_downbeat": false}, {"time": 468, "is_downbeat": true}, {"time": 480, "is_downbeat": false}, {"time": 492, "is_downbeat": false}, {"time": 504, "is_downbeat": true}, {"time": 516, "is_downbeat": false}, {"time": 528, "is_downbeat": false}, {"time": 540, "is_downbeat": true}, {"time": 552, "is_downbeat": false}, {"time": 564, "is_downbeat": false}, {"time": 576, "is_downbeat": true}, {"time": 588, "is_downbeat": false}, {"time": 600, "is_downbeat": false}, {"time": 612, "is_downbeat": true}, {"time": 624, "is_downbeat": false}, {"time": 636, "is_downbeat": false}, {"time": 648, "is_downbeat": true}, {"time": 660, "is_downbeat": false}, {"time": 672, "is_downbeat": false}, {"time": 684, "is_downbeat": true}, {"time": 696, "is_downbeat": false}, {"time": 708, "is_downbeat": false}, {"time": 720, "is_downbeat": true}, {"time": 732, "is_downbeat": false}, {"time": 744, "is_downbeat": false}, {"time": 756, "is_downbeat": false}, {"time": 768, "is_downbeat": false}, {"time": 780, "is_downbeat": false}, {"time": 792, "is_downbeat": true}, {"time": 804, "is_downbeat": false}, {"time": 816, "is_downbeat": false}, {"time": 828, "is_downbeat": true}, {"time": 840, "is_downbeat": false}, {"time": 852, "is_downbeat": false}, {"time": 864, "is_downbeat": true}, {"time": 876, "is_downbeat": false}, {"time": 888, "is_downbeat": false}, {"time": 900, "is_downbeat": true}, {"time": 912, "is_downbeat": false}, {"time": 924, "is_downbeat": false}, {"time": 936, "is_downbeat": false}, {"time": 948, "is_downbeat": false}, {"time": 960, "is_downbeat": false}], "tracks": [{"program": 0, "is_drum": false, "notes": [{"time": 0, "pitch": 65, "duration": 18, "velocity": 64}, {"time": 18, "pitch": 64, "duration": 6, "velocity": 64}, {"time": 24, "pitch": 65, "duration": 12, "velocity": 64}, {"time": 36, "pitch": 67, "duration": 12, "velocity": 64}, {"time": 48, "pitch": 65, "duration": 12, "velocity": 64}, {"time": 60, "pitch": 67, "duration": 12, "velocity": 64}, {"time": 72, "pitch": 69, "duration": 36, "velocity": 64}, {"time": 108, "pitch": 67, "duration": 36, "velocity": 64}, {"time": 144, "pitch": 69, "duration": 12, "velocity": 64}, {"time": 156, "pitch": 69, "duration": 12, "velocity": 64}, {"time": 168, "pitch": 67, "duration": 6, "velocity": 64}, {"time": 174, "pitch": 67, "duration": 6, "velocity": 64}, {"time": 180, "pitch": 69, "duration": 12, "velocity": 64}, {"time": 192, "pitch": 69, "duration": 12, "velocity": 64}, {"time": 204, "pitch": 67, "duration": 6, "velocity": 64}, {"time": 210, "pitch": 67, "duration": 6, "velocity": 64}, {"time": 216, "pitch": 69, "duration": 12, "velocity": 64}, {"time": 228, "pitch": 69, "duration": 12, "velocity": 64}, {"time": 240, "pitch": 67, "duration": 12, "velocity": 64}, {"time": 252, "pitch": 65, "duration": 24, "velocity": 64}, {"time": 276, "pitch": 60, "duration": 12, "velocity": 64}, {"time": 288, "pitch": 65, "duration": 18, "velocity": 64}, {"time": 306, "pitch": 64, "duration": 6, "velocity": 64}, {"time": 312, "pitch": 65, "duration": 12, "velocity": 64}, {"time": 324, "pitch": 67, "duration": 12, "velocity": 64}, {"time": 336, "pitch": 65, "duration": 12, "velocity": 64}, {"time": 348, "pitch": 67, "duration": 12, "velocity": 64}, {"time": 360, "pitch": 69, "duration": 36, "velocity": 64}, {"time": 420, "pitch": 65, "duration": 6, "velocity": 64}, {"time": 426, "pitch": 69, "duration": 6, "velocity": 64}, {"time": 432, "pitch": 72, "duration": 24, "velocity": 64}, {"time": 456, "pitch": 72, "duration": 12, "velocity": 64}, {"time": 468, "pitch": 70, "duration": 24, "velocity": 64}, {"time": 492, "pitch": 72, "duration": 12, "velocity": 64}, {"time": 504, "pitch": 69, "duration": 36, "velocity": 64}, {"time": 576, "pitch": 69, "duration": 12, "velocity": 64}, {"time": 588, "pitch": 69, "duration": 6, "velocity": 64}, {"time": 594, "pitch": 69, "duration": 6, "velocity": 64}, {"time": 600, "pitch": 67, "duration": 12, "velocity": 64}, {"time": 612, "pitch": 69, "duration": 12, "velocity": 64}, {"time": 624, "pitch": 69, "duration": 6, "velocity": 64}, {"time": 630, "pitch": 69, "duration": 6, "velocity": 64}, {"time": 636, "pitch": 67, "duration": 12, "velocity": 64}, {"time": 648, "pitch": 65, "duration": 18, "velocity": 64}, {"time": 666, "pitch": 64, "duration": 6, "velocity": 64}, {"time": 672, "pitch": 65, "duration": 12, "velocity": 64}, {"time": 684, "pitch": 67, "duration": 12, "velocity": 64}, {"time": 696, "pitch": 65, "duration": 12, "velocity": 64}, {"time": 708, "pitch": 67, "duration": 12, "velocity": 64}, {"time": 720, "pitch": 69, "duration": 36, "velocity": 64}, {"time": 756, "pitch": 67, "duration": 36, "velocity": 64}, {"time": 792, "pitch": 69, "duration": 12, "velocity": 64}, {"time": 804, "pitch": 69, "duration": 12, "velocity": 64}, {"time": 816, "pitch": 67, "duration": 6, "velocity": 64}, {"time": 822, "pitch": 67, "duration": 6, "velocity": 64}, {"time": 828, "pitch": 69, "duration": 12, "velocity": 64}, {"time": 840, "pitch": 69, "duration": 12, "velocity": 64}, {"time": 852, "pitch": 67, "duration": 6, "velocity": 64}, {"time": 858, "pitch": 67, "duration": 6, "velocity": 64}, {"time": 864, "pitch": 69, "duration": 12, "velocity": 64}, {"time": 876, "pitch": 69, "duration": 12, "velocity": 64}, {"time": 888, "pitch": 67, "duration": 12, "velocity": 64}, {"time": 900, "pitch": 65, "duration": 24, "velocity": 64}]}]}