{"metadata": {"schema_version": "0.1", "title": "LIEWEN HERR SCHMIET EN KOERNSCHE", "source_format": "abc"}, "resolution": 24, "tempos": [{"time": 0, "qpm": 120.0}], "key_signatures": [{"time": 0, "root": 9, "mode": "major", "fifths": 3}], "time_signatures": [{"time": 0, "numerator": 3, "denominator": 8}], "beats": [{"time": 0, "is_downbeat": true}, {"time": 12, "is_downbeat": false}, {"time": 24, "is_downbeat": false}, {"time": 36, "is_downbeat": true}, {"time": 48, "is_downbeat": false}, {"time": 60, "is_downbeat": false}, {"time": 72, "is_downbeat": true}, {"time": 84, "is_downbeat": false}, {"time": 96, "is_downbeat": false}, {"time": 108, "is_downbeat": true}, {"time": 120, "is_downbeat": false}, {"time": 132, "is_downbeat": false}, {"time": 144, "is_downbeat": true}, {"time": 156, "is_downbeat": false}, {"time": 168, "is_downbeat": false}, {"time": 180, "is_downbeat": true}, {"time": 192, "is_downbeat": false}, {"time": 204, "is_downbeat": false}, {"time": 216, "is_downbeat": true}, {"time": 228, "is_downbeat": false}, {"time": 240, "is_downbeat": false}], "tracks": [{"program": 0, "is_drum": false, "notes": [{"time": 0, "pitch": 76, "duration": 18, "velocity": 64}, {"time": 18, "pitch": 74, "duration": 6, "velocity": 64}, {"time": 24, "pitch": 73, "duration": 12, "velocity": 64}, {"time": 36, "pitch": 76, "duration": 18, "velocity": 64}, {"time": 54, "pitch": 74, "duration": 6, "velocity": 64}, {"time": 60, "pitch": 73, "duration": 12, "velocity": 64}, {"time": 72, "pitch": 69, "duration": 6, "velocity": 64}, {"time": 78, "pitch": 71, "duration": 6, "velocity": 64}, {"time": 84, "pitch": 73, "duration": 6, "velocity": 64}, {"time": 90, "pitch": 73, "duration": 6, "velocity": 64}, {"time": 96, "pitch": 74, "duration": 12, "velocity": 64}, {"time": 108, "pitch": 76, "duration": 18, "velocity": 64}, {"time": 126, "pitch": 74, "duration": 6, "velocity": 64}, {"time": 132, "pitch": 73, "duration": 12, "velocity": 64}, {"time": 144, "pitch": 76, "duration": 18, "velocity": 64}, {"time": 162, "pitch": 74, "duration": 6, "velocity": 64}, {"time": 168, "pitch": 73, "duration": 12, "velocity": 64}, {"time": 180, "pitch": 69, "duration": 12, "velocity": 64}, {"time": 192, "pitch": 71, "duration": 12, "velocity": 64}, {"time": 204, "pitch": 73, "duration": 12, "velocity": 64}, {"time": 216, "pitch": 76, "duration": 6, "velocity": 64}, {"time": 222, "pitch": 69, "duration": 6, "velocity": 64}]}]}