{"metadata": {"schema_version": "0.1", "title": "EEN IS EENE", "source_format": "abc"}, "resolution": 24, "tempos": [{"time": 0, "qpm": 120.0}], "key_signatures": [{"time": 0, "root": 7, "mode": "major", "fifths": 1}], "time_signatures": [{"time": 0, "numerator": 4, "denominator": 4}], "beats": [{"time": 0, "is_downbeat": true}, {"time": 24, "is_downbeat": false}, {"time": 48, "is_downbeat": false}, {"time": 72, "is_downbeat": false}, {"time": 96, "is_downbeat": true}, {"time": 120, "is_downbeat": false}, {"time": 144, "is_downbeat": false}, {"time": 168, "is_downbeat": false}, {"time": 192, "is_downbeat": true}, {"time": 216, "is_downbeat": false}, {"time": 240, "is_downbeat": false}, {"time": 264, "is_downbeat": false}, {"time": 288, "is_downbeat": true}, {"time": 312, "is_downbeat": false}, {"time": 336, "is_downbeat": false}, {"time": 360, "is_downbeat": false}], "tracks": [{"program": 0, "is_drum": false, "notes": [{"time": 0, "pitch": 67, "duration": 24, "velocity": 64}, {"time": 24, "pitch": 66, "duration": 12, "velocity": 64}, {"time": 36, "pitch": 69, "duration": 12, "velocity": 64}, {"time": 48, "pitch": 67, "duration": 24, "velocity": 64}, {"time": 72, "pitch": 62, "duration": 24, "velocity": 64}, {"time": 96, "pitch": 71, "duration": 24, "velocity": 64}, {"time": 120, "pitch": 69, "duration": 12, "velocity": 64}, {"time": 132, "pitch": 71, "duration": 12, "velocity": 64}, {"time": 144, "pitch": 72, "duration": 12, "velocity": 64}, {"time": 156, "pitch": 71, "duration": 12, "velocity": 64}, {"time": 168, "pitch": 69, "duration": 24, "velocity": 64}, {"time": 192, "pitch": 71, "duration": 12, "velocity": 64}, {"time": 204, "pitch": 69, "duration": 12, "velocity": 64}, {"time": 216, "pitch": 71, "duration": 12, "velocity": 64}, {"time": 228, "pitch": 72, "duration": 12, "velocity": 64}, {"time": 240, "pitch": 71, "duration": 12, "velocity": 64}, {"time": 252, "pitch": 69, "duration": 12, "velocity": 64}, {"time": 264, "pitch": 67, "duration": 12, "velocity": 64}, {"time": 276, "pitch": 72, "duration": 12, "velocity": 64}, {"time": 288, "pitch": 71, "duration": 24, "velocity": 64}, {"time": 312, "pitch": 69, "duration": 24, "velocity": 64}, {"time": 336, "pitch": 67, "duration": 48, "velocity": 64}]}]}