{"metadata": {"schema_version": "0.1", "title": "Der Herr von Braunschweig", "source_format": "abc"}, "resolution": 24, "tempos": [{"time": 0, "qpm": 120.0}], "key_signatures": [{"time": 0, "root": 2, "mode": "major", "fifths": 2}], "time_signatures": [{"time": 0, "numerator": 3, "denominator": 2}], "beats": [{"time": 0, "is_downbeat": true}, {"time": 48, "is_downbeat": true}, {"time": 96, "is_downbeat": false}, {"time": 144, "is_downbeat": false}, {"time": 192, "is_downbeat": true}, {"time": 240, "is_downbeat": false}, {"time": 288, "is_downbeat": false}, {"time": 336, "is_downbeat": true}, {"time": 384, "is_downbeat": false}, {"time": 432, "is_downbeat": false}, {"time": 480, "is_downbeat": true}, {"time": 528, "is_downbeat": false}, {"time": 576, "is_downbeat": false}, {"time": 624, "is_downbeat": true}, {"time": 672, "is_downbeat": false}, {"time": 720, "is_downbeat": false}, {"time": 768, "is_downbeat": true}, {"time": 816, "is_downbeat": false}, {"time": 864, "is_downbeat": false}, {"time": 912, "is_downbeat": true}, {"time": 960, "is_downbeat": false}, {"time": 1008, "is_downbeat": false}, {"time": 1056, "is_downbeat": true}, {"time": 1104, "is_downbeat": false}, {"time": 1152, "is_downbeat": false}], "tracks": [{"program": 0, "is_drum": false, "notes": [{"time": 0, "pitch": 62, "duration": 48, "velocity": 64}, {"time": 48, "pitch": 65, "duration": 24, "velocity": 64}, {"time": 72, "pitch": 67, "duration": 24, "velocity": 64}, {"time": 96, "pitch": 69, "duration": 48, "velocity": 64}, {"time": 144, "pitch": 62, "duration": 48, "velocity": 64}, {"time": 192, "pitch": 67, "duration": 24, "velocity": 64}, {"time": 216, "pitch": 67, "duration": 24, "velocity": 64}, {"time": 240, "pitch": 69, "duration": 48, "velocity": 64}, {"time": 288, "pitch": 74, "duration": 48, "velocity": 64}, {"time": 336, "pitch": 72, "duration": 24, "velocity": 64}, {"time": 360, "pitch": 74, "duration": 24, "velocity": 64}, {"time": 384, "pitch": 73, "duration": 48, "velocity": 64}, {"time": 432, "pitch": 71, "duration": 48, "velocity": 64}, {"time": 480, "pitch": 69, "duration": 48, "velocity": 64}, {"time": 528, "pitch": 65, "duration": 48, "velocity": 64}, {"time": 600, "pitch": 66, "duration": 24, "velocity": 64}, {"time": 624, "pitch": 65, "duration": 48, "velocity": 64}, {"time": 672, "pitch": 69, "duration": 48, "velocity": 64}, {"time": 720, "pitch": 66, "duration": 48, "velocity": 64}, {"time": 768, "pitch": 64, "duration": 24, "velocity": 64}, {"time": 792, "pitch": 64, "duration": 24, "velocity": 64}, {"time": 816, "pitch": 62, "duration": 48, "velocity": 64}, {"time": 888, "pitch": 62, "duration": 24, "velocity": 64}, {"time": 912, "pitch": 65, "duration": 24, "velocity": 64}, {"time": 936, "pitch": 67, "duration": 24, "velocity": 64}, {"time": 960, "pitch": 69, "duration": 48, "velocity": 64}, {"time": 1008, "pitch": 66, "duration": 48, "velocity": 64}, {"time": 1056, "pitch": 64, "duration": 48, "velocity": 64}, {"time": 1104, "pitch": 62, "duration": 48, "velocity": 64}]}]}