{"metadata": {"schema_version": "0.1", "title": "Es wollt ein Maedchen waschen gan", "source_format": "abc"}, "resolution": 24, "tempos": [{"time": 0, "qpm": 120.0}], "key_signatures": [{"time": 0, "root": 7, "mode": "major", "fifths": 1}], "time_signatures": [{"time": 0, "numerator": 2, "denominator": 2}], "beats": [{"time": 0, "is_downbeat": true}, {"time": 24, "is_downbeat": true}, {"time": 72, "is_downbeat": false}, {"time": 120, "is_downbeat": true}, {"time": 168, "is_downbeat": false}, {"time": 216, "is_downbeat": true}, {"time": 264, "is_downbeat": false}, {"time": 312, "is_downbeat": true}, {"time": 360, "is_downbeat": false}, {"time": 408, "is_downbeat": true}, {"time": 456, "is_downbeat": false}, {"time": 504, "is_downbeat": true}, {"time": 552, "is_downbeat": false}, {"time": 600, "is_downbeat": true}, {"time": 648, "is_downbeat": false}, {"time": 696, "is_downbeat": true}, {"time": 744, "is_downbeat": false}, {"time": 792, "is_downbeat": true}, {"time": 840, "is_downbeat": false}, {"time": 888, "is_downbeat": true}, {"time": 936, "is_downbeat": false}, {"time": 984, "is_downbeat": true}, {"time": 1032, "is_downbeat": false}, {"time": 1080, "is_downbeat": true}, {"time": 1128, "is_downbeat": false}, {"time": 1176, "is_downbeat": true}, {"time": 1224, "is_downbeat": false}, {"time": 1272, "is_downbeat": true}, {"time": 1320, "is_downbeat": false}, {"time": 1368, "is_downbeat": true}, {"time": 1416, "is_downbeat": false}, {"time": 1464, "is_downbeat": true}, {"time": 1512, "is_downbeat": false}, {"time": 1560, "is_downbeat": true}, {"time": 1608, "is_downbeat": false}, {"time": 1656, "is_downbeat": true}, {"time": 1704, "is_downbeat": false}, {"time": 1752, "is_downbeat": true}, {"time": 1800, "is_downbeat": false}, {"time": 1848, "is_downbeat": true}, {"time": 1896, "is_downbeat": false}, {"time": 1944, "is_downbeat": true}, {"time": 1992, "is_downbeat": false}, {"time": 2040, "is_downbeat": true}, {"time": 2088, "is_downbeat": false}], "tracks": [{"program": 0, "is_drum": false, "notes": [{"time": 0, "pitch": 67, "duration": 24, "velocity": 64}, {"time": 24, "pitch": 67, "duration": 48, "velocity": 64}, {"time": 72, "pitch": 67, "duration": 48, "velocity": 64}, {"time": 120, "pitch": 74, "duration": 72, "velocity": 64}, {"time": 192, "pitch": 72, "duration": 24, "velocity": 64}, {"time": 216, "pitch": 74, "duration": 48, "velocity": 64}, {"time": 264, "pitch": 70, "duration": 48, "velocity": 64}, {"time": 312, "pitch": 69, "duration": 48, "velocity": 64}, {"time": 384, "pitch": 70, "duration": 24, "velocity": 64}, {"time": 408, "pitch": 72, "duration": 48, "velocity": 64}, {"time": 456, "pitch": 72, "duration": 48, "velocity": 64}, {"time": 504, "pitch": 74, "duration": 72, "velocity": 64}, {"time": 576, "pitch": 72, "duration": 24, "velocity": 64}, {"time": 600, "pitch": 70, "duration": 48, "velocity": 64}, {"time": 648, "pitch": 69, "duration": 48, "velocity": 64}, {"time": 696, "pitch": 67, "duration": 48, "velocity": 64}, {"time": 768, "pitch": 74, "duration": 24, "velocity": 64}, {"time": 792, "pitch": 72, "duration": 48, "velocity": 64}, {"time": 840, "pitch": 69, "duration": 48, "velocity": 64}, {"time": 888, "pitch": 70, "duration": 48, "velocity": 64}, {"time": 936, "pitch": 67, "duration": 48, "velocity": 64}, {"time": 984, "pitch": 69, "duration": 96, "velocity": 64}, {"time": 1080, "pitch": 62, "duration": 48, "velocity": 64}, {"time": 1152, "pitch": 69, "duration": 24, "velocity": 64}, {"time": 1176, "pitch": 70, "duration": 48, "velocity": 64}, {"time": 1224, "pitch": 69, "duration": 48, "velocity": 64}, {"time": 1272, "pitch": 67, "duration": 48, "velocity": 64}, {"time": 1320, "pitch": 74, "duration": 48, "velocity": 64}, {"time": 1368, "pitch": 72, "duration": 48, "velocity": 64}, {"time": 1416, "pitch": 70, "duration": 48, "velocity": 64}, {"time": 1464, "pitch": 69, "duration": 12, "velocity": 64}, {"time": 1476, "pitch": 67, "duration": 12, "velocity": 64}, {"time": 1488, "pitch": 69, "duration": 12, "velocity": 64}, {"time": 1500, "pitch": 70, "duration": 12, "velocity": 64}, {"time": 1512, "pitch": 72, "duration": 24, "velocity": 64}, {"time": 1536, "pitch": 74, "duration": 24, "velocity": 64}, {"time": 1560, "pitch": 70, "duration": 24, "velocity": 64}, {"time": 1584, "pitch": 67, "duration": 24, "velocity": 64}, {"time": 1608, "pitch": 69, "duration": 48, "velocity": 64}, {"time": 1656, "pitch": 67, "duration": 48, "velocity": 64}, {"time": 1704, "pitch": 72, "duration": 48, "velocity": 64}, {"time": 1752, "pitch": 69, "duration": 24, "velocity": 64}, {"time": 1776, "pitch": 69, "duration": 24, "velocity": 64}, {"time": 1800, "pitch": 70, "duration": 24, "velocity": 64}, {"time": 1824, "pitch": 72, "duration": 24, "velocity": 64}, {"time": 1848, "pitch": 74, "duration": 12, "velocity": 64}, {"time": 1860, "pitch": 76, "duration": 12, "velocity": 64}, {"time": 1872, "pitch": 77, "duration": 12, "velocity": 64}, {"time": 1884, "pitch": 76, "duration": 12, "velocity": 64}, {"time": 1896, "pitch": 74, "duration": 24, "velocity": 64}, {"time": 1920, "pitch": 72, "duration": 36, "velocity": 64}, {"time": 1956, "pitch": 70, "duration": 12, "velocity": 64}, {"time": 1968, "pitch": 69, "duration": 12, "velocity": 64}, {"time": 1980, "pitch": 67, "duration": 12, "velocity": 64}, {"time": 1992, "pitch": 71, "duration": 24, "velocity": 64}, {"time": 2016, "pitch": 69, "duration": 24, "velocity": 64}, {"time": 2040, "pitch": 67, "duration": 72, "velocity": 64}]}]}