{"metadata": {"schema_version": "0.1", "title": "WENN MEIN PFEIFCHEN DAMPFT UND GLUEHT", "source_format": "abc"}, "resolution": 24, "tempos": [{"time": 0, "qpm": 120.0}], "key_signatures": [{"time": 0, "root": 2, "mode": "major", "fifths": 2}], "time_signatures": [{"time": 0, "numerator": 3, "denominator": 4}], "beats": [{"time": 0, "is_downbeat": true}, {"time": 24, "is_downbeat": false}, {"time": 48, "is_downbeat": false}, {"time": 72, "is_downbeat": true}, {"time": 96, "is_downbeat": false}, {"time": 120, "is_downbeat": false}, {"time": 144, "is_downbeat": true}, {"time": 168, "is_downbeat": false}, {"time": 192, "is_downbeat": false}, {"time": 216, "is_downbeat": true}, {"time": 240, "is_downbeat": false}, {"time": 264, "is_downbeat": false}, {"time": 288, "is_downbeat": true}, {"time": 312, "is_downbeat": false}, {"time": 336, "is_downbeat": false}, {"time": 360, "is_downbeat": true}, {"time": 384, "is_downbeat": false}, {"time": 408, "is_downbeat": false}, {"time": 432, "is_downbeat": true}, {"time": 456, "is_downbeat": false}, {"time": 480, "is_downbeat": false}, {"time": 504, "is_downbeat": true}, {"time": 528, "is_downbeat": false}, {"time": 552, "is_downbeat": false}, {"time": 576, "is_downbeat": true}, {"time": 600, "is_downbeat": false}, {"time": 624, "is_downbeat": false}, {"time": 648, "is_downbeat": true}, {"time": 672, "is_downbeat": false}, {"time": 696, "is_downbeat": false}, {"time": 720, "is_downbeat": true}, {"time": 744, "is_downbeat": false}, {"time": 768, "is_downbeat": false}, {"time": 792, "is_downbeat": true}, {"time": 816, "is_downbeat": false}, {"time": 840, "is_downbeat": false}, {"time": 864, "is_downbeat": true}, {"time": 888, "is_downbeat": false}, {"time": 912, "is_downbeat": false}, {"time": 936, "is_downbeat": true}, {"time": 960, "is_downbeat": false}, {"time": 984, "is_downbeat": false}, {"time": 1008, "is_downbeat": true}, {"time": 1032, "is_downbeat": false}, {"time": 1056, "is_downbeat": false}, {"time": 1080, "is_downbeat": true}, {"time": 1104, "is_downbeat": false}, {"time": 1128, "is_downbeat": false}], "tracks": [{"program": 0, "is_drum": false, "notes": [{"time": 0, "pitch": 62, "duration": 36, "velocity": 64}, {"time": 36, "pitch": 66, "duration": 12, "velocity": 64}, {"time": 48, "pitch": 66, "duration": 12, "velocity": 64}, {"time": 60, "pitch": 69, "duration": 12, "velocity": 64}, {"time": 72, "pitch": 69, "duration": 6, "velocity": 64}, {"time": 78, "pitch": 67, "duration": 6, "velocity": 64}, {"time": 84, "pitch": 66, "duration": 6, "velocity": 64}, {"time": 90, "pitch": 67, "duration": 6, "velocity": 64}, {"time": 96, "pitch": 64, "duration": 24, "velocity": 64}, {"time": 144, "pitch": 62, "duration": 36, "velocity": 64}, {"time": 180, "pitch": 66, "duration": 12, "velocity": 64}, {"time": 192, "pitch": 66, "duration": 12, "velocity": 64}, {"time": 204, "pitch": 69, "duration": 12, "velocity": 64}, {"time": 216, "pitch": 69, "duration": 24, "velocity": 64}, {"time": 240, "pitch": 64, "duration": 24, "velocity": 64}, {"time": 288, "pitch": 62, "duration": 36, "velocity": 64}, {"time": 324, "pitch": 66, "duration": 12, "velocity": 64}, {"time": 336, "pitch": 66, "duration": 12, "velocity": 64}, {"time": 348, "pitch": 69, "duration": 12, "velocity": 64}, {"time": 360, "pitch": 69, "duration": 6, "velocity": 64}, {"time": 366, "pitch": 67, "duration": 6, "velocity": 64}, {"time": 372, "pitch": 66, "duration": 6, "velocity": 64}, {"time": 378, "pitch": 67, "duration": 6, "velocity": 64}, {"time": 384, "pitch": 64, "duration": 24, "velocity": 64}, {"time": 432, "pitch": 69, "duration": 18, "velocity": 64}, {"time": 450, "pitch": 74, "duration": 6, "velocity": 64}, {"time": 456, "pitch": 71, "duration": 12, "velocity": 64}, {"time": 468, "pitch": 69, "duration": 6, "velocity": 64}, {"time": 474, "pitch": 67, "duration": 6, "velocity": 64}, {"time": 480, "pitch": 66, "duration": 6, "velocity": 64}, {"time": 486, "pitch": 64, "duration": 6, "velocity": 64}, {"time": 492, "pitch": 62, "duration": 6, "velocity": 64}, {"time": 498, "pitch": 61, "duration": 6, "velocity": 64}, {"time": 504, "pitch": 64, "duration": 24, "velocity": 64}, {"time": 528, "pitch": 62, "duration": 24, "velocity": 64}, {"time": 576, "pitch": 64, "duration": 36, "velocity": 64}, {"time": 612, "pitch": 69, "duration": 12, "velocity": 64}, {"time": 624, "pitch": 69, "duration": 12, "velocity": 64}, {"time": 636, "pitch": 64, "duration": 12, "velocity": 64}, {"time": 648, "pitch": 67, "duration": 6, "velocity": 64}, {"time": 654, "pitch": 66, "duration": 6, "velocity": 64}, {"time": 660, "pitch": 64, "duration": 6, "velocity": 64}, {"time": 666, "pitch": 66, "duration": 6, "velocity": 64}, {"time": 672, "pitch": 62, "duration": 24, "velocity": 64}, {"time": 720, "pitch": 64, "duration": 36, "velocity": 64}, {"time": 756, "pitch": 73, "duration": 12, "velocity": 64}, {"time": 768, "pitch": 73, "duration": 12, "velocity": 64}, {"time": 780, "pitch": 68, "duration": 12, "velocity": 64}, {"time": 792, "pitch": 71, "duration": 24, "velocity": 64}, {"time": 816, "pitch": 69, "duration": 24, "velocity": 64}, {"time": 864, "pitch": 62, "duration": 36, "velocity": 64}, {"time": 900, "pitch": 66, "duration": 12, "velocity": 64}, {"time": 912, "pitch": 66, "duration": 12, "velocity": 64}, {"time": 924, "pitch": 69, "duration": 12, "velocity": 64}, {"time": 936, "pitch": 69, "duration": 6, "velocity": 64}, {"time": 942, "pitch": 67, "duration": 6, "velocity": 64}, {"time": 948, "pitch": 66, "duration": 6, "velocity": 64}, {"time": 954, "pitch": 67, "duration": 6, "velocity": 64}, {"time": 960, "pitch": 64, "duration": 24, "velocity": 64}, {"time": 984, "pitch": 69, "duration": 18, "velocity": 64}, {"time": 1002, "pitch": 74, "duration": 6, "velocity": 64}, {"time": 1008, "pitch": 74, "duration": 36, "velocity": 64}, {"time": 1044, "pitch": 73, "duration": 6, "velocity": 64}, {"time": 1050, "pitch": 71, "duration": 6, "velocity": 64}, {"time": 1056, "pitch": 69, "duration": 6, "velocity": 64}, {"time": 1062, "pitch": 67, "duration": 6, "velocity": 64}, {"time": 1068, "pitch": 66, "duration": 6, "velocity": 64}, {"time": 1074, "pitch": 64, "duration": 6, "velocity": 64}, {"time": 1080, "pitch": 64, "duration": 24, "velocity": 64}, {"time": 1104, "pitch": 62, "duration": 24, "velocity": 64}]}]}