{"metadata": {"schema_version": "0.1", "title": "SCHOENE AUGEN SCHOENE STRAHLEN", "source_format": "abc"}, "resolution": 24, "tempos": [{"time": 0, "qpm": 120.0}], "key_signatures": [{"time": 0, "root": 0, "mode": "major", "fifths": 0}], "time_signatures": [{"time": 0, "numerator": 4, "denominator": 4}, {"time": 360, "numerator": 3, "denominator": 2}, {"time": 504, "numerator": 3, "denominator": 4}], "beats": [{"time": 0, "is_downbeat": true}, {"time": 48, "is_downbeat": false}, {"time": 72, "is_downbeat": true}, {"time": 120, "is_downbeat": false}, {"time": 144, "is_downbeat": true}, {"time": 192, "is_downbeat": false}, {"time": 216, "is_downbeat": true}, {"time": 264, "is_downbeat": false}, {"time": 288, "is_downbeat": true}, {"time": 336, "is_downbeat": false}, {"time": 360, "is_downbeat": true}, {"time": 384, "is_downbeat": false}, {"time": 408, "is_downbeat": false}, {"time": 432, "is_downbeat": true}, {"time": 456, "is_downbeat": false}, {"time": 480, "is_downbeat": false}, {"time": 504, "is_downbeat": true}, {"time": 528, "is_downbeat": false}, {"time": 552, "is_downbeat": false}], "tracks": [{"program": 0, "is_drum": false, "notes": [{"time": 0, "pitch": 60, "duration": 12, "velocity": 64}, {"time": 12, "pitch": 59, "duration": 12, "velocity": 64}, {"time": 24, "pitch": 60, "duration": 12, "velocity": 64}, {"time": 36, "pitch": 57, "duration": 12, "velocity": 64}, {"time": 48, "pitch": 55, "duration": 12, "velocity": 64}, {"time": 60, "pitch": 57, "duration": 12, "velocity": 64}, {"time": 72, "pitch": 55, "duration": 24, "velocity": 64}, {"time": 96, "pitch": 53, "duration": 24, "velocity": 64}, {"time": 120, "pitch": 52, "duration": 24, "velocity": 64}, {"time": 144, "pitch": 60, "duration": 12, "velocity": 64}, {"time": 156, "pitch": 59, "duration": 12, "velocity": 64}, {"time": 168, "pitch": 60, "duration": 12, "velocity": 64}, {"time": 180, "pitch": 57, "duration": 12, "velocity": 64}, {"time": 192, "pitch": 55, "duration": 12, "velocity": 64}, {"time": 204, "pitch": 57, "duration": 12, "velocity": 64}, {"time": 216, "pitch": 55, "duration": 24, "velocity": 64}, {"time": 240, "pitch": 53, "duration": 24, "velocity": 64}, {"time": 264, "pitch": 52, "duration": 24, "velocity": 64}, {"time": 288, "pitch": 60, "duration": 12, "velocity": 64}, {"time": 300, "pitch": 60, "duration": 12, "velocity": 64}, {"time": 312, "pitch": 62, "duration": 12, "velocity": 64}, {"time": 324, "pitch": 62, "duration": 12, "velocity": 64}, {"time": 336, "pitch": 64, "duration": 12, "velocity": 64}, {"time": 348, "pitch": 64, "duration": 12, "velocity": 64}, {"time": 360, "pitch": 60, "duration": 12, "velocity": 64}, {"time": 372, "pitch": 60, "duration": 12, "velocity": 64}, {"time": 384, "pitch": 62, "duration": 12, "velocity": 64}, {"time": 396, "pitch": 62, "duration": 12, "velocity": 64}, {"time": 408, "pitch": 64, "duration": 12, "velocity": 64}, {"time": 420, "pitch": 64, "duration": 12, "velocity": 64}, {"time": 432, "pitch": 60, "duration": 24, "velocity": 64}, {"time": 456, "pitch": 64, "duration": 12, "velocity": 64}, {"time": 468, "pitch": 62, "duration": 12, "velocity": 64}, {"time": 480, "pitch": 60, "duration": 12, "velocity": 64}, {"time": 492, "pitch": 59, "duration": 12, "velocity": 64}, {"time": 504, "pitch": 59, "duration": 24, "velocity": 64}, {"time": 528, "pitch": 60, "duration": 12, "velocity": 64}]}]}