{"metadata": {"schema_version": "0.1", "title": "HINAUS IN DAS LAND UND WEITER", "source_format": "abc"}, "resolution": 24, "tempos": [{"time": 0, "qpm": 120.0}], "key_signatures": [{"time": 0, "root": 10, "mode": "major", "fifths": -2}], "time_signatures": [{"time": 0, "numerator": 4, "denominator": 4}], "beats": [{"time": 0, "is_downbeat": true}, {"time": 12, "is_downbeat": true}, {"time": 36, "is_downbeat": false}, {"time": 60, "is_downbeat": false}, {"time": 84, "is_downbeat": false}, {"time": 108, "is_downbeat": true}, {"time": 132, "is_downbeat": false}, {"time": 156, "is_downbeat": false}, {"time": 180, "is_downbeat": false}, {"time": 204, "is_downbeat": true}, {"time": 228, "is_downbeat": false}, {"time": 252, "is_downbeat": false}, {"time": 276, "is_downbeat": false}, {"time": 300, "is_downbeat": true}, {"time": 324, "is_downbeat": false}, {"time": 348, "is_downbeat": false}, {"time": 372, "is_downbeat": false}, {"time": 396, "is_downbeat": true}, {"time": 420, "is_downbeat": false}, {"time": 444, "is_downbeat": false}, {"time": 468, "is_downbeat": false}, {"time": 492, "is_downbeat": true}, {"time": 516, "is_downbeat": false}, {"time": 540, "is_downbeat": false}, {"time": 564, "is_downbeat": false}, {"time": 588, "is_downbeat": true}, {"time": 612, "is_downbeat": false}, {"time": 636, "is_downbeat": false}, {"time": 660, "is_downbeat": false}, {"time": 684, "is_downbeat": true}, {"time": 708, "is_downbeat": false}, {"time": 732, "is_downbeat": false}, {"time": 756, "is_downbeat": false}, {"time": 780, "is_downbeat": true}, {"time": 804, "is_downbeat": false}, {"time": 828, "is_downbeat": false}, {"time": 852, "is_downbeat": false}, {"time": 876, "is_downbeat": true}, {"time": 900, "is_downbeat": false}, {"time": 924, "is_downbeat": false}, {"time": 948, "is_downbeat": false}, {"time": 972, "is_downbeat": true}, {"time": 996, "is_downbeat": false}, {"time": 1020, "is_downbeat": false}, {"time": 1044, "is_downbeat": false}, {"time": 1068, "is_downbeat": true}, {"time": 1092, "is_downbeat": false}, {"time": 1116, "is_downbeat": false}, {"time": 1140, "is_downbeat": false}, {"time": 1164, "is_downbeat": true}, {"time": 1188, "is_downbeat": false}, {"time": 1212, "is_downbeat": false}, {"time": 1236, "is_downbeat": false}, {"time": 1260, "is_downbeat": true}, {"time": 1284, "is_downbeat": false}, {"time": 1308, "is_downbeat": false}, {"time": 1332, "is_downbeat": false}], "tracks": [{"program": 0, "is_drum": false, "notes": [{"time": 0, "pitch": 65, "duration": 12, "velocity": 64}, {"time": 12, "pitch": 70, "duration": 24, "velocity": 64}, {"time": 36, "pitch": 70, "duration": 12, "velocity": 64}, {"time": 48, "pitch": 70, "duration": 12, "velocity": 64}, {"time": 60, "pitch": 73, "duration": 24, "velocity": 64}, {"time": 84, "pitch": 72, "duration": 12, "velocity": 64}, {"time": 96, "pitch": 70, "duration": 12, "velocity": 64}, {"time": 108, "pitch": 77, "duration": 36, "velocity": 64}, {"time": 144, "pitch": 72, "duration": 12, "velocity": 64}, {"time": 156, "pitch": 72, "duration": 24, "velocity": 64}, {"time": 192, "pitch": 72, "duration": 12, "velocity": 64}, {"time": 204, "pitch": 73, "duration": 36, "velocity": 64}, {"time": 240, "pitch": 74, "duration": 12, "velocity": 64}, {"time": 252, "pitch": 75, "duration": 36, "velocity": 64}, {"time": 288, "pitch": 75, "duration": 12, "velocity": 64}, {"time": 300, "pitch": 77, "duration": 72, "velocity": 64}, {"time": 384, "pitch": 77, "duration": 12, "velocity": 64}, {"time": 396, "pitch": 77, "duration": 36, "velocity": 64}, {"time": 432, "pitch": 70, "duration": 12, "velocity": 64}, {"time": 444, "pitch": 70, "duration": 24, "velocity": 64}, {"time": 468, "pitch": 72, "duration": 12, "velocity": 64}, {"time": 480, "pitch": 74, "duration": 12, "velocity": 64}, {"time": 492, "pitch": 75, "duration": 24, "velocity": 64}, {"time": 516, "pitch": 75, "duration": 24, "velocity": 64}, {"time": 576, "pitch": 75, "duration": 12, "velocity": 64}, {"time": 588, "pitch": 75, "duration": 24, "velocity": 64}, {"time": 612, "pitch": 65, "duration": 12, "velocity": 64}, {"time": 624, "pitch": 65, "duration": 12, "velocity": 64}, {"time": 636, "pitch": 65, "duration": 24, "velocity": 64}, {"time": 660, "pitch": 67, "duration": 12, "velocity": 64}, {"time": 672, "pitch": 69, "duration": 12, "velocity": 64}, {"time": 684, "pitch": 70, "duration": 72, "velocity": 64}, {"time": 768, "pitch": 65, "duration": 12, "velocity": 64}, {"time": 780, "pitch": 77, "duration": 24, "velocity": 64}, {"time": 804, "pitch": 70, "duration": 12, "velocity": 64}, {"time": 816, "pitch": 70, "duration": 12, "velocity": 64}, {"time": 828, "pitch": 80, "duration": 24, "velocity": 64}, {"time": 852, "pitch": 78, "duration": 12, "velocity": 64}, {"time": 864, "pitch": 77, "duration": 12, "velocity": 64}, {"time": 876, "pitch": 78, "duration": 24, "velocity": 64}, {"time": 900, "pitch": 79, "duration": 24, "velocity": 64}, {"time": 960, "pitch": 79, "duration": 12, "velocity": 64}, {"time": 972, "pitch": 77, "duration": 24, "velocity": 64}, {"time": 996, "pitch": 77, "duration": 12, "velocity": 64}, {"time": 1008, "pitch": 77, "duration": 12, "velocity": 64}, {"time": 1020, "pitch": 77, "duration": 36, "velocity": 64}, {"time": 1056, "pitch": 69, "duration": 12, "velocity": 64}, {"time": 1068, "pitch": 70, "duration": 24, "velocity": 64}, {"time": 1092, "pitch": 82, "duration": 48, "velocity": 64}, {"time": 1140, "pitch": 80, "duration": 12, "velocity": 64}, {"time": 1152, "pitch": 78, "duration": 12, "velocity": 64}, {"time": 1164, "pitch": 77, "duration": 24, "velocity": 64}, {"time": 1188, "pitch": 77, "duration": 12, "velocity": 64}, {"time": 1200, "pitch": 77, "duration": 12, "velocity": 64}, {"time": 1212, "pitch": 77, "duration": 36, "velocity": 64}, {"time": 1248, "pitch": 69, "duration": 12, "velocity": 64}, {"time": 1260, "pitch": 70, "duration": 72, "velocity": 64}]}]}