{"metadata": {"schema_version": "0.1", "title": "DU WIRST MIRS JA NIT UEBEL NEHMA", "source_format": "abc"}, "resolution": 24, "tempos": [{"time": 0, "qpm": 120.0}], "key_signatures": [{"time": 0, "root": 5, "mode": "major", "fifths": -1}], "time_signatures": [{"time": 0, "numerator": 3, "denominator": 4}], "beats": [{"time": 0, "is_downbeat": true}, {"time": 24, "is_downbeat": false}, {"time": 36, "is_downbeat": true}, {"time": 60, "is_downbeat": false}, {"time": 84, "is_downbeat": false}, {"time": 108, "is_downbeat": true}, {"time": 132, "is_downbeat": false}, {"time": 156, "is_downbeat": false}, {"time": 180, "is_downbeat": true}, {"time": 204, "is_downbeat": false}, {"time": 228, "is_downbeat": false}, {"time": 252, "is_downbeat": true}, {"time": 276, "is_downbeat": false}, {"time": 300, "is_downbeat": false}, {"time": 324, "is_downbeat": true}, {"time": 348, "is_downbeat": false}, {"time": 372, "is_downbeat": false}, {"time": 396, "is_downbeat": true}, {"time": 420, "is_downbeat": false}, {"time": 444, "is_downbeat": false}, {"time": 468, "is_downbeat": true}, {"time": 492, "is_downbeat": false}, {"time": 516, "is_downbeat": false}, {"time": 540, "is_downbeat": true}, {"time": 564, "is_downbeat": false}, {"time": 588, "is_downbeat": false}, {"time": 612, "is_downbeat": true}, {"time": 636, "is_downbeat": false}, {"time": 660, "is_downbeat": false}, {"time": 684, "is_downbeat": true}, {"time": 708, "is_downbeat": false}, {"time": 732, "is_downbeat": false}, {"time": 756, "is_downbeat": true}, {"time": 780, "is_downbeat": false}, {"time": 804, "is_downbeat": false}, {"time": 828, "is_downbeat": true}, {"time": 852, "is_downbeat": false}, {"time": 876, "is_downbeat": false}, {"time": 900, "is_downbeat": true}, {"time": 924, "is_downbeat": false}, {"time": 948, "is_downbeat": false}, {"time": 972, "is_downbeat": true}, {"time": 996, "is_downbeat": false}, {"time": 1020, "is_downbeat": false}, {"time": 1044, "is_downbeat": true}, {"time": 1068, "is_downbeat": false}, {"time": 1092, "is_downbeat": false}, {"time": 1116, "is_downbeat": true}, {"time": 1140, "is_downbeat": false}, {"time": 1164, "is_downbeat": false}], "tracks": [{"program": 0, "is_drum": false, "notes": [{"time": 0, "pitch": 65, "duration": 12, "velocity": 64}, {"time": 12, "pitch": 69, "duration": 12, "velocity": 64}, {"time": 24, "pitch": 70, "duration": 12, "velocity": 64}, {"time": 36, "pitch": 72, "duration": 36, "velocity": 64}, {"time": 72, "pitch": 77, "duration": 12, "velocity": 64}, {"time": 84, "pitch": 76, "duration": 12, "velocity": 64}, {"time": 96, "pitch": 74, "duration": 12, "velocity": 64}, {"time": 108, "pitch": 72, "duration": 12, "velocity": 64}, {"time": 120, "pitch": 65, "duration": 12, "velocity": 64}, {"time": 132, "pitch": 69, "duration": 12, "velocity": 64}, {"time": 144, "pitch": 65, "duration": 12, "velocity": 64}, {"time": 156, "pitch": 74, "duration": 18, "velocity": 64}, {"time": 174, "pitch": 72, "duration": 6, "velocity": 64}, {"time": 180, "pitch": 72, "duration": 12, "velocity": 64}, {"time": 192, "pitch": 64, "duration": 12, "velocity": 64}, {"time": 204, "pitch": 67, "duration": 12, "velocity": 64}, {"time": 216, "pitch": 64, "duration": 12, "velocity": 64}, {"time": 228, "pitch": 74, "duration": 18, "velocity": 64}, {"time": 246, "pitch": 72, "duration": 6, "velocity": 64}, {"time": 252, "pitch": 72, "duration": 12, "velocity": 64}, {"time": 264, "pitch": 65, "duration": 12, "velocity": 64}, {"time": 276, "pitch": 69, "duration": 12, "velocity": 64}, {"time": 288, "pitch": 65, "duration": 12, "velocity": 64}, {"time": 300, "pitch": 69, "duration": 18, "velocity": 64}, {"time": 318, "pitch": 70, "duration": 6, "velocity": 64}, {"time": 324, "pitch": 72, "duration": 24, "velocity": 64}, {"time": 348, "pitch": 81, "duration": 24, "velocity": 64}, {"time": 372, "pitch": 79, "duration": 18, "velocity": 64}, {"time": 390, "pitch": 77, "duration": 6, "velocity": 64}, {"time": 396, "pitch": 77, "duration": 12, "velocity": 64}, {"time": 408, "pitch": 65, "duration": 12, "velocity": 64}, {"time": 420, "pitch": 69, "duration": 12, "velocity": 64}, {"time": 432, "pitch": 65, "duration": 12, "velocity": 64}, {"time": 444, "pitch": 74, "duration": 18, "velocity": 64}, {"time": 462, "pitch": 72, "duration": 6, "velocity": 64}, {"time": 468, "pitch": 72, "duration": 12, "velocity": 64}, {"time": 480, "pitch": 64, "duration": 12, "velocity": 64}, {"time": 492, "pitch": 67, "duration": 12, "velocity": 64}, {"time": 504, "pitch": 64, "duration": 12, "velocity": 64}, {"time": 516, "pitch": 74, "duration": 18, "velocity": 64}, {"time": 534, "pitch": 72, "duration": 6, "velocity": 64}, {"time": 540, "pitch": 65, "duration": 24, "velocity": 64}, {"time": 576, "pitch": 65, "duration": 12, "velocity": 64}, {"time": 588, "pitch": 74, "duration": 18, "velocity": 64}, {"time": 606, "pitch": 72, "duration": 6, "velocity": 64}, {"time": 612, "pitch": 72, "duration": 12, "velocity": 64}, {"time": 624, "pitch": 64, "duration": 12, "velocity": 64}, {"time": 636, "pitch": 67, "duration": 12, "velocity": 64}, {"time": 648, "pitch": 64, "duration": 12, "velocity": 64}, {"time": 660, "pitch": 74, "duration": 18, "velocity": 64}, {"time": 678, "pitch": 72, "duration": 6, "velocity": 64}, {"time": 684, "pitch": 72, "duration": 12, "velocity": 64}, {"time": 696, "pitch": 65, "duration": 12, "velocity": 64}, {"time": 708, "pitch": 69, "duration": 12, "velocity": 64}, {"time": 720, "pitch": 65, "duration": 12, "velocity": 64}, {"time": 732, "pitch": 74, "duration": 18, "velocity": 64}, {"time": 750, "pitch": 72, "duration": 6, "velocity": 64}, {"time": 756, "pitch": 72, "duration": 12, "velocity": 64}, {"time": 768, "pitch": 64, "duration": 12, "velocity": 64}, {"time": 780, "pitch": 67, "duration": 12, "velocity": 64}, {"time": 792, "pitch": 64, "duration": 12, "velocity": 64}, {"time": 804, "pitch": 74, "duration": 18, "velocity": 64}, {"time": 822, "pitch": 72, "duration": 6, "velocity": 64}, {"time": 828, "pitch": 72, "duration": 12, "velocity": 64}, {"time": 840, "pitch": 77, "duration": 12, "velocity": 64}, {"time": 852, "pitch": 72, "duration": 24, "velocity": 64}, {"time": 876, "pitch": 69, "duration": 18, "velocity": 64}, {"time": 894, "pitch": 70, "duration": 6, "velocity": 64}, {"time": 900, "pitch": 72, "duration": 24, "velocity": 64}, {"time": 924, "pitch": 81, "duration": 24, "velocity": 64}, {"time": 948, "pitch": 79, "duration": 18, "velocity": 64}, {"time": 966, "pitch": 77, "duration": 6, "velocity": 64}, {"time": 972, "pitch": 77, "duration": 12, "velocity": 64}, {"time": 984, "pitch": 65, "duration": 12, "velocity": 64}, {"time": 996, "pitch": 69, "duration": 12, "velocity": 64}, {"time": 1008, "pitch": 65, "duration": 12, "velocity": 64}, {"time": 1020, "pitch": 74, "duration": 18, "velocity": 64}, {"time": 1038, "pitch": 72, "duration": 6, "velocity": 64}, {"time": 1044, "pitch": 72, "duration": 12, "velocity": 64}, {"time": 1056, "pitch": 64, "duration": 12, "velocity": 64}, {"time": 1068, "pitch": 67, "duration": 12, "velocity": 64}, {"time": 1080, "pitch": 64, "duration": 12, "velocity": 64}, {"time": 1092, "pitch": 74, "duration": 18, "velocity": 64}, {"time": 1110, "pitch": 72, "duration": 6, "velocity": 64}, {"time": 1116, "pitch": 65, "duration": 24, "velocity": 64}]}]}