{"metadata": {"schema_version": "0.1", "title": "WIE KOMMTS DASS DU SO TRAURIG BIST", "source_format": "abc"}, "resolution": 24, "tempos": [{"time": 0, "qpm": 120.0}], "key_signatures": [{"time": 0, "root": 5, "mode": "major", "fifths": -1}], "time_signatures": [{"time": 0, "numerator": 3, "denominator": 8}], "beats": [{"time": 0, "is_downbeat": true}, {"time": 6, "is_downbeat": true}, {"time": 18, "is_downbeat": false}, {"time": 30, "is_downbeat": false}, {"time": 42, "is_downbeat": true}, {"time": 54, "is_downbeat": false}, {"time": 66, "is_downbeat": false}, {"time": 78, "is_downbeat": true}, {"time": 90, "is_downbeat": false}, {"time": 102, "is_downbeat": false}, {"time": 114, "is_downbeat": true}, {"time": 126, "is_downbeat": false}, {"time": 138, "is_downbeat": false}, {"time": 150, "is_downbeat": true}, {"time": 162, "is_downbeat": false}, {"time": 174, "is_downbeat": false}, {"time": 186, "is_downbeat": true}, {"time": 198, "is_downbeat": false}, {"time": 210, "is_downbeat": false}, {"time": 222, "is_downbeat": true}, {"time": 234, "is_downbeat": false}, {"time": 246, "is_downbeat": false}, {"time": 258, "is_downbeat": true}, {"time": 270, "is_downbeat": false}, {"time": 282, "is_downbeat": false}, {"time": 294, "is_downbeat": true}, {"time": 306, "is_downbeat": false}, {"time": 318, "is_downbeat": false}, {"time": 330, "is_downbeat": true}, {"time": 342, "is_downbeat": false}, {"time": 354, "is_downbeat": false}], "tracks": [{"program": 0, "is_drum": false, "notes": [{"time": 0, "pitch": 60, "duration": 6, "velocity": 64}, {"time": 6, "pitch": 65, "duration": 18, "velocity": 64}, {"time": 24, "pitch": 67, "duration": 6, "velocity": 64}, {"time": 30, "pitch": 69, "duration": 6, "velocity": 64}, {"time": 36, "pitch": 70, "duration": 6, "velocity": 64}, {"time": 42, "pitch": 72, "duration": 6, "velocity": 64}, {"time": 48, "pitch": 72, "duration": 6, "velocity": 64}, {"time": 54, "pitch": 72, "duration": 18, "velocity": 64}, {"time": 72, "pitch": 72, "duration": 6, "velocity": 64}, {"time": 78, "pitch": 74, "duration": 18, "velocity": 64}, {"time": 96, "pitch": 77, "duration": 6, "velocity": 64}, {"time": 102, "pitch": 76, "duration": 6, "velocity": 64}, {"time": 108, "pitch": 74, "duration": 6, "velocity": 64}, {"time": 114, "pitch": 72, "duration": 24, "velocity": 64}, {"time": 144, "pitch": 72, "duration": 6, "velocity": 64}, {"time": 150, "pitch": 72, "duration": 6, "velocity": 64}, {"time": 156, "pitch": 70, "duration": 6, "velocity": 64}, {"time": 162, "pitch": 70, "duration": 18, "velocity": 64}, {"time": 180, "pitch": 70, "duration": 6, "velocity": 64}, {"time": 186, "pitch": 70, "duration": 6, "velocity": 64}, {"time": 192, "pitch": 69, "duration": 6, "velocity": 64}, {"time": 198, "pitch": 69, "duration": 18, "velocity": 64}, {"time": 216, "pitch": 72, "duration": 6, "velocity": 64}, {"time": 222, "pitch": 72, "duration": 6, "velocity": 64}, {"time": 228, "pitch": 69, "duration": 6, "velocity": 64}, {"time": 234, "pitch": 65, "duration": 12, "velocity": 64}, {"time": 246, "pitch": 67, "duration": 12, "velocity": 64}, {"time": 258, "pitch": 69, "duration": 24, "velocity": 64}, {"time": 288, "pitch": 72, "duration": 6, "velocity": 64}, {"time": 294, "pitch": 72, "duration": 6, "velocity": 64}, {"time": 300, "pitch": 69, "duration": 6, "velocity": 64}, {"time": 306, "pitch": 65, "duration": 12, "velocity": 64}, {"time": 318, "pitch": 67, "duration": 12, "velocity": 64}, {"time": 330, "pitch": 65, "duration": 24, "velocity": 64}]}]}