{"metadata": {"schema_version": "0.1", "title": "IN GLUCKGLUCK LEBE ICH", "source_format": "abc"}, "resolution": 24, "tempos": [{"time": 0, "qpm": 120.0}], "key_signatures": [{"time": 0, "root": 5, "mode": "major", "fifths": -1}], "time_signatures": [{"time": 0, "numerator": 3, "denominator": 4}], "beats": [{"time": 0, "is_downbeat": true}, {"time": 24, "is_downbeat": false}, {"time": 48, "is_downbeat": false}, {"time": 72, "is_downbeat": true}, {"time": 96, "is_downbeat": false}, {"time": 120, "is_downbeat": false}, {"time": 144, "is_downbeat": true}, {"time": 168, "is_downbeat": false}, {"time": 192, "is_downbeat": false}, {"time": 216, "is_downbeat": true}, {"time": 240, "is_downbeat": false}, {"time": 264, "is_downbeat": false}, {"time": 288, "is_downbeat": true}, {"time": 312, "is_downbeat": false}, {"time": 336, "is_downbeat": false}], "tracks": [{"program": 0, "is_drum": false, "notes": [{"time": 0, "pitch": 60, "duration": 24, "velocity": 64}, {"time": 24, "pitch": 57, "duration": 24, "velocity": 64}, {"time": 48, "pitch": 65, "duration": 24, "velocity": 64}, {"time": 72, "pitch": 62, "duration": 12, "velocity": 64}, {"time": 84, "pitch": 62, "duration": 12, "velocity": 64}, {"time": 96, "pitch": 62, "duration": 12, "velocity": 64}, {"time": 108, "pitch": 62, "duration": 12, "velocity": 64}, {"time": 120, "pitch": 65, "duration": 12, "velocity": 64}, {"time": 132, "pitch": 62, "duration": 12, "velocity": 64}, {"time": 144, "pitch": 60, "duration": 24, "velocity": 64}, {"time": 168, "pitch": 57, "duration": 12, "velocity": 64}, {"time": 180, "pitch": 60, "duration": 12, "velocity": 64}, {"time": 192, "pitch": 55, "duration": 12, "velocity": 64}, {"time": 204, "pitch": 57, "duration": 12, "velocity": 64}, {"time": 216, "pitch": 58, "duration": 12, "velocity": 64}, {"time": 228, "pitch": 58, "duration": 12, "velocity": 64}, {"time": 240, "pitch": 58, "duration": 12, "velocity": 64}, {"time": 252, "pitch": 58, "duration": 12, "velocity": 64}, {"time": 264, "pitch": 55, "duration": 12, "velocity": 64}, {"time": 276, "pitch": 58, "duration": 12, "velocity": 64}, {"time": 288, "pitch": 58, "duration": 24, "velocity": 64}, {"time": 312, "pitch": 57, "duration": 24, "velocity": 64}]}]}