{"metadata": {"schema_version": "0.1", "title": "DER PAPST LEBT HERRLICH IN DER WELT", "source_format": "abc"}, "resolution": 24, "tempos": [{"time": 0, "qpm": 120.0}], "key_signatures": [{"time": 0, "root": 0, "mode": "major", "fifths": 0}], "time_signatures": [{"time": 0, "numerator": 4, "denominator": 4}], "beats": [{"time": 0, "is_downbeat": true}, {"time": 12, "is_downbeat": true}, {"time": 36, "is_downbeat": false}, {"time": 60, "is_downbeat": false}, {"time": 84, "is_downbeat": false}, {"time": 108, "is_downbeat": true}, {"time": 132, "is_downbeat": false}, {"time": 156, "is_downbeat": false}, {"time": 180, "is_downbeat": false}, {"time": 204, "is_downbeat": true}, {"time": 228, "is_downbeat": false}, {"time": 252, "is_downbeat": false}, {"time": 276, "is_downbeat": false}, {"time": 300, "is_downbeat": true}, {"time": 324, "is_downbeat": false}, {"time": 348, "is_downbeat": false}, {"time": 372, "is_downbeat": false}, {"time": 396, "is_downbeat": true}, {"time": 420, "is_downbeat": false}, {"time": 444, "is_downbeat": false}, {"time": 468, "is_downbeat": false}, {"time": 492, "is_downbeat": true}, {"time": 516, "is_downbeat": false}, {"time": 540, "is_downbeat": false}, {"time": 564, "is_downbeat": false}, {"time": 588, "is_downbeat": true}, {"time": 612, "is_downbeat": false}, {"time": 636, "is_downbeat": false}, {"time": 660, "is_downbeat": false}, {"time": 684, "is_downbeat": true}, {"time": 708, "is_downbeat": false}, {"time": 732, "is_downbeat": false}, {"time": 756, "is_downbeat": false}, {"time": 780, "is_downbeat": true}, {"time": 804, "is_downbeat": false}, {"time": 828, "is_downbeat": false}, {"time": 852, "is_downbeat": false}, {"time": 876, "is_downbeat": true}, {"time": 900, "is_downbeat": false}, {"time": 924, "is_downbeat": false}, {"time": 948, "is_downbeat": false}, {"time": 972, "is_downbeat": true}, {"time": 996, "is_downbeat": false}, {"time": 1020, "is_downbeat": false}, {"time": 1044, "is_downbeat": false}, {"time": 1068, "is_downbeat": true}, {"time": 1092, "is_downbeat": false}, {"time": 1116, "is_downbeat": false}, {"time": 1140, "is_downbeat": false}], "tracks": [{"program": 0, "is_drum": false, "notes": [{"time": 0, "pitch": 55, "duration": 12, "velocity": 64}, {"time": 12, "pitch": 60, "duration": 36, "velocity": 64}, {"time": 48, "pitch": 48, "duration": 12, "velocity": 64}, {"time": 60, "pitch": 48, "duration": 12, "velocity": 64}, {"time": 72, "pitch": 48, "duration": 12, "velocity": 64}, {"time": 84, "pitch": 52, "duration": 12, "velocity": 64}, {"time": 96, "pitch": 48, "duration": 12, "velocity": 64}, {"time": 108, "pitch": 55, "duration": 48, "velocity": 64}, {"time": 192, "pitch": 55, "duration": 12, "velocity": 64}, {"time": 204, "pitch": 62, "duration": 36, "velocity": 64}, {"time": 240, "pitch": 60, "duration": 12, "velocity": 64}, {"time": 252, "pitch": 59, "duration": 12, "velocity": 64}, {"time": 264, "pitch": 57, "duration": 12, "velocity": 64}, {"time": 276, "pitch": 55, "duration": 12, "velocity": 64}, {"time": 288, "pitch": 53, "duration": 12, "velocity": 64}, {"time": 300, "pitch": 52, "duration": 48, "velocity": 64}, {"time": 360, "pitch": 55, "duration": 12, "velocity": 64}, {"time": 372, "pitch": 57, "duration": 12, "velocity": 64}, {"time": 384, "pitch": 59, "duration": 12, "velocity": 64}, {"time": 396, "pitch": 60, "duration": 24, "velocity": 64}, {"time": 420, "pitch": 55, "duration": 24, "velocity": 64}, {"time": 444, "pitch": 62, "duration": 24, "velocity": 64}, {"time": 468, "pitch": 55, "duration": 24, "velocity": 64}, {"time": 492, "pitch": 64, "duration": 48, "velocity": 64}, {"time": 552, "pitch": 62, "duration": 12, "velocity": 64}, {"time": 564, "pitch": 60, "duration": 12, "velocity": 64}, {"time": 576, "pitch": 59, "duration": 12, "velocity": 64}, {"time": 588, "pitch": 57, "duration": 24, "velocity": 64}, {"time": 612, "pitch": 62, "duration": 24, "velocity": 64}, {"time": 636, "pitch": 60, "duration": 24, "velocity": 64}, {"time": 660, "pitch": 59, "duration": 24, "velocity": 64}, {"time": 684, "pitch": 60, "duration": 48, "velocity": 64}, {"time": 744, "pitch": 55, "duration": 12, "velocity": 64}, {"time": 756, "pitch": 57, "duration": 12, "velocity": 64}, {"time": 768, "pitch": 59, "duration": 12, "velocity": 64}, {"time": 780, "pitch": 60, "duration": 24, "velocity": 64}, {"time": 804, "pitch": 55, "duration": 24, "velocity": 64}, {"time": 828, "pitch": 62, "duration": 24, "velocity": 64}, {"time": 852, "pitch": 55, "duration": 24, "velocity": 64}, {"time": 876, "pitch": 64, "duration": 48, "velocity": 64}, {"time": 936, "pitch": 62, "duration": 12, "velocity": 64}, {"time": 948, "pitch": 60, "duration": 12, "velocity": 64}, {"time": 960, "pitch": 59, "duration": 12, "velocity": 64}, {"time": 972, "pitch": 57, "duration": 24, "velocity": 64}, {"time": 996, "pitch": 62, "duration": 24, "velocity": 64}, {"time": 1020, "pitch": 60, "duration": 24, "velocity": 64}, {"time": 1044, "pitch": 59, "duration": 24, "velocity": 64}, {"time": 1068, "pitch": 60, "duration": 48, "velocity": 64}]}]}