{"metadata": {"schema_version": "0.1", "title": "SCHOENER FRUEHLING KOMM DOCH WIEDER", "source_format": "abc"}, "resolution": 24, "tempos": [{"time": 0, "qpm": 120.0}], "key_signatures": [{"time": 0, "root": 0, "mode": "major", "fifths": 0}], "time_signatures": [{"time": 0, "numerator": 3, "denominator": 4}], "beats": [{"time": 0, "is_downbeat": true}, {"time": 24, "is_downbeat": true}, {"time": 48, "is_downbeat": false}, {"time": 72, "is_downbeat": false}, {"time": 96, "is_downbeat": true}, {"time": 120, "is_downbeat": false}, {"time": 144, "is_downbeat": false}, {"time": 168, "is_downbeat": true}, {"time": 192, "is_downbeat": false}, {"time": 216, "is_downbeat": false}, {"time": 240, "is_downbeat": true}, {"time": 264, "is_downbeat": false}, {"time": 288, "is_downbeat": false}, {"time": 312, "is_downbeat": true}, {"time": 336, "is_downbeat": false}, {"time": 360, "is_downbeat": false}, {"time": 384, "is_downbeat": true}, {"time": 408, "is_downbeat": false}, {"time": 432, "is_downbeat": false}, {"time": 456, "is_downbeat": true}, {"time": 480, "is_downbeat": false}, {"time": 504, "is_downbeat": false}, {"time": 528, "is_downbeat": true}, {"time": 552, "is_downbeat": false}, {"time": 576, "is_downbeat": false}, {"time": 600, "is_downbeat": true}, {"time": 624, "is_downbeat": false}, {"time": 648, "is_downbeat": false}, {"time": 672, "is_downbeat": true}, {"time": 696, "is_downbeat": false}, {"time": 720, "is_downbeat": false}, {"time": 744, "is_downbeat": true}, {"time": 768, "is_downbeat": false}, {"time": 792, "is_downbeat": false}, {"time": 816, "is_downbeat": true}, {"time": 840, "is_downbeat": false}, {"time": 864, "is_downbeat": false}, {"time": 888, "is_downbeat": true}, {"time": 912, "is_downbeat": false}, {"time": 936, "is_downbeat": false}, {"time": 960, "is_downbeat": true}, {"time": 984, "is_downbeat": false}, {"time": 1008, "is_downbeat": false}, {"time": 1032, "is_downbeat": true}, {"time": 1056, "is_downbeat": false}, {"time": 1080, "is_downbeat": false}, {"time": 1104, "is_downbeat": true}, {"time": 1128, "is_downbeat": false}, {"time": 1152, "is_downbeat": false}], "tracks": [{"program": 0, "is_drum": false, "notes": [{"time": 0, "pitch": 55, "duration": 18, "velocity": 64}, {"time": 18, "pitch": 53, "duration": 6, "velocity": 64}, {"time": 24, "pitch": 52, "duration": 24, "velocity": 64}, {"time": 48, "pitch": 48, "duration": 24, "velocity": 64}, {"time": 72, "pitch": 60, "duration": 18, "velocity": 64}, {"time": 90, "pitch": 57, "duration": 6, "velocity": 64}, {"time": 96, "pitch": 55, "duration": 24, "velocity": 64}, {"time": 120, "pitch": 52, "duration": 24, "velocity": 64}, {"time": 144, "pitch": 57, "duration": 18, "velocity": 64}, {"time": 162, "pitch": 55, "duration": 6, "velocity": 64}, {"time": 168, "pitch": 53, "duration": 24, "velocity": 64}, {"time": 192, "pitch": 50, "duration": 24, "velocity": 64}, {"time": 216, "pitch": 55, "duration": 18, "velocity": 64}, {"time": 234, "pitch": 53, "duration": 6, "velocity": 64}, {"time": 240, "pitch": 52, "duration": 24, "velocity": 64}, {"time": 288, "pitch": 64, "duration": 18, "velocity": 64}, {"time": 306, "pitch": 62, "duration": 6, "velocity": 64}, {"time": 312, "pitch": 60, "duration": 24, "velocity": 64}, {"time": 336, "pitch": 55, "duration": 24, "velocity": 64}, {"time": 360, "pitch": 60, "duration": 18, "velocity": 64}, {"time": 378, "pitch": 57, "duration": 6, "velocity": 64}, {"time": 384, "pitch": 55, "duration": 24, "velocity": 64}, {"time": 408, "pitch": 52, "duration": 24, "velocity": 64}, {"time": 432, "pitch": 57, "duration": 18, "velocity": 64}, {"time": 450, "pitch": 55, "duration": 6, "velocity": 64}, {"time": 456, "pitch": 53, "duration": 24, "velocity": 64}, {"time": 480, "pitch": 50, "duration": 24, "velocity": 64}, {"time": 504, "pitch": 55, "duration": 12, "velocity": 64}, {"time": 516, "pitch": 53, "duration": 12, "velocity": 64}, {"time": 528, "pitch": 52, "duration": 24, "velocity": 64}, {"time": 600, "pitch": 55, "duration": 36, "velocity": 64}, {"time": 636, "pitch": 65, "duration": 12, "velocity": 64}, {"time": 648, "pitch": 64, "duration": 18, "velocity": 64}, {"time": 666, "pitch": 62, "duration": 6, "velocity": 64}, {"time": 672, "pitch": 60, "duration": 18, "velocity": 64}, {"time": 690, "pitch": 52, "duration": 6, "velocity": 64}, {"time": 696, "pitch": 55, "duration": 24, "velocity": 64}, {"time": 744, "pitch": 55, "duration": 18, "velocity": 64}, {"time": 762, "pitch": 59, "duration": 6, "velocity": 64}, {"time": 768, "pitch": 62, "duration": 24, "velocity": 64}, {"time": 792, "pitch": 62, "duration": 24, "velocity": 64}, {"time": 816, "pitch": 60, "duration": 18, "velocity": 64}, {"time": 834, "pitch": 62, "duration": 6, "velocity": 64}, {"time": 840, "pitch": 64, "duration": 24, "velocity": 64}, {"time": 864, "pitch": 64, "duration": 24, "velocity": 64}, {"time": 888, "pitch": 55, "duration": 36, "velocity": 64}, {"time": 924, "pitch": 65, "duration": 12, "velocity": 64}, {"time": 936, "pitch": 64, "duration": 18, "velocity": 64}, {"time": 954, "pitch": 62, "duration": 6, "velocity": 64}, {"time": 960, "pitch": 60, "duration": 18, "velocity": 64}, {"time": 978, "pitch": 52, "duration": 6, "velocity": 64}, {"time": 984, "pitch": 55, "duration": 24, "velocity": 64}, {"time": 1032, "pitch": 55, "duration": 18, "velocity": 64}, {"time": 1050, "pitch": 57, "duration": 6, "velocity": 64}, {"time": 1056, "pitch": 62, "duration": 24, "velocity": 64}, {"time": 1080, "pitch": 59, "duration": 24, "velocity": 64}, {"time": 1104, "pitch": 60, "duration": 24, "velocity": 64}]}]}