{"metadata": {"schema_version": "0.1", "title": "WIR KINDER WIR SCHMECKEN DER FREUDEN RECHT VIEL", "source_format": "abc"}, "resolution": 24, "tempos": [{"time": 0, "qpm": 120.0}], "key_signatures": [{"time": 0, "root": 9, "mode": "major", "fifths": 3}], "time_signatures": [{"time": 0, "numerator": 3, "denominator": 8}], "beats": [{"time": 0, "is_downbeat": true}, {"time": 6, "is_downbeat": true}, {"time": 18, "is_downbeat": false}, {"time": 30, "is_downbeat": false}, {"time": 42, "is_downbeat": true}, {"time": 54, "is_downbeat": false}, {"time": 66, "is_downbeat": false}, {"time": 78, "is_downbeat": true}, {"time": 90, "is_downbeat": false}, {"time": 102, "is_downbeat": false}, {"time": 114, "is_downbeat": true}, {"time": 126, "is_downbeat": false}, {"time": 138, "is_downbeat": false}, {"time": 150, "is_downbeat": true}, {"time": 162, "is_downbeat": false}, {"time": 174, "is_downbeat": false}, {"time": 186, "is_downbeat": true}, {"time": 198, "is_downbeat": false}, {"time": 210, "is_downbeat": false}, {"time": 222, "is_downbeat": true}, {"time": 234, "is_downbeat": false}, {"time": 246, "is_downbeat": false}, {"time": 258, "is_downbeat": true}, {"time": 270, "is_downbeat": false}, {"time": 282, "is_downbeat": false}, {"time": 294, "is_downbeat": true}, {"time": 306, "is_downbeat": false}, {"time": 318, "is_downbeat": false}, {"time": 330, "is_downbeat": true}, {"time": 342, "is_downbeat": false}, {"time": 354, "is_downbeat": false}, {"time": 366, "is_downbeat": true}, {"time": 378, "is_downbeat": false}, {"time": 390, "is_downbeat": false}, {"time": 402, "is_downbeat": true}, {"time": 414, "is_downbeat": false}, {"time": 426, "is_downbeat": false}, {"time": 438, "is_downbeat": true}, {"time": 450, "is_downbeat": false}, {"time": 462, "is_downbeat": false}, {"time": 474, "is_downbeat": true}, {"time": 486, "is_downbeat": false}, {"time": 498, "is_downbeat": false}, {"time": 510, "is_downbeat": true}, {"time": 522, "is_downbeat": false}, {"time": 534, "is_downbeat": false}, {"time": 546, "is_downbeat": true}, {"time": 558, "is_downbeat": false}, {"time": 570, "is_downbeat": false}], "tracks": [{"program": 0, "is_drum": false, "notes": [{"time": 0, "pitch": 69, "duration": 6, "velocity": 64}, {"time": 6, "pitch": 69, "duration": 12, "velocity": 64}, {"time": 18, "pitch": 73, "duration": 12, "velocity": 64}, {"time": 36, "pitch": 76, "duration": 6, "velocity": 64}, {"time": 42, "pitch": 68, "duration": 12, "velocity": 64}, {"time": 54, "pitch": 68, "duration": 6, "velocity": 64}, {"time": 60, "pitch": 69, "duration": 6, "velocity": 64}, {"time": 66, "pitch": 71, "duration": 6, "velocity": 64}, {"time": 72, "pitch": 73, "duration": 6, "velocity": 64}, {"time": 78, "pitch": 74, "duration": 12, "velocity": 64}, {"time": 90, "pitch": 74, "duration": 6, "velocity": 64}, {"time": 96, "pitch": 73, "duration": 6, "velocity": 64}, {"time": 102, "pitch": 74, "duration": 6, "velocity": 64}, {"time": 108, "pitch": 76, "duration": 6, "velocity": 64}, {"time": 114, "pitch": 73, "duration": 12, "velocity": 64}, {"time": 144, "pitch": 69, "duration": 6, "velocity": 64}, {"time": 150, "pitch": 76, "duration": 12, "velocity": 64}, {"time": 162, "pitch": 73, "duration": 12, "velocity": 64}, {"time": 180, "pitch": 69, "duration": 6, "velocity": 64}, {"time": 186, "pitch": 66, "duration": 12, "velocity": 64}, {"time": 198, "pitch": 74, "duration": 12, "velocity": 64}, {"time": 216, "pitch": 71, "duration": 6, "velocity": 64}, {"time": 222, "pitch": 68, "duration": 12, "velocity": 64}, {"time": 234, "pitch": 68, "duration": 6, "velocity": 64}, {"time": 240, "pitch": 69, "duration": 6, "velocity": 64}, {"time": 246, "pitch": 71, "duration": 6, "velocity": 64}, {"time": 252, "pitch": 73, "duration": 6, "velocity": 64}, {"time": 258, "pitch": 69, "duration": 12, "velocity": 64}, {"time": 282, "pitch": 73, "duration": 6, "velocity": 64}, {"time": 288, "pitch": 71, "duration": 6, "velocity": 64}, {"time": 294, "pitch": 71, "duration": 12, "velocity": 64}, {"time": 306, "pitch": 76, "duration": 6, "velocity": 64}, {"time": 312, "pitch": 75, "duration": 6, "velocity": 64}, {"time": 318, "pitch": 76, "duration": 6, "velocity": 64}, {"time": 324, "pitch": 73, "duration": 6, "velocity": 64}, {"time": 330, "pitch": 71, "duration": 12, "velocity": 64}, {"time": 342, "pitch": 76, "duration": 6, "velocity": 64}, {"time": 348, "pitch": 75, "duration": 6, "velocity": 64}, {"time": 354, "pitch": 76, "duration": 6, "velocity": 64}, {"time": 360, "pitch": 73, "duration": 6, "velocity": 64}, {"time": 366, "pitch": 71, "duration": 6, "velocity": 64}, {"time": 372, "pitch": 73, "duration": 6, "velocity": 64}, {"time": 378, "pitch": 71, "duration": 6, "velocity": 64}, {"time": 384, "pitch": 68, "duration": 6, "velocity": 64}, {"time": 390, "pitch": 69, "duration": 6, "velocity": 64}, {"time": 396, "pitch": 66, "duration": 6, "velocity": 64}, {"time": 402, "pitch": 64, "duration": 12, "velocity": 64}, {"time": 426, "pitch": 71, "duration": 6, "velocity": 64}, {"time": 432, "pitch": 73, "duration": 6, "velocity": 64}, {"time": 438, "pitch": 74, "duration": 12, "velocity": 64}, {"time": 450, "pitch": 74, "duration": 6, "velocity": 64}, {"time": 456, "pitch": 73, "duration": 6, "velocity": 64}, {"time": 462, "pitch": 74, "duration": 6, "velocity": 64}, {"time": 468, "pitch": 73, "duration": 6, "velocity": 64}, {"time": 474, "pitch": 71, "duration": 12, "velocity": 64}, {"time": 486, "pitch": 71, "duration": 6, "velocity": 64}, {"time": 492, "pitch": 69, "duration": 6, "velocity": 64}, {"time": 498, "pitch": 71, "duration": 6, "velocity": 64}, {"time": 504, "pitch": 69, "duration": 6, "velocity": 64}, {"time": 510, "pitch": 68, "duration": 12, "velocity": 64}, {"time": 522, "pitch": 68, "duration": 6, "velocity": 64}, {"time": 528, "pitch": 69, "duration": 6, "velocity": 64}, {"time": 534, "pitch": 71, "duration": 6, "velocity": 64}, {"time": 540, "pitch": 73, "duration": 6, "velocity": 64}, {"time": 546, "pitch": 69, "duration": 12, "velocity": 64}]}]}