{"metadata": {"schema_version": "0.1", "title": "HOPP HOPP HOPP ICH BIN EIN REITERSMANN", "source_format": "abc"}, "resolution": 24, "tempos": [{"time": 0, "qpm": 120.0}], "key_signatures": [{"time": 0, "root": 2, "mode": "major", "fifths": 2}], "time_signatures": [{"time": 0, "numerator": 4, "denominator": 4}], "beats": [{"time": 0, "is_downbeat": true}, {"time": 24, "is_downbeat": false}, {"time": 36, "is_downbeat": true}, {"time": 60, "is_downbeat": false}, {"time": 84, "is_downbeat": false}, {"time": 108, "is_downbeat": false}, {"time": 132, "is_downbeat": true}, {"time": 156, "is_downbeat": false}, {"time": 180, "is_downbeat": false}, {"time": 204, "is_downbeat": false}, {"time": 228, "is_downbeat": true}, {"time": 252, "is_downbeat": false}, {"time": 276, "is_downbeat": false}, {"time": 300, "is_downbeat": false}, {"time": 324, "is_downbeat": true}, {"time": 348, "is_downbeat": false}, {"time": 372, "is_downbeat": false}, {"time": 396, "is_downbeat": false}, {"time": 420, "is_downbeat": true}, {"time": 444, "is_downbeat": false}, {"time": 468, "is_downbeat": false}, {"time": 492, "is_downbeat": false}, {"time": 516, "is_downbeat": true}, {"time": 540, "is_downbeat": false}, {"time": 564, "is_downbeat": false}, {"time": 588, "is_downbeat": false}, {"time": 612, "is_downbeat": true}, {"time": 636, "is_downbeat": false}, {"time": 660, "is_downbeat": false}, {"time": 684, "is_downbeat": false}, {"time": 708, "is_downbeat": true}, {"time": 732, "is_downbeat": false}, {"time": 756, "is_downbeat": false}, {"time": 780, "is_downbeat": false}, {"time": 804, "is_downbeat": true}, {"time": 828, "is_downbeat": false}, {"time": 852, "is_downbeat": false}, {"time": 876, "is_downbeat": false}, {"time": 900, "is_downbeat": true}, {"time": 924, "is_downbeat": false}, {"time": 948, "is_downbeat": false}, {"time": 972, "is_downbeat": false}], "tracks": [{"program": 0, "is_drum": false, "notes": [{"time": 0, "pitch": 57, "duration": 12, "velocity": 64}, {"time": 12, "pitch": 57, "duration": 12, "velocity": 64}, {"time": 24, "pitch": 57, "duration": 12, "velocity": 64}, {"time": 36, "pitch": 62, "duration": 36, "velocity": 64}, {"time": 72, "pitch": 54, "duration": 12, "velocity": 64}, {"time": 84, "pitch": 57, "duration": 36, "velocity": 64}, {"time": 120, "pitch": 55, "duration": 12, "velocity": 64}, {"time": 132, "pitch": 55, "duration": 24, "velocity": 64}, {"time": 156, "pitch": 54, "duration": 24, "velocity": 64}, {"time": 204, "pitch": 54, "duration": 12, "velocity": 64}, {"time": 216, "pitch": 54, "duration": 12, "velocity": 64}, {"time": 228, "pitch": 57, "duration": 24, "velocity": 64}, {"time": 252, "pitch": 57, "duration": 24, "velocity": 64}, {"time": 276, "pitch": 55, "duration": 24, "velocity": 64}, {"time": 300, "pitch": 55, "duration": 24, "velocity": 64}, {"time": 324, "pitch": 52, "duration": 24, "velocity": 64}, {"time": 348, "pitch": 52, "duration": 24, "velocity": 64}, {"time": 372, "pitch": 55, "duration": 24, "velocity": 64}, {"time": 396, "pitch": 55, "duration": 24, "velocity": 64}, {"time": 420, "pitch": 59, "duration": 24, "velocity": 64}, {"time": 444, "pitch": 59, "duration": 24, "velocity": 64}, {"time": 468, "pitch": 57, "duration": 24, "velocity": 64}, {"time": 492, "pitch": 57, "duration": 24, "velocity": 64}, {"time": 516, "pitch": 54, "duration": 24, "velocity": 64}, {"time": 540, "pitch": 54, "duration": 24, "velocity": 64}, {"time": 564, "pitch": 57, "duration": 24, "velocity": 64}, {"time": 588, "pitch": 57, "duration": 24, "velocity": 64}, {"time": 612, "pitch": 62, "duration": 24, "velocity": 64}, {"time": 636, "pitch": 62, "duration": 24, "velocity": 64}, {"time": 660, "pitch": 59, "duration": 24, "velocity": 64}, {"time": 684, "pitch": 59, "duration": 24, "velocity": 64}, {"time": 708, "pitch": 64, "duration": 48, "velocity": 64}, {"time": 756, "pitch": 61, "duration": 24, "velocity": 64}, {"time": 780, "pitch": 57, "duration": 24, "velocity": 64}, {"time": 804, "pitch": 57, "duration": 24, "velocity": 64}, {"time": 828, "pitch": 57, "duration": 24, "velocity": 64}, {"time": 852, "pitch": 59, "duration": 24, "velocity": 64}, {"time": 876, "pitch": 61, "duration": 24, "velocity": 64}, {"time": 900, "pitch": 62, "duration": 24, "velocity": 64}]}]}