{"metadata": {"schema_version": "0.1", "title": "WOHL IST DER HERBST EIN EHRENMANN", "source_format": "abc"}, "resolution": 24, "tempos": [{"time": 0, "qpm": 120.0}], "key_signatures": [{"time": 0, "root": 0, "mode": "major", "fifths": 0}], "time_signatures": [{"time": 0, "numerator": 2, "denominator": 4}], "beats": [{"time": 0, "is_downbeat": true}, {"time": 6, "is_downbeat": true}, {"time": 30, "is_downbeat": false}, {"time": 54, "is_downbeat": true}, {"time": 78, "is_downbeat": false}, {"time": 102, "is_downbeat": true}, {"time": 126, "is_downbeat": false}, {"time": 150, "is_downbeat": true}, {"time": 174, "is_downbeat": false}, {"time": 198, "is_downbeat": true}, {"time": 222, "is_downbeat": false}, {"time": 246, "is_downbeat": true}, {"time": 270, "is_downbeat": false}, {"time": 294, "is_downbeat": true}, {"time": 318, "is_downbeat": false}, {"time": 342, "is_downbeat": true}, {"time": 366, "is_downbeat": false}, {"time": 390, "is_downbeat": true}, {"time": 414, "is_downbeat": false}, {"time": 438, "is_downbeat": true}, {"time": 462, "is_downbeat": false}], "tracks": [{"program": 0, "is_drum": false, "notes": [{"time": 0, "pitch": 60, "duration": 6, "velocity": 64}, {"time": 6, "pitch": 55, "duration": 18, "velocity": 64}, {"time": 24, "pitch": 52, "duration": 6, "velocity": 64}, {"time": 30, "pitch": 55, "duration": 18, "velocity": 64}, {"time": 48, "pitch": 52, "duration": 6, "velocity": 64}, {"time": 54, "pitch": 53, "duration": 12, "velocity": 64}, {"time": 66, "pitch": 50, "duration": 12, "velocity": 64}, {"time": 78, "pitch": 52, "duration": 12, "velocity": 64}, {"time": 96, "pitch": 54, "duration": 6, "velocity": 64}, {"time": 102, "pitch": 55, "duration": 6, "velocity": 64}, {"time": 108, "pitch": 57, "duration": 6, "velocity": 64}, {"time": 114, "pitch": 59, "duration": 6, "velocity": 64}, {"time": 120, "pitch": 60, "duration": 6, "velocity": 64}, {"time": 126, "pitch": 62, "duration": 12, "velocity": 64}, {"time": 138, "pitch": 59, "duration": 6, "velocity": 64}, {"time": 144, "pitch": 55, "duration": 6, "velocity": 64}, {"time": 150, "pitch": 57, "duration": 18, "velocity": 64}, {"time": 168, "pitch": 59, "duration": 6, "velocity": 64}, {"time": 174, "pitch": 55, "duration": 12, "velocity": 64}, {"time": 192, "pitch": 62, "duration": 6, "velocity": 64}, {"time": 198, "pitch": 62, "duration": 18, "velocity": 64}, {"time": 216, "pitch": 59, "duration": 6, "velocity": 64}, {"time": 222, "pitch": 62, "duration": 18, "velocity": 64}, {"time": 240, "pitch": 59, "duration": 6, "velocity": 64}, {"time": 246, "pitch": 60, "duration": 12, "velocity": 64}, {"time": 258, "pitch": 57, "duration": 12, "velocity": 64}, {"time": 270, "pitch": 59, "duration": 12, "velocity": 64}, {"time": 288, "pitch": 62, "duration": 6, "velocity": 64}, {"time": 294, "pitch": 62, "duration": 18, "velocity": 64}, {"time": 312, "pitch": 59, "duration": 6, "velocity": 64}, {"time": 318, "pitch": 62, "duration": 6, "velocity": 64}, {"time": 324, "pitch": 67, "duration": 6, "velocity": 64}, {"time": 330, "pitch": 62, "duration": 6, "velocity": 64}, {"time": 336, "pitch": 59, "duration": 6, "velocity": 64}, {"time": 342, "pitch": 60, "duration": 12, "velocity": 64}, {"time": 354, "pitch": 57, "duration": 12, "velocity": 64}, {"time": 366, "pitch": 59, "duration": 12, "velocity": 64}, {"time": 384, "pitch": 55, "duration": 6, "velocity": 64}, {"time": 390, "pitch": 60, "duration": 6, "velocity": 64}, {"time": 396, "pitch": 62, "duration": 6, "velocity": 64}, {"time": 402, "pitch": 64, "duration": 6, "velocity": 64}, {"time": 408, "pitch": 65, "duration": 6, "velocity": 64}, {"time": 414, "pitch": 67, "duration": 12, "velocity": 64}, {"time": 426, "pitch": 64, "duration": 6, "velocity": 64}, {"time": 432, "pitch": 60, "duration": 6, "velocity": 64}, {"time": 438, "pitch": 62, "duration": 18, "velocity": 64}, {"time": 456, "pitch": 64, "duration": 6, "velocity": 64}, {"time": 462, "pitch": 60, "duration": 12, "velocity": 64}]}]}