{"metadata": {"schema_version": "0.1", "title": "BALD PRANGT DEN MORGEN ZU VERKUENDEN", "source_format": "abc"}, "resolution": 24, "tempos": [{"time": 0, "qpm": 120.0}], "key_signatures": [{"time": 0, "root": 3, "mode": "major", "fifths": -3}], "time_signatures": [{"time": 0, "numerator": 4, "denominator": 4}], "beats": [{"time": 0, "is_downbeat": true}, {"time": 24, "is_downbeat": true}, {"time": 48, "is_downbeat": false}, {"time": 72, "is_downbeat": false}, {"time": 96, "is_downbeat": false}, {"time": 120, "is_downbeat": true}, {"time": 144, "is_downbeat": false}, {"time": 168, "is_downbeat": false}, {"time": 192, "is_downbeat": false}, {"time": 216, "is_downbeat": true}, {"time": 240, "is_downbeat": false}, {"time": 264, "is_downbeat": false}, {"time": 288, "is_downbeat": false}, {"time": 312, "is_downbeat": true}, {"time": 336, "is_downbeat": false}, {"time": 360, "is_downbeat": false}, {"time": 384, "is_downbeat": false}, {"time": 408, "is_downbeat": true}, {"time": 432, "is_downbeat": false}, {"time": 456, "is_downbeat": false}, {"time": 480, "is_downbeat": false}, {"time": 504, "is_downbeat": true}, {"time": 528, "is_downbeat": false}, {"time": 552, "is_downbeat": false}, {"time": 576, "is_downbeat": false}, {"time": 600, "is_downbeat": true}, {"time": 624, "is_downbeat": false}, {"time": 648, "is_downbeat": false}, {"time": 672, "is_downbeat": false}, {"time": 696, "is_downbeat": true}, {"time": 720, "is_downbeat": false}, {"time": 744, "is_downbeat": false}, {"time": 768, "is_downbeat": false}, {"time": 792, "is_downbeat": true}, {"time": 816, "is_downbeat": false}, {"time": 840, "is_downbeat": false}, {"time": 864, "is_downbeat": false}, {"time": 888, "is_downbeat": true}, {"time": 912, "is_downbeat": false}, {"time": 936, "is_downbeat": false}, {"time": 960, "is_downbeat": false}, {"time": 984, "is_downbeat": true}, {"time": 1008, "is_downbeat": false}, {"time": 1032, "is_downbeat": false}, {"time": 1056, "is_downbeat": false}, {"time": 1080, "is_downbeat": true}, {"time": 1104, "is_downbeat": false}, {"time": 1128, "is_downbeat": false}, {"time": 1152, "is_downbeat": false}, {"time": 1176, "is_downbeat": true}, {"time": 1200, "is_downbeat": false}, {"time": 1224, "is_downbeat": false}, {"time": 1248, "is_downbeat": false}, {"time": 1272, "is_downbeat": true}, {"time": 1296, "is_downbeat": false}, {"time": 1320, "is_downbeat": false}, {"time": 1344, "is_downbeat": false}, {"time": 1368, "is_downbeat": true}, {"time": 1392, "is_downbeat": false}, {"time": 1416, "is_downbeat": false}, {"time": 1440, "is_downbeat": false}, {"time": 1464, "is_downbeat": true}, {"time": 1488, "is_downbeat": false}, {"time": 1512, "is_downbeat": false}, {"time": 1536, "is_downbeat": false}, {"time": 1560, "is_downbeat": true}, {"time": 1584, "is_downbeat": false}, {"time": 1608, "is_downbeat": false}, {"time": 1632, "is_downbeat": false}, {"time": 1656, "is_downbeat": true}, {"time": 1680, "is_downbeat": false}, {"time": 1704, "is_downbeat": false}, {"time": 1728, "is_downbeat": false}], "tracks": [{"program": 0, "is_drum": false, "notes": [{"time": 0, "pitch": 58, "duration": 24, "velocity": 64}, {"time": 24, "pitch": 58, "duration": 36, "velocity": 64}, {"time": 60, "pitch": 62, "duration": 12, "velocity": 64}, {"time": 72, "pitch": 63, "duration": 18, "velocity": 64}, {"time": 90, "pitch": 62, "duration": 6, "velocity": 64}, {"time": 96, "pitch": 60, "duration": 18, "velocity": 64}, {"time": 114, "pitch": 65, "duration": 6, "velocity": 64}, {"time": 120, "pitch": 63, "duration": 24, "velocity": 64}, {"time": 144, "pitch": 62, "duration": 24, "velocity": 64}, {"time": 192, "pitch": 63, "duration": 24, "velocity": 64}, {"time": 216, "pitch": 63, "duration": 24, "velocity": 64}, {"time": 240, "pitch": 60, "duration": 12, "velocity": 64}, {"time": 252, "pitch": 65, "duration": 12, "velocity": 64}, {"time": 264, "pitch": 65, "duration": 12, "velocity": 64}, {"time": 276, "pitch": 63, "duration": 12, "velocity": 64}, {"time": 288, "pitch": 63, "duration": 12, "velocity": 64}, {"time": 300, "pitch": 62, "duration": 12, "velocity": 64}, {"time": 312, "pitch": 62, "duration": 24, "velocity": 64}, {"time": 336, "pitch": 63, "duration": 24, "velocity": 64}, {"time": 384, "pitch": 63, "duration": 24, "velocity": 64}, {"time": 408, "pitch": 63, "duration": 36, "velocity": 64}, {"time": 444, "pitch": 60, "duration": 12, "velocity": 64}, {"time": 456, "pitch": 62, "duration": 18, "velocity": 64}, {"time": 474, "pitch": 60, "duration": 6, "velocity": 64}, {"time": 480, "pitch": 62, "duration": 18, "velocity": 64}, {"time": 498, "pitch": 63, "duration": 6, "velocity": 64}, {"time": 504, "pitch": 62, "duration": 24, "velocity": 64}, {"time": 528, "pitch": 60, "duration": 24, "velocity": 64}, {"time": 576, "pitch": 65, "duration": 24, "velocity": 64}, {"time": 600, "pitch": 65, "duration": 12, "velocity": 64}, {"time": 612, "pitch": 63, "duration": 12, "velocity": 64}, {"time": 624, "pitch": 67, "duration": 12, "velocity": 64}, {"time": 636, "pitch": 63, "duration": 12, "velocity": 64}, {"time": 648, "pitch": 63, "duration": 12, "velocity": 64}, {"time": 660, "pitch": 62, "duration": 12, "velocity": 64}, {"time": 672, "pitch": 63, "duration": 12, "velocity": 64}, {"time": 684, "pitch": 60, "duration": 12, "velocity": 64}, {"time": 696, "pitch": 60, "duration": 24, "velocity": 64}, {"time": 720, "pitch": 58, "duration": 24, "velocity": 64}, {"time": 768, "pitch": 58, "duration": 24, "velocity": 64}, {"time": 792, "pitch": 58, "duration": 36, "velocity": 64}, {"time": 828, "pitch": 60, "duration": 12, "velocity": 64}, {"time": 840, "pitch": 62, "duration": 12, "velocity": 64}, {"time": 852, "pitch": 63, "duration": 12, "velocity": 64}, {"time": 864, "pitch": 65, "duration": 12, "velocity": 64}, {"time": 876, "pitch": 63, "duration": 12, "velocity": 64}, {"time": 888, "pitch": 63, "duration": 12, "velocity": 64}, {"time": 900, "pitch": 62, "duration": 12, "velocity": 64}, {"time": 912, "pitch": 62, "duration": 36, "velocity": 64}, {"time": 948, "pitch": 63, "duration": 6, "velocity": 64}, {"time": 954, "pitch": 62, "duration": 6, "velocity": 64}, {"time": 960, "pitch": 60, "duration": 12, "velocity": 64}, {"time": 972, "pitch": 58, "duration": 12, "velocity": 64}, {"time": 984, "pitch": 58, "duration": 24, "velocity": 64}, {"time": 1008, "pitch": 63, "duration": 12, "velocity": 64}, {"time": 1020, "pitch": 58, "duration": 12, "velocity": 64}, {"time": 1032, "pitch": 58, "duration": 12, "velocity": 64}, {"time": 1044, "pitch": 56, "duration": 12, "velocity": 64}, {"time": 1056, "pitch": 56, "duration": 12, "velocity": 64}, {"time": 1068, "pitch": 55, "duration": 12, "velocity": 64}, {"time": 1080, "pitch": 58, "duration": 18, "velocity": 64}, {"time": 1098, "pitch": 55, "duration": 6, "velocity": 64}, {"time": 1104, "pitch": 53, "duration": 24, "velocity": 64}, {"time": 1152, "pitch": 58, "duration": 24, "velocity": 64}, {"time": 1176, "pitch": 58, "duration": 36, "velocity": 64}, {"time": 1212, "pitch": 62, "duration": 12, "velocity": 64}, {"time": 1224, "pitch": 63, "duration": 18, "velocity": 64}, {"time": 1242, "pitch": 62, "duration": 6, "velocity": 64}, {"time": 1248, "pitch": 60, "duration": 18, "velocity": 64}, {"time": 1266, "pitch": 65, "duration": 6, "velocity": 64}, {"time": 1272, "pitch": 63, "duration": 24, "velocity": 64}, {"time": 1296, "pitch": 62, "duration": 24, "velocity": 64}, {"time": 1344, "pitch": 63, "duration": 24, "velocity": 64}, {"time": 1368, "pitch": 60, "duration": 18, "velocity": 64}, {"time": 1386, "pitch": 62, "duration": 6, "velocity": 64}, {"time": 1392, "pitch": 63, "duration": 18, "velocity": 64}, {"time": 1410, "pitch": 65, "duration": 6, "velocity": 64}, {"time": 1416, "pitch": 63, "duration": 24, "velocity": 64}, {"time": 1440, "pitch": 62, "duration": 24, "velocity": 64}, {"time": 1464, "pitch": 65, "duration": 48, "velocity": 64}, {"time": 1536, "pitch": 65, "duration": 24, "velocity": 64}, {"time": 1560, "pitch": 67, "duration": 18, "velocity": 64}, {"time": 1578, "pitch": 62, "duration": 6, "velocity": 64}, {"time": 1584, "pitch": 63, "duration": 18, "velocity": 64}, {"time": 1602, "pitch": 65, "duration": 6, "velocity": 64}, {"time": 1608, "pitch": 63, "duration": 24, "velocity": 64}, {"time": 1632, "pitch": 62, "duration": 24, "velocity": 64}, {"time": 1656, "pitch": 63, "duration": 24, "velocity": 64}]}]}