{"metadata": {"schema_version": "0.1", "title": "FRIEDE SEI UM DIESEN GRABSTEIN HER", "source_format": "abc"}, "resolution": 24, "tempos": [{"time": 0, "qpm": 120.0}], "key_signatures": [{"time": 0, "root": 3, "mode": "major", "fifths": -3}], "time_signatures": [{"time": 0, "numerator": 4, "denominator": 4}], "beats": [{"time": 0, "is_downbeat": true}, {"time": 24, "is_downbeat": false}, {"time": 48, "is_downbeat": true}, {"time": 72, "is_downbeat": false}, {"time": 96, "is_downbeat": false}, {"time": 120, "is_downbeat": false}, {"time": 144, "is_downbeat": true}, {"time": 168, "is_downbeat": false}, {"time": 192, "is_downbeat": false}, {"time": 216, "is_downbeat": false}, {"time": 240, "is_downbeat": true}, {"time": 264, "is_downbeat": false}, {"time": 288, "is_downbeat": false}, {"time": 312, "is_downbeat": false}, {"time": 336, "is_downbeat": true}, {"time": 360, "is_downbeat": false}, {"time": 384, "is_downbeat": false}, {"time": 408, "is_downbeat": false}, {"time": 432, "is_downbeat": true}, {"time": 456, "is_downbeat": false}, {"time": 480, "is_downbeat": false}, {"time": 504, "is_downbeat": false}, {"time": 528, "is_downbeat": true}, {"time": 552, "is_downbeat": false}, {"time": 576, "is_downbeat": false}, {"time": 600, "is_downbeat": false}, {"time": 624, "is_downbeat": true}, {"time": 648, "is_downbeat": false}, {"time": 672, "is_downbeat": false}, {"time": 696, "is_downbeat": false}, {"time": 720, "is_downbeat": true}, {"time": 744, "is_downbeat": false}, {"time": 768, "is_downbeat": false}, {"time": 792, "is_downbeat": false}, {"time": 816, "is_downbeat": true}, {"time": 840, "is_downbeat": false}, {"time": 864, "is_downbeat": false}, {"time": 888, "is_downbeat": false}, {"time": 912, "is_downbeat": true}, {"time": 936, "is_downbeat": false}, {"time": 960, "is_downbeat": false}, {"time": 984, "is_downbeat": false}, {"time": 1008, "is_downbeat": true}, {"time": 1032, "is_downbeat": false}, {"time": 1056, "is_downbeat": false}, {"time": 1080, "is_downbeat": false}, {"time": 1104, "is_downbeat": true}, {"time": 1128, "is_downbeat": false}, {"time": 1152, "is_downbeat": false}, {"time": 1176, "is_downbeat": false}, {"time": 1200, "is_downbeat": true}, {"time": 1224, "is_downbeat": false}, {"time": 1248, "is_downbeat": false}, {"time": 1272, "is_downbeat": false}, {"time": 1296, "is_downbeat": true}, {"time": 1320, "is_downbeat": false}, {"time": 1344, "is_downbeat": false}, {"time": 1368, "is_downbeat": false}, {"time": 1392, "is_downbeat": true}, {"time": 1416, "is_downbeat": false}, {"time": 1440, "is_downbeat": false}, {"time": 1464, "is_downbeat": false}, {"time": 1488, "is_downbeat": true}, {"time": 1512, "is_downbeat": false}, {"time": 1536, "is_downbeat": false}, {"time": 1560, "is_downbeat": false}, {"time": 1584, "is_downbeat": true}, {"time": 1608, "is_downbeat": false}, {"time": 1632, "is_downbeat": false}, {"time": 1656, "is_downbeat": false}, {"time": 1680, "is_downbeat": true}, {"time": 1704, "is_downbeat": false}, {"time": 1728, "is_downbeat": false}, {"time": 1752, "is_downbeat": false}, {"time": 1776, "is_downbeat": true}, {"time": 1800, "is_downbeat": false}, {"time": 1824, "is_downbeat": false}, {"time": 1848, "is_downbeat": false}, {"time": 1872, "is_downbeat": true}, {"time": 1896, "is_downbeat": false}, {"time": 1920, "is_downbeat": false}, {"time": 1944, "is_downbeat": false}, {"time": 1968, "is_downbeat": true}, {"time": 1992, "is_downbeat": false}, {"time": 2016, "is_downbeat": false}, {"time": 2040, "is_downbeat": false}, {"time": 2064, "is_downbeat": true}, {"time": 2088, "is_downbeat": false}, {"time": 2112, "is_downbeat": false}, {"time": 2136, "is_downbeat": false}, {"time": 2160, "is_downbeat": true}, {"time": 2184, "is_downbeat": false}, {"time": 2208, "is_downbeat": false}, {"time": 2232, "is_downbeat": false}, {"time": 2256, "is_downbeat": true}, {"time": 2280, "is_downbeat": false}, {"time": 2304, "is_downbeat": false}, {"time": 2328, "is_downbeat": false}, {"time": 2352, "is_downbeat": true}, {"time": 2376, "is_downbeat": false}, {"time": 2400, "is_downbeat": false}, {"time": 2424, "is_downbeat": false}, {"time": 2448, "is_downbeat": true}, {"time": 2472, "is_downbeat": false}, {"time": 2496, "is_downbeat": false}, {"time": 2520, "is_downbeat": false}, {"time": 2544, "is_downbeat": true}, {"time": 2568, "is_downbeat": false}, {"time": 2592, "is_downbeat": false}, {"time": 2616, "is_downbeat": false}, {"time": 2640, "is_downbeat": true}, {"time": 2664, "is_downbeat": false}, {"time": 2688, "is_downbeat": false}, {"time": 2712, "is_downbeat": false}, {"time": 2736, "is_downbeat": true}, {"time": 2760, "is_downbeat": false}, {"time": 2784, "is_downbeat": false}, {"time": 2808, "is_downbeat": false}, {"time": 2832, "is_downbeat": true}, {"time": 2856, "is_downbeat": false}, {"time": 2880, "is_downbeat": false}, {"time": 2904, "is_downbeat": false}, {"time": 2928, "is_downbeat": true}, {"time": 2952, "is_downbeat": false}, {"time": 2976, "is_downbeat": false}, {"time": 3000, "is_downbeat": false}, {"time": 3024, "is_downbeat": true}, {"time": 3048, "is_downbeat": false}, {"time": 3072, "is_downbeat": false}, {"time": 3096, "is_downbeat": false}, {"time": 3120, "is_downbeat": true}, {"time": 3144, "is_downbeat": false}, {"time": 3168, "is_downbeat": false}, {"time": 3192, "is_downbeat": false}, {"time": 3216, "is_downbeat": true}, {"time": 3240, "is_downbeat": false}, {"time": 3264, "is_downbeat": false}, {"time": 3288, "is_downbeat": false}, {"time": 3312, "is_downbeat": true}, {"time": 3336, "is_downbeat": false}, {"time": 3360, "is_downbeat": false}, {"time": 3384, "is_downbeat": false}, {"time": 3408, "is_downbeat": true}, {"time": 3432, "is_downbeat": false}, {"time": 3456, "is_downbeat": false}, {"time": 3480, "is_downbeat": false}, {"time": 3504, "is_downbeat": true}, {"time": 3528, "is_downbeat": false}, {"time": 3552, "is_downbeat": false}, {"time": 3576, "is_downbeat": false}], "tracks": [{"program": 0, "is_drum": false, "notes": [{"time": 0, "pitch": 63, "duration": 24, "velocity": 64}, {"time": 24, "pitch": 65, "duration": 24, "velocity": 64}, {"time": 48, "pitch": 67, "duration": 36, "velocity": 64}, {"time": 84, "pitch": 67, "duration": 12, "velocity": 64}, {"time": 96, "pitch": 68, "duration": 36, "velocity": 64}, {"time": 132, "pitch": 65, "duration": 12, "velocity": 64}, {"time": 144, "pitch": 63, "duration": 24, "velocity": 64}, {"time": 168, "pitch": 62, "duration": 24, "velocity": 64}, {"time": 192, "pitch": 60, "duration": 24, "velocity": 64}, {"time": 240, "pitch": 72, "duration": 36, "velocity": 64}, {"time": 276, "pitch": 72, "duration": 12, "velocity": 64}, {"time": 288, "pitch": 70, "duration": 12, "velocity": 64}, {"time": 300, "pitch": 75, "duration": 12, "velocity": 64}, {"time": 312, "pitch": 67, "duration": 12, "velocity": 64}, {"time": 324, "pitch": 70, "duration": 12, "velocity": 64}, {"time": 336, "pitch": 68, "duration": 48, "velocity": 64}, {"time": 384, "pitch": 67, "duration": 24, "velocity": 64}, {"time": 432, "pitch": 65, "duration": 36, "velocity": 64}, {"time": 468, "pitch": 75, "duration": 12, "velocity": 64}, {"time": 480, "pitch": 75, "duration": 12, "velocity": 64}, {"time": 492, "pitch": 74, "duration": 12, "velocity": 64}, {"time": 504, "pitch": 72, "duration": 12, "velocity": 64}, {"time": 516, "pitch": 70, "duration": 12, "velocity": 64}, {"time": 528, "pitch": 70, "duration": 12, "velocity": 64}, {"time": 540, "pitch": 69, "duration": 12, "velocity": 64}, {"time": 552, "pitch": 67, "duration": 12, "velocity": 64}, {"time": 564, "pitch": 65, "duration": 12, "velocity": 64}, {"time": 576, "pitch": 70, "duration": 24, "velocity": 64}, {"time": 600, "pitch": 72, "duration": 24, "velocity": 64}, {"time": 624, "pitch": 74, "duration": 24, "velocity": 64}, {"time": 648, "pitch": 75, "duration": 12, "velocity": 64}, {"time": 660, "pitch": 72, "duration": 12, "velocity": 64}, {"time": 672, "pitch": 70, "duration": 24, "velocity": 64}, {"time": 696, "pitch": 72, "duration": 24, "velocity": 64}, {"time": 720, "pitch": 70, "duration": 24, "velocity": 64}, {"time": 792, "pitch": 70, "duration": 12, "velocity": 64}, {"time": 804, "pitch": 71, "duration": 12, "velocity": 64}, {"time": 816, "pitch": 72, "duration": 48, "velocity": 64}, {"time": 876, "pitch": 68, "duration": 12, "velocity": 64}, {"time": 888, "pitch": 65, "duration": 12, "velocity": 64}, {"time": 900, "pitch": 70, "duration": 12, "velocity": 64}, {"time": 912, "pitch": 67, "duration": 24, "velocity": 64}, {"time": 960, "pitch": 63, "duration": 24, "velocity": 64}, {"time": 984, "pitch": 65, "duration": 24, "velocity": 64}, {"time": 1008, "pitch": 67, "duration": 36, "velocity": 64}, {"time": 1044, "pitch": 67, "duration": 12, "velocity": 64}, {"time": 1056, "pitch": 68, "duration": 36, "velocity": 64}, {"time": 1092, "pitch": 65, "duration": 12, "velocity": 64}, {"time": 1104, "pitch": 63, "duration": 24, "velocity": 64}, {"time": 1128, "pitch": 62, "duration": 24, "velocity": 64}, {"time": 1152, "pitch": 60, "duration": 24, "velocity": 64}, {"time": 1176, "pitch": 60, "duration": 12, "velocity": 64}, {"time": 1188, "pitch": 72, "duration": 12, "velocity": 64}, {"time": 1200, "pitch": 72, "duration": 36, "velocity": 64}, {"time": 1236, "pitch": 72, "duration": 12, "velocity": 64}, {"time": 1248, "pitch": 70, "duration": 12, "velocity": 64}, {"time": 1260, "pitch": 75, "duration": 12, "velocity": 64}, {"time": 1272, "pitch": 67, "duration": 12, "velocity": 64}, {"time": 1284, "pitch": 70, "duration": 12, "velocity": 64}, {"time": 1296, "pitch": 70, "duration": 36, "velocity": 64}, {"time": 1332, "pitch": 68, "duration": 12, "velocity": 64}, {"time": 1344, "pitch": 67, "duration": 24, "velocity": 64}, {"time": 1368, "pitch": 67, "duration": 24, "velocity": 64}, {"time": 1392, "pitch": 65, "duration": 36, "velocity": 64}, {"time": 1428, "pitch": 75, "duration": 12, "velocity": 64}, {"time": 1440, "pitch": 75, "duration": 12, "velocity": 64}, {"time": 1452, "pitch": 74, "duration": 12, "velocity": 64}, {"time": 1464, "pitch": 72, "duration": 12, "velocity": 64}, {"time": 1476, "pitch": 70, "duration": 12, "velocity": 64}, {"time": 1488, "pitch": 70, "duration": 12, "velocity": 64}, {"time": 1500, "pitch": 69, "duration": 12, "velocity": 64}, {"time": 1512, "pitch": 67, "duration": 12, "velocity": 64}, {"time": 1524, "pitch": 65, "duration": 12, "velocity": 64}, {"time": 1536, "pitch": 70, "duration": 24, "velocity": 64}, {"time": 1560, "pitch": 72, "duration": 24, "velocity": 64}, {"time": 1584, "pitch": 74, "duration": 24, "velocity": 64}, {"time": 1608, "pitch": 75, "duration": 12, "velocity": 64}, {"time": 1620, "pitch": 72, "duration": 12, "velocity": 64}, {"time": 1632, "pitch": 70, "duration": 24, "velocity": 64}, {"time": 1656, "pitch": 72, "duration": 24, "velocity": 64}, {"time": 1680, "pitch": 70, "duration": 24, "velocity": 64}, {"time": 1728, "pitch": 63, "duration": 24, "velocity": 64}, {"time": 1752, "pitch": 65, "duration": 24, "velocity": 64}, {"time": 1776, "pitch": 67, "duration": 36, "velocity": 64}, {"time": 1812, "pitch": 67, "duration": 12, "velocity": 64}, {"time": 1824, "pitch": 68, "duration": 36, "velocity": 64}, {"time": 1860, "pitch": 65, "duration": 12, "velocity": 64}, {"time": 1872, "pitch": 63, "duration": 24, "velocity": 64}, {"time": 1896, "pitch": 62, "duration": 24, "velocity": 64}, {"time": 1920, "pitch": 60, "duration": 24, "velocity": 64}, {"time": 2016, "pitch": 67, "duration": 24, "velocity": 64}, {"time": 2040, "pitch": 67, "duration": 24, "velocity": 64}, {"time": 2064, "pitch": 67, "duration": 24, "velocity": 64}, {"time": 2088, "pitch": 65, "duration": 24, "velocity": 64}, {"time": 2112, "pitch": 63, "duration": 24, "velocity": 64}, {"time": 2136, "pitch": 62, "duration": 24, "velocity": 64}, {"time": 2160, "pitch": 67, "duration": 24, "velocity": 64}, {"time": 2184, "pitch": 65, "duration": 24, "velocity": 64}, {"time": 2208, "pitch": 63, "duration": 24, "velocity": 64}, {"time": 2232, "pitch": 62, "duration": 24, "velocity": 64}, {"time": 2256, "pitch": 67, "duration": 36, "velocity": 64}, {"time": 2292, "pitch": 72, "duration": 12, "velocity": 64}, {"time": 2304, "pitch": 72, "duration": 12, "velocity": 64}, {"time": 2316, "pitch": 68, "duration": 12, "velocity": 64}, {"time": 2328, "pitch": 68, "duration": 24, "velocity": 64}, {"time": 2352, "pitch": 67, "duration": 12, "velocity": 64}, {"time": 2364, "pitch": 67, "duration": 12, "velocity": 64}, {"time": 2376, "pitch": 67, "duration": 12, "velocity": 64}, {"time": 2388, "pitch": 67, "duration": 12, "velocity": 64}, {"time": 2400, "pitch": 72, "duration": 12, "velocity": 64}, {"time": 2412, "pitch": 68, "duration": 12, "velocity": 64}, {"time": 2424, "pitch": 68, "duration": 24, "velocity": 64}, {"time": 2448, "pitch": 67, "duration": 36, "velocity": 64}, {"time": 2484, "pitch": 72, "duration": 12, "velocity": 64}, {"time": 2496, "pitch": 72, "duration": 36, "velocity": 64}, {"time": 2532, "pitch": 66, "duration": 12, "velocity": 64}, {"time": 2544, "pitch": 67, "duration": 24, "velocity": 64}, {"time": 2592, "pitch": 63, "duration": 24, "velocity": 64}, {"time": 2616, "pitch": 65, "duration": 24, "velocity": 64}, {"time": 2640, "pitch": 67, "duration": 36, "velocity": 64}, {"time": 2676, "pitch": 67, "duration": 12, "velocity": 64}, {"time": 2688, "pitch": 68, "duration": 36, "velocity": 64}, {"time": 2724, "pitch": 65, "duration": 12, "velocity": 64}, {"time": 2736, "pitch": 63, "duration": 24, "velocity": 64}, {"time": 2760, "pitch": 62, "duration": 24, "velocity": 64}, {"time": 2784, "pitch": 60, "duration": 24, "velocity": 64}, {"time": 2832, "pitch": 72, "duration": 36, "velocity": 64}, {"time": 2868, "pitch": 72, "duration": 12, "velocity": 64}, {"time": 2880, "pitch": 70, "duration": 12, "velocity": 64}, {"time": 2892, "pitch": 75, "duration": 12, "velocity": 64}, {"time": 2904, "pitch": 67, "duration": 12, "velocity": 64}, {"time": 2916, "pitch": 70, "duration": 12, "velocity": 64}, {"time": 2928, "pitch": 68, "duration": 48, "velocity": 64}, {"time": 2976, "pitch": 67, "duration": 24, "velocity": 64}, {"time": 3024, "pitch": 65, "duration": 36, "velocity": 64}, {"time": 3060, "pitch": 75, "duration": 12, "velocity": 64}, {"time": 3072, "pitch": 75, "duration": 12, "velocity": 64}, {"time": 3084, "pitch": 74, "duration": 12, "velocity": 64}, {"time": 3096, "pitch": 72, "duration": 12, "velocity": 64}, {"time": 3108, "pitch": 70, "duration": 12, "velocity": 64}, {"time": 3120, "pitch": 70, "duration": 12, "velocity": 64}, {"time": 3132, "pitch": 69, "duration": 12, "velocity": 64}, {"time": 3144, "pitch": 67, "duration": 12, "velocity": 64}, {"time": 3156, "pitch": 65, "duration": 12, "velocity": 64}, {"time": 3168, "pitch": 70, "duration": 24, "velocity": 64}, {"time": 3192, "pitch": 72, "duration": 24, "velocity": 64}, {"time": 3216, "pitch": 74, "duration": 24, "velocity": 64}, {"time": 3240, "pitch": 75, "duration": 12, "velocity": 64}, {"time": 3252, "pitch": 72, "duration": 12, "velocity": 64}, {"time": 3264, "pitch": 70, "duration": 24, "velocity": 64}, {"time": 3288, "pitch": 72, "duration": 24, "velocity": 64}, {"time": 3312, "pitch": 70, "duration": 24, "velocity": 64}, {"time": 3384, "pitch": 70, "duration": 12, "velocity": 64}, {"time": 3396, "pitch": 71, "duration": 12, "velocity": 64}, {"time": 3408, "pitch": 72, "duration": 48, "velocity": 64}, {"time": 3468, "pitch": 68, "duration": 12, "velocity": 64}, {"time": 3480, "pitch": 65, "duration": 12, "velocity": 64}, {"time": 3492, "pitch": 70, "duration": 12, "velocity": 64}, {"time": 3504, "pitch": 67, "duration": 24, "velocity": 64}]}]}