{"metadata": {"schema_version": "0.1", "title": "LOBT FROH DEN HERRN", "source_format": "abc"}, "resolution": 24, "tempos": [{"time": 0, "qpm": 120.0}], "key_signatures": [{"time": 0, "root": 2, "mode": "major", "fifths": 2}], "time_signatures": [{"time": 0, "numerator": 3, "denominator": 4}], "beats": [{"time": 0, "is_downbeat": true}, {"time": 24, "is_downbeat": true}, {"time": 48, "is_downbeat": false}, {"time": 72, "is_downbeat": false}, {"time": 96, "is_downbeat": true}, {"time": 120, "is_downbeat": false}, {"time": 144, "is_downbeat": false}, {"time": 168, "is_downbeat": true}, {"time": 192, "is_downbeat": false}, {"time": 216, "is_downbeat": false}, {"time": 240, "is_downbeat": true}, {"time": 264, "is_downbeat": false}, {"time": 288, "is_downbeat": false}, {"time": 312, "is_downbeat": true}, {"time": 336, "is_downbeat": false}, {"time": 360, "is_downbeat": false}, {"time": 384, "is_downbeat": true}, {"time": 408, "is_downbeat": false}, {"time": 432, "is_downbeat": false}, {"time": 456, "is_downbeat": true}, {"time": 480, "is_downbeat": false}, {"time": 504, "is_downbeat": false}, {"time": 528, "is_downbeat": true}, {"time": 552, "is_downbeat": false}, {"time": 576, "is_downbeat": false}, {"time": 600, "is_downbeat": true}, {"time": 624, "is_downbeat": false}, {"time": 648, "is_downbeat": false}, {"time": 672, "is_downbeat": true}, {"time": 696, "is_downbeat": false}, {"time": 720, "is_downbeat": false}, {"time": 744, "is_downbeat": true}, {"time": 768, "is_downbeat": false}, {"time": 792, "is_downbeat": false}, {"time": 816, "is_downbeat": true}, {"time": 840, "is_downbeat": false}, {"time": 864, "is_downbeat": false}], "tracks": [{"program": 0, "is_drum": false, "notes": [{"time": 0, "pitch": 57, "duration": 24, "velocity": 64}, {"time": 24, "pitch": 62, "duration": 36, "velocity": 64}, {"time": 60, "pitch": 61, "duration": 12, "velocity": 64}, {"time": 72, "pitch": 59, "duration": 12, "velocity": 64}, {"time": 84, "pitch": 57, "duration": 12, "velocity": 64}, {"time": 96, "pitch": 57, "duration": 24, "velocity": 64}, {"time": 120, "pitch": 54, "duration": 24, "velocity": 64}, {"time": 144, "pitch": 57, "duration": 24, "velocity": 64}, {"time": 168, "pitch": 57, "duration": 36, "velocity": 64}, {"time": 204, "pitch": 55, "duration": 12, "velocity": 64}, {"time": 216, "pitch": 54, "duration": 12, "velocity": 64}, {"time": 228, "pitch": 52, "duration": 12, "velocity": 64}, {"time": 240, "pitch": 54, "duration": 24, "velocity": 64}, {"time": 264, "pitch": 50, "duration": 24, "velocity": 64}, {"time": 288, "pitch": 57, "duration": 24, "velocity": 64}, {"time": 312, "pitch": 59, "duration": 24, "velocity": 64}, {"time": 336, "pitch": 62, "duration": 24, "velocity": 64}, {"time": 360, "pitch": 59, "duration": 24, "velocity": 64}, {"time": 384, "pitch": 57, "duration": 24, "velocity": 64}, {"time": 408, "pitch": 54, "duration": 24, "velocity": 64}, {"time": 432, "pitch": 57, "duration": 24, "velocity": 64}, {"time": 456, "pitch": 59, "duration": 36, "velocity": 64}, {"time": 492, "pitch": 61, "duration": 12, "velocity": 64}, {"time": 504, "pitch": 62, "duration": 12, "velocity": 64}, {"time": 516, "pitch": 59, "duration": 12, "velocity": 64}, {"time": 528, "pitch": 57, "duration": 24, "velocity": 64}, {"time": 552, "pitch": 54, "duration": 24, "velocity": 64}, {"time": 576, "pitch": 62, "duration": 24, "velocity": 64}, {"time": 600, "pitch": 64, "duration": 36, "velocity": 64}, {"time": 636, "pitch": 66, "duration": 12, "velocity": 64}, {"time": 648, "pitch": 67, "duration": 24, "velocity": 64}, {"time": 672, "pitch": 66, "duration": 48, "velocity": 64}, {"time": 720, "pitch": 62, "duration": 24, "velocity": 64}, {"time": 744, "pitch": 61, "duration": 36, "velocity": 64}, {"time": 780, "pitch": 62, "duration": 12, "velocity": 64}, {"time": 792, "pitch": 64, "duration": 24, "velocity": 64}, {"time": 816, "pitch": 62, "duration": 48, "velocity": 64}]}]}