{"metadata": {"schema_version": "0.1", "title": "WER WOLLTE SICH MIT GRILLEN PLAGEN", "source_format": "abc"}, "resolution": 24, "tempos": [{"time": 0, "qpm": 120.0}], "key_signatures": [{"time": 0, "root": 2, "mode": "major", "fifths": 2}], "time_signatures": [{"time": 0, "numerator": 3, "denominator": 8}], "beats": [{"time": 0, "is_downbeat": true}, {"time": 12, "is_downbeat": true}, {"time": 24, "is_downbeat": false}, {"time": 36, "is_downbeat": false}, {"time": 48, "is_downbeat": true}, {"time": 60, "is_downbeat": false}, {"time": 72, "is_downbeat": false}, {"time": 84, "is_downbeat": true}, {"time": 96, "is_downbeat": false}, {"time": 108, "is_downbeat": false}, {"time": 120, "is_downbeat": true}, {"time": 132, "is_downbeat": false}, {"time": 144, "is_downbeat": false}, {"time": 156, "is_downbeat": true}, {"time": 168, "is_downbeat": false}, {"time": 180, "is_downbeat": false}, {"time": 192, "is_downbeat": true}, {"time": 204, "is_downbeat": false}, {"time": 216, "is_downbeat": false}, {"time": 228, "is_downbeat": true}, {"time": 240, "is_downbeat": false}, {"time": 252, "is_downbeat": false}, {"time": 264, "is_downbeat": true}, {"time": 276, "is_downbeat": false}, {"time": 288, "is_downbeat": false}, {"time": 300, "is_downbeat": true}, {"time": 312, "is_downbeat": false}, {"time": 324, "is_downbeat": false}, {"time": 336, "is_downbeat": true}, {"time": 348, "is_downbeat": false}, {"time": 360, "is_downbeat": false}, {"time": 372, "is_downbeat": true}, {"time": 384, "is_downbeat": false}, {"time": 396, "is_downbeat": false}, {"time": 408, "is_downbeat": true}, {"time": 420, "is_downbeat": false}, {"time": 432, "is_downbeat": false}, {"time": 444, "is_downbeat": true}, {"time": 456, "is_downbeat": false}, {"time": 468, "is_downbeat": false}, {"time": 480, "is_downbeat": true}, {"time": 492, "is_downbeat": false}, {"time": 504, "is_downbeat": false}, {"time": 516, "is_downbeat": true}, {"time": 528, "is_downbeat": false}, {"time": 540, "is_downbeat": false}, {"time": 552, "is_downbeat": true}, {"time": 564, "is_downbeat": false}, {"time": 576, "is_downbeat": false}, {"time": 588, "is_downbeat": true}, {"time": 600, "is_downbeat": false}, {"time": 612, "is_downbeat": false}, {"time": 624, "is_downbeat": true}, {"time": 636, "is_downbeat": false}, {"time": 648, "is_downbeat": false}, {"time": 660, "is_downbeat": true}, {"time": 672, "is_downbeat": false}, {"time": 684, "is_downbeat": false}, {"time": 696, "is_downbeat": true}, {"time": 708, "is_downbeat": false}, {"time": 720, "is_downbeat": false}, {"time": 732, "is_downbeat": true}, {"time": 744, "is_downbeat": false}, {"time": 756, "is_downbeat": false}, {"time": 768, "is_downbeat": true}, {"time": 780, "is_downbeat": false}, {"time": 792, "is_downbeat": false}, {"time": 804, "is_downbeat": true}, {"time": 816, "is_downbeat": false}, {"time": 828, "is_downbeat": false}, {"time": 840, "is_downbeat": true}, {"time": 852, "is_downbeat": false}, {"time": 864, "is_downbeat": false}, {"time": 876, "is_downbeat": true}, {"time": 888, "is_downbeat": false}, {"time": 900, "is_downbeat": false}, {"time": 912, "is_downbeat": true}, {"time": 924, "is_downbeat": false}, {"time": 936, "is_downbeat": false}, {"time": 948, "is_downbeat": true}, {"time": 960, "is_downbeat": false}, {"time": 972, "is_downbeat": false}, {"time": 984, "is_downbeat": true}, {"time": 996, "is_downbeat": false}, {"time": 1008, "is_downbeat": false}, {"time": 1020, "is_downbeat": true}, {"time": 1032, "is_downbeat": false}, {"time": 1044, "is_downbeat": false}, {"time": 1056, "is_downbeat": true}, {"time": 1068, "is_downbeat": false}, {"time": 1080, "is_downbeat": false}, {"time": 1092, "is_downbeat": true}, {"time": 1104, "is_downbeat": false}, {"time": 1116, "is_downbeat": false}, {"time": 1128, "is_downbeat": true}, {"time": 1140, "is_downbeat": false}, {"time": 1152, "is_downbeat": false}], "tracks": [{"program": 0, "is_drum": false, "notes": [{"time": 0, "pitch": 57, "duration": 12, "velocity": 64}, {"time": 12, "pitch": 62, "duration": 18, "velocity": 64}, {"time": 30, "pitch": 61, "duration": 6, "velocity": 64}, {"time": 36, "pitch": 59, "duration": 12, "velocity": 64}, {"time": 48, "pitch": 57, "duration": 24, "velocity": 64}, {"time": 72, "pitch": 54, "duration": 12, "velocity": 64}, {"time": 84, "pitch": 55, "duration": 24, "velocity": 64}, {"time": 108, "pitch": 57, "duration": 12, "velocity": 64}, {"time": 120, "pitch": 54, "duration": 12, "velocity": 64}, {"time": 132, "pitch": 50, "duration": 12, "velocity": 64}, {"time": 144, "pitch": 55, "duration": 6, "velocity": 64}, {"time": 150, "pitch": 54, "duration": 6, "velocity": 64}, {"time": 156, "pitch": 54, "duration": 24, "velocity": 64}, {"time": 180, "pitch": 62, "duration": 6, "velocity": 64}, {"time": 186, "pitch": 61, "duration": 6, "velocity": 64}, {"time": 192, "pitch": 61, "duration": 24, "velocity": 64}, {"time": 216, "pitch": 64, "duration": 6, "velocity": 64}, {"time": 222, "pitch": 62, "duration": 6, "velocity": 64}, {"time": 228, "pitch": 61, "duration": 12, "velocity": 64}, {"time": 240, "pitch": 57, "duration": 12, "velocity": 64}, {"time": 252, "pitch": 56, "duration": 6, "velocity": 64}, {"time": 258, "pitch": 57, "duration": 6, "velocity": 64}, {"time": 264, "pitch": 57, "duration": 24, "velocity": 64}, {"time": 288, "pitch": 57, "duration": 12, "velocity": 64}, {"time": 300, "pitch": 62, "duration": 18, "velocity": 64}, {"time": 318, "pitch": 61, "duration": 6, "velocity": 64}, {"time": 324, "pitch": 59, "duration": 12, "velocity": 64}, {"time": 336, "pitch": 57, "duration": 24, "velocity": 64}, {"time": 360, "pitch": 54, "duration": 12, "velocity": 64}, {"time": 372, "pitch": 55, "duration": 24, "velocity": 64}, {"time": 396, "pitch": 57, "duration": 12, "velocity": 64}, {"time": 408, "pitch": 54, "duration": 12, "velocity": 64}, {"time": 420, "pitch": 50, "duration": 12, "velocity": 64}, {"time": 432, "pitch": 55, "duration": 6, "velocity": 64}, {"time": 438, "pitch": 54, "duration": 6, "velocity": 64}, {"time": 444, "pitch": 54, "duration": 24, "velocity": 64}, {"time": 468, "pitch": 62, "duration": 6, "velocity": 64}, {"time": 474, "pitch": 61, "duration": 6, "velocity": 64}, {"time": 480, "pitch": 61, "duration": 24, "velocity": 64}, {"time": 504, "pitch": 64, "duration": 6, "velocity": 64}, {"time": 510, "pitch": 62, "duration": 6, "velocity": 64}, {"time": 516, "pitch": 61, "duration": 12, "velocity": 64}, {"time": 528, "pitch": 57, "duration": 12, "velocity": 64}, {"time": 540, "pitch": 56, "duration": 6, "velocity": 64}, {"time": 546, "pitch": 57, "duration": 6, "velocity": 64}, {"time": 552, "pitch": 57, "duration": 24, "velocity": 64}, {"time": 576, "pitch": 57, "duration": 12, "velocity": 64}, {"time": 588, "pitch": 61, "duration": 18, "velocity": 64}, {"time": 606, "pitch": 59, "duration": 6, "velocity": 64}, {"time": 612, "pitch": 61, "duration": 12, "velocity": 64}, {"time": 624, "pitch": 62, "duration": 24, "velocity": 64}, {"time": 648, "pitch": 57, "duration": 12, "velocity": 64}, {"time": 660, "pitch": 57, "duration": 12, "velocity": 64}, {"time": 672, "pitch": 55, "duration": 12, "velocity": 64}, {"time": 684, "pitch": 54, "duration": 12, "velocity": 64}, {"time": 696, "pitch": 54, "duration": 12, "velocity": 64}, {"time": 708, "pitch": 52, "duration": 12, "velocity": 64}, {"time": 720, "pitch": 57, "duration": 12, "velocity": 64}, {"time": 732, "pitch": 61, "duration": 18, "velocity": 64}, {"time": 750, "pitch": 59, "duration": 6, "velocity": 64}, {"time": 756, "pitch": 61, "duration": 12, "velocity": 64}, {"time": 768, "pitch": 62, "duration": 24, "velocity": 64}, {"time": 792, "pitch": 54, "duration": 12, "velocity": 64}, {"time": 804, "pitch": 56, "duration": 12, "velocity": 64}, {"time": 816, "pitch": 54, "duration": 12, "velocity": 64}, {"time": 828, "pitch": 55, "duration": 12, "velocity": 64}, {"time": 840, "pitch": 57, "duration": 24, "velocity": 64}, {"time": 864, "pitch": 57, "duration": 12, "velocity": 64}, {"time": 876, "pitch": 64, "duration": 12, "velocity": 64}, {"time": 888, "pitch": 62, "duration": 6, "velocity": 64}, {"time": 894, "pitch": 61, "duration": 6, "velocity": 64}, {"time": 900, "pitch": 59, "duration": 6, "velocity": 64}, {"time": 906, "pitch": 61, "duration": 6, "velocity": 64}, {"time": 912, "pitch": 62, "duration": 24, "velocity": 64}, {"time": 936, "pitch": 62, "duration": 12, "velocity": 64}, {"time": 948, "pitch": 63, "duration": 6, "velocity": 64}, {"time": 954, "pitch": 64, "duration": 6, "velocity": 64}, {"time": 960, "pitch": 62, "duration": 6, "velocity": 64}, {"time": 966, "pitch": 61, "duration": 6, "velocity": 64}, {"time": 972, "pitch": 59, "duration": 6, "velocity": 64}, {"time": 978, "pitch": 57, "duration": 6, "velocity": 64}, {"time": 984, "pitch": 57, "duration": 12, "velocity": 64}, {"time": 996, "pitch": 62, "duration": 12, "velocity": 64}, {"time": 1008, "pitch": 60, "duration": 12, "velocity": 64}, {"time": 1020, "pitch": 59, "duration": 24, "velocity": 64}, {"time": 1044, "pitch": 61, "duration": 12, "velocity": 64}, {"time": 1056, "pitch": 62, "duration": 24, "velocity": 64}, {"time": 1080, "pitch": 64, "duration": 12, "velocity": 64}, {"time": 1092, "pitch": 61, "duration": 18, "velocity": 64}, {"time": 1110, "pitch": 59, "duration": 6, "velocity": 64}, {"time": 1116, "pitch": 61, "duration": 12, "velocity": 64}, {"time": 1128, "pitch": 62, "duration": 24, "velocity": 64}]}]}