{"metadata": {"schema_version": "0.1", "title": "DIR MOECHT ICH DIESE LIEDER WEIHEN", "source_format": "abc"}, "resolution": 24, "tempos": [{"time": 0, "qpm": 120.0}], "key_signatures": [{"time": 0, "root": 3, "mode": "major", "fifths": -3}], "time_signatures": [{"time": 0, "numerator": 4, "denominator": 4}], "beats": [{"time": 0, "is_downbeat": true}, {"time": 24, "is_downbeat": false}, {"time": 48, "is_downbeat": true}, {"time": 72, "is_downbeat": false}, {"time": 96, "is_downbeat": false}, {"time": 120, "is_downbeat": false}, {"time": 144, "is_downbeat": true}, {"time": 168, "is_downbeat": false}, {"time": 192, "is_downbeat": false}, {"time": 216, "is_downbeat": false}, {"time": 240, "is_downbeat": true}, {"time": 264, "is_downbeat": false}, {"time": 288, "is_downbeat": false}, {"time": 312, "is_downbeat": false}, {"time": 336, "is_downbeat": true}, {"time": 360, "is_downbeat": false}, {"time": 384, "is_downbeat": false}, {"time": 408, "is_downbeat": false}, {"time": 432, "is_downbeat": true}, {"time": 456, "is_downbeat": false}, {"time": 480, "is_downbeat": false}, {"time": 504, "is_downbeat": false}, {"time": 528, "is_downbeat": true}, {"time": 552, "is_downbeat": false}, {"time": 576, "is_downbeat": false}, {"time": 600, "is_downbeat": false}, {"time": 624, "is_downbeat": true}, {"time": 648, "is_downbeat": false}, {"time": 672, "is_downbeat": false}, {"time": 696, "is_downbeat": false}, {"time": 720, "is_downbeat": true}, {"time": 744, "is_downbeat": false}, {"time": 768, "is_downbeat": false}, {"time": 792, "is_downbeat": false}, {"time": 816, "is_downbeat": true}, {"time": 840, "is_downbeat": false}, {"time": 864, "is_downbeat": false}, {"time": 888, "is_downbeat": false}, {"time": 912, "is_downbeat": true}, {"time": 936, "is_downbeat": false}, {"time": 960, "is_downbeat": false}, {"time": 984, "is_downbeat": false}, {"time": 1008, "is_downbeat": true}, {"time": 1032, "is_downbeat": false}, {"time": 1056, "is_downbeat": false}, {"time": 1080, "is_downbeat": false}, {"time": 1104, "is_downbeat": true}, {"time": 1128, "is_downbeat": false}, {"time": 1152, "is_downbeat": false}, {"time": 1176, "is_downbeat": false}, {"time": 1200, "is_downbeat": true}, {"time": 1224, "is_downbeat": false}, {"time": 1248, "is_downbeat": false}, {"time": 1272, "is_downbeat": false}, {"time": 1296, "is_downbeat": true}, {"time": 1320, "is_downbeat": false}, {"time": 1344, "is_downbeat": false}, {"time": 1368, "is_downbeat": false}, {"time": 1392, "is_downbeat": true}, {"time": 1416, "is_downbeat": false}, {"time": 1440, "is_downbeat": false}, {"time": 1464, "is_downbeat": false}, {"time": 1488, "is_downbeat": true}, {"time": 1512, "is_downbeat": false}, {"time": 1536, "is_downbeat": false}, {"time": 1560, "is_downbeat": false}, {"time": 1584, "is_downbeat": true}, {"time": 1608, "is_downbeat": false}, {"time": 1632, "is_downbeat": false}, {"time": 1656, "is_downbeat": false}, {"time": 1680, "is_downbeat": true}, {"time": 1704, "is_downbeat": false}, {"time": 1728, "is_downbeat": false}, {"time": 1752, "is_downbeat": false}, {"time": 1776, "is_downbeat": true}, {"time": 1800, "is_downbeat": false}, {"time": 1824, "is_downbeat": false}, {"time": 1848, "is_downbeat": false}, {"time": 1872, "is_downbeat": true}, {"time": 1896, "is_downbeat": false}, {"time": 1920, "is_downbeat": false}, {"time": 1944, "is_downbeat": false}, {"time": 1968, "is_downbeat": true}, {"time": 1992, "is_downbeat": false}, {"time": 2016, "is_downbeat": false}, {"time": 2040, "is_downbeat": false}, {"time": 2064, "is_downbeat": true}, {"time": 2088, "is_downbeat": false}, {"time": 2112, "is_downbeat": false}, {"time": 2136, "is_downbeat": false}, {"time": 2160, "is_downbeat": true}, {"time": 2184, "is_downbeat": false}, {"time": 2208, "is_downbeat": false}, {"time": 2232, "is_downbeat": false}, {"time": 2256, "is_downbeat": true}, {"time": 2280, "is_downbeat": false}, {"time": 2304, "is_downbeat": false}, {"time": 2328, "is_downbeat": false}, {"time": 2352, "is_downbeat": true}, {"time": 2376, "is_downbeat": false}, {"time": 2400, "is_downbeat": false}, {"time": 2424, "is_downbeat": false}, {"time": 2448, "is_downbeat": true}, {"time": 2472, "is_downbeat": false}, {"time": 2496, "is_downbeat": false}, {"time": 2520, "is_downbeat": false}, {"time": 2544, "is_downbeat": true}, {"time": 2568, "is_downbeat": false}, {"time": 2592, "is_downbeat": false}, {"time": 2616, "is_downbeat": false}, {"time": 2640, "is_downbeat": true}, {"time": 2664, "is_downbeat": false}, {"time": 2688, "is_downbeat": false}, {"time": 2712, "is_downbeat": false}, {"time": 2736, "is_downbeat": true}, {"time": 2760, "is_downbeat": false}, {"time": 2784, "is_downbeat": false}, {"time": 2808, "is_downbeat": false}, {"time": 2832, "is_downbeat": true}, {"time": 2856, "is_downbeat": false}, {"time": 2880, "is_downbeat": false}, {"time": 2904, "is_downbeat": false}, {"time": 2928, "is_downbeat": true}, {"time": 2952, "is_downbeat": false}, {"time": 2976, "is_downbeat": false}, {"time": 3000, "is_downbeat": false}, {"time": 3024, "is_downbeat": true}, {"time": 3048, "is_downbeat": false}, {"time": 3072, "is_downbeat": false}, {"time": 3096, "is_downbeat": false}, {"time": 3120, "is_downbeat": true}, {"time": 3144, "is_downbeat": false}, {"time": 3168, "is_downbeat": false}, {"time": 3192, "is_downbeat": false}, {"time": 3216, "is_downbeat": true}, {"time": 3240, "is_downbeat": false}, {"time": 3264, "is_downbeat": false}, {"time": 3288, "is_downbeat": false}, {"time": 3312, "is_downbeat": true}, {"time": 3336, "is_downbeat": false}, {"time": 3360, "is_downbeat": false}, {"time": 3384, "is_downbeat": false}, {"time": 3408, "is_downbeat": true}, {"time": 3432, "is_downbeat": false}, {"time": 3456, "is_downbeat": false}, {"time": 3480, "is_downbeat": false}, {"time": 3504, "is_downbeat": true}, {"time": 3528, "is_downbeat": false}, {"time": 3552, "is_downbeat": false}, {"time": 3576, "is_downbeat": false}, {"time": 3600, "is_downbeat": true}, {"time": 3624, "is_downbeat": false}, {"time": 3648, "is_downbeat": false}, {"time": 3672, "is_downbeat": false}], "tracks": [{"program": 0, "is_drum": false, "notes": [{"time": 0, "pitch": 67, "duration": 48, "velocity": 64}, {"time": 48, "pitch": 65, "duration": 24, "velocity": 64}, {"time": 72, "pitch": 63, "duration": 24, "velocity": 64}, {"time": 96, "pitch": 58, "duration": 18, "velocity": 64}, {"time": 114, "pitch": 58, "duration": 6, "velocity": 64}, {"time": 120, "pitch": 63, "duration": 12, "velocity": 64}, {"time": 132, "pitch": 63, "duration": 12, "velocity": 64}, {"time": 144, "pitch": 63, "duration": 24, "velocity": 64}, {"time": 168, "pitch": 62, "duration": 24, "velocity": 64}, {"time": 228, "pitch": 65, "duration": 12, "velocity": 64}, {"time": 240, "pitch": 65, "duration": 36, "velocity": 64}, {"time": 276, "pitch": 65, "duration": 12, "velocity": 64}, {"time": 288, "pitch": 63, "duration": 24, "velocity": 64}, {"time": 312, "pitch": 62, "duration": 24, "velocity": 64}, {"time": 336, "pitch": 65, "duration": 18, "velocity": 64}, {"time": 354, "pitch": 63, "duration": 6, "velocity": 64}, {"time": 360, "pitch": 63, "duration": 24, "velocity": 64}, {"time": 408, "pitch": 67, "duration": 24, "velocity": 64}, {"time": 432, "pitch": 67, "duration": 36, "velocity": 64}, {"time": 468, "pitch": 65, "duration": 12, "velocity": 64}, {"time": 480, "pitch": 63, "duration": 18, "velocity": 64}, {"time": 498, "pitch": 62, "duration": 6, "velocity": 64}, {"time": 504, "pitch": 60, "duration": 12, "velocity": 64}, {"time": 516, "pitch": 60, "duration": 12, "velocity": 64}, {"time": 528, "pitch": 60, "duration": 18, "velocity": 64}, {"time": 546, "pitch": 62, "duration": 6, "velocity": 64}, {"time": 552, "pitch": 60, "duration": 24, "velocity": 64}, {"time": 588, "pitch": 60, "duration": 12, "velocity": 64}, {"time": 600, "pitch": 60, "duration": 12, "velocity": 64}, {"time": 612, "pitch": 60, "duration": 12, "velocity": 64}, {"time": 624, "pitch": 62, "duration": 24, "velocity": 64}, {"time": 648, "pitch": 65, "duration": 24, "velocity": 64}, {"time": 672, "pitch": 63, "duration": 18, "velocity": 64}, {"time": 690, "pitch": 62, "duration": 6, "velocity": 64}, {"time": 696, "pitch": 63, "duration": 18, "velocity": 64}, {"time": 714, "pitch": 60, "duration": 6, "velocity": 64}, {"time": 720, "pitch": 62, "duration": 48, "velocity": 64}, {"time": 780, "pitch": 65, "duration": 12, "velocity": 64}, {"time": 792, "pitch": 65, "duration": 12, "velocity": 64}, {"time": 804, "pitch": 65, "duration": 12, "velocity": 64}, {"time": 816, "pitch": 65, "duration": 24, "velocity": 64}, {"time": 840, "pitch": 62, "duration": 24, "velocity": 64}, {"time": 864, "pitch": 63, "duration": 18, "velocity": 64}, {"time": 882, "pitch": 62, "duration": 6, "velocity": 64}, {"time": 888, "pitch": 63, "duration": 18, "velocity": 64}, {"time": 906, "pitch": 65, "duration": 6, "velocity": 64}, {"time": 912, "pitch": 62, "duration": 24, "velocity": 64}, {"time": 960, "pitch": 67, "duration": 36, "velocity": 64}, {"time": 996, "pitch": 67, "duration": 12, "velocity": 64}, {"time": 1008, "pitch": 65, "duration": 24, "velocity": 64}, {"time": 1032, "pitch": 62, "duration": 24, "velocity": 64}, {"time": 1056, "pitch": 60, "duration": 24, "velocity": 64}, {"time": 1080, "pitch": 65, "duration": 24, "velocity": 64}, {"time": 1104, "pitch": 58, "duration": 48, "velocity": 64}, {"time": 1176, "pitch": 62, "duration": 24, "velocity": 64}, {"time": 1200, "pitch": 62, "duration": 36, "velocity": 64}, {"time": 1236, "pitch": 58, "duration": 12, "velocity": 64}, {"time": 1248, "pitch": 58, "duration": 48, "velocity": 64}, {"time": 1296, "pitch": 65, "duration": 36, "velocity": 64}, {"time": 1332, "pitch": 62, "duration": 12, "velocity": 64}, {"time": 1344, "pitch": 62, "duration": 48, "velocity": 64}, {"time": 1416, "pitch": 65, "duration": 24, "velocity": 64}, {"time": 1440, "pitch": 65, "duration": 36, "velocity": 64}, {"time": 1476, "pitch": 63, "duration": 12, "velocity": 64}, {"time": 1488, "pitch": 63, "duration": 24, "velocity": 64}, {"time": 1512, "pitch": 62, "duration": 24, "velocity": 64}, {"time": 1560, "pitch": 58, "duration": 24, "velocity": 64}, {"time": 1584, "pitch": 58, "duration": 72, "velocity": 64}, {"time": 1656, "pitch": 58, "duration": 24, "velocity": 64}, {"time": 1680, "pitch": 58, "duration": 72, "velocity": 64}, {"time": 1752, "pitch": 58, "duration": 24, "velocity": 64}, {"time": 1776, "pitch": 58, "duration": 72, "velocity": 64}, {"time": 1848, "pitch": 58, "duration": 24, "velocity": 64}, {"time": 1872, "pitch": 63, "duration": 72, "velocity": 64}, {"time": 1944, "pitch": 63, "duration": 24, "velocity": 64}, {"time": 1968, "pitch": 62, "duration": 48, "velocity": 64}, {"time": 2028, "pitch": 58, "duration": 12, "velocity": 64}, {"time": 2040, "pitch": 58, "duration": 18, "velocity": 64}, {"time": 2058, "pitch": 58, "duration": 6, "velocity": 64}, {"time": 2064, "pitch": 63, "duration": 24, "velocity": 64}, {"time": 2088, "pitch": 63, "duration": 24, "velocity": 64}, {"time": 2136, "pitch": 63, "duration": 18, "velocity": 64}, {"time": 2154, "pitch": 63, "duration": 6, "velocity": 64}, {"time": 2160, "pitch": 63, "duration": 24, "velocity": 64}, {"time": 2184, "pitch": 63, "duration": 24, "velocity": 64}, {"time": 2232, "pitch": 60, "duration": 24, "velocity": 64}, {"time": 2256, "pitch": 60, "duration": 36, "velocity": 64}, {"time": 2292, "pitch": 60, "duration": 12, "velocity": 64}, {"time": 2304, "pitch": 60, "duration": 12, "velocity": 64}, {"time": 2316, "pitch": 60, "duration": 12, "velocity": 64}, {"time": 2328, "pitch": 60, "duration": 12, "velocity": 64}, {"time": 2340, "pitch": 60, "duration": 12, "velocity": 64}, {"time": 2352, "pitch": 60, "duration": 48, "velocity": 64}, {"time": 2412, "pitch": 60, "duration": 12, "velocity": 64}, {"time": 2424, "pitch": 65, "duration": 18, "velocity": 64}, {"time": 2442, "pitch": 63, "duration": 6, "velocity": 64}, {"time": 2448, "pitch": 63, "duration": 12, "velocity": 64}, {"time": 2460, "pitch": 62, "duration": 12, "velocity": 64}, {"time": 2472, "pitch": 62, "duration": 24, "velocity": 64}, {"time": 2520, "pitch": 67, "duration": 18, "velocity": 64}, {"time": 2538, "pitch": 65, "duration": 6, "velocity": 64}, {"time": 2544, "pitch": 65, "duration": 12, "velocity": 64}, {"time": 2556, "pitch": 63, "duration": 12, "velocity": 64}, {"time": 2568, "pitch": 63, "duration": 24, "velocity": 64}, {"time": 2616, "pitch": 63, "duration": 24, "velocity": 64}, {"time": 2640, "pitch": 65, "duration": 36, "velocity": 64}, {"time": 2676, "pitch": 65, "duration": 12, "velocity": 64}, {"time": 2688, "pitch": 63, "duration": 12, "velocity": 64}, {"time": 2700, "pitch": 63, "duration": 12, "velocity": 64}, {"time": 2712, "pitch": 62, "duration": 12, "velocity": 64}, {"time": 2724, "pitch": 62, "duration": 12, "velocity": 64}, {"time": 2736, "pitch": 67, "duration": 24, "velocity": 64}, {"time": 2760, "pitch": 63, "duration": 12, "velocity": 64}, {"time": 2784, "pitch": 63, "duration": 24, "velocity": 64}, {"time": 2808, "pitch": 60, "duration": 12, "velocity": 64}, {"time": 2832, "pitch": 58, "duration": 36, "velocity": 64}, {"time": 2868, "pitch": 58, "duration": 12, "velocity": 64}, {"time": 2880, "pitch": 58, "duration": 12, "velocity": 64}, {"time": 2892, "pitch": 58, "duration": 12, "velocity": 64}, {"time": 2904, "pitch": 60, "duration": 12, "velocity": 64}, {"time": 2916, "pitch": 58, "duration": 12, "velocity": 64}, {"time": 2928, "pitch": 67, "duration": 24, "velocity": 64}, {"time": 2952, "pitch": 63, "duration": 12, "velocity": 64}, {"time": 2976, "pitch": 63, "duration": 24, "velocity": 64}, {"time": 3000, "pitch": 60, "duration": 12, "velocity": 64}, {"time": 3024, "pitch": 58, "duration": 36, "velocity": 64}, {"time": 3060, "pitch": 58, "duration": 12, "velocity": 64}, {"time": 3072, "pitch": 58, "duration": 12, "velocity": 64}, {"time": 3084, "pitch": 58, "duration": 12, "velocity": 64}, {"time": 3096, "pitch": 60, "duration": 12, "velocity": 64}, {"time": 3108, "pitch": 58, "duration": 12, "velocity": 64}, {"time": 3120, "pitch": 55, "duration": 48, "velocity": 64}, {"time": 3180, "pitch": 58, "duration": 12, "velocity": 64}, {"time": 3192, "pitch": 63, "duration": 18, "velocity": 64}, {"time": 3210, "pitch": 63, "duration": 6, "velocity": 64}, {"time": 3216, "pitch": 63, "duration": 24, "velocity": 64}, {"time": 3240, "pitch": 62, "duration": 24, "velocity": 64}, {"time": 3288, "pitch": 65, "duration": 18, "velocity": 64}, {"time": 3306, "pitch": 65, "duration": 6, "velocity": 64}, {"time": 3312, "pitch": 65, "duration": 24, "velocity": 64}, {"time": 3336, "pitch": 63, "duration": 24, "velocity": 64}, {"time": 3372, "pitch": 58, "duration": 12, "velocity": 64}, {"time": 3384, "pitch": 67, "duration": 18, "velocity": 64}, {"time": 3402, "pitch": 63, "duration": 6, "velocity": 64}, {"time": 3408, "pitch": 63, "duration": 24, "velocity": 64}, {"time": 3432, "pitch": 62, "duration": 24, "velocity": 64}, {"time": 3480, "pitch": 62, "duration": 18, "velocity": 64}, {"time": 3498, "pitch": 62, "duration": 6, "velocity": 64}, {"time": 3504, "pitch": 65, "duration": 72, "velocity": 64}, {"time": 3576, "pitch": 65, "duration": 18, "velocity": 64}, {"time": 3594, "pitch": 63, "duration": 6, "velocity": 64}, {"time": 3600, "pitch": 63, "duration": 48, "velocity": 64}]}]}