{"metadata": {"schema_version": "0.1", "title": "KOMM DU BLANKER WEIHEDEGEN", "source_format": "abc"}, "resolution": 24, "tempos": [{"time": 0, "qpm": 120.0}], "key_signatures": [{"time": 0, "root": 0, "mode": "major", "fifths": 0}], "time_signatures": [{"time": 0, "numerator": 2, "denominator": 4}], "beats": [{"time": 0, "is_downbeat": true}, {"time": 24, "is_downbeat": false}, {"time": 48, "is_downbeat": true}, {"time": 72, "is_downbeat": false}, {"time": 96, "is_downbeat": true}, {"time": 120, "is_downbeat": false}, {"time": 144, "is_downbeat": true}, {"time": 168, "is_downbeat": false}, {"time": 192, "is_downbeat": true}, {"time": 216, "is_downbeat": false}, {"time": 240, "is_downbeat": true}, {"time": 264, "is_downbeat": false}, {"time": 288, "is_downbeat": true}, {"time": 312, "is_downbeat": false}, {"time": 336, "is_downbeat": true}, {"time": 360, "is_downbeat": false}, {"time": 384, "is_downbeat": true}, {"time": 408, "is_downbeat": false}, {"time": 432, "is_downbeat": true}, {"time": 456, "is_downbeat": false}, {"time": 480, "is_downbeat": true}, {"time": 504, "is_downbeat": false}, {"time": 528, "is_downbeat": true}, {"time": 552, "is_downbeat": false}, {"time": 576, "is_downbeat": true}, {"time": 600, "is_downbeat": false}, {"time": 624, "is_downbeat": true}, {"time": 648, "is_downbeat": false}, {"time": 672, "is_downbeat": true}, {"time": 696, "is_downbeat": false}, {"time": 720, "is_downbeat": true}, {"time": 744, "is_downbeat": false}, {"time": 768, "is_downbeat": true}, {"time": 792, "is_downbeat": false}, {"time": 816, "is_downbeat": true}, {"time": 840, "is_downbeat": false}, {"time": 864, "is_downbeat": true}, {"time": 888, "is_downbeat": false}, {"time": 912, "is_downbeat": true}, {"time": 936, "is_downbeat": false}, {"time": 960, "is_downbeat": true}, {"time": 984, "is_downbeat": false}, {"time": 1008, "is_downbeat": true}, {"time": 1032, "is_downbeat": false}, {"time": 1056, "is_downbeat": true}, {"time": 1080, "is_downbeat": false}, {"time": 1104, "is_downbeat": true}, {"time": 1128, "is_downbeat": false}, {"time": 1152, "is_downbeat": true}, {"time": 1176, "is_downbeat": false}, {"time": 1200, "is_downbeat": true}, {"time": 1224, "is_downbeat": false}, {"time": 1248, "is_downbeat": true}, {"time": 1272, "is_downbeat": false}, {"time": 1296, "is_downbeat": true}, {"time": 1320, "is_downbeat": false}], "tracks": [{"program": 0, "is_drum": false, "notes": [{"time": 0, "pitch": 60, "duration": 36, "velocity": 64}, {"time": 36, "pitch": 62, "duration": 6, "velocity": 64}, {"time": 42, "pitch": 59, "duration": 6, "velocity": 64}, {"time": 48, "pitch": 60, "duration": 36, "velocity": 64}, {"time": 84, "pitch": 62, "duration": 6, "velocity": 64}, {"time": 90, "pitch": 59, "duration": 6, "velocity": 64}, {"time": 96, "pitch": 62, "duration": 6, "velocity": 64}, {"time": 102, "pitch": 60, "duration": 6, "velocity": 64}, {"time": 108, "pitch": 59, "duration": 6, "velocity": 64}, {"time": 114, "pitch": 57, "duration": 6, "velocity": 64}, {"time": 120, "pitch": 55, "duration": 12, "velocity": 64}, {"time": 132, "pitch": 53, "duration": 12, "velocity": 64}, {"time": 144, "pitch": 52, "duration": 24, "velocity": 64}, {"time": 180, "pitch": 52, "duration": 6, "velocity": 64}, {"time": 186, "pitch": 48, "duration": 6, "velocity": 64}, {"time": 192, "pitch": 55, "duration": 12, "velocity": 64}, {"time": 204, "pitch": 55, "duration": 12, "velocity": 64}, {"time": 216, "pitch": 55, "duration": 6, "velocity": 64}, {"time": 222, "pitch": 59, "duration": 6, "velocity": 64}, {"time": 228, "pitch": 59, "duration": 6, "velocity": 64}, {"time": 234, "pitch": 62, "duration": 6, "velocity": 64}, {"time": 240, "pitch": 62, "duration": 12, "velocity": 64}, {"time": 252, "pitch": 60, "duration": 12, "velocity": 64}, {"time": 276, "pitch": 57, "duration": 6, "velocity": 64}, {"time": 282, "pitch": 60, "duration": 6, "velocity": 64}, {"time": 288, "pitch": 60, "duration": 6, "velocity": 64}, {"time": 294, "pitch": 59, "duration": 6, "velocity": 64}, {"time": 300, "pitch": 60, "duration": 6, "velocity": 64}, {"time": 306, "pitch": 57, "duration": 6, "velocity": 64}, {"time": 312, "pitch": 55, "duration": 12, "velocity": 64}, {"time": 324, "pitch": 59, "duration": 6, "velocity": 64}, {"time": 330, "pitch": 57, "duration": 6, "velocity": 64}, {"time": 336, "pitch": 55, "duration": 24, "velocity": 64}, {"time": 384, "pitch": 60, "duration": 36, "velocity": 64}, {"time": 420, "pitch": 62, "duration": 6, "velocity": 64}, {"time": 426, "pitch": 59, "duration": 6, "velocity": 64}, {"time": 432, "pitch": 60, "duration": 36, "velocity": 64}, {"time": 468, "pitch": 62, "duration": 6, "velocity": 64}, {"time": 474, "pitch": 59, "duration": 6, "velocity": 64}, {"time": 480, "pitch": 62, "duration": 6, "velocity": 64}, {"time": 486, "pitch": 60, "duration": 6, "velocity": 64}, {"time": 492, "pitch": 59, "duration": 6, "velocity": 64}, {"time": 498, "pitch": 57, "duration": 6, "velocity": 64}, {"time": 504, "pitch": 55, "duration": 12, "velocity": 64}, {"time": 516, "pitch": 53, "duration": 12, "velocity": 64}, {"time": 528, "pitch": 52, "duration": 24, "velocity": 64}, {"time": 564, "pitch": 52, "duration": 6, "velocity": 64}, {"time": 570, "pitch": 48, "duration": 6, "velocity": 64}, {"time": 576, "pitch": 55, "duration": 12, "velocity": 64}, {"time": 588, "pitch": 55, "duration": 12, "velocity": 64}, {"time": 600, "pitch": 55, "duration": 6, "velocity": 64}, {"time": 606, "pitch": 59, "duration": 6, "velocity": 64}, {"time": 612, "pitch": 59, "duration": 6, "velocity": 64}, {"time": 618, "pitch": 62, "duration": 6, "velocity": 64}, {"time": 624, "pitch": 62, "duration": 12, "velocity": 64}, {"time": 636, "pitch": 60, "duration": 12, "velocity": 64}, {"time": 660, "pitch": 57, "duration": 6, "velocity": 64}, {"time": 666, "pitch": 60, "duration": 6, "velocity": 64}, {"time": 672, "pitch": 60, "duration": 6, "velocity": 64}, {"time": 678, "pitch": 59, "duration": 6, "velocity": 64}, {"time": 684, "pitch": 60, "duration": 6, "velocity": 64}, {"time": 690, "pitch": 57, "duration": 6, "velocity": 64}, {"time": 696, "pitch": 55, "duration": 12, "velocity": 64}, {"time": 708, "pitch": 59, "duration": 6, "velocity": 64}, {"time": 714, "pitch": 57, "duration": 6, "velocity": 64}, {"time": 720, "pitch": 55, "duration": 24, "velocity": 64}, {"time": 756, "pitch": 55, "duration": 6, "velocity": 64}, {"time": 762, "pitch": 55, "duration": 6, "velocity": 64}, {"time": 768, "pitch": 60, "duration": 18, "velocity": 64}, {"time": 786, "pitch": 55, "duration": 6, "velocity": 64}, {"time": 792, "pitch": 53, "duration": 6, "velocity": 64}, {"time": 798, "pitch": 52, "duration": 6, "velocity": 64}, {"time": 804, "pitch": 50, "duration": 6, "velocity": 64}, {"time": 810, "pitch": 48, "duration": 6, "velocity": 64}, {"time": 816, "pitch": 48, "duration": 6, "velocity": 64}, {"time": 822, "pitch": 57, "duration": 6, "velocity": 64}, {"time": 828, "pitch": 57, "duration": 12, "velocity": 64}, {"time": 852, "pitch": 57, "duration": 6, "velocity": 64}, {"time": 858, "pitch": 57, "duration": 6, "velocity": 64}, {"time": 864, "pitch": 62, "duration": 18, "velocity": 64}, {"time": 882, "pitch": 57, "duration": 6, "velocity": 64}, {"time": 888, "pitch": 55, "duration": 6, "velocity": 64}, {"time": 894, "pitch": 54, "duration": 6, "velocity": 64}, {"time": 900, "pitch": 52, "duration": 6, "velocity": 64}, {"time": 906, "pitch": 50, "duration": 6, "velocity": 64}, {"time": 912, "pitch": 59, "duration": 24, "velocity": 64}, {"time": 948, "pitch": 55, "duration": 6, "velocity": 64}, {"time": 954, "pitch": 55, "duration": 6, "velocity": 64}, {"time": 960, "pitch": 60, "duration": 18, "velocity": 64}, {"time": 978, "pitch": 55, "duration": 6, "velocity": 64}, {"time": 984, "pitch": 53, "duration": 6, "velocity": 64}, {"time": 990, "pitch": 52, "duration": 6, "velocity": 64}, {"time": 996, "pitch": 50, "duration": 6, "velocity": 64}, {"time": 1002, "pitch": 48, "duration": 6, "velocity": 64}, {"time": 1008, "pitch": 57, "duration": 12, "velocity": 64}, {"time": 1020, "pitch": 57, "duration": 6, "velocity": 64}, {"time": 1026, "pitch": 59, "duration": 6, "velocity": 64}, {"time": 1032, "pitch": 60, "duration": 6, "velocity": 64}, {"time": 1038, "pitch": 57, "duration": 6, "velocity": 64}, {"time": 1044, "pitch": 55, "duration": 6, "velocity": 64}, {"time": 1050, "pitch": 53, "duration": 6, "velocity": 64}, {"time": 1056, "pitch": 52, "duration": 24, "velocity": 64}, {"time": 1080, "pitch": 50, "duration": 24, "velocity": 64}, {"time": 1104, "pitch": 48, "duration": 12, "velocity": 64}, {"time": 1116, "pitch": 64, "duration": 6, "velocity": 64}, {"time": 1122, "pitch": 64, "duration": 6, "velocity": 64}, {"time": 1128, "pitch": 64, "duration": 6, "velocity": 64}, {"time": 1134, "pitch": 64, "duration": 6, "velocity": 64}, {"time": 1140, "pitch": 64, "duration": 6, "velocity": 64}, {"time": 1146, "pitch": 64, "duration": 6, "velocity": 64}, {"time": 1152, "pitch": 62, "duration": 48, "velocity": 64}, {"time": 1200, "pitch": 64, "duration": 12, "velocity": 64}, {"time": 1212, "pitch": 64, "duration": 6, "velocity": 64}, {"time": 1218, "pitch": 64, "duration": 6, "velocity": 64}, {"time": 1224, "pitch": 64, "duration": 6, "velocity": 64}, {"time": 1230, "pitch": 64, "duration": 6, "velocity": 64}, {"time": 1236, "pitch": 64, "duration": 6, "velocity": 64}, {"time": 1242, "pitch": 64, "duration": 6, "velocity": 64}, {"time": 1248, "pitch": 62, "duration": 48, "velocity": 64}, {"time": 1296, "pitch": 60, "duration": 24, "velocity": 64}]}]}