{"metadata": {"schema_version": "0.1", "title": "AUF IHR BRUEDER SINGET LIEDER", "source_format": "abc"}, "resolution": 24, "tempos": [{"time": 0, "qpm": 120.0}], "key_signatures": [{"time": 0, "root": 3, "mode": "major", "fifths": -3}], "time_signatures": [{"time": 0, "numerator": 4, "denominator": 4}], "beats": [{"time": 0, "is_downbeat": true}, {"time": 24, "is_downbeat": false}, {"time": 48, "is_downbeat": false}, {"time": 72, "is_downbeat": false}, {"time": 96, "is_downbeat": true}, {"time": 120, "is_downbeat": false}, {"time": 144, "is_downbeat": false}, {"time": 168, "is_downbeat": false}, {"time": 192, "is_downbeat": true}, {"time": 216, "is_downbeat": false}, {"time": 240, "is_downbeat": false}, {"time": 264, "is_downbeat": false}, {"time": 288, "is_downbeat": true}, {"time": 312, "is_downbeat": false}, {"time": 336, "is_downbeat": false}, {"time": 360, "is_downbeat": false}, {"time": 384, "is_downbeat": true}, {"time": 408, "is_downbeat": false}, {"time": 432, "is_downbeat": false}, {"time": 456, "is_downbeat": false}, {"time": 480, "is_downbeat": true}, {"time": 504, "is_downbeat": false}, {"time": 528, "is_downbeat": false}, {"time": 552, "is_downbeat": false}, {"time": 576, "is_downbeat": true}, {"time": 600, "is_downbeat": false}, {"time": 624, "is_downbeat": false}, {"time": 648, "is_downbeat": false}, {"time": 672, "is_downbeat": true}, {"time": 696, "is_downbeat": false}, {"time": 720, "is_downbeat": false}, {"time": 744, "is_downbeat": false}, {"time": 768, "is_downbeat": true}, {"time": 792, "is_downbeat": false}, {"time": 816, "is_downbeat": false}, {"time": 840, "is_downbeat": false}, {"time": 864, "is_downbeat": true}, {"time": 888, "is_downbeat": false}, {"time": 912, "is_downbeat": false}, {"time": 936, "is_downbeat": false}, {"time": 960, "is_downbeat": true}, {"time": 984, "is_downbeat": false}, {"time": 1008, "is_downbeat": false}, {"time": 1032, "is_downbeat": false}, {"time": 1056, "is_downbeat": true}, {"time": 1080, "is_downbeat": false}, {"time": 1104, "is_downbeat": false}, {"time": 1128, "is_downbeat": false}, {"time": 1152, "is_downbeat": true}, {"time": 1176, "is_downbeat": false}, {"time": 1200, "is_downbeat": false}, {"time": 1224, "is_downbeat": false}, {"time": 1248, "is_downbeat": true}, {"time": 1272, "is_downbeat": false}, {"time": 1296, "is_downbeat": false}, {"time": 1320, "is_downbeat": false}, {"time": 1344, "is_downbeat": true}, {"time": 1368, "is_downbeat": false}, {"time": 1392, "is_downbeat": false}, {"time": 1416, "is_downbeat": false}, {"time": 1440, "is_downbeat": true}, {"time": 1464, "is_downbeat": false}, {"time": 1488, "is_downbeat": false}, {"time": 1512, "is_downbeat": false}], "tracks": [{"program": 0, "is_drum": false, "notes": [{"time": 0, "pitch": 55, "duration": 36, "velocity": 64}, {"time": 36, "pitch": 53, "duration": 12, "velocity": 64}, {"time": 48, "pitch": 53, "duration": 12, "velocity": 64}, {"time": 60, "pitch": 51, "duration": 12, "velocity": 64}, {"time": 72, "pitch": 51, "duration": 24, "velocity": 64}, {"time": 96, "pitch": 58, "duration": 36, "velocity": 64}, {"time": 132, "pitch": 56, "duration": 12, "velocity": 64}, {"time": 144, "pitch": 56, "duration": 12, "velocity": 64}, {"time": 156, "pitch": 55, "duration": 12, "velocity": 64}, {"time": 168, "pitch": 55, "duration": 24, "velocity": 64}, {"time": 192, "pitch": 63, "duration": 36, "velocity": 64}, {"time": 228, "pitch": 62, "duration": 12, "velocity": 64}, {"time": 240, "pitch": 60, "duration": 12, "velocity": 64}, {"time": 252, "pitch": 58, "duration": 12, "velocity": 64}, {"time": 264, "pitch": 56, "duration": 12, "velocity": 64}, {"time": 276, "pitch": 55, "duration": 12, "velocity": 64}, {"time": 288, "pitch": 58, "duration": 36, "velocity": 64}, {"time": 324, "pitch": 55, "duration": 12, "velocity": 64}, {"time": 336, "pitch": 53, "duration": 12, "velocity": 64}, {"time": 348, "pitch": 58, "duration": 12, "velocity": 64}, {"time": 360, "pitch": 56, "duration": 12, "velocity": 64}, {"time": 372, "pitch": 53, "duration": 12, "velocity": 64}, {"time": 384, "pitch": 55, "duration": 36, "velocity": 64}, {"time": 420, "pitch": 53, "duration": 12, "velocity": 64}, {"time": 432, "pitch": 53, "duration": 12, "velocity": 64}, {"time": 444, "pitch": 51, "duration": 12, "velocity": 64}, {"time": 456, "pitch": 51, "duration": 24, "velocity": 64}, {"time": 480, "pitch": 58, "duration": 36, "velocity": 64}, {"time": 516, "pitch": 56, "duration": 12, "velocity": 64}, {"time": 528, "pitch": 56, "duration": 12, "velocity": 64}, {"time": 540, "pitch": 55, "duration": 12, "velocity": 64}, {"time": 552, "pitch": 55, "duration": 24, "velocity": 64}, {"time": 576, "pitch": 63, "duration": 36, "velocity": 64}, {"time": 612, "pitch": 62, "duration": 12, "velocity": 64}, {"time": 624, "pitch": 60, "duration": 12, "velocity": 64}, {"time": 636, "pitch": 58, "duration": 12, "velocity": 64}, {"time": 648, "pitch": 56, "duration": 12, "velocity": 64}, {"time": 660, "pitch": 55, "duration": 12, "velocity": 64}, {"time": 672, "pitch": 58, "duration": 36, "velocity": 64}, {"time": 708, "pitch": 55, "duration": 12, "velocity": 64}, {"time": 720, "pitch": 53, "duration": 24, "velocity": 64}, {"time": 768, "pitch": 62, "duration": 36, "velocity": 64}, {"time": 804, "pitch": 62, "duration": 12, "velocity": 64}, {"time": 816, "pitch": 62, "duration": 12, "velocity": 64}, {"time": 828, "pitch": 60, "duration": 12, "velocity": 64}, {"time": 840, "pitch": 58, "duration": 12, "velocity": 64}, {"time": 852, "pitch": 60, "duration": 12, "velocity": 64}, {"time": 864, "pitch": 62, "duration": 24, "velocity": 64}, {"time": 888, "pitch": 63, "duration": 24, "velocity": 64}, {"time": 912, "pitch": 65, "duration": 12, "velocity": 64}, {"time": 924, "pitch": 63, "duration": 12, "velocity": 64}, {"time": 936, "pitch": 62, "duration": 12, "velocity": 64}, {"time": 948, "pitch": 60, "duration": 12, "velocity": 64}, {"time": 960, "pitch": 62, "duration": 36, "velocity": 64}, {"time": 996, "pitch": 62, "duration": 12, "velocity": 64}, {"time": 1008, "pitch": 62, "duration": 12, "velocity": 64}, {"time": 1020, "pitch": 60, "duration": 12, "velocity": 64}, {"time": 1032, "pitch": 58, "duration": 12, "velocity": 64}, {"time": 1044, "pitch": 60, "duration": 12, "velocity": 64}, {"time": 1056, "pitch": 62, "duration": 24, "velocity": 64}, {"time": 1080, "pitch": 63, "duration": 24, "velocity": 64}, {"time": 1104, "pitch": 65, "duration": 12, "velocity": 64}, {"time": 1116, "pitch": 63, "duration": 12, "velocity": 64}, {"time": 1128, "pitch": 62, "duration": 24, "velocity": 64}, {"time": 1152, "pitch": 63, "duration": 36, "velocity": 64}, {"time": 1188, "pitch": 58, "duration": 12, "velocity": 64}, {"time": 1200, "pitch": 60, "duration": 36, "velocity": 64}, {"time": 1236, "pitch": 55, "duration": 12, "velocity": 64}, {"time": 1248, "pitch": 56, "duration": 24, "velocity": 64}, {"time": 1272, "pitch": 58, "duration": 24, "velocity": 64}, {"time": 1296, "pitch": 60, "duration": 24, "velocity": 64}, {"time": 1344, "pitch": 63, "duration": 12, "velocity": 64}, {"time": 1356, "pitch": 62, "duration": 12, "velocity": 64}, {"time": 1368, "pitch": 60, "duration": 12, "velocity": 64}, {"time": 1380, "pitch": 58, "duration": 12, "velocity": 64}, {"time": 1392, "pitch": 60, "duration": 12, "velocity": 64}, {"time": 1404, "pitch": 62, "duration": 12, "velocity": 64}, {"time": 1416, "pitch": 63, "duration": 12, "velocity": 64}, {"time": 1428, "pitch": 65, "duration": 12, "velocity": 64}, {"time": 1440, "pitch": 67, "duration": 24, "velocity": 64}, {"time": 1464, "pitch": 65, "duration": 24, "velocity": 64}, {"time": 1488, "pitch": 63, "duration": 24, "velocity": 64}]}]}