{"metadata": {"schema_version": "0.1", "title": "HERR ZACHAEUS WAR EIN KREUZFIDELES HAUS", "source_format": "abc"}, "resolution": 24, "tempos": [{"time": 0, "qpm": 120.0}], "key_signatures": [{"time": 0, "root": 7, "mode": "major", "fifths": 1}], "time_signatures": [{"time": 0, "numerator": 4, "denominator": 4}, {"time": 1680, "numerator": 3, "denominator": 2}, {"time": 1824, "numerator": 3, "denominator": 4}], "beats": [{"time": 0, "is_downbeat": true}, {"time": 24, "is_downbeat": true}, {"time": 72, "is_downbeat": false}, {"time": 96, "is_downbeat": true}, {"time": 144, "is_downbeat": false}, {"time": 168, "is_downbeat": true}, {"time": 216, "is_downbeat": false}, {"time": 240, "is_downbeat": true}, {"time": 288, "is_downbeat": false}, {"time": 312, "is_downbeat": true}, {"time": 360, "is_downbeat": false}, {"time": 384, "is_downbeat": true}, {"time": 432, "is_downbeat": false}, {"time": 456, "is_downbeat": true}, {"time": 504, "is_downbeat": false}, {"time": 528, "is_downbeat": true}, {"time": 576, "is_downbeat": false}, {"time": 600, "is_downbeat": true}, {"time": 648, "is_downbeat": false}, {"time": 672, "is_downbeat": true}, {"time": 720, "is_downbeat": false}, {"time": 744, "is_downbeat": true}, {"time": 792, "is_downbeat": false}, {"time": 816, "is_downbeat": true}, {"time": 864, "is_downbeat": false}, {"time": 888, "is_downbeat": true}, {"time": 936, "is_downbeat": false}, {"time": 960, "is_downbeat": true}, {"time": 1008, "is_downbeat": false}, {"time": 1032, "is_downbeat": true}, {"time": 1080, "is_downbeat": false}, {"time": 1104, "is_downbeat": true}, {"time": 1152, "is_downbeat": false}, {"time": 1176, "is_downbeat": true}, {"time": 1224, "is_downbeat": false}, {"time": 1248, "is_downbeat": true}, {"time": 1296, "is_downbeat": false}, {"time": 1320, "is_downbeat": true}, {"time": 1368, "is_downbeat": false}, {"time": 1392, "is_downbeat": true}, {"time": 1440, "is_downbeat": false}, {"time": 1464, "is_downbeat": true}, {"time": 1512, "is_downbeat": false}, {"time": 1536, "is_downbeat": true}, {"time": 1584, "is_downbeat": false}, {"time": 1608, "is_downbeat": true}, {"time": 1656, "is_downbeat": false}, {"time": 1680, "is_downbeat": true}, {"time": 1704, "is_downbeat": false}, {"time": 1728, "is_downbeat": false}, {"time": 1752, "is_downbeat": true}, {"time": 1776, "is_downbeat": false}, {"time": 1800, "is_downbeat": false}, {"time": 1824, "is_downbeat": true}, {"time": 1848, "is_downbeat": false}, {"time": 1872, "is_downbeat": false}, {"time": 1896, "is_downbeat": true}, {"time": 1920, "is_downbeat": false}, {"time": 1944, "is_downbeat": false}], "tracks": [{"program": 0, "is_drum": false, "notes": [{"time": 0, "pitch": 67, "duration": 18, "velocity": 64}, {"time": 18, "pitch": 67, "duration": 6, "velocity": 64}, {"time": 24, "pitch": 67, "duration": 24, "velocity": 64}, {"time": 48, "pitch": 62, "duration": 24, "velocity": 64}, {"time": 72, "pitch": 71, "duration": 18, "velocity": 64}, {"time": 90, "pitch": 71, "duration": 6, "velocity": 64}, {"time": 96, "pitch": 71, "duration": 24, "velocity": 64}, {"time": 120, "pitch": 67, "duration": 24, "velocity": 64}, {"time": 144, "pitch": 71, "duration": 18, "velocity": 64}, {"time": 162, "pitch": 72, "duration": 6, "velocity": 64}, {"time": 168, "pitch": 74, "duration": 36, "velocity": 64}, {"time": 204, "pitch": 76, "duration": 12, "velocity": 64}, {"time": 216, "pitch": 74, "duration": 18, "velocity": 64}, {"time": 234, "pitch": 72, "duration": 6, "velocity": 64}, {"time": 240, "pitch": 72, "duration": 24, "velocity": 64}, {"time": 264, "pitch": 71, "duration": 24, "velocity": 64}, {"time": 306, "pitch": 74, "duration": 6, "velocity": 64}, {"time": 312, "pitch": 74, "duration": 18, "velocity": 64}, {"time": 330, "pitch": 74, "duration": 6, "velocity": 64}, {"time": 336, "pitch": 74, "duration": 36, "velocity": 64}, {"time": 372, "pitch": 76, "duration": 12, "velocity": 64}, {"time": 384, "pitch": 74, "duration": 18, "velocity": 64}, {"time": 402, "pitch": 72, "duration": 6, "velocity": 64}, {"time": 408, "pitch": 72, "duration": 48, "velocity": 64}, {"time": 456, "pitch": 71, "duration": 12, "velocity": 64}, {"time": 468, "pitch": 67, "duration": 12, "velocity": 64}, {"time": 480, "pitch": 74, "duration": 36, "velocity": 64}, {"time": 516, "pitch": 71, "duration": 12, "velocity": 64}, {"time": 528, "pitch": 71, "duration": 18, "velocity": 64}, {"time": 546, "pitch": 69, "duration": 6, "velocity": 64}, {"time": 552, "pitch": 69, "duration": 48, "velocity": 64}, {"time": 600, "pitch": 71, "duration": 18, "velocity": 64}, {"time": 618, "pitch": 72, "duration": 6, "velocity": 64}, {"time": 624, "pitch": 74, "duration": 36, "velocity": 64}, {"time": 660, "pitch": 71, "duration": 12, "velocity": 64}, {"time": 672, "pitch": 69, "duration": 24, "velocity": 64}, {"time": 696, "pitch": 67, "duration": 24, "velocity": 64}, {"time": 744, "pitch": 67, "duration": 36, "velocity": 64}, {"time": 780, "pitch": 69, "duration": 12, "velocity": 64}, {"time": 792, "pitch": 71, "duration": 12, "velocity": 64}, {"time": 804, "pitch": 72, "duration": 12, "velocity": 64}, {"time": 816, "pitch": 74, "duration": 12, "velocity": 64}, {"time": 828, "pitch": 62, "duration": 12, "velocity": 64}, {"time": 840, "pitch": 67, "duration": 24, "velocity": 64}, {"time": 888, "pitch": 67, "duration": 36, "velocity": 64}, {"time": 924, "pitch": 69, "duration": 12, "velocity": 64}, {"time": 936, "pitch": 71, "duration": 12, "velocity": 64}, {"time": 948, "pitch": 72, "duration": 12, "velocity": 64}, {"time": 960, "pitch": 74, "duration": 12, "velocity": 64}, {"time": 972, "pitch": 62, "duration": 12, "velocity": 64}, {"time": 984, "pitch": 67, "duration": 24, "velocity": 64}, {"time": 1032, "pitch": 74, "duration": 18, "velocity": 64}, {"time": 1050, "pitch": 72, "duration": 6, "velocity": 64}, {"time": 1056, "pitch": 71, "duration": 24, "velocity": 64}, {"time": 1080, "pitch": 74, "duration": 24, "velocity": 64}, {"time": 1104, "pitch": 76, "duration": 12, "velocity": 64}, {"time": 1116, "pitch": 74, "duration": 12, "velocity": 64}, {"time": 1128, "pitch": 72, "duration": 24, "velocity": 64}, {"time": 1152, "pitch": 72, "duration": 24, "velocity": 64}, {"time": 1176, "pitch": 72, "duration": 18, "velocity": 64}, {"time": 1194, "pitch": 71, "duration": 6, "velocity": 64}, {"time": 1200, "pitch": 69, "duration": 24, "velocity": 64}, {"time": 1224, "pitch": 72, "duration": 24, "velocity": 64}, {"time": 1248, "pitch": 74, "duration": 12, "velocity": 64}, {"time": 1260, "pitch": 72, "duration": 12, "velocity": 64}, {"time": 1272, "pitch": 71, "duration": 24, "velocity": 64}, {"time": 1296, "pitch": 71, "duration": 24, "velocity": 64}, {"time": 1320, "pitch": 67, "duration": 12, "velocity": 64}, {"time": 1332, "pitch": 67, "duration": 12, "velocity": 64}, {"time": 1344, "pitch": 69, "duration": 12, "velocity": 64}, {"time": 1356, "pitch": 69, "duration": 12, "velocity": 64}, {"time": 1368, "pitch": 71, "duration": 12, "velocity": 64}, {"time": 1380, "pitch": 71, "duration": 12, "velocity": 64}, {"time": 1392, "pitch": 72, "duration": 12, "velocity": 64}, {"time": 1404, "pitch": 73, "duration": 12, "velocity": 64}, {"time": 1416, "pitch": 74, "duration": 36, "velocity": 64}, {"time": 1452, "pitch": 74, "duration": 12, "velocity": 64}, {"time": 1464, "pitch": 67, "duration": 24, "velocity": 64}, {"time": 1500, "pitch": 67, "duration": 18, "velocity": 64}, {"time": 1518, "pitch": 69, "duration": 6, "velocity": 64}, {"time": 1524, "pitch": 71, "duration": 6, "velocity": 64}, {"time": 1530, "pitch": 72, "duration": 6, "velocity": 64}, {"time": 1536, "pitch": 74, "duration": 12, "velocity": 64}, {"time": 1548, "pitch": 71, "duration": 12, "velocity": 64}, {"time": 1560, "pitch": 69, "duration": 12, "velocity": 64}, {"time": 1572, "pitch": 71, "duration": 24, "velocity": 64}, {"time": 1608, "pitch": 74, "duration": 12, "velocity": 64}, {"time": 1620, "pitch": 74, "duration": 12, "velocity": 64}, {"time": 1632, "pitch": 74, "duration": 12, "velocity": 64}, {"time": 1644, "pitch": 76, "duration": 12, "velocity": 64}, {"time": 1656, "pitch": 76, "duration": 12, "velocity": 64}, {"time": 1668, "pitch": 76, "duration": 12, "velocity": 64}, {"time": 1680, "pitch": 72, "duration": 12, "velocity": 64}, {"time": 1692, "pitch": 72, "duration": 12, "velocity": 64}, {"time": 1704, "pitch": 72, "duration": 12, "velocity": 64}, {"time": 1716, "pitch": 74, "duration": 12, "velocity": 64}, {"time": 1728, "pitch": 74, "duration": 12, "velocity": 64}, {"time": 1740, "pitch": 74, "duration": 12, "velocity": 64}, {"time": 1752, "pitch": 67, "duration": 18, "velocity": 64}, {"time": 1770, "pitch": 69, "duration": 6, "velocity": 64}, {"time": 1776, "pitch": 71, "duration": 6, "velocity": 64}, {"time": 1782, "pitch": 72, "duration": 6, "velocity": 64}, {"time": 1788, "pitch": 74, "duration": 12, "velocity": 64}, {"time": 1800, "pitch": 71, "duration": 12, "velocity": 64}, {"time": 1812, "pitch": 69, "duration": 12, "velocity": 64}, {"time": 1824, "pitch": 67, "duration": 12, "velocity": 64}, {"time": 1836, "pitch": 71, "duration": 6, "velocity": 64}, {"time": 1842, "pitch": 71, "duration": 6, "velocity": 64}, {"time": 1848, "pitch": 71, "duration": 6, "velocity": 64}, {"time": 1854, "pitch": 71, "duration": 6, "velocity": 64}, {"time": 1860, "pitch": 71, "duration": 36, "velocity": 64}]}]}