{"metadata": {"schema_version": "0.1", "title": "BRUEDER NUETZT DAS FREIE LEBEN", "source_format": "abc"}, "resolution": 24, "tempos": [{"time": 0, "qpm": 120.0}], "key_signatures": [{"time": 0, "root": 10, "mode": "major", "fifths": -2}], "time_signatures": [{"time": 0, "numerator": 3, "denominator": 2}], "beats": [{"time": 0, "is_downbeat": true}, {"time": 48, "is_downbeat": true}, {"time": 96, "is_downbeat": false}, {"time": 144, "is_downbeat": false}, {"time": 192, "is_downbeat": true}, {"time": 240, "is_downbeat": false}, {"time": 288, "is_downbeat": false}, {"time": 336, "is_downbeat": true}, {"time": 384, "is_downbeat": false}, {"time": 432, "is_downbeat": false}, {"time": 480, "is_downbeat": true}, {"time": 528, "is_downbeat": false}, {"time": 576, "is_downbeat": false}, {"time": 624, "is_downbeat": true}, {"time": 672, "is_downbeat": false}, {"time": 720, "is_downbeat": false}, {"time": 768, "is_downbeat": true}, {"time": 816, "is_downbeat": false}, {"time": 864, "is_downbeat": false}, {"time": 912, "is_downbeat": true}, {"time": 960, "is_downbeat": false}, {"time": 1008, "is_downbeat": false}, {"time": 1056, "is_downbeat": true}, {"time": 1104, "is_downbeat": false}, {"time": 1152, "is_downbeat": false}, {"time": 1200, "is_downbeat": true}, {"time": 1248, "is_downbeat": false}, {"time": 1296, "is_downbeat": false}, {"time": 1344, "is_downbeat": true}, {"time": 1392, "is_downbeat": false}, {"time": 1440, "is_downbeat": false}, {"time": 1488, "is_downbeat": true}, {"time": 1536, "is_downbeat": false}, {"time": 1584, "is_downbeat": false}, {"time": 1632, "is_downbeat": true}, {"time": 1680, "is_downbeat": false}, {"time": 1728, "is_downbeat": false}], "tracks": [{"program": 0, "is_drum": false, "notes": [{"time": 0, "pitch": 70, "duration": 24, "velocity": 64}, {"time": 24, "pitch": 65, "duration": 24, "velocity": 64}, {"time": 48, "pitch": 67, "duration": 48, "velocity": 64}, {"time": 96, "pitch": 69, "duration": 48, "velocity": 64}, {"time": 144, "pitch": 70, "duration": 12, "velocity": 64}, {"time": 156, "pitch": 72, "duration": 12, "velocity": 64}, {"time": 168, "pitch": 74, "duration": 12, "velocity": 64}, {"time": 180, "pitch": 70, "duration": 12, "velocity": 64}, {"time": 192, "pitch": 65, "duration": 48, "velocity": 64}, {"time": 240, "pitch": 62, "duration": 48, "velocity": 64}, {"time": 288, "pitch": 65, "duration": 24, "velocity": 64}, {"time": 312, "pitch": 70, "duration": 24, "velocity": 64}, {"time": 336, "pitch": 67, "duration": 48, "velocity": 64}, {"time": 384, "pitch": 75, "duration": 48, "velocity": 64}, {"time": 432, "pitch": 74, "duration": 12, "velocity": 64}, {"time": 444, "pitch": 72, "duration": 12, "velocity": 64}, {"time": 456, "pitch": 70, "duration": 12, "velocity": 64}, {"time": 468, "pitch": 69, "duration": 12, "velocity": 64}, {"time": 480, "pitch": 70, "duration": 48, "velocity": 64}, {"time": 576, "pitch": 70, "duration": 24, "velocity": 64}, {"time": 600, "pitch": 65, "duration": 24, "velocity": 64}, {"time": 624, "pitch": 67, "duration": 48, "velocity": 64}, {"time": 672, "pitch": 69, "duration": 48, "velocity": 64}, {"time": 720, "pitch": 70, "duration": 12, "velocity": 64}, {"time": 732, "pitch": 72, "duration": 12, "velocity": 64}, {"time": 744, "pitch": 74, "duration": 12, "velocity": 64}, {"time": 756, "pitch": 70, "duration": 12, "velocity": 64}, {"time": 768, "pitch": 65, "duration": 48, "velocity": 64}, {"time": 816, "pitch": 62, "duration": 48, "velocity": 64}, {"time": 864, "pitch": 65, "duration": 24, "velocity": 64}, {"time": 888, "pitch": 70, "duration": 24, "velocity": 64}, {"time": 912, "pitch": 67, "duration": 48, "velocity": 64}, {"time": 960, "pitch": 75, "duration": 48, "velocity": 64}, {"time": 1008, "pitch": 74, "duration": 12, "velocity": 64}, {"time": 1020, "pitch": 72, "duration": 12, "velocity": 64}, {"time": 1032, "pitch": 70, "duration": 12, "velocity": 64}, {"time": 1044, "pitch": 69, "duration": 12, "velocity": 64}, {"time": 1056, "pitch": 70, "duration": 48, "velocity": 64}, {"time": 1152, "pitch": 69, "duration": 24, "velocity": 64}, {"time": 1176, "pitch": 70, "duration": 24, "velocity": 64}, {"time": 1200, "pitch": 72, "duration": 48, "velocity": 64}, {"time": 1248, "pitch": 77, "duration": 48, "velocity": 64}, {"time": 1296, "pitch": 72, "duration": 24, "velocity": 64}, {"time": 1320, "pitch": 69, "duration": 24, "velocity": 64}, {"time": 1344, "pitch": 70, "duration": 12, "velocity": 64}, {"time": 1356, "pitch": 72, "duration": 12, "velocity": 64}, {"time": 1368, "pitch": 74, "duration": 12, "velocity": 64}, {"time": 1380, "pitch": 75, "duration": 12, "velocity": 64}, {"time": 1392, "pitch": 77, "duration": 24, "velocity": 64}, {"time": 1440, "pitch": 79, "duration": 24, "velocity": 64}, {"time": 1464, "pitch": 79, "duration": 24, "velocity": 64}, {"time": 1488, "pitch": 77, "duration": 72, "velocity": 64}, {"time": 1560, "pitch": 74, "duration": 24, "velocity": 64}, {"time": 1584, "pitch": 77, "duration": 12, "velocity": 64}, {"time": 1596, "pitch": 75, "duration": 12, "velocity": 64}, {"time": 1608, "pitch": 74, "duration": 12, "velocity": 64}, {"time": 1620, "pitch": 72, "duration": 12, "velocity": 64}, {"time": 1632, "pitch": 72, "duration": 48, "velocity": 64}, {"time": 1680, "pitch": 70, "duration": 24, "velocity": 64}]}]}