{"metadata": {"schema_version": "0.1", "title": "IN WARSCHAU SCHWUREN TAUSEND", "source_format": "abc"}, "resolution": 24, "tempos": [{"time": 0, "qpm": 120.0}], "key_signatures": [{"time": 0, "root": 8, "mode": "major", "fifths": -4}], "time_signatures": [{"time": 0, "numerator": 4, "denominator": 4}], "beats": [{"time": 0, "is_downbeat": true}, {"time": 24, "is_downbeat": false}, {"time": 30, "is_downbeat": true}, {"time": 54, "is_downbeat": false}, {"time": 78, "is_downbeat": false}, {"time": 102, "is_downbeat": false}, {"time": 126, "is_downbeat": true}, {"time": 150, "is_downbeat": false}, {"time": 174, "is_downbeat": false}, {"time": 198, "is_downbeat": false}, {"time": 222, "is_downbeat": true}, {"time": 246, "is_downbeat": false}, {"time": 270, "is_downbeat": false}, {"time": 294, "is_downbeat": false}, {"time": 318, "is_downbeat": true}, {"time": 342, "is_downbeat": false}, {"time": 366, "is_downbeat": false}, {"time": 390, "is_downbeat": false}, {"time": 414, "is_downbeat": true}, {"time": 438, "is_downbeat": false}, {"time": 462, "is_downbeat": false}, {"time": 486, "is_downbeat": false}, {"time": 510, "is_downbeat": true}, {"time": 534, "is_downbeat": false}, {"time": 558, "is_downbeat": false}, {"time": 582, "is_downbeat": false}, {"time": 606, "is_downbeat": true}, {"time": 630, "is_downbeat": false}, {"time": 654, "is_downbeat": false}, {"time": 678, "is_downbeat": false}, {"time": 702, "is_downbeat": true}, {"time": 726, "is_downbeat": false}, {"time": 750, "is_downbeat": false}, {"time": 774, "is_downbeat": false}, {"time": 798, "is_downbeat": true}, {"time": 822, "is_downbeat": false}, {"time": 846, "is_downbeat": false}, {"time": 870, "is_downbeat": false}, {"time": 894, "is_downbeat": true}, {"time": 918, "is_downbeat": false}, {"time": 942, "is_downbeat": false}, {"time": 966, "is_downbeat": false}, {"time": 990, "is_downbeat": true}, {"time": 1014, "is_downbeat": false}, {"time": 1038, "is_downbeat": false}, {"time": 1062, "is_downbeat": false}, {"time": 1086, "is_downbeat": true}, {"time": 1110, "is_downbeat": false}, {"time": 1134, "is_downbeat": false}, {"time": 1158, "is_downbeat": false}], "tracks": [{"program": 0, "is_drum": false, "notes": [{"time": 0, "pitch": 63, "duration": 6, "velocity": 64}, {"time": 6, "pitch": 63, "duration": 18, "velocity": 64}, {"time": 24, "pitch": 63, "duration": 6, "velocity": 64}, {"time": 30, "pitch": 72, "duration": 36, "velocity": 64}, {"time": 66, "pitch": 68, "duration": 12, "velocity": 64}, {"time": 78, "pitch": 63, "duration": 18, "velocity": 64}, {"time": 96, "pitch": 63, "duration": 6, "velocity": 64}, {"time": 102, "pitch": 68, "duration": 18, "velocity": 64}, {"time": 120, "pitch": 72, "duration": 6, "velocity": 64}, {"time": 126, "pitch": 75, "duration": 12, "velocity": 64}, {"time": 138, "pitch": 72, "duration": 12, "velocity": 64}, {"time": 150, "pitch": 68, "duration": 24, "velocity": 64}, {"time": 186, "pitch": 72, "duration": 12, "velocity": 64}, {"time": 198, "pitch": 70, "duration": 12, "velocity": 64}, {"time": 210, "pitch": 69, "duration": 12, "velocity": 64}, {"time": 222, "pitch": 70, "duration": 36, "velocity": 64}, {"time": 258, "pitch": 70, "duration": 12, "velocity": 64}, {"time": 270, "pitch": 72, "duration": 12, "velocity": 64}, {"time": 282, "pitch": 70, "duration": 12, "velocity": 64}, {"time": 294, "pitch": 68, "duration": 12, "velocity": 64}, {"time": 306, "pitch": 65, "duration": 12, "velocity": 64}, {"time": 318, "pitch": 63, "duration": 24, "velocity": 64}, {"time": 384, "pitch": 63, "duration": 6, "velocity": 64}, {"time": 390, "pitch": 63, "duration": 18, "velocity": 64}, {"time": 408, "pitch": 63, "duration": 6, "velocity": 64}, {"time": 414, "pitch": 70, "duration": 36, "velocity": 64}, {"time": 450, "pitch": 65, "duration": 12, "velocity": 64}, {"time": 462, "pitch": 61, "duration": 12, "velocity": 64}, {"time": 474, "pitch": 65, "duration": 12, "velocity": 64}, {"time": 486, "pitch": 70, "duration": 12, "velocity": 64}, {"time": 498, "pitch": 72, "duration": 12, "velocity": 64}, {"time": 510, "pitch": 73, "duration": 18, "velocity": 64}, {"time": 528, "pitch": 72, "duration": 6, "velocity": 64}, {"time": 534, "pitch": 70, "duration": 24, "velocity": 64}, {"time": 570, "pitch": 70, "duration": 12, "velocity": 64}, {"time": 582, "pitch": 72, "duration": 12, "velocity": 64}, {"time": 594, "pitch": 73, "duration": 12, "velocity": 64}, {"time": 606, "pitch": 72, "duration": 36, "velocity": 64}, {"time": 642, "pitch": 72, "duration": 12, "velocity": 64}, {"time": 654, "pitch": 72, "duration": 18, "velocity": 64}, {"time": 672, "pitch": 60, "duration": 6, "velocity": 64}, {"time": 678, "pitch": 62, "duration": 18, "velocity": 64}, {"time": 696, "pitch": 64, "duration": 6, "velocity": 64}, {"time": 702, "pitch": 65, "duration": 24, "velocity": 64}, {"time": 762, "pitch": 72, "duration": 12, "velocity": 64}, {"time": 774, "pitch": 70, "duration": 12, "velocity": 64}, {"time": 786, "pitch": 68, "duration": 12, "velocity": 64}, {"time": 798, "pitch": 70, "duration": 36, "velocity": 64}, {"time": 834, "pitch": 63, "duration": 12, "velocity": 64}, {"time": 846, "pitch": 63, "duration": 18, "velocity": 64}, {"time": 864, "pitch": 63, "duration": 6, "velocity": 64}, {"time": 870, "pitch": 63, "duration": 18, "velocity": 64}, {"time": 888, "pitch": 63, "duration": 6, "velocity": 64}, {"time": 894, "pitch": 72, "duration": 24, "velocity": 64}, {"time": 954, "pitch": 68, "duration": 12, "velocity": 64}, {"time": 966, "pitch": 68, "duration": 12, "velocity": 64}, {"time": 978, "pitch": 68, "duration": 12, "velocity": 64}, {"time": 990, "pitch": 75, "duration": 12, "velocity": 64}, {"time": 1002, "pitch": 73, "duration": 12, "velocity": 64}, {"time": 1014, "pitch": 70, "duration": 12, "velocity": 64}, {"time": 1026, "pitch": 67, "duration": 12, "velocity": 64}, {"time": 1038, "pitch": 63, "duration": 12, "velocity": 64}, {"time": 1050, "pitch": 61, "duration": 12, "velocity": 64}, {"time": 1062, "pitch": 60, "duration": 12, "velocity": 64}, {"time": 1074, "pitch": 58, "duration": 12, "velocity": 64}, {"time": 1086, "pitch": 56, "duration": 24, "velocity": 64}]}]}