{"metadata": {"schema_version": "0.1", "title": "LUSTIG IHR LEUTE SOLDATEN SIND DA", "source_format": "abc"}, "resolution": 24, "tempos": [{"time": 0, "qpm": 120.0}], "key_signatures": [{"time": 0, "root": 0, "mode": "major", "fifths": 0}], "time_signatures": [{"time": 0, "numerator": 3, "denominator": 4}], "beats": [{"time": 0, "is_downbeat": true}, {"time": 24, "is_downbeat": false}, {"time": 48, "is_downbeat": false}, {"time": 72, "is_downbeat": true}, {"time": 96, "is_downbeat": false}, {"time": 120, "is_downbeat": false}, {"time": 144, "is_downbeat": true}, {"time": 168, "is_downbeat": false}, {"time": 192, "is_downbeat": false}, {"time": 216, "is_downbeat": true}, {"time": 240, "is_downbeat": false}, {"time": 264, "is_downbeat": false}, {"time": 288, "is_downbeat": true}, {"time": 312, "is_downbeat": false}, {"time": 336, "is_downbeat": false}, {"time": 360, "is_downbeat": true}, {"time": 384, "is_downbeat": false}, {"time": 408, "is_downbeat": false}, {"time": 432, "is_downbeat": true}, {"time": 456, "is_downbeat": false}, {"time": 480, "is_downbeat": false}, {"time": 504, "is_downbeat": true}, {"time": 528, "is_downbeat": false}, {"time": 552, "is_downbeat": false}, {"time": 576, "is_downbeat": true}, {"time": 600, "is_downbeat": false}, {"time": 624, "is_downbeat": false}, {"time": 648, "is_downbeat": true}, {"time": 672, "is_downbeat": false}, {"time": 696, "is_downbeat": false}, {"time": 720, "is_downbeat": true}, {"time": 744, "is_downbeat": false}, {"time": 768, "is_downbeat": false}, {"time": 792, "is_downbeat": true}, {"time": 816, "is_downbeat": false}, {"time": 840, "is_downbeat": false}, {"time": 864, "is_downbeat": true}, {"time": 888, "is_downbeat": false}, {"time": 912, "is_downbeat": false}, {"time": 936, "is_downbeat": true}, {"time": 960, "is_downbeat": false}, {"time": 984, "is_downbeat": false}, {"time": 1008, "is_downbeat": true}, {"time": 1032, "is_downbeat": false}, {"time": 1056, "is_downbeat": false}, {"time": 1080, "is_downbeat": true}, {"time": 1104, "is_downbeat": false}, {"time": 1128, "is_downbeat": false}, {"time": 1152, "is_downbeat": true}, {"time": 1176, "is_downbeat": false}, {"time": 1200, "is_downbeat": false}, {"time": 1224, "is_downbeat": true}, {"time": 1248, "is_downbeat": false}, {"time": 1272, "is_downbeat": false}, {"time": 1296, "is_downbeat": true}, {"time": 1320, "is_downbeat": false}, {"time": 1344, "is_downbeat": false}, {"time": 1368, "is_downbeat": true}, {"time": 1392, "is_downbeat": false}, {"time": 1416, "is_downbeat": false}, {"time": 1440, "is_downbeat": true}, {"time": 1464, "is_downbeat": false}, {"time": 1488, "is_downbeat": false}, {"time": 1512, "is_downbeat": true}, {"time": 1536, "is_downbeat": false}, {"time": 1560, "is_downbeat": false}], "tracks": [{"program": 0, "is_drum": false, "notes": [{"time": 0, "pitch": 55, "duration": 36, "velocity": 64}, {"time": 36, "pitch": 52, "duration": 12, "velocity": 64}, {"time": 48, "pitch": 55, "duration": 24, "velocity": 64}, {"time": 72, "pitch": 60, "duration": 36, "velocity": 64}, {"time": 108, "pitch": 62, "duration": 12, "velocity": 64}, {"time": 120, "pitch": 64, "duration": 24, "velocity": 64}, {"time": 144, "pitch": 62, "duration": 24, "velocity": 64}, {"time": 168, "pitch": 67, "duration": 24, "velocity": 64}, {"time": 192, "pitch": 67, "duration": 24, "velocity": 64}, {"time": 216, "pitch": 60, "duration": 24, "velocity": 64}, {"time": 240, "pitch": 64, "duration": 24, "velocity": 64}, {"time": 264, "pitch": 64, "duration": 24, "velocity": 64}, {"time": 288, "pitch": 62, "duration": 24, "velocity": 64}, {"time": 312, "pitch": 67, "duration": 24, "velocity": 64}, {"time": 336, "pitch": 59, "duration": 24, "velocity": 64}, {"time": 360, "pitch": 60, "duration": 48, "velocity": 64}, {"time": 432, "pitch": 55, "duration": 36, "velocity": 64}, {"time": 468, "pitch": 52, "duration": 12, "velocity": 64}, {"time": 480, "pitch": 55, "duration": 24, "velocity": 64}, {"time": 504, "pitch": 60, "duration": 36, "velocity": 64}, {"time": 540, "pitch": 62, "duration": 12, "velocity": 64}, {"time": 552, "pitch": 64, "duration": 24, "velocity": 64}, {"time": 576, "pitch": 62, "duration": 24, "velocity": 64}, {"time": 600, "pitch": 67, "duration": 24, "velocity": 64}, {"time": 624, "pitch": 67, "duration": 24, "velocity": 64}, {"time": 648, "pitch": 60, "duration": 24, "velocity": 64}, {"time": 672, "pitch": 64, "duration": 24, "velocity": 64}, {"time": 696, "pitch": 64, "duration": 24, "velocity": 64}, {"time": 720, "pitch": 62, "duration": 24, "velocity": 64}, {"time": 744, "pitch": 67, "duration": 24, "velocity": 64}, {"time": 768, "pitch": 59, "duration": 24, "velocity": 64}, {"time": 792, "pitch": 60, "duration": 48, "velocity": 64}, {"time": 864, "pitch": 55, "duration": 24, "velocity": 64}, {"time": 888, "pitch": 55, "duration": 24, "velocity": 64}, {"time": 912, "pitch": 60, "duration": 24, "velocity": 64}, {"time": 936, "pitch": 57, "duration": 36, "velocity": 64}, {"time": 972, "pitch": 57, "duration": 12, "velocity": 64}, {"time": 984, "pitch": 57, "duration": 24, "velocity": 64}, {"time": 1008, "pitch": 57, "duration": 24, "velocity": 64}, {"time": 1032, "pitch": 59, "duration": 24, "velocity": 64}, {"time": 1056, "pitch": 60, "duration": 24, "velocity": 64}, {"time": 1080, "pitch": 62, "duration": 36, "velocity": 64}, {"time": 1116, "pitch": 64, "duration": 12, "velocity": 64}, {"time": 1128, "pitch": 62, "duration": 24, "velocity": 64}, {"time": 1152, "pitch": 60, "duration": 12, "velocity": 64}, {"time": 1164, "pitch": 59, "duration": 12, "velocity": 64}, {"time": 1176, "pitch": 57, "duration": 12, "velocity": 64}, {"time": 1188, "pitch": 55, "duration": 12, "velocity": 64}, {"time": 1200, "pitch": 55, "duration": 24, "velocity": 64}, {"time": 1224, "pitch": 60, "duration": 36, "velocity": 64}, {"time": 1260, "pitch": 62, "duration": 12, "velocity": 64}, {"time": 1272, "pitch": 64, "duration": 24, "velocity": 64}, {"time": 1296, "pitch": 62, "duration": 24, "velocity": 64}, {"time": 1320, "pitch": 67, "duration": 24, "velocity": 64}, {"time": 1344, "pitch": 67, "duration": 24, "velocity": 64}, {"time": 1368, "pitch": 60, "duration": 24, "velocity": 64}, {"time": 1392, "pitch": 64, "duration": 24, "velocity": 64}, {"time": 1416, "pitch": 64, "duration": 24, "velocity": 64}, {"time": 1440, "pitch": 62, "duration": 24, "velocity": 64}, {"time": 1464, "pitch": 67, "duration": 24, "velocity": 64}, {"time": 1488, "pitch": 59, "duration": 24, "velocity": 64}, {"time": 1512, "pitch": 60, "duration": 48, "velocity": 64}]}]}