{"metadata": {"schema_version": "0.1", "title": "DIE TROMMEL RUFT DROMMETE KLINGT", "source_format": "abc"}, "resolution": 24, "tempos": [{"time": 0, "qpm": 120.0}], "key_signatures": [{"time": 0, "root": 10, "mode": "major", "fifths": -2}], "time_signatures": [{"time": 0, "numerator": 4, "denominator": 4}], "beats": [{"time": 0, "is_downbeat": true}, {"time": 12, "is_downbeat": true}, {"time": 36, "is_downbeat": false}, {"time": 60, "is_downbeat": false}, {"time": 84, "is_downbeat": false}, {"time": 108, "is_downbeat": true}, {"time": 132, "is_downbeat": false}, {"time": 156, "is_downbeat": false}, {"time": 180, "is_downbeat": false}, {"time": 204, "is_downbeat": true}, {"time": 228, "is_downbeat": false}, {"time": 252, "is_downbeat": false}, {"time": 276, "is_downbeat": false}, {"time": 300, "is_downbeat": true}, {"time": 324, "is_downbeat": false}, {"time": 348, "is_downbeat": false}, {"time": 372, "is_downbeat": false}, {"time": 396, "is_downbeat": true}, {"time": 420, "is_downbeat": false}, {"time": 444, "is_downbeat": false}, {"time": 468, "is_downbeat": false}, {"time": 492, "is_downbeat": true}, {"time": 516, "is_downbeat": false}, {"time": 540, "is_downbeat": false}, {"time": 564, "is_downbeat": false}, {"time": 588, "is_downbeat": true}, {"time": 612, "is_downbeat": false}, {"time": 636, "is_downbeat": false}, {"time": 660, "is_downbeat": false}, {"time": 684, "is_downbeat": true}, {"time": 708, "is_downbeat": false}, {"time": 732, "is_downbeat": false}, {"time": 756, "is_downbeat": false}, {"time": 780, "is_downbeat": true}, {"time": 804, "is_downbeat": false}, {"time": 828, "is_downbeat": false}, {"time": 852, "is_downbeat": false}, {"time": 876, "is_downbeat": true}, {"time": 900, "is_downbeat": false}, {"time": 924, "is_downbeat": false}, {"time": 948, "is_downbeat": false}, {"time": 972, "is_downbeat": true}, {"time": 996, "is_downbeat": false}, {"time": 1020, "is_downbeat": false}, {"time": 1044, "is_downbeat": false}, {"time": 1068, "is_downbeat": true}, {"time": 1092, "is_downbeat": false}, {"time": 1116, "is_downbeat": false}, {"time": 1140, "is_downbeat": false}], "tracks": [{"program": 0, "is_drum": false, "notes": [{"time": 0, "pitch": 65, "duration": 12, "velocity": 64}, {"time": 12, "pitch": 70, "duration": 18, "velocity": 64}, {"time": 30, "pitch": 65, "duration": 6, "velocity": 64}, {"time": 36, "pitch": 62, "duration": 18, "velocity": 64}, {"time": 54, "pitch": 65, "duration": 6, "velocity": 64}, {"time": 60, "pitch": 70, "duration": 18, "velocity": 64}, {"time": 78, "pitch": 65, "duration": 6, "velocity": 64}, {"time": 84, "pitch": 62, "duration": 18, "velocity": 64}, {"time": 102, "pitch": 65, "duration": 6, "velocity": 64}, {"time": 108, "pitch": 70, "duration": 18, "velocity": 64}, {"time": 126, "pitch": 69, "duration": 6, "velocity": 64}, {"time": 132, "pitch": 70, "duration": 18, "velocity": 64}, {"time": 150, "pitch": 72, "duration": 6, "velocity": 64}, {"time": 156, "pitch": 74, "duration": 24, "velocity": 64}, {"time": 180, "pitch": 70, "duration": 24, "velocity": 64}, {"time": 204, "pitch": 74, "duration": 18, "velocity": 64}, {"time": 222, "pitch": 72, "duration": 6, "velocity": 64}, {"time": 228, "pitch": 74, "duration": 18, "velocity": 64}, {"time": 246, "pitch": 75, "duration": 6, "velocity": 64}, {"time": 252, "pitch": 77, "duration": 18, "velocity": 64}, {"time": 270, "pitch": 77, "duration": 6, "velocity": 64}, {"time": 276, "pitch": 75, "duration": 18, "velocity": 64}, {"time": 294, "pitch": 74, "duration": 6, "velocity": 64}, {"time": 300, "pitch": 72, "duration": 24, "velocity": 64}, {"time": 324, "pitch": 72, "duration": 24, "velocity": 64}, {"time": 348, "pitch": 72, "duration": 24, "velocity": 64}, {"time": 384, "pitch": 65, "duration": 12, "velocity": 64}, {"time": 396, "pitch": 70, "duration": 18, "velocity": 64}, {"time": 414, "pitch": 65, "duration": 6, "velocity": 64}, {"time": 420, "pitch": 62, "duration": 18, "velocity": 64}, {"time": 438, "pitch": 65, "duration": 6, "velocity": 64}, {"time": 444, "pitch": 70, "duration": 18, "velocity": 64}, {"time": 462, "pitch": 65, "duration": 6, "velocity": 64}, {"time": 468, "pitch": 62, "duration": 18, "velocity": 64}, {"time": 486, "pitch": 65, "duration": 6, "velocity": 64}, {"time": 492, "pitch": 70, "duration": 18, "velocity": 64}, {"time": 510, "pitch": 69, "duration": 6, "velocity": 64}, {"time": 516, "pitch": 70, "duration": 18, "velocity": 64}, {"time": 534, "pitch": 72, "duration": 6, "velocity": 64}, {"time": 540, "pitch": 74, "duration": 24, "velocity": 64}, {"time": 564, "pitch": 70, "duration": 24, "velocity": 64}, {"time": 588, "pitch": 74, "duration": 18, "velocity": 64}, {"time": 606, "pitch": 72, "duration": 6, "velocity": 64}, {"time": 612, "pitch": 74, "duration": 18, "velocity": 64}, {"time": 630, "pitch": 75, "duration": 6, "velocity": 64}, {"time": 636, "pitch": 77, "duration": 18, "velocity": 64}, {"time": 654, "pitch": 77, "duration": 6, "velocity": 64}, {"time": 660, "pitch": 75, "duration": 18, "velocity": 64}, {"time": 678, "pitch": 74, "duration": 6, "velocity": 64}, {"time": 684, "pitch": 72, "duration": 24, "velocity": 64}, {"time": 708, "pitch": 72, "duration": 24, "velocity": 64}, {"time": 732, "pitch": 72, "duration": 24, "velocity": 64}, {"time": 780, "pitch": 72, "duration": 18, "velocity": 64}, {"time": 798, "pitch": 74, "duration": 6, "velocity": 64}, {"time": 804, "pitch": 72, "duration": 18, "velocity": 64}, {"time": 822, "pitch": 70, "duration": 6, "velocity": 64}, {"time": 828, "pitch": 69, "duration": 18, "velocity": 64}, {"time": 846, "pitch": 67, "duration": 6, "velocity": 64}, {"time": 852, "pitch": 65, "duration": 18, "velocity": 64}, {"time": 870, "pitch": 69, "duration": 6, "velocity": 64}, {"time": 876, "pitch": 72, "duration": 18, "velocity": 64}, {"time": 894, "pitch": 70, "duration": 6, "velocity": 64}, {"time": 900, "pitch": 72, "duration": 18, "velocity": 64}, {"time": 918, "pitch": 74, "duration": 6, "velocity": 64}, {"time": 924, "pitch": 75, "duration": 24, "velocity": 64}, {"time": 948, "pitch": 72, "duration": 24, "velocity": 64}, {"time": 972, "pitch": 74, "duration": 18, "velocity": 64}, {"time": 990, "pitch": 72, "duration": 6, "velocity": 64}, {"time": 996, "pitch": 74, "duration": 18, "velocity": 64}, {"time": 1014, "pitch": 75, "duration": 6, "velocity": 64}, {"time": 1020, "pitch": 77, "duration": 18, "velocity": 64}, {"time": 1038, "pitch": 77, "duration": 6, "velocity": 64}, {"time": 1044, "pitch": 70, "duration": 18, "velocity": 64}, {"time": 1062, "pitch": 72, "duration": 6, "velocity": 64}, {"time": 1068, "pitch": 74, "duration": 24, "velocity": 64}, {"time": 1092, "pitch": 72, "duration": 18, "velocity": 64}, {"time": 1110, "pitch": 72, "duration": 6, "velocity": 64}, {"time": 1116, "pitch": 70, "duration": 24, "velocity": 64}]}]}