{"metadata": {"schema_version": "0.1", "title": "BIN DER KLEINE TAMBOUR VEIT", "source_format": "abc"}, "resolution": 24, "tempos": [{"time": 0, "qpm": 120.0}], "key_signatures": [{"time": 0, "root": 10, "mode": "major", "fifths": -2}], "time_signatures": [{"time": 0, "numerator": 4, "denominator": 4}], "beats": [{"time": 0, "is_downbeat": true}, {"time": 24, "is_downbeat": true}, {"time": 48, "is_downbeat": false}, {"time": 72, "is_downbeat": false}, {"time": 96, "is_downbeat": false}, {"time": 120, "is_downbeat": true}, {"time": 144, "is_downbeat": false}, {"time": 168, "is_downbeat": false}, {"time": 192, "is_downbeat": false}, {"time": 216, "is_downbeat": true}, {"time": 240, "is_downbeat": false}, {"time": 264, "is_downbeat": false}, {"time": 288, "is_downbeat": false}, {"time": 312, "is_downbeat": true}, {"time": 336, "is_downbeat": false}, {"time": 360, "is_downbeat": false}, {"time": 384, "is_downbeat": false}, {"time": 408, "is_downbeat": true}, {"time": 432, "is_downbeat": false}, {"time": 456, "is_downbeat": false}, {"time": 480, "is_downbeat": false}, {"time": 504, "is_downbeat": true}, {"time": 528, "is_downbeat": false}, {"time": 552, "is_downbeat": false}, {"time": 576, "is_downbeat": false}, {"time": 600, "is_downbeat": true}, {"time": 624, "is_downbeat": false}, {"time": 648, "is_downbeat": false}, {"time": 672, "is_downbeat": false}, {"time": 696, "is_downbeat": true}, {"time": 720, "is_downbeat": false}, {"time": 744, "is_downbeat": false}, {"time": 768, "is_downbeat": false}, {"time": 792, "is_downbeat": true}, {"time": 816, "is_downbeat": false}, {"time": 840, "is_downbeat": false}, {"time": 864, "is_downbeat": false}, {"time": 888, "is_downbeat": true}, {"time": 912, "is_downbeat": false}, {"time": 936, "is_downbeat": false}, {"time": 960, "is_downbeat": false}, {"time": 984, "is_downbeat": true}, {"time": 1008, "is_downbeat": false}, {"time": 1032, "is_downbeat": false}, {"time": 1056, "is_downbeat": false}, {"time": 1080, "is_downbeat": true}, {"time": 1104, "is_downbeat": false}, {"time": 1128, "is_downbeat": false}, {"time": 1152, "is_downbeat": false}, {"time": 1176, "is_downbeat": true}, {"time": 1200, "is_downbeat": false}, {"time": 1224, "is_downbeat": false}, {"time": 1248, "is_downbeat": false}, {"time": 1272, "is_downbeat": true}, {"time": 1296, "is_downbeat": false}, {"time": 1320, "is_downbeat": false}, {"time": 1344, "is_downbeat": false}, {"time": 1368, "is_downbeat": true}, {"time": 1392, "is_downbeat": false}, {"time": 1416, "is_downbeat": false}, {"time": 1440, "is_downbeat": false}, {"time": 1464, "is_downbeat": true}, {"time": 1488, "is_downbeat": false}, {"time": 1512, "is_downbeat": false}, {"time": 1536, "is_downbeat": false}, {"time": 1560, "is_downbeat": true}, {"time": 1584, "is_downbeat": false}, {"time": 1608, "is_downbeat": false}, {"time": 1632, "is_downbeat": false}, {"time": 1656, "is_downbeat": true}, {"time": 1680, "is_downbeat": false}, {"time": 1704, "is_downbeat": false}, {"time": 1728, "is_downbeat": false}, {"time": 1752, "is_downbeat": true}, {"time": 1776, "is_downbeat": false}, {"time": 1800, "is_downbeat": false}, {"time": 1824, "is_downbeat": false}, {"time": 1848, "is_downbeat": true}, {"time": 1872, "is_downbeat": false}, {"time": 1896, "is_downbeat": false}, {"time": 1920, "is_downbeat": false}, {"time": 1944, "is_downbeat": true}, {"time": 1968, "is_downbeat": false}, {"time": 1992, "is_downbeat": false}, {"time": 2016, "is_downbeat": false}, {"time": 2040, "is_downbeat": true}, {"time": 2064, "is_downbeat": false}, {"time": 2088, "is_downbeat": false}, {"time": 2112, "is_downbeat": false}, {"time": 2136, "is_downbeat": true}, {"time": 2160, "is_downbeat": false}, {"time": 2184, "is_downbeat": false}, {"time": 2208, "is_downbeat": false}, {"time": 2232, "is_downbeat": true}, {"time": 2256, "is_downbeat": false}, {"time": 2280, "is_downbeat": false}, {"time": 2304, "is_downbeat": false}], "tracks": [{"program": 0, "is_drum": false, "notes": [{"time": 0, "pitch": 65, "duration": 12, "velocity": 64}, {"time": 12, "pitch": 65, "duration": 12, "velocity": 64}, {"time": 24, "pitch": 70, "duration": 18, "velocity": 64}, {"time": 42, "pitch": 69, "duration": 6, "velocity": 64}, {"time": 48, "pitch": 70, "duration": 18, "velocity": 64}, {"time": 66, "pitch": 69, "duration": 6, "velocity": 64}, {"time": 72, "pitch": 70, "duration": 18, "velocity": 64}, {"time": 90, "pitch": 69, "duration": 6, "velocity": 64}, {"time": 96, "pitch": 70, "duration": 18, "velocity": 64}, {"time": 114, "pitch": 72, "duration": 6, "velocity": 64}, {"time": 120, "pitch": 74, "duration": 24, "velocity": 64}, {"time": 192, "pitch": 75, "duration": 12, "velocity": 64}, {"time": 204, "pitch": 74, "duration": 12, "velocity": 64}, {"time": 216, "pitch": 72, "duration": 18, "velocity": 64}, {"time": 234, "pitch": 71, "duration": 6, "velocity": 64}, {"time": 240, "pitch": 72, "duration": 18, "velocity": 64}, {"time": 258, "pitch": 70, "duration": 6, "velocity": 64}, {"time": 264, "pitch": 72, "duration": 18, "velocity": 64}, {"time": 282, "pitch": 75, "duration": 6, "velocity": 64}, {"time": 288, "pitch": 74, "duration": 18, "velocity": 64}, {"time": 306, "pitch": 72, "duration": 6, "velocity": 64}, {"time": 312, "pitch": 70, "duration": 36, "velocity": 64}, {"time": 348, "pitch": 69, "duration": 6, "velocity": 64}, {"time": 354, "pitch": 67, "duration": 6, "velocity": 64}, {"time": 360, "pitch": 65, "duration": 24, "velocity": 64}, {"time": 384, "pitch": 65, "duration": 12, "velocity": 64}, {"time": 396, "pitch": 65, "duration": 12, "velocity": 64}, {"time": 408, "pitch": 70, "duration": 18, "velocity": 64}, {"time": 426, "pitch": 69, "duration": 6, "velocity": 64}, {"time": 432, "pitch": 70, "duration": 18, "velocity": 64}, {"time": 450, "pitch": 69, "duration": 6, "velocity": 64}, {"time": 456, "pitch": 70, "duration": 18, "velocity": 64}, {"time": 474, "pitch": 69, "duration": 6, "velocity": 64}, {"time": 480, "pitch": 70, "duration": 18, "velocity": 64}, {"time": 498, "pitch": 72, "duration": 6, "velocity": 64}, {"time": 504, "pitch": 74, "duration": 48, "velocity": 64}, {"time": 552, "pitch": 76, "duration": 24, "velocity": 64}, {"time": 576, "pitch": 77, "duration": 12, "velocity": 64}, {"time": 588, "pitch": 77, "duration": 12, "velocity": 64}, {"time": 600, "pitch": 77, "duration": 18, "velocity": 64}, {"time": 618, "pitch": 76, "duration": 6, "velocity": 64}, {"time": 624, "pitch": 74, "duration": 18, "velocity": 64}, {"time": 642, "pitch": 72, "duration": 6, "velocity": 64}, {"time": 648, "pitch": 72, "duration": 18, "velocity": 64}, {"time": 666, "pitch": 70, "duration": 6, "velocity": 64}, {"time": 672, "pitch": 69, "duration": 18, "velocity": 64}, {"time": 690, "pitch": 67, "duration": 6, "velocity": 64}, {"time": 696, "pitch": 65, "duration": 48, "velocity": 64}, {"time": 768, "pitch": 65, "duration": 12, "velocity": 64}, {"time": 780, "pitch": 65, "duration": 12, "velocity": 64}, {"time": 792, "pitch": 65, "duration": 24, "velocity": 64}, {"time": 816, "pitch": 72, "duration": 24, "velocity": 64}, {"time": 840, "pitch": 74, "duration": 24, "velocity": 64}, {"time": 864, "pitch": 72, "duration": 24, "velocity": 64}, {"time": 888, "pitch": 72, "duration": 24, "velocity": 64}, {"time": 912, "pitch": 70, "duration": 24, "velocity": 64}, {"time": 960, "pitch": 70, "duration": 12, "velocity": 64}, {"time": 972, "pitch": 70, "duration": 12, "velocity": 64}, {"time": 984, "pitch": 74, "duration": 24, "velocity": 64}, {"time": 1008, "pitch": 72, "duration": 12, "velocity": 64}, {"time": 1020, "pitch": 72, "duration": 12, "velocity": 64}, {"time": 1032, "pitch": 72, "duration": 24, "velocity": 64}, {"time": 1056, "pitch": 70, "duration": 24, "velocity": 64}, {"time": 1080, "pitch": 69, "duration": 24, "velocity": 64}, {"time": 1152, "pitch": 66, "duration": 12, "velocity": 64}, {"time": 1164, "pitch": 65, "duration": 12, "velocity": 64}, {"time": 1176, "pitch": 67, "duration": 24, "velocity": 64}, {"time": 1200, "pitch": 62, "duration": 24, "velocity": 64}, {"time": 1224, "pitch": 67, "duration": 24, "velocity": 64}, {"time": 1248, "pitch": 62, "duration": 24, "velocity": 64}, {"time": 1272, "pitch": 67, "duration": 36, "velocity": 64}, {"time": 1308, "pitch": 69, "duration": 12, "velocity": 64}, {"time": 1320, "pitch": 70, "duration": 24, "velocity": 64}, {"time": 1344, "pitch": 69, "duration": 12, "velocity": 64}, {"time": 1356, "pitch": 67, "duration": 12, "velocity": 64}, {"time": 1368, "pitch": 74, "duration": 24, "velocity": 64}, {"time": 1392, "pitch": 74, "duration": 24, "velocity": 64}, {"time": 1416, "pitch": 62, "duration": 24, "velocity": 64}, {"time": 1440, "pitch": 62, "duration": 24, "velocity": 64}, {"time": 1464, "pitch": 67, "duration": 48, "velocity": 64}, {"time": 1530, "pitch": 67, "duration": 6, "velocity": 64}, {"time": 1536, "pitch": 67, "duration": 18, "velocity": 64}, {"time": 1554, "pitch": 66, "duration": 6, "velocity": 64}, {"time": 1560, "pitch": 65, "duration": 24, "velocity": 64}, {"time": 1584, "pitch": 65, "duration": 24, "velocity": 64}, {"time": 1608, "pitch": 65, "duration": 24, "velocity": 64}, {"time": 1632, "pitch": 65, "duration": 24, "velocity": 64}, {"time": 1656, "pitch": 65, "duration": 48, "velocity": 64}, {"time": 1728, "pitch": 69, "duration": 12, "velocity": 64}, {"time": 1740, "pitch": 70, "duration": 12, "velocity": 64}, {"time": 1752, "pitch": 72, "duration": 36, "velocity": 64}, {"time": 1788, "pitch": 72, "duration": 12, "velocity": 64}, {"time": 1800, "pitch": 74, "duration": 12, "velocity": 64}, {"time": 1812, "pitch": 72, "duration": 12, "velocity": 64}, {"time": 1824, "pitch": 70, "duration": 12, "velocity": 64}, {"time": 1836, "pitch": 72, "duration": 12, "velocity": 64}, {"time": 1848, "pitch": 74, "duration": 24, "velocity": 64}, {"time": 1872, "pitch": 72, "duration": 24, "velocity": 64}, {"time": 1896, "pitch": 70, "duration": 18, "velocity": 64}, {"time": 1914, "pitch": 65, "duration": 6, "velocity": 64}, {"time": 1920, "pitch": 65, "duration": 18, "velocity": 64}, {"time": 1938, "pitch": 65, "duration": 6, "velocity": 64}, {"time": 1944, "pitch": 65, "duration": 24, "velocity": 64}, {"time": 1968, "pitch": 65, "duration": 24, "velocity": 64}, {"time": 1992, "pitch": 65, "duration": 24, "velocity": 64}, {"time": 2016, "pitch": 65, "duration": 24, "velocity": 64}, {"time": 2040, "pitch": 65, "duration": 24, "velocity": 64}, {"time": 2100, "pitch": 70, "duration": 12, "velocity": 64}, {"time": 2112, "pitch": 69, "duration": 18, "velocity": 64}, {"time": 2130, "pitch": 70, "duration": 6, "velocity": 64}, {"time": 2136, "pitch": 72, "duration": 36, "velocity": 64}, {"time": 2172, "pitch": 74, "duration": 6, "velocity": 64}, {"time": 2178, "pitch": 72, "duration": 6, "velocity": 64}, {"time": 2184, "pitch": 70, "duration": 24, "velocity": 64}, {"time": 2208, "pitch": 69, "duration": 24, "velocity": 64}, {"time": 2232, "pitch": 70, "duration": 48, "velocity": 64}]}]}