{"metadata": {"schema_version": "0.1", "title": "ES LEBE HOCH DER KRIEGERSTAND", "source_format": "abc"}, "resolution": 24, "tempos": [{"time": 0, "qpm": 120.0}], "key_signatures": [{"time": 0, "root": 2, "mode": "major", "fifths": 2}], "time_signatures": [{"time": 0, "numerator": 4, "denominator": 4}], "beats": [{"time": 0, "is_downbeat": true}, {"time": 24, "is_downbeat": false}, {"time": 36, "is_downbeat": true}, {"time": 60, "is_downbeat": false}, {"time": 84, "is_downbeat": false}, {"time": 108, "is_downbeat": false}, {"time": 132, "is_downbeat": true}, {"time": 156, "is_downbeat": false}, {"time": 180, "is_downbeat": false}, {"time": 204, "is_downbeat": false}, {"time": 228, "is_downbeat": true}, {"time": 252, "is_downbeat": false}, {"time": 276, "is_downbeat": false}, {"time": 300, "is_downbeat": false}, {"time": 324, "is_downbeat": true}, {"time": 348, "is_downbeat": false}, {"time": 372, "is_downbeat": false}, {"time": 396, "is_downbeat": false}, {"time": 420, "is_downbeat": true}, {"time": 444, "is_downbeat": false}, {"time": 468, "is_downbeat": false}, {"time": 492, "is_downbeat": false}, {"time": 516, "is_downbeat": true}, {"time": 540, "is_downbeat": false}, {"time": 564, "is_downbeat": false}, {"time": 588, "is_downbeat": false}, {"time": 612, "is_downbeat": true}, {"time": 636, "is_downbeat": false}, {"time": 660, "is_downbeat": false}, {"time": 684, "is_downbeat": false}, {"time": 708, "is_downbeat": true}, {"time": 732, "is_downbeat": false}, {"time": 756, "is_downbeat": false}, {"time": 780, "is_downbeat": false}, {"time": 804, "is_downbeat": true}, {"time": 828, "is_downbeat": false}, {"time": 852, "is_downbeat": false}, {"time": 876, "is_downbeat": false}, {"time": 900, "is_downbeat": true}, {"time": 924, "is_downbeat": false}, {"time": 948, "is_downbeat": false}, {"time": 972, "is_downbeat": false}, {"time": 996, "is_downbeat": true}, {"time": 1020, "is_downbeat": false}, {"time": 1044, "is_downbeat": false}, {"time": 1068, "is_downbeat": false}, {"time": 1092, "is_downbeat": true}, {"time": 1116, "is_downbeat": false}, {"time": 1140, "is_downbeat": false}, {"time": 1164, "is_downbeat": false}, {"time": 1188, "is_downbeat": true}, {"time": 1212, "is_downbeat": false}, {"time": 1236, "is_downbeat": false}, {"time": 1260, "is_downbeat": false}, {"time": 1284, "is_downbeat": true}, {"time": 1308, "is_downbeat": false}, {"time": 1332, "is_downbeat": false}, {"time": 1356, "is_downbeat": false}, {"time": 1380, "is_downbeat": true}, {"time": 1404, "is_downbeat": false}, {"time": 1428, "is_downbeat": false}, {"time": 1452, "is_downbeat": false}, {"time": 1476, "is_downbeat": true}, {"time": 1500, "is_downbeat": false}, {"time": 1524, "is_downbeat": false}, {"time": 1548, "is_downbeat": false}, {"time": 1572, "is_downbeat": true}, {"time": 1596, "is_downbeat": false}, {"time": 1620, "is_downbeat": false}, {"time": 1644, "is_downbeat": false}, {"time": 1668, "is_downbeat": true}, {"time": 1692, "is_downbeat": false}, {"time": 1716, "is_downbeat": false}, {"time": 1740, "is_downbeat": false}, {"time": 1764, "is_downbeat": true}, {"time": 1788, "is_downbeat": false}, {"time": 1812, "is_downbeat": false}, {"time": 1836, "is_downbeat": false}, {"time": 1860, "is_downbeat": true}, {"time": 1884, "is_downbeat": false}, {"time": 1908, "is_downbeat": false}, {"time": 1932, "is_downbeat": false}], "tracks": [{"program": 0, "is_drum": false, "notes": [{"time": 0, "pitch": 50, "duration": 12, "velocity": 64}, {"time": 12, "pitch": 50, "duration": 12, "velocity": 64}, {"time": 24, "pitch": 50, "duration": 12, "velocity": 64}, {"time": 36, "pitch": 57, "duration": 36, "velocity": 64}, {"time": 72, "pitch": 57, "duration": 12, "velocity": 64}, {"time": 84, "pitch": 57, "duration": 24, "velocity": 64}, {"time": 108, "pitch": 59, "duration": 12, "velocity": 64}, {"time": 120, "pitch": 61, "duration": 12, "velocity": 64}, {"time": 132, "pitch": 62, "duration": 24, "velocity": 64}, {"time": 192, "pitch": 54, "duration": 12, "velocity": 64}, {"time": 204, "pitch": 50, "duration": 12, "velocity": 64}, {"time": 216, "pitch": 54, "duration": 12, "velocity": 64}, {"time": 228, "pitch": 57, "duration": 36, "velocity": 64}, {"time": 264, "pitch": 57, "duration": 12, "velocity": 64}, {"time": 276, "pitch": 57, "duration": 24, "velocity": 64}, {"time": 300, "pitch": 62, "duration": 24, "velocity": 64}, {"time": 324, "pitch": 61, "duration": 48, "velocity": 64}, {"time": 396, "pitch": 61, "duration": 12, "velocity": 64}, {"time": 408, "pitch": 59, "duration": 12, "velocity": 64}, {"time": 420, "pitch": 57, "duration": 24, "velocity": 64}, {"time": 444, "pitch": 52, "duration": 12, "velocity": 64}, {"time": 456, "pitch": 52, "duration": 12, "velocity": 64}, {"time": 468, "pitch": 61, "duration": 24, "velocity": 64}, {"time": 492, "pitch": 59, "duration": 12, "velocity": 64}, {"time": 504, "pitch": 59, "duration": 12, "velocity": 64}, {"time": 516, "pitch": 57, "duration": 24, "velocity": 64}, {"time": 540, "pitch": 52, "duration": 24, "velocity": 64}, {"time": 588, "pitch": 61, "duration": 12, "velocity": 64}, {"time": 600, "pitch": 59, "duration": 12, "velocity": 64}, {"time": 612, "pitch": 57, "duration": 24, "velocity": 64}, {"time": 636, "pitch": 52, "duration": 12, "velocity": 64}, {"time": 648, "pitch": 52, "duration": 12, "velocity": 64}, {"time": 660, "pitch": 61, "duration": 36, "velocity": 64}, {"time": 696, "pitch": 59, "duration": 12, "velocity": 64}, {"time": 708, "pitch": 57, "duration": 48, "velocity": 64}, {"time": 780, "pitch": 57, "duration": 24, "velocity": 64}, {"time": 804, "pitch": 62, "duration": 24, "velocity": 64}, {"time": 828, "pitch": 62, "duration": 12, "velocity": 64}, {"time": 840, "pitch": 62, "duration": 12, "velocity": 64}, {"time": 852, "pitch": 62, "duration": 12, "velocity": 64}, {"time": 864, "pitch": 64, "duration": 12, "velocity": 64}, {"time": 876, "pitch": 66, "duration": 12, "velocity": 64}, {"time": 888, "pitch": 62, "duration": 12, "velocity": 64}, {"time": 900, "pitch": 57, "duration": 48, "velocity": 64}, {"time": 948, "pitch": 54, "duration": 24, "velocity": 64}, {"time": 972, "pitch": 59, "duration": 12, "velocity": 64}, {"time": 984, "pitch": 57, "duration": 12, "velocity": 64}, {"time": 996, "pitch": 57, "duration": 12, "velocity": 64}, {"time": 1008, "pitch": 55, "duration": 12, "velocity": 64}, {"time": 1020, "pitch": 55, "duration": 24, "velocity": 64}, {"time": 1044, "pitch": 55, "duration": 12, "velocity": 64}, {"time": 1056, "pitch": 59, "duration": 12, "velocity": 64}, {"time": 1068, "pitch": 57, "duration": 12, "velocity": 64}, {"time": 1080, "pitch": 55, "duration": 12, "velocity": 64}, {"time": 1092, "pitch": 54, "duration": 48, "velocity": 64}, {"time": 1164, "pitch": 57, "duration": 24, "velocity": 64}, {"time": 1188, "pitch": 62, "duration": 24, "velocity": 64}, {"time": 1212, "pitch": 62, "duration": 12, "velocity": 64}, {"time": 1224, "pitch": 62, "duration": 12, "velocity": 64}, {"time": 1236, "pitch": 62, "duration": 12, "velocity": 64}, {"time": 1248, "pitch": 64, "duration": 12, "velocity": 64}, {"time": 1260, "pitch": 66, "duration": 12, "velocity": 64}, {"time": 1272, "pitch": 62, "duration": 12, "velocity": 64}, {"time": 1284, "pitch": 57, "duration": 48, "velocity": 64}, {"time": 1332, "pitch": 54, "duration": 24, "velocity": 64}, {"time": 1356, "pitch": 59, "duration": 12, "velocity": 64}, {"time": 1368, "pitch": 57, "duration": 12, "velocity": 64}, {"time": 1380, "pitch": 57, "duration": 12, "velocity": 64}, {"time": 1392, "pitch": 55, "duration": 12, "velocity": 64}, {"time": 1404, "pitch": 55, "duration": 24, "velocity": 64}, {"time": 1428, "pitch": 55, "duration": 12, "velocity": 64}, {"time": 1440, "pitch": 59, "duration": 12, "velocity": 64}, {"time": 1452, "pitch": 57, "duration": 12, "velocity": 64}, {"time": 1464, "pitch": 55, "duration": 12, "velocity": 64}, {"time": 1476, "pitch": 54, "duration": 48, "velocity": 64}, {"time": 1536, "pitch": 57, "duration": 12, "velocity": 64}, {"time": 1548, "pitch": 59, "duration": 12, "velocity": 64}, {"time": 1560, "pitch": 61, "duration": 12, "velocity": 64}, {"time": 1572, "pitch": 62, "duration": 48, "velocity": 64}, {"time": 1632, "pitch": 54, "duration": 12, "velocity": 64}, {"time": 1644, "pitch": 55, "duration": 12, "velocity": 64}, {"time": 1656, "pitch": 57, "duration": 12, "velocity": 64}, {"time": 1668, "pitch": 59, "duration": 24, "velocity": 64}, {"time": 1728, "pitch": 64, "duration": 12, "velocity": 64}, {"time": 1740, "pitch": 64, "duration": 12, "velocity": 64}, {"time": 1752, "pitch": 64, "duration": 12, "velocity": 64}, {"time": 1764, "pitch": 66, "duration": 36, "velocity": 64}, {"time": 1800, "pitch": 66, "duration": 12, "velocity": 64}, {"time": 1812, "pitch": 64, "duration": 36, "velocity": 64}, {"time": 1848, "pitch": 64, "duration": 12, "velocity": 64}, {"time": 1860, "pitch": 62, "duration": 48, "velocity": 64}]}]}