{"metadata": {"schema_version": "0.1", "title": "FREUDE SCHOENER GOETTERFUNKEN", "source_format": "abc"}, "resolution": 24, "tempos": [{"time": 0, "qpm": 120.0}], "key_signatures": [{"time": 0, "root": 0, "mode": "major", "fifths": 0}], "time_signatures": [{"time": 0, "numerator": 4, "denominator": 4}], "beats": [{"time": 0, "is_downbeat": true}, {"time": 24, "is_downbeat": false}, {"time": 48, "is_downbeat": true}, {"time": 72, "is_downbeat": false}, {"time": 96, "is_downbeat": false}, {"time": 120, "is_downbeat": false}, {"time": 144, "is_downbeat": true}, {"time": 168, "is_downbeat": false}, {"time": 192, "is_downbeat": false}, {"time": 216, "is_downbeat": false}, {"time": 240, "is_downbeat": true}, {"time": 264, "is_downbeat": false}, {"time": 288, "is_downbeat": false}, {"time": 312, "is_downbeat": false}, {"time": 336, "is_downbeat": true}, {"time": 360, "is_downbeat": false}, {"time": 384, "is_downbeat": false}, {"time": 408, "is_downbeat": false}, {"time": 432, "is_downbeat": true}, {"time": 456, "is_downbeat": false}, {"time": 480, "is_downbeat": false}, {"time": 504, "is_downbeat": false}, {"time": 528, "is_downbeat": true}, {"time": 552, "is_downbeat": false}, {"time": 576, "is_downbeat": false}, {"time": 600, "is_downbeat": false}, {"time": 624, "is_downbeat": true}, {"time": 648, "is_downbeat": false}, {"time": 672, "is_downbeat": false}, {"time": 696, "is_downbeat": false}, {"time": 720, "is_downbeat": true}, {"time": 744, "is_downbeat": false}, {"time": 768, "is_downbeat": false}, {"time": 792, "is_downbeat": false}, {"time": 816, "is_downbeat": true}, {"time": 840, "is_downbeat": false}, {"time": 864, "is_downbeat": false}, {"time": 888, "is_downbeat": false}, {"time": 912, "is_downbeat": true}, {"time": 936, "is_downbeat": false}, {"time": 960, "is_downbeat": false}, {"time": 984, "is_downbeat": false}, {"time": 1008, "is_downbeat": true}, {"time": 1032, "is_downbeat": false}, {"time": 1056, "is_downbeat": false}, {"time": 1080, "is_downbeat": false}, {"time": 1104, "is_downbeat": true}, {"time": 1128, "is_downbeat": false}, {"time": 1152, "is_downbeat": false}, {"time": 1176, "is_downbeat": false}, {"time": 1200, "is_downbeat": true}, {"time": 1224, "is_downbeat": false}, {"time": 1248, "is_downbeat": false}, {"time": 1272, "is_downbeat": false}, {"time": 1296, "is_downbeat": true}, {"time": 1320, "is_downbeat": false}, {"time": 1344, "is_downbeat": false}, {"time": 1368, "is_downbeat": false}, {"time": 1392, "is_downbeat": true}, {"time": 1416, "is_downbeat": false}, {"time": 1440, "is_downbeat": false}, {"time": 1464, "is_downbeat": false}, {"time": 1488, "is_downbeat": true}, {"time": 1512, "is_downbeat": false}, {"time": 1536, "is_downbeat": false}, {"time": 1560, "is_downbeat": false}, {"time": 1584, "is_downbeat": true}, {"time": 1608, "is_downbeat": false}, {"time": 1632, "is_downbeat": false}, {"time": 1656, "is_downbeat": false}, {"time": 1680, "is_downbeat": true}, {"time": 1704, "is_downbeat": false}, {"time": 1728, "is_downbeat": false}, {"time": 1752, "is_downbeat": false}, {"time": 1776, "is_downbeat": true}, {"time": 1800, "is_downbeat": false}, {"time": 1824, "is_downbeat": false}, {"time": 1848, "is_downbeat": false}, {"time": 1872, "is_downbeat": true}, {"time": 1896, "is_downbeat": false}, {"time": 1920, "is_downbeat": false}, {"time": 1944, "is_downbeat": false}, {"time": 1968, "is_downbeat": true}, {"time": 1992, "is_downbeat": false}, {"time": 2016, "is_downbeat": false}, {"time": 2040, "is_downbeat": false}, {"time": 2064, "is_downbeat": true}, {"time": 2088, "is_downbeat": false}, {"time": 2112, "is_downbeat": false}, {"time": 2136, "is_downbeat": false}, {"time": 2160, "is_downbeat": true}, {"time": 2184, "is_downbeat": false}, {"time": 2208, "is_downbeat": false}, {"time": 2232, "is_downbeat": false}, {"time": 2256, "is_downbeat": true}, {"time": 2280, "is_downbeat": false}, {"time": 2304, "is_downbeat": false}, {"time": 2328, "is_downbeat": false}], "tracks": [{"program": 0, "is_drum": false, "notes": [{"time": 0, "pitch": 60, "duration": 24, "velocity": 64}, {"time": 24, "pitch": 55, "duration": 24, "velocity": 64}, {"time": 48, "pitch": 64, "duration": 36, "velocity": 64}, {"time": 84, "pitch": 64, "duration": 12, "velocity": 64}, {"time": 96, "pitch": 64, "duration": 12, "velocity": 64}, {"time": 108, "pitch": 65, "duration": 12, "velocity": 64}, {"time": 120, "pitch": 62, "duration": 12, "velocity": 64}, {"time": 132, "pitch": 59, "duration": 12, "velocity": 64}, {"time": 144, "pitch": 60, "duration": 24, "velocity": 64}, {"time": 168, "pitch": 55, "duration": 24, "velocity": 64}, {"time": 192, "pitch": 67, "duration": 36, "velocity": 64}, {"time": 228, "pitch": 65, "duration": 12, "velocity": 64}, {"time": 240, "pitch": 65, "duration": 12, "velocity": 64}, {"time": 252, "pitch": 64, "duration": 12, "velocity": 64}, {"time": 264, "pitch": 62, "duration": 12, "velocity": 64}, {"time": 276, "pitch": 60, "duration": 12, "velocity": 64}, {"time": 288, "pitch": 65, "duration": 24, "velocity": 64}, {"time": 312, "pitch": 64, "duration": 24, "velocity": 64}, {"time": 336, "pitch": 62, "duration": 48, "velocity": 64}, {"time": 384, "pitch": 60, "duration": 24, "velocity": 64}, {"time": 408, "pitch": 55, "duration": 24, "velocity": 64}, {"time": 432, "pitch": 64, "duration": 36, "velocity": 64}, {"time": 468, "pitch": 64, "duration": 12, "velocity": 64}, {"time": 480, "pitch": 67, "duration": 12, "velocity": 64}, {"time": 492, "pitch": 65, "duration": 12, "velocity": 64}, {"time": 504, "pitch": 62, "duration": 12, "velocity": 64}, {"time": 516, "pitch": 59, "duration": 12, "velocity": 64}, {"time": 528, "pitch": 60, "duration": 24, "velocity": 64}, {"time": 552, "pitch": 55, "duration": 24, "velocity": 64}, {"time": 576, "pitch": 67, "duration": 36, "velocity": 64}, {"time": 612, "pitch": 65, "duration": 12, "velocity": 64}, {"time": 624, "pitch": 65, "duration": 12, "velocity": 64}, {"time": 636, "pitch": 64, "duration": 12, "velocity": 64}, {"time": 648, "pitch": 62, "duration": 12, "velocity": 64}, {"time": 660, "pitch": 60, "duration": 12, "velocity": 64}, {"time": 672, "pitch": 65, "duration": 24, "velocity": 64}, {"time": 696, "pitch": 64, "duration": 24, "velocity": 64}, {"time": 720, "pitch": 62, "duration": 48, "velocity": 64}, {"time": 768, "pitch": 62, "duration": 36, "velocity": 64}, {"time": 804, "pitch": 60, "duration": 12, "velocity": 64}, {"time": 816, "pitch": 59, "duration": 12, "velocity": 64}, {"time": 828, "pitch": 67, "duration": 12, "velocity": 64}, {"time": 840, "pitch": 66, "duration": 12, "velocity": 64}, {"time": 852, "pitch": 64, "duration": 12, "velocity": 64}, {"time": 864, "pitch": 62, "duration": 36, "velocity": 64}, {"time": 900, "pitch": 60, "duration": 12, "velocity": 64}, {"time": 912, "pitch": 60, "duration": 24, "velocity": 64}, {"time": 936, "pitch": 59, "duration": 24, "velocity": 64}, {"time": 960, "pitch": 64, "duration": 36, "velocity": 64}, {"time": 996, "pitch": 62, "duration": 12, "velocity": 64}, {"time": 1008, "pitch": 62, "duration": 12, "velocity": 64}, {"time": 1020, "pitch": 60, "duration": 12, "velocity": 64}, {"time": 1032, "pitch": 59, "duration": 12, "velocity": 64}, {"time": 1044, "pitch": 57, "duration": 12, "velocity": 64}, {"time": 1056, "pitch": 62, "duration": 36, "velocity": 64}, {"time": 1092, "pitch": 54, "duration": 12, "velocity": 64}, {"time": 1104, "pitch": 55, "duration": 48, "velocity": 64}, {"time": 1152, "pitch": 57, "duration": 24, "velocity": 64}, {"time": 1176, "pitch": 59, "duration": 24, "velocity": 64}, {"time": 1200, "pitch": 60, "duration": 24, "velocity": 64}, {"time": 1224, "pitch": 62, "duration": 24, "velocity": 64}, {"time": 1248, "pitch": 64, "duration": 36, "velocity": 64}, {"time": 1284, "pitch": 65, "duration": 12, "velocity": 64}, {"time": 1296, "pitch": 64, "duration": 24, "velocity": 64}, {"time": 1320, "pitch": 62, "duration": 24, "velocity": 64}, {"time": 1344, "pitch": 65, "duration": 36, "velocity": 64}, {"time": 1380, "pitch": 64, "duration": 12, "velocity": 64}, {"time": 1392, "pitch": 62, "duration": 24, "velocity": 64}, {"time": 1416, "pitch": 60, "duration": 24, "velocity": 64}, {"time": 1440, "pitch": 62, "duration": 12, "velocity": 64}, {"time": 1452, "pitch": 65, "duration": 12, "velocity": 64}, {"time": 1464, "pitch": 55, "duration": 12, "velocity": 64}, {"time": 1476, "pitch": 59, "duration": 12, "velocity": 64}, {"time": 1488, "pitch": 60, "duration": 48, "velocity": 64}, {"time": 1536, "pitch": 60, "duration": 36, "velocity": 64}, {"time": 1572, "pitch": 55, "duration": 12, "velocity": 64}, {"time": 1584, "pitch": 64, "duration": 36, "velocity": 64}, {"time": 1620, "pitch": 64, "duration": 12, "velocity": 64}, {"time": 1632, "pitch": 64, "duration": 12, "velocity": 64}, {"time": 1644, "pitch": 65, "duration": 12, "velocity": 64}, {"time": 1656, "pitch": 62, "duration": 12, "velocity": 64}, {"time": 1668, "pitch": 59, "duration": 12, "velocity": 64}, {"time": 1680, "pitch": 60, "duration": 24, "velocity": 64}, {"time": 1704, "pitch": 55, "duration": 24, "velocity": 64}, {"time": 1728, "pitch": 67, "duration": 36, "velocity": 64}, {"time": 1764, "pitch": 65, "duration": 12, "velocity": 64}, {"time": 1776, "pitch": 65, "duration": 12, "velocity": 64}, {"time": 1788, "pitch": 64, "duration": 12, "velocity": 64}, {"time": 1800, "pitch": 62, "duration": 12, "velocity": 64}, {"time": 1812, "pitch": 60, "duration": 12, "velocity": 64}, {"time": 1824, "pitch": 65, "duration": 24, "velocity": 64}, {"time": 1848, "pitch": 64, "duration": 24, "velocity": 64}, {"time": 1872, "pitch": 62, "duration": 48, "velocity": 64}, {"time": 1920, "pitch": 69, "duration": 36, "velocity": 64}, {"time": 1956, "pitch": 67, "duration": 12, "velocity": 64}, {"time": 1968, "pitch": 65, "duration": 24, "velocity": 64}, {"time": 1992, "pitch": 60, "duration": 24, "velocity": 64}, {"time": 2016, "pitch": 65, "duration": 24, "velocity": 64}, {"time": 2040, "pitch": 67, "duration": 24, "velocity": 64}, {"time": 2064, "pitch": 69, "duration": 48, "velocity": 64}, {"time": 2112, "pitch": 67, "duration": 36, "velocity": 64}, {"time": 2148, "pitch": 65, "duration": 12, "velocity": 64}, {"time": 2160, "pitch": 65, "duration": 12, "velocity": 64}, {"time": 2172, "pitch": 64, "duration": 12, "velocity": 64}, {"time": 2184, "pitch": 62, "duration": 12, "velocity": 64}, {"time": 2196, "pitch": 60, "duration": 12, "velocity": 64}, {"time": 2208, "pitch": 62, "duration": 12, "velocity": 64}, {"time": 2220, "pitch": 65, "duration": 12, "velocity": 64}, {"time": 2232, "pitch": 55, "duration": 12, "velocity": 64}, {"time": 2244, "pitch": 59, "duration": 12, "velocity": 64}, {"time": 2256, "pitch": 60, "duration": 24, "velocity": 64}, {"time": 2280, "pitch": 48, "duration": 24, "velocity": 64}]}]}