{"metadata": {"schema_version": "0.1", "title": "IN DEM HIMMEL RUHT DIE ERDE", "source_format": "abc"}, "resolution": 24, "tempos": [{"time": 0, "qpm": 120.0}], "key_signatures": [{"time": 0, "root": 2, "mode": "major", "fifths": 2}], "time_signatures": [{"time": 0, "numerator": 3, "denominator": 4}], "beats": [{"time": 0, "is_downbeat": true}, {"time": 24, "is_downbeat": false}, {"time": 48, "is_downbeat": false}, {"time": 72, "is_downbeat": true}, {"time": 96, "is_downbeat": false}, {"time": 120, "is_downbeat": false}, {"time": 144, "is_downbeat": true}, {"time": 168, "is_downbeat": false}, {"time": 192, "is_downbeat": false}, {"time": 216, "is_downbeat": true}, {"time": 240, "is_downbeat": false}, {"time": 264, "is_downbeat": false}, {"time": 288, "is_downbeat": true}, {"time": 312, "is_downbeat": false}, {"time": 336, "is_downbeat": false}, {"time": 360, "is_downbeat": true}, {"time": 384, "is_downbeat": false}, {"time": 408, "is_downbeat": false}, {"time": 432, "is_downbeat": true}, {"time": 456, "is_downbeat": false}, {"time": 480, "is_downbeat": false}, {"time": 504, "is_downbeat": true}, {"time": 528, "is_downbeat": false}, {"time": 552, "is_downbeat": false}, {"time": 576, "is_downbeat": true}, {"time": 600, "is_downbeat": false}, {"time": 624, "is_downbeat": false}, {"time": 648, "is_downbeat": true}, {"time": 672, "is_downbeat": false}, {"time": 696, "is_downbeat": false}, {"time": 720, "is_downbeat": true}, {"time": 744, "is_downbeat": false}, {"time": 768, "is_downbeat": false}, {"time": 792, "is_downbeat": true}, {"time": 816, "is_downbeat": false}, {"time": 840, "is_downbeat": false}, {"time": 864, "is_downbeat": true}, {"time": 888, "is_downbeat": false}, {"time": 912, "is_downbeat": false}, {"time": 936, "is_downbeat": true}, {"time": 960, "is_downbeat": false}, {"time": 984, "is_downbeat": false}, {"time": 1008, "is_downbeat": true}, {"time": 1032, "is_downbeat": false}, {"time": 1056, "is_downbeat": false}, {"time": 1080, "is_downbeat": true}, {"time": 1104, "is_downbeat": false}, {"time": 1128, "is_downbeat": false}, {"time": 1152, "is_downbeat": true}, {"time": 1176, "is_downbeat": false}, {"time": 1200, "is_downbeat": false}, {"time": 1224, "is_downbeat": true}, {"time": 1248, "is_downbeat": false}, {"time": 1272, "is_downbeat": false}, {"time": 1296, "is_downbeat": true}, {"time": 1320, "is_downbeat": false}, {"time": 1344, "is_downbeat": false}, {"time": 1368, "is_downbeat": true}, {"time": 1392, "is_downbeat": false}, {"time": 1416, "is_downbeat": false}, {"time": 1440, "is_downbeat": true}, {"time": 1464, "is_downbeat": false}, {"time": 1488, "is_downbeat": false}, {"time": 1512, "is_downbeat": true}, {"time": 1536, "is_downbeat": false}, {"time": 1560, "is_downbeat": false}, {"time": 1584, "is_downbeat": true}, {"time": 1608, "is_downbeat": false}, {"time": 1632, "is_downbeat": false}, {"time": 1656, "is_downbeat": true}, {"time": 1680, "is_downbeat": false}, {"time": 1704, "is_downbeat": false}, {"time": 1728, "is_downbeat": true}, {"time": 1752, "is_downbeat": false}, {"time": 1776, "is_downbeat": false}, {"time": 1800, "is_downbeat": true}, {"time": 1824, "is_downbeat": false}, {"time": 1848, "is_downbeat": false}, {"time": 1872, "is_downbeat": true}, {"time": 1896, "is_downbeat": false}, {"time": 1920, "is_downbeat": false}, {"time": 1944, "is_downbeat": true}, {"time": 1968, "is_downbeat": false}, {"time": 1992, "is_downbeat": false}, {"time": 2016, "is_downbeat": true}, {"time": 2040, "is_downbeat": false}, {"time": 2064, "is_downbeat": false}, {"time": 2088, "is_downbeat": true}, {"time": 2112, "is_downbeat": false}, {"time": 2136, "is_downbeat": false}, {"time": 2160, "is_downbeat": true}, {"time": 2184, "is_downbeat": false}, {"time": 2208, "is_downbeat": false}, {"time": 2232, "is_downbeat": true}, {"time": 2256, "is_downbeat": false}, {"time": 2280, "is_downbeat": false}, {"time": 2304, "is_downbeat": true}, {"time": 2328, "is_downbeat": false}, {"time": 2352, "is_downbeat": false}, {"time": 2376, "is_downbeat": true}, {"time": 2400, "is_downbeat": false}, {"time": 2424, "is_downbeat": false}, {"time": 2448, "is_downbeat": true}, {"time": 2472, "is_downbeat": false}, {"time": 2496, "is_downbeat": false}, {"time": 2520, "is_downbeat": true}, {"time": 2544, "is_downbeat": false}, {"time": 2568, "is_downbeat": false}, {"time": 2592, "is_downbeat": true}, {"time": 2616, "is_downbeat": false}, {"time": 2640, "is_downbeat": false}, {"time": 2664, "is_downbeat": true}, {"time": 2688, "is_downbeat": false}, {"time": 2712, "is_downbeat": false}, {"time": 2736, "is_downbeat": true}, {"time": 2760, "is_downbeat": false}, {"time": 2784, "is_downbeat": false}, {"time": 2808, "is_downbeat": true}, {"time": 2832, "is_downbeat": false}, {"time": 2856, "is_downbeat": false}, {"time": 2880, "is_downbeat": true}, {"time": 2904, "is_downbeat": false}, {"time": 2928, "is_downbeat": false}, {"time": 2952, "is_downbeat": true}, {"time": 2976, "is_downbeat": false}, {"time": 3000, "is_downbeat": false}, {"time": 3024, "is_downbeat": true}, {"time": 3048, "is_downbeat": false}, {"time": 3072, "is_downbeat": false}, {"time": 3096, "is_downbeat": true}, {"time": 3120, "is_downbeat": false}, {"time": 3144, "is_downbeat": false}, {"time": 3168, "is_downbeat": true}, {"time": 3192, "is_downbeat": false}, {"time": 3216, "is_downbeat": false}, {"time": 3240, "is_downbeat": true}, {"time": 3264, "is_downbeat": false}, {"time": 3288, "is_downbeat": false}, {"time": 3312, "is_downbeat": true}, {"time": 3336, "is_downbeat": false}, {"time": 3360, "is_downbeat": false}, {"time": 3384, "is_downbeat": true}, {"time": 3408, "is_downbeat": false}, {"time": 3432, "is_downbeat": false}], "tracks": [{"program": 0, "is_drum": false, "notes": [{"time": 0, "pitch": 62, "duration": 48, "velocity": 64}, {"time": 48, "pitch": 64, "duration": 24, "velocity": 64}, {"time": 72, "pitch": 66, "duration": 48, "velocity": 64}, {"time": 120, "pitch": 69, "duration": 24, "velocity": 64}, {"time": 144, "pitch": 69, "duration": 24, "velocity": 64}, {"time": 168, "pitch": 67, "duration": 24, "velocity": 64}, {"time": 192, "pitch": 66, "duration": 24, "velocity": 64}, {"time": 216, "pitch": 66, "duration": 48, "velocity": 64}, {"time": 264, "pitch": 64, "duration": 24, "velocity": 64}, {"time": 288, "pitch": 62, "duration": 48, "velocity": 64}, {"time": 336, "pitch": 64, "duration": 24, "velocity": 64}, {"time": 360, "pitch": 66, "duration": 48, "velocity": 64}, {"time": 408, "pitch": 69, "duration": 24, "velocity": 64}, {"time": 432, "pitch": 69, "duration": 24, "velocity": 64}, {"time": 456, "pitch": 67, "duration": 24, "velocity": 64}, {"time": 480, "pitch": 66, "duration": 24, "velocity": 64}, {"time": 504, "pitch": 64, "duration": 48, "velocity": 64}, {"time": 552, "pitch": 64, "duration": 12, "velocity": 64}, {"time": 564, "pitch": 64, "duration": 12, "velocity": 64}, {"time": 576, "pitch": 64, "duration": 36, "velocity": 64}, {"time": 612, "pitch": 64, "duration": 12, "velocity": 64}, {"time": 624, "pitch": 65, "duration": 12, "velocity": 64}, {"time": 636, "pitch": 64, "duration": 12, "velocity": 64}, {"time": 648, "pitch": 66, "duration": 24, "velocity": 64}, {"time": 672, "pitch": 61, "duration": 24, "velocity": 64}, {"time": 720, "pitch": 66, "duration": 18, "velocity": 64}, {"time": 738, "pitch": 66, "duration": 6, "velocity": 64}, {"time": 744, "pitch": 66, "duration": 12, "velocity": 64}, {"time": 756, "pitch": 66, "duration": 12, "velocity": 64}, {"time": 768, "pitch": 66, "duration": 18, "velocity": 64}, {"time": 786, "pitch": 66, "duration": 6, "velocity": 64}, {"time": 792, "pitch": 66, "duration": 72, "velocity": 64}, {"time": 864, "pitch": 66, "duration": 48, "velocity": 64}, {"time": 912, "pitch": 64, "duration": 24, "velocity": 64}, {"time": 936, "pitch": 62, "duration": 48, "velocity": 64}, {"time": 984, "pitch": 67, "duration": 24, "velocity": 64}, {"time": 1008, "pitch": 66, "duration": 48, "velocity": 64}, {"time": 1056, "pitch": 66, "duration": 12, "velocity": 64}, {"time": 1068, "pitch": 64, "duration": 12, "velocity": 64}, {"time": 1080, "pitch": 62, "duration": 48, "velocity": 64}, {"time": 1128, "pitch": 59, "duration": 12, "velocity": 64}, {"time": 1140, "pitch": 60, "duration": 12, "velocity": 64}, {"time": 1152, "pitch": 62, "duration": 36, "velocity": 64}, {"time": 1188, "pitch": 62, "duration": 12, "velocity": 64}, {"time": 1200, "pitch": 64, "duration": 12, "velocity": 64}, {"time": 1212, "pitch": 66, "duration": 12, "velocity": 64}, {"time": 1224, "pitch": 67, "duration": 24, "velocity": 64}, {"time": 1248, "pitch": 62, "duration": 24, "velocity": 64}, {"time": 1272, "pitch": 62, "duration": 12, "velocity": 64}, {"time": 1284, "pitch": 62, "duration": 12, "velocity": 64}, {"time": 1296, "pitch": 62, "duration": 36, "velocity": 64}, {"time": 1332, "pitch": 62, "duration": 12, "velocity": 64}, {"time": 1344, "pitch": 62, "duration": 12, "velocity": 64}, {"time": 1356, "pitch": 62, "duration": 12, "velocity": 64}, {"time": 1368, "pitch": 62, "duration": 48, "velocity": 64}, {"time": 1416, "pitch": 62, "duration": 12, "velocity": 64}, {"time": 1428, "pitch": 59, "duration": 12, "velocity": 64}, {"time": 1440, "pitch": 57, "duration": 36, "velocity": 64}, {"time": 1476, "pitch": 59, "duration": 12, "velocity": 64}, {"time": 1488, "pitch": 60, "duration": 12, "velocity": 64}, {"time": 1500, "pitch": 64, "duration": 12, "velocity": 64}, {"time": 1512, "pitch": 64, "duration": 18, "velocity": 64}, {"time": 1530, "pitch": 62, "duration": 6, "velocity": 64}, {"time": 1536, "pitch": 62, "duration": 24, "velocity": 64}, {"time": 1560, "pitch": 62, "duration": 12, "velocity": 64}, {"time": 1572, "pitch": 67, "duration": 12, "velocity": 64}, {"time": 1584, "pitch": 67, "duration": 12, "velocity": 64}, {"time": 1596, "pitch": 66, "duration": 24, "velocity": 64}, {"time": 1620, "pitch": 64, "duration": 12, "velocity": 64}, {"time": 1632, "pitch": 62, "duration": 12, "velocity": 64}, {"time": 1644, "pitch": 60, "duration": 12, "velocity": 64}, {"time": 1656, "pitch": 59, "duration": 48, "velocity": 64}, {"time": 1704, "pitch": 62, "duration": 24, "velocity": 64}, {"time": 1728, "pitch": 64, "duration": 48, "velocity": 64}, {"time": 1776, "pitch": 67, "duration": 24, "velocity": 64}, {"time": 1800, "pitch": 62, "duration": 72, "velocity": 64}, {"time": 1872, "pitch": 62, "duration": 48, "velocity": 64}, {"time": 1920, "pitch": 62, "duration": 24, "velocity": 64}, {"time": 1944, "pitch": 62, "duration": 120, "velocity": 64}, {"time": 2088, "pitch": 62, "duration": 48, "velocity": 64}, {"time": 2136, "pitch": 64, "duration": 24, "velocity": 64}, {"time": 2160, "pitch": 66, "duration": 48, "velocity": 64}, {"time": 2208, "pitch": 69, "duration": 24, "velocity": 64}, {"time": 2232, "pitch": 69, "duration": 24, "velocity": 64}, {"time": 2256, "pitch": 67, "duration": 24, "velocity": 64}, {"time": 2280, "pitch": 66, "duration": 24, "velocity": 64}, {"time": 2304, "pitch": 66, "duration": 48, "velocity": 64}, {"time": 2352, "pitch": 64, "duration": 24, "velocity": 64}, {"time": 2376, "pitch": 62, "duration": 48, "velocity": 64}, {"time": 2424, "pitch": 64, "duration": 24, "velocity": 64}, {"time": 2448, "pitch": 66, "duration": 48, "velocity": 64}, {"time": 2496, "pitch": 69, "duration": 24, "velocity": 64}, {"time": 2520, "pitch": 69, "duration": 24, "velocity": 64}, {"time": 2544, "pitch": 67, "duration": 24, "velocity": 64}, {"time": 2568, "pitch": 66, "duration": 24, "velocity": 64}, {"time": 2592, "pitch": 64, "duration": 48, "velocity": 64}, {"time": 2640, "pitch": 64, "duration": 12, "velocity": 64}, {"time": 2652, "pitch": 64, "duration": 12, "velocity": 64}, {"time": 2664, "pitch": 64, "duration": 36, "velocity": 64}, {"time": 2700, "pitch": 64, "duration": 12, "velocity": 64}, {"time": 2712, "pitch": 65, "duration": 12, "velocity": 64}, {"time": 2724, "pitch": 64, "duration": 12, "velocity": 64}, {"time": 2736, "pitch": 66, "duration": 24, "velocity": 64}, {"time": 2760, "pitch": 61, "duration": 24, "velocity": 64}, {"time": 2784, "pitch": 66, "duration": 12, "velocity": 64}, {"time": 2796, "pitch": 66, "duration": 12, "velocity": 64}, {"time": 2808, "pitch": 66, "duration": 36, "velocity": 64}, {"time": 2844, "pitch": 66, "duration": 12, "velocity": 64}, {"time": 2856, "pitch": 66, "duration": 18, "velocity": 64}, {"time": 2874, "pitch": 66, "duration": 6, "velocity": 64}, {"time": 2880, "pitch": 66, "duration": 72, "velocity": 64}, {"time": 2952, "pitch": 66, "duration": 48, "velocity": 64}, {"time": 3000, "pitch": 64, "duration": 24, "velocity": 64}, {"time": 3024, "pitch": 62, "duration": 48, "velocity": 64}, {"time": 3072, "pitch": 67, "duration": 24, "velocity": 64}, {"time": 3096, "pitch": 66, "duration": 48, "velocity": 64}, {"time": 3144, "pitch": 66, "duration": 12, "velocity": 64}, {"time": 3156, "pitch": 64, "duration": 12, "velocity": 64}, {"time": 3168, "pitch": 62, "duration": 48, "velocity": 64}, {"time": 3216, "pitch": 69, "duration": 18, "velocity": 64}, {"time": 3234, "pitch": 57, "duration": 6, "velocity": 64}, {"time": 3240, "pitch": 62, "duration": 48, "velocity": 64}, {"time": 3288, "pitch": 66, "duration": 18, "velocity": 64}, {"time": 3306, "pitch": 57, "duration": 6, "velocity": 64}, {"time": 3312, "pitch": 62, "duration": 96, "velocity": 64}]}]}