{"metadata": {"schema_version": "0.1", "title": "AUS DEM DOERFLEIN DA DRUEBEN", "source_format": "abc"}, "resolution": 24, "tempos": [{"time": 0, "qpm": 120.0}], "key_signatures": [{"time": 0, "root": 3, "mode": "major", "fifths": -3}], "time_signatures": [{"time": 0, "numerator": 3, "denominator": 4}], "beats": [{"time": 0, "is_downbeat": true}, {"time": 12, "is_downbeat": true}, {"time": 36, "is_downbeat": false}, {"time": 60, "is_downbeat": false}, {"time": 84, "is_downbeat": true}, {"time": 108, "is_downbeat": false}, {"time": 132, "is_downbeat": false}, {"time": 156, "is_downbeat": true}, {"time": 180, "is_downbeat": false}, {"time": 204, "is_downbeat": false}, {"time": 228, "is_downbeat": true}, {"time": 252, "is_downbeat": false}, {"time": 276, "is_downbeat": false}, {"time": 300, "is_downbeat": true}, {"time": 324, "is_downbeat": false}, {"time": 348, "is_downbeat": false}, {"time": 372, "is_downbeat": true}, {"time": 396, "is_downbeat": false}, {"time": 420, "is_downbeat": false}, {"time": 444, "is_downbeat": true}, {"time": 468, "is_downbeat": false}, {"time": 492, "is_downbeat": false}, {"time": 516, "is_downbeat": true}, {"time": 540, "is_downbeat": false}, {"time": 564, "is_downbeat": false}, {"time": 588, "is_downbeat": true}, {"time": 612, "is_downbeat": false}, {"time": 636, "is_downbeat": false}, {"time": 660, "is_downbeat": true}, {"time": 684, "is_downbeat": false}, {"time": 708, "is_downbeat": false}, {"time": 732, "is_downbeat": true}, {"time": 756, "is_downbeat": false}, {"time": 780, "is_downbeat": false}, {"time": 804, "is_downbeat": true}, {"time": 828, "is_downbeat": false}, {"time": 852, "is_downbeat": false}, {"time": 876, "is_downbeat": true}, {"time": 900, "is_downbeat": false}, {"time": 924, "is_downbeat": false}, {"time": 948, "is_downbeat": true}, {"time": 972, "is_downbeat": false}, {"time": 996, "is_downbeat": false}, {"time": 1020, "is_downbeat": true}, {"time": 1044, "is_downbeat": false}, {"time": 1068, "is_downbeat": false}, {"time": 1092, "is_downbeat": true}, {"time": 1116, "is_downbeat": false}, {"time": 1140, "is_downbeat": false}, {"time": 1164, "is_downbeat": true}, {"time": 1188, "is_downbeat": false}, {"time": 1212, "is_downbeat": false}, {"time": 1236, "is_downbeat": true}, {"time": 1260, "is_downbeat": false}, {"time": 1284, "is_downbeat": false}], "tracks": [{"program": 0, "is_drum": false, "notes": [{"time": 0, "pitch": 63, "duration": 6, "velocity": 64}, {"time": 6, "pitch": 65, "duration": 6, "velocity": 64}, {"time": 12, "pitch": 67, "duration": 12, "velocity": 64}, {"time": 24, "pitch": 67, "duration": 6, "velocity": 64}, {"time": 30, "pitch": 68, "duration": 6, "velocity": 64}, {"time": 36, "pitch": 70, "duration": 24, "velocity": 64}, {"time": 60, "pitch": 67, "duration": 12, "velocity": 64}, {"time": 72, "pitch": 70, "duration": 12, "velocity": 64}, {"time": 84, "pitch": 75, "duration": 12, "velocity": 64}, {"time": 96, "pitch": 74, "duration": 6, "velocity": 64}, {"time": 102, "pitch": 72, "duration": 6, "velocity": 64}, {"time": 108, "pitch": 70, "duration": 24, "velocity": 64}, {"time": 144, "pitch": 70, "duration": 6, "velocity": 64}, {"time": 150, "pitch": 68, "duration": 6, "velocity": 64}, {"time": 156, "pitch": 67, "duration": 12, "velocity": 64}, {"time": 168, "pitch": 67, "duration": 6, "velocity": 64}, {"time": 174, "pitch": 68, "duration": 6, "velocity": 64}, {"time": 180, "pitch": 70, "duration": 24, "velocity": 64}, {"time": 204, "pitch": 67, "duration": 12, "velocity": 64}, {"time": 216, "pitch": 75, "duration": 12, "velocity": 64}, {"time": 228, "pitch": 70, "duration": 12, "velocity": 64}, {"time": 240, "pitch": 67, "duration": 12, "velocity": 64}, {"time": 252, "pitch": 63, "duration": 24, "velocity": 64}, {"time": 288, "pitch": 65, "duration": 12, "velocity": 64}, {"time": 300, "pitch": 65, "duration": 24, "velocity": 64}, {"time": 324, "pitch": 65, "duration": 12, "velocity": 64}, {"time": 336, "pitch": 65, "duration": 12, "velocity": 64}, {"time": 348, "pitch": 65, "duration": 12, "velocity": 64}, {"time": 360, "pitch": 65, "duration": 6, "velocity": 64}, {"time": 366, "pitch": 65, "duration": 6, "velocity": 64}, {"time": 372, "pitch": 67, "duration": 18, "velocity": 64}, {"time": 390, "pitch": 67, "duration": 6, "velocity": 64}, {"time": 396, "pitch": 67, "duration": 24, "velocity": 64}, {"time": 432, "pitch": 63, "duration": 6, "velocity": 64}, {"time": 438, "pitch": 65, "duration": 6, "velocity": 64}, {"time": 444, "pitch": 67, "duration": 24, "velocity": 64}, {"time": 468, "pitch": 67, "duration": 12, "velocity": 64}, {"time": 480, "pitch": 67, "duration": 12, "velocity": 64}, {"time": 492, "pitch": 68, "duration": 6, "velocity": 64}, {"time": 498, "pitch": 67, "duration": 6, "velocity": 64}, {"time": 504, "pitch": 65, "duration": 6, "velocity": 64}, {"time": 510, "pitch": 67, "duration": 6, "velocity": 64}, {"time": 516, "pitch": 68, "duration": 12, "velocity": 64}, {"time": 528, "pitch": 68, "duration": 12, "velocity": 64}, {"time": 540, "pitch": 68, "duration": 24, "velocity": 64}, {"time": 588, "pitch": 62, "duration": 24, "velocity": 64}, {"time": 648, "pitch": 63, "duration": 6, "velocity": 64}, {"time": 654, "pitch": 65, "duration": 6, "velocity": 64}, {"time": 660, "pitch": 67, "duration": 12, "velocity": 64}, {"time": 672, "pitch": 67, "duration": 6, "velocity": 64}, {"time": 678, "pitch": 68, "duration": 6, "velocity": 64}, {"time": 684, "pitch": 70, "duration": 24, "velocity": 64}, {"time": 708, "pitch": 67, "duration": 12, "velocity": 64}, {"time": 720, "pitch": 70, "duration": 12, "velocity": 64}, {"time": 732, "pitch": 75, "duration": 12, "velocity": 64}, {"time": 744, "pitch": 74, "duration": 6, "velocity": 64}, {"time": 750, "pitch": 72, "duration": 6, "velocity": 64}, {"time": 756, "pitch": 70, "duration": 24, "velocity": 64}, {"time": 792, "pitch": 63, "duration": 6, "velocity": 64}, {"time": 798, "pitch": 65, "duration": 6, "velocity": 64}, {"time": 804, "pitch": 67, "duration": 12, "velocity": 64}, {"time": 816, "pitch": 67, "duration": 6, "velocity": 64}, {"time": 822, "pitch": 68, "duration": 6, "velocity": 64}, {"time": 828, "pitch": 70, "duration": 24, "velocity": 64}, {"time": 852, "pitch": 67, "duration": 12, "velocity": 64}, {"time": 864, "pitch": 63, "duration": 12, "velocity": 64}, {"time": 876, "pitch": 65, "duration": 12, "velocity": 64}, {"time": 888, "pitch": 65, "duration": 12, "velocity": 64}, {"time": 900, "pitch": 63, "duration": 24, "velocity": 64}, {"time": 936, "pitch": 67, "duration": 6, "velocity": 64}, {"time": 942, "pitch": 68, "duration": 6, "velocity": 64}, {"time": 948, "pitch": 70, "duration": 24, "velocity": 64}, {"time": 972, "pitch": 70, "duration": 24, "velocity": 64}, {"time": 996, "pitch": 70, "duration": 24, "velocity": 64}, {"time": 1020, "pitch": 72, "duration": 24, "velocity": 64}, {"time": 1044, "pitch": 72, "duration": 24, "velocity": 64}, {"time": 1068, "pitch": 72, "duration": 24, "velocity": 64}, {"time": 1092, "pitch": 74, "duration": 36, "velocity": 64}, {"time": 1128, "pitch": 72, "duration": 12, "velocity": 64}, {"time": 1140, "pitch": 74, "duration": 24, "velocity": 64}, {"time": 1164, "pitch": 75, "duration": 24, "velocity": 64}, {"time": 1212, "pitch": 58, "duration": 24, "velocity": 64}, {"time": 1236, "pitch": 58, "duration": 48, "velocity": 64}]}]}