{"metadata": {"schema_version": "0.1", "title": "HILDEBRAND UND SEIN SOHN HADUBRAND", "source_format": "abc"}, "resolution": 24, "tempos": [{"time": 0, "qpm": 120.0}], "key_signatures": [{"time": 0, "root": 7, "mode": "major", "fifths": 1}], "time_signatures": [{"time": 0, "numerator": 2, "denominator": 4}], "beats": [{"time": 0, "is_downbeat": true}, {"time": 24, "is_downbeat": false}, {"time": 48, "is_downbeat": true}, {"time": 72, "is_downbeat": false}, {"time": 96, "is_downbeat": true}, {"time": 120, "is_downbeat": false}, {"time": 144, "is_downbeat": true}, {"time": 168, "is_downbeat": false}, {"time": 192, "is_downbeat": true}, {"time": 216, "is_downbeat": false}, {"time": 240, "is_downbeat": true}, {"time": 264, "is_downbeat": false}, {"time": 288, "is_downbeat": true}, {"time": 312, "is_downbeat": false}, {"time": 336, "is_downbeat": true}, {"time": 360, "is_downbeat": false}, {"time": 384, "is_downbeat": true}, {"time": 408, "is_downbeat": false}, {"time": 432, "is_downbeat": true}, {"time": 456, "is_downbeat": false}, {"time": 480, "is_downbeat": true}, {"time": 504, "is_downbeat": false}, {"time": 528, "is_downbeat": true}, {"time": 552, "is_downbeat": false}, {"time": 576, "is_downbeat": true}, {"time": 600, "is_downbeat": false}, {"time": 624, "is_downbeat": true}, {"time": 648, "is_downbeat": false}, {"time": 672, "is_downbeat": true}, {"time": 696, "is_downbeat": false}], "tracks": [{"program": 0, "is_drum": false, "notes": [{"time": 0, "pitch": 67, "duration": 12, "velocity": 64}, {"time": 12, "pitch": 67, "duration": 12, "velocity": 64}, {"time": 24, "pitch": 67, "duration": 24, "velocity": 64}, {"time": 48, "pitch": 71, "duration": 12, "velocity": 64}, {"time": 60, "pitch": 67, "duration": 12, "velocity": 64}, {"time": 72, "pitch": 71, "duration": 24, "velocity": 64}, {"time": 96, "pitch": 74, "duration": 36, "velocity": 64}, {"time": 132, "pitch": 74, "duration": 12, "velocity": 64}, {"time": 144, "pitch": 74, "duration": 24, "velocity": 64}, {"time": 192, "pitch": 67, "duration": 12, "velocity": 64}, {"time": 204, "pitch": 67, "duration": 12, "velocity": 64}, {"time": 216, "pitch": 67, "duration": 24, "velocity": 64}, {"time": 240, "pitch": 69, "duration": 12, "velocity": 64}, {"time": 252, "pitch": 67, "duration": 12, "velocity": 64}, {"time": 264, "pitch": 69, "duration": 24, "velocity": 64}, {"time": 288, "pitch": 71, "duration": 36, "velocity": 64}, {"time": 324, "pitch": 71, "duration": 12, "velocity": 64}, {"time": 336, "pitch": 71, "duration": 24, "velocity": 64}, {"time": 384, "pitch": 72, "duration": 8, "velocity": 64}, {"time": 392, "pitch": 71, "duration": 8, "velocity": 64}, {"time": 400, "pitch": 69, "duration": 8, "velocity": 64}, {"time": 408, "pitch": 67, "duration": 8, "velocity": 64}, {"time": 416, "pitch": 66, "duration": 8, "velocity": 64}, {"time": 424, "pitch": 64, "duration": 8, "velocity": 64}, {"time": 432, "pitch": 63, "duration": 24, "velocity": 64}, {"time": 456, "pitch": 64, "duration": 24, "velocity": 64}, {"time": 480, "pitch": 66, "duration": 8, "velocity": 64}, {"time": 488, "pitch": 67, "duration": 8, "velocity": 64}, {"time": 496, "pitch": 69, "duration": 8, "velocity": 64}, {"time": 504, "pitch": 67, "duration": 8, "velocity": 64}, {"time": 512, "pitch": 69, "duration": 8, "velocity": 64}, {"time": 520, "pitch": 71, "duration": 8, "velocity": 64}, {"time": 528, "pitch": 74, "duration": 24, "velocity": 64}, {"time": 552, "pitch": 71, "duration": 24, "velocity": 64}, {"time": 576, "pitch": 72, "duration": 8, "velocity": 64}, {"time": 584, "pitch": 71, "duration": 8, "velocity": 64}, {"time": 592, "pitch": 69, "duration": 8, "velocity": 64}, {"time": 600, "pitch": 67, "duration": 8, "velocity": 64}, {"time": 608, "pitch": 66, "duration": 8, "velocity": 64}, {"time": 616, "pitch": 64, "duration": 8, "velocity": 64}, {"time": 624, "pitch": 71, "duration": 48, "velocity": 64}, {"time": 672, "pitch": 71, "duration": 48, "velocity": 64}]}]}