{"metadata": {"schema_version": "0.1", "title": "ACH DENKET DENKET MIEN HERZ IST FORT", "source_format": "abc"}, "resolution": 24, "tempos": [{"time": 0, "qpm": 120.0}], "key_signatures": [{"time": 0, "root": 8, "mode": "major", "fifths": -4}], "time_signatures": [{"time": 0, "numerator": 2, "denominator": 4}], "beats": [{"time": 0, "is_downbeat": true}, {"time": 12, "is_downbeat": true}, {"time": 36, "is_downbeat": false}, {"time": 60, "is_downbeat": true}, {"time": 84, "is_downbeat": false}, {"time": 108, "is_downbeat": true}, {"time": 132, "is_downbeat": false}, {"time": 156, "is_downbeat": true}, {"time": 180, "is_downbeat": false}, {"time": 204, "is_downbeat": true}, {"time": 228, "is_downbeat": false}, {"time": 252, "is_downbeat": true}, {"time": 276, "is_downbeat": false}], "tracks": [{"program": 0, "is_drum": false, "notes": [{"time": 0, "pitch": 75, "duration": 12, "velocity": 64}, {"time": 12, "pitch": 75, "duration": 24, "velocity": 64}, {"time": 36, "pitch": 77, "duration": 12, "velocity": 64}, {"time": 48, "pitch": 75, "duration": 6, "velocity": 64}, {"time": 54, "pitch": 73, "duration": 6, "velocity": 64}, {"time": 60, "pitch": 72, "duration": 12, "velocity": 64}, {"time": 72, "pitch": 72, "duration": 6, "velocity": 64}, {"time": 78, "pitch": 72, "duration": 6, "velocity": 64}, {"time": 84, "pitch": 73, "duration": 12, "velocity": 64}, {"time": 96, "pitch": 70, "duration": 12, "velocity": 64}, {"time": 108, "pitch": 72, "duration": 24, "velocity": 64}, {"time": 144, "pitch": 72, "duration": 12, "velocity": 64}, {"time": 156, "pitch": 72, "duration": 24, "velocity": 64}, {"time": 180, "pitch": 73, "duration": 12, "velocity": 64}, {"time": 192, "pitch": 72, "duration": 6, "velocity": 64}, {"time": 198, "pitch": 70, "duration": 6, "velocity": 64}, {"time": 204, "pitch": 68, "duration": 12, "velocity": 64}, {"time": 216, "pitch": 68, "duration": 6, "velocity": 64}, {"time": 222, "pitch": 68, "duration": 6, "velocity": 64}, {"time": 228, "pitch": 70, "duration": 12, "velocity": 64}, {"time": 240, "pitch": 67, "duration": 12, "velocity": 64}, {"time": 252, "pitch": 68, "duration": 12, "velocity": 64}]}]}