{"metadata": {"schema_version": "0.1", "title": "AM STILLEN HAIN IM MONDENSCHEIN", "source_format": "abc"}, "resolution": 24, "tempos": [{"time": 0, "qpm": 120.0}], "key_signatures": [{"time": 0, "root": 8, "mode": "major", "fifths": -4}], "time_signatures": [{"time": 0, "numerator": 3, "denominator": 4}], "beats": [{"time": 0, "is_downbeat": true}, {"time": 24, "is_downbeat": true}, {"time": 48, "is_downbeat": false}, {"time": 72, "is_downbeat": false}, {"time": 96, "is_downbeat": true}, {"time": 120, "is_downbeat": false}, {"time": 144, "is_downbeat": false}, {"time": 168, "is_downbeat": true}, {"time": 192, "is_downbeat": false}, {"time": 216, "is_downbeat": false}, {"time": 240, "is_downbeat": true}, {"time": 264, "is_downbeat": false}, {"time": 288, "is_downbeat": false}, {"time": 312, "is_downbeat": true}, {"time": 336, "is_downbeat": false}, {"time": 360, "is_downbeat": false}, {"time": 384, "is_downbeat": true}, {"time": 408, "is_downbeat": false}, {"time": 432, "is_downbeat": false}, {"time": 456, "is_downbeat": true}, {"time": 480, "is_downbeat": false}, {"time": 504, "is_downbeat": false}, {"time": 528, "is_downbeat": true}, {"time": 552, "is_downbeat": false}, {"time": 576, "is_downbeat": false}, {"time": 600, "is_downbeat": true}, {"time": 624, "is_downbeat": false}, {"time": 648, "is_downbeat": false}], "tracks": [{"program": 0, "is_drum": false, "notes": [{"time": 0, "pitch": 63, "duration": 24, "velocity": 64}, {"time": 24, "pitch": 72, "duration": 18, "velocity": 64}, {"time": 42, "pitch": 72, "duration": 6, "velocity": 64}, {"time": 48, "pitch": 72, "duration": 36, "velocity": 64}, {"time": 84, "pitch": 63, "duration": 12, "velocity": 64}, {"time": 96, "pitch": 73, "duration": 18, "velocity": 64}, {"time": 114, "pitch": 73, "duration": 6, "velocity": 64}, {"time": 120, "pitch": 73, "duration": 36, "velocity": 64}, {"time": 156, "pitch": 72, "duration": 6, "velocity": 64}, {"time": 162, "pitch": 72, "duration": 6, "velocity": 64}, {"time": 168, "pitch": 70, "duration": 32, "velocity": 64}, {"time": 200, "pitch": 69, "duration": 8, "velocity": 64}, {"time": 208, "pitch": 70, "duration": 8, "velocity": 64}, {"time": 216, "pitch": 70, "duration": 8, "velocity": 64}, {"time": 224, "pitch": 72, "duration": 8, "velocity": 64}, {"time": 232, "pitch": 73, "duration": 8, "velocity": 64}, {"time": 240, "pitch": 75, "duration": 32, "velocity": 64}, {"time": 272, "pitch": 74, "duration": 8, "velocity": 64}, {"time": 280, "pitch": 75, "duration": 8, "velocity": 64}, {"time": 288, "pitch": 75, "duration": 8, "velocity": 64}, {"time": 296, "pitch": 72, "duration": 8, "velocity": 64}, {"time": 304, "pitch": 68, "duration": 8, "velocity": 64}, {"time": 312, "pitch": 80, "duration": 48, "velocity": 64}, {"time": 360, "pitch": 78, "duration": 12, "velocity": 64}, {"time": 372, "pitch": 76, "duration": 12, "velocity": 64}, {"time": 384, "pitch": 75, "duration": 36, "velocity": 64}, {"time": 420, "pitch": 72, "duration": 12, "velocity": 64}, {"time": 432, "pitch": 75, "duration": 12, "velocity": 64}, {"time": 444, "pitch": 80, "duration": 12, "velocity": 64}, {"time": 456, "pitch": 80, "duration": 24, "velocity": 64}, {"time": 480, "pitch": 79, "duration": 12, "velocity": 64}, {"time": 492, "pitch": 73, "duration": 12, "velocity": 64}, {"time": 504, "pitch": 77, "duration": 12, "velocity": 64}, {"time": 516, "pitch": 75, "duration": 12, "velocity": 64}, {"time": 528, "pitch": 75, "duration": 96, "velocity": 64}]}]}