{"metadata": {"schema_version": "0.1", "title": "EIN GETREUES HERZ ZU WISSEN", "source_format": "abc"}, "resolution": 24, "tempos": [{"time": 0, "qpm": 120.0}], "key_signatures": [{"time": 0, "root": 0, "mode": "major", "fifths": 0}], "time_signatures": [{"time": 0, "numerator": 4, "denominator": 4}], "beats": [{"time": 0, "is_downbeat": true}, {"time": 24, "is_downbeat": false}, {"time": 48, "is_downbeat": true}, {"time": 72, "is_downbeat": false}, {"time": 96, "is_downbeat": false}, {"time": 120, "is_downbeat": false}, {"time": 144, "is_downbeat": true}, {"time": 168, "is_downbeat": false}, {"time": 192, "is_downbeat": false}, {"time": 216, "is_downbeat": false}, {"time": 240, "is_downbeat": true}, {"time": 264, "is_downbeat": false}, {"time": 288, "is_downbeat": false}, {"time": 312, "is_downbeat": false}, {"time": 336, "is_downbeat": true}, {"time": 360, "is_downbeat": false}, {"time": 384, "is_downbeat": false}, {"time": 408, "is_downbeat": false}, {"time": 432, "is_downbeat": true}, {"time": 456, "is_downbeat": false}, {"time": 480, "is_downbeat": false}, {"time": 504, "is_downbeat": false}, {"time": 528, "is_downbeat": true}, {"time": 552, "is_downbeat": false}, {"time": 576, "is_downbeat": false}, {"time": 600, "is_downbeat": false}, {"time": 624, "is_downbeat": true}, {"time": 648, "is_downbeat": false}, {"time": 672, "is_downbeat": false}, {"time": 696, "is_downbeat": false}, {"time": 720, "is_downbeat": true}, {"time": 744, "is_downbeat": false}, {"time": 768, "is_downbeat": false}, {"time": 792, "is_downbeat": false}, {"time": 816, "is_downbeat": true}, {"time": 840, "is_downbeat": false}, {"time": 864, "is_downbeat": false}, {"time": 888, "is_downbeat": false}, {"time": 912, "is_downbeat": true}, {"time": 936, "is_downbeat": false}, {"time": 960, "is_downbeat": false}, {"time": 984, "is_downbeat": false}, {"time": 1008, "is_downbeat": true}, {"time": 1032, "is_downbeat": false}, {"time": 1056, "is_downbeat": false}, {"time": 1080, "is_downbeat": false}, {"time": 1104, "is_downbeat": true}, {"time": 1128, "is_downbeat": false}, {"time": 1152, "is_downbeat": false}, {"time": 1176, "is_downbeat": false}], "tracks": [{"program": 0, "is_drum": false, "notes": [{"time": 0, "pitch": 60, "duration": 24, "velocity": 64}, {"time": 24, "pitch": 64, "duration": 24, "velocity": 64}, {"time": 48, "pitch": 67, "duration": 36, "velocity": 64}, {"time": 84, "pitch": 64, "duration": 12, "velocity": 64}, {"time": 96, "pitch": 62, "duration": 12, "velocity": 64}, {"time": 108, "pitch": 64, "duration": 12, "velocity": 64}, {"time": 120, "pitch": 65, "duration": 12, "velocity": 64}, {"time": 132, "pitch": 67, "duration": 12, "velocity": 64}, {"time": 144, "pitch": 65, "duration": 12, "velocity": 64}, {"time": 156, "pitch": 64, "duration": 12, "velocity": 64}, {"time": 168, "pitch": 64, "duration": 24, "velocity": 64}, {"time": 192, "pitch": 67, "duration": 24, "velocity": 64}, {"time": 216, "pitch": 67, "duration": 24, "velocity": 64}, {"time": 240, "pitch": 72, "duration": 36, "velocity": 64}, {"time": 276, "pitch": 71, "duration": 12, "velocity": 64}, {"time": 288, "pitch": 69, "duration": 12, "velocity": 64}, {"time": 300, "pitch": 67, "duration": 12, "velocity": 64}, {"time": 312, "pitch": 65, "duration": 12, "velocity": 64}, {"time": 324, "pitch": 64, "duration": 12, "velocity": 64}, {"time": 336, "pitch": 62, "duration": 48, "velocity": 64}, {"time": 384, "pitch": 67, "duration": 24, "velocity": 64}, {"time": 408, "pitch": 71, "duration": 24, "velocity": 64}, {"time": 432, "pitch": 74, "duration": 36, "velocity": 64}, {"time": 468, "pitch": 71, "duration": 12, "velocity": 64}, {"time": 480, "pitch": 69, "duration": 12, "velocity": 64}, {"time": 492, "pitch": 71, "duration": 12, "velocity": 64}, {"time": 504, "pitch": 72, "duration": 12, "velocity": 64}, {"time": 516, "pitch": 74, "duration": 12, "velocity": 64}, {"time": 528, "pitch": 72, "duration": 12, "velocity": 64}, {"time": 540, "pitch": 71, "duration": 12, "velocity": 64}, {"time": 552, "pitch": 71, "duration": 24, "velocity": 64}, {"time": 576, "pitch": 62, "duration": 24, "velocity": 64}, {"time": 600, "pitch": 67, "duration": 24, "velocity": 64}, {"time": 624, "pitch": 64, "duration": 24, "velocity": 64}, {"time": 648, "pitch": 72, "duration": 24, "velocity": 64}, {"time": 672, "pitch": 71, "duration": 24, "velocity": 64}, {"time": 696, "pitch": 69, "duration": 12, "velocity": 64}, {"time": 708, "pitch": 71, "duration": 12, "velocity": 64}, {"time": 720, "pitch": 67, "duration": 48, "velocity": 64}, {"time": 768, "pitch": 67, "duration": 24, "velocity": 64}, {"time": 792, "pitch": 67, "duration": 24, "velocity": 64}, {"time": 816, "pitch": 72, "duration": 24, "velocity": 64}, {"time": 840, "pitch": 64, "duration": 24, "velocity": 64}, {"time": 864, "pitch": 69, "duration": 24, "velocity": 64}, {"time": 888, "pitch": 69, "duration": 24, "velocity": 64}, {"time": 912, "pitch": 67, "duration": 48, "velocity": 64}, {"time": 960, "pitch": 64, "duration": 24, "velocity": 64}, {"time": 984, "pitch": 67, "duration": 24, "velocity": 64}, {"time": 1008, "pitch": 72, "duration": 24, "velocity": 64}, {"time": 1032, "pitch": 76, "duration": 24, "velocity": 64}, {"time": 1056, "pitch": 74, "duration": 36, "velocity": 64}, {"time": 1092, "pitch": 71, "duration": 12, "velocity": 64}, {"time": 1104, "pitch": 72, "duration": 48, "velocity": 64}]}]}