{"metadata": {"schema_version": "0.1", "title": "Mevlevi Ayini", "source_format": "abc"}, "resolution": 24, "tempos": [{"time": 0, "qpm": 120.0}], "key_signatures": [{"time": 0, "root": 7, "mode": "major", "fifths": 1}], "time_signatures": [{"time": 0, "numerator": 4, "denominator": 4}], "tracks": [{"program": 0, "is_drum": false, "notes": [{"time": 0, "pitch": 69, "duration": 24, "velocity": 64}, {"time": 24, "pitch": 67, "duration": 12, "velocity": 64}, {"time": 36, "pitch": 71, "duration": 12, "velocity": 64}, {"time": 48, "pitch": 72, "duration": 12, "velocity": 64}, {"time": 60, "pitch": 74, "duration": 24, "velocity": 64}, {"time": 84, "pitch": 76, "duration": 24, "velocity": 64}, {"time": 108, "pitch": 74, "duration": 12, "velocity": 64}, {"time": 120, "pitch": 74, "duration": 12, "velocity": 64}, {"time": 132, "pitch": 76, "duration": 12, "velocity": 64}, {"time": 144, "pitch": 74, "duration": 12, "velocity": 64}, {"time": 156, "pitch": 72, "duration": 12, "velocity": 64}, {"time": 168, "pitch": 74, "duration": 12, "velocity": 64}, {"time": 180, "pitch": 72, "duration": 12, "velocity": 64}, {"time": 192, "pitch": 71, "duration": 12, "velocity": 64}, {"time": 204, "pitch": 72, "duration": 24, "velocity": 64}, {"time": 228, "pitch": 74, "duration": 24, "velocity": 64}, {"time": 252, "pitch": 74, "duration": 24, "velocity": 64}, {"time": 276, "pitch": 67, "duration": 12, "velocity": 64}, {"time": 288, "pitch": 74, "duration": 12, "velocity": 64}, {"time": 300, "pitch": 72, "duration": 12, "velocity": 64}, {"time": 312, "pitch": 72, "duration": 12, "velocity": 64}, {"time": 324, "pitch": 74, "duration": 12, "velocity": 64}, {"time": 336, "pitch": 76, "duration": 12, "velocity": 64}, {"time": 348, "pitch": 74, "duration": 12, "velocity": 64}, {"time": 360, "pitch": 72, "duration": 12, "velocity": 64}, {"time": 372, "pitch": 71, "duration": 12, "velocity": 64}, {"time": 384, "pitch": 72, "duration": 12, "velocity": 64}, {"time": 396, "pitch": 74, "duration": 24, "velocity": 64}, {"time": 420, "pitch": 72, "duration": 24, "velocity": 64}, {"time": 444, "pitch": 71, "duration": 12, "velocity": 64}, {"time": 456, "pitch": 72, "duration": 24, "velocity": 64}, {"time": 480, "pitch": 74, "duration": 12, "velocity": 64}, {"time": 492, "pitch": 72, "duration": 12, "velocity": 64}, {"time": 504, "pitch": 71, "duration": 12, "velocity": 64}, {"time": 516, "pitch": 69, "duration": 12, "velocity": 64}, {"time": 528, "pitch": 71, "duration": 6, "velocity": 64}, {"time": 534, "pitch": 72, "duration": 6, "velocity": 64}, {"time": 540, "pitch": 71, "duration": 12, "velocity": 64}, {"time": 552, "pitch": 72, "duration": 12, "velocity": 64}, {"time": 564, "pitch": 71, "duration": 12, "velocity": 64}, {"time": 576, "pitch": 69, "duration": 12, "velocity": 64}, {"time": 588, "pitch": 72, "duration": 12, "velocity": 64}, {"time": 600, "pitch": 71, "duration": 12, "velocity": 64}, {"time": 612, "pitch": 69, "duration": 12, "velocity": 64}, {"time": 624, "pitch": 71, "duration": 24, "velocity": 64}, {"time": 648, "pitch": 72, "duration": 24, "velocity": 64}, {"time": 672, "pitch": 74, "duration": 24, "velocity": 64}, {"time": 708, "pitch": 76, "duration": 24, "velocity": 64}, {"time": 732, "pitch": 74, "duration": 24, "velocity": 64}, {"time": 756, "pitch": 72, "duration": 24, "velocity": 64}, {"time": 780, "pitch": 71, "duration": 12, "velocity": 64}, {"time": 792, "pitch": 69, "duration": 12, "velocity": 64}, {"time": 804, "pitch": 71, "duration": 12, "velocity": 64}, {"time": 816, "pitch": 67, "duration": 24, "velocity": 64}, {"time": 840, "pitch": 74, "duration": 36, "velocity": 64}, {"time": 876, "pitch": 72, "duration": 12, "velocity": 64}, {"time": 888, "pitch": 71, "duration": 12, "velocity": 64}, {"time": 900, "pitch": 69, "duration": 24, "velocity": 64}, {"time": 924, "pitch": 76, "duration": 12, "velocity": 64}, {"time": 936, "pitch": 76, "duration": 12, "velocity": 64}, {"time": 948, "pitch": 74, "duration": 12, "velocity": 64}, {"time": 960, "pitch": 74, "duration": 36, "velocity": 64}, {"time": 1008, "pitch": 69, "duration": 24, "velocity": 64}, {"time": 1032, "pitch": 67, "duration": 12, "velocity": 64}, {"time": 1044, "pitch": 71, "duration": 12, "velocity": 64}, {"time": 1056, "pitch": 72, "duration": 12, "velocity": 64}, {"time": 1068, "pitch": 74, "duration": 24, "velocity": 64}, {"time": 1092, "pitch": 76, "duration": 24, "velocity": 64}, {"time": 1116, "pitch": 74, "duration": 12, "velocity": 64}, {"time": 1128, "pitch": 74, "duration": 12, "velocity": 64}, {"time": 1140, "pitch": 76, "duration": 12, "velocity": 64}, {"time": 1152, "pitch": 74, "duration": 12, "velocity": 64}, {"time": 1164, "pitch": 72, "duration": 12, "velocity": 64}, {"time": 1176, "pitch": 74, "duration": 12, "velocity": 64}, {"time": 1188, "pitch": 72, "duration": 12, "velocity": 64}, {"time": 1200, "pitch": 71, "duration": 12, "velocity": 64}, {"time": 1212, "pitch": 72, "duration": 24, "velocity": 64}, {"time": 1236, "pitch": 74, "duration": 48, "velocity": 64}, {"time": 1284, "pitch": 67, "duration": 12, "velocity": 64}, {"time": 1296, "pitch": 74, "duration": 12, "velocity": 64}, {"time": 1308, "pitch": 72, "duration": 12, "velocity": 64}, {"time": 1320, "pitch": 72, "duration": 12, "velocity": 64}, {"time": 1332, "pitch": 74, "duration": 12, "velocity": 64}, {"time": 1344, "pitch": 76, "duration": 12, "velocity": 64}, {"time": 1356, "pitch": 74, "duration": 12, "velocity": 64}, {"time": 1368, "pitch": 72, "duration": 12, "velocity": 64}, {"time": 1380, "pitch": 71, "duration": 12, "velocity": 64}, {"time": 1392, "pitch": 72, "duration": 12, "velocity": 64}, {"time": 1404, "pitch": 74, "duration": 24, "velocity": 64}, {"time": 1428, "pitch": 72, "duration": 24, "velocity": 64}, {"time": 1452, "pitch": 71, "duration": 12, "velocity": 64}, {"time": 1464, "pitch": 72, "duration": 24, "velocity": 64}, {"time": 1488, "pitch": 74, "duration": 12, "velocity": 64}, {"time": 1500, "pitch": 72, "duration": 12, "velocity": 64}, {"time": 1512, "pitch": 71, "duration": 12, "velocity": 64}, {"time": 1524, "pitch": 69, "duration": 12, "velocity": 64}, {"time": 1536, "pitch": 71, "duration": 6, "velocity": 64}, {"time": 1542, "pitch": 72, "duration": 6, "velocity": 64}, {"time": 1548, "pitch": 71, "duration": 12, "velocity": 64}, {"time": 1560, "pitch": 72, "duration": 12, "velocity": 64}, {"time": 1572, "pitch": 71, "duration": 12, "velocity": 64}, {"time": 1584, "pitch": 69, "duration": 12, "velocity": 64}, {"time": 1596, "pitch": 72, "duration": 12, "velocity": 64}, {"time": 1608, "pitch": 71, "duration": 12, "velocity": 64}, {"time": 1620, "pitch": 69, "duration": 12, "velocity": 64}, {"time": 1632, "pitch": 71, "duration": 24, "velocity": 64}, {"time": 1656, "pitch": 72, "duration": 24, "velocity": 64}, {"time": 1680, "pitch": 74, "duration": 24, "velocity": 64}, {"time": 1716, "pitch": 76, "duration": 24, "velocity": 64}, {"time": 1740, "pitch": 74, "duration": 24, "velocity": 64}, {"time": 1764, "pitch": 72, "duration": 24, "velocity": 64}, {"time": 1788, "pitch": 71, "duration": 12, "velocity": 64}, {"time": 1800, "pitch": 69, "duration": 12, "velocity": 64}, {"time": 1812, "pitch": 71, "duration": 12, "velocity": 64}, {"time": 1824, "pitch": 67, "duration": 24, "velocity": 64}, {"time": 1848, "pitch": 74, "duration": 36, "velocity": 64}, {"time": 1884, "pitch": 72, "duration": 12, "velocity": 64}, {"time": 1896, "pitch": 71, "duration": 12, "velocity": 64}, {"time": 1908, "pitch": 69, "duration": 24, "velocity": 64}, {"time": 1932, "pitch": 76, "duration": 12, "velocity": 64}, {"time": 1944, "pitch": 76, "duration": 12, "velocity": 64}, {"time": 1956, "pitch": 74, "duration": 12, "velocity": 64}, {"time": 1968, "pitch": 74, "duration": 36, "velocity": 64}, {"time": 2016, "pitch": 69, "duration": 24, "velocity": 64}, {"time": 2040, "pitch": 67, "duration": 12, "velocity": 64}, {"time": 2052, "pitch": 71, "duration": 12, "velocity": 64}, {"time": 2064, "pitch": 72, "duration": 12, "velocity": 64}, {"time": 2076, "pitch": 74, "duration": 24, "velocity": 64}, {"time": 2100, "pitch": 76, "duration": 24, "velocity": 64}, {"time": 2124, "pitch": 74, "duration": 12, "velocity": 64}, {"time": 2136, "pitch": 74, "duration": 12, "velocity": 64}, {"time": 2148, "pitch": 76, "duration": 12, "velocity": 64}, {"time": 2160, "pitch": 74, "duration": 12, "velocity": 64}, {"time": 2172, "pitch": 72, "duration": 12, "velocity": 64}, {"time": 2184, "pitch": 74, "duration": 12, "velocity": 64}, {"time": 2196, "pitch": 72, "duration": 12, "velocity": 64}, {"time": 2208, "pitch": 71, "duration": 12, "velocity": 64}, {"time": 2220, "pitch": 72, "duration": 24, "velocity": 64}, {"time": 2244, "pitch": 74, "duration": 48, "velocity": 64}, {"time": 2292, "pitch": 67, "duration": 12, "velocity": 64}, {"time": 2304, "pitch": 74, "duration": 12, "velocity": 64}, {"time": 2316, "pitch": 72, "duration": 12, "velocity": 64}, {"time": 2328, "pitch": 72, "duration": 12, "velocity": 64}, {"time": 2340, "pitch": 74, "duration": 12, "velocity": 64}, {"time": 2352, "pitch": 76, "duration": 12, "velocity": 64}, {"time": 2364, "pitch": 74, "duration": 12, "velocity": 64}, {"time": 2376, "pitch": 72, "duration": 12, "velocity": 64}, {"time": 2388, "pitch": 71, "duration": 12, "velocity": 64}, {"time": 2400, "pitch": 72, "duration": 12, "velocity": 64}, {"time": 2412, "pitch": 74, "duration": 24, "velocity": 64}, {"time": 2436, "pitch": 72, "duration": 24, "velocity": 64}, {"time": 2460, "pitch": 71, "duration": 12, "velocity": 64}, {"time": 2472, "pitch": 72, "duration": 24, "velocity": 64}, {"time": 2496, "pitch": 74, "duration": 12, "velocity": 64}, {"time": 2508, "pitch": 72, "duration": 12, "velocity": 64}, {"time": 2520, "pitch": 71, "duration": 12, "velocity": 64}, {"time": 2532, "pitch": 69, "duration": 12, "velocity": 64}, {"time": 2544, "pitch": 71, "duration": 6, "velocity": 64}, {"time": 2550, "pitch": 72, "duration": 6, "velocity": 64}, {"time": 2556, "pitch": 71, "duration": 12, "velocity": 64}, {"time": 2568, "pitch": 72, "duration": 12, "velocity": 64}, {"time": 2580, "pitch": 71, "duration": 12, "velocity": 64}, {"time": 2592, "pitch": 69, "duration": 12, "velocity": 64}, {"time": 2604, "pitch": 72, "duration": 12, "velocity": 64}, {"time": 2616, "pitch": 71, "duration": 12, "velocity": 64}, {"time": 2628, "pitch": 69, "duration": 12, "velocity": 64}, {"time": 2640, "pitch": 71, "duration": 24, "velocity": 64}, {"time": 2664, "pitch": 72, "duration": 24, "velocity": 64}, {"time": 2688, "pitch": 74, "duration": 24, "velocity": 64}, {"time": 2724, "pitch": 76, "duration": 24, "velocity": 64}, {"time": 2748, "pitch": 74, "duration": 24, "velocity": 64}, {"time": 2772, "pitch": 72, "duration": 24, "velocity": 64}, {"time": 2796, "pitch": 71, "duration": 12, "velocity": 64}, {"time": 2808, "pitch": 69, "duration": 12, "velocity": 64}, {"time": 2820, "pitch": 71, "duration": 12, "velocity": 64}, {"time": 2832, "pitch": 67, "duration": 24, "velocity": 64}]}]}