{"metadata": {"schema_version": "0.1", "title": "Lullaby", "source_format": "abc"}, "resolution": 24, "tempos": [{"time": 0, "qpm": 120.0}], "key_signatures": [{"time": 0, "root": 3, "mode": "major", "fifths": -3}], "time_signatures": [{"time": 0, "numerator": 4, "denominator": 4}], "tracks": [{"program": 0, "is_drum": false, "notes": [{"time": 0, "pitch": 67, "duration": 48, "velocity": 64}, {"time": 48, "pitch": 63, "duration": 48, "velocity": 64}, {"time": 96, "pitch": 63, "duration": 12, "velocity": 64}, {"time": 108, "pitch": 58, "duration": 36, "velocity": 64}, {"time": 144, "pitch": 63, "duration": 36, "velocity": 64}, {"time": 192, "pitch": 67, "duration": 12, "velocity": 64}, {"time": 204, "pitch": 65, "duration": 36, "velocity": 64}, {"time": 240, "pitch": 63, "duration": 48, "velocity": 64}, {"time": 288, "pitch": 63, "duration": 12, "velocity": 64}, {"time": 300, "pitch": 58, "duration": 36, "velocity": 64}, {"time": 336, "pitch": 63, "duration": 36, "velocity": 64}, {"time": 384, "pitch": 63, "duration": 12, "velocity": 64}, {"time": 396, "pitch": 63, "duration": 12, "velocity": 64}, {"time": 408, "pitch": 65, "duration": 12, "velocity": 64}, {"time": 420, "pitch": 67, "duration": 12, "velocity": 64}, {"time": 432, "pitch": 63, "duration": 36, "velocity": 64}, {"time": 480, "pitch": 63, "duration": 24, "velocity": 64}, {"time": 504, "pitch": 58, "duration": 24, "velocity": 64}, {"time": 528, "pitch": 63, "duration": 36, "velocity": 64}, {"time": 576, "pitch": 67, "duration": 24, "velocity": 64}, {"time": 600, "pitch": 63, "duration": 24, "velocity": 64}, {"time": 624, "pitch": 67, "duration": 36, "velocity": 64}, {"time": 672, "pitch": 63, "duration": 12, "velocity": 64}, {"time": 684, "pitch": 63, "duration": 12, "velocity": 64}, {"time": 696, "pitch": 67, "duration": 24, "velocity": 64}, {"time": 720, "pitch": 63, "duration": 36, "velocity": 64}, {"time": 768, "pitch": 63, "duration": 24, "velocity": 64}, {"time": 792, "pitch": 58, "duration": 24, "velocity": 64}, {"time": 816, "pitch": 63, "duration": 36, "velocity": 64}, {"time": 864, "pitch": 63, "duration": 24, "velocity": 64}, {"time": 888, "pitch": 58, "duration": 24, "velocity": 64}, {"time": 912, "pitch": 63, "duration": 36, "velocity": 64}, {"time": 960, "pitch": 67, "duration": 12, "velocity": 64}, {"time": 972, "pitch": 65, "duration": 36, "velocity": 64}, {"time": 1008, "pitch": 63, "duration": 36, "velocity": 64}, {"time": 1056, "pitch": 63, "duration": 12, "velocity": 64}, {"time": 1068, "pitch": 58, "duration": 36, "velocity": 64}, {"time": 1104, "pitch": 63, "duration": 36, "velocity": 64}, {"time": 1152, "pitch": 67, "duration": 48, "velocity": 64}, {"time": 1200, "pitch": 63, "duration": 48, "velocity": 64}, {"time": 1248, "pitch": 63, "duration": 12, "velocity": 64}, {"time": 1260, "pitch": 58, "duration": 36, "velocity": 64}, {"time": 1296, "pitch": 63, "duration": 36, "velocity": 64}, {"time": 1344, "pitch": 63, "duration": 12, "velocity": 64}, {"time": 1356, "pitch": 63, "duration": 12, "velocity": 64}, {"time": 1368, "pitch": 65, "duration": 12, "velocity": 64}, {"time": 1380, "pitch": 67, "duration": 12, "velocity": 64}, {"time": 1392, "pitch": 63, "duration": 36, "velocity": 64}, {"time": 1440, "pitch": 63, "duration": 24, "velocity": 64}, {"time": 1464, "pitch": 58, "duration": 24, "velocity": 64}, {"time": 1488, "pitch": 63, "duration": 36, "velocity": 64}, {"time": 1536, "pitch": 67, "duration": 24, "velocity": 64}, {"time": 1560, "pitch": 63, "duration": 24, "velocity": 64}, {"time": 1584, "pitch": 67, "duration": 36, "velocity": 64}, {"time": 1632, "pitch": 63, "duration": 12, "velocity": 64}, {"time": 1644, "pitch": 63, "duration": 12, "velocity": 64}, {"time": 1656, "pitch": 67, "duration": 24, "velocity": 64}, {"time": 1680, "pitch": 63, "duration": 36, "velocity": 64}, {"time": 1728, "pitch": 63, "duration": 24, "velocity": 64}, {"time": 1752, "pitch": 58, "duration": 24, "velocity": 64}, {"time": 1776, "pitch": 63, "duration": 36, "velocity": 64}, {"time": 1824, "pitch": 63, "duration": 24, "velocity": 64}, {"time": 1848, "pitch": 58, "duration": 24, "velocity": 64}, {"time": 1872, "pitch": 63, "duration": 36, "velocity": 64}, {"time": 1920, "pitch": 67, "duration": 12, "velocity": 64}, {"time": 1932, "pitch": 65, "duration": 36, "velocity": 64}, {"time": 1968, "pitch": 63, "duration": 36, "velocity": 64}, {"time": 2016, "pitch": 63, "duration": 12, "velocity": 64}, {"time": 2028, "pitch": 58, "duration": 36, "velocity": 64}, {"time": 2064, "pitch": 63, "duration": 48, "velocity": 64}]}]}