{"metadata": {"schema_version": "0.1", "title": "Krti", "source_format": "abc"}, "resolution": 24, "tempos": [{"time": 0, "qpm": 120.0}], "key_signatures": [{"time": 0, "root": 0, "mode": "major", "fifths": 0}], "time_signatures": [{"time": 0, "numerator": 4, "denominator": 4}, {"time": 192, "numerator": 7, "denominator": 8}, {"time": 372, "numerator": 7, "denominator": 8}, {"time": 552, "numerator": 37, "denominator": 6}, {"time": 700, "numerator": 4, "denominator": 4}], "beats": [{"time": 0, "is_downbeat": true}, {"time": 12, "is_downbeat": false}, {"time": 24, "is_downbeat": false}, {"time": 36, "is_downbeat": false}, {"time": 48, "is_downbeat": false}, {"time": 60, "is_downbeat": false}, {"time": 72, "is_downbeat": false}, {"time": 84, "is_downbeat": true}, {"time": 96, "is_downbeat": true}, {"time": 108, "is_downbeat": false}, {"time": 120, "is_downbeat": false}, {"time": 132, "is_downbeat": false}, {"time": 144, "is_downbeat": false}, {"time": 156, "is_downbeat": false}, {"time": 168, "is_downbeat": false}, {"time": 180, "is_downbeat": true}, {"time": 192, "is_downbeat": true}, {"time": 204, "is_downbeat": false}, {"time": 216, "is_downbeat": false}, {"time": 228, "is_downbeat": false}, {"time": 240, "is_downbeat": false}, {"time": 252, "is_downbeat": false}, {"time": 264, "is_downbeat": false}, {"time": 276, "is_downbeat": true}, {"time": 288, "is_downbeat": false}, {"time": 300, "is_downbeat": false}, {"time": 312, "is_downbeat": false}, {"time": 324, "is_downbeat": false}, {"time": 336, "is_downbeat": false}, {"time": 348, "is_downbeat": false}, {"time": 360, "is_downbeat": true}, {"time": 372, "is_downbeat": true}, {"time": 388, "is_downbeat": false}, {"time": 404, "is_downbeat": false}, {"time": 420, "is_downbeat": false}, {"time": 436, "is_downbeat": false}, {"time": 452, "is_downbeat": false}, {"time": 456, "is_downbeat": true}, {"time": 472, "is_downbeat": false}, {"time": 488, "is_downbeat": false}, {"time": 504, "is_downbeat": false}, {"time": 520, "is_downbeat": false}, {"time": 536, "is_downbeat": false}, {"time": 552, "is_downbeat": true}, {"time": 576, "is_downbeat": false}, {"time": 600, "is_downbeat": false}, {"time": 624, "is_downbeat": false}, {"time": 648, "is_downbeat": true}, {"time": 672, "is_downbeat": false}, {"time": 696, "is_downbeat": false}, {"time": 700, "is_downbeat": true}, {"time": 724, "is_downbeat": false}, {"time": 748, "is_downbeat": false}, {"time": 764, "is_downbeat": true}, {"time": 788, "is_downbeat": false}, {"time": 812, "is_downbeat": false}, {"time": 836, "is_downbeat": false}, {"time": 848, "is_downbeat": true}, {"time": 872, "is_downbeat": false}, {"time": 896, "is_downbeat": false}, {"time": 920, "is_downbeat": false}, {"time": 934, "is_downbeat": true}, {"time": 958, "is_downbeat": false}, {"time": 982, "is_downbeat": false}, {"time": 1006, "is_downbeat": false}], "tracks": [{"program": 0, "is_drum": false, "notes": [{"time": 12, "pitch": 60, "duration": 12, "velocity": 64}, {"time": 24, "pitch": 60, "duration": 12, "velocity": 64}, {"time": 36, "pitch": 60, "duration": 12, "velocity": 64}, {"time": 48, "pitch": 67, "duration": 24, "velocity": 64}, {"time": 72, "pitch": 67, "duration": 16, "velocity": 64}, {"time": 88, "pitch": 67, "duration": 8, "velocity": 64}, {"time": 96, "pitch": 67, "duration": 24, "velocity": 64}, {"time": 120, "pitch": 67, "duration": 12, "velocity": 64}, {"time": 132, "pitch": 65, "duration": 8, "velocity": 64}, {"time": 140, "pitch": 63, "duration": 8, "velocity": 64}, {"time": 148, "pitch": 65, "duration": 8, "velocity": 64}, {"time": 156, "pitch": 67, "duration": 6, "velocity": 64}, {"time": 162, "pitch": 65, "duration": 6, "velocity": 64}, {"time": 168, "pitch": 64, "duration": 6, "velocity": 64}, {"time": 174, "pitch": 62, "duration": 6, "velocity": 64}, {"time": 180, "pitch": 64, "duration": 12, "velocity": 64}, {"time": 192, "pitch": 60, "duration": 12, "velocity": 64}, {"time": 204, "pitch": 60, "duration": 12, "velocity": 64}, {"time": 216, "pitch": 60, "duration": 12, "velocity": 64}, {"time": 228, "pitch": 67, "duration": 24, "velocity": 64}, {"time": 252, "pitch": 67, "duration": 16, "velocity": 64}, {"time": 268, "pitch": 67, "duration": 8, "velocity": 64}, {"time": 276, "pitch": 67, "duration": 24, "velocity": 64}, {"time": 300, "pitch": 67, "duration": 12, "velocity": 64}, {"time": 312, "pitch": 65, "duration": 8, "velocity": 64}, {"time": 320, "pitch": 63, "duration": 8, "velocity": 64}, {"time": 328, "pitch": 65, "duration": 8, "velocity": 64}, {"time": 336, "pitch": 67, "duration": 6, "velocity": 64}, {"time": 342, "pitch": 65, "duration": 6, "velocity": 64}, {"time": 348, "pitch": 64, "duration": 6, "velocity": 64}, {"time": 354, "pitch": 62, "duration": 6, "velocity": 64}, {"time": 360, "pitch": 64, "duration": 12, "velocity": 64}, {"time": 372, "pitch": 60, "duration": 12, "velocity": 64}, {"time": 384, "pitch": 60, "duration": 12, "velocity": 64}, {"time": 396, "pitch": 60, "duration": 12, "velocity": 64}, {"time": 408, "pitch": 67, "duration": 24, "velocity": 64}, {"time": 432, "pitch": 67, "duration": 16, "velocity": 64}, {"time": 448, "pitch": 67, "duration": 8, "velocity": 64}, {"time": 456, "pitch": 67, "duration": 24, "velocity": 64}, {"time": 480, "pitch": 67, "duration": 12, "velocity": 64}, {"time": 492, "pitch": 65, "duration": 8, "velocity": 64}, {"time": 500, "pitch": 63, "duration": 8, "velocity": 64}, {"time": 508, "pitch": 65, "duration": 8, "velocity": 64}, {"time": 516, "pitch": 67, "duration": 6, "velocity": 64}, {"time": 522, "pitch": 65, "duration": 6, "velocity": 64}, {"time": 528, "pitch": 64, "duration": 6, "velocity": 64}, {"time": 534, "pitch": 62, "duration": 6, "velocity": 64}, {"time": 540, "pitch": 64, "duration": 12, "velocity": 64}, {"time": 552, "pitch": 64, "duration": 12, "velocity": 64}, {"time": 564, "pitch": 65, "duration": 12, "velocity": 64}, {"time": 576, "pitch": 67, "duration": 12, "velocity": 64}, {"time": 588, "pitch": 67, "duration": 6, "velocity": 64}, {"time": 594, "pitch": 65, "duration": 6, "velocity": 64}, {"time": 600, "pitch": 64, "duration": 6, "velocity": 64}, {"time": 606, "pitch": 62, "duration": 6, "velocity": 64}, {"time": 612, "pitch": 64, "duration": 8, "velocity": 64}, {"time": 620, "pitch": 60, "duration": 16, "velocity": 64}, {"time": 636, "pitch": 67, "duration": 8, "velocity": 64}, {"time": 644, "pitch": 69, "duration": 12, "velocity": 64}, {"time": 656, "pitch": 70, "duration": 12, "velocity": 64}, {"time": 668, "pitch": 72, "duration": 24, "velocity": 64}, {"time": 692, "pitch": 72, "duration": 8, "velocity": 64}, {"time": 700, "pitch": 72, "duration": 64, "velocity": 64}, {"time": 764, "pitch": 67, "duration": 12, "velocity": 64}, {"time": 776, "pitch": 72, "duration": 12, "velocity": 64}, {"time": 788, "pitch": 72, "duration": 12, "velocity": 64}, {"time": 800, "pitch": 72, "duration": 24, "velocity": 64}, {"time": 824, "pitch": 72, "duration": 8, "velocity": 64}, {"time": 832, "pitch": 72, "duration": 16, "velocity": 64}, {"time": 848, "pitch": 72, "duration": 24, "velocity": 64}, {"time": 872, "pitch": 67, "duration": 12, "velocity": 64}, {"time": 884, "pitch": 72, "duration": 12, "velocity": 64}, {"time": 896, "pitch": 72, "duration": 12, "velocity": 64}, {"time": 908, "pitch": 72, "duration": 8, "velocity": 64}, {"time": 916, "pitch": 69, "duration": 8, "velocity": 64}, {"time": 924, "pitch": 72, "duration": 4, "velocity": 64}, {"time": 928, "pitch": 69, "duration": 6, "velocity": 64}, {"time": 934, "pitch": 67, "duration": 96, "velocity": 64}]}]}