{"metadata": {"schema_version": "0.1", "title": "Muwaschah Lamma Bada", "source_format": "abc"}, "resolution": 24, "tempos": [{"time": 0, "qpm": 120.0}], "key_signatures": [{"time": 0, "root": 7, "mode": "major", "fifths": 1}], "time_signatures": [{"time": 0, "numerator": 4, "denominator": 4}], "tracks": [{"program": 0, "is_drum": false, "notes": [{"time": 0, "pitch": 74, "duration": 12, "velocity": 64}, {"time": 12, "pitch": 79, "duration": 24, "velocity": 64}, {"time": 36, "pitch": 81, "duration": 6, "velocity": 64}, {"time": 42, "pitch": 82, "duration": 6, "velocity": 64}, {"time": 48, "pitch": 72, "duration": 6, "velocity": 64}, {"time": 54, "pitch": 83, "duration": 6, "velocity": 64}, {"time": 60, "pitch": 83, "duration": 6, "velocity": 64}, {"time": 66, "pitch": 81, "duration": 6, "velocity": 64}, {"time": 72, "pitch": 81, "duration": 6, "velocity": 64}, {"time": 78, "pitch": 79, "duration": 6, "velocity": 64}, {"time": 84, "pitch": 79, "duration": 6, "velocity": 64}, {"time": 90, "pitch": 78, "duration": 6, "velocity": 64}, {"time": 96, "pitch": 79, "duration": 24, "velocity": 64}, {"time": 120, "pitch": 81, "duration": 6, "velocity": 64}, {"time": 126, "pitch": 83, "duration": 6, "velocity": 64}, {"time": 132, "pitch": 72, "duration": 24, "velocity": 64}, {"time": 156, "pitch": 74, "duration": 12, "velocity": 64}, {"time": 168, "pitch": 83, "duration": 18, "velocity": 64}, {"time": 186, "pitch": 81, "duration": 6, "velocity": 64}, {"time": 192, "pitch": 81, "duration": 6, "velocity": 64}, {"time": 198, "pitch": 79, "duration": 6, "velocity": 64}, {"time": 204, "pitch": 79, "duration": 6, "velocity": 64}, {"time": 210, "pitch": 78, "duration": 6, "velocity": 64}, {"time": 216, "pitch": 79, "duration": 24, "velocity": 64}, {"time": 240, "pitch": 81, "duration": 6, "velocity": 64}, {"time": 246, "pitch": 79, "duration": 6, "velocity": 64}, {"time": 252, "pitch": 78, "duration": 24, "velocity": 64}, {"time": 276, "pitch": 79, "duration": 12, "velocity": 64}, {"time": 288, "pitch": 75, "duration": 18, "velocity": 64}, {"time": 306, "pitch": 74, "duration": 6, "velocity": 64}, {"time": 312, "pitch": 76, "duration": 6, "velocity": 64}, {"time": 318, "pitch": 74, "duration": 6, "velocity": 64}, {"time": 324, "pitch": 76, "duration": 6, "velocity": 64}, {"time": 330, "pitch": 78, "duration": 6, "velocity": 64}, {"time": 336, "pitch": 74, "duration": 24, "velocity": 64}, {"time": 360, "pitch": 76, "duration": 6, "velocity": 64}, {"time": 366, "pitch": 74, "duration": 6, "velocity": 64}, {"time": 372, "pitch": 72, "duration": 24, "velocity": 64}, {"time": 396, "pitch": 74, "duration": 12, "velocity": 64}, {"time": 408, "pitch": 71, "duration": 18, "velocity": 64}, {"time": 426, "pitch": 69, "duration": 6, "velocity": 64}, {"time": 432, "pitch": 69, "duration": 6, "velocity": 64}, {"time": 438, "pitch": 69, "duration": 6, "velocity": 64}, {"time": 444, "pitch": 67, "duration": 6, "velocity": 64}, {"time": 450, "pitch": 67, "duration": 6, "velocity": 64}, {"time": 456, "pitch": 66, "duration": 6, "velocity": 64}, {"time": 462, "pitch": 67, "duration": 24, "velocity": 64}, {"time": 486, "pitch": 74, "duration": 12, "velocity": 64}, {"time": 498, "pitch": 79, "duration": 24, "velocity": 64}, {"time": 522, "pitch": 81, "duration": 6, "velocity": 64}, {"time": 528, "pitch": 83, "duration": 6, "velocity": 64}, {"time": 534, "pitch": 72, "duration": 6, "velocity": 64}, {"time": 540, "pitch": 83, "duration": 6, "velocity": 64}, {"time": 546, "pitch": 83, "duration": 6, "velocity": 64}, {"time": 552, "pitch": 81, "duration": 6, "velocity": 64}, {"time": 558, "pitch": 81, "duration": 6, "velocity": 64}, {"time": 564, "pitch": 79, "duration": 6, "velocity": 64}, {"time": 570, "pitch": 79, "duration": 6, "velocity": 64}, {"time": 576, "pitch": 78, "duration": 6, "velocity": 64}, {"time": 582, "pitch": 79, "duration": 24, "velocity": 64}, {"time": 606, "pitch": 74, "duration": 12, "velocity": 64}, {"time": 618, "pitch": 79, "duration": 24, "velocity": 64}, {"time": 642, "pitch": 81, "duration": 12, "velocity": 64}, {"time": 654, "pitch": 83, "duration": 24, "velocity": 64}, {"time": 678, "pitch": 83, "duration": 12, "velocity": 64}, {"time": 690, "pitch": 81, "duration": 6, "velocity": 64}, {"time": 696, "pitch": 72, "duration": 6, "velocity": 64}, {"time": 702, "pitch": 83, "duration": 24, "velocity": 64}, {"time": 726, "pitch": 79, "duration": 12, "velocity": 64}, {"time": 738, "pitch": 74, "duration": 24, "velocity": 64}, {"time": 762, "pitch": 72, "duration": 12, "velocity": 64}, {"time": 774, "pitch": 72, "duration": 6, "velocity": 64}, {"time": 780, "pitch": 83, "duration": 6, "velocity": 64}, {"time": 786, "pitch": 83, "duration": 6, "velocity": 64}, {"time": 792, "pitch": 81, "duration": 6, "velocity": 64}, {"time": 798, "pitch": 81, "duration": 6, "velocity": 64}, {"time": 804, "pitch": 79, "duration": 6, "velocity": 64}, {"time": 810, "pitch": 79, "duration": 6, "velocity": 64}, {"time": 816, "pitch": 77, "duration": 6, "velocity": 64}, {"time": 822, "pitch": 79, "duration": 12, "velocity": 64}, {"time": 834, "pitch": 81, "duration": 6, "velocity": 64}, {"time": 840, "pitch": 83, "duration": 6, "velocity": 64}, {"time": 846, "pitch": 78, "duration": 12, "velocity": 64}, {"time": 858, "pitch": 79, "duration": 24, "velocity": 64}, {"time": 882, "pitch": 81, "duration": 12, "velocity": 64}, {"time": 894, "pitch": 83, "duration": 24, "velocity": 64}, {"time": 918, "pitch": 83, "duration": 12, "velocity": 64}, {"time": 930, "pitch": 81, "duration": 6, "velocity": 64}, {"time": 936, "pitch": 72, "duration": 6, "velocity": 64}, {"time": 942, "pitch": 83, "duration": 24, "velocity": 64}, {"time": 966, "pitch": 81, "duration": 6, "velocity": 64}, {"time": 972, "pitch": 83, "duration": 6, "velocity": 64}, {"time": 978, "pitch": 72, "duration": 24, "velocity": 64}, {"time": 1002, "pitch": 74, "duration": 12, "velocity": 64}, {"time": 1014, "pitch": 83, "duration": 18, "velocity": 64}, {"time": 1032, "pitch": 81, "duration": 6, "velocity": 64}, {"time": 1038, "pitch": 81, "duration": 6, "velocity": 64}, {"time": 1044, "pitch": 79, "duration": 6, "velocity": 64}, {"time": 1050, "pitch": 79, "duration": 6, "velocity": 64}, {"time": 1056, "pitch": 78, "duration": 6, "velocity": 64}, {"time": 1062, "pitch": 79, "duration": 24, "velocity": 64}, {"time": 1086, "pitch": 81, "duration": 6, "velocity": 64}, {"time": 1092, "pitch": 79, "duration": 6, "velocity": 64}, {"time": 1098, "pitch": 78, "duration": 24, "velocity": 64}, {"time": 1122, "pitch": 79, "duration": 12, "velocity": 64}, {"time": 1134, "pitch": 78, "duration": 6, "velocity": 64}, {"time": 1140, "pitch": 76, "duration": 6, "velocity": 64}, {"time": 1146, "pitch": 75, "duration": 6, "velocity": 64}, {"time": 1152, "pitch": 74, "duration": 6, "velocity": 64}, {"time": 1158, "pitch": 76, "duration": 6, "velocity": 64}, {"time": 1164, "pitch": 74, "duration": 6, "velocity": 64}, {"time": 1170, "pitch": 76, "duration": 6, "velocity": 64}, {"time": 1176, "pitch": 78, "duration": 6, "velocity": 64}, {"time": 1182, "pitch": 74, "duration": 24, "velocity": 64}, {"time": 1206, "pitch": 76, "duration": 6, "velocity": 64}, {"time": 1212, "pitch": 74, "duration": 6, "velocity": 64}, {"time": 1218, "pitch": 72, "duration": 24, "velocity": 64}, {"time": 1242, "pitch": 74, "duration": 12, "velocity": 64}, {"time": 1254, "pitch": 71, "duration": 18, "velocity": 64}, {"time": 1272, "pitch": 69, "duration": 6, "velocity": 64}, {"time": 1278, "pitch": 69, "duration": 6, "velocity": 64}, {"time": 1284, "pitch": 67, "duration": 6, "velocity": 64}, {"time": 1290, "pitch": 67, "duration": 6, "velocity": 64}, {"time": 1296, "pitch": 66, "duration": 6, "velocity": 64}, {"time": 1302, "pitch": 67, "duration": 24, "velocity": 64}, {"time": 1326, "pitch": 69, "duration": 6, "velocity": 64}, {"time": 1332, "pitch": 71, "duration": 6, "velocity": 64}, {"time": 1338, "pitch": 72, "duration": 24, "velocity": 64}, {"time": 1362, "pitch": 74, "duration": 12, "velocity": 64}, {"time": 1374, "pitch": 71, "duration": 18, "velocity": 64}, {"time": 1392, "pitch": 69, "duration": 6, "velocity": 64}, {"time": 1398, "pitch": 69, "duration": 6, "velocity": 64}, {"time": 1404, "pitch": 67, "duration": 6, "velocity": 64}, {"time": 1410, "pitch": 67, "duration": 6, "velocity": 64}, {"time": 1416, "pitch": 66, "duration": 6, "velocity": 64}, {"time": 1422, "pitch": 67, "duration": 24, "velocity": 64}]}]}