{"metadata": {"schema_version": "0.1", "title": "Muaschah \"Imla-li\"", "source_format": "abc"}, "resolution": 24, "tempos": [{"time": 0, "qpm": 120.0}], "key_signatures": [{"time": 0, "root": 2, "mode": "major", "fifths": 2}], "time_signatures": [{"time": 0, "numerator": 4, "denominator": 4}], "tracks": [{"program": 0, "is_drum": false, "notes": [{"time": 0, "pitch": 62, "duration": 24, "velocity": 64}, {"time": 24, "pitch": 65, "duration": 12, "velocity": 64}, {"time": 36, "pitch": 64, "duration": 6, "velocity": 64}, {"time": 42, "pitch": 66, "duration": 6, "velocity": 64}, {"time": 48, "pitch": 62, "duration": 6, "velocity": 64}, {"time": 54, "pitch": 64, "duration": 6, "velocity": 64}, {"time": 60, "pitch": 60, "duration": 3, "velocity": 64}, {"time": 63, "pitch": 62, "duration": 6, "velocity": 64}, {"time": 69, "pitch": 58, "duration": 6, "velocity": 64}, {"time": 75, "pitch": 61, "duration": 6, "velocity": 64}, {"time": 81, "pitch": 57, "duration": 6, "velocity": 64}, {"time": 87, "pitch": 61, "duration": 6, "velocity": 64}, {"time": 93, "pitch": 57, "duration": 6, "velocity": 64}, {"time": 99, "pitch": 59, "duration": 6, "velocity": 64}, {"time": 105, "pitch": 55, "duration": 12, "velocity": 64}, {"time": 117, "pitch": 61, "duration": 12, "velocity": 64}, {"time": 129, "pitch": 59, "duration": 12, "velocity": 64}, {"time": 141, "pitch": 61, "duration": 12, "velocity": 64}, {"time": 153, "pitch": 62, "duration": 6, "velocity": 64}, {"time": 159, "pitch": 64, "duration": 6, "velocity": 64}, {"time": 165, "pitch": 62, "duration": 6, "velocity": 64}, {"time": 171, "pitch": 64, "duration": 6, "velocity": 64}, {"time": 177, "pitch": 66, "duration": 6, "velocity": 64}, {"time": 183, "pitch": 67, "duration": 6, "velocity": 64}, {"time": 189, "pitch": 66, "duration": 6, "velocity": 64}, {"time": 195, "pitch": 64, "duration": 6, "velocity": 64}, {"time": 201, "pitch": 62, "duration": 24, "velocity": 64}, {"time": 225, "pitch": 59, "duration": 6, "velocity": 64}, {"time": 231, "pitch": 61, "duration": 6, "velocity": 64}, {"time": 237, "pitch": 62, "duration": 18, "velocity": 64}, {"time": 255, "pitch": 61, "duration": 6, "velocity": 64}, {"time": 261, "pitch": 59, "duration": 6, "velocity": 64}, {"time": 267, "pitch": 61, "duration": 6, "velocity": 64}, {"time": 273, "pitch": 62, "duration": 12, "velocity": 64}, {"time": 285, "pitch": 67, "duration": 18, "velocity": 64}, {"time": 303, "pitch": 67, "duration": 6, "velocity": 64}, {"time": 309, "pitch": 66, "duration": 6, "velocity": 64}, {"time": 315, "pitch": 67, "duration": 6, "velocity": 64}, {"time": 321, "pitch": 69, "duration": 6, "velocity": 64}, {"time": 327, "pitch": 67, "duration": 6, "velocity": 64}, {"time": 333, "pitch": 67, "duration": 6, "velocity": 64}, {"time": 339, "pitch": 66, "duration": 6, "velocity": 64}, {"time": 345, "pitch": 66, "duration": 6, "velocity": 64}, {"time": 351, "pitch": 64, "duration": 6, "velocity": 64}, {"time": 357, "pitch": 67, "duration": 6, "velocity": 64}, {"time": 363, "pitch": 66, "duration": 6, "velocity": 64}, {"time": 369, "pitch": 66, "duration": 6, "velocity": 64}, {"time": 375, "pitch": 64, "duration": 6, "velocity": 64}, {"time": 381, "pitch": 64, "duration": 6, "velocity": 64}, {"time": 387, "pitch": 62, "duration": 6, "velocity": 64}, {"time": 393, "pitch": 64, "duration": 6, "velocity": 64}, {"time": 399, "pitch": 62, "duration": 6, "velocity": 64}, {"time": 405, "pitch": 61, "duration": 6, "velocity": 64}, {"time": 411, "pitch": 66, "duration": 12, "velocity": 64}, {"time": 423, "pitch": 64, "duration": 12, "velocity": 64}, {"time": 435, "pitch": 65, "duration": 6, "velocity": 64}, {"time": 441, "pitch": 67, "duration": 6, "velocity": 64}, {"time": 447, "pitch": 66, "duration": 6, "velocity": 64}, {"time": 453, "pitch": 64, "duration": 6, "velocity": 64}, {"time": 459, "pitch": 62, "duration": 6, "velocity": 64}, {"time": 465, "pitch": 62, "duration": 12, "velocity": 64}, {"time": 477, "pitch": 69, "duration": 18, "velocity": 64}, {"time": 495, "pitch": 67, "duration": 6, "velocity": 64}, {"time": 501, "pitch": 69, "duration": 6, "velocity": 64}, {"time": 507, "pitch": 67, "duration": 12, "velocity": 64}, {"time": 519, "pitch": 67, "duration": 6, "velocity": 64}, {"time": 525, "pitch": 66, "duration": 6, "velocity": 64}, {"time": 531, "pitch": 67, "duration": 6, "velocity": 64}, {"time": 537, "pitch": 66, "duration": 6, "velocity": 64}, {"time": 543, "pitch": 64, "duration": 6, "velocity": 64}, {"time": 549, "pitch": 62, "duration": 6, "velocity": 64}, {"time": 555, "pitch": 64, "duration": 6, "velocity": 64}, {"time": 561, "pitch": 66, "duration": 24, "velocity": 64}, {"time": 585, "pitch": 64, "duration": 12, "velocity": 64}, {"time": 597, "pitch": 66, "duration": 6, "velocity": 64}, {"time": 603, "pitch": 67, "duration": 6, "velocity": 64}, {"time": 609, "pitch": 66, "duration": 12, "velocity": 64}, {"time": 621, "pitch": 64, "duration": 12, "velocity": 64}, {"time": 633, "pitch": 66, "duration": 6, "velocity": 64}, {"time": 639, "pitch": 67, "duration": 6, "velocity": 64}, {"time": 645, "pitch": 66, "duration": 6, "velocity": 64}, {"time": 651, "pitch": 64, "duration": 6, "velocity": 64}, {"time": 657, "pitch": 66, "duration": 6, "velocity": 64}, {"time": 663, "pitch": 67, "duration": 6, "velocity": 64}, {"time": 669, "pitch": 66, "duration": 6, "velocity": 64}, {"time": 675, "pitch": 64, "duration": 6, "velocity": 64}, {"time": 681, "pitch": 66, "duration": 6, "velocity": 64}, {"time": 687, "pitch": 67, "duration": 6, "velocity": 64}, {"time": 693, "pitch": 66, "duration": 12, "velocity": 64}, {"time": 705, "pitch": 67, "duration": 12, "velocity": 64}, {"time": 717, "pitch": 67, "duration": 6, "velocity": 64}, {"time": 723, "pitch": 66, "duration": 6, "velocity": 64}, {"time": 729, "pitch": 64, "duration": 6, "velocity": 64}, {"time": 735, "pitch": 62, "duration": 6, "velocity": 64}, {"time": 741, "pitch": 62, "duration": 12, "velocity": 64}, {"time": 753, "pitch": 69, "duration": 6, "velocity": 64}, {"time": 759, "pitch": 67, "duration": 6, "velocity": 64}, {"time": 765, "pitch": 66, "duration": 6, "velocity": 64}, {"time": 771, "pitch": 67, "duration": 6, "velocity": 64}, {"time": 777, "pitch": 66, "duration": 6, "velocity": 64}, {"time": 783, "pitch": 64, "duration": 6, "velocity": 64}, {"time": 789, "pitch": 62, "duration": 6, "velocity": 64}, {"time": 795, "pitch": 64, "duration": 6, "velocity": 64}, {"time": 801, "pitch": 66, "duration": 36, "velocity": 64}, {"time": 837, "pitch": 61, "duration": 24, "velocity": 64}, {"time": 861, "pitch": 59, "duration": 12, "velocity": 64}, {"time": 873, "pitch": 61, "duration": 6, "velocity": 64}, {"time": 879, "pitch": 62, "duration": 6, "velocity": 64}, {"time": 885, "pitch": 61, "duration": 6, "velocity": 64}, {"time": 891, "pitch": 59, "duration": 6, "velocity": 64}, {"time": 897, "pitch": 61, "duration": 12, "velocity": 64}, {"time": 909, "pitch": 62, "duration": 6, "velocity": 64}, {"time": 915, "pitch": 62, "duration": 6, "velocity": 64}, {"time": 921, "pitch": 66, "duration": 12, "velocity": 64}, {"time": 933, "pitch": 66, "duration": 6, "velocity": 64}, {"time": 939, "pitch": 64, "duration": 6, "velocity": 64}, {"time": 945, "pitch": 64, "duration": 6, "velocity": 64}, {"time": 951, "pitch": 62, "duration": 6, "velocity": 64}, {"time": 957, "pitch": 62, "duration": 6, "velocity": 64}, {"time": 963, "pitch": 61, "duration": 6, "velocity": 64}, {"time": 969, "pitch": 61, "duration": 6, "velocity": 64}, {"time": 975, "pitch": 59, "duration": 6, "velocity": 64}, {"time": 981, "pitch": 59, "duration": 6, "velocity": 64}, {"time": 987, "pitch": 57, "duration": 6, "velocity": 64}, {"time": 993, "pitch": 57, "duration": 12, "velocity": 64}, {"time": 1008, "pitch": 67, "duration": 9, "velocity": 64}, {"time": 1017, "pitch": 67, "duration": 6, "velocity": 64}, {"time": 1023, "pitch": 66, "duration": 6, "velocity": 64}, {"time": 1029, "pitch": 64, "duration": 6, "velocity": 64}, {"time": 1035, "pitch": 69, "duration": 6, "velocity": 64}, {"time": 1041, "pitch": 67, "duration": 6, "velocity": 64}, {"time": 1047, "pitch": 67, "duration": 6, "velocity": 64}, {"time": 1053, "pitch": 66, "duration": 6, "velocity": 64}, {"time": 1059, "pitch": 66, "duration": 6, "velocity": 64}, {"time": 1065, "pitch": 64, "duration": 6, "velocity": 64}, {"time": 1071, "pitch": 67, "duration": 6, "velocity": 64}, {"time": 1077, "pitch": 66, "duration": 6, "velocity": 64}, {"time": 1083, "pitch": 66, "duration": 6, "velocity": 64}, {"time": 1089, "pitch": 64, "duration": 6, "velocity": 64}, {"time": 1095, "pitch": 64, "duration": 6, "velocity": 64}, {"time": 1101, "pitch": 62, "duration": 6, "velocity": 64}, {"time": 1107, "pitch": 64, "duration": 9, "velocity": 64}, {"time": 1116, "pitch": 62, "duration": 3, "velocity": 64}, {"time": 1119, "pitch": 61, "duration": 6, "velocity": 64}, {"time": 1125, "pitch": 66, "duration": 12, "velocity": 64}, {"time": 1137, "pitch": 64, "duration": 12, "velocity": 64}, {"time": 1149, "pitch": 65, "duration": 6, "velocity": 64}, {"time": 1155, "pitch": 67, "duration": 6, "velocity": 64}, {"time": 1161, "pitch": 66, "duration": 6, "velocity": 64}, {"time": 1167, "pitch": 64, "duration": 6, "velocity": 64}, {"time": 1173, "pitch": 62, "duration": 6, "velocity": 64}, {"time": 1179, "pitch": 62, "duration": 12, "velocity": 64}, {"time": 1191, "pitch": 62, "duration": 18, "velocity": 64}, {"time": 1209, "pitch": 67, "duration": 6, "velocity": 64}, {"time": 1215, "pitch": 66, "duration": 6, "velocity": 64}, {"time": 1221, "pitch": 67, "duration": 6, "velocity": 64}, {"time": 1227, "pitch": 69, "duration": 24, "velocity": 64}, {"time": 1251, "pitch": 67, "duration": 9, "velocity": 64}, {"time": 1260, "pitch": 69, "duration": 3, "velocity": 64}, {"time": 1263, "pitch": 67, "duration": 6, "velocity": 64}, {"time": 1269, "pitch": 69, "duration": 6, "velocity": 64}, {"time": 1275, "pitch": 69, "duration": 24, "velocity": 64}, {"time": 1299, "pitch": 69, "duration": 12, "velocity": 64}, {"time": 1311, "pitch": 69, "duration": 24, "velocity": 64}, {"time": 1335, "pitch": 69, "duration": 12, "velocity": 64}, {"time": 1347, "pitch": 71, "duration": 9, "velocity": 64}, {"time": 1356, "pitch": 69, "duration": 3, "velocity": 64}, {"time": 1359, "pitch": 67, "duration": 6, "velocity": 64}, {"time": 1365, "pitch": 73, "duration": 12, "velocity": 64}, {"time": 1377, "pitch": 71, "duration": 6, "velocity": 64}, {"time": 1383, "pitch": 72, "duration": 6, "velocity": 64}, {"time": 1389, "pitch": 74, "duration": 6, "velocity": 64}, {"time": 1395, "pitch": 73, "duration": 6, "velocity": 64}, {"time": 1401, "pitch": 71, "duration": 6, "velocity": 64}, {"time": 1407, "pitch": 69, "duration": 6, "velocity": 64}, {"time": 1413, "pitch": 69, "duration": 12, "velocity": 64}, {"time": 1425, "pitch": 69, "duration": 24, "velocity": 64}, {"time": 1449, "pitch": 69, "duration": 12, "velocity": 64}, {"time": 1461, "pitch": 67, "duration": 24, "velocity": 64}, {"time": 1485, "pitch": 69, "duration": 6, "velocity": 64}, {"time": 1491, "pitch": 71, "duration": 6, "velocity": 64}, {"time": 1497, "pitch": 73, "duration": 6, "velocity": 64}, {"time": 1503, "pitch": 74, "duration": 6, "velocity": 64}, {"time": 1509, "pitch": 73, "duration": 6, "velocity": 64}, {"time": 1515, "pitch": 71, "duration": 6, "velocity": 64}, {"time": 1521, "pitch": 69, "duration": 6, "velocity": 64}, {"time": 1527, "pitch": 67, "duration": 6, "velocity": 64}, {"time": 1533, "pitch": 66, "duration": 6, "velocity": 64}, {"time": 1539, "pitch": 64, "duration": 6, "velocity": 64}, {"time": 1545, "pitch": 62, "duration": 12, "velocity": 64}, {"time": 1563, "pitch": 69, "duration": 6, "velocity": 64}, {"time": 1569, "pitch": 71, "duration": 6, "velocity": 64}, {"time": 1575, "pitch": 73, "duration": 6, "velocity": 64}, {"time": 1581, "pitch": 74, "duration": 24, "velocity": 64}, {"time": 1605, "pitch": 73, "duration": 6, "velocity": 64}, {"time": 1611, "pitch": 74, "duration": 6, "velocity": 64}, {"time": 1617, "pitch": 71, "duration": 6, "velocity": 64}, {"time": 1623, "pitch": 73, "duration": 6, "velocity": 64}, {"time": 1629, "pitch": 74, "duration": 24, "velocity": 64}, {"time": 1653, "pitch": 74, "duration": 12, "velocity": 64}, {"time": 1665, "pitch": 73, "duration": 12, "velocity": 64}, {"time": 1677, "pitch": 71, "duration": 12, "velocity": 64}, {"time": 1689, "pitch": 69, "duration": 9, "velocity": 64}, {"time": 1698, "pitch": 71, "duration": 3, "velocity": 64}, {"time": 1701, "pitch": 69, "duration": 6, "velocity": 64}, {"time": 1707, "pitch": 67, "duration": 6, "velocity": 64}, {"time": 1713, "pitch": 73, "duration": 12, "velocity": 64}, {"time": 1725, "pitch": 69, "duration": 12, "velocity": 64}, {"time": 1737, "pitch": 69, "duration": 6, "velocity": 64}, {"time": 1743, "pitch": 67, "duration": 24, "velocity": 64}, {"time": 1767, "pitch": 69, "duration": 12, "velocity": 64}, {"time": 1779, "pitch": 66, "duration": 24, "velocity": 64}, {"time": 1803, "pitch": 66, "duration": 6, "velocity": 64}, {"time": 1809, "pitch": 64, "duration": 6, "velocity": 64}, {"time": 1815, "pitch": 66, "duration": 24, "velocity": 64}, {"time": 1839, "pitch": 69, "duration": 6, "velocity": 64}, {"time": 1845, "pitch": 67, "duration": 6, "velocity": 64}, {"time": 1851, "pitch": 66, "duration": 6, "velocity": 64}, {"time": 1857, "pitch": 67, "duration": 6, "velocity": 64}, {"time": 1863, "pitch": 69, "duration": 6, "velocity": 64}, {"time": 1869, "pitch": 67, "duration": 6, "velocity": 64}, {"time": 1875, "pitch": 67, "duration": 6, "velocity": 64}, {"time": 1881, "pitch": 66, "duration": 6, "velocity": 64}, {"time": 1887, "pitch": 66, "duration": 6, "velocity": 64}, {"time": 1893, "pitch": 64, "duration": 6, "velocity": 64}, {"time": 1899, "pitch": 67, "duration": 6, "velocity": 64}, {"time": 1905, "pitch": 66, "duration": 6, "velocity": 64}, {"time": 1911, "pitch": 66, "duration": 6, "velocity": 64}, {"time": 1917, "pitch": 64, "duration": 6, "velocity": 64}, {"time": 1923, "pitch": 64, "duration": 6, "velocity": 64}, {"time": 1929, "pitch": 62, "duration": 6, "velocity": 64}, {"time": 1935, "pitch": 64, "duration": 9, "velocity": 64}, {"time": 1944, "pitch": 62, "duration": 3, "velocity": 64}, {"time": 1947, "pitch": 60, "duration": 6, "velocity": 64}, {"time": 1953, "pitch": 66, "duration": 12, "velocity": 64}, {"time": 1965, "pitch": 64, "duration": 12, "velocity": 64}, {"time": 1977, "pitch": 65, "duration": 6, "velocity": 64}, {"time": 1983, "pitch": 67, "duration": 6, "velocity": 64}, {"time": 1989, "pitch": 66, "duration": 6, "velocity": 64}, {"time": 1995, "pitch": 64, "duration": 6, "velocity": 64}, {"time": 2001, "pitch": 62, "duration": 6, "velocity": 64}, {"time": 2007, "pitch": 62, "duration": 12, "velocity": 64}]}]}