{"metadata": {"schema_version": "0.1", "title": "Alamuhan", "source_format": "abc"}, "resolution": 24, "tempos": [{"time": 0, "qpm": 120.0}], "key_signatures": [{"time": 0, "root": 5, "mode": "major", "fifths": -1}], "time_signatures": [{"time": 0, "numerator": 4, "denominator": 4}], "tracks": [{"program": 0, "is_drum": false, "notes": [{"time": 0, "pitch": 60, "duration": 6, "velocity": 64}, {"time": 6, "pitch": 65, "duration": 6, "velocity": 64}, {"time": 12, "pitch": 65, "duration": 6, "velocity": 64}, {"time": 18, "pitch": 65, "duration": 6, "velocity": 64}, {"time": 24, "pitch": 64, "duration": 6, "velocity": 64}, {"time": 30, "pitch": 65, "duration": 6, "velocity": 64}, {"time": 36, "pitch": 67, "duration": 12, "velocity": 64}, {"time": 48, "pitch": 69, "duration": 36, "velocity": 64}, {"time": 84, "pitch": 77, "duration": 12, "velocity": 64}, {"time": 96, "pitch": 76, "duration": 6, "velocity": 64}, {"time": 102, "pitch": 74, "duration": 6, "velocity": 64}, {"time": 108, "pitch": 72, "duration": 6, "velocity": 64}, {"time": 114, "pitch": 70, "duration": 6, "velocity": 64}, {"time": 120, "pitch": 69, "duration": 6, "velocity": 64}, {"time": 126, "pitch": 65, "duration": 6, "velocity": 64}, {"time": 132, "pitch": 67, "duration": 12, "velocity": 64}, {"time": 144, "pitch": 65, "duration": 24, "velocity": 64}, {"time": 204, "pitch": 72, "duration": 6, "velocity": 64}, {"time": 210, "pitch": 72, "duration": 6, "velocity": 64}, {"time": 216, "pitch": 72, "duration": 18, "velocity": 64}, {"time": 234, "pitch": 74, "duration": 6, "velocity": 64}, {"time": 240, "pitch": 77, "duration": 6, "velocity": 64}, {"time": 246, "pitch": 77, "duration": 6, "velocity": 64}, {"time": 252, "pitch": 77, "duration": 12, "velocity": 64}, {"time": 300, "pitch": 77, "duration": 6, "velocity": 64}, {"time": 306, "pitch": 77, "duration": 6, "velocity": 64}, {"time": 312, "pitch": 77, "duration": 12, "velocity": 64}, {"time": 324, "pitch": 74, "duration": 12, "velocity": 64}, {"time": 336, "pitch": 74, "duration": 6, "velocity": 64}, {"time": 342, "pitch": 74, "duration": 6, "velocity": 64}, {"time": 348, "pitch": 72, "duration": 12, "velocity": 64}, {"time": 396, "pitch": 77, "duration": 6, "velocity": 64}, {"time": 402, "pitch": 77, "duration": 6, "velocity": 64}, {"time": 408, "pitch": 77, "duration": 12, "velocity": 64}, {"time": 420, "pitch": 77, "duration": 12, "velocity": 64}, {"time": 432, "pitch": 74, "duration": 6, "velocity": 64}, {"time": 438, "pitch": 76, "duration": 6, "velocity": 64}, {"time": 444, "pitch": 74, "duration": 12, "velocity": 64}, {"time": 456, "pitch": 72, "duration": 24, "velocity": 64}, {"time": 492, "pitch": 72, "duration": 6, "velocity": 64}, {"time": 498, "pitch": 72, "duration": 6, "velocity": 64}, {"time": 504, "pitch": 69, "duration": 12, "velocity": 64}, {"time": 516, "pitch": 69, "duration": 12, "velocity": 64}, {"time": 528, "pitch": 67, "duration": 6, "velocity": 64}, {"time": 534, "pitch": 67, "duration": 6, "velocity": 64}, {"time": 540, "pitch": 69, "duration": 12, "velocity": 64}, {"time": 576, "pitch": 60, "duration": 6, "velocity": 64}, {"time": 582, "pitch": 65, "duration": 6, "velocity": 64}, {"time": 588, "pitch": 65, "duration": 6, "velocity": 64}, {"time": 594, "pitch": 65, "duration": 6, "velocity": 64}, {"time": 600, "pitch": 72, "duration": 12, "velocity": 64}, {"time": 612, "pitch": 70, "duration": 12, "velocity": 64}, {"time": 624, "pitch": 69, "duration": 36, "velocity": 64}, {"time": 660, "pitch": 77, "duration": 12, "velocity": 64}, {"time": 672, "pitch": 76, "duration": 6, "velocity": 64}, {"time": 678, "pitch": 74, "duration": 6, "velocity": 64}, {"time": 684, "pitch": 72, "duration": 6, "velocity": 64}, {"time": 690, "pitch": 70, "duration": 6, "velocity": 64}, {"time": 696, "pitch": 69, "duration": 6, "velocity": 64}, {"time": 702, "pitch": 65, "duration": 6, "velocity": 64}, {"time": 708, "pitch": 67, "duration": 12, "velocity": 64}, {"time": 720, "pitch": 65, "duration": 24, "velocity": 64}, {"time": 768, "pitch": 72, "duration": 6, "velocity": 64}, {"time": 774, "pitch": 72, "duration": 6, "velocity": 64}, {"time": 780, "pitch": 72, "duration": 6, "velocity": 64}, {"time": 786, "pitch": 72, "duration": 6, "velocity": 64}, {"time": 792, "pitch": 72, "duration": 6, "velocity": 64}, {"time": 798, "pitch": 72, "duration": 6, "velocity": 64}, {"time": 804, "pitch": 70, "duration": 12, "velocity": 64}, {"time": 816, "pitch": 69, "duration": 36, "velocity": 64}, {"time": 852, "pitch": 77, "duration": 12, "velocity": 64}, {"time": 864, "pitch": 76, "duration": 6, "velocity": 64}, {"time": 870, "pitch": 74, "duration": 6, "velocity": 64}, {"time": 876, "pitch": 81, "duration": 6, "velocity": 64}, {"time": 882, "pitch": 79, "duration": 6, "velocity": 64}, {"time": 888, "pitch": 77, "duration": 6, "velocity": 64}, {"time": 894, "pitch": 74, "duration": 6, "velocity": 64}, {"time": 900, "pitch": 76, "duration": 12, "velocity": 64}, {"time": 912, "pitch": 77, "duration": 24, "velocity": 64}]}]}