{"metadata": {"schema_version": "0.1", "title": "Yitang qingshui yitang lian", "source_format": "abc"}, "resolution": 24, "tempos": [{"time": 0, "qpm": 120.0}], "key_signatures": [{"time": 0, "root": 4, "mode": "major", "fifths": 4}], "time_signatures": [{"time": 0, "numerator": 2, "denominator": 2}], "beats": [{"time": 0, "is_downbeat": true}, {"time": 48, "is_downbeat": false}, {"time": 96, "is_downbeat": true}, {"time": 144, "is_downbeat": false}, {"time": 192, "is_downbeat": true}, {"time": 240, "is_downbeat": false}, {"time": 288, "is_downbeat": true}, {"time": 336, "is_downbeat": false}, {"time": 384, "is_downbeat": true}, {"time": 432, "is_downbeat": false}, {"time": 480, "is_downbeat": true}, {"time": 528, "is_downbeat": false}, {"time": 576, "is_downbeat": true}, {"time": 624, "is_downbeat": false}, {"time": 672, "is_downbeat": true}, {"time": 720, "is_downbeat": false}, {"time": 768, "is_downbeat": true}, {"time": 816, "is_downbeat": false}, {"time": 864, "is_downbeat": true}, {"time": 912, "is_downbeat": false}, {"time": 960, "is_downbeat": true}, {"time": 1008, "is_downbeat": false}, {"time": 1056, "is_downbeat": true}, {"time": 1104, "is_downbeat": false}, {"time": 1152, "is_downbeat": true}, {"time": 1200, "is_downbeat": false}, {"time": 1248, "is_downbeat": true}, {"time": 1296, "is_downbeat": false}, {"time": 1344, "is_downbeat": true}, {"time": 1392, "is_downbeat": false}, {"time": 1440, "is_downbeat": true}, {"time": 1488, "is_downbeat": false}, {"time": 1536, "is_downbeat": true}, {"time": 1584, "is_downbeat": false}, {"time": 1632, "is_downbeat": true}, {"time": 1680, "is_downbeat": false}, {"time": 1728, "is_downbeat": true}, {"time": 1776, "is_downbeat": false}, {"time": 1824, "is_downbeat": true}, {"time": 1872, "is_downbeat": false}, {"time": 1920, "is_downbeat": true}, {"time": 1968, "is_downbeat": false}, {"time": 2016, "is_downbeat": true}, {"time": 2064, "is_downbeat": false}, {"time": 2112, "is_downbeat": true}, {"time": 2160, "is_downbeat": false}, {"time": 2208, "is_downbeat": true}, {"time": 2256, "is_downbeat": false}], "tracks": [{"program": 0, "is_drum": false, "notes": [{"time": 0, "pitch": 73, "duration": 12, "velocity": 64}, {"time": 12, "pitch": 76, "duration": 12, "velocity": 64}, {"time": 24, "pitch": 73, "duration": 72, "velocity": 64}, {"time": 96, "pitch": 73, "duration": 18, "velocity": 64}, {"time": 114, "pitch": 76, "duration": 6, "velocity": 64}, {"time": 120, "pitch": 83, "duration": 60, "velocity": 64}, {"time": 180, "pitch": 80, "duration": 12, "velocity": 64}, {"time": 192, "pitch": 73, "duration": 96, "velocity": 64}, {"time": 288, "pitch": 83, "duration": 72, "velocity": 64}, {"time": 360, "pitch": 80, "duration": 24, "velocity": 64}, {"time": 384, "pitch": 78, "duration": 96, "velocity": 64}, {"time": 480, "pitch": 76, "duration": 12, "velocity": 64}, {"time": 492, "pitch": 80, "duration": 12, "velocity": 64}, {"time": 504, "pitch": 73, "duration": 12, "velocity": 64}, {"time": 516, "pitch": 76, "duration": 12, "velocity": 64}, {"time": 528, "pitch": 80, "duration": 84, "velocity": 64}, {"time": 612, "pitch": 76, "duration": 6, "velocity": 64}, {"time": 618, "pitch": 73, "duration": 6, "velocity": 64}, {"time": 624, "pitch": 71, "duration": 24, "velocity": 64}, {"time": 648, "pitch": 68, "duration": 24, "velocity": 64}, {"time": 672, "pitch": 68, "duration": 12, "velocity": 64}, {"time": 684, "pitch": 71, "duration": 12, "velocity": 64}, {"time": 696, "pitch": 73, "duration": 72, "velocity": 64}, {"time": 768, "pitch": 73, "duration": 12, "velocity": 64}, {"time": 780, "pitch": 76, "duration": 12, "velocity": 64}, {"time": 792, "pitch": 73, "duration": 72, "velocity": 64}, {"time": 864, "pitch": 73, "duration": 18, "velocity": 64}, {"time": 882, "pitch": 76, "duration": 6, "velocity": 64}, {"time": 888, "pitch": 83, "duration": 48, "velocity": 64}, {"time": 936, "pitch": 83, "duration": 12, "velocity": 64}, {"time": 948, "pitch": 80, "duration": 12, "velocity": 64}, {"time": 960, "pitch": 80, "duration": 12, "velocity": 64}, {"time": 972, "pitch": 83, "duration": 12, "velocity": 64}, {"time": 984, "pitch": 73, "duration": 72, "velocity": 64}, {"time": 1056, "pitch": 83, "duration": 72, "velocity": 64}, {"time": 1128, "pitch": 80, "duration": 24, "velocity": 64}, {"time": 1152, "pitch": 80, "duration": 24, "velocity": 64}, {"time": 1176, "pitch": 80, "duration": 24, "velocity": 64}, {"time": 1200, "pitch": 76, "duration": 6, "velocity": 64}, {"time": 1206, "pitch": 73, "duration": 6, "velocity": 64}, {"time": 1212, "pitch": 71, "duration": 12, "velocity": 64}, {"time": 1224, "pitch": 71, "duration": 12, "velocity": 64}, {"time": 1236, "pitch": 68, "duration": 12, "velocity": 64}, {"time": 1248, "pitch": 68, "duration": 12, "velocity": 64}, {"time": 1260, "pitch": 71, "duration": 12, "velocity": 64}, {"time": 1272, "pitch": 73, "duration": 72, "velocity": 64}, {"time": 1344, "pitch": 76, "duration": 24, "velocity": 64}, {"time": 1368, "pitch": 76, "duration": 24, "velocity": 64}, {"time": 1392, "pitch": 83, "duration": 24, "velocity": 64}, {"time": 1416, "pitch": 80, "duration": 24, "velocity": 64}, {"time": 1440, "pitch": 73, "duration": 12, "velocity": 64}, {"time": 1452, "pitch": 76, "duration": 12, "velocity": 64}, {"time": 1464, "pitch": 80, "duration": 72, "velocity": 64}, {"time": 1536, "pitch": 78, "duration": 96, "velocity": 64}, {"time": 1632, "pitch": 80, "duration": 24, "velocity": 64}, {"time": 1656, "pitch": 80, "duration": 24, "velocity": 64}, {"time": 1680, "pitch": 76, "duration": 6, "velocity": 64}, {"time": 1686, "pitch": 73, "duration": 6, "velocity": 64}, {"time": 1692, "pitch": 71, "duration": 6, "velocity": 64}, {"time": 1698, "pitch": 73, "duration": 6, "velocity": 64}, {"time": 1704, "pitch": 76, "duration": 24, "velocity": 64}, {"time": 1728, "pitch": 80, "duration": 24, "velocity": 64}, {"time": 1752, "pitch": 76, "duration": 6, "velocity": 64}, {"time": 1758, "pitch": 78, "duration": 6, "velocity": 64}, {"time": 1764, "pitch": 76, "duration": 6, "velocity": 64}, {"time": 1770, "pitch": 78, "duration": 6, "velocity": 64}, {"time": 1776, "pitch": 76, "duration": 6, "velocity": 64}, {"time": 1782, "pitch": 78, "duration": 6, "velocity": 64}, {"time": 1788, "pitch": 76, "duration": 6, "velocity": 64}, {"time": 1794, "pitch": 78, "duration": 6, "velocity": 64}, {"time": 1800, "pitch": 76, "duration": 24, "velocity": 64}, {"time": 1824, "pitch": 76, "duration": 24, "velocity": 64}, {"time": 1848, "pitch": 76, "duration": 24, "velocity": 64}, {"time": 1872, "pitch": 80, "duration": 24, "velocity": 64}, {"time": 1896, "pitch": 73, "duration": 12, "velocity": 64}, {"time": 1908, "pitch": 76, "duration": 12, "velocity": 64}, {"time": 1920, "pitch": 80, "duration": 96, "velocity": 64}, {"time": 2016, "pitch": 78, "duration": 96, "velocity": 64}, {"time": 2112, "pitch": 80, "duration": 24, "velocity": 64}, {"time": 2136, "pitch": 80, "duration": 24, "velocity": 64}, {"time": 2160, "pitch": 76, "duration": 8, "velocity": 64}, {"time": 2168, "pitch": 73, "duration": 8, "velocity": 64}, {"time": 2176, "pitch": 71, "duration": 8, "velocity": 64}, {"time": 2184, "pitch": 73, "duration": 8, "velocity": 64}, {"time": 2192, "pitch": 71, "duration": 8, "velocity": 64}, {"time": 2200, "pitch": 68, "duration": 8, "velocity": 64}, {"time": 2208, "pitch": 71, "duration": 24, "velocity": 64}, {"time": 2232, "pitch": 73, "duration": 72, "velocity": 64}]}]}