{"metadata": {"schema_version": "0.1", "title": "Siehgst an doch do koemmt er, kleena Schrittla nimmt er", "source_format": "abc"}, "resolution": 24, "tempos": [{"time": 0, "qpm": 120.0}], "key_signatures": [{"time": 0, "root": 0, "mode": "major", "fifths": 0}], "time_signatures": [{"time": 0, "numerator": 2, "denominator": 4}], "beats": [{"time": 0, "is_downbeat": true}, {"time": 24, "is_downbeat": false}, {"time": 48, "is_downbeat": true}, {"time": 72, "is_downbeat": false}, {"time": 96, "is_downbeat": true}, {"time": 120, "is_downbeat": false}, {"time": 144, "is_downbeat": true}, {"time": 168, "is_downbeat": false}, {"time": 192, "is_downbeat": true}, {"time": 216, "is_downbeat": false}, {"time": 240, "is_downbeat": true}, {"time": 264, "is_downbeat": false}, {"time": 288, "is_downbeat": true}, {"time": 312, "is_downbeat": false}, {"time": 336, "is_downbeat": true}, {"time": 360, "is_downbeat": false}], "tracks": [{"program": 0, "is_drum": false, "notes": [{"time": 0, "pitch": 55, "duration": 18, "velocity": 64}, {"time": 18, "pitch": 53, "duration": 6, "velocity": 64}, {"time": 24, "pitch": 52, "duration": 12, "velocity": 64}, {"time": 36, "pitch": 53, "duration": 12, "velocity": 64}, {"time": 48, "pitch": 55, "duration": 24, "velocity": 64}, {"time": 72, "pitch": 60, "duration": 24, "velocity": 64}, {"time": 96, "pitch": 55, "duration": 18, "velocity": 64}, {"time": 114, "pitch": 53, "duration": 6, "velocity": 64}, {"time": 120, "pitch": 52, "duration": 12, "velocity": 64}, {"time": 132, "pitch": 53, "duration": 12, "velocity": 64}, {"time": 144, "pitch": 55, "duration": 24, "velocity": 64}, {"time": 168, "pitch": 60, "duration": 24, "velocity": 64}, {"time": 192, "pitch": 62, "duration": 18, "velocity": 64}, {"time": 210, "pitch": 62, "duration": 6, "velocity": 64}, {"time": 216, "pitch": 62, "duration": 12, "velocity": 64}, {"time": 228, "pitch": 60, "duration": 12, "velocity": 64}, {"time": 240, "pitch": 59, "duration": 12, "velocity": 64}, {"time": 252, "pitch": 57, "duration": 12, "velocity": 64}, {"time": 264, "pitch": 55, "duration": 24, "velocity": 64}, {"time": 288, "pitch": 55, "duration": 12, "velocity": 64}, {"time": 300, "pitch": 55, "duration": 12, "velocity": 64}, {"time": 312, "pitch": 57, "duration": 12, "velocity": 64}, {"time": 324, "pitch": 59, "duration": 6, "velocity": 64}, {"time": 330, "pitch": 59, "duration": 6, "velocity": 64}, {"time": 336, "pitch": 60, "duration": 12, "velocity": 64}, {"time": 348, "pitch": 60, "duration": 12, "velocity": 64}, {"time": 360, "pitch": 60, "duration": 24, "velocity": 64}]}]}