{"metadata": {"schema_version": "0.1", "title": "Es geht nichts ueber die Gemuetlichkeit, eijo, bleib do", "source_format": "abc"}, "resolution": 24, "tempos": [{"time": 0, "qpm": 120.0}], "key_signatures": [{"time": 0, "root": 0, "mode": "major", "fifths": 0}], "time_signatures": [{"time": 0, "numerator": 4, "denominator": 4}, {"time": 444, "numerator": 1, "denominator": 4}, {"time": 516, "numerator": 1, "denominator": 4}, {"time": 588, "numerator": 1, "denominator": 4}, {"time": 660, "numerator": 1, "denominator": 4}, {"time": 732, "numerator": 1, "denominator": 4}, {"time": 804, "numerator": 1, "denominator": 4}, {"time": 876, "numerator": 1, "denominator": 4}, {"time": 948, "numerator": 1, "denominator": 4}, {"time": 1020, "numerator": 1, "denominator": 4}, {"time": 1092, "numerator": 1, "denominator": 4}, {"time": 1164, "numerator": 1, "denominator": 4}, {"time": 1308, "numerator": 1, "denominator": 4}, {"time": 1380, "numerator": 4, "denominator": 4}, {"time": 1476, "numerator": 2, "denominator": 4}], "beats": [{"time": 0, "is_downbeat": true}, {"time": 12, "is_downbeat": true}, {"time": 36, "is_downbeat": true}, {"time": 60, "is_downbeat": true}, {"time": 84, "is_downbeat": true}, {"time": 108, "is_downbeat": true}, {"time": 132, "is_downbeat": true}, {"time": 156, "is_downbeat": true}, {"time": 180, "is_downbeat": true}, {"time": 204, "is_downbeat": true}, {"time": 228, "is_downbeat": true}, {"time": 252, "is_downbeat": true}, {"time": 276, "is_downbeat": true}, {"time": 300, "is_downbeat": true}, {"time": 324, "is_downbeat": true}, {"time": 348, "is_downbeat": true}, {"time": 372, "is_downbeat": true}, {"time": 396, "is_downbeat": true}, {"time": 420, "is_downbeat": true}, {"time": 444, "is_downbeat": true}, {"time": 468, "is_downbeat": true}, {"time": 492, "is_downbeat": true}, {"time": 516, "is_downbeat": true}, {"time": 540, "is_downbeat": true}, {"time": 564, "is_downbeat": true}, {"time": 588, "is_downbeat": true}, {"time": 612, "is_downbeat": true}, {"time": 636, "is_downbeat": true}, {"time": 660, "is_downbeat": true}, {"time": 684, "is_downbeat": true}, {"time": 708, "is_downbeat": true}, {"time": 732, "is_downbeat": true}, {"time": 756, "is_downbeat": true}, {"time": 780, "is_downbeat": true}, {"time": 804, "is_downbeat": true}, {"time": 828, "is_downbeat": true}, {"time": 852, "is_downbeat": true}, {"time": 876, "is_downbeat": true}, {"time": 900, "is_downbeat": true}, {"time": 924, "is_downbeat": true}, {"time": 948, "is_downbeat": true}, {"time": 972, "is_downbeat": true}, {"time": 996, "is_downbeat": true}, {"time": 1020, "is_downbeat": true}, {"time": 1044, "is_downbeat": true}, {"time": 1068, "is_downbeat": true}, {"time": 1092, "is_downbeat": true}, {"time": 1116, "is_downbeat": true}, {"time": 1140, "is_downbeat": true}, {"time": 1164, "is_downbeat": true}, {"time": 1188, "is_downbeat": true}, {"time": 1212, "is_downbeat": true}, {"time": 1236, "is_downbeat": true}, {"time": 1260, "is_downbeat": true}, {"time": 1284, "is_downbeat": true}, {"time": 1308, "is_downbeat": true}, {"time": 1332, "is_downbeat": true}, {"time": 1356, "is_downbeat": false}, {"time": 1380, "is_downbeat": true}, {"time": 1404, "is_downbeat": false}, {"time": 1428, "is_downbeat": true}, {"time": 1452, "is_downbeat": false}, {"time": 1476, "is_downbeat": true}, {"time": 1500, "is_downbeat": false}], "tracks": [{"program": 0, "is_drum": false, "notes": [{"time": 0, "pitch": 55, "duration": 12, "velocity": 64}, {"time": 12, "pitch": 60, "duration": 12, "velocity": 64}, {"time": 24, "pitch": 60, "duration": 12, "velocity": 64}, {"time": 36, "pitch": 60, "duration": 9, "velocity": 64}, {"time": 45, "pitch": 60, "duration": 3, "velocity": 64}, {"time": 48, "pitch": 60, "duration": 6, "velocity": 64}, {"time": 54, "pitch": 62, "duration": 6, "velocity": 64}, {"time": 60, "pitch": 64, "duration": 12, "velocity": 64}, {"time": 72, "pitch": 64, "duration": 12, "velocity": 64}, {"time": 84, "pitch": 64, "duration": 12, "velocity": 64}, {"time": 96, "pitch": 67, "duration": 12, "velocity": 64}, {"time": 108, "pitch": 62, "duration": 24, "velocity": 64}, {"time": 144, "pitch": 67, "duration": 12, "velocity": 64}, {"time": 156, "pitch": 60, "duration": 24, "velocity": 64}, {"time": 192, "pitch": 55, "duration": 12, "velocity": 64}, {"time": 204, "pitch": 60, "duration": 12, "velocity": 64}, {"time": 216, "pitch": 60, "duration": 12, "velocity": 64}, {"time": 228, "pitch": 60, "duration": 12, "velocity": 64}, {"time": 240, "pitch": 60, "duration": 6, "velocity": 64}, {"time": 246, "pitch": 62, "duration": 6, "velocity": 64}, {"time": 252, "pitch": 64, "duration": 12, "velocity": 64}, {"time": 264, "pitch": 64, "duration": 12, "velocity": 64}, {"time": 276, "pitch": 64, "duration": 12, "velocity": 64}, {"time": 288, "pitch": 67, "duration": 12, "velocity": 64}, {"time": 300, "pitch": 62, "duration": 24, "velocity": 64}, {"time": 336, "pitch": 67, "duration": 12, "velocity": 64}, {"time": 348, "pitch": 60, "duration": 24, "velocity": 64}, {"time": 384, "pitch": 67, "duration": 6, "velocity": 64}, {"time": 390, "pitch": 72, "duration": 6, "velocity": 64}, {"time": 396, "pitch": 71, "duration": 48, "velocity": 64}, {"time": 444, "pitch": 69, "duration": 24, "velocity": 64}, {"time": 468, "pitch": 67, "duration": 48, "velocity": 64}, {"time": 516, "pitch": 65, "duration": 24, "velocity": 64}, {"time": 540, "pitch": 64, "duration": 24, "velocity": 64}, {"time": 576, "pitch": 64, "duration": 12, "velocity": 64}, {"time": 588, "pitch": 64, "duration": 24, "velocity": 64}, {"time": 636, "pitch": 69, "duration": 24, "velocity": 64}, {"time": 660, "pitch": 67, "duration": 24, "velocity": 64}, {"time": 684, "pitch": 65, "duration": 24, "velocity": 64}, {"time": 720, "pitch": 64, "duration": 12, "velocity": 64}, {"time": 732, "pitch": 65, "duration": 24, "velocity": 64}, {"time": 780, "pitch": 69, "duration": 24, "velocity": 64}, {"time": 804, "pitch": 67, "duration": 24, "velocity": 64}, {"time": 828, "pitch": 64, "duration": 24, "velocity": 64}, {"time": 864, "pitch": 63, "duration": 12, "velocity": 64}, {"time": 876, "pitch": 64, "duration": 24, "velocity": 64}, {"time": 924, "pitch": 67, "duration": 24, "velocity": 64}, {"time": 948, "pitch": 72, "duration": 24, "velocity": 64}, {"time": 972, "pitch": 71, "duration": 48, "velocity": 64}, {"time": 1020, "pitch": 69, "duration": 24, "velocity": 64}, {"time": 1044, "pitch": 67, "duration": 48, "velocity": 64}, {"time": 1092, "pitch": 65, "duration": 24, "velocity": 64}, {"time": 1116, "pitch": 64, "duration": 24, "velocity": 64}, {"time": 1152, "pitch": 63, "duration": 12, "velocity": 64}, {"time": 1164, "pitch": 64, "duration": 24, "velocity": 64}, {"time": 1236, "pitch": 67, "duration": 12, "velocity": 64}, {"time": 1248, "pitch": 67, "duration": 12, "velocity": 64}, {"time": 1260, "pitch": 69, "duration": 36, "velocity": 64}, {"time": 1296, "pitch": 69, "duration": 12, "velocity": 64}, {"time": 1308, "pitch": 69, "duration": 24, "velocity": 64}, {"time": 1332, "pitch": 71, "duration": 24, "velocity": 64}, {"time": 1356, "pitch": 69, "duration": 24, "velocity": 64}, {"time": 1380, "pitch": 71, "duration": 24, "velocity": 64}, {"time": 1404, "pitch": 72, "duration": 96, "velocity": 64}]}]}