{"metadata": {"schema_version": "0.1", "title": "ES SAH EINE LINDE INS TIEFE TAL", "source_format": "abc"}, "resolution": 24, "tempos": [{"time": 0, "qpm": 120.0}], "key_signatures": [{"time": 0, "root": 0, "mode": "major", "fifths": 0}], "time_signatures": [{"time": 0, "numerator": 2, "denominator": 4}], "beats": [{"time": 0, "is_downbeat": true}, {"time": 12, "is_downbeat": true}, {"time": 36, "is_downbeat": false}, {"time": 60, "is_downbeat": true}, {"time": 84, "is_downbeat": false}, {"time": 108, "is_downbeat": true}, {"time": 132, "is_downbeat": false}, {"time": 156, "is_downbeat": true}, {"time": 180, "is_downbeat": false}, {"time": 204, "is_downbeat": true}, {"time": 228, "is_downbeat": false}, {"time": 252, "is_downbeat": true}, {"time": 276, "is_downbeat": false}, {"time": 300, "is_downbeat": true}, {"time": 324, "is_downbeat": false}], "tracks": [{"program": 0, "is_drum": false, "notes": [{"time": 0, "pitch": 55, "duration": 12, "velocity": 64}, {"time": 12, "pitch": 60, "duration": 12, "velocity": 64}, {"time": 24, "pitch": 60, "duration": 12, "velocity": 64}, {"time": 36, "pitch": 60, "duration": 6, "velocity": 64}, {"time": 42, "pitch": 64, "duration": 6, "velocity": 64}, {"time": 48, "pitch": 67, "duration": 6, "velocity": 64}, {"time": 54, "pitch": 64, "duration": 6, "velocity": 64}, {"time": 60, "pitch": 62, "duration": 18, "velocity": 64}, {"time": 78, "pitch": 60, "duration": 6, "velocity": 64}, {"time": 84, "pitch": 59, "duration": 12, "velocity": 64}, {"time": 96, "pitch": 62, "duration": 12, "velocity": 64}, {"time": 108, "pitch": 60, "duration": 12, "velocity": 64}, {"time": 120, "pitch": 57, "duration": 12, "velocity": 64}, {"time": 132, "pitch": 57, "duration": 12, "velocity": 64}, {"time": 144, "pitch": 60, "duration": 12, "velocity": 64}, {"time": 156, "pitch": 55, "duration": 18, "velocity": 64}, {"time": 174, "pitch": 53, "duration": 6, "velocity": 64}, {"time": 180, "pitch": 52, "duration": 12, "velocity": 64}, {"time": 192, "pitch": 55, "duration": 12, "velocity": 64}, {"time": 204, "pitch": 60, "duration": 12, "velocity": 64}, {"time": 216, "pitch": 60, "duration": 12, "velocity": 64}, {"time": 228, "pitch": 62, "duration": 12, "velocity": 64}, {"time": 240, "pitch": 60, "duration": 6, "velocity": 64}, {"time": 246, "pitch": 62, "duration": 6, "velocity": 64}, {"time": 252, "pitch": 64, "duration": 24, "velocity": 64}, {"time": 276, "pitch": 62, "duration": 24, "velocity": 64}, {"time": 300, "pitch": 60, "duration": 24, "velocity": 64}]}]}