{"metadata": {"schema_version": "0.1", "title": "HOERET WIE DIE WACHTEL IN FREUDEN DORT SCHLAEGT", "source_format": "abc"}, "resolution": 24, "tempos": [{"time": 0, "qpm": 120.0}], "key_signatures": [{"time": 0, "root": 5, "mode": "major", "fifths": -1}], "time_signatures": [{"time": 0, "numerator": 3, "denominator": 4}], "beats": [{"time": 0, "is_downbeat": true}, {"time": 24, "is_downbeat": false}, {"time": 48, "is_downbeat": false}, {"time": 66, "is_downbeat": true}, {"time": 90, "is_downbeat": false}, {"time": 114, "is_downbeat": false}, {"time": 138, "is_downbeat": true}, {"time": 162, "is_downbeat": false}, {"time": 186, "is_downbeat": false}, {"time": 210, "is_downbeat": true}, {"time": 234, "is_downbeat": false}, {"time": 258, "is_downbeat": false}, {"time": 282, "is_downbeat": true}, {"time": 306, "is_downbeat": false}, {"time": 330, "is_downbeat": false}, {"time": 354, "is_downbeat": true}, {"time": 378, "is_downbeat": false}, {"time": 402, "is_downbeat": false}, {"time": 426, "is_downbeat": true}, {"time": 450, "is_downbeat": false}, {"time": 474, "is_downbeat": false}, {"time": 498, "is_downbeat": true}, {"time": 522, "is_downbeat": false}, {"time": 546, "is_downbeat": false}, {"time": 570, "is_downbeat": true}, {"time": 594, "is_downbeat": false}, {"time": 618, "is_downbeat": false}, {"time": 642, "is_downbeat": true}, {"time": 666, "is_downbeat": false}, {"time": 690, "is_downbeat": false}, {"time": 714, "is_downbeat": true}, {"time": 738, "is_downbeat": false}, {"time": 762, "is_downbeat": false}, {"time": 786, "is_downbeat": true}, {"time": 810, "is_downbeat": false}, {"time": 834, "is_downbeat": false}, {"time": 858, "is_downbeat": true}, {"time": 882, "is_downbeat": false}, {"time": 906, "is_downbeat": false}, {"time": 930, "is_downbeat": true}, {"time": 954, "is_downbeat": false}, {"time": 978, "is_downbeat": false}, {"time": 1002, "is_downbeat": true}, {"time": 1026, "is_downbeat": false}, {"time": 1050, "is_downbeat": false}, {"time": 1074, "is_downbeat": true}, {"time": 1098, "is_downbeat": false}, {"time": 1122, "is_downbeat": false}, {"time": 1146, "is_downbeat": true}, {"time": 1170, "is_downbeat": false}, {"time": 1194, "is_downbeat": false}, {"time": 1218, "is_downbeat": true}, {"time": 1242, "is_downbeat": false}, {"time": 1266, "is_downbeat": false}, {"time": 1290, "is_downbeat": true}, {"time": 1314, "is_downbeat": false}, {"time": 1338, "is_downbeat": false}, {"time": 1362, "is_downbeat": true}, {"time": 1386, "is_downbeat": false}, {"time": 1410, "is_downbeat": false}, {"time": 1434, "is_downbeat": true}, {"time": 1458, "is_downbeat": false}, {"time": 1482, "is_downbeat": false}, {"time": 1506, "is_downbeat": true}, {"time": 1530, "is_downbeat": false}, {"time": 1554, "is_downbeat": false}, {"time": 1578, "is_downbeat": true}, {"time": 1602, "is_downbeat": false}, {"time": 1626, "is_downbeat": false}, {"time": 1650, "is_downbeat": true}, {"time": 1674, "is_downbeat": false}, {"time": 1698, "is_downbeat": false}, {"time": 1722, "is_downbeat": true}, {"time": 1746, "is_downbeat": false}, {"time": 1770, "is_downbeat": false}, {"time": 1794, "is_downbeat": true}, {"time": 1818, "is_downbeat": false}, {"time": 1842, "is_downbeat": false}], "tracks": [{"program": 0, "is_drum": false, "notes": [{"time": 0, "pitch": 72, "duration": 24, "velocity": 64}, {"time": 24, "pitch": 72, "duration": 12, "velocity": 64}, {"time": 36, "pitch": 69, "duration": 12, "velocity": 64}, {"time": 48, "pitch": 77, "duration": 12, "velocity": 64}, {"time": 60, "pitch": 74, "duration": 6, "velocity": 64}, {"time": 66, "pitch": 72, "duration": 24, "velocity": 64}, {"time": 90, "pitch": 72, "duration": 36, "velocity": 64}, {"time": 126, "pitch": 74, "duration": 12, "velocity": 64}, {"time": 138, "pitch": 72, "duration": 12, "velocity": 64}, {"time": 150, "pitch": 70, "duration": 12, "velocity": 64}, {"time": 162, "pitch": 69, "duration": 24, "velocity": 64}, {"time": 186, "pitch": 67, "duration": 24, "velocity": 64}, {"time": 210, "pitch": 65, "duration": 24, "velocity": 64}, {"time": 258, "pitch": 65, "duration": 12, "velocity": 64}, {"time": 270, "pitch": 69, "duration": 12, "velocity": 64}, {"time": 282, "pitch": 65, "duration": 24, "velocity": 64}, {"time": 330, "pitch": 65, "duration": 12, "velocity": 64}, {"time": 342, "pitch": 69, "duration": 12, "velocity": 64}, {"time": 354, "pitch": 65, "duration": 24, "velocity": 64}, {"time": 426, "pitch": 65, "duration": 24, "velocity": 64}, {"time": 450, "pitch": 69, "duration": 24, "velocity": 64}, {"time": 474, "pitch": 72, "duration": 18, "velocity": 64}, {"time": 492, "pitch": 74, "duration": 6, "velocity": 64}, {"time": 498, "pitch": 72, "duration": 12, "velocity": 64}, {"time": 510, "pitch": 70, "duration": 12, "velocity": 64}, {"time": 522, "pitch": 69, "duration": 12, "velocity": 64}, {"time": 534, "pitch": 67, "duration": 12, "velocity": 64}, {"time": 546, "pitch": 65, "duration": 12, "velocity": 64}, {"time": 558, "pitch": 64, "duration": 12, "velocity": 64}, {"time": 570, "pitch": 65, "duration": 24, "velocity": 64}, {"time": 642, "pitch": 69, "duration": 24, "velocity": 64}, {"time": 666, "pitch": 72, "duration": 24, "velocity": 64}, {"time": 690, "pitch": 69, "duration": 24, "velocity": 64}, {"time": 714, "pitch": 67, "duration": 24, "velocity": 64}, {"time": 738, "pitch": 70, "duration": 24, "velocity": 64}, {"time": 762, "pitch": 67, "duration": 24, "velocity": 64}, {"time": 786, "pitch": 65, "duration": 12, "velocity": 64}, {"time": 798, "pitch": 65, "duration": 12, "velocity": 64}, {"time": 810, "pitch": 72, "duration": 24, "velocity": 64}, {"time": 834, "pitch": 69, "duration": 18, "velocity": 64}, {"time": 852, "pitch": 67, "duration": 6, "velocity": 64}, {"time": 858, "pitch": 67, "duration": 24, "velocity": 64}, {"time": 930, "pitch": 65, "duration": 24, "velocity": 64}, {"time": 954, "pitch": 72, "duration": 24, "velocity": 64}, {"time": 978, "pitch": 69, "duration": 24, "velocity": 64}, {"time": 1002, "pitch": 67, "duration": 24, "velocity": 64}, {"time": 1026, "pitch": 70, "duration": 24, "velocity": 64}, {"time": 1050, "pitch": 67, "duration": 24, "velocity": 64}, {"time": 1074, "pitch": 65, "duration": 24, "velocity": 64}, {"time": 1098, "pitch": 72, "duration": 24, "velocity": 64}, {"time": 1122, "pitch": 69, "duration": 18, "velocity": 64}, {"time": 1140, "pitch": 65, "duration": 6, "velocity": 64}, {"time": 1146, "pitch": 67, "duration": 24, "velocity": 64}, {"time": 1218, "pitch": 72, "duration": 24, "velocity": 64}, {"time": 1242, "pitch": 72, "duration": 12, "velocity": 64}, {"time": 1254, "pitch": 69, "duration": 12, "velocity": 64}, {"time": 1266, "pitch": 70, "duration": 12, "velocity": 64}, {"time": 1278, "pitch": 74, "duration": 12, "velocity": 64}, {"time": 1290, "pitch": 74, "duration": 18, "velocity": 64}, {"time": 1308, "pitch": 72, "duration": 6, "velocity": 64}, {"time": 1314, "pitch": 72, "duration": 36, "velocity": 64}, {"time": 1350, "pitch": 74, "duration": 12, "velocity": 64}, {"time": 1362, "pitch": 72, "duration": 12, "velocity": 64}, {"time": 1374, "pitch": 70, "duration": 12, "velocity": 64}, {"time": 1386, "pitch": 69, "duration": 24, "velocity": 64}, {"time": 1410, "pitch": 67, "duration": 24, "velocity": 64}, {"time": 1434, "pitch": 65, "duration": 24, "velocity": 64}, {"time": 1506, "pitch": 65, "duration": 18, "velocity": 64}, {"time": 1524, "pitch": 69, "duration": 6, "velocity": 64}, {"time": 1530, "pitch": 65, "duration": 24, "velocity": 64}, {"time": 1578, "pitch": 65, "duration": 18, "velocity": 64}, {"time": 1596, "pitch": 69, "duration": 6, "velocity": 64}, {"time": 1602, "pitch": 65, "duration": 24, "velocity": 64}, {"time": 1650, "pitch": 65, "duration": 36, "velocity": 64}, {"time": 1686, "pitch": 69, "duration": 12, "velocity": 64}, {"time": 1698, "pitch": 72, "duration": 12, "velocity": 64}, {"time": 1710, "pitch": 74, "duration": 12, "velocity": 64}, {"time": 1722, "pitch": 72, "duration": 24, "velocity": 64}, {"time": 1746, "pitch": 69, "duration": 24, "velocity": 64}, {"time": 1770, "pitch": 67, "duration": 24, "velocity": 64}, {"time": 1794, "pitch": 65, "duration": 48, "velocity": 64}]}]}