{"metadata": {"schema_version": "0.1", "title": "SO ZIEHN WIR PREUSSEN IN DAS FELD", "source_format": "abc"}, "resolution": 24, "tempos": [{"time": 0, "qpm": 120.0}], "key_signatures": [{"time": 0, "root": 7, "mode": "major", "fifths": 1}], "time_signatures": [{"time": 0, "numerator": 4, "denominator": 4}], "beats": [{"time": 0, "is_downbeat": true}, {"time": 12, "is_downbeat": true}, {"time": 36, "is_downbeat": false}, {"time": 60, "is_downbeat": false}, {"time": 84, "is_downbeat": false}, {"time": 108, "is_downbeat": true}, {"time": 132, "is_downbeat": false}, {"time": 156, "is_downbeat": false}, {"time": 180, "is_downbeat": false}, {"time": 204, "is_downbeat": true}, {"time": 228, "is_downbeat": false}, {"time": 252, "is_downbeat": false}, {"time": 276, "is_downbeat": false}, {"time": 300, "is_downbeat": true}, {"time": 324, "is_downbeat": false}, {"time": 348, "is_downbeat": false}, {"time": 372, "is_downbeat": false}, {"time": 396, "is_downbeat": true}, {"time": 420, "is_downbeat": false}, {"time": 444, "is_downbeat": false}, {"time": 468, "is_downbeat": false}, {"time": 492, "is_downbeat": true}, {"time": 516, "is_downbeat": false}, {"time": 540, "is_downbeat": false}, {"time": 564, "is_downbeat": false}, {"time": 588, "is_downbeat": true}, {"time": 612, "is_downbeat": false}, {"time": 636, "is_downbeat": false}, {"time": 660, "is_downbeat": false}, {"time": 684, "is_downbeat": true}, {"time": 708, "is_downbeat": false}, {"time": 732, "is_downbeat": false}, {"time": 756, "is_downbeat": false}, {"time": 780, "is_downbeat": true}, {"time": 804, "is_downbeat": false}, {"time": 828, "is_downbeat": false}, {"time": 852, "is_downbeat": false}, {"time": 876, "is_downbeat": true}, {"time": 900, "is_downbeat": false}, {"time": 924, "is_downbeat": false}, {"time": 948, "is_downbeat": false}, {"time": 972, "is_downbeat": true}, {"time": 996, "is_downbeat": false}, {"time": 1020, "is_downbeat": false}, {"time": 1044, "is_downbeat": false}, {"time": 1068, "is_downbeat": true}, {"time": 1092, "is_downbeat": false}, {"time": 1116, "is_downbeat": false}, {"time": 1140, "is_downbeat": false}, {"time": 1164, "is_downbeat": true}, {"time": 1188, "is_downbeat": false}, {"time": 1212, "is_downbeat": false}, {"time": 1236, "is_downbeat": false}, {"time": 1260, "is_downbeat": true}, {"time": 1284, "is_downbeat": false}, {"time": 1308, "is_downbeat": false}, {"time": 1332, "is_downbeat": false}, {"time": 1356, "is_downbeat": true}, {"time": 1380, "is_downbeat": false}, {"time": 1404, "is_downbeat": false}, {"time": 1428, "is_downbeat": false}, {"time": 1452, "is_downbeat": true}, {"time": 1476, "is_downbeat": false}, {"time": 1500, "is_downbeat": false}, {"time": 1524, "is_downbeat": false}, {"time": 1548, "is_downbeat": true}, {"time": 1572, "is_downbeat": false}, {"time": 1596, "is_downbeat": false}, {"time": 1620, "is_downbeat": false}, {"time": 1644, "is_downbeat": true}, {"time": 1668, "is_downbeat": false}, {"time": 1692, "is_downbeat": false}, {"time": 1716, "is_downbeat": false}, {"time": 1740, "is_downbeat": true}, {"time": 1764, "is_downbeat": false}, {"time": 1788, "is_downbeat": false}, {"time": 1812, "is_downbeat": false}, {"time": 1836, "is_downbeat": true}, {"time": 1860, "is_downbeat": false}, {"time": 1884, "is_downbeat": false}, {"time": 1908, "is_downbeat": false}, {"time": 1932, "is_downbeat": true}, {"time": 1956, "is_downbeat": false}, {"time": 1980, "is_downbeat": false}, {"time": 2004, "is_downbeat": false}, {"time": 2028, "is_downbeat": true}, {"time": 2052, "is_downbeat": false}, {"time": 2076, "is_downbeat": false}, {"time": 2100, "is_downbeat": false}, {"time": 2124, "is_downbeat": true}, {"time": 2148, "is_downbeat": false}, {"time": 2172, "is_downbeat": false}, {"time": 2196, "is_downbeat": false}, {"time": 2220, "is_downbeat": true}, {"time": 2244, "is_downbeat": false}, {"time": 2268, "is_downbeat": false}, {"time": 2292, "is_downbeat": false}], "tracks": [{"program": 0, "is_drum": false, "notes": [{"time": 0, "pitch": 62, "duration": 12, "velocity": 64}, {"time": 12, "pitch": 67, "duration": 24, "velocity": 64}, {"time": 36, "pitch": 62, "duration": 24, "velocity": 64}, {"time": 60, "pitch": 62, "duration": 24, "velocity": 64}, {"time": 84, "pitch": 67, "duration": 24, "velocity": 64}, {"time": 108, "pitch": 64, "duration": 24, "velocity": 64}, {"time": 132, "pitch": 60, "duration": 24, "velocity": 64}, {"time": 156, "pitch": 60, "duration": 24, "velocity": 64}, {"time": 180, "pitch": 69, "duration": 24, "velocity": 64}, {"time": 204, "pitch": 66, "duration": 24, "velocity": 64}, {"time": 228, "pitch": 62, "duration": 24, "velocity": 64}, {"time": 252, "pitch": 64, "duration": 24, "velocity": 64}, {"time": 276, "pitch": 66, "duration": 24, "velocity": 64}, {"time": 300, "pitch": 67, "duration": 48, "velocity": 64}, {"time": 372, "pitch": 62, "duration": 24, "velocity": 64}, {"time": 396, "pitch": 67, "duration": 24, "velocity": 64}, {"time": 420, "pitch": 62, "duration": 24, "velocity": 64}, {"time": 444, "pitch": 62, "duration": 24, "velocity": 64}, {"time": 468, "pitch": 67, "duration": 24, "velocity": 64}, {"time": 492, "pitch": 64, "duration": 24, "velocity": 64}, {"time": 516, "pitch": 60, "duration": 24, "velocity": 64}, {"time": 540, "pitch": 60, "duration": 24, "velocity": 64}, {"time": 564, "pitch": 69, "duration": 24, "velocity": 64}, {"time": 588, "pitch": 66, "duration": 24, "velocity": 64}, {"time": 612, "pitch": 62, "duration": 24, "velocity": 64}, {"time": 636, "pitch": 64, "duration": 24, "velocity": 64}, {"time": 660, "pitch": 66, "duration": 24, "velocity": 64}, {"time": 684, "pitch": 67, "duration": 48, "velocity": 64}, {"time": 756, "pitch": 67, "duration": 12, "velocity": 64}, {"time": 768, "pitch": 69, "duration": 12, "velocity": 64}, {"time": 780, "pitch": 71, "duration": 24, "velocity": 64}, {"time": 804, "pitch": 71, "duration": 12, "velocity": 64}, {"time": 816, "pitch": 71, "duration": 12, "velocity": 64}, {"time": 828, "pitch": 72, "duration": 12, "velocity": 64}, {"time": 840, "pitch": 71, "duration": 12, "velocity": 64}, {"time": 852, "pitch": 69, "duration": 12, "velocity": 64}, {"time": 864, "pitch": 67, "duration": 12, "velocity": 64}, {"time": 876, "pitch": 69, "duration": 12, "velocity": 64}, {"time": 888, "pitch": 62, "duration": 12, "velocity": 64}, {"time": 900, "pitch": 62, "duration": 12, "velocity": 64}, {"time": 912, "pitch": 62, "duration": 12, "velocity": 64}, {"time": 924, "pitch": 62, "duration": 24, "velocity": 64}, {"time": 948, "pitch": 62, "duration": 12, "velocity": 64}, {"time": 960, "pitch": 66, "duration": 12, "velocity": 64}, {"time": 972, "pitch": 69, "duration": 24, "velocity": 64}, {"time": 996, "pitch": 69, "duration": 12, "velocity": 64}, {"time": 1008, "pitch": 69, "duration": 12, "velocity": 64}, {"time": 1020, "pitch": 74, "duration": 12, "velocity": 64}, {"time": 1032, "pitch": 72, "duration": 12, "velocity": 64}, {"time": 1044, "pitch": 71, "duration": 12, "velocity": 64}, {"time": 1056, "pitch": 69, "duration": 12, "velocity": 64}, {"time": 1068, "pitch": 67, "duration": 24, "velocity": 64}, {"time": 1092, "pitch": 69, "duration": 24, "velocity": 64}, {"time": 1116, "pitch": 71, "duration": 12, "velocity": 64}, {"time": 1128, "pitch": 62, "duration": 12, "velocity": 64}, {"time": 1140, "pitch": 64, "duration": 12, "velocity": 64}, {"time": 1152, "pitch": 66, "duration": 12, "velocity": 64}, {"time": 1164, "pitch": 67, "duration": 48, "velocity": 64}, {"time": 1212, "pitch": 71, "duration": 12, "velocity": 64}, {"time": 1224, "pitch": 69, "duration": 12, "velocity": 64}, {"time": 1236, "pitch": 67, "duration": 12, "velocity": 64}, {"time": 1248, "pitch": 66, "duration": 12, "velocity": 64}, {"time": 1260, "pitch": 64, "duration": 36, "velocity": 64}, {"time": 1296, "pitch": 72, "duration": 12, "velocity": 64}, {"time": 1308, "pitch": 72, "duration": 12, "velocity": 64}, {"time": 1320, "pitch": 72, "duration": 12, "velocity": 64}, {"time": 1332, "pitch": 72, "duration": 12, "velocity": 64}, {"time": 1344, "pitch": 72, "duration": 12, "velocity": 64}, {"time": 1356, "pitch": 71, "duration": 24, "velocity": 64}, {"time": 1380, "pitch": 71, "duration": 24, "velocity": 64}, {"time": 1404, "pitch": 69, "duration": 24, "velocity": 64}, {"time": 1428, "pitch": 69, "duration": 24, "velocity": 64}, {"time": 1452, "pitch": 67, "duration": 72, "velocity": 64}, {"time": 1524, "pitch": 74, "duration": 24, "velocity": 64}, {"time": 1548, "pitch": 71, "duration": 24, "velocity": 64}, {"time": 1572, "pitch": 74, "duration": 24, "velocity": 64}, {"time": 1596, "pitch": 71, "duration": 24, "velocity": 64}, {"time": 1620, "pitch": 74, "duration": 24, "velocity": 64}, {"time": 1644, "pitch": 76, "duration": 12, "velocity": 64}, {"time": 1656, "pitch": 74, "duration": 12, "velocity": 64}, {"time": 1668, "pitch": 72, "duration": 12, "velocity": 64}, {"time": 1680, "pitch": 71, "duration": 12, "velocity": 64}, {"time": 1692, "pitch": 72, "duration": 24, "velocity": 64}, {"time": 1716, "pitch": 72, "duration": 24, "velocity": 64}, {"time": 1740, "pitch": 69, "duration": 24, "velocity": 64}, {"time": 1764, "pitch": 72, "duration": 24, "velocity": 64}, {"time": 1788, "pitch": 69, "duration": 24, "velocity": 64}, {"time": 1812, "pitch": 72, "duration": 24, "velocity": 64}, {"time": 1836, "pitch": 74, "duration": 12, "velocity": 64}, {"time": 1848, "pitch": 72, "duration": 12, "velocity": 64}, {"time": 1860, "pitch": 71, "duration": 12, "velocity": 64}, {"time": 1872, "pitch": 69, "duration": 12, "velocity": 64}, {"time": 1884, "pitch": 71, "duration": 12, "velocity": 64}, {"time": 1896, "pitch": 62, "duration": 12, "velocity": 64}, {"time": 1908, "pitch": 64, "duration": 12, "velocity": 64}, {"time": 1920, "pitch": 66, "duration": 12, "velocity": 64}, {"time": 1932, "pitch": 67, "duration": 48, "velocity": 64}, {"time": 1980, "pitch": 71, "duration": 12, "velocity": 64}, {"time": 1992, "pitch": 69, "duration": 12, "velocity": 64}, {"time": 2004, "pitch": 67, "duration": 12, "velocity": 64}, {"time": 2016, "pitch": 66, "duration": 12, "velocity": 64}, {"time": 2028, "pitch": 64, "duration": 36, "velocity": 64}, {"time": 2064, "pitch": 72, "duration": 12, "velocity": 64}, {"time": 2076, "pitch": 72, "duration": 12, "velocity": 64}, {"time": 2088, "pitch": 71, "duration": 12, "velocity": 64}, {"time": 2100, "pitch": 69, "duration": 12, "velocity": 64}, {"time": 2112, "pitch": 67, "duration": 12, "velocity": 64}, {"time": 2124, "pitch": 71, "duration": 24, "velocity": 64}, {"time": 2148, "pitch": 71, "duration": 24, "velocity": 64}, {"time": 2172, "pitch": 69, "duration": 24, "velocity": 64}, {"time": 2196, "pitch": 69, "duration": 24, "velocity": 64}, {"time": 2220, "pitch": 67, "duration": 48, "velocity": 64}]}]}