{"metadata": {"schema_version": "0.1", "title": "ES BLIES EIN JAEGER WOHL IN SEIN HORN", "source_format": "abc"}, "resolution": 24, "tempos": [{"time": 0, "qpm": 120.0}], "key_signatures": [{"time": 0, "root": 0, "mode": "major", "fifths": 0}], "time_signatures": [{"time": 0, "numerator": 4, "denominator": 4}, {"time": 588, "numerator": 1, "denominator": 4}, {"time": 612, "numerator": 6, "denominator": 8}], "beats": [{"time": 0, "is_downbeat": true}, {"time": 12, "is_downbeat": true}, {"time": 36, "is_downbeat": true}, {"time": 60, "is_downbeat": true}, {"time": 84, "is_downbeat": true}, {"time": 108, "is_downbeat": true}, {"time": 132, "is_downbeat": true}, {"time": 156, "is_downbeat": true}, {"time": 180, "is_downbeat": true}, {"time": 204, "is_downbeat": true}, {"time": 228, "is_downbeat": true}, {"time": 252, "is_downbeat": true}, {"time": 276, "is_downbeat": true}, {"time": 300, "is_downbeat": true}, {"time": 324, "is_downbeat": true}, {"time": 348, "is_downbeat": true}, {"time": 372, "is_downbeat": true}, {"time": 396, "is_downbeat": true}, {"time": 420, "is_downbeat": true}, {"time": 444, "is_downbeat": true}, {"time": 468, "is_downbeat": true}, {"time": 492, "is_downbeat": true}, {"time": 516, "is_downbeat": true}, {"time": 540, "is_downbeat": true}, {"time": 564, "is_downbeat": true}, {"time": 588, "is_downbeat": true}, {"time": 600, "is_downbeat": false}, {"time": 612, "is_downbeat": true}, {"time": 624, "is_downbeat": false}, {"time": 636, "is_downbeat": false}, {"time": 648, "is_downbeat": false}, {"time": 660, "is_downbeat": true}, {"time": 672, "is_downbeat": false}, {"time": 684, "is_downbeat": false}, {"time": 696, "is_downbeat": false}, {"time": 708, "is_downbeat": true}, {"time": 720, "is_downbeat": false}, {"time": 732, "is_downbeat": false}, {"time": 744, "is_downbeat": false}, {"time": 756, "is_downbeat": true}, {"time": 768, "is_downbeat": false}, {"time": 780, "is_downbeat": false}, {"time": 792, "is_downbeat": false}, {"time": 804, "is_downbeat": false}, {"time": 816, "is_downbeat": false}], "tracks": [{"program": 0, "is_drum": false, "notes": [{"time": 0, "pitch": 55, "duration": 12, "velocity": 64}, {"time": 12, "pitch": 60, "duration": 24, "velocity": 64}, {"time": 36, "pitch": 60, "duration": 12, "velocity": 64}, {"time": 48, "pitch": 60, "duration": 18, "velocity": 64}, {"time": 66, "pitch": 59, "duration": 6, "velocity": 64}, {"time": 72, "pitch": 57, "duration": 12, "velocity": 64}, {"time": 84, "pitch": 55, "duration": 24, "velocity": 64}, {"time": 108, "pitch": 55, "duration": 12, "velocity": 64}, {"time": 120, "pitch": 55, "duration": 24, "velocity": 64}, {"time": 144, "pitch": 67, "duration": 12, "velocity": 64}, {"time": 156, "pitch": 64, "duration": 36, "velocity": 64}, {"time": 192, "pitch": 62, "duration": 36, "velocity": 64}, {"time": 228, "pitch": 60, "duration": 36, "velocity": 64}, {"time": 288, "pitch": 55, "duration": 12, "velocity": 64}, {"time": 300, "pitch": 60, "duration": 24, "velocity": 64}, {"time": 324, "pitch": 60, "duration": 12, "velocity": 64}, {"time": 336, "pitch": 60, "duration": 18, "velocity": 64}, {"time": 354, "pitch": 59, "duration": 6, "velocity": 64}, {"time": 360, "pitch": 57, "duration": 12, "velocity": 64}, {"time": 372, "pitch": 55, "duration": 24, "velocity": 64}, {"time": 396, "pitch": 55, "duration": 12, "velocity": 64}, {"time": 408, "pitch": 55, "duration": 24, "velocity": 64}, {"time": 432, "pitch": 67, "duration": 12, "velocity": 64}, {"time": 444, "pitch": 64, "duration": 36, "velocity": 64}, {"time": 480, "pitch": 62, "duration": 36, "velocity": 64}, {"time": 516, "pitch": 60, "duration": 24, "velocity": 64}, {"time": 564, "pitch": 67, "duration": 12, "velocity": 64}, {"time": 576, "pitch": 64, "duration": 6, "velocity": 64}, {"time": 582, "pitch": 64, "duration": 6, "velocity": 64}, {"time": 588, "pitch": 64, "duration": 12, "velocity": 64}, {"time": 600, "pitch": 67, "duration": 12, "velocity": 64}, {"time": 612, "pitch": 65, "duration": 12, "velocity": 64}, {"time": 624, "pitch": 62, "duration": 12, "velocity": 64}, {"time": 636, "pitch": 62, "duration": 12, "velocity": 64}, {"time": 648, "pitch": 55, "duration": 12, "velocity": 64}, {"time": 660, "pitch": 60, "duration": 6, "velocity": 64}, {"time": 666, "pitch": 62, "duration": 6, "velocity": 64}, {"time": 672, "pitch": 64, "duration": 6, "velocity": 64}, {"time": 678, "pitch": 65, "duration": 6, "velocity": 64}, {"time": 684, "pitch": 67, "duration": 12, "velocity": 64}, {"time": 696, "pitch": 60, "duration": 12, "velocity": 64}, {"time": 708, "pitch": 64, "duration": 24, "velocity": 64}, {"time": 732, "pitch": 62, "duration": 24, "velocity": 64}, {"time": 756, "pitch": 60, "duration": 24, "velocity": 64}]}]}