{"metadata": {"schema_version": "0.1", "title": "ADE MEIN SCHATZ ICH MUSS NUN FORT", "source_format": "abc"}, "resolution": 24, "tempos": [{"time": 0, "qpm": 120.0}], "key_signatures": [{"time": 0, "root": 7, "mode": "major", "fifths": 1}], "time_signatures": [{"time": 0, "numerator": 3, "denominator": 4}], "beats": [{"time": 0, "is_downbeat": true}, {"time": 12, "is_downbeat": true}, {"time": 36, "is_downbeat": false}, {"time": 60, "is_downbeat": false}, {"time": 84, "is_downbeat": true}, {"time": 108, "is_downbeat": false}, {"time": 132, "is_downbeat": false}, {"time": 156, "is_downbeat": true}, {"time": 180, "is_downbeat": false}, {"time": 204, "is_downbeat": false}, {"time": 228, "is_downbeat": true}, {"time": 252, "is_downbeat": false}, {"time": 276, "is_downbeat": false}, {"time": 300, "is_downbeat": true}, {"time": 324, "is_downbeat": false}, {"time": 348, "is_downbeat": false}], "tracks": [{"program": 0, "is_drum": false, "notes": [{"time": 0, "pitch": 62, "duration": 12, "velocity": 64}, {"time": 12, "pitch": 67, "duration": 12, "velocity": 64}, {"time": 24, "pitch": 66, "duration": 12, "velocity": 64}, {"time": 36, "pitch": 67, "duration": 18, "velocity": 64}, {"time": 54, "pitch": 69, "duration": 6, "velocity": 64}, {"time": 60, "pitch": 71, "duration": 6, "velocity": 64}, {"time": 66, "pitch": 67, "duration": 6, "velocity": 64}, {"time": 72, "pitch": 66, "duration": 6, "velocity": 64}, {"time": 78, "pitch": 67, "duration": 6, "velocity": 64}, {"time": 84, "pitch": 69, "duration": 24, "velocity": 64}, {"time": 120, "pitch": 74, "duration": 12, "velocity": 64}, {"time": 132, "pitch": 71, "duration": 12, "velocity": 64}, {"time": 144, "pitch": 67, "duration": 12, "velocity": 64}, {"time": 156, "pitch": 71, "duration": 24, "velocity": 64}, {"time": 180, "pitch": 74, "duration": 12, "velocity": 64}, {"time": 192, "pitch": 71, "duration": 12, "velocity": 64}, {"time": 204, "pitch": 69, "duration": 12, "velocity": 64}, {"time": 216, "pitch": 67, "duration": 12, "velocity": 64}, {"time": 228, "pitch": 69, "duration": 24, "velocity": 64}, {"time": 252, "pitch": 72, "duration": 12, "velocity": 64}, {"time": 264, "pitch": 69, "duration": 12, "velocity": 64}, {"time": 276, "pitch": 67, "duration": 12, "velocity": 64}, {"time": 288, "pitch": 66, "duration": 12, "velocity": 64}, {"time": 300, "pitch": 67, "duration": 24, "velocity": 64}]}]}