{"metadata": {"schema_version": "0.1", "title": "ICH SCHWING MEIN HORN INS JAMMERTHAL", "source_format": "abc"}, "resolution": 24, "tempos": [{"time": 0, "qpm": 120.0}], "key_signatures": [{"time": 0, "root": 0, "mode": "major", "fifths": 0}], "time_signatures": [{"time": 0, "numerator": 2, "denominator": 2}], "beats": [{"time": 0, "is_downbeat": true}, {"time": 48, "is_downbeat": false}, {"time": 96, "is_downbeat": true}, {"time": 144, "is_downbeat": false}, {"time": 192, "is_downbeat": true}, {"time": 240, "is_downbeat": false}, {"time": 288, "is_downbeat": true}, {"time": 336, "is_downbeat": false}, {"time": 384, "is_downbeat": true}, {"time": 432, "is_downbeat": false}, {"time": 480, "is_downbeat": true}, {"time": 528, "is_downbeat": false}, {"time": 576, "is_downbeat": true}, {"time": 624, "is_downbeat": false}, {"time": 672, "is_downbeat": true}, {"time": 720, "is_downbeat": false}, {"time": 768, "is_downbeat": true}, {"time": 816, "is_downbeat": false}, {"time": 864, "is_downbeat": true}, {"time": 912, "is_downbeat": false}, {"time": 960, "is_downbeat": true}, {"time": 1008, "is_downbeat": false}, {"time": 1056, "is_downbeat": true}, {"time": 1104, "is_downbeat": false}, {"time": 1152, "is_downbeat": true}, {"time": 1200, "is_downbeat": false}, {"time": 1248, "is_downbeat": true}, {"time": 1296, "is_downbeat": false}, {"time": 1344, "is_downbeat": true}, {"time": 1392, "is_downbeat": false}, {"time": 1440, "is_downbeat": true}, {"time": 1488, "is_downbeat": false}, {"time": 1536, "is_downbeat": true}, {"time": 1584, "is_downbeat": false}, {"time": 1632, "is_downbeat": true}, {"time": 1680, "is_downbeat": false}, {"time": 1728, "is_downbeat": true}, {"time": 1776, "is_downbeat": false}, {"time": 1824, "is_downbeat": true}, {"time": 1872, "is_downbeat": false}, {"time": 1920, "is_downbeat": true}, {"time": 1968, "is_downbeat": false}, {"time": 2016, "is_downbeat": true}, {"time": 2064, "is_downbeat": false}, {"time": 2112, "is_downbeat": true}, {"time": 2160, "is_downbeat": false}, {"time": 2208, "is_downbeat": true}, {"time": 2256, "is_downbeat": false}, {"time": 2304, "is_downbeat": true}, {"time": 2352, "is_downbeat": false}, {"time": 2400, "is_downbeat": true}, {"time": 2448, "is_downbeat": false}, {"time": 2496, "is_downbeat": true}, {"time": 2544, "is_downbeat": false}, {"time": 2592, "is_downbeat": true}, {"time": 2640, "is_downbeat": false}, {"time": 2688, "is_downbeat": true}, {"time": 2736, "is_downbeat": false}, {"time": 2784, "is_downbeat": true}, {"time": 2832, "is_downbeat": false}, {"time": 2880, "is_downbeat": true}, {"time": 2928, "is_downbeat": false}], "tracks": [{"program": 0, "is_drum": false, "notes": [{"time": 0, "pitch": 60, "duration": 48, "velocity": 64}, {"time": 48, "pitch": 64, "duration": 24, "velocity": 64}, {"time": 72, "pitch": 64, "duration": 24, "velocity": 64}, {"time": 96, "pitch": 62, "duration": 48, "velocity": 64}, {"time": 144, "pitch": 59, "duration": 24, "velocity": 64}, {"time": 168, "pitch": 60, "duration": 24, "velocity": 64}, {"time": 192, "pitch": 59, "duration": 24, "velocity": 64}, {"time": 216, "pitch": 55, "duration": 24, "velocity": 64}, {"time": 240, "pitch": 57, "duration": 24, "velocity": 64}, {"time": 264, "pitch": 57, "duration": 24, "velocity": 64}, {"time": 288, "pitch": 55, "duration": 48, "velocity": 64}, {"time": 360, "pitch": 55, "duration": 24, "velocity": 64}, {"time": 384, "pitch": 60, "duration": 24, "velocity": 64}, {"time": 408, "pitch": 62, "duration": 24, "velocity": 64}, {"time": 432, "pitch": 64, "duration": 48, "velocity": 64}, {"time": 480, "pitch": 62, "duration": 24, "velocity": 64}, {"time": 504, "pitch": 67, "duration": 36, "velocity": 64}, {"time": 540, "pitch": 65, "duration": 12, "velocity": 64}, {"time": 552, "pitch": 64, "duration": 12, "velocity": 64}, {"time": 564, "pitch": 62, "duration": 12, "velocity": 64}, {"time": 576, "pitch": 60, "duration": 24, "velocity": 64}, {"time": 600, "pitch": 62, "duration": 24, "velocity": 64}, {"time": 624, "pitch": 60, "duration": 48, "velocity": 64}, {"time": 672, "pitch": 60, "duration": 48, "velocity": 64}, {"time": 720, "pitch": 64, "duration": 24, "velocity": 64}, {"time": 744, "pitch": 64, "duration": 24, "velocity": 64}, {"time": 768, "pitch": 62, "duration": 48, "velocity": 64}, {"time": 816, "pitch": 59, "duration": 24, "velocity": 64}, {"time": 840, "pitch": 60, "duration": 24, "velocity": 64}, {"time": 864, "pitch": 59, "duration": 24, "velocity": 64}, {"time": 888, "pitch": 55, "duration": 24, "velocity": 64}, {"time": 912, "pitch": 57, "duration": 24, "velocity": 64}, {"time": 936, "pitch": 57, "duration": 24, "velocity": 64}, {"time": 960, "pitch": 55, "duration": 48, "velocity": 64}, {"time": 1032, "pitch": 55, "duration": 24, "velocity": 64}, {"time": 1056, "pitch": 60, "duration": 24, "velocity": 64}, {"time": 1080, "pitch": 62, "duration": 24, "velocity": 64}, {"time": 1104, "pitch": 64, "duration": 48, "velocity": 64}, {"time": 1152, "pitch": 62, "duration": 24, "velocity": 64}, {"time": 1176, "pitch": 67, "duration": 36, "velocity": 64}, {"time": 1212, "pitch": 65, "duration": 12, "velocity": 64}, {"time": 1224, "pitch": 64, "duration": 12, "velocity": 64}, {"time": 1236, "pitch": 62, "duration": 12, "velocity": 64}, {"time": 1248, "pitch": 60, "duration": 24, "velocity": 64}, {"time": 1272, "pitch": 62, "duration": 24, "velocity": 64}, {"time": 1296, "pitch": 60, "duration": 24, "velocity": 64}, {"time": 1320, "pitch": 64, "duration": 24, "velocity": 64}, {"time": 1344, "pitch": 64, "duration": 24, "velocity": 64}, {"time": 1368, "pitch": 64, "duration": 24, "velocity": 64}, {"time": 1392, "pitch": 60, "duration": 24, "velocity": 64}, {"time": 1416, "pitch": 60, "duration": 24, "velocity": 64}, {"time": 1440, "pitch": 65, "duration": 48, "velocity": 64}, {"time": 1488, "pitch": 64, "duration": 48, "velocity": 64}, {"time": 1536, "pitch": 62, "duration": 48, "velocity": 64}, {"time": 1608, "pitch": 62, "duration": 24, "velocity": 64}, {"time": 1632, "pitch": 64, "duration": 48, "velocity": 64}, {"time": 1680, "pitch": 65, "duration": 48, "velocity": 64}, {"time": 1728, "pitch": 67, "duration": 72, "velocity": 64}, {"time": 1800, "pitch": 67, "duration": 24, "velocity": 64}, {"time": 1824, "pitch": 69, "duration": 24, "velocity": 64}, {"time": 1848, "pitch": 64, "duration": 24, "velocity": 64}, {"time": 1872, "pitch": 65, "duration": 48, "velocity": 64}, {"time": 1920, "pitch": 64, "duration": 72, "velocity": 64}, {"time": 1992, "pitch": 64, "duration": 24, "velocity": 64}, {"time": 2016, "pitch": 64, "duration": 48, "velocity": 64}, {"time": 2064, "pitch": 64, "duration": 48, "velocity": 64}, {"time": 2112, "pitch": 62, "duration": 72, "velocity": 64}, {"time": 2184, "pitch": 60, "duration": 24, "velocity": 64}, {"time": 2208, "pitch": 62, "duration": 24, "velocity": 64}, {"time": 2232, "pitch": 59, "duration": 24, "velocity": 64}, {"time": 2256, "pitch": 57, "duration": 48, "velocity": 64}, {"time": 2304, "pitch": 55, "duration": 72, "velocity": 64}, {"time": 2376, "pitch": 67, "duration": 24, "velocity": 64}, {"time": 2400, "pitch": 64, "duration": 48, "velocity": 64}, {"time": 2448, "pitch": 64, "duration": 48, "velocity": 64}, {"time": 2496, "pitch": 60, "duration": 48, "velocity": 64}, {"time": 2544, "pitch": 60, "duration": 48, "velocity": 64}, {"time": 2592, "pitch": 65, "duration": 48, "velocity": 64}, {"time": 2640, "pitch": 62, "duration": 24, "velocity": 64}, {"time": 2664, "pitch": 64, "duration": 24, "velocity": 64}, {"time": 2688, "pitch": 65, "duration": 24, "velocity": 64}, {"time": 2712, "pitch": 67, "duration": 48, "velocity": 64}, {"time": 2760, "pitch": 65, "duration": 24, "velocity": 64}, {"time": 2784, "pitch": 67, "duration": 24, "velocity": 64}, {"time": 2808, "pitch": 60, "duration": 24, "velocity": 64}, {"time": 2832, "pitch": 62, "duration": 48, "velocity": 64}, {"time": 2880, "pitch": 60, "duration": 96, "velocity": 64}]}]}