{"metadata": {"schema_version": "0.1", "title": "LIEBEN BRUEDER WO KOMMT IHR HER", "source_format": "abc"}, "resolution": 24, "tempos": [{"time": 0, "qpm": 120.0}], "key_signatures": [{"time": 0, "root": 9, "mode": "major", "fifths": 3}], "time_signatures": [{"time": 0, "numerator": 4, "denominator": 4}, {"time": 360, "numerator": 1, "denominator": 4}, {"time": 456, "numerator": 5, "denominator": 4}, {"time": 648, "numerator": 4, "denominator": 4}, {"time": 744, "numerator": 3, "denominator": 4}], "beats": [{"time": 0, "is_downbeat": true}, {"time": 24, "is_downbeat": true}, {"time": 48, "is_downbeat": true}, {"time": 72, "is_downbeat": true}, {"time": 96, "is_downbeat": true}, {"time": 120, "is_downbeat": true}, {"time": 144, "is_downbeat": true}, {"time": 168, "is_downbeat": true}, {"time": 192, "is_downbeat": true}, {"time": 216, "is_downbeat": true}, {"time": 240, "is_downbeat": true}, {"time": 264, "is_downbeat": true}, {"time": 288, "is_downbeat": true}, {"time": 312, "is_downbeat": true}, {"time": 336, "is_downbeat": true}, {"time": 360, "is_downbeat": true}, {"time": 384, "is_downbeat": true}, {"time": 408, "is_downbeat": false}, {"time": 432, "is_downbeat": false}, {"time": 456, "is_downbeat": true}, {"time": 480, "is_downbeat": false}, {"time": 504, "is_downbeat": false}, {"time": 528, "is_downbeat": false}, {"time": 552, "is_downbeat": true}, {"time": 576, "is_downbeat": true}, {"time": 600, "is_downbeat": false}, {"time": 624, "is_downbeat": false}, {"time": 648, "is_downbeat": true}, {"time": 672, "is_downbeat": false}, {"time": 696, "is_downbeat": false}, {"time": 720, "is_downbeat": true}, {"time": 744, "is_downbeat": true}, {"time": 768, "is_downbeat": false}, {"time": 792, "is_downbeat": false}, {"time": 816, "is_downbeat": true}, {"time": 840, "is_downbeat": false}, {"time": 864, "is_downbeat": false}, {"time": 888, "is_downbeat": true}, {"time": 912, "is_downbeat": false}, {"time": 936, "is_downbeat": false}], "tracks": [{"program": 0, "is_drum": false, "notes": [{"time": 0, "pitch": 64, "duration": 12, "velocity": 64}, {"time": 12, "pitch": 69, "duration": 12, "velocity": 64}, {"time": 24, "pitch": 69, "duration": 12, "velocity": 64}, {"time": 36, "pitch": 68, "duration": 6, "velocity": 64}, {"time": 42, "pitch": 69, "duration": 6, "velocity": 64}, {"time": 48, "pitch": 71, "duration": 6, "velocity": 64}, {"time": 54, "pitch": 69, "duration": 6, "velocity": 64}, {"time": 60, "pitch": 68, "duration": 6, "velocity": 64}, {"time": 66, "pitch": 66, "duration": 6, "velocity": 64}, {"time": 72, "pitch": 66, "duration": 12, "velocity": 64}, {"time": 84, "pitch": 66, "duration": 12, "velocity": 64}, {"time": 96, "pitch": 64, "duration": 24, "velocity": 64}, {"time": 144, "pitch": 69, "duration": 12, "velocity": 64}, {"time": 156, "pitch": 73, "duration": 12, "velocity": 64}, {"time": 168, "pitch": 73, "duration": 12, "velocity": 64}, {"time": 180, "pitch": 71, "duration": 6, "velocity": 64}, {"time": 186, "pitch": 73, "duration": 6, "velocity": 64}, {"time": 192, "pitch": 74, "duration": 12, "velocity": 64}, {"time": 204, "pitch": 71, "duration": 12, "velocity": 64}, {"time": 216, "pitch": 71, "duration": 12, "velocity": 64}, {"time": 228, "pitch": 69, "duration": 12, "velocity": 64}, {"time": 240, "pitch": 69, "duration": 24, "velocity": 64}, {"time": 288, "pitch": 64, "duration": 24, "velocity": 64}, {"time": 312, "pitch": 64, "duration": 24, "velocity": 64}, {"time": 336, "pitch": 64, "duration": 24, "velocity": 64}, {"time": 360, "pitch": 69, "duration": 24, "velocity": 64}, {"time": 384, "pitch": 66, "duration": 24, "velocity": 64}, {"time": 408, "pitch": 66, "duration": 24, "velocity": 64}, {"time": 432, "pitch": 66, "duration": 24, "velocity": 64}, {"time": 456, "pitch": 71, "duration": 24, "velocity": 64}, {"time": 480, "pitch": 68, "duration": 24, "velocity": 64}, {"time": 504, "pitch": 68, "duration": 24, "velocity": 64}, {"time": 528, "pitch": 68, "duration": 24, "velocity": 64}, {"time": 552, "pitch": 71, "duration": 24, "velocity": 64}, {"time": 576, "pitch": 71, "duration": 24, "velocity": 64}, {"time": 600, "pitch": 69, "duration": 24, "velocity": 64}, {"time": 624, "pitch": 69, "duration": 24, "velocity": 64}, {"time": 648, "pitch": 69, "duration": 12, "velocity": 64}, {"time": 660, "pitch": 69, "duration": 12, "velocity": 64}, {"time": 672, "pitch": 64, "duration": 12, "velocity": 64}, {"time": 684, "pitch": 69, "duration": 12, "velocity": 64}, {"time": 696, "pitch": 69, "duration": 12, "velocity": 64}, {"time": 708, "pitch": 68, "duration": 6, "velocity": 64}, {"time": 714, "pitch": 69, "duration": 6, "velocity": 64}, {"time": 720, "pitch": 71, "duration": 6, "velocity": 64}, {"time": 726, "pitch": 69, "duration": 6, "velocity": 64}, {"time": 732, "pitch": 68, "duration": 6, "velocity": 64}, {"time": 738, "pitch": 66, "duration": 6, "velocity": 64}, {"time": 744, "pitch": 66, "duration": 12, "velocity": 64}, {"time": 756, "pitch": 66, "duration": 12, "velocity": 64}, {"time": 768, "pitch": 64, "duration": 24, "velocity": 64}, {"time": 816, "pitch": 73, "duration": 12, "velocity": 64}, {"time": 828, "pitch": 73, "duration": 12, "velocity": 64}, {"time": 840, "pitch": 73, "duration": 12, "velocity": 64}, {"time": 852, "pitch": 71, "duration": 6, "velocity": 64}, {"time": 858, "pitch": 73, "duration": 6, "velocity": 64}, {"time": 864, "pitch": 74, "duration": 12, "velocity": 64}, {"time": 876, "pitch": 68, "duration": 12, "velocity": 64}, {"time": 888, "pitch": 71, "duration": 12, "velocity": 64}, {"time": 900, "pitch": 69, "duration": 12, "velocity": 64}, {"time": 912, "pitch": 69, "duration": 24, "velocity": 64}]}]}