{"metadata": {"schema_version": "0.1", "title": "NICHTS KANN AUF ERDEN VERGLICHEN WERDEN  DES SCHAEFERS LUST", "source_format": "abc"}, "resolution": 24, "tempos": [{"time": 0, "qpm": 120.0}], "key_signatures": [{"time": 0, "root": 10, "mode": "major", "fifths": -2}], "time_signatures": [{"time": 0, "numerator": 3, "denominator": 4}], "beats": [{"time": 0, "is_downbeat": true}, {"time": 24, "is_downbeat": false}, {"time": 36, "is_downbeat": true}, {"time": 60, "is_downbeat": false}, {"time": 84, "is_downbeat": false}, {"time": 108, "is_downbeat": true}, {"time": 132, "is_downbeat": false}, {"time": 156, "is_downbeat": false}, {"time": 180, "is_downbeat": true}, {"time": 204, "is_downbeat": false}, {"time": 228, "is_downbeat": false}, {"time": 252, "is_downbeat": true}, {"time": 276, "is_downbeat": false}, {"time": 300, "is_downbeat": false}, {"time": 324, "is_downbeat": true}, {"time": 348, "is_downbeat": false}, {"time": 372, "is_downbeat": false}, {"time": 396, "is_downbeat": true}, {"time": 420, "is_downbeat": false}, {"time": 444, "is_downbeat": false}, {"time": 468, "is_downbeat": true}, {"time": 492, "is_downbeat": false}, {"time": 516, "is_downbeat": false}, {"time": 540, "is_downbeat": true}, {"time": 564, "is_downbeat": false}, {"time": 588, "is_downbeat": false}, {"time": 612, "is_downbeat": true}, {"time": 636, "is_downbeat": false}, {"time": 660, "is_downbeat": false}, {"time": 684, "is_downbeat": true}, {"time": 708, "is_downbeat": false}, {"time": 732, "is_downbeat": false}, {"time": 756, "is_downbeat": true}, {"time": 780, "is_downbeat": false}, {"time": 804, "is_downbeat": false}, {"time": 828, "is_downbeat": true}, {"time": 852, "is_downbeat": false}, {"time": 876, "is_downbeat": false}, {"time": 900, "is_downbeat": true}, {"time": 924, "is_downbeat": false}, {"time": 948, "is_downbeat": false}], "tracks": [{"program": 0, "is_drum": false, "notes": [{"time": 0, "pitch": 65, "duration": 12, "velocity": 64}, {"time": 12, "pitch": 70, "duration": 12, "velocity": 64}, {"time": 24, "pitch": 74, "duration": 12, "velocity": 64}, {"time": 36, "pitch": 72, "duration": 18, "velocity": 64}, {"time": 54, "pitch": 74, "duration": 6, "velocity": 64}, {"time": 60, "pitch": 70, "duration": 12, "velocity": 64}, {"time": 72, "pitch": 70, "duration": 12, "velocity": 64}, {"time": 84, "pitch": 74, "duration": 12, "velocity": 64}, {"time": 96, "pitch": 77, "duration": 12, "velocity": 64}, {"time": 108, "pitch": 75, "duration": 18, "velocity": 64}, {"time": 126, "pitch": 77, "duration": 6, "velocity": 64}, {"time": 132, "pitch": 74, "duration": 12, "velocity": 64}, {"time": 144, "pitch": 77, "duration": 12, "velocity": 64}, {"time": 156, "pitch": 79, "duration": 6, "velocity": 64}, {"time": 162, "pitch": 77, "duration": 6, "velocity": 64}, {"time": 168, "pitch": 75, "duration": 6, "velocity": 64}, {"time": 174, "pitch": 74, "duration": 6, "velocity": 64}, {"time": 180, "pitch": 72, "duration": 24, "velocity": 64}, {"time": 216, "pitch": 77, "duration": 12, "velocity": 64}, {"time": 228, "pitch": 79, "duration": 12, "velocity": 64}, {"time": 240, "pitch": 77, "duration": 12, "velocity": 64}, {"time": 252, "pitch": 75, "duration": 18, "velocity": 64}, {"time": 270, "pitch": 74, "duration": 6, "velocity": 64}, {"time": 276, "pitch": 72, "duration": 12, "velocity": 64}, {"time": 288, "pitch": 75, "duration": 12, "velocity": 64}, {"time": 300, "pitch": 77, "duration": 12, "velocity": 64}, {"time": 312, "pitch": 75, "duration": 12, "velocity": 64}, {"time": 324, "pitch": 74, "duration": 18, "velocity": 64}, {"time": 342, "pitch": 72, "duration": 6, "velocity": 64}, {"time": 348, "pitch": 70, "duration": 12, "velocity": 64}, {"time": 360, "pitch": 70, "duration": 12, "velocity": 64}, {"time": 372, "pitch": 75, "duration": 12, "velocity": 64}, {"time": 384, "pitch": 79, "duration": 12, "velocity": 64}, {"time": 396, "pitch": 77, "duration": 12, "velocity": 64}, {"time": 408, "pitch": 82, "duration": 12, "velocity": 64}, {"time": 420, "pitch": 77, "duration": 12, "velocity": 64}, {"time": 432, "pitch": 74, "duration": 12, "velocity": 64}, {"time": 444, "pitch": 75, "duration": 12, "velocity": 64}, {"time": 456, "pitch": 79, "duration": 12, "velocity": 64}, {"time": 468, "pitch": 77, "duration": 12, "velocity": 64}, {"time": 480, "pitch": 82, "duration": 12, "velocity": 64}, {"time": 492, "pitch": 77, "duration": 12, "velocity": 64}, {"time": 504, "pitch": 77, "duration": 6, "velocity": 64}, {"time": 510, "pitch": 75, "duration": 6, "velocity": 64}, {"time": 516, "pitch": 74, "duration": 12, "velocity": 64}, {"time": 528, "pitch": 72, "duration": 12, "velocity": 64}, {"time": 540, "pitch": 70, "duration": 24, "velocity": 64}, {"time": 576, "pitch": 77, "duration": 12, "velocity": 64}, {"time": 588, "pitch": 79, "duration": 12, "velocity": 64}, {"time": 600, "pitch": 77, "duration": 12, "velocity": 64}, {"time": 612, "pitch": 75, "duration": 18, "velocity": 64}, {"time": 630, "pitch": 74, "duration": 6, "velocity": 64}, {"time": 636, "pitch": 72, "duration": 12, "velocity": 64}, {"time": 648, "pitch": 75, "duration": 12, "velocity": 64}, {"time": 660, "pitch": 77, "duration": 12, "velocity": 64}, {"time": 672, "pitch": 75, "duration": 12, "velocity": 64}, {"time": 684, "pitch": 74, "duration": 18, "velocity": 64}, {"time": 702, "pitch": 72, "duration": 6, "velocity": 64}, {"time": 708, "pitch": 70, "duration": 12, "velocity": 64}, {"time": 720, "pitch": 70, "duration": 12, "velocity": 64}, {"time": 732, "pitch": 75, "duration": 12, "velocity": 64}, {"time": 744, "pitch": 79, "duration": 12, "velocity": 64}, {"time": 756, "pitch": 77, "duration": 12, "velocity": 64}, {"time": 768, "pitch": 82, "duration": 12, "velocity": 64}, {"time": 780, "pitch": 77, "duration": 12, "velocity": 64}, {"time": 792, "pitch": 74, "duration": 12, "velocity": 64}, {"time": 804, "pitch": 75, "duration": 12, "velocity": 64}, {"time": 816, "pitch": 79, "duration": 12, "velocity": 64}, {"time": 828, "pitch": 77, "duration": 12, "velocity": 64}, {"time": 840, "pitch": 82, "duration": 12, "velocity": 64}, {"time": 852, "pitch": 77, "duration": 12, "velocity": 64}, {"time": 864, "pitch": 77, "duration": 6, "velocity": 64}, {"time": 870, "pitch": 75, "duration": 6, "velocity": 64}, {"time": 876, "pitch": 74, "duration": 12, "velocity": 64}, {"time": 888, "pitch": 72, "duration": 12, "velocity": 64}, {"time": 900, "pitch": 70, "duration": 24, "velocity": 64}]}]}