{"metadata": {"schema_version": "0.1", "title": "\"Die Schwestern\"", "source_format": "abc"}, "resolution": 24, "tempos": [{"time": 0, "qpm": 120.0}], "key_signatures": [{"time": 0, "root": 0, "mode": "major", "fifths": 0}], "time_signatures": [{"time": 0, "numerator": 3, "denominator": 2}], "beats": [{"time": 0, "is_downbeat": true}, {"time": 24, "is_downbeat": true}, {"time": 72, "is_downbeat": false}, {"time": 120, "is_downbeat": false}, {"time": 168, "is_downbeat": true}, {"time": 216, "is_downbeat": false}, {"time": 264, "is_downbeat": false}, {"time": 312, "is_downbeat": true}, {"time": 360, "is_downbeat": false}, {"time": 408, "is_downbeat": false}, {"time": 456, "is_downbeat": true}, {"time": 504, "is_downbeat": false}, {"time": 552, "is_downbeat": false}, {"time": 600, "is_downbeat": true}, {"time": 648, "is_downbeat": false}, {"time": 696, "is_downbeat": false}, {"time": 744, "is_downbeat": true}, {"time": 792, "is_downbeat": false}, {"time": 840, "is_downbeat": false}, {"time": 888, "is_downbeat": true}, {"time": 936, "is_downbeat": false}, {"time": 984, "is_downbeat": false}, {"time": 1032, "is_downbeat": true}, {"time": 1080, "is_downbeat": false}, {"time": 1128, "is_downbeat": false}], "tracks": [{"program": 0, "is_drum": false, "notes": [{"time": 0, "pitch": 55, "duration": 24, "velocity": 64}, {"time": 24, "pitch": 55, "duration": 48, "velocity": 64}, {"time": 72, "pitch": 60, "duration": 24, "velocity": 64}, {"time": 96, "pitch": 60, "duration": 24, "velocity": 64}, {"time": 120, "pitch": 59, "duration": 24, "velocity": 64}, {"time": 144, "pitch": 60, "duration": 24, "velocity": 64}, {"time": 168, "pitch": 62, "duration": 48, "velocity": 64}, {"time": 216, "pitch": 63, "duration": 12, "velocity": 64}, {"time": 228, "pitch": 62, "duration": 12, "velocity": 64}, {"time": 240, "pitch": 60, "duration": 48, "velocity": 64}, {"time": 288, "pitch": 62, "duration": 12, "velocity": 64}, {"time": 300, "pitch": 65, "duration": 12, "velocity": 64}, {"time": 312, "pitch": 63, "duration": 24, "velocity": 64}, {"time": 336, "pitch": 62, "duration": 24, "velocity": 64}, {"time": 360, "pitch": 60, "duration": 24, "velocity": 64}, {"time": 384, "pitch": 59, "duration": 24, "velocity": 64}, {"time": 408, "pitch": 57, "duration": 24, "velocity": 64}, {"time": 432, "pitch": 55, "duration": 24, "velocity": 64}, {"time": 456, "pitch": 60, "duration": 36, "velocity": 64}, {"time": 492, "pitch": 62, "duration": 12, "velocity": 64}, {"time": 504, "pitch": 63, "duration": 24, "velocity": 64}, {"time": 528, "pitch": 62, "duration": 48, "velocity": 64}, {"time": 576, "pitch": 62, "duration": 24, "velocity": 64}, {"time": 600, "pitch": 62, "duration": 24, "velocity": 64}, {"time": 624, "pitch": 60, "duration": 24, "velocity": 64}, {"time": 648, "pitch": 62, "duration": 12, "velocity": 64}, {"time": 660, "pitch": 63, "duration": 12, "velocity": 64}, {"time": 672, "pitch": 65, "duration": 24, "velocity": 64}, {"time": 696, "pitch": 64, "duration": 24, "velocity": 64}, {"time": 720, "pitch": 62, "duration": 24, "velocity": 64}, {"time": 744, "pitch": 63, "duration": 24, "velocity": 64}, {"time": 768, "pitch": 62, "duration": 24, "velocity": 64}, {"time": 792, "pitch": 60, "duration": 24, "velocity": 64}, {"time": 816, "pitch": 60, "duration": 24, "velocity": 64}, {"time": 840, "pitch": 59, "duration": 24, "velocity": 64}, {"time": 864, "pitch": 57, "duration": 24, "velocity": 64}, {"time": 888, "pitch": 55, "duration": 24, "velocity": 64}, {"time": 912, "pitch": 57, "duration": 24, "velocity": 64}, {"time": 936, "pitch": 59, "duration": 24, "velocity": 64}, {"time": 960, "pitch": 60, "duration": 24, "velocity": 64}, {"time": 984, "pitch": 62, "duration": 24, "velocity": 64}, {"time": 1008, "pitch": 63, "duration": 24, "velocity": 64}, {"time": 1032, "pitch": 62, "duration": 72, "velocity": 64}, {"time": 1104, "pitch": 60, "duration": 24, "velocity": 64}]}]}