{"metadata": {"schema_version": "0.1", "title": "\"Die Baeuerin und der Ritter\"", "source_format": "abc"}, "resolution": 24, "tempos": [{"time": 0, "qpm": 120.0}], "key_signatures": [{"time": 0, "root": 2, "mode": "major", "fifths": 2}], "time_signatures": [{"time": 0, "numerator": 4, "denominator": 4}, {"time": 900, "numerator": 1, "denominator": 4}, {"time": 1044, "numerator": 1, "denominator": 4}, {"time": 1188, "numerator": 1, "denominator": 4}, {"time": 1332, "numerator": 1, "denominator": 4}, {"time": 1476, "numerator": 1, "denominator": 4}, {"time": 1620, "numerator": 1, "denominator": 4}, {"time": 1764, "numerator": 1, "denominator": 4}, {"time": 1908, "numerator": 1, "denominator": 4}, {"time": 1932, "numerator": 2, "denominator": 4}], "beats": [{"time": 0, "is_downbeat": true}, {"time": 12, "is_downbeat": true}, {"time": 36, "is_downbeat": true}, {"time": 60, "is_downbeat": true}, {"time": 84, "is_downbeat": true}, {"time": 108, "is_downbeat": true}, {"time": 132, "is_downbeat": true}, {"time": 156, "is_downbeat": true}, {"time": 180, "is_downbeat": true}, {"time": 204, "is_downbeat": true}, {"time": 228, "is_downbeat": true}, {"time": 252, "is_downbeat": true}, {"time": 276, "is_downbeat": true}, {"time": 300, "is_downbeat": true}, {"time": 324, "is_downbeat": true}, {"time": 348, "is_downbeat": true}, {"time": 372, "is_downbeat": true}, {"time": 396, "is_downbeat": true}, {"time": 420, "is_downbeat": true}, {"time": 444, "is_downbeat": true}, {"time": 468, "is_downbeat": true}, {"time": 492, "is_downbeat": true}, {"time": 516, "is_downbeat": true}, {"time": 540, "is_downbeat": true}, {"time": 564, "is_downbeat": true}, {"time": 588, "is_downbeat": true}, {"time": 612, "is_downbeat": true}, {"time": 636, "is_downbeat": true}, {"time": 660, "is_downbeat": true}, {"time": 684, "is_downbeat": true}, {"time": 708, "is_downbeat": true}, {"time": 732, "is_downbeat": true}, {"time": 756, "is_downbeat": true}, {"time": 780, "is_downbeat": true}, {"time": 804, "is_downbeat": true}, {"time": 828, "is_downbeat": true}, {"time": 852, "is_downbeat": true}, {"time": 876, "is_downbeat": true}, {"time": 900, "is_downbeat": true}, {"time": 924, "is_downbeat": true}, {"time": 948, "is_downbeat": true}, {"time": 972, "is_downbeat": true}, {"time": 996, "is_downbeat": true}, {"time": 1020, "is_downbeat": true}, {"time": 1044, "is_downbeat": true}, {"time": 1068, "is_downbeat": true}, {"time": 1092, "is_downbeat": true}, {"time": 1116, "is_downbeat": true}, {"time": 1140, "is_downbeat": true}, {"time": 1164, "is_downbeat": true}, {"time": 1188, "is_downbeat": true}, {"time": 1212, "is_downbeat": true}, {"time": 1236, "is_downbeat": true}, {"time": 1260, "is_downbeat": true}, {"time": 1284, "is_downbeat": true}, {"time": 1308, "is_downbeat": true}, {"time": 1332, "is_downbeat": true}, {"time": 1356, "is_downbeat": true}, {"time": 1380, "is_downbeat": true}, {"time": 1404, "is_downbeat": true}, {"time": 1428, "is_downbeat": true}, {"time": 1452, "is_downbeat": true}, {"time": 1476, "is_downbeat": true}, {"time": 1500, "is_downbeat": true}, {"time": 1524, "is_downbeat": true}, {"time": 1548, "is_downbeat": true}, {"time": 1572, "is_downbeat": true}, {"time": 1596, "is_downbeat": true}, {"time": 1620, "is_downbeat": true}, {"time": 1644, "is_downbeat": true}, {"time": 1668, "is_downbeat": true}, {"time": 1692, "is_downbeat": true}, {"time": 1716, "is_downbeat": true}, {"time": 1740, "is_downbeat": true}, {"time": 1764, "is_downbeat": true}, {"time": 1788, "is_downbeat": true}, {"time": 1812, "is_downbeat": true}, {"time": 1836, "is_downbeat": true}, {"time": 1860, "is_downbeat": true}, {"time": 1884, "is_downbeat": true}, {"time": 1908, "is_downbeat": true}, {"time": 1932, "is_downbeat": true}, {"time": 1956, "is_downbeat": false}], "tracks": [{"program": 0, "is_drum": false, "notes": [{"time": 0, "pitch": 57, "duration": 12, "velocity": 64}, {"time": 12, "pitch": 62, "duration": 12, "velocity": 64}, {"time": 24, "pitch": 57, "duration": 12, "velocity": 64}, {"time": 36, "pitch": 59, "duration": 12, "velocity": 64}, {"time": 48, "pitch": 61, "duration": 12, "velocity": 64}, {"time": 60, "pitch": 62, "duration": 24, "velocity": 64}, {"time": 84, "pitch": 62, "duration": 12, "velocity": 64}, {"time": 96, "pitch": 66, "duration": 12, "velocity": 64}, {"time": 108, "pitch": 64, "duration": 18, "velocity": 64}, {"time": 126, "pitch": 62, "duration": 6, "velocity": 64}, {"time": 132, "pitch": 61, "duration": 12, "velocity": 64}, {"time": 144, "pitch": 59, "duration": 12, "velocity": 64}, {"time": 156, "pitch": 57, "duration": 24, "velocity": 64}, {"time": 192, "pitch": 57, "duration": 12, "velocity": 64}, {"time": 204, "pitch": 62, "duration": 12, "velocity": 64}, {"time": 216, "pitch": 57, "duration": 12, "velocity": 64}, {"time": 228, "pitch": 59, "duration": 12, "velocity": 64}, {"time": 240, "pitch": 61, "duration": 12, "velocity": 64}, {"time": 252, "pitch": 62, "duration": 24, "velocity": 64}, {"time": 276, "pitch": 62, "duration": 12, "velocity": 64}, {"time": 288, "pitch": 66, "duration": 12, "velocity": 64}, {"time": 300, "pitch": 64, "duration": 18, "velocity": 64}, {"time": 318, "pitch": 62, "duration": 6, "velocity": 64}, {"time": 324, "pitch": 61, "duration": 12, "velocity": 64}, {"time": 336, "pitch": 59, "duration": 12, "velocity": 64}, {"time": 348, "pitch": 57, "duration": 24, "velocity": 64}, {"time": 384, "pitch": 64, "duration": 12, "velocity": 64}, {"time": 396, "pitch": 64, "duration": 12, "velocity": 64}, {"time": 408, "pitch": 62, "duration": 12, "velocity": 64}, {"time": 420, "pitch": 61, "duration": 12, "velocity": 64}, {"time": 432, "pitch": 59, "duration": 12, "velocity": 64}, {"time": 444, "pitch": 62, "duration": 12, "velocity": 64}, {"time": 456, "pitch": 61, "duration": 12, "velocity": 64}, {"time": 468, "pitch": 59, "duration": 12, "velocity": 64}, {"time": 480, "pitch": 64, "duration": 12, "velocity": 64}, {"time": 492, "pitch": 64, "duration": 12, "velocity": 64}, {"time": 504, "pitch": 57, "duration": 12, "velocity": 64}, {"time": 516, "pitch": 59, "duration": 12, "velocity": 64}, {"time": 528, "pitch": 56, "duration": 12, "velocity": 64}, {"time": 540, "pitch": 57, "duration": 24, "velocity": 64}, {"time": 576, "pitch": 57, "duration": 12, "velocity": 64}, {"time": 588, "pitch": 57, "duration": 12, "velocity": 64}, {"time": 600, "pitch": 62, "duration": 12, "velocity": 64}, {"time": 612, "pitch": 62, "duration": 12, "velocity": 64}, {"time": 624, "pitch": 64, "duration": 12, "velocity": 64}, {"time": 636, "pitch": 66, "duration": 12, "velocity": 64}, {"time": 648, "pitch": 62, "duration": 12, "velocity": 64}, {"time": 672, "pitch": 64, "duration": 12, "velocity": 64}, {"time": 684, "pitch": 66, "duration": 12, "velocity": 64}, {"time": 696, "pitch": 62, "duration": 24, "velocity": 64}, {"time": 720, "pitch": 62, "duration": 12, "velocity": 64}, {"time": 732, "pitch": 59, "duration": 12, "velocity": 64}, {"time": 744, "pitch": 64, "duration": 12, "velocity": 64}, {"time": 756, "pitch": 62, "duration": 12, "velocity": 64}, {"time": 768, "pitch": 61, "duration": 12, "velocity": 64}, {"time": 780, "pitch": 62, "duration": 24, "velocity": 64}, {"time": 828, "pitch": 62, "duration": 24, "velocity": 64}, {"time": 852, "pitch": 60, "duration": 24, "velocity": 64}, {"time": 876, "pitch": 62, "duration": 12, "velocity": 64}, {"time": 888, "pitch": 59, "duration": 12, "velocity": 64}, {"time": 900, "pitch": 55, "duration": 24, "velocity": 64}, {"time": 924, "pitch": 64, "duration": 12, "velocity": 64}, {"time": 936, "pitch": 67, "duration": 12, "velocity": 64}, {"time": 948, "pitch": 66, "duration": 12, "velocity": 64}, {"time": 960, "pitch": 64, "duration": 12, "velocity": 64}, {"time": 972, "pitch": 62, "duration": 24, "velocity": 64}, {"time": 996, "pitch": 60, "duration": 24, "velocity": 64}, {"time": 1020, "pitch": 62, "duration": 12, "velocity": 64}, {"time": 1032, "pitch": 59, "duration": 12, "velocity": 64}, {"time": 1044, "pitch": 55, "duration": 24, "velocity": 64}, {"time": 1068, "pitch": 64, "duration": 12, "velocity": 64}, {"time": 1080, "pitch": 67, "duration": 12, "velocity": 64}, {"time": 1092, "pitch": 66, "duration": 12, "velocity": 64}, {"time": 1104, "pitch": 64, "duration": 12, "velocity": 64}, {"time": 1116, "pitch": 62, "duration": 24, "velocity": 64}, {"time": 1140, "pitch": 57, "duration": 24, "velocity": 64}, {"time": 1164, "pitch": 57, "duration": 24, "velocity": 64}, {"time": 1188, "pitch": 61, "duration": 12, "velocity": 64}, {"time": 1200, "pitch": 57, "duration": 12, "velocity": 64}, {"time": 1212, "pitch": 62, "duration": 48, "velocity": 64}, {"time": 1260, "pitch": 62, "duration": 12, "velocity": 64}, {"time": 1272, "pitch": 59, "duration": 12, "velocity": 64}, {"time": 1284, "pitch": 57, "duration": 24, "velocity": 64}, {"time": 1308, "pitch": 57, "duration": 24, "velocity": 64}, {"time": 1332, "pitch": 61, "duration": 12, "velocity": 64}, {"time": 1344, "pitch": 57, "duration": 12, "velocity": 64}, {"time": 1356, "pitch": 62, "duration": 48, "velocity": 64}, {"time": 1404, "pitch": 62, "duration": 12, "velocity": 64}, {"time": 1416, "pitch": 59, "duration": 12, "velocity": 64}, {"time": 1428, "pitch": 62, "duration": 24, "velocity": 64}, {"time": 1452, "pitch": 59, "duration": 24, "velocity": 64}, {"time": 1476, "pitch": 55, "duration": 24, "velocity": 64}, {"time": 1500, "pitch": 60, "duration": 24, "velocity": 64}, {"time": 1524, "pitch": 57, "duration": 24, "velocity": 64}, {"time": 1548, "pitch": 62, "duration": 12, "velocity": 64}, {"time": 1560, "pitch": 59, "duration": 12, "velocity": 64}, {"time": 1572, "pitch": 62, "duration": 24, "velocity": 64}, {"time": 1596, "pitch": 59, "duration": 24, "velocity": 64}, {"time": 1620, "pitch": 55, "duration": 24, "velocity": 64}, {"time": 1644, "pitch": 60, "duration": 24, "velocity": 64}, {"time": 1668, "pitch": 57, "duration": 24, "velocity": 64}, {"time": 1692, "pitch": 62, "duration": 12, "velocity": 64}, {"time": 1704, "pitch": 59, "duration": 12, "velocity": 64}, {"time": 1716, "pitch": 64, "duration": 24, "velocity": 64}, {"time": 1740, "pitch": 64, "duration": 24, "velocity": 64}, {"time": 1764, "pitch": 64, "duration": 24, "velocity": 64}, {"time": 1788, "pitch": 62, "duration": 36, "velocity": 64}, {"time": 1824, "pitch": 60, "duration": 12, "velocity": 64}, {"time": 1836, "pitch": 59, "duration": 24, "velocity": 64}, {"time": 1860, "pitch": 62, "duration": 12, "velocity": 64}, {"time": 1872, "pitch": 60, "duration": 12, "velocity": 64}, {"time": 1884, "pitch": 59, "duration": 24, "velocity": 64}, {"time": 1908, "pitch": 57, "duration": 24, "velocity": 64}, {"time": 1932, "pitch": 55, "duration": 48, "velocity": 64}]}]}