{"metadata": {"schema_version": "0.1", "title": "\"Weihelied \"", "source_format": "abc"}, "resolution": 24, "tempos": [{"time": 0, "qpm": 120.0}], "key_signatures": [{"time": 0, "root": 5, "mode": "major", "fifths": -1}], "time_signatures": [{"time": 0, "numerator": 3, "denominator": 2}], "beats": [{"time": 0, "is_downbeat": true}, {"time": 48, "is_downbeat": false}, {"time": 96, "is_downbeat": false}, {"time": 144, "is_downbeat": true}, {"time": 192, "is_downbeat": false}, {"time": 240, "is_downbeat": false}, {"time": 288, "is_downbeat": true}, {"time": 336, "is_downbeat": false}, {"time": 384, "is_downbeat": false}, {"time": 432, "is_downbeat": true}, {"time": 480, "is_downbeat": false}, {"time": 528, "is_downbeat": false}, {"time": 576, "is_downbeat": true}, {"time": 624, "is_downbeat": false}, {"time": 672, "is_downbeat": false}, {"time": 720, "is_downbeat": true}, {"time": 768, "is_downbeat": false}, {"time": 816, "is_downbeat": false}, {"time": 864, "is_downbeat": true}, {"time": 912, "is_downbeat": false}, {"time": 960, "is_downbeat": false}, {"time": 1008, "is_downbeat": true}, {"time": 1056, "is_downbeat": false}, {"time": 1104, "is_downbeat": false}, {"time": 1152, "is_downbeat": true}, {"time": 1200, "is_downbeat": false}, {"time": 1248, "is_downbeat": false}, {"time": 1296, "is_downbeat": true}, {"time": 1344, "is_downbeat": false}, {"time": 1392, "is_downbeat": false}], "tracks": [{"program": 0, "is_drum": false, "notes": [{"time": 0, "pitch": 72, "duration": 12, "velocity": 64}, {"time": 12, "pitch": 69, "duration": 12, "velocity": 64}, {"time": 24, "pitch": 70, "duration": 12, "velocity": 64}, {"time": 36, "pitch": 67, "duration": 12, "velocity": 64}, {"time": 48, "pitch": 65, "duration": 48, "velocity": 64}, {"time": 96, "pitch": 60, "duration": 48, "velocity": 64}, {"time": 144, "pitch": 65, "duration": 24, "velocity": 64}, {"time": 168, "pitch": 67, "duration": 24, "velocity": 64}, {"time": 192, "pitch": 69, "duration": 48, "velocity": 64}, {"time": 240, "pitch": 65, "duration": 48, "velocity": 64}, {"time": 288, "pitch": 69, "duration": 24, "velocity": 64}, {"time": 312, "pitch": 70, "duration": 24, "velocity": 64}, {"time": 336, "pitch": 72, "duration": 48, "velocity": 64}, {"time": 384, "pitch": 74, "duration": 48, "velocity": 64}, {"time": 432, "pitch": 72, "duration": 24, "velocity": 64}, {"time": 456, "pitch": 70, "duration": 24, "velocity": 64}, {"time": 480, "pitch": 70, "duration": 48, "velocity": 64}, {"time": 528, "pitch": 69, "duration": 48, "velocity": 64}, {"time": 576, "pitch": 72, "duration": 36, "velocity": 64}, {"time": 612, "pitch": 69, "duration": 12, "velocity": 64}, {"time": 624, "pitch": 65, "duration": 48, "velocity": 64}, {"time": 672, "pitch": 77, "duration": 48, "velocity": 64}, {"time": 720, "pitch": 74, "duration": 36, "velocity": 64}, {"time": 756, "pitch": 72, "duration": 12, "velocity": 64}, {"time": 768, "pitch": 70, "duration": 36, "velocity": 64}, {"time": 804, "pitch": 69, "duration": 12, "velocity": 64}, {"time": 816, "pitch": 67, "duration": 36, "velocity": 64}, {"time": 852, "pitch": 69, "duration": 12, "velocity": 64}, {"time": 864, "pitch": 70, "duration": 24, "velocity": 64}, {"time": 888, "pitch": 67, "duration": 24, "velocity": 64}, {"time": 912, "pitch": 72, "duration": 36, "velocity": 64}, {"time": 948, "pitch": 70, "duration": 12, "velocity": 64}, {"time": 960, "pitch": 69, "duration": 24, "velocity": 64}, {"time": 984, "pitch": 67, "duration": 24, "velocity": 64}, {"time": 1008, "pitch": 65, "duration": 24, "velocity": 64}, {"time": 1032, "pitch": 67, "duration": 24, "velocity": 64}, {"time": 1056, "pitch": 69, "duration": 24, "velocity": 64}, {"time": 1080, "pitch": 70, "duration": 24, "velocity": 64}, {"time": 1104, "pitch": 72, "duration": 24, "velocity": 64}, {"time": 1128, "pitch": 74, "duration": 24, "velocity": 64}, {"time": 1152, "pitch": 72, "duration": 96, "velocity": 64}, {"time": 1248, "pitch": 76, "duration": 48, "velocity": 64}, {"time": 1296, "pitch": 77, "duration": 48, "velocity": 64}]}]}