{"metadata": {"schema_version": "0.1", "title": "\"Das Daennerl im Thal\"", "source_format": "abc"}, "resolution": 24, "tempos": [{"time": 0, "qpm": 120.0}], "key_signatures": [{"time": 0, "root": 8, "mode": "major", "fifths": -4}], "time_signatures": [{"time": 0, "numerator": 3, "denominator": 4}], "beats": [{"time": 0, "is_downbeat": true}, {"time": 24, "is_downbeat": false}, {"time": 48, "is_downbeat": false}, {"time": 72, "is_downbeat": true}, {"time": 96, "is_downbeat": false}, {"time": 120, "is_downbeat": false}, {"time": 144, "is_downbeat": true}, {"time": 168, "is_downbeat": false}, {"time": 192, "is_downbeat": false}, {"time": 216, "is_downbeat": true}, {"time": 240, "is_downbeat": false}, {"time": 264, "is_downbeat": false}, {"time": 288, "is_downbeat": true}, {"time": 312, "is_downbeat": false}, {"time": 336, "is_downbeat": false}, {"time": 360, "is_downbeat": true}, {"time": 384, "is_downbeat": false}, {"time": 408, "is_downbeat": false}, {"time": 432, "is_downbeat": true}, {"time": 456, "is_downbeat": false}, {"time": 480, "is_downbeat": false}, {"time": 504, "is_downbeat": true}, {"time": 528, "is_downbeat": false}, {"time": 552, "is_downbeat": false}, {"time": 576, "is_downbeat": true}, {"time": 600, "is_downbeat": false}, {"time": 624, "is_downbeat": false}, {"time": 648, "is_downbeat": true}, {"time": 672, "is_downbeat": false}, {"time": 696, "is_downbeat": false}, {"time": 720, "is_downbeat": true}, {"time": 744, "is_downbeat": false}, {"time": 768, "is_downbeat": false}, {"time": 792, "is_downbeat": true}, {"time": 816, "is_downbeat": false}, {"time": 840, "is_downbeat": false}, {"time": 864, "is_downbeat": true}, {"time": 888, "is_downbeat": false}, {"time": 912, "is_downbeat": false}, {"time": 936, "is_downbeat": true}, {"time": 960, "is_downbeat": false}, {"time": 984, "is_downbeat": false}, {"time": 1008, "is_downbeat": true}, {"time": 1032, "is_downbeat": false}, {"time": 1056, "is_downbeat": false}, {"time": 1080, "is_downbeat": true}, {"time": 1104, "is_downbeat": false}, {"time": 1128, "is_downbeat": false}, {"time": 1152, "is_downbeat": true}, {"time": 1176, "is_downbeat": false}, {"time": 1200, "is_downbeat": false}, {"time": 1224, "is_downbeat": true}, {"time": 1248, "is_downbeat": false}, {"time": 1272, "is_downbeat": false}], "tracks": [{"program": 0, "is_drum": false, "notes": [{"time": 0, "pitch": 63, "duration": 12, "velocity": 64}, {"time": 12, "pitch": 68, "duration": 12, "velocity": 64}, {"time": 24, "pitch": 68, "duration": 12, "velocity": 64}, {"time": 36, "pitch": 72, "duration": 12, "velocity": 64}, {"time": 48, "pitch": 72, "duration": 12, "velocity": 64}, {"time": 60, "pitch": 75, "duration": 12, "velocity": 64}, {"time": 72, "pitch": 75, "duration": 24, "velocity": 64}, {"time": 96, "pitch": 70, "duration": 12, "velocity": 64}, {"time": 108, "pitch": 72, "duration": 12, "velocity": 64}, {"time": 120, "pitch": 68, "duration": 24, "velocity": 64}, {"time": 144, "pitch": 63, "duration": 12, "velocity": 64}, {"time": 156, "pitch": 70, "duration": 12, "velocity": 64}, {"time": 168, "pitch": 70, "duration": 48, "velocity": 64}, {"time": 216, "pitch": 72, "duration": 48, "velocity": 64}, {"time": 288, "pitch": 63, "duration": 12, "velocity": 64}, {"time": 300, "pitch": 68, "duration": 12, "velocity": 64}, {"time": 312, "pitch": 68, "duration": 12, "velocity": 64}, {"time": 324, "pitch": 72, "duration": 12, "velocity": 64}, {"time": 336, "pitch": 72, "duration": 12, "velocity": 64}, {"time": 348, "pitch": 75, "duration": 12, "velocity": 64}, {"time": 360, "pitch": 75, "duration": 24, "velocity": 64}, {"time": 384, "pitch": 70, "duration": 12, "velocity": 64}, {"time": 396, "pitch": 72, "duration": 12, "velocity": 64}, {"time": 408, "pitch": 68, "duration": 24, "velocity": 64}, {"time": 432, "pitch": 63, "duration": 12, "velocity": 64}, {"time": 444, "pitch": 70, "duration": 12, "velocity": 64}, {"time": 456, "pitch": 70, "duration": 48, "velocity": 64}, {"time": 504, "pitch": 72, "duration": 48, "velocity": 64}, {"time": 576, "pitch": 70, "duration": 24, "velocity": 64}, {"time": 600, "pitch": 70, "duration": 12, "velocity": 64}, {"time": 612, "pitch": 68, "duration": 12, "velocity": 64}, {"time": 624, "pitch": 70, "duration": 12, "velocity": 64}, {"time": 636, "pitch": 72, "duration": 12, "velocity": 64}, {"time": 648, "pitch": 70, "duration": 24, "velocity": 64}, {"time": 672, "pitch": 75, "duration": 24, "velocity": 64}, {"time": 720, "pitch": 70, "duration": 24, "velocity": 64}, {"time": 744, "pitch": 70, "duration": 12, "velocity": 64}, {"time": 756, "pitch": 68, "duration": 12, "velocity": 64}, {"time": 768, "pitch": 70, "duration": 12, "velocity": 64}, {"time": 780, "pitch": 72, "duration": 12, "velocity": 64}, {"time": 792, "pitch": 68, "duration": 24, "velocity": 64}, {"time": 816, "pitch": 63, "duration": 24, "velocity": 64}, {"time": 852, "pitch": 68, "duration": 12, "velocity": 64}, {"time": 864, "pitch": 68, "duration": 36, "velocity": 64}, {"time": 900, "pitch": 68, "duration": 12, "velocity": 64}, {"time": 912, "pitch": 68, "duration": 12, "velocity": 64}, {"time": 924, "pitch": 68, "duration": 12, "velocity": 64}, {"time": 936, "pitch": 67, "duration": 24, "velocity": 64}, {"time": 960, "pitch": 70, "duration": 48, "velocity": 64}, {"time": 1008, "pitch": 63, "duration": 12, "velocity": 64}, {"time": 1020, "pitch": 68, "duration": 12, "velocity": 64}, {"time": 1032, "pitch": 68, "duration": 12, "velocity": 64}, {"time": 1044, "pitch": 72, "duration": 12, "velocity": 64}, {"time": 1056, "pitch": 72, "duration": 12, "velocity": 64}, {"time": 1068, "pitch": 75, "duration": 12, "velocity": 64}, {"time": 1080, "pitch": 73, "duration": 24, "velocity": 64}, {"time": 1104, "pitch": 77, "duration": 12, "velocity": 64}, {"time": 1116, "pitch": 80, "duration": 12, "velocity": 64}, {"time": 1128, "pitch": 75, "duration": 24, "velocity": 64}, {"time": 1152, "pitch": 63, "duration": 12, "velocity": 64}, {"time": 1164, "pitch": 68, "duration": 12, "velocity": 64}, {"time": 1176, "pitch": 68, "duration": 12, "velocity": 64}, {"time": 1188, "pitch": 72, "duration": 12, "velocity": 64}, {"time": 1200, "pitch": 72, "duration": 12, "velocity": 64}, {"time": 1212, "pitch": 75, "duration": 12, "velocity": 64}, {"time": 1224, "pitch": 75, "duration": 12, "velocity": 64}, {"time": 1236, "pitch": 73, "duration": 12, "velocity": 64}, {"time": 1248, "pitch": 70, "duration": 12, "velocity": 64}, {"time": 1260, "pitch": 72, "duration": 12, "velocity": 64}, {"time": 1272, "pitch": 68, "duration": 24, "velocity": 64}]}]}