{"metadata": {"schema_version": "0.1", "title": "\"Liebeskummer\"", "source_format": "abc"}, "resolution": 24, "tempos": [{"time": 0, "qpm": 120.0}], "key_signatures": [{"time": 0, "root": 7, "mode": "major", "fifths": 1}], "time_signatures": [{"time": 0, "numerator": 3, "denominator": 4}], "beats": [{"time": 0, "is_downbeat": true}, {"time": 24, "is_downbeat": false}, {"time": 48, "is_downbeat": false}, {"time": 72, "is_downbeat": true}, {"time": 96, "is_downbeat": false}, {"time": 120, "is_downbeat": false}, {"time": 144, "is_downbeat": true}, {"time": 168, "is_downbeat": false}, {"time": 192, "is_downbeat": false}, {"time": 216, "is_downbeat": true}, {"time": 240, "is_downbeat": false}, {"time": 264, "is_downbeat": false}, {"time": 288, "is_downbeat": true}, {"time": 312, "is_downbeat": false}, {"time": 336, "is_downbeat": false}, {"time": 360, "is_downbeat": true}, {"time": 384, "is_downbeat": false}, {"time": 408, "is_downbeat": false}, {"time": 432, "is_downbeat": true}, {"time": 456, "is_downbeat": false}, {"time": 480, "is_downbeat": false}, {"time": 504, "is_downbeat": true}, {"time": 528, "is_downbeat": false}, {"time": 552, "is_downbeat": false}, {"time": 576, "is_downbeat": true}, {"time": 600, "is_downbeat": false}, {"time": 624, "is_downbeat": false}, {"time": 648, "is_downbeat": true}, {"time": 672, "is_downbeat": false}, {"time": 696, "is_downbeat": false}, {"time": 720, "is_downbeat": true}, {"time": 744, "is_downbeat": false}, {"time": 768, "is_downbeat": false}, {"time": 792, "is_downbeat": true}, {"time": 816, "is_downbeat": false}, {"time": 840, "is_downbeat": false}], "tracks": [{"program": 0, "is_drum": false, "notes": [{"time": 0, "pitch": 71, "duration": 8, "velocity": 64}, {"time": 8, "pitch": 74, "duration": 8, "velocity": 64}, {"time": 16, "pitch": 79, "duration": 8, "velocity": 64}, {"time": 24, "pitch": 67, "duration": 48, "velocity": 64}, {"time": 72, "pitch": 62, "duration": 12, "velocity": 64}, {"time": 84, "pitch": 67, "duration": 12, "velocity": 64}, {"time": 96, "pitch": 67, "duration": 12, "velocity": 64}, {"time": 108, "pitch": 71, "duration": 12, "velocity": 64}, {"time": 120, "pitch": 71, "duration": 12, "velocity": 64}, {"time": 132, "pitch": 74, "duration": 12, "velocity": 64}, {"time": 144, "pitch": 74, "duration": 36, "velocity": 64}, {"time": 180, "pitch": 72, "duration": 12, "velocity": 64}, {"time": 192, "pitch": 66, "duration": 24, "velocity": 64}, {"time": 216, "pitch": 69, "duration": 8, "velocity": 64}, {"time": 224, "pitch": 72, "duration": 8, "velocity": 64}, {"time": 232, "pitch": 78, "duration": 8, "velocity": 64}, {"time": 240, "pitch": 66, "duration": 48, "velocity": 64}, {"time": 288, "pitch": 62, "duration": 12, "velocity": 64}, {"time": 300, "pitch": 66, "duration": 12, "velocity": 64}, {"time": 312, "pitch": 66, "duration": 24, "velocity": 64}, {"time": 336, "pitch": 66, "duration": 24, "velocity": 64}, {"time": 360, "pitch": 74, "duration": 48, "velocity": 64}, {"time": 408, "pitch": 74, "duration": 12, "velocity": 64}, {"time": 420, "pitch": 72, "duration": 12, "velocity": 64}, {"time": 432, "pitch": 71, "duration": 8, "velocity": 64}, {"time": 440, "pitch": 74, "duration": 8, "velocity": 64}, {"time": 448, "pitch": 79, "duration": 8, "velocity": 64}, {"time": 456, "pitch": 67, "duration": 48, "velocity": 64}, {"time": 504, "pitch": 62, "duration": 12, "velocity": 64}, {"time": 516, "pitch": 67, "duration": 12, "velocity": 64}, {"time": 528, "pitch": 67, "duration": 12, "velocity": 64}, {"time": 540, "pitch": 71, "duration": 12, "velocity": 64}, {"time": 552, "pitch": 71, "duration": 12, "velocity": 64}, {"time": 564, "pitch": 74, "duration": 12, "velocity": 64}, {"time": 576, "pitch": 74, "duration": 36, "velocity": 64}, {"time": 612, "pitch": 72, "duration": 12, "velocity": 64}, {"time": 624, "pitch": 66, "duration": 24, "velocity": 64}, {"time": 648, "pitch": 69, "duration": 8, "velocity": 64}, {"time": 656, "pitch": 72, "duration": 8, "velocity": 64}, {"time": 664, "pitch": 78, "duration": 8, "velocity": 64}, {"time": 672, "pitch": 66, "duration": 48, "velocity": 64}, {"time": 720, "pitch": 62, "duration": 12, "velocity": 64}, {"time": 732, "pitch": 66, "duration": 12, "velocity": 64}, {"time": 744, "pitch": 76, "duration": 12, "velocity": 64}, {"time": 756, "pitch": 74, "duration": 12, "velocity": 64}, {"time": 768, "pitch": 72, "duration": 12, "velocity": 64}, {"time": 780, "pitch": 66, "duration": 12, "velocity": 64}, {"time": 792, "pitch": 67, "duration": 48, "velocity": 64}]}]}