{"metadata": {"schema_version": "0.1", "title": "\"Fruehlingshoffnung\"", "source_format": "abc"}, "resolution": 24, "tempos": [{"time": 0, "qpm": 120.0}], "key_signatures": [{"time": 0, "root": 1, "mode": "major", "fifths": -5}], "time_signatures": [{"time": 0, "numerator": 3, "denominator": 4}], "beats": [{"time": 0, "is_downbeat": true}, {"time": 24, "is_downbeat": true}, {"time": 48, "is_downbeat": false}, {"time": 72, "is_downbeat": false}, {"time": 96, "is_downbeat": true}, {"time": 120, "is_downbeat": false}, {"time": 144, "is_downbeat": false}, {"time": 168, "is_downbeat": true}, {"time": 192, "is_downbeat": false}, {"time": 216, "is_downbeat": false}, {"time": 240, "is_downbeat": true}, {"time": 264, "is_downbeat": false}, {"time": 288, "is_downbeat": false}, {"time": 312, "is_downbeat": true}, {"time": 336, "is_downbeat": false}, {"time": 360, "is_downbeat": false}, {"time": 384, "is_downbeat": true}, {"time": 408, "is_downbeat": false}, {"time": 432, "is_downbeat": false}, {"time": 456, "is_downbeat": true}, {"time": 480, "is_downbeat": false}, {"time": 504, "is_downbeat": false}, {"time": 528, "is_downbeat": true}, {"time": 552, "is_downbeat": false}, {"time": 576, "is_downbeat": false}, {"time": 600, "is_downbeat": true}, {"time": 624, "is_downbeat": false}, {"time": 648, "is_downbeat": false}, {"time": 672, "is_downbeat": true}, {"time": 696, "is_downbeat": false}, {"time": 720, "is_downbeat": false}, {"time": 744, "is_downbeat": true}, {"time": 768, "is_downbeat": false}, {"time": 792, "is_downbeat": false}, {"time": 816, "is_downbeat": true}, {"time": 840, "is_downbeat": false}, {"time": 864, "is_downbeat": false}, {"time": 888, "is_downbeat": true}, {"time": 912, "is_downbeat": false}, {"time": 936, "is_downbeat": false}, {"time": 960, "is_downbeat": true}, {"time": 984, "is_downbeat": false}, {"time": 1008, "is_downbeat": false}, {"time": 1032, "is_downbeat": true}, {"time": 1056, "is_downbeat": false}, {"time": 1080, "is_downbeat": false}, {"time": 1104, "is_downbeat": true}, {"time": 1128, "is_downbeat": false}, {"time": 1152, "is_downbeat": false}, {"time": 1176, "is_downbeat": true}, {"time": 1200, "is_downbeat": false}, {"time": 1224, "is_downbeat": false}, {"time": 1248, "is_downbeat": true}, {"time": 1272, "is_downbeat": false}, {"time": 1296, "is_downbeat": false}, {"time": 1320, "is_downbeat": true}, {"time": 1344, "is_downbeat": false}, {"time": 1368, "is_downbeat": false}, {"time": 1392, "is_downbeat": true}, {"time": 1416, "is_downbeat": false}, {"time": 1440, "is_downbeat": false}, {"time": 1464, "is_downbeat": true}, {"time": 1488, "is_downbeat": false}, {"time": 1512, "is_downbeat": false}, {"time": 1536, "is_downbeat": true}, {"time": 1560, "is_downbeat": false}, {"time": 1584, "is_downbeat": false}, {"time": 1608, "is_downbeat": true}, {"time": 1632, "is_downbeat": false}, {"time": 1656, "is_downbeat": false}, {"time": 1680, "is_downbeat": true}, {"time": 1704, "is_downbeat": false}, {"time": 1728, "is_downbeat": false}], "tracks": [{"program": 0, "is_drum": false, "notes": [{"time": 0, "pitch": 68, "duration": 18, "velocity": 64}, {"time": 18, "pitch": 70, "duration": 6, "velocity": 64}, {"time": 24, "pitch": 68, "duration": 24, "velocity": 64}, {"time": 48, "pitch": 73, "duration": 12, "velocity": 64}, {"time": 60, "pitch": 73, "duration": 12, "velocity": 64}, {"time": 72, "pitch": 73, "duration": 12, "velocity": 64}, {"time": 84, "pitch": 73, "duration": 12, "velocity": 64}, {"time": 96, "pitch": 78, "duration": 18, "velocity": 64}, {"time": 114, "pitch": 78, "duration": 6, "velocity": 64}, {"time": 120, "pitch": 72, "duration": 24, "velocity": 64}, {"time": 144, "pitch": 68, "duration": 12, "velocity": 64}, {"time": 156, "pitch": 70, "duration": 12, "velocity": 64}, {"time": 168, "pitch": 68, "duration": 18, "velocity": 64}, {"time": 186, "pitch": 72, "duration": 6, "velocity": 64}, {"time": 192, "pitch": 72, "duration": 12, "velocity": 64}, {"time": 204, "pitch": 72, "duration": 12, "velocity": 64}, {"time": 216, "pitch": 70, "duration": 12, "velocity": 64}, {"time": 228, "pitch": 72, "duration": 12, "velocity": 64}, {"time": 240, "pitch": 77, "duration": 18, "velocity": 64}, {"time": 258, "pitch": 77, "duration": 6, "velocity": 64}, {"time": 264, "pitch": 73, "duration": 24, "velocity": 64}, {"time": 288, "pitch": 68, "duration": 6, "velocity": 64}, {"time": 294, "pitch": 70, "duration": 6, "velocity": 64}, {"time": 300, "pitch": 72, "duration": 12, "velocity": 64}, {"time": 312, "pitch": 73, "duration": 18, "velocity": 64}, {"time": 330, "pitch": 75, "duration": 6, "velocity": 64}, {"time": 336, "pitch": 77, "duration": 12, "velocity": 64}, {"time": 348, "pitch": 75, "duration": 12, "velocity": 64}, {"time": 360, "pitch": 73, "duration": 12, "velocity": 64}, {"time": 372, "pitch": 72, "duration": 12, "velocity": 64}, {"time": 384, "pitch": 78, "duration": 18, "velocity": 64}, {"time": 402, "pitch": 77, "duration": 6, "velocity": 64}, {"time": 408, "pitch": 75, "duration": 12, "velocity": 64}, {"time": 420, "pitch": 73, "duration": 12, "velocity": 64}, {"time": 432, "pitch": 72, "duration": 12, "velocity": 64}, {"time": 444, "pitch": 70, "duration": 12, "velocity": 64}, {"time": 456, "pitch": 68, "duration": 12, "velocity": 64}, {"time": 468, "pitch": 80, "duration": 12, "velocity": 64}, {"time": 480, "pitch": 80, "duration": 12, "velocity": 64}, {"time": 492, "pitch": 80, "duration": 12, "velocity": 64}, {"time": 504, "pitch": 78, "duration": 12, "velocity": 64}, {"time": 516, "pitch": 72, "duration": 12, "velocity": 64}, {"time": 528, "pitch": 73, "duration": 24, "velocity": 64}, {"time": 564, "pitch": 68, "duration": 12, "velocity": 64}, {"time": 576, "pitch": 70, "duration": 12, "velocity": 64}, {"time": 588, "pitch": 72, "duration": 12, "velocity": 64}, {"time": 600, "pitch": 73, "duration": 24, "velocity": 64}, {"time": 624, "pitch": 65, "duration": 12, "velocity": 64}, {"time": 636, "pitch": 68, "duration": 12, "velocity": 64}, {"time": 648, "pitch": 73, "duration": 12, "velocity": 64}, {"time": 660, "pitch": 77, "duration": 12, "velocity": 64}, {"time": 672, "pitch": 78, "duration": 18, "velocity": 64}, {"time": 690, "pitch": 77, "duration": 6, "velocity": 64}, {"time": 696, "pitch": 75, "duration": 36, "velocity": 64}, {"time": 732, "pitch": 73, "duration": 12, "velocity": 64}, {"time": 744, "pitch": 72, "duration": 12, "velocity": 64}, {"time": 756, "pitch": 70, "duration": 12, "velocity": 64}, {"time": 768, "pitch": 68, "duration": 12, "velocity": 64}, {"time": 780, "pitch": 63, "duration": 12, "velocity": 64}, {"time": 792, "pitch": 70, "duration": 12, "velocity": 64}, {"time": 804, "pitch": 68, "duration": 12, "velocity": 64}, {"time": 816, "pitch": 68, "duration": 12, "velocity": 64}, {"time": 828, "pitch": 66, "duration": 12, "velocity": 64}, {"time": 840, "pitch": 65, "duration": 12, "velocity": 64}, {"time": 852, "pitch": 68, "duration": 12, "velocity": 64}, {"time": 864, "pitch": 70, "duration": 12, "velocity": 64}, {"time": 876, "pitch": 72, "duration": 12, "velocity": 64}, {"time": 888, "pitch": 73, "duration": 24, "velocity": 64}, {"time": 912, "pitch": 65, "duration": 12, "velocity": 64}, {"time": 924, "pitch": 68, "duration": 12, "velocity": 64}, {"time": 936, "pitch": 73, "duration": 12, "velocity": 64}, {"time": 948, "pitch": 77, "duration": 12, "velocity": 64}, {"time": 960, "pitch": 78, "duration": 12, "velocity": 64}, {"time": 972, "pitch": 77, "duration": 12, "velocity": 64}, {"time": 984, "pitch": 75, "duration": 36, "velocity": 64}, {"time": 1020, "pitch": 73, "duration": 12, "velocity": 64}, {"time": 1032, "pitch": 72, "duration": 12, "velocity": 64}, {"time": 1044, "pitch": 70, "duration": 12, "velocity": 64}, {"time": 1056, "pitch": 68, "duration": 12, "velocity": 64}, {"time": 1068, "pitch": 63, "duration": 12, "velocity": 64}, {"time": 1080, "pitch": 70, "duration": 12, "velocity": 64}, {"time": 1092, "pitch": 68, "duration": 12, "velocity": 64}, {"time": 1104, "pitch": 61, "duration": 24, "velocity": 64}, {"time": 1140, "pitch": 56, "duration": 12, "velocity": 64}, {"time": 1152, "pitch": 58, "duration": 12, "velocity": 64}, {"time": 1164, "pitch": 60, "duration": 12, "velocity": 64}, {"time": 1176, "pitch": 61, "duration": 24, "velocity": 64}, {"time": 1200, "pitch": 65, "duration": 12, "velocity": 64}, {"time": 1212, "pitch": 68, "duration": 12, "velocity": 64}, {"time": 1224, "pitch": 73, "duration": 12, "velocity": 64}, {"time": 1236, "pitch": 77, "duration": 12, "velocity": 64}, {"time": 1248, "pitch": 78, "duration": 12, "velocity": 64}, {"time": 1266, "pitch": 77, "duration": 6, "velocity": 64}, {"time": 1272, "pitch": 78, "duration": 12, "velocity": 64}, {"time": 1290, "pitch": 77, "duration": 6, "velocity": 64}, {"time": 1296, "pitch": 75, "duration": 24, "velocity": 64}, {"time": 1320, "pitch": 78, "duration": 12, "velocity": 64}, {"time": 1338, "pitch": 77, "duration": 6, "velocity": 64}, {"time": 1344, "pitch": 78, "duration": 12, "velocity": 64}, {"time": 1362, "pitch": 77, "duration": 6, "velocity": 64}, {"time": 1368, "pitch": 75, "duration": 24, "velocity": 64}, {"time": 1392, "pitch": 77, "duration": 12, "velocity": 64}, {"time": 1410, "pitch": 75, "duration": 6, "velocity": 64}, {"time": 1416, "pitch": 77, "duration": 12, "velocity": 64}, {"time": 1434, "pitch": 75, "duration": 6, "velocity": 64}, {"time": 1440, "pitch": 73, "duration": 24, "velocity": 64}, {"time": 1464, "pitch": 61, "duration": 12, "velocity": 64}, {"time": 1476, "pitch": 65, "duration": 12, "velocity": 64}, {"time": 1488, "pitch": 68, "duration": 12, "velocity": 64}, {"time": 1500, "pitch": 73, "duration": 12, "velocity": 64}, {"time": 1512, "pitch": 77, "duration": 12, "velocity": 64}, {"time": 1524, "pitch": 80, "duration": 12, "velocity": 64}, {"time": 1536, "pitch": 82, "duration": 12, "velocity": 64}, {"time": 1548, "pitch": 80, "duration": 12, "velocity": 64}, {"time": 1560, "pitch": 78, "duration": 12, "velocity": 64}, {"time": 1572, "pitch": 77, "duration": 12, "velocity": 64}, {"time": 1584, "pitch": 75, "duration": 12, "velocity": 64}, {"time": 1596, "pitch": 73, "duration": 12, "velocity": 64}, {"time": 1608, "pitch": 72, "duration": 12, "velocity": 64}, {"time": 1620, "pitch": 70, "duration": 12, "velocity": 64}, {"time": 1632, "pitch": 68, "duration": 12, "velocity": 64}, {"time": 1644, "pitch": 63, "duration": 12, "velocity": 64}, {"time": 1656, "pitch": 70, "duration": 12, "velocity": 64}, {"time": 1668, "pitch": 68, "duration": 12, "velocity": 64}, {"time": 1680, "pitch": 61, "duration": 24, "velocity": 64}, {"time": 1704, "pitch": 73, "duration": 12, "velocity": 64}]}]}