{"metadata": {"schema_version": "0.1", "title": "\"Kuhreigen\"", "source_format": "abc"}, "resolution": 24, "tempos": [{"time": 0, "qpm": 120.0}], "key_signatures": [{"time": 0, "root": 7, "mode": "major", "fifths": 1}], "time_signatures": [{"time": 0, "numerator": 3, "denominator": 8}], "beats": [{"time": 0, "is_downbeat": true}, {"time": 12, "is_downbeat": true}, {"time": 24, "is_downbeat": false}, {"time": 36, "is_downbeat": false}, {"time": 48, "is_downbeat": true}, {"time": 60, "is_downbeat": false}, {"time": 72, "is_downbeat": false}, {"time": 84, "is_downbeat": true}, {"time": 96, "is_downbeat": false}, {"time": 108, "is_downbeat": false}, {"time": 120, "is_downbeat": true}, {"time": 132, "is_downbeat": false}, {"time": 144, "is_downbeat": false}, {"time": 156, "is_downbeat": true}, {"time": 168, "is_downbeat": false}, {"time": 180, "is_downbeat": false}, {"time": 192, "is_downbeat": true}, {"time": 204, "is_downbeat": false}, {"time": 216, "is_downbeat": false}, {"time": 228, "is_downbeat": true}, {"time": 240, "is_downbeat": false}, {"time": 252, "is_downbeat": false}, {"time": 264, "is_downbeat": true}, {"time": 276, "is_downbeat": false}, {"time": 288, "is_downbeat": false}, {"time": 300, "is_downbeat": true}, {"time": 312, "is_downbeat": false}, {"time": 324, "is_downbeat": false}, {"time": 336, "is_downbeat": true}, {"time": 348, "is_downbeat": false}, {"time": 360, "is_downbeat": false}, {"time": 372, "is_downbeat": true}, {"time": 384, "is_downbeat": false}, {"time": 396, "is_downbeat": false}, {"time": 408, "is_downbeat": true}, {"time": 420, "is_downbeat": false}, {"time": 432, "is_downbeat": false}, {"time": 444, "is_downbeat": true}, {"time": 456, "is_downbeat": false}, {"time": 468, "is_downbeat": false}, {"time": 480, "is_downbeat": true}, {"time": 492, "is_downbeat": false}, {"time": 504, "is_downbeat": false}, {"time": 516, "is_downbeat": true}, {"time": 528, "is_downbeat": false}, {"time": 540, "is_downbeat": false}, {"time": 552, "is_downbeat": true}, {"time": 564, "is_downbeat": false}, {"time": 576, "is_downbeat": false}, {"time": 588, "is_downbeat": true}, {"time": 600, "is_downbeat": false}, {"time": 612, "is_downbeat": false}, {"time": 624, "is_downbeat": true}, {"time": 636, "is_downbeat": false}, {"time": 648, "is_downbeat": false}, {"time": 660, "is_downbeat": true}, {"time": 672, "is_downbeat": false}, {"time": 684, "is_downbeat": false}, {"time": 696, "is_downbeat": true}, {"time": 708, "is_downbeat": false}, {"time": 720, "is_downbeat": false}, {"time": 732, "is_downbeat": true}, {"time": 744, "is_downbeat": false}, {"time": 756, "is_downbeat": false}, {"time": 768, "is_downbeat": true}, {"time": 780, "is_downbeat": false}, {"time": 792, "is_downbeat": false}, {"time": 804, "is_downbeat": true}, {"time": 816, "is_downbeat": false}, {"time": 828, "is_downbeat": false}, {"time": 840, "is_downbeat": true}, {"time": 852, "is_downbeat": false}, {"time": 864, "is_downbeat": false}, {"time": 876, "is_downbeat": true}, {"time": 888, "is_downbeat": false}, {"time": 900, "is_downbeat": false}, {"time": 912, "is_downbeat": true}, {"time": 924, "is_downbeat": false}, {"time": 936, "is_downbeat": false}, {"time": 948, "is_downbeat": true}, {"time": 960, "is_downbeat": false}, {"time": 972, "is_downbeat": false}, {"time": 984, "is_downbeat": true}, {"time": 996, "is_downbeat": false}, {"time": 1008, "is_downbeat": false}, {"time": 1020, "is_downbeat": true}, {"time": 1032, "is_downbeat": false}, {"time": 1044, "is_downbeat": false}, {"time": 1056, "is_downbeat": true}, {"time": 1068, "is_downbeat": false}, {"time": 1080, "is_downbeat": false}, {"time": 1092, "is_downbeat": true}, {"time": 1104, "is_downbeat": false}, {"time": 1116, "is_downbeat": false}, {"time": 1128, "is_downbeat": true}, {"time": 1140, "is_downbeat": false}, {"time": 1152, "is_downbeat": false}, {"time": 1164, "is_downbeat": true}, {"time": 1176, "is_downbeat": false}, {"time": 1188, "is_downbeat": false}, {"time": 1200, "is_downbeat": true}, {"time": 1212, "is_downbeat": false}, {"time": 1224, "is_downbeat": false}, {"time": 1236, "is_downbeat": true}, {"time": 1248, "is_downbeat": false}, {"time": 1260, "is_downbeat": false}, {"time": 1272, "is_downbeat": true}, {"time": 1284, "is_downbeat": false}, {"time": 1296, "is_downbeat": false}, {"time": 1308, "is_downbeat": true}, {"time": 1320, "is_downbeat": false}, {"time": 1332, "is_downbeat": false}, {"time": 1344, "is_downbeat": true}, {"time": 1356, "is_downbeat": false}, {"time": 1368, "is_downbeat": false}, {"time": 1380, "is_downbeat": true}, {"time": 1392, "is_downbeat": false}, {"time": 1404, "is_downbeat": false}, {"time": 1416, "is_downbeat": true}, {"time": 1428, "is_downbeat": false}, {"time": 1440, "is_downbeat": false}, {"time": 1452, "is_downbeat": true}, {"time": 1464, "is_downbeat": false}, {"time": 1476, "is_downbeat": false}, {"time": 1488, "is_downbeat": true}, {"time": 1500, "is_downbeat": false}, {"time": 1512, "is_downbeat": false}, {"time": 1524, "is_downbeat": true}, {"time": 1536, "is_downbeat": false}, {"time": 1548, "is_downbeat": false}, {"time": 1560, "is_downbeat": true}, {"time": 1572, "is_downbeat": false}, {"time": 1584, "is_downbeat": false}, {"time": 1596, "is_downbeat": true}, {"time": 1608, "is_downbeat": false}, {"time": 1620, "is_downbeat": false}, {"time": 1632, "is_downbeat": true}, {"time": 1644, "is_downbeat": false}, {"time": 1656, "is_downbeat": false}, {"time": 1668, "is_downbeat": true}, {"time": 1680, "is_downbeat": false}, {"time": 1692, "is_downbeat": false}, {"time": 1704, "is_downbeat": true}, {"time": 1716, "is_downbeat": false}, {"time": 1728, "is_downbeat": false}, {"time": 1740, "is_downbeat": true}, {"time": 1752, "is_downbeat": false}, {"time": 1764, "is_downbeat": false}, {"time": 1776, "is_downbeat": true}, {"time": 1788, "is_downbeat": false}, {"time": 1800, "is_downbeat": false}, {"time": 1812, "is_downbeat": true}, {"time": 1824, "is_downbeat": false}, {"time": 1836, "is_downbeat": false}, {"time": 1848, "is_downbeat": true}, {"time": 1860, "is_downbeat": false}, {"time": 1872, "is_downbeat": false}, {"time": 1884, "is_downbeat": true}, {"time": 1896, "is_downbeat": false}, {"time": 1908, "is_downbeat": false}, {"time": 1920, "is_downbeat": true}, {"time": 1932, "is_downbeat": false}, {"time": 1944, "is_downbeat": false}, {"time": 1956, "is_downbeat": true}, {"time": 1968, "is_downbeat": false}, {"time": 1980, "is_downbeat": false}, {"time": 1992, "is_downbeat": true}, {"time": 2004, "is_downbeat": false}, {"time": 2016, "is_downbeat": false}, {"time": 2028, "is_downbeat": true}, {"time": 2040, "is_downbeat": false}, {"time": 2052, "is_downbeat": false}], "tracks": [{"program": 0, "is_drum": false, "notes": [{"time": 0, "pitch": 62, "duration": 12, "velocity": 64}, {"time": 12, "pitch": 67, "duration": 24, "velocity": 64}, {"time": 36, "pitch": 69, "duration": 12, "velocity": 64}, {"time": 48, "pitch": 71, "duration": 12, "velocity": 64}, {"time": 60, "pitch": 69, "duration": 12, "velocity": 64}, {"time": 72, "pitch": 67, "duration": 12, "velocity": 64}, {"time": 84, "pitch": 74, "duration": 12, "velocity": 64}, {"time": 96, "pitch": 72, "duration": 12, "velocity": 64}, {"time": 108, "pitch": 71, "duration": 12, "velocity": 64}, {"time": 120, "pitch": 69, "duration": 24, "velocity": 64}, {"time": 156, "pitch": 71, "duration": 12, "velocity": 64}, {"time": 168, "pitch": 67, "duration": 12, "velocity": 64}, {"time": 180, "pitch": 69, "duration": 12, "velocity": 64}, {"time": 192, "pitch": 71, "duration": 12, "velocity": 64}, {"time": 204, "pitch": 67, "duration": 12, "velocity": 64}, {"time": 216, "pitch": 69, "duration": 12, "velocity": 64}, {"time": 228, "pitch": 71, "duration": 12, "velocity": 64}, {"time": 240, "pitch": 67, "duration": 12, "velocity": 64}, {"time": 252, "pitch": 69, "duration": 12, "velocity": 64}, {"time": 264, "pitch": 62, "duration": 24, "velocity": 64}, {"time": 288, "pitch": 74, "duration": 12, "velocity": 64}, {"time": 300, "pitch": 67, "duration": 18, "velocity": 64}, {"time": 318, "pitch": 69, "duration": 6, "velocity": 64}, {"time": 324, "pitch": 71, "duration": 12, "velocity": 64}, {"time": 336, "pitch": 69, "duration": 24, "velocity": 64}, {"time": 360, "pitch": 74, "duration": 12, "velocity": 64}, {"time": 372, "pitch": 67, "duration": 18, "velocity": 64}, {"time": 390, "pitch": 69, "duration": 6, "velocity": 64}, {"time": 396, "pitch": 71, "duration": 12, "velocity": 64}, {"time": 408, "pitch": 69, "duration": 24, "velocity": 64}, {"time": 432, "pitch": 67, "duration": 12, "velocity": 64}, {"time": 444, "pitch": 71, "duration": 12, "velocity": 64}, {"time": 456, "pitch": 71, "duration": 12, "velocity": 64}, {"time": 468, "pitch": 67, "duration": 12, "velocity": 64}, {"time": 480, "pitch": 69, "duration": 12, "velocity": 64}, {"time": 492, "pitch": 69, "duration": 12, "velocity": 64}, {"time": 504, "pitch": 67, "duration": 12, "velocity": 64}, {"time": 516, "pitch": 71, "duration": 12, "velocity": 64}, {"time": 528, "pitch": 71, "duration": 12, "velocity": 64}, {"time": 540, "pitch": 67, "duration": 12, "velocity": 64}, {"time": 552, "pitch": 69, "duration": 12, "velocity": 64}, {"time": 564, "pitch": 69, "duration": 12, "velocity": 64}, {"time": 576, "pitch": 67, "duration": 12, "velocity": 64}, {"time": 588, "pitch": 69, "duration": 24, "velocity": 64}, {"time": 612, "pitch": 62, "duration": 12, "velocity": 64}, {"time": 624, "pitch": 62, "duration": 24, "velocity": 64}, {"time": 648, "pitch": 62, "duration": 12, "velocity": 64}, {"time": 660, "pitch": 67, "duration": 24, "velocity": 64}, {"time": 684, "pitch": 69, "duration": 12, "velocity": 64}, {"time": 696, "pitch": 71, "duration": 12, "velocity": 64}, {"time": 708, "pitch": 69, "duration": 12, "velocity": 64}, {"time": 720, "pitch": 67, "duration": 12, "velocity": 64}, {"time": 732, "pitch": 74, "duration": 18, "velocity": 64}, {"time": 750, "pitch": 72, "duration": 6, "velocity": 64}, {"time": 756, "pitch": 71, "duration": 12, "velocity": 64}, {"time": 768, "pitch": 69, "duration": 36, "velocity": 64}, {"time": 804, "pitch": 74, "duration": 18, "velocity": 64}, {"time": 822, "pitch": 72, "duration": 6, "velocity": 64}, {"time": 828, "pitch": 71, "duration": 12, "velocity": 64}, {"time": 840, "pitch": 69, "duration": 24, "velocity": 64}, {"time": 864, "pitch": 69, "duration": 12, "velocity": 64}, {"time": 876, "pitch": 74, "duration": 24, "velocity": 64}, {"time": 900, "pitch": 71, "duration": 12, "velocity": 64}, {"time": 912, "pitch": 72, "duration": 24, "velocity": 64}, {"time": 936, "pitch": 69, "duration": 12, "velocity": 64}, {"time": 948, "pitch": 74, "duration": 12, "velocity": 64}, {"time": 960, "pitch": 72, "duration": 12, "velocity": 64}, {"time": 972, "pitch": 71, "duration": 12, "velocity": 64}, {"time": 984, "pitch": 69, "duration": 24, "velocity": 64}, {"time": 1008, "pitch": 69, "duration": 12, "velocity": 64}, {"time": 1020, "pitch": 72, "duration": 12, "velocity": 64}, {"time": 1032, "pitch": 72, "duration": 12, "velocity": 64}, {"time": 1044, "pitch": 71, "duration": 12, "velocity": 64}, {"time": 1056, "pitch": 71, "duration": 24, "velocity": 64}, {"time": 1080, "pitch": 67, "duration": 12, "velocity": 64}, {"time": 1092, "pitch": 69, "duration": 12, "velocity": 64}, {"time": 1104, "pitch": 67, "duration": 12, "velocity": 64}, {"time": 1116, "pitch": 66, "duration": 12, "velocity": 64}, {"time": 1128, "pitch": 67, "duration": 24, "velocity": 64}, {"time": 1164, "pitch": 74, "duration": 24, "velocity": 64}, {"time": 1188, "pitch": 76, "duration": 6, "velocity": 64}, {"time": 1194, "pitch": 74, "duration": 6, "velocity": 64}, {"time": 1200, "pitch": 74, "duration": 24, "velocity": 64}, {"time": 1224, "pitch": 76, "duration": 6, "velocity": 64}, {"time": 1230, "pitch": 74, "duration": 6, "velocity": 64}, {"time": 1236, "pitch": 74, "duration": 24, "velocity": 64}, {"time": 1260, "pitch": 74, "duration": 6, "velocity": 64}, {"time": 1266, "pitch": 72, "duration": 6, "velocity": 64}, {"time": 1272, "pitch": 71, "duration": 12, "velocity": 64}, {"time": 1284, "pitch": 67, "duration": 12, "velocity": 64}, {"time": 1296, "pitch": 67, "duration": 12, "velocity": 64}, {"time": 1308, "pitch": 69, "duration": 18, "velocity": 64}, {"time": 1326, "pitch": 71, "duration": 6, "velocity": 64}, {"time": 1332, "pitch": 69, "duration": 12, "velocity": 64}, {"time": 1344, "pitch": 69, "duration": 24, "velocity": 64}, {"time": 1368, "pitch": 71, "duration": 12, "velocity": 64}, {"time": 1380, "pitch": 69, "duration": 18, "velocity": 64}, {"time": 1398, "pitch": 71, "duration": 6, "velocity": 64}, {"time": 1404, "pitch": 69, "duration": 12, "velocity": 64}, {"time": 1416, "pitch": 69, "duration": 6, "velocity": 64}, {"time": 1422, "pitch": 62, "duration": 6, "velocity": 64}, {"time": 1428, "pitch": 62, "duration": 24, "velocity": 64}, {"time": 1452, "pitch": 71, "duration": 12, "velocity": 64}, {"time": 1464, "pitch": 67, "duration": 12, "velocity": 64}, {"time": 1476, "pitch": 67, "duration": 12, "velocity": 64}, {"time": 1488, "pitch": 69, "duration": 12, "velocity": 64}, {"time": 1500, "pitch": 62, "duration": 12, "velocity": 64}, {"time": 1512, "pitch": 62, "duration": 12, "velocity": 64}, {"time": 1524, "pitch": 71, "duration": 12, "velocity": 64}, {"time": 1536, "pitch": 67, "duration": 12, "velocity": 64}, {"time": 1548, "pitch": 67, "duration": 12, "velocity": 64}, {"time": 1560, "pitch": 69, "duration": 6, "velocity": 64}, {"time": 1566, "pitch": 62, "duration": 6, "velocity": 64}, {"time": 1572, "pitch": 62, "duration": 12, "velocity": 64}, {"time": 1584, "pitch": 62, "duration": 12, "velocity": 64}, {"time": 1596, "pitch": 67, "duration": 18, "velocity": 64}, {"time": 1614, "pitch": 69, "duration": 6, "velocity": 64}, {"time": 1620, "pitch": 67, "duration": 12, "velocity": 64}, {"time": 1632, "pitch": 71, "duration": 18, "velocity": 64}, {"time": 1650, "pitch": 69, "duration": 6, "velocity": 64}, {"time": 1656, "pitch": 67, "duration": 12, "velocity": 64}, {"time": 1668, "pitch": 74, "duration": 36, "velocity": 64}, {"time": 1704, "pitch": 72, "duration": 24, "velocity": 64}, {"time": 1728, "pitch": 69, "duration": 12, "velocity": 64}, {"time": 1740, "pitch": 71, "duration": 6, "velocity": 64}, {"time": 1746, "pitch": 67, "duration": 6, "velocity": 64}, {"time": 1752, "pitch": 67, "duration": 24, "velocity": 64}, {"time": 1776, "pitch": 71, "duration": 6, "velocity": 64}, {"time": 1782, "pitch": 67, "duration": 6, "velocity": 64}, {"time": 1788, "pitch": 71, "duration": 12, "velocity": 64}, {"time": 1800, "pitch": 74, "duration": 12, "velocity": 64}, {"time": 1812, "pitch": 72, "duration": 6, "velocity": 64}, {"time": 1818, "pitch": 69, "duration": 6, "velocity": 64}, {"time": 1824, "pitch": 69, "duration": 12, "velocity": 64}, {"time": 1836, "pitch": 62, "duration": 12, "velocity": 64}, {"time": 1848, "pitch": 67, "duration": 18, "velocity": 64}, {"time": 1866, "pitch": 69, "duration": 6, "velocity": 64}, {"time": 1872, "pitch": 67, "duration": 12, "velocity": 64}, {"time": 1884, "pitch": 71, "duration": 18, "velocity": 64}, {"time": 1902, "pitch": 69, "duration": 6, "velocity": 64}, {"time": 1908, "pitch": 67, "duration": 12, "velocity": 64}, {"time": 1920, "pitch": 74, "duration": 36, "velocity": 64}, {"time": 1956, "pitch": 72, "duration": 24, "velocity": 64}, {"time": 1980, "pitch": 69, "duration": 12, "velocity": 64}, {"time": 1992, "pitch": 71, "duration": 12, "velocity": 64}, {"time": 2004, "pitch": 67, "duration": 12, "velocity": 64}, {"time": 2016, "pitch": 67, "duration": 12, "velocity": 64}]}]}