{"metadata": {"schema_version": "0.1", "title": "\"Kuhreigen\"", "source_format": "abc"}, "resolution": 24, "tempos": [{"time": 0, "qpm": 120.0}], "key_signatures": [{"time": 0, "root": 7, "mode": "major", "fifths": 1}], "time_signatures": [{"time": 0, "numerator": 2, "denominator": 4}], "beats": [{"time": 0, "is_downbeat": true}, {"time": 12, "is_downbeat": true}, {"time": 36, "is_downbeat": false}, {"time": 60, "is_downbeat": true}, {"time": 84, "is_downbeat": false}, {"time": 108, "is_downbeat": true}, {"time": 132, "is_downbeat": false}, {"time": 156, "is_downbeat": true}, {"time": 180, "is_downbeat": false}, {"time": 204, "is_downbeat": true}, {"time": 228, "is_downbeat": false}, {"time": 252, "is_downbeat": true}, {"time": 276, "is_downbeat": false}, {"time": 300, "is_downbeat": true}, {"time": 324, "is_downbeat": false}, {"time": 348, "is_downbeat": true}, {"time": 372, "is_downbeat": false}, {"time": 396, "is_downbeat": true}, {"time": 420, "is_downbeat": false}, {"time": 444, "is_downbeat": true}, {"time": 468, "is_downbeat": false}, {"time": 492, "is_downbeat": true}, {"time": 516, "is_downbeat": false}, {"time": 540, "is_downbeat": true}, {"time": 564, "is_downbeat": false}, {"time": 588, "is_downbeat": true}, {"time": 612, "is_downbeat": false}, {"time": 636, "is_downbeat": true}, {"time": 660, "is_downbeat": false}, {"time": 684, "is_downbeat": true}, {"time": 708, "is_downbeat": false}, {"time": 732, "is_downbeat": true}, {"time": 756, "is_downbeat": false}, {"time": 780, "is_downbeat": true}, {"time": 804, "is_downbeat": false}, {"time": 828, "is_downbeat": true}, {"time": 852, "is_downbeat": false}, {"time": 876, "is_downbeat": true}, {"time": 900, "is_downbeat": false}, {"time": 924, "is_downbeat": true}, {"time": 948, "is_downbeat": false}, {"time": 972, "is_downbeat": true}, {"time": 996, "is_downbeat": false}, {"time": 1020, "is_downbeat": true}, {"time": 1044, "is_downbeat": false}, {"time": 1068, "is_downbeat": true}, {"time": 1092, "is_downbeat": false}, {"time": 1116, "is_downbeat": true}, {"time": 1140, "is_downbeat": false}, {"time": 1164, "is_downbeat": true}, {"time": 1188, "is_downbeat": false}, {"time": 1212, "is_downbeat": true}, {"time": 1236, "is_downbeat": false}, {"time": 1260, "is_downbeat": true}, {"time": 1284, "is_downbeat": false}], "tracks": [{"program": 0, "is_drum": false, "notes": [{"time": 0, "pitch": 62, "duration": 6, "velocity": 64}, {"time": 6, "pitch": 62, "duration": 6, "velocity": 64}, {"time": 12, "pitch": 67, "duration": 12, "velocity": 64}, {"time": 24, "pitch": 67, "duration": 12, "velocity": 64}, {"time": 36, "pitch": 71, "duration": 12, "velocity": 64}, {"time": 48, "pitch": 71, "duration": 6, "velocity": 64}, {"time": 54, "pitch": 71, "duration": 6, "velocity": 64}, {"time": 60, "pitch": 74, "duration": 12, "velocity": 64}, {"time": 72, "pitch": 76, "duration": 6, "velocity": 64}, {"time": 78, "pitch": 74, "duration": 6, "velocity": 64}, {"time": 84, "pitch": 71, "duration": 12, "velocity": 64}, {"time": 96, "pitch": 71, "duration": 6, "velocity": 64}, {"time": 102, "pitch": 71, "duration": 6, "velocity": 64}, {"time": 108, "pitch": 74, "duration": 12, "velocity": 64}, {"time": 120, "pitch": 72, "duration": 12, "velocity": 64}, {"time": 132, "pitch": 69, "duration": 12, "velocity": 64}, {"time": 144, "pitch": 69, "duration": 6, "velocity": 64}, {"time": 150, "pitch": 69, "duration": 6, "velocity": 64}, {"time": 156, "pitch": 71, "duration": 12, "velocity": 64}, {"time": 168, "pitch": 79, "duration": 12, "velocity": 64}, {"time": 180, "pitch": 83, "duration": 12, "velocity": 64}, {"time": 192, "pitch": 62, "duration": 6, "velocity": 64}, {"time": 198, "pitch": 62, "duration": 6, "velocity": 64}, {"time": 204, "pitch": 67, "duration": 12, "velocity": 64}, {"time": 216, "pitch": 67, "duration": 6, "velocity": 64}, {"time": 222, "pitch": 69, "duration": 6, "velocity": 64}, {"time": 228, "pitch": 71, "duration": 12, "velocity": 64}, {"time": 240, "pitch": 71, "duration": 6, "velocity": 64}, {"time": 246, "pitch": 72, "duration": 6, "velocity": 64}, {"time": 252, "pitch": 74, "duration": 12, "velocity": 64}, {"time": 264, "pitch": 76, "duration": 6, "velocity": 64}, {"time": 270, "pitch": 74, "duration": 6, "velocity": 64}, {"time": 276, "pitch": 71, "duration": 12, "velocity": 64}, {"time": 288, "pitch": 71, "duration": 6, "velocity": 64}, {"time": 294, "pitch": 71, "duration": 6, "velocity": 64}, {"time": 300, "pitch": 74, "duration": 12, "velocity": 64}, {"time": 312, "pitch": 72, "duration": 12, "velocity": 64}, {"time": 324, "pitch": 69, "duration": 12, "velocity": 64}, {"time": 336, "pitch": 69, "duration": 6, "velocity": 64}, {"time": 342, "pitch": 69, "duration": 6, "velocity": 64}, {"time": 348, "pitch": 71, "duration": 24, "velocity": 64}, {"time": 384, "pitch": 67, "duration": 12, "velocity": 64}, {"time": 396, "pitch": 69, "duration": 12, "velocity": 64}, {"time": 408, "pitch": 69, "duration": 6, "velocity": 64}, {"time": 414, "pitch": 69, "duration": 6, "velocity": 64}, {"time": 420, "pitch": 67, "duration": 6, "velocity": 64}, {"time": 426, "pitch": 66, "duration": 6, "velocity": 64}, {"time": 432, "pitch": 64, "duration": 6, "velocity": 64}, {"time": 438, "pitch": 62, "duration": 6, "velocity": 64}, {"time": 444, "pitch": 69, "duration": 12, "velocity": 64}, {"time": 456, "pitch": 69, "duration": 12, "velocity": 64}, {"time": 468, "pitch": 67, "duration": 6, "velocity": 64}, {"time": 474, "pitch": 66, "duration": 6, "velocity": 64}, {"time": 480, "pitch": 64, "duration": 6, "velocity": 64}, {"time": 486, "pitch": 62, "duration": 6, "velocity": 64}, {"time": 492, "pitch": 69, "duration": 12, "velocity": 64}, {"time": 504, "pitch": 69, "duration": 12, "velocity": 64}, {"time": 516, "pitch": 74, "duration": 36, "velocity": 64}, {"time": 552, "pitch": 66, "duration": 6, "velocity": 64}, {"time": 558, "pitch": 69, "duration": 6, "velocity": 64}, {"time": 564, "pitch": 69, "duration": 6, "velocity": 64}, {"time": 570, "pitch": 67, "duration": 6, "velocity": 64}, {"time": 576, "pitch": 64, "duration": 6, "velocity": 64}, {"time": 582, "pitch": 66, "duration": 6, "velocity": 64}, {"time": 588, "pitch": 62, "duration": 12, "velocity": 64}, {"time": 600, "pitch": 62, "duration": 12, "velocity": 64}, {"time": 612, "pitch": 62, "duration": 12, "velocity": 64}, {"time": 636, "pitch": 67, "duration": 12, "velocity": 64}, {"time": 648, "pitch": 67, "duration": 12, "velocity": 64}, {"time": 660, "pitch": 71, "duration": 6, "velocity": 64}, {"time": 666, "pitch": 69, "duration": 6, "velocity": 64}, {"time": 672, "pitch": 71, "duration": 6, "velocity": 64}, {"time": 678, "pitch": 72, "duration": 6, "velocity": 64}, {"time": 684, "pitch": 74, "duration": 12, "velocity": 64}, {"time": 696, "pitch": 76, "duration": 6, "velocity": 64}, {"time": 702, "pitch": 74, "duration": 6, "velocity": 64}, {"time": 708, "pitch": 71, "duration": 12, "velocity": 64}, {"time": 720, "pitch": 72, "duration": 6, "velocity": 64}, {"time": 726, "pitch": 71, "duration": 6, "velocity": 64}, {"time": 732, "pitch": 74, "duration": 12, "velocity": 64}, {"time": 744, "pitch": 72, "duration": 12, "velocity": 64}, {"time": 756, "pitch": 69, "duration": 12, "velocity": 64}, {"time": 768, "pitch": 69, "duration": 6, "velocity": 64}, {"time": 774, "pitch": 69, "duration": 6, "velocity": 64}, {"time": 780, "pitch": 71, "duration": 12, "velocity": 64}, {"time": 792, "pitch": 79, "duration": 12, "velocity": 64}, {"time": 804, "pitch": 83, "duration": 12, "velocity": 64}, {"time": 816, "pitch": 71, "duration": 6, "velocity": 64}, {"time": 822, "pitch": 71, "duration": 6, "velocity": 64}, {"time": 828, "pitch": 74, "duration": 12, "velocity": 64}, {"time": 840, "pitch": 72, "duration": 12, "velocity": 64}, {"time": 852, "pitch": 69, "duration": 12, "velocity": 64}, {"time": 864, "pitch": 69, "duration": 6, "velocity": 64}, {"time": 870, "pitch": 69, "duration": 6, "velocity": 64}, {"time": 876, "pitch": 71, "duration": 36, "velocity": 64}, {"time": 912, "pitch": 71, "duration": 6, "velocity": 64}, {"time": 918, "pitch": 74, "duration": 6, "velocity": 64}, {"time": 924, "pitch": 72, "duration": 12, "velocity": 64}, {"time": 936, "pitch": 69, "duration": 6, "velocity": 64}, {"time": 942, "pitch": 72, "duration": 6, "velocity": 64}, {"time": 948, "pitch": 81, "duration": 6, "velocity": 64}, {"time": 954, "pitch": 69, "duration": 6, "velocity": 64}, {"time": 960, "pitch": 72, "duration": 6, "velocity": 64}, {"time": 966, "pitch": 76, "duration": 6, "velocity": 64}, {"time": 972, "pitch": 74, "duration": 12, "velocity": 64}, {"time": 984, "pitch": 71, "duration": 6, "velocity": 64}, {"time": 990, "pitch": 83, "duration": 6, "velocity": 64}, {"time": 996, "pitch": 79, "duration": 12, "velocity": 64}, {"time": 1008, "pitch": 71, "duration": 6, "velocity": 64}, {"time": 1014, "pitch": 74, "duration": 6, "velocity": 64}, {"time": 1020, "pitch": 72, "duration": 12, "velocity": 64}, {"time": 1032, "pitch": 69, "duration": 6, "velocity": 64}, {"time": 1038, "pitch": 72, "duration": 6, "velocity": 64}, {"time": 1044, "pitch": 81, "duration": 6, "velocity": 64}, {"time": 1050, "pitch": 69, "duration": 6, "velocity": 64}, {"time": 1056, "pitch": 72, "duration": 6, "velocity": 64}, {"time": 1062, "pitch": 76, "duration": 6, "velocity": 64}, {"time": 1068, "pitch": 74, "duration": 12, "velocity": 64}, {"time": 1080, "pitch": 71, "duration": 6, "velocity": 64}, {"time": 1086, "pitch": 83, "duration": 6, "velocity": 64}, {"time": 1092, "pitch": 79, "duration": 12, "velocity": 64}, {"time": 1104, "pitch": 74, "duration": 6, "velocity": 64}, {"time": 1110, "pitch": 83, "duration": 6, "velocity": 64}, {"time": 1116, "pitch": 79, "duration": 30, "velocity": 64}, {"time": 1146, "pitch": 74, "duration": 6, "velocity": 64}, {"time": 1152, "pitch": 83, "duration": 6, "velocity": 64}, {"time": 1158, "pitch": 74, "duration": 6, "velocity": 64}, {"time": 1164, "pitch": 79, "duration": 30, "velocity": 64}, {"time": 1194, "pitch": 74, "duration": 6, "velocity": 64}, {"time": 1200, "pitch": 83, "duration": 6, "velocity": 64}, {"time": 1206, "pitch": 74, "duration": 6, "velocity": 64}, {"time": 1212, "pitch": 79, "duration": 6, "velocity": 64}, {"time": 1218, "pitch": 74, "duration": 6, "velocity": 64}, {"time": 1224, "pitch": 83, "duration": 6, "velocity": 64}, {"time": 1230, "pitch": 74, "duration": 6, "velocity": 64}, {"time": 1236, "pitch": 79, "duration": 6, "velocity": 64}, {"time": 1242, "pitch": 74, "duration": 6, "velocity": 64}, {"time": 1248, "pitch": 74, "duration": 6, "velocity": 64}, {"time": 1254, "pitch": 83, "duration": 6, "velocity": 64}, {"time": 1260, "pitch": 79, "duration": 24, "velocity": 64}]}]}