{"metadata": {"schema_version": "0.1", "title": "\"Das Schlaraffenland\"", "source_format": "abc"}, "resolution": 24, "tempos": [{"time": 0, "qpm": 120.0}], "key_signatures": [{"time": 0, "root": 9, "mode": "major", "fifths": 3}], "time_signatures": [{"time": 0, "numerator": 2, "denominator": 4}], "beats": [{"time": 0, "is_downbeat": true}, {"time": 12, "is_downbeat": true}, {"time": 36, "is_downbeat": false}, {"time": 60, "is_downbeat": true}, {"time": 84, "is_downbeat": false}, {"time": 108, "is_downbeat": true}, {"time": 132, "is_downbeat": false}, {"time": 156, "is_downbeat": true}, {"time": 180, "is_downbeat": false}, {"time": 204, "is_downbeat": true}, {"time": 228, "is_downbeat": false}, {"time": 252, "is_downbeat": true}, {"time": 276, "is_downbeat": false}, {"time": 300, "is_downbeat": true}, {"time": 324, "is_downbeat": false}, {"time": 348, "is_downbeat": true}, {"time": 372, "is_downbeat": false}, {"time": 396, "is_downbeat": true}, {"time": 420, "is_downbeat": false}, {"time": 444, "is_downbeat": true}, {"time": 468, "is_downbeat": false}, {"time": 492, "is_downbeat": true}, {"time": 516, "is_downbeat": false}, {"time": 540, "is_downbeat": true}, {"time": 564, "is_downbeat": false}, {"time": 588, "is_downbeat": true}, {"time": 612, "is_downbeat": false}, {"time": 636, "is_downbeat": true}, {"time": 660, "is_downbeat": false}, {"time": 684, "is_downbeat": true}, {"time": 708, "is_downbeat": false}, {"time": 732, "is_downbeat": true}, {"time": 756, "is_downbeat": false}, {"time": 768, "is_downbeat": true}, {"time": 792, "is_downbeat": false}, {"time": 804, "is_downbeat": true}, {"time": 828, "is_downbeat": false}, {"time": 840, "is_downbeat": true}, {"time": 864, "is_downbeat": false}], "tracks": [{"program": 0, "is_drum": false, "notes": [{"time": 0, "pitch": 73, "duration": 6, "velocity": 64}, {"time": 6, "pitch": 71, "duration": 6, "velocity": 64}, {"time": 12, "pitch": 69, "duration": 12, "velocity": 64}, {"time": 24, "pitch": 69, "duration": 12, "velocity": 64}, {"time": 36, "pitch": 69, "duration": 12, "velocity": 64}, {"time": 48, "pitch": 64, "duration": 12, "velocity": 64}, {"time": 60, "pitch": 69, "duration": 24, "velocity": 64}, {"time": 84, "pitch": 71, "duration": 24, "velocity": 64}, {"time": 108, "pitch": 73, "duration": 24, "velocity": 64}, {"time": 144, "pitch": 73, "duration": 6, "velocity": 64}, {"time": 150, "pitch": 71, "duration": 6, "velocity": 64}, {"time": 156, "pitch": 69, "duration": 12, "velocity": 64}, {"time": 168, "pitch": 69, "duration": 12, "velocity": 64}, {"time": 180, "pitch": 69, "duration": 12, "velocity": 64}, {"time": 192, "pitch": 64, "duration": 12, "velocity": 64}, {"time": 204, "pitch": 69, "duration": 24, "velocity": 64}, {"time": 228, "pitch": 71, "duration": 24, "velocity": 64}, {"time": 252, "pitch": 73, "duration": 24, "velocity": 64}, {"time": 288, "pitch": 69, "duration": 6, "velocity": 64}, {"time": 294, "pitch": 71, "duration": 6, "velocity": 64}, {"time": 300, "pitch": 73, "duration": 12, "velocity": 64}, {"time": 312, "pitch": 73, "duration": 6, "velocity": 64}, {"time": 318, "pitch": 74, "duration": 6, "velocity": 64}, {"time": 324, "pitch": 76, "duration": 12, "velocity": 64}, {"time": 336, "pitch": 74, "duration": 6, "velocity": 64}, {"time": 342, "pitch": 73, "duration": 6, "velocity": 64}, {"time": 348, "pitch": 71, "duration": 24, "velocity": 64}, {"time": 372, "pitch": 64, "duration": 12, "velocity": 64}, {"time": 408, "pitch": 73, "duration": 6, "velocity": 64}, {"time": 414, "pitch": 74, "duration": 6, "velocity": 64}, {"time": 420, "pitch": 76, "duration": 12, "velocity": 64}, {"time": 432, "pitch": 73, "duration": 12, "velocity": 64}, {"time": 444, "pitch": 71, "duration": 24, "velocity": 64}, {"time": 468, "pitch": 71, "duration": 12, "velocity": 64}, {"time": 480, "pitch": 73, "duration": 6, "velocity": 64}, {"time": 486, "pitch": 74, "duration": 6, "velocity": 64}, {"time": 492, "pitch": 76, "duration": 24, "velocity": 64}, {"time": 516, "pitch": 73, "duration": 24, "velocity": 64}, {"time": 540, "pitch": 74, "duration": 12, "velocity": 64}, {"time": 552, "pitch": 76, "duration": 6, "velocity": 64}, {"time": 558, "pitch": 74, "duration": 6, "velocity": 64}, {"time": 564, "pitch": 73, "duration": 12, "velocity": 64}, {"time": 576, "pitch": 71, "duration": 12, "velocity": 64}, {"time": 588, "pitch": 73, "duration": 24, "velocity": 64}, {"time": 624, "pitch": 73, "duration": 6, "velocity": 64}, {"time": 630, "pitch": 71, "duration": 6, "velocity": 64}, {"time": 636, "pitch": 69, "duration": 12, "velocity": 64}, {"time": 648, "pitch": 71, "duration": 12, "velocity": 64}, {"time": 660, "pitch": 73, "duration": 12, "velocity": 64}, {"time": 672, "pitch": 75, "duration": 6, "velocity": 64}, {"time": 678, "pitch": 74, "duration": 6, "velocity": 64}, {"time": 684, "pitch": 76, "duration": 12, "velocity": 64}, {"time": 696, "pitch": 64, "duration": 12, "velocity": 64}, {"time": 720, "pitch": 69, "duration": 6, "velocity": 64}, {"time": 726, "pitch": 73, "duration": 6, "velocity": 64}, {"time": 732, "pitch": 76, "duration": 18, "velocity": 64}, {"time": 750, "pitch": 78, "duration": 6, "velocity": 64}, {"time": 756, "pitch": 76, "duration": 6, "velocity": 64}, {"time": 762, "pitch": 74, "duration": 6, "velocity": 64}, {"time": 768, "pitch": 73, "duration": 18, "velocity": 64}, {"time": 786, "pitch": 71, "duration": 6, "velocity": 64}, {"time": 792, "pitch": 69, "duration": 12, "velocity": 64}, {"time": 804, "pitch": 71, "duration": 24, "velocity": 64}, {"time": 828, "pitch": 73, "duration": 12, "velocity": 64}, {"time": 840, "pitch": 69, "duration": 24, "velocity": 64}]}]}