{"metadata": {"schema_version": "0.1", "title": "\"Der Reigen\"", "source_format": "abc"}, "resolution": 24, "tempos": [{"time": 0, "qpm": 120.0}], "key_signatures": [{"time": 0, "root": 9, "mode": "major", "fifths": 3}], "time_signatures": [{"time": 0, "numerator": 3, "denominator": 8}], "beats": [{"time": 0, "is_downbeat": true}, {"time": 12, "is_downbeat": false}, {"time": 24, "is_downbeat": false}, {"time": 36, "is_downbeat": true}, {"time": 48, "is_downbeat": false}, {"time": 60, "is_downbeat": false}, {"time": 72, "is_downbeat": true}, {"time": 84, "is_downbeat": false}, {"time": 96, "is_downbeat": false}, {"time": 108, "is_downbeat": true}, {"time": 120, "is_downbeat": false}, {"time": 132, "is_downbeat": false}, {"time": 144, "is_downbeat": true}, {"time": 156, "is_downbeat": false}, {"time": 168, "is_downbeat": false}, {"time": 180, "is_downbeat": true}, {"time": 192, "is_downbeat": false}, {"time": 204, "is_downbeat": false}, {"time": 216, "is_downbeat": true}, {"time": 228, "is_downbeat": false}, {"time": 240, "is_downbeat": false}, {"time": 252, "is_downbeat": true}, {"time": 264, "is_downbeat": false}, {"time": 276, "is_downbeat": false}], "tracks": [{"program": 0, "is_drum": false, "notes": [{"time": 0, "pitch": 64, "duration": 6, "velocity": 64}, {"time": 6, "pitch": 69, "duration": 6, "velocity": 64}, {"time": 12, "pitch": 69, "duration": 6, "velocity": 64}, {"time": 18, "pitch": 69, "duration": 6, "velocity": 64}, {"time": 24, "pitch": 69, "duration": 6, "velocity": 64}, {"time": 30, "pitch": 69, "duration": 6, "velocity": 64}, {"time": 36, "pitch": 71, "duration": 12, "velocity": 64}, {"time": 48, "pitch": 74, "duration": 24, "velocity": 64}, {"time": 72, "pitch": 64, "duration": 6, "velocity": 64}, {"time": 78, "pitch": 68, "duration": 6, "velocity": 64}, {"time": 84, "pitch": 68, "duration": 6, "velocity": 64}, {"time": 90, "pitch": 68, "duration": 6, "velocity": 64}, {"time": 96, "pitch": 68, "duration": 6, "velocity": 64}, {"time": 102, "pitch": 68, "duration": 6, "velocity": 64}, {"time": 108, "pitch": 69, "duration": 12, "velocity": 64}, {"time": 120, "pitch": 73, "duration": 24, "velocity": 64}, {"time": 144, "pitch": 64, "duration": 6, "velocity": 64}, {"time": 150, "pitch": 69, "duration": 6, "velocity": 64}, {"time": 156, "pitch": 69, "duration": 6, "velocity": 64}, {"time": 162, "pitch": 69, "duration": 6, "velocity": 64}, {"time": 168, "pitch": 69, "duration": 6, "velocity": 64}, {"time": 174, "pitch": 69, "duration": 6, "velocity": 64}, {"time": 180, "pitch": 71, "duration": 6, "velocity": 64}, {"time": 186, "pitch": 74, "duration": 6, "velocity": 64}, {"time": 192, "pitch": 74, "duration": 24, "velocity": 64}, {"time": 216, "pitch": 64, "duration": 6, "velocity": 64}, {"time": 222, "pitch": 68, "duration": 6, "velocity": 64}, {"time": 228, "pitch": 68, "duration": 6, "velocity": 64}, {"time": 234, "pitch": 68, "duration": 6, "velocity": 64}, {"time": 240, "pitch": 68, "duration": 12, "velocity": 64}, {"time": 252, "pitch": 71, "duration": 12, "velocity": 64}, {"time": 264, "pitch": 69, "duration": 24, "velocity": 64}]}]}